<?xml version="1.0" encoding="us-ascii" standalone="no"?><svg xmlns="http://www.w3.org/2000/svg" xmlns:xlink="http://www.w3.org/1999/xlink" contentStyleType="text/css" height="2290px" preserveAspectRatio="none" style="width:2813px;height:2290px;background:#1B1B1B;" version="1.1" viewBox="0 0 2813 2290" width="2813px" zoomAndPan="magnify"><defs/><g><rect fill="#1B1B1B" height="2290" style="stroke:none;stroke-width:1.0;" width="2813" x="0" y="0"/><rect fill="#000000" height="2058.5369" style="stroke:#E7E7E7;stroke-width:1.0;" width="10" x="45" y="122.8419"/><rect fill="#000000" height="966.6504" style="stroke:#E7E7E7;stroke-width:1.0;" width="10" x="305" y="122.8419"/><rect fill="#000000" height="156.8241" style="stroke:#E7E7E7;stroke-width:1.0;" width="10" x="305" y="1121.1983"/><rect fill="#000000" height="870.6504" style="stroke:#E7E7E7;stroke-width:1.0;" width="10" x="305" y="1309.7284"/><rect fill="#000000" height="470.4722" style="stroke:#E7E7E7;stroke-width:1.0;" width="10" x="541" y="154.5479"/><rect fill="#000000" height="401.0602" style="stroke:#E7E7E7;stroke-width:1.0;" width="10" x="541" y="656.7261"/><rect fill="#000000" height="93.412" style="stroke:#E7E7E7;stroke-width:1.0;" width="10" x="541" y="1152.9043"/><rect fill="#000000" height="267.9421" style="stroke:#E7E7E7;stroke-width:1.0;" width="10" x="541" y="1435.2584"/><rect fill="#000000" height="329.6481" style="stroke:#E7E7E7;stroke-width:1.0;" width="10" x="541" y="1835.7306"/><rect fill="#000000" height="117.118" style="stroke:#E7E7E7;stroke-width:1.0;" width="10" x="717" y="688.4321"/><rect fill="#000000" height="30" style="stroke:#E7E7E7;stroke-width:1.0;" width="10" x="817.5" y="731.9911"/><rect fill="#000000" height="30" style="stroke:#E7E7E7;stroke-width:1.0;" width="10" x="913" y="1530.3765"/><rect fill="#000000" height="30" style="stroke:#E7E7E7;stroke-width:1.0;" width="10" x="913" y="1992.5547"/><rect fill="#000000" height="31.706" style="stroke:#E7E7E7;stroke-width:1.0;" width="10" x="1041.5" y="1466.9645"/><rect fill="#000000" height="31.706" style="stroke:#E7E7E7;stroke-width:1.0;" width="10" x="1213" y="1929.1427"/><rect fill="#000000" height="30" style="stroke:#E7E7E7;stroke-width:1.0;" width="10" x="1463" y="1867.4367"/><rect fill="#000000" height="63.412" style="stroke:#E7E7E7;stroke-width:1.0;" width="10" x="1689.5" y="186.2539"/><rect fill="#000000" height="31.706" style="stroke:#E7E7E7;stroke-width:1.0;" width="10" x="1837" y="217.9599"/><rect fill="#000000" height="93.412" style="stroke:#E7E7E7;stroke-width:1.0;" width="10" x="1837" y="281.3719"/><rect fill="#000000" height="93.412" style="stroke:#E7E7E7;stroke-width:1.0;" width="10" x="1837" y="406.49"/><rect fill="#000000" height="93.412" style="stroke:#E7E7E7;stroke-width:1.0;" width="10" x="1837" y="531.608"/><rect fill="#000000" height="30" style="stroke:#E7E7E7;stroke-width:1.0;" width="10" x="1996.5" y="313.0779"/><rect fill="#000000" height="30" style="stroke:#E7E7E7;stroke-width:1.0;" width="10" x="1996.5" y="1184.6103"/><rect fill="#000000" height="30" style="stroke:#E7E7E7;stroke-width:1.0;" width="10" x="1996.5" y="1592.0825"/><rect fill="#000000" height="30" style="stroke:#E7E7E7;stroke-width:1.0;" width="10" x="1996.5" y="2054.2607"/><rect fill="#000000" height="30" style="stroke:#E7E7E7;stroke-width:1.0;" width="10" x="2143.5" y="438.196"/><rect fill="#000000" height="30" style="stroke:#E7E7E7;stroke-width:1.0;" width="10" x="2143.5" y="837.2562"/><rect fill="#000000" height="30" style="stroke:#E7E7E7;stroke-width:1.0;" width="10" x="2269.5" y="563.314"/><rect fill="#000000" height="127.118" style="stroke:#E7E7E7;stroke-width:1.0;" width="10" x="2465" y="898.9622"/><rect fill="#000000" height="30" style="stroke:#E7E7E7;stroke-width:1.0;" width="10" x="2695.5" y="957.3742"/><rect fill="none" height="81.412" style="stroke:#FFFFFF;stroke-width:1.5;" width="471" x="2336.5" y="913.9622"/><rect fill="none" height="386.4722" style="stroke:#FFFFFF;stroke-width:1.5;" width="2084.5" x="10" y="1324.7284"/><rect fill="none" height="448.1782" style="stroke:#FFFFFF;stroke-width:1.5;" width="2084.5" x="10" y="1725.2006"/><line style="stroke:#E7E7E7;stroke-width:0.5;stroke-dasharray:5.0,5.0;" x1="50" x2="50" y1="89.1358" y2="2190.3788"/><line style="stroke:#E7E7E7;stroke-width:0.5;stroke-dasharray:5.0,5.0;" x1="309.5" x2="309.5" y1="89.1358" y2="2190.3788"/><line style="stroke:#E7E7E7;stroke-width:0.5;stroke-dasharray:5.0,5.0;" x1="545.5" x2="545.5" y1="89.1358" y2="2190.3788"/><line style="stroke:#E7E7E7;stroke-width:0.5;stroke-dasharray:5.0,5.0;" x1="721.5" x2="721.5" y1="89.1358" y2="2190.3788"/><line style="stroke:#E7E7E7;stroke-width:0.5;stroke-dasharray:5.0,5.0;" x1="822.5" x2="822.5" y1="89.1358" y2="2190.3788"/><line style="stroke:#E7E7E7;stroke-width:0.5;stroke-dasharray:5.0,5.0;" x1="917.5" x2="917.5" y1="89.1358" y2="2190.3788"/><line style="stroke:#E7E7E7;stroke-width:0.5;stroke-dasharray:5.0,5.0;" x1="1046.5" x2="1046.5" y1="89.1358" y2="2190.3788"/><line style="stroke:#E7E7E7;stroke-width:0.5;stroke-dasharray:5.0,5.0;" x1="1217.5" x2="1217.5" y1="89.1358" y2="2190.3788"/><line style="stroke:#E7E7E7;stroke-width:0.5;stroke-dasharray:5.0,5.0;" x1="1467.5" x2="1467.5" y1="89.1358" y2="2190.3788"/><line style="stroke:#E7E7E7;stroke-width:0.5;stroke-dasharray:5.0,5.0;" x1="1694.5" x2="1694.5" y1="89.1358" y2="2190.3788"/><line style="stroke:#E7E7E7;stroke-width:0.5;stroke-dasharray:5.0,5.0;" x1="1841.5" x2="1841.5" y1="89.1358" y2="2190.3788"/><line style="stroke:#E7E7E7;stroke-width:0.5;stroke-dasharray:5.0,5.0;" x1="2001.5" x2="2001.5" y1="89.1358" y2="2190.3788"/><line style="stroke:#E7E7E7;stroke-width:0.5;stroke-dasharray:5.0,5.0;" x1="2148.5" x2="2148.5" y1="89.1358" y2="2190.3788"/><line style="stroke:#E7E7E7;stroke-width:0.5;stroke-dasharray:5.0,5.0;" x1="2274.5" x2="2274.5" y1="89.1358" y2="2190.3788"/><line style="stroke:#E7E7E7;stroke-width:0.5;stroke-dasharray:5.0,5.0;" x1="2469.5" x2="2469.5" y1="89.1358" y2="2190.3788"/><line style="stroke:#E7E7E7;stroke-width:0.5;stroke-dasharray:5.0,5.0;" x1="2700.5" x2="2700.5" y1="89.1358" y2="2190.3788"/><text fill="#FFFFFF" font-family="sans-serif" font-size="14" lengthAdjust="spacing" textLength="54" x="20" y="85.0339">Teacher</text><ellipse cx="50" cy="18.5679" fill="#222222" rx="8" ry="8" style="stroke:#E7E7E7;stroke-width:0.5;"/><path d="M50,26.5679 L50,53.5679 M37,34.5679 L63,34.5679 M50,53.5679 L37,68.5679 M50,53.5679 L63,68.5679 " fill="none" style="stroke:#E7E7E7;stroke-width:0.5;"/><text fill="#FFFFFF" font-family="sans-serif" font-size="14" lengthAdjust="spacing" textLength="54" x="20" y="2204.3447">Teacher</text><ellipse cx="50" cy="2216.9467" fill="#222222" rx="8" ry="8" style="stroke:#E7E7E7;stroke-width:0.5;"/><path d="M50,2224.9467 L50,2251.9467 M37,2232.9467 L63,2232.9467 M50,2251.9467 L37,2266.9467 M50,2251.9467 L63,2266.9467 " fill="none" style="stroke:#E7E7E7;stroke-width:0.5;"/><rect fill="#222222" height="52.1358" rx="2.5" ry="2.5" style="stroke:#E7E7E7;stroke-width:0.5;" width="167" x="226.5" y="36"/><text fill="#FFFFFF" font-family="sans-serif" font-size="14" font-style="italic" lengthAdjust="spacing" textLength="94" x="263" y="57.9659">&#171;presentation&#187;</text><text fill="#FFFFFF" font-family="sans-serif" font-size="14" lengthAdjust="spacing" textLength="153" x="233.5" y="77.0339">UpdateRegularExamUI</text><rect fill="#222222" height="52.1358" rx="2.5" ry="2.5" style="stroke:#E7E7E7;stroke-width:0.5;" width="167" x="226.5" y="2189.3788"/><text fill="#FFFFFF" font-family="sans-serif" font-size="14" font-style="italic" lengthAdjust="spacing" textLength="94" x="263" y="2211.3447">&#171;presentation&#187;</text><text fill="#FFFFFF" font-family="sans-serif" font-size="14" lengthAdjust="spacing" textLength="153" x="233.5" y="2230.4126">UpdateRegularExamUI</text><rect fill="#222222" height="52.1358" rx="2.5" ry="2.5" style="stroke:#E7E7E7;stroke-width:0.5;" width="219" x="436.5" y="36"/><text fill="#FFFFFF" font-family="sans-serif" font-size="14" font-style="italic" lengthAdjust="spacing" textLength="85" x="503.5" y="57.9659">&#171;application&#187;</text><text fill="#FFFFFF" font-family="sans-serif" font-size="14" lengthAdjust="spacing" textLength="205" x="443.5" y="77.0339">UpdateRegularExamController</text><rect fill="#222222" height="52.1358" rx="2.5" ry="2.5" style="stroke:#E7E7E7;stroke-width:0.5;" width="219" x="436.5" y="2189.3788"/><text fill="#FFFFFF" font-family="sans-serif" font-size="14" font-style="italic" lengthAdjust="spacing" textLength="85" x="503.5" y="2211.3447">&#171;application&#187;</text><text fill="#FFFFFF" font-family="sans-serif" font-size="14" lengthAdjust="spacing" textLength="205" x="443.5" y="2230.4126">UpdateRegularExamController</text><rect fill="#222222" height="33.0679" rx="2.5" ry="2.5" style="stroke:#E7E7E7;stroke-width:0.5;" width="113" x="665.5" y="55.0679"/><text fill="#FFFFFF" font-family="sans-serif" font-size="14" lengthAdjust="spacing" textLength="99" x="672.5" y="77.0339">MyUserService</text><rect fill="#222222" height="33.0679" rx="2.5" ry="2.5" style="stroke:#E7E7E7;stroke-width:0.5;" width="113" x="665.5" y="2189.3788"/><text fill="#FFFFFF" font-family="sans-serif" font-size="14" lengthAdjust="spacing" textLength="99" x="672.5" y="2211.3447">MyUserService</text><rect fill="#222222" height="33.0679" rx="2.5" ry="2.5" style="stroke:#E7E7E7;stroke-width:0.5;" width="68" x="788.5" y="55.0679"/><text fill="#FFFFFF" font-family="sans-serif" font-size="14" lengthAdjust="spacing" textLength="54" x="795.5" y="77.0339">Teacher</text><rect fill="#222222" height="33.0679" rx="2.5" ry="2.5" style="stroke:#E7E7E7;stroke-width:0.5;" width="68" x="788.5" y="2189.3788"/><text fill="#FFFFFF" font-family="sans-serif" font-size="14" lengthAdjust="spacing" textLength="54" x="795.5" y="2211.3447">Teacher</text><rect fill="#222222" height="52.1358" rx="2.5" ry="2.5" style="stroke:#E7E7E7;stroke-width:0.5;" width="103" x="866.5" y="36"/><text fill="#FFFFFF" font-family="sans-serif" font-size="14" font-style="italic" lengthAdjust="spacing" textLength="62" x="887" y="57.9659">&#171;domain&#187;</text><text fill="#FFFFFF" font-family="sans-serif" font-size="14" lengthAdjust="spacing" textLength="89" x="873.5" y="77.0339">RegularExam</text><rect fill="#222222" height="52.1358" rx="2.5" ry="2.5" style="stroke:#E7E7E7;stroke-width:0.5;" width="103" x="866.5" y="2189.3788"/><text fill="#FFFFFF" font-family="sans-serif" font-size="14" font-style="italic" lengthAdjust="spacing" textLength="62" x="887" y="2211.3447">&#171;domain&#187;</text><text fill="#FFFFFF" font-family="sans-serif" font-size="14" lengthAdjust="spacing" textLength="89" x="873.5" y="2230.4126">RegularExam</text><rect fill="#222222" height="52.1358" rx="2.5" ry="2.5" style="stroke:#E7E7E7;stroke-width:0.5;" width="134" x="979.5" y="36"/><text fill="#FFFFFF" font-family="sans-serif" font-size="14" font-style="italic" lengthAdjust="spacing" textLength="62" x="1015.5" y="57.9659">&#171;domain&#187;</text><text fill="#FFFFFF" font-family="sans-serif" font-size="14" lengthAdjust="spacing" textLength="120" x="986.5" y="77.0339">RegularExamDate</text><rect fill="#222222" height="52.1358" rx="2.5" ry="2.5" style="stroke:#E7E7E7;stroke-width:0.5;" width="134" x="979.5" y="2189.3788"/><text fill="#FFFFFF" font-family="sans-serif" font-size="14" font-style="italic" lengthAdjust="spacing" textLength="62" x="1015.5" y="2211.3447">&#171;domain&#187;</text><text fill="#FFFFFF" font-family="sans-serif" font-size="14" lengthAdjust="spacing" textLength="120" x="986.5" y="2230.4126">RegularExamDate</text><rect fill="#222222" height="52.1358" rx="2.5" ry="2.5" style="stroke:#E7E7E7;stroke-width:0.5;" width="189" x="1123.5" y="36"/><text fill="#FFFFFF" font-family="sans-serif" font-size="14" font-style="italic" lengthAdjust="spacing" textLength="62" x="1187" y="57.9659">&#171;domain&#187;</text><text fill="#FFFFFF" font-family="sans-serif" font-size="14" lengthAdjust="spacing" textLength="175" x="1130.5" y="77.0339">RegularExamSpecification</text><rect fill="#222222" height="52.1358" rx="2.5" ry="2.5" style="stroke:#E7E7E7;stroke-width:0.5;" width="189" x="1123.5" y="2189.3788"/><text fill="#FFFFFF" font-family="sans-serif" font-size="14" font-style="italic" lengthAdjust="spacing" textLength="62" x="1187" y="2211.3447">&#171;domain&#187;</text><text fill="#FFFFFF" font-family="sans-serif" font-size="14" lengthAdjust="spacing" textLength="175" x="1130.5" y="2230.4126">RegularExamSpecification</text><rect fill="#222222" height="52.1358" rx="2.5" ry="2.5" style="stroke:#E7E7E7;stroke-width:0.5;" width="291" x="1322.5" y="36"/><text fill="#FFFFFF" font-family="sans-serif" font-size="14" font-style="italic" lengthAdjust="spacing" textLength="57" x="1439.5" y="57.9659">&#171;service&#187;</text><text fill="#FFFFFF" font-family="sans-serif" font-size="14" lengthAdjust="spacing" textLength="277" x="1329.5" y="77.0339">ValidateRegularExamSpecificationService</text><rect fill="#222222" height="52.1358" rx="2.5" ry="2.5" style="stroke:#E7E7E7;stroke-width:0.5;" width="291" x="1322.5" y="2189.3788"/><text fill="#FFFFFF" font-family="sans-serif" font-size="14" font-style="italic" lengthAdjust="spacing" textLength="57" x="1439.5" y="2211.3447">&#171;service&#187;</text><text fill="#FFFFFF" font-family="sans-serif" font-size="14" lengthAdjust="spacing" textLength="277" x="1329.5" y="2230.4126">ValidateRegularExamSpecificationService</text><rect fill="#222222" height="52.1358" rx="2.5" ry="2.5" style="stroke:#E7E7E7;stroke-width:0.5;" width="142" x="1623.5" y="36"/><text fill="#FFFFFF" font-family="sans-serif" font-size="14" font-style="italic" lengthAdjust="spacing" textLength="84" x="1652.5" y="57.9659">&#171;persistence&#187;</text><text fill="#FFFFFF" font-family="sans-serif" font-size="14" lengthAdjust="spacing" textLength="128" x="1630.5" y="77.0339">PersistenceContext</text><rect fill="#222222" height="52.1358" rx="2.5" ry="2.5" style="stroke:#E7E7E7;stroke-width:0.5;" width="142" x="1623.5" y="2189.3788"/><text fill="#FFFFFF" font-family="sans-serif" font-size="14" font-style="italic" lengthAdjust="spacing" textLength="84" x="1652.5" y="2211.3447">&#171;persistence&#187;</text><text fill="#FFFFFF" font-family="sans-serif" font-size="14" lengthAdjust="spacing" textLength="128" x="1630.5" y="2230.4126">PersistenceContext</text><rect fill="#222222" height="52.1358" rx="2.5" ry="2.5" style="stroke:#E7E7E7;stroke-width:0.5;" width="133" x="1775.5" y="36"/><text fill="#FFFFFF" font-family="sans-serif" font-size="14" font-style="italic" lengthAdjust="spacing" textLength="58" x="1813" y="57.9659">&#171;factory&#187;</text><text fill="#FFFFFF" font-family="sans-serif" font-size="14" lengthAdjust="spacing" textLength="119" x="1782.5" y="77.0339">RepositoryFactory</text><rect fill="#222222" height="52.1358" rx="2.5" ry="2.5" style="stroke:#E7E7E7;stroke-width:0.5;" width="133" x="1775.5" y="2189.3788"/><text fill="#FFFFFF" font-family="sans-serif" font-size="14" font-style="italic" lengthAdjust="spacing" textLength="58" x="1813" y="2211.3447">&#171;factory&#187;</text><text fill="#FFFFFF" font-family="sans-serif" font-size="14" lengthAdjust="spacing" textLength="119" x="1782.5" y="2230.4126">RepositoryFactory</text><text fill="#FFFFFF" font-family="sans-serif" font-size="14" font-style="italic" lengthAdjust="spacing" textLength="79" x="1959" y="65.9659">&#171;repository&#187;</text><text fill="#FFFFFF" font-family="sans-serif" font-size="14" lengthAdjust="spacing" textLength="160" x="1918.5" y="85.0339">RegularExamRepository</text><path d="M1983.5,15 C1983.5,5 2001.5,5 2001.5,5 C2001.5,5 2019.5,5 2019.5,15 L2019.5,41 C2019.5,51 2001.5,51 2001.5,51 C2001.5,51 1983.5,51 1983.5,41 L1983.5,15 " fill="#222222" style="stroke:#E7E7E7;stroke-width:1.5;"/><path d="M1983.5,15 C1983.5,25 2001.5,25 2001.5,25 C2001.5,25 2019.5,25 2019.5,15 " fill="none" style="stroke:#E7E7E7;stroke-width:1.5;"/><text fill="#FFFFFF" font-family="sans-serif" font-size="14" font-style="italic" lengthAdjust="spacing" textLength="79" x="1959" y="2204.3447">&#171;repository&#187;</text><text fill="#FFFFFF" font-family="sans-serif" font-size="14" lengthAdjust="spacing" textLength="160" x="1918.5" y="2223.4126">RegularExamRepository</text><path d="M1983.5,2237.5146 C1983.5,2227.5146 2001.5,2227.5146 2001.5,2227.5146 C2001.5,2227.5146 2019.5,2227.5146 2019.5,2237.5146 L2019.5,2263.5146 C2019.5,2273.5146 2001.5,2273.5146 2001.5,2273.5146 C2001.5,2273.5146 1983.5,2273.5146 1983.5,2263.5146 L1983.5,2237.5146 " fill="#222222" style="stroke:#E7E7E7;stroke-width:1.5;"/><path d="M1983.5,2237.5146 C1983.5,2247.5146 2001.5,2247.5146 2001.5,2247.5146 C2001.5,2247.5146 2019.5,2247.5146 2019.5,2237.5146 " fill="none" style="stroke:#E7E7E7;stroke-width:1.5;"/><text fill="#FFFFFF" font-family="sans-serif" font-size="14" font-style="italic" lengthAdjust="spacing" textLength="79" x="2106" y="65.9659">&#171;repository&#187;</text><text fill="#FFFFFF" font-family="sans-serif" font-size="14" lengthAdjust="spacing" textLength="102" x="2094.5" y="85.0339">StaffRepository</text><path d="M2130.5,15 C2130.5,5 2148.5,5 2148.5,5 C2148.5,5 2166.5,5 2166.5,15 L2166.5,41 C2166.5,51 2148.5,51 2148.5,51 C2148.5,51 2130.5,51 2130.5,41 L2130.5,15 " fill="#222222" style="stroke:#E7E7E7;stroke-width:1.5;"/><path d="M2130.5,15 C2130.5,25 2148.5,25 2148.5,25 C2148.5,25 2166.5,25 2166.5,15 " fill="none" style="stroke:#E7E7E7;stroke-width:1.5;"/><text fill="#FFFFFF" font-family="sans-serif" font-size="14" font-style="italic" lengthAdjust="spacing" textLength="79" x="2106" y="2204.3447">&#171;repository&#187;</text><text fill="#FFFFFF" font-family="sans-serif" font-size="14" lengthAdjust="spacing" textLength="102" x="2094.5" y="2223.4126">StaffRepository</text><path d="M2130.5,2237.5146 C2130.5,2227.5146 2148.5,2227.5146 2148.5,2227.5146 C2148.5,2227.5146 2166.5,2227.5146 2166.5,2237.5146 L2166.5,2263.5146 C2166.5,2273.5146 2148.5,2273.5146 2148.5,2273.5146 C2148.5,2273.5146 2130.5,2273.5146 2130.5,2263.5146 L2130.5,2237.5146 " fill="#222222" style="stroke:#E7E7E7;stroke-width:1.5;"/><path d="M2130.5,2237.5146 C2130.5,2247.5146 2148.5,2247.5146 2148.5,2247.5146 C2148.5,2247.5146 2166.5,2247.5146 2166.5,2237.5146 " fill="none" style="stroke:#E7E7E7;stroke-width:1.5;"/><text fill="#FFFFFF" font-family="sans-serif" font-size="14" font-style="italic" lengthAdjust="spacing" textLength="79" x="2232" y="65.9659">&#171;repository&#187;</text><text fill="#FFFFFF" font-family="sans-serif" font-size="14" lengthAdjust="spacing" textLength="118" x="2212.5" y="85.0339">CourseRepository</text><path d="M2256.5,15 C2256.5,5 2274.5,5 2274.5,5 C2274.5,5 2292.5,5 2292.5,15 L2292.5,41 C2292.5,51 2274.5,51 2274.5,51 C2274.5,51 2256.5,51 2256.5,41 L2256.5,15 " fill="#222222" style="stroke:#E7E7E7;stroke-width:1.5;"/><path d="M2256.5,15 C2256.5,25 2274.5,25 2274.5,25 C2274.5,25 2292.5,25 2292.5,15 " fill="none" style="stroke:#E7E7E7;stroke-width:1.5;"/><text fill="#FFFFFF" font-family="sans-serif" font-size="14" font-style="italic" lengthAdjust="spacing" textLength="79" x="2232" y="2204.3447">&#171;repository&#187;</text><text fill="#FFFFFF" font-family="sans-serif" font-size="14" lengthAdjust="spacing" textLength="118" x="2212.5" y="2223.4126">CourseRepository</text><path d="M2256.5,2237.5146 C2256.5,2227.5146 2274.5,2227.5146 2274.5,2227.5146 C2274.5,2227.5146 2292.5,2227.5146 2292.5,2237.5146 L2292.5,2263.5146 C2292.5,2273.5146 2274.5,2273.5146 2274.5,2273.5146 C2274.5,2273.5146 2256.5,2273.5146 2256.5,2263.5146 L2256.5,2237.5146 " fill="#222222" style="stroke:#E7E7E7;stroke-width:1.5;"/><path d="M2256.5,2237.5146 C2256.5,2247.5146 2274.5,2247.5146 2274.5,2247.5146 C2274.5,2247.5146 2292.5,2247.5146 2292.5,2237.5146 " fill="none" style="stroke:#E7E7E7;stroke-width:1.5;"/><rect fill="#222222" height="33.0679" rx="2.5" ry="2.5" style="stroke:#E7E7E7;stroke-width:0.5;" width="247" x="2346.5" y="55.0679"/><text fill="#FFFFFF" font-family="sans-serif" font-size="14" lengthAdjust="spacing" textLength="233" x="2353.5" y="77.0339">CourseAndDescriptionDTOMapper</text><rect fill="#222222" height="33.0679" rx="2.5" ry="2.5" style="stroke:#E7E7E7;stroke-width:0.5;" width="247" x="2346.5" y="2189.3788"/><text fill="#FFFFFF" font-family="sans-serif" font-size="14" lengthAdjust="spacing" textLength="233" x="2353.5" y="2211.3447">CourseAndDescriptionDTOMapper</text><rect fill="#222222" height="33.0679" rx="2.5" ry="2.5" style="stroke:#E7E7E7;stroke-width:0.5;" width="194" x="2603.5" y="55.0679"/><text fill="#FFFFFF" font-family="sans-serif" font-size="14" lengthAdjust="spacing" textLength="180" x="2610.5" y="77.0339">CourseAndDescriptionDTO</text><rect fill="#222222" height="33.0679" rx="2.5" ry="2.5" style="stroke:#E7E7E7;stroke-width:0.5;" width="194" x="2603.5" y="2189.3788"/><text fill="#FFFFFF" font-family="sans-serif" font-size="14" lengthAdjust="spacing" textLength="180" x="2610.5" y="2211.3447">CourseAndDescriptionDTO</text><rect fill="#000000" height="2058.5369" style="stroke:#E7E7E7;stroke-width:1.0;" width="10" x="45" y="122.8419"/><rect fill="#000000" height="966.6504" style="stroke:#E7E7E7;stroke-width:1.0;" width="10" x="305" y="122.8419"/><rect fill="#000000" height="156.8241" style="stroke:#E7E7E7;stroke-width:1.0;" width="10" x="305" y="1121.1983"/><rect fill="#000000" height="870.6504" style="stroke:#E7E7E7;stroke-width:1.0;" width="10" x="305" y="1309.7284"/><rect fill="#000000" height="470.4722" style="stroke:#E7E7E7;stroke-width:1.0;" width="10" x="541" y="154.5479"/><rect fill="#000000" height="401.0602" style="stroke:#E7E7E7;stroke-width:1.0;" width="10" x="541" y="656.7261"/><rect fill="#000000" height="93.412" style="stroke:#E7E7E7;stroke-width:1.0;" width="10" x="541" y="1152.9043"/><rect fill="#000000" height="267.9421" style="stroke:#E7E7E7;stroke-width:1.0;" width="10" x="541" y="1435.2584"/><rect fill="#000000" height="329.6481" style="stroke:#E7E7E7;stroke-width:1.0;" width="10" x="541" y="1835.7306"/><rect fill="#000000" height="117.118" style="stroke:#E7E7E7;stroke-width:1.0;" width="10" x="717" y="688.4321"/><rect fill="#000000" height="30" style="stroke:#E7E7E7;stroke-width:1.0;" width="10" x="817.5" y="731.9911"/><rect fill="#000000" height="30" style="stroke:#E7E7E7;stroke-width:1.0;" width="10" x="913" y="1530.3765"/><rect fill="#000000" height="30" style="stroke:#E7E7E7;stroke-width:1.0;" width="10" x="913" y="1992.5547"/><rect fill="#000000" height="31.706" style="stroke:#E7E7E7;stroke-width:1.0;" width="10" x="1041.5" y="1466.9645"/><rect fill="#000000" height="31.706" style="stroke:#E7E7E7;stroke-width:1.0;" width="10" x="1213" y="1929.1427"/><rect fill="#000000" height="30" style="stroke:#E7E7E7;stroke-width:1.0;" width="10" x="1463" y="1867.4367"/><rect fill="#000000" height="63.412" style="stroke:#E7E7E7;stroke-width:1.0;" width="10" x="1689.5" y="186.2539"/><rect fill="#000000" height="31.706" style="stroke:#E7E7E7;stroke-width:1.0;" width="10" x="1837" y="217.9599"/><rect fill="#000000" height="93.412" style="stroke:#E7E7E7;stroke-width:1.0;" width="10" x="1837" y="281.3719"/><rect fill="#000000" height="93.412" style="stroke:#E7E7E7;stroke-width:1.0;" width="10" x="1837" y="406.49"/><rect fill="#000000" height="93.412" style="stroke:#E7E7E7;stroke-width:1.0;" width="10" x="1837" y="531.608"/><rect fill="#000000" height="30" style="stroke:#E7E7E7;stroke-width:1.0;" width="10" x="1996.5" y="313.0779"/><rect fill="#000000" height="30" style="stroke:#E7E7E7;stroke-width:1.0;" width="10" x="1996.5" y="1184.6103"/><rect fill="#000000" height="30" style="stroke:#E7E7E7;stroke-width:1.0;" width="10" x="1996.5" y="1592.0825"/><rect fill="#000000" height="30" style="stroke:#E7E7E7;stroke-width:1.0;" width="10" x="1996.5" y="2054.2607"/><rect fill="#000000" height="30" style="stroke:#E7E7E7;stroke-width:1.0;" width="10" x="2143.5" y="438.196"/><rect fill="#000000" height="30" style="stroke:#E7E7E7;stroke-width:1.0;" width="10" x="2143.5" y="837.2562"/><rect fill="#000000" height="30" style="stroke:#E7E7E7;stroke-width:1.0;" width="10" x="2269.5" y="563.314"/><rect fill="#000000" height="127.118" style="stroke:#E7E7E7;stroke-width:1.0;" width="10" x="2465" y="898.9622"/><rect fill="#000000" height="30" style="stroke:#E7E7E7;stroke-width:1.0;" width="10" x="2695.5" y="957.3742"/><polygon fill="#E7E7E7" points="293,118.8419,303,122.8419,293,126.8419,297,122.8419" style="stroke:#E7E7E7;stroke-width:1.0;"/><line style="stroke:#E7E7E7;stroke-width:1.0;" x1="55" x2="299" y1="122.8419" y2="122.8419"/><text fill="#FFFFFF" font-family="sans-serif" font-size="13" lengthAdjust="spacing" textLength="125" x="62" y="117.0328">update regular exam</text><polygon fill="#E7E7E7" points="529,150.5479,539,154.5479,529,158.5479,533,154.5479" style="stroke:#E7E7E7;stroke-width:1.0;"/><line style="stroke:#E7E7E7;stroke-width:1.0;" x1="315" x2="535" y1="154.5479" y2="154.5479"/><text fill="#FFFFFF" font-family="sans-serif" font-size="13" lengthAdjust="spacing" textLength="37" x="322" y="148.7389">create</text><polygon fill="#E7E7E7" points="1677.5,182.2539,1687.5,186.2539,1677.5,190.2539,1681.5,186.2539" style="stroke:#E7E7E7;stroke-width:1.0;"/><line style="stroke:#E7E7E7;stroke-width:1.0;" x1="551" x2="1683.5" y1="186.2539" y2="186.2539"/><text fill="#FFFFFF" font-family="sans-serif" font-size="13" lengthAdjust="spacing" textLength="79" x="558" y="180.4449">repositories()</text><polygon fill="#E7E7E7" points="1825,213.9599,1835,217.9599,1825,221.9599,1829,217.9599" style="stroke:#E7E7E7;stroke-width:1.0;"/><line style="stroke:#E7E7E7;stroke-width:1.0;" x1="1699.5" x2="1831" y1="217.9599" y2="217.9599"/><text fill="#FFFFFF" font-family="sans-serif" font-size="13" lengthAdjust="spacing" textLength="37" x="1706.5" y="212.1509">create</text><polygon fill="#E7E7E7" points="562,245.6659,552,249.6659,562,253.6659,558,249.6659" style="stroke:#E7E7E7;stroke-width:1.0;"/><line style="stroke:#E7E7E7;stroke-width:1.0;" x1="556" x2="1693.5" y1="249.6659" y2="249.6659"/><text fill="#FFFFFF" font-family="sans-serif" font-size="13" lengthAdjust="spacing" textLength="42" x="568" y="243.8569">factory</text><polygon fill="#E7E7E7" points="1825,277.3719,1835,281.3719,1825,285.3719,1829,281.3719" style="stroke:#E7E7E7;stroke-width:1.0;"/><line style="stroke:#E7E7E7;stroke-width:1.0;" x1="551" x2="1831" y1="281.3719" y2="281.3719"/><text fill="#FFFFFF" font-family="sans-serif" font-size="13" lengthAdjust="spacing" textLength="90" x="558" y="275.5629">regularExams()</text><polygon fill="#E7E7E7" points="1984.5,309.0779,1994.5,313.0779,1984.5,317.0779,1988.5,313.0779" style="stroke:#E7E7E7;stroke-width:1.0;"/><line style="stroke:#E7E7E7;stroke-width:1.0;" x1="1847" x2="1990.5" y1="313.0779" y2="313.0779"/><text fill="#FFFFFF" font-family="sans-serif" font-size="13" lengthAdjust="spacing" textLength="37" x="1854" y="307.2689">create</text><polygon fill="#E7E7E7" points="562,370.784,552,374.784,562,378.784,558,374.784" style="stroke:#E7E7E7;stroke-width:1.0;"/><line style="stroke:#E7E7E7;stroke-width:1.0;" x1="556" x2="1841" y1="374.784" y2="374.784"/><text fill="#FFFFFF" font-family="sans-serif" font-size="13" lengthAdjust="spacing" textLength="147" x="568" y="368.975">regularExamsRepository</text><polygon fill="#E7E7E7" points="1825,402.49,1835,406.49,1825,410.49,1829,406.49" style="stroke:#E7E7E7;stroke-width:1.0;"/><line style="stroke:#E7E7E7;stroke-width:1.0;" x1="551" x2="1831" y1="406.49" y2="406.49"/><text fill="#FFFFFF" font-family="sans-serif" font-size="13" lengthAdjust="spacing" textLength="40" x="558" y="400.681">staffs()</text><polygon fill="#E7E7E7" points="2131.5,434.196,2141.5,438.196,2131.5,442.196,2135.5,438.196" style="stroke:#E7E7E7;stroke-width:1.0;"/><line style="stroke:#E7E7E7;stroke-width:1.0;" x1="1847" x2="2137.5" y1="438.196" y2="438.196"/><text fill="#FFFFFF" font-family="sans-serif" font-size="13" lengthAdjust="spacing" textLength="37" x="1854" y="432.387">create</text><polygon fill="#E7E7E7" points="562,495.902,552,499.902,562,503.902,558,499.902" style="stroke:#E7E7E7;stroke-width:1.0;"/><line style="stroke:#E7E7E7;stroke-width:1.0;" x1="556" x2="1841" y1="499.902" y2="499.902"/><text fill="#FFFFFF" font-family="sans-serif" font-size="13" lengthAdjust="spacing" textLength="91" x="568" y="494.093">staffRepository</text><polygon fill="#E7E7E7" points="1825,527.608,1835,531.608,1825,535.608,1829,531.608" style="stroke:#E7E7E7;stroke-width:1.0;"/><line style="stroke:#E7E7E7;stroke-width:1.0;" x1="551" x2="1831" y1="531.608" y2="531.608"/><text fill="#FFFFFF" font-family="sans-serif" font-size="13" lengthAdjust="spacing" textLength="54" x="558" y="525.799">courses()</text><polygon fill="#E7E7E7" points="2257.5,559.314,2267.5,563.314,2257.5,567.314,2261.5,563.314" style="stroke:#E7E7E7;stroke-width:1.0;"/><line style="stroke:#E7E7E7;stroke-width:1.0;" x1="1847" x2="2263.5" y1="563.314" y2="563.314"/><text fill="#FFFFFF" font-family="sans-serif" font-size="13" lengthAdjust="spacing" textLength="37" x="1854" y="557.505">create</text><polygon fill="#E7E7E7" points="557,621.0201,547,625.0201,557,629.0201,553,625.0201" style="stroke:#E7E7E7;stroke-width:1.0;"/><line style="stroke:#E7E7E7;stroke-width:1.0;" x1="551" x2="1841" y1="625.0201" y2="625.0201"/><text fill="#FFFFFF" font-family="sans-serif" font-size="13" lengthAdjust="spacing" textLength="105" x="563" y="619.2111">courseRepository</text><polygon fill="#E7E7E7" points="529,652.7261,539,656.7261,529,660.7261,533,656.7261" style="stroke:#E7E7E7;stroke-width:1.0;"/><line style="stroke:#E7E7E7;stroke-width:1.0;stroke-dasharray:2.0,2.0;" x1="315" x2="535" y1="656.7261" y2="656.7261"/><text fill="#FFFFFF" font-family="sans-serif" font-size="13" lengthAdjust="spacing" textLength="76" x="322" y="650.9171">getCourses()</text><polygon fill="#E7E7E7" points="705,684.4321,715,688.4321,705,692.4321,709,688.4321" style="stroke:#E7E7E7;stroke-width:1.0;"/><line style="stroke:#E7E7E7;stroke-width:1.0;stroke-dasharray:2.0,2.0;" x1="551" x2="711" y1="688.4321" y2="688.4321"/><text fill="#FFFFFF" font-family="sans-serif" font-size="13" lengthAdjust="spacing" textLength="99" x="558" y="682.6231">currentTeacher()</text><polygon fill="#E7E7E7" points="805.5,727.9911,815.5,731.9911,805.5,735.9911,809.5,731.9911" style="stroke:#E7E7E7;stroke-width:1.0;"/><line style="stroke:#E7E7E7;stroke-width:1.0;stroke-dasharray:2.0,2.0;" x1="727" x2="811.5" y1="731.9911" y2="731.9911"/><text fill="#FFFFFF" font-family="sans-serif" font-size="13" lengthAdjust="spacing" textLength="28" x="734" y="726.1821">get()</text><path d="M832,701.4321 L832,746.4321 L1075,746.4321 L1075,711.4321 L1065,701.4321 L832,701.4321 " fill="#714137" style="stroke:#E7E7E7;stroke-width:0.5;"/><path d="M1065,701.4321 L1065,711.4321 L1075,711.4321 L1065,701.4321 " fill="#714137" style="stroke:#E7E7E7;stroke-width:0.5;"/><text fill="#FFFFFF" font-family="sans-serif" font-size="13" lengthAdjust="spacing" textLength="222" x="838" y="720.3291">teacher obtained via the framework's</text><text fill="#FFFFFF" font-family="sans-serif" font-size="13" lengthAdjust="spacing" textLength="213" x="838" y="738.0351">Authz package + TeacherRepository</text><polygon fill="#E7E7E7" points="562,801.5501,552,805.5501,562,809.5501,558,805.5501" style="stroke:#E7E7E7;stroke-width:1.0;"/><line style="stroke:#E7E7E7;stroke-width:1.0;stroke-dasharray:2.0,2.0;" x1="556" x2="721" y1="805.5501" y2="805.5501"/><text fill="#FFFFFF" font-family="sans-serif" font-size="13" lengthAdjust="spacing" textLength="45" x="568" y="799.7411">teacher</text><polygon fill="#E7E7E7" points="2131.5,833.2562,2141.5,837.2562,2131.5,841.2562,2135.5,837.2562" style="stroke:#E7E7E7;stroke-width:1.0;"/><line style="stroke:#E7E7E7;stroke-width:1.0;stroke-dasharray:2.0,2.0;" x1="551" x2="2137.5" y1="837.2562" y2="837.2562"/><text fill="#FFFFFF" font-family="sans-serif" font-size="13" lengthAdjust="spacing" textLength="109" x="558" y="831.4472">taughtBy(teacher)</text><polygon fill="#E7E7E7" points="2453,894.9622,2463,898.9622,2453,902.9622,2457,898.9622" style="stroke:#E7E7E7;stroke-width:1.0;"/><line style="stroke:#E7E7E7;stroke-width:1.0;stroke-dasharray:2.0,2.0;" x1="551" x2="2459" y1="898.9622" y2="898.9622"/><text fill="#FFFFFF" font-family="sans-serif" font-size="13" lengthAdjust="spacing" textLength="89" x="558" y="893.1532">toDto(courses)</text><path d="M2336.5,913.9622 L2409.5,913.9622 L2409.5,923.6682 L2399.5,933.6682 L2336.5,933.6682 L2336.5,913.9622 " fill="#555555" style="stroke:#FFFFFF;stroke-width:1.5;"/><rect fill="none" height="81.412" style="stroke:#FFFFFF;stroke-width:1.5;" width="471" x="2336.5" y="913.9622"/><text fill="#FFFFFF" font-family="sans-serif" font-size="13" font-weight="bold" lengthAdjust="spacing" textLength="28" x="2351.5" y="928.8592">loop</text><text fill="#FFFFFF" font-family="sans-serif" font-size="11" font-weight="bold" lengthAdjust="spacing" textLength="152" x="2424.5" y="927.7211">[for each course in courses]</text><polygon fill="#E7E7E7" points="2683.5,953.3742,2693.5,957.3742,2683.5,961.3742,2687.5,957.3742" style="stroke:#E7E7E7;stroke-width:1.0;"/><line style="stroke:#E7E7E7;stroke-width:1.0;stroke-dasharray:2.0,2.0;" x1="2475" x2="2689.5" y1="957.3742" y2="957.3742"/><text fill="#FFFFFF" font-family="sans-serif" font-size="13" lengthAdjust="spacing" textLength="45" x="2482" y="951.5652">create()</text><polygon fill="#E7E7E7" points="562,1022.0802,552,1026.0802,562,1030.0802,558,1026.0802" style="stroke:#E7E7E7;stroke-width:1.0;"/><line style="stroke:#E7E7E7;stroke-width:1.0;stroke-dasharray:2.0,2.0;" x1="556" x2="2469" y1="1026.0802" y2="1026.0802"/><text fill="#FFFFFF" font-family="sans-serif" font-size="13" lengthAdjust="spacing" textLength="87" x="568" y="1020.2712">courseDTOList</text><polygon fill="#E7E7E7" points="326,1053.7862,316,1057.7862,326,1061.7862,322,1057.7862" style="stroke:#E7E7E7;stroke-width:1.0;"/><line style="stroke:#E7E7E7;stroke-width:1.0;stroke-dasharray:2.0,2.0;" x1="320" x2="545" y1="1057.7862" y2="1057.7862"/><text fill="#FFFFFF" font-family="sans-serif" font-size="13" lengthAdjust="spacing" textLength="46" x="332" y="1051.9772">courses</text><polygon fill="#E7E7E7" points="66,1085.4923,56,1089.4923,66,1093.4923,62,1089.4923" style="stroke:#E7E7E7;stroke-width:1.0;"/><line style="stroke:#E7E7E7;stroke-width:1.0;stroke-dasharray:2.0,2.0;" x1="60" x2="309" y1="1089.4923" y2="1089.4923"/><text fill="#FFFFFF" font-family="sans-serif" font-size="13" lengthAdjust="spacing" textLength="81" x="72" y="1083.6833">show courses</text><polygon fill="#E7E7E7" points="293,1117.1983,303,1121.1983,293,1125.1983,297,1121.1983" style="stroke:#E7E7E7;stroke-width:1.0;"/><line style="stroke:#E7E7E7;stroke-width:1.0;" x1="55" x2="299" y1="1121.1983" y2="1121.1983"/><text fill="#FFFFFF" font-family="sans-serif" font-size="13" lengthAdjust="spacing" textLength="135" x="62" y="1115.3893">selects course from list</text><polygon fill="#E7E7E7" points="529,1148.9043,539,1152.9043,529,1156.9043,533,1152.9043" style="stroke:#E7E7E7;stroke-width:1.0;"/><line style="stroke:#E7E7E7;stroke-width:1.0;stroke-dasharray:2.0,2.0;" x1="315" x2="535" y1="1152.9043" y2="1152.9043"/><text fill="#FFFFFF" font-family="sans-serif" font-size="13" lengthAdjust="spacing" textLength="104" x="322" y="1147.0953">listExams(course)</text><polygon fill="#E7E7E7" points="1984.5,1180.6103,1994.5,1184.6103,1984.5,1188.6103,1988.5,1184.6103" style="stroke:#E7E7E7;stroke-width:1.0;"/><line style="stroke:#E7E7E7;stroke-width:1.0;stroke-dasharray:2.0,2.0;" x1="551" x2="1990.5" y1="1184.6103" y2="1184.6103"/><text fill="#FFFFFF" font-family="sans-serif" font-size="13" lengthAdjust="spacing" textLength="128" x="558" y="1178.8013">findByCourse(course)</text><polygon fill="#E7E7E7" points="326,1242.3163,316,1246.3163,326,1250.3163,322,1246.3163" style="stroke:#E7E7E7;stroke-width:1.0;"/><line style="stroke:#E7E7E7;stroke-width:1.0;stroke-dasharray:2.0,2.0;" x1="320" x2="545" y1="1246.3163" y2="1246.3163"/><text fill="#FFFFFF" font-family="sans-serif" font-size="13" lengthAdjust="spacing" textLength="39" x="332" y="1240.5073">exams</text><polygon fill="#E7E7E7" points="66,1274.0223,56,1278.0223,66,1282.0223,62,1278.0223" style="stroke:#E7E7E7;stroke-width:1.0;"/><line style="stroke:#E7E7E7;stroke-width:1.0;stroke-dasharray:2.0,2.0;" x1="60" x2="309" y1="1278.0223" y2="1278.0223"/><text fill="#FFFFFF" font-family="sans-serif" font-size="13" lengthAdjust="spacing" textLength="74" x="72" y="1272.2133">show exams</text><polygon fill="#E7E7E7" points="293,1305.7284,303,1309.7284,293,1313.7284,297,1309.7284" style="stroke:#E7E7E7;stroke-width:1.0;"/><line style="stroke:#E7E7E7;stroke-width:1.0;" x1="55" x2="299" y1="1309.7284" y2="1309.7284"/><text fill="#FFFFFF" font-family="sans-serif" font-size="13" lengthAdjust="spacing" textLength="231" x="62" y="1303.9194">Choose an exam from the list of exams</text><path d="M10,1324.7284 L83,1324.7284 L83,1334.4344 L73,1344.4344 L10,1344.4344 L10,1324.7284 " fill="#555555" style="stroke:#FFFFFF;stroke-width:1.5;"/><rect fill="none" height="386.4722" style="stroke:#FFFFFF;stroke-width:1.5;" width="2084.5" x="10" y="1324.7284"/><text fill="#FFFFFF" font-family="sans-serif" font-size="13" font-weight="bold" lengthAdjust="spacing" textLength="28" x="25" y="1339.6254">loop</text><polygon fill="#E7E7E7" points="293,1381.8464,303,1385.8464,293,1389.8464,297,1385.8464" style="stroke:#E7E7E7;stroke-width:1.0;"/><line style="stroke:#E7E7E7;stroke-width:1.0;" x1="55" x2="299" y1="1385.8464" y2="1385.8464"/><text fill="#FFFFFF" font-family="sans-serif" font-size="13" lengthAdjust="spacing" textLength="173" x="62" y="1362.3314">Choose update exam date or</text><text fill="#FFFFFF" font-family="sans-serif" font-size="13" lengthAdjust="spacing" textLength="110" x="65" y="1380.0374">exam specification</text><polygon fill="#E7E7E7" points="529,1431.2584,539,1435.2584,529,1439.2584,533,1435.2584" style="stroke:#E7E7E7;stroke-width:1.0;"/><line style="stroke:#E7E7E7;stroke-width:1.0;" x1="315" x2="535" y1="1435.2584" y2="1435.2584"/><text fill="#FFFFFF" font-family="sans-serif" font-size="13" lengthAdjust="spacing" textLength="150" x="322" y="1411.7434">updateRegularExamDate</text><text fill="#FFFFFF" font-family="sans-serif" font-size="13" lengthAdjust="spacing" textLength="207" x="322" y="1429.4494">(regularExam,openDate,closeDate)</text><polygon fill="#E7E7E7" points="1029.5,1462.9645,1039.5,1466.9645,1029.5,1470.9645,1033.5,1466.9645" style="stroke:#E7E7E7;stroke-width:1.0;"/><line style="stroke:#E7E7E7;stroke-width:1.0;" x1="551" x2="1035.5" y1="1466.9645" y2="1466.9645"/><text fill="#FFFFFF" font-family="sans-serif" font-size="13" lengthAdjust="spacing" textLength="174" x="558" y="1461.1555">valueOf(openDate,closeDate)</text><polygon fill="#E7E7E7" points="562,1494.6705,552,1498.6705,562,1502.6705,558,1498.6705" style="stroke:#E7E7E7;stroke-width:1.0;"/><line style="stroke:#E7E7E7;stroke-width:1.0;" x1="556" x2="1045.5" y1="1498.6705" y2="1498.6705"/><text fill="#FFFFFF" font-family="sans-serif" font-size="13" lengthAdjust="spacing" textLength="104" x="568" y="1492.8615">regularExamDate</text><polygon fill="#E7E7E7" points="901,1526.3765,911,1530.3765,901,1534.3765,905,1530.3765" style="stroke:#E7E7E7;stroke-width:1.0;"/><line style="stroke:#E7E7E7;stroke-width:1.0;" x1="551" x2="907" y1="1530.3765" y2="1530.3765"/><text fill="#FFFFFF" font-family="sans-serif" font-size="13" lengthAdjust="spacing" textLength="262" x="558" y="1524.5675">updateRegularExamDate(regularExamDate)</text><polygon fill="#E7E7E7" points="1984.5,1588.0825,1994.5,1592.0825,1984.5,1596.0825,1988.5,1592.0825" style="stroke:#E7E7E7;stroke-width:1.0;"/><line style="stroke:#E7E7E7;stroke-width:1.0;" x1="551" x2="1990.5" y1="1592.0825" y2="1592.0825"/><text fill="#FFFFFF" font-family="sans-serif" font-size="13" lengthAdjust="spacing" textLength="111" x="558" y="1586.2735">save(regularExam)</text><polygon fill="#E7E7E7" points="66,1649.7885,56,1653.7885,66,1657.7885,62,1653.7885" style="stroke:#E7E7E7;stroke-width:1.0;"/><line style="stroke:#E7E7E7;stroke-width:1.0;stroke-dasharray:2.0,2.0;" x1="60" x2="304" y1="1653.7885" y2="1653.7885"/><text fill="#FFFFFF" font-family="sans-serif" font-size="13" lengthAdjust="spacing" textLength="171" x="72" y="1647.9795">informs success of operation</text><polygon fill="#E7E7E7" points="66,1699.2006,56,1703.2006,66,1707.2006,62,1703.2006" style="stroke:#E7E7E7;stroke-width:1.0;"/><line style="stroke:#E7E7E7;stroke-width:1.0;stroke-dasharray:2.0,2.0;" x1="60" x2="304" y1="1703.2006" y2="1703.2006"/><text fill="#FFFFFF" font-family="sans-serif" font-size="13" lengthAdjust="spacing" textLength="139" x="72" y="1679.6855">asks if teacher wants to</text><text fill="#FFFFFF" font-family="sans-serif" font-size="13" lengthAdjust="spacing" textLength="175" x="75" y="1697.3916">update anything else(yes/no)</text><path d="M10,1725.2006 L83,1725.2006 L83,1734.9066 L73,1744.9066 L10,1744.9066 L10,1725.2006 " fill="#555555" style="stroke:#FFFFFF;stroke-width:1.5;"/><rect fill="none" height="448.1782" style="stroke:#FFFFFF;stroke-width:1.5;" width="2084.5" x="10" y="1725.2006"/><text fill="#FFFFFF" font-family="sans-serif" font-size="13" font-weight="bold" lengthAdjust="spacing" textLength="28" x="25" y="1740.0976">loop</text><polygon fill="#E7E7E7" points="293,1782.3186,303,1786.3186,293,1790.3186,297,1786.3186" style="stroke:#E7E7E7;stroke-width:1.0;"/><line style="stroke:#E7E7E7;stroke-width:1.0;" x1="55" x2="299" y1="1786.3186" y2="1786.3186"/><text fill="#FFFFFF" font-family="sans-serif" font-size="13" lengthAdjust="spacing" textLength="173" x="62" y="1762.8036">Choose update exam date or</text><text fill="#FFFFFF" font-family="sans-serif" font-size="13" lengthAdjust="spacing" textLength="110" x="65" y="1780.5096">exam specification</text><polygon fill="#E7E7E7" points="529,1831.7306,539,1835.7306,529,1839.7306,533,1835.7306" style="stroke:#E7E7E7;stroke-width:1.0;"/><line style="stroke:#E7E7E7;stroke-width:1.0;" x1="315" x2="535" y1="1835.7306" y2="1835.7306"/><text fill="#FFFFFF" font-family="sans-serif" font-size="13" lengthAdjust="spacing" textLength="197" x="322" y="1812.2156">updateRegularExamSpecification</text><text fill="#FFFFFF" font-family="sans-serif" font-size="13" lengthAdjust="spacing" textLength="104" x="322" y="1829.9216">(regularExam,file)</text><polygon fill="#E7E7E7" points="1451,1863.4367,1461,1867.4367,1451,1871.4367,1455,1867.4367" style="stroke:#E7E7E7;stroke-width:1.0;"/><line style="stroke:#E7E7E7;stroke-width:1.0;" x1="551" x2="1457" y1="1867.4367" y2="1867.4367"/><text fill="#FFFFFF" font-family="sans-serif" font-size="13" lengthAdjust="spacing" textLength="72" x="558" y="1861.6277">validate(file)</text><polygon fill="#E7E7E7" points="1201,1925.1427,1211,1929.1427,1201,1933.1427,1205,1929.1427" style="stroke:#E7E7E7;stroke-width:1.0;"/><line style="stroke:#E7E7E7;stroke-width:1.0;" x1="551" x2="1207" y1="1929.1427" y2="1929.1427"/><text fill="#FFFFFF" font-family="sans-serif" font-size="13" lengthAdjust="spacing" textLength="71" x="558" y="1923.3337">valueOf(file)</text><polygon fill="#E7E7E7" points="562,1956.8487,552,1960.8487,562,1964.8487,558,1960.8487" style="stroke:#E7E7E7;stroke-width:1.0;"/><line style="stroke:#E7E7E7;stroke-width:1.0;" x1="556" x2="1217" y1="1960.8487" y2="1960.8487"/><text fill="#FFFFFF" font-family="sans-serif" font-size="13" lengthAdjust="spacing" textLength="118" x="568" y="1955.0397">regularSpecification</text><polygon fill="#E7E7E7" points="901,1988.5547,911,1992.5547,901,1996.5547,905,1992.5547" style="stroke:#E7E7E7;stroke-width:1.0;"/><line style="stroke:#E7E7E7;stroke-width:1.0;" x1="551" x2="907" y1="1992.5547" y2="1992.5547"/><text fill="#FFFFFF" font-family="sans-serif" font-size="13" lengthAdjust="spacing" textLength="323" x="558" y="1986.7457">updateRegularExamSpecification(regularSpecification)</text><polygon fill="#E7E7E7" points="1984.5,2050.2607,1994.5,2054.2607,1984.5,2058.2607,1988.5,2054.2607" style="stroke:#E7E7E7;stroke-width:1.0;"/><line style="stroke:#E7E7E7;stroke-width:1.0;" x1="551" x2="1990.5" y1="2054.2607" y2="2054.2607"/><text fill="#FFFFFF" font-family="sans-serif" font-size="13" lengthAdjust="spacing" textLength="111" x="558" y="2048.4517">save(regularExam)</text><polygon fill="#E7E7E7" points="66,2111.9667,56,2115.9667,66,2119.9667,62,2115.9667" style="stroke:#E7E7E7;stroke-width:1.0;"/><line style="stroke:#E7E7E7;stroke-width:1.0;stroke-dasharray:2.0,2.0;" x1="60" x2="304" y1="2115.9667" y2="2115.9667"/><text fill="#FFFFFF" font-family="sans-serif" font-size="13" lengthAdjust="spacing" textLength="171" x="72" y="2110.1577">informs success of operation</text><polygon fill="#E7E7E7" points="66,2161.3788,56,2165.3788,66,2169.3788,62,2165.3788" style="stroke:#E7E7E7;stroke-width:1.0;"/><line style="stroke:#E7E7E7;stroke-width:1.0;stroke-dasharray:2.0,2.0;" x1="60" x2="304" y1="2165.3788" y2="2165.3788"/><text fill="#FFFFFF" font-family="sans-serif" font-size="13" lengthAdjust="spacing" textLength="139" x="72" y="2141.8638">asks if teacher wants to</text><text fill="#FFFFFF" font-family="sans-serif" font-size="13" lengthAdjust="spacing" textLength="175" x="75" y="2159.5698">update anything else(yes/no)</text><!--SRC=[hLZ1Rjiu4BtpAtYBZMqtTqC8a2PT8C0MBPfwJm4ALgPj8hAeafHJxzVlZ4XH92NAJZS-118rRpZpE8ySvcflJADNrzTDnMhJ7ge_Itcurlndo-kIlzy8jbFiG0WhZLJq6sVbdYlADBt50T8mPKGf6i3ITRDXXd_bkxPYwkClTbW_e27yBOf6SSrhmuoGzStDFEnEraR9ghBpbCDRKR2cgKJPUudSV3gjDLUFN1r5oH7OmkjtVImZgo01OnzZBq4OQAE2rwBOo0CJQVW1uXxoI53Tq7daOyDBiNMP1IvmF8F-XrKY8Ixo4Z2XtMDHkAUKkozSQQ4DhZYIptyPX3N3AAxWy3RAev5QG3MS_kggv8JWhNii2lS480YN_M2QXvaFO9js8xz6d2l_FNJmQDXsEuPsmodeYdgOM_qni2-Bt7ntibMQZt5sF8MHc5rhT5jlxhakbMXmTUw_VVu4nToNE1fyFtG3bq03qCP8d8zqSgJlRr1kAzfsckghY7BW4XKiZZXgbUjVrm-4KFW14E21t5QqL1mikg_UV33enl4NOC13M3OhweaHN2-M7kBT1TR-8_v2B-2qBwSeff4pPpNdACflodx3i-w2Js7OqppuY8FTO9A1gI1wC0ISIcAUWSGwbzcSMJ1tH5QOnw04CiDRXfbXCJNgzNT9iM8_JqTdDqV4s217WOwtdTdSpwHkvNjfxadgRjkPoZtApDgHVEfZWrpgPR83diqz60-s349mcucSh-YEcpjF1tdLTWEU-dCUWsoLWYx3xUPJtFgc85nkxm7TkRQ0Tc45BY8tVU-GgQgfpxL4piLkRy1rFudyOU1avnjw58oQFL08pHP_aUhvIZ_LjwtP_qiRLZwp7QT_Z8-lV1RHsgNX195wFaYENgyGyCDQ2F_3QU4SBWcvG76JQilD5Xs5CAEyDtBXj3AndF796R9HITdGBHo96Agpew9sJpgojN44di9Gu83jTPPKmrGaU1odDf4I9grulUa29kSY6ZHZlq8ly3SSGoG_LK9DGlVwOUKPcL5jtnu0eciUO2VSonUF343OJ0Ij21ZoYfUcRrUWlkM1LXXo20dyXpcYdJqsBNhvsgqXEURWm1VrviF9RZQHquiEqGiEq0b-iVdIhoVNml2NfnUqVRUN4dXbTGUm_E96WjnHkNLkGWU-q2OTkSwnSzOzWScJSwx3-qMsQMpJ-npUWPxgHT0_l9CDht7uNLd1fFYqV6MNcTwnLlJ8gfP_tYvolfCbZk2Hy5BNCurGX8tA8pOvdqIEk4NYQZwNCx7auqXxJCsEqTHlen9lO-lT5k0AjcNOg0zmJstBackDPGkBg6oPnH3QOvX-rbHi_Kdw0jSbkDDBB5PNmwm-cRseTvHNeFOJrzUrNCvjStuRVbkDNAgJwFgU26OhAZvv_eraCbxT_lhVIQJxdy4YTXUvTDQvrcRgysHHOpQ1AksC9DUcUyZez0pTPPGO4PVlz8SvpaUVasGqrM9g_kLiYlENiWcb_3-nliNTCBBx3U6-kNZdRXU3XfDJa_m7]--></g></svg>