<?xml version="1.0" encoding="us-ascii" standalone="no"?><svg xmlns="http://www.w3.org/2000/svg" xmlns:xlink="http://www.w3.org/1999/xlink" contentStyleType="text/css" height="1397px" preserveAspectRatio="none" style="width:2309px;height:1397px;background:#1B1B1B;" version="1.1" viewBox="0 0 2309 1397" width="2309px" zoomAndPan="magnify"><defs/><g><rect fill="#1B1B1B" height="1397" style="stroke:none;stroke-width:1.0;" width="2309" x="0" y="0"/><rect fill="#000000" height="511.5902" style="stroke:#E7E7E7;stroke-width:1.0;" width="10" x="195" y="117.7739"/><rect fill="#000000" height="599.8842" style="stroke:#E7E7E7;stroke-width:1.0;" width="10" x="195" y="696.4822"/><rect fill="#000000" height="64.706" style="stroke:#E7E7E7;stroke-width:1.0;" width="10" x="432" y="149.4799"/><rect fill="#000000" height="331.0602" style="stroke:#E7E7E7;stroke-width:1.0;" width="10" x="432" y="266.598"/><rect fill="#000000" height="536.4722" style="stroke:#E7E7E7;stroke-width:1.0;" width="10" x="432" y="728.1882"/><rect fill="#000000" height="30" style="stroke:#E7E7E7;stroke-width:1.0;" width="10" x="621" y="184.186"/><rect fill="#000000" height="30" style="stroke:#E7E7E7;stroke-width:1.0;" width="10" x="621" y="1202.9544"/><rect fill="#000000" height="117.118" style="stroke:#E7E7E7;stroke-width:1.0;" width="10" x="760.5" y="298.304"/><rect fill="#000000" height="30" style="stroke:#E7E7E7;stroke-width:1.0;" width="10" x="861" y="341.863"/><rect fill="#000000" height="31.706" style="stroke:#E7E7E7;stroke-width:1.0;" width="10" x="971" y="759.8943"/><rect fill="#000000" height="93.412" style="stroke:#E7E7E7;stroke-width:1.0;" width="10" x="1111.5" y="823.3063"/><rect fill="#000000" height="61.706" style="stroke:#E7E7E7;stroke-width:1.0;" width="10" x="1274.5" y="855.0123"/><rect fill="#000000" height="30" style="stroke:#E7E7E7;stroke-width:1.0;" width="10" x="1434.5" y="948.4243"/><rect fill="#000000" height="161.118" style="stroke:#E7E7E7;stroke-width:1.0;" width="10" x="1434.5" y="1010.1304"/><rect fill="#000000" height="30" style="stroke:#E7E7E7;stroke-width:1.0;" width="10" x="1597.5" y="886.7183"/><rect fill="#000000" height="30" style="stroke:#E7E7E7;stroke-width:1.0;" width="10" x="1597.5" y="1041.8364"/><rect fill="#000000" height="30" style="stroke:#E7E7E7;stroke-width:1.0;" width="10" x="1736.5" y="1106.5424"/><rect fill="#000000" height="31.706" style="stroke:#E7E7E7;stroke-width:1.0;" width="10" x="1888.5" y="447.1281"/><rect fill="#000000" height="43.559" style="stroke:#E7E7E7;stroke-width:1.0;" width="10" x="2105" y="522.3931"/><line style="stroke:#E7E7E7;stroke-width:0.5;stroke-dasharray:5.0,5.0;" x1="35" x2="35" y1="84.0679" y2="1314.3665"/><line style="stroke:#E7E7E7;stroke-width:0.5;stroke-dasharray:5.0,5.0;" x1="200" x2="200" y1="84.0679" y2="1314.3665"/><line style="stroke:#E7E7E7;stroke-width:0.5;stroke-dasharray:5.0,5.0;" x1="437" x2="437" y1="84.0679" y2="1314.3665"/><line style="stroke:#E7E7E7;stroke-width:0.5;stroke-dasharray:5.0,5.0;" x1="626" x2="626" y1="84.0679" y2="1314.3665"/><line style="stroke:#E7E7E7;stroke-width:0.5;stroke-dasharray:5.0,5.0;" x1="765" x2="765" y1="84.0679" y2="1314.3665"/><line style="stroke:#E7E7E7;stroke-width:0.5;stroke-dasharray:5.0,5.0;" x1="866" x2="866" y1="84.0679" y2="1314.3665"/><line style="stroke:#E7E7E7;stroke-width:0.5;stroke-dasharray:5.0,5.0;" x1="976" x2="976" y1="84.0679" y2="1314.3665"/><line style="stroke:#E7E7E7;stroke-width:0.5;stroke-dasharray:5.0,5.0;" x1="1116" x2="1116" y1="84.0679" y2="1314.3665"/><line style="stroke:#E7E7E7;stroke-width:0.5;stroke-dasharray:5.0,5.0;" x1="1279" x2="1279" y1="84.0679" y2="1314.3665"/><line style="stroke:#E7E7E7;stroke-width:0.5;stroke-dasharray:5.0,5.0;" x1="1439" x2="1439" y1="84.0679" y2="1314.3665"/><line style="stroke:#E7E7E7;stroke-width:0.5;stroke-dasharray:5.0,5.0;" x1="1602" x2="1602" y1="84.0679" y2="1314.3665"/><line style="stroke:#E7E7E7;stroke-width:0.5;stroke-dasharray:5.0,5.0;" x1="1741" x2="1741" y1="84.0679" y2="1314.3665"/><line style="stroke:#E7E7E7;stroke-width:0.5;stroke-dasharray:5.0,5.0;" x1="1893" x2="1893" y1="84.0679" y2="1314.3665"/><line style="stroke:#E7E7E7;stroke-width:0.5;stroke-dasharray:5.0,5.0;" x1="2110" x2="2110" y1="84.0679" y2="1314.3665"/><text fill="#FFFFFF" font-family="sans-serif" font-size="14" lengthAdjust="spacing" textLength="54" x="5" y="79.9659">Teacher</text><ellipse cx="35" cy="13.5" fill="#222222" rx="8" ry="8" style="stroke:#E7E7E7;stroke-width:0.5;"/><path d="M35,21.5 L35,48.5 M22,29.5 L48,29.5 M35,48.5 L22,63.5 M35,48.5 L48,63.5 " fill="none" style="stroke:#E7E7E7;stroke-width:0.5;"/><text fill="#FFFFFF" font-family="sans-serif" font-size="14" lengthAdjust="spacing" textLength="54" x="5" y="1328.3324">Teacher</text><ellipse cx="35" cy="1340.9344" fill="#222222" rx="8" ry="8" style="stroke:#E7E7E7;stroke-width:0.5;"/><path d="M35,1348.9344 L35,1375.9344 M22,1356.9344 L48,1356.9344 M35,1375.9344 L22,1390.9344 M35,1375.9344 L48,1390.9344 " fill="none" style="stroke:#E7E7E7;stroke-width:0.5;"/><rect fill="#222222" height="33.0679" rx="2.5" ry="2.5" style="stroke:#E7E7E7;stroke-width:0.5;" width="196" x="102" y="50"/><text fill="#FFFFFF" font-family="sans-serif" font-size="14" lengthAdjust="spacing" textLength="182" x="109" y="71.9659">AddExamQuestionsExamUI</text><rect fill="#222222" height="33.0679" rx="2.5" ry="2.5" style="stroke:#E7E7E7;stroke-width:0.5;" width="196" x="102" y="1313.3665"/><text fill="#FFFFFF" font-family="sans-serif" font-size="14" lengthAdjust="spacing" textLength="182" x="109" y="1335.3324">AddExamQuestionsExamUI</text><rect fill="#222222" height="33.0679" rx="2.5" ry="2.5" style="stroke:#E7E7E7;stroke-width:0.5;" width="212" x="331" y="50"/><text fill="#FFFFFF" font-family="sans-serif" font-size="14" lengthAdjust="spacing" textLength="198" x="338" y="71.9659">AddExamQuestionsController</text><rect fill="#222222" height="33.0679" rx="2.5" ry="2.5" style="stroke:#E7E7E7;stroke-width:0.5;" width="212" x="331" y="1313.3665"/><text fill="#FFFFFF" font-family="sans-serif" font-size="14" lengthAdjust="spacing" textLength="198" x="338" y="1335.3324">AddExamQuestionsController</text><rect fill="#222222" height="33.0679" rx="2.5" ry="2.5" style="stroke:#E7E7E7;stroke-width:0.5;" width="146" x="553" y="50"/><text fill="#FFFFFF" font-family="sans-serif" font-size="14" lengthAdjust="spacing" textLength="132" x="560" y="71.9659">QuestionRepository</text><rect fill="#222222" height="33.0679" rx="2.5" ry="2.5" style="stroke:#E7E7E7;stroke-width:0.5;" width="146" x="553" y="1313.3665"/><text fill="#FFFFFF" font-family="sans-serif" font-size="14" lengthAdjust="spacing" textLength="132" x="560" y="1335.3324">QuestionRepository</text><rect fill="#222222" height="33.0679" rx="2.5" ry="2.5" style="stroke:#E7E7E7;stroke-width:0.5;" width="113" x="709" y="50"/><text fill="#FFFFFF" font-family="sans-serif" font-size="14" lengthAdjust="spacing" textLength="99" x="716" y="71.9659">MyUserService</text><rect fill="#222222" height="33.0679" rx="2.5" ry="2.5" style="stroke:#E7E7E7;stroke-width:0.5;" width="113" x="709" y="1313.3665"/><text fill="#FFFFFF" font-family="sans-serif" font-size="14" lengthAdjust="spacing" textLength="99" x="716" y="1335.3324">MyUserService</text><rect fill="#222222" height="33.0679" rx="2.5" ry="2.5" style="stroke:#E7E7E7;stroke-width:0.5;" width="68" x="832" y="50"/><text fill="#FFFFFF" font-family="sans-serif" font-size="14" lengthAdjust="spacing" textLength="54" x="839" y="71.9659">Teacher</text><rect fill="#222222" height="33.0679" rx="2.5" ry="2.5" style="stroke:#E7E7E7;stroke-width:0.5;" width="68" x="832" y="1313.3665"/><text fill="#FFFFFF" font-family="sans-serif" font-size="14" lengthAdjust="spacing" textLength="54" x="839" y="1335.3324">Teacher</text><rect fill="#222222" height="33.0679" rx="2.5" ry="2.5" style="stroke:#E7E7E7;stroke-width:0.5;" width="132" x="910" y="50"/><text fill="#FFFFFF" font-family="sans-serif" font-size="14" lengthAdjust="spacing" textLength="118" x="917" y="71.9659">CourseRepository</text><rect fill="#222222" height="33.0679" rx="2.5" ry="2.5" style="stroke:#E7E7E7;stroke-width:0.5;" width="132" x="910" y="1313.3665"/><text fill="#FFFFFF" font-family="sans-serif" font-size="14" lengthAdjust="spacing" textLength="118" x="917" y="1335.3324">CourseRepository</text><rect fill="#222222" height="33.0679" rx="2.5" ry="2.5" style="stroke:#E7E7E7;stroke-width:0.5;" width="129" x="1052" y="50"/><text fill="#FFFFFF" font-family="sans-serif" font-size="14" lengthAdjust="spacing" textLength="115" x="1059" y="71.9659">GrammarContext</text><rect fill="#222222" height="33.0679" rx="2.5" ry="2.5" style="stroke:#E7E7E7;stroke-width:0.5;" width="129" x="1052" y="1313.3665"/><text fill="#FFFFFF" font-family="sans-serif" font-size="14" lengthAdjust="spacing" textLength="115" x="1059" y="1335.3324">GrammarContext</text><rect fill="#222222" height="33.0679" rx="2.5" ry="2.5" style="stroke:#E7E7E7;stroke-width:0.5;" width="177" x="1191" y="50"/><text fill="#FFFFFF" font-family="sans-serif" font-size="14" lengthAdjust="spacing" textLength="163" x="1198" y="71.9659">GrammarToolRepository</text><rect fill="#222222" height="33.0679" rx="2.5" ry="2.5" style="stroke:#E7E7E7;stroke-width:0.5;" width="177" x="1191" y="1313.3665"/><text fill="#FFFFFF" font-family="sans-serif" font-size="14" lengthAdjust="spacing" textLength="163" x="1198" y="1335.3324">GrammarToolRepository</text><rect fill="#222222" height="33.0679" rx="2.5" ry="2.5" style="stroke:#E7E7E7;stroke-width:0.5;" width="123" x="1378" y="50"/><text fill="#FFFFFF" font-family="sans-serif" font-size="14" lengthAdjust="spacing" textLength="109" x="1385" y="71.9659">QuestionFactory</text><rect fill="#222222" height="33.0679" rx="2.5" ry="2.5" style="stroke:#E7E7E7;stroke-width:0.5;" width="123" x="1378" y="1313.3665"/><text fill="#FFFFFF" font-family="sans-serif" font-size="14" lengthAdjust="spacing" textLength="109" x="1385" y="1335.3324">QuestionFactory</text><rect fill="#222222" height="33.0679" rx="2.5" ry="2.5" style="stroke:#E7E7E7;stroke-width:0.5;" width="183" x="1511" y="50"/><text fill="#FFFFFF" font-family="sans-serif" font-size="14" lengthAdjust="spacing" textLength="169" x="1518" y="71.9659">QuestionValidatorService</text><rect fill="#222222" height="33.0679" rx="2.5" ry="2.5" style="stroke:#E7E7E7;stroke-width:0.5;" width="183" x="1511" y="1313.3665"/><text fill="#FFFFFF" font-family="sans-serif" font-size="14" lengthAdjust="spacing" textLength="169" x="1518" y="1335.3324">QuestionValidatorService</text><rect fill="#222222" height="33.0679" rx="2.5" ry="2.5" style="stroke:#E7E7E7;stroke-width:0.5;" width="75" x="1704" y="50"/><text fill="#FFFFFF" font-family="sans-serif" font-size="14" lengthAdjust="spacing" textLength="61" x="1711" y="71.9659">Question</text><rect fill="#222222" height="33.0679" rx="2.5" ry="2.5" style="stroke:#E7E7E7;stroke-width:0.5;" width="75" x="1704" y="1313.3665"/><text fill="#FFFFFF" font-family="sans-serif" font-size="14" lengthAdjust="spacing" textLength="61" x="1711" y="1335.3324">Question</text><rect fill="#222222" height="33.0679" rx="2.5" ry="2.5" style="stroke:#E7E7E7;stroke-width:0.5;" width="209" x="1789" y="50"/><text fill="#FFFFFF" font-family="sans-serif" font-size="14" lengthAdjust="spacing" textLength="195" x="1796" y="71.9659">StaffMemberExamRepository</text><rect fill="#222222" height="33.0679" rx="2.5" ry="2.5" style="stroke:#E7E7E7;stroke-width:0.5;" width="209" x="1789" y="1313.3665"/><text fill="#FFFFFF" font-family="sans-serif" font-size="14" lengthAdjust="spacing" textLength="195" x="1796" y="1335.3324">StaffMemberExamRepository</text><rect fill="#222222" height="33.0679" rx="2.5" ry="2.5" style="stroke:#E7E7E7;stroke-width:0.5;" width="204" x="2008" y="50"/><text fill="#FFFFFF" font-family="sans-serif" font-size="14" lengthAdjust="spacing" textLength="190" x="2015" y="71.9659">AvailableCourseDTOMapper</text><rect fill="#222222" height="33.0679" rx="2.5" ry="2.5" style="stroke:#E7E7E7;stroke-width:0.5;" width="204" x="2008" y="1313.3665"/><text fill="#FFFFFF" font-family="sans-serif" font-size="14" lengthAdjust="spacing" textLength="190" x="2015" y="1335.3324">AvailableCourseDTOMapper</text><rect fill="#000000" height="511.5902" style="stroke:#E7E7E7;stroke-width:1.0;" width="10" x="195" y="117.7739"/><rect fill="#000000" height="599.8842" style="stroke:#E7E7E7;stroke-width:1.0;" width="10" x="195" y="696.4822"/><rect fill="#000000" height="64.706" style="stroke:#E7E7E7;stroke-width:1.0;" width="10" x="432" y="149.4799"/><rect fill="#000000" height="331.0602" style="stroke:#E7E7E7;stroke-width:1.0;" width="10" x="432" y="266.598"/><rect fill="#000000" height="536.4722" style="stroke:#E7E7E7;stroke-width:1.0;" width="10" x="432" y="728.1882"/><rect fill="#000000" height="30" style="stroke:#E7E7E7;stroke-width:1.0;" width="10" x="621" y="184.186"/><rect fill="#000000" height="30" style="stroke:#E7E7E7;stroke-width:1.0;" width="10" x="621" y="1202.9544"/><rect fill="#000000" height="117.118" style="stroke:#E7E7E7;stroke-width:1.0;" width="10" x="760.5" y="298.304"/><rect fill="#000000" height="30" style="stroke:#E7E7E7;stroke-width:1.0;" width="10" x="861" y="341.863"/><rect fill="#000000" height="31.706" style="stroke:#E7E7E7;stroke-width:1.0;" width="10" x="971" y="759.8943"/><rect fill="#000000" height="93.412" style="stroke:#E7E7E7;stroke-width:1.0;" width="10" x="1111.5" y="823.3063"/><rect fill="#000000" height="61.706" style="stroke:#E7E7E7;stroke-width:1.0;" width="10" x="1274.5" y="855.0123"/><rect fill="#000000" height="30" style="stroke:#E7E7E7;stroke-width:1.0;" width="10" x="1434.5" y="948.4243"/><rect fill="#000000" height="161.118" style="stroke:#E7E7E7;stroke-width:1.0;" width="10" x="1434.5" y="1010.1304"/><rect fill="#000000" height="30" style="stroke:#E7E7E7;stroke-width:1.0;" width="10" x="1597.5" y="886.7183"/><rect fill="#000000" height="30" style="stroke:#E7E7E7;stroke-width:1.0;" width="10" x="1597.5" y="1041.8364"/><rect fill="#000000" height="30" style="stroke:#E7E7E7;stroke-width:1.0;" width="10" x="1736.5" y="1106.5424"/><rect fill="#000000" height="31.706" style="stroke:#E7E7E7;stroke-width:1.0;" width="10" x="1888.5" y="447.1281"/><rect fill="#000000" height="43.559" style="stroke:#E7E7E7;stroke-width:1.0;" width="10" x="2105" y="522.3931"/><polygon fill="#E7E7E7" points="183,113.7739,193,117.7739,183,121.7739,187,117.7739" style="stroke:#E7E7E7;stroke-width:1.0;"/><line style="stroke:#E7E7E7;stroke-width:1.0;stroke-dasharray:2.0,2.0;" x1="35" x2="189" y1="117.7739" y2="117.7739"/><text fill="#FFFFFF" font-family="sans-serif" font-size="13" lengthAdjust="spacing" textLength="32" x="42" y="111.9649">enter</text><polygon fill="#E7E7E7" points="420,145.4799,430,149.4799,420,153.4799,424,149.4799" style="stroke:#E7E7E7;stroke-width:1.0;"/><line style="stroke:#E7E7E7;stroke-width:1.0;stroke-dasharray:2.0,2.0;" x1="205" x2="426" y1="149.4799" y2="149.4799"/><text fill="#FFFFFF" font-family="sans-serif" font-size="13" lengthAdjust="spacing" textLength="45" x="212" y="143.6709">create()</text><polygon fill="#E7E7E7" points="609,180.186,619,184.186,609,188.186,613,184.186" style="stroke:#E7E7E7;stroke-width:1.0;"/><line style="stroke:#E7E7E7;stroke-width:1.0;stroke-dasharray:2.0,2.0;" x1="442" x2="615" y1="184.186" y2="184.186"/><path d="M636,162.4799 L636,207.4799 L855,207.4799 L855,172.4799 L845,162.4799 L636,162.4799 " fill="#714137" style="stroke:#E7E7E7;stroke-width:0.5;"/><path d="M845,162.4799 L845,172.4799 L855,172.4799 L845,162.4799 " fill="#714137" style="stroke:#E7E7E7;stroke-width:0.5;"/><text fill="#FFFFFF" font-family="sans-serif" font-size="13" lengthAdjust="spacing" textLength="151" x="642" y="181.377">repository is retrieved via</text><text fill="#FFFFFF" font-family="sans-serif" font-size="13" lengthAdjust="spacing" textLength="198" x="642" y="199.083">PersistenceContext.repositories()</text><polygon fill="#E7E7E7" points="420,262.598,430,266.598,420,270.598,424,266.598" style="stroke:#E7E7E7;stroke-width:1.0;"/><line style="stroke:#E7E7E7;stroke-width:1.0;stroke-dasharray:2.0,2.0;" x1="205" x2="426" y1="266.598" y2="266.598"/><text fill="#FFFFFF" font-family="sans-serif" font-size="13" lengthAdjust="spacing" textLength="54" x="212" y="260.789">courses()</text><polygon fill="#E7E7E7" points="748.5,294.304,758.5,298.304,748.5,302.304,752.5,298.304" style="stroke:#E7E7E7;stroke-width:1.0;"/><line style="stroke:#E7E7E7;stroke-width:1.0;stroke-dasharray:2.0,2.0;" x1="442" x2="754.5" y1="298.304" y2="298.304"/><text fill="#FFFFFF" font-family="sans-serif" font-size="13" lengthAdjust="spacing" textLength="99" x="449" y="292.495">currentTeacher()</text><polygon fill="#E7E7E7" points="849,337.863,859,341.863,849,345.863,853,341.863" style="stroke:#E7E7E7;stroke-width:1.0;"/><line style="stroke:#E7E7E7;stroke-width:1.0;stroke-dasharray:2.0,2.0;" x1="770.5" x2="855" y1="341.863" y2="341.863"/><text fill="#FFFFFF" font-family="sans-serif" font-size="13" lengthAdjust="spacing" textLength="28" x="777.5" y="336.054">get()</text><path d="M876,311.304 L876,356.304 L1119,356.304 L1119,321.304 L1109,311.304 L876,311.304 " fill="#714137" style="stroke:#E7E7E7;stroke-width:0.5;"/><path d="M1109,311.304 L1109,321.304 L1119,321.304 L1109,311.304 " fill="#714137" style="stroke:#E7E7E7;stroke-width:0.5;"/><text fill="#FFFFFF" font-family="sans-serif" font-size="13" lengthAdjust="spacing" textLength="222" x="882" y="330.201">teacher obtained via the framework's</text><text fill="#FFFFFF" font-family="sans-serif" font-size="13" lengthAdjust="spacing" textLength="213" x="882" y="347.907">Authz package + TeacherRepository</text><polygon fill="#E7E7E7" points="453,411.4221,443,415.4221,453,419.4221,449,415.4221" style="stroke:#E7E7E7;stroke-width:1.0;"/><line style="stroke:#E7E7E7;stroke-width:1.0;stroke-dasharray:2.0,2.0;" x1="447" x2="764.5" y1="415.4221" y2="415.4221"/><text fill="#FFFFFF" font-family="sans-serif" font-size="13" lengthAdjust="spacing" textLength="45" x="459" y="409.6131">teacher</text><polygon fill="#E7E7E7" points="1876.5,443.1281,1886.5,447.1281,1876.5,451.1281,1880.5,447.1281" style="stroke:#E7E7E7;stroke-width:1.0;"/><line style="stroke:#E7E7E7;stroke-width:1.0;stroke-dasharray:2.0,2.0;" x1="442" x2="1882.5" y1="447.1281" y2="447.1281"/><text fill="#FFFFFF" font-family="sans-serif" font-size="13" lengthAdjust="spacing" textLength="199" x="449" y="441.3191">nonClosedAndTaughtBy(teacher)</text><polygon fill="#E7E7E7" points="453,474.8341,443,478.8341,453,482.8341,449,478.8341" style="stroke:#E7E7E7;stroke-width:1.0;"/><line style="stroke:#E7E7E7;stroke-width:1.0;stroke-dasharray:2.0,2.0;" x1="447" x2="1892.5" y1="478.8341" y2="478.8341"/><text fill="#FFFFFF" font-family="sans-serif" font-size="13" lengthAdjust="spacing" textLength="46" x="459" y="473.0251">courses</text><polygon fill="#E7E7E7" points="2093,518.3931,2103,522.3931,2093,526.3931,2097,522.3931" style="stroke:#E7E7E7;stroke-width:1.0;"/><line style="stroke:#E7E7E7;stroke-width:1.0;stroke-dasharray:2.0,2.0;" x1="442" x2="2099" y1="522.3931" y2="522.3931"/><text fill="#FFFFFF" font-family="sans-serif" font-size="13" lengthAdjust="spacing" textLength="93" x="449" y="516.5841">toDTO(courses)</text><path d="M2120,491.8341 L2120,536.8341 L2302,536.8341 L2302,501.8341 L2292,491.8341 L2120,491.8341 " fill="#714137" style="stroke:#E7E7E7;stroke-width:0.5;"/><path d="M2292,491.8341 L2292,501.8341 L2302,501.8341 L2292,491.8341 " fill="#714137" style="stroke:#E7E7E7;stroke-width:0.5;"/><text fill="#FFFFFF" font-family="sans-serif" font-size="13" lengthAdjust="spacing" textLength="161" x="2126" y="510.7311">create AvailableCourseDTO</text><text fill="#FFFFFF" font-family="sans-serif" font-size="13" lengthAdjust="spacing" textLength="49" x="2126" y="528.4371">from list</text><polygon fill="#E7E7E7" points="453,561.9521,443,565.9521,453,569.9521,449,565.9521" style="stroke:#E7E7E7;stroke-width:1.0;"/><line style="stroke:#E7E7E7;stroke-width:1.0;stroke-dasharray:2.0,2.0;" x1="447" x2="2109" y1="565.9521" y2="565.9521"/><text fill="#FFFFFF" font-family="sans-serif" font-size="13" lengthAdjust="spacing" textLength="87" x="459" y="560.1431">courseDTOList</text><polygon fill="#E7E7E7" points="216,593.6582,206,597.6582,216,601.6582,212,597.6582" style="stroke:#E7E7E7;stroke-width:1.0;"/><line style="stroke:#E7E7E7;stroke-width:1.0;stroke-dasharray:2.0,2.0;" x1="210" x2="436" y1="597.6582" y2="597.6582"/><text fill="#FFFFFF" font-family="sans-serif" font-size="13" lengthAdjust="spacing" textLength="87" x="222" y="591.8492">courseDTOList</text><polygon fill="#E7E7E7" points="46,625.3642,36,629.3642,46,633.3642,42,629.3642" style="stroke:#E7E7E7;stroke-width:1.0;"/><line style="stroke:#E7E7E7;stroke-width:1.0;stroke-dasharray:2.0,2.0;" x1="40" x2="199" y1="629.3642" y2="629.3642"/><text fill="#FFFFFF" font-family="sans-serif" font-size="13" lengthAdjust="spacing" textLength="136" x="52" y="623.5552">show available courses</text><polygon fill="#E7E7E7" points="183,692.4822,193,696.4822,183,700.4822,187,696.4822" style="stroke:#E7E7E7;stroke-width:1.0;"/><line style="stroke:#E7E7E7;stroke-width:1.0;stroke-dasharray:2.0,2.0;" x1="35" x2="189" y1="696.4822" y2="696.4822"/><text fill="#FFFFFF" font-family="sans-serif" font-size="13" lengthAdjust="spacing" textLength="103" x="42" y="655.2612">select course and</text><text fill="#FFFFFF" font-family="sans-serif" font-size="13" lengthAdjust="spacing" textLength="104" x="42" y="672.9672">type specification</text><text fill="#FFFFFF" font-family="sans-serif" font-size="13" lengthAdjust="spacing" textLength="48" x="42" y="690.6732">file path</text><polygon fill="#E7E7E7" points="420,724.1882,430,728.1882,420,732.1882,424,728.1882" style="stroke:#E7E7E7;stroke-width:1.0;"/><line style="stroke:#E7E7E7;stroke-width:1.0;stroke-dasharray:2.0,2.0;" x1="205" x2="426" y1="728.1882" y2="728.1882"/><text fill="#FFFFFF" font-family="sans-serif" font-size="13" lengthAdjust="spacing" textLength="208" x="212" y="722.3792">addExamQuestion(courseDTO, file)</text><polygon fill="#E7E7E7" points="959,755.8943,969,759.8943,959,763.8943,963,759.8943" style="stroke:#E7E7E7;stroke-width:1.0;"/><line style="stroke:#E7E7E7;stroke-width:1.0;stroke-dasharray:2.0,2.0;" x1="442" x2="965" y1="759.8943" y2="759.8943"/><text fill="#FFFFFF" font-family="sans-serif" font-size="13" lengthAdjust="spacing" textLength="188" x="449" y="754.0853">ofIdentity(courseDTO.courseId)</text><polygon fill="#E7E7E7" points="453,787.6003,443,791.6003,453,795.6003,449,791.6003" style="stroke:#E7E7E7;stroke-width:1.0;"/><line style="stroke:#E7E7E7;stroke-width:1.0;stroke-dasharray:2.0,2.0;" x1="447" x2="975" y1="791.6003" y2="791.6003"/><text fill="#FFFFFF" font-family="sans-serif" font-size="13" lengthAdjust="spacing" textLength="40" x="459" y="785.7913">course</text><polygon fill="#E7E7E7" points="1099.5,819.3063,1109.5,823.3063,1099.5,827.3063,1103.5,823.3063" style="stroke:#E7E7E7;stroke-width:1.0;"/><line style="stroke:#E7E7E7;stroke-width:1.0;stroke-dasharray:2.0,2.0;" x1="442" x2="1105.5" y1="823.3063" y2="823.3063"/><text fill="#FFFFFF" font-family="sans-serif" font-size="13" lengthAdjust="spacing" textLength="96" x="449" y="817.4973">grammarTools()</text><polygon fill="#E7E7E7" points="1262.5,851.0123,1272.5,855.0123,1262.5,859.0123,1266.5,855.0123" style="stroke:#E7E7E7;stroke-width:1.0;"/><line style="stroke:#E7E7E7;stroke-width:1.0;stroke-dasharray:2.0,2.0;" x1="1121.5" x2="1268.5" y1="855.0123" y2="855.0123"/><text fill="#FFFFFF" font-family="sans-serif" font-size="13" lengthAdjust="spacing" textLength="115" x="1128.5" y="849.2033">questionValidator()</text><polygon fill="#E7E7E7" points="1585.5,882.7183,1595.5,886.7183,1585.5,890.7183,1589.5,886.7183" style="stroke:#E7E7E7;stroke-width:1.0;"/><line style="stroke:#E7E7E7;stroke-width:1.0;stroke-dasharray:2.0,2.0;" x1="1284.5" x2="1591.5" y1="886.7183" y2="886.7183"/><text fill="#FFFFFF" font-family="sans-serif" font-size="13" lengthAdjust="spacing" textLength="45" x="1291.5" y="880.9093">create()</text><polygon fill="#E7E7E7" points="1422.5,944.4243,1432.5,948.4243,1422.5,952.4243,1426.5,948.4243" style="stroke:#E7E7E7;stroke-width:1.0;"/><line style="stroke:#E7E7E7;stroke-width:1.0;stroke-dasharray:2.0,2.0;" x1="442" x2="1428.5" y1="948.4243" y2="948.4243"/><text fill="#FFFFFF" font-family="sans-serif" font-size="13" lengthAdjust="spacing" textLength="152" x="449" y="942.6153">create(questionValidator)</text><polygon fill="#E7E7E7" points="1422.5,1006.1304,1432.5,1010.1304,1422.5,1014.1304,1426.5,1010.1304" style="stroke:#E7E7E7;stroke-width:1.0;"/><line style="stroke:#E7E7E7;stroke-width:1.0;stroke-dasharray:2.0,2.0;" x1="442" x2="1428.5" y1="1010.1304" y2="1010.1304"/><text fill="#FFFFFF" font-family="sans-serif" font-size="13" lengthAdjust="spacing" textLength="101" x="449" y="1004.3214">build(course, file)</text><polygon fill="#E7E7E7" points="1585.5,1037.8364,1595.5,1041.8364,1585.5,1045.8364,1589.5,1041.8364" style="stroke:#E7E7E7;stroke-width:1.0;"/><line style="stroke:#E7E7E7;stroke-width:1.0;stroke-dasharray:2.0,2.0;" x1="1444.5" x2="1591.5" y1="1041.8364" y2="1041.8364"/><text fill="#FFFFFF" font-family="sans-serif" font-size="13" lengthAdjust="spacing" textLength="72" x="1451.5" y="1036.0274">validate(file)</text><polygon fill="#E7E7E7" points="1724.5,1102.5424,1734.5,1106.5424,1724.5,1110.5424,1728.5,1106.5424" style="stroke:#E7E7E7;stroke-width:1.0;"/><line style="stroke:#E7E7E7;stroke-width:1.0;stroke-dasharray:2.0,2.0;" x1="1444.5" x2="1730.5" y1="1106.5424" y2="1106.5424"/><text fill="#FFFFFF" font-family="sans-serif" font-size="13" lengthAdjust="spacing" textLength="165" x="1451.5" y="1100.7334">create(course, specification)</text><path d="M1252,1084.8364 L1252,1111.8364 L1429,1111.8364 L1429,1094.8364 L1419,1084.8364 L1252,1084.8364 " fill="#714137" style="stroke:#E7E7E7;stroke-width:0.5;"/><path d="M1419,1084.8364 L1419,1094.8364 L1429,1094.8364 L1419,1084.8364 " fill="#714137" style="stroke:#E7E7E7;stroke-width:0.5;"/><text fill="#FFFFFF" font-family="sans-serif" font-size="13" lengthAdjust="spacing" textLength="156" x="1258" y="1103.7334">specification read from file</text><polygon fill="#E7E7E7" points="453,1167.2484,443,1171.2484,453,1175.2484,449,1171.2484" style="stroke:#E7E7E7;stroke-width:1.0;"/><line style="stroke:#E7E7E7;stroke-width:1.0;stroke-dasharray:2.0,2.0;" x1="447" x2="1438.5" y1="1171.2484" y2="1171.2484"/><text fill="#FFFFFF" font-family="sans-serif" font-size="13" lengthAdjust="spacing" textLength="53" x="459" y="1165.4394">question</text><polygon fill="#E7E7E7" points="609,1198.9544,619,1202.9544,609,1206.9544,613,1202.9544" style="stroke:#E7E7E7;stroke-width:1.0;"/><line style="stroke:#E7E7E7;stroke-width:1.0;stroke-dasharray:2.0,2.0;" x1="442" x2="615" y1="1202.9544" y2="1202.9544"/><text fill="#FFFFFF" font-family="sans-serif" font-size="13" lengthAdjust="spacing" textLength="88" x="449" y="1197.1454">save(question)</text><polygon fill="#E7E7E7" points="216,1260.6604,206,1264.6604,216,1268.6604,212,1264.6604" style="stroke:#E7E7E7;stroke-width:1.0;"/><line style="stroke:#E7E7E7;stroke-width:1.0;stroke-dasharray:2.0,2.0;" x1="210" x2="436" y1="1264.6604" y2="1264.6604"/><text fill="#FFFFFF" font-family="sans-serif" font-size="13" lengthAdjust="spacing" textLength="45" x="222" y="1258.8514">success</text><polygon fill="#E7E7E7" points="46,1292.3665,36,1296.3665,46,1300.3665,42,1296.3665" style="stroke:#E7E7E7;stroke-width:1.0;"/><line style="stroke:#E7E7E7;stroke-width:1.0;stroke-dasharray:2.0,2.0;" x1="40" x2="199" y1="1296.3665" y2="1296.3665"/><text fill="#FFFFFF" font-family="sans-serif" font-size="13" lengthAdjust="spacing" textLength="86" x="52" y="1290.5575">report success</text><!--SRC=[bLRRRjim37tFL-WjARRs0_em8EikAB1YbwPx2X0eCkq8jILNajrcNp_Abct9ahlE3u5ZaOU750yboenKP0UKdK0HgacZGQrggWndlAR2a6sMVNwXrSy6jE5IQFlduROpvQyQtaXXb2pB7fSPLQu2-y7m5zHISwHnjdOA_uLsT-S7v7GFgkKC1ee7tRB0oal1zAyXoerib8Om5Zl4qRugMbLKMVBmOdhcBocBdPHb25V4Q4EENoWRh79yJThyfYNFA9fvgTeiayPsySczhrQhDV6Dxi_QG6Mhrc6SzQ7HQcRZwXLcO185kJSqp- -WEeAosniww2hXiMqfB-cnXBxcdtRVxsXTzsIgxct69NQmffcHKMO_G6cEoGa6inqAxIQMNkMHwG6hFyTCz-6JIsnbkurSNdx0ThycW36niH2JjzI0bS2AuDFmpiGsERacJ04kRYwwfT6sKm1nJsTfNReemrSXqKxnucGGHKryk2Ll58SMCj9okXTn8Qv6UmxQnGxY1v4oYBzxttgr9ZBhDaY_BRL1fzQlKGfhvveknMuKDV6U4S72ELaZMW76WmXW1ktxYrvUgUMWw4CGUJIKYxxQn9o0vAXwU9RgSQttOjkOqnzi8lP82o3lOZ4jP-4AEIVYSHmh4LVKoGtzXHGtfTIGRKMsemsI_tZUED14TGUT-hG6i7XxKwn6fKUaUadRd2GgT-CmBj9DtKiZeVYzo9MiI8bD7TDtKyDdxw96v17gcu_XfJ13MNU_fPGroV4CjBLp68IBg1JhL6GSKNEvXxPZR3lCucMFN6m08klO9KgEeapb-vg0kp5sJVH9FXCwL7_Cqcy_7imywmCbC3FKXefiByovnfQeWV6SCsgd9-uVHy2QcbCu7-CXGiEBmcPCv3sn66-QBMmGWinlCvmit9mddAl-xJPBA875Gc0BEaZr45jI0Pv1TZ9DTuFa3BOdLH0QlQntuR9vcjy5bkPS4MLXds9Cn8tTUMV6Ws4sSUUgdorxIyNIUM9pZEjZhpqJeoZFHAswYr82l_k-6E3Oy39phU3tqpAqVJhdgMvjJmiseV-hbPjLBGq_v3rLOc0QYEaYFg1Ao6rwWHaUtJGZtToqHDCynrlY0jdf5fbax1GHeVnxGrnBQzfE-_s_rvA5qQSRna3hjmuz2wNCw1KEkxy0]--></g></svg>