<?xml version="1.0" encoding="us-ascii" standalone="no"?><svg xmlns="http://www.w3.org/2000/svg" xmlns:xlink="http://www.w3.org/1999/xlink" contentStyleType="text/css" height="1209px" preserveAspectRatio="none" style="width:2114px;height:1209px;background:#1B1B1B;" version="1.1" viewBox="0 0 2114 1209" width="2114px" zoomAndPan="magnify"><defs/><g><rect fill="#1B1B1B" height="1209" style="stroke:none;stroke-width:1.0;" width="2114" x="0" y="0"/><rect fill="#000000" height="509.8842" style="stroke:#E7E7E7;stroke-width:1.0;" width="10" x="195" y="117.7739"/><rect fill="#000000" height="413.0602" style="stroke:#E7E7E7;stroke-width:1.0;" width="10" x="195" y="694.7762"/><rect fill="#000000" height="64.706" style="stroke:#E7E7E7;stroke-width:1.0;" width="10" x="432" y="149.4799"/><rect fill="#000000" height="329.3541" style="stroke:#E7E7E7;stroke-width:1.0;" width="10" x="432" y="266.598"/><rect fill="#000000" height="349.6481" style="stroke:#E7E7E7;stroke-width:1.0;" width="10" x="432" y="726.4822"/><rect fill="#000000" height="30" style="stroke:#E7E7E7;stroke-width:1.0;" width="10" x="621" y="184.186"/><rect fill="#000000" height="30" style="stroke:#E7E7E7;stroke-width:1.0;" width="10" x="621" y="1014.4243"/><rect fill="#000000" height="31.706" style="stroke:#E7E7E7;stroke-width:1.0;" width="10" x="770" y="758.1882"/><rect fill="#000000" height="161.118" style="stroke:#E7E7E7;stroke-width:1.0;" width="10" x="907.5" y="821.6003"/><rect fill="#000000" height="30" style="stroke:#E7E7E7;stroke-width:1.0;" width="10" x="1110.5" y="853.3063"/><rect fill="#000000" height="30" style="stroke:#E7E7E7;stroke-width:1.0;" width="10" x="1289.5" y="918.0123"/><rect fill="#000000" height="30" style="stroke:#E7E7E7;stroke-width:1.0;" width="10" x="1383.5" y="310.157"/><rect fill="#000000" height="30" style="stroke:#E7E7E7;stroke-width:1.0;" width="10" x="1509.5" y="383.716"/><rect fill="#000000" height="31.706" style="stroke:#E7E7E7;stroke-width:1.0;" width="10" x="1693.5" y="445.4221"/><rect fill="#000000" height="43.559" style="stroke:#E7E7E7;stroke-width:1.0;" width="10" x="1910" y="520.6871"/><line style="stroke:#E7E7E7;stroke-width:0.5;stroke-dasharray:5.0,5.0;" x1="35" x2="35" y1="84.0679" y2="1125.8364"/><line style="stroke:#E7E7E7;stroke-width:0.5;stroke-dasharray:5.0,5.0;" x1="200" x2="200" y1="84.0679" y2="1125.8364"/><line style="stroke:#E7E7E7;stroke-width:0.5;stroke-dasharray:5.0,5.0;" x1="437" x2="437" y1="84.0679" y2="1125.8364"/><line style="stroke:#E7E7E7;stroke-width:0.5;stroke-dasharray:5.0,5.0;" x1="626" x2="626" y1="84.0679" y2="1125.8364"/><line style="stroke:#E7E7E7;stroke-width:0.5;stroke-dasharray:5.0,5.0;" x1="775" x2="775" y1="84.0679" y2="1125.8364"/><line style="stroke:#E7E7E7;stroke-width:0.5;stroke-dasharray:5.0,5.0;" x1="912" x2="912" y1="84.0679" y2="1125.8364"/><line style="stroke:#E7E7E7;stroke-width:0.5;stroke-dasharray:5.0,5.0;" x1="1115" x2="1115" y1="84.0679" y2="1125.8364"/><line style="stroke:#E7E7E7;stroke-width:0.5;stroke-dasharray:5.0,5.0;" x1="1294" x2="1294" y1="84.0679" y2="1125.8364"/><line style="stroke:#E7E7E7;stroke-width:0.5;stroke-dasharray:5.0,5.0;" x1="1388" x2="1388" y1="84.0679" y2="1125.8364"/><line style="stroke:#E7E7E7;stroke-width:0.5;stroke-dasharray:5.0,5.0;" x1="1514" x2="1514" y1="84.0679" y2="1125.8364"/><line style="stroke:#E7E7E7;stroke-width:0.5;stroke-dasharray:5.0,5.0;" x1="1698" x2="1698" y1="84.0679" y2="1125.8364"/><line style="stroke:#E7E7E7;stroke-width:0.5;stroke-dasharray:5.0,5.0;" x1="1915" x2="1915" y1="84.0679" y2="1125.8364"/><text fill="#FFFFFF" font-family="sans-serif" font-size="14" lengthAdjust="spacing" textLength="54" x="5" y="79.9659">Teacher</text><ellipse cx="35" cy="13.5" fill="#222222" rx="8" ry="8" style="stroke:#E7E7E7;stroke-width:0.5;"/><path d="M35,21.5 L35,48.5 M22,29.5 L48,29.5 M35,48.5 L22,63.5 M35,48.5 L48,63.5 " fill="none" style="stroke:#E7E7E7;stroke-width:0.5;"/><text fill="#FFFFFF" font-family="sans-serif" font-size="14" lengthAdjust="spacing" textLength="54" x="5" y="1139.8023">Teacher</text><ellipse cx="35" cy="1152.4043" fill="#222222" rx="8" ry="8" style="stroke:#E7E7E7;stroke-width:0.5;"/><path d="M35,1160.4043 L35,1187.4043 M22,1168.4043 L48,1168.4043 M35,1187.4043 L22,1202.4043 M35,1187.4043 L48,1202.4043 " fill="none" style="stroke:#E7E7E7;stroke-width:0.5;"/><rect fill="#222222" height="33.0679" rx="2.5" ry="2.5" style="stroke:#E7E7E7;stroke-width:0.5;" width="196" x="102" y="50"/><text fill="#FFFFFF" font-family="sans-serif" font-size="14" lengthAdjust="spacing" textLength="182" x="109" y="71.9659">AddExamQuestionsExamUI</text><rect fill="#222222" height="33.0679" rx="2.5" ry="2.5" style="stroke:#E7E7E7;stroke-width:0.5;" width="196" x="102" y="1124.8364"/><text fill="#FFFFFF" font-family="sans-serif" font-size="14" lengthAdjust="spacing" textLength="182" x="109" y="1146.8023">AddExamQuestionsExamUI</text><rect fill="#222222" height="33.0679" rx="2.5" ry="2.5" style="stroke:#E7E7E7;stroke-width:0.5;" width="212" x="331" y="50"/><text fill="#FFFFFF" font-family="sans-serif" font-size="14" lengthAdjust="spacing" textLength="198" x="338" y="71.9659">AddExamQuestionsController</text><rect fill="#222222" height="33.0679" rx="2.5" ry="2.5" style="stroke:#E7E7E7;stroke-width:0.5;" width="212" x="331" y="1124.8364"/><text fill="#FFFFFF" font-family="sans-serif" font-size="14" lengthAdjust="spacing" textLength="198" x="338" y="1146.8023">AddExamQuestionsController</text><rect fill="#222222" height="33.0679" rx="2.5" ry="2.5" style="stroke:#E7E7E7;stroke-width:0.5;" width="146" x="553" y="50"/><text fill="#FFFFFF" font-family="sans-serif" font-size="14" lengthAdjust="spacing" textLength="132" x="560" y="71.9659">QuestionRepository</text><rect fill="#222222" height="33.0679" rx="2.5" ry="2.5" style="stroke:#E7E7E7;stroke-width:0.5;" width="146" x="553" y="1124.8364"/><text fill="#FFFFFF" font-family="sans-serif" font-size="14" lengthAdjust="spacing" textLength="132" x="560" y="1146.8023">QuestionRepository</text><rect fill="#222222" height="33.0679" rx="2.5" ry="2.5" style="stroke:#E7E7E7;stroke-width:0.5;" width="132" x="709" y="50"/><text fill="#FFFFFF" font-family="sans-serif" font-size="14" lengthAdjust="spacing" textLength="118" x="716" y="71.9659">CourseRepository</text><rect fill="#222222" height="33.0679" rx="2.5" ry="2.5" style="stroke:#E7E7E7;stroke-width:0.5;" width="132" x="709" y="1124.8364"/><text fill="#FFFFFF" font-family="sans-serif" font-size="14" lengthAdjust="spacing" textLength="118" x="716" y="1146.8023">CourseRepository</text><rect fill="#222222" height="33.0679" rx="2.5" ry="2.5" style="stroke:#E7E7E7;stroke-width:0.5;" width="123" x="851" y="50"/><text fill="#FFFFFF" font-family="sans-serif" font-size="14" lengthAdjust="spacing" textLength="109" x="858" y="71.9659">QuestionFactory</text><rect fill="#222222" height="33.0679" rx="2.5" ry="2.5" style="stroke:#E7E7E7;stroke-width:0.5;" width="123" x="851" y="1124.8364"/><text fill="#FFFFFF" font-family="sans-serif" font-size="14" lengthAdjust="spacing" textLength="109" x="858" y="1146.8023">QuestionFactory</text><rect fill="#222222" height="33.0679" rx="2.5" ry="2.5" style="stroke:#E7E7E7;stroke-width:0.5;" width="263" x="984" y="50"/><text fill="#FFFFFF" font-family="sans-serif" font-size="14" lengthAdjust="spacing" textLength="249" x="991" y="71.9659">ValidateQuestionSpecificationService</text><rect fill="#222222" height="33.0679" rx="2.5" ry="2.5" style="stroke:#E7E7E7;stroke-width:0.5;" width="263" x="984" y="1124.8364"/><text fill="#FFFFFF" font-family="sans-serif" font-size="14" lengthAdjust="spacing" textLength="249" x="991" y="1146.8023">ValidateQuestionSpecificationService</text><rect fill="#222222" height="33.0679" rx="2.5" ry="2.5" style="stroke:#E7E7E7;stroke-width:0.5;" width="75" x="1257" y="50"/><text fill="#FFFFFF" font-family="sans-serif" font-size="14" lengthAdjust="spacing" textLength="61" x="1264" y="71.9659">Question</text><rect fill="#222222" height="33.0679" rx="2.5" ry="2.5" style="stroke:#E7E7E7;stroke-width:0.5;" width="75" x="1257" y="1124.8364"/><text fill="#FFFFFF" font-family="sans-serif" font-size="14" lengthAdjust="spacing" textLength="61" x="1264" y="1146.8023">Question</text><rect fill="#222222" height="33.0679" rx="2.5" ry="2.5" style="stroke:#E7E7E7;stroke-width:0.5;" width="93" x="1342" y="50"/><text fill="#FFFFFF" font-family="sans-serif" font-size="14" lengthAdjust="spacing" textLength="79" x="1349" y="71.9659">SystemUser</text><rect fill="#222222" height="33.0679" rx="2.5" ry="2.5" style="stroke:#E7E7E7;stroke-width:0.5;" width="93" x="1342" y="1124.8364"/><text fill="#FFFFFF" font-family="sans-serif" font-size="14" lengthAdjust="spacing" textLength="79" x="1349" y="1146.8023">SystemUser</text><rect fill="#222222" height="33.0679" rx="2.5" ry="2.5" style="stroke:#E7E7E7;stroke-width:0.5;" width="139" x="1445" y="50"/><text fill="#FFFFFF" font-family="sans-serif" font-size="14" lengthAdjust="spacing" textLength="125" x="1452" y="71.9659">TeacherRepository</text><rect fill="#222222" height="33.0679" rx="2.5" ry="2.5" style="stroke:#E7E7E7;stroke-width:0.5;" width="139" x="1445" y="1124.8364"/><text fill="#FFFFFF" font-family="sans-serif" font-size="14" lengthAdjust="spacing" textLength="125" x="1452" y="1146.8023">TeacherRepository</text><rect fill="#222222" height="33.0679" rx="2.5" ry="2.5" style="stroke:#E7E7E7;stroke-width:0.5;" width="209" x="1594" y="50"/><text fill="#FFFFFF" font-family="sans-serif" font-size="14" lengthAdjust="spacing" textLength="195" x="1601" y="71.9659">StaffMemberExamRepository</text><rect fill="#222222" height="33.0679" rx="2.5" ry="2.5" style="stroke:#E7E7E7;stroke-width:0.5;" width="209" x="1594" y="1124.8364"/><text fill="#FFFFFF" font-family="sans-serif" font-size="14" lengthAdjust="spacing" textLength="195" x="1601" y="1146.8023">StaffMemberExamRepository</text><rect fill="#222222" height="33.0679" rx="2.5" ry="2.5" style="stroke:#E7E7E7;stroke-width:0.5;" width="204" x="1813" y="50"/><text fill="#FFFFFF" font-family="sans-serif" font-size="14" lengthAdjust="spacing" textLength="190" x="1820" y="71.9659">AvailableCourseDTOMapper</text><rect fill="#222222" height="33.0679" rx="2.5" ry="2.5" style="stroke:#E7E7E7;stroke-width:0.5;" width="204" x="1813" y="1124.8364"/><text fill="#FFFFFF" font-family="sans-serif" font-size="14" lengthAdjust="spacing" textLength="190" x="1820" y="1146.8023">AvailableCourseDTOMapper</text><rect fill="#000000" height="509.8842" style="stroke:#E7E7E7;stroke-width:1.0;" width="10" x="195" y="117.7739"/><rect fill="#000000" height="413.0602" style="stroke:#E7E7E7;stroke-width:1.0;" width="10" x="195" y="694.7762"/><rect fill="#000000" height="64.706" style="stroke:#E7E7E7;stroke-width:1.0;" width="10" x="432" y="149.4799"/><rect fill="#000000" height="329.3541" style="stroke:#E7E7E7;stroke-width:1.0;" width="10" x="432" y="266.598"/><rect fill="#000000" height="349.6481" style="stroke:#E7E7E7;stroke-width:1.0;" width="10" x="432" y="726.4822"/><rect fill="#000000" height="30" style="stroke:#E7E7E7;stroke-width:1.0;" width="10" x="621" y="184.186"/><rect fill="#000000" height="30" style="stroke:#E7E7E7;stroke-width:1.0;" width="10" x="621" y="1014.4243"/><rect fill="#000000" height="31.706" style="stroke:#E7E7E7;stroke-width:1.0;" width="10" x="770" y="758.1882"/><rect fill="#000000" height="161.118" style="stroke:#E7E7E7;stroke-width:1.0;" width="10" x="907.5" y="821.6003"/><rect fill="#000000" height="30" style="stroke:#E7E7E7;stroke-width:1.0;" width="10" x="1110.5" y="853.3063"/><rect fill="#000000" height="30" style="stroke:#E7E7E7;stroke-width:1.0;" width="10" x="1289.5" y="918.0123"/><rect fill="#000000" height="30" style="stroke:#E7E7E7;stroke-width:1.0;" width="10" x="1383.5" y="310.157"/><rect fill="#000000" height="30" style="stroke:#E7E7E7;stroke-width:1.0;" width="10" x="1509.5" y="383.716"/><rect fill="#000000" height="31.706" style="stroke:#E7E7E7;stroke-width:1.0;" width="10" x="1693.5" y="445.4221"/><rect fill="#000000" height="43.559" style="stroke:#E7E7E7;stroke-width:1.0;" width="10" x="1910" y="520.6871"/><polygon fill="#E7E7E7" points="183,113.7739,193,117.7739,183,121.7739,187,117.7739" style="stroke:#E7E7E7;stroke-width:1.0;"/><line style="stroke:#E7E7E7;stroke-width:1.0;stroke-dasharray:2.0,2.0;" x1="35" x2="189" y1="117.7739" y2="117.7739"/><text fill="#FFFFFF" font-family="sans-serif" font-size="13" lengthAdjust="spacing" textLength="32" x="42" y="111.9649">enter</text><polygon fill="#E7E7E7" points="420,145.4799,430,149.4799,420,153.4799,424,149.4799" style="stroke:#E7E7E7;stroke-width:1.0;"/><line style="stroke:#E7E7E7;stroke-width:1.0;stroke-dasharray:2.0,2.0;" x1="205" x2="426" y1="149.4799" y2="149.4799"/><text fill="#FFFFFF" font-family="sans-serif" font-size="13" lengthAdjust="spacing" textLength="45" x="212" y="143.6709">create()</text><polygon fill="#E7E7E7" points="609,180.186,619,184.186,609,188.186,613,184.186" style="stroke:#E7E7E7;stroke-width:1.0;"/><line style="stroke:#E7E7E7;stroke-width:1.0;stroke-dasharray:2.0,2.0;" x1="442" x2="615" y1="184.186" y2="184.186"/><path d="M636,162.4799 L636,207.4799 L855,207.4799 L855,172.4799 L845,162.4799 L636,162.4799 " fill="#714137" style="stroke:#E7E7E7;stroke-width:0.5;"/><path d="M845,162.4799 L845,172.4799 L855,172.4799 L845,162.4799 " fill="#714137" style="stroke:#E7E7E7;stroke-width:0.5;"/><text fill="#FFFFFF" font-family="sans-serif" font-size="13" lengthAdjust="spacing" textLength="151" x="642" y="181.377">repository is retrieved via</text><text fill="#FFFFFF" font-family="sans-serif" font-size="13" lengthAdjust="spacing" textLength="198" x="642" y="199.083">PersistenceContext.repositories()</text><polygon fill="#E7E7E7" points="420,262.598,430,266.598,420,270.598,424,266.598" style="stroke:#E7E7E7;stroke-width:1.0;"/><line style="stroke:#E7E7E7;stroke-width:1.0;stroke-dasharray:2.0,2.0;" x1="205" x2="426" y1="266.598" y2="266.598"/><text fill="#FFFFFF" font-family="sans-serif" font-size="13" lengthAdjust="spacing" textLength="54" x="212" y="260.789">courses()</text><polygon fill="#E7E7E7" points="1371.5,306.157,1381.5,310.157,1371.5,314.157,1375.5,310.157" style="stroke:#E7E7E7;stroke-width:1.0;"/><line style="stroke:#E7E7E7;stroke-width:1.0;stroke-dasharray:2.0,2.0;" x1="442" x2="1377.5" y1="310.157" y2="310.157"/><text fill="#FFFFFF" font-family="sans-serif" font-size="13" lengthAdjust="spacing" textLength="28" x="449" y="304.348">get()</text><path d="M1398,279.598 L1398,324.598 L1607,324.598 L1607,289.598 L1597,279.598 L1398,279.598 " fill="#714137" style="stroke:#E7E7E7;stroke-width:0.5;"/><path d="M1597,279.598 L1597,289.598 L1607,289.598 L1597,279.598 " fill="#714137" style="stroke:#E7E7E7;stroke-width:0.5;"/><text fill="#FFFFFF" font-family="sans-serif" font-size="13" lengthAdjust="spacing" textLength="136" x="1404" y="298.495">sysUser is obtained via</text><text fill="#FFFFFF" font-family="sans-serif" font-size="13" lengthAdjust="spacing" textLength="188" x="1404" y="316.201">the framework's Authz package</text><polygon fill="#E7E7E7" points="1497.5,379.716,1507.5,383.716,1497.5,387.716,1501.5,383.716" style="stroke:#E7E7E7;stroke-width:1.0;"/><line style="stroke:#E7E7E7;stroke-width:1.0;stroke-dasharray:2.0,2.0;" x1="442" x2="1503.5" y1="383.716" y2="383.716"/><text fill="#FFFFFF" font-family="sans-serif" font-size="13" lengthAdjust="spacing" textLength="165" x="449" y="377.907">findBySystemUser(sysUser)</text><polygon fill="#E7E7E7" points="1681.5,441.4221,1691.5,445.4221,1681.5,449.4221,1685.5,445.4221" style="stroke:#E7E7E7;stroke-width:1.0;"/><line style="stroke:#E7E7E7;stroke-width:1.0;stroke-dasharray:2.0,2.0;" x1="442" x2="1687.5" y1="445.4221" y2="445.4221"/><text fill="#FFFFFF" font-family="sans-serif" font-size="13" lengthAdjust="spacing" textLength="199" x="449" y="439.6131">nonClosedAndTaughtBy(teacher)</text><polygon fill="#E7E7E7" points="453,473.1281,443,477.1281,453,481.1281,449,477.1281" style="stroke:#E7E7E7;stroke-width:1.0;"/><line style="stroke:#E7E7E7;stroke-width:1.0;stroke-dasharray:2.0,2.0;" x1="447" x2="1697.5" y1="477.1281" y2="477.1281"/><text fill="#FFFFFF" font-family="sans-serif" font-size="13" lengthAdjust="spacing" textLength="46" x="459" y="471.3191">courses</text><polygon fill="#E7E7E7" points="1898,516.6871,1908,520.6871,1898,524.6871,1902,520.6871" style="stroke:#E7E7E7;stroke-width:1.0;"/><line style="stroke:#E7E7E7;stroke-width:1.0;stroke-dasharray:2.0,2.0;" x1="442" x2="1904" y1="520.6871" y2="520.6871"/><text fill="#FFFFFF" font-family="sans-serif" font-size="13" lengthAdjust="spacing" textLength="93" x="449" y="514.8781">toDTO(courses)</text><path d="M1925,490.1281 L1925,535.1281 L2107,535.1281 L2107,500.1281 L2097,490.1281 L1925,490.1281 " fill="#714137" style="stroke:#E7E7E7;stroke-width:0.5;"/><path d="M2097,490.1281 L2097,500.1281 L2107,500.1281 L2097,490.1281 " fill="#714137" style="stroke:#E7E7E7;stroke-width:0.5;"/><text fill="#FFFFFF" font-family="sans-serif" font-size="13" lengthAdjust="spacing" textLength="161" x="1931" y="509.0251">create AvailableCourseDTO</text><text fill="#FFFFFF" font-family="sans-serif" font-size="13" lengthAdjust="spacing" textLength="49" x="1931" y="526.7311">from list</text><polygon fill="#E7E7E7" points="453,560.2461,443,564.2461,453,568.2461,449,564.2461" style="stroke:#E7E7E7;stroke-width:1.0;"/><line style="stroke:#E7E7E7;stroke-width:1.0;stroke-dasharray:2.0,2.0;" x1="447" x2="1914" y1="564.2461" y2="564.2461"/><text fill="#FFFFFF" font-family="sans-serif" font-size="13" lengthAdjust="spacing" textLength="87" x="459" y="558.4371">courseDTOList</text><polygon fill="#E7E7E7" points="216,591.9521,206,595.9521,216,599.9521,212,595.9521" style="stroke:#E7E7E7;stroke-width:1.0;"/><line style="stroke:#E7E7E7;stroke-width:1.0;stroke-dasharray:2.0,2.0;" x1="210" x2="436" y1="595.9521" y2="595.9521"/><text fill="#FFFFFF" font-family="sans-serif" font-size="13" lengthAdjust="spacing" textLength="87" x="222" y="590.1431">courseDTOList</text><polygon fill="#E7E7E7" points="46,623.6582,36,627.6582,46,631.6582,42,627.6582" style="stroke:#E7E7E7;stroke-width:1.0;"/><line style="stroke:#E7E7E7;stroke-width:1.0;stroke-dasharray:2.0,2.0;" x1="40" x2="199" y1="627.6582" y2="627.6582"/><text fill="#FFFFFF" font-family="sans-serif" font-size="13" lengthAdjust="spacing" textLength="136" x="52" y="621.8492">show available courses</text><polygon fill="#E7E7E7" points="183,690.7762,193,694.7762,183,698.7762,187,694.7762" style="stroke:#E7E7E7;stroke-width:1.0;"/><line style="stroke:#E7E7E7;stroke-width:1.0;stroke-dasharray:2.0,2.0;" x1="35" x2="189" y1="694.7762" y2="694.7762"/><text fill="#FFFFFF" font-family="sans-serif" font-size="13" lengthAdjust="spacing" textLength="103" x="42" y="653.5552">select course and</text><text fill="#FFFFFF" font-family="sans-serif" font-size="13" lengthAdjust="spacing" textLength="104" x="42" y="671.2612">type specification</text><text fill="#FFFFFF" font-family="sans-serif" font-size="13" lengthAdjust="spacing" textLength="48" x="42" y="688.9672">file path</text><polygon fill="#E7E7E7" points="420,722.4822,430,726.4822,420,730.4822,424,726.4822" style="stroke:#E7E7E7;stroke-width:1.0;"/><line style="stroke:#E7E7E7;stroke-width:1.0;stroke-dasharray:2.0,2.0;" x1="205" x2="426" y1="726.4822" y2="726.4822"/><text fill="#FFFFFF" font-family="sans-serif" font-size="13" lengthAdjust="spacing" textLength="208" x="212" y="720.6732">addExamQuestion(courseDTO, file)</text><polygon fill="#E7E7E7" points="758,754.1882,768,758.1882,758,762.1882,762,758.1882" style="stroke:#E7E7E7;stroke-width:1.0;"/><line style="stroke:#E7E7E7;stroke-width:1.0;stroke-dasharray:2.0,2.0;" x1="442" x2="764" y1="758.1882" y2="758.1882"/><text fill="#FFFFFF" font-family="sans-serif" font-size="13" lengthAdjust="spacing" textLength="188" x="449" y="752.3792">ofIdentity(courseDTO.courseId)</text><polygon fill="#E7E7E7" points="453,785.8943,443,789.8943,453,793.8943,449,789.8943" style="stroke:#E7E7E7;stroke-width:1.0;"/><line style="stroke:#E7E7E7;stroke-width:1.0;stroke-dasharray:2.0,2.0;" x1="447" x2="774" y1="789.8943" y2="789.8943"/><text fill="#FFFFFF" font-family="sans-serif" font-size="13" lengthAdjust="spacing" textLength="40" x="459" y="784.0853">course</text><polygon fill="#E7E7E7" points="895.5,817.6003,905.5,821.6003,895.5,825.6003,899.5,821.6003" style="stroke:#E7E7E7;stroke-width:1.0;"/><line style="stroke:#E7E7E7;stroke-width:1.0;stroke-dasharray:2.0,2.0;" x1="442" x2="901.5" y1="821.6003" y2="821.6003"/><text fill="#FFFFFF" font-family="sans-serif" font-size="13" lengthAdjust="spacing" textLength="101" x="449" y="815.7913">build(course, file)</text><polygon fill="#E7E7E7" points="1098.5,849.3063,1108.5,853.3063,1098.5,857.3063,1102.5,853.3063" style="stroke:#E7E7E7;stroke-width:1.0;"/><line style="stroke:#E7E7E7;stroke-width:1.0;stroke-dasharray:2.0,2.0;" x1="917.5" x2="1104.5" y1="853.3063" y2="853.3063"/><text fill="#FFFFFF" font-family="sans-serif" font-size="13" lengthAdjust="spacing" textLength="72" x="924.5" y="847.4973">validate(file)</text><polygon fill="#E7E7E7" points="1277.5,914.0123,1287.5,918.0123,1277.5,922.0123,1281.5,918.0123" style="stroke:#E7E7E7;stroke-width:1.0;"/><line style="stroke:#E7E7E7;stroke-width:1.0;stroke-dasharray:2.0,2.0;" x1="917.5" x2="1283.5" y1="918.0123" y2="918.0123"/><text fill="#FFFFFF" font-family="sans-serif" font-size="13" lengthAdjust="spacing" textLength="165" x="924.5" y="912.2033">create(course, specification)</text><path d="M725,896.3063 L725,923.3063 L902,923.3063 L902,906.3063 L892,896.3063 L725,896.3063 " fill="#714137" style="stroke:#E7E7E7;stroke-width:0.5;"/><path d="M892,896.3063 L892,906.3063 L902,906.3063 L892,896.3063 " fill="#714137" style="stroke:#E7E7E7;stroke-width:0.5;"/><text fill="#FFFFFF" font-family="sans-serif" font-size="13" lengthAdjust="spacing" textLength="156" x="731" y="915.2033">specification read from file</text><polygon fill="#E7E7E7" points="453,978.7183,443,982.7183,453,986.7183,449,982.7183" style="stroke:#E7E7E7;stroke-width:1.0;"/><line style="stroke:#E7E7E7;stroke-width:1.0;stroke-dasharray:2.0,2.0;" x1="447" x2="911.5" y1="982.7183" y2="982.7183"/><text fill="#FFFFFF" font-family="sans-serif" font-size="13" lengthAdjust="spacing" textLength="53" x="459" y="976.9093">question</text><polygon fill="#E7E7E7" points="609,1010.4243,619,1014.4243,609,1018.4243,613,1014.4243" style="stroke:#E7E7E7;stroke-width:1.0;"/><line style="stroke:#E7E7E7;stroke-width:1.0;stroke-dasharray:2.0,2.0;" x1="442" x2="615" y1="1014.4243" y2="1014.4243"/><text fill="#FFFFFF" font-family="sans-serif" font-size="13" lengthAdjust="spacing" textLength="88" x="449" y="1008.6153">save(question)</text><polygon fill="#E7E7E7" points="216,1072.1304,206,1076.1304,216,1080.1304,212,1076.1304" style="stroke:#E7E7E7;stroke-width:1.0;"/><line style="stroke:#E7E7E7;stroke-width:1.0;stroke-dasharray:2.0,2.0;" x1="210" x2="436" y1="1076.1304" y2="1076.1304"/><text fill="#FFFFFF" font-family="sans-serif" font-size="13" lengthAdjust="spacing" textLength="45" x="222" y="1070.3214">success</text><polygon fill="#E7E7E7" points="46,1103.8364,36,1107.8364,46,1111.8364,42,1107.8364" style="stroke:#E7E7E7;stroke-width:1.0;"/><line style="stroke:#E7E7E7;stroke-width:1.0;stroke-dasharray:2.0,2.0;" x1="40" x2="199" y1="1107.8364" y2="1107.8364"/><text fill="#FFFFFF" font-family="sans-serif" font-size="13" lengthAdjust="spacing" textLength="86" x="52" y="1102.0274">report success</text><!--SRC=[bLR9Rjim4BtxAtYp0ZJvW1mAE6aB16ZG9KbF0GoQ7CL4958XAINgrtT8KJ9fqa6gWw7bpSoRvGrDcLMQt0DbUz246j8RqAkEQYkOwAYqPCFvrpVQ_kh1MA6aSGyFDnugtWLUAscrQfh9BxEwMINu6VWREcK4qXWTJkDJ0hjMlJQGWjZMmuhklb4smsgyJJ1_Q2CujJ1ZxpfWeXQC-WVGWs3W3Ct0oixTnvTmlqeXTwEnq3wOALqpccrlT0e9PKvpiTiivJjBw_eMsXreLz4KRzf2yfk1YeRk6fYgzUN-notjkebAw-zMQ_A-WODoYtwFa3z16u6fIGQke_1cftQ-7U4EBACE8DCjTk7OPxdrBo6nbPj1Sdx-6IViaW36n3gYJp5WwzpKhGXUlV0GDrVaaZ0D-B4wyvyMh1yw4YwFT2O-olnMAiHfyRItw4KV-0X7tce10t0o2Feeyq9SB7W19iHEuYUHEEJletUJG0gP-GQPZwKMnWxDdi2M6CrpIQ8hAG42_0nZ_cfdgP1p-dOFfDQqXLUbdzU6R7gx_ujTPS_q2Kf9BXB8M4uZZy5g8VdLU51E5Q8NY0UP5EA4BuLYj7CSgUHrempmZUJtjCTChyRAJcei5QbDWxbhTfPtffXxUuhKf4QqjWf5LmKVP-LvdAQw8DP7MMlLaWRdCQSV11-p3r4pykZgU-mZIk78ozh_DafrfCOJmzKk-212PgLOboBZTZbMQefTOhizb7-EoEK0aDopAvGSzLJAzptj-Gs4OjYhLqBdwYzPHfPk6qNhojb00ypEjQ6IetJ63aSYFckmVm8TTjJkqzMMwv-cnsgr9FA9E1yVMWji5eAgRpWkL677Wv-BwUw65vJ0SY6m4peepH0xfG9tCgFbhXSD3qpYT18E_XIF6NXZB_21ePCX7EfLQfyg6W_q-4CiLNVM5ztF1_rXQ6UcII_FycNQGErtQGp3fKyvyR9rHCiyb_yM9yWU_diK6OU6P5uY3xwQvJFHCQO3LBFv_nve9vHdUiR0c8zgphdITh5AjVOF]--></g></svg>