<?xml version="1.0" encoding="us-ascii" standalone="no"?><svg xmlns="http://www.w3.org/2000/svg" xmlns:xlink="http://www.w3.org/1999/xlink" contentStyleType="text/css" height="1211px" preserveAspectRatio="none" style="width:2063px;height:1211px;background:#1B1B1B;" version="1.1" viewBox="0 0 2063 1211" width="2063px" zoomAndPan="magnify"><defs/><g><rect fill="#1B1B1B" height="1211" style="stroke:none;stroke-width:1.0;" width="2063" x="0" y="0"/><rect fill="#000000" height="511.5902" style="stroke:#E7E7E7;stroke-width:1.0;" width="10" x="195" y="117.7739"/><rect fill="#000000" height="413.0602" style="stroke:#E7E7E7;stroke-width:1.0;" width="10" x="195" y="696.4822"/><rect fill="#000000" height="64.706" style="stroke:#E7E7E7;stroke-width:1.0;" width="10" x="432" y="149.4799"/><rect fill="#000000" height="331.0602" style="stroke:#E7E7E7;stroke-width:1.0;" width="10" x="432" y="266.598"/><rect fill="#000000" height="349.6481" style="stroke:#E7E7E7;stroke-width:1.0;" width="10" x="432" y="728.1882"/><rect fill="#000000" height="30" style="stroke:#E7E7E7;stroke-width:1.0;" width="10" x="621" y="184.186"/><rect fill="#000000" height="30" style="stroke:#E7E7E7;stroke-width:1.0;" width="10" x="621" y="1016.1304"/><rect fill="#000000" height="117.118" style="stroke:#E7E7E7;stroke-width:1.0;" width="10" x="760.5" y="298.304"/><rect fill="#000000" height="30" style="stroke:#E7E7E7;stroke-width:1.0;" width="10" x="861" y="341.863"/><rect fill="#000000" height="31.706" style="stroke:#E7E7E7;stroke-width:1.0;" width="10" x="971" y="759.8943"/><rect fill="#000000" height="161.118" style="stroke:#E7E7E7;stroke-width:1.0;" width="10" x="1108.5" y="823.3063"/><rect fill="#000000" height="30" style="stroke:#E7E7E7;stroke-width:1.0;" width="10" x="1311.5" y="855.0123"/><rect fill="#000000" height="30" style="stroke:#E7E7E7;stroke-width:1.0;" width="10" x="1490.5" y="919.7183"/><rect fill="#000000" height="31.706" style="stroke:#E7E7E7;stroke-width:1.0;" width="10" x="1642.5" y="447.1281"/><rect fill="#000000" height="43.559" style="stroke:#E7E7E7;stroke-width:1.0;" width="10" x="1859" y="522.3931"/><line style="stroke:#E7E7E7;stroke-width:0.5;stroke-dasharray:5.0,5.0;" x1="35" x2="35" y1="84.0679" y2="1127.5424"/><line style="stroke:#E7E7E7;stroke-width:0.5;stroke-dasharray:5.0,5.0;" x1="200" x2="200" y1="84.0679" y2="1127.5424"/><line style="stroke:#E7E7E7;stroke-width:0.5;stroke-dasharray:5.0,5.0;" x1="437" x2="437" y1="84.0679" y2="1127.5424"/><line style="stroke:#E7E7E7;stroke-width:0.5;stroke-dasharray:5.0,5.0;" x1="626" x2="626" y1="84.0679" y2="1127.5424"/><line style="stroke:#E7E7E7;stroke-width:0.5;stroke-dasharray:5.0,5.0;" x1="765" x2="765" y1="84.0679" y2="1127.5424"/><line style="stroke:#E7E7E7;stroke-width:0.5;stroke-dasharray:5.0,5.0;" x1="866" x2="866" y1="84.0679" y2="1127.5424"/><line style="stroke:#E7E7E7;stroke-width:0.5;stroke-dasharray:5.0,5.0;" x1="976" x2="976" y1="84.0679" y2="1127.5424"/><line style="stroke:#E7E7E7;stroke-width:0.5;stroke-dasharray:5.0,5.0;" x1="1113" x2="1113" y1="84.0679" y2="1127.5424"/><line style="stroke:#E7E7E7;stroke-width:0.5;stroke-dasharray:5.0,5.0;" x1="1316" x2="1316" y1="84.0679" y2="1127.5424"/><line style="stroke:#E7E7E7;stroke-width:0.5;stroke-dasharray:5.0,5.0;" x1="1495" x2="1495" y1="84.0679" y2="1127.5424"/><line style="stroke:#E7E7E7;stroke-width:0.5;stroke-dasharray:5.0,5.0;" x1="1647" x2="1647" y1="84.0679" y2="1127.5424"/><line style="stroke:#E7E7E7;stroke-width:0.5;stroke-dasharray:5.0,5.0;" x1="1864" x2="1864" y1="84.0679" y2="1127.5424"/><text fill="#FFFFFF" font-family="sans-serif" font-size="14" lengthAdjust="spacing" textLength="54" x="5" y="79.9659">Teacher</text><ellipse cx="35" cy="13.5" fill="#222222" rx="8" ry="8" style="stroke:#E7E7E7;stroke-width:0.5;"/><path d="M35,21.5 L35,48.5 M22,29.5 L48,29.5 M35,48.5 L22,63.5 M35,48.5 L48,63.5 " fill="none" style="stroke:#E7E7E7;stroke-width:0.5;"/><text fill="#FFFFFF" font-family="sans-serif" font-size="14" lengthAdjust="spacing" textLength="54" x="5" y="1141.5083">Teacher</text><ellipse cx="35" cy="1154.1103" fill="#222222" rx="8" ry="8" style="stroke:#E7E7E7;stroke-width:0.5;"/><path d="M35,1162.1103 L35,1189.1103 M22,1170.1103 L48,1170.1103 M35,1189.1103 L22,1204.1103 M35,1189.1103 L48,1204.1103 " fill="none" style="stroke:#E7E7E7;stroke-width:0.5;"/><rect fill="#222222" height="33.0679" rx="2.5" ry="2.5" style="stroke:#E7E7E7;stroke-width:0.5;" width="196" x="102" y="50"/><text fill="#FFFFFF" font-family="sans-serif" font-size="14" lengthAdjust="spacing" textLength="182" x="109" y="71.9659">AddExamQuestionsExamUI</text><rect fill="#222222" height="33.0679" rx="2.5" ry="2.5" style="stroke:#E7E7E7;stroke-width:0.5;" width="196" x="102" y="1126.5424"/><text fill="#FFFFFF" font-family="sans-serif" font-size="14" lengthAdjust="spacing" textLength="182" x="109" y="1148.5083">AddExamQuestionsExamUI</text><rect fill="#222222" height="33.0679" rx="2.5" ry="2.5" style="stroke:#E7E7E7;stroke-width:0.5;" width="212" x="331" y="50"/><text fill="#FFFFFF" font-family="sans-serif" font-size="14" lengthAdjust="spacing" textLength="198" x="338" y="71.9659">AddExamQuestionsController</text><rect fill="#222222" height="33.0679" rx="2.5" ry="2.5" style="stroke:#E7E7E7;stroke-width:0.5;" width="212" x="331" y="1126.5424"/><text fill="#FFFFFF" font-family="sans-serif" font-size="14" lengthAdjust="spacing" textLength="198" x="338" y="1148.5083">AddExamQuestionsController</text><rect fill="#222222" height="33.0679" rx="2.5" ry="2.5" style="stroke:#E7E7E7;stroke-width:0.5;" width="146" x="553" y="50"/><text fill="#FFFFFF" font-family="sans-serif" font-size="14" lengthAdjust="spacing" textLength="132" x="560" y="71.9659">QuestionRepository</text><rect fill="#222222" height="33.0679" rx="2.5" ry="2.5" style="stroke:#E7E7E7;stroke-width:0.5;" width="146" x="553" y="1126.5424"/><text fill="#FFFFFF" font-family="sans-serif" font-size="14" lengthAdjust="spacing" textLength="132" x="560" y="1148.5083">QuestionRepository</text><rect fill="#222222" height="33.0679" rx="2.5" ry="2.5" style="stroke:#E7E7E7;stroke-width:0.5;" width="113" x="709" y="50"/><text fill="#FFFFFF" font-family="sans-serif" font-size="14" lengthAdjust="spacing" textLength="99" x="716" y="71.9659">MyUserService</text><rect fill="#222222" height="33.0679" rx="2.5" ry="2.5" style="stroke:#E7E7E7;stroke-width:0.5;" width="113" x="709" y="1126.5424"/><text fill="#FFFFFF" font-family="sans-serif" font-size="14" lengthAdjust="spacing" textLength="99" x="716" y="1148.5083">MyUserService</text><rect fill="#222222" height="33.0679" rx="2.5" ry="2.5" style="stroke:#E7E7E7;stroke-width:0.5;" width="68" x="832" y="50"/><text fill="#FFFFFF" font-family="sans-serif" font-size="14" lengthAdjust="spacing" textLength="54" x="839" y="71.9659">Teacher</text><rect fill="#222222" height="33.0679" rx="2.5" ry="2.5" style="stroke:#E7E7E7;stroke-width:0.5;" width="68" x="832" y="1126.5424"/><text fill="#FFFFFF" font-family="sans-serif" font-size="14" lengthAdjust="spacing" textLength="54" x="839" y="1148.5083">Teacher</text><rect fill="#222222" height="33.0679" rx="2.5" ry="2.5" style="stroke:#E7E7E7;stroke-width:0.5;" width="132" x="910" y="50"/><text fill="#FFFFFF" font-family="sans-serif" font-size="14" lengthAdjust="spacing" textLength="118" x="917" y="71.9659">CourseRepository</text><rect fill="#222222" height="33.0679" rx="2.5" ry="2.5" style="stroke:#E7E7E7;stroke-width:0.5;" width="132" x="910" y="1126.5424"/><text fill="#FFFFFF" font-family="sans-serif" font-size="14" lengthAdjust="spacing" textLength="118" x="917" y="1148.5083">CourseRepository</text><rect fill="#222222" height="33.0679" rx="2.5" ry="2.5" style="stroke:#E7E7E7;stroke-width:0.5;" width="123" x="1052" y="50"/><text fill="#FFFFFF" font-family="sans-serif" font-size="14" lengthAdjust="spacing" textLength="109" x="1059" y="71.9659">QuestionFactory</text><rect fill="#222222" height="33.0679" rx="2.5" ry="2.5" style="stroke:#E7E7E7;stroke-width:0.5;" width="123" x="1052" y="1126.5424"/><text fill="#FFFFFF" font-family="sans-serif" font-size="14" lengthAdjust="spacing" textLength="109" x="1059" y="1148.5083">QuestionFactory</text><rect fill="#222222" height="33.0679" rx="2.5" ry="2.5" style="stroke:#E7E7E7;stroke-width:0.5;" width="263" x="1185" y="50"/><text fill="#FFFFFF" font-family="sans-serif" font-size="14" lengthAdjust="spacing" textLength="249" x="1192" y="71.9659">ValidateQuestionSpecificationService</text><rect fill="#222222" height="33.0679" rx="2.5" ry="2.5" style="stroke:#E7E7E7;stroke-width:0.5;" width="263" x="1185" y="1126.5424"/><text fill="#FFFFFF" font-family="sans-serif" font-size="14" lengthAdjust="spacing" textLength="249" x="1192" y="1148.5083">ValidateQuestionSpecificationService</text><rect fill="#222222" height="33.0679" rx="2.5" ry="2.5" style="stroke:#E7E7E7;stroke-width:0.5;" width="75" x="1458" y="50"/><text fill="#FFFFFF" font-family="sans-serif" font-size="14" lengthAdjust="spacing" textLength="61" x="1465" y="71.9659">Question</text><rect fill="#222222" height="33.0679" rx="2.5" ry="2.5" style="stroke:#E7E7E7;stroke-width:0.5;" width="75" x="1458" y="1126.5424"/><text fill="#FFFFFF" font-family="sans-serif" font-size="14" lengthAdjust="spacing" textLength="61" x="1465" y="1148.5083">Question</text><rect fill="#222222" height="33.0679" rx="2.5" ry="2.5" style="stroke:#E7E7E7;stroke-width:0.5;" width="209" x="1543" y="50"/><text fill="#FFFFFF" font-family="sans-serif" font-size="14" lengthAdjust="spacing" textLength="195" x="1550" y="71.9659">StaffMemberExamRepository</text><rect fill="#222222" height="33.0679" rx="2.5" ry="2.5" style="stroke:#E7E7E7;stroke-width:0.5;" width="209" x="1543" y="1126.5424"/><text fill="#FFFFFF" font-family="sans-serif" font-size="14" lengthAdjust="spacing" textLength="195" x="1550" y="1148.5083">StaffMemberExamRepository</text><rect fill="#222222" height="33.0679" rx="2.5" ry="2.5" style="stroke:#E7E7E7;stroke-width:0.5;" width="204" x="1762" y="50"/><text fill="#FFFFFF" font-family="sans-serif" font-size="14" lengthAdjust="spacing" textLength="190" x="1769" y="71.9659">AvailableCourseDTOMapper</text><rect fill="#222222" height="33.0679" rx="2.5" ry="2.5" style="stroke:#E7E7E7;stroke-width:0.5;" width="204" x="1762" y="1126.5424"/><text fill="#FFFFFF" font-family="sans-serif" font-size="14" lengthAdjust="spacing" textLength="190" x="1769" y="1148.5083">AvailableCourseDTOMapper</text><rect fill="#000000" height="511.5902" style="stroke:#E7E7E7;stroke-width:1.0;" width="10" x="195" y="117.7739"/><rect fill="#000000" height="413.0602" style="stroke:#E7E7E7;stroke-width:1.0;" width="10" x="195" y="696.4822"/><rect fill="#000000" height="64.706" style="stroke:#E7E7E7;stroke-width:1.0;" width="10" x="432" y="149.4799"/><rect fill="#000000" height="331.0602" style="stroke:#E7E7E7;stroke-width:1.0;" width="10" x="432" y="266.598"/><rect fill="#000000" height="349.6481" style="stroke:#E7E7E7;stroke-width:1.0;" width="10" x="432" y="728.1882"/><rect fill="#000000" height="30" style="stroke:#E7E7E7;stroke-width:1.0;" width="10" x="621" y="184.186"/><rect fill="#000000" height="30" style="stroke:#E7E7E7;stroke-width:1.0;" width="10" x="621" y="1016.1304"/><rect fill="#000000" height="117.118" style="stroke:#E7E7E7;stroke-width:1.0;" width="10" x="760.5" y="298.304"/><rect fill="#000000" height="30" style="stroke:#E7E7E7;stroke-width:1.0;" width="10" x="861" y="341.863"/><rect fill="#000000" height="31.706" style="stroke:#E7E7E7;stroke-width:1.0;" width="10" x="971" y="759.8943"/><rect fill="#000000" height="161.118" style="stroke:#E7E7E7;stroke-width:1.0;" width="10" x="1108.5" y="823.3063"/><rect fill="#000000" height="30" style="stroke:#E7E7E7;stroke-width:1.0;" width="10" x="1311.5" y="855.0123"/><rect fill="#000000" height="30" style="stroke:#E7E7E7;stroke-width:1.0;" width="10" x="1490.5" y="919.7183"/><rect fill="#000000" height="31.706" style="stroke:#E7E7E7;stroke-width:1.0;" width="10" x="1642.5" y="447.1281"/><rect fill="#000000" height="43.559" style="stroke:#E7E7E7;stroke-width:1.0;" width="10" x="1859" y="522.3931"/><polygon fill="#E7E7E7" points="183,113.7739,193,117.7739,183,121.7739,187,117.7739" style="stroke:#E7E7E7;stroke-width:1.0;"/><line style="stroke:#E7E7E7;stroke-width:1.0;stroke-dasharray:2.0,2.0;" x1="35" x2="189" y1="117.7739" y2="117.7739"/><text fill="#FFFFFF" font-family="sans-serif" font-size="13" lengthAdjust="spacing" textLength="32" x="42" y="111.9649">enter</text><polygon fill="#E7E7E7" points="420,145.4799,430,149.4799,420,153.4799,424,149.4799" style="stroke:#E7E7E7;stroke-width:1.0;"/><line style="stroke:#E7E7E7;stroke-width:1.0;stroke-dasharray:2.0,2.0;" x1="205" x2="426" y1="149.4799" y2="149.4799"/><text fill="#FFFFFF" font-family="sans-serif" font-size="13" lengthAdjust="spacing" textLength="45" x="212" y="143.6709">create()</text><polygon fill="#E7E7E7" points="609,180.186,619,184.186,609,188.186,613,184.186" style="stroke:#E7E7E7;stroke-width:1.0;"/><line style="stroke:#E7E7E7;stroke-width:1.0;stroke-dasharray:2.0,2.0;" x1="442" x2="615" y1="184.186" y2="184.186"/><path d="M636,162.4799 L636,207.4799 L855,207.4799 L855,172.4799 L845,162.4799 L636,162.4799 " fill="#714137" style="stroke:#E7E7E7;stroke-width:0.5;"/><path d="M845,162.4799 L845,172.4799 L855,172.4799 L845,162.4799 " fill="#714137" style="stroke:#E7E7E7;stroke-width:0.5;"/><text fill="#FFFFFF" font-family="sans-serif" font-size="13" lengthAdjust="spacing" textLength="151" x="642" y="181.377">repository is retrieved via</text><text fill="#FFFFFF" font-family="sans-serif" font-size="13" lengthAdjust="spacing" textLength="198" x="642" y="199.083">PersistenceContext.repositories()</text><polygon fill="#E7E7E7" points="420,262.598,430,266.598,420,270.598,424,266.598" style="stroke:#E7E7E7;stroke-width:1.0;"/><line style="stroke:#E7E7E7;stroke-width:1.0;stroke-dasharray:2.0,2.0;" x1="205" x2="426" y1="266.598" y2="266.598"/><text fill="#FFFFFF" font-family="sans-serif" font-size="13" lengthAdjust="spacing" textLength="54" x="212" y="260.789">courses()</text><polygon fill="#E7E7E7" points="748.5,294.304,758.5,298.304,748.5,302.304,752.5,298.304" style="stroke:#E7E7E7;stroke-width:1.0;"/><line style="stroke:#E7E7E7;stroke-width:1.0;stroke-dasharray:2.0,2.0;" x1="442" x2="754.5" y1="298.304" y2="298.304"/><text fill="#FFFFFF" font-family="sans-serif" font-size="13" lengthAdjust="spacing" textLength="99" x="449" y="292.495">currentTeacher()</text><polygon fill="#E7E7E7" points="849,337.863,859,341.863,849,345.863,853,341.863" style="stroke:#E7E7E7;stroke-width:1.0;"/><line style="stroke:#E7E7E7;stroke-width:1.0;stroke-dasharray:2.0,2.0;" x1="770.5" x2="855" y1="341.863" y2="341.863"/><text fill="#FFFFFF" font-family="sans-serif" font-size="13" lengthAdjust="spacing" textLength="28" x="777.5" y="336.054">get()</text><path d="M876,311.304 L876,356.304 L1119,356.304 L1119,321.304 L1109,311.304 L876,311.304 " fill="#714137" style="stroke:#E7E7E7;stroke-width:0.5;"/><path d="M1109,311.304 L1109,321.304 L1119,321.304 L1109,311.304 " fill="#714137" style="stroke:#E7E7E7;stroke-width:0.5;"/><text fill="#FFFFFF" font-family="sans-serif" font-size="13" lengthAdjust="spacing" textLength="222" x="882" y="330.201">teacher obtained via the framework's</text><text fill="#FFFFFF" font-family="sans-serif" font-size="13" lengthAdjust="spacing" textLength="213" x="882" y="347.907">Authz package + TeacherRepository</text><polygon fill="#E7E7E7" points="453,411.4221,443,415.4221,453,419.4221,449,415.4221" style="stroke:#E7E7E7;stroke-width:1.0;"/><line style="stroke:#E7E7E7;stroke-width:1.0;stroke-dasharray:2.0,2.0;" x1="447" x2="764.5" y1="415.4221" y2="415.4221"/><text fill="#FFFFFF" font-family="sans-serif" font-size="13" lengthAdjust="spacing" textLength="45" x="459" y="409.6131">teacher</text><polygon fill="#E7E7E7" points="1630.5,443.1281,1640.5,447.1281,1630.5,451.1281,1634.5,447.1281" style="stroke:#E7E7E7;stroke-width:1.0;"/><line style="stroke:#E7E7E7;stroke-width:1.0;stroke-dasharray:2.0,2.0;" x1="442" x2="1636.5" y1="447.1281" y2="447.1281"/><text fill="#FFFFFF" font-family="sans-serif" font-size="13" lengthAdjust="spacing" textLength="199" x="449" y="441.3191">nonClosedAndTaughtBy(teacher)</text><polygon fill="#E7E7E7" points="453,474.8341,443,478.8341,453,482.8341,449,478.8341" style="stroke:#E7E7E7;stroke-width:1.0;"/><line style="stroke:#E7E7E7;stroke-width:1.0;stroke-dasharray:2.0,2.0;" x1="447" x2="1646.5" y1="478.8341" y2="478.8341"/><text fill="#FFFFFF" font-family="sans-serif" font-size="13" lengthAdjust="spacing" textLength="46" x="459" y="473.0251">courses</text><polygon fill="#E7E7E7" points="1847,518.3931,1857,522.3931,1847,526.3931,1851,522.3931" style="stroke:#E7E7E7;stroke-width:1.0;"/><line style="stroke:#E7E7E7;stroke-width:1.0;stroke-dasharray:2.0,2.0;" x1="442" x2="1853" y1="522.3931" y2="522.3931"/><text fill="#FFFFFF" font-family="sans-serif" font-size="13" lengthAdjust="spacing" textLength="93" x="449" y="516.5841">toDTO(courses)</text><path d="M1874,491.8341 L1874,536.8341 L2056,536.8341 L2056,501.8341 L2046,491.8341 L1874,491.8341 " fill="#714137" style="stroke:#E7E7E7;stroke-width:0.5;"/><path d="M2046,491.8341 L2046,501.8341 L2056,501.8341 L2046,491.8341 " fill="#714137" style="stroke:#E7E7E7;stroke-width:0.5;"/><text fill="#FFFFFF" font-family="sans-serif" font-size="13" lengthAdjust="spacing" textLength="161" x="1880" y="510.7311">create AvailableCourseDTO</text><text fill="#FFFFFF" font-family="sans-serif" font-size="13" lengthAdjust="spacing" textLength="49" x="1880" y="528.4371">from list</text><polygon fill="#E7E7E7" points="453,561.9521,443,565.9521,453,569.9521,449,565.9521" style="stroke:#E7E7E7;stroke-width:1.0;"/><line style="stroke:#E7E7E7;stroke-width:1.0;stroke-dasharray:2.0,2.0;" x1="447" x2="1863" y1="565.9521" y2="565.9521"/><text fill="#FFFFFF" font-family="sans-serif" font-size="13" lengthAdjust="spacing" textLength="87" x="459" y="560.1431">courseDTOList</text><polygon fill="#E7E7E7" points="216,593.6582,206,597.6582,216,601.6582,212,597.6582" style="stroke:#E7E7E7;stroke-width:1.0;"/><line style="stroke:#E7E7E7;stroke-width:1.0;stroke-dasharray:2.0,2.0;" x1="210" x2="436" y1="597.6582" y2="597.6582"/><text fill="#FFFFFF" font-family="sans-serif" font-size="13" lengthAdjust="spacing" textLength="87" x="222" y="591.8492">courseDTOList</text><polygon fill="#E7E7E7" points="46,625.3642,36,629.3642,46,633.3642,42,629.3642" style="stroke:#E7E7E7;stroke-width:1.0;"/><line style="stroke:#E7E7E7;stroke-width:1.0;stroke-dasharray:2.0,2.0;" x1="40" x2="199" y1="629.3642" y2="629.3642"/><text fill="#FFFFFF" font-family="sans-serif" font-size="13" lengthAdjust="spacing" textLength="136" x="52" y="623.5552">show available courses</text><polygon fill="#E7E7E7" points="183,692.4822,193,696.4822,183,700.4822,187,696.4822" style="stroke:#E7E7E7;stroke-width:1.0;"/><line style="stroke:#E7E7E7;stroke-width:1.0;stroke-dasharray:2.0,2.0;" x1="35" x2="189" y1="696.4822" y2="696.4822"/><text fill="#FFFFFF" font-family="sans-serif" font-size="13" lengthAdjust="spacing" textLength="103" x="42" y="655.2612">select course and</text><text fill="#FFFFFF" font-family="sans-serif" font-size="13" lengthAdjust="spacing" textLength="104" x="42" y="672.9672">type specification</text><text fill="#FFFFFF" font-family="sans-serif" font-size="13" lengthAdjust="spacing" textLength="48" x="42" y="690.6732">file path</text><polygon fill="#E7E7E7" points="420,724.1882,430,728.1882,420,732.1882,424,728.1882" style="stroke:#E7E7E7;stroke-width:1.0;"/><line style="stroke:#E7E7E7;stroke-width:1.0;stroke-dasharray:2.0,2.0;" x1="205" x2="426" y1="728.1882" y2="728.1882"/><text fill="#FFFFFF" font-family="sans-serif" font-size="13" lengthAdjust="spacing" textLength="208" x="212" y="722.3792">addExamQuestion(courseDTO, file)</text><polygon fill="#E7E7E7" points="959,755.8943,969,759.8943,959,763.8943,963,759.8943" style="stroke:#E7E7E7;stroke-width:1.0;"/><line style="stroke:#E7E7E7;stroke-width:1.0;stroke-dasharray:2.0,2.0;" x1="442" x2="965" y1="759.8943" y2="759.8943"/><text fill="#FFFFFF" font-family="sans-serif" font-size="13" lengthAdjust="spacing" textLength="188" x="449" y="754.0853">ofIdentity(courseDTO.courseId)</text><polygon fill="#E7E7E7" points="453,787.6003,443,791.6003,453,795.6003,449,791.6003" style="stroke:#E7E7E7;stroke-width:1.0;"/><line style="stroke:#E7E7E7;stroke-width:1.0;stroke-dasharray:2.0,2.0;" x1="447" x2="975" y1="791.6003" y2="791.6003"/><text fill="#FFFFFF" font-family="sans-serif" font-size="13" lengthAdjust="spacing" textLength="40" x="459" y="785.7913">course</text><polygon fill="#E7E7E7" points="1096.5,819.3063,1106.5,823.3063,1096.5,827.3063,1100.5,823.3063" style="stroke:#E7E7E7;stroke-width:1.0;"/><line style="stroke:#E7E7E7;stroke-width:1.0;stroke-dasharray:2.0,2.0;" x1="442" x2="1102.5" y1="823.3063" y2="823.3063"/><text fill="#FFFFFF" font-family="sans-serif" font-size="13" lengthAdjust="spacing" textLength="101" x="449" y="817.4973">build(course, file)</text><polygon fill="#E7E7E7" points="1299.5,851.0123,1309.5,855.0123,1299.5,859.0123,1303.5,855.0123" style="stroke:#E7E7E7;stroke-width:1.0;"/><line style="stroke:#E7E7E7;stroke-width:1.0;stroke-dasharray:2.0,2.0;" x1="1118.5" x2="1305.5" y1="855.0123" y2="855.0123"/><text fill="#FFFFFF" font-family="sans-serif" font-size="13" lengthAdjust="spacing" textLength="72" x="1125.5" y="849.2033">validate(file)</text><polygon fill="#E7E7E7" points="1478.5,915.7183,1488.5,919.7183,1478.5,923.7183,1482.5,919.7183" style="stroke:#E7E7E7;stroke-width:1.0;"/><line style="stroke:#E7E7E7;stroke-width:1.0;stroke-dasharray:2.0,2.0;" x1="1118.5" x2="1484.5" y1="919.7183" y2="919.7183"/><text fill="#FFFFFF" font-family="sans-serif" font-size="13" lengthAdjust="spacing" textLength="165" x="1125.5" y="913.9093">create(course, specification)</text><path d="M926,898.0123 L926,925.0123 L1103,925.0123 L1103,908.0123 L1093,898.0123 L926,898.0123 " fill="#714137" style="stroke:#E7E7E7;stroke-width:0.5;"/><path d="M1093,898.0123 L1093,908.0123 L1103,908.0123 L1093,898.0123 " fill="#714137" style="stroke:#E7E7E7;stroke-width:0.5;"/><text fill="#FFFFFF" font-family="sans-serif" font-size="13" lengthAdjust="spacing" textLength="156" x="932" y="916.9093">specification read from file</text><polygon fill="#E7E7E7" points="453,980.4243,443,984.4243,453,988.4243,449,984.4243" style="stroke:#E7E7E7;stroke-width:1.0;"/><line style="stroke:#E7E7E7;stroke-width:1.0;stroke-dasharray:2.0,2.0;" x1="447" x2="1112.5" y1="984.4243" y2="984.4243"/><text fill="#FFFFFF" font-family="sans-serif" font-size="13" lengthAdjust="spacing" textLength="53" x="459" y="978.6153">question</text><polygon fill="#E7E7E7" points="609,1012.1304,619,1016.1304,609,1020.1304,613,1016.1304" style="stroke:#E7E7E7;stroke-width:1.0;"/><line style="stroke:#E7E7E7;stroke-width:1.0;stroke-dasharray:2.0,2.0;" x1="442" x2="615" y1="1016.1304" y2="1016.1304"/><text fill="#FFFFFF" font-family="sans-serif" font-size="13" lengthAdjust="spacing" textLength="88" x="449" y="1010.3214">save(question)</text><polygon fill="#E7E7E7" points="216,1073.8364,206,1077.8364,216,1081.8364,212,1077.8364" style="stroke:#E7E7E7;stroke-width:1.0;"/><line style="stroke:#E7E7E7;stroke-width:1.0;stroke-dasharray:2.0,2.0;" x1="210" x2="436" y1="1077.8364" y2="1077.8364"/><text fill="#FFFFFF" font-family="sans-serif" font-size="13" lengthAdjust="spacing" textLength="45" x="222" y="1072.0274">success</text><polygon fill="#E7E7E7" points="46,1105.5424,36,1109.5424,46,1113.5424,42,1109.5424" style="stroke:#E7E7E7;stroke-width:1.0;"/><line style="stroke:#E7E7E7;stroke-width:1.0;stroke-dasharray:2.0,2.0;" x1="40" x2="199" y1="1109.5424" y2="1109.5424"/><text fill="#FFFFFF" font-family="sans-serif" font-size="13" lengthAdjust="spacing" textLength="86" x="52" y="1103.7334">report success</text><!--SRC=[bLPDRzim3BtdL-YM55lx0teOa7KRK635FjBk521GPBeHwaYk9BlrVlqeMN8aIocw70BR8XyVAJvAb1cfo3rGTW15g2QT1hLegJASyPOAGzPLzVML7dzre0sNGjkNXrjdojyql972ADaq8oupgbaazi7mDxHISwGnM3k5RwdTtV20d3QWUiuWKDpfdYLMKGfcV4nHRcIdDAIns2wF5bXzeooOrVYOsFoX3Q-eWM2xQO7ncZFgNav4BSSYk5ryzi-BnM99OgFDe0qSRSuEOz2xJgkPZSysJSSKqjaOMjTtSDo3ifkJEkXZmMFTKzxGVGDZnRxS_xYZRJkIERgd6PVSmPfMHcQP_GIbEIOd6DZcW5SpTiRhpEx4Cje5PBh3dPXZbhlesIUsiBr2BYy_ORDU4y2Os1Q8oNlSFjl02uA_ZZiJswBacZ05kBYwS4kJhUjVud_EqhguAE6ha6Yd-EF188ewyU6Ml54SUgX8p-bMv8MuckmvQ1yxYPz4gY3_7dqRjLR8p6sGVbzgGMNMhrCAQ-URhiHkaYI9VXE2XVEYHBH7C1540XEK6oz6UPMMawA7879lA1TZjOav0AaLFSABL4zBlHNhpXp-OXEn9_e8v4CkflDP-4BEYKGSfqha5VLoGtyXnKqZDLHhKTtJ3ib_7bOUj53TeDEOLW3BjxV4Qb9wHcgKjCr9ed9N7kEYtDIZD0gAtufQoIDfiAbp-dvgnEnzr8myGdsFCQ8KPYXBzzz8sP8QJp1REuz1kCXAiIn5nX4rbtjgEyMsmonVZiZb1Y0gnwvGSXHbAT-t1Ep6s3NH1_b2QAZ-b6NSVZoPUTO76c0cr8QAQYlCq69Bn8SMxXz7m9QQGpeVyo52qsD-DINoaLYCTyqM5eGWwziA9mitmmddQdowhGfAOBaGs1aTb7g8dLE1FUBHSz_nfl9CudGI3kuw43DmpaxWRbhs_dQmIlrJHSz6PIpLU7OayE76S6hQm3JPoujyFZPGs_GICpmvQ4MSR2tHCi_fadA6xEaIKsJiDoH3YH1SDSi7gsLCUrW5z_yz5SyeJtUCWTRlrPo5KcRoIhNs3m00]--></g></svg>