<?xml version="1.0" encoding="us-ascii" standalone="no"?><svg xmlns="http://www.w3.org/2000/svg" xmlns:xlink="http://www.w3.org/1999/xlink" contentStyleType="text/css" height="1069.5px" preserveAspectRatio="none" style="width:870px;height:1069px;background:#FFFFFF;" version="1.1" viewBox="0 0 870 1069" width="870.5px" zoomAndPan="magnify"><defs/><g><!--class MessageProtocol--><g id="elem_MessageProtocol"><rect codeLine="9" fill="#F1F1F1" height="26.9707" id="MessageProtocol" rx="1.25" ry="1.25" style="stroke:#181818;stroke-width:0.25;" width="88.5" x="353.25" y="549.5"/><ellipse cx="360.75" cy="558.9854" fill="#B4A7E5" rx="5.5" ry="5.5" style="stroke:#181818;stroke-width:0.5;"/><path d="M361.2266,557.3057 L361.2266,560.6338 L362.0859,560.6338 Q362.3906,560.6338 362.5234,560.751 Q362.6563,560.8682 362.6563,561.0635 Q362.6563,561.251 362.5234,561.3682 Q362.3906,561.4854 362.0859,561.4854 L359.5156,561.4854 Q359.2109,561.4854 359.0781,561.3682 Q358.9453,561.251 358.9453,561.0557 Q358.9453,560.8682 359.0781,560.751 Q359.2109,560.6338 359.5156,560.6338 L360.375,560.6338 L360.375,557.3057 L359.5156,557.3057 Q359.2109,557.3057 359.0781,557.1885 Q358.9453,557.0713 358.9453,556.876 Q358.9453,556.6885 359.0781,556.5713 Q359.2109,556.4541 359.5156,556.4541 L362.0859,556.4541 Q362.3906,556.4541 362.5234,556.5713 Q362.6563,556.6885 362.6563,556.876 Q362.6563,557.0713 362.5234,557.1885 Q362.3906,557.3057 362.0859,557.3057 L361.2266,557.3057 Z " fill="#000000"/><text fill="#000000" font-family="sans-serif" font-size="9" font-style="italic" lengthAdjust="spacing" textLength="70.5" x="368.75" y="562.7119">MessageProtocol</text><line style="stroke:#181818;stroke-width:0.25;" x1="353.75" x2="441.25" y1="568.4707" y2="568.4707"/><line style="stroke:#181818;stroke-width:0.25;" x1="353.75" x2="441.25" y1="572.4707" y2="572.4707"/></g><!--class BoardParticipantRepository--><g id="elem_BoardParticipantRepository"><rect codeLine="10" fill="#F1F1F1" height="40.9414" id="BoardParticipantRepository" rx="1.25" ry="1.25" style="stroke:#181818;stroke-width:0.25;" width="290.5" x="53.25" y="857.5"/><ellipse cx="139.875" cy="866.9854" fill="#B4A7E5" rx="5.5" ry="5.5" style="stroke:#181818;stroke-width:0.5;"/><path d="M140.3516,865.3057 L140.3516,868.6338 L141.2109,868.6338 Q141.5156,868.6338 141.6484,868.751 Q141.7813,868.8682 141.7813,869.0635 Q141.7813,869.251 141.6484,869.3682 Q141.5156,869.4854 141.2109,869.4854 L138.6406,869.4854 Q138.3359,869.4854 138.2031,869.3682 Q138.0703,869.251 138.0703,869.0557 Q138.0703,868.8682 138.2031,868.751 Q138.3359,868.6338 138.6406,868.6338 L139.5,868.6338 L139.5,865.3057 L138.6406,865.3057 Q138.3359,865.3057 138.2031,865.1885 Q138.0703,865.0713 138.0703,864.876 Q138.0703,864.6885 138.2031,864.5713 Q138.3359,864.4541 138.6406,864.4541 L141.2109,864.4541 Q141.5156,864.4541 141.6484,864.5713 Q141.7813,864.6885 141.7813,864.876 Q141.7813,865.0713 141.6484,865.1885 Q141.5156,865.3057 141.2109,865.3057 L140.3516,865.3057 Z " fill="#000000"/><text fill="#000000" font-family="sans-serif" font-size="9" font-style="italic" lengthAdjust="spacing" textLength="111" x="151.125" y="870.7119">BoardParticipantRepository</text><line style="stroke:#181818;stroke-width:0.25;" x1="53.75" x2="343.25" y1="876.4707" y2="876.4707"/><line style="stroke:#181818;stroke-width:0.25;" x1="53.75" x2="343.25" y1="880.4707" y2="880.4707"/><text fill="#000000" font-family="sans-serif" font-size="9" lengthAdjust="spacing" textLength="282.5" x="57.25" y="893.1826">+withPermission(SystemUser user, BoardParticipantPermissions perm)</text></g><!--class CreatePostItUI--><g id="elem_CreatePostItUI"><rect codeLine="15" fill="#F1F1F1" height="40.9414" id="CreatePostItUI" rx="1.25" ry="1.25" style="stroke:#181818;stroke-width:0.25;" width="76" x="430.5" y="171.5"/><ellipse cx="438" cy="180.9854" fill="#ADD1B2" rx="5.5" ry="5.5" style="stroke:#181818;stroke-width:0.5;"/><path d="M439.3828,178.9229 Q439.4609,178.8135 439.5547,178.7588 Q439.6484,178.7041 439.7578,178.7041 Q439.9453,178.7041 440.0625,178.8369 Q440.1797,178.9619 440.1797,179.2666 L440.1797,179.9932 Q440.1797,180.2979 440.0625,180.4307 Q439.9453,180.5635 439.7578,180.5635 Q439.5859,180.5635 439.4844,180.4619 Q439.3828,180.3682 439.3281,180.1104 Q439.3047,179.9307 439.2109,179.8369 Q439.0469,179.6494 438.7422,179.54 Q438.4375,179.4307 438.125,179.4307 Q437.7422,179.4307 437.4219,179.5947 Q437.1094,179.7588 436.8594,180.1338 Q436.6172,180.5088 436.6172,181.0244 L436.6172,181.5713 Q436.6172,182.1885 437.0625,182.6025 Q437.5078,183.0088 438.3047,183.0088 Q438.7734,183.0088 439.1016,182.8838 Q439.2969,182.8057 439.5078,182.5869 Q439.6406,182.4541 439.7109,182.415 Q439.7891,182.376 439.8906,182.376 Q440.0547,182.376 440.1797,182.5088 Q440.3125,182.6338 440.3125,182.8057 Q440.3125,182.9775 440.1406,183.1807 Q439.8906,183.4697 439.4922,183.6338 Q438.9531,183.8604 438.3047,183.8604 Q437.5469,183.8604 436.9453,183.5479 Q436.4531,183.2979 436.1094,182.7666 Q435.7656,182.2275 435.7656,181.5869 L435.7656,181.0088 Q435.7656,180.3447 436.0703,179.7744 Q436.3828,179.1963 436.9297,178.8916 Q437.4766,178.5791 438.0938,178.5791 Q438.4609,178.5791 438.7813,178.665 Q439.1094,178.7432 439.3828,178.9229 Z " fill="#000000"/><text fill="#000000" font-family="sans-serif" font-size="9" lengthAdjust="spacing" textLength="58" x="446" y="184.7119">CreatePostItUI</text><line style="stroke:#181818;stroke-width:0.25;" x1="431" x2="506" y1="190.4707" y2="190.4707"/><line style="stroke:#181818;stroke-width:0.25;" x1="431" x2="506" y1="194.4707" y2="194.4707"/><text fill="#000000" font-family="sans-serif" font-size="9" lengthAdjust="spacing" textLength="52.5" x="434.5" y="207.1826">-chooseFile()</text></g><!--class CreatePostItController--><g id="elem_CreatePostItController"><rect codeLine="20" fill="#F1F1F1" height="96.8242" id="CreatePostItController" rx="1.25" ry="1.25" style="stroke:#181818;stroke-width:0.25;" width="328.5" x="304.25" y="262.5"/><ellipse cx="421.125" cy="271.9854" fill="#ADD1B2" rx="5.5" ry="5.5" style="stroke:#181818;stroke-width:0.5;"/><path d="M422.5078,269.9229 Q422.5859,269.8135 422.6797,269.7588 Q422.7734,269.7041 422.8828,269.7041 Q423.0703,269.7041 423.1875,269.8369 Q423.3047,269.9619 423.3047,270.2666 L423.3047,270.9932 Q423.3047,271.2979 423.1875,271.4307 Q423.0703,271.5635 422.8828,271.5635 Q422.7109,271.5635 422.6094,271.4619 Q422.5078,271.3682 422.4531,271.1104 Q422.4297,270.9307 422.3359,270.8369 Q422.1719,270.6494 421.8672,270.54 Q421.5625,270.4307 421.25,270.4307 Q420.8672,270.4307 420.5469,270.5947 Q420.2344,270.7588 419.9844,271.1338 Q419.7422,271.5088 419.7422,272.0244 L419.7422,272.5713 Q419.7422,273.1885 420.1875,273.6025 Q420.6328,274.0088 421.4297,274.0088 Q421.8984,274.0088 422.2266,273.8838 Q422.4219,273.8057 422.6328,273.5869 Q422.7656,273.4541 422.8359,273.415 Q422.9141,273.376 423.0156,273.376 Q423.1797,273.376 423.3047,273.5088 Q423.4375,273.6338 423.4375,273.8057 Q423.4375,273.9775 423.2656,274.1807 Q423.0156,274.4697 422.6172,274.6338 Q422.0781,274.8604 421.4297,274.8604 Q420.6719,274.8604 420.0703,274.5479 Q419.5781,274.2979 419.2344,273.7666 Q418.8906,273.2275 418.8906,272.5869 L418.8906,272.0088 Q418.8906,271.3447 419.1953,270.7744 Q419.5078,270.1963 420.0547,269.8916 Q420.6016,269.5791 421.2188,269.5791 Q421.5859,269.5791 421.9063,269.665 Q422.2344,269.7432 422.5078,269.9229 Z " fill="#000000"/><text fill="#000000" font-family="sans-serif" font-size="9" lengthAdjust="spacing" textLength="88.5" x="432.375" y="275.7119">CreatePostItController</text><line style="stroke:#181818;stroke-width:0.25;" x1="304.75" x2="632.25" y1="281.4707" y2="281.4707"/><line style="stroke:#181818;stroke-width:0.25;" x1="304.75" x2="632.25" y1="285.4707" y2="285.4707"/><text fill="#000000" font-family="sans-serif" font-size="9" lengthAdjust="spacing" textLength="222.5" x="308.25" y="298.1826">+isCellIdValid(String arr, int numRows, int numColumns)</text><text fill="#000000" font-family="sans-serif" font-size="9" lengthAdjust="spacing" textLength="75.5" x="308.25" y="312.1533">+canCreatePostIt()</text><text fill="#000000" font-family="sans-serif" font-size="9" lengthAdjust="spacing" textLength="66.5" x="308.25" y="326.124">+getBoardsList()</text><text fill="#000000" font-family="sans-serif" font-size="9" lengthAdjust="spacing" textLength="95" x="308.25" y="340.0947">+createPostIt(String str)</text><text fill="#000000" font-family="sans-serif" font-size="9" lengthAdjust="spacing" textLength="320.5" x="308.25" y="354.0654">+createBoardPositionTextString(String boardChosen, String position, String text)</text></g><!--class CreatePostItHandler--><g id="elem_CreatePostItHandler"><rect codeLine="29" fill="#F1F1F1" height="82.8535" id="CreatePostItHandler" rx="1.25" ry="1.25" style="stroke:#181818;stroke-width:0.25;" width="235" x="351" y="633.5"/><ellipse cx="424.875" cy="642.9854" fill="#ADD1B2" rx="5.5" ry="5.5" style="stroke:#181818;stroke-width:0.5;"/><path d="M426.2578,640.9229 Q426.3359,640.8135 426.4297,640.7588 Q426.5234,640.7041 426.6328,640.7041 Q426.8203,640.7041 426.9375,640.8369 Q427.0547,640.9619 427.0547,641.2666 L427.0547,641.9932 Q427.0547,642.2979 426.9375,642.4307 Q426.8203,642.5635 426.6328,642.5635 Q426.4609,642.5635 426.3594,642.4619 Q426.2578,642.3682 426.2031,642.1104 Q426.1797,641.9307 426.0859,641.8369 Q425.9219,641.6494 425.6172,641.54 Q425.3125,641.4307 425,641.4307 Q424.6172,641.4307 424.2969,641.5947 Q423.9844,641.7588 423.7344,642.1338 Q423.4922,642.5088 423.4922,643.0244 L423.4922,643.5713 Q423.4922,644.1885 423.9375,644.6025 Q424.3828,645.0088 425.1797,645.0088 Q425.6484,645.0088 425.9766,644.8838 Q426.1719,644.8057 426.3828,644.5869 Q426.5156,644.4541 426.5859,644.415 Q426.6641,644.376 426.7656,644.376 Q426.9297,644.376 427.0547,644.5088 Q427.1875,644.6338 427.1875,644.8057 Q427.1875,644.9775 427.0156,645.1807 Q426.7656,645.4697 426.3672,645.6338 Q425.8281,645.8604 425.1797,645.8604 Q424.4219,645.8604 423.8203,645.5479 Q423.3281,645.2979 422.9844,644.7666 Q422.6406,644.2275 422.6406,643.5869 L422.6406,643.0088 Q422.6406,642.3447 422.9453,641.7744 Q423.2578,641.1963 423.8047,640.8916 Q424.3516,640.5791 424.9688,640.5791 Q425.3359,640.5791 425.6563,640.665 Q425.9844,640.7432 426.2578,640.9229 Z " fill="#000000"/><text fill="#000000" font-family="sans-serif" font-size="9" lengthAdjust="spacing" textLength="81" x="436.125" y="646.7119">CreatePostItHandler</text><line style="stroke:#181818;stroke-width:0.25;" x1="351.5" x2="585.5" y1="652.4707" y2="652.4707"/><line style="stroke:#181818;stroke-width:0.25;" x1="351.5" x2="585.5" y1="656.4707" y2="656.4707"/><text fill="#000000" font-family="sans-serif" font-size="9" lengthAdjust="spacing" textLength="24.5" x="355" y="669.1826">+run()</text><text fill="#000000" font-family="sans-serif" font-size="9" lengthAdjust="spacing" textLength="227" x="355" y="683.1533">-checkIfCellIsOccupied(Board board, String alterPosition)</text><text fill="#000000" font-family="sans-serif" font-size="9" lengthAdjust="spacing" textLength="73" x="355" y="697.124">-getStringBuilder()</text><text fill="#000000" font-family="sans-serif" font-size="9" lengthAdjust="spacing" textLength="167.5" x="355" y="711.0947">-checkIfAllCellsAreOccupied(Board board)</text></g><!--class SBProtocol--><g id="elem_SBProtocol"><rect codeLine="37" fill="#F1F1F1" height="82.8535" id="SBProtocol" rx="1.25" ry="1.25" style="stroke:#181818;stroke-width:0.25;" width="149" x="394" y="409.5"/><ellipse cx="442.875" cy="418.9854" fill="#ADD1B2" rx="5.5" ry="5.5" style="stroke:#181818;stroke-width:0.5;"/><path d="M444.2578,416.9229 Q444.3359,416.8135 444.4297,416.7588 Q444.5234,416.7041 444.6328,416.7041 Q444.8203,416.7041 444.9375,416.8369 Q445.0547,416.9619 445.0547,417.2666 L445.0547,417.9932 Q445.0547,418.2979 444.9375,418.4307 Q444.8203,418.5635 444.6328,418.5635 Q444.4609,418.5635 444.3594,418.4619 Q444.2578,418.3682 444.2031,418.1104 Q444.1797,417.9307 444.0859,417.8369 Q443.9219,417.6494 443.6172,417.54 Q443.3125,417.4307 443,417.4307 Q442.6172,417.4307 442.2969,417.5947 Q441.9844,417.7588 441.7344,418.1338 Q441.4922,418.5088 441.4922,419.0244 L441.4922,419.5713 Q441.4922,420.1885 441.9375,420.6025 Q442.3828,421.0088 443.1797,421.0088 Q443.6484,421.0088 443.9766,420.8838 Q444.1719,420.8057 444.3828,420.5869 Q444.5156,420.4541 444.5859,420.415 Q444.6641,420.376 444.7656,420.376 Q444.9297,420.376 445.0547,420.5088 Q445.1875,420.6338 445.1875,420.8057 Q445.1875,420.9775 445.0156,421.1807 Q444.7656,421.4697 444.3672,421.6338 Q443.8281,421.8604 443.1797,421.8604 Q442.4219,421.8604 441.8203,421.5479 Q441.3281,421.2979 440.9844,420.7666 Q440.6406,420.2275 440.6406,419.5869 L440.6406,419.0088 Q440.6406,418.3447 440.9453,417.7744 Q441.2578,417.1963 441.8047,416.8916 Q442.3516,416.5791 442.9688,416.5791 Q443.3359,416.5791 443.6563,416.665 Q443.9844,416.7432 444.2578,416.9229 Z " fill="#000000"/><text fill="#000000" font-family="sans-serif" font-size="9" lengthAdjust="spacing" textLength="45" x="454.125" y="422.7119">SBProtocol</text><line style="stroke:#181818;stroke-width:0.25;" x1="394.5" x2="542.5" y1="428.4707" y2="428.4707"/><line style="stroke:#181818;stroke-width:0.25;" x1="394.5" x2="542.5" y1="432.4707" y2="432.4707"/><text fill="#000000" font-family="sans-serif" font-size="9" lengthAdjust="spacing" textLength="76.5" x="398" y="445.1826">+setCode(int code)</text><text fill="#000000" font-family="sans-serif" font-size="9" lengthAdjust="spacing" textLength="141" x="398" y="459.1533">+setContentFromString(String cStr)</text><text fill="#000000" font-family="sans-serif" font-size="9" lengthAdjust="spacing" textLength="120.5" x="398" y="473.124">+send(DataOutputStream out)</text><text fill="#000000" font-family="sans-serif" font-size="9" lengthAdjust="spacing" textLength="89" x="398" y="487.0947">+getContentAsString()</text></g><!--class MenuRequest--><g id="elem_MenuRequest"><rect codeLine="45" fill="#F1F1F1" height="40.9414" id="MenuRequest" rx="1.25" ry="1.25" style="stroke:#181818;stroke-width:0.25;" width="74" x="495" y="542.5"/><ellipse cx="502.5" cy="551.9854" fill="#ADD1B2" rx="5.5" ry="5.5" style="stroke:#181818;stroke-width:0.5;"/><path d="M503.8828,549.9229 Q503.9609,549.8135 504.0547,549.7588 Q504.1484,549.7041 504.2578,549.7041 Q504.4453,549.7041 504.5625,549.8369 Q504.6797,549.9619 504.6797,550.2666 L504.6797,550.9932 Q504.6797,551.2979 504.5625,551.4307 Q504.4453,551.5635 504.2578,551.5635 Q504.0859,551.5635 503.9844,551.4619 Q503.8828,551.3682 503.8281,551.1104 Q503.8047,550.9307 503.7109,550.8369 Q503.5469,550.6494 503.2422,550.54 Q502.9375,550.4307 502.625,550.4307 Q502.2422,550.4307 501.9219,550.5947 Q501.6094,550.7588 501.3594,551.1338 Q501.1172,551.5088 501.1172,552.0244 L501.1172,552.5713 Q501.1172,553.1885 501.5625,553.6025 Q502.0078,554.0088 502.8047,554.0088 Q503.2734,554.0088 503.6016,553.8838 Q503.7969,553.8057 504.0078,553.5869 Q504.1406,553.4541 504.2109,553.415 Q504.2891,553.376 504.3906,553.376 Q504.5547,553.376 504.6797,553.5088 Q504.8125,553.6338 504.8125,553.8057 Q504.8125,553.9775 504.6406,554.1807 Q504.3906,554.4697 503.9922,554.6338 Q503.4531,554.8604 502.8047,554.8604 Q502.0469,554.8604 501.4453,554.5479 Q500.9531,554.2979 500.6094,553.7666 Q500.2656,553.2275 500.2656,552.5869 L500.2656,552.0088 Q500.2656,551.3447 500.5703,550.7744 Q500.8828,550.1963 501.4297,549.8916 Q501.9766,549.5791 502.5938,549.5791 Q502.9609,549.5791 503.2813,549.665 Q503.6094,549.7432 503.8828,549.9229 Z " fill="#000000"/><text fill="#000000" font-family="sans-serif" font-size="9" lengthAdjust="spacing" textLength="56" x="510.5" y="555.7119">MenuRequest</text><line style="stroke:#181818;stroke-width:0.25;" x1="495.5" x2="568.5" y1="561.4707" y2="561.4707"/><line style="stroke:#181818;stroke-width:0.25;" x1="495.5" x2="568.5" y1="565.4707" y2="565.4707"/><text fill="#000000" font-family="sans-serif" font-size="9" lengthAdjust="spacing" textLength="24.5" x="499" y="578.1826">+run()</text></g><!--class SBPServerApp--><g id="elem_SBPServerApp"><rect codeLine="50" fill="#F1F1F1" height="54.9121" id="SBPServerApp" rx="1.25" ry="1.25" style="stroke:#181818;stroke-width:0.25;" width="165.5" x="701.75" y="423.5"/><ellipse cx="751.375" cy="432.9854" fill="#ADD1B2" rx="5.5" ry="5.5" style="stroke:#181818;stroke-width:0.5;"/><path d="M752.7578,430.9229 Q752.8359,430.8135 752.9297,430.7588 Q753.0234,430.7041 753.1328,430.7041 Q753.3203,430.7041 753.4375,430.8369 Q753.5547,430.9619 753.5547,431.2666 L753.5547,431.9932 Q753.5547,432.2979 753.4375,432.4307 Q753.3203,432.5635 753.1328,432.5635 Q752.9609,432.5635 752.8594,432.4619 Q752.7578,432.3682 752.7031,432.1104 Q752.6797,431.9307 752.5859,431.8369 Q752.4219,431.6494 752.1172,431.54 Q751.8125,431.4307 751.5,431.4307 Q751.1172,431.4307 750.7969,431.5947 Q750.4844,431.7588 750.2344,432.1338 Q749.9922,432.5088 749.9922,433.0244 L749.9922,433.5713 Q749.9922,434.1885 750.4375,434.6025 Q750.8828,435.0088 751.6797,435.0088 Q752.1484,435.0088 752.4766,434.8838 Q752.6719,434.8057 752.8828,434.5869 Q753.0156,434.4541 753.0859,434.415 Q753.1641,434.376 753.2656,434.376 Q753.4297,434.376 753.5547,434.5088 Q753.6875,434.6338 753.6875,434.8057 Q753.6875,434.9775 753.5156,435.1807 Q753.2656,435.4697 752.8672,435.6338 Q752.3281,435.8604 751.6797,435.8604 Q750.9219,435.8604 750.3203,435.5479 Q749.8281,435.2979 749.4844,434.7666 Q749.1406,434.2275 749.1406,433.5869 L749.1406,433.0088 Q749.1406,432.3447 749.4453,431.7744 Q749.7578,431.1963 750.3047,430.8916 Q750.8516,430.5791 751.4688,430.5791 Q751.8359,430.5791 752.1563,430.665 Q752.4844,430.7432 752.7578,430.9229 Z " fill="#000000"/><text fill="#000000" font-family="sans-serif" font-size="9" lengthAdjust="spacing" textLength="60" x="762.625" y="436.7119">SBPServerApp</text><line style="stroke:#181818;stroke-width:0.25;" x1="702.25" x2="866.75" y1="442.4707" y2="442.4707"/><text fill="#000000" font-family="sans-serif" font-size="9" lengthAdjust="spacing" text-decoration="underline" textLength="157.5" x="705.75" y="455.1826">+Map&lt;InetAddress, Client&gt; activeAuths</text><text fill="#000000" font-family="sans-serif" font-size="9" lengthAdjust="spacing" text-decoration="underline" textLength="134.5" x="705.75" y="469.1533">+Map&lt;BoardTitle, Board&gt; boards</text><line style="stroke:#181818;stroke-width:0.25;" x1="702.25" x2="866.75" y1="474.4121" y2="474.4121"/></g><!--class SBPClientAPP--><g id="elem_SBPClientAPP"><rect codeLine="56" fill="#F1F1F1" height="26.9707" id="SBPClientAPP" rx="1.25" ry="1.25" style="stroke:#181818;stroke-width:0.25;" width="76.5" x="430.25" y="3.5"/><ellipse cx="437.75" cy="12.9854" fill="#ADD1B2" rx="5.5" ry="5.5" style="stroke:#181818;stroke-width:0.5;"/><path d="M439.1328,10.9229 Q439.2109,10.8135 439.3047,10.7588 Q439.3984,10.7041 439.5078,10.7041 Q439.6953,10.7041 439.8125,10.8369 Q439.9297,10.9619 439.9297,11.2666 L439.9297,11.9932 Q439.9297,12.2979 439.8125,12.4307 Q439.6953,12.5635 439.5078,12.5635 Q439.3359,12.5635 439.2344,12.4619 Q439.1328,12.3682 439.0781,12.1104 Q439.0547,11.9307 438.9609,11.8369 Q438.7969,11.6494 438.4922,11.54 Q438.1875,11.4307 437.875,11.4307 Q437.4922,11.4307 437.1719,11.5947 Q436.8594,11.7588 436.6094,12.1338 Q436.3672,12.5088 436.3672,13.0244 L436.3672,13.5713 Q436.3672,14.1885 436.8125,14.6025 Q437.2578,15.0088 438.0547,15.0088 Q438.5234,15.0088 438.8516,14.8838 Q439.0469,14.8057 439.2578,14.5869 Q439.3906,14.4541 439.4609,14.415 Q439.5391,14.376 439.6406,14.376 Q439.8047,14.376 439.9297,14.5088 Q440.0625,14.6338 440.0625,14.8057 Q440.0625,14.9775 439.8906,15.1807 Q439.6406,15.4697 439.2422,15.6338 Q438.7031,15.8604 438.0547,15.8604 Q437.2969,15.8604 436.6953,15.5479 Q436.2031,15.2979 435.8594,14.7666 Q435.5156,14.2275 435.5156,13.5869 L435.5156,13.0088 Q435.5156,12.3447 435.8203,11.7744 Q436.1328,11.1963 436.6797,10.8916 Q437.2266,10.5791 437.8438,10.5791 Q438.2109,10.5791 438.5313,10.665 Q438.8594,10.7432 439.1328,10.9229 Z " fill="#000000"/><text fill="#000000" font-family="sans-serif" font-size="9" lengthAdjust="spacing" textLength="58.5" x="445.75" y="16.7119">SBPClientAPP</text><line style="stroke:#181818;stroke-width:0.25;" x1="430.75" x2="506.25" y1="22.4707" y2="22.4707"/><line style="stroke:#181818;stroke-width:0.25;" x1="430.75" x2="506.25" y1="26.4707" y2="26.4707"/></g><!--class CreatePostIt--><g id="elem_CreatePostIt"><rect codeLine="61" fill="#F1F1F1" height="40.9414" id="CreatePostIt" rx="1.25" ry="1.25" style="stroke:#181818;stroke-width:0.25;" width="109" x="649" y="766.5"/><ellipse cx="675.625" cy="775.9854" fill="#ADD1B2" rx="5.5" ry="5.5" style="stroke:#181818;stroke-width:0.5;"/><path d="M677.0078,773.9229 Q677.0859,773.8135 677.1797,773.7588 Q677.2734,773.7041 677.3828,773.7041 Q677.5703,773.7041 677.6875,773.8369 Q677.8047,773.9619 677.8047,774.2666 L677.8047,774.9932 Q677.8047,775.2979 677.6875,775.4307 Q677.5703,775.5635 677.3828,775.5635 Q677.2109,775.5635 677.1094,775.4619 Q677.0078,775.3682 676.9531,775.1104 Q676.9297,774.9307 676.8359,774.8369 Q676.6719,774.6494 676.3672,774.54 Q676.0625,774.4307 675.75,774.4307 Q675.3672,774.4307 675.0469,774.5947 Q674.7344,774.7588 674.4844,775.1338 Q674.2422,775.5088 674.2422,776.0244 L674.2422,776.5713 Q674.2422,777.1885 674.6875,777.6025 Q675.1328,778.0088 675.9297,778.0088 Q676.3984,778.0088 676.7266,777.8838 Q676.9219,777.8057 677.1328,777.5869 Q677.2656,777.4541 677.3359,777.415 Q677.4141,777.376 677.5156,777.376 Q677.6797,777.376 677.8047,777.5088 Q677.9375,777.6338 677.9375,777.8057 Q677.9375,777.9775 677.7656,778.1807 Q677.5156,778.4697 677.1172,778.6338 Q676.5781,778.8604 675.9297,778.8604 Q675.1719,778.8604 674.5703,778.5479 Q674.0781,778.2979 673.7344,777.7666 Q673.3906,777.2275 673.3906,776.5869 L673.3906,776.0088 Q673.3906,775.3447 673.6953,774.7744 Q674.0078,774.1963 674.5547,773.8916 Q675.1016,773.5791 675.7188,773.5791 Q676.0859,773.5791 676.4063,773.665 Q676.7344,773.7432 677.0078,773.9229 Z " fill="#000000"/><text fill="#000000" font-family="sans-serif" font-size="9" lengthAdjust="spacing" textLength="49.5" x="686.875" y="779.7119">CreatePostIt</text><line style="stroke:#181818;stroke-width:0.25;" x1="649.5" x2="757.5" y1="785.4707" y2="785.4707"/><line style="stroke:#181818;stroke-width:0.25;" x1="649.5" x2="757.5" y1="789.4707" y2="789.4707"/><text fill="#000000" font-family="sans-serif" font-size="9" lengthAdjust="spacing" textLength="101" x="653" y="802.1826">+parseStr(String content)</text></g><!--class Client--><g id="elem_Client"><rect codeLine="66" fill="#F1F1F1" height="40.9414" id="Client" rx="1.25" ry="1.25" style="stroke:#181818;stroke-width:0.25;" width="88" x="3.5" y="766.5"/><ellipse cx="32.875" cy="775.9854" fill="#ADD1B2" rx="5.5" ry="5.5" style="stroke:#181818;stroke-width:0.5;"/><path d="M34.2578,773.9229 Q34.3359,773.8135 34.4297,773.7588 Q34.5234,773.7041 34.6328,773.7041 Q34.8203,773.7041 34.9375,773.8369 Q35.0547,773.9619 35.0547,774.2666 L35.0547,774.9932 Q35.0547,775.2979 34.9375,775.4307 Q34.8203,775.5635 34.6328,775.5635 Q34.4609,775.5635 34.3594,775.4619 Q34.2578,775.3682 34.2031,775.1104 Q34.1797,774.9307 34.0859,774.8369 Q33.9219,774.6494 33.6172,774.54 Q33.3125,774.4307 33,774.4307 Q32.6172,774.4307 32.2969,774.5947 Q31.9844,774.7588 31.7344,775.1338 Q31.4922,775.5088 31.4922,776.0244 L31.4922,776.5713 Q31.4922,777.1885 31.9375,777.6025 Q32.3828,778.0088 33.1797,778.0088 Q33.6484,778.0088 33.9766,777.8838 Q34.1719,777.8057 34.3828,777.5869 Q34.5156,777.4541 34.5859,777.415 Q34.6641,777.376 34.7656,777.376 Q34.9297,777.376 35.0547,777.5088 Q35.1875,777.6338 35.1875,777.8057 Q35.1875,777.9775 35.0156,778.1807 Q34.7656,778.4697 34.3672,778.6338 Q33.8281,778.8604 33.1797,778.8604 Q32.4219,778.8604 31.8203,778.5479 Q31.3281,778.2979 30.9844,777.7666 Q30.6406,777.2275 30.6406,776.5869 L30.6406,776.0088 Q30.6406,775.3447 30.9453,774.7744 Q31.2578,774.1963 31.8047,773.8916 Q32.3516,773.5791 32.9688,773.5791 Q33.3359,773.5791 33.6563,773.665 Q33.9844,773.7432 34.2578,773.9229 Z " fill="#000000"/><text fill="#000000" font-family="sans-serif" font-size="9" lengthAdjust="spacing" textLength="23" x="44.125" y="779.7119">Client</text><line style="stroke:#181818;stroke-width:0.25;" x1="4" x2="91" y1="785.4707" y2="785.4707"/><line style="stroke:#181818;stroke-width:0.25;" x1="4" x2="91" y1="789.4707" y2="789.4707"/><text fill="#000000" font-family="sans-serif" font-size="9" lengthAdjust="spacing" textLength="80" x="7.5" y="802.1826">+getUserLoggedIn()</text></g><!--class BoardService--><g id="elem_BoardService"><rect codeLine="72" fill="#F1F1F1" height="40.9414" id="BoardService" rx="1.25" ry="1.25" style="stroke:#181818;stroke-width:0.25;" width="179" x="109" y="766.5"/><ellipse cx="168.375" cy="775.9854" fill="#ADD1B2" rx="5.5" ry="5.5" style="stroke:#181818;stroke-width:0.5;"/><path d="M169.7578,773.9229 Q169.8359,773.8135 169.9297,773.7588 Q170.0234,773.7041 170.1328,773.7041 Q170.3203,773.7041 170.4375,773.8369 Q170.5547,773.9619 170.5547,774.2666 L170.5547,774.9932 Q170.5547,775.2979 170.4375,775.4307 Q170.3203,775.5635 170.1328,775.5635 Q169.9609,775.5635 169.8594,775.4619 Q169.7578,775.3682 169.7031,775.1104 Q169.6797,774.9307 169.5859,774.8369 Q169.4219,774.6494 169.1172,774.54 Q168.8125,774.4307 168.5,774.4307 Q168.1172,774.4307 167.7969,774.5947 Q167.4844,774.7588 167.2344,775.1338 Q166.9922,775.5088 166.9922,776.0244 L166.9922,776.5713 Q166.9922,777.1885 167.4375,777.6025 Q167.8828,778.0088 168.6797,778.0088 Q169.1484,778.0088 169.4766,777.8838 Q169.6719,777.8057 169.8828,777.5869 Q170.0156,777.4541 170.0859,777.415 Q170.1641,777.376 170.2656,777.376 Q170.4297,777.376 170.5547,777.5088 Q170.6875,777.6338 170.6875,777.8057 Q170.6875,777.9775 170.5156,778.1807 Q170.2656,778.4697 169.8672,778.6338 Q169.3281,778.8604 168.6797,778.8604 Q167.9219,778.8604 167.3203,778.5479 Q166.8281,778.2979 166.4844,777.7666 Q166.1406,777.2275 166.1406,776.5869 L166.1406,776.0088 Q166.1406,775.3447 166.4453,774.7744 Q166.7578,774.1963 167.3047,773.8916 Q167.8516,773.5791 168.4688,773.5791 Q168.8359,773.5791 169.1563,773.665 Q169.4844,773.7432 169.7578,773.9229 Z " fill="#000000"/><text fill="#000000" font-family="sans-serif" font-size="9" lengthAdjust="spacing" textLength="54" x="179.625" y="779.7119">BoardService</text><line style="stroke:#181818;stroke-width:0.25;" x1="109.5" x2="287.5" y1="785.4707" y2="785.4707"/><line style="stroke:#181818;stroke-width:0.25;" x1="109.5" x2="287.5" y1="789.4707" y2="789.4707"/><text fill="#000000" font-family="sans-serif" font-size="9" lengthAdjust="spacing" textLength="171" x="113" y="802.1826">+boardsUserCanWrite(SystemUser owner)</text></g><!--class MainMenu--><g id="elem_MainMenu"><rect codeLine="77" fill="#F1F1F1" height="40.9414" id="MainMenu" rx="1.25" ry="1.25" style="stroke:#181818;stroke-width:0.25;" width="78" x="429.5" y="80.5"/><ellipse cx="445.1" cy="89.9854" fill="#ADD1B2" rx="5.5" ry="5.5" style="stroke:#181818;stroke-width:0.5;"/><path d="M446.4828,87.9229 Q446.5609,87.8135 446.6547,87.7588 Q446.7484,87.7041 446.8578,87.7041 Q447.0453,87.7041 447.1625,87.8369 Q447.2797,87.9619 447.2797,88.2666 L447.2797,88.9932 Q447.2797,89.2979 447.1625,89.4307 Q447.0453,89.5635 446.8578,89.5635 Q446.6859,89.5635 446.5844,89.4619 Q446.4828,89.3682 446.4281,89.1104 Q446.4047,88.9307 446.3109,88.8369 Q446.1469,88.6494 445.8422,88.54 Q445.5375,88.4307 445.225,88.4307 Q444.8422,88.4307 444.5219,88.5947 Q444.2094,88.7588 443.9594,89.1338 Q443.7172,89.5088 443.7172,90.0244 L443.7172,90.5713 Q443.7172,91.1885 444.1625,91.6025 Q444.6078,92.0088 445.4047,92.0088 Q445.8734,92.0088 446.2016,91.8838 Q446.3969,91.8057 446.6078,91.5869 Q446.7406,91.4541 446.8109,91.415 Q446.8891,91.376 446.9906,91.376 Q447.1547,91.376 447.2797,91.5088 Q447.4125,91.6338 447.4125,91.8057 Q447.4125,91.9775 447.2406,92.1807 Q446.9906,92.4697 446.5922,92.6338 Q446.0531,92.8604 445.4047,92.8604 Q444.6469,92.8604 444.0453,92.5479 Q443.5531,92.2979 443.2094,91.7666 Q442.8656,91.2275 442.8656,90.5869 L442.8656,90.0088 Q442.8656,89.3447 443.1703,88.7744 Q443.4828,88.1963 444.0297,87.8916 Q444.5766,87.5791 445.1938,87.5791 Q445.5609,87.5791 445.8813,87.665 Q446.2094,87.7432 446.4828,87.9229 Z " fill="#000000"/><text fill="#000000" font-family="sans-serif" font-size="9" lengthAdjust="spacing" textLength="42" x="454.9" y="93.7119">MainMenu</text><line style="stroke:#181818;stroke-width:0.25;" x1="430" x2="507" y1="99.4707" y2="99.4707"/><line style="stroke:#181818;stroke-width:0.25;" x1="430" x2="507" y1="103.4707" y2="103.4707"/><text fill="#000000" font-family="sans-serif" font-size="9" lengthAdjust="spacing" textLength="70" x="433.5" y="116.1826">-buildMainMenu()</text></g><!--class PostItService--><g id="elem_PostItService"><rect codeLine="82" fill="#F1F1F1" height="40.9414" id="PostItService" rx="1.25" ry="1.25" style="stroke:#181818;stroke-width:0.25;" width="325.5" x="305.75" y="766.5"/><ellipse cx="439.125" cy="775.9854" fill="#ADD1B2" rx="5.5" ry="5.5" style="stroke:#181818;stroke-width:0.5;"/><path d="M440.5078,773.9229 Q440.5859,773.8135 440.6797,773.7588 Q440.7734,773.7041 440.8828,773.7041 Q441.0703,773.7041 441.1875,773.8369 Q441.3047,773.9619 441.3047,774.2666 L441.3047,774.9932 Q441.3047,775.2979 441.1875,775.4307 Q441.0703,775.5635 440.8828,775.5635 Q440.7109,775.5635 440.6094,775.4619 Q440.5078,775.3682 440.4531,775.1104 Q440.4297,774.9307 440.3359,774.8369 Q440.1719,774.6494 439.8672,774.54 Q439.5625,774.4307 439.25,774.4307 Q438.8672,774.4307 438.5469,774.5947 Q438.2344,774.7588 437.9844,775.1338 Q437.7422,775.5088 437.7422,776.0244 L437.7422,776.5713 Q437.7422,777.1885 438.1875,777.6025 Q438.6328,778.0088 439.4297,778.0088 Q439.8984,778.0088 440.2266,777.8838 Q440.4219,777.8057 440.6328,777.5869 Q440.7656,777.4541 440.8359,777.415 Q440.9141,777.376 441.0156,777.376 Q441.1797,777.376 441.3047,777.5088 Q441.4375,777.6338 441.4375,777.8057 Q441.4375,777.9775 441.2656,778.1807 Q441.0156,778.4697 440.6172,778.6338 Q440.0781,778.8604 439.4297,778.8604 Q438.6719,778.8604 438.0703,778.5479 Q437.5781,778.2979 437.2344,777.7666 Q436.8906,777.2275 436.8906,776.5869 L436.8906,776.0088 Q436.8906,775.3447 437.1953,774.7744 Q437.5078,774.1963 438.0547,773.8916 Q438.6016,773.5791 439.2188,773.5791 Q439.5859,773.5791 439.9063,773.665 Q440.2344,773.7432 440.5078,773.9229 Z " fill="#000000"/><text fill="#000000" font-family="sans-serif" font-size="9" lengthAdjust="spacing" textLength="52.5" x="450.375" y="779.7119">PostItService</text><line style="stroke:#181818;stroke-width:0.25;" x1="306.25" x2="630.75" y1="785.4707" y2="785.4707"/><line style="stroke:#181818;stroke-width:0.25;" x1="306.25" x2="630.75" y1="789.4707" y2="789.4707"/><text fill="#000000" font-family="sans-serif" font-size="9" lengthAdjust="spacing" textLength="317.5" x="309.75" y="802.1826">+createPostIt(Board board, int row, int col, String text, SystemUser postItOwner)</text></g><!--class Board--><g id="elem_Board"><rect codeLine="87" fill="#F1F1F1" height="40.9414" id="Board" rx="1.25" ry="1.25" style="stroke:#181818;stroke-width:0.25;" width="119.5" x="498.75" y="857.5"/><ellipse cx="543.375" cy="866.9854" fill="#ADD1B2" rx="5.5" ry="5.5" style="stroke:#181818;stroke-width:0.5;"/><path d="M544.7578,864.9229 Q544.8359,864.8135 544.9297,864.7588 Q545.0234,864.7041 545.1328,864.7041 Q545.3203,864.7041 545.4375,864.8369 Q545.5547,864.9619 545.5547,865.2666 L545.5547,865.9932 Q545.5547,866.2979 545.4375,866.4307 Q545.3203,866.5635 545.1328,866.5635 Q544.9609,866.5635 544.8594,866.4619 Q544.7578,866.3682 544.7031,866.1104 Q544.6797,865.9307 544.5859,865.8369 Q544.4219,865.6494 544.1172,865.54 Q543.8125,865.4307 543.5,865.4307 Q543.1172,865.4307 542.7969,865.5947 Q542.4844,865.7588 542.2344,866.1338 Q541.9922,866.5088 541.9922,867.0244 L541.9922,867.5713 Q541.9922,868.1885 542.4375,868.6025 Q542.8828,869.0088 543.6797,869.0088 Q544.1484,869.0088 544.4766,868.8838 Q544.6719,868.8057 544.8828,868.5869 Q545.0156,868.4541 545.0859,868.415 Q545.1641,868.376 545.2656,868.376 Q545.4297,868.376 545.5547,868.5088 Q545.6875,868.6338 545.6875,868.8057 Q545.6875,868.9775 545.5156,869.1807 Q545.2656,869.4697 544.8672,869.6338 Q544.3281,869.8604 543.6797,869.8604 Q542.9219,869.8604 542.3203,869.5479 Q541.8281,869.2979 541.4844,868.7666 Q541.1406,868.2275 541.1406,867.5869 L541.1406,867.0088 Q541.1406,866.3447 541.4453,865.7744 Q541.7578,865.1963 542.3047,864.8916 Q542.8516,864.5791 543.4688,864.5791 Q543.8359,864.5791 544.1563,864.665 Q544.4844,864.7432 544.7578,864.9229 Z " fill="#000000"/><text fill="#000000" font-family="sans-serif" font-size="9" lengthAdjust="spacing" textLength="24" x="554.625" y="870.7119">Board</text><line style="stroke:#181818;stroke-width:0.25;" x1="499.25" x2="617.75" y1="876.4707" y2="876.4707"/><line style="stroke:#181818;stroke-width:0.25;" x1="499.25" x2="617.75" y1="880.4707" y2="880.4707"/><text fill="#000000" font-family="sans-serif" font-size="9" lengthAdjust="spacing" textLength="111.5" x="502.75" y="893.1826">+getCell(int row, int column)</text></g><!--class Cell--><g id="elem_Cell"><rect codeLine="92" fill="#F1F1F1" height="40.9414" id="Cell" rx="1.25" ry="1.25" style="stroke:#181818;stroke-width:0.25;" width="103.5" x="506.75" y="948.5"/><ellipse cx="547.625" cy="957.9854" fill="#ADD1B2" rx="5.5" ry="5.5" style="stroke:#181818;stroke-width:0.5;"/><path d="M549.0078,955.9229 Q549.0859,955.8135 549.1797,955.7588 Q549.2734,955.7041 549.3828,955.7041 Q549.5703,955.7041 549.6875,955.8369 Q549.8047,955.9619 549.8047,956.2666 L549.8047,956.9932 Q549.8047,957.2979 549.6875,957.4307 Q549.5703,957.5635 549.3828,957.5635 Q549.2109,957.5635 549.1094,957.4619 Q549.0078,957.3682 548.9531,957.1104 Q548.9297,956.9307 548.8359,956.8369 Q548.6719,956.6494 548.3672,956.54 Q548.0625,956.4307 547.75,956.4307 Q547.3672,956.4307 547.0469,956.5947 Q546.7344,956.7588 546.4844,957.1338 Q546.2422,957.5088 546.2422,958.0244 L546.2422,958.5713 Q546.2422,959.1885 546.6875,959.6025 Q547.1328,960.0088 547.9297,960.0088 Q548.3984,960.0088 548.7266,959.8838 Q548.9219,959.8057 549.1328,959.5869 Q549.2656,959.4541 549.3359,959.415 Q549.4141,959.376 549.5156,959.376 Q549.6797,959.376 549.8047,959.5088 Q549.9375,959.6338 549.9375,959.8057 Q549.9375,959.9775 549.7656,960.1807 Q549.5156,960.4697 549.1172,960.6338 Q548.5781,960.8604 547.9297,960.8604 Q547.1719,960.8604 546.5703,960.5479 Q546.0781,960.2979 545.7344,959.7666 Q545.3906,959.2275 545.3906,958.5869 L545.3906,958.0088 Q545.3906,957.3447 545.6953,956.7744 Q546.0078,956.1963 546.5547,955.8916 Q547.1016,955.5791 547.7188,955.5791 Q548.0859,955.5791 548.4063,955.665 Q548.7344,955.7432 549.0078,955.9229 Z " fill="#000000"/><text fill="#000000" font-family="sans-serif" font-size="9" lengthAdjust="spacing" textLength="15.5" x="558.875" y="961.7119">Cell</text><line style="stroke:#181818;stroke-width:0.25;" x1="507.25" x2="609.75" y1="967.4707" y2="967.4707"/><line style="stroke:#181818;stroke-width:0.25;" x1="507.25" x2="609.75" y1="971.4707" y2="971.4707"/><text fill="#000000" font-family="sans-serif" font-size="9" lengthAdjust="spacing" textLength="95.5" x="510.75" y="984.1826">+addPostIt(PostIt postIt)</text></g><!--class PostIt--><g id="elem_PostIt"><rect codeLine="97" fill="#F1F1F1" height="26.9707" id="PostIt" rx="1.25" ry="1.25" style="stroke:#181818;stroke-width:0.25;" width="40.5" x="538.25" y="1039.5"/><ellipse cx="545.75" cy="1048.9854" fill="#ADD1B2" rx="5.5" ry="5.5" style="stroke:#181818;stroke-width:0.5;"/><path d="M547.1328,1046.9229 Q547.2109,1046.8135 547.3047,1046.7588 Q547.3984,1046.7041 547.5078,1046.7041 Q547.6953,1046.7041 547.8125,1046.8369 Q547.9297,1046.9619 547.9297,1047.2666 L547.9297,1047.9932 Q547.9297,1048.2979 547.8125,1048.4307 Q547.6953,1048.5635 547.5078,1048.5635 Q547.3359,1048.5635 547.2344,1048.4619 Q547.1328,1048.3682 547.0781,1048.1104 Q547.0547,1047.9307 546.9609,1047.8369 Q546.7969,1047.6494 546.4922,1047.54 Q546.1875,1047.4307 545.875,1047.4307 Q545.4922,1047.4307 545.1719,1047.5947 Q544.8594,1047.7588 544.6094,1048.1338 Q544.3672,1048.5088 544.3672,1049.0244 L544.3672,1049.5713 Q544.3672,1050.1885 544.8125,1050.6025 Q545.2578,1051.0088 546.0547,1051.0088 Q546.5234,1051.0088 546.8516,1050.8838 Q547.0469,1050.8057 547.2578,1050.5869 Q547.3906,1050.4541 547.4609,1050.415 Q547.5391,1050.376 547.6406,1050.376 Q547.8047,1050.376 547.9297,1050.5088 Q548.0625,1050.6338 548.0625,1050.8057 Q548.0625,1050.9775 547.8906,1051.1807 Q547.6406,1051.4697 547.2422,1051.6338 Q546.7031,1051.8604 546.0547,1051.8604 Q545.2969,1051.8604 544.6953,1051.5479 Q544.2031,1051.2979 543.8594,1050.7666 Q543.5156,1050.2275 543.5156,1049.5869 L543.5156,1049.0088 Q543.5156,1048.3447 543.8203,1047.7744 Q544.1328,1047.1963 544.6797,1046.8916 Q545.2266,1046.5791 545.8438,1046.5791 Q546.2109,1046.5791 546.5313,1046.665 Q546.8594,1046.7432 547.1328,1046.9229 Z " fill="#000000"/><text fill="#000000" font-family="sans-serif" font-size="9" lengthAdjust="spacing" textLength="22.5" x="553.75" y="1052.7119">PostIt</text><line style="stroke:#181818;stroke-width:0.25;" x1="538.75" x2="578.25" y1="1058.4707" y2="1058.4707"/><line style="stroke:#181818;stroke-width:0.25;" x1="538.75" x2="578.25" y1="1062.4707" y2="1062.4707"/></g><!--class BoardHistory--><g id="elem_BoardHistory"><rect codeLine="100" fill="#F1F1F1" height="26.9707" id="BoardHistory" rx="1.25" ry="1.25" style="stroke:#181818;stroke-width:0.25;" width="70.5" x="726.25" y="864.5"/><ellipse cx="733.75" cy="873.9854" fill="#A9DCDF" rx="5.5" ry="5.5" style="stroke:#181818;stroke-width:0.5;"/><path d="M734.8438,874.8682 L732.7734,874.8682 L732.5625,875.3838 L732.7734,875.3838 Q733.0781,875.3838 733.2109,875.501 Q733.3438,875.6182 733.3438,875.8135 Q733.3438,876.001 733.2109,876.1182 Q733.0781,876.2354 732.7734,876.2354 L731.625,876.2354 Q731.3203,876.2354 731.1953,876.1182 Q731.0625,876.001 731.0625,875.8057 Q731.0625,875.6182 731.2031,875.501 Q731.3359,875.376 731.6484,875.3838 L732.9844,872.0557 L732.4297,872.0557 Q732.125,872.0557 731.9922,871.9385 Q731.8594,871.8213 731.8594,871.626 Q731.8594,871.4385 731.9922,871.3213 Q732.125,871.2041 732.4297,871.2041 L734.2656,871.2041 L735.9609,875.3838 Q736.2578,875.3838 736.3516,875.4541 Q736.5469,875.5869 736.5469,875.8135 Q736.5469,876.001 736.4141,876.1182 Q736.2891,876.2354 735.9844,876.2354 L734.8359,876.2354 Q734.5313,876.2354 734.3984,876.1182 Q734.2656,876.001 734.2656,875.8057 Q734.2656,875.6182 734.3984,875.501 Q734.5313,875.3838 734.8359,875.3838 L735.0469,875.3838 L734.8438,874.8682 Z M734.4844,874.0166 L733.8047,872.3291 L733.1172,874.0166 L734.4844,874.0166 Z " fill="#000000"/><text fill="#000000" font-family="sans-serif" font-size="9" font-style="italic" lengthAdjust="spacing" textLength="52.5" x="741.75" y="877.7119">BoardHistory</text><line style="stroke:#181818;stroke-width:0.25;" x1="726.75" x2="796.25" y1="883.4707" y2="883.4707"/><line style="stroke:#181818;stroke-width:0.25;" x1="726.75" x2="796.25" y1="887.4707" y2="887.4707"/></g><!--link CreatePostIt to BoardHistory--><g id="link_CreatePostIt_BoardHistory"><path codeLine="111" d="M716.515,807.7 C725.78,822.075 738.215,841.365 747.66,856.025 " fill="none" id="CreatePostIt-to-BoardHistory" style="stroke:#181818;stroke-width:0.5;"/><polygon fill="none" points="750.625,854.165,753.1,864.465,744.74,857.955,750.625,854.165" style="stroke:#181818;stroke-width:0.5;"/></g><!--link CreatePostItUI to CreatePostItController--><g id="link_CreatePostItUI_CreatePostItController"><path codeLine="116" d="M468.5,212.515 C468.5,225.53 468.5,243.125 468.5,259.81 " fill="none" id="CreatePostItUI-to-CreatePostItController" style="stroke:#181818;stroke-width:0.5;"/><polygon fill="#181818" points="468.5,262.48,470.5,257.98,468.5,259.98,466.5,257.98,468.5,262.48" style="stroke:#181818;stroke-width:0.5;"/><text fill="#000000" font-family="sans-serif" font-size="6.5" lengthAdjust="spacing" textLength="3.5" x="463.7895" y="255.8897">1</text></g><!--link CreatePostItController to SBProtocol--><g id="link_CreatePostItController_SBProtocol"><path codeLine="117" d="M468.5,359.53 C468.5,374.885 468.5,391.79 468.5,406.82 " fill="none" id="CreatePostItController-to-SBProtocol" style="stroke:#181818;stroke-width:0.5;"/><polygon fill="#181818" points="468.5,409.41,470.5,404.91,468.5,406.91,466.5,404.91,468.5,409.41" style="stroke:#181818;stroke-width:0.5;"/><text fill="#000000" font-family="sans-serif" font-size="6.5" lengthAdjust="spacing" textLength="2.5" x="464.8066" y="402.9114">*</text></g><!--link CreatePostItHandler to SBProtocol--><g id="link_CreatePostItHandler_SBProtocol"><path codeLine="120" d="M468.5,633.34 C468.5,594.095 468.5,535.195 468.5,495.14 " fill="none" id="CreatePostItHandler-to-SBProtocol" style="stroke:#181818;stroke-width:0.5;"/><polygon fill="#181818" points="468.5,492.53,466.5,497.03,468.5,495.03,470.5,497.03,468.5,492.53" style="stroke:#181818;stroke-width:0.5;"/><text fill="#000000" font-family="sans-serif" font-size="6.5" lengthAdjust="spacing" textLength="2.5" x="464.8137" y="504.4302">*</text></g><!--link CreatePostItHandler to CreatePostIt--><g id="link_CreatePostItHandler_CreatePostIt"><path codeLine="123" d="M555.34,716.515 C590.51,733.13 629.62,751.605 658.82,765.395 " fill="none" id="CreatePostItHandler-to-CreatePostIt" style="stroke:#181818;stroke-width:0.5;"/><polygon fill="#181818" points="661.085,766.465,657.8632,762.7407,658.8225,765.4015,656.1617,766.3608,661.085,766.465" style="stroke:#181818;stroke-width:0.5;"/><text fill="#000000" font-family="sans-serif" font-size="6.5" lengthAdjust="spacing" textLength="3.5" x="649.3868" y="759.8859">1</text></g><!--link CreatePostItHandler to Client--><g id="link_CreatePostItHandler_Client"><path codeLine="124" d="M350.905,700.69 C278.04,717.245 182.865,740.59 100,766.5 C98.025,767.115 96.02,767.77 94,768.445 " fill="none" id="CreatePostItHandler-to-Client" style="stroke:#181818;stroke-width:0.5;"/><polygon fill="#181818" points="91.62,769.25,96.5244,769.6934,93.9867,768.4445,95.2356,765.9067,91.62,769.25" style="stroke:#181818;stroke-width:0.5;"/><text fill="#000000" font-family="sans-serif" font-size="6.5" lengthAdjust="spacing" textLength="3.5" x="96.5014" y="764.8679">1</text></g><!--link CreatePostItHandler to BoardService--><g id="link_CreatePostItHandler_BoardService"><path codeLine="125" d="M368.73,716.515 C328.24,733.16 283.205,751.675 249.63,765.48 " fill="none" id="CreatePostItHandler-to-BoardService" style="stroke:#181818;stroke-width:0.5;"/><polygon fill="#181818" points="247.235,766.465,252.1574,766.6063,249.5477,765.5156,250.6384,762.906,247.235,766.465" style="stroke:#181818;stroke-width:0.5;"/><text fill="#000000" font-family="sans-serif" font-size="6.5" lengthAdjust="spacing" textLength="3.5" x="250.0639" y="759.8859">1</text></g><!--link CreatePostItHandler to PostItService--><g id="link_CreatePostItHandler_PostItService"><path codeLine="126" d="M468.5,716.515 C468.5,732.495 468.5,750.2 468.5,763.8 " fill="none" id="CreatePostItHandler-to-PostItService" style="stroke:#181818;stroke-width:0.5;"/><polygon fill="#181818" points="468.5,766.465,470.5,761.965,468.5,763.965,466.5,761.965,468.5,766.465" style="stroke:#181818;stroke-width:0.5;"/><text fill="#000000" font-family="sans-serif" font-size="6.5" lengthAdjust="spacing" textLength="3.5" x="463.5617" y="759.8859">1</text></g><!--link SBPClientAPP to MainMenu--><g id="link_SBPClientAPP_MainMenu"><path codeLine="128" d="M468.5,30.65 C468.5,43.31 468.5,62.715 468.5,77.86 " fill="none" id="SBPClientAPP-to-MainMenu" style="stroke:#181818;stroke-width:0.5;"/><polygon fill="#181818" points="468.5,80.445,470.5,75.945,468.5,77.945,466.5,75.945,468.5,80.445" style="stroke:#181818;stroke-width:0.5;"/><text fill="#000000" font-family="sans-serif" font-size="6.5" lengthAdjust="spacing" textLength="3.5" x="463.5617" y="73.8628">1</text></g><!--link MainMenu to CreatePostItUI--><g id="link_MainMenu_CreatePostItUI"><path codeLine="129" d="M468.5,121.7 C468.5,135.65 468.5,154.23 468.5,168.715 " fill="none" id="MainMenu-to-CreatePostItUI" style="stroke:#181818;stroke-width:0.5;"/><polygon fill="#181818" points="468.5,171.37,470.5,166.87,468.5,168.87,466.5,166.87,468.5,171.37" style="stroke:#181818;stroke-width:0.5;"/><text fill="#000000" font-family="sans-serif" font-size="6.5" lengthAdjust="spacing" textLength="3.5" x="463.5789" y="164.9369">1</text></g><!--link SBPServerApp to MenuRequest--><g id="link_SBPServerApp_MenuRequest"><path codeLine="130" d="M723.055,478.51 C675.895,499.245 612.18,527.25 571.58,545.1 " fill="none" id="SBPServerApp-to-MenuRequest" style="stroke:#181818;stroke-width:0.5;"/><polygon fill="#181818" points="569.185,546.155,574.1094,546.1764,571.4739,545.1496,572.5007,542.5141,569.185,546.155" style="stroke:#181818;stroke-width:0.5;"/><text fill="#000000" font-family="sans-serif" font-size="6.5" lengthAdjust="spacing" textLength="3.5" x="573.9913" y="541.573">1</text></g><!--link MenuRequest to CreatePostItHandler--><g id="link_MenuRequest_CreatePostItHandler"><path codeLine="131" d="M520.5,583.6 C512.905,596.875 502.66,614.785 493.27,631.195 " fill="none" id="MenuRequest-to-CreatePostItHandler" style="stroke:#181818;stroke-width:0.5;"/><polygon fill="#181818" points="492.015,633.4,495.9862,630.488,493.2569,631.2303,492.5146,628.501,492.015,633.4" style="stroke:#181818;stroke-width:0.5;"/><text fill="#000000" font-family="sans-serif" font-size="6.5" lengthAdjust="spacing" textLength="3.5" x="489.2995" y="626.9005">1</text></g><!--reverse link SBProtocol to MenuRequest--><g id="link_SBProtocol_MenuRequest"><path codeLine="132" d="M493.225,494.725 C502.645,511.185 512.93,529.165 520.54,542.465 " fill="none" id="SBProtocol-backto-MenuRequest" style="stroke:#181818;stroke-width:0.5;"/><polygon fill="#181818" points="491.965,492.515,492.4646,497.414,493.2069,494.6847,495.9362,495.427,491.965,492.515" style="stroke:#181818;stroke-width:0.5;"/><text fill="#000000" font-family="sans-serif" font-size="6.5" lengthAdjust="spacing" textLength="3.5" x="489.1805" y="504.414">1</text></g><!--link PostItService to Board--><g id="link_PostItService_Board"><path codeLine="134" d="M488.7,807.7 C502.885,821.885 521.85,840.85 536.435,855.435 " fill="none" id="PostItService-to-Board" style="stroke:#181818;stroke-width:0.5;"/><polygon fill="#181818" points="538.37,857.37,536.6022,852.7738,536.6022,855.6022,533.7738,855.6022,538.37,857.37" style="stroke:#181818;stroke-width:0.5;"/><text fill="#000000" font-family="sans-serif" font-size="6.5" lengthAdjust="spacing" textLength="3.5" x="530.3665" y="850.9369">1</text></g><!--link Board to Cell--><g id="link_Board_Cell"><path codeLine="135" d="M558.5,898.7 C558.5,912.65 558.5,931.23 558.5,945.715 " fill="none" id="Board-to-Cell" style="stroke:#181818;stroke-width:0.5;"/><polygon fill="#181818" points="558.5,948.37,560.5,943.87,558.5,945.87,556.5,943.87,558.5,948.37" style="stroke:#181818;stroke-width:0.5;"/><text fill="#000000" font-family="sans-serif" font-size="6.5" lengthAdjust="spacing" textLength="2.5" x="554.6555" y="941.9369">*</text></g><!--link Cell to PostIt--><g id="link_Cell_PostIt"><path codeLine="136" d="M558.5,989.59 C558.5,1004.075 558.5,1023.35 558.5,1036.73 " fill="none" id="Cell-to-PostIt" style="stroke:#181818;stroke-width:0.5;"/><polygon fill="#181818" points="558.5,1039.325,560.5,1034.825,558.5,1036.825,556.5,1034.825,558.5,1039.325" style="stroke:#181818;stroke-width:0.5;"/><text fill="#000000" font-family="sans-serif" font-size="6.5" lengthAdjust="spacing" textLength="3.5" x="553.4328" y="1032.9539">1</text></g><!--link BoardService to BoardParticipantRepository--><g id="link_BoardService_BoardParticipantRepository"><path codeLine="138" d="M198.5,807.7 C198.5,821.65 198.5,840.23 198.5,854.715 " fill="none" id="BoardService-to-BoardParticipantRepository" style="stroke:#181818;stroke-width:0.5;"/><polygon fill="#181818" points="198.5,857.37,200.5,852.87,198.5,854.87,196.5,852.87,198.5,857.37" style="stroke:#181818;stroke-width:0.5;"/><text fill="#000000" font-family="sans-serif" font-size="6.5" lengthAdjust="spacing" textLength="3.5" x="193.5789" y="850.9369">1</text></g><!--link SBPServerApp to Board--><g id="link_SBPServerApp_Board"><path codeLine="140" d="M786.95,478.54 C793.075,552.51 805.915,756.1 767,807.5 C733.035,852.36 669.085,868.77 620.925,874.62 " fill="none" id="SBPServerApp-to-Board" style="stroke:#181818;stroke-width:0.5;"/><polygon fill="#181818" points="618.355,874.92,623.0586,876.3782,620.8377,874.6267,622.5892,872.4058,618.355,874.92" style="stroke:#181818;stroke-width:0.5;"/><text fill="#000000" font-family="sans-serif" font-size="6.5" lengthAdjust="spacing" textLength="2.5" x="623.3336" y="871.9071">*</text></g><!--link SBPServerApp to BoardHistory--><g id="link_SBPServerApp_BoardHistory"><path codeLine="141" d="M790.41,478.57 C802.48,538.74 826.495,687.73 797.5,807.5 C792.6,827.735 780.785,848.675 772.015,862.32 " fill="none" id="SBPServerApp-to-BoardHistory" style="stroke:#181818;stroke-width:0.5;"/><polygon fill="#181818" points="770.635,864.445,774.7679,861.7674,772.0002,862.3507,771.417,859.5831,770.635,864.445" style="stroke:#181818;stroke-width:0.5;"/><text fill="#000000" font-family="sans-serif" font-size="6.5" lengthAdjust="spacing" textLength="2.5" x="768.6411" y="857.8647">*</text></g><!--link SBProtocol to MessageProtocol--><g id="link_SBProtocol_MessageProtocol"><path codeLine="144" d="M442.265,492.515 C431.75,508.955 420.07,527.21 411.28,540.96 " fill="none" id="SBProtocol-to-MessageProtocol" style="stroke:#181818;stroke-width:0.5;stroke-dasharray:7.0,7.0;"/><polygon fill="none" points="414.17,542.935,405.83,549.475,408.27,539.165,414.17,542.935" style="stroke:#181818;stroke-width:0.5;"/></g><!--SRC=[bLPDJnin4BtxLrXSI0hXewUggf12AaGa4161zcnsXyJ2QxiUBocb_FUExTsDDmb8pI7nZkVZpVCRR_QNtblyUdnibT2-hjHHOQhZGWd4KId5mecACNoIsWfQyhWnzjx9Xzh3j31wBly0FybSh2XBgHVySsPpGZyXM7vwShAPxC9e7tESVc6CIUt1FOe2-3KWYWNCdF6cC2hREJV2bJFXl2oa9T2tO0rARzmBUsMSFWShwPSpS9L4b4OFvY_eeRf7SBochyEj36jVv9RMG_R6M4J79mw4Xvb1F_NtqwR0g5WQWt0X5GpUyPrGMyue1Ix474YSW5BJyeTGiXpCYJzYI3Z2GdrnNLUtPeNTmyIekj8ufC12w3pj8DWMu6C7U2KnMOhSfScEtgstKiU19cho3dxxvDJwFeJjoP9wqeUyiTd6kpDu2dkdsqkXowRLmB-hTO2Lc8BYQVeOkyURegYjX78GuQIgNNgXw81RY4qqTPfspskfId0RMSTAXSGuTh0hTGPsVju9AHm7Hw0JAc4G22zeCUoC93FjBvof-WmLyqGdEUboy5ruSLDxMmTuG58sjO-xYox569i46OfhqFKj_Ae1VP-g7ESSt3EuiRMjoojwGKfzknRssrI37vUbe-4uv1CbgT0P5uMNpp2k_HAt8o8VTz8hQ7H_biZ1Nj6KQZoRKL6oxpZYYEQ01XU16kjeIStcieYPMkp4HvYxAxDOG3bjMcqy8vhGhIoWzK_GGiX4w9zEUiYdrwmqk9nF8NNWj1rB_X1aqbfpNbCF6yLwKzEJP925Cwkq8D7qPe0Urf1iZBxP01QJfJA1WY3ImMPEcl2SDd9fST45se1AFqsHhNPuF2lnG9DE4k1PwKkw6D9z6EWEdtq2Jif5FXhzFMCiFzbewiU5W19i3A0BL5RME8z3edXqnlfNOZ3nlTEzzsw_tUOKzMal7ym-gkPA-K_73HmVEoQbVkJIa-X7ZdrziNoYEfzEhUrY9sHwoUINm3ewkpkozSuSxNNSywjjuvapsSFTRvkbYMZvZm8DNnizCvQJr4-n-oMzsLzR8LNjRsOxdJRtIOuAAc8N-T4HgNdTK7pU-klm3m00]--></g></svg>