<?xml version="1.0" encoding="us-ascii" standalone="no"?><svg xmlns="http://www.w3.org/2000/svg" xmlns:xlink="http://www.w3.org/1999/xlink" contentStyleType="text/css" height="1283.4px" preserveAspectRatio="none" style="width:685px;height:1283px;background:#FFFFFF;" version="1.1" viewBox="0 0 685 1283" width="685.2px" zoomAndPan="magnify"><defs/><g><!--class MessageProtocol--><g id="elem_MessageProtocol"><rect codeLine="9" fill="#F1F1F1" height="32.3648" id="MessageProtocol" rx="1.5" ry="1.5" style="stroke:#181818;stroke-width:0.3;" width="106.2" x="467.4" y="751.8"/><ellipse cx="476.4" cy="763.1824" fill="#B4A7E5" rx="6.6" ry="6.6" style="stroke:#181818;stroke-width:0.6;"/><path d="M476.9719,761.1668 L476.9719,765.1605 L478.0031,765.1605 Q478.3688,765.1605 478.5281,765.3012 Q478.6875,765.4418 478.6875,765.6762 Q478.6875,765.9012 478.5281,766.0418 Q478.3688,766.1824 478.0031,766.1824 L474.9188,766.1824 Q474.5531,766.1824 474.3937,766.0418 Q474.2344,765.9012 474.2344,765.6668 Q474.2344,765.4418 474.3937,765.3012 Q474.5531,765.1605 474.9188,765.1605 L475.95,765.1605 L475.95,761.1668 L474.9188,761.1668 Q474.5531,761.1668 474.3937,761.0262 Q474.2344,760.8855 474.2344,760.6512 Q474.2344,760.4262 474.3937,760.2855 Q474.5531,760.1449 474.9188,760.1449 L478.0031,760.1449 Q478.3688,760.1449 478.5281,760.2855 Q478.6875,760.4262 478.6875,760.6512 Q478.6875,760.8855 478.5281,761.0262 Q478.3688,761.1668 478.0031,761.1668 L476.9719,761.1668 Z " fill="#000000"/><text fill="#000000" font-family="sans-serif" font-size="10.8" font-style="italic" lengthAdjust="spacing" textLength="84.6" x="486" y="767.6543">MessageProtocol</text><line style="stroke:#181818;stroke-width:0.3;" x1="468" x2="573" y1="774.5648" y2="774.5648"/><line style="stroke:#181818;stroke-width:0.3;" x1="468" x2="573" y1="779.3648" y2="779.3648"/></g><!--class BoardParticipantRepository--><g id="elem_BoardParticipantRepository"><rect codeLine="10" fill="#F1F1F1" height="49.1297" id="BoardParticipantRepository" rx="1.5" ry="1.5" style="stroke:#181818;stroke-width:0.3;" width="348.6" x="264.6" y="1138.2"/><ellipse cx="368.55" cy="1149.5824" fill="#B4A7E5" rx="6.6" ry="6.6" style="stroke:#181818;stroke-width:0.6;"/><path d="M369.1219,1147.5668 L369.1219,1151.5605 L370.1531,1151.5605 Q370.5188,1151.5605 370.6781,1151.7012 Q370.8375,1151.8418 370.8375,1152.0762 Q370.8375,1152.3012 370.6781,1152.4418 Q370.5188,1152.5824 370.1531,1152.5824 L367.0687,1152.5824 Q366.7031,1152.5824 366.5438,1152.4418 Q366.3844,1152.3012 366.3844,1152.0668 Q366.3844,1151.8418 366.5438,1151.7012 Q366.7031,1151.5605 367.0687,1151.5605 L368.1,1151.5605 L368.1,1147.5668 L367.0687,1147.5668 Q366.7031,1147.5668 366.5438,1147.4262 Q366.3844,1147.2855 366.3844,1147.0512 Q366.3844,1146.8262 366.5438,1146.6855 Q366.7031,1146.5449 367.0687,1146.5449 L370.1531,1146.5449 Q370.5188,1146.5449 370.6781,1146.6855 Q370.8375,1146.8262 370.8375,1147.0512 Q370.8375,1147.2855 370.6781,1147.4262 Q370.5188,1147.5668 370.1531,1147.5668 L369.1219,1147.5668 Z " fill="#000000"/><text fill="#000000" font-family="sans-serif" font-size="10.8" font-style="italic" lengthAdjust="spacing" textLength="133.2" x="382.05" y="1154.0543">BoardParticipantRepository</text><line style="stroke:#181818;stroke-width:0.3;" x1="265.2" x2="612.6" y1="1160.9648" y2="1160.9648"/><line style="stroke:#181818;stroke-width:0.3;" x1="265.2" x2="612.6" y1="1165.7648" y2="1165.7648"/><text fill="#000000" font-family="sans-serif" font-size="10.8" lengthAdjust="spacing" textLength="339" x="269.4" y="1181.0191">+withPermission(SystemUser user, BoardParticipantPermissions perm)</text></g><!--class CreatePostItUI--><g id="elem_CreatePostItUI"><rect codeLine="15" fill="#F1F1F1" height="49.1297" id="CreatePostItUI" rx="1.5" ry="1.5" style="stroke:#181818;stroke-width:0.3;" width="91.2" x="359.7" y="298.2"/><ellipse cx="368.7" cy="309.5824" fill="#ADD1B2" rx="6.6" ry="6.6" style="stroke:#181818;stroke-width:0.6;"/><path d="M370.3594,307.1074 Q370.4531,306.9762 370.5656,306.9105 Q370.6781,306.8449 370.8094,306.8449 Q371.0344,306.8449 371.175,307.0043 Q371.3156,307.1543 371.3156,307.5199 L371.3156,308.3918 Q371.3156,308.7574 371.175,308.9168 Q371.0344,309.0762 370.8094,309.0762 Q370.6031,309.0762 370.4813,308.9543 Q370.3594,308.8418 370.2938,308.5324 Q370.2656,308.3168 370.1531,308.2043 Q369.9563,307.9793 369.5906,307.848 Q369.225,307.7168 368.85,307.7168 Q368.3906,307.7168 368.0062,307.9137 Q367.6312,308.1105 367.3313,308.5605 Q367.0406,309.0105 367.0406,309.6293 L367.0406,310.2855 Q367.0406,311.0262 367.575,311.523 Q368.1094,312.0105 369.0656,312.0105 Q369.6281,312.0105 370.0219,311.8605 Q370.2562,311.7668 370.5094,311.5043 Q370.6688,311.3449 370.7531,311.298 Q370.8469,311.2512 370.9688,311.2512 Q371.1656,311.2512 371.3156,311.4105 Q371.475,311.5605 371.475,311.7668 Q371.475,311.973 371.2688,312.2168 Q370.9688,312.5637 370.4906,312.7605 Q369.8438,313.0324 369.0656,313.0324 Q368.1563,313.0324 367.4344,312.6574 Q366.8438,312.3574 366.4313,311.7199 Q366.0188,311.073 366.0188,310.3043 L366.0188,309.6105 Q366.0188,308.8137 366.3844,308.1293 Q366.7594,307.4355 367.4156,307.0699 Q368.0719,306.6949 368.8125,306.6949 Q369.2531,306.6949 369.6375,306.798 Q370.0313,306.8918 370.3594,307.1074 Z " fill="#000000"/><text fill="#000000" font-family="sans-serif" font-size="10.8" lengthAdjust="spacing" textLength="69.6" x="378.3" y="314.0543">CreatePostItUI</text><line style="stroke:#181818;stroke-width:0.3;" x1="360.3" x2="450.3" y1="320.9648" y2="320.9648"/><line style="stroke:#181818;stroke-width:0.3;" x1="360.3" x2="450.3" y1="325.7648" y2="325.7648"/><text fill="#000000" font-family="sans-serif" font-size="10.8" lengthAdjust="spacing" textLength="63" x="364.5" y="341.0191">-chooseFile()</text></g><!--class CreatePostItController--><g id="elem_CreatePostItController"><rect codeLine="20" fill="#F1F1F1" height="116.1891" id="CreatePostItController" rx="1.5" ry="1.5" style="stroke:#181818;stroke-width:0.3;" width="394.2" x="238.2" y="407.4"/><ellipse cx="378.45" cy="418.7824" fill="#ADD1B2" rx="6.6" ry="6.6" style="stroke:#181818;stroke-width:0.6;"/><path d="M380.1094,416.3074 Q380.2031,416.1762 380.3156,416.1105 Q380.4281,416.0449 380.5594,416.0449 Q380.7844,416.0449 380.925,416.2043 Q381.0656,416.3543 381.0656,416.7199 L381.0656,417.5918 Q381.0656,417.9574 380.925,418.1168 Q380.7844,418.2762 380.5594,418.2762 Q380.3531,418.2762 380.2313,418.1543 Q380.1094,418.0418 380.0438,417.7324 Q380.0156,417.5168 379.9031,417.4043 Q379.7063,417.1793 379.3406,417.048 Q378.975,416.9168 378.6,416.9168 Q378.1406,416.9168 377.7562,417.1137 Q377.3812,417.3105 377.0813,417.7605 Q376.7906,418.2105 376.7906,418.8293 L376.7906,419.4855 Q376.7906,420.2262 377.325,420.723 Q377.8594,421.2105 378.8156,421.2105 Q379.3781,421.2105 379.7719,421.0605 Q380.0062,420.9668 380.2594,420.7043 Q380.4188,420.5449 380.5031,420.498 Q380.5969,420.4512 380.7188,420.4512 Q380.9156,420.4512 381.0656,420.6105 Q381.225,420.7605 381.225,420.9668 Q381.225,421.173 381.0188,421.4168 Q380.7188,421.7637 380.2406,421.9605 Q379.5938,422.2324 378.8156,422.2324 Q377.9063,422.2324 377.1844,421.8574 Q376.5938,421.5574 376.1813,420.9199 Q375.7688,420.273 375.7688,419.5043 L375.7688,418.8105 Q375.7688,418.0137 376.1344,417.3293 Q376.5094,416.6355 377.1656,416.2699 Q377.8219,415.8949 378.5625,415.8949 Q379.0031,415.8949 379.3875,415.998 Q379.7813,416.0918 380.1094,416.3074 Z " fill="#000000"/><text fill="#000000" font-family="sans-serif" font-size="10.8" lengthAdjust="spacing" textLength="106.2" x="391.95" y="423.2543">CreatePostItController</text><line style="stroke:#181818;stroke-width:0.3;" x1="238.8" x2="631.8" y1="430.1648" y2="430.1648"/><line style="stroke:#181818;stroke-width:0.3;" x1="238.8" x2="631.8" y1="434.9648" y2="434.9648"/><text fill="#000000" font-family="sans-serif" font-size="10.8" lengthAdjust="spacing" textLength="267" x="243" y="450.2191">+isCellIdValid(String arr, int numRows, int numColumns)</text><text fill="#000000" font-family="sans-serif" font-size="10.8" lengthAdjust="spacing" textLength="90.6" x="243" y="466.984">+canCreatePostIt()</text><text fill="#000000" font-family="sans-serif" font-size="10.8" lengthAdjust="spacing" textLength="79.8" x="243" y="483.7488">+getBoardsList()</text><text fill="#000000" font-family="sans-serif" font-size="10.8" lengthAdjust="spacing" textLength="114" x="243" y="500.5137">+createPostIt(String str)</text><text fill="#000000" font-family="sans-serif" font-size="10.8" lengthAdjust="spacing" textLength="384.6" x="243" y="517.2785">+createBoardPositionTextString(String boardChosen, String position, String text)</text></g><!--class CreatePostItHandler--><g id="elem_CreatePostItHandler"><rect codeLine="29" fill="#F1F1F1" height="99.4242" id="CreatePostItHandler" rx="1.5" ry="1.5" style="stroke:#181818;stroke-width:0.3;" width="282" x="296.1" y="852.6"/><ellipse cx="384.75" cy="863.9824" fill="#ADD1B2" rx="6.6" ry="6.6" style="stroke:#181818;stroke-width:0.6;"/><path d="M386.4094,861.5074 Q386.5031,861.3762 386.6156,861.3105 Q386.7281,861.2449 386.8594,861.2449 Q387.0844,861.2449 387.225,861.4043 Q387.3656,861.5543 387.3656,861.9199 L387.3656,862.7918 Q387.3656,863.1574 387.225,863.3168 Q387.0844,863.4762 386.8594,863.4762 Q386.6531,863.4762 386.5313,863.3543 Q386.4094,863.2418 386.3438,862.9324 Q386.3156,862.7168 386.2031,862.6043 Q386.0062,862.3793 385.6406,862.248 Q385.275,862.1168 384.9,862.1168 Q384.4406,862.1168 384.0563,862.3137 Q383.6813,862.5105 383.3812,862.9605 Q383.0906,863.4105 383.0906,864.0293 L383.0906,864.6855 Q383.0906,865.4262 383.625,865.923 Q384.1594,866.4105 385.1156,866.4105 Q385.6781,866.4105 386.0719,866.2605 Q386.3063,866.1668 386.5594,865.9043 Q386.7188,865.7449 386.8031,865.698 Q386.8969,865.6512 387.0188,865.6512 Q387.2156,865.6512 387.3656,865.8105 Q387.525,865.9605 387.525,866.1668 Q387.525,866.373 387.3187,866.6168 Q387.0188,866.9637 386.5406,867.1605 Q385.8938,867.4324 385.1156,867.4324 Q384.2063,867.4324 383.4844,867.0574 Q382.8938,866.7574 382.4813,866.1199 Q382.0687,865.473 382.0687,864.7043 L382.0687,864.0105 Q382.0687,863.2137 382.4344,862.5293 Q382.8094,861.8355 383.4656,861.4699 Q384.1219,861.0949 384.8625,861.0949 Q385.3031,861.0949 385.6875,861.198 Q386.0813,861.2918 386.4094,861.5074 Z " fill="#000000"/><text fill="#000000" font-family="sans-serif" font-size="10.8" lengthAdjust="spacing" textLength="97.2" x="398.25" y="868.4543">CreatePostItHandler</text><line style="stroke:#181818;stroke-width:0.3;" x1="296.7" x2="577.5" y1="875.3648" y2="875.3648"/><line style="stroke:#181818;stroke-width:0.3;" x1="296.7" x2="577.5" y1="880.1648" y2="880.1648"/><text fill="#000000" font-family="sans-serif" font-size="10.8" lengthAdjust="spacing" textLength="29.4" x="300.9" y="895.4191">+run()</text><text fill="#000000" font-family="sans-serif" font-size="10.8" lengthAdjust="spacing" textLength="272.4" x="300.9" y="912.184">-checkIfCellIsOccupied(Board board, String alterPosition)</text><text fill="#000000" font-family="sans-serif" font-size="10.8" lengthAdjust="spacing" textLength="87.6" x="300.9" y="928.9488">-getStringBuilder()</text><text fill="#000000" font-family="sans-serif" font-size="10.8" lengthAdjust="spacing" textLength="201" x="300.9" y="945.7137">-checkIfAllCellsAreOccupied(Board board)</text></g><!--class SBProtocol--><g id="elem_SBProtocol"><rect codeLine="37" fill="#F1F1F1" height="99.4242" id="SBProtocol" rx="1.5" ry="1.5" style="stroke:#181818;stroke-width:0.3;" width="178.8" x="345.9" y="583.8"/><ellipse cx="404.55" cy="595.1824" fill="#ADD1B2" rx="6.6" ry="6.6" style="stroke:#181818;stroke-width:0.6;"/><path d="M406.2094,592.7074 Q406.3031,592.5762 406.4156,592.5105 Q406.5281,592.4449 406.6594,592.4449 Q406.8844,592.4449 407.025,592.6043 Q407.1656,592.7543 407.1656,593.1199 L407.1656,593.9918 Q407.1656,594.3574 407.025,594.5168 Q406.8844,594.6762 406.6594,594.6762 Q406.4531,594.6762 406.3313,594.5543 Q406.2094,594.4418 406.1438,594.1324 Q406.1156,593.9168 406.0031,593.8043 Q405.8063,593.5793 405.4406,593.448 Q405.075,593.3168 404.7,593.3168 Q404.2406,593.3168 403.8563,593.5137 Q403.4813,593.7105 403.1813,594.1605 Q402.8906,594.6105 402.8906,595.2293 L402.8906,595.8855 Q402.8906,596.6262 403.425,597.123 Q403.9594,597.6105 404.9156,597.6105 Q405.4781,597.6105 405.8719,597.4605 Q406.1063,597.3668 406.3594,597.1043 Q406.5188,596.9449 406.6031,596.898 Q406.6969,596.8512 406.8187,596.8512 Q407.0156,596.8512 407.1656,597.0105 Q407.325,597.1605 407.325,597.3668 Q407.325,597.573 407.1188,597.8168 Q406.8187,598.1637 406.3406,598.3605 Q405.6937,598.6324 404.9156,598.6324 Q404.0062,598.6324 403.2844,598.2574 Q402.6937,597.9574 402.2813,597.3199 Q401.8688,596.673 401.8688,595.9043 L401.8688,595.2105 Q401.8688,594.4137 402.2344,593.7293 Q402.6094,593.0355 403.2656,592.6699 Q403.9219,592.2949 404.6625,592.2949 Q405.1031,592.2949 405.4875,592.398 Q405.8812,592.4918 406.2094,592.7074 Z " fill="#000000"/><text fill="#000000" font-family="sans-serif" font-size="10.8" lengthAdjust="spacing" textLength="54" x="418.05" y="599.6543">SBProtocol</text><line style="stroke:#181818;stroke-width:0.3;" x1="346.5" x2="524.1" y1="606.5648" y2="606.5648"/><line style="stroke:#181818;stroke-width:0.3;" x1="346.5" x2="524.1" y1="611.3648" y2="611.3648"/><text fill="#000000" font-family="sans-serif" font-size="10.8" lengthAdjust="spacing" textLength="91.8" x="350.7" y="626.6191">+setCode(int code)</text><text fill="#000000" font-family="sans-serif" font-size="10.8" lengthAdjust="spacing" textLength="169.2" x="350.7" y="643.384">+setContentFromString(String cStr)</text><text fill="#000000" font-family="sans-serif" font-size="10.8" lengthAdjust="spacing" textLength="144.6" x="350.7" y="660.1488">+send(DataOutputStream out)</text><text fill="#000000" font-family="sans-serif" font-size="10.8" lengthAdjust="spacing" textLength="106.8" x="350.7" y="676.9137">+getContentAsString()</text></g><!--class MenuRequest--><g id="elem_MenuRequest"><rect codeLine="45" fill="#F1F1F1" height="49.1297" id="MenuRequest" rx="1.5" ry="1.5" style="stroke:#181818;stroke-width:0.3;" width="88.8" x="297.3" y="743.4"/><ellipse cx="306.3" cy="754.7824" fill="#ADD1B2" rx="6.6" ry="6.6" style="stroke:#181818;stroke-width:0.6;"/><path d="M307.9594,752.3074 Q308.0531,752.1762 308.1656,752.1105 Q308.2781,752.0449 308.4094,752.0449 Q308.6344,752.0449 308.775,752.2043 Q308.9156,752.3543 308.9156,752.7199 L308.9156,753.5918 Q308.9156,753.9574 308.775,754.1168 Q308.6344,754.2762 308.4094,754.2762 Q308.2031,754.2762 308.0813,754.1543 Q307.9594,754.0418 307.8938,753.7324 Q307.8656,753.5168 307.7531,753.4043 Q307.5563,753.1793 307.1906,753.048 Q306.825,752.9168 306.45,752.9168 Q305.9906,752.9168 305.6063,753.1137 Q305.2313,753.3105 304.9313,753.7605 Q304.6406,754.2105 304.6406,754.8293 L304.6406,755.4855 Q304.6406,756.2262 305.175,756.723 Q305.7094,757.2105 306.6656,757.2105 Q307.2281,757.2105 307.6219,757.0605 Q307.8563,756.9668 308.1094,756.7043 Q308.2688,756.5449 308.3531,756.498 Q308.4469,756.4512 308.5687,756.4512 Q308.7656,756.4512 308.9156,756.6105 Q309.075,756.7605 309.075,756.9668 Q309.075,757.173 308.8688,757.4168 Q308.5687,757.7637 308.0906,757.9605 Q307.4437,758.2324 306.6656,758.2324 Q305.7562,758.2324 305.0344,757.8574 Q304.4437,757.5574 304.0313,756.9199 Q303.6188,756.273 303.6188,755.5043 L303.6188,754.8105 Q303.6188,754.0137 303.9844,753.3293 Q304.3594,752.6355 305.0156,752.2699 Q305.6719,751.8949 306.4125,751.8949 Q306.8531,751.8949 307.2375,751.998 Q307.6312,752.0918 307.9594,752.3074 Z " fill="#000000"/><text fill="#000000" font-family="sans-serif" font-size="10.8" lengthAdjust="spacing" textLength="67.2" x="315.9" y="759.2543">MenuRequest</text><line style="stroke:#181818;stroke-width:0.3;" x1="297.9" x2="385.5" y1="766.1648" y2="766.1648"/><line style="stroke:#181818;stroke-width:0.3;" x1="297.9" x2="385.5" y1="770.9648" y2="770.9648"/><text fill="#000000" font-family="sans-serif" font-size="10.8" lengthAdjust="spacing" textLength="29.4" x="302.1" y="786.2191">+run()</text></g><!--class SBPServerApp--><g id="elem_SBPServerApp"><rect codeLine="50" fill="#F1F1F1" height="65.8945" id="SBPServerApp" rx="1.5" ry="1.5" style="stroke:#181818;stroke-width:0.3;" width="198.6" x="106.8" y="600.6"/><ellipse cx="166.35" cy="611.9824" fill="#ADD1B2" rx="6.6" ry="6.6" style="stroke:#181818;stroke-width:0.6;"/><path d="M168.0094,609.5074 Q168.1031,609.3762 168.2156,609.3105 Q168.3281,609.2449 168.4594,609.2449 Q168.6844,609.2449 168.825,609.4043 Q168.9656,609.5543 168.9656,609.9199 L168.9656,610.7918 Q168.9656,611.1574 168.825,611.3168 Q168.6844,611.4762 168.4594,611.4762 Q168.2531,611.4762 168.1313,611.3543 Q168.0094,611.2418 167.9438,610.9324 Q167.9156,610.7168 167.8031,610.6043 Q167.6063,610.3793 167.2406,610.248 Q166.875,610.1168 166.5,610.1168 Q166.0406,610.1168 165.6563,610.3137 Q165.2813,610.5105 164.9813,610.9605 Q164.6906,611.4105 164.6906,612.0293 L164.6906,612.6855 Q164.6906,613.4262 165.225,613.923 Q165.7594,614.4105 166.7156,614.4105 Q167.2781,614.4105 167.6719,614.2605 Q167.9063,614.1668 168.1594,613.9043 Q168.3188,613.7449 168.4031,613.698 Q168.4969,613.6512 168.6188,613.6512 Q168.8156,613.6512 168.9656,613.8105 Q169.125,613.9605 169.125,614.1668 Q169.125,614.373 168.9188,614.6168 Q168.6188,614.9637 168.1406,615.1605 Q167.4938,615.4324 166.7156,615.4324 Q165.8063,615.4324 165.0844,615.0574 Q164.4938,614.7574 164.0812,614.1199 Q163.6688,613.473 163.6688,612.7043 L163.6688,612.0105 Q163.6688,611.2137 164.0344,610.5293 Q164.4094,609.8355 165.0656,609.4699 Q165.7219,609.0949 166.4625,609.0949 Q166.9031,609.0949 167.2875,609.198 Q167.6813,609.2918 168.0094,609.5074 Z " fill="#000000"/><text fill="#000000" font-family="sans-serif" font-size="10.8" lengthAdjust="spacing" textLength="72" x="179.85" y="616.4543">SBPServerApp</text><line style="stroke:#181818;stroke-width:0.3;" x1="107.4" x2="304.8" y1="623.3648" y2="623.3648"/><text fill="#000000" font-family="sans-serif" font-size="10.8" lengthAdjust="spacing" text-decoration="underline" textLength="189" x="111.6" y="638.6191">+Map&lt;InetAddress, Client&gt; activeAuths</text><text fill="#000000" font-family="sans-serif" font-size="10.8" lengthAdjust="spacing" text-decoration="underline" textLength="161.4" x="111.6" y="655.384">+Map&lt;BoardTitle, Board&gt; boards</text><line style="stroke:#181818;stroke-width:0.3;" x1="107.4" x2="304.8" y1="661.6945" y2="661.6945"/></g><!--class SBPClientApp--><g id="elem_SBPClientApp"><rect codeLine="56" fill="#F1F1F1" height="32.3648" id="SBPClientApp" rx="1.5" ry="1.5" style="stroke:#181818;stroke-width:0.3;" width="89.4" x="366.6" y="96.6"/><ellipse cx="375.6" cy="107.9824" fill="#ADD1B2" rx="6.6" ry="6.6" style="stroke:#181818;stroke-width:0.6;"/><path d="M377.2594,105.5074 Q377.3531,105.3762 377.4656,105.3105 Q377.5781,105.2449 377.7094,105.2449 Q377.9344,105.2449 378.075,105.4043 Q378.2156,105.5543 378.2156,105.9199 L378.2156,106.7918 Q378.2156,107.1574 378.075,107.3168 Q377.9344,107.4762 377.7094,107.4762 Q377.5031,107.4762 377.3812,107.3543 Q377.2594,107.2418 377.1937,106.9324 Q377.1656,106.7168 377.0531,106.6043 Q376.8563,106.3793 376.4906,106.248 Q376.125,106.1168 375.75,106.1168 Q375.2906,106.1168 374.9063,106.3137 Q374.5313,106.5105 374.2313,106.9605 Q373.9406,107.4105 373.9406,108.0293 L373.9406,108.6855 Q373.9406,109.4262 374.475,109.923 Q375.0094,110.4105 375.9656,110.4105 Q376.5281,110.4105 376.9219,110.2605 Q377.1563,110.1668 377.4094,109.9043 Q377.5687,109.7449 377.6531,109.698 Q377.7469,109.6512 377.8688,109.6512 Q378.0656,109.6512 378.2156,109.8105 Q378.375,109.9605 378.375,110.1668 Q378.375,110.373 378.1688,110.6168 Q377.8688,110.9637 377.3906,111.1605 Q376.7438,111.4324 375.9656,111.4324 Q375.0563,111.4324 374.3344,111.0574 Q373.7438,110.7574 373.3313,110.1199 Q372.9188,109.473 372.9188,108.7043 L372.9188,108.0105 Q372.9188,107.2137 373.2844,106.5293 Q373.6594,105.8355 374.3156,105.4699 Q374.9719,105.0949 375.7125,105.0949 Q376.1531,105.0949 376.5375,105.198 Q376.9313,105.2918 377.2594,105.5074 Z " fill="#000000"/><text fill="#000000" font-family="sans-serif" font-size="10.8" lengthAdjust="spacing" textLength="67.8" x="385.2" y="112.4543">SBPClientApp</text><line style="stroke:#181818;stroke-width:0.3;" x1="367.2" x2="455.4" y1="119.3648" y2="119.3648"/><line style="stroke:#181818;stroke-width:0.3;" x1="367.2" x2="455.4" y1="124.1648" y2="124.1648"/></g><!--class Client--><g id="elem_Client"><rect codeLine="62" fill="#F1F1F1" height="49.1297" id="Client" rx="1.5" ry="1.5" style="stroke:#181818;stroke-width:0.3;" width="105.6" x="153.3" y="743.4"/><ellipse cx="188.55" cy="754.7824" fill="#ADD1B2" rx="6.6" ry="6.6" style="stroke:#181818;stroke-width:0.6;"/><path d="M190.2094,752.3074 Q190.3031,752.1762 190.4156,752.1105 Q190.5281,752.0449 190.6594,752.0449 Q190.8844,752.0449 191.025,752.2043 Q191.1656,752.3543 191.1656,752.7199 L191.1656,753.5918 Q191.1656,753.9574 191.025,754.1168 Q190.8844,754.2762 190.6594,754.2762 Q190.4531,754.2762 190.3312,754.1543 Q190.2094,754.0418 190.1437,753.7324 Q190.1156,753.5168 190.0031,753.4043 Q189.8063,753.1793 189.4406,753.048 Q189.075,752.9168 188.7,752.9168 Q188.2406,752.9168 187.8563,753.1137 Q187.4813,753.3105 187.1813,753.7605 Q186.8906,754.2105 186.8906,754.8293 L186.8906,755.4855 Q186.8906,756.2262 187.425,756.723 Q187.9594,757.2105 188.9156,757.2105 Q189.4781,757.2105 189.8719,757.0605 Q190.1063,756.9668 190.3594,756.7043 Q190.5187,756.5449 190.6031,756.498 Q190.6969,756.4512 190.8188,756.4512 Q191.0156,756.4512 191.1656,756.6105 Q191.325,756.7605 191.325,756.9668 Q191.325,757.173 191.1188,757.4168 Q190.8188,757.7637 190.3406,757.9605 Q189.6938,758.2324 188.9156,758.2324 Q188.0063,758.2324 187.2844,757.8574 Q186.6938,757.5574 186.2813,756.9199 Q185.8688,756.273 185.8688,755.5043 L185.8688,754.8105 Q185.8688,754.0137 186.2344,753.3293 Q186.6094,752.6355 187.2656,752.2699 Q187.9219,751.8949 188.6625,751.8949 Q189.1031,751.8949 189.4875,751.998 Q189.8813,752.0918 190.2094,752.3074 Z " fill="#000000"/><text fill="#000000" font-family="sans-serif" font-size="10.8" lengthAdjust="spacing" textLength="27.6" x="202.05" y="759.2543">Client</text><line style="stroke:#181818;stroke-width:0.3;" x1="153.9" x2="258.3" y1="766.1648" y2="766.1648"/><line style="stroke:#181818;stroke-width:0.3;" x1="153.9" x2="258.3" y1="770.9648" y2="770.9648"/><text fill="#000000" font-family="sans-serif" font-size="10.8" lengthAdjust="spacing" textLength="96" x="158.1" y="786.2191">+getUserLoggedIn()</text></g><!--class BoardService--><g id="elem_BoardService"><rect codeLine="68" fill="#F1F1F1" height="49.1297" id="BoardService" rx="1.5" ry="1.5" style="stroke:#181818;stroke-width:0.3;" width="214.8" x="331.5" y="1020.6"/><ellipse cx="402.75" cy="1031.9824" fill="#ADD1B2" rx="6.6" ry="6.6" style="stroke:#181818;stroke-width:0.6;"/><path d="M404.4094,1029.5074 Q404.5031,1029.3762 404.6156,1029.3105 Q404.7281,1029.2449 404.8594,1029.2449 Q405.0844,1029.2449 405.225,1029.4043 Q405.3656,1029.5543 405.3656,1029.9199 L405.3656,1030.7918 Q405.3656,1031.1574 405.225,1031.3168 Q405.0844,1031.4762 404.8594,1031.4762 Q404.6531,1031.4762 404.5313,1031.3543 Q404.4094,1031.2418 404.3438,1030.9324 Q404.3156,1030.7168 404.2031,1030.6043 Q404.0062,1030.3793 403.6406,1030.248 Q403.275,1030.1168 402.9,1030.1168 Q402.4406,1030.1168 402.0563,1030.3137 Q401.6813,1030.5105 401.3812,1030.9605 Q401.0906,1031.4105 401.0906,1032.0293 L401.0906,1032.6855 Q401.0906,1033.4262 401.625,1033.923 Q402.1594,1034.4105 403.1156,1034.4105 Q403.6781,1034.4105 404.0719,1034.2605 Q404.3063,1034.1668 404.5594,1033.9043 Q404.7188,1033.7449 404.8031,1033.698 Q404.8969,1033.6512 405.0188,1033.6512 Q405.2156,1033.6512 405.3656,1033.8105 Q405.525,1033.9605 405.525,1034.1668 Q405.525,1034.373 405.3187,1034.6168 Q405.0188,1034.9637 404.5406,1035.1605 Q403.8938,1035.4324 403.1156,1035.4324 Q402.2063,1035.4324 401.4844,1035.0574 Q400.8938,1034.7574 400.4813,1034.1199 Q400.0687,1033.473 400.0687,1032.7043 L400.0687,1032.0105 Q400.0687,1031.2137 400.4344,1030.5293 Q400.8094,1029.8355 401.4656,1029.4699 Q402.1219,1029.0949 402.8625,1029.0949 Q403.3031,1029.0949 403.6875,1029.198 Q404.0813,1029.2918 404.4094,1029.5074 Z " fill="#000000"/><text fill="#000000" font-family="sans-serif" font-size="10.8" lengthAdjust="spacing" textLength="64.8" x="416.25" y="1036.4543">BoardService</text><line style="stroke:#181818;stroke-width:0.3;" x1="332.1" x2="545.7" y1="1043.3648" y2="1043.3648"/><line style="stroke:#181818;stroke-width:0.3;" x1="332.1" x2="545.7" y1="1048.1648" y2="1048.1648"/><text fill="#000000" font-family="sans-serif" font-size="10.8" lengthAdjust="spacing" textLength="205.2" x="336.3" y="1063.4191">+boardsUserCanWrite(SystemUser owner)</text></g><!--class MainMenu--><g id="elem_MainMenu"><rect codeLine="73" fill="#F1F1F1" height="49.1297" id="MainMenu" rx="1.5" ry="1.5" style="stroke:#181818;stroke-width:0.3;" width="93.6" x="358.5" y="189"/><ellipse cx="377.22" cy="200.3824" fill="#ADD1B2" rx="6.6" ry="6.6" style="stroke:#181818;stroke-width:0.6;"/><path d="M378.8794,197.9074 Q378.9731,197.7762 379.0856,197.7105 Q379.1981,197.6449 379.3294,197.6449 Q379.5544,197.6449 379.695,197.8043 Q379.8356,197.9543 379.8356,198.3199 L379.8356,199.1918 Q379.8356,199.5574 379.695,199.7168 Q379.5544,199.8762 379.3294,199.8762 Q379.1231,199.8762 379.0013,199.7543 Q378.8794,199.6418 378.8138,199.3324 Q378.7856,199.1168 378.6731,199.0043 Q378.4763,198.7793 378.1106,198.648 Q377.745,198.5168 377.37,198.5168 Q376.9106,198.5168 376.5263,198.7137 Q376.1513,198.9105 375.8513,199.3605 Q375.5606,199.8105 375.5606,200.4293 L375.5606,201.0855 Q375.5606,201.8262 376.095,202.323 Q376.6294,202.8105 377.5856,202.8105 Q378.1481,202.8105 378.5419,202.6605 Q378.7763,202.5668 379.0294,202.3043 Q379.1888,202.1449 379.2731,202.098 Q379.3669,202.0512 379.4888,202.0512 Q379.6856,202.0512 379.8356,202.2105 Q379.995,202.3605 379.995,202.5668 Q379.995,202.773 379.7888,203.0168 Q379.4888,203.3637 379.0106,203.5605 Q378.3638,203.8324 377.5856,203.8324 Q376.6763,203.8324 375.9544,203.4574 Q375.3638,203.1574 374.9513,202.5199 Q374.5388,201.873 374.5388,201.1043 L374.5388,200.4105 Q374.5388,199.6137 374.9044,198.9293 Q375.2794,198.2355 375.9356,197.8699 Q376.5919,197.4949 377.3325,197.4949 Q377.7731,197.4949 378.1575,197.598 Q378.5513,197.6918 378.8794,197.9074 Z " fill="#000000"/><text fill="#000000" font-family="sans-serif" font-size="10.8" lengthAdjust="spacing" textLength="50.4" x="388.98" y="204.8543">MainMenu</text><line style="stroke:#181818;stroke-width:0.3;" x1="359.1" x2="451.5" y1="211.7648" y2="211.7648"/><line style="stroke:#181818;stroke-width:0.3;" x1="359.1" x2="451.5" y1="216.5648" y2="216.5648"/><text fill="#000000" font-family="sans-serif" font-size="10.8" lengthAdjust="spacing" textLength="84" x="363.3" y="231.8191">-buildMainMenu()</text></g><!--class Board--><g id="elem_Board"><rect codeLine="78" fill="#F1F1F1" height="65.8945" id="Board" rx="1.5" ry="1.5" style="stroke:#181818;stroke-width:0.3;" width="216.6" x="4.2" y="1012.2"/><ellipse cx="94.35" cy="1023.5824" fill="#ADD1B2" rx="6.6" ry="6.6" style="stroke:#181818;stroke-width:0.6;"/><path d="M96.0094,1021.1074 Q96.1031,1020.9762 96.2156,1020.9105 Q96.3281,1020.8449 96.4594,1020.8449 Q96.6844,1020.8449 96.825,1021.0043 Q96.9656,1021.1543 96.9656,1021.5199 L96.9656,1022.3918 Q96.9656,1022.7574 96.825,1022.9168 Q96.6844,1023.0762 96.4594,1023.0762 Q96.2531,1023.0762 96.1313,1022.9543 Q96.0094,1022.8418 95.9438,1022.5324 Q95.9156,1022.3168 95.8031,1022.2043 Q95.6063,1021.9793 95.2406,1021.848 Q94.875,1021.7168 94.5,1021.7168 Q94.0406,1021.7168 93.6563,1021.9137 Q93.2813,1022.1105 92.9813,1022.5605 Q92.6906,1023.0105 92.6906,1023.6293 L92.6906,1024.2855 Q92.6906,1025.0262 93.225,1025.523 Q93.7594,1026.0105 94.7156,1026.0105 Q95.2781,1026.0105 95.6719,1025.8605 Q95.9063,1025.7668 96.1594,1025.5043 Q96.3188,1025.3449 96.4031,1025.298 Q96.4969,1025.2512 96.6187,1025.2512 Q96.8156,1025.2512 96.9656,1025.4105 Q97.125,1025.5605 97.125,1025.7668 Q97.125,1025.973 96.9188,1026.2168 Q96.6187,1026.5637 96.1406,1026.7605 Q95.4937,1027.0324 94.7156,1027.0324 Q93.8062,1027.0324 93.0844,1026.6574 Q92.4937,1026.3574 92.0813,1025.7199 Q91.6688,1025.073 91.6688,1024.3043 L91.6688,1023.6105 Q91.6688,1022.8137 92.0344,1022.1293 Q92.4094,1021.4355 93.0656,1021.0699 Q93.7219,1020.6949 94.4625,1020.6949 Q94.9031,1020.6949 95.2875,1020.798 Q95.6812,1020.8918 96.0094,1021.1074 Z " fill="#000000"/><text fill="#000000" font-family="sans-serif" font-size="10.8" lengthAdjust="spacing" textLength="28.8" x="107.85" y="1028.0543">Board</text><line style="stroke:#181818;stroke-width:0.3;" x1="4.8" x2="220.2" y1="1034.9648" y2="1034.9648"/><line style="stroke:#181818;stroke-width:0.3;" x1="4.8" x2="220.2" y1="1039.7648" y2="1039.7648"/><text fill="#000000" font-family="sans-serif" font-size="10.8" lengthAdjust="spacing" textLength="133.8" x="9" y="1055.0191">+getCell(int row, int column)</text><text fill="#000000" font-family="sans-serif" font-size="10.8" lengthAdjust="spacing" textLength="207" x="9" y="1071.784">+addPostIt(int row, int column, PostIt postIt)</text></g><!--class Cell--><g id="elem_Cell"><rect codeLine="84" fill="#F1F1F1" height="49.1297" id="Cell" rx="1.5" ry="1.5" style="stroke:#181818;stroke-width:0.3;" width="124.2" x="50.4" y="1138.2"/><ellipse cx="99.45" cy="1149.5824" fill="#ADD1B2" rx="6.6" ry="6.6" style="stroke:#181818;stroke-width:0.6;"/><path d="M101.1094,1147.1074 Q101.2031,1146.9762 101.3156,1146.9105 Q101.4281,1146.8449 101.5594,1146.8449 Q101.7844,1146.8449 101.925,1147.0043 Q102.0656,1147.1543 102.0656,1147.5199 L102.0656,1148.3918 Q102.0656,1148.7574 101.925,1148.9168 Q101.7844,1149.0762 101.5594,1149.0762 Q101.3531,1149.0762 101.2313,1148.9543 Q101.1094,1148.8418 101.0438,1148.5324 Q101.0156,1148.3168 100.9031,1148.2043 Q100.7063,1147.9793 100.3406,1147.848 Q99.975,1147.7168 99.6,1147.7168 Q99.1406,1147.7168 98.7563,1147.9137 Q98.3813,1148.1105 98.0813,1148.5605 Q97.7906,1149.0105 97.7906,1149.6293 L97.7906,1150.2855 Q97.7906,1151.0262 98.325,1151.523 Q98.8594,1152.0105 99.8156,1152.0105 Q100.3781,1152.0105 100.7719,1151.8605 Q101.0063,1151.7668 101.2594,1151.5043 Q101.4188,1151.3449 101.5031,1151.298 Q101.5969,1151.2512 101.7188,1151.2512 Q101.9156,1151.2512 102.0656,1151.4105 Q102.225,1151.5605 102.225,1151.7668 Q102.225,1151.973 102.0188,1152.2168 Q101.7188,1152.5637 101.2406,1152.7605 Q100.5938,1153.0324 99.8156,1153.0324 Q98.9063,1153.0324 98.1844,1152.6574 Q97.5938,1152.3574 97.1812,1151.7199 Q96.7688,1151.073 96.7688,1150.3043 L96.7688,1149.6105 Q96.7688,1148.8137 97.1344,1148.1293 Q97.5094,1147.4355 98.1656,1147.0699 Q98.8219,1146.6949 99.5625,1146.6949 Q100.0031,1146.6949 100.3875,1146.798 Q100.7813,1146.8918 101.1094,1147.1074 Z " fill="#000000"/><text fill="#000000" font-family="sans-serif" font-size="10.8" lengthAdjust="spacing" textLength="18.6" x="112.95" y="1154.0543">Cell</text><line style="stroke:#181818;stroke-width:0.3;" x1="51" x2="174" y1="1160.9648" y2="1160.9648"/><line style="stroke:#181818;stroke-width:0.3;" x1="51" x2="174" y1="1165.7648" y2="1165.7648"/><text fill="#000000" font-family="sans-serif" font-size="10.8" lengthAdjust="spacing" textLength="114.6" x="55.2" y="1181.0191">+addPostIt(PostIt postIt)</text></g><!--class PostIt--><g id="elem_PostIt"><rect codeLine="89" fill="#F1F1F1" height="32.3648" id="PostIt" rx="1.5" ry="1.5" style="stroke:#181818;stroke-width:0.3;" width="48.6" x="88.2" y="1247.4"/><ellipse cx="97.2" cy="1258.7824" fill="#ADD1B2" rx="6.6" ry="6.6" style="stroke:#181818;stroke-width:0.6;"/><path d="M98.8594,1256.3074 Q98.9531,1256.1762 99.0656,1256.1105 Q99.1781,1256.0449 99.3094,1256.0449 Q99.5344,1256.0449 99.675,1256.2043 Q99.8156,1256.3543 99.8156,1256.7199 L99.8156,1257.5918 Q99.8156,1257.9574 99.675,1258.1168 Q99.5344,1258.2762 99.3094,1258.2762 Q99.1031,1258.2762 98.9813,1258.1543 Q98.8594,1258.0418 98.7938,1257.7324 Q98.7656,1257.5168 98.6531,1257.4043 Q98.4563,1257.1793 98.0906,1257.048 Q97.725,1256.9168 97.35,1256.9168 Q96.8906,1256.9168 96.5063,1257.1137 Q96.1313,1257.3105 95.8313,1257.7605 Q95.5406,1258.2105 95.5406,1258.8293 L95.5406,1259.4855 Q95.5406,1260.2262 96.075,1260.723 Q96.6094,1261.2105 97.5656,1261.2105 Q98.1281,1261.2105 98.5219,1261.0605 Q98.7563,1260.9668 99.0094,1260.7043 Q99.1688,1260.5449 99.2531,1260.498 Q99.3469,1260.4512 99.4688,1260.4512 Q99.6656,1260.4512 99.8156,1260.6105 Q99.975,1260.7605 99.975,1260.9668 Q99.975,1261.173 99.7688,1261.4168 Q99.4688,1261.7637 98.9906,1261.9605 Q98.3438,1262.2324 97.5656,1262.2324 Q96.6563,1262.2324 95.9344,1261.8574 Q95.3438,1261.5574 94.9312,1260.9199 Q94.5188,1260.273 94.5188,1259.5043 L94.5188,1258.8105 Q94.5188,1258.0137 94.8844,1257.3293 Q95.2594,1256.6355 95.9156,1256.2699 Q96.5719,1255.8949 97.3125,1255.8949 Q97.7531,1255.8949 98.1375,1255.998 Q98.5313,1256.0918 98.8594,1256.3074 Z " fill="#000000"/><text fill="#000000" font-family="sans-serif" font-size="10.8" lengthAdjust="spacing" textLength="27" x="106.8" y="1263.2543">PostIt</text><line style="stroke:#181818;stroke-width:0.3;" x1="88.8" x2="136.2" y1="1270.1648" y2="1270.1648"/><line style="stroke:#181818;stroke-width:0.3;" x1="88.8" x2="136.2" y1="1274.9648" y2="1274.9648"/></g><!--class NewChangeEvent--><g id="elem_NewChangeEvent"><rect codeLine="92" fill="#F1F1F1" height="65.8945" id="NewChangeEvent" rx="1.5" ry="1.5" style="stroke:#181818;stroke-width:0.3;" width="113.4" x="567.6" y="1012.2"/><ellipse cx="578.76" cy="1023.5824" fill="#ADD1B2" rx="6.6" ry="6.6" style="stroke:#181818;stroke-width:0.6;"/><path d="M580.4194,1021.1074 Q580.5131,1020.9762 580.6256,1020.9105 Q580.7381,1020.8449 580.8694,1020.8449 Q581.0944,1020.8449 581.235,1021.0043 Q581.3756,1021.1543 581.3756,1021.5199 L581.3756,1022.3918 Q581.3756,1022.7574 581.235,1022.9168 Q581.0944,1023.0762 580.8694,1023.0762 Q580.6631,1023.0762 580.5413,1022.9543 Q580.4194,1022.8418 580.3538,1022.5324 Q580.3256,1022.3168 580.2131,1022.2043 Q580.0163,1021.9793 579.6506,1021.848 Q579.285,1021.7168 578.91,1021.7168 Q578.4506,1021.7168 578.0663,1021.9137 Q577.6913,1022.1105 577.3913,1022.5605 Q577.1006,1023.0105 577.1006,1023.6293 L577.1006,1024.2855 Q577.1006,1025.0262 577.635,1025.523 Q578.1694,1026.0105 579.1256,1026.0105 Q579.6881,1026.0105 580.0819,1025.8605 Q580.3163,1025.7668 580.5694,1025.5043 Q580.7288,1025.3449 580.8131,1025.298 Q580.9069,1025.2512 581.0288,1025.2512 Q581.2256,1025.2512 581.3756,1025.4105 Q581.535,1025.5605 581.535,1025.7668 Q581.535,1025.973 581.3288,1026.2168 Q581.0288,1026.5637 580.5506,1026.7605 Q579.9038,1027.0324 579.1256,1027.0324 Q578.2163,1027.0324 577.4944,1026.6574 Q576.9038,1026.3574 576.4913,1025.7199 Q576.0788,1025.073 576.0788,1024.3043 L576.0788,1023.6105 Q576.0788,1022.8137 576.4444,1022.1293 Q576.8194,1021.4355 577.4756,1021.0699 Q578.1319,1020.6949 578.8725,1020.6949 Q579.3131,1020.6949 579.6975,1020.798 Q580.0913,1020.8918 580.4194,1021.1074 Z " fill="#000000"/><text fill="#000000" font-family="sans-serif" font-size="10.8" lengthAdjust="spacing" textLength="87" x="588.84" y="1028.0543">NewChangeEvent</text><line style="stroke:#181818;stroke-width:0.3;" x1="568.2" x2="680.4" y1="1034.9648" y2="1034.9648"/><text fill="#000000" font-family="sans-serif" font-size="10.8" lengthAdjust="spacing" textLength="62.4" x="572.4" y="1050.2191">-String board</text><text fill="#000000" font-family="sans-serif" font-size="10.8" lengthAdjust="spacing" textLength="103.8" x="572.4" y="1066.984">-SBProtocol message</text><line style="stroke:#181818;stroke-width:0.3;" x1="568.2" x2="680.4" y1="1073.2945" y2="1073.2945"/></g><!--class AbstractUI--><g id="elem_AbstractUI"><rect codeLine="98" fill="#F1F1F1" height="32.3648" id="AbstractUI" rx="1.5" ry="1.5" style="stroke:#181818;stroke-width:0.3;" width="72" x="273.3" y="96.6"/><ellipse cx="282.3" cy="107.9824" fill="#A9DCDF" rx="6.6" ry="6.6" style="stroke:#181818;stroke-width:0.6;"/><path d="M283.6125,109.0418 L281.1281,109.0418 L280.875,109.6605 L281.1281,109.6605 Q281.4938,109.6605 281.6531,109.8012 Q281.8125,109.9418 281.8125,110.1762 Q281.8125,110.4012 281.6531,110.5418 Q281.4938,110.6824 281.1281,110.6824 L279.75,110.6824 Q279.3844,110.6824 279.2344,110.5418 Q279.075,110.4012 279.075,110.1668 Q279.075,109.9418 279.2438,109.8012 Q279.4031,109.6512 279.7781,109.6605 L281.3812,105.6668 L280.7156,105.6668 Q280.35,105.6668 280.1906,105.5262 Q280.0313,105.3855 280.0313,105.1512 Q280.0313,104.9262 280.1906,104.7855 Q280.35,104.6449 280.7156,104.6449 L282.9188,104.6449 L284.9531,109.6605 Q285.3094,109.6605 285.4219,109.7449 Q285.6563,109.9043 285.6563,110.1762 Q285.6563,110.4012 285.4969,110.5418 Q285.3469,110.6824 284.9813,110.6824 L283.6031,110.6824 Q283.2375,110.6824 283.0781,110.5418 Q282.9188,110.4012 282.9188,110.1668 Q282.9188,109.9418 283.0781,109.8012 Q283.2375,109.6605 283.6031,109.6605 L283.8563,109.6605 L283.6125,109.0418 Z M283.1813,108.0199 L282.3656,105.9949 L281.5406,108.0199 L283.1813,108.0199 Z " fill="#000000"/><text fill="#000000" font-family="sans-serif" font-size="10.8" font-style="italic" lengthAdjust="spacing" textLength="50.4" x="291.9" y="112.4543">AbstractUI</text><line style="stroke:#181818;stroke-width:0.3;" x1="273.9" x2="344.7" y1="119.3648" y2="119.3648"/><line style="stroke:#181818;stroke-width:0.3;" x1="273.9" x2="344.7" y1="124.1648" y2="124.1648"/></g><!--class BaseApplication--><g id="elem_BaseApplication"><rect codeLine="102" fill="#F1F1F1" height="32.3648" id="BaseApplication" rx="1.5" ry="1.5" style="stroke:#181818;stroke-width:0.3;" width="100.8" x="240.3" y="4.2"/><ellipse cx="249.3" cy="15.5824" fill="#A9DCDF" rx="6.6" ry="6.6" style="stroke:#181818;stroke-width:0.6;"/><path d="M250.6125,16.6418 L248.1281,16.6418 L247.875,17.2605 L248.1281,17.2605 Q248.4937,17.2605 248.6531,17.4012 Q248.8125,17.5418 248.8125,17.7762 Q248.8125,18.0012 248.6531,18.1418 Q248.4937,18.2824 248.1281,18.2824 L246.75,18.2824 Q246.3844,18.2824 246.2344,18.1418 Q246.075,18.0012 246.075,17.7668 Q246.075,17.5418 246.2437,17.4012 Q246.4031,17.2512 246.7781,17.2605 L248.3813,13.2668 L247.7156,13.2668 Q247.35,13.2668 247.1906,13.1262 Q247.0313,12.9855 247.0313,12.7512 Q247.0313,12.5262 247.1906,12.3855 Q247.35,12.2449 247.7156,12.2449 L249.9188,12.2449 L251.9531,17.2605 Q252.3094,17.2605 252.4219,17.3449 Q252.6563,17.5043 252.6563,17.7762 Q252.6563,18.0012 252.4969,18.1418 Q252.3469,18.2824 251.9813,18.2824 L250.6031,18.2824 Q250.2375,18.2824 250.0781,18.1418 Q249.9188,18.0012 249.9188,17.7668 Q249.9188,17.5418 250.0781,17.4012 Q250.2375,17.2605 250.6031,17.2605 L250.8563,17.2605 L250.6125,16.6418 Z M250.1812,15.6199 L249.3656,13.5949 L248.5406,15.6199 L250.1812,15.6199 Z " fill="#000000"/><text fill="#000000" font-family="sans-serif" font-size="10.8" font-style="italic" lengthAdjust="spacing" textLength="79.2" x="258.9" y="20.0543">BaseApplication</text><line style="stroke:#181818;stroke-width:0.3;" x1="240.9" x2="340.5" y1="26.9648" y2="26.9648"/><line style="stroke:#181818;stroke-width:0.3;" x1="240.9" x2="340.5" y1="31.7648" y2="31.7648"/></g><!--class Runnable--><g id="elem_Runnable"><rect codeLine="104" fill="#F1F1F1" height="32.3648" id="Runnable" rx="1.5" ry="1.5" style="stroke:#181818;stroke-width:0.3;" width="68.4" x="242.1" y="1029"/><ellipse cx="251.1" cy="1040.3824" fill="#B4A7E5" rx="6.6" ry="6.6" style="stroke:#181818;stroke-width:0.6;"/><path d="M251.6719,1038.3668 L251.6719,1042.3605 L252.7031,1042.3605 Q253.0688,1042.3605 253.2281,1042.5012 Q253.3875,1042.6418 253.3875,1042.8762 Q253.3875,1043.1012 253.2281,1043.2418 Q253.0688,1043.3824 252.7031,1043.3824 L249.6187,1043.3824 Q249.2531,1043.3824 249.0938,1043.2418 Q248.9344,1043.1012 248.9344,1042.8668 Q248.9344,1042.6418 249.0938,1042.5012 Q249.2531,1042.3605 249.6187,1042.3605 L250.65,1042.3605 L250.65,1038.3668 L249.6187,1038.3668 Q249.2531,1038.3668 249.0938,1038.2262 Q248.9344,1038.0855 248.9344,1037.8512 Q248.9344,1037.6262 249.0938,1037.4855 Q249.2531,1037.3449 249.6187,1037.3449 L252.7031,1037.3449 Q253.0688,1037.3449 253.2281,1037.4855 Q253.3875,1037.6262 253.3875,1037.8512 Q253.3875,1038.0855 253.2281,1038.2262 Q253.0688,1038.3668 252.7031,1038.3668 L251.6719,1038.3668 Z " fill="#000000"/><text fill="#000000" font-family="sans-serif" font-size="10.8" font-style="italic" lengthAdjust="spacing" textLength="46.8" x="260.7" y="1044.8543">Runnable</text><line style="stroke:#181818;stroke-width:0.3;" x1="242.7" x2="309.9" y1="1051.7648" y2="1051.7648"/><line style="stroke:#181818;stroke-width:0.3;" x1="242.7" x2="309.9" y1="1056.5648" y2="1056.5648"/></g><!--class Thread--><g id="elem_Thread"><rect fill="#F1F1F1" height="32.3648" id="Thread" rx="1.5" ry="1.5" style="stroke:#181818;stroke-width:0.3;" width="56.4" x="218.7" y="886.2"/><ellipse cx="227.7" cy="897.5824" fill="#ADD1B2" rx="6.6" ry="6.6" style="stroke:#181818;stroke-width:0.6;"/><path d="M229.3594,895.1074 Q229.4531,894.9762 229.5656,894.9105 Q229.6781,894.8449 229.8094,894.8449 Q230.0344,894.8449 230.175,895.0043 Q230.3156,895.1543 230.3156,895.5199 L230.3156,896.3918 Q230.3156,896.7574 230.175,896.9168 Q230.0344,897.0762 229.8094,897.0762 Q229.6031,897.0762 229.4813,896.9543 Q229.3594,896.8418 229.2938,896.5324 Q229.2656,896.3168 229.1531,896.2043 Q228.9562,895.9793 228.5906,895.848 Q228.225,895.7168 227.85,895.7168 Q227.3906,895.7168 227.0063,895.9137 Q226.6313,896.1105 226.3312,896.5605 Q226.0406,897.0105 226.0406,897.6293 L226.0406,898.2855 Q226.0406,899.0262 226.575,899.523 Q227.1094,900.0105 228.0656,900.0105 Q228.6281,900.0105 229.0219,899.8605 Q229.2563,899.7668 229.5094,899.5043 Q229.6688,899.3449 229.7531,899.298 Q229.8469,899.2512 229.9688,899.2512 Q230.1656,899.2512 230.3156,899.4105 Q230.475,899.5605 230.475,899.7668 Q230.475,899.973 230.2687,900.2168 Q229.9688,900.5637 229.4906,900.7605 Q228.8438,901.0324 228.0656,901.0324 Q227.1563,901.0324 226.4344,900.6574 Q225.8438,900.3574 225.4313,899.7199 Q225.0187,899.073 225.0187,898.3043 L225.0187,897.6105 Q225.0187,896.8137 225.3844,896.1293 Q225.7594,895.4355 226.4156,895.0699 Q227.0719,894.6949 227.8125,894.6949 Q228.2531,894.6949 228.6375,894.798 Q229.0313,894.8918 229.3594,895.1074 Z " fill="#000000"/><text fill="#000000" font-family="sans-serif" font-size="10.8" lengthAdjust="spacing" textLength="34.8" x="237.3" y="902.0543">Thread</text><line style="stroke:#181818;stroke-width:0.3;" x1="219.3" x2="274.5" y1="908.9648" y2="908.9648"/><line style="stroke:#181818;stroke-width:0.3;" x1="219.3" x2="274.5" y1="913.7648" y2="913.7648"/></g><!--reverse link SBPServerApp to Client--><g id="link_SBPServerApp_Client"><path codeLine="106" d="M206.1,674.628 C206.1,697.032 206.1,724.128 206.1,743.238 " fill="none" id="SBPServerApp-backto-Client" style="stroke:#181818;stroke-width:0.6;"/><polygon fill="none" points="206.1,666.612,203.7,670.212,206.1,673.812,208.5,670.212,206.1,666.612" style="stroke:#181818;stroke-width:0.6;"/></g><!--reverse link AbstractUI to MainMenu--><g id="link_AbstractUI_MainMenu"><path codeLine="108" d="M332.982,137.97 C347.958,153.51 367.224,173.496 382.104,188.934 " fill="none" id="AbstractUI-backto-MainMenu" style="stroke:#181818;stroke-width:0.6;"/><polygon fill="none" points="329.814,140.736,324.51,129.18,335.862,134.91,329.814,140.736" style="stroke:#181818;stroke-width:0.6;"/></g><!--reverse link AbstractUI to CreatePostItUI--><g id="link_AbstractUI_CreatePostItUI"><path codeLine="109" d="M315.402,140.814 C321.726,166.698 332.862,206.208 348.3,238.2 C358.68,259.71 374.04,281.982 386.202,298.182 " fill="none" id="AbstractUI-backto-CreatePostItUI" style="stroke:#181818;stroke-width:0.6;"/><polygon fill="none" points="311.31,141.774,312.648,129.126,319.488,139.842,311.31,141.774" style="stroke:#181818;stroke-width:0.6;"/></g><!--reverse link BaseApplication to SBPClientApp--><g id="link_BaseApplication_SBPClientApp"><path codeLine="110" d="M321.168,44.04 C342.9,60.474 371.532,82.128 390.636,96.576 " fill="none" id="BaseApplication-backto-SBPClientApp" style="stroke:#181818;stroke-width:0.6;"/><polygon fill="none" points="318.468,47.268,311.43,36.678,323.538,40.566,318.468,47.268" style="stroke:#181818;stroke-width:0.6;"/></g><!--reverse link BaseApplication to SBPServerApp--><g id="link_BaseApplication_SBPServerApp"><path codeLine="111" d="M271.194,46.59 C246.21,81.978 206.1,148.794 206.1,213 C206.1,213 206.1,213 206.1,323.4 C206.1,424.452 206.1,544.05 206.1,600.462 " fill="none" id="BaseApplication-backto-SBPServerApp" style="stroke:#181818;stroke-width:0.6;"/><polygon fill="none" points="267.954,43.902,278.4,36.654,274.752,48.834,267.954,43.902" style="stroke:#181818;stroke-width:0.6;"/></g><!--link MenuRequest to Thread--><g id="link_MenuRequest_Thread"><path codeLine="112" d="M324.534,792.72 C307.71,816.36 282.162,852.258 265.014,876.348 " fill="none" id="MenuRequest-to-Thread" style="stroke:#181818;stroke-width:0.6;"/><polygon fill="none" points="268.392,878.844,258.012,886.188,261.546,873.972,268.392,878.844" style="stroke:#181818;stroke-width:0.6;"/></g><!--link CreatePostItUI to CreatePostItController--><g id="link_CreatePostItUI_CreatePostItController"><path codeLine="116" d="M410.388,347.418 C413.712,363.102 418.206,384.324 422.466,404.424 " fill="none" id="CreatePostItUI-to-CreatePostItController" style="stroke:#181818;stroke-width:0.6;"/><polygon fill="#181818" points="423.09,407.376,424.3295,401.5981,422.4737,404.44,419.6318,402.5842,423.09,407.376" style="stroke:#181818;stroke-width:0.6;"/><text fill="#000000" font-family="sans-serif" font-size="7.8" lengthAdjust="spacing" textLength="4.2" x="416.5025" y="399.4676">1</text></g><!--link CreatePostItController to SBProtocol--><g id="link_CreatePostItController_SBProtocol"><path codeLine="117" d="M435.3,523.836 C435.3,542.262 435.3,562.548 435.3,580.584 " fill="none" id="CreatePostItController-to-SBProtocol" style="stroke:#181818;stroke-width:0.6;"/><polygon fill="#181818" points="435.3,583.692,437.7,578.292,435.3,580.692,432.9,578.292,435.3,583.692" style="stroke:#181818;stroke-width:0.6;"/><text fill="#000000" font-family="sans-serif" font-size="7.8" lengthAdjust="spacing" textLength="3" x="430.868" y="575.8937">*</text></g><!--link CreatePostItHandler to SBProtocol--><g id="link_CreatePostItHandler_SBProtocol"><path codeLine="120" d="M436.77,852.408 C436.452,805.314 435.978,734.634 435.654,686.568 " fill="none" id="CreatePostItHandler-to-SBProtocol" style="stroke:#181818;stroke-width:0.6;"/><polygon fill="#181818" points="435.63,683.436,433.2609,688.8496,435.6471,686.436,438.0608,688.8222,435.63,683.436" style="stroke:#181818;stroke-width:0.6;"/><text fill="#000000" font-family="sans-serif" font-size="7.8" lengthAdjust="spacing" textLength="3" x="431.2337" y="697.7163">*</text></g><!--link CreatePostItHandler to BoardService--><g id="link_CreatePostItHandler_BoardService"><path codeLine="125" d="M437.73,952.326 C438.006,974.13 438.318,998.94 438.552,1017.336 " fill="none" id="CreatePostItHandler-to-BoardService" style="stroke:#181818;stroke-width:0.6;"/><polygon fill="#181818" points="438.594,1020.462,440.932,1015.0348,438.5596,1017.4622,436.1323,1015.0899,438.594,1020.462" style="stroke:#181818;stroke-width:0.6;"/><text fill="#000000" font-family="sans-serif" font-size="7.8" lengthAdjust="spacing" textLength="4.2" x="432.6193" y="1012.5518">1</text></g><!--link CreatePostItHandler to Board--><g id="link_CreatePostItHandler_Board"><path codeLine="126" d="M324.252,952.224 C279.834,971.604 229.95,993.366 189.762,1010.898 " fill="none" id="CreatePostItHandler-to-Board" style="stroke:#181818;stroke-width:0.6;"/><polygon fill="#181818" points="186.888,1012.152,192.7972,1012.1931,189.6378,1010.9527,190.8783,1007.7934,186.888,1012.152" style="stroke:#181818;stroke-width:0.6;"/><text fill="#000000" font-family="sans-serif" font-size="7.8" lengthAdjust="spacing" textLength="4.2" x="190.5962" y="1004.1455">1</text></g><!--link SBPClientApp to MainMenu--><g id="link_SBPClientApp_MainMenu"><path codeLine="128" d="M410.352,129.18 C409.434,144.372 408.03,167.658 406.938,185.832 " fill="none" id="SBPClientApp-to-MainMenu" style="stroke:#181818;stroke-width:0.6;"/><polygon fill="#181818" points="406.752,188.934,409.472,183.6879,406.9322,185.9394,404.6807,183.3996,406.752,188.934" style="stroke:#181818;stroke-width:0.6;"/><text fill="#000000" font-family="sans-serif" font-size="7.8" lengthAdjust="spacing" textLength="4.2" x="401.0575" y="181.0353">1</text></g><!--link MainMenu to CreatePostItUI--><g id="link_MainMenu_CreatePostItUI"><path codeLine="129" d="M405.3,238.44 C405.3,255.18 405.3,277.476 405.3,294.858 " fill="none" id="MainMenu-to-CreatePostItUI" style="stroke:#181818;stroke-width:0.6;"/><polygon fill="#181818" points="405.3,298.044,407.7,292.644,405.3,295.044,402.9,292.644,405.3,298.044" style="stroke:#181818;stroke-width:0.6;"/><text fill="#000000" font-family="sans-serif" font-size="7.8" lengthAdjust="spacing" textLength="4.2" x="399.3947" y="290.3243">1</text></g><!--link SBPServerApp to MenuRequest--><g id="link_SBPServerApp_MenuRequest"><path codeLine="130" d="M239.1,666.612 C262.32,689.424 293.01,719.574 314.76,740.94 " fill="none" id="SBPServerApp-to-MenuRequest" style="stroke:#181818;stroke-width:0.6;"/><polygon fill="#181818" points="317.1,743.238,314.9341,737.7399,314.9616,741.1339,311.5676,741.1614,317.1,743.238" style="stroke:#181818;stroke-width:0.6;"/><text fill="#000000" font-family="sans-serif" font-size="7.8" lengthAdjust="spacing" textLength="4.2" x="307.4278" y="735.5174">1</text></g><!--link MenuRequest to CreatePostItHandler--><g id="link_MenuRequest_CreatePostItHandler"><path codeLine="131" d="M358.974,792.72 C370.386,808.65 385.776,830.142 399.882,849.834 " fill="none" id="MenuRequest-to-CreatePostItHandler" style="stroke:#181818;stroke-width:0.6;"/><polygon fill="#181818" points="401.772,852.48,400.5805,846.6921,400.0259,850.0405,396.6774,849.4859,401.772,852.48" style="stroke:#181818;stroke-width:0.6;"/><text fill="#000000" font-family="sans-serif" font-size="7.8" lengthAdjust="spacing" textLength="4.2" x="393.0524" y="844.6806">1</text></g><!--reverse link SBProtocol to MenuRequest--><g id="link_SBProtocol_MenuRequest"><path codeLine="132" d="M398.85,686.07 C384.972,705.822 369.81,727.398 358.596,743.358 " fill="none" id="SBProtocol-backto-MenuRequest" style="stroke:#181818;stroke-width:0.6;"/><polygon fill="#181818" points="400.71,683.418,395.6414,686.456,398.985,685.8725,399.5686,689.216,400.71,683.418" style="stroke:#181818;stroke-width:0.6;"/><text fill="#000000" font-family="sans-serif" font-size="7.8" lengthAdjust="spacing" textLength="4.2" x="392.1722" y="697.6968">1</text></g><!--link Board to Cell--><g id="link_Board_Cell"><path codeLine="135" d="M112.5,1078.224 C112.5,1096.08 112.5,1117.998 112.5,1134.96 " fill="none" id="Board-to-Cell" style="stroke:#181818;stroke-width:0.6;"/><polygon fill="#181818" points="112.5,1138.068,114.9,1132.668,112.5,1135.068,110.1,1132.668,112.5,1138.068" style="stroke:#181818;stroke-width:0.6;"/><text fill="#000000" font-family="sans-serif" font-size="7.8" lengthAdjust="spacing" textLength="3" x="107.8697" y="1130.1588">*</text></g><!--link Cell to PostIt--><g id="link_Cell_PostIt"><path codeLine="136" d="M112.5,1187.508 C112.5,1204.89 112.5,1228.02 112.5,1244.076 " fill="none" id="Cell-to-PostIt" style="stroke:#181818;stroke-width:0.6;"/><polygon fill="#181818" points="112.5,1247.19,114.9,1241.79,112.5,1244.19,110.1,1241.79,112.5,1247.19" style="stroke:#181818;stroke-width:0.6;"/><text fill="#000000" font-family="sans-serif" font-size="7.8" lengthAdjust="spacing" textLength="4.2" x="106.4194" y="1239.5447">1</text></g><!--link BoardService to BoardParticipantRepository--><g id="link_BoardService_BoardParticipantRepository"><path codeLine="138" d="M438.9,1069.92 C438.9,1088.88 438.9,1115.298 438.9,1135.008 " fill="none" id="BoardService-to-BoardParticipantRepository" style="stroke:#181818;stroke-width:0.6;"/><polygon fill="#181818" points="438.9,1138.11,441.3,1132.71,438.9,1135.11,436.5,1132.71,438.9,1138.11" style="stroke:#181818;stroke-width:0.6;"/><text fill="#000000" font-family="sans-serif" font-size="7.8" lengthAdjust="spacing" textLength="4.2" x="432.9741" y="1130.2075">1</text></g><!--link SBPServerApp to Board--><g id="link_SBPServerApp_Board"><path codeLine="140" d="M182.232,666.612 C168.18,687.462 151.458,715.746 142.5,743.4 C112.584,835.734 110.22,951.612 111.222,1009.002 " fill="none" id="SBPServerApp-to-Board" style="stroke:#181818;stroke-width:0.6;"/><polygon fill="#181818" points="111.282,1012.026,113.5735,1006.5791,111.222,1009.0266,108.7745,1006.6751,111.282,1012.026" style="stroke:#181818;stroke-width:0.6;"/><text fill="#000000" font-family="sans-serif" font-size="7.8" lengthAdjust="spacing" textLength="3" x="106.6045" y="1004.2492">*</text></g><!--link CreatePostItHandler to NewChangeEvent--><g id="link_CreatePostItHandler_NewChangeEvent"><path codeLine="142" d="M502.308,952.326 C527.562,971.424 555.852,992.826 578.832,1010.208 " fill="none" id="CreatePostItHandler-to-NewChangeEvent" style="stroke:#181818;stroke-width:0.6;"/><polygon fill="#181818" points="581.322,1012.092,578.4627,1006.9205,578.9292,1010.2824,575.5673,1010.749,581.322,1012.092" style="stroke:#181818;stroke-width:0.6;"/><text fill="#000000" font-family="sans-serif" font-size="7.8" lengthAdjust="spacing" textLength="4.2" x="570.2819" y="1004.3232">1</text></g><!--link SBProtocol to MessageProtocol--><g id="link_SBProtocol_MessageProtocol"><path codeLine="145" d="M466.782,683.418 C479.4,703.146 493.416,725.052 503.964,741.552 " fill="none" id="SBProtocol-to-MessageProtocol" style="stroke:#181818;stroke-width:0.6;stroke-dasharray:7.0,7.0;"/><polygon fill="none" points="507.576,739.398,510.504,751.77,500.496,743.922,507.576,739.398" style="stroke:#181818;stroke-width:0.6;"/></g><!--link Thread to Runnable--><g id="link_Thread_Runnable"><path codeLine="146" d="M250.158,918.696 C255.084,942.402 264.486,987.69 270.57,1016.994 " fill="none" id="Thread-to-Runnable" style="stroke:#181818;stroke-width:0.6;stroke-dasharray:7.0,7.0;"/><polygon fill="none" points="274.698,1016.232,273.024,1028.838,266.472,1017.942,274.698,1016.232" style="stroke:#181818;stroke-width:0.6;"/></g><!--link CreatePostItHandler to Runnable--><g id="link_CreatePostItHandler_Runnable"><path codeLine="147" d="M381.084,952.326 C354.678,975.582 324.39,1002.252 303.192,1020.918 " fill="none" id="CreatePostItHandler-to-Runnable" style="stroke:#181818;stroke-width:0.6;stroke-dasharray:7.0,7.0;"/><polygon fill="none" points="305.916,1024.116,294.138,1028.892,300.366,1017.81,305.916,1024.116" style="stroke:#181818;stroke-width:0.6;"/></g><!--SRC=[XLRRRjiu47tdLn1vYRE9SjcdOh4muBWDQg1fWpZTVQQfgKs48haa5M-Rzjyxl4YcRBdrWoqD3sVEdBaafnllZVlhwif8fdpRo4kkcoikcNDLBTZQieOGzooKOVX8uy7CUojMhOS5rseflW6zBY26rRLGQ_fdORDCFJimzERwUj_PdLO- -hXvGmWHoeFzmZZGUt2EhU71Qg-vbiN9hMQsVc3M2ouCadu4evtmsdubhuJYvtmh_EO1R2ES4rfDbb-TX-Qp0qjR_BeuyB33Echm-Opy82IoetCBpCE3TdxXFozoW8flj7Pm9oHCZc3dc9RLKe8DTyw5cuEKY_eV9aKzMQ9-g12po0Npegfj7lNMzIzpBTj6kJEyo9agtKw2RGq-Pk0-29Sil8HaxyxRtL7AECY4IJx1_pw1Ekmg7Cytc9EweDbcChetUBns9DltJDKvrQ2_RLMWbPG2_hpu4hDtdpXlZO1w4kcagBrx9h707SLy6pDDfxUja3NOFQypAODZDxCmvheWkxpj6ocKWph02jKm2O9pV3ZhZTXcojzPtGmLuiia9u9KFNdBFFlKUjC6Ue2jh5iVJzUzYvdB3WeMzw3QH_Yl1UU7KfKybs1VmCwCwI2lpZFir1_tpFozKE1dTMrnE2xeN0eCDAMCU_42izPltE6DgCUJy19otq-JE6uGDBbAGT7UrpYQEoAON1YY3tgzXdgHUMTaT1se2muTFiK9L-PC_Mk5Xt8KzLQ1BSLXGWM1kXcZgr3ppbgA56CbME0KMY0Mqkfj6Y4UvoVsoZbkepmN8v0Bciv2i-DFsTtejCjZv-8OEjjVTvQFi9rlc5h3kvUTWXKjvwqpzQr9cxJpWXUsmld5mgObIMVvDQwWm-DRvW2B9mLdONhAFVhOAiLM4WWfUulggkggUufpZKtjQ5Lzdv9ES5gr1j_BoCDTE08e6waxtgSsO744Kyn994MVDXYwncOxhS54hhZMHMEqzUuCHQoc1-IgAJsvEJcsayVDwTOV9-Mw86HaqOq3Vm559eC9-IsGx8cPp_eXsPLf9D5KYaBcxdQnVuOQ7_heLle0X-LAo47UQULsaiJ92L-zs-Gmux82msp7_vhl9z55o0BzIiEzyIEds2mI6dnszF8IsxoOkl1-yEz6whXqre_GMCGXuYS0]--></g></svg>