<?xml version="1.0" encoding="us-ascii" standalone="no"?><svg xmlns="http://www.w3.org/2000/svg" xmlns:xlink="http://www.w3.org/1999/xlink" contentStyleType="text/css" height="1439px" preserveAspectRatio="none" style="width:1044px;height:1439px;background:#FFFFFF;" version="1.1" viewBox="0 0 1044 1439" width="1044px" zoomAndPan="magnify"><defs/><g><rect fill="#FFFFFF" height="1253.3496" style="stroke:#181818;stroke-width:1.0;" width="10" x="47" y="93.6211"/><rect fill="#FFFFFF" height="378.4922" style="stroke:#181818;stroke-width:1.0;" width="10" x="324" y="116.9121"/><rect fill="#FFFFFF" height="262.9102" style="stroke:#181818;stroke-width:1.0;" width="10" x="324" y="526.6953"/><rect fill="#FFFFFF" height="514.0742" style="stroke:#181818;stroke-width:1.0;" width="10" x="324" y="820.8965"/><rect fill="#FFFFFF" height="227.0371" style="stroke:#181818;stroke-width:1.0;" width="10" x="717" y="168.4941"/><rect fill="#FFFFFF" height="34.291" style="stroke:#181818;stroke-width:1.0;" width="10" x="717" y="429.8223"/><rect fill="#FFFFFF" height="31.291" style="stroke:#181818;stroke-width:1.0;" width="10" x="717" y="709.7324"/><rect fill="#FFFFFF" height="68.582" style="stroke:#181818;stroke-width:1.0;" width="10" x="717" y="933.7695"/><rect fill="#FFFFFF" height="205.7461" style="stroke:#181818;stroke-width:1.0;" width="10" x="717" y="1033.6426"/><rect fill="#FFFFFF" height="30" style="stroke:#181818;stroke-width:1.0;" width="10" x="717" y="1304.9707"/><rect fill="#FFFFFF" height="131.1641" style="stroke:#181818;stroke-width:1.0;" width="10" x="846" y="264.3672"/><rect fill="#FFFFFF" height="174.4551" style="stroke:#181818;stroke-width:1.0;" width="10" x="846" y="1064.9336"/><line style="stroke:#181818;stroke-width:0.5;stroke-dasharray:5.0,5.0;" x1="52" x2="52" y1="83.6211" y2="1355.9707"/><line style="stroke:#181818;stroke-width:0.5;stroke-dasharray:5.0,5.0;" x1="329" x2="329" y1="83.6211" y2="1355.9707"/><line style="stroke:#181818;stroke-width:0.5;stroke-dasharray:5.0,5.0;" x1="722" x2="722" y1="83.6211" y2="1355.9707"/><line style="stroke:#181818;stroke-width:0.5;stroke-dasharray:5.0,5.0;" x1="851" x2="851" y1="83.6211" y2="1355.9707"/><text fill="#000000" font-family="sans-serif" font-size="14" lengthAdjust="spacing" textLength="88" x="5" y="80.1074">SBPClientApp</text><ellipse cx="52" cy="13.5" fill="#E2E2F0" rx="8" ry="8" style="stroke:#181818;stroke-width:0.5;"/><path d="M52,21.5 L52,48.5 M39,29.5 L65,29.5 M52,48.5 L39,63.5 M52,48.5 L65,63.5 " fill="none" style="stroke:#181818;stroke-width:0.5;"/><text fill="#000000" font-family="sans-serif" font-size="14" lengthAdjust="spacing" textLength="88" x="5" y="1370.0781">SBPClientApp</text><ellipse cx="52" cy="1382.0918" fill="#E2E2F0" rx="8" ry="8" style="stroke:#181818;stroke-width:0.5;"/><path d="M52,1390.0918 L52,1417.0918 M39,1398.0918 L65,1398.0918 M52,1417.0918 L39,1432.0918 M52,1417.0918 L65,1432.0918 " fill="none" style="stroke:#181818;stroke-width:0.5;"/><rect fill="#E2E2F0" height="32.6211" rx="2.5" ry="2.5" style="stroke:#181818;stroke-width:0.5;" width="104" x="277" y="50"/><text fill="#000000" font-family="sans-serif" font-size="14" lengthAdjust="spacing" textLength="90" x="284" y="72.1074">CreatePostItUI</text><rect fill="#E2E2F0" height="32.6211" rx="2.5" ry="2.5" style="stroke:#181818;stroke-width:0.5;" width="104" x="277" y="1354.9707"/><text fill="#000000" font-family="sans-serif" font-size="14" lengthAdjust="spacing" textLength="90" x="284" y="1377.0781">CreatePostItUI</text><rect fill="#E2E2F0" height="32.6211" rx="2.5" ry="2.5" style="stroke:#181818;stroke-width:0.5;" width="154" x="645" y="50"/><text fill="#000000" font-family="sans-serif" font-size="14" lengthAdjust="spacing" textLength="140" x="652" y="72.1074">CreatePostItController</text><rect fill="#E2E2F0" height="32.6211" rx="2.5" ry="2.5" style="stroke:#181818;stroke-width:0.5;" width="154" x="645" y="1354.9707"/><text fill="#000000" font-family="sans-serif" font-size="14" lengthAdjust="spacing" textLength="140" x="652" y="1377.0781">CreatePostItController</text><rect fill="#E2E2F0" height="32.6211" rx="2.5" ry="2.5" style="stroke:#181818;stroke-width:0.5;" width="84" x="809" y="50"/><text fill="#000000" font-family="sans-serif" font-size="14" lengthAdjust="spacing" textLength="70" x="816" y="72.1074">SBProtocol</text><rect fill="#E2E2F0" height="32.6211" rx="2.5" ry="2.5" style="stroke:#181818;stroke-width:0.5;" width="84" x="809" y="1354.9707"/><text fill="#000000" font-family="sans-serif" font-size="14" lengthAdjust="spacing" textLength="70" x="816" y="1377.0781">SBProtocol</text><rect fill="#FFFFFF" height="1253.3496" style="stroke:#181818;stroke-width:1.0;" width="10" x="47" y="93.6211"/><rect fill="#FFFFFF" height="378.4922" style="stroke:#181818;stroke-width:1.0;" width="10" x="324" y="116.9121"/><rect fill="#FFFFFF" height="262.9102" style="stroke:#181818;stroke-width:1.0;" width="10" x="324" y="526.6953"/><rect fill="#FFFFFF" height="514.0742" style="stroke:#181818;stroke-width:1.0;" width="10" x="324" y="820.8965"/><rect fill="#FFFFFF" height="227.0371" style="stroke:#181818;stroke-width:1.0;" width="10" x="717" y="168.4941"/><rect fill="#FFFFFF" height="34.291" style="stroke:#181818;stroke-width:1.0;" width="10" x="717" y="429.8223"/><rect fill="#FFFFFF" height="31.291" style="stroke:#181818;stroke-width:1.0;" width="10" x="717" y="709.7324"/><rect fill="#FFFFFF" height="68.582" style="stroke:#181818;stroke-width:1.0;" width="10" x="717" y="933.7695"/><rect fill="#FFFFFF" height="205.7461" style="stroke:#181818;stroke-width:1.0;" width="10" x="717" y="1033.6426"/><rect fill="#FFFFFF" height="30" style="stroke:#181818;stroke-width:1.0;" width="10" x="717" y="1304.9707"/><rect fill="#FFFFFF" height="131.1641" style="stroke:#181818;stroke-width:1.0;" width="10" x="846" y="264.3672"/><rect fill="#FFFFFF" height="174.4551" style="stroke:#181818;stroke-width:1.0;" width="10" x="846" y="1064.9336"/><polygon fill="#181818" points="312,112.9121,322,116.9121,312,120.9121,316,116.9121" style="stroke:#181818;stroke-width:1.0;"/><line style="stroke:#181818;stroke-width:1.0;" x1="57" x2="318" y1="116.9121" y2="116.9121"/><text fill="#000000" font-family="sans-serif" font-size="13" lengthAdjust="spacing" textLength="78" x="64" y="111.6494">create Post-It</text><polygon fill="#181818" points="705,164.4941,715,168.4941,705,172.4941,709,168.4941" style="stroke:#181818;stroke-width:1.0;"/><line style="stroke:#181818;stroke-width:1.0;" x1="334" x2="711" y1="168.4941" y2="168.4941"/><text fill="#000000" font-family="sans-serif" font-size="13" lengthAdjust="spacing" textLength="156" x="341" y="163.2314">create(serverIP, serverPort)</text><path d="M732,129.9121 L732,190.9121 L960,190.9121 L960,139.9121 L950,129.9121 L732,129.9121 " fill="#FEFFDD" style="stroke:#181818;stroke-width:0.5;"/><path d="M950,129.9121 L950,139.9121 L960,139.9121 L950,129.9121 " fill="#FEFFDD" style="stroke:#181818;stroke-width:0.5;"/><text fill="#000000" font-family="sans-serif" font-size="13" lengthAdjust="spacing" textLength="141" x="738" y="148.9404">create Socket as "sock"</text><text fill="#000000" font-family="sans-serif" font-size="13" lengthAdjust="spacing" textLength="188" x="738" y="166.2314">create DataInputStream as "inS"</text><text fill="#000000" font-family="sans-serif" font-size="13" lengthAdjust="spacing" textLength="207" x="738" y="183.5225">create DataOutputStream as "outS"</text><line style="stroke:#181818;stroke-width:1.0;" x1="727" x2="769" y1="220.0762" y2="220.0762"/><line style="stroke:#181818;stroke-width:1.0;" x1="769" x2="769" y1="220.0762" y2="233.0762"/><line style="stroke:#181818;stroke-width:1.0;" x1="728" x2="769" y1="233.0762" y2="233.0762"/><polygon fill="#181818" points="738,229.0762,728,233.0762,738,237.0762,734,233.0762" style="stroke:#181818;stroke-width:1.0;"/><text fill="#000000" font-family="sans-serif" font-size="13" lengthAdjust="spacing" textLength="101" x="734" y="214.8135">canCreatePostIt()</text><polygon fill="#181818" points="834,260.3672,844,264.3672,834,268.3672,838,264.3672" style="stroke:#181818;stroke-width:1.0;"/><line style="stroke:#181818;stroke-width:1.0;" x1="727" x2="840" y1="264.3672" y2="264.3672"/><text fill="#000000" font-family="sans-serif" font-size="13" lengthAdjust="spacing" textLength="44" x="734" y="259.1045">create()</text><polygon fill="#181818" points="834,291.6582,844,295.6582,834,299.6582,838,295.6582" style="stroke:#181818;stroke-width:1.0;"/><line style="stroke:#181818;stroke-width:1.0;" x1="727" x2="840" y1="295.6582" y2="295.6582"/><text fill="#000000" font-family="sans-serif" font-size="13" lengthAdjust="spacing" textLength="63" x="734" y="290.3955">send(outS)</text><path d="M732,308.6582 L732,335.6582 L908,335.6582 L908,318.6582 L898,308.6582 L732,308.6582 " fill="#FEFFDD" style="stroke:#181818;stroke-width:0.5;"/><path d="M898,308.6582 L898,318.6582 L908,318.6582 L898,308.6582 " fill="#FEFFDD" style="stroke:#181818;stroke-width:0.5;"/><text fill="#000000" font-family="sans-serif" font-size="13" lengthAdjust="spacing" textLength="155" x="738" y="327.6865">check CreatePostItHandler</text><polygon fill="#181818" points="834,360.2402,844,364.2402,834,368.2402,838,364.2402" style="stroke:#181818;stroke-width:1.0;"/><line style="stroke:#181818;stroke-width:1.0;" x1="727" x2="840" y1="364.2402" y2="364.2402"/><text fill="#000000" font-family="sans-serif" font-size="13" lengthAdjust="spacing" textLength="63" x="734" y="358.9775">create(inS)</text><polygon fill="#181818" points="733,391.5313,723,395.5313,733,399.5313,729,395.5313" style="stroke:#181818;stroke-width:1.0;"/><line style="stroke:#181818;stroke-width:1.0;stroke-dasharray:2.0,2.0;" x1="727" x2="850" y1="395.5313" y2="395.5313"/><text fill="#000000" font-family="sans-serif" font-size="13" lengthAdjust="spacing" textLength="39" x="739" y="390.2686">boards</text><polygon fill="#181818" points="705,425.8223,715,429.8223,705,433.8223,709,429.8223" style="stroke:#181818;stroke-width:1.0;"/><line style="stroke:#181818;stroke-width:1.0;" x1="334" x2="711" y1="429.8223" y2="429.8223"/><text fill="#000000" font-family="sans-serif" font-size="13" lengthAdjust="spacing" textLength="88" x="341" y="424.5596">getBoardsList()</text><path d="M732,408.5313 L732,435.5313 L853,435.5313 L853,418.5313 L843,408.5313 L732,408.5313 " fill="#FEFFDD" style="stroke:#181818;stroke-width:0.5;"/><path d="M843,408.5313 L843,418.5313 L853,418.5313 L843,408.5313 " fill="#FEFFDD" style="stroke:#181818;stroke-width:0.5;"/><text fill="#000000" font-family="sans-serif" font-size="13" lengthAdjust="spacing" textLength="100" x="738" y="427.5596">parse each board</text><polygon fill="#181818" points="345,460.1133,335,464.1133,345,468.1133,341,464.1133" style="stroke:#181818;stroke-width:1.0;"/><line style="stroke:#181818;stroke-width:1.0;stroke-dasharray:2.0,2.0;" x1="339" x2="721" y1="464.1133" y2="464.1133"/><text fill="#000000" font-family="sans-serif" font-size="13" lengthAdjust="spacing" textLength="58" x="351" y="458.8506">listBoards</text><polygon fill="#181818" points="68,491.4043,58,495.4043,68,499.4043,64,495.4043" style="stroke:#181818;stroke-width:1.0;"/><line style="stroke:#181818;stroke-width:1.0;stroke-dasharray:2.0,2.0;" x1="62" x2="328" y1="495.4043" y2="495.4043"/><text fill="#000000" font-family="sans-serif" font-size="13" lengthAdjust="spacing" textLength="108" x="74" y="490.1416">show list of boards</text><polygon fill="#181818" points="312,522.6953,322,526.6953,312,530.6953,316,526.6953" style="stroke:#181818;stroke-width:1.0;"/><line style="stroke:#181818;stroke-width:1.0;" x1="57" x2="318" y1="526.6953" y2="526.6953"/><text fill="#000000" font-family="sans-serif" font-size="13" lengthAdjust="spacing" textLength="222" x="64" y="521.4326">chooses a board to create a Post-It on</text><polygon fill="#181818" points="68,605.8594,58,609.8594,68,613.8594,64,609.8594" style="stroke:#181818;stroke-width:1.0;"/><line style="stroke:#181818;stroke-width:1.0;stroke-dasharray:2.0,2.0;" x1="62" x2="323" y1="609.8594" y2="609.8594"/><text fill="#000000" font-family="sans-serif" font-size="13" lengthAdjust="spacing" textLength="202" x="74" y="552.7236">shows the user the number of rows</text><text fill="#000000" font-family="sans-serif" font-size="13" lengthAdjust="spacing" textLength="190" x="74" y="570.0146">and columns and ask the user to</text><text fill="#000000" font-family="sans-serif" font-size="13" lengthAdjust="spacing" textLength="214" x="74" y="587.3057">choose the cell to create a Post-It on</text><text fill="#000000" font-family="sans-serif" font-size="13" lengthAdjust="spacing" textLength="243" x="74" y="604.5967">respecting the limits of rows and collumns</text><polygon fill="#181818" points="312,637.1504,322,641.1504,312,645.1504,316,641.1504" style="stroke:#181818;stroke-width:1.0;"/><line style="stroke:#181818;stroke-width:1.0;" x1="57" x2="318" y1="641.1504" y2="641.1504"/><text fill="#000000" font-family="sans-serif" font-size="13" lengthAdjust="spacing" textLength="223" x="64" y="635.8877">chooses the cell to allocate the Post-It</text><path d="M339,654.1504 L339,681.1504 L783,681.1504 L783,664.1504 L773,654.1504 L339,654.1504 " fill="#FEFFDD" style="stroke:#181818;stroke-width:0.5;"/><path d="M773,654.1504 L773,664.1504 L783,664.1504 L773,654.1504 " fill="#FEFFDD" style="stroke:#181818;stroke-width:0.5;"/><text fill="#000000" font-family="sans-serif" font-size="13" lengthAdjust="spacing" textLength="423" x="345" y="673.1787">"arr" because reads from console in format "row,columns", checks values</text><polygon fill="#181818" points="705,705.7324,715,709.7324,705,713.7324,709,709.7324" style="stroke:#181818;stroke-width:1.0;"/><line style="stroke:#181818;stroke-width:1.0;" x1="334" x2="711" y1="709.7324" y2="709.7324"/><text fill="#000000" font-family="sans-serif" font-size="13" lengthAdjust="spacing" textLength="243" x="341" y="704.4697">isCellIdValid(arr, numRows, numColumns)</text><polygon fill="#181818" points="345,737.0234,335,741.0234,345,745.0234,341,741.0234" style="stroke:#181818;stroke-width:1.0;"/><line style="stroke:#181818;stroke-width:1.0;stroke-dasharray:2.0,2.0;" x1="339" x2="721" y1="741.0234" y2="741.0234"/><text fill="#000000" font-family="sans-serif" font-size="13" lengthAdjust="spacing" textLength="53" x="351" y="735.7607">true/false</text><polygon fill="#181818" points="68,785.6055,58,789.6055,68,793.6055,64,789.6055" style="stroke:#181818;stroke-width:1.0;"/><line style="stroke:#181818;stroke-width:1.0;stroke-dasharray:2.0,2.0;" x1="62" x2="328" y1="789.6055" y2="789.6055"/><text fill="#000000" font-family="sans-serif" font-size="13" lengthAdjust="spacing" textLength="126" x="74" y="767.0518">asks the content type</text><text fill="#000000" font-family="sans-serif" font-size="13" lengthAdjust="spacing" textLength="112" x="74" y="784.3428">either text or image</text><polygon fill="#181818" points="312,816.8965,322,820.8965,312,824.8965,316,820.8965" style="stroke:#181818;stroke-width:1.0;"/><line style="stroke:#181818;stroke-width:1.0;" x1="57" x2="318" y1="820.8965" y2="820.8965"/><text fill="#000000" font-family="sans-serif" font-size="13" lengthAdjust="spacing" textLength="129" x="64" y="815.6338">chooses text or image</text><path d="M339,833.8965 L339,860.8965 L510,860.8965 L510,843.8965 L500,833.8965 L339,833.8965 " fill="#FEFFDD" style="stroke:#181818;stroke-width:0.5;"/><path d="M500,833.8965 L500,843.8965 L510,843.8965 L500,833.8965 " fill="#FEFFDD" style="stroke:#181818;stroke-width:0.5;"/><text fill="#000000" font-family="sans-serif" font-size="13" lengthAdjust="spacing" textLength="150" x="345" y="852.9248">in case choice was image</text><line style="stroke:#181818;stroke-width:1.0;" x1="334" x2="376" y1="889.4785" y2="889.4785"/><line style="stroke:#181818;stroke-width:1.0;" x1="376" x2="376" y1="889.4785" y2="902.4785"/><line style="stroke:#181818;stroke-width:1.0;" x1="335" x2="376" y1="902.4785" y2="902.4785"/><polygon fill="#181818" points="345,898.4785,335,902.4785,345,906.4785,341,902.4785" style="stroke:#181818;stroke-width:1.0;"/><text fill="#000000" font-family="sans-serif" font-size="13" lengthAdjust="spacing" textLength="103" x="341" y="884.2158">file = chooseFile()</text><polygon fill="#181818" points="705,929.7695,715,933.7695,705,937.7695,709,933.7695" style="stroke:#181818;stroke-width:1.0;"/><line style="stroke:#181818;stroke-width:1.0;" x1="334" x2="711" y1="933.7695" y2="933.7695"/><text fill="#000000" font-family="sans-serif" font-size="13" lengthAdjust="spacing" textLength="364" x="341" y="928.5068">createBoardPositionTextString(boardChosen, position, content)</text><path d="M732,946.7695 L732,973.7695 L947,973.7695 L947,956.7695 L937,946.7695 L732,946.7695 " fill="#FEFFDD" style="stroke:#181818;stroke-width:0.5;"/><path d="M937,946.7695 L937,956.7695 L947,956.7695 L937,946.7695 " fill="#FEFFDD" style="stroke:#181818;stroke-width:0.5;"/><text fill="#000000" font-family="sans-serif" font-size="13" lengthAdjust="spacing" textLength="194" x="738" y="965.7979">appends all information into string</text><polygon fill="#181818" points="345,998.3516,335,1002.3516,345,1006.3516,341,1002.3516" style="stroke:#181818;stroke-width:1.0;"/><line style="stroke:#181818;stroke-width:1.0;stroke-dasharray:2.0,2.0;" x1="339" x2="721" y1="1002.3516" y2="1002.3516"/><text fill="#000000" font-family="sans-serif" font-size="13" lengthAdjust="spacing" textLength="32" x="351" y="997.0889">string</text><polygon fill="#181818" points="705,1029.6426,715,1033.6426,705,1037.6426,709,1033.6426" style="stroke:#181818;stroke-width:1.0;"/><line style="stroke:#181818;stroke-width:1.0;" x1="334" x2="711" y1="1033.6426" y2="1033.6426"/><text fill="#000000" font-family="sans-serif" font-size="13" lengthAdjust="spacing" textLength="110" x="341" y="1028.3799">createPostIt(string)</text><polygon fill="#181818" points="834,1060.9336,844,1064.9336,834,1068.9336,838,1064.9336" style="stroke:#181818;stroke-width:1.0;"/><line style="stroke:#181818;stroke-width:1.0;" x1="727" x2="840" y1="1064.9336" y2="1064.9336"/><text fill="#000000" font-family="sans-serif" font-size="13" lengthAdjust="spacing" textLength="44" x="734" y="1059.6709">create()</text><polygon fill="#181818" points="834,1095.2246,844,1099.2246,834,1103.2246,838,1099.2246" style="stroke:#181818;stroke-width:1.0;"/><line style="stroke:#181818;stroke-width:1.0;" x1="727" x2="840" y1="1099.2246" y2="1099.2246"/><text fill="#000000" font-family="sans-serif" font-size="13" lengthAdjust="spacing" textLength="63" x="734" y="1093.9619">send(outS)</text><path d="M861,1077.9336 L861,1104.9336 L1037,1104.9336 L1037,1087.9336 L1027,1077.9336 L861,1077.9336 " fill="#FEFFDD" style="stroke:#181818;stroke-width:0.5;"/><path d="M1027,1077.9336 L1027,1087.9336 L1037,1087.9336 L1027,1077.9336 " fill="#FEFFDD" style="stroke:#181818;stroke-width:0.5;"/><text fill="#000000" font-family="sans-serif" font-size="13" lengthAdjust="spacing" textLength="155" x="867" y="1096.9619">send string with all content</text><path d="M732,1115.2246 L732,1142.2246 L908,1142.2246 L908,1125.2246 L898,1115.2246 L732,1115.2246 " fill="#FEFFDD" style="stroke:#181818;stroke-width:0.5;"/><path d="M898,1115.2246 L898,1125.2246 L908,1125.2246 L898,1115.2246 " fill="#FEFFDD" style="stroke:#181818;stroke-width:0.5;"/><text fill="#000000" font-family="sans-serif" font-size="13" lengthAdjust="spacing" textLength="155" x="738" y="1134.2529">check CreatePostItHandler</text><polygon fill="#181818" points="834,1166.8066,844,1170.8066,834,1174.8066,838,1170.8066" style="stroke:#181818;stroke-width:1.0;"/><line style="stroke:#181818;stroke-width:1.0;" x1="727" x2="840" y1="1170.8066" y2="1170.8066"/><text fill="#000000" font-family="sans-serif" font-size="13" lengthAdjust="spacing" textLength="63" x="734" y="1165.5439">create(inS)</text><path d="M732,1183.8066 L732,1210.8066 L984,1210.8066 L984,1193.8066 L974,1183.8066 L732,1183.8066 " fill="#FEFFDD" style="stroke:#181818;stroke-width:0.5;"/><path d="M974,1183.8066 L974,1193.8066 L984,1193.8066 L974,1183.8066 " fill="#FEFFDD" style="stroke:#181818;stroke-width:0.5;"/><text fill="#000000" font-family="sans-serif" font-size="13" lengthAdjust="spacing" textLength="231" x="738" y="1202.835">receives info of success of the operation</text><polygon fill="#181818" points="345,1235.3887,335,1239.3887,345,1243.3887,341,1239.3887" style="stroke:#181818;stroke-width:1.0;"/><line style="stroke:#181818;stroke-width:1.0;stroke-dasharray:2.0,2.0;" x1="339" x2="721" y1="1239.3887" y2="1239.3887"/><text fill="#000000" font-family="sans-serif" font-size="13" lengthAdjust="spacing" textLength="53" x="351" y="1234.126">true/false</text><polygon fill="#181818" points="68,1266.6797,58,1270.6797,68,1274.6797,64,1270.6797" style="stroke:#181818;stroke-width:1.0;"/><line style="stroke:#181818;stroke-width:1.0;stroke-dasharray:2.0,2.0;" x1="62" x2="323" y1="1270.6797" y2="1270.6797"/><text fill="#000000" font-family="sans-serif" font-size="13" lengthAdjust="spacing" textLength="237" x="74" y="1265.417">informs if Post-it was create successfully</text><polygon fill="#181818" points="705,1300.9707,715,1304.9707,705,1308.9707,709,1304.9707" style="stroke:#181818;stroke-width:1.0;"/><line style="stroke:#181818;stroke-width:1.0;" x1="334" x2="711" y1="1304.9707" y2="1304.9707"/><text fill="#000000" font-family="sans-serif" font-size="13" lengthAdjust="spacing" textLength="39" x="341" y="1299.708">close()</text><path d="M732,1283.6797 L732,1310.6797 L827,1310.6797 L827,1293.6797 L817,1283.6797 L732,1283.6797 " fill="#FEFFDD" style="stroke:#181818;stroke-width:0.5;"/><path d="M817,1283.6797 L817,1293.6797 L827,1293.6797 L817,1283.6797 " fill="#FEFFDD" style="stroke:#181818;stroke-width:0.5;"/><text fill="#000000" font-family="sans-serif" font-size="13" lengthAdjust="spacing" textLength="74" x="738" y="1302.708">close socket</text><!--SRC=[pLPDRnen4BtlhnXn0eceTwHMQgYg8bKgAcrFN8mPm8gnLxQNDF- -pnzBTc59efpgGsJivvddDy-p4J9OHwlxvLmhDk5pNPFmr7XsLIrSK5BLmWIQEnQ1bzQ7HVYzI11r4p2t9ZYhDRi8bC7f7XJ9d0rMMXst_QQkC8GCweG8ENNyGtUVa8HcCaMc6Ffk4Jf0LLM40GoGCKkB7UFqYTrYEQKyMreN9WbiB4uwjJ-46PN0AoiVE4Gg8u_fQ6tAnXSHnCBKJLW5B1mJGfbL7_2Z2Ns4nQzHodLccXIWCXBHGdWcXUaADvvKLpZeGotNyUIyVGuUzQFEw9_pRBRZI6dI0ptBG7QNgP0yi7perV6RC5iKyONmXHPKwSUFktVj9MbZXTlwCs3BL-GxIqciYyBEQC_XFaNvhdmeCWphsxdQZ60xpuJWXqpYGjtai1bfnCpHgvVPH7nq9dGzsCTqBkfNxbTrpaLpTaqCTQtrx4baD0NR-a-qrYPh-kw-Jkaf7F8JIHFJ73UOWeB3tjgWNeHdrHmD4c4k_4FdW8Ln4ukq9bdh6opMnh6l6LJCFc6rEghWspnKqgGymxVi9X1QMnbJnCNs5LVLjGrZAKR2kH5jM0h49L3RUjevUqG-uwrcKePsrXr5e16uJCjjHzDiNqydeHlsLus1b9-3psBxHsYr7IFBDAht4zT9atcECtdruROt3QxX3pkXFGzRPi0pg4PH1lqHlPR2KyrhmmfhA0__XGgEr57i-S9AATQWphr3FUvjUxpM619A0NKHH4ccHtIjv_DPj9Hafw3tnvBhAtwqxQadRFPFUZuehWhAcbzWXOu8zuoJsUS7131Jgil-j5NWZU-ujAWeOLsZeVdeALmZ6m41COVHV4fverwTpTkrwdz6Ia_E9oTlQEd_MQlkTi8Ol6X0Zp1SKh1KuHtzVR0uZYMh4rmPAnFNVICb-zGtekrjpIwLQo3XmBDwr_VY-RLbUu3CBZST5PBJIxihr7QDra_LaAirBFlsxqo2aq__IGmIlFWqOFm3]--></g></svg>