<?xml version="1.0" encoding="us-ascii" standalone="no"?><svg xmlns="http://www.w3.org/2000/svg" xmlns:xlink="http://www.w3.org/1999/xlink" contentStyleType="text/css" height="1125.6px" preserveAspectRatio="none" style="width:835px;height:1125px;background:#FFFFFF;" version="1.1" viewBox="0 0 835 1125" width="835.2px" zoomAndPan="magnify"><defs/><g><rect fill="#FFFFFF" height="977.6469" style="stroke:#181818;stroke-width:0.8000000000000002;" width="8" x="37.6" y="74.8969"/><rect fill="#FFFFFF" height="302.7938" style="stroke:#181818;stroke-width:0.8000000000000002;" width="8" x="259.2" y="93.5297"/><rect fill="#FFFFFF" height="621.5875" style="stroke:#181818;stroke-width:0.8000000000000002;" width="8" x="259.2" y="421.3563"/><rect fill="#FFFFFF" height="181.6297" style="stroke:#181818;stroke-width:0.8000000000000002;" width="8" x="573.6" y="134.7953"/><rect fill="#FFFFFF" height="27.4328" style="stroke:#181818;stroke-width:0.8000000000000002;" width="8" x="573.6" y="343.8578"/><rect fill="#FFFFFF" height="25.0328" style="stroke:#181818;stroke-width:0.8000000000000002;" width="8" x="573.6" y="567.7859"/><rect fill="#FFFFFF" height="54.8656" style="stroke:#181818;stroke-width:0.8000000000000002;" width="8" x="573.6" y="721.9828"/><rect fill="#FFFFFF" height="164.5969" style="stroke:#181818;stroke-width:0.8000000000000002;" width="8" x="573.6" y="801.8813"/><rect fill="#FFFFFF" height="24" style="stroke:#181818;stroke-width:0.8000000000000002;" width="8" x="573.6" y="1018.9438"/><rect fill="#FFFFFF" height="104.9313" style="stroke:#181818;stroke-width:0.8000000000000002;" width="8" x="676.8" y="211.4938"/><rect fill="#FFFFFF" height="139.5641" style="stroke:#181818;stroke-width:0.8000000000000002;" width="8" x="676.8" y="826.9141"/><line style="stroke:#181818;stroke-width:0.4000000000000001;stroke-dasharray:5.0,5.0;" x1="41.6" x2="41.6" y1="66.8969" y2="1059.7438"/><line style="stroke:#181818;stroke-width:0.4000000000000001;stroke-dasharray:5.0,5.0;" x1="263.2" x2="263.2" y1="66.8969" y2="1059.7438"/><line style="stroke:#181818;stroke-width:0.4000000000000001;stroke-dasharray:5.0,5.0;" x1="577.6" x2="577.6" y1="66.8969" y2="1059.7438"/><line style="stroke:#181818;stroke-width:0.4000000000000001;stroke-dasharray:5.0,5.0;" x1="680.8" x2="680.8" y1="66.8969" y2="1059.7438"/><text fill="#000000" font-family="sans-serif" font-size="11.2" lengthAdjust="spacing" textLength="70.4" x="4" y="64.0859">SBPClientApp</text><ellipse cx="41.6" cy="10.8" fill="#E2E2F0" rx="6.4" ry="6.4" style="stroke:#181818;stroke-width:0.4000000000000001;"/><path d="M41.6,17.2 L41.6,38.8 M31.2,23.6 L52,23.6 M41.6,38.8 L31.2,50.8 M41.6,38.8 L52,50.8 " fill="none" style="stroke:#181818;stroke-width:0.4000000000000001;"/><text fill="#000000" font-family="sans-serif" font-size="11.2" lengthAdjust="spacing" textLength="70.4" x="4" y="1071.0297">SBPClientApp</text><ellipse cx="41.6" cy="1080.6406" fill="#E2E2F0" rx="6.4" ry="6.4" style="stroke:#181818;stroke-width:0.4000000000000001;"/><path d="M41.6,1087.0406 L41.6,1108.6406 M31.2,1093.4406 L52,1093.4406 M41.6,1108.6406 L31.2,1120.6406 M41.6,1108.6406 L52,1120.6406 " fill="none" style="stroke:#181818;stroke-width:0.4000000000000001;"/><rect fill="#E2E2F0" height="26.0969" rx="2" ry="2" style="stroke:#181818;stroke-width:0.4000000000000001;" width="83.2" x="221.6" y="40"/><text fill="#000000" font-family="sans-serif" font-size="11.2" lengthAdjust="spacing" textLength="72" x="227.2" y="57.6859">CreatePostItUI</text><rect fill="#E2E2F0" height="26.0969" rx="2" ry="2" style="stroke:#181818;stroke-width:0.4000000000000001;" width="83.2" x="221.6" y="1058.9438"/><text fill="#000000" font-family="sans-serif" font-size="11.2" lengthAdjust="spacing" textLength="72" x="227.2" y="1076.6297">CreatePostItUI</text><rect fill="#E2E2F0" height="26.0969" rx="2" ry="2" style="stroke:#181818;stroke-width:0.4000000000000001;" width="123.2" x="516" y="40"/><text fill="#000000" font-family="sans-serif" font-size="11.2" lengthAdjust="spacing" textLength="112" x="521.6" y="57.6859">CreatePostItController</text><rect fill="#E2E2F0" height="26.0969" rx="2" ry="2" style="stroke:#181818;stroke-width:0.4000000000000001;" width="123.2" x="516" y="1058.9438"/><text fill="#000000" font-family="sans-serif" font-size="11.2" lengthAdjust="spacing" textLength="112" x="521.6" y="1076.6297">CreatePostItController</text><rect fill="#E2E2F0" height="26.0969" rx="2" ry="2" style="stroke:#181818;stroke-width:0.4000000000000001;" width="67.2" x="647.2" y="40"/><text fill="#000000" font-family="sans-serif" font-size="11.2" lengthAdjust="spacing" textLength="56" x="652.8" y="57.6859">SBProtocol</text><rect fill="#E2E2F0" height="26.0969" rx="2" ry="2" style="stroke:#181818;stroke-width:0.4000000000000001;" width="67.2" x="647.2" y="1058.9438"/><text fill="#000000" font-family="sans-serif" font-size="11.2" lengthAdjust="spacing" textLength="56" x="652.8" y="1076.6297">SBProtocol</text><rect fill="#FFFFFF" height="977.6469" style="stroke:#181818;stroke-width:0.8000000000000002;" width="8" x="37.6" y="74.8969"/><rect fill="#FFFFFF" height="302.7938" style="stroke:#181818;stroke-width:0.8000000000000002;" width="8" x="259.2" y="93.5297"/><rect fill="#FFFFFF" height="621.5875" style="stroke:#181818;stroke-width:0.8000000000000002;" width="8" x="259.2" y="421.3563"/><rect fill="#FFFFFF" height="181.6297" style="stroke:#181818;stroke-width:0.8000000000000002;" width="8" x="573.6" y="134.7953"/><rect fill="#FFFFFF" height="27.4328" style="stroke:#181818;stroke-width:0.8000000000000002;" width="8" x="573.6" y="343.8578"/><rect fill="#FFFFFF" height="25.0328" style="stroke:#181818;stroke-width:0.8000000000000002;" width="8" x="573.6" y="567.7859"/><rect fill="#FFFFFF" height="54.8656" style="stroke:#181818;stroke-width:0.8000000000000002;" width="8" x="573.6" y="721.9828"/><rect fill="#FFFFFF" height="164.5969" style="stroke:#181818;stroke-width:0.8000000000000002;" width="8" x="573.6" y="801.8813"/><rect fill="#FFFFFF" height="24" style="stroke:#181818;stroke-width:0.8000000000000002;" width="8" x="573.6" y="1018.9438"/><rect fill="#FFFFFF" height="104.9313" style="stroke:#181818;stroke-width:0.8000000000000002;" width="8" x="676.8" y="211.4938"/><rect fill="#FFFFFF" height="139.5641" style="stroke:#181818;stroke-width:0.8000000000000002;" width="8" x="676.8" y="826.9141"/><polygon fill="#181818" points="249.6,90.3297,257.6,93.5297,249.6,96.7297,252.8,93.5297" style="stroke:#181818;stroke-width:0.8000000000000002;"/><line style="stroke:#181818;stroke-width:0.8000000000000002;" x1="45.6" x2="254.4" y1="93.5297" y2="93.5297"/><text fill="#000000" font-family="sans-serif" font-size="10.4" lengthAdjust="spacing" textLength="62.4" x="51.2" y="89.3195">create Post-It</text><polygon fill="#181818" points="564,131.5953,572,134.7953,564,137.9953,567.2,134.7953" style="stroke:#181818;stroke-width:0.8000000000000002;"/><line style="stroke:#181818;stroke-width:0.8000000000000002;" x1="267.2" x2="568.8" y1="134.7953" y2="134.7953"/><text fill="#000000" font-family="sans-serif" font-size="10.4" lengthAdjust="spacing" textLength="124.8" x="272.8" y="130.5852">create(serverIP, serverPort)</text><path d="M585.6,103.9297 L585.6,152.7297 L768,152.7297 L768,111.9297 L760,103.9297 L585.6,103.9297 " fill="#FEFFDD" style="stroke:#181818;stroke-width:0.4000000000000001;"/><path d="M760,103.9297 L760,111.9297 L768,111.9297 L760,103.9297 " fill="#FEFFDD" style="stroke:#181818;stroke-width:0.4000000000000001;"/><text fill="#000000" font-family="sans-serif" font-size="10.4" lengthAdjust="spacing" textLength="112.8" x="590.4" y="119.1523">create Socket as "sock"</text><text fill="#000000" font-family="sans-serif" font-size="10.4" lengthAdjust="spacing" textLength="150.4" x="590.4" y="132.9852">create DataInputStream as "inS"</text><text fill="#000000" font-family="sans-serif" font-size="10.4" lengthAdjust="spacing" textLength="165.6" x="590.4" y="146.818">create DataOutputStream as "outS"</text><line style="stroke:#181818;stroke-width:0.8000000000000002;" x1="581.6" x2="615.2" y1="176.0609" y2="176.0609"/><line style="stroke:#181818;stroke-width:0.8000000000000002;" x1="615.2" x2="615.2" y1="176.0609" y2="186.4609"/><line style="stroke:#181818;stroke-width:0.8000000000000002;" x1="582.4" x2="615.2" y1="186.4609" y2="186.4609"/><polygon fill="#181818" points="590.4,183.2609,582.4,186.4609,590.4,189.6609,587.2,186.4609" style="stroke:#181818;stroke-width:0.8000000000000002;"/><text fill="#000000" font-family="sans-serif" font-size="10.4" lengthAdjust="spacing" textLength="80.8" x="587.2" y="171.8508">canCreatePostIt()</text><polygon fill="#181818" points="667.2,208.2938,675.2,211.4938,667.2,214.6938,670.4,211.4938" style="stroke:#181818;stroke-width:0.8000000000000002;"/><line style="stroke:#181818;stroke-width:0.8000000000000002;" x1="581.6" x2="672" y1="211.4938" y2="211.4938"/><text fill="#000000" font-family="sans-serif" font-size="10.4" lengthAdjust="spacing" textLength="35.2" x="587.2" y="207.2836">create()</text><polygon fill="#181818" points="667.2,233.3266,675.2,236.5266,667.2,239.7266,670.4,236.5266" style="stroke:#181818;stroke-width:0.8000000000000002;"/><line style="stroke:#181818;stroke-width:0.8000000000000002;" x1="581.6" x2="672" y1="236.5266" y2="236.5266"/><text fill="#000000" font-family="sans-serif" font-size="10.4" lengthAdjust="spacing" textLength="50.4" x="587.2" y="232.3164">send(outS)</text><path d="M585.6,246.9266 L585.6,268.5266 L726.4,268.5266 L726.4,254.9266 L718.4,246.9266 L585.6,246.9266 " fill="#FEFFDD" style="stroke:#181818;stroke-width:0.4000000000000001;"/><path d="M718.4,246.9266 L718.4,254.9266 L726.4,254.9266 L718.4,246.9266 " fill="#FEFFDD" style="stroke:#181818;stroke-width:0.4000000000000001;"/><text fill="#000000" font-family="sans-serif" font-size="10.4" lengthAdjust="spacing" textLength="124" x="590.4" y="262.1492">check CreatePostItHandler</text><polygon fill="#181818" points="667.2,288.1922,675.2,291.3922,667.2,294.5922,670.4,291.3922" style="stroke:#181818;stroke-width:0.8000000000000002;"/><line style="stroke:#181818;stroke-width:0.8000000000000002;" x1="581.6" x2="672" y1="291.3922" y2="291.3922"/><text fill="#000000" font-family="sans-serif" font-size="10.4" lengthAdjust="spacing" textLength="50.4" x="587.2" y="287.182">create(inS)</text><polygon fill="#181818" points="586.4,313.225,578.4,316.425,586.4,319.625,583.2,316.425" style="stroke:#181818;stroke-width:0.8000000000000002;"/><line style="stroke:#181818;stroke-width:0.8000000000000002;stroke-dasharray:2.0,2.0;" x1="581.6" x2="680" y1="316.425" y2="316.425"/><text fill="#000000" font-family="sans-serif" font-size="10.4" lengthAdjust="spacing" textLength="31.2" x="591.2" y="312.2148">boards</text><polygon fill="#181818" points="564,340.6578,572,343.8578,564,347.0578,567.2,343.8578" style="stroke:#181818;stroke-width:0.8000000000000002;"/><line style="stroke:#181818;stroke-width:0.8000000000000002;" x1="267.2" x2="568.8" y1="343.8578" y2="343.8578"/><text fill="#000000" font-family="sans-serif" font-size="10.4" lengthAdjust="spacing" textLength="70.4" x="272.8" y="339.6477">getBoardsList()</text><path d="M585.6,326.825 L585.6,348.425 L682.4,348.425 L682.4,334.825 L674.4,326.825 L585.6,326.825 " fill="#FEFFDD" style="stroke:#181818;stroke-width:0.4000000000000001;"/><path d="M674.4,326.825 L674.4,334.825 L682.4,334.825 L674.4,326.825 " fill="#FEFFDD" style="stroke:#181818;stroke-width:0.4000000000000001;"/><text fill="#000000" font-family="sans-serif" font-size="10.4" lengthAdjust="spacing" textLength="80" x="590.4" y="342.0477">parse each board</text><polygon fill="#181818" points="276,368.0906,268,371.2906,276,374.4906,272.8,371.2906" style="stroke:#181818;stroke-width:0.8000000000000002;"/><line style="stroke:#181818;stroke-width:0.8000000000000002;stroke-dasharray:2.0,2.0;" x1="271.2" x2="576.8" y1="371.2906" y2="371.2906"/><text fill="#000000" font-family="sans-serif" font-size="10.4" lengthAdjust="spacing" textLength="46.4" x="280.8" y="367.0805">listBoards</text><polygon fill="#181818" points="54.4,393.1234,46.4,396.3234,54.4,399.5234,51.2,396.3234" style="stroke:#181818;stroke-width:0.8000000000000002;"/><line style="stroke:#181818;stroke-width:0.8000000000000002;stroke-dasharray:2.0,2.0;" x1="49.6" x2="262.4" y1="396.3234" y2="396.3234"/><text fill="#000000" font-family="sans-serif" font-size="10.4" lengthAdjust="spacing" textLength="86.4" x="59.2" y="392.1133">show list of boards</text><polygon fill="#181818" points="249.6,418.1563,257.6,421.3563,249.6,424.5563,252.8,421.3563" style="stroke:#181818;stroke-width:0.8000000000000002;"/><line style="stroke:#181818;stroke-width:0.8000000000000002;" x1="45.6" x2="254.4" y1="421.3563" y2="421.3563"/><text fill="#000000" font-family="sans-serif" font-size="10.4" lengthAdjust="spacing" textLength="177.6" x="51.2" y="417.1461">chooses a board to create a Post-It on</text><polygon fill="#181818" points="54.4,484.6875,46.4,487.8875,54.4,491.0875,51.2,487.8875" style="stroke:#181818;stroke-width:0.8000000000000002;"/><line style="stroke:#181818;stroke-width:0.8000000000000002;stroke-dasharray:2.0,2.0;" x1="49.6" x2="258.4" y1="487.8875" y2="487.8875"/><text fill="#000000" font-family="sans-serif" font-size="10.4" lengthAdjust="spacing" textLength="161.6" x="59.2" y="442.1789">shows the user the number of rows</text><text fill="#000000" font-family="sans-serif" font-size="10.4" lengthAdjust="spacing" textLength="152" x="59.2" y="456.0117">and columns and ask the user to</text><text fill="#000000" font-family="sans-serif" font-size="10.4" lengthAdjust="spacing" textLength="171.2" x="59.2" y="469.8445">choose the cell to create a Post-It on</text><text fill="#000000" font-family="sans-serif" font-size="10.4" lengthAdjust="spacing" textLength="194.4" x="59.2" y="483.6773">respecting the limits of rows and collumns</text><polygon fill="#181818" points="249.6,509.7203,257.6,512.9203,249.6,516.1203,252.8,512.9203" style="stroke:#181818;stroke-width:0.8000000000000002;"/><line style="stroke:#181818;stroke-width:0.8000000000000002;" x1="45.6" x2="254.4" y1="512.9203" y2="512.9203"/><text fill="#000000" font-family="sans-serif" font-size="10.4" lengthAdjust="spacing" textLength="178.4" x="51.2" y="508.7102">chooses the cell to allocate the Post-It</text><path d="M271.2,523.3203 L271.2,544.9203 L626.4,544.9203 L626.4,531.3203 L618.4,523.3203 L271.2,523.3203 " fill="#FEFFDD" style="stroke:#181818;stroke-width:0.4000000000000001;"/><path d="M618.4,523.3203 L618.4,531.3203 L626.4,531.3203 L618.4,523.3203 " fill="#FEFFDD" style="stroke:#181818;stroke-width:0.4000000000000001;"/><text fill="#000000" font-family="sans-serif" font-size="10.4" lengthAdjust="spacing" textLength="338.4" x="276" y="538.543">"arr" because reads from console in format "row,columns", checks values</text><polygon fill="#181818" points="564,564.5859,572,567.7859,564,570.9859,567.2,567.7859" style="stroke:#181818;stroke-width:0.8000000000000002;"/><line style="stroke:#181818;stroke-width:0.8000000000000002;" x1="267.2" x2="568.8" y1="567.7859" y2="567.7859"/><text fill="#000000" font-family="sans-serif" font-size="10.4" lengthAdjust="spacing" textLength="194.4" x="272.8" y="563.5758">isCellIdValid(arr, numRows, numColumns)</text><polygon fill="#181818" points="276,589.6188,268,592.8188,276,596.0188,272.8,592.8188" style="stroke:#181818;stroke-width:0.8000000000000002;"/><line style="stroke:#181818;stroke-width:0.8000000000000002;stroke-dasharray:2.0,2.0;" x1="271.2" x2="576.8" y1="592.8188" y2="592.8188"/><text fill="#000000" font-family="sans-serif" font-size="10.4" lengthAdjust="spacing" textLength="42.4" x="280.8" y="588.6086">true/false</text><polygon fill="#181818" points="54.4,628.4844,46.4,631.6844,54.4,634.8844,51.2,631.6844" style="stroke:#181818;stroke-width:0.8000000000000002;"/><line style="stroke:#181818;stroke-width:0.8000000000000002;stroke-dasharray:2.0,2.0;" x1="49.6" x2="258.4" y1="631.6844" y2="631.6844"/><text fill="#000000" font-family="sans-serif" font-size="10.4" lengthAdjust="spacing" textLength="100.8" x="59.2" y="613.6414">asks the content type</text><text fill="#000000" font-family="sans-serif" font-size="10.4" lengthAdjust="spacing" textLength="89.6" x="59.2" y="627.4742">either text or image</text><path d="M271.2,642.0844 L271.2,663.6844 L408,663.6844 L408,650.0844 L400,642.0844 L271.2,642.0844 " fill="#FEFFDD" style="stroke:#181818;stroke-width:0.4000000000000001;"/><path d="M400,642.0844 L400,650.0844 L408,650.0844 L400,642.0844 " fill="#FEFFDD" style="stroke:#181818;stroke-width:0.4000000000000001;"/><text fill="#000000" font-family="sans-serif" font-size="10.4" lengthAdjust="spacing" textLength="120" x="276" y="657.307">in case choice was image</text><line style="stroke:#181818;stroke-width:0.8000000000000002;" x1="267.2" x2="300.8" y1="686.55" y2="686.55"/><line style="stroke:#181818;stroke-width:0.8000000000000002;" x1="300.8" x2="300.8" y1="686.55" y2="696.95"/><line style="stroke:#181818;stroke-width:0.8000000000000002;" x1="268" x2="300.8" y1="696.95" y2="696.95"/><polygon fill="#181818" points="276,693.75,268,696.95,276,700.15,272.8,696.95" style="stroke:#181818;stroke-width:0.8000000000000002;"/><text fill="#000000" font-family="sans-serif" font-size="10.4" lengthAdjust="spacing" textLength="82.4" x="272.8" y="682.3398">file = chooseFile()</text><polygon fill="#181818" points="564,718.7828,572,721.9828,564,725.1828,567.2,721.9828" style="stroke:#181818;stroke-width:0.8000000000000002;"/><line style="stroke:#181818;stroke-width:0.8000000000000002;" x1="267.2" x2="568.8" y1="721.9828" y2="721.9828"/><text fill="#000000" font-family="sans-serif" font-size="10.4" lengthAdjust="spacing" textLength="291.2" x="272.8" y="717.7727">createBoardPositionTextString(boardChosen, position, content)</text><path d="M585.6,732.3828 L585.6,753.9828 L757.6,753.9828 L757.6,740.3828 L749.6,732.3828 L585.6,732.3828 " fill="#FEFFDD" style="stroke:#181818;stroke-width:0.4000000000000001;"/><path d="M749.6,732.3828 L749.6,740.3828 L757.6,740.3828 L749.6,732.3828 " fill="#FEFFDD" style="stroke:#181818;stroke-width:0.4000000000000001;"/><text fill="#000000" font-family="sans-serif" font-size="10.4" lengthAdjust="spacing" textLength="155.2" x="590.4" y="747.6055">appends all information into string</text><polygon fill="#181818" points="276,773.6484,268,776.8484,276,780.0484,272.8,776.8484" style="stroke:#181818;stroke-width:0.8000000000000002;"/><line style="stroke:#181818;stroke-width:0.8000000000000002;stroke-dasharray:2.0,2.0;" x1="271.2" x2="576.8" y1="776.8484" y2="776.8484"/><text fill="#000000" font-family="sans-serif" font-size="10.4" lengthAdjust="spacing" textLength="25.6" x="280.8" y="772.6383">string</text><polygon fill="#181818" points="564,798.6813,572,801.8813,564,805.0813,567.2,801.8813" style="stroke:#181818;stroke-width:0.8000000000000002;"/><line style="stroke:#181818;stroke-width:0.8000000000000002;" x1="267.2" x2="568.8" y1="801.8813" y2="801.8813"/><text fill="#000000" font-family="sans-serif" font-size="10.4" lengthAdjust="spacing" textLength="88" x="272.8" y="797.6711">createPostIt(string)</text><polygon fill="#181818" points="667.2,823.7141,675.2,826.9141,667.2,830.1141,670.4,826.9141" style="stroke:#181818;stroke-width:0.8000000000000002;"/><line style="stroke:#181818;stroke-width:0.8000000000000002;" x1="581.6" x2="672" y1="826.9141" y2="826.9141"/><text fill="#000000" font-family="sans-serif" font-size="10.4" lengthAdjust="spacing" textLength="35.2" x="587.2" y="822.7039">create()</text><polygon fill="#181818" points="667.2,851.1469,675.2,854.3469,667.2,857.5469,670.4,854.3469" style="stroke:#181818;stroke-width:0.8000000000000002;"/><line style="stroke:#181818;stroke-width:0.8000000000000002;" x1="581.6" x2="672" y1="854.3469" y2="854.3469"/><text fill="#000000" font-family="sans-serif" font-size="10.4" lengthAdjust="spacing" textLength="50.4" x="587.2" y="850.1367">send(outS)</text><path d="M688.8,837.3141 L688.8,858.9141 L829.6,858.9141 L829.6,845.3141 L821.6,837.3141 L688.8,837.3141 " fill="#FEFFDD" style="stroke:#181818;stroke-width:0.4000000000000001;"/><path d="M821.6,837.3141 L821.6,845.3141 L829.6,845.3141 L821.6,837.3141 " fill="#FEFFDD" style="stroke:#181818;stroke-width:0.4000000000000001;"/><text fill="#000000" font-family="sans-serif" font-size="10.4" lengthAdjust="spacing" textLength="124" x="693.6" y="852.5367">send string with all content</text><path d="M585.6,867.1469 L585.6,888.7469 L726.4,888.7469 L726.4,875.1469 L718.4,867.1469 L585.6,867.1469 " fill="#FEFFDD" style="stroke:#181818;stroke-width:0.4000000000000001;"/><path d="M718.4,867.1469 L718.4,875.1469 L726.4,875.1469 L718.4,867.1469 " fill="#FEFFDD" style="stroke:#181818;stroke-width:0.4000000000000001;"/><text fill="#000000" font-family="sans-serif" font-size="10.4" lengthAdjust="spacing" textLength="124" x="590.4" y="882.3695">check CreatePostItHandler</text><polygon fill="#181818" points="667.2,908.4125,675.2,911.6125,667.2,914.8125,670.4,911.6125" style="stroke:#181818;stroke-width:0.8000000000000002;"/><line style="stroke:#181818;stroke-width:0.8000000000000002;" x1="581.6" x2="672" y1="911.6125" y2="911.6125"/><text fill="#000000" font-family="sans-serif" font-size="10.4" lengthAdjust="spacing" textLength="50.4" x="587.2" y="907.4023">create(inS)</text><path d="M585.6,922.0125 L585.6,943.6125 L787.2,943.6125 L787.2,930.0125 L779.2,922.0125 L585.6,922.0125 " fill="#FEFFDD" style="stroke:#181818;stroke-width:0.4000000000000001;"/><path d="M779.2,922.0125 L779.2,930.0125 L787.2,930.0125 L779.2,922.0125 " fill="#FEFFDD" style="stroke:#181818;stroke-width:0.4000000000000001;"/><text fill="#000000" font-family="sans-serif" font-size="10.4" lengthAdjust="spacing" textLength="184.8" x="590.4" y="937.2352">receives info of success of the operation</text><polygon fill="#181818" points="276,963.2781,268,966.4781,276,969.6781,272.8,966.4781" style="stroke:#181818;stroke-width:0.8000000000000002;"/><line style="stroke:#181818;stroke-width:0.8000000000000002;stroke-dasharray:2.0,2.0;" x1="271.2" x2="576.8" y1="966.4781" y2="966.4781"/><text fill="#000000" font-family="sans-serif" font-size="10.4" lengthAdjust="spacing" textLength="42.4" x="280.8" y="962.268">true/false</text><polygon fill="#181818" points="54.4,988.3109,46.4,991.5109,54.4,994.7109,51.2,991.5109" style="stroke:#181818;stroke-width:0.8000000000000002;"/><line style="stroke:#181818;stroke-width:0.8000000000000002;stroke-dasharray:2.0,2.0;" x1="49.6" x2="258.4" y1="991.5109" y2="991.5109"/><text fill="#000000" font-family="sans-serif" font-size="10.4" lengthAdjust="spacing" textLength="189.6" x="59.2" y="987.3008">informs if Post-it was create successfully</text><polygon fill="#181818" points="564,1015.7438,572,1018.9438,564,1022.1438,567.2,1018.9438" style="stroke:#181818;stroke-width:0.8000000000000002;"/><line style="stroke:#181818;stroke-width:0.8000000000000002;" x1="267.2" x2="568.8" y1="1018.9438" y2="1018.9438"/><text fill="#000000" font-family="sans-serif" font-size="10.4" lengthAdjust="spacing" textLength="31.2" x="272.8" y="1014.7336">close()</text><path d="M585.6,1001.9109 L585.6,1023.5109 L661.6,1023.5109 L661.6,1009.9109 L653.6,1001.9109 L585.6,1001.9109 " fill="#FEFFDD" style="stroke:#181818;stroke-width:0.4000000000000001;"/><path d="M653.6,1001.9109 L653.6,1009.9109 L661.6,1009.9109 L653.6,1001.9109 " fill="#FEFFDD" style="stroke:#181818;stroke-width:0.4000000000000001;"/><text fill="#000000" font-family="sans-serif" font-size="10.4" lengthAdjust="spacing" textLength="59.2" x="590.4" y="1017.1336">close socket</text><!--SRC=[pLPDRnen4BtlhnXn0eceTwHMQgcg8bKgAcrFN8nt02l6NjbUqlpxFdyisGrB6kLK7v2nnpDlthmP439OHvjFwwLMRCB7fY7XgVNigaQueAHgX0cqT2m2hwqFg_1hbKpKJOEbDS5PhTb5GncS7fWYcBF1IglZjTyr5PQGGPtX8OUE7tJt0K5e8PDdYgxlLg5dgAgAi603onYbivtYzPdTQZsdl5jR5sR9s5YyTEfm30igZZTMtdE8K2OUsydMb8lF8eYLQTgm2JWu9GjbDaE3xsqOMbXycwHO5wI90Ieh0Is05rAOFd7JMNLb1twempgTNQulpYD_r5l3TvvDFOsGPWEZ9nh8xZCKaaUMzuCwVXMcHX5VS5zWWPMX_tXxroL9EojSxIy6DL-1xnqbifuLTa473f-Ibs_AXqB3EB-zr1O4sNacE3zc4C_OJGfRa8RFxBrw6KsqZye4hqVxaDv5_af-LUzT56TVn63NMi-UHBQcO3lzYKxQPCrGtTSXFOLZRf6qCUrfXoqWEDnj3Uf5QAlsP108U-7lUmyiX9jGf3F9Mjz0iJMEVSE0OWx9LgkJ2hwBGoLCYZEUPJ-0qDhA628UTbrSLTSoZAMO2EScj6Cfu9S0hVQqT_Q4UCPRpQGCxQqxYK0JO9cNR2VpB5zFPw5RzbU3WPHV0i-g_YsqggU8Ce_i_K0wQRFCVcR_RDmkq-1QVhSNslEuP4OqWseKPZ0VCMifF3QyDQnmXlBm7x3WI9t4WM_HW-ob037WMKcc1moSRF-KRqAtLw3gVId75tpf9ik0arpwf7pKHGLbpK-Wm313uQT9fyiZ79WvDUL-te5_PGkMwHApRnhC8X_bW3Ho3U4GUsZ4fv0tgEvTtgPv-0jGncb-ENl5DFxFfcn_Y4NdXGDwW5OIWwKARnZDeyLnB5cTqRYnCl7SjrAoJoqV5MiRTgbS8m57Ek9De_wfKR8y06QVvuKAIUbbKXLe-rRhnsfCrHgIVVrFH38dd_u4Z09yDjMn_W80]--></g></svg>