<?xml version="1.0" encoding="us-ascii" standalone="no"?><svg xmlns="http://www.w3.org/2000/svg" xmlns:xlink="http://www.w3.org/1999/xlink" contentStyleType="text/css" height="1014.6px" preserveAspectRatio="none" style="width:762px;height:1014px;background:#FFFFFF;" version="1.1" viewBox="0 0 762 1014" width="762px" zoomAndPan="magnify"><defs/><g><rect fill="#FFFFFF" height="903.6797" style="stroke:#181818;stroke-width:0.6;" width="6" x="28.2" y="56.1727"/><rect fill="#FFFFFF" height="299.3684" style="stroke:#181818;stroke-width:0.6;" width="6" x="194.4" y="70.1473"/><rect fill="#FFFFFF" height="564.3621" style="stroke:#181818;stroke-width:0.6;" width="6" x="194.4" y="388.2902"/><rect fill="#FFFFFF" height="175.5715" style="stroke:#181818;stroke-width:0.6;" width="6" x="430.2" y="101.0965"/><rect fill="#FFFFFF" height="36.1365" style="stroke:#181818;stroke-width:0.6;" width="6" x="430.2" y="314.6045"/><rect fill="#FFFFFF" height="18.7746" style="stroke:#181818;stroke-width:0.6;" width="6" x="430.2" y="539.6109"/><rect fill="#FFFFFF" height="72.273" style="stroke:#181818;stroke-width:0.6;" width="6" x="430.2" y="665.6332"/><rect fill="#FFFFFF" height="138.6223" style="stroke:#181818;stroke-width:0.6;" width="6" x="430.2" y="756.6809"/><rect fill="#FFFFFF" height="18" style="stroke:#181818;stroke-width:0.6;" width="6" x="430.2" y="934.6523"/><rect fill="#FFFFFF" height="118.0477" style="stroke:#181818;stroke-width:0.6;" width="6" x="592.8" y="158.6203"/><rect fill="#FFFFFF" height="119.8477" style="stroke:#181818;stroke-width:0.6;" width="6" x="592.8" y="775.4555"/><line style="stroke:#181818;stroke-width:0.3;stroke-dasharray:5.0,5.0;" x1="31.2" x2="31.2" y1="50.1727" y2="965.2523"/><line style="stroke:#181818;stroke-width:0.3;stroke-dasharray:5.0,5.0;" x1="197.4" x2="197.4" y1="50.1727" y2="965.2523"/><line style="stroke:#181818;stroke-width:0.3;stroke-dasharray:5.0,5.0;" x1="433.2" x2="433.2" y1="50.1727" y2="965.2523"/><line style="stroke:#181818;stroke-width:0.3;stroke-dasharray:5.0,5.0;" x1="595.8" x2="595.8" y1="50.1727" y2="965.2523"/><line style="stroke:#181818;stroke-width:0.3;stroke-dasharray:5.0,5.0;" x1="692.4" x2="692.4" y1="50.1727" y2="965.2523"/><text fill="#000000" font-family="sans-serif" font-size="8.4" lengthAdjust="spacing" textLength="52.8" x="3" y="48.0645">SBPClientApp</text><ellipse cx="31.2" cy="8.1" fill="#E2E2F0" rx="4.8" ry="4.8" style="stroke:#181818;stroke-width:0.3;"/><path d="M31.2,12.9 L31.2,29.1 M23.4,17.7 L39,17.7 M31.2,29.1 L23.4,38.1 M31.2,29.1 L39,38.1 " fill="none" style="stroke:#181818;stroke-width:0.3;"/><text fill="#000000" font-family="sans-serif" font-size="8.4" lengthAdjust="spacing" textLength="52.8" x="3" y="973.7168">SBPClientApp</text><ellipse cx="31.2" cy="980.925" fill="#E2E2F0" rx="4.8" ry="4.8" style="stroke:#181818;stroke-width:0.3;"/><path d="M31.2,985.725 L31.2,1001.925 M23.4,990.525 L39,990.525 M31.2,1001.925 L23.4,1010.925 M31.2,1001.925 L39,1010.925 " fill="none" style="stroke:#181818;stroke-width:0.3;"/><rect fill="#E2E2F0" height="19.5727" rx="1.5" ry="1.5" style="stroke:#181818;stroke-width:0.3;" width="62.4" x="166.2" y="30"/><text fill="#000000" font-family="sans-serif" font-size="8.4" lengthAdjust="spacing" textLength="54" x="170.4" y="43.2645">CreatePostItUI</text><rect fill="#E2E2F0" height="19.5727" rx="1.5" ry="1.5" style="stroke:#181818;stroke-width:0.3;" width="62.4" x="166.2" y="964.6523"/><text fill="#000000" font-family="sans-serif" font-size="8.4" lengthAdjust="spacing" textLength="54" x="170.4" y="977.9168">CreatePostItUI</text><rect fill="#E2E2F0" height="19.5727" rx="1.5" ry="1.5" style="stroke:#181818;stroke-width:0.3;" width="92.4" x="387" y="30"/><text fill="#000000" font-family="sans-serif" font-size="8.4" lengthAdjust="spacing" textLength="84" x="391.2" y="43.2645">CreatePostItController</text><rect fill="#E2E2F0" height="19.5727" rx="1.5" ry="1.5" style="stroke:#181818;stroke-width:0.3;" width="92.4" x="387" y="964.6523"/><text fill="#000000" font-family="sans-serif" font-size="8.4" lengthAdjust="spacing" textLength="84" x="391.2" y="977.9168">CreatePostItController</text><rect fill="#E2E2F0" height="19.5727" rx="1.5" ry="1.5" style="stroke:#181818;stroke-width:0.3;" width="50.4" x="570.6" y="30"/><text fill="#000000" font-family="sans-serif" font-size="8.4" lengthAdjust="spacing" textLength="42" x="574.8" y="43.2645">SBProtocol</text><rect fill="#E2E2F0" height="19.5727" rx="1.5" ry="1.5" style="stroke:#181818;stroke-width:0.3;" width="50.4" x="570.6" y="964.6523"/><text fill="#000000" font-family="sans-serif" font-size="8.4" lengthAdjust="spacing" textLength="42" x="574.8" y="977.9168">SBProtocol</text><rect fill="#E2E2F0" height="30.7453" rx="1.5" ry="1.5" style="stroke:#181818;stroke-width:0.3;" width="131.4" x="627" y="18.8273"/><text fill="#000000" font-family="sans-serif" font-size="8.4" lengthAdjust="spacing" textLength="55.2" x="665.1" y="32.0918">boardColumns</text><text fill="#000000" font-family="sans-serif" font-size="8.4" lengthAdjust="spacing" textLength="123" x="631.2" y="43.2645">ArrayList&lt;String&gt; boardColumns</text><rect fill="#E2E2F0" height="30.7453" rx="1.5" ry="1.5" style="stroke:#181818;stroke-width:0.3;" width="131.4" x="627" y="964.6523"/><text fill="#000000" font-family="sans-serif" font-size="8.4" lengthAdjust="spacing" textLength="55.2" x="665.1" y="977.9168">boardColumns</text><text fill="#000000" font-family="sans-serif" font-size="8.4" lengthAdjust="spacing" textLength="123" x="631.2" y="989.0895">ArrayList&lt;String&gt; boardColumns</text><rect fill="#FFFFFF" height="903.6797" style="stroke:#181818;stroke-width:0.6;" width="6" x="28.2" y="56.1727"/><rect fill="#FFFFFF" height="299.3684" style="stroke:#181818;stroke-width:0.6;" width="6" x="194.4" y="70.1473"/><rect fill="#FFFFFF" height="564.3621" style="stroke:#181818;stroke-width:0.6;" width="6" x="194.4" y="388.2902"/><rect fill="#FFFFFF" height="175.5715" style="stroke:#181818;stroke-width:0.6;" width="6" x="430.2" y="101.0965"/><rect fill="#FFFFFF" height="36.1365" style="stroke:#181818;stroke-width:0.6;" width="6" x="430.2" y="314.6045"/><rect fill="#FFFFFF" height="18.7746" style="stroke:#181818;stroke-width:0.6;" width="6" x="430.2" y="539.6109"/><rect fill="#FFFFFF" height="72.273" style="stroke:#181818;stroke-width:0.6;" width="6" x="430.2" y="665.6332"/><rect fill="#FFFFFF" height="138.6223" style="stroke:#181818;stroke-width:0.6;" width="6" x="430.2" y="756.6809"/><rect fill="#FFFFFF" height="18" style="stroke:#181818;stroke-width:0.6;" width="6" x="430.2" y="934.6523"/><rect fill="#FFFFFF" height="118.0477" style="stroke:#181818;stroke-width:0.6;" width="6" x="592.8" y="158.6203"/><rect fill="#FFFFFF" height="119.8477" style="stroke:#181818;stroke-width:0.6;" width="6" x="592.8" y="775.4555"/><polygon fill="#181818" points="187.2,67.7473,193.2,70.1473,187.2,72.5473,189.6,70.1473" style="stroke:#181818;stroke-width:0.6;"/><line style="stroke:#181818;stroke-width:0.6;" x1="34.2" x2="190.8" y1="70.1473" y2="70.1473"/><text fill="#000000" font-family="sans-serif" font-size="7.8" lengthAdjust="spacing" textLength="46.8" x="38.4" y="66.9896">create Post-It</text><polygon fill="#181818" points="423,98.6965,429,101.0965,423,103.4965,425.4,101.0965" style="stroke:#181818;stroke-width:0.6;"/><line style="stroke:#181818;stroke-width:0.6;" x1="200.4" x2="426.6" y1="101.0965" y2="101.0965"/><text fill="#000000" font-family="sans-serif" font-size="7.8" lengthAdjust="spacing" textLength="93.6" x="204.6" y="97.9389">create(serverIP, serverPort)</text><path d="M439.2,77.9473 L439.2,114.5473 L576,114.5473 L576,83.9473 L570,77.9473 L439.2,77.9473 " fill="#FEFFDD" style="stroke:#181818;stroke-width:0.3;"/><path d="M570,77.9473 L570,83.9473 L576,83.9473 L570,77.9473 " fill="#FEFFDD" style="stroke:#181818;stroke-width:0.3;"/><text fill="#000000" font-family="sans-serif" font-size="7.8" lengthAdjust="spacing" textLength="84.6" x="442.8" y="89.3643">create Socket as "sock"</text><text fill="#000000" font-family="sans-serif" font-size="7.8" lengthAdjust="spacing" textLength="112.8" x="442.8" y="99.7389">create DataInputStream as "inS"</text><text fill="#000000" font-family="sans-serif" font-size="7.8" lengthAdjust="spacing" textLength="124.2" x="442.8" y="110.1135">create DataOutputStream as "outS"</text><line style="stroke:#181818;stroke-width:0.6;" x1="436.2" x2="461.4" y1="132.0457" y2="132.0457"/><line style="stroke:#181818;stroke-width:0.6;" x1="461.4" x2="461.4" y1="132.0457" y2="139.8457"/><line style="stroke:#181818;stroke-width:0.6;" x1="436.8" x2="461.4" y1="139.8457" y2="139.8457"/><polygon fill="#181818" points="442.8,137.4457,436.8,139.8457,442.8,142.2457,440.4,139.8457" style="stroke:#181818;stroke-width:0.6;"/><text fill="#000000" font-family="sans-serif" font-size="7.8" lengthAdjust="spacing" textLength="60.6" x="440.4" y="128.8881">canCreatePostIt()</text><polygon fill="#181818" points="585.6,156.2203,591.6,158.6203,585.6,161.0203,588,158.6203" style="stroke:#181818;stroke-width:0.6;"/><line style="stroke:#181818;stroke-width:0.6;" x1="436.2" x2="589.2" y1="158.6203" y2="158.6203"/><text fill="#000000" font-family="sans-serif" font-size="7.8" lengthAdjust="spacing" textLength="26.4" x="440.4" y="155.4627">create()</text><polygon fill="#181818" points="585.6,174.9949,591.6,177.3949,585.6,179.7949,588,177.3949" style="stroke:#181818;stroke-width:0.6;"/><line style="stroke:#181818;stroke-width:0.6;" x1="436.2" x2="589.2" y1="177.3949" y2="177.3949"/><text fill="#000000" font-family="sans-serif" font-size="7.8" lengthAdjust="spacing" textLength="142.2" x="440.4" y="174.2373">setCode(SBProtocol.CREATE_POST_IT)</text><polygon fill="#181818" points="585.6,193.7695,591.6,196.1695,585.6,198.5695,588,196.1695" style="stroke:#181818;stroke-width:0.6;"/><line style="stroke:#181818;stroke-width:0.6;" x1="436.2" x2="589.2" y1="196.1695" y2="196.1695"/><text fill="#000000" font-family="sans-serif" font-size="7.8" lengthAdjust="spacing" textLength="37.8" x="440.4" y="193.0119">send(outS)</text><path d="M439.2,203.9695 L439.2,220.1695 L544.8,220.1695 L544.8,209.9695 L538.8,203.9695 L439.2,203.9695 " fill="#FEFFDD" style="stroke:#181818;stroke-width:0.3;"/><path d="M538.8,203.9695 L538.8,209.9695 L544.8,209.9695 L538.8,203.9695 " fill="#FEFFDD" style="stroke:#181818;stroke-width:0.3;"/><text fill="#000000" font-family="sans-serif" font-size="7.8" lengthAdjust="spacing" textLength="93" x="442.8" y="215.3865">check CreatePostItHandler</text><polygon fill="#181818" points="585.6,234.9188,591.6,237.3188,585.6,239.7188,588,237.3188" style="stroke:#181818;stroke-width:0.6;"/><line style="stroke:#181818;stroke-width:0.6;" x1="436.2" x2="589.2" y1="237.3188" y2="237.3188"/><text fill="#000000" font-family="sans-serif" font-size="7.8" lengthAdjust="spacing" textLength="37.8" x="440.4" y="234.1611">create(inS)</text><polygon fill="#181818" points="585.6,253.6934,591.6,256.0934,585.6,258.4934,588,256.0934" style="stroke:#181818;stroke-width:0.6;"/><line style="stroke:#181818;stroke-width:0.6;" x1="436.2" x2="589.2" y1="256.0934" y2="256.0934"/><text fill="#000000" font-family="sans-serif" font-size="7.8" lengthAdjust="spacing" textLength="72.6" x="440.4" y="252.9357">getContentAsString()</text><polygon fill="#181818" points="439.8,274.268,433.8,276.668,439.8,279.068,437.4,276.668" style="stroke:#181818;stroke-width:0.6;"/><line style="stroke:#181818;stroke-width:0.6;stroke-dasharray:2.0,2.0;" x1="436.2" x2="595.2" y1="276.668" y2="276.668"/><text fill="#000000" font-family="sans-serif" font-size="7.8" lengthAdjust="spacing" textLength="23.4" x="443.4" y="273.5104">boards</text><path d="M601.8,263.8934 L601.8,280.0934 L697.2,280.0934 L697.2,269.8934 L691.2,263.8934 L601.8,263.8934 " fill="#FEFFDD" style="stroke:#181818;stroke-width:0.3;"/><path d="M691.2,263.8934 L691.2,269.8934 L697.2,269.8934 L691.2,263.8934 " fill="#FEFFDD" style="stroke:#181818;stroke-width:0.3;"/><text fill="#000000" font-family="sans-serif" font-size="7.8" lengthAdjust="spacing" textLength="82.8" x="605.4" y="275.3104">boardColumns = boards</text><polygon fill="#181818" points="423,312.2045,429,314.6045,423,317.0045,425.4,314.6045" style="stroke:#181818;stroke-width:0.6;"/><line style="stroke:#181818;stroke-width:0.6;" x1="200.4" x2="426.6" y1="314.6045" y2="314.6045"/><text fill="#000000" font-family="sans-serif" font-size="7.8" lengthAdjust="spacing" textLength="52.8" x="204.6" y="311.4469">getBoardsList()</text><path d="M439.2,286.268 L439.2,333.668 L576,333.668 L576,292.268 L570,286.268 L439.2,286.268 " fill="#FEFFDD" style="stroke:#181818;stroke-width:0.3;"/><path d="M570,286.268 L570,292.268 L576,292.268 L570,286.268 " fill="#FEFFDD" style="stroke:#181818;stroke-width:0.3;"/><text fill="#000000" font-family="sans-serif" font-size="7.8" lengthAdjust="spacing" textLength="124.2" x="442.8" y="297.685">method will separate boardcollumns</text><text fill="#000000" font-family="sans-serif" font-size="7.8" lengthAdjust="spacing" textLength="70.2" x="442.8" y="308.0596">column 0: boardTitle</text><text fill="#000000" font-family="sans-serif" font-size="7.8" lengthAdjust="spacing" textLength="70.8" x="442.8" y="318.4342">column 1: numRows</text><text fill="#000000" font-family="sans-serif" font-size="7.8" lengthAdjust="spacing" textLength="82.2" x="442.8" y="328.8088">column 2: numColumns</text><polygon fill="#181818" points="207,348.341,201,350.741,207,353.141,204.6,350.741" style="stroke:#181818;stroke-width:0.6;"/><line style="stroke:#181818;stroke-width:0.6;stroke-dasharray:2.0,2.0;" x1="203.4" x2="432.6" y1="350.741" y2="350.741"/><text fill="#000000" font-family="sans-serif" font-size="7.8" lengthAdjust="spacing" textLength="34.8" x="210.6" y="347.5834">listBoards</text><polygon fill="#181818" points="40.8,367.1156,34.8,369.5156,40.8,371.9156,38.4,369.5156" style="stroke:#181818;stroke-width:0.6;"/><line style="stroke:#181818;stroke-width:0.6;stroke-dasharray:2.0,2.0;" x1="37.2" x2="196.8" y1="369.5156" y2="369.5156"/><text fill="#000000" font-family="sans-serif" font-size="7.8" lengthAdjust="spacing" textLength="64.8" x="44.4" y="366.358">show list of boards</text><polygon fill="#181818" points="187.2,385.8902,193.2,388.2902,187.2,390.6902,189.6,388.2902" style="stroke:#181818;stroke-width:0.6;"/><line style="stroke:#181818;stroke-width:0.6;" x1="34.2" x2="190.8" y1="388.2902" y2="388.2902"/><text fill="#000000" font-family="sans-serif" font-size="7.8" lengthAdjust="spacing" textLength="133.2" x="38.4" y="385.1326">chooses a board to create a Post-It on</text><polygon fill="#181818" points="40.8,435.7887,34.8,438.1887,40.8,440.5887,38.4,438.1887" style="stroke:#181818;stroke-width:0.6;"/><line style="stroke:#181818;stroke-width:0.6;stroke-dasharray:2.0,2.0;" x1="37.2" x2="193.8" y1="438.1887" y2="438.1887"/><text fill="#000000" font-family="sans-serif" font-size="7.8" lengthAdjust="spacing" textLength="121.2" x="44.4" y="403.9072">shows the user the number of rows</text><text fill="#000000" font-family="sans-serif" font-size="7.8" lengthAdjust="spacing" textLength="114" x="44.4" y="414.2818">and columns and ask the user to</text><text fill="#000000" font-family="sans-serif" font-size="7.8" lengthAdjust="spacing" textLength="128.4" x="44.4" y="424.6564">choose the cell to create a Post-It on</text><text fill="#000000" font-family="sans-serif" font-size="7.8" lengthAdjust="spacing" textLength="145.8" x="44.4" y="435.0311">respecting the limits of rows and collumns</text><polygon fill="#181818" points="187.2,454.5633,193.2,456.9633,187.2,459.3633,189.6,456.9633" style="stroke:#181818;stroke-width:0.6;"/><line style="stroke:#181818;stroke-width:0.6;" x1="34.2" x2="190.8" y1="456.9633" y2="456.9633"/><text fill="#000000" font-family="sans-serif" font-size="7.8" lengthAdjust="spacing" textLength="133.8" x="38.4" y="453.8057">chooses the cell to allocate the Post-It</text><path d="M203.4,464.7633 L203.4,522.3633 L415.8,522.3633 L415.8,470.7633 L409.8,464.7633 L203.4,464.7633 " fill="#FEFFDD" style="stroke:#181818;stroke-width:0.3;"/><path d="M409.8,464.7633 L409.8,470.7633 L415.8,470.7633 L409.8,464.7633 " fill="#FEFFDD" style="stroke:#181818;stroke-width:0.3;"/><text fill="#000000" font-family="sans-serif" font-size="7.8" lengthAdjust="spacing" textLength="199.8" x="207" y="476.1803">"arr" because reads from console in format "row,columns"</text><text fill="#000000" font-family="sans-serif" font-size="7.8" lengthAdjust="spacing" textLength="76.8" x="207" y="486.5549">"numRows" board has</text><text fill="#000000" font-family="sans-serif" font-size="7.8" lengthAdjust="spacing" textLength="88.2" x="207" y="496.9295">"numColumns" board has</text><text fill="#000000" font-family="sans-serif" font-size="7.8" lengthAdjust="spacing" textLength="192" x="207" y="507.3041">verifies the values choosed ,if are positive or bigger then</text><text fill="#000000" font-family="sans-serif" font-size="7.8" lengthAdjust="spacing" textLength="96" x="207" y="517.6787">numRows and numcolumns</text><polygon fill="#181818" points="423,537.2109,429,539.6109,423,542.0109,425.4,539.6109" style="stroke:#181818;stroke-width:0.6;"/><line style="stroke:#181818;stroke-width:0.6;" x1="200.4" x2="426.6" y1="539.6109" y2="539.6109"/><text fill="#000000" font-family="sans-serif" font-size="7.8" lengthAdjust="spacing" textLength="145.8" x="204.6" y="536.4533">isCellIdValid(arr, numRows, numColumns)</text><polygon fill="#181818" points="207,555.9855,201,558.3855,207,560.7855,204.6,558.3855" style="stroke:#181818;stroke-width:0.6;"/><line style="stroke:#181818;stroke-width:0.6;stroke-dasharray:2.0,2.0;" x1="203.4" x2="432.6" y1="558.3855" y2="558.3855"/><text fill="#000000" font-family="sans-serif" font-size="7.8" lengthAdjust="spacing" textLength="31.8" x="210.6" y="555.2279">true/false</text><polygon fill="#181818" points="40.8,585.1348,34.8,587.5348,40.8,589.9348,38.4,587.5348" style="stroke:#181818;stroke-width:0.6;"/><line style="stroke:#181818;stroke-width:0.6;stroke-dasharray:2.0,2.0;" x1="37.2" x2="193.8" y1="587.5348" y2="587.5348"/><text fill="#000000" font-family="sans-serif" font-size="7.8" lengthAdjust="spacing" textLength="75.6" x="44.4" y="574.0025">asks the content type</text><text fill="#000000" font-family="sans-serif" font-size="7.8" lengthAdjust="spacing" textLength="67.2" x="44.4" y="584.3771">either text or image</text><path d="M203.4,595.3348 L203.4,621.7348 L328.8,621.7348 L328.8,601.3348 L322.8,595.3348 L203.4,595.3348 " fill="#FEFFDD" style="stroke:#181818;stroke-width:0.3;"/><path d="M322.8,595.3348 L322.8,601.3348 L328.8,601.3348 L322.8,595.3348 " fill="#FEFFDD" style="stroke:#181818;stroke-width:0.3;"/><text fill="#000000" font-family="sans-serif" font-size="7.8" lengthAdjust="spacing" textLength="112.8" x="207" y="606.7518">in case choice was image retrive</text><text fill="#000000" font-family="sans-serif" font-size="7.8" lengthAdjust="spacing" textLength="112.2" x="207" y="617.1264">images from folder inside project</text><line style="stroke:#181818;stroke-width:0.6;" x1="200.4" x2="225.6" y1="639.0586" y2="639.0586"/><line style="stroke:#181818;stroke-width:0.6;" x1="225.6" x2="225.6" y1="639.0586" y2="646.8586"/><line style="stroke:#181818;stroke-width:0.6;" x1="201" x2="225.6" y1="646.8586" y2="646.8586"/><polygon fill="#181818" points="207,644.4586,201,646.8586,207,649.2586,204.6,646.8586" style="stroke:#181818;stroke-width:0.6;"/><text fill="#000000" font-family="sans-serif" font-size="7.8" lengthAdjust="spacing" textLength="61.8" x="204.6" y="635.901">file = chooseFile()</text><polygon fill="#181818" points="423,663.2332,429,665.6332,423,668.0332,425.4,665.6332" style="stroke:#181818;stroke-width:0.6;"/><line style="stroke:#181818;stroke-width:0.6;" x1="200.4" x2="426.6" y1="665.6332" y2="665.6332"/><text fill="#000000" font-family="sans-serif" font-size="7.8" lengthAdjust="spacing" textLength="218.4" x="204.6" y="662.4756">createBoardPositionTextString(boardChosen, position, content)</text><path d="M439.2,673.4332 L439.2,720.8332 L569.4,720.8332 L569.4,679.4332 L563.4,673.4332 L439.2,673.4332 " fill="#FEFFDD" style="stroke:#181818;stroke-width:0.3;"/><path d="M563.4,673.4332 L563.4,679.4332 L569.4,679.4332 L563.4,673.4332 " fill="#FEFFDD" style="stroke:#181818;stroke-width:0.3;"/><text fill="#000000" font-family="sans-serif" font-size="7.8" lengthAdjust="spacing" textLength="96" x="442.8" y="684.8502">returns a string builder with:</text><text fill="#000000" font-family="sans-serif" font-size="7.8" lengthAdjust="spacing" textLength="36.6" x="442.8" y="695.2248">-board title</text><text fill="#000000" font-family="sans-serif" font-size="7.8" lengthAdjust="spacing" textLength="117.6" x="442.8" y="705.5994">-position in board to create Post-It</text><text fill="#000000" font-family="sans-serif" font-size="7.8" lengthAdjust="spacing" textLength="61.8" x="442.8" y="715.974">-content of Post-It</text><polygon fill="#181818" points="207,735.5063,201,737.9063,207,740.3063,204.6,737.9063" style="stroke:#181818;stroke-width:0.6;"/><line style="stroke:#181818;stroke-width:0.6;stroke-dasharray:2.0,2.0;" x1="203.4" x2="432.6" y1="737.9063" y2="737.9063"/><text fill="#000000" font-family="sans-serif" font-size="7.8" lengthAdjust="spacing" textLength="43.2" x="210.6" y="734.7486">stringBuilder</text><polygon fill="#181818" points="423,754.2809,429,756.6809,423,759.0809,425.4,756.6809" style="stroke:#181818;stroke-width:0.6;"/><line style="stroke:#181818;stroke-width:0.6;" x1="200.4" x2="426.6" y1="756.6809" y2="756.6809"/><text fill="#000000" font-family="sans-serif" font-size="7.8" lengthAdjust="spacing" textLength="90" x="204.6" y="753.5232">createPostIt(stringBuilder)</text><polygon fill="#181818" points="585.6,773.0555,591.6,775.4555,585.6,777.8555,588,775.4555" style="stroke:#181818;stroke-width:0.6;"/><line style="stroke:#181818;stroke-width:0.6;" x1="436.2" x2="589.2" y1="775.4555" y2="775.4555"/><text fill="#000000" font-family="sans-serif" font-size="7.8" lengthAdjust="spacing" textLength="26.4" x="440.4" y="772.2979">create()</text><polygon fill="#181818" points="585.6,791.8301,591.6,794.2301,585.6,796.6301,588,794.2301" style="stroke:#181818;stroke-width:0.6;"/><line style="stroke:#181818;stroke-width:0.6;" x1="436.2" x2="589.2" y1="794.2301" y2="794.2301"/><text fill="#000000" font-family="sans-serif" font-size="7.8" lengthAdjust="spacing" textLength="90" x="440.4" y="791.0725">setContentFromString(str)</text><polygon fill="#181818" points="585.6,810.6047,591.6,813.0047,585.6,815.4047,588,813.0047" style="stroke:#181818;stroke-width:0.6;"/><line style="stroke:#181818;stroke-width:0.6;" x1="436.2" x2="589.2" y1="813.0047" y2="813.0047"/><text fill="#000000" font-family="sans-serif" font-size="7.8" lengthAdjust="spacing" textLength="37.8" x="440.4" y="809.8471">send(outS)</text><path d="M439.2,820.8047 L439.2,837.0047 L544.8,837.0047 L544.8,826.8047 L538.8,820.8047 L439.2,820.8047 " fill="#FEFFDD" style="stroke:#181818;stroke-width:0.3;"/><path d="M538.8,820.8047 L538.8,826.8047 L544.8,826.8047 L538.8,820.8047 " fill="#FEFFDD" style="stroke:#181818;stroke-width:0.3;"/><text fill="#000000" font-family="sans-serif" font-size="7.8" lengthAdjust="spacing" textLength="93" x="442.8" y="832.2217">check CreatePostItHandler</text><polygon fill="#181818" points="585.6,851.7539,591.6,854.1539,585.6,856.5539,588,854.1539" style="stroke:#181818;stroke-width:0.6;"/><line style="stroke:#181818;stroke-width:0.6;" x1="436.2" x2="589.2" y1="854.1539" y2="854.1539"/><text fill="#000000" font-family="sans-serif" font-size="7.8" lengthAdjust="spacing" textLength="37.8" x="440.4" y="850.9963">create(inS)</text><polygon fill="#181818" points="585.6,872.3285,591.6,874.7285,585.6,877.1285,588,874.7285" style="stroke:#181818;stroke-width:0.6;"/><line style="stroke:#181818;stroke-width:0.6;" x1="436.2" x2="589.2" y1="874.7285" y2="874.7285"/><text fill="#000000" font-family="sans-serif" font-size="7.8" lengthAdjust="spacing" textLength="106.2" x="440.4" y="871.5709">getCode() == SBProtocol.ACK</text><path d="M601.8,861.9539 L601.8,878.1539 L733.2,878.1539 L733.2,867.9539 L727.2,861.9539 L601.8,861.9539 " fill="#FEFFDD" style="stroke:#181818;stroke-width:0.3;"/><path d="M727.2,861.9539 L727.2,867.9539 L733.2,867.9539 L727.2,861.9539 " fill="#FEFFDD" style="stroke:#181818;stroke-width:0.3;"/><text fill="#000000" font-family="sans-serif" font-size="7.8" lengthAdjust="spacing" textLength="118.8" x="605.4" y="873.3709">indicates success of the operation</text><polygon fill="#181818" points="207,892.9031,201,895.3031,207,897.7031,204.6,895.3031" style="stroke:#181818;stroke-width:0.6;"/><line style="stroke:#181818;stroke-width:0.6;stroke-dasharray:2.0,2.0;" x1="203.4" x2="432.6" y1="895.3031" y2="895.3031"/><text fill="#000000" font-family="sans-serif" font-size="7.8" lengthAdjust="spacing" textLength="31.8" x="210.6" y="892.1455">true/false</text><polygon fill="#181818" points="40.8,911.6777,34.8,914.0777,40.8,916.4777,38.4,914.0777" style="stroke:#181818;stroke-width:0.6;"/><line style="stroke:#181818;stroke-width:0.6;stroke-dasharray:2.0,2.0;" x1="37.2" x2="193.8" y1="914.0777" y2="914.0777"/><text fill="#000000" font-family="sans-serif" font-size="7.8" lengthAdjust="spacing" textLength="142.2" x="44.4" y="910.9201">informs if Post-it was create successfully</text><polygon fill="#181818" points="423,932.2523,429,934.6523,423,937.0523,425.4,934.6523" style="stroke:#181818;stroke-width:0.6;"/><line style="stroke:#181818;stroke-width:0.6;" x1="200.4" x2="426.6" y1="934.6523" y2="934.6523"/><text fill="#000000" font-family="sans-serif" font-size="7.8" lengthAdjust="spacing" textLength="23.4" x="204.6" y="931.4947">close()</text><path d="M439.2,921.8777 L439.2,938.0777 L496.2,938.0777 L496.2,927.8777 L490.2,921.8777 L439.2,921.8777 " fill="#FEFFDD" style="stroke:#181818;stroke-width:0.3;"/><path d="M490.2,921.8777 L490.2,927.8777 L496.2,927.8777 L490.2,921.8777 " fill="#FEFFDD" style="stroke:#181818;stroke-width:0.3;"/><text fill="#000000" font-family="sans-serif" font-size="7.8" lengthAdjust="spacing" textLength="44.4" x="442.8" y="933.2947">close socket</text><!--SRC=[pLPDRziu4BthLmnqiW6xtUtHs1H8l2tMw08rQhUd00LDKJOtD2cGLBpvz_lu8KTob3GeUbWT39eQSjwyUJCZnhsnjBbPBvKKsbyt3J57hHEsQ9Zraik6QKzBAvWNQ-FyodzTHHFvhC7IQ6-DKi86G-wj6fZ2cJNUSAF2QxTh1c_BdM6sMXhL7hMxrTVMieU_fVD_RBoLUl-U-k_BSCEE5tWOz_8U41Bsy4Fpzq192nwXKS0sN_cUeImAmWCRM0QOdUq4f- -5NQrdb5PhO_qq6ck3arRk3tv1-UADuNV21oIbmxAyrVd5dyopbMvQ3-Y27QE5r9kXmUVM3oqC_fNHrnbff93o4u5cm0lET9_voRHuOWU2gSCwcPvVdoyF2Q3UCppd1D9PYSbZqjuiltoutdxullwysNvVRQSl7jRL9CGpD7haa4oTuY1-4FnkeAA_cAuWeHUkpp61qfT0q5v4HGPrkoIYoT0-sCqxHfE-t7E05mFzqTMbUIMU4DlRYecy4DqY0Bo9jmITPspZkUy3EGf_C1MTf58W6YKKh2CQ92bN3uymwRUCUYkz4kVTtnUas-CNSteqV1UtSd0NIehLj205Z0bjyN9qmJvK8MHmCATuBgGxyrNqpeL2x1Sin62C4uvOiYPlkbfZNHcJqSDAVkhIaJ-aTX0N26o79I3O63BaHJodCQoPk-iTCE0aeeXxN83aSHItsWhN243H-sYhv55wr_cXx2OnEXfbtm5Jol3W8cns7QiedbPDI4N9h2rf9pZ3lGHebQFQcYFyQMUK8AcfDlR8q5M1PPQZHVyfS-BBJF21kRHvxgkzVVG_MSiCz9wf5ik4lQAPh8bPGOrn4iaGX66oa_jzuXpaP4UH1gnvJrhzlalIBK71glh6bAmc26pMYNFMa-JqXtsn8zVRLhojcN9YNAKZCeK0SZ9Ijo3_qA1QXCGUmX7_-X2TFBAzU2uZ89mpv0BqI2xeX7uUxP4SD9vxt1R_vZJLHbMuMMedAr1epJ-GKO-Q64WjaSYhJFX7_Ebw_82-9CnOb-kO2gEt09pRNMfP1roWPpbL1giSvoiRJcxLS8PWMXkgXboydtQjZ96SGDNYLizprQPkC-yS1dOkwpbB75OTwN3JwNuyiyddJNBvW-GEntgUaOCBfg-OjBzWWiROFYBfEIF0yByVdFiy-gTqTTNxQ7jplVpq_7IKkfAXWU73hkLSkDW8Gr6PHc12GGOZ7aUAzgS6wcCjInqQ7welgqdwM8nPTHbQtIhrK8nLaqAfl7eG9tDoyJDm5E35hCFp7m00]--></g></svg>