<?xml version="1.0" encoding="us-ascii" standalone="no"?><svg xmlns="http://www.w3.org/2000/svg" xmlns:xlink="http://www.w3.org/1999/xlink" contentStyleType="text/css" height="1659.2px" preserveAspectRatio="none" style="width:1231px;height:1659px;background:#FFFFFF;" version="1.1" viewBox="0 0 1231 1659" width="1231.2px" zoomAndPan="magnify"><defs/><g><rect fill="#FFFFFF" height="1511.1031" style="stroke:#181818;stroke-width:0.8000000000000002;" width="8" x="40" y="74.8969"/><rect fill="#FFFFFF" height="1471.4375" style="stroke:#181818;stroke-width:0.8000000000000002;" width="8" x="192.8" y="107.3625"/><rect fill="#FFFFFF" height="107.382" style="stroke:#181818;stroke-width:0.8000000000000002;" width="8" x="337.6" y="141.7117"/><rect fill="#FFFFFF" height="1295.357" style="stroke:#181818;stroke-width:0.8000000000000002;" width="8" x="337.6" y="283.443"/><rect fill="#FFFFFF" height="50.0656" style="stroke:#181818;stroke-width:0.8000000000000002;" width="8" x="546.4" y="493.0219"/><rect fill="#FFFFFF" height="73.2148" style="stroke:#181818;stroke-width:0.8000000000000002;" width="8" x="546.4" y="568.1203"/><rect fill="#FFFFFF" height="62.0656" style="stroke:#181818;stroke-width:0.8000000000000002;" width="8" x="546.4" y="1523.9344"/><rect fill="#FFFFFF" height="24" style="stroke:#181818;stroke-width:0.8000000000000002;" width="8" x="629.6" y="176.0609"/><rect fill="#FFFFFF" height="25.0328" style="stroke:#181818;stroke-width:0.8000000000000002;" width="8" x="629.6" y="399.2906"/><rect fill="#FFFFFF" height="24" style="stroke:#181818;stroke-width:0.8000000000000002;" width="8" x="715.6" y="225.0938"/><rect fill="#FFFFFF" height="172.1313" style="stroke:#181818;stroke-width:0.8000000000000002;" width="8" x="715.6" y="926.2453"/><rect fill="#FFFFFF" height="24" style="stroke:#181818;stroke-width:0.8000000000000002;" width="8" x="782" y="334.025"/><rect fill="#FFFFFF" height="25.0328" style="stroke:#181818;stroke-width:0.8000000000000002;" width="8" x="830.8" y="782.4484"/><rect fill="#FFFFFF" height="24" style="stroke:#181818;stroke-width:0.8000000000000002;" width="8" x="830.8" y="951.2781"/><rect fill="#FFFFFF" height="25.0328" style="stroke:#181818;stroke-width:0.8000000000000002;" width="8" x="874.8" y="832.5141"/><rect fill="#FFFFFF" height="24" style="stroke:#181818;stroke-width:0.8000000000000002;" width="8" x="874.8" y="1049.3438"/><rect fill="#FFFFFF" height="24" style="stroke:#181818;stroke-width:0.8000000000000002;" width="8" x="917.6" y="1000.3109"/><rect fill="#FFFFFF" height="24" style="stroke:#181818;stroke-width:0.8000000000000002;" width="8" x="982" y="1305.2211"/><rect fill="#FFFFFF" height="24" style="stroke:#181818;stroke-width:0.8000000000000002;" width="8" x="1077.2" y="1416.5523"/><rect fill="#FFFFFF" height="24" style="stroke:#181818;stroke-width:0.8000000000000002;" width="8" x="1179.2" y="1474.9016"/><line style="stroke:#181818;stroke-width:0.4000000000000001;stroke-dasharray:5.0,5.0;" x1="44" x2="44" y1="66.8969" y2="1593.2"/><line style="stroke:#181818;stroke-width:0.4000000000000001;stroke-dasharray:5.0,5.0;" x1="196.8" x2="196.8" y1="66.8969" y2="1593.2"/><line style="stroke:#181818;stroke-width:0.4000000000000001;stroke-dasharray:5.0,5.0;" x1="341.2" x2="341.2" y1="66.8969" y2="1593.2"/><line style="stroke:#181818;stroke-width:0.4000000000000001;stroke-dasharray:5.0,5.0;" x1="550.4" x2="550.4" y1="66.8969" y2="1593.2"/><line style="stroke:#181818;stroke-width:0.4000000000000001;stroke-dasharray:5.0,5.0;" x1="633.2" x2="633.2" y1="66.8969" y2="1593.2"/><line style="stroke:#181818;stroke-width:0.4000000000000001;stroke-dasharray:5.0,5.0;" x1="719.6" x2="719.6" y1="66.8969" y2="1593.2"/><line style="stroke:#181818;stroke-width:0.4000000000000001;stroke-dasharray:5.0,5.0;" x1="786" x2="786" y1="66.8969" y2="1593.2"/><line style="stroke:#181818;stroke-width:0.4000000000000001;stroke-dasharray:5.0,5.0;" x1="834.8" x2="834.8" y1="66.8969" y2="1593.2"/><line style="stroke:#181818;stroke-width:0.4000000000000001;stroke-dasharray:5.0,5.0;" x1="878.8" x2="878.8" y1="66.8969" y2="1593.2"/><line style="stroke:#181818;stroke-width:0.4000000000000001;stroke-dasharray:5.0,5.0;" x1="921.2" x2="921.2" y1="66.8969" y2="1593.2"/><line style="stroke:#181818;stroke-width:0.4000000000000001;stroke-dasharray:5.0,5.0;" x1="986" x2="986" y1="66.8969" y2="1593.2"/><line style="stroke:#181818;stroke-width:0.4000000000000001;stroke-dasharray:5.0,5.0;" x1="1081.2" x2="1081.2" y1="66.8969" y2="1593.2"/><line style="stroke:#181818;stroke-width:0.4000000000000001;stroke-dasharray:5.0,5.0;" x1="1182.8" x2="1182.8" y1="66.8969" y2="1593.2"/><text fill="#000000" font-family="sans-serif" font-size="11.2" lengthAdjust="spacing" textLength="75.2" x="4" y="64.0859">SBPServerApp</text><ellipse cx="44" cy="10.8" fill="#E2E2F0" rx="6.4" ry="6.4" style="stroke:#181818;stroke-width:0.4000000000000001;"/><path d="M44,17.2 L44,38.8 M33.6,23.6 L54.4,23.6 M44,38.8 L33.6,50.8 M44,38.8 L54.4,50.8 " fill="none" style="stroke:#181818;stroke-width:0.4000000000000001;"/><text fill="#000000" font-family="sans-serif" font-size="11.2" lengthAdjust="spacing" textLength="75.2" x="4" y="1604.4859">SBPServerApp</text><ellipse cx="44" cy="1614.0969" fill="#E2E2F0" rx="6.4" ry="6.4" style="stroke:#181818;stroke-width:0.4000000000000001;"/><path d="M44,1620.4969 L44,1642.0969 M33.6,1626.8969 L54.4,1626.8969 M44,1642.0969 L33.6,1654.0969 M44,1642.0969 L54.4,1654.0969 " fill="none" style="stroke:#181818;stroke-width:0.4000000000000001;"/><rect fill="#E2E2F0" height="26.0969" rx="2" ry="2" style="stroke:#181818;stroke-width:0.4000000000000001;" width="81.6" x="156" y="40"/><text fill="#000000" font-family="sans-serif" font-size="11.2" lengthAdjust="spacing" textLength="70.4" x="161.6" y="57.6859">MenuRequest</text><rect fill="#E2E2F0" height="26.0969" rx="2" ry="2" style="stroke:#181818;stroke-width:0.4000000000000001;" width="81.6" x="156" y="1592.4"/><text fill="#000000" font-family="sans-serif" font-size="11.2" lengthAdjust="spacing" textLength="70.4" x="161.6" y="1610.0859">MenuRequest</text><rect fill="#E2E2F0" height="26.0969" rx="2" ry="2" style="stroke:#181818;stroke-width:0.4000000000000001;" width="112.8" x="285.2" y="40"/><text fill="#000000" font-family="sans-serif" font-size="11.2" lengthAdjust="spacing" textLength="101.6" x="290.8" y="57.6859">CreatePostItHandler</text><rect fill="#E2E2F0" height="26.0969" rx="2" ry="2" style="stroke:#181818;stroke-width:0.4000000000000001;" width="112.8" x="285.2" y="1592.4"/><text fill="#000000" font-family="sans-serif" font-size="11.2" lengthAdjust="spacing" textLength="101.6" x="290.8" y="1610.0859">CreatePostItHandler</text><rect fill="#E2E2F0" height="26.0969" rx="2" ry="2" style="stroke:#181818;stroke-width:0.4000000000000001;" width="67.2" x="516.8" y="40"/><text fill="#000000" font-family="sans-serif" font-size="11.2" lengthAdjust="spacing" textLength="56" x="522.4" y="57.6859">SBProtocol</text><rect fill="#E2E2F0" height="26.0969" rx="2" ry="2" style="stroke:#181818;stroke-width:0.4000000000000001;" width="67.2" x="516.8" y="1592.4"/><text fill="#000000" font-family="sans-serif" font-size="11.2" lengthAdjust="spacing" textLength="56" x="522.4" y="1610.0859">SBProtocol</text><rect fill="#E2E2F0" height="26.0969" rx="2" ry="2" style="stroke:#181818;stroke-width:0.4000000000000001;" width="79.2" x="594" y="40"/><text fill="#000000" font-family="sans-serif" font-size="11.2" lengthAdjust="spacing" textLength="68" x="599.6" y="57.6859">BoardService</text><rect fill="#E2E2F0" height="26.0969" rx="2" ry="2" style="stroke:#181818;stroke-width:0.4000000000000001;" width="79.2" x="594" y="1592.4"/><text fill="#000000" font-family="sans-serif" font-size="11.2" lengthAdjust="spacing" textLength="68" x="599.6" y="1610.0859">BoardService</text><rect fill="#E2E2F0" height="26.0969" rx="2" ry="2" style="stroke:#181818;stroke-width:0.4000000000000001;" width="76.8" x="681.2" y="40"/><text fill="#000000" font-family="sans-serif" font-size="11.2" lengthAdjust="spacing" textLength="65.6" x="686.8" y="57.6859">PostItService</text><rect fill="#E2E2F0" height="26.0969" rx="2" ry="2" style="stroke:#181818;stroke-width:0.4000000000000001;" width="76.8" x="681.2" y="1592.4"/><text fill="#000000" font-family="sans-serif" font-size="11.2" lengthAdjust="spacing" textLength="65.6" x="686.8" y="1610.0859">PostItService</text><rect fill="#E2E2F0" height="26.0969" rx="2" ry="2" style="stroke:#181818;stroke-width:0.4000000000000001;" width="40" x="766" y="40"/><text fill="#000000" font-family="sans-serif" font-size="11.2" lengthAdjust="spacing" textLength="28.8" x="771.6" y="57.6859">Client</text><rect fill="#E2E2F0" height="26.0969" rx="2" ry="2" style="stroke:#181818;stroke-width:0.4000000000000001;" width="40" x="766" y="1592.4"/><text fill="#000000" font-family="sans-serif" font-size="11.2" lengthAdjust="spacing" textLength="28.8" x="771.6" y="1610.0859">Client</text><rect fill="#E2E2F0" height="26.0969" rx="2" ry="2" style="stroke:#181818;stroke-width:0.4000000000000001;" width="41.6" x="814" y="40"/><text fill="#000000" font-family="sans-serif" font-size="11.2" lengthAdjust="spacing" textLength="30.4" x="819.6" y="57.6859">Board</text><rect fill="#E2E2F0" height="26.0969" rx="2" ry="2" style="stroke:#181818;stroke-width:0.4000000000000001;" width="41.6" x="814" y="1592.4"/><text fill="#000000" font-family="sans-serif" font-size="11.2" lengthAdjust="spacing" textLength="30.4" x="819.6" y="1610.0859">Board</text><rect fill="#E2E2F0" height="26.0969" rx="2" ry="2" style="stroke:#181818;stroke-width:0.4000000000000001;" width="30.4" x="863.6" y="40"/><text fill="#000000" font-family="sans-serif" font-size="11.2" lengthAdjust="spacing" textLength="19.2" x="869.2" y="57.6859">Cell</text><rect fill="#E2E2F0" height="26.0969" rx="2" ry="2" style="stroke:#181818;stroke-width:0.4000000000000001;" width="30.4" x="863.6" y="1592.4"/><text fill="#000000" font-family="sans-serif" font-size="11.2" lengthAdjust="spacing" textLength="19.2" x="869.2" y="1610.0859">Cell</text><rect fill="#E2E2F0" height="26.0969" rx="2" ry="2" style="stroke:#181818;stroke-width:0.4000000000000001;" width="39.2" x="902" y="40"/><text fill="#000000" font-family="sans-serif" font-size="11.2" lengthAdjust="spacing" textLength="28" x="907.6" y="57.6859">PostIt</text><rect fill="#E2E2F0" height="26.0969" rx="2" ry="2" style="stroke:#181818;stroke-width:0.4000000000000001;" width="39.2" x="902" y="1592.4"/><text fill="#000000" font-family="sans-serif" font-size="11.2" lengthAdjust="spacing" textLength="28" x="907.6" y="1610.0859">PostIt</text><rect fill="#E2E2F0" height="26.0969" rx="2" ry="2" style="stroke:#181818;stroke-width:0.4000000000000001;" width="73.6" x="949.2" y="40"/><text fill="#000000" font-family="sans-serif" font-size="11.2" lengthAdjust="spacing" textLength="62.4" x="954.8" y="57.6859">CreatePostIt</text><rect fill="#E2E2F0" height="26.0969" rx="2" ry="2" style="stroke:#181818;stroke-width:0.4000000000000001;" width="73.6" x="949.2" y="1592.4"/><text fill="#000000" font-family="sans-serif" font-size="11.2" lengthAdjust="spacing" textLength="62.4" x="954.8" y="1610.0859">CreatePostIt</text><rect fill="#E2E2F0" height="26.0969" rx="2" ry="2" style="stroke:#181818;stroke-width:0.4000000000000001;" width="100.8" x="1030.8" y="40"/><text fill="#000000" font-family="sans-serif" font-size="11.2" lengthAdjust="spacing" textLength="89.6" x="1036.4" y="57.6859">NewChangeEvent</text><rect fill="#E2E2F0" height="26.0969" rx="2" ry="2" style="stroke:#181818;stroke-width:0.4000000000000001;" width="100.8" x="1030.8" y="1592.4"/><text fill="#000000" font-family="sans-serif" font-size="11.2" lengthAdjust="spacing" textLength="89.6" x="1036.4" y="1610.0859">NewChangeEvent</text><rect fill="#E2E2F0" height="26.0969" rx="2" ry="2" style="stroke:#181818;stroke-width:0.4000000000000001;" width="87.2" x="1139.6" y="40"/><text fill="#000000" font-family="sans-serif" font-size="11.2" lengthAdjust="spacing" textLength="76" x="1145.2" y="57.6859">EventPublisher</text><rect fill="#E2E2F0" height="26.0969" rx="2" ry="2" style="stroke:#181818;stroke-width:0.4000000000000001;" width="87.2" x="1139.6" y="1592.4"/><text fill="#000000" font-family="sans-serif" font-size="11.2" lengthAdjust="spacing" textLength="76" x="1145.2" y="1610.0859">EventPublisher</text><rect fill="#FFFFFF" height="1511.1031" style="stroke:#181818;stroke-width:0.8000000000000002;" width="8" x="40" y="74.8969"/><rect fill="#FFFFFF" height="1471.4375" style="stroke:#181818;stroke-width:0.8000000000000002;" width="8" x="192.8" y="107.3625"/><rect fill="#FFFFFF" height="107.382" style="stroke:#181818;stroke-width:0.8000000000000002;" width="8" x="337.6" y="141.7117"/><rect fill="#FFFFFF" height="1295.357" style="stroke:#181818;stroke-width:0.8000000000000002;" width="8" x="337.6" y="283.443"/><rect fill="#FFFFFF" height="50.0656" style="stroke:#181818;stroke-width:0.8000000000000002;" width="8" x="546.4" y="493.0219"/><rect fill="#FFFFFF" height="73.2148" style="stroke:#181818;stroke-width:0.8000000000000002;" width="8" x="546.4" y="568.1203"/><rect fill="#FFFFFF" height="62.0656" style="stroke:#181818;stroke-width:0.8000000000000002;" width="8" x="546.4" y="1523.9344"/><rect fill="#FFFFFF" height="24" style="stroke:#181818;stroke-width:0.8000000000000002;" width="8" x="629.6" y="176.0609"/><rect fill="#FFFFFF" height="25.0328" style="stroke:#181818;stroke-width:0.8000000000000002;" width="8" x="629.6" y="399.2906"/><rect fill="#FFFFFF" height="24" style="stroke:#181818;stroke-width:0.8000000000000002;" width="8" x="715.6" y="225.0938"/><rect fill="#FFFFFF" height="172.1313" style="stroke:#181818;stroke-width:0.8000000000000002;" width="8" x="715.6" y="926.2453"/><rect fill="#FFFFFF" height="24" style="stroke:#181818;stroke-width:0.8000000000000002;" width="8" x="782" y="334.025"/><rect fill="#FFFFFF" height="25.0328" style="stroke:#181818;stroke-width:0.8000000000000002;" width="8" x="830.8" y="782.4484"/><rect fill="#FFFFFF" height="24" style="stroke:#181818;stroke-width:0.8000000000000002;" width="8" x="830.8" y="951.2781"/><rect fill="#FFFFFF" height="25.0328" style="stroke:#181818;stroke-width:0.8000000000000002;" width="8" x="874.8" y="832.5141"/><rect fill="#FFFFFF" height="24" style="stroke:#181818;stroke-width:0.8000000000000002;" width="8" x="874.8" y="1049.3438"/><rect fill="#FFFFFF" height="24" style="stroke:#181818;stroke-width:0.8000000000000002;" width="8" x="917.6" y="1000.3109"/><rect fill="#FFFFFF" height="24" style="stroke:#181818;stroke-width:0.8000000000000002;" width="8" x="982" y="1305.2211"/><rect fill="#FFFFFF" height="24" style="stroke:#181818;stroke-width:0.8000000000000002;" width="8" x="1077.2" y="1416.5523"/><rect fill="#FFFFFF" height="24" style="stroke:#181818;stroke-width:0.8000000000000002;" width="8" x="1179.2" y="1474.9016"/><polygon fill="#181818" points="183.2,104.1625,191.2,107.3625,183.2,110.5625,186.4,107.3625" style="stroke:#181818;stroke-width:0.8000000000000002;"/><line style="stroke:#181818;stroke-width:0.8000000000000002;" x1="48" x2="188" y1="107.3625" y2="107.3625"/><text fill="#000000" font-family="sans-serif" font-size="10.4" lengthAdjust="spacing" textLength="129.6" x="53.6" y="89.3195">receives CREATE_POST_IT</text><text fill="#000000" font-family="sans-serif" font-size="10.4" lengthAdjust="spacing" textLength="60" x="53.6" y="103.1523">code request</text><polygon fill="#181818" points="328,138.5117,336,141.7117,328,144.9117,331.2,141.7117" style="stroke:#181818;stroke-width:0.8000000000000002;"/><line style="stroke:#181818;stroke-width:0.8000000000000002;" x1="200.8" x2="332.8" y1="141.7117" y2="141.7117"/><text fill="#000000" font-family="sans-serif" font-size="10.4" lengthAdjust="spacing" textLength="121.6" x="206.4" y="137.5016">create(sock,codeRequest)</text><path d="M349.6,117.7625 L349.6,152.9625 L483.2,152.9625 L483.2,125.7625 L475.2,117.7625 L349.6,117.7625 " fill="#FEFFDD" style="stroke:#181818;stroke-width:0.4000000000000001;"/><path d="M475.2,117.7625 L475.2,125.7625 L483.2,125.7625 L475.2,117.7625 " fill="#FEFFDD" style="stroke:#181818;stroke-width:0.4000000000000001;"/><text fill="#000000" font-family="sans-serif" font-size="10.4" lengthAdjust="spacing" textLength="100.8" x="354.4" y="132.9852">receives a socket and</text><text fill="#000000" font-family="sans-serif" font-size="10.4" lengthAdjust="spacing" textLength="116.8" x="354.4" y="146.818">SBProtocol codeRequest</text><polygon fill="#181818" points="620,172.8609,628,176.0609,620,179.2609,623.2,176.0609" style="stroke:#181818;stroke-width:0.8000000000000002;"/><line style="stroke:#181818;stroke-width:0.8000000000000002;" x1="345.6" x2="624.8" y1="176.0609" y2="176.0609"/><text fill="#000000" font-family="sans-serif" font-size="10.4" lengthAdjust="spacing" textLength="35.2" x="351.2" y="171.8508">create()</text><polygon fill="#181818" points="706,221.8938,714,225.0938,706,228.2938,709.2,225.0938" style="stroke:#181818;stroke-width:0.8000000000000002;"/><line style="stroke:#181818;stroke-width:0.8000000000000002;" x1="345.6" x2="710.8" y1="225.0938" y2="225.0938"/><text fill="#000000" font-family="sans-serif" font-size="10.4" lengthAdjust="spacing" textLength="35.2" x="351.2" y="220.8836">create()</text><polygon fill="#181818" points="328,280.243,336,283.443,328,286.643,331.2,283.443" style="stroke:#181818;stroke-width:0.8000000000000002;"/><line style="stroke:#181818;stroke-width:0.8000000000000002;" x1="200.8" x2="332.8" y1="283.443" y2="283.443"/><text fill="#000000" font-family="sans-serif" font-size="10.4" lengthAdjust="spacing" textLength="20.8" x="206.4" y="279.2328">run()</text><path d="M349.6,259.4938 L349.6,294.6938 L532,294.6938 L532,267.4938 L524,259.4938 L349.6,259.4938 " fill="#FEFFDD" style="stroke:#181818;stroke-width:0.4000000000000001;"/><path d="M524,259.4938 L524,267.4938 L532,267.4938 L524,259.4938 " fill="#FEFFDD" style="stroke:#181818;stroke-width:0.4000000000000001;"/><text fill="#000000" font-family="sans-serif" font-size="10.4" lengthAdjust="spacing" textLength="150.4" x="354.4" y="274.7164">create DataInputStream as "inS"</text><text fill="#000000" font-family="sans-serif" font-size="10.4" lengthAdjust="spacing" textLength="165.6" x="354.4" y="288.5492">create DataOutputStream as "outS"</text><polygon fill="#181818" points="772.4,330.825,780.4,334.025,772.4,337.225,775.6,334.025" style="stroke:#181818;stroke-width:0.8000000000000002;"/><line style="stroke:#181818;stroke-width:0.8000000000000002;" x1="345.6" x2="777.2" y1="334.025" y2="334.025"/><text fill="#000000" font-family="sans-serif" font-size="10.4" lengthAdjust="spacing" textLength="116.8" x="351.2" y="329.8148">user = getUserLoggedIn()</text><path d="M793.6,303.1594 L793.6,351.9594 L990.4,351.9594 L990.4,311.1594 L982.4,303.1594 L793.6,303.1594 " fill="#FEFFDD" style="stroke:#181818;stroke-width:0.4000000000000001;"/><path d="M982.4,303.1594 L982.4,311.1594 L990.4,311.1594 L982.4,303.1594 " fill="#FEFFDD" style="stroke:#181818;stroke-width:0.4000000000000001;"/><text fill="#000000" font-family="sans-serif" font-size="10.4" lengthAdjust="spacing" textLength="180" x="798.4" y="318.382">get from SBPServerApp activate status</text><text fill="#000000" font-family="sans-serif" font-size="10.4" lengthAdjust="spacing" textLength="177.6" x="798.4" y="332.2148">Map&lt;InetAddress, Client&gt; activeAuths</text><text fill="#000000" font-family="sans-serif" font-size="10.4" lengthAdjust="spacing" textLength="153.6" x="798.4" y="346.0477">Then from Client get SystemUser</text><polygon fill="#181818" points="620,396.0906,628,399.2906,620,402.4906,623.2,399.2906" style="stroke:#181818;stroke-width:0.8000000000000002;"/><line style="stroke:#181818;stroke-width:0.8000000000000002;" x1="345.6" x2="624.8" y1="399.2906" y2="399.2906"/><text fill="#000000" font-family="sans-serif" font-size="10.4" lengthAdjust="spacing" textLength="268.8" x="351.2" y="395.0805">listBoardsUserParticipatesAndHasWritePermissions(user)</text><polygon fill="#181818" points="354.4,421.1234,346.4,424.3234,354.4,427.5234,351.2,424.3234" style="stroke:#181818;stroke-width:0.8000000000000002;"/><line style="stroke:#181818;stroke-width:0.8000000000000002;" x1="349.6" x2="632.8" y1="424.3234" y2="424.3234"/><text fill="#000000" font-family="sans-serif" font-size="10.4" lengthAdjust="spacing" textLength="31.2" x="359.2" y="420.1133">boards</text><path d="M349.6,434.7234 L349.6,469.9234 L664.8,469.9234 L664.8,442.7234 L656.8,434.7234 L349.6,434.7234 " fill="#FEFFDD" style="stroke:#181818;stroke-width:0.4000000000000001;"/><path d="M656.8,434.7234 L656.8,442.7234 L664.8,442.7234 L656.8,434.7234 " fill="#FEFFDD" style="stroke:#181818;stroke-width:0.4000000000000001;"/><text fill="#000000" font-family="sans-serif" font-size="10.4" lengthAdjust="spacing" textLength="298.4" x="354.4" y="449.9461">string builder appends all boards into string,only atrributes using:</text><text fill="#000000" font-family="sans-serif" font-size="10.4" lengthAdjust="spacing" textLength="248" x="354.4" y="463.7789">getBoardTitle(), getNumRows() and getNumColumns()</text><polygon fill="#181818" points="536.8,489.8219,544.8,493.0219,536.8,496.2219,540,493.0219" style="stroke:#181818;stroke-width:0.8000000000000002;"/><line style="stroke:#181818;stroke-width:0.8000000000000002;" x1="345.6" x2="541.6" y1="493.0219" y2="493.0219"/><text fill="#000000" font-family="sans-serif" font-size="10.4" lengthAdjust="spacing" textLength="35.2" x="351.2" y="488.8117">create()</text><polygon fill="#181818" points="536.8,514.8547,544.8,518.0547,536.8,521.2547,540,518.0547" style="stroke:#181818;stroke-width:0.8000000000000002;"/><line style="stroke:#181818;stroke-width:0.8000000000000002;" x1="345.6" x2="541.6" y1="518.0547" y2="518.0547"/><text fill="#000000" font-family="sans-serif" font-size="10.4" lengthAdjust="spacing" textLength="138.4" x="351.2" y="513.8445">setContentFromString(builder)</text><polygon fill="#181818" points="540.8,539.8875,548.8,543.0875,540.8,546.2875,544,543.0875" style="stroke:#181818;stroke-width:0.8000000000000002;"/><line style="stroke:#181818;stroke-width:0.8000000000000002;" x1="345.6" x2="545.6" y1="543.0875" y2="543.0875"/><text fill="#000000" font-family="sans-serif" font-size="10.4" lengthAdjust="spacing" textLength="50.4" x="351.2" y="538.8773">send(outS)</text><polygon fill="#181818" points="536.8,564.9203,544.8,568.1203,536.8,571.3203,540,568.1203" style="stroke:#181818;stroke-width:0.8000000000000002;"/><line style="stroke:#181818;stroke-width:0.8000000000000002;" x1="345.6" x2="541.6" y1="568.1203" y2="568.1203"/><text fill="#000000" font-family="sans-serif" font-size="10.4" lengthAdjust="spacing" textLength="115.2" x="351.2" y="563.9102">receiveText = create(inS)</text><polygon fill="#181818" points="536.8,589.9531,544.8,593.1531,536.8,596.3531,540,593.1531" style="stroke:#181818;stroke-width:0.8000000000000002;"/><line style="stroke:#181818;stroke-width:0.8000000000000002;" x1="345.6" x2="541.6" y1="593.1531" y2="593.1531"/><text fill="#000000" font-family="sans-serif" font-size="10.4" lengthAdjust="spacing" textLength="96.8" x="351.2" y="588.943">getContentAsString()</text><polygon fill="#181818" points="354.4,638.1352,346.4,641.3352,354.4,644.5352,351.2,641.3352" style="stroke:#181818;stroke-width:0.8000000000000002;"/><line style="stroke:#181818;stroke-width:0.8000000000000002;stroke-dasharray:2.0,2.0;" x1="349.6" x2="549.6" y1="641.3352" y2="641.3352"/><text fill="#000000" font-family="sans-serif" font-size="10.4" lengthAdjust="spacing" textLength="34.4" x="359.2" y="637.125">content</text><path d="M558.4,603.5531 L558.4,666.7531 L732,666.7531 L732,611.5531 L724,603.5531 L558.4,603.5531 " fill="#FEFFDD" style="stroke:#181818;stroke-width:0.4000000000000001;"/><path d="M724,603.5531 L724,611.5531 L732,611.5531 L724,603.5531 " fill="#FEFFDD" style="stroke:#181818;stroke-width:0.4000000000000001;"/><text fill="#000000" font-family="sans-serif" font-size="10.4" lengthAdjust="spacing" textLength="82.4" x="563.2" y="618.7758">gets a string with:</text><text fill="#000000" font-family="sans-serif" font-size="10.4" lengthAdjust="spacing" textLength="48.8" x="563.2" y="632.6086">-board title</text><text fill="#000000" font-family="sans-serif" font-size="10.4" lengthAdjust="spacing" textLength="156.8" x="563.2" y="646.4414">-position in board to create Post-It</text><text fill="#000000" font-family="sans-serif" font-size="10.4" lengthAdjust="spacing" textLength="82.4" x="563.2" y="660.2742">-content of Post-It</text><path d="M349.6,674.8844 L349.6,723.6844 L572.8,723.6844 L572.8,682.8844 L564.8,674.8844 L349.6,674.8844 " fill="#FEFFDD" style="stroke:#181818;stroke-width:0.4000000000000001;"/><path d="M564.8,674.8844 L564.8,682.8844 L572.8,682.8844 L564.8,674.8844 " fill="#FEFFDD" style="stroke:#181818;stroke-width:0.4000000000000001;"/><text fill="#000000" font-family="sans-serif" font-size="10.4" lengthAdjust="spacing" textLength="83.2" x="354.4" y="690.107">SBPServerApp as</text><text fill="#000000" font-family="sans-serif" font-size="10.4" lengthAdjust="spacing" textLength="147.2" x="357.6" y="703.9398">Map&lt;BoardTitle, Board&gt; boards</text><text fill="#000000" font-family="sans-serif" font-size="10.4" lengthAdjust="spacing" textLength="206.4" x="354.4" y="717.7727">get "optBoard" with title after parse "content"</text><line style="stroke:#181818;stroke-width:0.8000000000000002;" x1="345.6" x2="379.2" y1="747.0156" y2="747.0156"/><line style="stroke:#181818;stroke-width:0.8000000000000002;" x1="379.2" x2="379.2" y1="747.0156" y2="757.4156"/><line style="stroke:#181818;stroke-width:0.8000000000000002;" x1="346.4" x2="379.2" y1="757.4156" y2="757.4156"/><polygon fill="#181818" points="354.4,754.2156,346.4,757.4156,354.4,760.6156,351.2,757.4156" style="stroke:#181818;stroke-width:0.8000000000000002;"/><text fill="#000000" font-family="sans-serif" font-size="10.4" lengthAdjust="spacing" textLength="189.6" x="351.2" y="742.8055">checkIfCellIsOccupied(optBoard,position)</text><polygon fill="#181818" points="821.2,779.2484,829.2,782.4484,821.2,785.6484,824.4,782.4484" style="stroke:#181818;stroke-width:0.8000000000000002;"/><line style="stroke:#181818;stroke-width:0.8000000000000002;" x1="345.6" x2="826" y1="782.4484" y2="782.4484"/><text fill="#000000" font-family="sans-serif" font-size="10.4" lengthAdjust="spacing" textLength="100" x="351.2" y="778.2383">cell = getCell(row,col)</text><polygon fill="#181818" points="354.4,804.2813,346.4,807.4813,354.4,810.6813,351.2,807.4813" style="stroke:#181818;stroke-width:0.8000000000000002;"/><line style="stroke:#181818;stroke-width:0.8000000000000002;stroke-dasharray:2.0,2.0;" x1="349.6" x2="834" y1="807.4813" y2="807.4813"/><text fill="#000000" font-family="sans-serif" font-size="10.4" lengthAdjust="spacing" textLength="16" x="359.2" y="803.2711">cell</text><polygon fill="#181818" points="865.2,829.3141,873.2,832.5141,865.2,835.7141,868.4,832.5141" style="stroke:#181818;stroke-width:0.8000000000000002;"/><line style="stroke:#181818;stroke-width:0.8000000000000002;" x1="345.6" x2="870" y1="832.5141" y2="832.5141"/><text fill="#000000" font-family="sans-serif" font-size="10.4" lengthAdjust="spacing" textLength="50.4" x="351.2" y="828.3039">hasPostIt()</text><polygon fill="#181818" points="354.4,854.3469,346.4,857.5469,354.4,860.7469,351.2,857.5469" style="stroke:#181818;stroke-width:0.8000000000000002;"/><line style="stroke:#181818;stroke-width:0.8000000000000002;stroke-dasharray:2.0,2.0;" x1="349.6" x2="878" y1="857.5469" y2="857.5469"/><text fill="#000000" font-family="sans-serif" font-size="10.4" lengthAdjust="spacing" textLength="42.4" x="359.2" y="853.3367">true/false</text><path d="M349.6,867.9469 L349.6,903.1469 L538.4,903.1469 L538.4,875.9469 L530.4,867.9469 L349.6,867.9469 " fill="#FEFFDD" style="stroke:#181818;stroke-width:0.4000000000000001;"/><path d="M530.4,867.9469 L530.4,875.9469 L538.4,875.9469 L530.4,867.9469 " fill="#FEFFDD" style="stroke:#181818;stroke-width:0.4000000000000001;"/><text fill="#000000" font-family="sans-serif" font-size="10.4" lengthAdjust="spacing" textLength="172" x="354.4" y="883.1695">in case of true send SBProtocol.ERR</text><text fill="#000000" font-family="sans-serif" font-size="10.4" lengthAdjust="spacing" textLength="137.6" x="354.4" y="897.0023">with message "Cell occupied"</text><polygon fill="#181818" points="706,923.0453,714,926.2453,706,929.4453,709.2,926.2453" style="stroke:#181818;stroke-width:0.8000000000000002;"/><line style="stroke:#181818;stroke-width:0.8000000000000002;" x1="345.6" x2="710.8" y1="926.2453" y2="926.2453"/><text fill="#000000" font-family="sans-serif" font-size="10.4" lengthAdjust="spacing" textLength="178.4" x="351.2" y="922.0352">createPostIt(board,row,col,text, owner)</text><polygon fill="#181818" points="821.2,948.0781,829.2,951.2781,821.2,954.4781,824.4,951.2781" style="stroke:#181818;stroke-width:0.8000000000000002;"/><line style="stroke:#181818;stroke-width:0.8000000000000002;" x1="723.6" x2="826" y1="951.2781" y2="951.2781"/><text fill="#000000" font-family="sans-serif" font-size="10.4" lengthAdjust="spacing" textLength="71.2" x="729.2" y="947.068">getCell(row,col)</text><polygon fill="#181818" points="908,997.1109,916,1000.3109,908,1003.5109,911.2,1000.3109" style="stroke:#181818;stroke-width:0.8000000000000002;"/><line style="stroke:#181818;stroke-width:0.8000000000000002;" x1="723.6" x2="912.8" y1="1000.3109" y2="1000.3109"/><text fill="#000000" font-family="sans-serif" font-size="10.4" lengthAdjust="spacing" textLength="83.2" x="729.2" y="996.1008">create(owner,text)</text><polygon fill="#181818" points="865.2,1046.1438,873.2,1049.3438,865.2,1052.5438,868.4,1049.3438" style="stroke:#181818;stroke-width:0.8000000000000002;"/><line style="stroke:#181818;stroke-width:0.8000000000000002;" x1="723.6" x2="870" y1="1049.3438" y2="1049.3438"/><text fill="#000000" font-family="sans-serif" font-size="10.4" lengthAdjust="spacing" textLength="76" x="729.2" y="1045.1336">addPostIt(postit)</text><polygon fill="#181818" points="354.4,1095.1766,346.4,1098.3766,354.4,1101.5766,351.2,1098.3766" style="stroke:#181818;stroke-width:0.8000000000000002;"/><line style="stroke:#181818;stroke-width:0.8000000000000002;stroke-dasharray:2.0,2.0;" x1="349.6" x2="718.8" y1="1098.3766" y2="1098.3766"/><text fill="#000000" font-family="sans-serif" font-size="10.4" lengthAdjust="spacing" textLength="42.4" x="359.2" y="1094.1664">true/false</text><path d="M349.6,1108.7766 L349.6,1130.3766 L542.4,1130.3766 L542.4,1116.7766 L534.4,1108.7766 L349.6,1108.7766 " fill="#FEFFDD" style="stroke:#181818;stroke-width:0.4000000000000001;"/><path d="M534.4,1108.7766 L534.4,1116.7766 L542.4,1116.7766 L534.4,1108.7766 " fill="#FEFFDD" style="stroke:#181818;stroke-width:0.4000000000000001;"/><text fill="#000000" font-family="sans-serif" font-size="10.4" lengthAdjust="spacing" textLength="176" x="354.4" y="1123.9992">in case of false send SBProtocol.ERR</text><path d="M349.6,1138.6094 L349.6,1173.8094 L681.6,1173.8094 L681.6,1146.6094 L673.6,1138.6094 L349.6,1138.6094 " fill="#FEFFDD" style="stroke:#181818;stroke-width:0.4000000000000001;"/><path d="M673.6,1138.6094 L673.6,1146.6094 L681.6,1146.6094 L673.6,1138.6094 " fill="#FEFFDD" style="stroke:#181818;stroke-width:0.4000000000000001;"/><text fill="#000000" font-family="sans-serif" font-size="10.4" lengthAdjust="spacing" textLength="315.2" x="354.4" y="1153.832">SBPServerApp as Map&lt;Board, LinkedList&lt;BoardHistory&gt;&gt; histories</text><text fill="#000000" font-family="sans-serif" font-size="10.4" lengthAdjust="spacing" textLength="120.8" x="354.4" y="1167.6648">get histories of "optBoard"</text><line style="stroke:#181818;stroke-width:0.8000000000000002;" x1="345.6" x2="379.2" y1="1228.6898" y2="1228.6898"/><line style="stroke:#181818;stroke-width:0.8000000000000002;" x1="379.2" x2="379.2" y1="1228.6898" y2="1239.0898"/><line style="stroke:#181818;stroke-width:0.8000000000000002;" x1="346.4" x2="379.2" y1="1239.0898" y2="1239.0898"/><polygon fill="#181818" points="354.4,1235.8898,346.4,1239.0898,354.4,1242.2898,351.2,1239.0898" style="stroke:#181818;stroke-width:0.8000000000000002;"/><text fill="#000000" font-family="sans-serif" font-size="10.4" lengthAdjust="spacing" textLength="104" x="351.2" y="1224.4797">sb = getStringBuilder()</text><path d="M464.8,1182.275 L464.8,1272.675 L559.2,1272.675 L559.2,1190.275 L551.2,1182.275 L464.8,1182.275 " fill="#FEFFDD" style="stroke:#181818;stroke-width:0.4000000000000001;"/><path d="M551.2,1182.275 L551.2,1190.275 L559.2,1190.275 L551.2,1182.275 " fill="#FEFFDD" style="stroke:#181818;stroke-width:0.4000000000000001;"/><text fill="#000000" font-family="sans-serif" font-size="10.4" lengthAdjust="spacing" textLength="56.8" x="469.6" y="1197.4977">sb contains:</text><text fill="#000000" font-family="sans-serif" font-size="10.4" lengthAdjust="spacing" textLength="48.8" x="469.6" y="1211.3305">-board title</text><text fill="#000000" font-family="sans-serif" font-size="10.4" lengthAdjust="spacing" textLength="19.2" x="469.6" y="1225.1633">-row</text><text fill="#000000" font-family="sans-serif" font-size="10.4" lengthAdjust="spacing" textLength="36.8" x="469.6" y="1238.9961">-column</text><text fill="#000000" font-family="sans-serif" font-size="10.4" lengthAdjust="spacing" textLength="74.4" x="469.6" y="1252.8289">-Local date time</text><text fill="#000000" font-family="sans-serif" font-size="10.4" lengthAdjust="spacing" textLength="77.6" x="469.6" y="1266.6617">-content of postit</text><polygon fill="#181818" points="972.4,1302.0211,980.4,1305.2211,972.4,1308.4211,975.6,1305.2211" style="stroke:#181818;stroke-width:0.8000000000000002;"/><line style="stroke:#181818;stroke-width:0.8000000000000002;" x1="345.6" x2="977.2" y1="1305.2211" y2="1305.2211"/><text fill="#000000" font-family="sans-serif" font-size="10.4" lengthAdjust="spacing" textLength="91.2" x="351.2" y="1301.0109">create(optBoard,sb)</text><path d="M993.6,1281.2719 L993.6,1316.4719 L1140,1316.4719 L1140,1289.2719 L1132,1281.2719 L993.6,1281.2719 " fill="#FEFFDD" style="stroke:#181818;stroke-width:0.4000000000000001;"/><path d="M1132,1281.2719 L1132,1289.2719 L1140,1289.2719 L1132,1281.2719 " fill="#FEFFDD" style="stroke:#181818;stroke-width:0.4000000000000001;"/><text fill="#000000" font-family="sans-serif" font-size="10.4" lengthAdjust="spacing" textLength="129.6" x="998.4" y="1296.4945">Class extends BoardHistory</text><text fill="#000000" font-family="sans-serif" font-size="10.4" lengthAdjust="spacing" textLength="3.2" x="998.4" y="1310.3273">&#160;</text><path d="M349.6,1348.9375 L349.6,1384.1375 L545.6,1384.1375 L545.6,1356.9375 L537.6,1348.9375 L349.6,1348.9375 " fill="#FEFFDD" style="stroke:#181818;stroke-width:0.4000000000000001;"/><path d="M537.6,1348.9375 L537.6,1356.9375 L545.6,1356.9375 L537.6,1348.9375 " fill="#FEFFDD" style="stroke:#181818;stroke-width:0.4000000000000001;"/><text fill="#000000" font-family="sans-serif" font-size="10.4" lengthAdjust="spacing" textLength="179.2" x="354.4" y="1364.1602">push this new instance inside histories</text><text fill="#000000" font-family="sans-serif" font-size="10.4" lengthAdjust="spacing" textLength="120.8" x="354.4" y="1377.993">history.push(CreatePostIt)</text><polygon fill="#181818" points="1067.6,1413.3523,1075.6,1416.5523,1067.6,1419.7523,1070.8,1416.5523" style="stroke:#181818;stroke-width:0.8000000000000002;"/><line style="stroke:#181818;stroke-width:0.8000000000000002;" x1="345.6" x2="1072.4" y1="1416.5523" y2="1416.5523"/><text fill="#000000" font-family="sans-serif" font-size="10.4" lengthAdjust="spacing" textLength="168.8" x="351.2" y="1412.3422">event = create(optBoard,receiveText)</text><path d="M1088.8,1392.6031 L1088.8,1427.8031 L1224.8,1427.8031 L1224.8,1400.6031 L1216.8,1392.6031 L1088.8,1392.6031 " fill="#FEFFDD" style="stroke:#181818;stroke-width:0.4000000000000001;"/><path d="M1216.8,1392.6031 L1216.8,1400.6031 L1224.8,1400.6031 L1216.8,1392.6031 " fill="#FEFFDD" style="stroke:#181818;stroke-width:0.4000000000000001;"/><text fill="#000000" font-family="sans-serif" font-size="10.4" lengthAdjust="spacing" textLength="119.2" x="1093.6" y="1407.8258">receiveText is SBProtocol</text><text fill="#000000" font-family="sans-serif" font-size="10.4" lengthAdjust="spacing" textLength="79.2" x="1093.6" y="1421.6586">mentioned before</text><polygon fill="#181818" points="1169.6,1471.7016,1177.6,1474.9016,1169.6,1478.1016,1172.8,1474.9016" style="stroke:#181818;stroke-width:0.8000000000000002;"/><line style="stroke:#181818;stroke-width:0.8000000000000002;" x1="345.6" x2="1174.4" y1="1474.9016" y2="1474.9016"/><text fill="#000000" font-family="sans-serif" font-size="10.4" lengthAdjust="spacing" textLength="63.2" x="351.2" y="1470.6914">publish(event)</text><polygon fill="#181818" points="536.8,1520.7344,544.8,1523.9344,536.8,1527.1344,540,1523.9344" style="stroke:#181818;stroke-width:0.8000000000000002;"/><line style="stroke:#181818;stroke-width:0.8000000000000002;" x1="345.6" x2="541.6" y1="1523.9344" y2="1523.9344"/><text fill="#000000" font-family="sans-serif" font-size="10.4" lengthAdjust="spacing" textLength="35.2" x="351.2" y="1519.7242">create()</text><polygon fill="#181818" points="536.8,1548.1672,544.8,1551.3672,536.8,1554.5672,540,1551.3672" style="stroke:#181818;stroke-width:0.8000000000000002;"/><line style="stroke:#181818;stroke-width:0.8000000000000002;" x1="345.6" x2="541.6" y1="1551.3672" y2="1551.3672"/><text fill="#000000" font-family="sans-serif" font-size="10.4" lengthAdjust="spacing" textLength="122.4" x="351.2" y="1547.157">setCode(SBProtocol.ACK)</text><path d="M558.4,1534.3344 L558.4,1555.9344 L733.6,1555.9344 L733.6,1542.3344 L725.6,1534.3344 L558.4,1534.3344 " fill="#FEFFDD" style="stroke:#181818;stroke-width:0.4000000000000001;"/><path d="M725.6,1534.3344 L725.6,1542.3344 L733.6,1542.3344 L725.6,1534.3344 " fill="#FEFFDD" style="stroke:#181818;stroke-width:0.4000000000000001;"/><text fill="#000000" font-family="sans-serif" font-size="10.4" lengthAdjust="spacing" textLength="158.4" x="563.2" y="1549.557">indicates success of the operation</text><polygon fill="#181818" points="536.8,1575.6,544.8,1578.8,536.8,1582,540,1578.8" style="stroke:#181818;stroke-width:0.8000000000000002;"/><line style="stroke:#181818;stroke-width:0.8000000000000002;" x1="341.6" x2="541.6" y1="1578.8" y2="1578.8"/><text fill="#000000" font-family="sans-serif" font-size="10.4" lengthAdjust="spacing" textLength="50.4" x="347.2" y="1574.5898">send(outS)</text><!--SRC=[fLTHRo8v37xdLqGyWKJttj5j9ShrL7JTRLKuxGjI5J86eWx9N98fstz_jXDWfcHezsvUPYPnRCV-_3cHAbWdvZUFSt2lu2PL9QGNddzwlKgwe9Mkf0dY6vZw2VwfmGSIsU5lQtxgG0Puj3xCmfqqHGcEvBRnioMAvfmDLjcIZQsgrkoDbQuWTxG2cbyz-rVLaeX66YBLcSYqr63OKVLS-tVssGAhRg-1aXrI-CxOOqFufKFdlgEzZD1ts4yn4XkuVKrk6GKj2Pvuh5UbzjiOEQXwFQc2VaNrXup4bxYwvlYBiN2WGB-25zEdsydYzldnORvudYsMHja2S9RpTLB3MHFuy79Kaz8p5egtCV1MlOneRKhraAMDnRLERxQXQL8AaWRSZYcMff7KndfUVZH_08D8J_edHpZBukZ7y2XpN1nnS1Wke6EYeRFwK6VLfVCqqHWyk8zF9eOKcjeCCX6BziKVCiYPgUem3pYmenptjPdtCLadWOSwj2Ki_lLxduvZX3iQvTTNiO7mDtxTsyq6Yfbf1E7aufYanDhPtJicEA8lo53xfVacgzzd1iAaA1nuFqfbTXqbOLA7BKejjc2YjbI5f7t-vWFio9NpBAGIpQGXpLm231PCu8BsfFpnK581_CGKTzB_S1hB4znEUw-jyGFI-26yw8aMMWbUiQ5k46Q2A-pwL6K-E6qsObNhig0ghoem1LOI4azKBRG9DecDh2dVX0pEwLMD-y6KukXuYJGITxpGeKHOZoZ0t-lTaztxmP2gCGrCRLdlSCV3NFoGTY-M1j5oCnfdIps4gJK14_mdvdhEBW_IpeOVBJN5W80zp8MIB7TxdEXd0Jy3mZlvZsNqNxQmEMvXujC6sfwJs5KB0IhAjwHQnOuwcHfZflSwR35ZLvnT4IXX-8STGWS48sPRf1bxO0dg95UpW5B9504e3NuOhGxOlUllIoEeaayO6iMMU9r0o0X3vgaYpFgyY-YyaEk0SS3EvK7qauVzNBOQ8Tk2UfcjgRtE_8DITQK1qv-qZmx16FRoTKuQg3Cpbv6IWRDxx55bheZR1TpCNTIIBTqiZvB9COxusDfp9T9II0ylQkCbk1f-MylIGvRVICFbxA4EH8cI66yS97LSFer3r9VRfwUbuHpja9Nb1ZF3PncROjtlVTmTqouP0ACKu5708Xi9kpTPngpE61EVwa2QgrHVsOHTpbjNUjwRY0Uj4ukne-nqjwLqEEisbnSusaoua4MH8XRbkmsUWII3WBonNy1HEnMVm15hoW7f5wdaH2GZSQ_D2nJts8_Zo1r-MVTsZTlWBms9MOw_fFb4CvTPnAyY0qIUlebz9dkSYSB4JL8RVyw-Y4PcLsgE-75lbIn5GM4CUWTjuareo9-qpl1te3I_oh75SmPQBQ-dfVHuxlyP-53GZE7Iv4z7xzthodnLUoHmZBimi4SSu84EBo3qeV6Qq4XF_7pxGWi6pQlDC1i3KZ8Mm9UQhsTXQBJgJ3pe1fJPL7CuT-_WneyRES5sQV0aJXq42h62jNMGzHKg3WJVi0RiSiOfg78-mQK3oVyzGXKmQ9JWPFhNi1iXsXHQqTbM-5ef97lk2LiiwGgSf1Xy-k3LVRbf3F9zaPv_0G00]--></g></svg>