<?xml version="1.0" encoding="us-ascii" standalone="no"?><svg xmlns="http://www.w3.org/2000/svg" xmlns:xlink="http://www.w3.org/1999/xlink" contentStyleType="text/css" height="1462px" preserveAspectRatio="none" style="width:1346px;height:1462px;background:#FFFFFF;" version="1.1" viewBox="0 0 1346 1462" width="1346px" zoomAndPan="magnify"><defs/><g><rect fill="#FFFFFF" height="1277.1855" style="stroke:#181818;stroke-width:1.0;" width="10" x="50" y="93.6211"/><rect fill="#FFFFFF" height="30" style="stroke:#181818;stroke-width:1.0;" width="10" x="231" y="128.5576"/><rect fill="#FFFFFF" height="1148.667" style="stroke:#181818;stroke-width:1.0;" width="10" x="231" y="213.1396"/><rect fill="#FFFFFF" height="68.582" style="stroke:#181818;stroke-width:1.0;" width="10" x="492" y="379.9492"/><rect fill="#FFFFFF" height="60.2275" style="stroke:#181818;stroke-width:1.0;" width="10" x="492" y="479.8223"/><rect fill="#FFFFFF" height="43.291" style="stroke:#181818;stroke-width:1.0;" width="10" x="492" y="1327.5156"/><rect fill="#FFFFFF" height="31.291" style="stroke:#181818;stroke-width:1.0;" width="10" x="593.5" y="317.3672"/><rect fill="#FFFFFF" height="215.1641" style="stroke:#181818;stroke-width:1.0;" width="10" x="701" y="744.4414"/><rect fill="#FFFFFF" height="30" style="stroke:#181818;stroke-width:1.0;" width="10" x="784" y="256.0762"/><rect fill="#FFFFFF" height="30" style="stroke:#181818;stroke-width:1.0;" width="10" x="845" y="775.7324"/><rect fill="#FFFFFF" height="31.291" style="stroke:#181818;stroke-width:1.0;" width="10" x="900" y="681.8594"/><rect fill="#FFFFFF" height="30" style="stroke:#181818;stroke-width:1.0;" width="10" x="900" y="898.3145"/><rect fill="#FFFFFF" height="30" style="stroke:#181818;stroke-width:1.0;" width="10" x="953.5" y="837.0234"/><rect fill="#FFFFFF" height="30" style="stroke:#181818;stroke-width:1.0;" width="10" x="1034" y="1065.7695"/><rect fill="#FFFFFF" height="30" style="stroke:#181818;stroke-width:1.0;" width="10" x="1153" y="1201.9336"/><rect fill="#FFFFFF" height="30" style="stroke:#181818;stroke-width:1.0;" width="10" x="1280.5" y="1263.2246"/><line style="stroke:#181818;stroke-width:0.5;stroke-dasharray:5.0,5.0;" x1="55" x2="55" y1="83.6211" y2="1379.8066"/><line style="stroke:#181818;stroke-width:0.5;stroke-dasharray:5.0,5.0;" x1="235.5" x2="235.5" y1="83.6211" y2="1379.8066"/><line style="stroke:#181818;stroke-width:0.5;stroke-dasharray:5.0,5.0;" x1="497" x2="497" y1="83.6211" y2="1379.8066"/><line style="stroke:#181818;stroke-width:0.5;stroke-dasharray:5.0,5.0;" x1="598" x2="598" y1="83.6211" y2="1379.8066"/><line style="stroke:#181818;stroke-width:0.5;stroke-dasharray:5.0,5.0;" x1="706" x2="706" y1="83.6211" y2="1379.8066"/><line style="stroke:#181818;stroke-width:0.5;stroke-dasharray:5.0,5.0;" x1="789" x2="789" y1="83.6211" y2="1379.8066"/><line style="stroke:#181818;stroke-width:0.5;stroke-dasharray:5.0,5.0;" x1="850" x2="850" y1="83.6211" y2="1379.8066"/><line style="stroke:#181818;stroke-width:0.5;stroke-dasharray:5.0,5.0;" x1="905" x2="905" y1="83.6211" y2="1379.8066"/><line style="stroke:#181818;stroke-width:0.5;stroke-dasharray:5.0,5.0;" x1="958" x2="958" y1="83.6211" y2="1379.8066"/><line style="stroke:#181818;stroke-width:0.5;stroke-dasharray:5.0,5.0;" x1="1039" x2="1039" y1="83.6211" y2="1379.8066"/><line style="stroke:#181818;stroke-width:0.5;stroke-dasharray:5.0,5.0;" x1="1158" x2="1158" y1="83.6211" y2="1379.8066"/><line style="stroke:#181818;stroke-width:0.5;stroke-dasharray:5.0,5.0;" x1="1285" x2="1285" y1="83.6211" y2="1379.8066"/><text fill="#000000" font-family="sans-serif" font-size="14" lengthAdjust="spacing" textLength="94" x="5" y="80.1074">SBPServerApp</text><ellipse cx="55" cy="13.5" fill="#E2E2F0" rx="8" ry="8" style="stroke:#181818;stroke-width:0.5;"/><path d="M55,21.5 L55,48.5 M42,29.5 L68,29.5 M55,48.5 L42,63.5 M55,48.5 L68,63.5 " fill="none" style="stroke:#181818;stroke-width:0.5;"/><text fill="#000000" font-family="sans-serif" font-size="14" lengthAdjust="spacing" textLength="94" x="5" y="1393.9141">SBPServerApp</text><ellipse cx="55" cy="1405.9277" fill="#E2E2F0" rx="8" ry="8" style="stroke:#181818;stroke-width:0.5;"/><path d="M55,1413.9277 L55,1440.9277 M42,1421.9277 L68,1421.9277 M55,1440.9277 L42,1455.9277 M55,1440.9277 L68,1455.9277 " fill="none" style="stroke:#181818;stroke-width:0.5;"/><rect fill="#E2E2F0" height="32.6211" rx="2.5" ry="2.5" style="stroke:#181818;stroke-width:0.5;" width="141" x="165.5" y="50"/><text fill="#000000" font-family="sans-serif" font-size="14" lengthAdjust="spacing" textLength="127" x="172.5" y="72.1074">CreatePostItHandler</text><rect fill="#E2E2F0" height="32.6211" rx="2.5" ry="2.5" style="stroke:#181818;stroke-width:0.5;" width="141" x="165.5" y="1378.8066"/><text fill="#000000" font-family="sans-serif" font-size="14" lengthAdjust="spacing" textLength="127" x="172.5" y="1400.9141">CreatePostItHandler</text><rect fill="#E2E2F0" height="32.6211" rx="2.5" ry="2.5" style="stroke:#181818;stroke-width:0.5;" width="84" x="455" y="50"/><text fill="#000000" font-family="sans-serif" font-size="14" lengthAdjust="spacing" textLength="70" x="462" y="72.1074">SBProtocol</text><rect fill="#E2E2F0" height="32.6211" rx="2.5" ry="2.5" style="stroke:#181818;stroke-width:0.5;" width="84" x="455" y="1378.8066"/><text fill="#000000" font-family="sans-serif" font-size="14" lengthAdjust="spacing" textLength="70" x="462" y="1400.9141">SBProtocol</text><rect fill="#E2E2F0" height="32.6211" rx="2.5" ry="2.5" style="stroke:#181818;stroke-width:0.5;" width="99" x="549" y="50"/><text fill="#000000" font-family="sans-serif" font-size="14" lengthAdjust="spacing" textLength="85" x="556" y="72.1074">BoardService</text><rect fill="#E2E2F0" height="32.6211" rx="2.5" ry="2.5" style="stroke:#181818;stroke-width:0.5;" width="99" x="549" y="1378.8066"/><text fill="#000000" font-family="sans-serif" font-size="14" lengthAdjust="spacing" textLength="85" x="556" y="1400.9141">BoardService</text><rect fill="#E2E2F0" height="32.6211" rx="2.5" ry="2.5" style="stroke:#181818;stroke-width:0.5;" width="96" x="658" y="50"/><text fill="#000000" font-family="sans-serif" font-size="14" lengthAdjust="spacing" textLength="82" x="665" y="72.1074">PostItService</text><rect fill="#E2E2F0" height="32.6211" rx="2.5" ry="2.5" style="stroke:#181818;stroke-width:0.5;" width="96" x="658" y="1378.8066"/><text fill="#000000" font-family="sans-serif" font-size="14" lengthAdjust="spacing" textLength="82" x="665" y="1400.9141">PostItService</text><rect fill="#E2E2F0" height="32.6211" rx="2.5" ry="2.5" style="stroke:#181818;stroke-width:0.5;" width="50" x="764" y="50"/><text fill="#000000" font-family="sans-serif" font-size="14" lengthAdjust="spacing" textLength="36" x="771" y="72.1074">Client</text><rect fill="#E2E2F0" height="32.6211" rx="2.5" ry="2.5" style="stroke:#181818;stroke-width:0.5;" width="50" x="764" y="1378.8066"/><text fill="#000000" font-family="sans-serif" font-size="14" lengthAdjust="spacing" textLength="36" x="771" y="1400.9141">Client</text><rect fill="#E2E2F0" height="32.6211" rx="2.5" ry="2.5" style="stroke:#181818;stroke-width:0.5;" width="52" x="824" y="50"/><text fill="#000000" font-family="sans-serif" font-size="14" lengthAdjust="spacing" textLength="38" x="831" y="72.1074">Board</text><rect fill="#E2E2F0" height="32.6211" rx="2.5" ry="2.5" style="stroke:#181818;stroke-width:0.5;" width="52" x="824" y="1378.8066"/><text fill="#000000" font-family="sans-serif" font-size="14" lengthAdjust="spacing" textLength="38" x="831" y="1400.9141">Board</text><rect fill="#E2E2F0" height="32.6211" rx="2.5" ry="2.5" style="stroke:#181818;stroke-width:0.5;" width="38" x="886" y="50"/><text fill="#000000" font-family="sans-serif" font-size="14" lengthAdjust="spacing" textLength="24" x="893" y="72.1074">Cell</text><rect fill="#E2E2F0" height="32.6211" rx="2.5" ry="2.5" style="stroke:#181818;stroke-width:0.5;" width="38" x="886" y="1378.8066"/><text fill="#000000" font-family="sans-serif" font-size="14" lengthAdjust="spacing" textLength="24" x="893" y="1400.9141">Cell</text><rect fill="#E2E2F0" height="32.6211" rx="2.5" ry="2.5" style="stroke:#181818;stroke-width:0.5;" width="49" x="934" y="50"/><text fill="#000000" font-family="sans-serif" font-size="14" lengthAdjust="spacing" textLength="35" x="941" y="72.1074">PostIt</text><rect fill="#E2E2F0" height="32.6211" rx="2.5" ry="2.5" style="stroke:#181818;stroke-width:0.5;" width="49" x="934" y="1378.8066"/><text fill="#000000" font-family="sans-serif" font-size="14" lengthAdjust="spacing" textLength="35" x="941" y="1400.9141">PostIt</text><rect fill="#E2E2F0" height="32.6211" rx="2.5" ry="2.5" style="stroke:#181818;stroke-width:0.5;" width="92" x="993" y="50"/><text fill="#000000" font-family="sans-serif" font-size="14" lengthAdjust="spacing" textLength="78" x="1000" y="72.1074">CreatePostIt</text><rect fill="#E2E2F0" height="32.6211" rx="2.5" ry="2.5" style="stroke:#181818;stroke-width:0.5;" width="92" x="993" y="1378.8066"/><text fill="#000000" font-family="sans-serif" font-size="14" lengthAdjust="spacing" textLength="78" x="1000" y="1400.9141">CreatePostIt</text><rect fill="#E2E2F0" height="32.6211" rx="2.5" ry="2.5" style="stroke:#181818;stroke-width:0.5;" width="126" x="1095" y="50"/><text fill="#000000" font-family="sans-serif" font-size="14" lengthAdjust="spacing" textLength="112" x="1102" y="72.1074">NewChangeEvent</text><rect fill="#E2E2F0" height="32.6211" rx="2.5" ry="2.5" style="stroke:#181818;stroke-width:0.5;" width="126" x="1095" y="1378.8066"/><text fill="#000000" font-family="sans-serif" font-size="14" lengthAdjust="spacing" textLength="112" x="1102" y="1400.9141">NewChangeEvent</text><rect fill="#E2E2F0" height="32.6211" rx="2.5" ry="2.5" style="stroke:#181818;stroke-width:0.5;" width="109" x="1231" y="50"/><text fill="#000000" font-family="sans-serif" font-size="14" lengthAdjust="spacing" textLength="95" x="1238" y="72.1074">EventPublisher</text><rect fill="#E2E2F0" height="32.6211" rx="2.5" ry="2.5" style="stroke:#181818;stroke-width:0.5;" width="109" x="1231" y="1378.8066"/><text fill="#000000" font-family="sans-serif" font-size="14" lengthAdjust="spacing" textLength="95" x="1238" y="1400.9141">EventPublisher</text><rect fill="#FFFFFF" height="1277.1855" style="stroke:#181818;stroke-width:1.0;" width="10" x="50" y="93.6211"/><rect fill="#FFFFFF" height="30" style="stroke:#181818;stroke-width:1.0;" width="10" x="231" y="128.5576"/><rect fill="#FFFFFF" height="1148.667" style="stroke:#181818;stroke-width:1.0;" width="10" x="231" y="213.1396"/><rect fill="#FFFFFF" height="68.582" style="stroke:#181818;stroke-width:1.0;" width="10" x="492" y="379.9492"/><rect fill="#FFFFFF" height="60.2275" style="stroke:#181818;stroke-width:1.0;" width="10" x="492" y="479.8223"/><rect fill="#FFFFFF" height="43.291" style="stroke:#181818;stroke-width:1.0;" width="10" x="492" y="1327.5156"/><rect fill="#FFFFFF" height="31.291" style="stroke:#181818;stroke-width:1.0;" width="10" x="593.5" y="317.3672"/><rect fill="#FFFFFF" height="215.1641" style="stroke:#181818;stroke-width:1.0;" width="10" x="701" y="744.4414"/><rect fill="#FFFFFF" height="30" style="stroke:#181818;stroke-width:1.0;" width="10" x="784" y="256.0762"/><rect fill="#FFFFFF" height="30" style="stroke:#181818;stroke-width:1.0;" width="10" x="845" y="775.7324"/><rect fill="#FFFFFF" height="31.291" style="stroke:#181818;stroke-width:1.0;" width="10" x="900" y="681.8594"/><rect fill="#FFFFFF" height="30" style="stroke:#181818;stroke-width:1.0;" width="10" x="900" y="898.3145"/><rect fill="#FFFFFF" height="30" style="stroke:#181818;stroke-width:1.0;" width="10" x="953.5" y="837.0234"/><rect fill="#FFFFFF" height="30" style="stroke:#181818;stroke-width:1.0;" width="10" x="1034" y="1065.7695"/><rect fill="#FFFFFF" height="30" style="stroke:#181818;stroke-width:1.0;" width="10" x="1153" y="1201.9336"/><rect fill="#FFFFFF" height="30" style="stroke:#181818;stroke-width:1.0;" width="10" x="1280.5" y="1263.2246"/><polygon fill="#181818" points="219,124.5576,229,128.5576,219,132.5576,223,128.5576" style="stroke:#181818;stroke-width:1.0;"/><line style="stroke:#181818;stroke-width:1.0;" x1="60" x2="225" y1="128.5576" y2="128.5576"/><text fill="#000000" font-family="sans-serif" font-size="13" lengthAdjust="spacing" textLength="152" x="67" y="123.2949">create(sock,codeRequest)</text><path d="M246,98.6211 L246,142.6211 L547,142.6211 L547,108.6211 L537,98.6211 L246,98.6211 " fill="#FEFFDD" style="stroke:#181818;stroke-width:0.5;"/><path d="M537,98.6211 L537,108.6211 L547,108.6211 L537,98.6211 " fill="#FEFFDD" style="stroke:#181818;stroke-width:0.5;"/><text fill="#000000" font-family="sans-serif" font-size="13" lengthAdjust="spacing" textLength="280" x="252" y="117.6494">-receives a socket and SBProtocol codeRequest</text><text fill="#000000" font-family="sans-serif" font-size="13" lengthAdjust="spacing" textLength="98" x="252" y="134.9404">-creates services</text><polygon fill="#181818" points="219,209.1396,229,213.1396,219,217.1396,223,213.1396" style="stroke:#181818;stroke-width:1.0;"/><line style="stroke:#181818;stroke-width:1.0;" x1="60" x2="225" y1="213.1396" y2="213.1396"/><text fill="#000000" font-family="sans-serif" font-size="13" lengthAdjust="spacing" textLength="26" x="67" y="207.877">run()</text><path d="M246,183.2031 L246,227.2031 L474,227.2031 L474,193.2031 L464,183.2031 L246,183.2031 " fill="#FEFFDD" style="stroke:#181818;stroke-width:0.5;"/><path d="M464,183.2031 L464,193.2031 L474,193.2031 L464,183.2031 " fill="#FEFFDD" style="stroke:#181818;stroke-width:0.5;"/><text fill="#000000" font-family="sans-serif" font-size="13" lengthAdjust="spacing" textLength="188" x="252" y="202.2314">create DataInputStream as "inS"</text><text fill="#000000" font-family="sans-serif" font-size="13" lengthAdjust="spacing" textLength="207" x="252" y="219.5225">create DataOutputStream as "outS"</text><polygon fill="#181818" points="772,252.0762,782,256.0762,772,260.0762,776,256.0762" style="stroke:#181818;stroke-width:1.0;"/><line style="stroke:#181818;stroke-width:1.0;" x1="241" x2="778" y1="256.0762" y2="256.0762"/><text fill="#000000" font-family="sans-serif" font-size="13" lengthAdjust="spacing" textLength="146" x="248" y="250.8135">user = getUserLoggedIn()</text><polygon fill="#181818" points="581.5,313.3672,591.5,317.3672,581.5,321.3672,585.5,317.3672" style="stroke:#181818;stroke-width:1.0;"/><line style="stroke:#181818;stroke-width:1.0;" x1="241" x2="587.5" y1="317.3672" y2="317.3672"/><text fill="#000000" font-family="sans-serif" font-size="13" lengthAdjust="spacing" textLength="153" x="248" y="312.1045">boardsUserCanWrite(user)</text><polygon fill="#181818" points="252,344.6582,242,348.6582,252,352.6582,248,348.6582" style="stroke:#181818;stroke-width:1.0;"/><line style="stroke:#181818;stroke-width:1.0;" x1="246" x2="597.5" y1="348.6582" y2="348.6582"/><text fill="#000000" font-family="sans-serif" font-size="13" lengthAdjust="spacing" textLength="39" x="258" y="343.3955">boards</text><polygon fill="#181818" points="480,375.9492,490,379.9492,480,383.9492,484,379.9492" style="stroke:#181818;stroke-width:1.0;"/><line style="stroke:#181818;stroke-width:1.0;" x1="241" x2="486" y1="379.9492" y2="379.9492"/><text fill="#000000" font-family="sans-serif" font-size="13" lengthAdjust="spacing" textLength="44" x="248" y="374.6865">create()</text><path d="M246,392.9492 L246,419.9492 L437,419.9492 L437,402.9492 L427,392.9492 L246,392.9492 " fill="#FEFFDD" style="stroke:#181818;stroke-width:0.5;"/><path d="M427,392.9492 L427,402.9492 L437,402.9492 L427,392.9492 " fill="#FEFFDD" style="stroke:#181818;stroke-width:0.5;"/><text fill="#000000" font-family="sans-serif" font-size="13" lengthAdjust="spacing" textLength="170" x="252" y="411.9775">appends all boards into string</text><polygon fill="#181818" points="485,444.5313,495,448.5313,485,452.5313,489,448.5313" style="stroke:#181818;stroke-width:1.0;"/><line style="stroke:#181818;stroke-width:1.0;" x1="241" x2="491" y1="448.5313" y2="448.5313"/><text fill="#000000" font-family="sans-serif" font-size="13" lengthAdjust="spacing" textLength="63" x="248" y="443.2686">send(outS)</text><polygon fill="#181818" points="480,475.8223,490,479.8223,480,483.8223,484,479.8223" style="stroke:#181818;stroke-width:1.0;"/><line style="stroke:#181818;stroke-width:1.0;" x1="241" x2="486" y1="479.8223" y2="479.8223"/><text fill="#000000" font-family="sans-serif" font-size="13" lengthAdjust="spacing" textLength="144" x="248" y="474.5596">receiveText = create(inS)</text><polygon fill="#181818" points="252,536.0498,242,540.0498,252,544.0498,248,540.0498" style="stroke:#181818;stroke-width:1.0;"/><line style="stroke:#181818;stroke-width:1.0;stroke-dasharray:2.0,2.0;" x1="246" x2="496" y1="540.0498" y2="540.0498"/><text fill="#000000" font-family="sans-serif" font-size="13" lengthAdjust="spacing" textLength="43" x="258" y="534.7871">content</text><path d="M507,492.8223 L507,571.8223 L724,571.8223 L724,502.8223 L714,492.8223 L507,492.8223 " fill="#FEFFDD" style="stroke:#181818;stroke-width:0.5;"/><path d="M714,492.8223 L714,502.8223 L724,502.8223 L714,492.8223 " fill="#FEFFDD" style="stroke:#181818;stroke-width:0.5;"/><text fill="#000000" font-family="sans-serif" font-size="13" lengthAdjust="spacing" textLength="47" x="513" y="511.8506">content:</text><text fill="#000000" font-family="sans-serif" font-size="13" lengthAdjust="spacing" textLength="61" x="513" y="529.1416">-board title</text><text fill="#000000" font-family="sans-serif" font-size="13" lengthAdjust="spacing" textLength="196" x="513" y="546.4326">-position in board to create Post-It</text><text fill="#000000" font-family="sans-serif" font-size="13" lengthAdjust="spacing" textLength="103" x="513" y="563.7236">-content of Post-It</text><path d="M246,581.9863 L246,608.9863 L563,608.9863 L563,591.9863 L553,581.9863 L246,581.9863 " fill="#FEFFDD" style="stroke:#181818;stroke-width:0.5;"/><path d="M553,581.9863 L553,591.9863 L563,591.9863 L553,581.9863 " fill="#FEFFDD" style="stroke:#181818;stroke-width:0.5;"/><text fill="#000000" font-family="sans-serif" font-size="13" lengthAdjust="spacing" textLength="296" x="252" y="601.0146">SBPServerApp as boards ,get board with boardTitle</text><line style="stroke:#181818;stroke-width:1.0;" x1="241" x2="283" y1="637.5684" y2="637.5684"/><line style="stroke:#181818;stroke-width:1.0;" x1="283" x2="283" y1="637.5684" y2="650.5684"/><line style="stroke:#181818;stroke-width:1.0;" x1="242" x2="283" y1="650.5684" y2="650.5684"/><polygon fill="#181818" points="252,646.5684,242,650.5684,252,654.5684,248,650.5684" style="stroke:#181818;stroke-width:1.0;"/><text fill="#000000" font-family="sans-serif" font-size="13" lengthAdjust="spacing" textLength="237" x="248" y="632.3057">checkIfCellIsOccupied(optBoard,position)</text><polygon fill="#181818" points="888,677.8594,898,681.8594,888,685.8594,892,681.8594" style="stroke:#181818;stroke-width:1.0;"/><line style="stroke:#181818;stroke-width:1.0;" x1="241" x2="894" y1="681.8594" y2="681.8594"/><text fill="#000000" font-family="sans-serif" font-size="13" lengthAdjust="spacing" textLength="63" x="248" y="676.5967">hasPostIt()</text><polygon fill="#181818" points="252,709.1504,242,713.1504,252,717.1504,248,713.1504" style="stroke:#181818;stroke-width:1.0;"/><line style="stroke:#181818;stroke-width:1.0;stroke-dasharray:2.0,2.0;" x1="246" x2="904" y1="713.1504" y2="713.1504"/><text fill="#000000" font-family="sans-serif" font-size="13" lengthAdjust="spacing" textLength="53" x="258" y="707.8877">true/false</text><polygon fill="#181818" points="689,740.4414,699,744.4414,689,748.4414,693,744.4414" style="stroke:#181818;stroke-width:1.0;"/><line style="stroke:#181818;stroke-width:1.0;" x1="241" x2="695" y1="744.4414" y2="744.4414"/><text fill="#000000" font-family="sans-serif" font-size="13" lengthAdjust="spacing" textLength="223" x="248" y="739.1787">createPostIt(board,row,col,text, owner)</text><polygon fill="#181818" points="833,771.7324,843,775.7324,833,779.7324,837,775.7324" style="stroke:#181818;stroke-width:1.0;"/><line style="stroke:#181818;stroke-width:1.0;" x1="711" x2="839" y1="775.7324" y2="775.7324"/><text fill="#000000" font-family="sans-serif" font-size="13" lengthAdjust="spacing" textLength="89" x="718" y="770.4697">getCell(row,col)</text><polygon fill="#181818" points="941.5,833.0234,951.5,837.0234,941.5,841.0234,945.5,837.0234" style="stroke:#181818;stroke-width:1.0;"/><line style="stroke:#181818;stroke-width:1.0;" x1="711" x2="947.5" y1="837.0234" y2="837.0234"/><text fill="#000000" font-family="sans-serif" font-size="13" lengthAdjust="spacing" textLength="104" x="718" y="831.7607">create(owner,text)</text><polygon fill="#181818" points="888,894.3145,898,898.3145,888,902.3145,892,898.3145" style="stroke:#181818;stroke-width:1.0;"/><line style="stroke:#181818;stroke-width:1.0;" x1="711" x2="894" y1="898.3145" y2="898.3145"/><text fill="#000000" font-family="sans-serif" font-size="13" lengthAdjust="spacing" textLength="95" x="718" y="893.0518">addPostIt(postit)</text><polygon fill="#181818" points="252,955.6055,242,959.6055,252,963.6055,248,959.6055" style="stroke:#181818;stroke-width:1.0;"/><line style="stroke:#181818;stroke-width:1.0;stroke-dasharray:2.0,2.0;" x1="246" x2="705" y1="959.6055" y2="959.6055"/><text fill="#000000" font-family="sans-serif" font-size="13" lengthAdjust="spacing" textLength="53" x="258" y="954.3428">true/false</text><path d="M246,972.6055 L246,999.6055 L617,999.6055 L617,982.6055 L607,972.6055 L246,972.6055 " fill="#FEFFDD" style="stroke:#181818;stroke-width:0.5;"/><path d="M607,972.6055 L607,982.6055 L617,982.6055 L607,972.6055 " fill="#FEFFDD" style="stroke:#181818;stroke-width:0.5;"/><text fill="#000000" font-family="sans-serif" font-size="13" lengthAdjust="spacing" textLength="350" x="252" y="991.6338">SBPServerApp as boardHistories ,get histories of "optBoard"</text><polygon fill="#181818" points="1022,1061.7695,1032,1065.7695,1022,1069.7695,1026,1065.7695" style="stroke:#181818;stroke-width:1.0;"/><line style="stroke:#181818;stroke-width:1.0;" x1="241" x2="1028" y1="1065.7695" y2="1065.7695"/><text fill="#000000" font-family="sans-serif" font-size="13" lengthAdjust="spacing" textLength="58" x="248" y="1060.5068">create(sb)</text><path d="M1044,1009.8965 L1044,1105.8965 L1162,1105.8965 L1162,1019.8965 L1152,1009.8965 L1044,1009.8965 " fill="#FEFFDD" style="stroke:#181818;stroke-width:0.5;"/><path d="M1152,1009.8965 L1152,1019.8965 L1162,1019.8965 L1152,1009.8965 " fill="#FEFFDD" style="stroke:#181818;stroke-width:0.5;"/><text fill="#000000" font-family="sans-serif" font-size="13" lengthAdjust="spacing" textLength="71" x="1050" y="1028.9248">sb contains:</text><text fill="#000000" font-family="sans-serif" font-size="13" lengthAdjust="spacing" textLength="24" x="1050" y="1046.2158">-row</text><text fill="#000000" font-family="sans-serif" font-size="13" lengthAdjust="spacing" textLength="46" x="1050" y="1063.5068">-column</text><text fill="#000000" font-family="sans-serif" font-size="13" lengthAdjust="spacing" textLength="93" x="1050" y="1080.7979">-Local date time</text><text fill="#000000" font-family="sans-serif" font-size="13" lengthAdjust="spacing" textLength="97" x="1050" y="1098.0889">-content of postit</text><path d="M246,1146.3516 L246,1173.3516 L416,1173.3516 L416,1156.3516 L406,1146.3516 L246,1146.3516 " fill="#FEFFDD" style="stroke:#181818;stroke-width:0.5;"/><path d="M406,1146.3516 L406,1156.3516 L416,1156.3516 L406,1146.3516 " fill="#FEFFDD" style="stroke:#181818;stroke-width:0.5;"/><text fill="#000000" font-family="sans-serif" font-size="13" lengthAdjust="spacing" textLength="149" x="252" y="1165.3799">add postIt to boardHistory</text><polygon fill="#181818" points="1141,1197.9336,1151,1201.9336,1141,1205.9336,1145,1201.9336" style="stroke:#181818;stroke-width:1.0;"/><line style="stroke:#181818;stroke-width:1.0;" x1="241" x2="1147" y1="1201.9336" y2="1201.9336"/><text fill="#000000" font-family="sans-serif" font-size="13" lengthAdjust="spacing" textLength="215" x="248" y="1196.6709">event = create(boardTitle,receiveText)</text><polygon fill="#181818" points="1268.5,1259.2246,1278.5,1263.2246,1268.5,1267.2246,1272.5,1263.2246" style="stroke:#181818;stroke-width:1.0;"/><line style="stroke:#181818;stroke-width:1.0;" x1="241" x2="1274.5" y1="1263.2246" y2="1263.2246"/><text fill="#000000" font-family="sans-serif" font-size="13" lengthAdjust="spacing" textLength="79" x="248" y="1257.9619">publish(event)</text><polygon fill="#181818" points="480,1323.5156,490,1327.5156,480,1331.5156,484,1327.5156" style="stroke:#181818;stroke-width:1.0;"/><line style="stroke:#181818;stroke-width:1.0;" x1="241" x2="486" y1="1327.5156" y2="1327.5156"/><text fill="#000000" font-family="sans-serif" font-size="13" lengthAdjust="spacing" textLength="44" x="248" y="1322.2529">create()</text><path d="M507,1306.2246 L507,1333.2246 L702,1333.2246 L702,1316.2246 L692,1306.2246 L507,1306.2246 " fill="#FEFFDD" style="stroke:#181818;stroke-width:0.5;"/><path d="M692,1306.2246 L692,1316.2246 L702,1316.2246 L692,1306.2246 " fill="#FEFFDD" style="stroke:#181818;stroke-width:0.5;"/><text fill="#000000" font-family="sans-serif" font-size="13" lengthAdjust="spacing" textLength="174" x="513" y="1325.2529">send success of the operation</text><polygon fill="#181818" points="480,1357.8066,490,1361.8066,480,1365.8066,484,1361.8066" style="stroke:#181818;stroke-width:1.0;"/><line style="stroke:#181818;stroke-width:1.0;" x1="236" x2="486" y1="1361.8066" y2="1361.8066"/><text fill="#000000" font-family="sans-serif" font-size="13" lengthAdjust="spacing" textLength="63" x="243" y="1356.5439">send(outS)</text><!--SRC=[fLPBQnin4Bxlhn0-sM3JUw25nYt449fGf_GI25hjn2koaLH9QxV_lgF7sYjxbZHKbzLAe_bcldb8N7XjsVRwVWjs3_QpCOmxvk9FLLM6Mo-5D5nvjhR0FTnhvpV-Xgkc0njaspGjH56VrLuBtKLjjIbshpMtJS2J0i9-_UJsef1882CHSo6oxYJW1_V4K-_Ey2D2L5sUWIuQ9F1Bu4KWd4a_wNV28uI-mM6DJEpWwpwRfGGK4d7ZlgyxwTh479YguiBBFQeVA4yVjlh41cAlc8W6p9qMBqkX6_WEltfmVb4n74hZOIjthMTNR6L1WDo3Ovm5SK1BL3CEn-ZyerebpIdUoBIB6eyc3P6DgmrShgUTaybv0msnlPeJzYKyzeLxlb6czrkF2w-1YvbKszcZ6WdSzRwKqFWtgsWJMHw31MXCIWi4ZP-FR0V-1yvkzMu7pMOmhz2MCsbO7xcSToYScBq8KuUSSm5YpTLFAp5YuGm1a_ATZKRIKJ2Or56sfEEaBLXfHvOf1qCb3ekZmEZdKx9nOq0rc41OAia69fNNp7ahrQwm-WBOuSbv2DE2iZk0JnkTC_S1VdiCLdO1a-8DBs82ee9LGPxGocEr5L9b8YQ1Awo1w2J3Uku0_x2qfPTQeTCix-WXRKCBM6rYtQJZWRYy-AR34tIVTzvC-HApDUCVf6_Jz27OI34uShm5yR9v3erku-w4w8q438dniICk1-yMTFg4leXAMkvIjoDh9FJECQ_nK4c_jpryUEQT0xAMWWOIt-HI4gEEEu-kBwq-OE_hbXxpOydqGP6LPIug2uSPYgj6rSXh86UUzItEXKzLThuphi19Y7Gpd6em6XgDdaRAjyaq72rmnCnHuqsJ6Kloqu0N8IJYGuEz8yfbADwJ_JVIuPj4Ggw2zlYB9sT3Ai_ebd_Elwl9DaymMhG7LySEmQLoeKLWiiIYx_fNXPDRBNZ7cg3AorSe-q5MJLyYvviaBIcMKH4-EB3zZ5ZvGxcDBmqy0_7XSMoTfuwn7BLMWetmJY6C3SiK68HcRT8pPXun2PrWA9LW_llIkemKNZdCzG8VBp51V0jC6x0yjBb_lgqg-dKJnby0]--></g></svg>