<?xml version="1.0" encoding="us-ascii" standalone="no"?><svg xmlns="http://www.w3.org/2000/svg" xmlns:xlink="http://www.w3.org/1999/xlink" contentStyleType="text/css" height="681px" preserveAspectRatio="none" style="width:682px;height:681px;background:#FFFFFF;" version="1.1" viewBox="0 0 682 681" width="682.8px" zoomAndPan="magnify"><defs/><g><rect fill="#FFFFFF" height="569.7398" style="stroke:#181818;stroke-width:0.6;" width="6" x="30" y="56.1727"/><rect fill="#FFFFFF" height="18" style="stroke:#181818;stroke-width:0.6;" width="6" x="138.6" y="77.1346"/><rect fill="#FFFFFF" height="492.6287" style="stroke:#181818;stroke-width:0.6;" width="6" x="138.6" y="127.8838"/><rect fill="#FFFFFF" height="41.1492" style="stroke:#181818;stroke-width:0.6;" width="6" x="295.2" y="227.9695"/><rect fill="#FFFFFF" height="36.1365" style="stroke:#181818;stroke-width:0.6;" width="6" x="295.2" y="287.8934"/><rect fill="#FFFFFF" height="25.9746" style="stroke:#181818;stroke-width:0.6;" width="6" x="295.2" y="599.9379"/><rect fill="#FFFFFF" height="18" style="stroke:#181818;stroke-width:0.6;" width="6" x="341.4" y="153.6457"/><rect fill="#FFFFFF" height="18.7746" style="stroke:#181818;stroke-width:0.6;" width="6" x="392.1" y="190.4203"/><rect fill="#FFFFFF" height="18.7746" style="stroke:#181818;stroke-width:0.6;" width="6" x="439.2" y="409.1156"/><rect fill="#FFFFFF" height="18" style="stroke:#181818;stroke-width:0.6;" width="6" x="471.3" y="448.4648"/><rect fill="#FFFFFF" height="18.7746" style="stroke:#181818;stroke-width:0.6;" width="6" x="507.6" y="487.0395"/><rect fill="#FFFFFF" height="18" style="stroke:#181818;stroke-width:0.6;" width="6" x="567" y="524.5887"/><rect fill="#FFFFFF" height="18" style="stroke:#181818;stroke-width:0.6;" width="6" x="643.5" y="561.3633"/><line style="stroke:#181818;stroke-width:0.3;stroke-dasharray:5.0,5.0;" x1="33" x2="33" y1="50.1727" y2="631.3125"/><line style="stroke:#181818;stroke-width:0.3;stroke-dasharray:5.0,5.0;" x1="141.3" x2="141.3" y1="50.1727" y2="631.3125"/><line style="stroke:#181818;stroke-width:0.3;stroke-dasharray:5.0,5.0;" x1="298.2" x2="298.2" y1="50.1727" y2="631.3125"/><line style="stroke:#181818;stroke-width:0.3;stroke-dasharray:5.0,5.0;" x1="344.4" x2="344.4" y1="50.1727" y2="631.3125"/><line style="stroke:#181818;stroke-width:0.3;stroke-dasharray:5.0,5.0;" x1="394.8" x2="394.8" y1="50.1727" y2="631.3125"/><line style="stroke:#181818;stroke-width:0.3;stroke-dasharray:5.0,5.0;" x1="442.2" x2="442.2" y1="50.1727" y2="631.3125"/><line style="stroke:#181818;stroke-width:0.3;stroke-dasharray:5.0,5.0;" x1="474" x2="474" y1="50.1727" y2="631.3125"/><line style="stroke:#181818;stroke-width:0.3;stroke-dasharray:5.0,5.0;" x1="510.6" x2="510.6" y1="50.1727" y2="631.3125"/><line style="stroke:#181818;stroke-width:0.3;stroke-dasharray:5.0,5.0;" x1="570" x2="570" y1="50.1727" y2="631.3125"/><line style="stroke:#181818;stroke-width:0.3;stroke-dasharray:5.0,5.0;" x1="646.2" x2="646.2" y1="50.1727" y2="631.3125"/><text fill="#000000" font-family="sans-serif" font-size="8.4" lengthAdjust="spacing" textLength="56.4" x="3" y="48.0645">SBPServerApp</text><ellipse cx="33" cy="8.1" fill="#E2E2F0" rx="4.8" ry="4.8" style="stroke:#181818;stroke-width:0.3;"/><path d="M33,12.9 L33,29.1 M25.2,17.7 L40.8,17.7 M33,29.1 L25.2,38.1 M33,29.1 L40.8,38.1 " fill="none" style="stroke:#181818;stroke-width:0.3;"/><text fill="#000000" font-family="sans-serif" font-size="8.4" lengthAdjust="spacing" textLength="56.4" x="3" y="639.777">SBPServerApp</text><ellipse cx="33" cy="646.9852" fill="#E2E2F0" rx="4.8" ry="4.8" style="stroke:#181818;stroke-width:0.3;"/><path d="M33,651.7852 L33,667.9852 M25.2,656.5852 L40.8,656.5852 M33,667.9852 L25.2,676.9852 M33,667.9852 L40.8,676.9852 " fill="none" style="stroke:#181818;stroke-width:0.3;"/><rect fill="#E2E2F0" height="19.5727" rx="1.5" ry="1.5" style="stroke:#181818;stroke-width:0.3;" width="84.6" x="99.3" y="30"/><text fill="#000000" font-family="sans-serif" font-size="8.4" lengthAdjust="spacing" textLength="76.2" x="103.5" y="43.2645">CreatePostItHandler</text><rect fill="#E2E2F0" height="19.5727" rx="1.5" ry="1.5" style="stroke:#181818;stroke-width:0.3;" width="84.6" x="99.3" y="630.7125"/><text fill="#000000" font-family="sans-serif" font-size="8.4" lengthAdjust="spacing" textLength="76.2" x="103.5" y="643.977">CreatePostItHandler</text><rect fill="#E2E2F0" height="19.5727" rx="1.5" ry="1.5" style="stroke:#181818;stroke-width:0.3;" width="50.4" x="273" y="30"/><text fill="#000000" font-family="sans-serif" font-size="8.4" lengthAdjust="spacing" textLength="42" x="277.2" y="43.2645">SBProtocol</text><rect fill="#E2E2F0" height="19.5727" rx="1.5" ry="1.5" style="stroke:#181818;stroke-width:0.3;" width="50.4" x="273" y="630.7125"/><text fill="#000000" font-family="sans-serif" font-size="8.4" lengthAdjust="spacing" textLength="42" x="277.2" y="643.977">SBProtocol</text><rect fill="#E2E2F0" height="19.5727" rx="1.5" ry="1.5" style="stroke:#181818;stroke-width:0.3;" width="30" x="329.4" y="30"/><text fill="#000000" font-family="sans-serif" font-size="8.4" lengthAdjust="spacing" textLength="21.6" x="333.6" y="43.2645">Client</text><rect fill="#E2E2F0" height="19.5727" rx="1.5" ry="1.5" style="stroke:#181818;stroke-width:0.3;" width="30" x="329.4" y="630.7125"/><text fill="#000000" font-family="sans-serif" font-size="8.4" lengthAdjust="spacing" textLength="21.6" x="333.6" y="643.977">Client</text><rect fill="#E2E2F0" height="19.5727" rx="1.5" ry="1.5" style="stroke:#181818;stroke-width:0.3;" width="59.4" x="365.4" y="30"/><text fill="#000000" font-family="sans-serif" font-size="8.4" lengthAdjust="spacing" textLength="51" x="369.6" y="43.2645">BoardService</text><rect fill="#E2E2F0" height="19.5727" rx="1.5" ry="1.5" style="stroke:#181818;stroke-width:0.3;" width="59.4" x="365.4" y="630.7125"/><text fill="#000000" font-family="sans-serif" font-size="8.4" lengthAdjust="spacing" textLength="51" x="369.6" y="643.977">BoardService</text><rect fill="#E2E2F0" height="19.5727" rx="1.5" ry="1.5" style="stroke:#181818;stroke-width:0.3;" width="22.8" x="430.8" y="30"/><text fill="#000000" font-family="sans-serif" font-size="8.4" lengthAdjust="spacing" textLength="14.4" x="435" y="43.2645">Cell</text><rect fill="#E2E2F0" height="19.5727" rx="1.5" ry="1.5" style="stroke:#181818;stroke-width:0.3;" width="22.8" x="430.8" y="630.7125"/><text fill="#000000" font-family="sans-serif" font-size="8.4" lengthAdjust="spacing" textLength="14.4" x="435" y="643.977">Cell</text><rect fill="#E2E2F0" height="19.5727" rx="1.5" ry="1.5" style="stroke:#181818;stroke-width:0.3;" width="29.4" x="459.6" y="30"/><text fill="#000000" font-family="sans-serif" font-size="8.4" lengthAdjust="spacing" textLength="21" x="463.8" y="43.2645">PostIt</text><rect fill="#E2E2F0" height="19.5727" rx="1.5" ry="1.5" style="stroke:#181818;stroke-width:0.3;" width="29.4" x="459.6" y="630.7125"/><text fill="#000000" font-family="sans-serif" font-size="8.4" lengthAdjust="spacing" textLength="21" x="463.8" y="643.977">PostIt</text><rect fill="#E2E2F0" height="19.5727" rx="1.5" ry="1.5" style="stroke:#181818;stroke-width:0.3;" width="31.2" x="495" y="30"/><text fill="#000000" font-family="sans-serif" font-size="8.4" lengthAdjust="spacing" textLength="22.8" x="499.2" y="43.2645">Board</text><rect fill="#E2E2F0" height="19.5727" rx="1.5" ry="1.5" style="stroke:#181818;stroke-width:0.3;" width="31.2" x="495" y="630.7125"/><text fill="#000000" font-family="sans-serif" font-size="8.4" lengthAdjust="spacing" textLength="22.8" x="499.2" y="643.977">Board</text><rect fill="#E2E2F0" height="19.5727" rx="1.5" ry="1.5" style="stroke:#181818;stroke-width:0.3;" width="75.6" x="532.2" y="30"/><text fill="#000000" font-family="sans-serif" font-size="8.4" lengthAdjust="spacing" textLength="67.2" x="536.4" y="43.2645">NewChangeEvent</text><rect fill="#E2E2F0" height="19.5727" rx="1.5" ry="1.5" style="stroke:#181818;stroke-width:0.3;" width="75.6" x="532.2" y="630.7125"/><text fill="#000000" font-family="sans-serif" font-size="8.4" lengthAdjust="spacing" textLength="67.2" x="536.4" y="643.977">NewChangeEvent</text><rect fill="#E2E2F0" height="19.5727" rx="1.5" ry="1.5" style="stroke:#181818;stroke-width:0.3;" width="65.4" x="613.8" y="30"/><text fill="#000000" font-family="sans-serif" font-size="8.4" lengthAdjust="spacing" textLength="57" x="618" y="43.2645">EventPublisher</text><rect fill="#E2E2F0" height="19.5727" rx="1.5" ry="1.5" style="stroke:#181818;stroke-width:0.3;" width="65.4" x="613.8" y="630.7125"/><text fill="#000000" font-family="sans-serif" font-size="8.4" lengthAdjust="spacing" textLength="57" x="618" y="643.977">EventPublisher</text><rect fill="#FFFFFF" height="569.7398" style="stroke:#181818;stroke-width:0.6;" width="6" x="30" y="56.1727"/><rect fill="#FFFFFF" height="18" style="stroke:#181818;stroke-width:0.6;" width="6" x="138.6" y="77.1346"/><rect fill="#FFFFFF" height="492.6287" style="stroke:#181818;stroke-width:0.6;" width="6" x="138.6" y="127.8838"/><rect fill="#FFFFFF" height="41.1492" style="stroke:#181818;stroke-width:0.6;" width="6" x="295.2" y="227.9695"/><rect fill="#FFFFFF" height="36.1365" style="stroke:#181818;stroke-width:0.6;" width="6" x="295.2" y="287.8934"/><rect fill="#FFFFFF" height="25.9746" style="stroke:#181818;stroke-width:0.6;" width="6" x="295.2" y="599.9379"/><rect fill="#FFFFFF" height="18" style="stroke:#181818;stroke-width:0.6;" width="6" x="341.4" y="153.6457"/><rect fill="#FFFFFF" height="18.7746" style="stroke:#181818;stroke-width:0.6;" width="6" x="392.1" y="190.4203"/><rect fill="#FFFFFF" height="18.7746" style="stroke:#181818;stroke-width:0.6;" width="6" x="439.2" y="409.1156"/><rect fill="#FFFFFF" height="18" style="stroke:#181818;stroke-width:0.6;" width="6" x="471.3" y="448.4648"/><rect fill="#FFFFFF" height="18.7746" style="stroke:#181818;stroke-width:0.6;" width="6" x="507.6" y="487.0395"/><rect fill="#FFFFFF" height="18" style="stroke:#181818;stroke-width:0.6;" width="6" x="567" y="524.5887"/><rect fill="#FFFFFF" height="18" style="stroke:#181818;stroke-width:0.6;" width="6" x="643.5" y="561.3633"/><polygon fill="#181818" points="131.4,74.7346,137.4,77.1346,131.4,79.5346,133.8,77.1346" style="stroke:#181818;stroke-width:0.6;"/><line style="stroke:#181818;stroke-width:0.6;" x1="36" x2="135" y1="77.1346" y2="77.1346"/><text fill="#000000" font-family="sans-serif" font-size="7.8" lengthAdjust="spacing" textLength="91.2" x="40.2" y="73.977">create(sock,codeRequest)</text><path d="M147.6,59.1727 L147.6,85.5727 L328.2,85.5727 L328.2,65.1727 L322.2,59.1727 L147.6,59.1727 " fill="#FEFFDD" style="stroke:#181818;stroke-width:0.3;"/><path d="M322.2,59.1727 L322.2,65.1727 L328.2,65.1727 L322.2,59.1727 " fill="#FEFFDD" style="stroke:#181818;stroke-width:0.3;"/><text fill="#000000" font-family="sans-serif" font-size="7.8" lengthAdjust="spacing" textLength="168" x="151.2" y="70.5896">-receives a socket and SBProtocol codeRequest</text><text fill="#000000" font-family="sans-serif" font-size="7.8" lengthAdjust="spacing" textLength="50.4" x="151.2" y="80.9643">-create service</text><polygon fill="#181818" points="131.4,125.4838,137.4,127.8838,131.4,130.2838,133.8,127.8838" style="stroke:#181818;stroke-width:0.6;"/><line style="stroke:#181818;stroke-width:0.6;" x1="36" x2="135" y1="127.8838" y2="127.8838"/><text fill="#000000" font-family="sans-serif" font-size="7.8" lengthAdjust="spacing" textLength="15.6" x="40.2" y="124.7262">run()</text><path d="M147.6,109.9219 L147.6,136.3219 L284.4,136.3219 L284.4,115.9219 L278.4,109.9219 L147.6,109.9219 " fill="#FEFFDD" style="stroke:#181818;stroke-width:0.3;"/><path d="M278.4,109.9219 L278.4,115.9219 L284.4,115.9219 L278.4,109.9219 " fill="#FEFFDD" style="stroke:#181818;stroke-width:0.3;"/><text fill="#000000" font-family="sans-serif" font-size="7.8" lengthAdjust="spacing" textLength="112.8" x="151.2" y="121.3389">create DataInputStream as "inS"</text><text fill="#000000" font-family="sans-serif" font-size="7.8" lengthAdjust="spacing" textLength="124.2" x="151.2" y="131.7135">create DataOutputStream as "outS"</text><polygon fill="#181818" points="334.2,151.2457,340.2,153.6457,334.2,156.0457,336.6,153.6457" style="stroke:#181818;stroke-width:0.6;"/><line style="stroke:#181818;stroke-width:0.6;" x1="144.6" x2="337.8" y1="153.6457" y2="153.6457"/><text fill="#000000" font-family="sans-serif" font-size="7.8" lengthAdjust="spacing" textLength="87.6" x="148.8" y="150.4881">user = getUserLoggedIn()</text><polygon fill="#181818" points="384.9,188.0203,390.9,190.4203,384.9,192.8203,387.3,190.4203" style="stroke:#181818;stroke-width:0.6;"/><line style="stroke:#181818;stroke-width:0.6;" x1="144.6" x2="388.5" y1="190.4203" y2="190.4203"/><text fill="#000000" font-family="sans-serif" font-size="7.8" lengthAdjust="spacing" textLength="91.8" x="148.8" y="187.2627">boardsUserCanWrite(user)</text><polygon fill="#181818" points="151.2,206.7949,145.2,209.1949,151.2,211.5949,148.8,209.1949" style="stroke:#181818;stroke-width:0.6;"/><line style="stroke:#181818;stroke-width:0.6;" x1="147.6" x2="394.5" y1="209.1949" y2="209.1949"/><text fill="#000000" font-family="sans-serif" font-size="7.8" lengthAdjust="spacing" textLength="23.4" x="154.8" y="206.0373">boards</text><polygon fill="#181818" points="288,225.5695,294,227.9695,288,230.3695,290.4,227.9695" style="stroke:#181818;stroke-width:0.6;"/><line style="stroke:#181818;stroke-width:0.6;" x1="144.6" x2="291.6" y1="227.9695" y2="227.9695"/><text fill="#000000" font-family="sans-serif" font-size="7.8" lengthAdjust="spacing" textLength="26.4" x="148.8" y="224.8119">create()</text><path d="M147.6,235.7695 L147.6,251.9695 L262.2,251.9695 L262.2,241.7695 L256.2,235.7695 L147.6,235.7695 " fill="#FEFFDD" style="stroke:#181818;stroke-width:0.3;"/><path d="M256.2,235.7695 L256.2,241.7695 L262.2,241.7695 L256.2,235.7695 " fill="#FEFFDD" style="stroke:#181818;stroke-width:0.3;"/><text fill="#000000" font-family="sans-serif" font-size="7.8" lengthAdjust="spacing" textLength="102" x="151.2" y="247.1865">appends all boards into string</text><polygon fill="#181818" points="291,266.7188,297,269.1188,291,271.5188,293.4,269.1188" style="stroke:#181818;stroke-width:0.6;"/><line style="stroke:#181818;stroke-width:0.6;" x1="144.6" x2="294.6" y1="269.1188" y2="269.1188"/><text fill="#000000" font-family="sans-serif" font-size="7.8" lengthAdjust="spacing" textLength="37.8" x="148.8" y="265.9611">send(outS)</text><polygon fill="#181818" points="288,285.4934,294,287.8934,288,290.2934,290.4,287.8934" style="stroke:#181818;stroke-width:0.6;"/><line style="stroke:#181818;stroke-width:0.6;" x1="144.6" x2="291.6" y1="287.8934" y2="287.8934"/><text fill="#000000" font-family="sans-serif" font-size="7.8" lengthAdjust="spacing" textLength="86.4" x="148.8" y="284.7357">receiveText = create(inS)</text><polygon fill="#181818" points="151.2,321.6299,145.2,324.0299,151.2,326.4299,148.8,324.0299" style="stroke:#181818;stroke-width:0.6;"/><line style="stroke:#181818;stroke-width:0.6;stroke-dasharray:2.0,2.0;" x1="147.6" x2="297.6" y1="324.0299" y2="324.0299"/><text fill="#000000" font-family="sans-serif" font-size="7.8" lengthAdjust="spacing" textLength="25.8" x="154.8" y="320.8723">content</text><path d="M304.2,295.6934 L304.2,343.0934 L434.4,343.0934 L434.4,301.6934 L428.4,295.6934 L304.2,295.6934 " fill="#FEFFDD" style="stroke:#181818;stroke-width:0.3;"/><path d="M428.4,295.6934 L428.4,301.6934 L434.4,301.6934 L428.4,295.6934 " fill="#FEFFDD" style="stroke:#181818;stroke-width:0.3;"/><text fill="#000000" font-family="sans-serif" font-size="7.8" lengthAdjust="spacing" textLength="28.2" x="307.8" y="307.1104">content:</text><text fill="#000000" font-family="sans-serif" font-size="7.8" lengthAdjust="spacing" textLength="36.6" x="307.8" y="317.485">-board title</text><text fill="#000000" font-family="sans-serif" font-size="7.8" lengthAdjust="spacing" textLength="117.6" x="307.8" y="327.8596">-position in board to create Post-It</text><text fill="#000000" font-family="sans-serif" font-size="7.8" lengthAdjust="spacing" textLength="61.8" x="307.8" y="338.2342">-content of Post-It</text><path d="M147.6,349.1918 L147.6,365.3918 L337.8,365.3918 L337.8,355.1918 L331.8,349.1918 L147.6,349.1918 " fill="#FEFFDD" style="stroke:#181818;stroke-width:0.3;"/><path d="M331.8,349.1918 L331.8,355.1918 L337.8,355.1918 L331.8,349.1918 " fill="#FEFFDD" style="stroke:#181818;stroke-width:0.3;"/><text fill="#000000" font-family="sans-serif" font-size="7.8" lengthAdjust="spacing" textLength="177.6" x="151.2" y="360.6088">SBPServerApp as boards ,get board with boardTitle</text><line style="stroke:#181818;stroke-width:0.6;" x1="144.6" x2="169.8" y1="382.541" y2="382.541"/><line style="stroke:#181818;stroke-width:0.6;" x1="169.8" x2="169.8" y1="382.541" y2="390.341"/><line style="stroke:#181818;stroke-width:0.6;" x1="145.2" x2="169.8" y1="390.341" y2="390.341"/><polygon fill="#181818" points="151.2,387.941,145.2,390.341,151.2,392.741,148.8,390.341" style="stroke:#181818;stroke-width:0.6;"/><text fill="#000000" font-family="sans-serif" font-size="7.8" lengthAdjust="spacing" textLength="142.2" x="148.8" y="379.3834">checkIfCellIsOccupied(optBoard,position)</text><polygon fill="#181818" points="432,406.7156,438,409.1156,432,411.5156,434.4,409.1156" style="stroke:#181818;stroke-width:0.6;"/><line style="stroke:#181818;stroke-width:0.6;" x1="144.6" x2="435.6" y1="409.1156" y2="409.1156"/><text fill="#000000" font-family="sans-serif" font-size="7.8" lengthAdjust="spacing" textLength="37.8" x="148.8" y="405.958">hasPostIt()</text><polygon fill="#181818" points="151.2,425.4902,145.2,427.8902,151.2,430.2902,148.8,427.8902" style="stroke:#181818;stroke-width:0.6;"/><line style="stroke:#181818;stroke-width:0.6;stroke-dasharray:2.0,2.0;" x1="147.6" x2="441.6" y1="427.8902" y2="427.8902"/><text fill="#000000" font-family="sans-serif" font-size="7.8" lengthAdjust="spacing" textLength="31.8" x="154.8" y="424.7326">true/false</text><polygon fill="#181818" points="464.1,446.0648,470.1,448.4648,464.1,450.8648,466.5,448.4648" style="stroke:#181818;stroke-width:0.6;"/><line style="stroke:#181818;stroke-width:0.6;" x1="144.6" x2="467.7" y1="448.4648" y2="448.4648"/><text fill="#000000" font-family="sans-serif" font-size="7.8" lengthAdjust="spacing" textLength="109.2" x="148.8" y="445.3072">postit = create(user, postItdata)</text><path d="M480,435.6902 L480,451.8902 L548.4,451.8902 L548.4,441.6902 L542.4,435.6902 L480,435.6902 " fill="#FEFFDD" style="stroke:#181818;stroke-width:0.3;"/><path d="M542.4,435.6902 L542.4,441.6902 L548.4,441.6902 L542.4,435.6902 " fill="#FEFFDD" style="stroke:#181818;stroke-width:0.3;"/><text fill="#000000" font-family="sans-serif" font-size="7.8" lengthAdjust="spacing" textLength="55.8" x="483.6" y="447.1072">postItdata string</text><polygon fill="#181818" points="500.4,484.6395,506.4,487.0395,500.4,489.4395,502.8,487.0395" style="stroke:#181818;stroke-width:0.6;"/><line style="stroke:#181818;stroke-width:0.6;" x1="144.6" x2="504" y1="487.0395" y2="487.0395"/><text fill="#000000" font-family="sans-serif" font-size="7.8" lengthAdjust="spacing" textLength="99" x="148.8" y="483.8818">addPostIt(row,column,postit)</text><polygon fill="#181818" points="151.2,503.4141,145.2,505.8141,151.2,508.2141,148.8,505.8141" style="stroke:#181818;stroke-width:0.6;"/><line style="stroke:#181818;stroke-width:0.6;stroke-dasharray:2.0,2.0;" x1="147.6" x2="510" y1="505.8141" y2="505.8141"/><text fill="#000000" font-family="sans-serif" font-size="7.8" lengthAdjust="spacing" textLength="31.8" x="154.8" y="502.6564">true/false</text><polygon fill="#181818" points="559.8,522.1887,565.8,524.5887,559.8,526.9887,562.2,524.5887" style="stroke:#181818;stroke-width:0.6;"/><line style="stroke:#181818;stroke-width:0.6;" x1="144.6" x2="563.4" y1="524.5887" y2="524.5887"/><text fill="#000000" font-family="sans-serif" font-size="7.8" lengthAdjust="spacing" textLength="129" x="148.8" y="521.4311">event = create(boardTitle,receiveText)</text><polygon fill="#181818" points="636.3,558.9633,642.3,561.3633,636.3,563.7633,638.7,561.3633" style="stroke:#181818;stroke-width:0.6;"/><line style="stroke:#181818;stroke-width:0.6;" x1="144.6" x2="639.9" y1="561.3633" y2="561.3633"/><text fill="#000000" font-family="sans-serif" font-size="7.8" lengthAdjust="spacing" textLength="47.4" x="148.8" y="558.2057">publish(event)</text><polygon fill="#181818" points="288,597.5379,294,599.9379,288,602.3379,290.4,599.9379" style="stroke:#181818;stroke-width:0.6;"/><line style="stroke:#181818;stroke-width:0.6;" x1="144.6" x2="291.6" y1="599.9379" y2="599.9379"/><text fill="#000000" font-family="sans-serif" font-size="7.8" lengthAdjust="spacing" textLength="26.4" x="148.8" y="596.7803">create()</text><path d="M304.2,587.1633 L304.2,603.3633 L421.2,603.3633 L421.2,593.1633 L415.2,587.1633 L304.2,587.1633 " fill="#FEFFDD" style="stroke:#181818;stroke-width:0.3;"/><path d="M415.2,587.1633 L415.2,593.1633 L421.2,593.1633 L415.2,587.1633 " fill="#FEFFDD" style="stroke:#181818;stroke-width:0.3;"/><text fill="#000000" font-family="sans-serif" font-size="7.8" lengthAdjust="spacing" textLength="104.4" x="307.8" y="598.5803">send success of the operation</text><polygon fill="#181818" points="288,618.1125,294,620.5125,288,622.9125,290.4,620.5125" style="stroke:#181818;stroke-width:0.6;"/><line style="stroke:#181818;stroke-width:0.6;" x1="141.6" x2="291.6" y1="620.5125" y2="620.5125"/><text fill="#000000" font-family="sans-serif" font-size="7.8" lengthAdjust="spacing" textLength="37.8" x="145.8" y="617.3549">send(outS)</text><!--SRC=[fLNVQzim47xtNo7wb432tWiRhDrWXh6MfMClXQB8rrZKbJJfdExFtvqa9rQYqetvnVBz_ExJtLagj5vihcutuFVWFpedP10XVZHDuwH7hRIJ1iMr1ubmQmEs-4MQRW3Fjdqw5gOKprkqoWunsjQLWGODz2ADUXZ3YUkLbRvZC5e1csmVmbwLxZ34i8hUXI91OvMZayRpk35W8Vu6BzTKmGu-xpCcew2mY8hRSJleqAUAmJMDLAZtHCT4LNg9zGSn4N8fL2Hi4QnwMYdRmNVuDKB0PIFeCPQSlTxrA2x5seC2lOSWf61p82IcczCuyxytwnGvvYQQOhm3eEa-ehI3StdI705d1S7merbKqELidoJArhWHDqY2PsRYGflDnRsP6ToCM5fO-hfewX15VYO412Pr12MDh_TY1_Y3Jb_jRWTTEy4hekKcckIpahEcbYUs5QNPSbi4Jd4jpK-lwRxOfv8cDQAOFIb6mM0ALyEItAjOQ3uEBDSAvFcPXBEBiO_7LfFEWUceVMWq4WQX3LeHq6kpAr2V9GxakU1hMjPmS_BNGUU-lOFVI9ULIw2cUAEAs80KO5sGfwn1chN2gcp4P7194n2B53Ja0z0NpRj6RGqLBRB6JctBMs7Tngb9xanS5hvPy2jqd-xBJFcAkZNdVz7Of-CTOwmnE2ky1_NKFl9YQyEDKgFJG5VYC2wjrLJTiju-l0SfI2z3Me3L6U5TEUSrEfNqen_XtQCS0bHdYIFKqgTTI_xvS6W3dgDLbBROqMfODjLBFHgSTkiXTrxd5LHPKvrmYYsxBdFYxGlju65yDglaKvlmShh_YPvj_MxePqAk4Fyj1sAERR6QpKy5a57LN2ok9GEUI9V-L8kOin8JN2qakF_UJ6SNotj5X54f286d1tiGre6NtCj_lPAQ-Y-Cdpy0]--></g></svg>