<?xml version="1.0" encoding="us-ascii" standalone="no"?><svg xmlns="http://www.w3.org/2000/svg" xmlns:xlink="http://www.w3.org/1999/xlink" contentStyleType="text/css" height="1169.6px" preserveAspectRatio="none" style="width:1076px;height:1169px;background:#FFFFFF;" version="1.1" viewBox="0 0 1076 1169" width="1076.8px" zoomAndPan="magnify"><defs/><g><rect fill="#FFFFFF" height="1021.7484" style="stroke:#181818;stroke-width:0.8000000000000002;" width="8" x="40" y="74.8969"/><rect fill="#FFFFFF" height="24" style="stroke:#181818;stroke-width:0.8000000000000002;" width="8" x="184.8" y="102.8461"/><rect fill="#FFFFFF" height="918.9336" style="stroke:#181818;stroke-width:0.8000000000000002;" width="8" x="184.8" y="170.5117"/><rect fill="#FFFFFF" height="54.8656" style="stroke:#181818;stroke-width:0.8000000000000002;" width="8" x="393.6" y="303.9594"/><rect fill="#FFFFFF" height="48.182" style="stroke:#181818;stroke-width:0.8000000000000002;" width="8" x="393.6" y="383.8578"/><rect fill="#FFFFFF" height="34.6328" style="stroke:#181818;stroke-width:0.8000000000000002;" width="8" x="393.6" y="1062.0125"/><rect fill="#FFFFFF" height="25.0328" style="stroke:#181818;stroke-width:0.8000000000000002;" width="8" x="474.8" y="253.8938"/><rect fill="#FFFFFF" height="172.1313" style="stroke:#181818;stroke-width:0.8000000000000002;" width="8" x="560.8" y="595.5531"/><rect fill="#FFFFFF" height="24" style="stroke:#181818;stroke-width:0.8000000000000002;" width="8" x="627.2" y="204.8609"/><rect fill="#FFFFFF" height="24" style="stroke:#181818;stroke-width:0.8000000000000002;" width="8" x="676" y="620.5859"/><rect fill="#FFFFFF" height="25.0328" style="stroke:#181818;stroke-width:0.8000000000000002;" width="8" x="720" y="545.4875"/><rect fill="#FFFFFF" height="24" style="stroke:#181818;stroke-width:0.8000000000000002;" width="8" x="720" y="718.6516"/><rect fill="#FFFFFF" height="24" style="stroke:#181818;stroke-width:0.8000000000000002;" width="8" x="762.8" y="669.6188"/><rect fill="#FFFFFF" height="24" style="stroke:#181818;stroke-width:0.8000000000000002;" width="8" x="827.2" y="852.6156"/><rect fill="#FFFFFF" height="24" style="stroke:#181818;stroke-width:0.8000000000000002;" width="8" x="922.4" y="961.5469"/><rect fill="#FFFFFF" height="24" style="stroke:#181818;stroke-width:0.8000000000000002;" width="8" x="1024.4" y="1010.5797"/><line style="stroke:#181818;stroke-width:0.4000000000000001;stroke-dasharray:5.0,5.0;" x1="44" x2="44" y1="66.8969" y2="1103.8453"/><line style="stroke:#181818;stroke-width:0.4000000000000001;stroke-dasharray:5.0,5.0;" x1="188.4" x2="188.4" y1="66.8969" y2="1103.8453"/><line style="stroke:#181818;stroke-width:0.4000000000000001;stroke-dasharray:5.0,5.0;" x1="397.6" x2="397.6" y1="66.8969" y2="1103.8453"/><line style="stroke:#181818;stroke-width:0.4000000000000001;stroke-dasharray:5.0,5.0;" x1="478.4" x2="478.4" y1="66.8969" y2="1103.8453"/><line style="stroke:#181818;stroke-width:0.4000000000000001;stroke-dasharray:5.0,5.0;" x1="564.8" x2="564.8" y1="66.8969" y2="1103.8453"/><line style="stroke:#181818;stroke-width:0.4000000000000001;stroke-dasharray:5.0,5.0;" x1="631.2" x2="631.2" y1="66.8969" y2="1103.8453"/><line style="stroke:#181818;stroke-width:0.4000000000000001;stroke-dasharray:5.0,5.0;" x1="680" x2="680" y1="66.8969" y2="1103.8453"/><line style="stroke:#181818;stroke-width:0.4000000000000001;stroke-dasharray:5.0,5.0;" x1="724" x2="724" y1="66.8969" y2="1103.8453"/><line style="stroke:#181818;stroke-width:0.4000000000000001;stroke-dasharray:5.0,5.0;" x1="766.4" x2="766.4" y1="66.8969" y2="1103.8453"/><line style="stroke:#181818;stroke-width:0.4000000000000001;stroke-dasharray:5.0,5.0;" x1="831.2" x2="831.2" y1="66.8969" y2="1103.8453"/><line style="stroke:#181818;stroke-width:0.4000000000000001;stroke-dasharray:5.0,5.0;" x1="926.4" x2="926.4" y1="66.8969" y2="1103.8453"/><line style="stroke:#181818;stroke-width:0.4000000000000001;stroke-dasharray:5.0,5.0;" x1="1028" x2="1028" y1="66.8969" y2="1103.8453"/><text fill="#000000" font-family="sans-serif" font-size="11.2" lengthAdjust="spacing" textLength="75.2" x="4" y="64.0859">SBPServerApp</text><ellipse cx="44" cy="10.8" fill="#E2E2F0" rx="6.4" ry="6.4" style="stroke:#181818;stroke-width:0.4000000000000001;"/><path d="M44,17.2 L44,38.8 M33.6,23.6 L54.4,23.6 M44,38.8 L33.6,50.8 M44,38.8 L54.4,50.8 " fill="none" style="stroke:#181818;stroke-width:0.4000000000000001;"/><text fill="#000000" font-family="sans-serif" font-size="11.2" lengthAdjust="spacing" textLength="75.2" x="4" y="1115.1313">SBPServerApp</text><ellipse cx="44" cy="1124.7422" fill="#E2E2F0" rx="6.4" ry="6.4" style="stroke:#181818;stroke-width:0.4000000000000001;"/><path d="M44,1131.1422 L44,1152.7422 M33.6,1137.5422 L54.4,1137.5422 M44,1152.7422 L33.6,1164.7422 M44,1152.7422 L54.4,1164.7422 " fill="none" style="stroke:#181818;stroke-width:0.4000000000000001;"/><rect fill="#E2E2F0" height="26.0969" rx="2" ry="2" style="stroke:#181818;stroke-width:0.4000000000000001;" width="112.8" x="132.4" y="40"/><text fill="#000000" font-family="sans-serif" font-size="11.2" lengthAdjust="spacing" textLength="101.6" x="138" y="57.6859">CreatePostItHandler</text><rect fill="#E2E2F0" height="26.0969" rx="2" ry="2" style="stroke:#181818;stroke-width:0.4000000000000001;" width="112.8" x="132.4" y="1103.0453"/><text fill="#000000" font-family="sans-serif" font-size="11.2" lengthAdjust="spacing" textLength="101.6" x="138" y="1120.7313">CreatePostItHandler</text><rect fill="#E2E2F0" height="26.0969" rx="2" ry="2" style="stroke:#181818;stroke-width:0.4000000000000001;" width="67.2" x="364" y="40"/><text fill="#000000" font-family="sans-serif" font-size="11.2" lengthAdjust="spacing" textLength="56" x="369.6" y="57.6859">SBProtocol</text><rect fill="#E2E2F0" height="26.0969" rx="2" ry="2" style="stroke:#181818;stroke-width:0.4000000000000001;" width="67.2" x="364" y="1103.0453"/><text fill="#000000" font-family="sans-serif" font-size="11.2" lengthAdjust="spacing" textLength="56" x="369.6" y="1120.7313">SBProtocol</text><rect fill="#E2E2F0" height="26.0969" rx="2" ry="2" style="stroke:#181818;stroke-width:0.4000000000000001;" width="79.2" x="439.2" y="40"/><text fill="#000000" font-family="sans-serif" font-size="11.2" lengthAdjust="spacing" textLength="68" x="444.8" y="57.6859">BoardService</text><rect fill="#E2E2F0" height="26.0969" rx="2" ry="2" style="stroke:#181818;stroke-width:0.4000000000000001;" width="79.2" x="439.2" y="1103.0453"/><text fill="#000000" font-family="sans-serif" font-size="11.2" lengthAdjust="spacing" textLength="68" x="444.8" y="1120.7313">BoardService</text><rect fill="#E2E2F0" height="26.0969" rx="2" ry="2" style="stroke:#181818;stroke-width:0.4000000000000001;" width="76.8" x="526.4" y="40"/><text fill="#000000" font-family="sans-serif" font-size="11.2" lengthAdjust="spacing" textLength="65.6" x="532" y="57.6859">PostItService</text><rect fill="#E2E2F0" height="26.0969" rx="2" ry="2" style="stroke:#181818;stroke-width:0.4000000000000001;" width="76.8" x="526.4" y="1103.0453"/><text fill="#000000" font-family="sans-serif" font-size="11.2" lengthAdjust="spacing" textLength="65.6" x="532" y="1120.7313">PostItService</text><rect fill="#E2E2F0" height="26.0969" rx="2" ry="2" style="stroke:#181818;stroke-width:0.4000000000000001;" width="40" x="611.2" y="40"/><text fill="#000000" font-family="sans-serif" font-size="11.2" lengthAdjust="spacing" textLength="28.8" x="616.8" y="57.6859">Client</text><rect fill="#E2E2F0" height="26.0969" rx="2" ry="2" style="stroke:#181818;stroke-width:0.4000000000000001;" width="40" x="611.2" y="1103.0453"/><text fill="#000000" font-family="sans-serif" font-size="11.2" lengthAdjust="spacing" textLength="28.8" x="616.8" y="1120.7313">Client</text><rect fill="#E2E2F0" height="26.0969" rx="2" ry="2" style="stroke:#181818;stroke-width:0.4000000000000001;" width="41.6" x="659.2" y="40"/><text fill="#000000" font-family="sans-serif" font-size="11.2" lengthAdjust="spacing" textLength="30.4" x="664.8" y="57.6859">Board</text><rect fill="#E2E2F0" height="26.0969" rx="2" ry="2" style="stroke:#181818;stroke-width:0.4000000000000001;" width="41.6" x="659.2" y="1103.0453"/><text fill="#000000" font-family="sans-serif" font-size="11.2" lengthAdjust="spacing" textLength="30.4" x="664.8" y="1120.7313">Board</text><rect fill="#E2E2F0" height="26.0969" rx="2" ry="2" style="stroke:#181818;stroke-width:0.4000000000000001;" width="30.4" x="708.8" y="40"/><text fill="#000000" font-family="sans-serif" font-size="11.2" lengthAdjust="spacing" textLength="19.2" x="714.4" y="57.6859">Cell</text><rect fill="#E2E2F0" height="26.0969" rx="2" ry="2" style="stroke:#181818;stroke-width:0.4000000000000001;" width="30.4" x="708.8" y="1103.0453"/><text fill="#000000" font-family="sans-serif" font-size="11.2" lengthAdjust="spacing" textLength="19.2" x="714.4" y="1120.7313">Cell</text><rect fill="#E2E2F0" height="26.0969" rx="2" ry="2" style="stroke:#181818;stroke-width:0.4000000000000001;" width="39.2" x="747.2" y="40"/><text fill="#000000" font-family="sans-serif" font-size="11.2" lengthAdjust="spacing" textLength="28" x="752.8" y="57.6859">PostIt</text><rect fill="#E2E2F0" height="26.0969" rx="2" ry="2" style="stroke:#181818;stroke-width:0.4000000000000001;" width="39.2" x="747.2" y="1103.0453"/><text fill="#000000" font-family="sans-serif" font-size="11.2" lengthAdjust="spacing" textLength="28" x="752.8" y="1120.7313">PostIt</text><rect fill="#E2E2F0" height="26.0969" rx="2" ry="2" style="stroke:#181818;stroke-width:0.4000000000000001;" width="73.6" x="794.4" y="40"/><text fill="#000000" font-family="sans-serif" font-size="11.2" lengthAdjust="spacing" textLength="62.4" x="800" y="57.6859">CreatePostIt</text><rect fill="#E2E2F0" height="26.0969" rx="2" ry="2" style="stroke:#181818;stroke-width:0.4000000000000001;" width="73.6" x="794.4" y="1103.0453"/><text fill="#000000" font-family="sans-serif" font-size="11.2" lengthAdjust="spacing" textLength="62.4" x="800" y="1120.7313">CreatePostIt</text><rect fill="#E2E2F0" height="26.0969" rx="2" ry="2" style="stroke:#181818;stroke-width:0.4000000000000001;" width="100.8" x="876" y="40"/><text fill="#000000" font-family="sans-serif" font-size="11.2" lengthAdjust="spacing" textLength="89.6" x="881.6" y="57.6859">NewChangeEvent</text><rect fill="#E2E2F0" height="26.0969" rx="2" ry="2" style="stroke:#181818;stroke-width:0.4000000000000001;" width="100.8" x="876" y="1103.0453"/><text fill="#000000" font-family="sans-serif" font-size="11.2" lengthAdjust="spacing" textLength="89.6" x="881.6" y="1120.7313">NewChangeEvent</text><rect fill="#E2E2F0" height="26.0969" rx="2" ry="2" style="stroke:#181818;stroke-width:0.4000000000000001;" width="87.2" x="984.8" y="40"/><text fill="#000000" font-family="sans-serif" font-size="11.2" lengthAdjust="spacing" textLength="76" x="990.4" y="57.6859">EventPublisher</text><rect fill="#E2E2F0" height="26.0969" rx="2" ry="2" style="stroke:#181818;stroke-width:0.4000000000000001;" width="87.2" x="984.8" y="1103.0453"/><text fill="#000000" font-family="sans-serif" font-size="11.2" lengthAdjust="spacing" textLength="76" x="990.4" y="1120.7313">EventPublisher</text><rect fill="#FFFFFF" height="1021.7484" style="stroke:#181818;stroke-width:0.8000000000000002;" width="8" x="40" y="74.8969"/><rect fill="#FFFFFF" height="24" style="stroke:#181818;stroke-width:0.8000000000000002;" width="8" x="184.8" y="102.8461"/><rect fill="#FFFFFF" height="918.9336" style="stroke:#181818;stroke-width:0.8000000000000002;" width="8" x="184.8" y="170.5117"/><rect fill="#FFFFFF" height="54.8656" style="stroke:#181818;stroke-width:0.8000000000000002;" width="8" x="393.6" y="303.9594"/><rect fill="#FFFFFF" height="48.182" style="stroke:#181818;stroke-width:0.8000000000000002;" width="8" x="393.6" y="383.8578"/><rect fill="#FFFFFF" height="34.6328" style="stroke:#181818;stroke-width:0.8000000000000002;" width="8" x="393.6" y="1062.0125"/><rect fill="#FFFFFF" height="25.0328" style="stroke:#181818;stroke-width:0.8000000000000002;" width="8" x="474.8" y="253.8938"/><rect fill="#FFFFFF" height="172.1313" style="stroke:#181818;stroke-width:0.8000000000000002;" width="8" x="560.8" y="595.5531"/><rect fill="#FFFFFF" height="24" style="stroke:#181818;stroke-width:0.8000000000000002;" width="8" x="627.2" y="204.8609"/><rect fill="#FFFFFF" height="24" style="stroke:#181818;stroke-width:0.8000000000000002;" width="8" x="676" y="620.5859"/><rect fill="#FFFFFF" height="25.0328" style="stroke:#181818;stroke-width:0.8000000000000002;" width="8" x="720" y="545.4875"/><rect fill="#FFFFFF" height="24" style="stroke:#181818;stroke-width:0.8000000000000002;" width="8" x="720" y="718.6516"/><rect fill="#FFFFFF" height="24" style="stroke:#181818;stroke-width:0.8000000000000002;" width="8" x="762.8" y="669.6188"/><rect fill="#FFFFFF" height="24" style="stroke:#181818;stroke-width:0.8000000000000002;" width="8" x="827.2" y="852.6156"/><rect fill="#FFFFFF" height="24" style="stroke:#181818;stroke-width:0.8000000000000002;" width="8" x="922.4" y="961.5469"/><rect fill="#FFFFFF" height="24" style="stroke:#181818;stroke-width:0.8000000000000002;" width="8" x="1024.4" y="1010.5797"/><polygon fill="#181818" points="175.2,99.6461,183.2,102.8461,175.2,106.0461,178.4,102.8461" style="stroke:#181818;stroke-width:0.8000000000000002;"/><line style="stroke:#181818;stroke-width:0.8000000000000002;" x1="48" x2="180" y1="102.8461" y2="102.8461"/><text fill="#000000" font-family="sans-serif" font-size="10.4" lengthAdjust="spacing" textLength="121.6" x="53.6" y="98.6359">create(sock,codeRequest)</text><path d="M196.8,78.8969 L196.8,114.0969 L437.6,114.0969 L437.6,86.8969 L429.6,78.8969 L196.8,78.8969 " fill="#FEFFDD" style="stroke:#181818;stroke-width:0.4000000000000001;"/><path d="M429.6,78.8969 L429.6,86.8969 L437.6,86.8969 L429.6,78.8969 " fill="#FEFFDD" style="stroke:#181818;stroke-width:0.4000000000000001;"/><text fill="#000000" font-family="sans-serif" font-size="10.4" lengthAdjust="spacing" textLength="224" x="201.6" y="94.1195">-receives a socket and SBProtocol codeRequest</text><text fill="#000000" font-family="sans-serif" font-size="10.4" lengthAdjust="spacing" textLength="78.4" x="201.6" y="107.9523">-creates services</text><polygon fill="#181818" points="175.2,167.3117,183.2,170.5117,175.2,173.7117,178.4,170.5117" style="stroke:#181818;stroke-width:0.8000000000000002;"/><line style="stroke:#181818;stroke-width:0.8000000000000002;" x1="48" x2="180" y1="170.5117" y2="170.5117"/><text fill="#000000" font-family="sans-serif" font-size="10.4" lengthAdjust="spacing" textLength="20.8" x="53.6" y="166.3016">run()</text><path d="M196.8,146.5625 L196.8,181.7625 L379.2,181.7625 L379.2,154.5625 L371.2,146.5625 L196.8,146.5625 " fill="#FEFFDD" style="stroke:#181818;stroke-width:0.4000000000000001;"/><path d="M371.2,146.5625 L371.2,154.5625 L379.2,154.5625 L371.2,146.5625 " fill="#FEFFDD" style="stroke:#181818;stroke-width:0.4000000000000001;"/><text fill="#000000" font-family="sans-serif" font-size="10.4" lengthAdjust="spacing" textLength="150.4" x="201.6" y="161.7852">create DataInputStream as "inS"</text><text fill="#000000" font-family="sans-serif" font-size="10.4" lengthAdjust="spacing" textLength="165.6" x="201.6" y="175.618">create DataOutputStream as "outS"</text><polygon fill="#181818" points="617.6,201.6609,625.6,204.8609,617.6,208.0609,620.8,204.8609" style="stroke:#181818;stroke-width:0.8000000000000002;"/><line style="stroke:#181818;stroke-width:0.8000000000000002;" x1="192.8" x2="622.4" y1="204.8609" y2="204.8609"/><text fill="#000000" font-family="sans-serif" font-size="10.4" lengthAdjust="spacing" textLength="116.8" x="198.4" y="200.6508">user = getUserLoggedIn()</text><polygon fill="#181818" points="465.2,250.6938,473.2,253.8938,465.2,257.0938,468.4,253.8938" style="stroke:#181818;stroke-width:0.8000000000000002;"/><line style="stroke:#181818;stroke-width:0.8000000000000002;" x1="192.8" x2="470" y1="253.8938" y2="253.8938"/><text fill="#000000" font-family="sans-serif" font-size="10.4" lengthAdjust="spacing" textLength="122.4" x="198.4" y="249.6836">boardsUserCanWrite(user)</text><polygon fill="#181818" points="201.6,275.7266,193.6,278.9266,201.6,282.1266,198.4,278.9266" style="stroke:#181818;stroke-width:0.8000000000000002;"/><line style="stroke:#181818;stroke-width:0.8000000000000002;" x1="196.8" x2="478" y1="278.9266" y2="278.9266"/><text fill="#000000" font-family="sans-serif" font-size="10.4" lengthAdjust="spacing" textLength="31.2" x="206.4" y="274.7164">boards</text><polygon fill="#181818" points="384,300.7594,392,303.9594,384,307.1594,387.2,303.9594" style="stroke:#181818;stroke-width:0.8000000000000002;"/><line style="stroke:#181818;stroke-width:0.8000000000000002;" x1="192.8" x2="388.8" y1="303.9594" y2="303.9594"/><text fill="#000000" font-family="sans-serif" font-size="10.4" lengthAdjust="spacing" textLength="35.2" x="198.4" y="299.7492">create()</text><path d="M196.8,314.3594 L196.8,335.9594 L349.6,335.9594 L349.6,322.3594 L341.6,314.3594 L196.8,314.3594 " fill="#FEFFDD" style="stroke:#181818;stroke-width:0.4000000000000001;"/><path d="M341.6,314.3594 L341.6,322.3594 L349.6,322.3594 L341.6,314.3594 " fill="#FEFFDD" style="stroke:#181818;stroke-width:0.4000000000000001;"/><text fill="#000000" font-family="sans-serif" font-size="10.4" lengthAdjust="spacing" textLength="136" x="201.6" y="329.582">appends all boards into string</text><polygon fill="#181818" points="388,355.625,396,358.825,388,362.025,391.2,358.825" style="stroke:#181818;stroke-width:0.8000000000000002;"/><line style="stroke:#181818;stroke-width:0.8000000000000002;" x1="192.8" x2="392.8" y1="358.825" y2="358.825"/><text fill="#000000" font-family="sans-serif" font-size="10.4" lengthAdjust="spacing" textLength="50.4" x="198.4" y="354.6148">send(outS)</text><polygon fill="#181818" points="384,380.6578,392,383.8578,384,387.0578,387.2,383.8578" style="stroke:#181818;stroke-width:0.8000000000000002;"/><line style="stroke:#181818;stroke-width:0.8000000000000002;" x1="192.8" x2="388.8" y1="383.8578" y2="383.8578"/><text fill="#000000" font-family="sans-serif" font-size="10.4" lengthAdjust="spacing" textLength="115.2" x="198.4" y="379.6477">receiveText = create(inS)</text><polygon fill="#181818" points="201.6,428.8398,193.6,432.0398,201.6,435.2398,198.4,432.0398" style="stroke:#181818;stroke-width:0.8000000000000002;"/><line style="stroke:#181818;stroke-width:0.8000000000000002;stroke-dasharray:2.0,2.0;" x1="196.8" x2="396.8" y1="432.0398" y2="432.0398"/><text fill="#000000" font-family="sans-serif" font-size="10.4" lengthAdjust="spacing" textLength="34.4" x="206.4" y="427.8297">content</text><path d="M405.6,394.2578 L405.6,457.4578 L579.2,457.4578 L579.2,402.2578 L571.2,394.2578 L405.6,394.2578 " fill="#FEFFDD" style="stroke:#181818;stroke-width:0.4000000000000001;"/><path d="M571.2,394.2578 L571.2,402.2578 L579.2,402.2578 L571.2,394.2578 " fill="#FEFFDD" style="stroke:#181818;stroke-width:0.4000000000000001;"/><text fill="#000000" font-family="sans-serif" font-size="10.4" lengthAdjust="spacing" textLength="37.6" x="410.4" y="409.4805">content:</text><text fill="#000000" font-family="sans-serif" font-size="10.4" lengthAdjust="spacing" textLength="48.8" x="410.4" y="423.3133">-board title</text><text fill="#000000" font-family="sans-serif" font-size="10.4" lengthAdjust="spacing" textLength="156.8" x="410.4" y="437.1461">-position in board to create Post-It</text><text fill="#000000" font-family="sans-serif" font-size="10.4" lengthAdjust="spacing" textLength="82.4" x="410.4" y="450.9789">-content of Post-It</text><path d="M196.8,465.5891 L196.8,487.1891 L450.4,487.1891 L450.4,473.5891 L442.4,465.5891 L196.8,465.5891 " fill="#FEFFDD" style="stroke:#181818;stroke-width:0.4000000000000001;"/><path d="M442.4,465.5891 L442.4,473.5891 L450.4,473.5891 L442.4,465.5891 " fill="#FEFFDD" style="stroke:#181818;stroke-width:0.4000000000000001;"/><text fill="#000000" font-family="sans-serif" font-size="10.4" lengthAdjust="spacing" textLength="236.8" x="201.6" y="480.8117">SBPServerApp as boards ,get board with boardTitle</text><line style="stroke:#181818;stroke-width:0.8000000000000002;" x1="192.8" x2="226.4" y1="510.0547" y2="510.0547"/><line style="stroke:#181818;stroke-width:0.8000000000000002;" x1="226.4" x2="226.4" y1="510.0547" y2="520.4547"/><line style="stroke:#181818;stroke-width:0.8000000000000002;" x1="193.6" x2="226.4" y1="520.4547" y2="520.4547"/><polygon fill="#181818" points="201.6,517.2547,193.6,520.4547,201.6,523.6547,198.4,520.4547" style="stroke:#181818;stroke-width:0.8000000000000002;"/><text fill="#000000" font-family="sans-serif" font-size="10.4" lengthAdjust="spacing" textLength="189.6" x="198.4" y="505.8445">checkIfCellIsOccupied(optBoard,position)</text><polygon fill="#181818" points="710.4,542.2875,718.4,545.4875,710.4,548.6875,713.6,545.4875" style="stroke:#181818;stroke-width:0.8000000000000002;"/><line style="stroke:#181818;stroke-width:0.8000000000000002;" x1="192.8" x2="715.2" y1="545.4875" y2="545.4875"/><text fill="#000000" font-family="sans-serif" font-size="10.4" lengthAdjust="spacing" textLength="50.4" x="198.4" y="541.2773">hasPostIt()</text><polygon fill="#181818" points="201.6,567.3203,193.6,570.5203,201.6,573.7203,198.4,570.5203" style="stroke:#181818;stroke-width:0.8000000000000002;"/><line style="stroke:#181818;stroke-width:0.8000000000000002;stroke-dasharray:2.0,2.0;" x1="196.8" x2="723.2" y1="570.5203" y2="570.5203"/><text fill="#000000" font-family="sans-serif" font-size="10.4" lengthAdjust="spacing" textLength="42.4" x="206.4" y="566.3102">true/false</text><polygon fill="#181818" points="551.2,592.3531,559.2,595.5531,551.2,598.7531,554.4,595.5531" style="stroke:#181818;stroke-width:0.8000000000000002;"/><line style="stroke:#181818;stroke-width:0.8000000000000002;" x1="192.8" x2="556" y1="595.5531" y2="595.5531"/><text fill="#000000" font-family="sans-serif" font-size="10.4" lengthAdjust="spacing" textLength="178.4" x="198.4" y="591.343">createPostIt(board,row,col,text, owner)</text><polygon fill="#181818" points="666.4,617.3859,674.4,620.5859,666.4,623.7859,669.6,620.5859" style="stroke:#181818;stroke-width:0.8000000000000002;"/><line style="stroke:#181818;stroke-width:0.8000000000000002;" x1="568.8" x2="671.2" y1="620.5859" y2="620.5859"/><text fill="#000000" font-family="sans-serif" font-size="10.4" lengthAdjust="spacing" textLength="71.2" x="574.4" y="616.3758">getCell(row,col)</text><polygon fill="#181818" points="753.2,666.4188,761.2,669.6188,753.2,672.8188,756.4,669.6188" style="stroke:#181818;stroke-width:0.8000000000000002;"/><line style="stroke:#181818;stroke-width:0.8000000000000002;" x1="568.8" x2="758" y1="669.6188" y2="669.6188"/><text fill="#000000" font-family="sans-serif" font-size="10.4" lengthAdjust="spacing" textLength="83.2" x="574.4" y="665.4086">create(owner,text)</text><polygon fill="#181818" points="710.4,715.4516,718.4,718.6516,710.4,721.8516,713.6,718.6516" style="stroke:#181818;stroke-width:0.8000000000000002;"/><line style="stroke:#181818;stroke-width:0.8000000000000002;" x1="568.8" x2="715.2" y1="718.6516" y2="718.6516"/><text fill="#000000" font-family="sans-serif" font-size="10.4" lengthAdjust="spacing" textLength="76" x="574.4" y="714.4414">addPostIt(postit)</text><polygon fill="#181818" points="201.6,764.4844,193.6,767.6844,201.6,770.8844,198.4,767.6844" style="stroke:#181818;stroke-width:0.8000000000000002;"/><line style="stroke:#181818;stroke-width:0.8000000000000002;stroke-dasharray:2.0,2.0;" x1="196.8" x2="564" y1="767.6844" y2="767.6844"/><text fill="#000000" font-family="sans-serif" font-size="10.4" lengthAdjust="spacing" textLength="42.4" x="206.4" y="763.4742">true/false</text><path d="M196.8,778.0844 L196.8,799.6844 L493.6,799.6844 L493.6,786.0844 L485.6,778.0844 L196.8,778.0844 " fill="#FEFFDD" style="stroke:#181818;stroke-width:0.4000000000000001;"/><path d="M485.6,778.0844 L485.6,786.0844 L493.6,786.0844 L485.6,778.0844 " fill="#FEFFDD" style="stroke:#181818;stroke-width:0.4000000000000001;"/><text fill="#000000" font-family="sans-serif" font-size="10.4" lengthAdjust="spacing" textLength="280" x="201.6" y="793.307">SBPServerApp as boardHistories ,get histories of "optBoard"</text><polygon fill="#181818" points="817.6,849.4156,825.6,852.6156,817.6,855.8156,820.8,852.6156" style="stroke:#181818;stroke-width:0.8000000000000002;"/><line style="stroke:#181818;stroke-width:0.8000000000000002;" x1="192.8" x2="822.4" y1="852.6156" y2="852.6156"/><text fill="#000000" font-family="sans-serif" font-size="10.4" lengthAdjust="spacing" textLength="91.2" x="198.4" y="848.4055">create(optBoard,sb)</text><path d="M835.2,807.9172 L835.2,884.7172 L929.6,884.7172 L929.6,815.9172 L921.6,807.9172 L835.2,807.9172 " fill="#FEFFDD" style="stroke:#181818;stroke-width:0.4000000000000001;"/><path d="M921.6,807.9172 L921.6,815.9172 L929.6,815.9172 L921.6,807.9172 " fill="#FEFFDD" style="stroke:#181818;stroke-width:0.4000000000000001;"/><text fill="#000000" font-family="sans-serif" font-size="10.4" lengthAdjust="spacing" textLength="56.8" x="840" y="823.1398">sb contains:</text><text fill="#000000" font-family="sans-serif" font-size="10.4" lengthAdjust="spacing" textLength="19.2" x="840" y="836.9727">-row</text><text fill="#000000" font-family="sans-serif" font-size="10.4" lengthAdjust="spacing" textLength="36.8" x="840" y="850.8055">-column</text><text fill="#000000" font-family="sans-serif" font-size="10.4" lengthAdjust="spacing" textLength="74.4" x="840" y="864.6383">-Local date time</text><text fill="#000000" font-family="sans-serif" font-size="10.4" lengthAdjust="spacing" textLength="77.6" x="840" y="878.4711">-content of postit</text><path d="M196.8,917.0813 L196.8,938.6813 L332.8,938.6813 L332.8,925.0813 L324.8,917.0813 L196.8,917.0813 " fill="#FEFFDD" style="stroke:#181818;stroke-width:0.4000000000000001;"/><path d="M324.8,917.0813 L324.8,925.0813 L332.8,925.0813 L324.8,917.0813 " fill="#FEFFDD" style="stroke:#181818;stroke-width:0.4000000000000001;"/><text fill="#000000" font-family="sans-serif" font-size="10.4" lengthAdjust="spacing" textLength="119.2" x="201.6" y="932.3039">add postIt to boardHistory</text><polygon fill="#181818" points="912.8,958.3469,920.8,961.5469,912.8,964.7469,916,961.5469" style="stroke:#181818;stroke-width:0.8000000000000002;"/><line style="stroke:#181818;stroke-width:0.8000000000000002;" x1="192.8" x2="917.6" y1="961.5469" y2="961.5469"/><text fill="#000000" font-family="sans-serif" font-size="10.4" lengthAdjust="spacing" textLength="172" x="198.4" y="957.3367">event = create(boardTitle,receiveText)</text><polygon fill="#181818" points="1014.8,1007.3797,1022.8,1010.5797,1014.8,1013.7797,1018,1010.5797" style="stroke:#181818;stroke-width:0.8000000000000002;"/><line style="stroke:#181818;stroke-width:0.8000000000000002;" x1="192.8" x2="1019.6" y1="1010.5797" y2="1010.5797"/><text fill="#000000" font-family="sans-serif" font-size="10.4" lengthAdjust="spacing" textLength="63.2" x="198.4" y="1006.3695">publish(event)</text><polygon fill="#181818" points="384,1058.8125,392,1062.0125,384,1065.2125,387.2,1062.0125" style="stroke:#181818;stroke-width:0.8000000000000002;"/><line style="stroke:#181818;stroke-width:0.8000000000000002;" x1="192.8" x2="388.8" y1="1062.0125" y2="1062.0125"/><text fill="#000000" font-family="sans-serif" font-size="10.4" lengthAdjust="spacing" textLength="35.2" x="198.4" y="1057.8023">create()</text><path d="M405.6,1044.9797 L405.6,1066.5797 L561.6,1066.5797 L561.6,1052.9797 L553.6,1044.9797 L405.6,1044.9797 " fill="#FEFFDD" style="stroke:#181818;stroke-width:0.4000000000000001;"/><path d="M553.6,1044.9797 L553.6,1052.9797 L561.6,1052.9797 L553.6,1044.9797 " fill="#FEFFDD" style="stroke:#181818;stroke-width:0.4000000000000001;"/><text fill="#000000" font-family="sans-serif" font-size="10.4" lengthAdjust="spacing" textLength="139.2" x="410.4" y="1060.2023">send success of the operation</text><polygon fill="#181818" points="384,1086.2453,392,1089.4453,384,1092.6453,387.2,1089.4453" style="stroke:#181818;stroke-width:0.8000000000000002;"/><line style="stroke:#181818;stroke-width:0.8000000000000002;" x1="188.8" x2="388.8" y1="1089.4453" y2="1089.4453"/><text fill="#000000" font-family="sans-serif" font-size="10.4" lengthAdjust="spacing" textLength="50.4" x="194.4" y="1085.2352">send(outS)</text><!--SRC=[fLPBQnin4Bxlhn0-sM3JUw25nYt449fGf_GI25hjn2koaLH9QxV_lgF7sYllc3HKbzLAe_bcldb8N7XjsVRwVWjs3_QpCOmxvk9FLLM6Mo-5D5nvjhR0FTnhvpV-Xgkc0njaspGjH56VrLuBtKLjjIbshpMtJS2J0i9-_UJsef1882CHCn5PTnBmWtlYgNTd-14XgYxFG1SD4lWby28GpgI_w7V28uI-mM6DJEpWwpwRfGGK4d7ZlgyxwTh479YguiBBFQeVA4yVjlh41cAlc8W6p9qMBqkX6_WEltfmVb4n74hZOIjthMTNR6L1WDo3Ovm5SK1BL3CEn-ZyerebpIdUoBIB6eyc3P6DgmrCrzFEoUIyWORONiq9-n8U-y8ztoZJ-wt7XTV0nKogxUnHZGJkUbzAQFoRLRI9B8_10ZGcfGM2niz7jWF_0sUtUhU3PZEOLsZBcJIiZrpEEnHEp5w4gKFEkG2nvkgdbHYnS8Q0IVdEHYFfA1XCwYXRqd7I5goq8ykKWw4IXyLHOFJpATcuCQ0QJ20ibMG3ayfhvhoLQbTOFG5sU78UmhIWx0xWbutEcVi0lpq6Axk0IV665p41KS6g84zevR7Q2gao4PF05TP0T99XFNU0VrZQqakjq6cMT_IGjg45h3QnRjBnG5nUVDFX2tIVTzvC-HApDUCVf6_Jz27OI34uShm5yR9v3erku-w4w8q438dniICk1-yMTFg4leXAMkvIjoDh9FJECQ_nK4c_jpryUEQT0xAMWWOIt-HI4gEEEu-kBwq-OE_hbXxpOydqGP6LPIQLXSCCnLMZQkGra3FF-XRdmgSgEzyPL-15Y7Gpd6em6XgDleoKRvFBSBJ04JD7ZJTDPYp9NmQSX9283mtsZYYNeNXFzjz8XsyI2RaAskCldfmDgJoZM_w4_o7pNKtsUuBQea-uEhOABfKBlGAp9bP_rxygdDngmJlM15LUlaBP6B9g-ZOvtoJvIK6DYl3bWNreHCyVodzySk0PY2-GOmyzjOxbgCSIR8G72s5iMAR087HjazupyuX9w0H3gGJptxVND59uzp3N2tp5n4pnBJ1jmFBGx_xvsghePquOVm40]--></g></svg>