<?xml version="1.0" encoding="us-ascii" standalone="no"?><svg xmlns="http://www.w3.org/2000/svg" xmlns:xlink="http://www.w3.org/1999/xlink" contentStyleType="text/css" height="691px" preserveAspectRatio="none" style="width:1237px;height:691px;background:#FFFFFF;" version="1.1" viewBox="0 0 1237 691" width="1237px" zoomAndPan="magnify"><defs/><g><rect fill="#FFFFFF" height="156.8241" style="stroke:#181818;stroke-width:1.0;" width="10" x="164.5" y="117.7739"/><rect fill="#FFFFFF" height="248.5301" style="stroke:#181818;stroke-width:1.0;" width="10" x="164.5" y="341.716"/><rect fill="#FFFFFF" height="125.118" style="stroke:#181818;stroke-width:1.0;" width="10" x="320.5" y="149.4799"/><rect fill="#FFFFFF" height="155.118" style="stroke:#181818;stroke-width:1.0;" width="10" x="320.5" y="435.1281"/><rect fill="#FFFFFF" height="93.412" style="stroke:#181818;stroke-width:1.0;" width="10" x="487.5" y="181.186"/><rect fill="#FFFFFF" height="61.706" style="stroke:#181818;stroke-width:1.0;" width="10" x="635" y="212.892"/><rect fill="#FFFFFF" height="30" style="stroke:#181818;stroke-width:1.0;" width="10" x="777.5" y="244.598"/><rect fill="#FFFFFF" height="30" style="stroke:#181818;stroke-width:1.0;" width="10" x="777.5" y="560.2461"/><rect fill="#FFFFFF" height="30" style="stroke:#181818;stroke-width:1.0;" width="10" x="920.5" y="373.4221"/><rect fill="#FFFFFF" height="61.706" style="stroke:#181818;stroke-width:1.0;" width="10" x="1052" y="466.8341"/><rect fill="#FFFFFF" height="30" style="stroke:#181818;stroke-width:1.0;" width="10" x="1171.5" y="498.5401"/><line style="stroke:#181818;stroke-width:0.5;stroke-dasharray:5.0,5.0;" x1="38" x2="38" y1="84.0679" y2="608.2461"/><line style="stroke:#181818;stroke-width:0.5;stroke-dasharray:5.0,5.0;" x1="169.5" x2="169.5" y1="84.0679" y2="608.2461"/><line style="stroke:#181818;stroke-width:0.5;stroke-dasharray:5.0,5.0;" x1="325.5" x2="325.5" y1="84.0679" y2="608.2461"/><line style="stroke:#181818;stroke-width:0.5;stroke-dasharray:5.0,5.0;" x1="492.5" x2="492.5" y1="84.0679" y2="608.2461"/><line style="stroke:#181818;stroke-width:0.5;stroke-dasharray:5.0,5.0;" x1="639.5" x2="639.5" y1="84.0679" y2="608.2461"/><line style="stroke:#181818;stroke-width:0.5;stroke-dasharray:5.0,5.0;" x1="782.5" x2="782.5" y1="84.0679" y2="608.2461"/><line style="stroke:#181818;stroke-width:0.5;stroke-dasharray:5.0,5.0;" x1="925.5" x2="925.5" y1="84.0679" y2="608.2461"/><line style="stroke:#181818;stroke-width:0.5;stroke-dasharray:5.0,5.0;" x1="1056.5" x2="1056.5" y1="84.0679" y2="608.2461"/><line style="stroke:#181818;stroke-width:0.5;stroke-dasharray:5.0,5.0;" x1="1176.5" x2="1176.5" y1="84.0679" y2="608.2461"/><text fill="#000000" font-family="sans-serif" font-size="14" lengthAdjust="spacing" textLength="61" x="5" y="79.9659">Manager</text><ellipse cx="38.5" cy="13.5" fill="#E2E2F0" rx="8" ry="8" style="stroke:#181818;stroke-width:0.5;"/><path d="M38.5,21.5 L38.5,48.5 M25.5,29.5 L51.5,29.5 M38.5,48.5 L25.5,63.5 M38.5,48.5 L51.5,63.5 " fill="none" style="stroke:#181818;stroke-width:0.5;"/><text fill="#000000" font-family="sans-serif" font-size="14" lengthAdjust="spacing" textLength="61" x="5" y="622.2121">Manager</text><ellipse cx="38.5" cy="634.814" fill="#E2E2F0" rx="8" ry="8" style="stroke:#181818;stroke-width:0.5;"/><path d="M38.5,642.814 L38.5,669.814 M25.5,650.814 L51.5,650.814 M38.5,669.814 L25.5,684.814 M38.5,669.814 L51.5,684.814 " fill="none" style="stroke:#181818;stroke-width:0.5;"/><rect fill="#E2E2F0" height="52.1358" rx="2.5" ry="2.5" style="stroke:#181818;stroke-width:0.5;" width="120" x="109.5" y="30.9321"/><text fill="#000000" font-family="sans-serif" font-size="14" font-style="italic" lengthAdjust="spacing" textLength="94" x="122.5" y="52.898">&#171;presentation&#187;</text><text fill="#000000" font-family="sans-serif" font-size="14" lengthAdjust="spacing" textLength="106" x="116.5" y="71.9659">CreateCourseUI</text><rect fill="#E2E2F0" height="52.1358" rx="2.5" ry="2.5" style="stroke:#181818;stroke-width:0.5;" width="120" x="109.5" y="607.2461"/><text fill="#000000" font-family="sans-serif" font-size="14" font-style="italic" lengthAdjust="spacing" textLength="94" x="122.5" y="629.2121">&#171;presentation&#187;</text><text fill="#000000" font-family="sans-serif" font-size="14" lengthAdjust="spacing" textLength="106" x="116.5" y="648.28">CreateCourseUI</text><rect fill="#E2E2F0" height="52.1358" rx="2.5" ry="2.5" style="stroke:#181818;stroke-width:0.5;" width="172" x="239.5" y="30.9321"/><text fill="#000000" font-family="sans-serif" font-size="14" font-style="italic" lengthAdjust="spacing" textLength="85" x="283" y="52.898">&#171;application&#187;</text><text fill="#000000" font-family="sans-serif" font-size="14" lengthAdjust="spacing" textLength="158" x="246.5" y="71.9659">CreateCourseController</text><rect fill="#E2E2F0" height="52.1358" rx="2.5" ry="2.5" style="stroke:#181818;stroke-width:0.5;" width="172" x="239.5" y="607.2461"/><text fill="#000000" font-family="sans-serif" font-size="14" font-style="italic" lengthAdjust="spacing" textLength="85" x="283" y="629.2121">&#171;application&#187;</text><text fill="#000000" font-family="sans-serif" font-size="14" lengthAdjust="spacing" textLength="158" x="246.5" y="648.28">CreateCourseController</text><rect fill="#E2E2F0" height="52.1358" rx="2.5" ry="2.5" style="stroke:#181818;stroke-width:0.5;" width="142" x="421.5" y="30.9321"/><text fill="#000000" font-family="sans-serif" font-size="14" font-style="italic" lengthAdjust="spacing" textLength="84" x="450.5" y="52.898">&#171;persistence&#187;</text><text fill="#000000" font-family="sans-serif" font-size="14" lengthAdjust="spacing" textLength="128" x="428.5" y="71.9659">PersistenceContext</text><rect fill="#E2E2F0" height="52.1358" rx="2.5" ry="2.5" style="stroke:#181818;stroke-width:0.5;" width="142" x="421.5" y="607.2461"/><text fill="#000000" font-family="sans-serif" font-size="14" font-style="italic" lengthAdjust="spacing" textLength="84" x="450.5" y="629.2121">&#171;persistence&#187;</text><text fill="#000000" font-family="sans-serif" font-size="14" lengthAdjust="spacing" textLength="128" x="428.5" y="648.28">PersistenceContext</text><rect fill="#E2E2F0" height="52.1358" rx="2.5" ry="2.5" style="stroke:#181818;stroke-width:0.5;" width="133" x="573.5" y="30.9321"/><text fill="#000000" font-family="sans-serif" font-size="14" font-style="italic" lengthAdjust="spacing" textLength="58" x="611" y="52.898">&#171;factory&#187;</text><text fill="#000000" font-family="sans-serif" font-size="14" lengthAdjust="spacing" textLength="119" x="580.5" y="71.9659">RepositoryFactory</text><rect fill="#E2E2F0" height="52.1358" rx="2.5" ry="2.5" style="stroke:#181818;stroke-width:0.5;" width="133" x="573.5" y="607.2461"/><text fill="#000000" font-family="sans-serif" font-size="14" font-style="italic" lengthAdjust="spacing" textLength="58" x="611" y="629.2121">&#171;factory&#187;</text><text fill="#000000" font-family="sans-serif" font-size="14" lengthAdjust="spacing" textLength="119" x="580.5" y="648.28">RepositoryFactory</text><rect fill="#E2E2F0" height="52.1358" rx="2.5" ry="2.5" style="stroke:#181818;stroke-width:0.5;" width="132" x="716.5" y="30.9321"/><text fill="#000000" font-family="sans-serif" font-size="14" font-style="italic" lengthAdjust="spacing" textLength="79" x="743" y="52.898">&#171;repository&#187;</text><text fill="#000000" font-family="sans-serif" font-size="14" lengthAdjust="spacing" textLength="118" x="723.5" y="71.9659">CourseRepository</text><rect fill="#E2E2F0" height="52.1358" rx="2.5" ry="2.5" style="stroke:#181818;stroke-width:0.5;" width="132" x="716.5" y="607.2461"/><text fill="#000000" font-family="sans-serif" font-size="14" font-style="italic" lengthAdjust="spacing" textLength="79" x="743" y="629.2121">&#171;repository&#187;</text><text fill="#000000" font-family="sans-serif" font-size="14" lengthAdjust="spacing" textLength="118" x="723.5" y="648.28">CourseRepository</text><rect fill="#E2E2F0" height="52.1358" rx="2.5" ry="2.5" style="stroke:#181818;stroke-width:0.5;" width="134" x="858.5" y="30.9321"/><text fill="#000000" font-family="sans-serif" font-size="14" font-style="italic" lengthAdjust="spacing" textLength="40" x="905.5" y="52.898">&#171;DTO&#187;</text><text fill="#000000" font-family="sans-serif" font-size="14" lengthAdjust="spacing" textLength="120" x="865.5" y="71.9659">CreateCourseDTO</text><rect fill="#E2E2F0" height="52.1358" rx="2.5" ry="2.5" style="stroke:#181818;stroke-width:0.5;" width="134" x="858.5" y="607.2461"/><text fill="#000000" font-family="sans-serif" font-size="14" font-style="italic" lengthAdjust="spacing" textLength="40" x="905.5" y="629.2121">&#171;DTO&#187;</text><text fill="#000000" font-family="sans-serif" font-size="14" lengthAdjust="spacing" textLength="120" x="865.5" y="648.28">CreateCourseDTO</text><rect fill="#E2E2F0" height="52.1358" rx="2.5" ry="2.5" style="stroke:#181818;stroke-width:0.5;" width="109" x="1002.5" y="30.9321"/><text fill="#000000" font-family="sans-serif" font-size="14" font-style="italic" lengthAdjust="spacing" textLength="61" x="1026.5" y="52.898">&#171;Factory&#187;</text><text fill="#000000" font-family="sans-serif" font-size="14" lengthAdjust="spacing" textLength="95" x="1009.5" y="71.9659">CourseFactory</text><rect fill="#E2E2F0" height="52.1358" rx="2.5" ry="2.5" style="stroke:#181818;stroke-width:0.5;" width="109" x="1002.5" y="607.2461"/><text fill="#000000" font-family="sans-serif" font-size="14" font-style="italic" lengthAdjust="spacing" textLength="61" x="1026.5" y="629.2121">&#171;Factory&#187;</text><text fill="#000000" font-family="sans-serif" font-size="14" lengthAdjust="spacing" textLength="95" x="1009.5" y="648.28">CourseFactory</text><rect fill="#E2E2F0" height="52.1358" rx="2.5" ry="2.5" style="stroke:#181818;stroke-width:0.5;" width="110" x="1121.5" y="30.9321"/><text fill="#000000" font-family="sans-serif" font-size="14" font-style="italic" lengthAdjust="spacing" textLength="62" x="1145.5" y="52.898">&#171;domain&#187;</text><text fill="#000000" font-family="sans-serif" font-size="14" lengthAdjust="spacing" textLength="96" x="1128.5" y="71.9659">course:Course</text><rect fill="#E2E2F0" height="52.1358" rx="2.5" ry="2.5" style="stroke:#181818;stroke-width:0.5;" width="110" x="1121.5" y="607.2461"/><text fill="#000000" font-family="sans-serif" font-size="14" font-style="italic" lengthAdjust="spacing" textLength="62" x="1145.5" y="629.2121">&#171;domain&#187;</text><text fill="#000000" font-family="sans-serif" font-size="14" lengthAdjust="spacing" textLength="96" x="1128.5" y="648.28">course:Course</text><rect fill="#FFFFFF" height="156.8241" style="stroke:#181818;stroke-width:1.0;" width="10" x="164.5" y="117.7739"/><rect fill="#FFFFFF" height="248.5301" style="stroke:#181818;stroke-width:1.0;" width="10" x="164.5" y="341.716"/><rect fill="#FFFFFF" height="125.118" style="stroke:#181818;stroke-width:1.0;" width="10" x="320.5" y="149.4799"/><rect fill="#FFFFFF" height="155.118" style="stroke:#181818;stroke-width:1.0;" width="10" x="320.5" y="435.1281"/><rect fill="#FFFFFF" height="93.412" style="stroke:#181818;stroke-width:1.0;" width="10" x="487.5" y="181.186"/><rect fill="#FFFFFF" height="61.706" style="stroke:#181818;stroke-width:1.0;" width="10" x="635" y="212.892"/><rect fill="#FFFFFF" height="30" style="stroke:#181818;stroke-width:1.0;" width="10" x="777.5" y="244.598"/><rect fill="#FFFFFF" height="30" style="stroke:#181818;stroke-width:1.0;" width="10" x="777.5" y="560.2461"/><rect fill="#FFFFFF" height="30" style="stroke:#181818;stroke-width:1.0;" width="10" x="920.5" y="373.4221"/><rect fill="#FFFFFF" height="61.706" style="stroke:#181818;stroke-width:1.0;" width="10" x="1052" y="466.8341"/><rect fill="#FFFFFF" height="30" style="stroke:#181818;stroke-width:1.0;" width="10" x="1171.5" y="498.5401"/><polygon fill="#181818" points="152.5,113.7739,162.5,117.7739,152.5,121.7739,156.5,117.7739" style="stroke:#181818;stroke-width:1.0;"/><line style="stroke:#181818;stroke-width:1.0;stroke-dasharray:2.0,2.0;" x1="38.5" x2="158.5" y1="117.7739" y2="117.7739"/><text fill="#000000" font-family="sans-serif" font-size="13" lengthAdjust="spacing" textLength="82" x="45.5" y="111.9649">create Course</text><polygon fill="#181818" points="308.5,145.4799,318.5,149.4799,308.5,153.4799,312.5,149.4799" style="stroke:#181818;stroke-width:1.0;"/><line style="stroke:#181818;stroke-width:1.0;stroke-dasharray:2.0,2.0;" x1="174.5" x2="314.5" y1="149.4799" y2="149.4799"/><text fill="#000000" font-family="sans-serif" font-size="13" lengthAdjust="spacing" textLength="37" x="181.5" y="143.6709">create</text><polygon fill="#181818" points="475.5,177.186,485.5,181.186,475.5,185.186,479.5,181.186" style="stroke:#181818;stroke-width:1.0;"/><line style="stroke:#181818;stroke-width:1.0;stroke-dasharray:2.0,2.0;" x1="330.5" x2="481.5" y1="181.186" y2="181.186"/><text fill="#000000" font-family="sans-serif" font-size="13" lengthAdjust="spacing" textLength="79" x="337.5" y="175.377">repositories()</text><polygon fill="#181818" points="623,208.892,633,212.892,623,216.892,627,212.892" style="stroke:#181818;stroke-width:1.0;"/><line style="stroke:#181818;stroke-width:1.0;stroke-dasharray:2.0,2.0;" x1="497.5" x2="629" y1="212.892" y2="212.892"/><text fill="#000000" font-family="sans-serif" font-size="13" lengthAdjust="spacing" textLength="54" x="504.5" y="207.083">courses()</text><polygon fill="#181818" points="765.5,240.598,775.5,244.598,765.5,248.598,769.5,244.598" style="stroke:#181818;stroke-width:1.0;"/><line style="stroke:#181818;stroke-width:1.0;stroke-dasharray:2.0,2.0;" x1="645" x2="771.5" y1="244.598" y2="244.598"/><text fill="#000000" font-family="sans-serif" font-size="13" lengthAdjust="spacing" textLength="45" x="652" y="238.789">create()</text><polygon fill="#181818" points="152.5,337.716,162.5,341.716,152.5,345.716,156.5,341.716" style="stroke:#181818;stroke-width:1.0;"/><line style="stroke:#181818;stroke-width:1.0;stroke-dasharray:2.0,2.0;" x1="38.5" x2="158.5" y1="341.716" y2="341.716"/><text fill="#000000" font-family="sans-serif" font-size="13" lengthAdjust="spacing" textLength="97" x="45.5" y="300.495">types title, code,</text><text fill="#000000" font-family="sans-serif" font-size="13" lengthAdjust="spacing" textLength="70" x="45.5" y="318.201">description,</text><text fill="#000000" font-family="sans-serif" font-size="13" lengthAdjust="spacing" textLength="107" x="45.5" y="335.907">duration, capacity</text><polygon fill="#181818" points="908.5,369.4221,918.5,373.4221,908.5,377.4221,912.5,373.4221" style="stroke:#181818;stroke-width:1.0;"/><line style="stroke:#181818;stroke-width:1.0;stroke-dasharray:2.0,2.0;" x1="174.5" x2="914.5" y1="373.4221" y2="373.4221"/><text fill="#000000" font-family="sans-serif" font-size="13" lengthAdjust="spacing" textLength="37" x="181.5" y="367.6131">create</text><polygon fill="#181818" points="308.5,431.1281,318.5,435.1281,308.5,439.1281,312.5,435.1281" style="stroke:#181818;stroke-width:1.0;"/><line style="stroke:#181818;stroke-width:1.0;stroke-dasharray:2.0,2.0;" x1="174.5" x2="314.5" y1="435.1281" y2="435.1281"/><text fill="#000000" font-family="sans-serif" font-size="13" lengthAdjust="spacing" textLength="94" x="181.5" y="429.3191">addCourse(dto)</text><polygon fill="#181818" points="1040,462.8341,1050,466.8341,1040,470.8341,1044,466.8341" style="stroke:#181818;stroke-width:1.0;"/><line style="stroke:#181818;stroke-width:1.0;stroke-dasharray:2.0,2.0;" x1="330.5" x2="1046" y1="466.8341" y2="466.8341"/><text fill="#000000" font-family="sans-serif" font-size="13" lengthAdjust="spacing" textLength="59" x="337.5" y="461.0251">build(dto)</text><polygon fill="#181818" points="1159.5,494.5401,1169.5,498.5401,1159.5,502.5401,1163.5,498.5401" style="stroke:#181818;stroke-width:1.0;"/><line style="stroke:#181818;stroke-width:1.0;stroke-dasharray:2.0,2.0;" x1="1062" x2="1165.5" y1="498.5401" y2="498.5401"/><text fill="#000000" font-family="sans-serif" font-size="13" lengthAdjust="spacing" textLength="45" x="1069" y="492.7311">create()</text><polygon fill="#181818" points="765.5,556.2461,775.5,560.2461,765.5,564.2461,769.5,560.2461" style="stroke:#181818;stroke-width:1.0;"/><line style="stroke:#181818;stroke-width:1.0;stroke-dasharray:2.0,2.0;" x1="330.5" x2="771.5" y1="560.2461" y2="560.2461"/><text fill="#000000" font-family="sans-serif" font-size="13" lengthAdjust="spacing" textLength="117" x="337.5" y="554.4371">saveCourse(course)</text><!--SRC=[bLHDRzim3BtxLn2zB0NQmxu78mWmP2ZGmx1XNM-xQ1AJ27KaGrAw-T-Fb6rPycnWqo4noVUU-INx9srQuSGPMY6Vn14VGjSWE9IXyYdcJqBPNzeSuI0QZrKbPB0EFWj330V2mqTsL8GEMkfMc01xXoBWtbwSnyTxnj3lTjiwz6Y22DgQtGwiKoJmSfMvjoOuspJzMp9hknLjssXP2hqgXBwYyze7D3BguE_08fcNyvcifFAwKFc6hVMQoklkOjaTY_0ZiG-z9p7Vb8N44YO-4zaYealEn7sxseHFtxymLGLcaf4exnPUboKvP4UakrcUxmlYbOpCkXUuwZlDZyHKzYpqrE0FLHL73RUtEnve3J8cEX1uCVGpsu_t5T0X22EpmOsC64xm2H3zV38EI-HZgo7rJwFVN5U9b0GpU0hooMLODWwISehfirGEJcgCAY9y8fKruap7kcOIXGm3_uegN8zdiIA5p3ylD0jbJSsyD9dv34FNeeUWGuCtr0g5Dp-CGY-TRlbwiNLnyQPHMD2NGeTkRTIyfSipfiWyGtQjxebGgj-g3S6k_tTVnkMluUT5DshIA7G6LD7qaTad5E_1od1VWB4aulJn5C0U1dGD3nWWd114qyH_RGxMdMC3b_Thk3qhevz5iyYO_beJXitquddub6pwHL_eHB5xIplvBulr1m00]--></g></svg>