<?xml version="1.0" encoding="us-ascii" standalone="no"?><svg xmlns="http://www.w3.org/2000/svg" xmlns:xlink="http://www.w3.org/1999/xlink" contentStyleType="text/css" height="691px" preserveAspectRatio="none" style="width:1835px;height:691px;background:#FFFFFF;" version="1.1" viewBox="0 0 1835 691" width="1835px" zoomAndPan="magnify"><defs/><g><!--class ListStudentGradesController--><g id="elem_ListStudentGradesController"><rect codeLine="1" fill="#F1F1F1" height="64.4883" id="ListStudentGradesController" rx="2.5" ry="2.5" style="stroke:#181818;stroke-width:0.5;" width="396" x="1176.5" y="7"/><ellipse cx="1273.25" cy="23" fill="#ADD1B2" rx="11" ry="11" style="stroke:#181818;stroke-width:1.0;"/><path d="M1276.2231,28.6431 Q1275.6421,28.9419 1275.0029,29.0913 Q1274.3638,29.2407 1273.6582,29.2407 Q1271.1514,29.2407 1269.8315,27.5889 Q1268.5117,25.937 1268.5117,22.8159 Q1268.5117,19.6865 1269.8315,18.0347 Q1271.1514,16.3828 1273.6582,16.3828 Q1274.3638,16.3828 1275.0112,16.5322 Q1275.6587,16.6816 1276.2231,16.9805 L1276.2231,19.7031 Q1275.5923,19.1221 1274.9988,18.8523 Q1274.4053,18.5825 1273.7744,18.5825 Q1272.4297,18.5825 1271.7449,19.6492 Q1271.0601,20.7158 1271.0601,22.8159 Q1271.0601,24.9077 1271.7449,25.9744 Q1272.4297,27.041 1273.7744,27.041 Q1274.4053,27.041 1274.9988,26.7712 Q1275.5923,26.5015 1276.2231,25.9204 Z " fill="#000000"/><text fill="#000000" font-family="sans-serif" font-size="14" lengthAdjust="spacing" textLength="194" x="1293.75" y="28.291">ListStudentGradesController</text><line style="stroke:#181818;stroke-width:0.5;" x1="1177.5" x2="1571.5" y1="39" y2="39"/><line style="stroke:#181818;stroke-width:0.5;" x1="1177.5" x2="1571.5" y1="47" y2="47"/><ellipse cx="1187.5" cy="60.7441" fill="#84BE84" rx="3" ry="3" style="stroke:#038048;stroke-width:1.0;"/><text fill="#000000" font-family="sans-serif" font-size="14" lengthAdjust="spacing" textLength="370" x="1196.5" y="64.5352">listStudentGrades(): List&lt;ExamGradeAndCourseDTO&gt;</text></g><!--class ListExamResultsService--><g id="elem_ListExamResultsService"><rect codeLine="5" fill="#F1F1F1" height="64.4883" id="ListExamResultsService" rx="2.5" ry="2.5" style="stroke:#181818;stroke-width:0.5;" width="648" x="533.5" y="131.49"/><ellipse cx="774.25" cy="147.49" fill="#ADD1B2" rx="11" ry="11" style="stroke:#181818;stroke-width:1.0;"/><path d="M777.2231,153.1331 Q776.6421,153.4319 776.0029,153.5813 Q775.3638,153.7307 774.6582,153.7307 Q772.1514,153.7307 770.8315,152.0789 Q769.5117,150.427 769.5117,147.3059 Q769.5117,144.1765 770.8315,142.5247 Q772.1514,140.8728 774.6582,140.8728 Q775.3638,140.8728 776.0112,141.0222 Q776.6587,141.1716 777.2231,141.4705 L777.2231,144.1931 Q776.5923,143.6121 775.9988,143.3423 Q775.4053,143.0725 774.7744,143.0725 Q773.4297,143.0725 772.7449,144.1392 Q772.0601,145.2058 772.0601,147.3059 Q772.0601,149.3977 772.7449,150.4644 Q773.4297,151.531 774.7744,151.531 Q775.4053,151.531 775.9988,151.2612 Q776.5923,150.9915 777.2231,150.4104 Z " fill="#000000"/><text fill="#000000" font-family="sans-serif" font-size="14" lengthAdjust="spacing" textLength="158" x="794.75" y="152.781">ListExamResultsService</text><line style="stroke:#181818;stroke-width:0.5;" x1="534.5" x2="1180.5" y1="163.49" y2="163.49"/><line style="stroke:#181818;stroke-width:0.5;" x1="534.5" x2="1180.5" y1="171.49" y2="171.49"/><ellipse cx="544.5" cy="185.2341" fill="#84BE84" rx="3" ry="3" style="stroke:#038048;stroke-width:1.0;"/><text fill="#000000" font-family="sans-serif" font-size="14" lengthAdjust="spacing" textLength="622" x="553.5" y="189.0252">regularExamsResultsBasedOnGradingProperties(s: Student): Iterable&lt;RegularExamResult&gt;</text></g><!--class RegularExamResultRepository--><g id="elem_RegularExamResultRepository"><rect codeLine="9" fill="#F1F1F1" height="64.4883" id="RegularExamResultRepository" rx="2.5" ry="2.5" style="stroke:#181818;stroke-width:0.5;" width="474" x="825.5" y="280.71"/><ellipse cx="955.25" cy="296.71" fill="#B4A7E5" rx="11" ry="11" style="stroke:#181818;stroke-width:1.0;"/><path d="M951.1777,292.4751 L951.1777,290.3169 L958.5571,290.3169 L958.5571,292.4751 L956.0918,292.4751 L956.0918,300.5518 L958.5571,300.5518 L958.5571,302.71 L951.1777,302.71 L951.1777,300.5518 L953.6431,300.5518 L953.6431,292.4751 Z " fill="#000000"/><text fill="#000000" font-family="sans-serif" font-size="14" font-style="italic" lengthAdjust="spacing" textLength="206" x="975.75" y="302.001">RegularExamResultRepository</text><line style="stroke:#181818;stroke-width:0.5;" x1="826.5" x2="1298.5" y1="312.71" y2="312.71"/><line style="stroke:#181818;stroke-width:0.5;" x1="826.5" x2="1298.5" y1="320.71" y2="320.71"/><ellipse cx="836.5" cy="334.4541" fill="#84BE84" rx="3" ry="3" style="stroke:#038048;stroke-width:1.0;"/><text fill="#000000" font-family="sans-serif" font-size="14" lengthAdjust="spacing" textLength="448" x="845.5" y="338.2452">examResultsByStudent(s: Student): Iterable&lt;RegularExamResult&gt;</text></g><!--class ExamGradeAndCourseDTO--><g id="elem_ExamGradeAndCourseDTO"><rect codeLine="13" fill="#F1F1F1" height="113.9531" id="ExamGradeAndCourseDTO" rx="2.5" ry="2.5" style="stroke:#181818;stroke-width:0.5;" width="218" x="1405.5" y="255.98"/><ellipse cx="1420.5" cy="271.98" fill="#ADD1B2" rx="11" ry="11" style="stroke:#181818;stroke-width:1.0;"/><path d="M1423.4731,277.6231 Q1422.8921,277.9219 1422.2529,278.0713 Q1421.6138,278.2207 1420.9082,278.2207 Q1418.4014,278.2207 1417.0815,276.5689 Q1415.7617,274.917 1415.7617,271.7959 Q1415.7617,268.6665 1417.0815,267.0147 Q1418.4014,265.3628 1420.9082,265.3628 Q1421.6138,265.3628 1422.2612,265.5122 Q1422.9087,265.6616 1423.4731,265.9605 L1423.4731,268.6831 Q1422.8423,268.1021 1422.2488,267.8323 Q1421.6553,267.5625 1421.0244,267.5625 Q1419.6797,267.5625 1418.9949,268.6292 Q1418.3101,269.6958 1418.3101,271.7959 Q1418.3101,273.8877 1418.9949,274.9544 Q1419.6797,276.021 1421.0244,276.021 Q1421.6553,276.021 1422.2488,275.7512 Q1422.8423,275.4815 1423.4731,274.9004 Z " fill="#000000"/><text fill="#000000" font-family="sans-serif" font-size="14" lengthAdjust="spacing" textLength="186" x="1434.5" y="277.271">ExamGradeAndCourseDTO</text><line style="stroke:#181818;stroke-width:0.5;" x1="1406.5" x2="1622.5" y1="287.98" y2="287.98"/><rect fill="none" height="6" style="stroke:#C82930;stroke-width:1.0;" width="6" x="1413.5" y="298.7241"/><text fill="#000000" font-family="sans-serif" font-size="14" lengthAdjust="spacing" textLength="155" x="1425.5" y="305.5152">title: RegularExamTitle</text><rect fill="none" height="6" style="stroke:#C82930;stroke-width:1.0;" width="6" x="1413.5" y="315.2124"/><text fill="#000000" font-family="sans-serif" font-size="14" lengthAdjust="spacing" textLength="127" x="1425.5" y="322.0034">grade: ExamGrade</text><rect fill="none" height="6" style="stroke:#C82930;stroke-width:1.0;" width="6" x="1413.5" y="331.7007"/><text fill="#000000" font-family="sans-serif" font-size="14" lengthAdjust="spacing" textLength="160" x="1425.5" y="338.4917">date: RegularExamDate</text><rect fill="none" height="6" style="stroke:#C82930;stroke-width:1.0;" width="6" x="1413.5" y="348.189"/><text fill="#000000" font-family="sans-serif" font-size="14" lengthAdjust="spacing" textLength="84" x="1425.5" y="354.98">id: CourseID</text><line style="stroke:#181818;stroke-width:0.5;" x1="1406.5" x2="1622.5" y1="361.9331" y2="361.9331"/></g><!--class ExamGradeAndCourseDTOMapper--><g id="elem_ExamGradeAndCourseDTOMapper"><rect codeLine="20" fill="#F1F1F1" height="64.4883" id="ExamGradeAndCourseDTOMapper" rx="2.5" ry="2.5" style="stroke:#181818;stroke-width:0.5;" width="454" x="1287.5" y="131.49"/><ellipse cx="1391.25" cy="147.49" fill="#ADD1B2" rx="11" ry="11" style="stroke:#181818;stroke-width:1.0;"/><path d="M1394.2231,153.1331 Q1393.6421,153.4319 1393.0029,153.5813 Q1392.3638,153.7307 1391.6582,153.7307 Q1389.1514,153.7307 1387.8315,152.0789 Q1386.5117,150.427 1386.5117,147.3059 Q1386.5117,144.1765 1387.8315,142.5247 Q1389.1514,140.8728 1391.6582,140.8728 Q1392.3638,140.8728 1393.0112,141.0222 Q1393.6587,141.1716 1394.2231,141.4705 L1394.2231,144.1931 Q1393.5923,143.6121 1392.9988,143.3423 Q1392.4053,143.0725 1391.7744,143.0725 Q1390.4297,143.0725 1389.7449,144.1392 Q1389.0601,145.2058 1389.0601,147.3059 Q1389.0601,149.3977 1389.7449,150.4644 Q1390.4297,151.531 1391.7744,151.531 Q1392.4053,151.531 1392.9988,151.2612 Q1393.5923,150.9915 1394.2231,150.4104 Z " fill="#000000"/><text fill="#000000" font-family="sans-serif" font-size="14" lengthAdjust="spacing" textLength="238" x="1411.75" y="152.781">ExamGradeAndCourseDTOMapper</text><line style="stroke:#181818;stroke-width:0.5;" x1="1288.5" x2="1740.5" y1="163.49" y2="163.49"/><line style="stroke:#181818;stroke-width:0.5;" x1="1288.5" x2="1740.5" y1="171.49" y2="171.49"/><ellipse cx="1298.5" cy="185.2341" fill="#84BE84" rx="3" ry="3" style="stroke:#038048;stroke-width:1.0;"/><text fill="#000000" font-family="sans-serif" font-size="14" lengthAdjust="spacing" textLength="428" x="1307.5" y="189.0252">toDTO(result: RegularExamResult): ExamGradeAndCourseDTO</text></g><!--class RegularExamResult--><g id="elem_RegularExamResult"><rect codeLine="24" fill="#F1F1F1" height="113.9531" id="RegularExamResult" rx="2.5" ry="2.5" style="stroke:#181818;stroke-width:0.5;" width="293" x="498" y="255.98"/><ellipse cx="573.75" cy="271.98" fill="#ADD1B2" rx="11" ry="11" style="stroke:#181818;stroke-width:1.0;"/><path d="M576.7231,277.6231 Q576.1421,277.9219 575.5029,278.0713 Q574.8638,278.2207 574.1582,278.2207 Q571.6514,278.2207 570.3315,276.5689 Q569.0117,274.917 569.0117,271.7959 Q569.0117,268.6665 570.3315,267.0147 Q571.6514,265.3628 574.1582,265.3628 Q574.8638,265.3628 575.5112,265.5122 Q576.1587,265.6616 576.7231,265.9605 L576.7231,268.6831 Q576.0923,268.1021 575.4988,267.8323 Q574.9053,267.5625 574.2744,267.5625 Q572.9297,267.5625 572.2449,268.6292 Q571.5601,269.6958 571.5601,271.7959 Q571.5601,273.8877 572.2449,274.9544 Q572.9297,276.021 574.2744,276.021 Q574.9053,276.021 575.4988,275.7512 Q576.0923,275.4815 576.7231,274.9004 Z " fill="#000000"/><text fill="#000000" font-family="sans-serif" font-size="14" lengthAdjust="spacing" textLength="133" x="594.25" y="277.271">RegularExamResult</text><line style="stroke:#181818;stroke-width:0.5;" x1="499" x2="790" y1="287.98" y2="287.98"/><rect fill="none" height="6" style="stroke:#C82930;stroke-width:1.0;" width="6" x="506" y="298.7241"/><text fill="#000000" font-family="sans-serif" font-size="14" lengthAdjust="spacing" textLength="127" x="518" y="305.5152">grade: ExamGrade</text><rect fill="none" height="6" style="stroke:#C82930;stroke-width:1.0;" width="6" x="506" y="315.2124"/><text fill="#000000" font-family="sans-serif" font-size="14" lengthAdjust="spacing" textLength="267" x="518" y="322.0034">gradeProperties: ExamGradeProperties</text><rect fill="none" height="6" style="stroke:#C82930;stroke-width:1.0;" width="6" x="506" y="331.7007"/><text fill="#000000" font-family="sans-serif" font-size="14" lengthAdjust="spacing" textLength="113" x="518" y="338.4917">student: Student</text><rect fill="none" height="6" style="stroke:#C82930;stroke-width:1.0;" width="6" x="506" y="348.189"/><text fill="#000000" font-family="sans-serif" font-size="14" lengthAdjust="spacing" textLength="187" x="518" y="354.98">regularExam: RegularExam</text><line style="stroke:#181818;stroke-width:0.5;" x1="499" x2="790" y1="361.9331" y2="361.9331"/></g><!--class ExamGrade--><g id="elem_ExamGrade"><rect codeLine="31" fill="#F1F1F1" height="80.9766" id="ExamGrade" rx="2.5" ry="2.5" style="stroke:#181818;stroke-width:0.5;" width="139" x="789" y="446.42"/><ellipse cx="816.6" cy="462.42" fill="#ADD1B2" rx="11" ry="11" style="stroke:#181818;stroke-width:1.0;"/><path d="M819.5731,468.0631 Q818.9921,468.3619 818.3529,468.5113 Q817.7138,468.6607 817.0082,468.6607 Q814.5014,468.6607 813.1815,467.0089 Q811.8617,465.357 811.8617,462.2359 Q811.8617,459.1065 813.1815,457.4547 Q814.5014,455.8028 817.0082,455.8028 Q817.7138,455.8028 818.3612,455.9522 Q819.0087,456.1016 819.5731,456.4005 L819.5731,459.1231 Q818.9423,458.5421 818.3488,458.2723 Q817.7553,458.0025 817.1244,458.0025 Q815.7797,458.0025 815.0949,459.0692 Q814.4101,460.1358 814.4101,462.2359 Q814.4101,464.3277 815.0949,465.3944 Q815.7797,466.461 817.1244,466.461 Q817.7553,466.461 818.3488,466.1912 Q818.9423,465.9215 819.5731,465.3404 Z " fill="#000000"/><text fill="#000000" font-family="sans-serif" font-size="14" lengthAdjust="spacing" textLength="79" x="833.4" y="467.711">ExamGrade</text><line style="stroke:#181818;stroke-width:0.5;" x1="790" x2="927" y1="478.42" y2="478.42"/><rect fill="none" height="6" style="stroke:#C82930;stroke-width:1.0;" width="6" x="797" y="489.1641"/><text fill="#000000" font-family="sans-serif" font-size="14" lengthAdjust="spacing" textLength="82" x="809" y="495.9552">grade: Float</text><rect fill="none" height="6" style="stroke:#C82930;stroke-width:1.0;" width="6" x="797" y="505.6524"/><text fill="#000000" font-family="sans-serif" font-size="14" lengthAdjust="spacing" textLength="113" x="809" y="512.4434">maxGrade: Float</text><line style="stroke:#181818;stroke-width:0.5;" x1="790" x2="927" y1="519.3966" y2="519.3966"/></g><!--class ExamGradeProperties--><g id="elem_ExamGradeProperties"><rect codeLine="36" fill="#F1F1F1" height="97.4648" id="ExamGradeProperties" rx="2.5" ry="2.5" style="stroke:#181818;stroke-width:0.5;" width="181" x="573" y="438.17"/><ellipse cx="588" cy="454.17" fill="#ADD1B2" rx="11" ry="11" style="stroke:#181818;stroke-width:1.0;"/><path d="M590.9731,459.8131 Q590.3921,460.1119 589.7529,460.2613 Q589.1138,460.4107 588.4082,460.4107 Q585.9014,460.4107 584.5815,458.7589 Q583.2617,457.107 583.2617,453.9859 Q583.2617,450.8565 584.5815,449.2047 Q585.9014,447.5528 588.4082,447.5528 Q589.1138,447.5528 589.7612,447.7022 Q590.4087,447.8516 590.9731,448.1505 L590.9731,450.8731 Q590.3423,450.2921 589.7488,450.0223 Q589.1553,449.7525 588.5244,449.7525 Q587.1797,449.7525 586.4949,450.8192 Q585.8101,451.8858 585.8101,453.9859 Q585.8101,456.0777 586.4949,457.1444 Q587.1797,458.211 588.5244,458.211 Q589.1553,458.211 589.7488,457.9412 Q590.3423,457.6715 590.9731,457.0904 Z " fill="#000000"/><text fill="#000000" font-family="sans-serif" font-size="14" lengthAdjust="spacing" textLength="149" x="602" y="459.461">ExamGradeProperties</text><line style="stroke:#181818;stroke-width:0.5;" x1="574" x2="753" y1="470.17" y2="470.17"/><rect fill="none" height="6" style="stroke:#C82930;stroke-width:1.0;" width="6" x="581" y="480.9141"/><text fill="#000000" font-family="sans-serif" font-size="14" lengthAdjust="spacing" textLength="39" x="593" y="487.7052">NONE</text><rect fill="none" height="6" style="stroke:#C82930;stroke-width:1.0;" width="6" x="581" y="497.4024"/><text fill="#000000" font-family="sans-serif" font-size="14" lengthAdjust="spacing" textLength="111" x="593" y="504.1934">ON_SUBMISSION</text><rect fill="none" height="6" style="stroke:#C82930;stroke-width:1.0;" width="6" x="581" y="513.8907"/><text fill="#000000" font-family="sans-serif" font-size="14" lengthAdjust="spacing" textLength="111" x="593" y="520.6817">AFTER_CLOSING</text><line style="stroke:#181818;stroke-width:0.5;" x1="574" x2="753" y1="527.6348" y2="527.6348"/></g><!--class Student--><g id="elem_Student"><rect codeLine="42" fill="#F1F1F1" height="48" id="Student" rx="2.5" ry="2.5" style="stroke:#181818;stroke-width:0.5;" width="85" x="1310" y="462.91"/><ellipse cx="1325" cy="478.91" fill="#ADD1B2" rx="11" ry="11" style="stroke:#181818;stroke-width:1.0;"/><path d="M1327.9731,484.5531 Q1327.3921,484.8519 1326.7529,485.0013 Q1326.1138,485.1507 1325.4082,485.1507 Q1322.9014,485.1507 1321.5815,483.4989 Q1320.2617,481.847 1320.2617,478.7259 Q1320.2617,475.5965 1321.5815,473.9447 Q1322.9014,472.2928 1325.4082,472.2928 Q1326.1138,472.2928 1326.7612,472.4422 Q1327.4087,472.5916 1327.9731,472.8905 L1327.9731,475.6131 Q1327.3423,475.0321 1326.7488,474.7623 Q1326.1553,474.4925 1325.5244,474.4925 Q1324.1797,474.4925 1323.4949,475.5592 Q1322.8101,476.6258 1322.8101,478.7259 Q1322.8101,480.8177 1323.4949,481.8844 Q1324.1797,482.951 1325.5244,482.951 Q1326.1553,482.951 1326.7488,482.6812 Q1327.3423,482.4115 1327.9731,481.8304 Z " fill="#000000"/><text fill="#000000" font-family="sans-serif" font-size="14" lengthAdjust="spacing" textLength="53" x="1339" y="484.201">Student</text><line style="stroke:#181818;stroke-width:0.5;" x1="1311" x2="1394" y1="494.91" y2="494.91"/><line style="stroke:#181818;stroke-width:0.5;" x1="1311" x2="1394" y1="502.91" y2="502.91"/></g><!--class RegularExam--><g id="elem_RegularExam"><rect codeLine="44" fill="#F1F1F1" height="113.9531" id="RegularExam" rx="2.5" ry="2.5" style="stroke:#181818;stroke-width:0.5;" width="298" x="239.5" y="429.93"/><ellipse cx="338.75" cy="445.93" fill="#ADD1B2" rx="11" ry="11" style="stroke:#181818;stroke-width:1.0;"/><path d="M341.7231,451.5731 Q341.1421,451.8719 340.5029,452.0213 Q339.8638,452.1707 339.1582,452.1707 Q336.6514,452.1707 335.3315,450.5189 Q334.0117,448.867 334.0117,445.7459 Q334.0117,442.6165 335.3315,440.9647 Q336.6514,439.3128 339.1582,439.3128 Q339.8638,439.3128 340.5112,439.4622 Q341.1587,439.6116 341.7231,439.9105 L341.7231,442.6331 Q341.0923,442.0521 340.4988,441.7823 Q339.9053,441.5125 339.2744,441.5125 Q337.9297,441.5125 337.2449,442.5792 Q336.5601,443.6458 336.5601,445.7459 Q336.5601,447.8377 337.2449,448.9044 Q337.9297,449.971 339.2744,449.971 Q339.9053,449.971 340.4988,449.7012 Q341.0923,449.4315 341.7231,448.8504 Z " fill="#000000"/><text fill="#000000" font-family="sans-serif" font-size="14" lengthAdjust="spacing" textLength="91" x="359.25" y="451.221">RegularExam</text><line style="stroke:#181818;stroke-width:0.5;" x1="240.5" x2="536.5" y1="461.93" y2="461.93"/><rect fill="none" height="6" style="stroke:#C82930;stroke-width:1.0;" width="6" x="247.5" y="472.6741"/><text fill="#000000" font-family="sans-serif" font-size="14" lengthAdjust="spacing" textLength="155" x="259.5" y="479.4652">title: RegularExamTitle</text><rect fill="none" height="6" style="stroke:#C82930;stroke-width:1.0;" width="6" x="247.5" y="489.1624"/><text fill="#000000" font-family="sans-serif" font-size="14" lengthAdjust="spacing" textLength="272" x="259.5" y="495.9534">specification: RegularExamSpecification</text><rect fill="none" height="6" style="stroke:#C82930;stroke-width:1.0;" width="6" x="247.5" y="505.6507"/><text fill="#000000" font-family="sans-serif" font-size="14" lengthAdjust="spacing" textLength="160" x="259.5" y="512.4417">date: RegularExamDate</text><rect fill="none" height="6" style="stroke:#C82930;stroke-width:1.0;" width="6" x="247.5" y="522.139"/><text fill="#000000" font-family="sans-serif" font-size="14" lengthAdjust="spacing" textLength="103" x="259.5" y="528.93">course: Course</text><line style="stroke:#181818;stroke-width:0.5;" x1="240.5" x2="536.5" y1="535.8831" y2="535.8831"/></g><!--class RegularExamTitle--><g id="elem_RegularExamTitle"><rect codeLine="51" fill="#F1F1F1" height="64.4883" id="RegularExamTitle" rx="2.5" ry="2.5" style="stroke:#181818;stroke-width:0.5;" width="153" x="7" y="612.13"/><ellipse cx="22" cy="628.13" fill="#ADD1B2" rx="11" ry="11" style="stroke:#181818;stroke-width:1.0;"/><path d="M24.9731,633.7731 Q24.3921,634.0719 23.7529,634.2213 Q23.1138,634.3707 22.4082,634.3707 Q19.9014,634.3707 18.5815,632.7189 Q17.2617,631.067 17.2617,627.9459 Q17.2617,624.8165 18.5815,623.1647 Q19.9014,621.5128 22.4082,621.5128 Q23.1138,621.5128 23.7612,621.6622 Q24.4087,621.8116 24.9731,622.1105 L24.9731,624.8331 Q24.3423,624.2521 23.7488,623.9823 Q23.1553,623.7125 22.5244,623.7125 Q21.1797,623.7125 20.4949,624.7792 Q19.8101,625.8458 19.8101,627.9459 Q19.8101,630.0377 20.4949,631.1044 Q21.1797,632.171 22.5244,632.171 Q23.1553,632.171 23.7488,631.9012 Q24.3423,631.6315 24.9731,631.0504 Z " fill="#000000"/><text fill="#000000" font-family="sans-serif" font-size="14" lengthAdjust="spacing" textLength="121" x="36" y="633.421">RegularExamTitle</text><line style="stroke:#181818;stroke-width:0.5;" x1="8" x2="159" y1="644.13" y2="644.13"/><rect fill="none" height="6" style="stroke:#C82930;stroke-width:1.0;" width="6" x="15" y="654.8741"/><text fill="#000000" font-family="sans-serif" font-size="14" lengthAdjust="spacing" textLength="75" x="27" y="661.6652">title: String</text><line style="stroke:#181818;stroke-width:0.5;" x1="8" x2="159" y1="668.6183" y2="668.6183"/></g><!--class RegularExamDate--><g id="elem_RegularExamDate"><rect codeLine="55" fill="#F1F1F1" height="80.9766" id="RegularExamDate" rx="2.5" ry="2.5" style="stroke:#181818;stroke-width:0.5;" width="165" x="195" y="603.88"/><ellipse cx="214.95" cy="619.88" fill="#ADD1B2" rx="11" ry="11" style="stroke:#181818;stroke-width:1.0;"/><path d="M217.9231,625.5231 Q217.3421,625.8219 216.7029,625.9713 Q216.0638,626.1207 215.3582,626.1207 Q212.8514,626.1207 211.5315,624.4689 Q210.2117,622.817 210.2117,619.6959 Q210.2117,616.5665 211.5315,614.9147 Q212.8514,613.2628 215.3582,613.2628 Q216.0638,613.2628 216.7112,613.4122 Q217.3587,613.5616 217.9231,613.8605 L217.9231,616.5831 Q217.2923,616.0021 216.6988,615.7323 Q216.1053,615.4625 215.4744,615.4625 Q214.1297,615.4625 213.4449,616.5292 Q212.7601,617.5958 212.7601,619.6959 Q212.7601,621.7877 213.4449,622.8544 Q214.1297,623.921 215.4744,623.921 Q216.1053,623.921 216.6988,623.6512 Q217.2923,623.3815 217.9231,622.8004 Z " fill="#000000"/><text fill="#000000" font-family="sans-serif" font-size="14" lengthAdjust="spacing" textLength="122" x="230.05" y="625.171">RegularExamDate</text><line style="stroke:#181818;stroke-width:0.5;" x1="196" x2="359" y1="635.88" y2="635.88"/><rect fill="none" height="6" style="stroke:#C82930;stroke-width:1.0;" width="6" x="203" y="646.6241"/><text fill="#000000" font-family="sans-serif" font-size="14" lengthAdjust="spacing" textLength="139" x="215" y="653.4152">start: LocalDateTime</text><rect fill="none" height="6" style="stroke:#C82930;stroke-width:1.0;" width="6" x="203" y="663.1124"/><text fill="#000000" font-family="sans-serif" font-size="14" lengthAdjust="spacing" textLength="134" x="215" y="669.9034">end: LocalDateTime</text><line style="stroke:#181818;stroke-width:0.5;" x1="196" x2="359" y1="676.8566" y2="676.8566"/></g><!--class RegularExamSpecification--><g id="elem_RegularExamSpecification"><rect fill="#F1F1F1" height="48" id="RegularExamSpecification" rx="2.5" ry="2.5" style="stroke:#181818;stroke-width:0.5;" width="210" x="395.5" y="620.37"/><ellipse cx="410.5" cy="636.37" fill="#ADD1B2" rx="11" ry="11" style="stroke:#181818;stroke-width:1.0;"/><path d="M413.4731,642.0131 Q412.8921,642.3119 412.2529,642.4613 Q411.6138,642.6107 410.9082,642.6107 Q408.4014,642.6107 407.0815,640.9589 Q405.7617,639.307 405.7617,636.1859 Q405.7617,633.0565 407.0815,631.4047 Q408.4014,629.7528 410.9082,629.7528 Q411.6138,629.7528 412.2612,629.9022 Q412.9087,630.0516 413.4731,630.3505 L413.4731,633.0731 Q412.8423,632.4921 412.2488,632.2223 Q411.6553,631.9525 411.0244,631.9525 Q409.6797,631.9525 408.9949,633.0192 Q408.3101,634.0858 408.3101,636.1859 Q408.3101,638.2777 408.9949,639.3444 Q409.6797,640.411 411.0244,640.411 Q411.6553,640.411 412.2488,640.1412 Q412.8423,639.8715 413.4731,639.2904 Z " fill="#000000"/><text fill="#000000" font-family="sans-serif" font-size="14" lengthAdjust="spacing" textLength="178" x="424.5" y="641.661">RegularExamSpecification</text><line style="stroke:#181818;stroke-width:0.5;" x1="396.5" x2="604.5" y1="652.37" y2="652.37"/><line style="stroke:#181818;stroke-width:0.5;" x1="396.5" x2="604.5" y1="660.37" y2="660.37"/></g><!--class Course--><g id="elem_Course"><rect fill="#F1F1F1" height="48" id="Course" rx="2.5" ry="2.5" style="stroke:#181818;stroke-width:0.5;" width="81" x="641" y="620.37"/><ellipse cx="656" cy="636.37" fill="#ADD1B2" rx="11" ry="11" style="stroke:#181818;stroke-width:1.0;"/><path d="M658.9731,642.0131 Q658.3921,642.3119 657.7529,642.4613 Q657.1138,642.6107 656.4082,642.6107 Q653.9014,642.6107 652.5815,640.9589 Q651.2617,639.307 651.2617,636.1859 Q651.2617,633.0565 652.5815,631.4047 Q653.9014,629.7528 656.4082,629.7528 Q657.1138,629.7528 657.7612,629.9022 Q658.4087,630.0516 658.9731,630.3505 L658.9731,633.0731 Q658.3423,632.4921 657.7488,632.2223 Q657.1553,631.9525 656.5244,631.9525 Q655.1797,631.9525 654.4949,633.0192 Q653.8101,634.0858 653.8101,636.1859 Q653.8101,638.2777 654.4949,639.3444 Q655.1797,640.411 656.5244,640.411 Q657.1553,640.411 657.7488,640.1412 Q658.3423,639.8715 658.9731,639.2904 Z " fill="#000000"/><text fill="#000000" font-family="sans-serif" font-size="14" lengthAdjust="spacing" textLength="49" x="670" y="641.661">Course</text><line style="stroke:#181818;stroke-width:0.5;" x1="642" x2="721" y1="652.37" y2="652.37"/><line style="stroke:#181818;stroke-width:0.5;" x1="642" x2="721" y1="660.37" y2="660.37"/></g><!--link ListStudentGradesController to ListExamResultsService--><g id="link_ListStudentGradesController_ListExamResultsService"><path codeLine="60" d="M1240.69,71.95 C1165.74,89.7 1072.41,111.82 996.63,129.77 " fill="none" id="ListStudentGradesController-to-ListExamResultsService" style="stroke:#181818;stroke-width:1.0;"/><polygon fill="#181818" points="992.2,131.06,1001.8808,132.8718,997.0646,129.9045,1000.0319,125.0883,992.2,131.06" style="stroke:#181818;stroke-width:1.0;"/></g><!--link ListExamResultsService to RegularExamResultRepository--><g id="link_ListExamResultsService_RegularExamResultRepository"><path codeLine="61" d="M901.48,196.32 C934.58,220.09 979.93,252.66 1014.07,277.17 " fill="none" id="ListExamResultsService-to-RegularExamResultRepository" style="stroke:#181818;stroke-width:1.0;"/><polygon fill="#181818" points="1017.6,280.42,1012.6239,271.9207,1013.5391,277.503,1007.9567,278.4181,1017.6,280.42" style="stroke:#181818;stroke-width:1.0;"/></g><!--link ListExamResultsService to Student--><g id="link_ListExamResultsService_Student"><path codeLine="62" d="M1152.44,196.46 C1225.86,210.18 1290.97,229.38 1316.5,255.98 C1368.93,310.6 1363.89,408.45 1357.43,456.98 " fill="none" id="ListExamResultsService-to-Student" style="stroke:#181818;stroke-width:1.0;stroke-dasharray:7.0,7.0;"/><polygon fill="#181818" points="1356.64,461.65,1361.8591,453.2977,1357.3391,456.6991,1353.9377,452.1791,1356.64,461.65" style="stroke:#181818;stroke-width:1.0;"/></g><!--link ListExamResultsService to RegularExamResult--><g id="link_ListExamResultsService_RegularExamResult"><path codeLine="63" d="M811.81,196.32 C788.12,212.69 758.39,233.23 730.6,252.45 " fill="none" id="ListExamResultsService-to-RegularExamResult" style="stroke:#181818;stroke-width:1.0;stroke-dasharray:7.0,7.0;"/><polygon fill="#181818" points="726.79,255.77,736.4682,253.9446,730.9035,252.9277,731.9205,247.363,726.79,255.77" style="stroke:#181818;stroke-width:1.0;"/></g><!--link ListExamResultsService to RegularExam--><g id="link_ListExamResultsService_RegularExam"><path codeLine="64" d="M655.8,196.46 C581.37,211.66 508.37,231.84 480.5,255.98 C431.11,298.76 407.94,371.77 397.26,424.04 " fill="none" id="ListExamResultsService-to-RegularExam" style="stroke:#181818;stroke-width:1.0;stroke-dasharray:7.0,7.0;"/><polygon fill="#181818" points="396.15,428.67,401.8194,420.6165,397.1196,423.7649,393.9712,419.0652,396.15,428.67" style="stroke:#181818;stroke-width:1.0;"/></g><!--link ListStudentGradesController to ExamGradeAndCourseDTO--><g id="link_ListStudentGradesController_ExamGradeAndCourseDTO"><path codeLine="66" d="M1321.75,71.84 C1301.45,87.07 1280.52,107.32 1269.5,131.49 C1257.61,157.57 1254.17,171.76 1269.5,195.98 C1277.64,208.84 1340.1,238.31 1399.91,264.32 " fill="none" id="ListStudentGradesController-to-ExamGradeAndCourseDTO" style="stroke:#181818;stroke-width:1.0;stroke-dasharray:7.0,7.0;"/><polygon fill="#181818" points="1404.32,266.67,1397.6695,259.4056,1399.7369,264.6712,1394.4714,266.7385,1404.32,266.67" style="stroke:#181818;stroke-width:1.0;"/></g><!--link ListStudentGradesController to ExamGradeAndCourseDTOMapper--><g id="link_ListStudentGradesController_ExamGradeAndCourseDTOMapper"><path codeLine="67" d="M1410.55,71.79 C1429.99,88.79 1454.02,109.82 1474.09,127.38 " fill="none" id="ListStudentGradesController-to-ExamGradeAndCourseDTOMapper" style="stroke:#181818;stroke-width:1.0;stroke-dasharray:7.0,7.0;"/><polygon fill="#181818" points="1477.57,131.3,1473.4476,122.3554,1473.8133,128.0004,1468.1683,128.3661,1477.57,131.3" style="stroke:#181818;stroke-width:1.0;"/></g><!--link ExamGradeAndCourseDTOMapper to ExamGradeAndCourseDTO--><g id="link_ExamGradeAndCourseDTOMapper_ExamGradeAndCourseDTO"><path codeLine="68" d="M1514.5,196.32 C1514.5,212.01 1514.5,231.54 1514.5,250.06 " fill="none" id="ExamGradeAndCourseDTOMapper-to-ExamGradeAndCourseDTO" style="stroke:#181818;stroke-width:1.0;stroke-dasharray:7.0,7.0;"/><polygon fill="#181818" points="1514.5,254.77,1518.5,245.77,1514.5,249.77,1510.5,245.77,1514.5,254.77" style="stroke:#181818;stroke-width:1.0;"/></g><!--link ListStudentGradesController to Student--><g id="link_ListStudentGradesController_Student"><path codeLine="70" d="M1572.88,64.41 C1654.12,78.76 1734.9,100.37 1759.5,131.49 C1828.97,219.35 1694.53,327.21 1641.5,369.93 C1568.7,428.58 1462.39,460.91 1401.05,475.72 " fill="none" id="ListStudentGradesController-to-Student" style="stroke:#181818;stroke-width:1.0;stroke-dasharray:7.0,7.0;"/><polygon fill="#181818" points="1396.26,477.1,1405.9408,478.9118,1401.1246,475.9445,1404.0919,471.1283,1396.26,477.1" style="stroke:#181818;stroke-width:1.0;"/></g><!--link RegularExamResult to ExamGrade--><g id="link_RegularExamResult_ExamGrade"><path codeLine="72" d="M714.57,370.26 C743.73,393.68 777.05,420.46 804.28,442.34 " fill="none" id="RegularExamResult-to-ExamGrade" style="stroke:#181818;stroke-width:1.0;"/><polygon fill="#181818" points="807.95,446.09,803.4327,437.3382,804.0498,442.9613,798.4268,443.5785,807.95,446.09" style="stroke:#181818;stroke-width:1.0;"/></g><!--link RegularExamResult to ExamGradeProperties--><g id="link_RegularExamResult_ExamGradeProperties"><path codeLine="73" d="M650.72,370.26 C652.92,390.14 655.38,412.43 657.55,432.1 " fill="none" id="RegularExamResult-to-ExamGradeProperties" style="stroke:#181818;stroke-width:1.0;"/><polygon fill="#181818" points="658.19,436.84,661.1894,427.459,657.6472,431.8695,653.2367,428.3274,658.19,436.84" style="stroke:#181818;stroke-width:1.0;"/></g><!--link RegularExamResult to Student--><g id="link_RegularExamResult_Student"><path codeLine="74" d="M791.31,365.01 C797.1,366.72 802.85,368.37 808.5,369.93 C989.02,419.79 1208.24,460.67 1303.92,477.55 " fill="none" id="RegularExamResult-to-Student" style="stroke:#181818;stroke-width:1.0;"/><polygon fill="#181818" points="1308.76,478.58,1300.5939,473.0741,1303.8364,477.7094,1299.201,480.9519,1308.76,478.58" style="stroke:#181818;stroke-width:1.0;"/></g><!--link RegularExamResult to RegularExam--><g id="link_RegularExamResult_RegularExam"><path codeLine="75" d="M560.68,370.26 C533.93,388.22 504.26,408.15 477.18,426.34 " fill="none" id="RegularExamResult-to-RegularExam" style="stroke:#181818;stroke-width:1.0;"/><polygon fill="#181818" points="473.51,429.48,483.2106,427.7774,477.6592,426.69,478.7466,421.1387,473.51,429.48" style="stroke:#181818;stroke-width:1.0;"/></g><!--link RegularExam to RegularExamTitle--><g id="link_RegularExam_RegularExamTitle"><path codeLine="77" d="M277.96,544.25 C235.21,566.04 187.69,590.26 150.33,609.31 " fill="none" id="RegularExam-to-RegularExamTitle" style="stroke:#181818;stroke-width:1.0;"/><polygon fill="#181818" points="146.36,611.84,156.195,611.3174,150.8149,609.5697,152.5626,604.1896,146.36,611.84" style="stroke:#181818;stroke-width:1.0;"/></g><!--link RegularExam to RegularExamSpecification--><g id="link_RegularExam_RegularExamSpecification"><path codeLine="78" d="M428.93,544.03 C446.45,568.35 466.18,595.73 480.48,615.58 " fill="none" id="RegularExam-to-RegularExamSpecification" style="stroke:#181818;stroke-width:1.0;"/><polygon fill="#181818" points="483.81,619.2,481.7858,609.5614,480.8836,615.1459,475.2991,614.2437,483.81,619.2" style="stroke:#181818;stroke-width:1.0;"/></g><!--link RegularExam to RegularExamDate--><g id="link_RegularExam_RegularExamDate"><path codeLine="79" d="M348.43,544.03 C335.6,562 321.58,581.64 309.41,598.68 " fill="none" id="RegularExam-to-RegularExamDate" style="stroke:#181818;stroke-width:1.0;"/><polygon fill="#181818" points="306.03,602.41,314.5094,597.4001,308.9308,598.3375,307.9934,592.7588,306.03,602.41" style="stroke:#181818;stroke-width:1.0;"/></g><!--link RegularExam to Course--><g id="link_RegularExam_Course"><path codeLine="80" d="M510.96,544.34 C547.71,562.34 587.74,583.02 623.5,603.88 C630.34,607.87 637.44,612.38 644.24,616.89 " fill="none" id="RegularExam-to-Course" style="stroke:#181818;stroke-width:1.0;"/><polygon fill="#181818" points="647.89,620.01,642.6401,611.677,643.7363,617.2266,638.1867,618.3228,647.89,620.01" style="stroke:#181818;stroke-width:1.0;"/></g><!--SRC=[dLJBQiCm4BpxAtHiAEa7c19edXXIkyJfkQZs9WWKoqXAQGZzzqgsRFaXEsbzChkpCxChhHAAXK1R8cGipobaSiDn2cB1CiaPfS3HrKFgUqIqYtcO-4NXy-eRduhGIvOks9aBMEwZcVVZUKdDhZ4x46SgHGpyYoHG4tCudYdc6Y4CP8u5f56cIKbsVECi1ow9aXG-CXwKU221uqyApplBK18KuYHJ-GDMIhty3d8cY6JyKhi0Qt1-CHf_aYjxTSx2Y4oH99A2t_Iprn6JFUewtrAOS8fbksQf0YP7KX-LCi7oXebNdEUDuvHCnHvuuT_lJsZYkrciIA-axdAWZo9ipx81i4435UNGw-cRSEEcj2mxEk-QMLE6AveJ_juqe_rgQwZc2QDmPNwZy2D-dxy6SHn4eOczhFUhtSTY6yL1kB6CnZ-w8jVSxhmN8eU474Y29M5P2nKtCtTSbwGunkhAEC-o4EuQYoLNU-Z4Q_OQBYJcwjIsBC5K9_RaL4b3bdOJYcxiuPbEPmDFXpVmekYAaLqVAdjwcjKNRGJIOxuJFDwb1hitxLzLvPPxOo_0iE9DoMfANd_vzUpjnj_8DnRUZQo4tDdc2g6McMwwNACHG7k3He355dNpvUX-0G00]--></g></svg>