<?xml version="1.0" encoding="us-ascii" standalone="no"?><svg xmlns="http://www.w3.org/2000/svg" xmlns:xlink="http://www.w3.org/1999/xlink" contentStyleType="text/css" height="883px" preserveAspectRatio="none" style="width:1520px;height:883px;background:#FFFFFF;" version="1.1" viewBox="0 0 1520 883" width="1520px" zoomAndPan="magnify"><defs/><g><rect fill="#FFFFFF" height="672.1426" style="stroke:#181818;stroke-width:1.0;" width="10" x="154.5" y="112.7988"/><rect fill="#FFFFFF" height="30" style="stroke:#181818;stroke-width:1.0;" width="10" x="318" y="152.7646"/><rect fill="#FFFFFF" height="517.5898" style="stroke:#181818;stroke-width:1.0;" width="10" x="318" y="222.7305"/><rect fill="#FFFFFF" height="109.9316" style="stroke:#181818;stroke-width:1.0;" width="10" x="488" y="252.041"/><rect fill="#FFFFFF" height="30" style="stroke:#181818;stroke-width:1.0;" width="10" x="587.5" y="292.0068"/><rect fill="#FFFFFF" height="170.4844" style="stroke:#181818;stroke-width:1.0;" width="10" x="717" y="391.2832"/><rect fill="#FFFFFF" height="70.5869" style="stroke:#181818;stroke-width:1.0;" width="10" x="944" y="420.5938"/><rect fill="#FFFFFF" height="119.9316" style="stroke:#181818;stroke-width:1.0;" width="10" x="1163.5" y="591.0781"/><rect fill="#FFFFFF" height="30" style="stroke:#181818;stroke-width:1.0;" width="10" x="1399.5" y="644.6992"/><rect fill="none" height="76.6211" style="stroke:#000000;stroke-width:1.5;" width="482" x="1032.5" y="606.0781"/><line style="stroke:#181818;stroke-width:0.5;stroke-dasharray:5.0,5.0;" x1="34" x2="34" y1="81.4883" y2="802.9414"/><line style="stroke:#181818;stroke-width:0.5;stroke-dasharray:5.0,5.0;" x1="159" x2="159" y1="81.4883" y2="802.9414"/><line style="stroke:#181818;stroke-width:0.5;stroke-dasharray:5.0,5.0;" x1="323" x2="323" y1="81.4883" y2="802.9414"/><line style="stroke:#181818;stroke-width:0.5;stroke-dasharray:5.0,5.0;" x1="493" x2="493" y1="81.4883" y2="802.9414"/><line style="stroke:#181818;stroke-width:0.5;stroke-dasharray:5.0,5.0;" x1="592" x2="592" y1="81.4883" y2="802.9414"/><line style="stroke:#181818;stroke-width:0.5;stroke-dasharray:5.0,5.0;" x1="722" x2="722" y1="81.4883" y2="802.9414"/><line style="stroke:#181818;stroke-width:0.5;stroke-dasharray:5.0,5.0;" x1="948.5" x2="948.5" y1="81.4883" y2="802.9414"/><line style="stroke:#181818;stroke-width:0.5;stroke-dasharray:5.0,5.0;" x1="1168.5" x2="1168.5" y1="81.4883" y2="802.9414"/><line style="stroke:#181818;stroke-width:0.5;stroke-dasharray:5.0,5.0;" x1="1404.5" x2="1404.5" y1="81.4883" y2="802.9414"/><text fill="#000000" font-family="sans-serif" font-size="14" lengthAdjust="spacing" textLength="53" x="5" y="78.5352">Student</text><ellipse cx="34.5" cy="13.5" fill="#E2E2F0" rx="8" ry="8" style="stroke:#181818;stroke-width:0.5;"/><path d="M34.5,21.5 L34.5,48.5 M21.5,29.5 L47.5,29.5 M34.5,48.5 L21.5,63.5 M34.5,48.5 L47.5,63.5 " fill="none" style="stroke:#181818;stroke-width:0.5;"/><text fill="#000000" font-family="sans-serif" font-size="14" lengthAdjust="spacing" textLength="53" x="5" y="815.4766">Student</text><ellipse cx="34.5" cy="826.9297" fill="#E2E2F0" rx="8" ry="8" style="stroke:#181818;stroke-width:0.5;"/><path d="M34.5,834.9297 L34.5,861.9297 M21.5,842.9297 L47.5,842.9297 M34.5,861.9297 L21.5,876.9297 M34.5,861.9297 L47.5,876.9297 " fill="none" style="stroke:#181818;stroke-width:0.5;"/><rect fill="#E2E2F0" height="30.4883" rx="2.5" ry="2.5" style="stroke:#181818;stroke-width:0.5;" width="99" x="110" y="50"/><text fill="#000000" font-family="sans-serif" font-size="14" lengthAdjust="spacing" textLength="85" x="117" y="70.5352">ListGradesUI</text><rect fill="#E2E2F0" height="30.4883" rx="2.5" ry="2.5" style="stroke:#181818;stroke-width:0.5;" width="99" x="110" y="801.9414"/><text fill="#000000" font-family="sans-serif" font-size="14" lengthAdjust="spacing" textLength="85" x="117" y="822.4766">ListGradesUI</text><rect fill="#E2E2F0" height="30.4883" rx="2.5" ry="2.5" style="stroke:#181818;stroke-width:0.5;" width="208" x="219" y="50"/><text fill="#000000" font-family="sans-serif" font-size="14" lengthAdjust="spacing" textLength="194" x="226" y="70.5352">ListStudentGradesController</text><rect fill="#E2E2F0" height="30.4883" rx="2.5" ry="2.5" style="stroke:#181818;stroke-width:0.5;" width="208" x="219" y="801.9414"/><text fill="#000000" font-family="sans-serif" font-size="14" lengthAdjust="spacing" textLength="194" x="226" y="822.4766">ListStudentGradesController</text><rect fill="#E2E2F0" height="30.4883" rx="2.5" ry="2.5" style="stroke:#181818;stroke-width:0.5;" width="112" x="437" y="50"/><text fill="#000000" font-family="sans-serif" font-size="14" lengthAdjust="spacing" textLength="98" x="444" y="70.5352">MyUserService</text><rect fill="#E2E2F0" height="30.4883" rx="2.5" ry="2.5" style="stroke:#181818;stroke-width:0.5;" width="112" x="437" y="801.9414"/><text fill="#000000" font-family="sans-serif" font-size="14" lengthAdjust="spacing" textLength="98" x="444" y="822.4766">MyUserService</text><rect fill="#E2E2F0" height="30.4883" rx="2.5" ry="2.5" style="stroke:#181818;stroke-width:0.5;" width="67" x="559" y="50"/><text fill="#000000" font-family="sans-serif" font-size="14" lengthAdjust="spacing" textLength="53" x="566" y="70.5352">Student</text><rect fill="#E2E2F0" height="30.4883" rx="2.5" ry="2.5" style="stroke:#181818;stroke-width:0.5;" width="67" x="559" y="801.9414"/><text fill="#000000" font-family="sans-serif" font-size="14" lengthAdjust="spacing" textLength="53" x="566" y="822.4766">Student</text><rect fill="#E2E2F0" height="30.4883" rx="2.5" ry="2.5" style="stroke:#181818;stroke-width:0.5;" width="172" x="636" y="50"/><text fill="#000000" font-family="sans-serif" font-size="14" lengthAdjust="spacing" textLength="158" x="643" y="70.5352">ListExamResultsService</text><rect fill="#E2E2F0" height="30.4883" rx="2.5" ry="2.5" style="stroke:#181818;stroke-width:0.5;" width="172" x="636" y="801.9414"/><text fill="#000000" font-family="sans-serif" font-size="14" lengthAdjust="spacing" textLength="158" x="643" y="822.4766">ListExamResultsService</text><rect fill="#E2E2F0" height="30.4883" rx="2.5" ry="2.5" style="stroke:#181818;stroke-width:0.5;" width="167" x="865.5" y="50"/><text fill="#000000" font-family="sans-serif" font-size="14" lengthAdjust="spacing" textLength="153" x="872.5" y="70.5352">ExamResultRepository</text><rect fill="#E2E2F0" height="30.4883" rx="2.5" ry="2.5" style="stroke:#181818;stroke-width:0.5;" width="167" x="865.5" y="801.9414"/><text fill="#000000" font-family="sans-serif" font-size="14" lengthAdjust="spacing" textLength="153" x="872.5" y="822.4766">ExamResultRepository</text><rect fill="#E2E2F0" height="30.4883" rx="2.5" ry="2.5" style="stroke:#181818;stroke-width:0.5;" width="252" x="1042.5" y="50"/><text fill="#000000" font-family="sans-serif" font-size="14" lengthAdjust="spacing" textLength="238" x="1049.5" y="70.5352">ExamGradeAndCourseDTOMapper</text><rect fill="#E2E2F0" height="30.4883" rx="2.5" ry="2.5" style="stroke:#181818;stroke-width:0.5;" width="252" x="1042.5" y="801.9414"/><text fill="#000000" font-family="sans-serif" font-size="14" lengthAdjust="spacing" textLength="238" x="1049.5" y="822.4766">ExamGradeAndCourseDTOMapper</text><rect fill="#E2E2F0" height="30.4883" rx="2.5" ry="2.5" style="stroke:#181818;stroke-width:0.5;" width="200" x="1304.5" y="50"/><text fill="#000000" font-family="sans-serif" font-size="14" lengthAdjust="spacing" textLength="186" x="1311.5" y="70.5352">ExamGradeAndCourseDTO</text><rect fill="#E2E2F0" height="30.4883" rx="2.5" ry="2.5" style="stroke:#181818;stroke-width:0.5;" width="200" x="1304.5" y="801.9414"/><text fill="#000000" font-family="sans-serif" font-size="14" lengthAdjust="spacing" textLength="186" x="1311.5" y="822.4766">ExamGradeAndCourseDTO</text><rect fill="#FFFFFF" height="672.1426" style="stroke:#181818;stroke-width:1.0;" width="10" x="154.5" y="112.7988"/><rect fill="#FFFFFF" height="30" style="stroke:#181818;stroke-width:1.0;" width="10" x="318" y="152.7646"/><rect fill="#FFFFFF" height="517.5898" style="stroke:#181818;stroke-width:1.0;" width="10" x="318" y="222.7305"/><rect fill="#FFFFFF" height="109.9316" style="stroke:#181818;stroke-width:1.0;" width="10" x="488" y="252.041"/><rect fill="#FFFFFF" height="30" style="stroke:#181818;stroke-width:1.0;" width="10" x="587.5" y="292.0068"/><rect fill="#FFFFFF" height="170.4844" style="stroke:#181818;stroke-width:1.0;" width="10" x="717" y="391.2832"/><rect fill="#FFFFFF" height="70.5869" style="stroke:#181818;stroke-width:1.0;" width="10" x="944" y="420.5938"/><rect fill="#FFFFFF" height="119.9316" style="stroke:#181818;stroke-width:1.0;" width="10" x="1163.5" y="591.0781"/><rect fill="#FFFFFF" height="30" style="stroke:#181818;stroke-width:1.0;" width="10" x="1399.5" y="644.6992"/><polygon fill="#181818" points="142.5,108.7988,152.5,112.7988,142.5,116.7988,146.5,112.7988" style="stroke:#181818;stroke-width:1.0;"/><line style="stroke:#181818;stroke-width:1.0;" x1="34.5" x2="148.5" y1="112.7988" y2="112.7988"/><text fill="#000000" font-family="sans-serif" font-size="13" lengthAdjust="spacing" textLength="32" x="41.5" y="108.0566">enter</text><polygon fill="#181818" points="306,148.7646,316,152.7646,306,156.7646,310,152.7646" style="stroke:#181818;stroke-width:1.0;"/><line style="stroke:#181818;stroke-width:1.0;stroke-dasharray:2.0,2.0;" x1="164.5" x2="312" y1="152.7646" y2="152.7646"/><text fill="#000000" font-family="sans-serif" font-size="13" lengthAdjust="spacing" textLength="46" x="171.5" y="148.0225">create()</text><path d="M333,125.7988 L333,165.7988 L562,165.7988 L562,135.7988 L552,125.7988 L333,125.7988 " fill="#FEFFDD" style="stroke:#181818;stroke-width:0.5;"/><path d="M552,125.7988 L552,135.7988 L562,135.7988 L552,125.7988 " fill="#FEFFDD" style="stroke:#181818;stroke-width:0.5;"/><text fill="#000000" font-family="sans-serif" font-size="13" lengthAdjust="spacing" textLength="179" x="339" y="143.3672">repositories are retrieved via</text><text fill="#000000" font-family="sans-serif" font-size="13" lengthAdjust="spacing" textLength="208" x="339" y="158.6777">PersistenceContext.repositories()</text><polygon fill="#181818" points="306,218.7305,316,222.7305,306,226.7305,310,222.7305" style="stroke:#181818;stroke-width:1.0;"/><line style="stroke:#181818;stroke-width:1.0;stroke-dasharray:2.0,2.0;" x1="164.5" x2="312" y1="222.7305" y2="222.7305"/><text fill="#000000" font-family="sans-serif" font-size="13" lengthAdjust="spacing" textLength="119" x="171.5" y="217.9883">listStudentGrades()</text><polygon fill="#181818" points="476,248.041,486,252.041,476,256.041,480,252.041" style="stroke:#181818;stroke-width:1.0;"/><line style="stroke:#181818;stroke-width:1.0;stroke-dasharray:2.0,2.0;" x1="328" x2="482" y1="252.041" y2="252.041"/><text fill="#000000" font-family="sans-serif" font-size="13" lengthAdjust="spacing" textLength="101" x="335" y="247.2988">currentStudent()</text><polygon fill="#181818" points="575.5,288.0068,585.5,292.0068,575.5,296.0068,579.5,292.0068" style="stroke:#181818;stroke-width:1.0;"/><line style="stroke:#181818;stroke-width:1.0;stroke-dasharray:2.0,2.0;" x1="498" x2="581.5" y1="292.0068" y2="292.0068"/><text fill="#000000" font-family="sans-serif" font-size="13" lengthAdjust="spacing" textLength="28" x="505" y="287.2646">get()</text><path d="M602,265.041 L602,305.041 L857,305.041 L857,275.041 L847,265.041 L602,265.041 " fill="#FEFFDD" style="stroke:#181818;stroke-width:0.5;"/><path d="M847,265.041 L847,275.041 L857,275.041 L847,265.041 " fill="#FEFFDD" style="stroke:#181818;stroke-width:0.5;"/><text fill="#000000" font-family="sans-serif" font-size="13" lengthAdjust="spacing" textLength="234" x="608" y="282.6094">student obtained via the framework's</text><text fill="#000000" font-family="sans-serif" font-size="13" lengthAdjust="spacing" textLength="226" x="608" y="297.9199">Authz package + StudentRepository</text><polygon fill="#181818" points="339,357.9727,329,361.9727,339,365.9727,335,361.9727" style="stroke:#181818;stroke-width:1.0;"/><line style="stroke:#181818;stroke-width:1.0;stroke-dasharray:2.0,2.0;" x1="333" x2="492" y1="361.9727" y2="361.9727"/><text fill="#000000" font-family="sans-serif" font-size="13" lengthAdjust="spacing" textLength="48" x="345" y="357.2305">student</text><polygon fill="#181818" points="705,387.2832,715,391.2832,705,395.2832,709,391.2832" style="stroke:#181818;stroke-width:1.0;"/><line style="stroke:#181818;stroke-width:1.0;stroke-dasharray:2.0,2.0;" x1="328" x2="711" y1="391.2832" y2="391.2832"/><text fill="#000000" font-family="sans-serif" font-size="13" lengthAdjust="spacing" textLength="346" x="335" y="386.541">regularExamResultsBasedOnGradingProperties(student)</text><polygon fill="#181818" points="932,416.5938,942,420.5938,932,424.5938,936,420.5938" style="stroke:#181818;stroke-width:1.0;"/><line style="stroke:#181818;stroke-width:1.0;stroke-dasharray:2.0,2.0;" x1="727" x2="938" y1="420.5938" y2="420.5938"/><text fill="#000000" font-family="sans-serif" font-size="13" lengthAdjust="spacing" textLength="198" x="734" y="415.8516">examResultsByStudent(student)</text><polygon fill="#181818" points="738,487.1807,728,491.1807,738,495.1807,734,491.1807" style="stroke:#181818;stroke-width:1.0;"/><line style="stroke:#181818;stroke-width:1.0;stroke-dasharray:2.0,2.0;" x1="732" x2="948" y1="491.1807" y2="491.1807"/><text fill="#000000" font-family="sans-serif" font-size="13" lengthAdjust="spacing" textLength="80" x="744" y="486.4385">examResults</text><path d="M355,433.5938 L355,534.5938 L712,534.5938 L712,443.5938 L702,433.5938 L355,433.5938 " fill="#FEFFDD" style="stroke:#181818;stroke-width:0.5;"/><path d="M702,433.5938 L702,443.5938 L712,443.5938 L702,433.5938 " fill="#FEFFDD" style="stroke:#181818;stroke-width:0.5;"/><text fill="#000000" font-family="sans-serif" font-size="13" lengthAdjust="spacing" textLength="263" x="361" y="451.1621">The service will apply the following filters</text><text fill="#000000" font-family="sans-serif" font-size="13" lengthAdjust="spacing" textLength="126" x="361" y="466.4727">to the exam results:</text><text fill="#000000" font-family="sans-serif" font-size="13" lengthAdjust="spacing" textLength="4" x="361" y="481.7832">&#160;</text><text fill="#000000" font-family="sans-serif" font-size="13" lengthAdjust="spacing" textLength="336" x="361" y="497.0938">1. Include results with the "on-submission" property.</text><text fill="#000000" font-family="sans-serif" font-size="13" lengthAdjust="spacing" textLength="318" x="361" y="512.4043">2. Include results with the "after-closing" property</text><text fill="#000000" font-family="sans-serif" font-size="13" lengthAdjust="spacing" textLength="241" x="361" y="527.7148">if the closing date has already passed.</text><polygon fill="#181818" points="339,557.7676,329,561.7676,339,565.7676,335,561.7676" style="stroke:#181818;stroke-width:1.0;"/><line style="stroke:#181818;stroke-width:1.0;stroke-dasharray:2.0,2.0;" x1="333" x2="721" y1="561.7676" y2="561.7676"/><text fill="#000000" font-family="sans-serif" font-size="13" lengthAdjust="spacing" textLength="80" x="345" y="557.0254">examResults</text><polygon fill="#181818" points="1151.5,587.0781,1161.5,591.0781,1151.5,595.0781,1155.5,591.0781" style="stroke:#181818;stroke-width:1.0;"/><line style="stroke:#181818;stroke-width:1.0;stroke-dasharray:2.0,2.0;" x1="328" x2="1157.5" y1="591.0781" y2="591.0781"/><text fill="#000000" font-family="sans-serif" font-size="13" lengthAdjust="spacing" textLength="129" x="335" y="586.3359">toDTO(examResults)</text><path d="M1032.5,606.0781 L1106.5,606.0781 L1106.5,613.3887 L1096.5,623.3887 L1032.5,623.3887 L1032.5,606.0781 " fill="#EEEEEE" style="stroke:#000000;stroke-width:1.5;"/><rect fill="none" height="76.6211" style="stroke:#000000;stroke-width:1.5;" width="482" x="1032.5" y="606.0781"/><text fill="#000000" font-family="sans-serif" font-size="13" font-weight="bold" lengthAdjust="spacing" textLength="29" x="1047.5" y="619.6465">loop</text><text fill="#000000" font-family="sans-serif" font-size="11" font-weight="bold" lengthAdjust="spacing" textLength="157" x="1121.5" y="618.7129">[for each course in courses]</text><polygon fill="#181818" points="1387.5,640.6992,1397.5,644.6992,1387.5,648.6992,1391.5,644.6992" style="stroke:#181818;stroke-width:1.0;"/><line style="stroke:#181818;stroke-width:1.0;stroke-dasharray:2.0,2.0;" x1="1173.5" x2="1393.5" y1="644.6992" y2="644.6992"/><text fill="#000000" font-family="sans-serif" font-size="13" lengthAdjust="spacing" textLength="46" x="1180.5" y="639.957">create()</text><polygon fill="#181818" points="339,707.0098,329,711.0098,339,715.0098,335,711.0098" style="stroke:#181818;stroke-width:1.0;"/><line style="stroke:#181818;stroke-width:1.0;stroke-dasharray:2.0,2.0;" x1="333" x2="1167.5" y1="711.0098" y2="711.0098"/><text fill="#000000" font-family="sans-serif" font-size="13" lengthAdjust="spacing" textLength="93" x="345" y="706.2676">gradesDTOList</text><polygon fill="#181818" points="175.5,736.3203,165.5,740.3203,175.5,744.3203,171.5,740.3203" style="stroke:#181818;stroke-width:1.0;"/><line style="stroke:#181818;stroke-width:1.0;stroke-dasharray:2.0,2.0;" x1="169.5" x2="322" y1="740.3203" y2="740.3203"/><text fill="#000000" font-family="sans-serif" font-size="13" lengthAdjust="spacing" textLength="93" x="181.5" y="735.5781">gradesDTOList</text><polygon fill="#181818" points="45.5,780.9414,35.5,784.9414,45.5,788.9414,41.5,784.9414" style="stroke:#181818;stroke-width:1.0;"/><line style="stroke:#181818;stroke-width:1.0;stroke-dasharray:2.0,2.0;" x1="39.5" x2="158.5" y1="784.9414" y2="784.9414"/><text fill="#000000" font-family="sans-serif" font-size="13" lengthAdjust="spacing" textLength="92" x="51.5" y="764.8887">show available</text><text fill="#000000" font-family="sans-serif" font-size="13" lengthAdjust="spacing" textLength="42" x="51.5" y="780.1992">grades</text><!--SRC=[XLLBRzim3BxxLn2zhCEG0DinXm5TDmm5LhJeusQWK6J65gf8XYGxzNxzA5bEv4SodnoJ_CZluoECEstWsJK5AWVCGcFHP3KpJd1HC_hsHrZtsx02xUjTS10pSmpllMwrSaPBYSPxSsTaDWguxrufnJEQLd0SChxPbe-yaefi_vhDqlxwOFidj8rqDe6R8fsydh3MLX3VpllXcw7VsSmtiBXHnQrkZCMVBm_thAvxCllmzly8xriumlRKOFMTD8CD40SAPjo9bZdqEW8zP5gHXzU9VBX1ibr_3gQZQn0HugCqVJ6Yh1pvcu6IG0lCa04TlRTOG2jOhXxHM58A5KVV5_nmwpGa9Yfmd6gXC3bjyyKQGv2F7dhhgJN6K7G4YU4ZYECWGF8S4JnS70L2Ap656C4Cyv8Q4uPBvf6cGnAzTKoeNabm5SBEi3qUj7d_P7DrqxZgBzIClxCIuSimiASPEyyYIZej9AdngCHSqLvCWsKZcKasu0UpM3metnoXoaUZQLATRt5Ciw3tLEgXldup_CGcyDtGk1dU23Dk5KoU27aYa42VQzImeBD6RRLpUh-15-g9ZOj_4582hQVi-bRH0T874W9sGjBQMSYLqy7aCvD-8VKcLxdwkeOxnIMn6ZuJcgk2yvLMAzjizy9QeTKLrBsktJfNtow5iHqbNN59iw3AKnXL8NR18vgWy4mhkXTCqkeN7KsKfKQk5niJ1sT9ktJ05-UclrqRS9eEr7K2iJ0OySwb9KYjQrBL0EMfW8TB1qB5DpjhU0yHCjCbd1osnSdn1tDgJ5XDpQYAK5Hs9gidJcSYt2fYxFylbiIAL1Skbp_Py_1Bfp9SUzhhIX-0jKn8jfL8BUzHidI_HVOF]--></g></svg>