<?xml version="1.0" encoding="us-ascii" standalone="no"?><svg xmlns="http://www.w3.org/2000/svg" xmlns:xlink="http://www.w3.org/1999/xlink" contentStyleType="text/css" height="883px" preserveAspectRatio="none" style="width:1574px;height:883px;background:#FFFFFF;" version="1.1" viewBox="0 0 1574 883" width="1574px" zoomAndPan="magnify"><defs/><g><rect fill="#FFFFFF" height="672.1426" style="stroke:#181818;stroke-width:1.0;" width="10" x="154.5" y="112.7988"/><rect fill="#FFFFFF" height="30" style="stroke:#181818;stroke-width:1.0;" width="10" x="318" y="152.7646"/><rect fill="#FFFFFF" height="517.5898" style="stroke:#181818;stroke-width:1.0;" width="10" x="318" y="222.7305"/><rect fill="#FFFFFF" height="30" style="stroke:#181818;stroke-width:1.0;" width="10" x="478.5" y="262.6963"/><rect fill="#FFFFFF" height="29.3105" style="stroke:#181818;stroke-width:1.0;" width="10" x="605" y="332.6621"/><rect fill="#FFFFFF" height="170.4844" style="stroke:#181818;stroke-width:1.0;" width="10" x="771" y="391.2832"/><rect fill="#FFFFFF" height="119.9316" style="stroke:#181818;stroke-width:1.0;" width="10" x="1217.5" y="591.0781"/><rect fill="#FFFFFF" height="30" style="stroke:#181818;stroke-width:1.0;" width="10" x="1453.5" y="644.6992"/><rect fill="none" height="76.6211" style="stroke:#000000;stroke-width:1.5;" width="482" x="1086.5" y="606.0781"/><line style="stroke:#181818;stroke-width:0.5;stroke-dasharray:5.0,5.0;" x1="34" x2="34" y1="81.4883" y2="802.9414"/><line style="stroke:#181818;stroke-width:0.5;stroke-dasharray:5.0,5.0;" x1="159" x2="159" y1="81.4883" y2="802.9414"/><line style="stroke:#181818;stroke-width:0.5;stroke-dasharray:5.0,5.0;" x1="323" x2="323" y1="81.4883" y2="802.9414"/><line style="stroke:#181818;stroke-width:0.5;stroke-dasharray:5.0,5.0;" x1="483" x2="483" y1="81.4883" y2="802.9414"/><line style="stroke:#181818;stroke-width:0.5;stroke-dasharray:5.0,5.0;" x1="610" x2="610" y1="81.4883" y2="802.9414"/><line style="stroke:#181818;stroke-width:0.5;stroke-dasharray:5.0,5.0;" x1="776" x2="776" y1="81.4883" y2="802.9414"/><line style="stroke:#181818;stroke-width:0.5;stroke-dasharray:5.0,5.0;" x1="1002.5" x2="1002.5" y1="81.4883" y2="802.9414"/><line style="stroke:#181818;stroke-width:0.5;stroke-dasharray:5.0,5.0;" x1="1222.5" x2="1222.5" y1="81.4883" y2="802.9414"/><line style="stroke:#181818;stroke-width:0.5;stroke-dasharray:5.0,5.0;" x1="1458.5" x2="1458.5" y1="81.4883" y2="802.9414"/><text fill="#000000" font-family="sans-serif" font-size="14" lengthAdjust="spacing" textLength="53" x="5" y="78.5352">Student</text><ellipse cx="34.5" cy="13.5" fill="#E2E2F0" rx="8" ry="8" style="stroke:#181818;stroke-width:0.5;"/><path d="M34.5,21.5 L34.5,48.5 M21.5,29.5 L47.5,29.5 M34.5,48.5 L21.5,63.5 M34.5,48.5 L47.5,63.5 " fill="none" style="stroke:#181818;stroke-width:0.5;"/><text fill="#000000" font-family="sans-serif" font-size="14" lengthAdjust="spacing" textLength="53" x="5" y="815.4766">Student</text><ellipse cx="34.5" cy="826.9297" fill="#E2E2F0" rx="8" ry="8" style="stroke:#181818;stroke-width:0.5;"/><path d="M34.5,834.9297 L34.5,861.9297 M21.5,842.9297 L47.5,842.9297 M34.5,861.9297 L21.5,876.9297 M34.5,861.9297 L47.5,876.9297 " fill="none" style="stroke:#181818;stroke-width:0.5;"/><rect fill="#E2E2F0" height="30.4883" rx="2.5" ry="2.5" style="stroke:#181818;stroke-width:0.5;" width="99" x="110" y="50"/><text fill="#000000" font-family="sans-serif" font-size="14" lengthAdjust="spacing" textLength="85" x="117" y="70.5352">ListGradesUI</text><rect fill="#E2E2F0" height="30.4883" rx="2.5" ry="2.5" style="stroke:#181818;stroke-width:0.5;" width="99" x="110" y="801.9414"/><text fill="#000000" font-family="sans-serif" font-size="14" lengthAdjust="spacing" textLength="85" x="117" y="822.4766">ListGradesUI</text><rect fill="#E2E2F0" height="30.4883" rx="2.5" ry="2.5" style="stroke:#181818;stroke-width:0.5;" width="208" x="219" y="50"/><text fill="#000000" font-family="sans-serif" font-size="14" lengthAdjust="spacing" textLength="194" x="226" y="70.5352">ListStudentGradesController</text><rect fill="#E2E2F0" height="30.4883" rx="2.5" ry="2.5" style="stroke:#181818;stroke-width:0.5;" width="208" x="219" y="801.9414"/><text fill="#000000" font-family="sans-serif" font-size="14" lengthAdjust="spacing" textLength="194" x="226" y="822.4766">ListStudentGradesController</text><rect fill="#E2E2F0" height="30.4883" rx="2.5" ry="2.5" style="stroke:#181818;stroke-width:0.5;" width="93" x="437" y="50"/><text fill="#000000" font-family="sans-serif" font-size="14" lengthAdjust="spacing" textLength="79" x="444" y="70.5352">SystemUser</text><rect fill="#E2E2F0" height="30.4883" rx="2.5" ry="2.5" style="stroke:#181818;stroke-width:0.5;" width="93" x="437" y="801.9414"/><text fill="#000000" font-family="sans-serif" font-size="14" lengthAdjust="spacing" textLength="79" x="444" y="822.4766">SystemUser</text><rect fill="#E2E2F0" height="30.4883" rx="2.5" ry="2.5" style="stroke:#181818;stroke-width:0.5;" width="140" x="540" y="50"/><text fill="#000000" font-family="sans-serif" font-size="14" lengthAdjust="spacing" textLength="126" x="547" y="70.5352">StudentRepository</text><rect fill="#E2E2F0" height="30.4883" rx="2.5" ry="2.5" style="stroke:#181818;stroke-width:0.5;" width="140" x="540" y="801.9414"/><text fill="#000000" font-family="sans-serif" font-size="14" lengthAdjust="spacing" textLength="126" x="547" y="822.4766">StudentRepository</text><rect fill="#E2E2F0" height="30.4883" rx="2.5" ry="2.5" style="stroke:#181818;stroke-width:0.5;" width="172" x="690" y="50"/><text fill="#000000" font-family="sans-serif" font-size="14" lengthAdjust="spacing" textLength="158" x="697" y="70.5352">ListExamResultsService</text><rect fill="#E2E2F0" height="30.4883" rx="2.5" ry="2.5" style="stroke:#181818;stroke-width:0.5;" width="172" x="690" y="801.9414"/><text fill="#000000" font-family="sans-serif" font-size="14" lengthAdjust="spacing" textLength="158" x="697" y="822.4766">ListExamResultsService</text><rect fill="#E2E2F0" height="30.4883" rx="2.5" ry="2.5" style="stroke:#181818;stroke-width:0.5;" width="167" x="919.5" y="50"/><text fill="#000000" font-family="sans-serif" font-size="14" lengthAdjust="spacing" textLength="153" x="926.5" y="70.5352">ExamResultRepository</text><rect fill="#E2E2F0" height="30.4883" rx="2.5" ry="2.5" style="stroke:#181818;stroke-width:0.5;" width="167" x="919.5" y="801.9414"/><text fill="#000000" font-family="sans-serif" font-size="14" lengthAdjust="spacing" textLength="153" x="926.5" y="822.4766">ExamResultRepository</text><rect fill="#E2E2F0" height="30.4883" rx="2.5" ry="2.5" style="stroke:#181818;stroke-width:0.5;" width="252" x="1096.5" y="50"/><text fill="#000000" font-family="sans-serif" font-size="14" lengthAdjust="spacing" textLength="238" x="1103.5" y="70.5352">ExamGradeAndCourseDTOMapper</text><rect fill="#E2E2F0" height="30.4883" rx="2.5" ry="2.5" style="stroke:#181818;stroke-width:0.5;" width="252" x="1096.5" y="801.9414"/><text fill="#000000" font-family="sans-serif" font-size="14" lengthAdjust="spacing" textLength="238" x="1103.5" y="822.4766">ExamGradeAndCourseDTOMapper</text><rect fill="#E2E2F0" height="30.4883" rx="2.5" ry="2.5" style="stroke:#181818;stroke-width:0.5;" width="200" x="1358.5" y="50"/><text fill="#000000" font-family="sans-serif" font-size="14" lengthAdjust="spacing" textLength="186" x="1365.5" y="70.5352">ExamGradeAndCourseDTO</text><rect fill="#E2E2F0" height="30.4883" rx="2.5" ry="2.5" style="stroke:#181818;stroke-width:0.5;" width="200" x="1358.5" y="801.9414"/><text fill="#000000" font-family="sans-serif" font-size="14" lengthAdjust="spacing" textLength="186" x="1365.5" y="822.4766">ExamGradeAndCourseDTO</text><rect fill="#FFFFFF" height="672.1426" style="stroke:#181818;stroke-width:1.0;" width="10" x="154.5" y="112.7988"/><rect fill="#FFFFFF" height="30" style="stroke:#181818;stroke-width:1.0;" width="10" x="318" y="152.7646"/><rect fill="#FFFFFF" height="517.5898" style="stroke:#181818;stroke-width:1.0;" width="10" x="318" y="222.7305"/><rect fill="#FFFFFF" height="30" style="stroke:#181818;stroke-width:1.0;" width="10" x="478.5" y="262.6963"/><rect fill="#FFFFFF" height="29.3105" style="stroke:#181818;stroke-width:1.0;" width="10" x="605" y="332.6621"/><rect fill="#FFFFFF" height="170.4844" style="stroke:#181818;stroke-width:1.0;" width="10" x="771" y="391.2832"/><rect fill="#FFFFFF" height="119.9316" style="stroke:#181818;stroke-width:1.0;" width="10" x="1217.5" y="591.0781"/><rect fill="#FFFFFF" height="30" style="stroke:#181818;stroke-width:1.0;" width="10" x="1453.5" y="644.6992"/><polygon fill="#181818" points="142.5,108.7988,152.5,112.7988,142.5,116.7988,146.5,112.7988" style="stroke:#181818;stroke-width:1.0;"/><line style="stroke:#181818;stroke-width:1.0;" x1="34.5" x2="148.5" y1="112.7988" y2="112.7988"/><text fill="#000000" font-family="sans-serif" font-size="13" lengthAdjust="spacing" textLength="32" x="41.5" y="108.0566">enter</text><polygon fill="#181818" points="306,148.7646,316,152.7646,306,156.7646,310,152.7646" style="stroke:#181818;stroke-width:1.0;"/><line style="stroke:#181818;stroke-width:1.0;stroke-dasharray:2.0,2.0;" x1="164.5" x2="312" y1="152.7646" y2="152.7646"/><text fill="#000000" font-family="sans-serif" font-size="13" lengthAdjust="spacing" textLength="46" x="171.5" y="148.0225">create()</text><path d="M333,125.7988 L333,165.7988 L562,165.7988 L562,135.7988 L552,125.7988 L333,125.7988 " fill="#FEFFDD" style="stroke:#181818;stroke-width:0.5;"/><path d="M552,125.7988 L552,135.7988 L562,135.7988 L552,125.7988 " fill="#FEFFDD" style="stroke:#181818;stroke-width:0.5;"/><text fill="#000000" font-family="sans-serif" font-size="13" lengthAdjust="spacing" textLength="179" x="339" y="143.3672">repositories are retrieved via</text><text fill="#000000" font-family="sans-serif" font-size="13" lengthAdjust="spacing" textLength="208" x="339" y="158.6777">PersistenceContext.repositories()</text><polygon fill="#181818" points="306,218.7305,316,222.7305,306,226.7305,310,222.7305" style="stroke:#181818;stroke-width:1.0;"/><line style="stroke:#181818;stroke-width:1.0;stroke-dasharray:2.0,2.0;" x1="164.5" x2="312" y1="222.7305" y2="222.7305"/><text fill="#000000" font-family="sans-serif" font-size="13" lengthAdjust="spacing" textLength="119" x="171.5" y="217.9883">listStudentGrades()</text><polygon fill="#181818" points="466.5,258.6963,476.5,262.6963,466.5,266.6963,470.5,262.6963" style="stroke:#181818;stroke-width:1.0;"/><line style="stroke:#181818;stroke-width:1.0;stroke-dasharray:2.0,2.0;" x1="328" x2="472.5" y1="262.6963" y2="262.6963"/><text fill="#000000" font-family="sans-serif" font-size="13" lengthAdjust="spacing" textLength="56" x="335" y="257.9541">getUser()</text><path d="M493,235.7305 L493,275.7305 L712,275.7305 L712,245.7305 L702,235.7305 L493,235.7305 " fill="#FEFFDD" style="stroke:#181818;stroke-width:0.5;"/><path d="M702,235.7305 L702,245.7305 L712,245.7305 L702,235.7305 " fill="#FEFFDD" style="stroke:#181818;stroke-width:0.5;"/><text fill="#000000" font-family="sans-serif" font-size="13" lengthAdjust="spacing" textLength="145" x="499" y="253.2988">sysUser is obtained via</text><text fill="#000000" font-family="sans-serif" font-size="13" lengthAdjust="spacing" textLength="198" x="499" y="268.6094">the framework's Authz package</text><polygon fill="#181818" points="593,328.6621,603,332.6621,593,336.6621,597,332.6621" style="stroke:#181818;stroke-width:1.0;"/><line style="stroke:#181818;stroke-width:1.0;stroke-dasharray:2.0,2.0;" x1="328" x2="599" y1="332.6621" y2="332.6621"/><text fill="#000000" font-family="sans-serif" font-size="13" lengthAdjust="spacing" textLength="169" x="335" y="327.9199">findBySystemUser(sysUser)</text><polygon fill="#181818" points="339,357.9727,329,361.9727,339,365.9727,335,361.9727" style="stroke:#181818;stroke-width:1.0;"/><line style="stroke:#181818;stroke-width:1.0;stroke-dasharray:2.0,2.0;" x1="333" x2="609" y1="361.9727" y2="361.9727"/><text fill="#000000" font-family="sans-serif" font-size="13" lengthAdjust="spacing" textLength="48" x="345" y="357.2305">student</text><polygon fill="#181818" points="759,387.2832,769,391.2832,759,395.2832,763,391.2832" style="stroke:#181818;stroke-width:1.0;"/><line style="stroke:#181818;stroke-width:1.0;stroke-dasharray:2.0,2.0;" x1="328" x2="765" y1="391.2832" y2="391.2832"/><text fill="#000000" font-family="sans-serif" font-size="13" lengthAdjust="spacing" textLength="346" x="335" y="386.541">regularExamResultsBasedOnGradingProperties(student)</text><polygon fill="#181818" points="991,416.5938,1001,420.5938,991,424.5938,995,420.5938" style="stroke:#181818;stroke-width:1.0;"/><line style="stroke:#181818;stroke-width:1.0;stroke-dasharray:2.0,2.0;" x1="781" x2="997" y1="420.5938" y2="420.5938"/><text fill="#000000" font-family="sans-serif" font-size="13" lengthAdjust="spacing" textLength="198" x="788" y="415.8516">examResultsByStudent(student)</text><polygon fill="#181818" points="792,487.1807,782,491.1807,792,495.1807,788,491.1807" style="stroke:#181818;stroke-width:1.0;"/><line style="stroke:#181818;stroke-width:1.0;stroke-dasharray:2.0,2.0;" x1="786" x2="1002" y1="491.1807" y2="491.1807"/><text fill="#000000" font-family="sans-serif" font-size="13" lengthAdjust="spacing" textLength="80" x="798" y="486.4385">examResults</text><path d="M422,433.5938 L422,534.5938 L766,534.5938 L766,443.5938 L756,433.5938 L422,433.5938 " fill="#FEFFDD" style="stroke:#181818;stroke-width:0.5;"/><path d="M756,433.5938 L756,443.5938 L766,443.5938 L756,433.5938 " fill="#FEFFDD" style="stroke:#181818;stroke-width:0.5;"/><text fill="#000000" font-family="sans-serif" font-size="13" lengthAdjust="spacing" textLength="263" x="428" y="451.1621">The service will apply the following filters</text><text fill="#000000" font-family="sans-serif" font-size="13" lengthAdjust="spacing" textLength="126" x="428" y="466.4727">to the exam results:</text><text fill="#000000" font-family="sans-serif" font-size="13" lengthAdjust="spacing" textLength="4" x="428" y="481.7832">&#160;</text><text fill="#000000" font-family="sans-serif" font-size="13" lengthAdjust="spacing" textLength="323" x="428" y="497.0938">1. Show results with the "on-submission" property.</text><text fill="#000000" font-family="sans-serif" font-size="13" lengthAdjust="spacing" textLength="318" x="428" y="512.4043">2. Include results with the "after-closing" property</text><text fill="#000000" font-family="sans-serif" font-size="13" lengthAdjust="spacing" textLength="241" x="428" y="527.7148">if the closing date has already passed.</text><polygon fill="#181818" points="339,557.7676,329,561.7676,339,565.7676,335,561.7676" style="stroke:#181818;stroke-width:1.0;"/><line style="stroke:#181818;stroke-width:1.0;stroke-dasharray:2.0,2.0;" x1="333" x2="775" y1="561.7676" y2="561.7676"/><text fill="#000000" font-family="sans-serif" font-size="13" lengthAdjust="spacing" textLength="80" x="345" y="557.0254">examResults</text><polygon fill="#181818" points="1205.5,587.0781,1215.5,591.0781,1205.5,595.0781,1209.5,591.0781" style="stroke:#181818;stroke-width:1.0;"/><line style="stroke:#181818;stroke-width:1.0;stroke-dasharray:2.0,2.0;" x1="328" x2="1211.5" y1="591.0781" y2="591.0781"/><text fill="#000000" font-family="sans-serif" font-size="13" lengthAdjust="spacing" textLength="129" x="335" y="586.3359">toDTO(examResults)</text><path d="M1086.5,606.0781 L1160.5,606.0781 L1160.5,613.3887 L1150.5,623.3887 L1086.5,623.3887 L1086.5,606.0781 " fill="#EEEEEE" style="stroke:#000000;stroke-width:1.5;"/><rect fill="none" height="76.6211" style="stroke:#000000;stroke-width:1.5;" width="482" x="1086.5" y="606.0781"/><text fill="#000000" font-family="sans-serif" font-size="13" font-weight="bold" lengthAdjust="spacing" textLength="29" x="1101.5" y="619.6465">loop</text><text fill="#000000" font-family="sans-serif" font-size="11" font-weight="bold" lengthAdjust="spacing" textLength="157" x="1175.5" y="618.7129">[for each course in courses]</text><polygon fill="#181818" points="1441.5,640.6992,1451.5,644.6992,1441.5,648.6992,1445.5,644.6992" style="stroke:#181818;stroke-width:1.0;"/><line style="stroke:#181818;stroke-width:1.0;stroke-dasharray:2.0,2.0;" x1="1227.5" x2="1447.5" y1="644.6992" y2="644.6992"/><text fill="#000000" font-family="sans-serif" font-size="13" lengthAdjust="spacing" textLength="46" x="1234.5" y="639.957">create()</text><polygon fill="#181818" points="339,707.0098,329,711.0098,339,715.0098,335,711.0098" style="stroke:#181818;stroke-width:1.0;"/><line style="stroke:#181818;stroke-width:1.0;stroke-dasharray:2.0,2.0;" x1="333" x2="1221.5" y1="711.0098" y2="711.0098"/><text fill="#000000" font-family="sans-serif" font-size="13" lengthAdjust="spacing" textLength="93" x="345" y="706.2676">gradesDTOList</text><polygon fill="#181818" points="175.5,736.3203,165.5,740.3203,175.5,744.3203,171.5,740.3203" style="stroke:#181818;stroke-width:1.0;"/><line style="stroke:#181818;stroke-width:1.0;stroke-dasharray:2.0,2.0;" x1="169.5" x2="322" y1="740.3203" y2="740.3203"/><text fill="#000000" font-family="sans-serif" font-size="13" lengthAdjust="spacing" textLength="93" x="181.5" y="735.5781">gradesDTOList</text><polygon fill="#181818" points="45.5,780.9414,35.5,784.9414,45.5,788.9414,41.5,784.9414" style="stroke:#181818;stroke-width:1.0;"/><line style="stroke:#181818;stroke-width:1.0;stroke-dasharray:2.0,2.0;" x1="39.5" x2="158.5" y1="784.9414" y2="784.9414"/><text fill="#000000" font-family="sans-serif" font-size="13" lengthAdjust="spacing" textLength="92" x="51.5" y="764.8887">show available</text><text fill="#000000" font-family="sans-serif" font-size="13" lengthAdjust="spacing" textLength="42" x="51.5" y="780.1992">grades</text><!--SRC=[XLHDRzim3BtdLn2zh3iam7RCOK3R3KE13IsQzXQWK6J65YfBXYWxzNxzA5b9vDZhT4hCnw_tI0hfhOEDRmiq7WH1I-WMZN1UITK8_lPBaV_fH87qSXy1Qc9ExWFgpXhlhDRe0bfwfnSZXqrF7kiN6kpKqsjBxW8on7l2nfBY-lg8V7NyVvBxnxkedv1QxMc3hbCI8xYJ8-GPDGwAGz09DhPoOuexsph2xyyFlqNJ31NNyTV_FGAsy1mxC0hBRqmSh87ROcSXlUg4nq0cy6FJaX61BCP8Xsox_XnD9sXa4j8pbhyuLLQUyUxOaa82uTY0ddztM42dnDOyeYDc2et480w- -rNkaX8LE4urKvY-rFh36gDJy4uQSu0IVH0-kOrSZuC0sHjroO0uD8h0xhnGvjYUhn3sJjHuiExj4y5Dwwi_q0Zv9aeynSlQEytSjD8u3fnihqnnsvz7zJfbdojy6A6yxXGcOuu6rcQhIICuBQQJKToorS9bOtuh28i74nHGfdnqbiVH1nrJahaQUHr61NBea0AF_M8MlayIJ-E5X-VUXW8prwbuE-kzhTVmp1fHMi-3qXfuYNGFKJg-5VR0dJ3fcfU3W2MrqHH2Cm4nzdfhjkRB2ZQLFHo_SIXVHUILDKjgTxKYKjPSGJEmqg-svkiAxetKtCgCczXpngNKl0ocFBjn2MeV4Sa4HQ2nufKMchUpw7c-Y6LOpTAQH9zZ9XUUHPcgFfoNDNZBD-Gw2p4ZQpf5UGdQseOfTS1vAf3n684owTTOeV26434p7wkBsvE_Kz9mqowDMLUNPZH5B6hnZwoXSJuCyPnmn-6apv6LMfto5Q_grFsZQnOFCkzac2JH2QN5JYDBFaHPPAvydly2]--></g></svg>