<?xml version="1.0" encoding="us-ascii" standalone="no"?><svg xmlns="http://www.w3.org/2000/svg" xmlns:xlink="http://www.w3.org/1999/xlink" contentStyleType="text/css" height="946px" preserveAspectRatio="none" style="width:1495px;height:946px;background:#1B1B1B;" version="1.1" viewBox="0 0 1495 946" width="1495px" zoomAndPan="magnify"><defs/><g><rect fill="#1B1B1B" height="946" style="stroke:none;stroke-width:1.0;" width="1495" x="0" y="0"/><rect fill="#000000" height="727.2384" style="stroke:#E7E7E7;stroke-width:1.0;" width="10" x="148.5" y="117.7739"/><rect fill="#000000" height="30" style="stroke:#E7E7E7;stroke-width:1.0;" width="10" x="311" y="161.333"/><rect fill="#000000" height="560.7083" style="stroke:#E7E7E7;stroke-width:1.0;" width="10" x="311" y="234.892"/><rect fill="#000000" height="117.118" style="stroke:#E7E7E7;stroke-width:1.0;" width="10" x="480" y="266.598"/><rect fill="#000000" height="30" style="stroke:#E7E7E7;stroke-width:1.0;" width="10" x="580" y="310.157"/><rect fill="#000000" height="189.6481" style="stroke:#E7E7E7;stroke-width:1.0;" width="10" x="708.5" y="415.4221"/><rect fill="#000000" height="78.9711" style="stroke:#E7E7E7;stroke-width:1.0;" width="10" x="931.5" y="447.1281"/><rect fill="#000000" height="127.118" style="stroke:#E7E7E7;stroke-width:1.0;" width="10" x="1146.5" y="636.7762"/><rect fill="#000000" height="30" style="stroke:#E7E7E7;stroke-width:1.0;" width="10" x="1377" y="695.1882"/><rect fill="none" height="81.412" style="stroke:#FFFFFF;stroke-width:1.5;" width="471" x="1018" y="651.7762"/><line style="stroke:#E7E7E7;stroke-width:0.5;stroke-dasharray:5.0,5.0;" x1="34" x2="34" y1="84.0679" y2="863.0123"/><line style="stroke:#E7E7E7;stroke-width:0.5;stroke-dasharray:5.0,5.0;" x1="153.5" x2="153.5" y1="84.0679" y2="863.0123"/><line style="stroke:#E7E7E7;stroke-width:0.5;stroke-dasharray:5.0,5.0;" x1="315.5" x2="315.5" y1="84.0679" y2="863.0123"/><line style="stroke:#E7E7E7;stroke-width:0.5;stroke-dasharray:5.0,5.0;" x1="484.5" x2="484.5" y1="84.0679" y2="863.0123"/><line style="stroke:#E7E7E7;stroke-width:0.5;stroke-dasharray:5.0,5.0;" x1="584.5" x2="584.5" y1="84.0679" y2="863.0123"/><line style="stroke:#E7E7E7;stroke-width:0.5;stroke-dasharray:5.0,5.0;" x1="713.5" x2="713.5" y1="84.0679" y2="863.0123"/><line style="stroke:#E7E7E7;stroke-width:0.5;stroke-dasharray:5.0,5.0;" x1="936" x2="936" y1="84.0679" y2="863.0123"/><line style="stroke:#E7E7E7;stroke-width:0.5;stroke-dasharray:5.0,5.0;" x1="1151" x2="1151" y1="84.0679" y2="863.0123"/><line style="stroke:#E7E7E7;stroke-width:0.5;stroke-dasharray:5.0,5.0;" x1="1382" x2="1382" y1="84.0679" y2="863.0123"/><text fill="#FFFFFF" font-family="sans-serif" font-size="14" lengthAdjust="spacing" textLength="53" x="5" y="79.9659">Student</text><ellipse cx="34.5" cy="13.5" fill="#222222" rx="8" ry="8" style="stroke:#E7E7E7;stroke-width:0.5;"/><path d="M34.5,21.5 L34.5,48.5 M21.5,29.5 L47.5,29.5 M34.5,48.5 L21.5,63.5 M34.5,48.5 L47.5,63.5 " fill="none" style="stroke:#E7E7E7;stroke-width:0.5;"/><text fill="#FFFFFF" font-family="sans-serif" font-size="14" lengthAdjust="spacing" textLength="53" x="5" y="876.9782">Student</text><ellipse cx="34.5" cy="889.5802" fill="#222222" rx="8" ry="8" style="stroke:#E7E7E7;stroke-width:0.5;"/><path d="M34.5,897.5802 L34.5,924.5802 M21.5,905.5802 L47.5,905.5802 M34.5,924.5802 L21.5,939.5802 M34.5,924.5802 L47.5,939.5802 " fill="none" style="stroke:#E7E7E7;stroke-width:0.5;"/><rect fill="#222222" height="33.0679" rx="2.5" ry="2.5" style="stroke:#E7E7E7;stroke-width:0.5;" width="100" x="103.5" y="50"/><text fill="#FFFFFF" font-family="sans-serif" font-size="14" lengthAdjust="spacing" textLength="86" x="110.5" y="71.9659">ListGradesUI</text><rect fill="#222222" height="33.0679" rx="2.5" ry="2.5" style="stroke:#E7E7E7;stroke-width:0.5;" width="100" x="103.5" y="862.0123"/><text fill="#FFFFFF" font-family="sans-serif" font-size="14" lengthAdjust="spacing" textLength="86" x="110.5" y="883.9782">ListGradesUI</text><rect fill="#222222" height="33.0679" rx="2.5" ry="2.5" style="stroke:#E7E7E7;stroke-width:0.5;" width="205" x="213.5" y="50"/><text fill="#FFFFFF" font-family="sans-serif" font-size="14" lengthAdjust="spacing" textLength="191" x="220.5" y="71.9659">ListStudentGradesController</text><rect fill="#222222" height="33.0679" rx="2.5" ry="2.5" style="stroke:#E7E7E7;stroke-width:0.5;" width="205" x="213.5" y="862.0123"/><text fill="#FFFFFF" font-family="sans-serif" font-size="14" lengthAdjust="spacing" textLength="191" x="220.5" y="883.9782">ListStudentGradesController</text><rect fill="#222222" height="33.0679" rx="2.5" ry="2.5" style="stroke:#E7E7E7;stroke-width:0.5;" width="113" x="428.5" y="50"/><text fill="#FFFFFF" font-family="sans-serif" font-size="14" lengthAdjust="spacing" textLength="99" x="435.5" y="71.9659">MyUserService</text><rect fill="#222222" height="33.0679" rx="2.5" ry="2.5" style="stroke:#E7E7E7;stroke-width:0.5;" width="113" x="428.5" y="862.0123"/><text fill="#FFFFFF" font-family="sans-serif" font-size="14" lengthAdjust="spacing" textLength="99" x="435.5" y="883.9782">MyUserService</text><rect fill="#222222" height="33.0679" rx="2.5" ry="2.5" style="stroke:#E7E7E7;stroke-width:0.5;" width="67" x="551.5" y="50"/><text fill="#FFFFFF" font-family="sans-serif" font-size="14" lengthAdjust="spacing" textLength="53" x="558.5" y="71.9659">Student</text><rect fill="#222222" height="33.0679" rx="2.5" ry="2.5" style="stroke:#E7E7E7;stroke-width:0.5;" width="67" x="551.5" y="862.0123"/><text fill="#FFFFFF" font-family="sans-serif" font-size="14" lengthAdjust="spacing" textLength="53" x="558.5" y="883.9782">Student</text><rect fill="#222222" height="33.0679" rx="2.5" ry="2.5" style="stroke:#E7E7E7;stroke-width:0.5;" width="170" x="628.5" y="50"/><text fill="#FFFFFF" font-family="sans-serif" font-size="14" lengthAdjust="spacing" textLength="156" x="635.5" y="71.9659">ListExamResultsService</text><rect fill="#222222" height="33.0679" rx="2.5" ry="2.5" style="stroke:#E7E7E7;stroke-width:0.5;" width="170" x="628.5" y="862.0123"/><text fill="#FFFFFF" font-family="sans-serif" font-size="14" lengthAdjust="spacing" textLength="156" x="635.5" y="883.9782">ListExamResultsService</text><rect fill="#222222" height="33.0679" rx="2.5" ry="2.5" style="stroke:#E7E7E7;stroke-width:0.5;" width="163" x="855" y="50"/><text fill="#FFFFFF" font-family="sans-serif" font-size="14" lengthAdjust="spacing" textLength="149" x="862" y="71.9659">ExamResultRepository</text><rect fill="#222222" height="33.0679" rx="2.5" ry="2.5" style="stroke:#E7E7E7;stroke-width:0.5;" width="163" x="855" y="862.0123"/><text fill="#FFFFFF" font-family="sans-serif" font-size="14" lengthAdjust="spacing" textLength="149" x="862" y="883.9782">ExamResultRepository</text><rect fill="#222222" height="33.0679" rx="2.5" ry="2.5" style="stroke:#E7E7E7;stroke-width:0.5;" width="247" x="1028" y="50"/><text fill="#FFFFFF" font-family="sans-serif" font-size="14" lengthAdjust="spacing" textLength="233" x="1035" y="71.9659">ExamGradeAndCourseDTOMapper</text><rect fill="#222222" height="33.0679" rx="2.5" ry="2.5" style="stroke:#E7E7E7;stroke-width:0.5;" width="247" x="1028" y="862.0123"/><text fill="#FFFFFF" font-family="sans-serif" font-size="14" lengthAdjust="spacing" textLength="233" x="1035" y="883.9782">ExamGradeAndCourseDTOMapper</text><rect fill="#222222" height="33.0679" rx="2.5" ry="2.5" style="stroke:#E7E7E7;stroke-width:0.5;" width="194" x="1285" y="50"/><text fill="#FFFFFF" font-family="sans-serif" font-size="14" lengthAdjust="spacing" textLength="180" x="1292" y="71.9659">ExamGradeAndCourseDTO</text><rect fill="#222222" height="33.0679" rx="2.5" ry="2.5" style="stroke:#E7E7E7;stroke-width:0.5;" width="194" x="1285" y="862.0123"/><text fill="#FFFFFF" font-family="sans-serif" font-size="14" lengthAdjust="spacing" textLength="180" x="1292" y="883.9782">ExamGradeAndCourseDTO</text><rect fill="#000000" height="727.2384" style="stroke:#E7E7E7;stroke-width:1.0;" width="10" x="148.5" y="117.7739"/><rect fill="#000000" height="30" style="stroke:#E7E7E7;stroke-width:1.0;" width="10" x="311" y="161.333"/><rect fill="#000000" height="560.7083" style="stroke:#E7E7E7;stroke-width:1.0;" width="10" x="311" y="234.892"/><rect fill="#000000" height="117.118" style="stroke:#E7E7E7;stroke-width:1.0;" width="10" x="480" y="266.598"/><rect fill="#000000" height="30" style="stroke:#E7E7E7;stroke-width:1.0;" width="10" x="580" y="310.157"/><rect fill="#000000" height="189.6481" style="stroke:#E7E7E7;stroke-width:1.0;" width="10" x="708.5" y="415.4221"/><rect fill="#000000" height="78.9711" style="stroke:#E7E7E7;stroke-width:1.0;" width="10" x="931.5" y="447.1281"/><rect fill="#000000" height="127.118" style="stroke:#E7E7E7;stroke-width:1.0;" width="10" x="1146.5" y="636.7762"/><rect fill="#000000" height="30" style="stroke:#E7E7E7;stroke-width:1.0;" width="10" x="1377" y="695.1882"/><polygon fill="#E7E7E7" points="136.5,113.7739,146.5,117.7739,136.5,121.7739,140.5,117.7739" style="stroke:#E7E7E7;stroke-width:1.0;"/><line style="stroke:#E7E7E7;stroke-width:1.0;" x1="34.5" x2="142.5" y1="117.7739" y2="117.7739"/><text fill="#FFFFFF" font-family="sans-serif" font-size="13" lengthAdjust="spacing" textLength="32" x="41.5" y="111.9649">enter</text><polygon fill="#E7E7E7" points="299,157.333,309,161.333,299,165.333,303,161.333" style="stroke:#E7E7E7;stroke-width:1.0;"/><line style="stroke:#E7E7E7;stroke-width:1.0;stroke-dasharray:2.0,2.0;" x1="158.5" x2="305" y1="161.333" y2="161.333"/><text fill="#FFFFFF" font-family="sans-serif" font-size="13" lengthAdjust="spacing" textLength="45" x="165.5" y="155.524">create()</text><path d="M326,130.7739 L326,175.7739 L545,175.7739 L545,140.7739 L535,130.7739 L326,130.7739 " fill="#714137" style="stroke:#E7E7E7;stroke-width:0.5;"/><path d="M535,130.7739 L535,140.7739 L545,140.7739 L535,130.7739 " fill="#714137" style="stroke:#E7E7E7;stroke-width:0.5;"/><text fill="#FFFFFF" font-family="sans-serif" font-size="13" lengthAdjust="spacing" textLength="170" x="332" y="149.6709">repositories are retrieved via</text><text fill="#FFFFFF" font-family="sans-serif" font-size="13" lengthAdjust="spacing" textLength="198" x="332" y="167.377">PersistenceContext.repositories()</text><polygon fill="#E7E7E7" points="299,230.892,309,234.892,299,238.892,303,234.892" style="stroke:#E7E7E7;stroke-width:1.0;"/><line style="stroke:#E7E7E7;stroke-width:1.0;stroke-dasharray:2.0,2.0;" x1="158.5" x2="305" y1="234.892" y2="234.892"/><text fill="#FFFFFF" font-family="sans-serif" font-size="13" lengthAdjust="spacing" textLength="115" x="165.5" y="229.083">listStudentGrades()</text><polygon fill="#E7E7E7" points="468,262.598,478,266.598,468,270.598,472,266.598" style="stroke:#E7E7E7;stroke-width:1.0;"/><line style="stroke:#E7E7E7;stroke-width:1.0;stroke-dasharray:2.0,2.0;" x1="321" x2="474" y1="266.598" y2="266.598"/><text fill="#FFFFFF" font-family="sans-serif" font-size="13" lengthAdjust="spacing" textLength="100" x="328" y="260.789">currentStudent()</text><polygon fill="#E7E7E7" points="568,306.157,578,310.157,568,314.157,572,310.157" style="stroke:#E7E7E7;stroke-width:1.0;"/><line style="stroke:#E7E7E7;stroke-width:1.0;stroke-dasharray:2.0,2.0;" x1="490" x2="574" y1="310.157" y2="310.157"/><text fill="#FFFFFF" font-family="sans-serif" font-size="13" lengthAdjust="spacing" textLength="28" x="497" y="304.348">get()</text><path d="M595,279.598 L595,324.598 L840,324.598 L840,289.598 L830,279.598 L595,279.598 " fill="#714137" style="stroke:#E7E7E7;stroke-width:0.5;"/><path d="M830,279.598 L830,289.598 L840,289.598 L830,279.598 " fill="#714137" style="stroke:#E7E7E7;stroke-width:0.5;"/><text fill="#FFFFFF" font-family="sans-serif" font-size="13" lengthAdjust="spacing" textLength="224" x="601" y="298.495">student obtained via the framework's</text><text fill="#FFFFFF" font-family="sans-serif" font-size="13" lengthAdjust="spacing" textLength="214" x="601" y="316.201">Authz package + StudentRepository</text><polygon fill="#E7E7E7" points="332,379.716,322,383.716,332,387.716,328,383.716" style="stroke:#E7E7E7;stroke-width:1.0;"/><line style="stroke:#E7E7E7;stroke-width:1.0;stroke-dasharray:2.0,2.0;" x1="326" x2="484" y1="383.716" y2="383.716"/><text fill="#FFFFFF" font-family="sans-serif" font-size="13" lengthAdjust="spacing" textLength="47" x="338" y="377.907">student</text><polygon fill="#E7E7E7" points="696.5,411.4221,706.5,415.4221,696.5,419.4221,700.5,415.4221" style="stroke:#E7E7E7;stroke-width:1.0;"/><line style="stroke:#E7E7E7;stroke-width:1.0;stroke-dasharray:2.0,2.0;" x1="321" x2="702.5" y1="415.4221" y2="415.4221"/><text fill="#FFFFFF" font-family="sans-serif" font-size="13" lengthAdjust="spacing" textLength="338" x="328" y="409.6131">regularExamResultsBasedOnGradingProperties(student)</text><polygon fill="#E7E7E7" points="919.5,443.1281,929.5,447.1281,919.5,451.1281,923.5,447.1281" style="stroke:#E7E7E7;stroke-width:1.0;"/><line style="stroke:#E7E7E7;stroke-width:1.0;stroke-dasharray:2.0,2.0;" x1="718.5" x2="925.5" y1="447.1281" y2="447.1281"/><text fill="#FFFFFF" font-family="sans-serif" font-size="13" lengthAdjust="spacing" textLength="194" x="725.5" y="441.3191">examResultsByStudent(student)</text><polygon fill="#E7E7E7" points="729.5,522.0991,719.5,526.0991,729.5,530.0991,725.5,526.0991" style="stroke:#E7E7E7;stroke-width:1.0;"/><line style="stroke:#E7E7E7;stroke-width:1.0;stroke-dasharray:2.0,2.0;" x1="723.5" x2="935.5" y1="526.0991" y2="526.0991"/><text fill="#FFFFFF" font-family="sans-serif" font-size="13" lengthAdjust="spacing" textLength="76" x="735.5" y="520.2901">examResults</text><path d="M370,460.1281 L370,576.1281 L703,576.1281 L703,470.1281 L693,460.1281 L370,460.1281 " fill="#714137" style="stroke:#E7E7E7;stroke-width:0.5;"/><path d="M693,460.1281 L693,470.1281 L703,470.1281 L693,460.1281 " fill="#714137" style="stroke:#E7E7E7;stroke-width:0.5;"/><text fill="#FFFFFF" font-family="sans-serif" font-size="13" lengthAdjust="spacing" textLength="241" x="376" y="479.0251">The service will apply the following filters</text><text fill="#FFFFFF" font-family="sans-serif" font-size="13" lengthAdjust="spacing" textLength="118" x="376" y="496.7311">to the exam results:</text><text fill="#FFFFFF" font-family="sans-serif" font-size="13" lengthAdjust="spacing" textLength="3" x="376" y="514.4371">&#160;</text><text fill="#FFFFFF" font-family="sans-serif" font-size="13" lengthAdjust="spacing" textLength="312" x="376" y="532.1431">1. Include results with the "on-submission" property.</text><text fill="#FFFFFF" font-family="sans-serif" font-size="13" lengthAdjust="spacing" textLength="295" x="376" y="549.8492">2. Include results with the "after-closing" property</text><text fill="#FFFFFF" font-family="sans-serif" font-size="13" lengthAdjust="spacing" textLength="224" x="376" y="567.5552">if the closing date has already passed.</text><polygon fill="#E7E7E7" points="332,601.0702,322,605.0702,332,609.0702,328,605.0702" style="stroke:#E7E7E7;stroke-width:1.0;"/><line style="stroke:#E7E7E7;stroke-width:1.0;stroke-dasharray:2.0,2.0;" x1="326" x2="712.5" y1="605.0702" y2="605.0702"/><text fill="#FFFFFF" font-family="sans-serif" font-size="13" lengthAdjust="spacing" textLength="76" x="338" y="599.2612">examResults</text><polygon fill="#E7E7E7" points="1134.5,632.7762,1144.5,636.7762,1134.5,640.7762,1138.5,636.7762" style="stroke:#E7E7E7;stroke-width:1.0;"/><line style="stroke:#E7E7E7;stroke-width:1.0;stroke-dasharray:2.0,2.0;" x1="321" x2="1140.5" y1="636.7762" y2="636.7762"/><text fill="#FFFFFF" font-family="sans-serif" font-size="13" lengthAdjust="spacing" textLength="123" x="328" y="630.9672">toDTO(examResults)</text><path d="M1018,651.7762 L1091,651.7762 L1091,661.4822 L1081,671.4822 L1018,671.4822 L1018,651.7762 " fill="#555555" style="stroke:#FFFFFF;stroke-width:1.5;"/><rect fill="none" height="81.412" style="stroke:#FFFFFF;stroke-width:1.5;" width="471" x="1018" y="651.7762"/><text fill="#FFFFFF" font-family="sans-serif" font-size="13" font-weight="bold" lengthAdjust="spacing" textLength="28" x="1033" y="666.6732">loop</text><text fill="#FFFFFF" font-family="sans-serif" font-size="11" font-weight="bold" lengthAdjust="spacing" textLength="152" x="1106" y="665.5351">[for each course in courses]</text><polygon fill="#E7E7E7" points="1365,691.1882,1375,695.1882,1365,699.1882,1369,695.1882" style="stroke:#E7E7E7;stroke-width:1.0;"/><line style="stroke:#E7E7E7;stroke-width:1.0;stroke-dasharray:2.0,2.0;" x1="1156.5" x2="1371" y1="695.1882" y2="695.1882"/><text fill="#FFFFFF" font-family="sans-serif" font-size="13" lengthAdjust="spacing" textLength="45" x="1163.5" y="689.3792">create()</text><polygon fill="#E7E7E7" points="332,759.8943,322,763.8943,332,767.8943,328,763.8943" style="stroke:#E7E7E7;stroke-width:1.0;"/><line style="stroke:#E7E7E7;stroke-width:1.0;stroke-dasharray:2.0,2.0;" x1="326" x2="1150.5" y1="763.8943" y2="763.8943"/><text fill="#FFFFFF" font-family="sans-serif" font-size="13" lengthAdjust="spacing" textLength="88" x="338" y="758.0853">gradesDTOList</text><polygon fill="#E7E7E7" points="169.5,791.6003,159.5,795.6003,169.5,799.6003,165.5,795.6003" style="stroke:#E7E7E7;stroke-width:1.0;"/><line style="stroke:#E7E7E7;stroke-width:1.0;stroke-dasharray:2.0,2.0;" x1="163.5" x2="315" y1="795.6003" y2="795.6003"/><text fill="#FFFFFF" font-family="sans-serif" font-size="13" lengthAdjust="spacing" textLength="88" x="175.5" y="789.7913">gradesDTOList</text><polygon fill="#E7E7E7" points="45.5,841.0123,35.5,845.0123,45.5,849.0123,41.5,845.0123" style="stroke:#E7E7E7;stroke-width:1.0;"/><line style="stroke:#E7E7E7;stroke-width:1.0;stroke-dasharray:2.0,2.0;" x1="39.5" x2="152.5" y1="845.0123" y2="845.0123"/><text fill="#FFFFFF" font-family="sans-serif" font-size="13" lengthAdjust="spacing" textLength="87" x="51.5" y="821.4973">show available</text><text fill="#FFFFFF" font-family="sans-serif" font-size="13" lengthAdjust="spacing" textLength="41" x="51.5" y="839.2033">grades</text><!--SRC=[XLLBRzim3BxxLn2zhCEG0DinXm5TDmm5LhJeusQWK6J65gf8XYGxzNxzA5bEv4SodnoJ_CZluoECEstWsJK5AWVCGcFHP3KpJd1HC_hsHrZtsx02xUjTS10pSmpllMwrSaPBYSPxSsTaDWguxrufnJEQLd0SChxPbe-yaefi_vhDqlxwOFidj8rqDe6R8fsydh3MLX3VpllXcw7VsSmtiBXHnQrkZCMVBm_thAvxCllmzly8xriumlRKOFMTD8CD40SAPjo9bZdqEW8zP5gHXzU9VBX1ibr_3gQZQn0HugCqVJ6Yh1pvcu6IG0lCa04TlRTOG2jOhXxHM58A5KVV5_nmwpGa9Yfmd6gXC3bjyyKQGv2F7dhhgJN6K7G4YU4ZYECWGF8S4JnS70L2Ap656C4Cyv8Q4uPBvf6cGnAzTKoeNabm5SBEi3qUj7d_P7DrqxZgBzIClxCIuSimiASPEyyYIZej9AdngCHSqLvCWsKZcKasu0UpM3metnoXoaUZQLATRt5Ciw3tLEgXldup_CGcyDtGk1dU23Dk5KoU27aYa42VQzImeBD6RRLpUh-15-g9ZOj_4582hQVi-bRH0T874W9sGjBQMSYLqy7aCvD-8VKcLxdwkeOxnIMn6ZuJcgk2yvLMAzjizy9QeTKLrBsktJfNtow5iHqbNN59iw3AKnXL8NR18vgWy4mhkXTCqkeN7KsKfKQk5niJ1sT9ktJ05-UclrqRS9eEr7K2iJ0OySwb9KYjQrBL0EMfW8TB1qB5DpjhU0yHCjCbd1osnSdn1tDgJ5XDpQYAK5Hs9gidJcSYt2fYxFylbiIAL1Skbp_Py_1Bfp9SUzhhIX-0jKn8jfL8BUzHidI_HVOF]--></g></svg>