<?xml version="1.0" encoding="us-ascii" standalone="no"?><svg xmlns="http://www.w3.org/2000/svg" xmlns:xlink="http://www.w3.org/1999/xlink" contentStyleType="text/css" height="1262px" preserveAspectRatio="none" style="width:1576px;height:1262px;background:#FFFFFF;" version="1.1" viewBox="0 0 1576 1262" width="1576px" zoomAndPan="magnify"><defs/><g><!--class Runnable--><g id="elem_Runnable"><rect codeLine="54" fill="#F1F1F1" height="53.9414" id="Runnable" rx="2.5" ry="2.5" style="stroke:#181818;stroke-width:0.5;" width="114" x="874.5" y="1190.5"/><ellipse cx="889.5" cy="1209.4707" fill="#B4A7E5" rx="11" ry="11" style="stroke:#181818;stroke-width:1.0;"/><path d="M890.4531,1206.1113 L890.4531,1212.7676 L892.1719,1212.7676 Q892.7813,1212.7676 893.0469,1213.002 Q893.3125,1213.2363 893.3125,1213.627 Q893.3125,1214.002 893.0469,1214.2363 Q892.7813,1214.4707 892.1719,1214.4707 L887.0313,1214.4707 Q886.4219,1214.4707 886.1563,1214.2363 Q885.8906,1214.002 885.8906,1213.6113 Q885.8906,1213.2363 886.1563,1213.002 Q886.4219,1212.7676 887.0313,1212.7676 L888.75,1212.7676 L888.75,1206.1113 L887.0313,1206.1113 Q886.4219,1206.1113 886.1563,1205.877 Q885.8906,1205.6426 885.8906,1205.252 Q885.8906,1204.877 886.1563,1204.6426 Q886.4219,1204.4082 887.0313,1204.4082 L892.1719,1204.4082 Q892.7813,1204.4082 893.0469,1204.6426 Q893.3125,1204.877 893.3125,1205.252 Q893.3125,1205.6426 893.0469,1205.877 Q892.7813,1206.1113 892.1719,1206.1113 L890.4531,1206.1113 Z " fill="#000000"/><text fill="#000000" font-family="sans-serif" font-size="18" font-style="italic" lengthAdjust="spacing" textLength="78" x="905.5" y="1216.9238">Runnable</text><line style="stroke:#181818;stroke-width:0.5;" x1="875.5" x2="987.5" y1="1228.4414" y2="1228.4414"/><line style="stroke:#181818;stroke-width:0.5;" x1="875.5" x2="987.5" y1="1236.4414" y2="1236.4414"/></g><!--class MessageProtocol--><g id="elem_MessageProtocol"><rect codeLine="55" fill="#F1F1F1" height="53.9414" id="MessageProtocol" rx="2.5" ry="2.5" style="stroke:#181818;stroke-width:0.5;" width="177" x="1108" y="1190.5"/><ellipse cx="1123" cy="1209.4707" fill="#B4A7E5" rx="11" ry="11" style="stroke:#181818;stroke-width:1.0;"/><path d="M1123.9531,1206.1113 L1123.9531,1212.7676 L1125.6719,1212.7676 Q1126.2813,1212.7676 1126.5469,1213.002 Q1126.8125,1213.2363 1126.8125,1213.627 Q1126.8125,1214.002 1126.5469,1214.2363 Q1126.2813,1214.4707 1125.6719,1214.4707 L1120.5313,1214.4707 Q1119.9219,1214.4707 1119.6563,1214.2363 Q1119.3906,1214.002 1119.3906,1213.6113 Q1119.3906,1213.2363 1119.6563,1213.002 Q1119.9219,1212.7676 1120.5313,1212.7676 L1122.25,1212.7676 L1122.25,1206.1113 L1120.5313,1206.1113 Q1119.9219,1206.1113 1119.6563,1205.877 Q1119.3906,1205.6426 1119.3906,1205.252 Q1119.3906,1204.877 1119.6563,1204.6426 Q1119.9219,1204.4082 1120.5313,1204.4082 L1125.6719,1204.4082 Q1126.2813,1204.4082 1126.5469,1204.6426 Q1126.8125,1204.877 1126.8125,1205.252 Q1126.8125,1205.6426 1126.5469,1205.877 Q1126.2813,1206.1113 1125.6719,1206.1113 L1123.9531,1206.1113 Z " fill="#000000"/><text fill="#000000" font-family="sans-serif" font-size="18" font-style="italic" lengthAdjust="spacing" textLength="141" x="1139" y="1216.9238">MessageProtocol</text><line style="stroke:#181818;stroke-width:0.5;" x1="1109" x2="1284" y1="1228.4414" y2="1228.4414"/><line style="stroke:#181818;stroke-width:0.5;" x1="1109" x2="1284" y1="1236.4414" y2="1236.4414"/></g><!--class BoardRepository--><g id="elem_BoardRepository"><rect codeLine="12" fill="#F1F1F1" height="76.5625" id="BoardRepository" rx="2.5" ry="2.5" style="stroke:#181818;stroke-width:0.5;" width="297" x="215" y="1179"/><ellipse cx="289.75" cy="1197.9707" fill="#B4A7E5" rx="11" ry="11" style="stroke:#181818;stroke-width:1.0;"/><path d="M290.7031,1194.6113 L290.7031,1201.2676 L292.4219,1201.2676 Q293.0313,1201.2676 293.2969,1201.502 Q293.5625,1201.7363 293.5625,1202.127 Q293.5625,1202.502 293.2969,1202.7363 Q293.0313,1202.9707 292.4219,1202.9707 L287.2813,1202.9707 Q286.6719,1202.9707 286.4063,1202.7363 Q286.1406,1202.502 286.1406,1202.1113 Q286.1406,1201.7363 286.4063,1201.502 Q286.6719,1201.2676 287.2813,1201.2676 L289,1201.2676 L289,1194.6113 L287.2813,1194.6113 Q286.6719,1194.6113 286.4063,1194.377 Q286.1406,1194.1426 286.1406,1193.752 Q286.1406,1193.377 286.4063,1193.1426 Q286.6719,1192.9082 287.2813,1192.9082 L292.4219,1192.9082 Q293.0313,1192.9082 293.2969,1193.1426 Q293.5625,1193.377 293.5625,1193.752 Q293.5625,1194.1426 293.2969,1194.377 Q293.0313,1194.6113 292.4219,1194.6113 L290.7031,1194.6113 Z " fill="#000000"/><text fill="#000000" font-family="sans-serif" font-size="18" font-style="italic" lengthAdjust="spacing" textLength="135" x="312.25" y="1205.4238">BoardRepository</text><line style="stroke:#181818;stroke-width:0.5;" x1="216" x2="511" y1="1216.9414" y2="1216.9414"/><line style="stroke:#181818;stroke-width:0.5;" x1="216" x2="511" y1="1224.9414" y2="1224.9414"/><text fill="#000000" font-family="sans-serif" font-size="14" lengthAdjust="spacing" textLength="281" x="223" y="1246.0488">+listBoardsUserCanView(SystemUser owner)</text></g><!--class AbstractUI--><g id="elem_AbstractUI"><rect codeLine="17" fill="#F1F1F1" height="53.9414" id="AbstractUI" rx="2.5" ry="2.5" style="stroke:#181818;stroke-width:0.5;" width="120" x="1449.5" y="747"/><ellipse cx="1464.5" cy="765.9707" fill="#A9DCDF" rx="11" ry="11" style="stroke:#181818;stroke-width:1.0;"/><path d="M1466.6875,767.7363 L1462.5469,767.7363 L1462.125,768.7676 L1462.5469,768.7676 Q1463.1563,768.7676 1463.4219,769.002 Q1463.6875,769.2363 1463.6875,769.627 Q1463.6875,770.002 1463.4219,770.2363 Q1463.1563,770.4707 1462.5469,770.4707 L1460.25,770.4707 Q1459.6406,770.4707 1459.3906,770.2363 Q1459.125,770.002 1459.125,769.6113 Q1459.125,769.2363 1459.4063,769.002 Q1459.6719,768.752 1460.2969,768.7676 L1462.9688,762.1113 L1461.8594,762.1113 Q1461.25,762.1113 1460.9844,761.877 Q1460.7188,761.6426 1460.7188,761.252 Q1460.7188,760.877 1460.9844,760.6426 Q1461.25,760.4082 1461.8594,760.4082 L1465.5313,760.4082 L1468.9219,768.7676 Q1469.5156,768.7676 1469.7031,768.9082 Q1470.0938,769.1738 1470.0938,769.627 Q1470.0938,770.002 1469.8281,770.2363 Q1469.5781,770.4707 1468.9688,770.4707 L1466.6719,770.4707 Q1466.0625,770.4707 1465.7969,770.2363 Q1465.5313,770.002 1465.5313,769.6113 Q1465.5313,769.2363 1465.7969,769.002 Q1466.0625,768.7676 1466.6719,768.7676 L1467.0938,768.7676 L1466.6875,767.7363 Z M1465.9688,766.0332 L1464.6094,762.6582 L1463.2344,766.0332 L1465.9688,766.0332 Z " fill="#000000"/><text fill="#000000" font-family="sans-serif" font-size="18" font-style="italic" lengthAdjust="spacing" textLength="84" x="1480.5" y="773.4238">AbstractUI</text><line style="stroke:#181818;stroke-width:0.5;" x1="1450.5" x2="1568.5" y1="784.9414" y2="784.9414"/><line style="stroke:#181818;stroke-width:0.5;" x1="1450.5" x2="1568.5" y1="792.9414" y2="792.9414"/></g><!--class ViewBoardUI--><g id="elem_ViewBoardUI"><rect codeLine="21" fill="#F1F1F1" height="99.1836" id="ViewBoardUI" rx="2.5" ry="2.5" style="stroke:#181818;stroke-width:0.5;" width="139" x="1313" y="514"/><ellipse cx="1328" cy="532.9707" fill="#ADD1B2" rx="11" ry="11" style="stroke:#181818;stroke-width:1.0;"/><path d="M1330.7656,528.8457 Q1330.9219,528.627 1331.1094,528.5176 Q1331.2969,528.4082 1331.5156,528.4082 Q1331.8906,528.4082 1332.125,528.6738 Q1332.3594,528.9238 1332.3594,529.5332 L1332.3594,530.9863 Q1332.3594,531.5957 1332.125,531.8613 Q1331.8906,532.127 1331.5156,532.127 Q1331.1719,532.127 1330.9688,531.9238 Q1330.7656,531.7363 1330.6563,531.2207 Q1330.6094,530.8613 1330.4219,530.6738 Q1330.0938,530.2988 1329.4844,530.0801 Q1328.875,529.8613 1328.25,529.8613 Q1327.4844,529.8613 1326.8438,530.1895 Q1326.2188,530.5176 1325.7188,531.2676 Q1325.2344,532.0176 1325.2344,533.0488 L1325.2344,534.1426 Q1325.2344,535.377 1326.125,536.2051 Q1327.0156,537.0176 1328.6094,537.0176 Q1329.5469,537.0176 1330.2031,536.7676 Q1330.5938,536.6113 1331.0156,536.1738 Q1331.2813,535.9082 1331.4219,535.8301 Q1331.5781,535.752 1331.7813,535.752 Q1332.1094,535.752 1332.3594,536.0176 Q1332.625,536.2676 1332.625,536.6113 Q1332.625,536.9551 1332.2813,537.3613 Q1331.7813,537.9395 1330.9844,538.2676 Q1329.9063,538.7207 1328.6094,538.7207 Q1327.0938,538.7207 1325.8906,538.0957 Q1324.9063,537.5957 1324.2188,536.5332 Q1323.5313,535.4551 1323.5313,534.1738 L1323.5313,533.0176 Q1323.5313,531.6895 1324.1406,530.5488 Q1324.7656,529.3926 1325.8594,528.7832 Q1326.9531,528.1582 1328.1875,528.1582 Q1328.9219,528.1582 1329.5625,528.3301 Q1330.2188,528.4863 1330.7656,528.8457 Z " fill="#000000"/><text fill="#000000" font-family="sans-serif" font-size="18" lengthAdjust="spacing" textLength="103" x="1344" y="540.4238">ViewBoardUI</text><line style="stroke:#181818;stroke-width:0.5;" x1="1314" x2="1451" y1="551.9414" y2="551.9414"/><line style="stroke:#181818;stroke-width:0.5;" x1="1314" x2="1451" y1="559.9414" y2="559.9414"/><text fill="#000000" font-family="sans-serif" font-size="14" lengthAdjust="spacing" textLength="68" x="1321" y="581.0488">#doShow()</text><text fill="#000000" font-family="sans-serif" font-size="14" lengthAdjust="spacing" textLength="72" x="1321" y="603.6699">+headline()</text></g><!--class ViewBoardController--><g id="elem_ViewBoardController"><rect codeLine="27" fill="#F1F1F1" height="121.8047" id="ViewBoardController" rx="2.5" ry="2.5" style="stroke:#181818;stroke-width:0.5;" width="238" x="1176.5" y="713"/><ellipse cx="1208.6" cy="731.9707" fill="#ADD1B2" rx="11" ry="11" style="stroke:#181818;stroke-width:1.0;"/><path d="M1211.3656,727.8457 Q1211.5219,727.627 1211.7094,727.5176 Q1211.8969,727.4082 1212.1156,727.4082 Q1212.4906,727.4082 1212.725,727.6738 Q1212.9594,727.9238 1212.9594,728.5332 L1212.9594,729.9863 Q1212.9594,730.5957 1212.725,730.8613 Q1212.4906,731.127 1212.1156,731.127 Q1211.7719,731.127 1211.5688,730.9238 Q1211.3656,730.7363 1211.2563,730.2207 Q1211.2094,729.8613 1211.0219,729.6738 Q1210.6938,729.2988 1210.0844,729.0801 Q1209.475,728.8613 1208.85,728.8613 Q1208.0844,728.8613 1207.4438,729.1895 Q1206.8188,729.5176 1206.3188,730.2676 Q1205.8344,731.0176 1205.8344,732.0488 L1205.8344,733.1426 Q1205.8344,734.377 1206.725,735.2051 Q1207.6156,736.0176 1209.2094,736.0176 Q1210.1469,736.0176 1210.8031,735.7676 Q1211.1938,735.6113 1211.6156,735.1738 Q1211.8813,734.9082 1212.0219,734.8301 Q1212.1781,734.752 1212.3813,734.752 Q1212.7094,734.752 1212.9594,735.0176 Q1213.225,735.2676 1213.225,735.6113 Q1213.225,735.9551 1212.8813,736.3613 Q1212.3813,736.9395 1211.5844,737.2676 Q1210.5063,737.7207 1209.2094,737.7207 Q1207.6938,737.7207 1206.4906,737.0957 Q1205.5063,736.5957 1204.8188,735.5332 Q1204.1313,734.4551 1204.1313,733.1738 L1204.1313,732.0176 Q1204.1313,730.6895 1204.7406,729.5488 Q1205.3656,728.3926 1206.4594,727.7832 Q1207.5531,727.1582 1208.7875,727.1582 Q1209.5219,727.1582 1210.1625,727.3301 Q1210.8188,727.4863 1211.3656,727.8457 Z " fill="#000000"/><text fill="#000000" font-family="sans-serif" font-size="18" lengthAdjust="spacing" textLength="164" x="1228.4" y="739.4238">ViewBoardController</text><line style="stroke:#181818;stroke-width:0.5;" x1="1177.5" x2="1413.5" y1="750.9414" y2="750.9414"/><line style="stroke:#181818;stroke-width:0.5;" x1="1177.5" x2="1413.5" y1="758.9414" y2="758.9414"/><text fill="#000000" font-family="sans-serif" font-size="14" lengthAdjust="spacing" textLength="220" x="1184.5" y="780.0488">+listBoardsUserOwnsNotArchived()</text><text fill="#000000" font-family="sans-serif" font-size="14" lengthAdjust="spacing" textLength="222" x="1184.5" y="802.6699">+archivedBoards(String boardTitle)</text><text fill="#000000" font-family="sans-serif" font-size="14" lengthAdjust="spacing" textLength="94" x="1184.5" y="825.291">+closeSocket()</text></g><!--class AbstractSBServerHandler--><g id="elem_AbstractSBServerHandler"><rect codeLine="35" fill="#F1F1F1" height="53.9414" id="AbstractSBServerHandler" rx="2.5" ry="2.5" style="stroke:#181818;stroke-width:0.5;" width="243" x="727" y="980"/><ellipse cx="742" cy="998.9707" fill="#A9DCDF" rx="11" ry="11" style="stroke:#181818;stroke-width:1.0;"/><path d="M744.1875,1000.7363 L740.0469,1000.7363 L739.625,1001.7676 L740.0469,1001.7676 Q740.6563,1001.7676 740.9219,1002.002 Q741.1875,1002.2363 741.1875,1002.627 Q741.1875,1003.002 740.9219,1003.2363 Q740.6563,1003.4707 740.0469,1003.4707 L737.75,1003.4707 Q737.1406,1003.4707 736.8906,1003.2363 Q736.625,1003.002 736.625,1002.6113 Q736.625,1002.2363 736.9063,1002.002 Q737.1719,1001.752 737.7969,1001.7676 L740.4688,995.1113 L739.3594,995.1113 Q738.75,995.1113 738.4844,994.877 Q738.2188,994.6426 738.2188,994.252 Q738.2188,993.877 738.4844,993.6426 Q738.75,993.4082 739.3594,993.4082 L743.0313,993.4082 L746.4219,1001.7676 Q747.0156,1001.7676 747.2031,1001.9082 Q747.5938,1002.1738 747.5938,1002.627 Q747.5938,1003.002 747.3281,1003.2363 Q747.0781,1003.4707 746.4688,1003.4707 L744.1719,1003.4707 Q743.5625,1003.4707 743.2969,1003.2363 Q743.0313,1003.002 743.0313,1002.6113 Q743.0313,1002.2363 743.2969,1002.002 Q743.5625,1001.7676 744.1719,1001.7676 L744.5938,1001.7676 L744.1875,1000.7363 Z M743.4688,999.0332 L742.1094,995.6582 L740.7344,999.0332 L743.4688,999.0332 Z " fill="#000000"/><text fill="#000000" font-family="sans-serif" font-size="18" font-style="italic" lengthAdjust="spacing" textLength="207" x="758" y="1006.4238">AbstractSBServerHandler</text><line style="stroke:#181818;stroke-width:0.5;" x1="728" x2="969" y1="1017.9414" y2="1017.9414"/><line style="stroke:#181818;stroke-width:0.5;" x1="728" x2="969" y1="1025.9414" y2="1025.9414"/></g><!--class ViewBoardHandler--><g id="elem_ViewBoardHandler"><rect codeLine="38" fill="#F1F1F1" height="99.1836" id="ViewBoardHandler" rx="2.5" ry="2.5" style="stroke:#181818;stroke-width:0.5;" width="185" x="756" y="724.5"/><ellipse cx="771" cy="743.4707" fill="#ADD1B2" rx="11" ry="11" style="stroke:#181818;stroke-width:1.0;"/><path d="M773.7656,739.3457 Q773.9219,739.127 774.1094,739.0176 Q774.2969,738.9082 774.5156,738.9082 Q774.8906,738.9082 775.125,739.1738 Q775.3594,739.4238 775.3594,740.0332 L775.3594,741.4863 Q775.3594,742.0957 775.125,742.3613 Q774.8906,742.627 774.5156,742.627 Q774.1719,742.627 773.9688,742.4238 Q773.7656,742.2363 773.6563,741.7207 Q773.6094,741.3613 773.4219,741.1738 Q773.0938,740.7988 772.4844,740.5801 Q771.875,740.3613 771.25,740.3613 Q770.4844,740.3613 769.8438,740.6895 Q769.2188,741.0176 768.7188,741.7676 Q768.2344,742.5176 768.2344,743.5488 L768.2344,744.6426 Q768.2344,745.877 769.125,746.7051 Q770.0156,747.5176 771.6094,747.5176 Q772.5469,747.5176 773.2031,747.2676 Q773.5938,747.1113 774.0156,746.6738 Q774.2813,746.4082 774.4219,746.3301 Q774.5781,746.252 774.7813,746.252 Q775.1094,746.252 775.3594,746.5176 Q775.625,746.7676 775.625,747.1113 Q775.625,747.4551 775.2813,747.8613 Q774.7813,748.4395 773.9844,748.7676 Q772.9063,749.2207 771.6094,749.2207 Q770.0938,749.2207 768.8906,748.5957 Q767.9063,748.0957 767.2188,747.0332 Q766.5313,745.9551 766.5313,744.6738 L766.5313,743.5176 Q766.5313,742.1895 767.1406,741.0488 Q767.7656,739.8926 768.8594,739.2832 Q769.9531,738.6582 771.1875,738.6582 Q771.9219,738.6582 772.5625,738.8301 Q773.2188,738.9863 773.7656,739.3457 Z " fill="#000000"/><text fill="#000000" font-family="sans-serif" font-size="18" lengthAdjust="spacing" textLength="149" x="787" y="750.9238">ViewBoardHandler</text><line style="stroke:#181818;stroke-width:0.5;" x1="757" x2="940" y1="762.4414" y2="762.4414"/><line style="stroke:#181818;stroke-width:0.5;" x1="757" x2="940" y1="770.4414" y2="770.4414"/><text fill="#000000" font-family="sans-serif" font-size="14" lengthAdjust="spacing" textLength="39" x="764" y="791.5488">+run()</text><text fill="#000000" font-family="sans-serif" font-size="14" lengthAdjust="spacing" textLength="128" x="764" y="814.1699">-sendBoardOwned()</text></g><!--class SBPServerApp--><g id="elem_SBPServerApp"><rect codeLine="43" fill="#F1F1F1" height="99.1836" id="SBPServerApp" rx="2.5" ry="2.5" style="stroke:#181818;stroke-width:0.5;" width="254" x="965.5" y="315"/><ellipse cx="1026.25" cy="333.9707" fill="#ADD1B2" rx="11" ry="11" style="stroke:#181818;stroke-width:1.0;"/><path d="M1029.0156,329.8457 Q1029.1719,329.627 1029.3594,329.5176 Q1029.5469,329.4082 1029.7656,329.4082 Q1030.1406,329.4082 1030.375,329.6738 Q1030.6094,329.9238 1030.6094,330.5332 L1030.6094,331.9863 Q1030.6094,332.5957 1030.375,332.8613 Q1030.1406,333.127 1029.7656,333.127 Q1029.4219,333.127 1029.2188,332.9238 Q1029.0156,332.7363 1028.9063,332.2207 Q1028.8594,331.8613 1028.6719,331.6738 Q1028.3438,331.2988 1027.7344,331.0801 Q1027.125,330.8613 1026.5,330.8613 Q1025.7344,330.8613 1025.0938,331.1895 Q1024.4688,331.5176 1023.9688,332.2676 Q1023.4844,333.0176 1023.4844,334.0488 L1023.4844,335.1426 Q1023.4844,336.377 1024.375,337.2051 Q1025.2656,338.0176 1026.8594,338.0176 Q1027.7969,338.0176 1028.4531,337.7676 Q1028.8438,337.6113 1029.2656,337.1738 Q1029.5313,336.9082 1029.6719,336.8301 Q1029.8281,336.752 1030.0313,336.752 Q1030.3594,336.752 1030.6094,337.0176 Q1030.875,337.2676 1030.875,337.6113 Q1030.875,337.9551 1030.5313,338.3613 Q1030.0313,338.9395 1029.2344,339.2676 Q1028.1563,339.7207 1026.8594,339.7207 Q1025.3438,339.7207 1024.1406,339.0957 Q1023.1563,338.5957 1022.4688,337.5332 Q1021.7813,336.4551 1021.7813,335.1738 L1021.7813,334.0176 Q1021.7813,332.6895 1022.3906,331.5488 Q1023.0156,330.3926 1024.1094,329.7832 Q1025.2031,329.1582 1026.4375,329.1582 Q1027.1719,329.1582 1027.8125,329.3301 Q1028.4688,329.4863 1029.0156,329.8457 Z " fill="#000000"/><text fill="#000000" font-family="sans-serif" font-size="18" lengthAdjust="spacing" textLength="120" x="1048.75" y="341.4238">SBPServerApp</text><line style="stroke:#181818;stroke-width:0.5;" x1="966.5" x2="1218.5" y1="352.9414" y2="352.9414"/><text fill="#000000" font-family="sans-serif" font-size="14" lengthAdjust="spacing" textLength="238" x="973.5" y="374.0488">+HashMap&lt;BoardTitle,Board&gt; boards</text><text fill="#000000" font-family="sans-serif" font-size="14" lengthAdjust="spacing" textLength="237" x="973.5" y="396.6699">+HashMap&lt;String,Client&gt; activeAuths</text><line style="stroke:#181818;stroke-width:0.5;" x1="966.5" x2="1218.5" y1="406.1836" y2="406.1836"/></g><!--class MenuRequest--><g id="elem_MenuRequest"><rect codeLine="49" fill="#F1F1F1" height="76.5625" id="MenuRequest" rx="2.5" ry="2.5" style="stroke:#181818;stroke-width:0.5;" width="148" x="949.5" y="525"/><ellipse cx="964.5" cy="543.9707" fill="#ADD1B2" rx="11" ry="11" style="stroke:#181818;stroke-width:1.0;"/><path d="M967.2656,539.8457 Q967.4219,539.627 967.6094,539.5176 Q967.7969,539.4082 968.0156,539.4082 Q968.3906,539.4082 968.625,539.6738 Q968.8594,539.9238 968.8594,540.5332 L968.8594,541.9863 Q968.8594,542.5957 968.625,542.8613 Q968.3906,543.127 968.0156,543.127 Q967.6719,543.127 967.4688,542.9238 Q967.2656,542.7363 967.1563,542.2207 Q967.1094,541.8613 966.9219,541.6738 Q966.5938,541.2988 965.9844,541.0801 Q965.375,540.8613 964.75,540.8613 Q963.9844,540.8613 963.3438,541.1895 Q962.7188,541.5176 962.2188,542.2676 Q961.7344,543.0176 961.7344,544.0488 L961.7344,545.1426 Q961.7344,546.377 962.625,547.2051 Q963.5156,548.0176 965.1094,548.0176 Q966.0469,548.0176 966.7031,547.7676 Q967.0938,547.6113 967.5156,547.1738 Q967.7813,546.9082 967.9219,546.8301 Q968.0781,546.752 968.2813,546.752 Q968.6094,546.752 968.8594,547.0176 Q969.125,547.2676 969.125,547.6113 Q969.125,547.9551 968.7813,548.3613 Q968.2813,548.9395 967.4844,549.2676 Q966.4063,549.7207 965.1094,549.7207 Q963.5938,549.7207 962.3906,549.0957 Q961.4063,548.5957 960.7188,547.5332 Q960.0313,546.4551 960.0313,545.1738 L960.0313,544.0176 Q960.0313,542.6895 960.6406,541.5488 Q961.2656,540.3926 962.3594,539.7832 Q963.4531,539.1582 964.6875,539.1582 Q965.4219,539.1582 966.0625,539.3301 Q966.7188,539.4863 967.2656,539.8457 Z " fill="#000000"/><text fill="#000000" font-family="sans-serif" font-size="18" lengthAdjust="spacing" textLength="112" x="980.5" y="551.4238">MenuRequest</text><line style="stroke:#181818;stroke-width:0.5;" x1="950.5" x2="1096.5" y1="562.9414" y2="562.9414"/><line style="stroke:#181818;stroke-width:0.5;" x1="950.5" x2="1096.5" y1="570.9414" y2="570.9414"/><text fill="#000000" font-family="sans-serif" font-size="14" lengthAdjust="spacing" textLength="39" x="957.5" y="592.0488">+run()</text></g><!--class SBProtocol--><g id="elem_SBProtocol"><rect codeLine="57" fill="#F1F1F1" height="144.4258" id="SBProtocol" rx="2.5" ry="2.5" style="stroke:#181818;stroke-width:0.5;" width="239" x="1077" y="935"/><ellipse cx="1145.25" cy="953.9707" fill="#ADD1B2" rx="11" ry="11" style="stroke:#181818;stroke-width:1.0;"/><path d="M1148.0156,949.8457 Q1148.1719,949.627 1148.3594,949.5176 Q1148.5469,949.4082 1148.7656,949.4082 Q1149.1406,949.4082 1149.375,949.6738 Q1149.6094,949.9238 1149.6094,950.5332 L1149.6094,951.9863 Q1149.6094,952.5957 1149.375,952.8613 Q1149.1406,953.127 1148.7656,953.127 Q1148.4219,953.127 1148.2188,952.9238 Q1148.0156,952.7363 1147.9063,952.2207 Q1147.8594,951.8613 1147.6719,951.6738 Q1147.3438,951.2988 1146.7344,951.0801 Q1146.125,950.8613 1145.5,950.8613 Q1144.7344,950.8613 1144.0938,951.1895 Q1143.4688,951.5176 1142.9688,952.2676 Q1142.4844,953.0176 1142.4844,954.0488 L1142.4844,955.1426 Q1142.4844,956.377 1143.375,957.2051 Q1144.2656,958.0176 1145.8594,958.0176 Q1146.7969,958.0176 1147.4531,957.7676 Q1147.8438,957.6113 1148.2656,957.1738 Q1148.5313,956.9082 1148.6719,956.8301 Q1148.8281,956.752 1149.0313,956.752 Q1149.3594,956.752 1149.6094,957.0176 Q1149.875,957.2676 1149.875,957.6113 Q1149.875,957.9551 1149.5313,958.3613 Q1149.0313,958.9395 1148.2344,959.2676 Q1147.1563,959.7207 1145.8594,959.7207 Q1144.3438,959.7207 1143.1406,959.0957 Q1142.1563,958.5957 1141.4688,957.5332 Q1140.7813,956.4551 1140.7813,955.1738 L1140.7813,954.0176 Q1140.7813,952.6895 1141.3906,951.5488 Q1142.0156,950.3926 1143.1094,949.7832 Q1144.2031,949.1582 1145.4375,949.1582 Q1146.1719,949.1582 1146.8125,949.3301 Q1147.4688,949.4863 1148.0156,949.8457 Z " fill="#000000"/><text fill="#000000" font-family="sans-serif" font-size="18" lengthAdjust="spacing" textLength="90" x="1167.75" y="961.4238">SBProtocol</text><line style="stroke:#181818;stroke-width:0.5;" x1="1078" x2="1315" y1="972.9414" y2="972.9414"/><line style="stroke:#181818;stroke-width:0.5;" x1="1078" x2="1315" y1="980.9414" y2="980.9414"/><text fill="#000000" font-family="sans-serif" font-size="14" lengthAdjust="spacing" textLength="121" x="1085" y="1002.0488">+setCode(int code)</text><text fill="#000000" font-family="sans-serif" font-size="14" lengthAdjust="spacing" textLength="223" x="1085" y="1024.6699">+setContentFromString(String cStr)</text><text fill="#000000" font-family="sans-serif" font-size="14" lengthAdjust="spacing" textLength="191" x="1085" y="1047.291">+send(DataOutputStream out)</text><text fill="#000000" font-family="sans-serif" font-size="14" lengthAdjust="spacing" textLength="141" x="1085" y="1069.9121">+getContentAsString()</text></g><!--class JpaBoardRepository--><g id="elem_JpaBoardRepository"><rect codeLine="66" fill="#F1F1F1" height="99.1836" id="JpaBoardRepository" rx="2.5" ry="2.5" style="stroke:#181818;stroke-width:0.5;" width="353" x="7" y="957.5"/><ellipse cx="95.75" cy="976.4707" fill="#ADD1B2" rx="11" ry="11" style="stroke:#181818;stroke-width:1.0;"/><path d="M98.5156,972.3457 Q98.6719,972.127 98.8594,972.0176 Q99.0469,971.9082 99.2656,971.9082 Q99.6406,971.9082 99.875,972.1738 Q100.1094,972.4238 100.1094,973.0332 L100.1094,974.4863 Q100.1094,975.0957 99.875,975.3613 Q99.6406,975.627 99.2656,975.627 Q98.9219,975.627 98.7188,975.4238 Q98.5156,975.2363 98.4063,974.7207 Q98.3594,974.3613 98.1719,974.1738 Q97.8438,973.7988 97.2344,973.5801 Q96.625,973.3613 96,973.3613 Q95.2344,973.3613 94.5938,973.6895 Q93.9688,974.0176 93.4688,974.7676 Q92.9844,975.5176 92.9844,976.5488 L92.9844,977.6426 Q92.9844,978.877 93.875,979.7051 Q94.7656,980.5176 96.3594,980.5176 Q97.2969,980.5176 97.9531,980.2676 Q98.3438,980.1113 98.7656,979.6738 Q99.0313,979.4082 99.1719,979.3301 Q99.3281,979.252 99.5313,979.252 Q99.8594,979.252 100.1094,979.5176 Q100.375,979.7676 100.375,980.1113 Q100.375,980.4551 100.0313,980.8613 Q99.5313,981.4395 98.7344,981.7676 Q97.6563,982.2207 96.3594,982.2207 Q94.8438,982.2207 93.6406,981.5957 Q92.6563,981.0957 91.9688,980.0332 Q91.2813,978.9551 91.2813,977.6738 L91.2813,976.5176 Q91.2813,975.1895 91.8906,974.0488 Q92.5156,972.8926 93.6094,972.2832 Q94.7031,971.6582 95.9375,971.6582 Q96.6719,971.6582 97.3125,971.8301 Q97.9688,971.9863 98.5156,972.3457 Z " fill="#000000"/><text fill="#000000" font-family="sans-serif" font-size="18" lengthAdjust="spacing" textLength="163" x="118.25" y="983.9238">JpaBoardRepository</text><line style="stroke:#181818;stroke-width:0.5;" x1="8" x2="359" y1="995.4414" y2="995.4414"/><line style="stroke:#181818;stroke-width:0.5;" x1="8" x2="359" y1="1003.4414" y2="1003.4414"/><text fill="#000000" font-family="sans-serif" font-size="14" lengthAdjust="spacing" textLength="337" x="15" y="1024.5488">+listBoardsUserOwnsNotArchived(SystemUser owner)</text><text fill="#000000" font-family="sans-serif" font-size="14" lengthAdjust="spacing" textLength="316" x="15" y="1047.1699">+listBoardsUserOwnsArchived(SystemUser owner)</text></g><!--class Client--><g id="elem_Client"><rect codeLine="72" fill="#F1F1F1" height="76.5625" id="Client" rx="2.5" ry="2.5" style="stroke:#181818;stroke-width:0.5;" width="142" x="1132.5" y="525"/><ellipse cx="1174.5" cy="543.9707" fill="#ADD1B2" rx="11" ry="11" style="stroke:#181818;stroke-width:1.0;"/><path d="M1177.2656,539.8457 Q1177.4219,539.627 1177.6094,539.5176 Q1177.7969,539.4082 1178.0156,539.4082 Q1178.3906,539.4082 1178.625,539.6738 Q1178.8594,539.9238 1178.8594,540.5332 L1178.8594,541.9863 Q1178.8594,542.5957 1178.625,542.8613 Q1178.3906,543.127 1178.0156,543.127 Q1177.6719,543.127 1177.4688,542.9238 Q1177.2656,542.7363 1177.1563,542.2207 Q1177.1094,541.8613 1176.9219,541.6738 Q1176.5938,541.2988 1175.9844,541.0801 Q1175.375,540.8613 1174.75,540.8613 Q1173.9844,540.8613 1173.3438,541.1895 Q1172.7188,541.5176 1172.2188,542.2676 Q1171.7344,543.0176 1171.7344,544.0488 L1171.7344,545.1426 Q1171.7344,546.377 1172.625,547.2051 Q1173.5156,548.0176 1175.1094,548.0176 Q1176.0469,548.0176 1176.7031,547.7676 Q1177.0938,547.6113 1177.5156,547.1738 Q1177.7813,546.9082 1177.9219,546.8301 Q1178.0781,546.752 1178.2813,546.752 Q1178.6094,546.752 1178.8594,547.0176 Q1179.125,547.2676 1179.125,547.6113 Q1179.125,547.9551 1178.7813,548.3613 Q1178.2813,548.9395 1177.4844,549.2676 Q1176.4063,549.7207 1175.1094,549.7207 Q1173.5938,549.7207 1172.3906,549.0957 Q1171.4063,548.5957 1170.7188,547.5332 Q1170.0313,546.4551 1170.0313,545.1738 L1170.0313,544.0176 Q1170.0313,542.6895 1170.6406,541.5488 Q1171.2656,540.3926 1172.3594,539.7832 Q1173.4531,539.1582 1174.6875,539.1582 Q1175.4219,539.1582 1176.0625,539.3301 Q1176.7188,539.4863 1177.2656,539.8457 Z " fill="#000000"/><text fill="#000000" font-family="sans-serif" font-size="18" lengthAdjust="spacing" textLength="46" x="1196.5" y="551.4238">Client</text><line style="stroke:#181818;stroke-width:0.5;" x1="1133.5" x2="1273.5" y1="562.9414" y2="562.9414"/><line style="stroke:#181818;stroke-width:0.5;" x1="1133.5" x2="1273.5" y1="570.9414" y2="570.9414"/><text fill="#000000" font-family="sans-serif" font-size="14" lengthAdjust="spacing" textLength="126" x="1140.5" y="592.0488">+getUserLoggedIn()</text></g><!--class BoardService--><g id="elem_BoardService"><rect codeLine="77" fill="#F1F1F1" height="76.5625" id="BoardService" rx="2.5" ry="2.5" style="stroke:#181818;stroke-width:0.5;" width="297" x="395" y="968.5"/><ellipse cx="483.25" cy="987.4707" fill="#ADD1B2" rx="11" ry="11" style="stroke:#181818;stroke-width:1.0;"/><path d="M486.0156,983.3457 Q486.1719,983.127 486.3594,983.0176 Q486.5469,982.9082 486.7656,982.9082 Q487.1406,982.9082 487.375,983.1738 Q487.6094,983.4238 487.6094,984.0332 L487.6094,985.4863 Q487.6094,986.0957 487.375,986.3613 Q487.1406,986.627 486.7656,986.627 Q486.4219,986.627 486.2188,986.4238 Q486.0156,986.2363 485.9063,985.7207 Q485.8594,985.3613 485.6719,985.1738 Q485.3438,984.7988 484.7344,984.5801 Q484.125,984.3613 483.5,984.3613 Q482.7344,984.3613 482.0938,984.6895 Q481.4688,985.0176 480.9688,985.7676 Q480.4844,986.5176 480.4844,987.5488 L480.4844,988.6426 Q480.4844,989.877 481.375,990.7051 Q482.2656,991.5176 483.8594,991.5176 Q484.7969,991.5176 485.4531,991.2676 Q485.8438,991.1113 486.2656,990.6738 Q486.5313,990.4082 486.6719,990.3301 Q486.8281,990.252 487.0313,990.252 Q487.3594,990.252 487.6094,990.5176 Q487.875,990.7676 487.875,991.1113 Q487.875,991.4551 487.5313,991.8613 Q487.0313,992.4395 486.2344,992.7676 Q485.1563,993.2207 483.8594,993.2207 Q482.3438,993.2207 481.1406,992.5957 Q480.1563,992.0957 479.4688,991.0332 Q478.7813,989.9551 478.7813,988.6738 L478.7813,987.5176 Q478.7813,986.1895 479.3906,985.0488 Q480.0156,983.8926 481.1094,983.2832 Q482.2031,982.6582 483.4375,982.6582 Q484.1719,982.6582 484.8125,982.8301 Q485.4688,982.9863 486.0156,983.3457 Z " fill="#000000"/><text fill="#000000" font-family="sans-serif" font-size="18" lengthAdjust="spacing" textLength="108" x="505.75" y="994.9238">BoardService</text><line style="stroke:#181818;stroke-width:0.5;" x1="396" x2="691" y1="1006.4414" y2="1006.4414"/><line style="stroke:#181818;stroke-width:0.5;" x1="396" x2="691" y1="1014.4414" y2="1014.4414"/><text fill="#000000" font-family="sans-serif" font-size="14" lengthAdjust="spacing" textLength="281" x="403" y="1035.5488">+listBoardsUserCanView(SystemUser owner)</text></g><!--class SBPClientApp--><g id="elem_SBPClientApp"><rect codeLine="82" fill="#F1F1F1" height="53.9414" id="SBPClientApp" rx="2.5" ry="2.5" style="stroke:#181818;stroke-width:0.5;" width="149" x="1218" y="161"/><ellipse cx="1233" cy="179.9707" fill="#ADD1B2" rx="11" ry="11" style="stroke:#181818;stroke-width:1.0;"/><path d="M1235.7656,175.8457 Q1235.9219,175.627 1236.1094,175.5176 Q1236.2969,175.4082 1236.5156,175.4082 Q1236.8906,175.4082 1237.125,175.6738 Q1237.3594,175.9238 1237.3594,176.5332 L1237.3594,177.9863 Q1237.3594,178.5957 1237.125,178.8613 Q1236.8906,179.127 1236.5156,179.127 Q1236.1719,179.127 1235.9688,178.9238 Q1235.7656,178.7363 1235.6563,178.2207 Q1235.6094,177.8613 1235.4219,177.6738 Q1235.0938,177.2988 1234.4844,177.0801 Q1233.875,176.8613 1233.25,176.8613 Q1232.4844,176.8613 1231.8438,177.1895 Q1231.2188,177.5176 1230.7188,178.2676 Q1230.2344,179.0176 1230.2344,180.0488 L1230.2344,181.1426 Q1230.2344,182.377 1231.125,183.2051 Q1232.0156,184.0176 1233.6094,184.0176 Q1234.5469,184.0176 1235.2031,183.7676 Q1235.5938,183.6113 1236.0156,183.1738 Q1236.2813,182.9082 1236.4219,182.8301 Q1236.5781,182.752 1236.7813,182.752 Q1237.1094,182.752 1237.3594,183.0176 Q1237.625,183.2676 1237.625,183.6113 Q1237.625,183.9551 1237.2813,184.3613 Q1236.7813,184.9395 1235.9844,185.2676 Q1234.9063,185.7207 1233.6094,185.7207 Q1232.0938,185.7207 1230.8906,185.0957 Q1229.9063,184.5957 1229.2188,183.5332 Q1228.5313,182.4551 1228.5313,181.1738 L1228.5313,180.0176 Q1228.5313,178.6895 1229.1406,177.5488 Q1229.7656,176.3926 1230.8594,175.7832 Q1231.9531,175.1582 1233.1875,175.1582 Q1233.9219,175.1582 1234.5625,175.3301 Q1235.2188,175.4863 1235.7656,175.8457 Z " fill="#000000"/><text fill="#000000" font-family="sans-serif" font-size="18" lengthAdjust="spacing" textLength="113" x="1249" y="187.4238">SBPClientApp</text><line style="stroke:#181818;stroke-width:0.5;" x1="1219" x2="1366" y1="198.9414" y2="198.9414"/><line style="stroke:#181818;stroke-width:0.5;" x1="1219" x2="1366" y1="206.9414" y2="206.9414"/></g><!--class BaseApplication--><g id="elem_BaseApplication"><rect codeLine="85" fill="#F1F1F1" height="53.9414" id="BaseApplication" rx="2.5" ry="2.5" style="stroke:#181818;stroke-width:0.5;" width="168" x="1120.5" y="7"/><ellipse cx="1135.5" cy="25.9707" fill="#A9DCDF" rx="11" ry="11" style="stroke:#181818;stroke-width:1.0;"/><path d="M1137.6875,27.7363 L1133.5469,27.7363 L1133.125,28.7676 L1133.5469,28.7676 Q1134.1563,28.7676 1134.4219,29.002 Q1134.6875,29.2363 1134.6875,29.627 Q1134.6875,30.002 1134.4219,30.2363 Q1134.1563,30.4707 1133.5469,30.4707 L1131.25,30.4707 Q1130.6406,30.4707 1130.3906,30.2363 Q1130.125,30.002 1130.125,29.6113 Q1130.125,29.2363 1130.4063,29.002 Q1130.6719,28.752 1131.2969,28.7676 L1133.9688,22.1113 L1132.8594,22.1113 Q1132.25,22.1113 1131.9844,21.877 Q1131.7188,21.6426 1131.7188,21.252 Q1131.7188,20.877 1131.9844,20.6426 Q1132.25,20.4082 1132.8594,20.4082 L1136.5313,20.4082 L1139.9219,28.7676 Q1140.5156,28.7676 1140.7031,28.9082 Q1141.0938,29.1738 1141.0938,29.627 Q1141.0938,30.002 1140.8281,30.2363 Q1140.5781,30.4707 1139.9688,30.4707 L1137.6719,30.4707 Q1137.0625,30.4707 1136.7969,30.2363 Q1136.5313,30.002 1136.5313,29.6113 Q1136.5313,29.2363 1136.7969,29.002 Q1137.0625,28.7676 1137.6719,28.7676 L1138.0938,28.7676 L1137.6875,27.7363 Z M1136.9688,26.0332 L1135.6094,22.6582 L1134.2344,26.0332 L1136.9688,26.0332 Z " fill="#000000"/><text fill="#000000" font-family="sans-serif" font-size="18" font-style="italic" lengthAdjust="spacing" textLength="132" x="1151.5" y="33.4238">BaseApplication</text><line style="stroke:#181818;stroke-width:0.5;" x1="1121.5" x2="1287.5" y1="44.9414" y2="44.9414"/><line style="stroke:#181818;stroke-width:0.5;" x1="1121.5" x2="1287.5" y1="52.9414" y2="52.9414"/></g><!--class MainMenu--><g id="elem_MainMenu"><rect codeLine="87" fill="#F1F1F1" height="76.5625" id="MainMenu" rx="2.5" ry="2.5" style="stroke:#181818;stroke-width:0.5;" width="126" x="1319.5" y="326"/><ellipse cx="1337.2" cy="344.9707" fill="#ADD1B2" rx="11" ry="11" style="stroke:#181818;stroke-width:1.0;"/><path d="M1339.9656,340.8457 Q1340.1219,340.627 1340.3094,340.5176 Q1340.4969,340.4082 1340.7156,340.4082 Q1341.0906,340.4082 1341.325,340.6738 Q1341.5594,340.9238 1341.5594,341.5332 L1341.5594,342.9863 Q1341.5594,343.5957 1341.325,343.8613 Q1341.0906,344.127 1340.7156,344.127 Q1340.3719,344.127 1340.1688,343.9238 Q1339.9656,343.7363 1339.8563,343.2207 Q1339.8094,342.8613 1339.6219,342.6738 Q1339.2938,342.2988 1338.6844,342.0801 Q1338.075,341.8613 1337.45,341.8613 Q1336.6844,341.8613 1336.0438,342.1895 Q1335.4188,342.5176 1334.9188,343.2676 Q1334.4344,344.0176 1334.4344,345.0488 L1334.4344,346.1426 Q1334.4344,347.377 1335.325,348.2051 Q1336.2156,349.0176 1337.8094,349.0176 Q1338.7469,349.0176 1339.4031,348.7676 Q1339.7938,348.6113 1340.2156,348.1738 Q1340.4813,347.9082 1340.6219,347.8301 Q1340.7781,347.752 1340.9813,347.752 Q1341.3094,347.752 1341.5594,348.0176 Q1341.825,348.2676 1341.825,348.6113 Q1341.825,348.9551 1341.4813,349.3613 Q1340.9813,349.9395 1340.1844,350.2676 Q1339.1063,350.7207 1337.8094,350.7207 Q1336.2938,350.7207 1335.0906,350.0957 Q1334.1063,349.5957 1333.4188,348.5332 Q1332.7313,347.4551 1332.7313,346.1738 L1332.7313,345.0176 Q1332.7313,343.6895 1333.3406,342.5488 Q1333.9656,341.3926 1335.0594,340.7832 Q1336.1531,340.1582 1337.3875,340.1582 Q1338.1219,340.1582 1338.7625,340.3301 Q1339.4188,340.4863 1339.9656,340.8457 Z " fill="#000000"/><text fill="#000000" font-family="sans-serif" font-size="18" lengthAdjust="spacing" textLength="84" x="1353.8" y="352.4238">MainMenu</text><line style="stroke:#181818;stroke-width:0.5;" x1="1320.5" x2="1444.5" y1="363.9414" y2="363.9414"/><line style="stroke:#181818;stroke-width:0.5;" x1="1320.5" x2="1444.5" y1="371.9414" y2="371.9414"/><text fill="#000000" font-family="sans-serif" font-size="14" lengthAdjust="spacing" textLength="110" x="1327.5" y="393.0488">-buildMainMenu()</text></g><!--class Thread--><g id="elem_Thread"><rect fill="#F1F1F1" height="53.9414" id="Thread" rx="2.5" ry="2.5" style="stroke:#181818;stroke-width:0.5;" width="94" x="976.5" y="747"/><ellipse cx="991.5" cy="765.9707" fill="#ADD1B2" rx="11" ry="11" style="stroke:#181818;stroke-width:1.0;"/><path d="M994.2656,761.8457 Q994.4219,761.627 994.6094,761.5176 Q994.7969,761.4082 995.0156,761.4082 Q995.3906,761.4082 995.625,761.6738 Q995.8594,761.9238 995.8594,762.5332 L995.8594,763.9863 Q995.8594,764.5957 995.625,764.8613 Q995.3906,765.127 995.0156,765.127 Q994.6719,765.127 994.4688,764.9238 Q994.2656,764.7363 994.1563,764.2207 Q994.1094,763.8613 993.9219,763.6738 Q993.5938,763.2988 992.9844,763.0801 Q992.375,762.8613 991.75,762.8613 Q990.9844,762.8613 990.3438,763.1895 Q989.7188,763.5176 989.2188,764.2676 Q988.7344,765.0176 988.7344,766.0488 L988.7344,767.1426 Q988.7344,768.377 989.625,769.2051 Q990.5156,770.0176 992.1094,770.0176 Q993.0469,770.0176 993.7031,769.7676 Q994.0938,769.6113 994.5156,769.1738 Q994.7813,768.9082 994.9219,768.8301 Q995.0781,768.752 995.2813,768.752 Q995.6094,768.752 995.8594,769.0176 Q996.125,769.2676 996.125,769.6113 Q996.125,769.9551 995.7813,770.3613 Q995.2813,770.9395 994.4844,771.2676 Q993.4063,771.7207 992.1094,771.7207 Q990.5938,771.7207 989.3906,771.0957 Q988.4063,770.5957 987.7188,769.5332 Q987.0313,768.4551 987.0313,767.1738 L987.0313,766.0176 Q987.0313,764.6895 987.6406,763.5488 Q988.2656,762.3926 989.3594,761.7832 Q990.4531,761.1582 991.6875,761.1582 Q992.4219,761.1582 993.0625,761.3301 Q993.7188,761.4863 994.2656,761.8457 Z " fill="#000000"/><text fill="#000000" font-family="sans-serif" font-size="18" lengthAdjust="spacing" textLength="58" x="1007.5" y="773.4238">Thread</text><line style="stroke:#181818;stroke-width:0.5;" x1="977.5" x2="1069.5" y1="784.9414" y2="784.9414"/><line style="stroke:#181818;stroke-width:0.5;" x1="977.5" x2="1069.5" y1="792.9414" y2="792.9414"/></g><!--link ViewBoardUI to AbstractUI--><g id="link_ViewBoardUI_AbstractUI"><path codeLine="94" d="M1412.12,613.12 C1433.58,648.35 1462.34,695.57 1483.03,729.55 " fill="none" id="ViewBoardUI-to-AbstractUI" style="stroke:#181818;stroke-width:1.0;"/><polygon fill="none" points="1489.18,726.18,1493.6,746.9,1477.22,733.46,1489.18,726.18" style="stroke:#181818;stroke-width:1.0;"/></g><!--link MenuRequest to Thread--><g id="link_MenuRequest_Thread"><path codeLine="95" d="M1023.5,602.26 C1023.5,637.18 1023.5,689.19 1023.5,726.62 " fill="none" id="MenuRequest-to-Thread" style="stroke:#181818;stroke-width:1.0;"/><polygon fill="none" points="1030.5,726.74,1023.5,746.74,1016.5,726.74,1030.5,726.74" style="stroke:#181818;stroke-width:1.0;"/></g><!--reverse link BaseApplication to SBPClientApp--><g id="link_BaseApplication_SBPClientApp"><path codeLine="96" d="M1229.8,78.71 C1245.21,105.31 1264.37,138.4 1277.42,160.96 " fill="none" id="BaseApplication-backto-SBPClientApp" style="stroke:#181818;stroke-width:1.0;"/><polygon fill="none" points="1223.59,81.95,1219.63,61.13,1235.71,74.93,1223.59,81.95" style="stroke:#181818;stroke-width:1.0;"/></g><!--reverse link BaseApplication to SBPServerApp--><g id="link_BaseApplication_SBPServerApp"><path codeLine="97" d="M1189.05,80.33 C1168.03,141.96 1130.61,251.73 1109.04,314.98 " fill="none" id="BaseApplication-backto-SBPServerApp" style="stroke:#181818;stroke-width:1.0;"/><polygon fill="none" points="1182.54,77.72,1195.62,61.05,1195.79,82.24,1182.54,77.72" style="stroke:#181818;stroke-width:1.0;"/></g><!--reverse link SBPServerApp to Client--><g id="link_SBPServerApp_Client"><path codeLine="98" d="M1126.46,425.77 C1144.66,458.07 1166.51,496.86 1182.29,524.86 " fill="none" id="SBPServerApp-backto-Client" style="stroke:#181818;stroke-width:1.0;"/><polygon fill="none" points="1119.94,414.2,1119.4056,421.3913,1125.8382,424.6504,1126.3726,417.4592,1119.94,414.2" style="stroke:#181818;stroke-width:1.0;"/></g><!--link MainMenu to AbstractUI--><g id="link_MainMenu_AbstractUI"><path codeLine="99" d="M1410.02,403.23 C1429.72,432.12 1455.19,473.74 1469.5,514 C1494.96,585.62 1504.23,674.06 1507.59,726.87 " fill="none" id="MainMenu-to-AbstractUI" style="stroke:#181818;stroke-width:1.0;"/><polygon fill="none" points="1514.58,726.5,1508.69,746.85,1500.6,727.26,1514.58,726.5" style="stroke:#181818;stroke-width:1.0;"/></g><!--link ViewBoardUI to ViewBoardController--><g id="link_ViewBoardUI_ViewBoardController"><path codeLine="102" d="M1362.21,613.12 C1350.44,641.33 1335.46,677.23 1322.68,707.86 " fill="none" id="ViewBoardUI-to-ViewBoardController" style="stroke:#181818;stroke-width:1.0;"/><polygon fill="#181818" points="1320.65,712.73,1327.8113,705.9686,1322.5781,708.1167,1320.43,702.8836,1320.65,712.73" style="stroke:#181818;stroke-width:1.0;"/><text fill="#000000" font-family="sans-serif" font-size="13" lengthAdjust="spacing" textLength="7" x="1313.7992" y="699.9351">1</text></g><!--link ViewBoardController to SBProtocol--><g id="link_ViewBoardController_SBProtocol"><path codeLine="103" d="M1269.75,835.09 C1257.35,864.02 1242.34,899.03 1229.15,929.81 " fill="none" id="ViewBoardController-to-SBProtocol" style="stroke:#181818;stroke-width:1.0;"/><polygon fill="#181818" points="1227.05,934.71,1234.2719,928.0134,1229.0196,930.1143,1226.9187,924.862,1227.05,934.71" style="stroke:#181818;stroke-width:1.0;"/><text fill="#000000" font-family="sans-serif" font-size="13" lengthAdjust="spacing" textLength="5" x="1222.5329" y="921.841">*</text></g><!--link ViewBoardHandler to AbstractSBServerHandler--><g id="link_ViewBoardHandler_AbstractSBServerHandler"><path codeLine="105" d="M848.5,823.71 C848.5,863.82 848.5,920.31 848.5,959.74 " fill="none" id="ViewBoardHandler-to-AbstractSBServerHandler" style="stroke:#181818;stroke-width:1.0;"/><polygon fill="none" points="855.5,959.94,848.5,979.94,841.5,959.94,855.5,959.94" style="stroke:#181818;stroke-width:1.0;"/></g><!--link AbstractSBServerHandler to Runnable--><g id="link_AbstractSBServerHandler_Runnable"><path codeLine="106" d="M859.01,1034.41 C872.73,1068.87 896.95,1129.71 913.59,1171.51 " fill="none" id="AbstractSBServerHandler-to-Runnable" style="stroke:#181818;stroke-width:1.0;stroke-dasharray:7.0,7.0;"/><polygon fill="none" points="920.18,1169.14,921.07,1190.31,907.17,1174.31,920.18,1169.14" style="stroke:#181818;stroke-width:1.0;"/></g><!--link ViewBoardHandler to SBProtocol--><g id="link_ViewBoardHandler_SBProtocol"><path codeLine="107" d="M921.88,823.71 C969.2,855.12 1031.66,896.58 1085.05,932.02 " fill="none" id="ViewBoardHandler-to-SBProtocol" style="stroke:#181818;stroke-width:1.0;"/><polygon fill="#181818" points="1089.53,935,1084.2472,926.6878,1085.3654,932.2331,1079.8201,933.3513,1089.53,935" style="stroke:#181818;stroke-width:1.0;"/><text fill="#000000" font-family="sans-serif" font-size="13" lengthAdjust="spacing" textLength="5" x="1071.0347" y="921.5136">*</text></g><!--link ViewBoardHandler to BoardService--><g id="link_ViewBoardHandler_BoardService"><path codeLine="109" d="M784.19,823.71 C728.66,865.76 649.36,925.82 597.18,965.34 " fill="none" id="ViewBoardHandler-to-BoardService" style="stroke:#181818;stroke-width:1.0;"/><polygon fill="#181818" points="593.16,968.39,602.7511,966.1516,597.148,965.374,597.9255,959.7709,593.16,968.39" style="stroke:#181818;stroke-width:1.0;"/><text fill="#000000" font-family="sans-serif" font-size="13" lengthAdjust="spacing" textLength="7" x="591.474" y="955.3448">1</text></g><!--link BoardService to BoardRepository--><g id="link_BoardService_BoardRepository"><path codeLine="111" d="M510.9,1045.76 C479.53,1082.1 432.17,1136.95 399.65,1174.62 " fill="none" id="BoardService-to-BoardRepository" style="stroke:#181818;stroke-width:1.0;"/><polygon fill="#181818" points="396.16,1178.67,405.0711,1174.4757,399.4292,1174.8868,399.0181,1169.245,396.16,1178.67" style="stroke:#181818;stroke-width:1.0;"/><text fill="#000000" font-family="sans-serif" font-size="13" lengthAdjust="spacing" textLength="7" x="391.6584" y="1165.5884">1</text></g><!--link MenuRequest to SBProtocol--><g id="link_MenuRequest_SBProtocol"><path codeLine="113" d="M1040.69,602.08 C1054.17,631.95 1073.15,674.89 1088.5,713 C1117.9,786 1148.69,870.43 1169.83,929.85 " fill="none" id="MenuRequest-to-SBProtocol" style="stroke:#181818;stroke-width:1.0;"/><polygon fill="#181818" points="1171.59,934.8,1172.3526,924.9807,1169.9192,930.0874,1164.8125,927.654,1171.59,934.8" style="stroke:#181818;stroke-width:1.0;"/><text fill="#000000" font-family="sans-serif" font-size="13" lengthAdjust="spacing" textLength="7" x="1159.5965" y="921.6809">1</text></g><!--link MainMenu to ViewBoardUI--><g id="link_MainMenu_ViewBoardUI"><path codeLine="114" d="M1382.5,403.02 C1382.5,432.9 1382.5,475.13 1382.5,508.63 " fill="none" id="MainMenu-to-ViewBoardUI" style="stroke:#181818;stroke-width:1.0;"/><polygon fill="#181818" points="1382.5,513.92,1386.5,504.92,1382.5,508.92,1378.5,504.92,1382.5,513.92" style="stroke:#181818;stroke-width:1.0;"/><text fill="#000000" font-family="sans-serif" font-size="13" lengthAdjust="spacing" textLength="7" x="1372.7609" y="500.8823">1</text></g><!--link SBPClientApp to MainMenu--><g id="link_SBPClientApp_MainMenu"><path codeLine="115" d="M1305.97,215.12 C1320.42,243.13 1343.56,288.01 1360.62,321.09 " fill="none" id="SBPClientApp-to-MainMenu" style="stroke:#181818;stroke-width:1.0;"/><polygon fill="#181818" points="1363.1,325.88,1362.5146,316.0486,1360.8013,321.4397,1355.4102,319.7264,1363.1,325.88" style="stroke:#181818;stroke-width:1.0;"/><text fill="#000000" font-family="sans-serif" font-size="13" lengthAdjust="spacing" textLength="7" x="1349.9759" y="312.8332">1</text></g><!--link SBPServerApp to MenuRequest--><g id="link_SBPServerApp_MenuRequest"><path codeLine="116" d="M1075.44,414.2 C1064.08,446.64 1049.29,488.87 1038.4,519.97 " fill="none" id="SBPServerApp-to-MenuRequest" style="stroke:#181818;stroke-width:1.0;"/><polygon fill="#181818" points="1036.68,524.86,1043.4383,517.6958,1038.3381,520.1429,1035.891,515.0428,1036.68,524.86" style="stroke:#181818;stroke-width:1.0;"/><text fill="#000000" font-family="sans-serif" font-size="13" lengthAdjust="spacing" textLength="7" x="1028.952" y="511.8098">1</text></g><!--link MenuRequest to ViewBoardHandler--><g id="link_MenuRequest_ViewBoardHandler"><path codeLine="117" d="M991.81,602.26 C963.05,636.52 920.48,687.24 889.21,724.5 " fill="none" id="MenuRequest-ViewBoardHandler" style="stroke:#181818;stroke-width:1.0;"/></g><!--link ViewBoardHandler to SBPServerApp--><g id="link_ViewBoardHandler_SBPServerApp"><path codeLine="118" d="M856.59,724.49 C867.36,669.95 890.15,580.34 932.5,514 C956.97,475.67 993.66,440.64 1025.73,414.25 " fill="none" id="ViewBoardHandler-SBPServerApp" style="stroke:#181818;stroke-width:1.0;"/></g><!--link Thread to Runnable--><g id="link_Thread_Runnable"><path codeLine="123" d="M1022.76,801.05 C1020.76,854.15 1013.44,978.39 987.5,1079 C979.24,1111.02 965.2,1145.48 953.24,1171.89 " fill="none" id="Thread-to-Runnable" style="stroke:#181818;stroke-width:1.0;stroke-dasharray:7.0,7.0;"/><polygon fill="none" points="959.43,1175.18,944.63,1190.35,946.74,1169.27,959.43,1175.18" style="stroke:#181818;stroke-width:1.0;"/></g><!--link SBProtocol to MessageProtocol--><g id="link_SBProtocol_MessageProtocol"><path codeLine="124" d="M1196.5,1079.17 C1196.5,1109.27 1196.5,1143.48 1196.5,1170.23 " fill="none" id="SBProtocol-to-MessageProtocol" style="stroke:#181818;stroke-width:1.0;stroke-dasharray:7.0,7.0;"/><polygon fill="none" points="1203.5,1170.27,1196.5,1190.27,1189.5,1170.27,1203.5,1170.27" style="stroke:#181818;stroke-width:1.0;"/></g><!--link JpaBoardRepository to BoardRepository--><g id="link_JpaBoardRepository_BoardRepository"><path codeLine="125" d="M225.47,1056.62 C253.15,1088.68 289.39,1130.66 317.8,1163.56 " fill="none" id="JpaBoardRepository-to-BoardRepository" style="stroke:#181818;stroke-width:1.0;stroke-dasharray:7.0,7.0;"/><polygon fill="none" points="323.27,1159.18,331.04,1178.9,312.67,1168.33,323.27,1159.18" style="stroke:#181818;stroke-width:1.0;"/></g><!--SRC=[bLHDSzCm4BthLsZAeGcf-y69OPZC964wBKDf9swvAzOIQofBGf8R2kI_ixOSHxO3b5nYxRxTVRlxfEFSU-FUdPqPoPGl2tcQwU8iayovX0ksjgmWn3qAPHX-qjenyzwALUdXEjCg5J-0daSGmpWNQatVH3RBrAC3Go_Ep_l9BhNoTOwBjuGGeJpOhom3kYoLOYi9aUa6d6DhkBFQwqpB63tNpF8b6Es4r_QP_2IKJgHmldQu1mTsmTGN0PjH-kmy59M5weq2EoPqImXREMzPvkci-NYunYJeg4dIAh9ELPif_bvHhjDSRqRZ-ZYXEJ0kXG8q3CCMsANLKeB5SDAdThjHxhFsCvlbuWbubNB2caD0ZL8SEGvrLPtkXPTGOJAf7QGwUmGVgWwwIESfs2UmLqnnB7weeyQ5l2QsL9WdSQ12MUHLizasCUdyBgIR6LFXwHLp-Gqpx-SjhPFwSng8kWWI6ZXPI07AJobom-vcfS_TdjCDg789tqfmVazd-x-gQBdkBBYm2NNW5vh320DfXX_ZreYPbB-qkWWKTwFEyBy1AJxwm3oxBRqfFPe1nQjBNtlNROgPQnACoRwbZuODjVcFzGyLUY3WB-YsU1Xs8zW9CgrGd_Hw3VnQnJgjKrUh5HdKuthfrTb6umxLAcb4GcpoCmVea29ZNcZLxfi9LUqSIoQhKaY-CmHkv1Y-us1HHj7reqdoQnhVqaWqmNUVuu8uYHdHf3ILgyyZ5lIBC3f9TbFTSHqG8iSSJ4MRQZKIXT7Mkt6lXIazkZWw-3mSi0NywwDOqwH_VxiqUlUU_C5EJqyngBrK1tA-g73efYCY4fze5nFTXTxs0YYg5WsvDp8ST7V33Q3LL7UtEs_qmdHB3n_40ursNy1AeRXV2GLoS2JehZVIVI_1qN-jXkz3m0q6HNu3]--></g></svg>