<?xml version="1.0" encoding="us-ascii" standalone="no"?><svg xmlns="http://www.w3.org/2000/svg" xmlns:xlink="http://www.w3.org/1999/xlink" contentStyleType="text/css" height="311px" preserveAspectRatio="none" style="width:310px;height:311px;background:#FFFFFF;" version="1.1" viewBox="0 0 310 311" width="310px" zoomAndPan="magnify"><defs/><g><line style="stroke:#181818;stroke-width:0.5;stroke-dasharray:5.0,5.0;" x1="26" x2="26" y1="83.6211" y2="228.7852"/><line style="stroke:#181818;stroke-width:0.5;stroke-dasharray:5.0,5.0;" x1="281" x2="281" y1="83.6211" y2="228.7852"/><text fill="#000000" font-family="sans-serif" font-size="14" lengthAdjust="spacing" textLength="36" x="5" y="80.1074">Client</text><ellipse cx="26" cy="13.5" fill="#E2E2F0" rx="8" ry="8" style="stroke:#181818;stroke-width:0.5;"/><path d="M26,21.5 L26,48.5 M13,29.5 L39,29.5 M26,48.5 L13,63.5 M26,48.5 L39,63.5 " fill="none" style="stroke:#181818;stroke-width:0.5;"/><text fill="#000000" font-family="sans-serif" font-size="14" lengthAdjust="spacing" textLength="36" x="5" y="242.8926">Client</text><ellipse cx="26" cy="254.9063" fill="#E2E2F0" rx="8" ry="8" style="stroke:#181818;stroke-width:0.5;"/><path d="M26,262.9063 L26,289.9063 M13,270.9063 L39,270.9063 M26,289.9063 L13,304.9063 M26,289.9063 L39,304.9063 " fill="none" style="stroke:#181818;stroke-width:0.5;"/><text fill="#000000" font-family="sans-serif" font-size="14" lengthAdjust="spacing" textLength="50" x="253" y="80.1074">browser</text><ellipse cx="281" cy="13.5" fill="#E2E2F0" rx="8" ry="8" style="stroke:#181818;stroke-width:0.5;"/><path d="M281,21.5 L281,48.5 M268,29.5 L294,29.5 M281,48.5 L268,63.5 M281,48.5 L294,63.5 " fill="none" style="stroke:#181818;stroke-width:0.5;"/><text fill="#000000" font-family="sans-serif" font-size="14" lengthAdjust="spacing" textLength="50" x="253" y="242.8926">browser</text><ellipse cx="281" cy="254.9063" fill="#E2E2F0" rx="8" ry="8" style="stroke:#181818;stroke-width:0.5;"/><path d="M281,262.9063 L281,289.9063 M268,270.9063 L294,270.9063 M281,289.9063 L268,304.9063 M281,289.9063 L294,304.9063 " fill="none" style="stroke:#181818;stroke-width:0.5;"/><polygon fill="#181818" points="37,112.9121,27,116.9121,37,120.9121,33,116.9121" style="stroke:#181818;stroke-width:1.0;"/><line style="stroke:#181818;stroke-width:1.0;" x1="31" x2="280" y1="116.9121" y2="116.9121"/><text fill="#000000" font-family="sans-serif" font-size="13" lengthAdjust="spacing" textLength="71" x="43" y="111.6494">open socket</text><polygon fill="#181818" points="269,144.2031,279,148.2031,269,152.2031,273,148.2031" style="stroke:#181818;stroke-width:1.0;"/><line style="stroke:#181818;stroke-width:1.0;stroke-dasharray:2.0,2.0;" x1="26" x2="275" y1="148.2031" y2="148.2031"/><text fill="#000000" font-family="sans-serif" font-size="13" lengthAdjust="spacing" textLength="231" x="33" y="142.9404">accept socket and sends HTML content</text><polygon fill="#181818" points="37,175.4941,27,179.4941,37,183.4941,33,179.4941" style="stroke:#181818;stroke-width:1.0;"/><line style="stroke:#181818;stroke-width:1.0;" x1="31" x2="280" y1="179.4941" y2="179.4941"/><text fill="#000000" font-family="sans-serif" font-size="13" lengthAdjust="spacing" textLength="61" x="43" y="174.2314">get boards</text><polygon fill="#181818" points="269,206.7852,279,210.7852,269,214.7852,273,210.7852" style="stroke:#181818;stroke-width:1.0;"/><line style="stroke:#181818;stroke-width:1.0;stroke-dasharray:2.0,2.0;" x1="26" x2="275" y1="210.7852" y2="210.7852"/><text fill="#000000" font-family="sans-serif" font-size="13" lengthAdjust="spacing" textLength="64" x="33" y="205.5225">send board</text><!--SRC=[ROqn3i9030Hxls8_S1-840qDHUZuWEEp40BPqTaItuTB0g98jzeTpRAaDvoUTxK41sH9n4izDN-5jjvlaMW5S2Y_TO3FQWYNX-PtB-Nu1x28phaXOAi8jHeuNoyZn2txvvxvzi4dvrPZNzmrAq3q1W00]--></g></svg>