<?xml version="1.0" encoding="us-ascii" standalone="no"?><svg xmlns="http://www.w3.org/2000/svg" xmlns:xlink="http://www.w3.org/1999/xlink" contentStyleType="text/css" height="343px" preserveAspectRatio="none" style="width:251px;height:343px;background:#FFFFFF;" version="1.1" viewBox="0 0 251 343" width="251px" zoomAndPan="magnify"><defs/><g><line style="stroke:#181818;stroke-width:0.5;stroke-dasharray:5.0,5.0;" x1="26" x2="26" y1="83.6211" y2="260.0762"/><line style="stroke:#181818;stroke-width:0.5;stroke-dasharray:5.0,5.0;" x1="226" x2="226" y1="83.6211" y2="260.0762"/><text fill="#000000" font-family="sans-serif" font-size="14" lengthAdjust="spacing" textLength="36" x="5" y="80.1074">Client</text><ellipse cx="26" cy="13.5" fill="#E2E2F0" rx="8" ry="8" style="stroke:#181818;stroke-width:0.5;"/><path d="M26,21.5 L26,48.5 M13,29.5 L39,29.5 M26,48.5 L13,63.5 M26,48.5 L39,63.5 " fill="none" style="stroke:#181818;stroke-width:0.5;"/><text fill="#000000" font-family="sans-serif" font-size="14" lengthAdjust="spacing" textLength="36" x="5" y="274.1836">Client</text><ellipse cx="26" cy="286.1973" fill="#E2E2F0" rx="8" ry="8" style="stroke:#181818;stroke-width:0.5;"/><path d="M26,294.1973 L26,321.1973 M13,302.1973 L39,302.1973 M26,321.1973 L13,336.1973 M26,321.1973 L39,336.1973 " fill="none" style="stroke:#181818;stroke-width:0.5;"/><text fill="#000000" font-family="sans-serif" font-size="14" lengthAdjust="spacing" textLength="42" x="202" y="80.1074">Server</text><ellipse cx="226" cy="13.5" fill="#E2E2F0" rx="8" ry="8" style="stroke:#181818;stroke-width:0.5;"/><path d="M226,21.5 L226,48.5 M213,29.5 L239,29.5 M226,48.5 L213,63.5 M226,48.5 L239,63.5 " fill="none" style="stroke:#181818;stroke-width:0.5;"/><text fill="#000000" font-family="sans-serif" font-size="14" lengthAdjust="spacing" textLength="42" x="202" y="274.1836">Server</text><ellipse cx="226" cy="286.1973" fill="#E2E2F0" rx="8" ry="8" style="stroke:#181818;stroke-width:0.5;"/><path d="M226,294.1973 L226,321.1973 M213,302.1973 L239,302.1973 M226,321.1973 L213,336.1973 M226,321.1973 L239,336.1973 " fill="none" style="stroke:#181818;stroke-width:0.5;"/><polygon fill="#181818" points="214,112.9121,224,116.9121,214,120.9121,218,116.9121" style="stroke:#181818;stroke-width:1.0;"/><line style="stroke:#181818;stroke-width:1.0;" x1="26" x2="220" y1="116.9121" y2="116.9121"/><text fill="#000000" font-family="sans-serif" font-size="13" lengthAdjust="spacing" textLength="69" x="33" y="111.6494">openSocket</text><polygon fill="#181818" points="37,144.2031,27,148.2031,37,152.2031,33,148.2031" style="stroke:#181818;stroke-width:1.0;"/><line style="stroke:#181818;stroke-width:1.0;stroke-dasharray:2.0,2.0;" x1="31" x2="225" y1="148.2031" y2="148.2031"/><text fill="#000000" font-family="sans-serif" font-size="13" lengthAdjust="spacing" textLength="82" x="43" y="142.9404">accept socket</text><polygon fill="#181818" points="214,175.4941,224,179.4941,214,183.4941,218,179.4941" style="stroke:#181818;stroke-width:1.0;"/><line style="stroke:#181818;stroke-width:1.0;" x1="26" x2="220" y1="179.4941" y2="179.4941"/><text fill="#000000" font-family="sans-serif" font-size="13" lengthAdjust="spacing" textLength="98" x="33" y="174.2314">viewBoards(user)</text><polygon fill="#181818" points="37,206.7852,27,210.7852,37,214.7852,33,210.7852" style="stroke:#181818;stroke-width:1.0;"/><line style="stroke:#181818;stroke-width:1.0;stroke-dasharray:2.0,2.0;" x1="31" x2="225" y1="210.7852" y2="210.7852"/><text fill="#000000" font-family="sans-serif" font-size="13" lengthAdjust="spacing" textLength="176" x="43" y="205.5225">board with permissions to view</text><polygon fill="#181818" points="214,238.0762,224,242.0762,214,246.0762,218,242.0762" style="stroke:#181818;stroke-width:1.0;"/><line style="stroke:#181818;stroke-width:1.0;" x1="26" x2="220" y1="242.0762" y2="242.0762"/><text fill="#000000" font-family="sans-serif" font-size="13" lengthAdjust="spacing" textLength="116" x="33" y="236.8135">chooseBoard(board)</text><!--SRC=[ROnB3i8m34JtESKisqKkK24MS8IU81XBZO0uYarxVQZv2S5kzDxC939fs9yp5qDIaAUG78_SPcuhLayXF3JYzaamG2gNKUZ4zhAR63yw4N4rw5VZlHymPrvsajfHk-kTzRyd0mwhnv9jGkLsoQfPYiB4rtzEQH9HzjlEntq8Dm00]--></g></svg>