<?xml version="1.0" encoding="us-ascii" standalone="no"?><svg xmlns="http://www.w3.org/2000/svg" xmlns:xlink="http://www.w3.org/1999/xlink" contentStyleType="text/css" height="992px" preserveAspectRatio="none" style="width:584px;height:992px;background:#FFFFFF;" version="1.1" viewBox="0 0 584 992" width="584px" zoomAndPan="magnify"><defs/><g><rect fill="#FFFFFF" height="85.873" style="stroke:#181818;stroke-width:1.0;" width="10" x="33" y="265.3672"/><rect fill="#FFFFFF" height="68.582" style="stroke:#181818;stroke-width:1.0;" width="10" x="33" y="676.1504"/><rect fill="#FFFFFF" height="731.0479" style="stroke:#181818;stroke-width:1.0;" width="10" x="198" y="159.8486"/><rect fill="#FFFFFF" height="31.291" style="stroke:#181818;stroke-width:1.0;" width="10" x="362" y="202.7852"/><rect fill="#FFFFFF" height="31.291" style="stroke:#181818;stroke-width:1.0;" width="10" x="362" y="613.5684"/><rect fill="#FFFFFF" height="31.291" style="stroke:#181818;stroke-width:1.0;" width="10" x="463.5" y="445.1133"/><rect fill="#FFFFFF" height="31.291" style="stroke:#181818;stroke-width:1.0;" width="10" x="548" y="382.5313"/><rect fill="none" height="63.582" style="stroke:#000000;stroke-width:1.5;" width="225.5" x="101.5" y="759.7324"/><line style="stroke:#181818;stroke-width:0.5;stroke-dasharray:5.0,5.0;" x1="38" x2="38" y1="83.6211" y2="908.8965"/><line style="stroke:#181818;stroke-width:0.5;stroke-dasharray:5.0,5.0;" x1="202.5" x2="202.5" y1="83.6211" y2="908.8965"/><line style="stroke:#181818;stroke-width:0.5;stroke-dasharray:5.0,5.0;" x1="367" x2="367" y1="83.6211" y2="908.8965"/><line style="stroke:#181818;stroke-width:0.5;stroke-dasharray:5.0,5.0;" x1="468" x2="468" y1="83.6211" y2="908.8965"/><line style="stroke:#181818;stroke-width:0.5;stroke-dasharray:5.0,5.0;" x1="553" x2="553" y1="83.6211" y2="908.8965"/><text fill="#000000" font-family="sans-serif" font-size="14" lengthAdjust="spacing" textLength="60" x="5" y="80.1074">SBServer</text><ellipse cx="38" cy="13.5" fill="#E2E2F0" rx="8" ry="8" style="stroke:#181818;stroke-width:0.5;"/><path d="M38,21.5 L38,48.5 M25,29.5 L51,29.5 M38,48.5 L25,63.5 M38,48.5 L51,63.5 " fill="none" style="stroke:#181818;stroke-width:0.5;"/><text fill="#000000" font-family="sans-serif" font-size="14" lengthAdjust="spacing" textLength="60" x="5" y="923.0039">SBServer</text><ellipse cx="38" cy="935.0176" fill="#E2E2F0" rx="8" ry="8" style="stroke:#181818;stroke-width:0.5;"/><path d="M38,943.0176 L38,970.0176 M25,951.0176 L51,951.0176 M38,970.0176 L25,985.0176 M38,970.0176 L51,985.0176 " fill="none" style="stroke:#181818;stroke-width:0.5;"/><rect fill="#E2E2F0" height="32.6211" rx="2.5" ry="2.5" style="stroke:#181818;stroke-width:0.5;" width="183" x="111.5" y="50"/><text fill="#000000" font-family="sans-serif" font-size="14" lengthAdjust="spacing" textLength="169" x="118.5" y="72.1074">ViewBoardRequestHandler</text><rect fill="#E2E2F0" height="32.6211" rx="2.5" ry="2.5" style="stroke:#181818;stroke-width:0.5;" width="183" x="111.5" y="907.8965"/><text fill="#000000" font-family="sans-serif" font-size="14" lengthAdjust="spacing" textLength="169" x="118.5" y="930.0039">ViewBoardRequestHandler</text><rect fill="#E2E2F0" height="32.6211" rx="2.5" ry="2.5" style="stroke:#181818;stroke-width:0.5;" width="84" x="325" y="50"/><text fill="#000000" font-family="sans-serif" font-size="14" lengthAdjust="spacing" textLength="70" x="332" y="72.1074">SBProtocol</text><rect fill="#E2E2F0" height="32.6211" rx="2.5" ry="2.5" style="stroke:#181818;stroke-width:0.5;" width="84" x="325" y="907.8965"/><text fill="#000000" font-family="sans-serif" font-size="14" lengthAdjust="spacing" textLength="70" x="332" y="930.0039">SBProtocol</text><rect fill="#E2E2F0" height="32.6211" rx="2.5" ry="2.5" style="stroke:#181818;stroke-width:0.5;" width="99" x="419" y="50"/><text fill="#000000" font-family="sans-serif" font-size="14" lengthAdjust="spacing" textLength="85" x="426" y="72.1074">BoardService</text><rect fill="#E2E2F0" height="32.6211" rx="2.5" ry="2.5" style="stroke:#181818;stroke-width:0.5;" width="99" x="419" y="907.8965"/><text fill="#000000" font-family="sans-serif" font-size="14" lengthAdjust="spacing" textLength="85" x="426" y="930.0039">BoardService</text><rect fill="#E2E2F0" height="32.6211" rx="2.5" ry="2.5" style="stroke:#181818;stroke-width:0.5;" width="50" x="528" y="50"/><text fill="#000000" font-family="sans-serif" font-size="14" lengthAdjust="spacing" textLength="36" x="535" y="72.1074">Client</text><rect fill="#E2E2F0" height="32.6211" rx="2.5" ry="2.5" style="stroke:#181818;stroke-width:0.5;" width="50" x="528" y="907.8965"/><text fill="#000000" font-family="sans-serif" font-size="14" lengthAdjust="spacing" textLength="36" x="535" y="930.0039">Client</text><rect fill="#FFFFFF" height="85.873" style="stroke:#181818;stroke-width:1.0;" width="10" x="33" y="265.3672"/><rect fill="#FFFFFF" height="68.582" style="stroke:#181818;stroke-width:1.0;" width="10" x="33" y="676.1504"/><rect fill="#FFFFFF" height="731.0479" style="stroke:#181818;stroke-width:1.0;" width="10" x="198" y="159.8486"/><rect fill="#FFFFFF" height="31.291" style="stroke:#181818;stroke-width:1.0;" width="10" x="362" y="202.7852"/><rect fill="#FFFFFF" height="31.291" style="stroke:#181818;stroke-width:1.0;" width="10" x="362" y="613.5684"/><rect fill="#FFFFFF" height="31.291" style="stroke:#181818;stroke-width:1.0;" width="10" x="463.5" y="445.1133"/><rect fill="#FFFFFF" height="31.291" style="stroke:#181818;stroke-width:1.0;" width="10" x="548" y="382.5313"/><polygon fill="#181818" points="191,112.9121,201,116.9121,191,120.9121,195,116.9121" style="stroke:#181818;stroke-width:1.0;"/><line style="stroke:#181818;stroke-width:1.0;" x1="38" x2="197" y1="116.9121" y2="116.9121"/><text fill="#000000" font-family="sans-serif" font-size="13" lengthAdjust="spacing" textLength="134" x="45" y="111.6494">create(socket, request)</text><polygon fill="#181818" points="186,155.8486,196,159.8486,186,163.8486,190,159.8486" style="stroke:#181818;stroke-width:1.0;"/><line style="stroke:#181818;stroke-width:1.0;" x1="38" x2="192" y1="159.8486" y2="159.8486"/><text fill="#000000" font-family="sans-serif" font-size="13" lengthAdjust="spacing" textLength="26" x="45" y="154.5859">run()</text><path d="M213,129.9121 L213,173.9121 L546,173.9121 L546,139.9121 L536,129.9121 L213,129.9121 " fill="#FEFFDD" style="stroke:#181818;stroke-width:0.5;"/><path d="M536,129.9121 L536,139.9121 L546,139.9121 L536,129.9121 " fill="#FEFFDD" style="stroke:#181818;stroke-width:0.5;"/><text fill="#000000" font-family="sans-serif" font-size="13" lengthAdjust="spacing" textLength="312" x="219" y="148.9404">create instance of socket with serverIp and serverPort,</text><text fill="#000000" font-family="sans-serif" font-size="13" lengthAdjust="spacing" textLength="256" x="219" y="166.2314">a input stream(inS) and output Stream(outS)</text><polygon fill="#181818" points="350,198.7852,360,202.7852,350,206.7852,354,202.7852" style="stroke:#181818;stroke-width:1.0;"/><line style="stroke:#181818;stroke-width:1.0;" x1="208" x2="356" y1="202.7852" y2="202.7852"/><text fill="#000000" font-family="sans-serif" font-size="13" lengthAdjust="spacing" textLength="61" x="215" y="197.5225">getToken()</text><polygon fill="#181818" points="219,230.0762,209,234.0762,219,238.0762,215,234.0762" style="stroke:#181818;stroke-width:1.0;"/><line style="stroke:#181818;stroke-width:1.0;stroke-dasharray:2.0,2.0;" x1="213" x2="366" y1="234.0762" y2="234.0762"/><text fill="#000000" font-family="sans-serif" font-size="13" lengthAdjust="spacing" textLength="32" x="225" y="228.8135">token</text><polygon fill="#181818" points="54,261.3672,44,265.3672,54,269.3672,50,265.3672" style="stroke:#181818;stroke-width:1.0;"/><line style="stroke:#181818;stroke-width:1.0;" x1="48" x2="197" y1="265.3672" y2="265.3672"/><text fill="#000000" font-family="sans-serif" font-size="13" lengthAdjust="spacing" textLength="91" x="60" y="260.1045">getClient(token)</text><path d="M48,278.3672 L48,322.3672 L232,322.3672 L232,288.3672 L222,278.3672 L48,278.3672 " fill="#FEFFDD" style="stroke:#181818;stroke-width:0.5;"/><path d="M222,278.3672 L222,288.3672 L232,288.3672 L222,278.3672 " fill="#FEFFDD" style="stroke:#181818;stroke-width:0.5;"/><text fill="#000000" font-family="sans-serif" font-size="13" lengthAdjust="spacing" textLength="156" x="54" y="297.3955">clients associated to token</text><text fill="#000000" font-family="sans-serif" font-size="13" lengthAdjust="spacing" textLength="163" x="54" y="314.6865">are stored at SBPServerApp</text><polygon fill="#181818" points="186,347.2402,196,351.2402,186,355.2402,190,351.2402" style="stroke:#181818;stroke-width:1.0;"/><line style="stroke:#181818;stroke-width:1.0;stroke-dasharray:2.0,2.0;" x1="38" x2="192" y1="351.2402" y2="351.2402"/><text fill="#000000" font-family="sans-serif" font-size="13" lengthAdjust="spacing" textLength="31" x="45" y="345.9775">client</text><polygon fill="#181818" points="536,378.5313,546,382.5313,536,386.5313,540,382.5313" style="stroke:#181818;stroke-width:1.0;"/><line style="stroke:#181818;stroke-width:1.0;" x1="208" x2="542" y1="382.5313" y2="382.5313"/><text fill="#000000" font-family="sans-serif" font-size="13" lengthAdjust="spacing" textLength="53" x="215" y="377.2686">getUser()</text><polygon fill="#181818" points="219,409.8223,209,413.8223,219,417.8223,215,413.8223" style="stroke:#181818;stroke-width:1.0;"/><line style="stroke:#181818;stroke-width:1.0;stroke-dasharray:2.0,2.0;" x1="213" x2="552" y1="413.8223" y2="413.8223"/><text fill="#000000" font-family="sans-serif" font-size="13" lengthAdjust="spacing" textLength="25" x="225" y="408.5596">user</text><polygon fill="#181818" points="451.5,441.1133,461.5,445.1133,451.5,449.1133,455.5,445.1133" style="stroke:#181818;stroke-width:1.0;"/><line style="stroke:#181818;stroke-width:1.0;" x1="208" x2="457.5" y1="445.1133" y2="445.1133"/><text fill="#000000" font-family="sans-serif" font-size="13" lengthAdjust="spacing" textLength="143" x="215" y="439.8506">boardUserCanView(user)</text><polygon fill="#181818" points="219,472.4043,209,476.4043,219,480.4043,215,476.4043" style="stroke:#181818;stroke-width:1.0;"/><line style="stroke:#181818;stroke-width:1.0;stroke-dasharray:2.0,2.0;" x1="213" x2="467.5" y1="476.4043" y2="476.4043"/><text fill="#000000" font-family="sans-serif" font-size="13" lengthAdjust="spacing" textLength="39" x="225" y="471.1416">boards</text><path d="M213,489.4043 L213,516.4043 L390,516.4043 L390,499.4043 L380,489.4043 L213,489.4043 " fill="#FEFFDD" style="stroke:#181818;stroke-width:0.5;"/><path d="M380,489.4043 L380,499.4043 L390,499.4043 L380,489.4043 " fill="#FEFFDD" style="stroke:#181818;stroke-width:0.5;"/><text fill="#000000" font-family="sans-serif" font-size="13" lengthAdjust="spacing" textLength="156" x="219" y="508.4326">create protocol with boards</text><polygon fill="#181818" points="355,540.9863,365,544.9863,355,548.9863,359,544.9863" style="stroke:#181818;stroke-width:1.0;"/><line style="stroke:#181818;stroke-width:1.0;" x1="208" x2="361" y1="544.9863" y2="544.9863"/><text fill="#000000" font-family="sans-serif" font-size="13" lengthAdjust="spacing" textLength="63" x="215" y="539.7236">send(outS)</text><polygon fill="#181818" points="355,575.2773,365,579.2773,355,583.2773,359,579.2773" style="stroke:#181818;stroke-width:1.0;"/><line style="stroke:#181818;stroke-width:1.0;" x1="208" x2="361" y1="579.2773" y2="579.2773"/><text fill="#000000" font-family="sans-serif" font-size="13" lengthAdjust="spacing" textLength="63" x="215" y="574.0146">create(inS)</text><path d="M372,557.9863 L372,584.9863 L515,584.9863 L515,567.9863 L505,557.9863 L372,557.9863 " fill="#FEFFDD" style="stroke:#181818;stroke-width:0.5;"/><path d="M505,557.9863 L505,567.9863 L515,567.9863 L505,557.9863 " fill="#FEFFDD" style="stroke:#181818;stroke-width:0.5;"/><text fill="#000000" font-family="sans-serif" font-size="13" lengthAdjust="spacing" textLength="122" x="378" y="577.0146">receive board chosen</text><polygon fill="#181818" points="350,609.5684,360,613.5684,350,617.5684,354,613.5684" style="stroke:#181818;stroke-width:1.0;"/><line style="stroke:#181818;stroke-width:1.0;" x1="208" x2="356" y1="613.5684" y2="613.5684"/><text fill="#000000" font-family="sans-serif" font-size="13" lengthAdjust="spacing" textLength="135" x="215" y="608.3057">getContentFromString()</text><polygon fill="#181818" points="219,640.8594,209,644.8594,219,648.8594,215,644.8594" style="stroke:#181818;stroke-width:1.0;"/><line style="stroke:#181818;stroke-width:1.0;stroke-dasharray:2.0,2.0;" x1="213" x2="366" y1="644.8594" y2="644.8594"/><text fill="#000000" font-family="sans-serif" font-size="13" lengthAdjust="spacing" textLength="76" x="225" y="639.5967">boardChosen</text><polygon fill="#181818" points="54,672.1504,44,676.1504,54,680.1504,50,676.1504" style="stroke:#181818;stroke-width:1.0;"/><line style="stroke:#181818;stroke-width:1.0;" x1="48" x2="197" y1="676.1504" y2="676.1504"/><text fill="#000000" font-family="sans-serif" font-size="13" lengthAdjust="spacing" textLength="136" x="60" y="670.8877">getBoard(boardChosen)</text><path d="M48,689.1504 L48,716.1504 L253,716.1504 L253,699.1504 L243,689.1504 L48,689.1504 " fill="#FEFFDD" style="stroke:#181818;stroke-width:0.5;"/><path d="M243,689.1504 L243,699.1504 L253,699.1504 L243,689.1504 " fill="#FEFFDD" style="stroke:#181818;stroke-width:0.5;"/><text fill="#000000" font-family="sans-serif" font-size="13" lengthAdjust="spacing" textLength="184" x="54" y="708.1787">boards stored at SBPServerApp</text><polygon fill="#181818" points="186,740.7324,196,744.7324,186,748.7324,190,744.7324" style="stroke:#181818;stroke-width:1.0;"/><line style="stroke:#181818;stroke-width:1.0;stroke-dasharray:2.0,2.0;" x1="38" x2="192" y1="744.7324" y2="744.7324"/><text fill="#000000" font-family="sans-serif" font-size="13" lengthAdjust="spacing" textLength="32" x="45" y="739.4697">board</text><path d="M101.5,759.7324 L174.5,759.7324 L174.5,769.0234 L164.5,779.0234 L101.5,779.0234 L101.5,759.7324 " fill="#EEEEEE" style="stroke:#000000;stroke-width:1.5;"/><rect fill="none" height="63.582" style="stroke:#000000;stroke-width:1.5;" width="225.5" x="101.5" y="759.7324"/><text fill="#000000" font-family="sans-serif" font-size="13" font-weight="bold" lengthAdjust="spacing" textLength="28" x="116.5" y="774.7607">loop</text><text fill="#000000" font-family="sans-serif" font-size="11" font-weight="bold" lengthAdjust="spacing" textLength="123" x="189.5" y="773.6025">[for each cell in board]</text><line style="stroke:#181818;stroke-width:1.0;" x1="208" x2="250" y1="802.3145" y2="802.3145"/><line style="stroke:#181818;stroke-width:1.0;" x1="250" x2="250" y1="802.3145" y2="815.3145"/><line style="stroke:#181818;stroke-width:1.0;" x1="209" x2="250" y1="815.3145" y2="815.3145"/><polygon fill="#181818" points="219,811.3145,209,815.3145,219,819.3145,215,815.3145" style="stroke:#181818;stroke-width:1.0;"/><text fill="#000000" font-family="sans-serif" font-size="13" lengthAdjust="spacing" textLength="100" x="215" y="797.0518">generateCellInfo()</text><path d="M213,835.3145 L213,862.3145 L402,862.3145 L402,845.3145 L392,835.3145 L213,835.3145 " fill="#FEFFDD" style="stroke:#181818;stroke-width:0.5;"/><path d="M392,835.3145 L392,845.3145 L402,845.3145 L392,835.3145 " fill="#FEFFDD" style="stroke:#181818;stroke-width:0.5;"/><text fill="#000000" font-family="sans-serif" font-size="13" lengthAdjust="spacing" textLength="168" x="219" y="854.3428">create protocol with cells info</text><polygon fill="#181818" points="355,886.8965,365,890.8965,355,894.8965,359,890.8965" style="stroke:#181818;stroke-width:1.0;"/><line style="stroke:#181818;stroke-width:1.0;" x1="203" x2="361" y1="890.8965" y2="890.8965"/><text fill="#000000" font-family="sans-serif" font-size="13" lengthAdjust="spacing" textLength="67" x="210" y="885.6338">send(outS))</text><!--SRC=[dLJ1Rjim3BtxAtXqWEO7Xc70Oc1ORyNSxRIB9ZE9K5Tq9Jhz_L6IBSYfq2troPB8nqVgFIdDvA0_zEWkw41vyF6lQIRbs6WpASlmo-3hWPGRVk3BZ9w_ApkCALop6pUn_U714PEcCHnFo_yc94A5YaPZ2FfJh9i6v4iaOFybuiCdq0uLO-j9Fo7VWKiyTlLWDzis7IdDvYA9YMROiIGhPqvdpgXWh6TbXGiT8LM0LyFd1VX-0cbtMJoGuxlVLadED3Du5eJdrjX-5uDevh3TfsrPzRlKKFWYEs6vpaG8d90VwGbNkXlAUNIR_C_xVGd08Jj73FYFRAc-J2lMxaQ3bji8Kc6mI67TBqON1hNYw0ZYvI9bTaRo1c6LY85CoWcEQ4nsLHH7KjhNQSguw_qLjnqXQsrTKLgRIesafdvAJ6sUtHOqJpFdphv0BchM4gLcgLh9ZijGkrCs-AKDS1KQRyM-OLD3zJLM6vpw5GNGBF8icYZjAzoAD3tQuJyKl1WpEA32Gho86irbeGlwJBxGQzqH7LcMWNzpz2n6ClRqONV4ejssvdiUkTK_yI5hYoeVDb6wZzkT4lFUCKe-6eacECfRBo5dq3YEyeHTfPTjBlWdjEW4hvE4UtkauYf47n6rkLrzeRoN-aTwCzww11SD5lt51rs-lm00]--></g></svg>