<?xml version="1.0" encoding="us-ascii" standalone="no"?><svg xmlns="http://www.w3.org/2000/svg" xmlns:xlink="http://www.w3.org/1999/xlink" contentStyleType="text/css" height="757.6px" preserveAspectRatio="none" style="width:1426px;height:757px;background:#FFFFFF;" version="1.1" viewBox="0 0 1426 757" width="1426.4px" zoomAndPan="magnify"><defs/><g><rect fill="#FFFFFF" height="448.0594" style="stroke:#181818;stroke-width:0.8000000000000002;" width="8" x="166.4" y="93.5297"/><rect fill="#FFFFFF" height="110.5313" style="stroke:#181818;stroke-width:0.8000000000000002;" width="8" x="166.4" y="566.6219"/><rect fill="#FFFFFF" height="148.1313" style="stroke:#181818;stroke-width:0.8000000000000002;" width="8" x="368.8" y="118.5625"/><rect fill="#FFFFFF" height="224.8297" style="stroke:#181818;stroke-width:0.8000000000000002;" width="8" x="368.8" y="291.7266"/><rect fill="#FFFFFF" height="54.8656" style="stroke:#181818;stroke-width:0.8000000000000002;" width="8" x="368.8" y="591.6547"/><rect fill="#FFFFFF" height="49.0328" style="stroke:#181818;stroke-width:0.8000000000000002;" width="8" x="516.8" y="143.5953"/><rect fill="#FFFFFF" height="24" style="stroke:#181818;stroke-width:0.8000000000000002;" width="8" x="631.2" y="168.6281"/><rect fill="#FFFFFF" height="49.0328" style="stroke:#181818;stroke-width:0.8000000000000002;" width="8" x="631.2" y="217.6609"/><rect fill="#FFFFFF" height="24" style="stroke:#181818;stroke-width:0.8000000000000002;" width="8" x="742.4" y="242.6938"/><rect fill="#FFFFFF" height="24" style="stroke:#181818;stroke-width:0.8000000000000002;" width="8" x="742.4" y="341.7922"/><rect fill="#FFFFFF" height="49.0328" style="stroke:#181818;stroke-width:0.8000000000000002;" width="8" x="856" y="316.7594"/><rect fill="#FFFFFF" height="100.6984" style="stroke:#181818;stroke-width:0.8000000000000002;" width="8" x="996.8" y="390.825"/><rect fill="#FFFFFF" height="24" style="stroke:#181818;stroke-width:0.8000000000000002;" width="8" x="1142.4" y="436.8906"/><rect fill="#FFFFFF" height="60.4656" style="stroke:#181818;stroke-width:0.8000000000000002;" width="8" x="1233.6" y="616.6875"/><rect fill="none" height="64.4656" style="stroke:#000000;stroke-width:1.2000000000000002;" width="299.2" x="914.4" y="402.825"/><line style="stroke:#181818;stroke-width:0.4000000000000001;stroke-dasharray:5.0,5.0;" x1="28.8" x2="28.8" y1="66.8969" y2="691.5531"/><line style="stroke:#181818;stroke-width:0.4000000000000001;stroke-dasharray:5.0,5.0;" x1="170.4" x2="170.4" y1="66.8969" y2="691.5531"/><line style="stroke:#181818;stroke-width:0.4000000000000001;stroke-dasharray:5.0,5.0;" x1="372.8" x2="372.8" y1="66.8969" y2="691.5531"/><line style="stroke:#181818;stroke-width:0.4000000000000001;stroke-dasharray:5.0,5.0;" x1="520.8" x2="520.8" y1="66.8969" y2="691.5531"/><line style="stroke:#181818;stroke-width:0.4000000000000001;stroke-dasharray:5.0,5.0;" x1="635.2" x2="635.2" y1="66.8969" y2="691.5531"/><line style="stroke:#181818;stroke-width:0.4000000000000001;stroke-dasharray:5.0,5.0;" x1="746.4" x2="746.4" y1="66.8969" y2="691.5531"/><line style="stroke:#181818;stroke-width:0.4000000000000001;stroke-dasharray:5.0,5.0;" x1="860" x2="860" y1="66.8969" y2="691.5531"/><line style="stroke:#181818;stroke-width:0.4000000000000001;stroke-dasharray:5.0,5.0;" x1="1000.8" x2="1000.8" y1="66.8969" y2="691.5531"/><line style="stroke:#181818;stroke-width:0.4000000000000001;stroke-dasharray:5.0,5.0;" x1="1146.4" x2="1146.4" y1="66.8969" y2="691.5531"/><line style="stroke:#181818;stroke-width:0.4000000000000001;stroke-dasharray:5.0,5.0;" x1="1237.6" x2="1237.6" y1="66.8969" y2="691.5531"/><text fill="#000000" font-family="sans-serif" font-size="11.2" lengthAdjust="spacing" textLength="44.8" x="4" y="64.0859">Manager</text><ellipse cx="28.8" cy="10.8" fill="#E2E2F0" rx="6.4" ry="6.4" style="stroke:#181818;stroke-width:0.4000000000000001;"/><path d="M28.8,17.2 L28.8,38.8 M18.4,23.6 L39.2,23.6 M28.8,38.8 L18.4,50.8 M28.8,38.8 L39.2,50.8 " fill="none" style="stroke:#181818;stroke-width:0.4000000000000001;"/><text fill="#000000" font-family="sans-serif" font-size="11.2" lengthAdjust="spacing" textLength="44.8" x="4" y="702.8391">Manager</text><ellipse cx="28.8" cy="712.45" fill="#E2E2F0" rx="6.4" ry="6.4" style="stroke:#181818;stroke-width:0.4000000000000001;"/><path d="M28.8,718.85 L28.8,740.45 M18.4,725.25 L39.2,725.25 M28.8,740.45 L18.4,752.45 M28.8,740.45 L39.2,752.45 " fill="none" style="stroke:#181818;stroke-width:0.4000000000000001;"/><rect fill="#E2E2F0" height="26.0969" rx="2" ry="2" style="stroke:#181818;stroke-width:0.4000000000000001;" width="217.6" x="61.6" y="40"/><text fill="#000000" font-family="sans-serif" font-size="11.2" lengthAdjust="spacing" textLength="206.4" x="67.2" y="57.6859">OpenEnrollmentUI_or_CloseEnrollmentUI</text><rect fill="#E2E2F0" height="26.0969" rx="2" ry="2" style="stroke:#181818;stroke-width:0.4000000000000001;" width="217.6" x="61.6" y="690.7531"/><text fill="#000000" font-family="sans-serif" font-size="11.2" lengthAdjust="spacing" textLength="206.4" x="67.2" y="708.4391">OpenEnrollmentUI_or_CloseEnrollmentUI</text><rect fill="#E2E2F0" height="26.0969" rx="2" ry="2" style="stroke:#181818;stroke-width:0.4000000000000001;" width="171.2" x="287.2" y="40"/><text fill="#000000" font-family="sans-serif" font-size="11.2" lengthAdjust="spacing" textLength="160" x="292.8" y="57.6859">OpenCloseEnrollmentController</text><rect fill="#E2E2F0" height="26.0969" rx="2" ry="2" style="stroke:#181818;stroke-width:0.4000000000000001;" width="171.2" x="287.2" y="690.7531"/><text fill="#000000" font-family="sans-serif" font-size="11.2" lengthAdjust="spacing" textLength="160" x="292.8" y="708.4391">OpenCloseEnrollmentController</text><rect fill="#E2E2F0" height="26.0969" rx="2" ry="2" style="stroke:#181818;stroke-width:0.4000000000000001;" width="108.8" x="466.4" y="40"/><text fill="#000000" font-family="sans-serif" font-size="11.2" lengthAdjust="spacing" textLength="97.6" x="472" y="57.6859">PersistenceContext</text><rect fill="#E2E2F0" height="26.0969" rx="2" ry="2" style="stroke:#181818;stroke-width:0.4000000000000001;" width="108.8" x="466.4" y="690.7531"/><text fill="#000000" font-family="sans-serif" font-size="11.2" lengthAdjust="spacing" textLength="97.6" x="472" y="708.4391">PersistenceContext</text><rect fill="#E2E2F0" height="26.0969" rx="2" ry="2" style="stroke:#181818;stroke-width:0.4000000000000001;" width="104" x="583.2" y="40"/><text fill="#000000" font-family="sans-serif" font-size="11.2" lengthAdjust="spacing" textLength="92.8" x="588.8" y="57.6859">RepositoryFactory</text><rect fill="#E2E2F0" height="26.0969" rx="2" ry="2" style="stroke:#181818;stroke-width:0.4000000000000001;" width="104" x="583.2" y="690.7531"/><text fill="#000000" font-family="sans-serif" font-size="11.2" lengthAdjust="spacing" textLength="92.8" x="588.8" y="708.4391">RepositoryFactory</text><rect fill="#E2E2F0" height="26.0969" rx="2" ry="2" style="stroke:#181818;stroke-width:0.4000000000000001;" width="102.4" x="695.2" y="40"/><text fill="#000000" font-family="sans-serif" font-size="11.2" lengthAdjust="spacing" textLength="91.2" x="700.8" y="57.6859">CourseRepository</text><rect fill="#E2E2F0" height="26.0969" rx="2" ry="2" style="stroke:#181818;stroke-width:0.4000000000000001;" width="102.4" x="695.2" y="690.7531"/><text fill="#000000" font-family="sans-serif" font-size="11.2" lengthAdjust="spacing" textLength="91.2" x="700.8" y="708.4391">CourseRepository</text><rect fill="#E2E2F0" height="26.0969" rx="2" ry="2" style="stroke:#181818;stroke-width:0.4000000000000001;" width="108.8" x="805.6" y="40"/><text fill="#000000" font-family="sans-serif" font-size="11.2" lengthAdjust="spacing" textLength="97.6" x="811.2" y="57.6859">ListCoursesService</text><rect fill="#E2E2F0" height="26.0969" rx="2" ry="2" style="stroke:#181818;stroke-width:0.4000000000000001;" width="108.8" x="805.6" y="690.7531"/><text fill="#000000" font-family="sans-serif" font-size="11.2" lengthAdjust="spacing" textLength="97.6" x="811.2" y="708.4391">ListCoursesService</text><rect fill="#E2E2F0" height="26.0969" rx="2" ry="2" style="stroke:#181818;stroke-width:0.4000000000000001;" width="156.8" x="922.4" y="40"/><text fill="#000000" font-family="sans-serif" font-size="11.2" lengthAdjust="spacing" textLength="145.6" x="928" y="57.6859">CourseAndStateDTOMapper</text><rect fill="#E2E2F0" height="26.0969" rx="2" ry="2" style="stroke:#181818;stroke-width:0.4000000000000001;" width="156.8" x="922.4" y="690.7531"/><text fill="#000000" font-family="sans-serif" font-size="11.2" lengthAdjust="spacing" textLength="145.6" x="928" y="708.4391">CourseAndStateDTOMapper</text><rect fill="#E2E2F0" height="26.0969" rx="2" ry="2" style="stroke:#181818;stroke-width:0.4000000000000001;" width="118.4" x="1087.2" y="40"/><text fill="#000000" font-family="sans-serif" font-size="11.2" lengthAdjust="spacing" textLength="107.2" x="1092.8" y="57.6859">CourseAndStateDTO</text><rect fill="#E2E2F0" height="26.0969" rx="2" ry="2" style="stroke:#181818;stroke-width:0.4000000000000001;" width="118.4" x="1087.2" y="690.7531"/><text fill="#000000" font-family="sans-serif" font-size="11.2" lengthAdjust="spacing" textLength="107.2" x="1092.8" y="708.4391">CourseAndStateDTO</text><rect fill="#E2E2F0" height="26.0969" rx="2" ry="2" style="stroke:#181818;stroke-width:0.4000000000000001;" width="48" x="1213.6" y="40"/><text fill="#000000" font-family="sans-serif" font-size="11.2" lengthAdjust="spacing" textLength="36.8" x="1219.2" y="57.6859">Course</text><rect fill="#E2E2F0" height="26.0969" rx="2" ry="2" style="stroke:#181818;stroke-width:0.4000000000000001;" width="48" x="1213.6" y="690.7531"/><text fill="#000000" font-family="sans-serif" font-size="11.2" lengthAdjust="spacing" textLength="36.8" x="1219.2" y="708.4391">Course</text><rect fill="#FFFFFF" height="448.0594" style="stroke:#181818;stroke-width:0.8000000000000002;" width="8" x="166.4" y="93.5297"/><rect fill="#FFFFFF" height="110.5313" style="stroke:#181818;stroke-width:0.8000000000000002;" width="8" x="166.4" y="566.6219"/><rect fill="#FFFFFF" height="148.1313" style="stroke:#181818;stroke-width:0.8000000000000002;" width="8" x="368.8" y="118.5625"/><rect fill="#FFFFFF" height="224.8297" style="stroke:#181818;stroke-width:0.8000000000000002;" width="8" x="368.8" y="291.7266"/><rect fill="#FFFFFF" height="54.8656" style="stroke:#181818;stroke-width:0.8000000000000002;" width="8" x="368.8" y="591.6547"/><rect fill="#FFFFFF" height="49.0328" style="stroke:#181818;stroke-width:0.8000000000000002;" width="8" x="516.8" y="143.5953"/><rect fill="#FFFFFF" height="24" style="stroke:#181818;stroke-width:0.8000000000000002;" width="8" x="631.2" y="168.6281"/><rect fill="#FFFFFF" height="49.0328" style="stroke:#181818;stroke-width:0.8000000000000002;" width="8" x="631.2" y="217.6609"/><rect fill="#FFFFFF" height="24" style="stroke:#181818;stroke-width:0.8000000000000002;" width="8" x="742.4" y="242.6938"/><rect fill="#FFFFFF" height="24" style="stroke:#181818;stroke-width:0.8000000000000002;" width="8" x="742.4" y="341.7922"/><rect fill="#FFFFFF" height="49.0328" style="stroke:#181818;stroke-width:0.8000000000000002;" width="8" x="856" y="316.7594"/><rect fill="#FFFFFF" height="100.6984" style="stroke:#181818;stroke-width:0.8000000000000002;" width="8" x="996.8" y="390.825"/><rect fill="#FFFFFF" height="24" style="stroke:#181818;stroke-width:0.8000000000000002;" width="8" x="1142.4" y="436.8906"/><rect fill="#FFFFFF" height="60.4656" style="stroke:#181818;stroke-width:0.8000000000000002;" width="8" x="1233.6" y="616.6875"/><polygon fill="#181818" points="156.8,90.3297,164.8,93.5297,156.8,96.7297,160,93.5297" style="stroke:#181818;stroke-width:0.8000000000000002;"/><line style="stroke:#181818;stroke-width:0.8000000000000002;stroke-dasharray:2.0,2.0;" x1="28.8" x2="161.6" y1="93.5297" y2="93.5297"/><text fill="#000000" font-family="sans-serif" font-size="10.4" lengthAdjust="spacing" textLength="23.2" x="34.4" y="89.3195">enter</text><polygon fill="#181818" points="359.2,115.3625,367.2,118.5625,359.2,121.7625,362.4,118.5625" style="stroke:#181818;stroke-width:0.8000000000000002;"/><line style="stroke:#181818;stroke-width:0.8000000000000002;stroke-dasharray:2.0,2.0;" x1="174.4" x2="364" y1="118.5625" y2="118.5625"/><text fill="#000000" font-family="sans-serif" font-size="10.4" lengthAdjust="spacing" textLength="35.2" x="180" y="114.3523">create()</text><polygon fill="#181818" points="507.2,140.3953,515.2,143.5953,507.2,146.7953,510.4,143.5953" style="stroke:#181818;stroke-width:0.8000000000000002;"/><line style="stroke:#181818;stroke-width:0.8000000000000002;stroke-dasharray:2.0,2.0;" x1="376.8" x2="512" y1="143.5953" y2="143.5953"/><text fill="#000000" font-family="sans-serif" font-size="10.4" lengthAdjust="spacing" textLength="60" x="382.4" y="139.3852">repositories()</text><polygon fill="#181818" points="621.6,165.4281,629.6,168.6281,621.6,171.8281,624.8,168.6281" style="stroke:#181818;stroke-width:0.8000000000000002;"/><line style="stroke:#181818;stroke-width:0.8000000000000002;stroke-dasharray:2.0,2.0;" x1="524.8" x2="626.4" y1="168.6281" y2="168.6281"/><text fill="#000000" font-family="sans-serif" font-size="10.4" lengthAdjust="spacing" textLength="35.2" x="530.4" y="164.418">create()</text><polygon fill="#181818" points="621.6,214.4609,629.6,217.6609,621.6,220.8609,624.8,217.6609" style="stroke:#181818;stroke-width:0.8000000000000002;"/><line style="stroke:#181818;stroke-width:0.8000000000000002;stroke-dasharray:2.0,2.0;" x1="376.8" x2="626.4" y1="217.6609" y2="217.6609"/><text fill="#000000" font-family="sans-serif" font-size="10.4" lengthAdjust="spacing" textLength="43.2" x="382.4" y="213.4508">courses()</text><polygon fill="#181818" points="732.8,239.4938,740.8,242.6938,732.8,245.8938,736,242.6938" style="stroke:#181818;stroke-width:0.8000000000000002;"/><line style="stroke:#181818;stroke-width:0.8000000000000002;stroke-dasharray:2.0,2.0;" x1="639.2" x2="737.6" y1="242.6938" y2="242.6938"/><text fill="#000000" font-family="sans-serif" font-size="10.4" lengthAdjust="spacing" textLength="35.2" x="644.8" y="238.4836">create()</text><polygon fill="#181818" points="359.2,288.5266,367.2,291.7266,359.2,294.9266,362.4,291.7266" style="stroke:#181818;stroke-width:0.8000000000000002;"/><line style="stroke:#181818;stroke-width:0.8000000000000002;stroke-dasharray:2.0,2.0;" x1="174.4" x2="364" y1="291.7266" y2="291.7266"/><text fill="#000000" font-family="sans-serif" font-size="10.4" lengthAdjust="spacing" textLength="88.8" x="180" y="287.5164">enrollableCourses()</text><polygon fill="#181818" points="846.4,313.5594,854.4,316.7594,846.4,319.9594,849.6,316.7594" style="stroke:#181818;stroke-width:0.8000000000000002;"/><line style="stroke:#181818;stroke-width:0.8000000000000002;stroke-dasharray:2.0,2.0;" x1="376.8" x2="851.2" y1="316.7594" y2="316.7594"/><text fill="#000000" font-family="sans-serif" font-size="10.4" lengthAdjust="spacing" textLength="96" x="382.4" y="312.5492">enrollable(repository)</text><polygon fill="#181818" points="759.2,338.5922,751.2,341.7922,759.2,344.9922,756,341.7922" style="stroke:#181818;stroke-width:0.8000000000000002;"/><line style="stroke:#181818;stroke-width:0.8000000000000002;stroke-dasharray:2.0,2.0;" x1="754.4" x2="855.2" y1="341.7922" y2="341.7922"/><text fill="#000000" font-family="sans-serif" font-size="10.4" lengthAdjust="spacing" textLength="60" x="764" y="337.582">findByState()</text><polygon fill="#181818" points="987.2,387.625,995.2,390.825,987.2,394.025,990.4,390.825" style="stroke:#181818;stroke-width:0.8000000000000002;"/><line style="stroke:#181818;stroke-width:0.8000000000000002;stroke-dasharray:2.0,2.0;" x1="376.8" x2="992" y1="390.825" y2="390.825"/><text fill="#000000" font-family="sans-serif" font-size="10.4" lengthAdjust="spacing" textLength="68" x="382.4" y="386.6148">toDto(courses)</text><path d="M914.4,402.825 L972.8,402.825 L972.8,410.2578 L964.8,418.2578 L914.4,418.2578 L914.4,402.825 " fill="#EEEEEE" style="stroke:#000000;stroke-width:1.2000000000000002;"/><rect fill="none" height="64.4656" style="stroke:#000000;stroke-width:1.2000000000000002;" width="299.2" x="914.4" y="402.825"/><text fill="#000000" font-family="sans-serif" font-size="10.4" font-weight="bold" lengthAdjust="spacing" textLength="22.4" x="926.4" y="414.8477">loop</text><text fill="#000000" font-family="sans-serif" font-size="8.8" font-weight="bold" lengthAdjust="spacing" textLength="125.6" x="984.8" y="413.9211">[for each course in courses]</text><polygon fill="#181818" points="1132.8,433.6906,1140.8,436.8906,1132.8,440.0906,1136,436.8906" style="stroke:#181818;stroke-width:0.8000000000000002;"/><line style="stroke:#181818;stroke-width:0.8000000000000002;stroke-dasharray:2.0,2.0;" x1="1004.8" x2="1137.6" y1="436.8906" y2="436.8906"/><text fill="#000000" font-family="sans-serif" font-size="10.4" lengthAdjust="spacing" textLength="35.2" x="1010.4" y="432.6805">create()</text><polygon fill="#181818" points="385.6,488.3234,377.6,491.5234,385.6,494.7234,382.4,491.5234" style="stroke:#181818;stroke-width:0.8000000000000002;"/><line style="stroke:#181818;stroke-width:0.8000000000000002;stroke-dasharray:2.0,2.0;" x1="380.8" x2="1000" y1="491.5234" y2="491.5234"/><text fill="#000000" font-family="sans-serif" font-size="10.4" lengthAdjust="spacing" textLength="68.8" x="390.4" y="487.3133">courseDTOList</text><polygon fill="#181818" points="183.2,513.3563,175.2,516.5563,183.2,519.7563,180,516.5563" style="stroke:#181818;stroke-width:0.8000000000000002;"/><line style="stroke:#181818;stroke-width:0.8000000000000002;stroke-dasharray:2.0,2.0;" x1="178.4" x2="372" y1="516.5563" y2="516.5563"/><text fill="#000000" font-family="sans-serif" font-size="10.4" lengthAdjust="spacing" textLength="68.8" x="188" y="512.3461">courseDTOList</text><polygon fill="#181818" points="37.6,538.3891,29.6,541.5891,37.6,544.7891,34.4,541.5891" style="stroke:#181818;stroke-width:0.8000000000000002;"/><line style="stroke:#181818;stroke-width:0.8000000000000002;stroke-dasharray:2.0,2.0;" x1="32.8" x2="169.6" y1="541.5891" y2="541.5891"/><text fill="#000000" font-family="sans-serif" font-size="10.4" lengthAdjust="spacing" textLength="64" x="42.4" y="537.3789">show courses</text><polygon fill="#181818" points="156.8,563.4219,164.8,566.6219,156.8,569.8219,160,566.6219" style="stroke:#181818;stroke-width:0.8000000000000002;"/><line style="stroke:#181818;stroke-width:0.8000000000000002;stroke-dasharray:2.0,2.0;" x1="28.8" x2="161.6" y1="566.6219" y2="566.6219"/><text fill="#000000" font-family="sans-serif" font-size="10.4" lengthAdjust="spacing" textLength="108" x="34.4" y="562.4117">selects course from list</text><polygon fill="#181818" points="359.2,588.4547,367.2,591.6547,359.2,594.8547,362.4,591.6547" style="stroke:#181818;stroke-width:0.8000000000000002;"/><line style="stroke:#181818;stroke-width:0.8000000000000002;stroke-dasharray:2.0,2.0;" x1="174.4" x2="364" y1="591.6547" y2="591.6547"/><text fill="#000000" font-family="sans-serif" font-size="10.4" lengthAdjust="spacing" textLength="92" x="180" y="587.4445">chosen course (dto)</text><polygon fill="#181818" points="1224,613.4875,1232,616.6875,1224,619.8875,1227.2,616.6875" style="stroke:#181818;stroke-width:0.8000000000000002;"/><line style="stroke:#181818;stroke-width:0.8000000000000002;stroke-dasharray:2.0,2.0;" x1="376.8" x2="1228.8" y1="616.6875" y2="616.6875"/><text fill="#000000" font-family="sans-serif" font-size="10.4" lengthAdjust="spacing" textLength="173.6" x="382.4" y="612.4773">openEnrollments()/closeEnrollments()</text><line style="stroke:#181818;stroke-width:0.8000000000000002;stroke-dasharray:2.0,2.0;" x1="1241.6" x2="1275.2" y1="645.7203" y2="645.7203"/><line style="stroke:#181818;stroke-width:0.8000000000000002;stroke-dasharray:2.0,2.0;" x1="1275.2" x2="1275.2" y1="645.7203" y2="656.1203"/><line style="stroke:#181818;stroke-width:0.8000000000000002;stroke-dasharray:2.0,2.0;" x1="1237.6" x2="1275.2" y1="656.1203" y2="656.1203"/><polygon fill="#181818" points="1245.6,652.9203,1237.6,656.1203,1245.6,659.3203,1242.4,656.1203" style="stroke:#181818;stroke-width:0.8000000000000002;"/><text fill="#000000" font-family="sans-serif" font-size="10.4" lengthAdjust="spacing" textLength="173.6" x="1247.2" y="641.5102">openEnrollments()/closeEnrollments()</text><polygon fill="#181818" points="37.6,673.9531,29.6,677.1531,37.6,680.3531,34.4,677.1531" style="stroke:#181818;stroke-width:0.8000000000000002;"/><line style="stroke:#181818;stroke-width:0.8000000000000002;stroke-dasharray:2.0,2.0;" x1="32.8" x2="169.6" y1="677.1531" y2="677.1531"/><text fill="#000000" font-family="sans-serif" font-size="10.4" lengthAdjust="spacing" textLength="52.8" x="42.4" y="672.943">show result</text><!--SRC=[hLKxRzim4DxrApYwGz1TGu7MIO422L8qxMmmrBac8FC4adRbVzyxad98KNQ289metdUlxnwIogCL3zB8ls25TEBWm3Q3j5uhFKZZnUC0vivOxFiz6F_dnmRjPjsZW_mnQEfARuPRe_5yZvwKjtrJgFm4wxJpO1Gm54OVSME1-WK3EarXdxvBZlx480l3PYjL0LpZmJfuWISSbaxloMD4kYUmHws0SUwecWLZNqttvAM7sz-F3t8OOYBxSBkEPbpdSSbco37SceRP5pStNuZCLX1ZPBQX9FMHh331Wiv11mJJrmfbWKIhJq5oHWPgHJhyaJJ6DX0GwD3WajfCTJm_HkqnA2U2PnuhzQaEkR23Y-9Cn8xhc5_SnX8jXRpaCxrDDl0DSUELeB5v9PaY4UxhkbGGva0-zx0kSdcbQjI9kUxgNC3J0XNSjdaMz9rHiDMc-tOABVcHF8HPgUAEKz4AZxSULwby2o6dwSbzzeY3sD9U8X-xL7cXpTG31PPFD16yqenTA7NXb4TnBimocel1T26eveBND8iXF1fsNYbBHALKQwvuscljggUobk95qGgtmtzdLZ8uROfobJZeGVbfpuYjnRtesS_rvRAZzJtHBbR4ojlsJC2t0ei_1xNxPrN-3tW25ZPGt8N54eeHlC_urT7CUBJW3dtDV8oc9FS_]--></g></svg>