<?xml version="1.0" encoding="us-ascii" standalone="no"?><svg xmlns="http://www.w3.org/2000/svg" xmlns:xlink="http://www.w3.org/1999/xlink" contentStyleType="text/css" height="1045px" preserveAspectRatio="none" style="width:1532px;height:1045px;background:#FFFFFF;" version="1.1" viewBox="0 0 1532 1045" width="1532px" zoomAndPan="magnify"><defs/><g><rect fill="#FFFFFF" height="835.5664" style="stroke:#181818;stroke-width:1.0;" width="10" x="167.5" y="116.9121"/><rect fill="#FFFFFF" height="156.4551" style="stroke:#181818;stroke-width:1.0;" width="10" x="334.5" y="243.0762"/><rect fill="#FFFFFF" height="412.7832" style="stroke:#181818;stroke-width:1.0;" width="10" x="334.5" y="493.4043"/><rect fill="#FFFFFF" height="31.291" style="stroke:#181818;stroke-width:1.0;" width="10" x="496.5" y="336.9492"/><rect fill="#FFFFFF" height="350.2012" style="stroke:#181818;stroke-width:1.0;" width="10" x="737" y="524.6953"/><rect fill="#FFFFFF" height="93.873" style="stroke:#181818;stroke-width:1.0;" width="10" x="898" y="687.1504"/><rect fill="#FFFFFF" height="31.291" style="stroke:#181818;stroke-width:1.0;" width="10" x="1035" y="274.3672"/><rect fill="none" height="744.9844" style="stroke:#000000;stroke-width:1.5;" width="1516" x="10" y="200.4941"/><line style="stroke:#181818;stroke-width:0.5;stroke-dasharray:5.0,5.0;" x1="37" x2="37" y1="83.6211" y2="962.4785"/><line style="stroke:#181818;stroke-width:0.5;stroke-dasharray:5.0,5.0;" x1="172.5" x2="172.5" y1="83.6211" y2="962.4785"/><line style="stroke:#181818;stroke-width:0.5;stroke-dasharray:5.0,5.0;" x1="339.5" x2="339.5" y1="83.6211" y2="962.4785"/><line style="stroke:#181818;stroke-width:0.5;stroke-dasharray:5.0,5.0;" x1="501.5" x2="501.5" y1="83.6211" y2="962.4785"/><line style="stroke:#181818;stroke-width:0.5;stroke-dasharray:5.0,5.0;" x1="627.5" x2="627.5" y1="83.6211" y2="962.4785"/><line style="stroke:#181818;stroke-width:0.5;stroke-dasharray:5.0,5.0;" x1="741.5" x2="741.5" y1="83.6211" y2="962.4785"/><line style="stroke:#181818;stroke-width:0.5;stroke-dasharray:5.0,5.0;" x1="903" x2="903" y1="83.6211" y2="962.4785"/><line style="stroke:#181818;stroke-width:0.5;stroke-dasharray:5.0,5.0;" x1="1040" x2="1040" y1="83.6211" y2="962.4785"/><line style="stroke:#181818;stroke-width:0.5;stroke-dasharray:5.0,5.0;" x1="1154" x2="1154" y1="83.6211" y2="962.4785"/><line style="stroke:#181818;stroke-width:0.5;stroke-dasharray:5.0,5.0;" x1="1280" x2="1280" y1="83.6211" y2="962.4785"/><line style="stroke:#181818;stroke-width:0.5;stroke-dasharray:5.0,5.0;" x1="1442" x2="1442" y1="83.6211" y2="962.4785"/><text fill="#000000" font-family="sans-serif" font-size="14" lengthAdjust="spacing" textLength="29" x="20" y="80.1074">User</text><ellipse cx="37.5" cy="13.5" fill="#E2E2F0" rx="8" ry="8" style="stroke:#181818;stroke-width:0.5;"/><path d="M37.5,21.5 L37.5,48.5 M24.5,29.5 L50.5,29.5 M37.5,48.5 L24.5,63.5 M37.5,48.5 L50.5,63.5 " fill="none" style="stroke:#181818;stroke-width:0.5;"/><text fill="#000000" font-family="sans-serif" font-size="14" lengthAdjust="spacing" textLength="29" x="20" y="976.5859">User</text><ellipse cx="37.5" cy="988.5996" fill="#E2E2F0" rx="8" ry="8" style="stroke:#181818;stroke-width:0.5;"/><path d="M37.5,996.5996 L37.5,1023.5996 M24.5,1004.5996 L50.5,1004.5996 M37.5,1023.5996 L24.5,1038.5996 M37.5,1023.5996 L50.5,1038.5996 " fill="none" style="stroke:#181818;stroke-width:0.5;"/><rect fill="#E2E2F0" height="51.2422" rx="2.5" ry="2.5" style="stroke:#181818;stroke-width:0.5;" width="120" x="112.5" y="31.3789"/><text fill="#000000" font-family="sans-serif" font-size="14" font-style="italic" lengthAdjust="spacing" textLength="95" x="125" y="53.4863">&#171;presentation&#187;</text><text fill="#000000" font-family="sans-serif" font-size="14" lengthAdjust="spacing" textLength="106" x="119.5" y="72.1074">CancelMeetingUI</text><rect fill="#E2E2F0" height="51.2422" rx="2.5" ry="2.5" style="stroke:#181818;stroke-width:0.5;" width="120" x="112.5" y="961.4785"/><text fill="#000000" font-family="sans-serif" font-size="14" font-style="italic" lengthAdjust="spacing" textLength="95" x="125" y="983.5859">&#171;presentation&#187;</text><text fill="#000000" font-family="sans-serif" font-size="14" lengthAdjust="spacing" textLength="106" x="119.5" y="1002.207">CancelMeetingUI</text><rect fill="#E2E2F0" height="51.2422" rx="2.5" ry="2.5" style="stroke:#181818;stroke-width:0.5;" width="170" x="254.5" y="31.3789"/><text fill="#000000" font-family="sans-serif" font-size="14" font-style="italic" lengthAdjust="spacing" textLength="84" x="297.5" y="53.4863">&#171;application&#187;</text><text fill="#000000" font-family="sans-serif" font-size="14" lengthAdjust="spacing" textLength="156" x="261.5" y="72.1074">CancelMeetingController</text><rect fill="#E2E2F0" height="51.2422" rx="2.5" ry="2.5" style="stroke:#181818;stroke-width:0.5;" width="170" x="254.5" y="961.4785"/><text fill="#000000" font-family="sans-serif" font-size="14" font-style="italic" lengthAdjust="spacing" textLength="84" x="297.5" y="983.5859">&#171;application&#187;</text><text fill="#000000" font-family="sans-serif" font-size="14" lengthAdjust="spacing" textLength="156" x="261.5" y="1002.207">CancelMeetingController</text><rect fill="#E2E2F0" height="51.2422" rx="2.5" ry="2.5" style="stroke:#181818;stroke-width:0.5;" width="134" x="434.5" y="31.3789"/><text fill="#000000" font-family="sans-serif" font-size="14" font-style="italic" lengthAdjust="spacing" textLength="84" x="459.5" y="53.4863">&#171;application&#187;</text><text fill="#000000" font-family="sans-serif" font-size="14" lengthAdjust="spacing" textLength="120" x="441.5" y="72.1074">MeetingDtoMapper</text><rect fill="#E2E2F0" height="51.2422" rx="2.5" ry="2.5" style="stroke:#181818;stroke-width:0.5;" width="134" x="434.5" y="961.4785"/><text fill="#000000" font-family="sans-serif" font-size="14" font-style="italic" lengthAdjust="spacing" textLength="84" x="459.5" y="983.5859">&#171;application&#187;</text><text fill="#000000" font-family="sans-serif" font-size="14" lengthAdjust="spacing" textLength="120" x="441.5" y="1002.207">MeetingDtoMapper</text><rect fill="#E2E2F0" height="51.2422" rx="2.5" ry="2.5" style="stroke:#181818;stroke-width:0.5;" width="98" x="578.5" y="31.3789"/><text fill="#000000" font-family="sans-serif" font-size="14" font-style="italic" lengthAdjust="spacing" textLength="84" x="585.5" y="53.4863">&#171;application&#187;</text><text fill="#000000" font-family="sans-serif" font-size="14" lengthAdjust="spacing" textLength="72" x="591.5" y="72.1074">MeetingDto</text><rect fill="#E2E2F0" height="51.2422" rx="2.5" ry="2.5" style="stroke:#181818;stroke-width:0.5;" width="98" x="578.5" y="961.4785"/><text fill="#000000" font-family="sans-serif" font-size="14" font-style="italic" lengthAdjust="spacing" textLength="84" x="585.5" y="983.5859">&#171;application&#187;</text><text fill="#000000" font-family="sans-serif" font-size="14" lengthAdjust="spacing" textLength="72" x="591.5" y="1002.207">MeetingDto</text><rect fill="#E2E2F0" height="51.2422" rx="2.5" ry="2.5" style="stroke:#181818;stroke-width:0.5;" width="111" x="686.5" y="31.3789"/><text fill="#000000" font-family="sans-serif" font-size="14" font-style="italic" lengthAdjust="spacing" textLength="84" x="700" y="53.4863">&#171;application&#187;</text><text fill="#000000" font-family="sans-serif" font-size="14" lengthAdjust="spacing" textLength="97" x="693.5" y="72.1074">MeetingService</text><rect fill="#E2E2F0" height="51.2422" rx="2.5" ry="2.5" style="stroke:#181818;stroke-width:0.5;" width="111" x="686.5" y="961.4785"/><text fill="#000000" font-family="sans-serif" font-size="14" font-style="italic" lengthAdjust="spacing" textLength="84" x="700" y="983.5859">&#171;application&#187;</text><text fill="#000000" font-family="sans-serif" font-size="14" lengthAdjust="spacing" textLength="97" x="693.5" y="1002.207">MeetingService</text><rect fill="#E2E2F0" height="69.8633" rx="2.5" ry="2.5" style="stroke:#181818;stroke-width:0.5;" width="122" x="842" y="12.7578"/><text fill="#000000" font-family="sans-serif" font-size="14" font-style="italic" lengthAdjust="spacing" textLength="62" x="872" y="34.8652">&#171;domain&#187;</text><text fill="#000000" font-family="sans-serif" font-size="14" lengthAdjust="spacing" textLength="107" x="849.5" y="53.4863">recurringPattern:</text><text fill="#000000" font-family="sans-serif" font-size="14" lengthAdjust="spacing" textLength="108" x="849" y="72.1074">RecurringPattern</text><rect fill="#E2E2F0" height="69.8633" rx="2.5" ry="2.5" style="stroke:#181818;stroke-width:0.5;" width="122" x="842" y="961.4785"/><text fill="#000000" font-family="sans-serif" font-size="14" font-style="italic" lengthAdjust="spacing" textLength="62" x="872" y="983.5859">&#171;domain&#187;</text><text fill="#000000" font-family="sans-serif" font-size="14" lengthAdjust="spacing" textLength="107" x="849.5" y="1002.207">recurringPattern:</text><text fill="#000000" font-family="sans-serif" font-size="14" lengthAdjust="spacing" textLength="108" x="849" y="1020.8281">RecurringPattern</text><rect fill="#E2E2F0" height="51.2422" rx="2.5" ry="2.5" style="stroke:#181818;stroke-width:0.5;" width="132" x="974" y="31.3789"/><text fill="#000000" font-family="sans-serif" font-size="14" font-style="italic" lengthAdjust="spacing" textLength="79" x="1000.5" y="53.4863">&#171;repository&#187;</text><text fill="#000000" font-family="sans-serif" font-size="14" lengthAdjust="spacing" textLength="118" x="981" y="72.1074">MeetingRepository</text><rect fill="#E2E2F0" height="51.2422" rx="2.5" ry="2.5" style="stroke:#181818;stroke-width:0.5;" width="132" x="974" y="961.4785"/><text fill="#000000" font-family="sans-serif" font-size="14" font-style="italic" lengthAdjust="spacing" textLength="79" x="1000.5" y="983.5859">&#171;repository&#187;</text><text fill="#000000" font-family="sans-serif" font-size="14" lengthAdjust="spacing" textLength="118" x="981" y="1002.207">MeetingRepository</text><rect fill="#E2E2F0" height="69.8633" rx="2.5" ry="2.5" style="stroke:#181818;stroke-width:0.5;" width="76" x="1116" y="12.7578"/><text fill="#000000" font-family="sans-serif" font-size="14" font-style="italic" lengthAdjust="spacing" textLength="62" x="1123" y="34.8652">&#171;domain&#187;</text><text fill="#000000" font-family="sans-serif" font-size="14" lengthAdjust="spacing" textLength="54" x="1127" y="53.4863">meeting:</text><text fill="#000000" font-family="sans-serif" font-size="14" lengthAdjust="spacing" textLength="50" x="1129" y="72.1074">Meeting</text><rect fill="#E2E2F0" height="69.8633" rx="2.5" ry="2.5" style="stroke:#181818;stroke-width:0.5;" width="76" x="1116" y="961.4785"/><text fill="#000000" font-family="sans-serif" font-size="14" font-style="italic" lengthAdjust="spacing" textLength="62" x="1123" y="983.5859">&#171;domain&#187;</text><text fill="#000000" font-family="sans-serif" font-size="14" lengthAdjust="spacing" textLength="54" x="1127" y="1002.207">meeting:</text><text fill="#000000" font-family="sans-serif" font-size="14" lengthAdjust="spacing" textLength="50" x="1129" y="1020.8281">Meeting</text><rect fill="#E2E2F0" height="51.2422" rx="2.5" ry="2.5" style="stroke:#181818;stroke-width:0.5;" width="156" x="1202" y="31.3789"/><text fill="#000000" font-family="sans-serif" font-size="14" font-style="italic" lengthAdjust="spacing" textLength="79" x="1240.5" y="53.4863">&#171;repository&#187;</text><text fill="#000000" font-family="sans-serif" font-size="14" lengthAdjust="spacing" textLength="142" x="1209" y="72.1074">RecurringPatternRepo</text><rect fill="#E2E2F0" height="51.2422" rx="2.5" ry="2.5" style="stroke:#181818;stroke-width:0.5;" width="156" x="1202" y="961.4785"/><text fill="#000000" font-family="sans-serif" font-size="14" font-style="italic" lengthAdjust="spacing" textLength="79" x="1240.5" y="983.5859">&#171;repository&#187;</text><text fill="#000000" font-family="sans-serif" font-size="14" lengthAdjust="spacing" textLength="142" x="1209" y="1002.207">RecurringPatternRepo</text><rect fill="#E2E2F0" height="51.2422" rx="2.5" ry="2.5" style="stroke:#181818;stroke-width:0.5;" width="148" x="1368" y="31.3789"/><text fill="#000000" font-family="sans-serif" font-size="14" font-style="italic" lengthAdjust="spacing" textLength="79" x="1402.5" y="53.4863">&#171;repository&#187;</text><text fill="#000000" font-family="sans-serif" font-size="14" lengthAdjust="spacing" textLength="134" x="1375" y="72.1074">TransactionalContext</text><rect fill="#E2E2F0" height="51.2422" rx="2.5" ry="2.5" style="stroke:#181818;stroke-width:0.5;" width="148" x="1368" y="961.4785"/><text fill="#000000" font-family="sans-serif" font-size="14" font-style="italic" lengthAdjust="spacing" textLength="79" x="1402.5" y="983.5859">&#171;repository&#187;</text><text fill="#000000" font-family="sans-serif" font-size="14" lengthAdjust="spacing" textLength="134" x="1375" y="1002.207">TransactionalContext</text><rect fill="#FFFFFF" height="835.5664" style="stroke:#181818;stroke-width:1.0;" width="10" x="167.5" y="116.9121"/><rect fill="#FFFFFF" height="156.4551" style="stroke:#181818;stroke-width:1.0;" width="10" x="334.5" y="243.0762"/><rect fill="#FFFFFF" height="412.7832" style="stroke:#181818;stroke-width:1.0;" width="10" x="334.5" y="493.4043"/><rect fill="#FFFFFF" height="31.291" style="stroke:#181818;stroke-width:1.0;" width="10" x="496.5" y="336.9492"/><rect fill="#FFFFFF" height="350.2012" style="stroke:#181818;stroke-width:1.0;" width="10" x="737" y="524.6953"/><rect fill="#FFFFFF" height="93.873" style="stroke:#181818;stroke-width:1.0;" width="10" x="898" y="687.1504"/><rect fill="#FFFFFF" height="31.291" style="stroke:#181818;stroke-width:1.0;" width="10" x="1035" y="274.3672"/><polygon fill="#181818" points="155.5,112.9121,165.5,116.9121,155.5,120.9121,159.5,116.9121" style="stroke:#181818;stroke-width:1.0;"/><line style="stroke:#181818;stroke-width:1.0;" x1="37.5" x2="161.5" y1="116.9121" y2="116.9121"/><text fill="#000000" font-family="sans-serif" font-size="13" lengthAdjust="spacing" textLength="88" x="44.5" y="111.6494">cancel Meeting</text><polygon fill="#181818" points="327.5,144.2031,337.5,148.2031,327.5,152.2031,331.5,148.2031" style="stroke:#181818;stroke-width:1.0;"/><line style="stroke:#181818;stroke-width:1.0;" x1="177.5" x2="333.5" y1="148.2031" y2="148.2031"/><text fill="#000000" font-family="sans-serif" font-size="13" lengthAdjust="spacing" textLength="36" x="184.5" y="142.9404">create</text><path d="M344,161.2031 L344,188.2031 L757,188.2031 L757,171.2031 L747,161.2031 L344,161.2031 " fill="#FEFFDD" style="stroke:#181818;stroke-width:0.5;"/><path d="M747,161.2031 L747,171.2031 L757,171.2031 L747,161.2031 " fill="#FEFFDD" style="stroke:#181818;stroke-width:0.5;"/><text fill="#000000" font-family="sans-serif" font-size="13" lengthAdjust="spacing" textLength="392" x="350" y="180.2314">meetingRepository and patternRepository using PersistenceContext</text><path d="M10,200.4941 L83,200.4941 L83,209.7852 L73,219.7852 L10,219.7852 L10,200.4941 " fill="#EEEEEE" style="stroke:#000000;stroke-width:1.5;"/><rect fill="none" height="744.9844" style="stroke:#000000;stroke-width:1.5;" width="1516" x="10" y="200.4941"/><text fill="#000000" font-family="sans-serif" font-size="13" font-weight="bold" lengthAdjust="spacing" textLength="28" x="25" y="215.5225">loop</text><text fill="#000000" font-family="sans-serif" font-size="11" font-weight="bold" lengthAdjust="spacing" textLength="156" x="98" y="214.3643">[while user wants to cancel]</text><polygon fill="#181818" points="322.5,239.0762,332.5,243.0762,322.5,247.0762,326.5,243.0762" style="stroke:#181818;stroke-width:1.0;"/><line style="stroke:#181818;stroke-width:1.0;" x1="177.5" x2="328.5" y1="243.0762" y2="243.0762"/><text fill="#000000" font-family="sans-serif" font-size="13" lengthAdjust="spacing" textLength="61" x="184.5" y="237.8135">meetings()</text><polygon fill="#181818" points="1023,270.3672,1033,274.3672,1023,278.3672,1027,274.3672" style="stroke:#181818;stroke-width:1.0;"/><line style="stroke:#181818;stroke-width:1.0;" x1="344.5" x2="1029" y1="274.3672" y2="274.3672"/><text fill="#000000" font-family="sans-serif" font-size="13" lengthAdjust="spacing" textLength="197" x="351.5" y="269.1045">meetingsOfAdminScheduled(user)</text><polygon fill="#181818" points="355.5,301.6582,345.5,305.6582,355.5,309.6582,351.5,305.6582" style="stroke:#181818;stroke-width:1.0;"/><line style="stroke:#181818;stroke-width:1.0;stroke-dasharray:2.0,2.0;" x1="349.5" x2="1039" y1="305.6582" y2="305.6582"/><text fill="#000000" font-family="sans-serif" font-size="13" lengthAdjust="spacing" textLength="53" x="361.5" y="300.3955">meetings</text><polygon fill="#181818" points="484.5,332.9492,494.5,336.9492,484.5,340.9492,488.5,336.9492" style="stroke:#181818;stroke-width:1.0;"/><line style="stroke:#181818;stroke-width:1.0;" x1="344.5" x2="490.5" y1="336.9492" y2="336.9492"/><text fill="#000000" font-family="sans-serif" font-size="13" lengthAdjust="spacing" textLength="92" x="351.5" y="331.6865">toDto(meetings)</text><polygon fill="#181818" points="355.5,364.2402,345.5,368.2402,355.5,372.2402,351.5,368.2402" style="stroke:#181818;stroke-width:1.0;"/><line style="stroke:#181818;stroke-width:1.0;stroke-dasharray:2.0,2.0;" x1="349.5" x2="500.5" y1="368.2402" y2="368.2402"/><text fill="#000000" font-family="sans-serif" font-size="13" lengthAdjust="spacing" textLength="73" x="361.5" y="362.9775">meetingsDto</text><polygon fill="#181818" points="188.5,395.5313,178.5,399.5313,188.5,403.5313,184.5,399.5313" style="stroke:#181818;stroke-width:1.0;"/><line style="stroke:#181818;stroke-width:1.0;stroke-dasharray:2.0,2.0;" x1="182.5" x2="338.5" y1="399.5313" y2="399.5313"/><text fill="#000000" font-family="sans-serif" font-size="13" lengthAdjust="spacing" textLength="53" x="194.5" y="394.2686">meetings</text><polygon fill="#181818" points="48.5,426.8223,38.5,430.8223,48.5,434.8223,44.5,430.8223" style="stroke:#181818;stroke-width:1.0;"/><line style="stroke:#181818;stroke-width:1.0;stroke-dasharray:2.0,2.0;" x1="42.5" x2="166.5" y1="430.8223" y2="430.8223"/><text fill="#000000" font-family="sans-serif" font-size="13" lengthAdjust="spacing" textLength="87" x="54.5" y="425.5596">show meetings</text><polygon fill="#181818" points="155.5,458.1133,165.5,462.1133,155.5,466.1133,159.5,462.1133" style="stroke:#181818;stroke-width:1.0;"/><line style="stroke:#181818;stroke-width:1.0;" x1="37.5" x2="161.5" y1="462.1133" y2="462.1133"/><text fill="#000000" font-family="sans-serif" font-size="13" lengthAdjust="spacing" textLength="46" x="44.5" y="456.8506">meeting</text><polygon fill="#181818" points="322.5,489.4043,332.5,493.4043,322.5,497.4043,326.5,493.4043" style="stroke:#181818;stroke-width:1.0;"/><line style="stroke:#181818;stroke-width:1.0;" x1="177.5" x2="328.5" y1="493.4043" y2="493.4043"/><text fill="#000000" font-family="sans-serif" font-size="13" lengthAdjust="spacing" textLength="138" x="184.5" y="488.1416">cancelMeeting(meeting)</text><polygon fill="#181818" points="725,520.6953,735,524.6953,725,528.6953,729,524.6953" style="stroke:#181818;stroke-width:1.0;"/><line style="stroke:#181818;stroke-width:1.0;" x1="344.5" x2="731" y1="524.6953" y2="524.6953"/><text fill="#000000" font-family="sans-serif" font-size="13" lengthAdjust="spacing" textLength="138" x="351.5" y="519.4326">cancelMeeting(meeting)</text><polygon fill="#181818" points="1430,551.9863,1440,555.9863,1430,559.9863,1434,555.9863" style="stroke:#181818;stroke-width:1.0;"/><line style="stroke:#181818;stroke-width:1.0;" x1="747" x2="1436" y1="555.9863" y2="555.9863"/><text fill="#000000" font-family="sans-serif" font-size="13" lengthAdjust="spacing" textLength="39" x="754" y="550.7236">begin()</text><path d="M752,568.9863 L752,595.9863 L1106,595.9863 L1106,578.9863 L1096,568.9863 L752,568.9863 " fill="#FEFFDD" style="stroke:#181818;stroke-width:0.5;"/><path d="M1096,568.9863 L1096,578.9863 L1106,578.9863 L1096,568.9863 " fill="#FEFFDD" style="stroke:#181818;stroke-width:0.5;"/><text fill="#000000" font-family="sans-serif" font-size="13" lengthAdjust="spacing" textLength="333" x="758" y="588.0146">the repositories adapt the use of the transactional context</text><polygon fill="#181818" points="1142,620.5684,1152,624.5684,1142,628.5684,1146,624.5684" style="stroke:#181818;stroke-width:1.0;"/><line style="stroke:#181818;stroke-width:1.0;" x1="747" x2="1148" y1="624.5684" y2="624.5684"/><text fill="#000000" font-family="sans-serif" font-size="13" lengthAdjust="spacing" textLength="46" x="754" y="619.3057">cancel()</text><polygon fill="#181818" points="1028,651.8594,1038,655.8594,1028,659.8594,1032,655.8594" style="stroke:#181818;stroke-width:1.0;"/><line style="stroke:#181818;stroke-width:1.0;" x1="747" x2="1034" y1="655.8594" y2="655.8594"/><text fill="#000000" font-family="sans-serif" font-size="13" lengthAdjust="spacing" textLength="80" x="754" y="650.5967">save(meeting)</text><polygon fill="#181818" points="886,683.1504,896,687.1504,886,691.1504,890,687.1504" style="stroke:#181818;stroke-width:1.0;"/><line style="stroke:#181818;stroke-width:1.0;" x1="747" x2="892" y1="687.1504" y2="687.1504"/><text fill="#000000" font-family="sans-serif" font-size="13" lengthAdjust="spacing" textLength="61" x="754" y="681.8877">startDate()</text><polygon fill="#181818" points="758,714.4414,748,718.4414,758,722.4414,754,718.4414" style="stroke:#181818;stroke-width:1.0;"/><line style="stroke:#181818;stroke-width:1.0;stroke-dasharray:2.0,2.0;" x1="752" x2="897" y1="718.4414" y2="718.4414"/><text fill="#000000" font-family="sans-serif" font-size="13" lengthAdjust="spacing" textLength="53" x="764" y="713.1787">startDate</text><polygon fill="#181818" points="886,745.7324,896,749.7324,886,753.7324,890,749.7324" style="stroke:#181818;stroke-width:1.0;"/><line style="stroke:#181818;stroke-width:1.0;" x1="747" x2="892" y1="749.7324" y2="749.7324"/><text fill="#000000" font-family="sans-serif" font-size="13" lengthAdjust="spacing" textLength="127" x="754" y="744.4697">addException(pattern)</text><polygon fill="#181818" points="758,777.0234,748,781.0234,758,785.0234,754,781.0234" style="stroke:#181818;stroke-width:1.0;"/><line style="stroke:#181818;stroke-width:1.0;stroke-dasharray:2.0,2.0;" x1="752" x2="902" y1="781.0234" y2="781.0234"/><text fill="#000000" font-family="sans-serif" font-size="13" lengthAdjust="spacing" textLength="106" x="764" y="775.7607">operation success</text><polygon fill="#181818" points="1268,808.3145,1278,812.3145,1268,816.3145,1272,812.3145" style="stroke:#181818;stroke-width:1.0;"/><line style="stroke:#181818;stroke-width:1.0;" x1="747" x2="1274" y1="812.3145" y2="812.3145"/><text fill="#000000" font-family="sans-serif" font-size="13" lengthAdjust="spacing" textLength="74" x="754" y="807.0518">save(pattern)</text><polygon fill="#181818" points="1430,839.6055,1440,843.6055,1430,847.6055,1434,843.6055" style="stroke:#181818;stroke-width:1.0;"/><line style="stroke:#181818;stroke-width:1.0;" x1="747" x2="1436" y1="843.6055" y2="843.6055"/><text fill="#000000" font-family="sans-serif" font-size="13" lengthAdjust="spacing" textLength="51" x="754" y="838.3428">commit()</text><polygon fill="#181818" points="355.5,870.8965,345.5,874.8965,355.5,878.8965,351.5,874.8965" style="stroke:#181818;stroke-width:1.0;"/><line style="stroke:#181818;stroke-width:1.0;stroke-dasharray:2.0,2.0;" x1="349.5" x2="741" y1="874.8965" y2="874.8965"/><text fill="#000000" font-family="sans-serif" font-size="13" lengthAdjust="spacing" textLength="46" x="361.5" y="869.6338">meeting</text><polygon fill="#181818" points="188.5,902.1875,178.5,906.1875,188.5,910.1875,184.5,906.1875" style="stroke:#181818;stroke-width:1.0;"/><line style="stroke:#181818;stroke-width:1.0;stroke-dasharray:2.0,2.0;" x1="182.5" x2="338.5" y1="906.1875" y2="906.1875"/><text fill="#000000" font-family="sans-serif" font-size="13" lengthAdjust="spacing" textLength="106" x="194.5" y="900.9248">operation success</text><polygon fill="#181818" points="48.5,933.4785,38.5,937.4785,48.5,941.4785,44.5,937.4785" style="stroke:#181818;stroke-width:1.0;"/><line style="stroke:#181818;stroke-width:1.0;stroke-dasharray:2.0,2.0;" x1="42.5" x2="166.5" y1="937.4785" y2="937.4785"/><text fill="#000000" font-family="sans-serif" font-size="13" lengthAdjust="spacing" textLength="106" x="54.5" y="932.2158">operation success</text><!--SRC=[dLN1Zjem4BtdAonES43gjfNQ8eI4O0yze4N0IdlenNK6i3Qn8zl0xjztdCJ1JXpORGuenFFUF8_VZFKh5mLLD2S5PQ_q05lpdW5Hm4oYcpLzfAcyS74WUvffI1BAZ5JaMOCYL9Ev_PTWgE6C5rGOig22GRO2C0Xw_cs3y7SwBHHe48OQBiLiHgHAaU6X7xgGmYYPPLKUxzzqIeiYuona-XemrHnB8rSON56ivklru-QJS0jSxfu-Wzg2EdC65kbUu-Xl0Ng0XJyfXGHhQWmeCVaZDgrF0qjQloDfAdFAhtpVOsesK4ZDyP3UonfSFo9UDMiDnuzGKrx5evGQEV1OkWf-1kYs-Z8hmlkp_mhmEqM5HhjXpMXc3G1lnk9tBulTIvpWuKkIb9OauvcrtOImqbDEidKlFrC3k9WGV3068prt8K811fIhxX4I4OeVZeR8VHYTTyiiKkoePiVrrvEs5Lk3qbmRG4trXieycPG5kHmvjj_9DjO5jwy9kgzI7sY9AAurwE6eZ6psU0qA63miClcMk58zxUTfpiMM7I4zPP0EhQvHGDEayHY2W5QkwNZSaon0fN2NkBM1ggydM2zisA4ZxHDRHj_LwJWT6pBtgkmose67BD53wgDf7LR_IkLloryQN1_b9IGF6w1UwdMxFtDTyVx7HsxMtQJi74UDwfo7OqFYgjqdv2ySk1YEEg5XSrvbcAEzpEe6vA09JMbXoizePXjhNuq_P0Zpch97ZXj-RfyHHTtesl2QdY5Ua1RCpNY469o8IonL94zJnJgybz6Q9KBvCGKqJH_V61IsHCDwi8q-c4hYtLjUUaIV60EjEpZFv_TsWQhyEjwLudc7oJpd1akO93Uw_keTlsaYIcEkZVNyxUttjxXxcbOlEpdE1Y9DF2Qyr_u1]--></g></svg>