<?xml version="1.0" encoding="us-ascii" standalone="no"?><svg xmlns="http://www.w3.org/2000/svg" xmlns:xlink="http://www.w3.org/1999/xlink" contentStyleType="text/css" height="1218px" preserveAspectRatio="none" style="width:2503px;height:1218px;background:#1B1B1B;" version="1.1" viewBox="0 0 2503 1218" width="2503px" zoomAndPan="magnify"><defs/><g><rect fill="#1B1B1B" height="1218" style="stroke:none;stroke-width:1.0;" width="2503" x="0" y="0"/><rect fill="#000000" height="125.118" style="stroke:#E7E7E7;stroke-width:1.0;" width="10" x="146.5" y="117.7739"/><rect fill="#000000" height="824.7083" style="stroke:#E7E7E7;stroke-width:1.0;" width="10" x="146.5" y="292.304"/><rect fill="#000000" height="93.412" style="stroke:#E7E7E7;stroke-width:1.0;" width="10" x="357.5" y="149.4799"/><rect fill="#000000" height="761.2963" style="stroke:#E7E7E7;stroke-width:1.0;" width="10" x="357.5" y="324.01"/><rect fill="#000000" height="61.706" style="stroke:#E7E7E7;stroke-width:1.0;" width="10" x="552" y="181.186"/><rect fill="#000000" height="30" style="stroke:#E7E7E7;stroke-width:1.0;" width="10" x="699.5" y="212.892"/><rect fill="#000000" height="61.706" style="stroke:#E7E7E7;stroke-width:1.0;" width="10" x="699.5" y="544.2461"/><rect fill="#000000" height="61.706" style="stroke:#E7E7E7;stroke-width:1.0;" width="10" x="699.5" y="699.3642"/><rect fill="#000000" height="61.706" style="stroke:#E7E7E7;stroke-width:1.0;" width="10" x="699.5" y="947.8943"/><rect fill="#000000" height="156.8241" style="stroke:#E7E7E7;stroke-width:1.0;" width="10" x="901" y="355.716"/><rect fill="#000000" height="93.412" style="stroke:#E7E7E7;stroke-width:1.0;" width="10" x="1190" y="387.4221"/><rect fill="#000000" height="30" style="stroke:#E7E7E7;stroke-width:1.0;" width="10" x="1455" y="419.1281"/><rect fill="#000000" height="30" style="stroke:#E7E7E7;stroke-width:1.0;" width="10" x="1702.5" y="575.9521"/><rect fill="#000000" height="30" style="stroke:#E7E7E7;stroke-width:1.0;" width="10" x="1702.5" y="637.6582"/><rect fill="#000000" height="30" style="stroke:#E7E7E7;stroke-width:1.0;" width="10" x="1942.5" y="979.6003"/><rect fill="#000000" height="30" style="stroke:#E7E7E7;stroke-width:1.0;" width="10" x="1942.5" y="1041.3063"/><rect fill="#000000" height="30" style="stroke:#E7E7E7;stroke-width:1.0;" width="10" x="2119" y="731.0702"/><rect fill="#000000" height="30" style="stroke:#E7E7E7;stroke-width:1.0;" width="10" x="2119" y="792.7762"/><rect fill="#000000" height="61.706" style="stroke:#E7E7E7;stroke-width:1.0;" width="10" x="2284" y="854.4822"/><rect fill="#000000" height="30" style="stroke:#E7E7E7;stroke-width:1.0;" width="10" x="2434" y="886.1882"/><line style="stroke:#E7E7E7;stroke-width:0.5;stroke-dasharray:5.0,5.0;" x1="23" x2="23" y1="84.0679" y2="1135.0123"/><line style="stroke:#E7E7E7;stroke-width:0.5;stroke-dasharray:5.0,5.0;" x1="151" x2="151" y1="84.0679" y2="1135.0123"/><line style="stroke:#E7E7E7;stroke-width:0.5;stroke-dasharray:5.0,5.0;" x1="362" x2="362" y1="84.0679" y2="1135.0123"/><line style="stroke:#E7E7E7;stroke-width:0.5;stroke-dasharray:5.0,5.0;" x1="557" x2="557" y1="84.0679" y2="1135.0123"/><line style="stroke:#E7E7E7;stroke-width:0.5;stroke-dasharray:5.0,5.0;" x1="704" x2="704" y1="84.0679" y2="1135.0123"/><line style="stroke:#E7E7E7;stroke-width:0.5;stroke-dasharray:5.0,5.0;" x1="906" x2="906" y1="84.0679" y2="1135.0123"/><line style="stroke:#E7E7E7;stroke-width:0.5;stroke-dasharray:5.0,5.0;" x1="1195" x2="1195" y1="84.0679" y2="1135.0123"/><line style="stroke:#E7E7E7;stroke-width:0.5;stroke-dasharray:5.0,5.0;" x1="1460" x2="1460" y1="84.0679" y2="1135.0123"/><line style="stroke:#E7E7E7;stroke-width:0.5;stroke-dasharray:5.0,5.0;" x1="1707" x2="1707" y1="84.0679" y2="1135.0123"/><line style="stroke:#E7E7E7;stroke-width:0.5;stroke-dasharray:5.0,5.0;" x1="1947" x2="1947" y1="84.0679" y2="1135.0123"/><line style="stroke:#E7E7E7;stroke-width:0.5;stroke-dasharray:5.0,5.0;" x1="2124" x2="2124" y1="84.0679" y2="1135.0123"/><line style="stroke:#E7E7E7;stroke-width:0.5;stroke-dasharray:5.0,5.0;" x1="2289" x2="2289" y1="84.0679" y2="1135.0123"/><line style="stroke:#E7E7E7;stroke-width:0.5;stroke-dasharray:5.0,5.0;" x1="2439" x2="2439" y1="84.0679" y2="1135.0123"/><text fill="#FFFFFF" font-family="sans-serif" font-size="14" lengthAdjust="spacing" textLength="31" x="5" y="79.9659">User</text><ellipse cx="23.5" cy="13.5" fill="#222222" rx="8" ry="8" style="stroke:#E7E7E7;stroke-width:0.5;"/><path d="M23.5,21.5 L23.5,48.5 M10.5,29.5 L36.5,29.5 M23.5,48.5 L10.5,63.5 M23.5,48.5 L36.5,63.5 " fill="none" style="stroke:#E7E7E7;stroke-width:0.5;"/><text fill="#FFFFFF" font-family="sans-serif" font-size="14" lengthAdjust="spacing" textLength="31" x="5" y="1148.9782">User</text><ellipse cx="23.5" cy="1161.5802" fill="#222222" rx="8" ry="8" style="stroke:#E7E7E7;stroke-width:0.5;"/><path d="M23.5,1169.5802 L23.5,1196.5802 M10.5,1177.5802 L36.5,1177.5802 M23.5,1196.5802 L10.5,1211.5802 M23.5,1196.5802 L36.5,1211.5802 " fill="none" style="stroke:#E7E7E7;stroke-width:0.5;"/><rect fill="#222222" height="33.0679" rx="2.5" ry="2.5" style="stroke:#E7E7E7;stroke-width:0.5;" width="175" x="64" y="50"/><text fill="#FFFFFF" font-family="sans-serif" font-size="14" lengthAdjust="spacing" textLength="161" x="71" y="71.9659">CreateFormativeExamUI</text><rect fill="#222222" height="33.0679" rx="2.5" ry="2.5" style="stroke:#E7E7E7;stroke-width:0.5;" width="175" x="64" y="1134.0123"/><text fill="#FFFFFF" font-family="sans-serif" font-size="14" lengthAdjust="spacing" textLength="161" x="71" y="1155.9782">CreateFormativeExamUI</text><rect fill="#222222" height="33.0679" rx="2.5" ry="2.5" style="stroke:#E7E7E7;stroke-width:0.5;" width="227" x="249" y="50"/><text fill="#FFFFFF" font-family="sans-serif" font-size="14" lengthAdjust="spacing" textLength="213" x="256" y="71.9659">CreateFormativeExamController</text><rect fill="#222222" height="33.0679" rx="2.5" ry="2.5" style="stroke:#E7E7E7;stroke-width:0.5;" width="227" x="249" y="1134.0123"/><text fill="#FFFFFF" font-family="sans-serif" font-size="14" lengthAdjust="spacing" textLength="213" x="256" y="1155.9782">CreateFormativeExamController</text><rect fill="#222222" height="33.0679" rx="2.5" ry="2.5" style="stroke:#E7E7E7;stroke-width:0.5;" width="142" x="486" y="50"/><text fill="#FFFFFF" font-family="sans-serif" font-size="14" lengthAdjust="spacing" textLength="128" x="493" y="71.9659">PersistenceContext</text><rect fill="#222222" height="33.0679" rx="2.5" ry="2.5" style="stroke:#E7E7E7;stroke-width:0.5;" width="142" x="486" y="1134.0123"/><text fill="#FFFFFF" font-family="sans-serif" font-size="14" lengthAdjust="spacing" textLength="128" x="493" y="1155.9782">PersistenceContext</text><rect fill="#222222" height="33.0679" rx="2.5" ry="2.5" style="stroke:#E7E7E7;stroke-width:0.5;" width="133" x="638" y="50"/><text fill="#FFFFFF" font-family="sans-serif" font-size="14" lengthAdjust="spacing" textLength="119" x="645" y="71.9659">RepositoryFactory</text><rect fill="#222222" height="33.0679" rx="2.5" ry="2.5" style="stroke:#E7E7E7;stroke-width:0.5;" width="133" x="638" y="1134.0123"/><text fill="#FFFFFF" font-family="sans-serif" font-size="14" lengthAdjust="spacing" textLength="119" x="645" y="1155.9782">RepositoryFactory</text><rect fill="#222222" height="33.0679" rx="2.5" ry="2.5" style="stroke:#E7E7E7;stroke-width:0.5;" width="250" x="781" y="50"/><text fill="#FFFFFF" font-family="sans-serif" font-size="14" lengthAdjust="spacing" textLength="236" x="788" y="71.9659">FormativeExamSpecificationFactory</text><rect fill="#222222" height="33.0679" rx="2.5" ry="2.5" style="stroke:#E7E7E7;stroke-width:0.5;" width="250" x="781" y="1134.0123"/><text fill="#FFFFFF" font-family="sans-serif" font-size="14" lengthAdjust="spacing" textLength="236" x="788" y="1155.9782">FormativeExamSpecificationFactory</text><rect fill="#222222" height="33.0679" rx="2.5" ry="2.5" style="stroke:#E7E7E7;stroke-width:0.5;" width="308" x="1041" y="50"/><text fill="#FFFFFF" font-family="sans-serif" font-size="14" lengthAdjust="spacing" textLength="294" x="1048" y="71.9659">FormativeExamSpecificationGrammarVisitor</text><rect fill="#222222" height="33.0679" rx="2.5" ry="2.5" style="stroke:#E7E7E7;stroke-width:0.5;" width="308" x="1041" y="1134.0123"/><text fill="#FFFFFF" font-family="sans-serif" font-size="14" lengthAdjust="spacing" textLength="294" x="1048" y="1155.9782">FormativeExamSpecificationGrammarVisitor</text><rect fill="#222222" height="33.0679" rx="2.5" ry="2.5" style="stroke:#E7E7E7;stroke-width:0.5;" width="202" x="1359" y="50"/><text fill="#FFFFFF" font-family="sans-serif" font-size="14" lengthAdjust="spacing" textLength="188" x="1366" y="71.9659">FormativeExamSpecification</text><rect fill="#222222" height="33.0679" rx="2.5" ry="2.5" style="stroke:#E7E7E7;stroke-width:0.5;" width="202" x="1359" y="1134.0123"/><text fill="#FFFFFF" font-family="sans-serif" font-size="14" lengthAdjust="spacing" textLength="188" x="1366" y="1155.9782">FormativeExamSpecification</text><rect fill="#222222" height="33.0679" rx="2.5" ry="2.5" style="stroke:#E7E7E7;stroke-width:0.5;" width="273" x="1571" y="50"/><text fill="#FFFFFF" font-family="sans-serif" font-size="14" lengthAdjust="spacing" textLength="259" x="1578" y="71.9659">FormativeExamSpecificationRepository</text><rect fill="#222222" height="33.0679" rx="2.5" ry="2.5" style="stroke:#E7E7E7;stroke-width:0.5;" width="273" x="1571" y="1134.0123"/><text fill="#FFFFFF" font-family="sans-serif" font-size="14" lengthAdjust="spacing" textLength="259" x="1578" y="1155.9782">FormativeExamSpecificationRepository</text><rect fill="#222222" height="33.0679" rx="2.5" ry="2.5" style="stroke:#E7E7E7;stroke-width:0.5;" width="187" x="1854" y="50"/><text fill="#FFFFFF" font-family="sans-serif" font-size="14" lengthAdjust="spacing" textLength="173" x="1861" y="71.9659">FormativeExamRepository</text><rect fill="#222222" height="33.0679" rx="2.5" ry="2.5" style="stroke:#E7E7E7;stroke-width:0.5;" width="187" x="1854" y="1134.0123"/><text fill="#FFFFFF" font-family="sans-serif" font-size="14" lengthAdjust="spacing" textLength="173" x="1861" y="1155.9782">FormativeExamRepository</text><rect fill="#222222" height="33.0679" rx="2.5" ry="2.5" style="stroke:#E7E7E7;stroke-width:0.5;" width="146" x="2051" y="50"/><text fill="#FFFFFF" font-family="sans-serif" font-size="14" lengthAdjust="spacing" textLength="132" x="2058" y="71.9659">QuestionRepository</text><rect fill="#222222" height="33.0679" rx="2.5" ry="2.5" style="stroke:#E7E7E7;stroke-width:0.5;" width="146" x="2051" y="1134.0123"/><text fill="#FFFFFF" font-family="sans-serif" font-size="14" lengthAdjust="spacing" textLength="132" x="2058" y="1155.9782">QuestionRepository</text><rect fill="#222222" height="33.0679" rx="2.5" ry="2.5" style="stroke:#E7E7E7;stroke-width:0.5;" width="164" x="2207" y="50"/><text fill="#FFFFFF" font-family="sans-serif" font-size="14" lengthAdjust="spacing" textLength="150" x="2214" y="71.9659">FormativeExamFactory</text><rect fill="#222222" height="33.0679" rx="2.5" ry="2.5" style="stroke:#E7E7E7;stroke-width:0.5;" width="164" x="2207" y="1134.0123"/><text fill="#FFFFFF" font-family="sans-serif" font-size="14" lengthAdjust="spacing" textLength="150" x="2214" y="1155.9782">FormativeExamFactory</text><rect fill="#222222" height="33.0679" rx="2.5" ry="2.5" style="stroke:#E7E7E7;stroke-width:0.5;" width="116" x="2381" y="50"/><text fill="#FFFFFF" font-family="sans-serif" font-size="14" lengthAdjust="spacing" textLength="102" x="2388" y="71.9659">FormativeExam</text><rect fill="#222222" height="33.0679" rx="2.5" ry="2.5" style="stroke:#E7E7E7;stroke-width:0.5;" width="116" x="2381" y="1134.0123"/><text fill="#FFFFFF" font-family="sans-serif" font-size="14" lengthAdjust="spacing" textLength="102" x="2388" y="1155.9782">FormativeExam</text><rect fill="#000000" height="125.118" style="stroke:#E7E7E7;stroke-width:1.0;" width="10" x="146.5" y="117.7739"/><rect fill="#000000" height="824.7083" style="stroke:#E7E7E7;stroke-width:1.0;" width="10" x="146.5" y="292.304"/><rect fill="#000000" height="93.412" style="stroke:#E7E7E7;stroke-width:1.0;" width="10" x="357.5" y="149.4799"/><rect fill="#000000" height="761.2963" style="stroke:#E7E7E7;stroke-width:1.0;" width="10" x="357.5" y="324.01"/><rect fill="#000000" height="61.706" style="stroke:#E7E7E7;stroke-width:1.0;" width="10" x="552" y="181.186"/><rect fill="#000000" height="30" style="stroke:#E7E7E7;stroke-width:1.0;" width="10" x="699.5" y="212.892"/><rect fill="#000000" height="61.706" style="stroke:#E7E7E7;stroke-width:1.0;" width="10" x="699.5" y="544.2461"/><rect fill="#000000" height="61.706" style="stroke:#E7E7E7;stroke-width:1.0;" width="10" x="699.5" y="699.3642"/><rect fill="#000000" height="61.706" style="stroke:#E7E7E7;stroke-width:1.0;" width="10" x="699.5" y="947.8943"/><rect fill="#000000" height="156.8241" style="stroke:#E7E7E7;stroke-width:1.0;" width="10" x="901" y="355.716"/><rect fill="#000000" height="93.412" style="stroke:#E7E7E7;stroke-width:1.0;" width="10" x="1190" y="387.4221"/><rect fill="#000000" height="30" style="stroke:#E7E7E7;stroke-width:1.0;" width="10" x="1455" y="419.1281"/><rect fill="#000000" height="30" style="stroke:#E7E7E7;stroke-width:1.0;" width="10" x="1702.5" y="575.9521"/><rect fill="#000000" height="30" style="stroke:#E7E7E7;stroke-width:1.0;" width="10" x="1702.5" y="637.6582"/><rect fill="#000000" height="30" style="stroke:#E7E7E7;stroke-width:1.0;" width="10" x="1942.5" y="979.6003"/><rect fill="#000000" height="30" style="stroke:#E7E7E7;stroke-width:1.0;" width="10" x="1942.5" y="1041.3063"/><rect fill="#000000" height="30" style="stroke:#E7E7E7;stroke-width:1.0;" width="10" x="2119" y="731.0702"/><rect fill="#000000" height="30" style="stroke:#E7E7E7;stroke-width:1.0;" width="10" x="2119" y="792.7762"/><rect fill="#000000" height="61.706" style="stroke:#E7E7E7;stroke-width:1.0;" width="10" x="2284" y="854.4822"/><rect fill="#000000" height="30" style="stroke:#E7E7E7;stroke-width:1.0;" width="10" x="2434" y="886.1882"/><polygon fill="#E7E7E7" points="134.5,113.7739,144.5,117.7739,134.5,121.7739,138.5,117.7739" style="stroke:#E7E7E7;stroke-width:1.0;"/><line style="stroke:#E7E7E7;stroke-width:1.0;stroke-dasharray:2.0,2.0;" x1="23.5" x2="140.5" y1="117.7739" y2="117.7739"/><text fill="#FFFFFF" font-family="sans-serif" font-size="13" lengthAdjust="spacing" textLength="32" x="30.5" y="111.9649">enter</text><polygon fill="#E7E7E7" points="345.5,145.4799,355.5,149.4799,345.5,153.4799,349.5,149.4799" style="stroke:#E7E7E7;stroke-width:1.0;"/><line style="stroke:#E7E7E7;stroke-width:1.0;stroke-dasharray:2.0,2.0;" x1="156.5" x2="351.5" y1="149.4799" y2="149.4799"/><text fill="#FFFFFF" font-family="sans-serif" font-size="13" lengthAdjust="spacing" textLength="45" x="163.5" y="143.6709">create()</text><polygon fill="#E7E7E7" points="540,177.186,550,181.186,540,185.186,544,181.186" style="stroke:#E7E7E7;stroke-width:1.0;"/><line style="stroke:#E7E7E7;stroke-width:1.0;stroke-dasharray:2.0,2.0;" x1="367.5" x2="546" y1="181.186" y2="181.186"/><text fill="#FFFFFF" font-family="sans-serif" font-size="13" lengthAdjust="spacing" textLength="79" x="374.5" y="175.377">repositories()</text><polygon fill="#E7E7E7" points="687.5,208.892,697.5,212.892,687.5,216.892,691.5,212.892" style="stroke:#E7E7E7;stroke-width:1.0;"/><line style="stroke:#E7E7E7;stroke-width:1.0;stroke-dasharray:2.0,2.0;" x1="562" x2="693.5" y1="212.892" y2="212.892"/><text fill="#FFFFFF" font-family="sans-serif" font-size="13" lengthAdjust="spacing" textLength="45" x="569" y="207.083">create()</text><polygon fill="#E7E7E7" points="134.5,288.304,144.5,292.304,134.5,296.304,138.5,292.304" style="stroke:#E7E7E7;stroke-width:1.0;"/><line style="stroke:#E7E7E7;stroke-width:1.0;stroke-dasharray:2.0,2.0;" x1="23.5" x2="140.5" y1="292.304" y2="292.304"/><text fill="#FFFFFF" font-family="sans-serif" font-size="13" lengthAdjust="spacing" textLength="104" x="30.5" y="268.789">type specification</text><text fill="#FFFFFF" font-family="sans-serif" font-size="13" lengthAdjust="spacing" textLength="48" x="30.5" y="286.495">file path</text><polygon fill="#E7E7E7" points="345.5,320.01,355.5,324.01,345.5,328.01,349.5,324.01" style="stroke:#E7E7E7;stroke-width:1.0;"/><line style="stroke:#E7E7E7;stroke-width:1.0;stroke-dasharray:2.0,2.0;" x1="156.5" x2="351.5" y1="324.01" y2="324.01"/><text fill="#FFFFFF" font-family="sans-serif" font-size="13" lengthAdjust="spacing" textLength="156" x="163.5" y="318.201">createFormativeExam(file)</text><polygon fill="#E7E7E7" points="889,351.716,899,355.716,889,359.716,893,355.716" style="stroke:#E7E7E7;stroke-width:1.0;"/><line style="stroke:#E7E7E7;stroke-width:1.0;stroke-dasharray:2.0,2.0;" x1="367.5" x2="895" y1="355.716" y2="355.716"/><text fill="#FFFFFF" font-family="sans-serif" font-size="13" lengthAdjust="spacing" textLength="62" x="374.5" y="349.907">create(file)</text><polygon fill="#E7E7E7" points="1178,383.4221,1188,387.4221,1178,391.4221,1182,387.4221" style="stroke:#E7E7E7;stroke-width:1.0;"/><line style="stroke:#E7E7E7;stroke-width:1.0;stroke-dasharray:2.0,2.0;" x1="911" x2="1184" y1="387.4221" y2="387.4221"/><text fill="#FFFFFF" font-family="sans-serif" font-size="13" lengthAdjust="spacing" textLength="32" x="918" y="381.6131">visit()</text><polygon fill="#E7E7E7" points="1443,415.1281,1453,419.1281,1443,423.1281,1447,419.1281" style="stroke:#E7E7E7;stroke-width:1.0;"/><line style="stroke:#E7E7E7;stroke-width:1.0;stroke-dasharray:2.0,2.0;" x1="1200" x2="1449" y1="419.1281" y2="419.1281"/><text fill="#FFFFFF" font-family="sans-serif" font-size="13" lengthAdjust="spacing" textLength="38" x="1207" y="413.3191">build()</text><polygon fill="#E7E7E7" points="922,476.8341,912,480.8341,922,484.8341,918,480.8341" style="stroke:#E7E7E7;stroke-width:1.0;"/><line style="stroke:#E7E7E7;stroke-width:1.0;stroke-dasharray:2.0,2.0;" x1="916" x2="1194" y1="480.8341" y2="480.8341"/><text fill="#FFFFFF" font-family="sans-serif" font-size="13" lengthAdjust="spacing" textLength="74" x="928" y="475.0251">specification</text><polygon fill="#E7E7E7" points="378.5,508.5401,368.5,512.5401,378.5,516.5401,374.5,512.5401" style="stroke:#E7E7E7;stroke-width:1.0;"/><line style="stroke:#E7E7E7;stroke-width:1.0;stroke-dasharray:2.0,2.0;" x1="372.5" x2="905" y1="512.5401" y2="512.5401"/><text fill="#FFFFFF" font-family="sans-serif" font-size="13" lengthAdjust="spacing" textLength="74" x="384.5" y="506.7311">specification</text><polygon fill="#E7E7E7" points="687.5,540.2461,697.5,544.2461,687.5,548.2461,691.5,544.2461" style="stroke:#E7E7E7;stroke-width:1.0;"/><line style="stroke:#E7E7E7;stroke-width:1.0;stroke-dasharray:2.0,2.0;" x1="367.5" x2="693.5" y1="544.2461" y2="544.2461"/><text fill="#FFFFFF" font-family="sans-serif" font-size="13" lengthAdjust="spacing" textLength="180" x="374.5" y="538.4371">formativeExamSpecifications()</text><polygon fill="#E7E7E7" points="1690.5,571.9521,1700.5,575.9521,1690.5,579.9521,1694.5,575.9521" style="stroke:#E7E7E7;stroke-width:1.0;"/><line style="stroke:#E7E7E7;stroke-width:1.0;stroke-dasharray:2.0,2.0;" x1="709.5" x2="1696.5" y1="575.9521" y2="575.9521"/><text fill="#FFFFFF" font-family="sans-serif" font-size="13" lengthAdjust="spacing" textLength="45" x="716.5" y="570.1431">create()</text><polygon fill="#E7E7E7" points="1690.5,633.6582,1700.5,637.6582,1690.5,641.6582,1694.5,637.6582" style="stroke:#E7E7E7;stroke-width:1.0;"/><line style="stroke:#E7E7E7;stroke-width:1.0;stroke-dasharray:2.0,2.0;" x1="367.5" x2="1696.5" y1="637.6582" y2="637.6582"/><text fill="#FFFFFF" font-family="sans-serif" font-size="13" lengthAdjust="spacing" textLength="109" x="374.5" y="631.8492">save(specification)</text><polygon fill="#E7E7E7" points="687.5,695.3642,697.5,699.3642,687.5,703.3642,691.5,699.3642" style="stroke:#E7E7E7;stroke-width:1.0;"/><line style="stroke:#E7E7E7;stroke-width:1.0;stroke-dasharray:2.0,2.0;" x1="367.5" x2="693.5" y1="699.3642" y2="699.3642"/><text fill="#FFFFFF" font-family="sans-serif" font-size="13" lengthAdjust="spacing" textLength="67" x="374.5" y="693.5552">questions()</text><polygon fill="#E7E7E7" points="2107,727.0702,2117,731.0702,2107,735.0702,2111,731.0702" style="stroke:#E7E7E7;stroke-width:1.0;"/><line style="stroke:#E7E7E7;stroke-width:1.0;stroke-dasharray:2.0,2.0;" x1="709.5" x2="2113" y1="731.0702" y2="731.0702"/><text fill="#FFFFFF" font-family="sans-serif" font-size="13" lengthAdjust="spacing" textLength="45" x="716.5" y="725.2612">create()</text><polygon fill="#E7E7E7" points="2107,788.7762,2117,792.7762,2107,796.7762,2111,792.7762" style="stroke:#E7E7E7;stroke-width:1.0;"/><line style="stroke:#E7E7E7;stroke-width:1.0;stroke-dasharray:2.0,2.0;" x1="367.5" x2="2113" y1="792.7762" y2="792.7762"/><text fill="#FFFFFF" font-family="sans-serif" font-size="13" lengthAdjust="spacing" textLength="45" x="374.5" y="786.9672">findAll()</text><polygon fill="#E7E7E7" points="2272,850.4822,2282,854.4822,2272,858.4822,2276,854.4822" style="stroke:#E7E7E7;stroke-width:1.0;"/><line style="stroke:#E7E7E7;stroke-width:1.0;stroke-dasharray:2.0,2.0;" x1="367.5" x2="2278" y1="854.4822" y2="854.4822"/><text fill="#FFFFFF" font-family="sans-serif" font-size="13" lengthAdjust="spacing" textLength="295" x="374.5" y="848.6732">generateFormativeExam(specification, questions)</text><polygon fill="#E7E7E7" points="2422,882.1882,2432,886.1882,2422,890.1882,2426,886.1882" style="stroke:#E7E7E7;stroke-width:1.0;"/><line style="stroke:#E7E7E7;stroke-width:1.0;stroke-dasharray:2.0,2.0;" x1="2294" x2="2428" y1="886.1882" y2="886.1882"/><text fill="#FFFFFF" font-family="sans-serif" font-size="13" lengthAdjust="spacing" textLength="45" x="2301" y="880.3792">create()</text><polygon fill="#E7E7E7" points="687.5,943.8943,697.5,947.8943,687.5,951.8943,691.5,947.8943" style="stroke:#E7E7E7;stroke-width:1.0;"/><line style="stroke:#E7E7E7;stroke-width:1.0;stroke-dasharray:2.0,2.0;" x1="367.5" x2="693.5" y1="947.8943" y2="947.8943"/><text fill="#FFFFFF" font-family="sans-serif" font-size="13" lengthAdjust="spacing" textLength="105" x="374.5" y="942.0853">formativeExams()</text><polygon fill="#E7E7E7" points="1930.5,975.6003,1940.5,979.6003,1930.5,983.6003,1934.5,979.6003" style="stroke:#E7E7E7;stroke-width:1.0;"/><line style="stroke:#E7E7E7;stroke-width:1.0;stroke-dasharray:2.0,2.0;" x1="709.5" x2="1936.5" y1="979.6003" y2="979.6003"/><text fill="#FFFFFF" font-family="sans-serif" font-size="13" lengthAdjust="spacing" textLength="45" x="716.5" y="973.7913">create()</text><polygon fill="#E7E7E7" points="1930.5,1037.3063,1940.5,1041.3063,1930.5,1045.3063,1934.5,1041.3063" style="stroke:#E7E7E7;stroke-width:1.0;"/><line style="stroke:#E7E7E7;stroke-width:1.0;stroke-dasharray:2.0,2.0;" x1="367.5" x2="1936.5" y1="1041.3063" y2="1041.3063"/><text fill="#FFFFFF" font-family="sans-serif" font-size="13" lengthAdjust="spacing" textLength="68" x="374.5" y="1035.4973">save(exam)</text><polygon fill="#E7E7E7" points="167.5,1081.3063,157.5,1085.3063,167.5,1089.3063,163.5,1085.3063" style="stroke:#E7E7E7;stroke-width:1.0;"/><line style="stroke:#E7E7E7;stroke-width:1.0;stroke-dasharray:2.0,2.0;" x1="161.5" x2="361.5" y1="1085.3063" y2="1085.3063"/><polygon fill="#E7E7E7" points="34.5,1113.0123,24.5,1117.0123,34.5,1121.0123,30.5,1117.0123" style="stroke:#E7E7E7;stroke-width:1.0;"/><line style="stroke:#E7E7E7;stroke-width:1.0;stroke-dasharray:2.0,2.0;" x1="28.5" x2="150.5" y1="1117.0123" y2="1117.0123"/><text fill="#FFFFFF" font-family="sans-serif" font-size="13" lengthAdjust="spacing" textLength="32" x="40.5" y="1111.2033">show</text><!--SRC=[dLLDRzim3BtdL-YO0kiVyA504JJ3RckBzZGWq1nw5U3uGr8ovzzNb6HPiYJ7hI-sIJxIV7gaQIbRJju4S485EQlxfgDSif9rj95anu5AsBVyH2MxmDD0Js-_T2Ix5RTh6ydRkZQPIydhJG3v3Lmm8Q4f0KDXa2Pk2A9Ue6i5KzzutLFyr2i6SUWE5It3V47nrmvALh5I6Th6Go9g7UWdfwSJvUzCLqVinJokhOeGeGnhuwTEzOU2EAWsspnu7X-7Fvz1n9bx4vXFxD7r3ve3A5C-6ADqn0QrG-xl7vGq2WBgG1LJAXExA66WN3P4NMUcGr0D1IcrQBPtskD2jLA8lV358eO2pzqqma1Os0mwEAD13nfizJAh6C57MVdE8sJTdWiBcmO3esh4UqSE0fBajGCj4QU1Fqt5QY0TbHyXUHdkWgFO8dOLcJuN4oW0pdbGxnfgXw0m3pacnr4XiylQTIPil21_pwm-gZHHgCkbPsZkzMWrCxPKIRSRy9mxOZVYgTODyUayNWwzc2BAdGIhx098IZgbIMiplTazSKlRRfzaEe_yao_HpLHLq0ji0qvIOieddtmBdFLsaNsBeNuLF_qYE_qNk1dhLQmvFjPrwfEpwTnoZhAEcxZ09-3Hx0T7y6DYB57TBNM_sT6eYvb2ouH56Rmk0fzdTvNNpiStHsBbHDmOY2_DWpyEs69o2XQ687VkTlVFVol-3m7_AQhoH_j_zhVv1000]--></g></svg>