<?xml version="1.0" encoding="us-ascii" standalone="no"?><svg xmlns="http://www.w3.org/2000/svg" xmlns:xlink="http://www.w3.org/1999/xlink" contentStyleType="text/css" height="949px" preserveAspectRatio="none" style="width:1526px;height:949px;background:#FFFFFF;" version="1.1" viewBox="0 0 1526 949" width="1526px" zoomAndPan="magnify"><defs/><g><!--class Meeting--><g id="elem_Meeting"><rect codeLine="2" fill="#F1F1F1" height="116.4453" id="Meeting" rx="2.5" ry="2.5" style="stroke:#181818;stroke-width:0.5;" width="266" x="258.5" y="379"/><ellipse cx="361.25" cy="401.291" fill="#ADD1B2" rx="11" ry="11" style="stroke:#181818;stroke-width:1.0;"/><path d="M364.0156,397.166 Q364.1719,396.9473 364.3594,396.8379 Q364.5469,396.7285 364.7656,396.7285 Q365.1406,396.7285 365.375,396.9941 Q365.6094,397.2441 365.6094,397.8535 L365.6094,399.3066 Q365.6094,399.916 365.375,400.1816 Q365.1406,400.4473 364.7656,400.4473 Q364.4219,400.4473 364.2188,400.2441 Q364.0156,400.0566 363.9063,399.541 Q363.8594,399.1816 363.6719,398.9941 Q363.3438,398.6191 362.7344,398.4004 Q362.125,398.1816 361.5,398.1816 Q360.7344,398.1816 360.0938,398.5098 Q359.4688,398.8379 358.9688,399.5879 Q358.4844,400.3379 358.4844,401.3691 L358.4844,402.4629 Q358.4844,403.6973 359.375,404.5254 Q360.2656,405.3379 361.8594,405.3379 Q362.7969,405.3379 363.4531,405.0879 Q363.8438,404.9316 364.2656,404.4941 Q364.5313,404.2285 364.6719,404.1504 Q364.8281,404.0723 365.0313,404.0723 Q365.3594,404.0723 365.6094,404.3379 Q365.875,404.5879 365.875,404.9316 Q365.875,405.2754 365.5313,405.6816 Q365.0313,406.2598 364.2344,406.5879 Q363.1563,407.041 361.8594,407.041 Q360.3438,407.041 359.1406,406.416 Q358.1563,405.916 357.4688,404.8535 Q356.7813,403.7754 356.7813,402.4941 L356.7813,401.3379 Q356.7813,400.0098 357.3906,398.8691 Q358.0156,397.7129 359.1094,397.1035 Q360.2031,396.4785 361.4375,396.4785 Q362.1719,396.4785 362.8125,396.6504 Q363.4688,396.8066 364.0156,397.166 Z " fill="#000000"/><text fill="#000000" font-family="sans-serif" font-size="12" font-style="italic" lengthAdjust="spacing" textLength="56" x="379.75" y="396.9492">&#171;domain&#187;</text><text fill="#000000" font-family="sans-serif" font-size="14" lengthAdjust="spacing" textLength="50" x="382.75" y="415.0684">Meeting</text><line style="stroke:#181818;stroke-width:0.5;" x1="259.5" x2="523.5" y1="423.582" y2="423.582"/><rect fill="none" height="6" style="stroke:#C82930;stroke-width:1.0;" width="6" x="266.5" y="435.3926"/><text fill="#000000" font-family="sans-serif" font-size="14" lengthAdjust="spacing" textLength="105" x="278.5" y="442.6895">UserName : user</text><rect fill="none" height="6" style="stroke:#C82930;stroke-width:1.0;" width="6" x="266.5" y="454.0137"/><text fill="#000000" font-family="sans-serif" font-size="14" lengthAdjust="spacing" textLength="172" x="278.5" y="461.3105">RecurringPattern : patterns</text><rect fill="none" height="6" style="stroke:#C82930;stroke-width:1.0;" width="6" x="266.5" y="472.6348"/><text fill="#000000" font-family="sans-serif" font-size="14" lengthAdjust="spacing" textLength="240" x="278.5" y="479.9316">List&lt;MeetingParticipant&gt; : participants</text><line style="stroke:#181818;stroke-width:0.5;" x1="259.5" x2="523.5" y1="487.4453" y2="487.4453"/></g><!--class MeetingParticipant--><g id="elem_MeetingParticipant"><rect codeLine="8" fill="#F1F1F1" height="116.4453" id="MeetingParticipant" rx="2.5" ry="2.5" style="stroke:#181818;stroke-width:0.5;" width="183" x="181" y="593"/><ellipse cx="211.3" cy="615.291" fill="#ADD1B2" rx="11" ry="11" style="stroke:#181818;stroke-width:1.0;"/><path d="M214.0656,611.166 Q214.2219,610.9473 214.4094,610.8379 Q214.5969,610.7285 214.8156,610.7285 Q215.1906,610.7285 215.425,610.9941 Q215.6594,611.2441 215.6594,611.8535 L215.6594,613.3066 Q215.6594,613.916 215.425,614.1816 Q215.1906,614.4473 214.8156,614.4473 Q214.4719,614.4473 214.2688,614.2441 Q214.0656,614.0566 213.9563,613.541 Q213.9094,613.1816 213.7219,612.9941 Q213.3938,612.6191 212.7844,612.4004 Q212.175,612.1816 211.55,612.1816 Q210.7844,612.1816 210.1438,612.5098 Q209.5188,612.8379 209.0188,613.5879 Q208.5344,614.3379 208.5344,615.3691 L208.5344,616.4629 Q208.5344,617.6973 209.425,618.5254 Q210.3156,619.3379 211.9094,619.3379 Q212.8469,619.3379 213.5031,619.0879 Q213.8938,618.9316 214.3156,618.4941 Q214.5813,618.2285 214.7219,618.1504 Q214.8781,618.0723 215.0813,618.0723 Q215.4094,618.0723 215.6594,618.3379 Q215.925,618.5879 215.925,618.9316 Q215.925,619.2754 215.5813,619.6816 Q215.0813,620.2598 214.2844,620.5879 Q213.2063,621.041 211.9094,621.041 Q210.3938,621.041 209.1906,620.416 Q208.2063,619.916 207.5188,618.8535 Q206.8313,617.7754 206.8313,616.4941 L206.8313,615.3379 Q206.8313,614.0098 207.4406,612.8691 Q208.0656,611.7129 209.1594,611.1035 Q210.2531,610.4785 211.4875,610.4785 Q212.2219,610.4785 212.8625,610.6504 Q213.5188,610.8066 214.0656,611.166 Z " fill="#000000"/><text fill="#000000" font-family="sans-serif" font-size="12" font-style="italic" lengthAdjust="spacing" textLength="56" x="259.2" y="610.9492">&#171;domain&#187;</text><text fill="#000000" font-family="sans-serif" font-size="14" lengthAdjust="spacing" textLength="117" x="228.7" y="629.0684">MeetingParticipant</text><line style="stroke:#181818;stroke-width:0.5;" x1="182" x2="363" y1="637.582" y2="637.582"/><rect fill="none" height="6" style="stroke:#C82930;stroke-width:1.0;" width="6" x="189" y="649.3926"/><text fill="#000000" font-family="sans-serif" font-size="14" lengthAdjust="spacing" textLength="112" x="201" y="656.6895">Meeting : meeting</text><rect fill="none" height="6" style="stroke:#C82930;stroke-width:1.0;" width="6" x="189" y="668.0137"/><text fill="#000000" font-family="sans-serif" font-size="14" lengthAdjust="spacing" textLength="115" x="201" y="675.3105">SystemUser : user</text><rect fill="none" height="6" style="stroke:#C82930;stroke-width:1.0;" width="6" x="189" y="686.6348"/><text fill="#000000" font-family="sans-serif" font-size="14" lengthAdjust="spacing" textLength="157" x="201" y="693.9316">ParticipantStatus : status</text><line style="stroke:#181818;stroke-width:0.5;" x1="182" x2="363" y1="701.4453" y2="701.4453"/></g><!--class SystemUser--><g id="elem_SystemUser"><rect codeLine="14" fill="#F1F1F1" height="60.582" id="SystemUser" rx="2.5" ry="2.5" style="stroke:#181818;stroke-width:0.5;" width="107" x="7" y="844"/><ellipse cx="22" cy="866.291" fill="#ADD1B2" rx="11" ry="11" style="stroke:#181818;stroke-width:1.0;"/><path d="M24.7656,862.166 Q24.9219,861.9473 25.1094,861.8379 Q25.2969,861.7285 25.5156,861.7285 Q25.8906,861.7285 26.125,861.9941 Q26.3594,862.2441 26.3594,862.8535 L26.3594,864.3066 Q26.3594,864.916 26.125,865.1816 Q25.8906,865.4473 25.5156,865.4473 Q25.1719,865.4473 24.9688,865.2441 Q24.7656,865.0566 24.6563,864.541 Q24.6094,864.1816 24.4219,863.9941 Q24.0938,863.6191 23.4844,863.4004 Q22.875,863.1816 22.25,863.1816 Q21.4844,863.1816 20.8438,863.5098 Q20.2188,863.8379 19.7188,864.5879 Q19.2344,865.3379 19.2344,866.3691 L19.2344,867.4629 Q19.2344,868.6973 20.125,869.5254 Q21.0156,870.3379 22.6094,870.3379 Q23.5469,870.3379 24.2031,870.0879 Q24.5938,869.9316 25.0156,869.4941 Q25.2813,869.2285 25.4219,869.1504 Q25.5781,869.0723 25.7813,869.0723 Q26.1094,869.0723 26.3594,869.3379 Q26.625,869.5879 26.625,869.9316 Q26.625,870.2754 26.2813,870.6816 Q25.7813,871.2598 24.9844,871.5879 Q23.9063,872.041 22.6094,872.041 Q21.0938,872.041 19.8906,871.416 Q18.9063,870.916 18.2188,869.8535 Q17.5313,868.7754 17.5313,867.4941 L17.5313,866.3379 Q17.5313,865.0098 18.1406,863.8691 Q18.7656,862.7129 19.8594,862.1035 Q20.9531,861.4785 22.1875,861.4785 Q22.9219,861.4785 23.5625,861.6504 Q24.2188,861.8066 24.7656,862.166 Z " fill="#000000"/><text fill="#000000" font-family="sans-serif" font-size="12" font-style="italic" lengthAdjust="spacing" textLength="56" x="45.5" y="861.9492">&#171;domain&#187;</text><text fill="#000000" font-family="sans-serif" font-size="14" lengthAdjust="spacing" textLength="75" x="36" y="880.0684">SystemUser</text><line style="stroke:#181818;stroke-width:0.5;" x1="8" x2="113" y1="888.582" y2="888.582"/><line style="stroke:#181818;stroke-width:0.5;" x1="8" x2="113" y1="896.582" y2="896.582"/></g><!--class ParticipantStatus--><g id="elem_ParticipantStatus"><rect codeLine="18" fill="#F1F1F1" height="135.0664" id="ParticipantStatus" rx="2.5" ry="2.5" style="stroke:#181818;stroke-width:0.5;" width="247" x="149" y="807"/><ellipse cx="214.75" cy="829.291" fill="#EB937F" rx="11" ry="11" style="stroke:#181818;stroke-width:1.0;"/><path d="M213.6094,830.0879 L213.6094,832.5879 L217.9375,832.5879 L217.9375,831.666 Q217.9375,831.0566 218.1719,830.791 Q218.4219,830.5254 218.7969,830.5254 Q219.1719,830.5254 219.4063,830.791 Q219.6406,831.0566 219.6406,831.666 L219.6406,834.291 L211.6406,834.291 Q211.0156,834.291 210.75,834.0566 Q210.5,833.8223 210.5,833.4316 Q210.5,833.0566 210.7656,832.8223 Q211.0313,832.5879 211.6406,832.5879 L211.9063,832.5879 L211.9063,825.9316 L211.6406,825.9316 Q211.0156,825.9316 210.75,825.6973 Q210.5,825.4629 210.5,825.0723 Q210.5,824.6973 210.75,824.4629 Q211.0156,824.2285 211.6406,824.2285 L219.2656,824.2285 L219.2656,826.8223 Q219.2656,827.4316 219.0313,827.6973 Q218.8125,827.9473 218.4219,827.9473 Q218.0469,827.9473 217.8125,827.6973 Q217.5781,827.4316 217.5781,826.8223 L217.5781,825.9316 L213.6094,825.9316 L213.6094,828.3848 L215.0938,828.3848 Q215.0938,827.7285 215.2188,827.541 Q215.4844,827.1348 215.9531,827.1348 Q216.3281,827.1348 216.5625,827.4004 Q216.7969,827.6504 216.7969,828.2598 L216.7969,830.2285 Q216.7969,830.7754 216.6719,830.9629 Q216.4063,831.3535 215.9531,831.3535 Q215.4844,831.3535 215.2188,830.9473 Q215.0938,830.7598 215.0938,830.0879 L213.6094,830.0879 Z " fill="#000000"/><text fill="#000000" font-family="sans-serif" font-size="12" font-style="italic" lengthAdjust="spacing" textLength="56" x="260.75" y="824.9492">&#171;domain&#187;</text><text fill="#000000" font-family="sans-serif" font-size="14" lengthAdjust="spacing" textLength="107" x="235.25" y="843.0684">ParticipantStatus</text><line style="stroke:#181818;stroke-width:0.5;" x1="150" x2="395" y1="851.582" y2="851.582"/><rect fill="none" height="6" style="stroke:#C82930;stroke-width:1.0;" width="6" x="157" y="863.3926"/><text fill="#000000" font-family="sans-serif" font-size="14" lengthAdjust="spacing" textLength="51" x="169" y="870.6895">pending</text><rect fill="none" height="6" style="stroke:#C82930;stroke-width:1.0;" width="6" x="157" y="882.0137"/><text fill="#000000" font-family="sans-serif" font-size="14" lengthAdjust="spacing" textLength="58" x="169" y="889.3105">accepted</text><rect fill="none" height="6" style="stroke:#C82930;stroke-width:1.0;" width="6" x="157" y="900.6348"/><text fill="#000000" font-family="sans-serif" font-size="14" lengthAdjust="spacing" textLength="43" x="169" y="907.9316">denied</text><line style="stroke:#181818;stroke-width:0.5;" x1="150" x2="395" y1="915.4453" y2="915.4453"/><ellipse cx="160" cy="930.2559" fill="#84BE84" rx="3" ry="3" style="stroke:#038048;stroke-width:1.0;"/><text fill="#000000" font-family="sans-serif" font-size="14" lengthAdjust="spacing" textLength="221" x="169" y="934.5527">checkAvailability(RecurringPattern)</text></g><!--class ScheduleMeetingUI--><g id="elem_ScheduleMeetingUI"><rect codeLine="26" fill="#F1F1F1" height="79.2031" id="ScheduleMeetingUI" rx="2.5" ry="2.5" style="stroke:#181818;stroke-width:0.5;" width="153" x="364" y="7"/><ellipse cx="379" cy="29.291" fill="#ADD1B2" rx="11" ry="11" style="stroke:#181818;stroke-width:1.0;"/><path d="M381.7656,25.166 Q381.9219,24.9473 382.1094,24.8379 Q382.2969,24.7285 382.5156,24.7285 Q382.8906,24.7285 383.125,24.9941 Q383.3594,25.2441 383.3594,25.8535 L383.3594,27.3066 Q383.3594,27.916 383.125,28.1816 Q382.8906,28.4473 382.5156,28.4473 Q382.1719,28.4473 381.9688,28.2441 Q381.7656,28.0566 381.6563,27.541 Q381.6094,27.1816 381.4219,26.9941 Q381.0938,26.6191 380.4844,26.4004 Q379.875,26.1816 379.25,26.1816 Q378.4844,26.1816 377.8438,26.5098 Q377.2188,26.8379 376.7188,27.5879 Q376.2344,28.3379 376.2344,29.3691 L376.2344,30.4629 Q376.2344,31.6973 377.125,32.5254 Q378.0156,33.3379 379.6094,33.3379 Q380.5469,33.3379 381.2031,33.0879 Q381.5938,32.9316 382.0156,32.4941 Q382.2813,32.2285 382.4219,32.1504 Q382.5781,32.0723 382.7813,32.0723 Q383.1094,32.0723 383.3594,32.3379 Q383.625,32.5879 383.625,32.9316 Q383.625,33.2754 383.2813,33.6816 Q382.7813,34.2598 381.9844,34.5879 Q380.9063,35.041 379.6094,35.041 Q378.0938,35.041 376.8906,34.416 Q375.9063,33.916 375.2188,32.8535 Q374.5313,31.7754 374.5313,30.4941 L374.5313,29.3379 Q374.5313,28.0098 375.1406,26.8691 Q375.7656,25.7129 376.8594,25.1035 Q377.9531,24.4785 379.1875,24.4785 Q379.9219,24.4785 380.5625,24.6504 Q381.2188,24.8066 381.7656,25.166 Z " fill="#000000"/><text fill="#000000" font-family="sans-serif" font-size="12" font-style="italic" lengthAdjust="spacing" textLength="82" x="412.5" y="24.9492">&#171;presentation&#187;</text><text fill="#000000" font-family="sans-serif" font-size="14" lengthAdjust="spacing" textLength="121" x="393" y="43.0684">ScheduleMeetingUI</text><line style="stroke:#181818;stroke-width:0.5;" x1="365" x2="516" y1="51.582" y2="51.582"/><line style="stroke:#181818;stroke-width:0.5;" x1="365" x2="516" y1="59.582" y2="59.582"/><ellipse cx="375" cy="74.3926" fill="#84BE84" rx="3" ry="3" style="stroke:#038048;stroke-width:1.0;"/><text fill="#000000" font-family="sans-serif" font-size="14" lengthAdjust="spacing" textLength="60" x="384" y="78.6895">doShow()</text></g><!--class ScheduleMeetingController--><g id="elem_ScheduleMeetingController"><rect codeLine="30" fill="#F1F1F1" height="135.0664" id="ScheduleMeetingController" rx="2.5" ry="2.5" style="stroke:#181818;stroke-width:0.5;" width="264" x="556.5" y="165"/><ellipse cx="598.95" cy="187.291" fill="#ADD1B2" rx="11" ry="11" style="stroke:#181818;stroke-width:1.0;"/><path d="M601.7156,183.166 Q601.8719,182.9473 602.0594,182.8379 Q602.2469,182.7285 602.4656,182.7285 Q602.8406,182.7285 603.075,182.9941 Q603.3094,183.2441 603.3094,183.8535 L603.3094,185.3066 Q603.3094,185.916 603.075,186.1816 Q602.8406,186.4473 602.4656,186.4473 Q602.1219,186.4473 601.9188,186.2441 Q601.7156,186.0566 601.6063,185.541 Q601.5594,185.1816 601.3719,184.9941 Q601.0438,184.6191 600.4344,184.4004 Q599.825,184.1816 599.2,184.1816 Q598.4344,184.1816 597.7938,184.5098 Q597.1688,184.8379 596.6688,185.5879 Q596.1844,186.3379 596.1844,187.3691 L596.1844,188.4629 Q596.1844,189.6973 597.075,190.5254 Q597.9656,191.3379 599.5594,191.3379 Q600.4969,191.3379 601.1531,191.0879 Q601.5438,190.9316 601.9656,190.4941 Q602.2313,190.2285 602.3719,190.1504 Q602.5281,190.0723 602.7313,190.0723 Q603.0594,190.0723 603.3094,190.3379 Q603.575,190.5879 603.575,190.9316 Q603.575,191.2754 603.2313,191.6816 Q602.7313,192.2598 601.9344,192.5879 Q600.8563,193.041 599.5594,193.041 Q598.0438,193.041 596.8406,192.416 Q595.8563,191.916 595.1688,190.8535 Q594.4813,189.7754 594.4813,188.4941 L594.4813,187.3379 Q594.4813,186.0098 595.0906,184.8691 Q595.7156,183.7129 596.8094,183.1035 Q597.9031,182.4785 599.1375,182.4785 Q599.8719,182.4785 600.5125,182.6504 Q601.1688,182.8066 601.7156,183.166 Z " fill="#000000"/><text fill="#000000" font-family="sans-serif" font-size="12" font-style="italic" lengthAdjust="spacing" textLength="74" x="667.55" y="182.9492">&#171;application&#187;</text><text fill="#000000" font-family="sans-serif" font-size="14" lengthAdjust="spacing" textLength="171" x="619.05" y="201.0684">ScheduleMeetingController</text><line style="stroke:#181818;stroke-width:0.5;" x1="557.5" x2="819.5" y1="209.582" y2="209.582"/><line style="stroke:#181818;stroke-width:0.5;" x1="557.5" x2="819.5" y1="217.582" y2="217.582"/><ellipse cx="567.5" cy="232.3926" fill="#84BE84" rx="3" ry="3" style="stroke:#038048;stroke-width:1.0;"/><text fill="#000000" font-family="sans-serif" font-size="14" lengthAdjust="spacing" textLength="100" x="576.5" y="236.6895">createMeeting()</text><ellipse cx="567.5" cy="251.0137" fill="#84BE84" rx="3" ry="3" style="stroke:#038048;stroke-width:1.0;"/><text fill="#000000" font-family="sans-serif" font-size="14" lengthAdjust="spacing" textLength="134" x="576.5" y="255.3105">chooseUsetToInvite()</text><rect fill="#F24D5C" height="6" style="stroke:#C82930;stroke-width:1.0;" width="6" x="564.5" y="266.6348"/><text fill="#000000" font-family="sans-serif" font-size="14" lengthAdjust="spacing" textLength="238" x="576.5" y="273.9316">buildPattern(LocalDate,LocalTime,int)</text><ellipse cx="567.5" cy="288.2559" fill="#84BE84" rx="3" ry="3" style="stroke:#038048;stroke-width:1.0;"/><text fill="#000000" font-family="sans-serif" font-size="14" lengthAdjust="spacing" textLength="102" x="576.5" y="292.5527">persistMeeting()</text></g><!--class MeetingRepository--><g id="elem_MeetingRepository"><rect codeLine="37" fill="#F1F1F1" height="60.582" id="MeetingRepository" rx="2.5" ry="2.5" style="stroke:#181818;stroke-width:0.5;" width="150" x="559.5" y="406.5"/><ellipse cx="574.5" cy="428.791" fill="#ADD1B2" rx="11" ry="11" style="stroke:#181818;stroke-width:1.0;"/><path d="M577.2656,424.666 Q577.4219,424.4473 577.6094,424.3379 Q577.7969,424.2285 578.0156,424.2285 Q578.3906,424.2285 578.625,424.4941 Q578.8594,424.7441 578.8594,425.3535 L578.8594,426.8066 Q578.8594,427.416 578.625,427.6816 Q578.3906,427.9473 578.0156,427.9473 Q577.6719,427.9473 577.4688,427.7441 Q577.2656,427.5566 577.1563,427.041 Q577.1094,426.6816 576.9219,426.4941 Q576.5938,426.1191 575.9844,425.9004 Q575.375,425.6816 574.75,425.6816 Q573.9844,425.6816 573.3438,426.0098 Q572.7188,426.3379 572.2188,427.0879 Q571.7344,427.8379 571.7344,428.8691 L571.7344,429.9629 Q571.7344,431.1973 572.625,432.0254 Q573.5156,432.8379 575.1094,432.8379 Q576.0469,432.8379 576.7031,432.5879 Q577.0938,432.4316 577.5156,431.9941 Q577.7813,431.7285 577.9219,431.6504 Q578.0781,431.5723 578.2813,431.5723 Q578.6094,431.5723 578.8594,431.8379 Q579.125,432.0879 579.125,432.4316 Q579.125,432.7754 578.7813,433.1816 Q578.2813,433.7598 577.4844,434.0879 Q576.4063,434.541 575.1094,434.541 Q573.5938,434.541 572.3906,433.916 Q571.4063,433.416 570.7188,432.3535 Q570.0313,431.2754 570.0313,429.9941 L570.0313,428.8379 Q570.0313,427.5098 570.6406,426.3691 Q571.2656,425.2129 572.3594,424.6035 Q573.4531,423.9785 574.6875,423.9785 Q575.4219,423.9785 576.0625,424.1504 Q576.7188,424.3066 577.2656,424.666 Z " fill="#000000"/><text fill="#000000" font-family="sans-serif" font-size="12" font-style="italic" lengthAdjust="spacing" textLength="68" x="613.5" y="424.4492">&#171;repository&#187;</text><text fill="#000000" font-family="sans-serif" font-size="14" lengthAdjust="spacing" textLength="118" x="588.5" y="442.5684">MeetingRepository</text><line style="stroke:#181818;stroke-width:0.5;" x1="560.5" x2="708.5" y1="451.082" y2="451.082"/><line style="stroke:#181818;stroke-width:0.5;" x1="560.5" x2="708.5" y1="459.082" y2="459.082"/></g><!--class UserRepository--><g id="elem_UserRepository"><rect codeLine="41" fill="#F1F1F1" height="60.582" id="UserRepository" rx="2.5" ry="2.5" style="stroke:#181818;stroke-width:0.5;" width="129" x="745" y="406.5"/><ellipse cx="760" cy="428.791" fill="#ADD1B2" rx="11" ry="11" style="stroke:#181818;stroke-width:1.0;"/><path d="M762.7656,424.666 Q762.9219,424.4473 763.1094,424.3379 Q763.2969,424.2285 763.5156,424.2285 Q763.8906,424.2285 764.125,424.4941 Q764.3594,424.7441 764.3594,425.3535 L764.3594,426.8066 Q764.3594,427.416 764.125,427.6816 Q763.8906,427.9473 763.5156,427.9473 Q763.1719,427.9473 762.9688,427.7441 Q762.7656,427.5566 762.6563,427.041 Q762.6094,426.6816 762.4219,426.4941 Q762.0938,426.1191 761.4844,425.9004 Q760.875,425.6816 760.25,425.6816 Q759.4844,425.6816 758.8438,426.0098 Q758.2188,426.3379 757.7188,427.0879 Q757.2344,427.8379 757.2344,428.8691 L757.2344,429.9629 Q757.2344,431.1973 758.125,432.0254 Q759.0156,432.8379 760.6094,432.8379 Q761.5469,432.8379 762.2031,432.5879 Q762.5938,432.4316 763.0156,431.9941 Q763.2813,431.7285 763.4219,431.6504 Q763.5781,431.5723 763.7813,431.5723 Q764.1094,431.5723 764.3594,431.8379 Q764.625,432.0879 764.625,432.4316 Q764.625,432.7754 764.2813,433.1816 Q763.7813,433.7598 762.9844,434.0879 Q761.9063,434.541 760.6094,434.541 Q759.0938,434.541 757.8906,433.916 Q756.9063,433.416 756.2188,432.3535 Q755.5313,431.2754 755.5313,429.9941 L755.5313,428.8379 Q755.5313,427.5098 756.1406,426.3691 Q756.7656,425.2129 757.8594,424.6035 Q758.9531,423.9785 760.1875,423.9785 Q760.9219,423.9785 761.5625,424.1504 Q762.2188,424.3066 762.7656,424.666 Z " fill="#000000"/><text fill="#000000" font-family="sans-serif" font-size="12" font-style="italic" lengthAdjust="spacing" textLength="68" x="788.5" y="424.4492">&#171;repository&#187;</text><text fill="#000000" font-family="sans-serif" font-size="14" lengthAdjust="spacing" textLength="97" x="774" y="442.5684">UserRepository</text><line style="stroke:#181818;stroke-width:0.5;" x1="746" x2="873" y1="451.082" y2="451.082"/><line style="stroke:#181818;stroke-width:0.5;" x1="746" x2="873" y1="459.082" y2="459.082"/></g><!--class MeetingParticipantRepository--><g id="elem_MeetingParticipantRepository"><rect codeLine="45" fill="#F1F1F1" height="60.582" id="MeetingParticipantRepository" rx="2.5" ry="2.5" style="stroke:#181818;stroke-width:0.5;" width="217" x="909" y="406.5"/><ellipse cx="924" cy="428.791" fill="#ADD1B2" rx="11" ry="11" style="stroke:#181818;stroke-width:1.0;"/><path d="M926.7656,424.666 Q926.9219,424.4473 927.1094,424.3379 Q927.2969,424.2285 927.5156,424.2285 Q927.8906,424.2285 928.125,424.4941 Q928.3594,424.7441 928.3594,425.3535 L928.3594,426.8066 Q928.3594,427.416 928.125,427.6816 Q927.8906,427.9473 927.5156,427.9473 Q927.1719,427.9473 926.9688,427.7441 Q926.7656,427.5566 926.6563,427.041 Q926.6094,426.6816 926.4219,426.4941 Q926.0938,426.1191 925.4844,425.9004 Q924.875,425.6816 924.25,425.6816 Q923.4844,425.6816 922.8438,426.0098 Q922.2188,426.3379 921.7188,427.0879 Q921.2344,427.8379 921.2344,428.8691 L921.2344,429.9629 Q921.2344,431.1973 922.125,432.0254 Q923.0156,432.8379 924.6094,432.8379 Q925.5469,432.8379 926.2031,432.5879 Q926.5938,432.4316 927.0156,431.9941 Q927.2813,431.7285 927.4219,431.6504 Q927.5781,431.5723 927.7813,431.5723 Q928.1094,431.5723 928.3594,431.8379 Q928.625,432.0879 928.625,432.4316 Q928.625,432.7754 928.2813,433.1816 Q927.7813,433.7598 926.9844,434.0879 Q925.9063,434.541 924.6094,434.541 Q923.0938,434.541 921.8906,433.916 Q920.9063,433.416 920.2188,432.3535 Q919.5313,431.2754 919.5313,429.9941 L919.5313,428.8379 Q919.5313,427.5098 920.1406,426.3691 Q920.7656,425.2129 921.8594,424.6035 Q922.9531,423.9785 924.1875,423.9785 Q924.9219,423.9785 925.5625,424.1504 Q926.2188,424.3066 926.7656,424.666 Z " fill="#000000"/><text fill="#000000" font-family="sans-serif" font-size="12" font-style="italic" lengthAdjust="spacing" textLength="68" x="996.5" y="424.4492">&#171;repository&#187;</text><text fill="#000000" font-family="sans-serif" font-size="14" lengthAdjust="spacing" textLength="185" x="938" y="442.5684">MeetingParticipantRepository</text><line style="stroke:#181818;stroke-width:0.5;" x1="910" x2="1125" y1="451.082" y2="451.082"/><line style="stroke:#181818;stroke-width:0.5;" x1="910" x2="1125" y1="459.082" y2="459.082"/></g><!--class RecurringPattern--><g id="elem_RecurringPattern"><rect codeLine="49" fill="#F1F1F1" height="153.6875" id="RecurringPattern" rx="2.5" ry="2.5" style="stroke:#181818;stroke-width:0.5;" width="196" x="407.5" y="574"/><ellipse cx="447.7" cy="596.291" fill="#ADD1B2" rx="11" ry="11" style="stroke:#181818;stroke-width:1.0;"/><path d="M450.4656,592.166 Q450.6219,591.9473 450.8094,591.8379 Q450.9969,591.7285 451.2156,591.7285 Q451.5906,591.7285 451.825,591.9941 Q452.0594,592.2441 452.0594,592.8535 L452.0594,594.3066 Q452.0594,594.916 451.825,595.1816 Q451.5906,595.4473 451.2156,595.4473 Q450.8719,595.4473 450.6688,595.2441 Q450.4656,595.0566 450.3563,594.541 Q450.3094,594.1816 450.1219,593.9941 Q449.7938,593.6191 449.1844,593.4004 Q448.575,593.1816 447.95,593.1816 Q447.1844,593.1816 446.5438,593.5098 Q445.9188,593.8379 445.4188,594.5879 Q444.9344,595.3379 444.9344,596.3691 L444.9344,597.4629 Q444.9344,598.6973 445.825,599.5254 Q446.7156,600.3379 448.3094,600.3379 Q449.2469,600.3379 449.9031,600.0879 Q450.2938,599.9316 450.7156,599.4941 Q450.9813,599.2285 451.1219,599.1504 Q451.2781,599.0723 451.4813,599.0723 Q451.8094,599.0723 452.0594,599.3379 Q452.325,599.5879 452.325,599.9316 Q452.325,600.2754 451.9813,600.6816 Q451.4813,601.2598 450.6844,601.5879 Q449.6063,602.041 448.3094,602.041 Q446.7938,602.041 445.5906,601.416 Q444.6063,600.916 443.9188,599.8535 Q443.2313,598.7754 443.2313,597.4941 L443.2313,596.3379 Q443.2313,595.0098 443.8406,593.8691 Q444.4656,592.7129 445.5594,592.1035 Q446.6531,591.4785 447.8875,591.4785 Q448.6219,591.4785 449.2625,591.6504 Q449.9188,591.8066 450.4656,592.166 Z " fill="#000000"/><text fill="#000000" font-family="sans-serif" font-size="12" font-style="italic" lengthAdjust="spacing" textLength="56" x="493.3" y="591.9492">&#171;domain&#187;</text><text fill="#000000" font-family="sans-serif" font-size="14" lengthAdjust="spacing" textLength="108" x="467.3" y="610.0684">RecurringPattern</text><line style="stroke:#181818;stroke-width:0.5;" x1="408.5" x2="602.5" y1="618.582" y2="618.582"/><rect fill="none" height="6" style="stroke:#C82930;stroke-width:1.0;" width="6" x="415.5" y="630.3926"/><text fill="#000000" font-family="sans-serif" font-size="14" lengthAdjust="spacing" textLength="130" x="427.5" y="637.6895">LocalDate: startDate</text><rect fill="none" height="6" style="stroke:#C82930;stroke-width:1.0;" width="6" x="415.5" y="649.0137"/><text fill="#000000" font-family="sans-serif" font-size="14" lengthAdjust="spacing" textLength="130" x="427.5" y="656.3105">LocalDate: startDate</text><rect fill="none" height="6" style="stroke:#C82930;stroke-width:1.0;" width="6" x="415.5" y="667.6348"/><text fill="#000000" font-family="sans-serif" font-size="14" lengthAdjust="spacing" textLength="128" x="427.5" y="674.9316">LocalTime: endTime</text><rect fill="none" height="6" style="stroke:#C82930;stroke-width:1.0;" width="6" x="415.5" y="686.2559"/><text fill="#000000" font-family="sans-serif" font-size="14" lengthAdjust="spacing" textLength="132" x="427.5" y="693.5527">LocalTime: startTime</text><line style="stroke:#181818;stroke-width:0.5;" x1="408.5" x2="602.5" y1="701.0664" y2="701.0664"/><ellipse cx="418.5" cy="715.877" fill="#84BE84" rx="3" ry="3" style="stroke:#038048;stroke-width:1.0;"/><text fill="#000000" font-family="sans-serif" font-size="14" lengthAdjust="spacing" textLength="170" x="427.5" y="720.1738">overLap(RecurringPattern)</text></g><!--class RecurringFrequency--><g id="elem_RecurringFrequency"><rect codeLine="57" fill="#F1F1F1" height="97.8242" id="RecurringFrequency" rx="2.5" ry="2.5" style="stroke:#181818;stroke-width:0.5;" width="162" x="431.5" y="825.5"/><ellipse cx="446.5" cy="847.791" fill="#ADD1B2" rx="11" ry="11" style="stroke:#181818;stroke-width:1.0;"/><path d="M449.2656,843.666 Q449.4219,843.4473 449.6094,843.3379 Q449.7969,843.2285 450.0156,843.2285 Q450.3906,843.2285 450.625,843.4941 Q450.8594,843.7441 450.8594,844.3535 L450.8594,845.8066 Q450.8594,846.416 450.625,846.6816 Q450.3906,846.9473 450.0156,846.9473 Q449.6719,846.9473 449.4688,846.7441 Q449.2656,846.5566 449.1563,846.041 Q449.1094,845.6816 448.9219,845.4941 Q448.5938,845.1191 447.9844,844.9004 Q447.375,844.6816 446.75,844.6816 Q445.9844,844.6816 445.3438,845.0098 Q444.7188,845.3379 444.2188,846.0879 Q443.7344,846.8379 443.7344,847.8691 L443.7344,848.9629 Q443.7344,850.1973 444.625,851.0254 Q445.5156,851.8379 447.1094,851.8379 Q448.0469,851.8379 448.7031,851.5879 Q449.0938,851.4316 449.5156,850.9941 Q449.7813,850.7285 449.9219,850.6504 Q450.0781,850.5723 450.2813,850.5723 Q450.6094,850.5723 450.8594,850.8379 Q451.125,851.0879 451.125,851.4316 Q451.125,851.7754 450.7813,852.1816 Q450.2813,852.7598 449.4844,853.0879 Q448.4063,853.541 447.1094,853.541 Q445.5938,853.541 444.3906,852.916 Q443.4063,852.416 442.7188,851.3535 Q442.0313,850.2754 442.0313,848.9941 L442.0313,847.8379 Q442.0313,846.5098 442.6406,845.3691 Q443.2656,844.2129 444.3594,843.6035 Q445.4531,842.9785 446.6875,842.9785 Q447.4219,842.9785 448.0625,843.1504 Q448.7188,843.3066 449.2656,843.666 Z " fill="#000000"/><text fill="#000000" font-family="sans-serif" font-size="12" font-style="italic" lengthAdjust="spacing" textLength="46" x="502.5" y="843.4492">&#171;enum&#187;</text><text fill="#000000" font-family="sans-serif" font-size="14" lengthAdjust="spacing" textLength="130" x="460.5" y="861.5684">RecurringFrequency</text><line style="stroke:#181818;stroke-width:0.5;" x1="432.5" x2="592.5" y1="870.082" y2="870.082"/><rect fill="none" height="6" style="stroke:#C82930;stroke-width:1.0;" width="6" x="439.5" y="881.8926"/><text fill="#000000" font-family="sans-serif" font-size="14" lengthAdjust="spacing" textLength="57" x="451.5" y="889.1895">WEEKLY</text><rect fill="none" height="6" style="stroke:#C82930;stroke-width:1.0;" width="6" x="439.5" y="900.5137"/><text fill="#000000" font-family="sans-serif" font-size="14" lengthAdjust="spacing" textLength="39" x="451.5" y="907.8105">ONCE</text><line style="stroke:#181818;stroke-width:0.5;" x1="432.5" x2="592.5" y1="915.3242" y2="915.3242"/></g><!--class CheckAvailabilityService--><g id="elem_CheckAvailabilityService"><rect codeLine="69" fill="#F1F1F1" height="79.2031" id="CheckAvailabilityService" rx="2.5" ry="2.5" style="stroke:#181818;stroke-width:0.5;" width="358" x="1161.5" y="397.5"/><ellipse cx="1259.75" cy="419.791" fill="#ADD1B2" rx="11" ry="11" style="stroke:#181818;stroke-width:1.0;"/><path d="M1262.5156,415.666 Q1262.6719,415.4473 1262.8594,415.3379 Q1263.0469,415.2285 1263.2656,415.2285 Q1263.6406,415.2285 1263.875,415.4941 Q1264.1094,415.7441 1264.1094,416.3535 L1264.1094,417.8066 Q1264.1094,418.416 1263.875,418.6816 Q1263.6406,418.9473 1263.2656,418.9473 Q1262.9219,418.9473 1262.7188,418.7441 Q1262.5156,418.5566 1262.4063,418.041 Q1262.3594,417.6816 1262.1719,417.4941 Q1261.8438,417.1191 1261.2344,416.9004 Q1260.625,416.6816 1260,416.6816 Q1259.2344,416.6816 1258.5938,417.0098 Q1257.9688,417.3379 1257.4688,418.0879 Q1256.9844,418.8379 1256.9844,419.8691 L1256.9844,420.9629 Q1256.9844,422.1973 1257.875,423.0254 Q1258.7656,423.8379 1260.3594,423.8379 Q1261.2969,423.8379 1261.9531,423.5879 Q1262.3438,423.4316 1262.7656,422.9941 Q1263.0313,422.7285 1263.1719,422.6504 Q1263.3281,422.5723 1263.5313,422.5723 Q1263.8594,422.5723 1264.1094,422.8379 Q1264.375,423.0879 1264.375,423.4316 Q1264.375,423.7754 1264.0313,424.1816 Q1263.5313,424.7598 1262.7344,425.0879 Q1261.6563,425.541 1260.3594,425.541 Q1258.8438,425.541 1257.6406,424.916 Q1256.6563,424.416 1255.9688,423.3535 Q1255.2813,422.2754 1255.2813,420.9941 L1255.2813,419.8379 Q1255.2813,418.5098 1255.8906,417.3691 Q1256.5156,416.2129 1257.6094,415.6035 Q1258.7031,414.9785 1259.9375,414.9785 Q1260.6719,414.9785 1261.3125,415.1504 Q1261.9688,415.3066 1262.5156,415.666 Z " fill="#000000"/><text fill="#000000" font-family="sans-serif" font-size="12" font-style="italic" lengthAdjust="spacing" textLength="53" x="1330.25" y="415.4492">&#171;service&#187;</text><text fill="#000000" font-family="sans-serif" font-size="14" lengthAdjust="spacing" textLength="153" x="1280.25" y="433.5684">CheckAvailabilityService</text><line style="stroke:#181818;stroke-width:0.5;" x1="1162.5" x2="1518.5" y1="442.082" y2="442.082"/><line style="stroke:#181818;stroke-width:0.5;" x1="1162.5" x2="1518.5" y1="450.082" y2="450.082"/><ellipse cx="1172.5" cy="464.8926" fill="#84BE84" rx="3" ry="3" style="stroke:#038048;stroke-width:1.0;"/><text fill="#000000" font-family="sans-serif" font-size="14" lengthAdjust="spacing" textLength="332" x="1181.5" y="469.1895">checkAvailability(RecurringPattern, List&lt;UserName&gt;)</text></g><!--link Meeting to RecurringPattern--><g id="link_Meeting_RecurringPattern"><path codeLine="74" d="M422.2,495.09 C434.43,517.84 448.73,544.43 461.99,569.1 " fill="none" id="Meeting-to-RecurringPattern" style="stroke:#181818;stroke-width:1.0;"/><polygon fill="#181818" points="464.46,573.68,463.7359,563.8578,462.0989,569.2726,456.6841,567.6356,464.46,573.68" style="stroke:#181818;stroke-width:1.0;"/><text fill="#000000" font-family="sans-serif" font-size="13" lengthAdjust="spacing" textLength="40" x="449.5" y="540.0283">pattern</text></g><!--link Meeting to MeetingParticipant--><g id="link_Meeting_MeetingParticipant"><path codeLine="75" d="M359.45,495.09 C343.31,523.84 323.72,558.75 307.22,588.14 " fill="none" id="Meeting-to-MeetingParticipant" style="stroke:#181818;stroke-width:1.0;"/><polygon fill="#181818" points="304.6,592.81,312.4904,586.9158,307.0452,588.4487,305.5123,583.0035,304.6,592.81" style="stroke:#181818;stroke-width:1.0;"/><text fill="#000000" font-family="sans-serif" font-size="13" lengthAdjust="spacing" textLength="67" x="344.5" y="540.0283">participants</text></g><!--link MeetingParticipant to ParticipantStatus--><g id="link_MeetingParticipant_ParticipantStatus"><path codeLine="76" d="M272.5,709.04 C272.5,737.27 272.5,771.65 272.5,801.66 " fill="none" id="MeetingParticipant-to-ParticipantStatus" style="stroke:#181818;stroke-width:1.0;"/><polygon fill="#181818" points="272.5,806.82,276.5,797.82,272.5,801.82,268.5,797.82,272.5,806.82" style="stroke:#181818;stroke-width:1.0;"/><text fill="#000000" font-family="sans-serif" font-size="13" lengthAdjust="spacing" textLength="36" x="273.5" y="773.0283">status</text></g><!--link MeetingParticipant to SystemUser--><g id="link_MeetingParticipant_SystemUser"><path codeLine="77" d="M217.9,709.04 C178.13,750.6 125.62,805.46 92.45,840.12 " fill="none" id="MeetingParticipant-to-SystemUser" style="stroke:#181818;stroke-width:1.0;"/><polygon fill="#181818" points="88.9,843.83,98.0116,840.0911,92.3561,840.2168,92.2304,834.5613,88.9,843.83" style="stroke:#181818;stroke-width:1.0;"/><text fill="#000000" font-family="sans-serif" font-size="13" lengthAdjust="spacing" textLength="25" x="167.5" y="773.0283">user</text></g><!--link ScheduleMeetingUI to ScheduleMeetingController--><g id="link_ScheduleMeetingUI_ScheduleMeetingController"><path codeLine="79" d="M492.49,86.07 C521.97,107.95 559.76,135.98 594.28,161.6 " fill="none" id="ScheduleMeetingUI-to-ScheduleMeetingController" style="stroke:#181818;stroke-width:1.0;"/><polygon fill="#181818" points="598.47,164.71,593.6357,156.1293,594.458,161.726,588.8613,162.5484,598.47,164.71" style="stroke:#181818;stroke-width:1.0;"/><text fill="#000000" font-family="sans-serif" font-size="13" lengthAdjust="spacing" textLength="53" x="558.5" y="131.0283">controller</text></g><!--link ScheduleMeetingUI to Meeting--><g id="link_ScheduleMeetingUI_Meeting"><path codeLine="80" d="M435.62,86.17 C427.14,153.4 409.61,292.4 399.38,373.48 " fill="none" id="ScheduleMeetingUI-to-Meeting" style="stroke:#181818;stroke-width:1.0;stroke-dasharray:7.0,7.0;"/><polygon fill="#181818" points="398.72,378.74,403.8204,370.3147,399.349,373.7797,395.8839,369.3083,398.72,378.74" style="stroke:#181818;stroke-width:1.0;"/><text fill="#000000" font-family="sans-serif" font-size="13" lengthAdjust="spacing" textLength="46" x="427.5" y="238.0283">meeting</text></g><!--link ScheduleMeetingController to MeetingRepository--><g id="link_ScheduleMeetingController_MeetingRepository"><path codeLine="82" d="M670.74,300.09 C661.71,333.95 651.12,373.69 643.72,401.42 " fill="none" id="ScheduleMeetingController-to-MeetingRepository" style="stroke:#181818;stroke-width:1.0;"/><polygon fill="#181818" points="642.38,406.45,648.5611,398.7823,643.6665,401.6184,640.8304,396.7238,642.38,406.45" style="stroke:#181818;stroke-width:1.0;"/><text fill="#000000" font-family="sans-serif" font-size="13" lengthAdjust="spacing" textLength="76" x="662.5" y="345.0283">meetingRepo</text></g><!--link ScheduleMeetingController to UserRepository--><g id="link_ScheduleMeetingController_UserRepository"><path codeLine="83" d="M729.45,300.1 C735.54,310.1 741.7,320.31 747.5,330 C761.8,353.91 777.66,381.04 789.76,401.87 " fill="none" id="ScheduleMeetingController-to-UserRepository" style="stroke:#181818;stroke-width:1.0;"/><polygon fill="#181818" points="792.28,406.21,791.2426,396.4159,789.7793,401.8803,784.315,400.417,792.28,406.21" style="stroke:#181818;stroke-width:1.0;"/><text fill="#000000" font-family="sans-serif" font-size="13" lengthAdjust="spacing" textLength="55" x="759.5" y="345.0283">userRepo</text></g><!--link ScheduleMeetingController to Meeting--><g id="link_ScheduleMeetingController_Meeting"><path codeLine="84" d="M590.84,300.09 C554.93,324.57 514.52,352.12 479.51,375.99 " fill="none" id="ScheduleMeetingController-to-Meeting" style="stroke:#181818;stroke-width:1.0;"/><polygon fill="#181818" points="475.27,378.88,484.9596,377.1159,479.4014,376.0638,480.4536,370.5056,475.27,378.88" style="stroke:#181818;stroke-width:1.0;"/><text fill="#000000" font-family="sans-serif" font-size="13" lengthAdjust="spacing" textLength="64" x="541.5" y="345.0283">theMeeting</text></g><!--link ScheduleMeetingController to CheckAvailabilityService--><g id="link_ScheduleMeetingController_CheckAvailabilityService"><path codeLine="85" d="M820.52,270.49 C881.81,287.98 955.55,309.49 1021.5,330 C1088.44,350.81 1162.8,375.43 1222.87,395.7 " fill="none" id="ScheduleMeetingController-to-CheckAvailabilityService" style="stroke:#181818;stroke-width:1.0;"/><polygon fill="#181818" points="1227.9,397.4,1220.6569,390.7264,1223.1638,395.7974,1218.0927,398.3043,1227.9,397.4" style="stroke:#181818;stroke-width:1.0;"/><text fill="#000000" font-family="sans-serif" font-size="13" lengthAdjust="spacing" textLength="138" x="1075.5" y="345.0283">checkAvailabilityService</text></g><!--link ScheduleMeetingController to MeetingParticipantRepository--><g id="link_ScheduleMeetingController_MeetingParticipantRepository"><path codeLine="86" d="M796.68,300.09 C853.29,334.93 920.02,376 965.19,403.8 " fill="none" id="ScheduleMeetingController-to-MeetingParticipantRepository" style="stroke:#181818;stroke-width:1.0;"/><polygon fill="#181818" points="969.49,406.45,963.9336,398.3182,965.2356,403.8231,959.7307,405.1252,969.49,406.45" style="stroke:#181818;stroke-width:1.0;"/><text fill="#000000" font-family="sans-serif" font-size="13" lengthAdjust="spacing" textLength="138" x="874.5" y="345.0283">meetingParticipantRepo</text></g><!--link RecurringPattern to RecurringFrequency--><g id="link_RecurringPattern_RecurringFrequency"><path codeLine="88" d="M507.91,728.23 C508.87,758.5 509.94,792.61 510.81,820.16 " fill="none" id="RecurringPattern-to-RecurringFrequency" style="stroke:#181818;stroke-width:1.0;"/><polygon fill="#181818" points="510.97,825.22,514.6853,816.0988,510.8129,820.2225,506.6893,816.3501,510.97,825.22" style="stroke:#181818;stroke-width:1.0;"/><text fill="#000000" font-family="sans-serif" font-size="13" lengthAdjust="spacing" textLength="56" x="510.5" y="773.0283">frequency</text></g><!--SRC=[ZLJRRjim37ttL-WjAPBq0mp3m91bGB6iAveKmnuLcLk4oP8coHc2OVy-oh8T-P8cRnJ5GnvIXsA2Mak-03WkVv8iArH9kSpplycAl5ampxG4af8AJVIy0gkCmSWNwXmOYJSwM1Pljzowh4drGetZZ6igNLv7TKUR_4iI5fUDOWSCMbufAOE5ljtPEYWzjmklACFEKLTPlBArSIaMuU8YFW1aLOvpzAbea4KWG1a3xQ10im39qLWGTWJswyE9Sa4FN71tdWz7zU0BjLGmlAW4DEszFMMPDc11Obskwe8BKgZTKVsPFqGTz65h9PrHGe39Cggru2n2CmFKjP6On5DKoWBsx_RgIPwu0tIloA7YecWuphUAKV4HWSlQslCIbbmw3zTWBBxl9UFm5Lz1AykTCcUSh-aExOn3h1__NO5ZQTm56mcq_uXTVxKyZFFc3RUVGKhmyRtHTzQnjNj1r0dCbkhfPnzm-sJWTmMIdRFCAozG-xRPVDv-H-FhythZGRE0yldtz20WxcHsd-9cNd9j-VKGi0DpuWnmH3POZN9k9bw6JM-_Xpn8kztLrIf_vv_eXKti_-2hc8Zmm7Vs_GfY_6iaeoqCWTUM376iEqo07n_pYVygkPulca2axGxgVJVGWsqAZTs1kz1qnpRa1kIgUjAnO9gh-qXCRtXQJjucoKXPFRbrcuMqVhGsQlC_]--></g></svg>