<?xml version="1.0" encoding="us-ascii" standalone="no"?><svg xmlns="http://www.w3.org/2000/svg" xmlns:xlink="http://www.w3.org/1999/xlink" contentStyleType="text/css" height="1137px" preserveAspectRatio="none" style="width:2124px;height:1137px;background:#FFFFFF;" version="1.1" viewBox="0 0 2124 1137" width="2124px" zoomAndPan="magnify"><defs/><g><rect fill="#FFFFFF" height="919.4395" style="stroke:#181818;stroke-width:1.0;" width="10" x="307.5" y="116.9121"/><rect fill="#FFFFFF" height="708.4023" style="stroke:#181818;stroke-width:1.0;" width="10" x="518.5" y="296.6582"/><rect fill="#FFFFFF" height="62.582" style="stroke:#181818;stroke-width:1.0;" width="10" x="729.5" y="345.2402"/><rect fill="#FFFFFF" height="31.291" style="stroke:#181818;stroke-width:1.0;" width="10" x="1441.5" y="779.0234"/><rect fill="#FFFFFF" height="62.582" style="stroke:#181818;stroke-width:1.0;" width="10" x="1599.5" y="911.1875"/><rect fill="#FFFFFF" height="125.873" style="stroke:#181818;stroke-width:1.0;" width="10" x="1792" y="439.1133"/><rect fill="#FFFFFF" height="30" style="stroke:#181818;stroke-width:1.0;" width="10" x="2003" y="496.6953"/><rect fill="none" height="80.582" style="stroke:#000000;stroke-width:1.5;" width="432" x="1686.5" y="454.1133"/><rect fill="none" height="207.0371" style="stroke:#000000;stroke-width:1.5;" width="1512.5" x="10" y="642.5684"/><line style="stroke:#181818;stroke-width:0.5;stroke-dasharray:5.0,5.0;" x1="37" x2="37" y1="83.6211" y2="1054.3516"/><line style="stroke:#181818;stroke-width:0.5;stroke-dasharray:5.0,5.0;" x1="312" x2="312" y1="83.6211" y2="1054.3516"/><line style="stroke:#181818;stroke-width:0.5;stroke-dasharray:5.0,5.0;" x1="523" x2="523" y1="83.6211" y2="1054.3516"/><line style="stroke:#181818;stroke-width:0.5;stroke-dasharray:5.0,5.0;" x1="734.5" x2="734.5" y1="83.6211" y2="1054.3516"/><line style="stroke:#181818;stroke-width:0.5;stroke-dasharray:5.0,5.0;" x1="1047.5" x2="1047.5" y1="83.6211" y2="1054.3516"/><line style="stroke:#181818;stroke-width:0.5;stroke-dasharray:5.0,5.0;" x1="1183.5" x2="1183.5" y1="83.6211" y2="1054.3516"/><line style="stroke:#181818;stroke-width:0.5;stroke-dasharray:5.0,5.0;" x1="1314.5" x2="1314.5" y1="83.6211" y2="1054.3516"/><line style="stroke:#181818;stroke-width:0.5;stroke-dasharray:5.0,5.0;" x1="1446.5" x2="1446.5" y1="83.6211" y2="1054.3516"/><line style="stroke:#181818;stroke-width:0.5;stroke-dasharray:5.0,5.0;" x1="1604.5" x2="1604.5" y1="83.6211" y2="1054.3516"/><line style="stroke:#181818;stroke-width:0.5;stroke-dasharray:5.0,5.0;" x1="1796.5" x2="1796.5" y1="83.6211" y2="1054.3516"/><line style="stroke:#181818;stroke-width:0.5;stroke-dasharray:5.0,5.0;" x1="2007.5" x2="2007.5" y1="83.6211" y2="1054.3516"/><text fill="#000000" font-family="sans-serif" font-size="14" lengthAdjust="spacing" textLength="29" x="20" y="80.1074">User</text><ellipse cx="37.5" cy="13.5" fill="#E2E2F0" rx="8" ry="8" style="stroke:#181818;stroke-width:0.5;"/><path d="M37.5,21.5 L37.5,48.5 M24.5,29.5 L50.5,29.5 M37.5,48.5 L24.5,63.5 M37.5,48.5 L50.5,63.5 " fill="none" style="stroke:#181818;stroke-width:0.5;"/><text fill="#000000" font-family="sans-serif" font-size="14" lengthAdjust="spacing" textLength="29" x="20" y="1068.459">User</text><ellipse cx="37.5" cy="1080.4727" fill="#E2E2F0" rx="8" ry="8" style="stroke:#181818;stroke-width:0.5;"/><path d="M37.5,1088.4727 L37.5,1115.4727 M24.5,1096.4727 L50.5,1096.4727 M37.5,1115.4727 L24.5,1130.4727 M37.5,1115.4727 L50.5,1130.4727 " fill="none" style="stroke:#181818;stroke-width:0.5;"/><rect fill="#E2E2F0" height="51.2422" rx="2.5" ry="2.5" style="stroke:#181818;stroke-width:0.5;" width="135" x="245" y="31.3789"/><text fill="#000000" font-family="sans-serif" font-size="14" font-style="italic" lengthAdjust="spacing" textLength="95" x="265" y="53.4863">&#171;presentation&#187;</text><text fill="#000000" font-family="sans-serif" font-size="14" lengthAdjust="spacing" textLength="121" x="252" y="72.1074">ScheduleMeetingUI</text><rect fill="#E2E2F0" height="51.2422" rx="2.5" ry="2.5" style="stroke:#181818;stroke-width:0.5;" width="135" x="245" y="1053.3516"/><text fill="#000000" font-family="sans-serif" font-size="14" font-style="italic" lengthAdjust="spacing" textLength="95" x="265" y="1075.459">&#171;presentation&#187;</text><text fill="#000000" font-family="sans-serif" font-size="14" lengthAdjust="spacing" textLength="121" x="252" y="1094.0801">ScheduleMeetingUI</text><rect fill="#E2E2F0" height="51.2422" rx="2.5" ry="2.5" style="stroke:#181818;stroke-width:0.5;" width="185" x="431" y="31.3789"/><text fill="#000000" font-family="sans-serif" font-size="14" font-style="italic" lengthAdjust="spacing" textLength="84" x="481.5" y="53.4863">&#171;application&#187;</text><text fill="#000000" font-family="sans-serif" font-size="14" lengthAdjust="spacing" textLength="171" x="438" y="72.1074">ScheduleMeetingController</text><rect fill="#E2E2F0" height="51.2422" rx="2.5" ry="2.5" style="stroke:#181818;stroke-width:0.5;" width="185" x="431" y="1053.3516"/><text fill="#000000" font-family="sans-serif" font-size="14" font-style="italic" lengthAdjust="spacing" textLength="84" x="481.5" y="1075.459">&#171;application&#187;</text><text fill="#000000" font-family="sans-serif" font-size="14" lengthAdjust="spacing" textLength="171" x="438" y="1094.0801">ScheduleMeetingController</text><rect fill="#E2E2F0" height="69.8633" rx="2.5" ry="2.5" style="stroke:#181818;stroke-width:0.5;" width="76" x="696.5" y="12.7578"/><text fill="#000000" font-family="sans-serif" font-size="14" font-style="italic" lengthAdjust="spacing" textLength="62" x="703.5" y="34.8652">&#171;domain&#187;</text><text fill="#000000" font-family="sans-serif" font-size="14" lengthAdjust="spacing" textLength="54" x="707.5" y="53.4863">meeting:</text><text fill="#000000" font-family="sans-serif" font-size="14" lengthAdjust="spacing" textLength="50" x="709.5" y="72.1074">Meeting</text><rect fill="#E2E2F0" height="69.8633" rx="2.5" ry="2.5" style="stroke:#181818;stroke-width:0.5;" width="76" x="696.5" y="1053.3516"/><text fill="#000000" font-family="sans-serif" font-size="14" font-style="italic" lengthAdjust="spacing" textLength="62" x="703.5" y="1075.459">&#171;domain&#187;</text><text fill="#000000" font-family="sans-serif" font-size="14" lengthAdjust="spacing" textLength="54" x="707.5" y="1094.0801">meeting:</text><text fill="#000000" font-family="sans-serif" font-size="14" lengthAdjust="spacing" textLength="50" x="709.5" y="1112.7012">Meeting</text><rect fill="#E2E2F0" height="69.8633" rx="2.5" ry="2.5" style="stroke:#181818;stroke-width:0.5;" width="122" x="986.5" y="12.7578"/><text fill="#000000" font-family="sans-serif" font-size="14" font-style="italic" lengthAdjust="spacing" textLength="62" x="1016.5" y="34.8652">&#171;domain&#187;</text><text fill="#000000" font-family="sans-serif" font-size="14" lengthAdjust="spacing" textLength="107" x="994" y="53.4863">recurringPattern:</text><text fill="#000000" font-family="sans-serif" font-size="14" lengthAdjust="spacing" textLength="108" x="993.5" y="72.1074">RecurringPattern</text><rect fill="#E2E2F0" height="69.8633" rx="2.5" ry="2.5" style="stroke:#181818;stroke-width:0.5;" width="122" x="986.5" y="1053.3516"/><text fill="#000000" font-family="sans-serif" font-size="14" font-style="italic" lengthAdjust="spacing" textLength="62" x="1016.5" y="1075.459">&#171;domain&#187;</text><text fill="#000000" font-family="sans-serif" font-size="14" lengthAdjust="spacing" textLength="107" x="994" y="1094.0801">recurringPattern:</text><text fill="#000000" font-family="sans-serif" font-size="14" lengthAdjust="spacing" textLength="108" x="993.5" y="1112.7012">RecurringPattern</text><rect fill="#E2E2F0" height="69.8633" rx="2.5" ry="2.5" style="stroke:#181818;stroke-width:0.5;" width="131" x="1118.5" y="12.7578"/><text fill="#000000" font-family="sans-serif" font-size="14" font-style="italic" lengthAdjust="spacing" textLength="62" x="1153" y="34.8652">&#171;domain&#187;</text><text fill="#000000" font-family="sans-serif" font-size="14" lengthAdjust="spacing" textLength="70" x="1149" y="53.4863">participant:</text><text fill="#000000" font-family="sans-serif" font-size="14" lengthAdjust="spacing" textLength="117" x="1125.5" y="72.1074">MeetingParticipant</text><rect fill="#E2E2F0" height="69.8633" rx="2.5" ry="2.5" style="stroke:#181818;stroke-width:0.5;" width="131" x="1118.5" y="1053.3516"/><text fill="#000000" font-family="sans-serif" font-size="14" font-style="italic" lengthAdjust="spacing" textLength="62" x="1153" y="1075.459">&#171;domain&#187;</text><text fill="#000000" font-family="sans-serif" font-size="14" lengthAdjust="spacing" textLength="70" x="1149" y="1094.0801">participant:</text><text fill="#000000" font-family="sans-serif" font-size="14" lengthAdjust="spacing" textLength="117" x="1125.5" y="1112.7012">MeetingParticipant</text><rect fill="#E2E2F0" height="51.2422" rx="2.5" ry="2.5" style="stroke:#181818;stroke-width:0.5;" width="111" x="1259.5" y="31.3789"/><text fill="#000000" font-family="sans-serif" font-size="14" font-style="italic" lengthAdjust="spacing" textLength="79" x="1275.5" y="53.4863">&#171;repository&#187;</text><text fill="#000000" font-family="sans-serif" font-size="14" lengthAdjust="spacing" textLength="97" x="1266.5" y="72.1074">UserRepository</text><rect fill="#E2E2F0" height="51.2422" rx="2.5" ry="2.5" style="stroke:#181818;stroke-width:0.5;" width="111" x="1259.5" y="1053.3516"/><text fill="#000000" font-family="sans-serif" font-size="14" font-style="italic" lengthAdjust="spacing" textLength="79" x="1275.5" y="1075.459">&#171;repository&#187;</text><text fill="#000000" font-family="sans-serif" font-size="14" lengthAdjust="spacing" textLength="97" x="1266.5" y="1094.0801">UserRepository</text><rect fill="#E2E2F0" height="51.2422" rx="2.5" ry="2.5" style="stroke:#181818;stroke-width:0.5;" width="132" x="1380.5" y="31.3789"/><text fill="#000000" font-family="sans-serif" font-size="14" font-style="italic" lengthAdjust="spacing" textLength="79" x="1407" y="53.4863">&#171;repository&#187;</text><text fill="#000000" font-family="sans-serif" font-size="14" lengthAdjust="spacing" textLength="118" x="1387.5" y="72.1074">MeetingRepository</text><rect fill="#E2E2F0" height="51.2422" rx="2.5" ry="2.5" style="stroke:#181818;stroke-width:0.5;" width="132" x="1380.5" y="1053.3516"/><text fill="#000000" font-family="sans-serif" font-size="14" font-style="italic" lengthAdjust="spacing" textLength="79" x="1407" y="1075.459">&#171;repository&#187;</text><text fill="#000000" font-family="sans-serif" font-size="14" lengthAdjust="spacing" textLength="118" x="1387.5" y="1094.0801">MeetingRepository</text><rect fill="#E2E2F0" height="51.2422" rx="2.5" ry="2.5" style="stroke:#181818;stroke-width:0.5;" width="164" x="1522.5" y="31.3789"/><text fill="#000000" font-family="sans-serif" font-size="14" font-style="italic" lengthAdjust="spacing" textLength="84" x="1562.5" y="53.4863">&#171;application&#187;</text><text fill="#000000" font-family="sans-serif" font-size="14" lengthAdjust="spacing" textLength="150" x="1529.5" y="72.1074">CheckAvailabiltyService</text><rect fill="#E2E2F0" height="51.2422" rx="2.5" ry="2.5" style="stroke:#181818;stroke-width:0.5;" width="164" x="1522.5" y="1053.3516"/><text fill="#000000" font-family="sans-serif" font-size="14" font-style="italic" lengthAdjust="spacing" textLength="84" x="1562.5" y="1075.459">&#171;application&#187;</text><text fill="#000000" font-family="sans-serif" font-size="14" lengthAdjust="spacing" textLength="150" x="1529.5" y="1094.0801">CheckAvailabiltyService</text><rect fill="#E2E2F0" height="51.2422" rx="2.5" ry="2.5" style="stroke:#181818;stroke-width:0.5;" width="201" x="1696.5" y="31.3789"/><text fill="#000000" font-family="sans-serif" font-size="14" font-style="italic" lengthAdjust="spacing" textLength="84" x="1755" y="53.4863">&#171;application&#187;</text><text fill="#000000" font-family="sans-serif" font-size="14" lengthAdjust="spacing" textLength="187" x="1703.5" y="72.1074">SystemUserEmailDTOMapper</text><rect fill="#E2E2F0" height="51.2422" rx="2.5" ry="2.5" style="stroke:#181818;stroke-width:0.5;" width="201" x="1696.5" y="1053.3516"/><text fill="#000000" font-family="sans-serif" font-size="14" font-style="italic" lengthAdjust="spacing" textLength="84" x="1755" y="1075.459">&#171;application&#187;</text><text fill="#000000" font-family="sans-serif" font-size="14" lengthAdjust="spacing" textLength="187" x="1703.5" y="1094.0801">SystemUserEmailDTOMapper</text><rect fill="#E2E2F0" height="51.2422" rx="2.5" ry="2.5" style="stroke:#181818;stroke-width:0.5;" width="201" x="1907.5" y="31.3789"/><text fill="#000000" font-family="sans-serif" font-size="14" font-style="italic" lengthAdjust="spacing" textLength="84" x="1966" y="53.4863">&#171;application&#187;</text><text fill="#000000" font-family="sans-serif" font-size="14" lengthAdjust="spacing" textLength="187" x="1914.5" y="72.1074">SystemUserEmailDTOMapper</text><rect fill="#E2E2F0" height="51.2422" rx="2.5" ry="2.5" style="stroke:#181818;stroke-width:0.5;" width="201" x="1907.5" y="1053.3516"/><text fill="#000000" font-family="sans-serif" font-size="14" font-style="italic" lengthAdjust="spacing" textLength="84" x="1966" y="1075.459">&#171;application&#187;</text><text fill="#000000" font-family="sans-serif" font-size="14" lengthAdjust="spacing" textLength="187" x="1914.5" y="1094.0801">SystemUserEmailDTOMapper</text><rect fill="#FFFFFF" height="919.4395" style="stroke:#181818;stroke-width:1.0;" width="10" x="307.5" y="116.9121"/><rect fill="#FFFFFF" height="708.4023" style="stroke:#181818;stroke-width:1.0;" width="10" x="518.5" y="296.6582"/><rect fill="#FFFFFF" height="62.582" style="stroke:#181818;stroke-width:1.0;" width="10" x="729.5" y="345.2402"/><rect fill="#FFFFFF" height="31.291" style="stroke:#181818;stroke-width:1.0;" width="10" x="1441.5" y="779.0234"/><rect fill="#FFFFFF" height="62.582" style="stroke:#181818;stroke-width:1.0;" width="10" x="1599.5" y="911.1875"/><rect fill="#FFFFFF" height="125.873" style="stroke:#181818;stroke-width:1.0;" width="10" x="1792" y="439.1133"/><rect fill="#FFFFFF" height="30" style="stroke:#181818;stroke-width:1.0;" width="10" x="2003" y="496.6953"/><polygon fill="#181818" points="295.5,112.9121,305.5,116.9121,295.5,120.9121,299.5,116.9121" style="stroke:#181818;stroke-width:1.0;"/><line style="stroke:#181818;stroke-width:1.0;" x1="37.5" x2="301.5" y1="116.9121" y2="116.9121"/><text fill="#000000" font-family="sans-serif" font-size="13" lengthAdjust="spacing" textLength="86" x="44.5" y="111.6494">create Meeting</text><polygon fill="#181818" points="511.5,144.2031,521.5,148.2031,511.5,152.2031,515.5,148.2031" style="stroke:#181818;stroke-width:1.0;"/><line style="stroke:#181818;stroke-width:1.0;" x1="317.5" x2="517.5" y1="148.2031" y2="148.2031"/><text fill="#000000" font-family="sans-serif" font-size="13" lengthAdjust="spacing" textLength="36" x="324.5" y="142.9404">create</text><path d="M528,161.2031 L528,188.2031 L926,188.2031 L926,171.2031 L916,161.2031 L528,161.2031 " fill="#FEFFDD" style="stroke:#181818;stroke-width:0.5;"/><path d="M916,161.2031 L916,171.2031 L926,171.2031 L916,161.2031 " fill="#FEFFDD" style="stroke:#181818;stroke-width:0.5;"/><text fill="#000000" font-family="sans-serif" font-size="13" lengthAdjust="spacing" textLength="377" x="534" y="180.2314">meetingRepository and userRepository using PersistenceContext</text><polygon fill="#181818" points="48.5,212.7852,38.5,216.7852,48.5,220.7852,44.5,216.7852" style="stroke:#181818;stroke-width:1.0;"/><line style="stroke:#181818;stroke-width:1.0;stroke-dasharray:2.0,2.0;" x1="42.5" x2="306.5" y1="216.7852" y2="216.7852"/><text fill="#000000" font-family="sans-serif" font-size="13" lengthAdjust="spacing" textLength="117" x="54.5" y="211.5225">ask user information</text><polygon fill="#181818" points="295.5,244.0762,305.5,248.0762,295.5,252.0762,299.5,248.0762" style="stroke:#181818;stroke-width:1.0;"/><line style="stroke:#181818;stroke-width:1.0;" x1="37.5" x2="301.5" y1="248.0762" y2="248.0762"/><text fill="#000000" font-family="sans-serif" font-size="13" lengthAdjust="spacing" textLength="246" x="44.5" y="242.8135">description,date,startTime,durationMinutes</text><polygon fill="#181818" points="506.5,292.6582,516.5,296.6582,506.5,300.6582,510.5,296.6582" style="stroke:#181818;stroke-width:1.0;"/><line style="stroke:#181818;stroke-width:1.0;" x1="317.5" x2="512.5" y1="296.6582" y2="296.6582"/><text fill="#000000" font-family="sans-serif" font-size="13" lengthAdjust="spacing" textLength="182" x="324.5" y="274.1045">createMeeting(description,date,</text><text fill="#000000" font-family="sans-serif" font-size="13" lengthAdjust="spacing" textLength="154" x="324.5" y="291.3955">startTime,durationMinutes)</text><polygon fill="#181818" points="717.5,341.2402,727.5,345.2402,717.5,349.2402,721.5,345.2402" style="stroke:#181818;stroke-width:1.0;"/><line style="stroke:#181818;stroke-width:1.0;" x1="528.5" x2="723.5" y1="345.2402" y2="345.2402"/><text fill="#000000" font-family="sans-serif" font-size="13" lengthAdjust="spacing" textLength="182" x="535.5" y="322.6865">createMeeting(description,date,</text><text fill="#000000" font-family="sans-serif" font-size="13" lengthAdjust="spacing" textLength="154" x="535.5" y="339.9775">startTime,durationMinutes)</text><polygon fill="#181818" points="1035.5,372.5313,1045.5,376.5313,1035.5,380.5313,1039.5,376.5313" style="stroke:#181818;stroke-width:1.0;"/><line style="stroke:#181818;stroke-width:1.0;" x1="739.5" x2="1041.5" y1="376.5313" y2="376.5313"/><text fill="#000000" font-family="sans-serif" font-size="13" lengthAdjust="spacing" textLength="284" x="746.5" y="371.2686">buildPattern(startDate,startTime,durationMinutes)</text><polygon fill="#181818" points="539.5,403.8223,529.5,407.8223,539.5,411.8223,535.5,407.8223" style="stroke:#181818;stroke-width:1.0;"/><line style="stroke:#181818;stroke-width:1.0;stroke-dasharray:2.0,2.0;" x1="533.5" x2="733.5" y1="407.8223" y2="407.8223"/><text fill="#000000" font-family="sans-serif" font-size="13" lengthAdjust="spacing" textLength="46" x="545.5" y="402.5596">meeting</text><polygon fill="#181818" points="1780,435.1133,1790,439.1133,1780,443.1133,1784,439.1133" style="stroke:#181818;stroke-width:1.0;"/><line style="stroke:#181818;stroke-width:1.0;stroke-dasharray:2.0,2.0;" x1="528.5" x2="1786" y1="439.1133" y2="439.1133"/><text fill="#000000" font-family="sans-serif" font-size="13" lengthAdjust="spacing" textLength="71" x="535.5" y="433.8506">toDto(users)</text><path d="M1686.5,454.1133 L1759.5,454.1133 L1759.5,463.4043 L1749.5,473.4043 L1686.5,473.4043 L1686.5,454.1133 " fill="#EEEEEE" style="stroke:#000000;stroke-width:1.5;"/><rect fill="none" height="80.582" style="stroke:#000000;stroke-width:1.5;" width="432" x="1686.5" y="454.1133"/><text fill="#000000" font-family="sans-serif" font-size="13" font-weight="bold" lengthAdjust="spacing" textLength="28" x="1701.5" y="469.1416">loop</text><text fill="#000000" font-family="sans-serif" font-size="11" font-weight="bold" lengthAdjust="spacing" textLength="131" x="1774.5" y="467.9834">[for each user in users]</text><polygon fill="#181818" points="1991,492.6953,2001,496.6953,1991,500.6953,1995,496.6953" style="stroke:#181818;stroke-width:1.0;"/><line style="stroke:#181818;stroke-width:1.0;stroke-dasharray:2.0,2.0;" x1="1802" x2="1997" y1="496.6953" y2="496.6953"/><text fill="#000000" font-family="sans-serif" font-size="13" lengthAdjust="spacing" textLength="69" x="1809" y="491.4326">create(user)</text><polygon fill="#181818" points="539.5,560.9863,529.5,564.9863,539.5,568.9863,535.5,564.9863" style="stroke:#181818;stroke-width:1.0;"/><line style="stroke:#181818;stroke-width:1.0;stroke-dasharray:2.0,2.0;" x1="533.5" x2="1796" y1="564.9863" y2="564.9863"/><text fill="#000000" font-family="sans-serif" font-size="13" lengthAdjust="spacing" textLength="52" x="545.5" y="559.7236">usersDto</text><polygon fill="#181818" points="328.5,592.2773,318.5,596.2773,328.5,600.2773,324.5,596.2773" style="stroke:#181818;stroke-width:1.0;"/><line style="stroke:#181818;stroke-width:1.0;stroke-dasharray:2.0,2.0;" x1="322.5" x2="517.5" y1="596.2773" y2="596.2773"/><text fill="#000000" font-family="sans-serif" font-size="13" lengthAdjust="spacing" textLength="52" x="334.5" y="591.0146">usersDto</text><polygon fill="#181818" points="48.5,623.5684,38.5,627.5684,48.5,631.5684,44.5,627.5684" style="stroke:#181818;stroke-width:1.0;"/><line style="stroke:#181818;stroke-width:1.0;stroke-dasharray:2.0,2.0;" x1="42.5" x2="306.5" y1="627.5684" y2="627.5684"/><text fill="#000000" font-family="sans-serif" font-size="13" lengthAdjust="spacing" textLength="32" x="54.5" y="622.3057">users</text><path d="M10,642.5684 L83,642.5684 L83,651.8594 L73,661.8594 L10,661.8594 L10,642.5684 " fill="#EEEEEE" style="stroke:#000000;stroke-width:1.5;"/><rect fill="none" height="207.0371" style="stroke:#000000;stroke-width:1.5;" width="1512.5" x="10" y="642.5684"/><text fill="#000000" font-family="sans-serif" font-size="13" font-weight="bold" lengthAdjust="spacing" textLength="28" x="25" y="657.5967">loop</text><a href="invite==true" target="_top" title="invite==true" xlink:actuate="onRequest" xlink:href="invite==true" xlink:show="new" xlink:title="invite==true" xlink:type="simple"><text fill="#0000FF" font-family="sans-serif" font-size="11" font-weight="bold" lengthAdjust="spacing" text-decoration="underline" textLength="65" x="98" y="656.4385">invite==true</text></a><polygon fill="#181818" points="295.5,681.1504,305.5,685.1504,295.5,689.1504,299.5,685.1504" style="stroke:#181818;stroke-width:1.0;"/><line style="stroke:#181818;stroke-width:1.0;" x1="37.5" x2="301.5" y1="685.1504" y2="685.1504"/><text fill="#000000" font-family="sans-serif" font-size="13" lengthAdjust="spacing" textLength="25" x="44.5" y="679.8877">user</text><polygon fill="#181818" points="506.5,712.4414,516.5,716.4414,506.5,720.4414,510.5,716.4414" style="stroke:#181818;stroke-width:1.0;"/><line style="stroke:#181818;stroke-width:1.0;" x1="317.5" x2="512.5" y1="716.4414" y2="716.4414"/><text fill="#000000" font-family="sans-serif" font-size="13" lengthAdjust="spacing" textLength="62" x="324.5" y="711.1787">invite(user)</text><polygon fill="#181818" points="722.5,743.7324,732.5,747.7324,722.5,751.7324,726.5,747.7324" style="stroke:#181818;stroke-width:1.0;"/><line style="stroke:#181818;stroke-width:1.0;" x1="528.5" x2="728.5" y1="747.7324" y2="747.7324"/><text fill="#000000" font-family="sans-serif" font-size="13" lengthAdjust="spacing" textLength="120" x="535.5" y="742.4697">addParticipant(user);</text><polygon fill="#181818" points="1429.5,775.0234,1439.5,779.0234,1429.5,783.0234,1433.5,779.0234" style="stroke:#181818;stroke-width:1.0;"/><line style="stroke:#181818;stroke-width:1.0;stroke-dasharray:2.0,2.0;" x1="528.5" x2="1435.5" y1="779.0234" y2="779.0234"/><text fill="#000000" font-family="sans-serif" font-size="13" lengthAdjust="spacing" textLength="80" x="535.5" y="773.7607">save(meeting)</text><polygon fill="#181818" points="539.5,806.3145,529.5,810.3145,539.5,814.3145,535.5,810.3145" style="stroke:#181818;stroke-width:1.0;"/><line style="stroke:#181818;stroke-width:1.0;stroke-dasharray:2.0,2.0;" x1="533.5" x2="1445.5" y1="810.3145" y2="810.3145"/><text fill="#000000" font-family="sans-serif" font-size="13" lengthAdjust="spacing" textLength="46" x="545.5" y="805.0518">meeting</text><polygon fill="#181818" points="48.5,837.6055,38.5,841.6055,48.5,845.6055,44.5,841.6055" style="stroke:#181818;stroke-width:1.0;"/><line style="stroke:#181818;stroke-width:1.0;stroke-dasharray:2.0,2.0;" x1="42.5" x2="306.5" y1="841.6055" y2="841.6055"/><text fill="#000000" font-family="sans-serif" font-size="13" lengthAdjust="spacing" textLength="207" x="54.5" y="836.3428">asks if wants to add new participant</text><polygon fill="#181818" points="506.5,875.8965,516.5,879.8965,506.5,883.8965,510.5,879.8965" style="stroke:#181818;stroke-width:1.0;"/><line style="stroke:#181818;stroke-width:1.0;" x1="317.5" x2="512.5" y1="879.8965" y2="879.8965"/><text fill="#000000" font-family="sans-serif" font-size="13" lengthAdjust="spacing" textLength="60" x="324.5" y="874.6338">schedule()</text><polygon fill="#181818" points="1587.5,907.1875,1597.5,911.1875,1587.5,915.1875,1591.5,911.1875" style="stroke:#181818;stroke-width:1.0;"/><line style="stroke:#181818;stroke-width:1.0;" x1="528.5" x2="1593.5" y1="911.1875" y2="911.1875"/><text fill="#000000" font-family="sans-serif" font-size="13" lengthAdjust="spacing" textLength="267" x="535.5" y="905.9248">checkAvailability(participants,recurringPattern)</text><polygon fill="#181818" points="539.5,938.4785,529.5,942.4785,539.5,946.4785,535.5,942.4785" style="stroke:#181818;stroke-width:1.0;"/><line style="stroke:#181818;stroke-width:1.0;stroke-dasharray:2.0,2.0;" x1="533.5" x2="1598.5" y1="942.4785" y2="942.4785"/><text fill="#000000" font-family="sans-serif" font-size="13" lengthAdjust="spacing" textLength="103" x="545.5" y="937.2158">returns availability</text><polygon fill="#181818" points="1592.5,969.7695,1602.5,973.7695,1592.5,977.7695,1596.5,973.7695" style="stroke:#181818;stroke-width:1.0;"/><line style="stroke:#181818;stroke-width:1.0;" x1="528.5" x2="1598.5" y1="973.7695" y2="973.7695"/><text fill="#000000" font-family="sans-serif" font-size="13" lengthAdjust="spacing" textLength="219" x="535.5" y="968.5068">schedule(participants,recurringPattern</text><polygon fill="#181818" points="328.5,1001.0605,318.5,1005.0605,328.5,1009.0605,324.5,1005.0605" style="stroke:#181818;stroke-width:1.0;"/><line style="stroke:#181818;stroke-width:1.0;stroke-dasharray:2.0,2.0;" x1="322.5" x2="522.5" y1="1005.0605" y2="1005.0605"/><text fill="#000000" font-family="sans-serif" font-size="13" lengthAdjust="spacing" textLength="46" x="334.5" y="999.7979">meeting</text><polygon fill="#181818" points="48.5,1032.3516,38.5,1036.3516,48.5,1040.3516,44.5,1036.3516" style="stroke:#181818;stroke-width:1.0;"/><line style="stroke:#181818;stroke-width:1.0;stroke-dasharray:2.0,2.0;" x1="42.5" x2="311.5" y1="1036.3516" y2="1036.3516"/><text fill="#000000" font-family="sans-serif" font-size="13" lengthAdjust="spacing" textLength="102" x="54.5" y="1031.0889">displayCourseInfo</text><!--SRC=[fLPDSziW4BtpAvYUd1ddaAI7rdKoaqbwy27JJ3vEJGz4h6F64cW0EVM_xuA415XoCbCEje3Tjxjl7q9cAsJDDAjepOejUuD7ko-1QYWiCVsUsJ2kteLyesjM6Y245LPf-cn0KsRejPiHDBMY43MJbZuM6-1D2NS05jsULyuCVvVBMeC1QPaLIbvTKQKvOfmTSxvHqcfLbcsiQBPSihekHP5YdITONweMPF4YExWl3gLxHWYkAYO6xulK6tbej4RBUsOjQ8am3zcIn-kU3_6-fdZHPCZeVbYCaukMFy9rZNY0MXc1ZTXxhhiLzDJzHk_zBV7kugK0qU8unlS4usO3nVPwnqJ9NaLfzu-WTw80hmwt6kRZFJlB1B0t5YfNmayikhnz-dM7Nct_kwS9dFDFu-1a2kI24AzeUdhbDBkWXGPc8L3Yn2zsRk5vHIWEj47BI9Z1m- -68HLwQF6siLIjK-lgi06IqoPjQcESOEz16u5LoG8S1Forn4VXq6SrGFkTjfJbwMbR2pDRZqo5N2jT-T8Zkr0o1rDeKRlTEKVKkR58x9EeOCuRxRtkX6micECKT9pD3l1Uv2JYYOUSgYUCA1Y63WVw_-E6qSSFRQVP224nUZZ-2_hQY99tqvcFT7kKlPEfcbp3XgAgaHoYbe-b6FFZ26gLlw1MtLerSnB8WfTArHGrGH5t4pJY_yq4CHuosUkYk83kW8Lk-70JzA8TcQhBxSLR8FbHlaADFcaiSvAlmypTvOGGYOH7ORBprF93UW9_2xaJ5YulhMxWpuXdE67ECSyWFqCjLiRUbF0Pvz6LqJhz85Do65uv2shO3cQTn8OukRgSxIVKsaBcWZqKQm8NROURYnnRFtof6IhMz1qBDwXmnmMLy4wZsu040Kszi4ptsJ4xQKrIdfDR37MTt7V2xcTHA3FFlnkoLreCHaQep89fi8sMXh8etiSfzlKSpIodEKcDJ9sCkBtZLq_M8IvCNRBzZMgqWHLUFIHkxOhy0m00]--></g></svg>