<?xml version="1.0" encoding="us-ascii" standalone="no"?><svg xmlns="http://www.w3.org/2000/svg" xmlns:xlink="http://www.w3.org/1999/xlink" contentStyleType="text/css" height="740px" preserveAspectRatio="none" style="width:1467px;height:740px;background:#1B1B1B;" version="1.1" viewBox="0 0 1467 740" width="1467px" zoomAndPan="magnify"><defs/><g><rect fill="#1B1B1B" height="740" style="stroke:none;stroke-width:1.0;" width="1467" x="0" y="0"/><rect fill="#000000" height="521.5902" style="stroke:#E7E7E7;stroke-width:1.0;" width="10" x="150" y="117.7739"/><rect fill="#000000" height="30" style="stroke:#E7E7E7;stroke-width:1.0;" width="10" x="348" y="161.333"/><rect fill="#000000" height="372.7662" style="stroke:#E7E7E7;stroke-width:1.0;" width="10" x="348" y="234.892"/><rect fill="#000000" height="138.6771" style="stroke:#E7E7E7;stroke-width:1.0;" width="10" x="562" y="278.451"/><rect fill="#000000" height="31.706" style="stroke:#E7E7E7;stroke-width:1.0;" width="10" x="807" y="322.01"/><rect fill="#000000" height="31.706" style="stroke:#E7E7E7;stroke-width:1.0;" width="10" x="990" y="385.4221"/><rect fill="#000000" height="127.118" style="stroke:#E7E7E7;stroke-width:1.0;" width="10" x="1192.5" y="448.8341"/><rect fill="#000000" height="30" style="stroke:#E7E7E7;stroke-width:1.0;" width="10" x="1374" y="507.2461"/><rect fill="none" height="81.412" style="stroke:#FFFFFF;stroke-width:1.5;" width="373" x="1088.5" y="463.8341"/><line style="stroke:#E7E7E7;stroke-width:0.5;stroke-dasharray:5.0,5.0;" x1="34" x2="34" y1="84.0679" y2="657.3642"/><line style="stroke:#E7E7E7;stroke-width:0.5;stroke-dasharray:5.0,5.0;" x1="155" x2="155" y1="84.0679" y2="657.3642"/><line style="stroke:#E7E7E7;stroke-width:0.5;stroke-dasharray:5.0,5.0;" x1="353" x2="353" y1="84.0679" y2="657.3642"/><line style="stroke:#E7E7E7;stroke-width:0.5;stroke-dasharray:5.0,5.0;" x1="567" x2="567" y1="84.0679" y2="657.3642"/><line style="stroke:#E7E7E7;stroke-width:0.5;stroke-dasharray:5.0,5.0;" x1="811.5" x2="811.5" y1="84.0679" y2="657.3642"/><line style="stroke:#E7E7E7;stroke-width:0.5;stroke-dasharray:5.0,5.0;" x1="994.5" x2="994.5" y1="84.0679" y2="657.3642"/><line style="stroke:#E7E7E7;stroke-width:0.5;stroke-dasharray:5.0,5.0;" x1="1197.5" x2="1197.5" y1="84.0679" y2="657.3642"/><line style="stroke:#E7E7E7;stroke-width:0.5;stroke-dasharray:5.0,5.0;" x1="1378.5" x2="1378.5" y1="84.0679" y2="657.3642"/><text fill="#FFFFFF" font-family="sans-serif" font-size="14" lengthAdjust="spacing" textLength="53" x="5" y="79.9659">Student</text><ellipse cx="34.5" cy="13.5" fill="#222222" rx="8" ry="8" style="stroke:#E7E7E7;stroke-width:0.5;"/><path d="M34.5,21.5 L34.5,48.5 M21.5,29.5 L47.5,29.5 M34.5,48.5 L21.5,63.5 M34.5,48.5 L47.5,63.5 " fill="none" style="stroke:#E7E7E7;stroke-width:0.5;"/><text fill="#FFFFFF" font-family="sans-serif" font-size="14" lengthAdjust="spacing" textLength="53" x="5" y="671.3301">Student</text><ellipse cx="34.5" cy="683.9321" fill="#222222" rx="8" ry="8" style="stroke:#E7E7E7;stroke-width:0.5;"/><path d="M34.5,691.9321 L34.5,718.9321 M21.5,699.9321 L47.5,699.9321 M34.5,718.9321 L21.5,733.9321 M34.5,718.9321 L47.5,733.9321 " fill="none" style="stroke:#E7E7E7;stroke-width:0.5;"/><rect fill="#222222" height="33.0679" rx="2.5" ry="2.5" style="stroke:#E7E7E7;stroke-width:0.5;" width="162" x="74" y="50"/><text fill="#FFFFFF" font-family="sans-serif" font-size="14" lengthAdjust="spacing" textLength="148" x="81" y="71.9659">TakeFormativeExamUI</text><rect fill="#222222" height="33.0679" rx="2.5" ry="2.5" style="stroke:#E7E7E7;stroke-width:0.5;" width="162" x="74" y="656.3642"/><text fill="#FFFFFF" font-family="sans-serif" font-size="14" lengthAdjust="spacing" textLength="148" x="81" y="678.3301">TakeFormativeExamUI</text><rect fill="#222222" height="33.0679" rx="2.5" ry="2.5" style="stroke:#E7E7E7;stroke-width:0.5;" width="214" x="246" y="50"/><text fill="#FFFFFF" font-family="sans-serif" font-size="14" lengthAdjust="spacing" textLength="200" x="253" y="71.9659">TakeFormativeExamController</text><rect fill="#222222" height="33.0679" rx="2.5" ry="2.5" style="stroke:#E7E7E7;stroke-width:0.5;" width="214" x="246" y="656.3642"/><text fill="#FFFFFF" font-family="sans-serif" font-size="14" lengthAdjust="spacing" textLength="200" x="253" y="678.3301">TakeFormativeExamController</text><rect fill="#222222" height="33.0679" rx="2.5" ry="2.5" style="stroke:#E7E7E7;stroke-width:0.5;" width="194" x="470" y="50"/><text fill="#FFFFFF" font-family="sans-serif" font-size="14" lengthAdjust="spacing" textLength="180" x="477" y="71.9659">ListFormativeExamsService</text><rect fill="#222222" height="33.0679" rx="2.5" ry="2.5" style="stroke:#E7E7E7;stroke-width:0.5;" width="194" x="470" y="656.3642"/><text fill="#FFFFFF" font-family="sans-serif" font-size="14" lengthAdjust="spacing" textLength="180" x="477" y="678.3301">ListFormativeExamsService</text><rect fill="#222222" height="33.0679" rx="2.5" ry="2.5" style="stroke:#E7E7E7;stroke-width:0.5;" width="159" x="732.5" y="50"/><text fill="#FFFFFF" font-family="sans-serif" font-size="14" lengthAdjust="spacing" textLength="145" x="739.5" y="71.9659">EnrollmentRepository</text><rect fill="#222222" height="33.0679" rx="2.5" ry="2.5" style="stroke:#E7E7E7;stroke-width:0.5;" width="159" x="732.5" y="656.3642"/><text fill="#FFFFFF" font-family="sans-serif" font-size="14" lengthAdjust="spacing" textLength="145" x="739.5" y="678.3301">EnrollmentRepository</text><rect fill="#222222" height="33.0679" rx="2.5" ry="2.5" style="stroke:#E7E7E7;stroke-width:0.5;" width="187" x="901.5" y="50"/><text fill="#FFFFFF" font-family="sans-serif" font-size="14" lengthAdjust="spacing" textLength="173" x="908.5" y="71.9659">FormativeExamRepository</text><rect fill="#222222" height="33.0679" rx="2.5" ry="2.5" style="stroke:#E7E7E7;stroke-width:0.5;" width="187" x="901.5" y="656.3642"/><text fill="#FFFFFF" font-family="sans-serif" font-size="14" lengthAdjust="spacing" textLength="173" x="908.5" y="678.3301">FormativeExamRepository</text><rect fill="#222222" height="33.0679" rx="2.5" ry="2.5" style="stroke:#E7E7E7;stroke-width:0.5;" width="198" x="1098.5" y="50"/><text fill="#FFFFFF" font-family="sans-serif" font-size="14" lengthAdjust="spacing" textLength="184" x="1105.5" y="71.9659">FormativeExamDTOMapper</text><rect fill="#222222" height="33.0679" rx="2.5" ry="2.5" style="stroke:#E7E7E7;stroke-width:0.5;" width="198" x="1098.5" y="656.3642"/><text fill="#FFFFFF" font-family="sans-serif" font-size="14" lengthAdjust="spacing" textLength="184" x="1105.5" y="678.3301">FormativeExamDTOMapper</text><rect fill="#222222" height="33.0679" rx="2.5" ry="2.5" style="stroke:#E7E7E7;stroke-width:0.5;" width="145" x="1306.5" y="50"/><text fill="#FFFFFF" font-family="sans-serif" font-size="14" lengthAdjust="spacing" textLength="131" x="1313.5" y="71.9659">FormativeExamDTO</text><rect fill="#222222" height="33.0679" rx="2.5" ry="2.5" style="stroke:#E7E7E7;stroke-width:0.5;" width="145" x="1306.5" y="656.3642"/><text fill="#FFFFFF" font-family="sans-serif" font-size="14" lengthAdjust="spacing" textLength="131" x="1313.5" y="678.3301">FormativeExamDTO</text><rect fill="#000000" height="521.5902" style="stroke:#E7E7E7;stroke-width:1.0;" width="10" x="150" y="117.7739"/><rect fill="#000000" height="30" style="stroke:#E7E7E7;stroke-width:1.0;" width="10" x="348" y="161.333"/><rect fill="#000000" height="372.7662" style="stroke:#E7E7E7;stroke-width:1.0;" width="10" x="348" y="234.892"/><rect fill="#000000" height="138.6771" style="stroke:#E7E7E7;stroke-width:1.0;" width="10" x="562" y="278.451"/><rect fill="#000000" height="31.706" style="stroke:#E7E7E7;stroke-width:1.0;" width="10" x="807" y="322.01"/><rect fill="#000000" height="31.706" style="stroke:#E7E7E7;stroke-width:1.0;" width="10" x="990" y="385.4221"/><rect fill="#000000" height="127.118" style="stroke:#E7E7E7;stroke-width:1.0;" width="10" x="1192.5" y="448.8341"/><rect fill="#000000" height="30" style="stroke:#E7E7E7;stroke-width:1.0;" width="10" x="1374" y="507.2461"/><polygon fill="#E7E7E7" points="138,113.7739,148,117.7739,138,121.7739,142,117.7739" style="stroke:#E7E7E7;stroke-width:1.0;"/><line style="stroke:#E7E7E7;stroke-width:1.0;stroke-dasharray:2.0,2.0;" x1="34.5" x2="144" y1="117.7739" y2="117.7739"/><text fill="#FFFFFF" font-family="sans-serif" font-size="13" lengthAdjust="spacing" textLength="32" x="41.5" y="111.9649">enter</text><polygon fill="#E7E7E7" points="336,157.333,346,161.333,336,165.333,340,161.333" style="stroke:#E7E7E7;stroke-width:1.0;"/><line style="stroke:#E7E7E7;stroke-width:1.0;stroke-dasharray:2.0,2.0;" x1="160" x2="342" y1="161.333" y2="161.333"/><text fill="#FFFFFF" font-family="sans-serif" font-size="13" lengthAdjust="spacing" textLength="45" x="167" y="155.524">create()</text><path d="M363,130.7739 L363,175.7739 L582,175.7739 L582,140.7739 L572,130.7739 L363,130.7739 " fill="#714137" style="stroke:#E7E7E7;stroke-width:0.5;"/><path d="M572,130.7739 L572,140.7739 L582,140.7739 L572,130.7739 " fill="#714137" style="stroke:#E7E7E7;stroke-width:0.5;"/><text fill="#FFFFFF" font-family="sans-serif" font-size="13" lengthAdjust="spacing" textLength="170" x="369" y="149.6709">repositories are retrieved via</text><text fill="#FFFFFF" font-family="sans-serif" font-size="13" lengthAdjust="spacing" textLength="198" x="369" y="167.377">PersistenceContext.repositories()</text><polygon fill="#E7E7E7" points="336,230.892,346,234.892,336,238.892,340,234.892" style="stroke:#E7E7E7;stroke-width:1.0;"/><line style="stroke:#E7E7E7;stroke-width:1.0;stroke-dasharray:2.0,2.0;" x1="160" x2="342" y1="234.892" y2="234.892"/><text fill="#FFFFFF" font-family="sans-serif" font-size="13" lengthAdjust="spacing" textLength="105" x="167" y="229.083">formativeExams()</text><polygon fill="#E7E7E7" points="550,274.451,560,278.451,550,282.451,554,278.451" style="stroke:#E7E7E7;stroke-width:1.0;"/><line style="stroke:#E7E7E7;stroke-width:1.0;stroke-dasharray:2.0,2.0;" x1="358" x2="556" y1="278.451" y2="278.451"/><text fill="#FFFFFF" font-family="sans-serif" font-size="13" lengthAdjust="spacing" textLength="120" x="365" y="272.642">forStudent(student)</text><path d="M577,247.892 L577,292.892 L822,292.892 L822,257.892 L812,247.892 L577,247.892 " fill="#714137" style="stroke:#E7E7E7;stroke-width:0.5;"/><path d="M812,247.892 L812,257.892 L822,257.892 L812,247.892 " fill="#714137" style="stroke:#E7E7E7;stroke-width:0.5;"/><text fill="#FFFFFF" font-family="sans-serif" font-size="13" lengthAdjust="spacing" textLength="224" x="583" y="266.789">student obtained via the framework's</text><text fill="#FFFFFF" font-family="sans-serif" font-size="13" lengthAdjust="spacing" textLength="214" x="583" y="284.495">Authz package + StudentRepository</text><polygon fill="#E7E7E7" points="795,318.01,805,322.01,795,326.01,799,322.01" style="stroke:#E7E7E7;stroke-width:1.0;"/><line style="stroke:#E7E7E7;stroke-width:1.0;stroke-dasharray:2.0,2.0;" x1="572" x2="801" y1="322.01" y2="322.01"/><text fill="#FFFFFF" font-family="sans-serif" font-size="13" lengthAdjust="spacing" textLength="216" x="579" y="316.201">ongoingCoursesOfStudent(student)</text><polygon fill="#E7E7E7" points="583,349.716,573,353.716,583,357.716,579,353.716" style="stroke:#E7E7E7;stroke-width:1.0;"/><line style="stroke:#E7E7E7;stroke-width:1.0;stroke-dasharray:2.0,2.0;" x1="577" x2="811" y1="353.716" y2="353.716"/><text fill="#FFFFFF" font-family="sans-serif" font-size="13" lengthAdjust="spacing" textLength="46" x="589" y="347.907">courses</text><polygon fill="#E7E7E7" points="978,381.4221,988,385.4221,978,389.4221,982,385.4221" style="stroke:#E7E7E7;stroke-width:1.0;"/><line style="stroke:#E7E7E7;stroke-width:1.0;stroke-dasharray:2.0,2.0;" x1="572" x2="984" y1="385.4221" y2="385.4221"/><text fill="#FFFFFF" font-family="sans-serif" font-size="13" lengthAdjust="spacing" textLength="213" x="579" y="379.6131">formativeExamsOfCourses(courses)</text><polygon fill="#E7E7E7" points="578,413.1281,568,417.1281,578,421.1281,574,417.1281" style="stroke:#E7E7E7;stroke-width:1.0;"/><line style="stroke:#E7E7E7;stroke-width:1.0;stroke-dasharray:2.0,2.0;" x1="572" x2="994" y1="417.1281" y2="417.1281"/><text fill="#FFFFFF" font-family="sans-serif" font-size="13" lengthAdjust="spacing" textLength="39" x="584" y="411.3191">exams</text><polygon fill="#E7E7E7" points="1180.5,444.8341,1190.5,448.8341,1180.5,452.8341,1184.5,448.8341" style="stroke:#E7E7E7;stroke-width:1.0;"/><line style="stroke:#E7E7E7;stroke-width:1.0;stroke-dasharray:2.0,2.0;" x1="358" x2="1186.5" y1="448.8341" y2="448.8341"/><text fill="#FFFFFF" font-family="sans-serif" font-size="13" lengthAdjust="spacing" textLength="45" x="365" y="443.0251">create()</text><path d="M1088.5,463.8341 L1161.5,463.8341 L1161.5,473.5401 L1151.5,483.5401 L1088.5,483.5401 L1088.5,463.8341 " fill="#555555" style="stroke:#FFFFFF;stroke-width:1.5;"/><rect fill="none" height="81.412" style="stroke:#FFFFFF;stroke-width:1.5;" width="373" x="1088.5" y="463.8341"/><text fill="#FFFFFF" font-family="sans-serif" font-size="13" font-weight="bold" lengthAdjust="spacing" textLength="28" x="1103.5" y="478.7311">loop</text><text fill="#FFFFFF" font-family="sans-serif" font-size="11" font-weight="bold" lengthAdjust="spacing" textLength="140" x="1176.5" y="477.593">[for each exam in exams]</text><polygon fill="#E7E7E7" points="1362,503.2461,1372,507.2461,1362,511.2461,1366,507.2461" style="stroke:#E7E7E7;stroke-width:1.0;"/><line style="stroke:#E7E7E7;stroke-width:1.0;stroke-dasharray:2.0,2.0;" x1="1202.5" x2="1368" y1="507.2461" y2="507.2461"/><text fill="#FFFFFF" font-family="sans-serif" font-size="13" lengthAdjust="spacing" textLength="45" x="1209.5" y="501.4371">create()</text><polygon fill="#E7E7E7" points="369,571.9521,359,575.9521,369,579.9521,365,575.9521" style="stroke:#E7E7E7;stroke-width:1.0;"/><line style="stroke:#E7E7E7;stroke-width:1.0;stroke-dasharray:2.0,2.0;" x1="363" x2="1196.5" y1="575.9521" y2="575.9521"/><text fill="#FFFFFF" font-family="sans-serif" font-size="13" lengthAdjust="spacing" textLength="80" x="375" y="570.1431">examDTOList</text><polygon fill="#E7E7E7" points="171,603.6582,161,607.6582,171,611.6582,167,607.6582" style="stroke:#E7E7E7;stroke-width:1.0;"/><line style="stroke:#E7E7E7;stroke-width:1.0;stroke-dasharray:2.0,2.0;" x1="165" x2="352" y1="607.6582" y2="607.6582"/><text fill="#FFFFFF" font-family="sans-serif" font-size="13" lengthAdjust="spacing" textLength="80" x="177" y="601.8492">examDTOList</text><polygon fill="#E7E7E7" points="45.5,635.3642,35.5,639.3642,45.5,643.3642,41.5,639.3642" style="stroke:#E7E7E7;stroke-width:1.0;"/><line style="stroke:#E7E7E7;stroke-width:1.0;stroke-dasharray:2.0,2.0;" x1="39.5" x2="154" y1="639.3642" y2="639.3642"/><text fill="#FFFFFF" font-family="sans-serif" font-size="13" lengthAdjust="spacing" textLength="32" x="51.5" y="633.5552">show</text><!--SRC=[VLHDJ-Cm4BtdL_X6qGf-m1wGK1Sa95P5mDwGLbvdqbXjxCYUXYw_dfdORMqtgK-MvysyDr-M2gqJRxYhmQ2GNlXmhQfUEjHAzvBUt-K67gth9Ee17lQo-_F4s9s-Z5fQWyvkj-0OhT1jyx3FscFcuD_03Lh1A6HG6VZ1SAYEjBr2RxqctVyP1yVtluuCcKyMF7ThW9w2nxpBh_VLRzdtGNyttYw26LOZHQnY6SNDpHsLIVmacKZEKX5Q8d3f11qoCO9BGnZbW6oBwz5qX8vr4_4OIozEhrial3jafC4BwSW0IFS1QZ5e-M5Um7agCHW5t0hOustg4ebgoAacX3LPaouA73tObVeNFEDmBM99he_GOm1kjKXEbkIXalOVIcr2QW9R48sJ7NnQjxdo7-P-X-sNwANQo3M87uU9FlKy8s1jhB6O7MApPcsrMI_jpddmgsPMV9P0EOEYE2NFgJug46KUIKFAm9DPd4Rvh5Mh9cQoY4Gp2IJRK6fFefzayzkiw8bWYPMRVJujORdA7SWqnlrBIRVMzfoneF3jA4feCo6EJsHWCbhHAQOpHbxbqfXaKfh1rAEYQeOsBXE4lu8_lwdwn3JFInI-aSBvql8UDeTsgBMVLGAbt-SR]--></g></svg>