<?xml version="1.0" encoding="us-ascii" standalone="no"?><svg xmlns="http://www.w3.org/2000/svg" xmlns:xlink="http://www.w3.org/1999/xlink" contentStyleType="text/css" height="697px" preserveAspectRatio="none" style="width:1506px;height:697px;background:#FFFFFF;" version="1.1" viewBox="0 0 1506 697" width="1506px" zoomAndPan="magnify"><defs/><g><rect fill="#FFFFFF" height="485.6582" style="stroke:#181818;stroke-width:1.0;" width="10" x="152.5" y="112.7988"/><rect fill="#FFFFFF" height="30" style="stroke:#181818;stroke-width:1.0;" width="10" x="357.5" y="152.7646"/><rect fill="#FFFFFF" height="346.416" style="stroke:#181818;stroke-width:1.0;" width="10" x="357.5" y="222.7305"/><rect fill="#FFFFFF" height="127.8975" style="stroke:#181818;stroke-width:1.0;" width="10" x="578" y="262.6963"/><rect fill="#FFFFFF" height="29.3105" style="stroke:#181818;stroke-width:1.0;" width="10" x="829" y="302.6621"/><rect fill="#FFFFFF" height="29.3105" style="stroke:#181818;stroke-width:1.0;" width="10" x="1016.5" y="361.2832"/><rect fill="#FFFFFF" height="119.9316" style="stroke:#181818;stroke-width:1.0;" width="10" x="1224" y="419.9043"/><rect fill="#FFFFFF" height="30" style="stroke:#181818;stroke-width:1.0;" width="10" x="1410" y="473.5254"/><rect fill="none" height="76.6211" style="stroke:#000000;stroke-width:1.5;" width="382" x="1118" y="434.9043"/><line style="stroke:#181818;stroke-width:0.5;stroke-dasharray:5.0,5.0;" x1="34" x2="34" y1="81.4883" y2="616.457"/><line style="stroke:#181818;stroke-width:0.5;stroke-dasharray:5.0,5.0;" x1="157" x2="157" y1="81.4883" y2="616.457"/><line style="stroke:#181818;stroke-width:0.5;stroke-dasharray:5.0,5.0;" x1="362" x2="362" y1="81.4883" y2="616.457"/><line style="stroke:#181818;stroke-width:0.5;stroke-dasharray:5.0,5.0;" x1="583" x2="583" y1="81.4883" y2="616.457"/><line style="stroke:#181818;stroke-width:0.5;stroke-dasharray:5.0,5.0;" x1="834" x2="834" y1="81.4883" y2="616.457"/><line style="stroke:#181818;stroke-width:0.5;stroke-dasharray:5.0,5.0;" x1="1021" x2="1021" y1="81.4883" y2="616.457"/><line style="stroke:#181818;stroke-width:0.5;stroke-dasharray:5.0,5.0;" x1="1229" x2="1229" y1="81.4883" y2="616.457"/><line style="stroke:#181818;stroke-width:0.5;stroke-dasharray:5.0,5.0;" x1="1415" x2="1415" y1="81.4883" y2="616.457"/><text fill="#000000" font-family="sans-serif" font-size="14" lengthAdjust="spacing" textLength="53" x="5" y="78.5352">Student</text><ellipse cx="34.5" cy="13.5" fill="#E2E2F0" rx="8" ry="8" style="stroke:#181818;stroke-width:0.5;"/><path d="M34.5,21.5 L34.5,48.5 M21.5,29.5 L47.5,29.5 M34.5,48.5 L21.5,63.5 M34.5,48.5 L47.5,63.5 " fill="none" style="stroke:#181818;stroke-width:0.5;"/><text fill="#000000" font-family="sans-serif" font-size="14" lengthAdjust="spacing" textLength="53" x="5" y="628.9922">Student</text><ellipse cx="34.5" cy="640.4453" fill="#E2E2F0" rx="8" ry="8" style="stroke:#181818;stroke-width:0.5;"/><path d="M34.5,648.4453 L34.5,675.4453 M21.5,656.4453 L47.5,656.4453 M34.5,675.4453 L21.5,690.4453 M34.5,675.4453 L47.5,690.4453 " fill="none" style="stroke:#181818;stroke-width:0.5;"/><rect fill="#E2E2F0" height="30.4883" rx="2.5" ry="2.5" style="stroke:#181818;stroke-width:0.5;" width="167" x="74" y="50"/><text fill="#000000" font-family="sans-serif" font-size="14" lengthAdjust="spacing" textLength="153" x="81" y="70.5352">TakeFormativeExamUI</text><rect fill="#E2E2F0" height="30.4883" rx="2.5" ry="2.5" style="stroke:#181818;stroke-width:0.5;" width="167" x="74" y="615.457"/><text fill="#000000" font-family="sans-serif" font-size="14" lengthAdjust="spacing" textLength="153" x="81" y="635.9922">TakeFormativeExamUI</text><rect fill="#E2E2F0" height="30.4883" rx="2.5" ry="2.5" style="stroke:#181818;stroke-width:0.5;" width="223" x="251" y="50"/><text fill="#000000" font-family="sans-serif" font-size="14" lengthAdjust="spacing" textLength="209" x="258" y="70.5352">TakeFormativeExamController</text><rect fill="#E2E2F0" height="30.4883" rx="2.5" ry="2.5" style="stroke:#181818;stroke-width:0.5;" width="223" x="251" y="615.457"/><text fill="#000000" font-family="sans-serif" font-size="14" lengthAdjust="spacing" textLength="209" x="258" y="635.9922">TakeFormativeExamController</text><rect fill="#E2E2F0" height="30.4883" rx="2.5" ry="2.5" style="stroke:#181818;stroke-width:0.5;" width="198" x="484" y="50"/><text fill="#000000" font-family="sans-serif" font-size="14" lengthAdjust="spacing" textLength="184" x="491" y="70.5352">ListFormativeExamsService</text><rect fill="#E2E2F0" height="30.4883" rx="2.5" ry="2.5" style="stroke:#181818;stroke-width:0.5;" width="198" x="484" y="615.457"/><text fill="#000000" font-family="sans-serif" font-size="14" lengthAdjust="spacing" textLength="184" x="491" y="635.9922">ListFormativeExamsService</text><rect fill="#E2E2F0" height="30.4883" rx="2.5" ry="2.5" style="stroke:#181818;stroke-width:0.5;" width="162" x="753" y="50"/><text fill="#000000" font-family="sans-serif" font-size="14" lengthAdjust="spacing" textLength="148" x="760" y="70.5352">EnrollmentRepository</text><rect fill="#E2E2F0" height="30.4883" rx="2.5" ry="2.5" style="stroke:#181818;stroke-width:0.5;" width="162" x="753" y="615.457"/><text fill="#000000" font-family="sans-serif" font-size="14" lengthAdjust="spacing" textLength="148" x="760" y="635.9922">EnrollmentRepository</text><rect fill="#E2E2F0" height="30.4883" rx="2.5" ry="2.5" style="stroke:#181818;stroke-width:0.5;" width="193" x="925" y="50"/><text fill="#000000" font-family="sans-serif" font-size="14" lengthAdjust="spacing" textLength="179" x="932" y="70.5352">FormativeExamRepository</text><rect fill="#E2E2F0" height="30.4883" rx="2.5" ry="2.5" style="stroke:#181818;stroke-width:0.5;" width="193" x="925" y="615.457"/><text fill="#000000" font-family="sans-serif" font-size="14" lengthAdjust="spacing" textLength="179" x="932" y="635.9922">FormativeExamRepository</text><rect fill="#E2E2F0" height="30.4883" rx="2.5" ry="2.5" style="stroke:#181818;stroke-width:0.5;" width="202" x="1128" y="50"/><text fill="#000000" font-family="sans-serif" font-size="14" lengthAdjust="spacing" textLength="188" x="1135" y="70.5352">FormativeExamDTOMapper</text><rect fill="#E2E2F0" height="30.4883" rx="2.5" ry="2.5" style="stroke:#181818;stroke-width:0.5;" width="202" x="1128" y="615.457"/><text fill="#000000" font-family="sans-serif" font-size="14" lengthAdjust="spacing" textLength="188" x="1135" y="635.9922">FormativeExamDTOMapper</text><rect fill="#E2E2F0" height="30.4883" rx="2.5" ry="2.5" style="stroke:#181818;stroke-width:0.5;" width="150" x="1340" y="50"/><text fill="#000000" font-family="sans-serif" font-size="14" lengthAdjust="spacing" textLength="136" x="1347" y="70.5352">FormativeExamDTO</text><rect fill="#E2E2F0" height="30.4883" rx="2.5" ry="2.5" style="stroke:#181818;stroke-width:0.5;" width="150" x="1340" y="615.457"/><text fill="#000000" font-family="sans-serif" font-size="14" lengthAdjust="spacing" textLength="136" x="1347" y="635.9922">FormativeExamDTO</text><rect fill="#FFFFFF" height="485.6582" style="stroke:#181818;stroke-width:1.0;" width="10" x="152.5" y="112.7988"/><rect fill="#FFFFFF" height="30" style="stroke:#181818;stroke-width:1.0;" width="10" x="357.5" y="152.7646"/><rect fill="#FFFFFF" height="346.416" style="stroke:#181818;stroke-width:1.0;" width="10" x="357.5" y="222.7305"/><rect fill="#FFFFFF" height="127.8975" style="stroke:#181818;stroke-width:1.0;" width="10" x="578" y="262.6963"/><rect fill="#FFFFFF" height="29.3105" style="stroke:#181818;stroke-width:1.0;" width="10" x="829" y="302.6621"/><rect fill="#FFFFFF" height="29.3105" style="stroke:#181818;stroke-width:1.0;" width="10" x="1016.5" y="361.2832"/><rect fill="#FFFFFF" height="119.9316" style="stroke:#181818;stroke-width:1.0;" width="10" x="1224" y="419.9043"/><rect fill="#FFFFFF" height="30" style="stroke:#181818;stroke-width:1.0;" width="10" x="1410" y="473.5254"/><polygon fill="#181818" points="140.5,108.7988,150.5,112.7988,140.5,116.7988,144.5,112.7988" style="stroke:#181818;stroke-width:1.0;"/><line style="stroke:#181818;stroke-width:1.0;stroke-dasharray:2.0,2.0;" x1="34.5" x2="146.5" y1="112.7988" y2="112.7988"/><text fill="#000000" font-family="sans-serif" font-size="13" lengthAdjust="spacing" textLength="32" x="41.5" y="108.0566">enter</text><polygon fill="#181818" points="345.5,148.7646,355.5,152.7646,345.5,156.7646,349.5,152.7646" style="stroke:#181818;stroke-width:1.0;"/><line style="stroke:#181818;stroke-width:1.0;stroke-dasharray:2.0,2.0;" x1="162.5" x2="351.5" y1="152.7646" y2="152.7646"/><text fill="#000000" font-family="sans-serif" font-size="13" lengthAdjust="spacing" textLength="46" x="169.5" y="148.0225">create()</text><path d="M372,125.7988 L372,165.7988 L601,165.7988 L601,135.7988 L591,125.7988 L372,125.7988 " fill="#FEFFDD" style="stroke:#181818;stroke-width:0.5;"/><path d="M591,125.7988 L591,135.7988 L601,135.7988 L591,125.7988 " fill="#FEFFDD" style="stroke:#181818;stroke-width:0.5;"/><text fill="#000000" font-family="sans-serif" font-size="13" lengthAdjust="spacing" textLength="179" x="378" y="143.3672">repositories are retrieved via</text><text fill="#000000" font-family="sans-serif" font-size="13" lengthAdjust="spacing" textLength="208" x="378" y="158.6777">PersistenceContext.repositories()</text><polygon fill="#181818" points="345.5,218.7305,355.5,222.7305,345.5,226.7305,349.5,222.7305" style="stroke:#181818;stroke-width:1.0;"/><line style="stroke:#181818;stroke-width:1.0;stroke-dasharray:2.0,2.0;" x1="162.5" x2="351.5" y1="222.7305" y2="222.7305"/><text fill="#000000" font-family="sans-serif" font-size="13" lengthAdjust="spacing" textLength="109" x="169.5" y="217.9883">formativeExams()</text><polygon fill="#181818" points="566,258.6963,576,262.6963,566,266.6963,570,262.6963" style="stroke:#181818;stroke-width:1.0;"/><line style="stroke:#181818;stroke-width:1.0;stroke-dasharray:2.0,2.0;" x1="367.5" x2="572" y1="262.6963" y2="262.6963"/><text fill="#000000" font-family="sans-serif" font-size="13" lengthAdjust="spacing" textLength="122" x="374.5" y="257.9541">forStudent(student)</text><path d="M593,235.7305 L593,275.7305 L848,275.7305 L848,245.7305 L838,235.7305 L593,235.7305 " fill="#FEFFDD" style="stroke:#181818;stroke-width:0.5;"/><path d="M838,235.7305 L838,245.7305 L848,245.7305 L838,235.7305 " fill="#FEFFDD" style="stroke:#181818;stroke-width:0.5;"/><text fill="#000000" font-family="sans-serif" font-size="13" lengthAdjust="spacing" textLength="234" x="599" y="253.2988">student obtained via the framework's</text><text fill="#000000" font-family="sans-serif" font-size="13" lengthAdjust="spacing" textLength="226" x="599" y="268.6094">Authz package + StudentRepository</text><polygon fill="#181818" points="817,298.6621,827,302.6621,817,306.6621,821,302.6621" style="stroke:#181818;stroke-width:1.0;"/><line style="stroke:#181818;stroke-width:1.0;stroke-dasharray:2.0,2.0;" x1="588" x2="823" y1="302.6621" y2="302.6621"/><text fill="#000000" font-family="sans-serif" font-size="13" lengthAdjust="spacing" textLength="222" x="595" y="297.9199">ongoingCoursesOfStudent(student)</text><polygon fill="#181818" points="599,327.9727,589,331.9727,599,335.9727,595,331.9727" style="stroke:#181818;stroke-width:1.0;"/><line style="stroke:#181818;stroke-width:1.0;stroke-dasharray:2.0,2.0;" x1="593" x2="833" y1="331.9727" y2="331.9727"/><text fill="#000000" font-family="sans-serif" font-size="13" lengthAdjust="spacing" textLength="49" x="605" y="327.2305">courses</text><polygon fill="#181818" points="1004.5,357.2832,1014.5,361.2832,1004.5,365.2832,1008.5,361.2832" style="stroke:#181818;stroke-width:1.0;"/><line style="stroke:#181818;stroke-width:1.0;stroke-dasharray:2.0,2.0;" x1="588" x2="1010.5" y1="361.2832" y2="361.2832"/><text fill="#000000" font-family="sans-serif" font-size="13" lengthAdjust="spacing" textLength="224" x="595" y="356.541">formativeExamsOfCourses(courses)</text><polygon fill="#181818" points="594,386.5938,584,390.5938,594,394.5938,590,390.5938" style="stroke:#181818;stroke-width:1.0;"/><line style="stroke:#181818;stroke-width:1.0;stroke-dasharray:2.0,2.0;" x1="588" x2="1020.5" y1="390.5938" y2="390.5938"/><text fill="#000000" font-family="sans-serif" font-size="13" lengthAdjust="spacing" textLength="41" x="600" y="385.8516">exams</text><polygon fill="#181818" points="1212,415.9043,1222,419.9043,1212,423.9043,1216,419.9043" style="stroke:#181818;stroke-width:1.0;"/><line style="stroke:#181818;stroke-width:1.0;stroke-dasharray:2.0,2.0;" x1="367.5" x2="1218" y1="419.9043" y2="419.9043"/><text fill="#000000" font-family="sans-serif" font-size="13" lengthAdjust="spacing" textLength="46" x="374.5" y="415.1621">create()</text><path d="M1118,434.9043 L1192,434.9043 L1192,442.2148 L1182,452.2148 L1118,452.2148 L1118,434.9043 " fill="#EEEEEE" style="stroke:#000000;stroke-width:1.5;"/><rect fill="none" height="76.6211" style="stroke:#000000;stroke-width:1.5;" width="382" x="1118" y="434.9043"/><text fill="#000000" font-family="sans-serif" font-size="13" font-weight="bold" lengthAdjust="spacing" textLength="29" x="1133" y="448.4727">loop</text><text fill="#000000" font-family="sans-serif" font-size="11" font-weight="bold" lengthAdjust="spacing" textLength="141" x="1207" y="447.5391">[for each exam in exams]</text><polygon fill="#181818" points="1398,469.5254,1408,473.5254,1398,477.5254,1402,473.5254" style="stroke:#181818;stroke-width:1.0;"/><line style="stroke:#181818;stroke-width:1.0;stroke-dasharray:2.0,2.0;" x1="1234" x2="1404" y1="473.5254" y2="473.5254"/><text fill="#000000" font-family="sans-serif" font-size="13" lengthAdjust="spacing" textLength="46" x="1241" y="468.7832">create()</text><polygon fill="#181818" points="378.5,535.8359,368.5,539.8359,378.5,543.8359,374.5,539.8359" style="stroke:#181818;stroke-width:1.0;"/><line style="stroke:#181818;stroke-width:1.0;stroke-dasharray:2.0,2.0;" x1="372.5" x2="1228" y1="539.8359" y2="539.8359"/><text fill="#000000" font-family="sans-serif" font-size="13" lengthAdjust="spacing" textLength="85" x="384.5" y="535.0938">examDTOList</text><polygon fill="#181818" points="173.5,565.1465,163.5,569.1465,173.5,573.1465,169.5,569.1465" style="stroke:#181818;stroke-width:1.0;"/><line style="stroke:#181818;stroke-width:1.0;stroke-dasharray:2.0,2.0;" x1="167.5" x2="361.5" y1="569.1465" y2="569.1465"/><text fill="#000000" font-family="sans-serif" font-size="13" lengthAdjust="spacing" textLength="85" x="179.5" y="564.4043">examDTOList</text><polygon fill="#181818" points="45.5,594.457,35.5,598.457,45.5,602.457,41.5,598.457" style="stroke:#181818;stroke-width:1.0;"/><line style="stroke:#181818;stroke-width:1.0;stroke-dasharray:2.0,2.0;" x1="39.5" x2="156.5" y1="598.457" y2="598.457"/><text fill="#000000" font-family="sans-serif" font-size="13" lengthAdjust="spacing" textLength="33" x="51.5" y="593.7148">show</text><!--SRC=[VLHDJ-Cm4BtdL_X6qGf-m1wGK1Sa95P5mDwGLbvdqbXjxCYUXYw_dfdORMqtgK-MvysyDr-M2gqJRxYhmQ2GNlXmhQfUEjHAzvBUt-K67gth9Ee17lQo-_F4s9s-Z5fQWyvkj-0OhT1jyx3FscFcuD_03Lh1A6HG6VZ1SAYEjBr2RxqctVyP1yVtluuCcKyMF7ThW9w2nxpBh_VLRzdtGNyttYw26LOZHQnY6SNDpHsLIVmacKZEKX5Q8d3f11qoCO9BGnZbW6oBwz5qX8vr4_4OIozEhrial3jafC4BwSW0IFS1QZ5e-M5Um7agCHW5t0hOustg4ebgoAacX3LPaouA73tObVeNFEDmBM99he_GOm1kjKXEbkIXalOVIcr2QW9R48sJ7NnQjxdo7-P-X-sNwANQo3M87uU9FlKy8s1jhB6O7MApPcsrMI_jpddmgsPMV9P0EOEYE2NFgJug46KUIKFAm9DPd4Rvh5Mh9cQoY4Gp2IJRK6fFefzayzkiw8bWYPMRVJujORdA7SWqnlrBIRVMzfoneF3jA4feCo6EJsHWCbhHAQOpHbxbqfXaKfh1rAEYQeOsBXE4lu8_lwdwn3JFInI-aSBvql8UDeTsgBMVLGAbt-SR]--></g></svg>