<?xml version="1.0" encoding="us-ascii" standalone="no"?><svg xmlns="http://www.w3.org/2000/svg" xmlns:xlink="http://www.w3.org/1999/xlink" contentStyleType="text/css" height="685px" preserveAspectRatio="none" style="width:1253px;height:685px;background:#1B1B1B;" version="1.1" viewBox="0 0 1253 685" width="1253px" zoomAndPan="magnify"><defs/><g><rect fill="#1B1B1B" height="685" style="stroke:none;stroke-width:1.0;" width="1253" x="0" y="0"/><rect fill="#000000" height="466.1782" style="stroke:#E7E7E7;stroke-width:1.0;" width="10" x="150" y="117.7739"/><rect fill="#000000" height="30" style="stroke:#E7E7E7;stroke-width:1.0;" width="10" x="348" y="161.333"/><rect fill="#000000" height="317.3541" style="stroke:#E7E7E7;stroke-width:1.0;" width="10" x="348" y="234.892"/><rect fill="#000000" height="31.706" style="stroke:#E7E7E7;stroke-width:1.0;" width="10" x="593" y="266.598"/><rect fill="#000000" height="31.706" style="stroke:#E7E7E7;stroke-width:1.0;" width="10" x="776" y="330.01"/><rect fill="#000000" height="127.118" style="stroke:#E7E7E7;stroke-width:1.0;" width="10" x="978.5" y="393.4221"/><rect fill="#000000" height="30" style="stroke:#E7E7E7;stroke-width:1.0;" width="10" x="1160" y="451.8341"/><rect fill="none" height="81.412" style="stroke:#FFFFFF;stroke-width:1.5;" width="373" x="874.5" y="408.4221"/><line style="stroke:#E7E7E7;stroke-width:0.5;stroke-dasharray:5.0,5.0;" x1="34" x2="34" y1="84.0679" y2="601.9521"/><line style="stroke:#E7E7E7;stroke-width:0.5;stroke-dasharray:5.0,5.0;" x1="155" x2="155" y1="84.0679" y2="601.9521"/><line style="stroke:#E7E7E7;stroke-width:0.5;stroke-dasharray:5.0,5.0;" x1="353" x2="353" y1="84.0679" y2="601.9521"/><line style="stroke:#E7E7E7;stroke-width:0.5;stroke-dasharray:5.0,5.0;" x1="597.5" x2="597.5" y1="84.0679" y2="601.9521"/><line style="stroke:#E7E7E7;stroke-width:0.5;stroke-dasharray:5.0,5.0;" x1="780.5" x2="780.5" y1="84.0679" y2="601.9521"/><line style="stroke:#E7E7E7;stroke-width:0.5;stroke-dasharray:5.0,5.0;" x1="983.5" x2="983.5" y1="84.0679" y2="601.9521"/><line style="stroke:#E7E7E7;stroke-width:0.5;stroke-dasharray:5.0,5.0;" x1="1164.5" x2="1164.5" y1="84.0679" y2="601.9521"/><text fill="#FFFFFF" font-family="sans-serif" font-size="14" lengthAdjust="spacing" textLength="53" x="5" y="79.9659">Student</text><ellipse cx="34.5" cy="13.5" fill="#222222" rx="8" ry="8" style="stroke:#E7E7E7;stroke-width:0.5;"/><path d="M34.5,21.5 L34.5,48.5 M21.5,29.5 L47.5,29.5 M34.5,48.5 L21.5,63.5 M34.5,48.5 L47.5,63.5 " fill="none" style="stroke:#E7E7E7;stroke-width:0.5;"/><text fill="#FFFFFF" font-family="sans-serif" font-size="14" lengthAdjust="spacing" textLength="53" x="5" y="615.9181">Student</text><ellipse cx="34.5" cy="628.5201" fill="#222222" rx="8" ry="8" style="stroke:#E7E7E7;stroke-width:0.5;"/><path d="M34.5,636.5201 L34.5,663.5201 M21.5,644.5201 L47.5,644.5201 M34.5,663.5201 L21.5,678.5201 M34.5,663.5201 L47.5,678.5201 " fill="none" style="stroke:#E7E7E7;stroke-width:0.5;"/><rect fill="#222222" height="33.0679" rx="2.5" ry="2.5" style="stroke:#E7E7E7;stroke-width:0.5;" width="162" x="74" y="50"/><text fill="#FFFFFF" font-family="sans-serif" font-size="14" lengthAdjust="spacing" textLength="148" x="81" y="71.9659">TakeFormativeExamUI</text><rect fill="#222222" height="33.0679" rx="2.5" ry="2.5" style="stroke:#E7E7E7;stroke-width:0.5;" width="162" x="74" y="600.9521"/><text fill="#FFFFFF" font-family="sans-serif" font-size="14" lengthAdjust="spacing" textLength="148" x="81" y="622.9181">TakeFormativeExamUI</text><rect fill="#222222" height="33.0679" rx="2.5" ry="2.5" style="stroke:#E7E7E7;stroke-width:0.5;" width="214" x="246" y="50"/><text fill="#FFFFFF" font-family="sans-serif" font-size="14" lengthAdjust="spacing" textLength="200" x="253" y="71.9659">TakeFormativeExamController</text><rect fill="#222222" height="33.0679" rx="2.5" ry="2.5" style="stroke:#E7E7E7;stroke-width:0.5;" width="214" x="246" y="600.9521"/><text fill="#FFFFFF" font-family="sans-serif" font-size="14" lengthAdjust="spacing" textLength="200" x="253" y="622.9181">TakeFormativeExamController</text><rect fill="#222222" height="33.0679" rx="2.5" ry="2.5" style="stroke:#E7E7E7;stroke-width:0.5;" width="159" x="518.5" y="50"/><text fill="#FFFFFF" font-family="sans-serif" font-size="14" lengthAdjust="spacing" textLength="145" x="525.5" y="71.9659">EnrollmentRepository</text><rect fill="#222222" height="33.0679" rx="2.5" ry="2.5" style="stroke:#E7E7E7;stroke-width:0.5;" width="159" x="518.5" y="600.9521"/><text fill="#FFFFFF" font-family="sans-serif" font-size="14" lengthAdjust="spacing" textLength="145" x="525.5" y="622.9181">EnrollmentRepository</text><rect fill="#222222" height="33.0679" rx="2.5" ry="2.5" style="stroke:#E7E7E7;stroke-width:0.5;" width="187" x="687.5" y="50"/><text fill="#FFFFFF" font-family="sans-serif" font-size="14" lengthAdjust="spacing" textLength="173" x="694.5" y="71.9659">FormativeExamRepository</text><rect fill="#222222" height="33.0679" rx="2.5" ry="2.5" style="stroke:#E7E7E7;stroke-width:0.5;" width="187" x="687.5" y="600.9521"/><text fill="#FFFFFF" font-family="sans-serif" font-size="14" lengthAdjust="spacing" textLength="173" x="694.5" y="622.9181">FormativeExamRepository</text><rect fill="#222222" height="33.0679" rx="2.5" ry="2.5" style="stroke:#E7E7E7;stroke-width:0.5;" width="198" x="884.5" y="50"/><text fill="#FFFFFF" font-family="sans-serif" font-size="14" lengthAdjust="spacing" textLength="184" x="891.5" y="71.9659">FormativeExamDTOMapper</text><rect fill="#222222" height="33.0679" rx="2.5" ry="2.5" style="stroke:#E7E7E7;stroke-width:0.5;" width="198" x="884.5" y="600.9521"/><text fill="#FFFFFF" font-family="sans-serif" font-size="14" lengthAdjust="spacing" textLength="184" x="891.5" y="622.9181">FormativeExamDTOMapper</text><rect fill="#222222" height="33.0679" rx="2.5" ry="2.5" style="stroke:#E7E7E7;stroke-width:0.5;" width="145" x="1092.5" y="50"/><text fill="#FFFFFF" font-family="sans-serif" font-size="14" lengthAdjust="spacing" textLength="131" x="1099.5" y="71.9659">FormativeExamDTO</text><rect fill="#222222" height="33.0679" rx="2.5" ry="2.5" style="stroke:#E7E7E7;stroke-width:0.5;" width="145" x="1092.5" y="600.9521"/><text fill="#FFFFFF" font-family="sans-serif" font-size="14" lengthAdjust="spacing" textLength="131" x="1099.5" y="622.9181">FormativeExamDTO</text><rect fill="#000000" height="466.1782" style="stroke:#E7E7E7;stroke-width:1.0;" width="10" x="150" y="117.7739"/><rect fill="#000000" height="30" style="stroke:#E7E7E7;stroke-width:1.0;" width="10" x="348" y="161.333"/><rect fill="#000000" height="317.3541" style="stroke:#E7E7E7;stroke-width:1.0;" width="10" x="348" y="234.892"/><rect fill="#000000" height="31.706" style="stroke:#E7E7E7;stroke-width:1.0;" width="10" x="593" y="266.598"/><rect fill="#000000" height="31.706" style="stroke:#E7E7E7;stroke-width:1.0;" width="10" x="776" y="330.01"/><rect fill="#000000" height="127.118" style="stroke:#E7E7E7;stroke-width:1.0;" width="10" x="978.5" y="393.4221"/><rect fill="#000000" height="30" style="stroke:#E7E7E7;stroke-width:1.0;" width="10" x="1160" y="451.8341"/><polygon fill="#E7E7E7" points="138,113.7739,148,117.7739,138,121.7739,142,117.7739" style="stroke:#E7E7E7;stroke-width:1.0;"/><line style="stroke:#E7E7E7;stroke-width:1.0;stroke-dasharray:2.0,2.0;" x1="34.5" x2="144" y1="117.7739" y2="117.7739"/><text fill="#FFFFFF" font-family="sans-serif" font-size="13" lengthAdjust="spacing" textLength="32" x="41.5" y="111.9649">enter</text><polygon fill="#E7E7E7" points="336,157.333,346,161.333,336,165.333,340,161.333" style="stroke:#E7E7E7;stroke-width:1.0;"/><line style="stroke:#E7E7E7;stroke-width:1.0;stroke-dasharray:2.0,2.0;" x1="160" x2="342" y1="161.333" y2="161.333"/><text fill="#FFFFFF" font-family="sans-serif" font-size="13" lengthAdjust="spacing" textLength="45" x="167" y="155.524">create()</text><path d="M363,130.7739 L363,175.7739 L582,175.7739 L582,140.7739 L572,130.7739 L363,130.7739 " fill="#714137" style="stroke:#E7E7E7;stroke-width:0.5;"/><path d="M572,130.7739 L572,140.7739 L582,140.7739 L572,130.7739 " fill="#714137" style="stroke:#E7E7E7;stroke-width:0.5;"/><text fill="#FFFFFF" font-family="sans-serif" font-size="13" lengthAdjust="spacing" textLength="170" x="369" y="149.6709">repositories are retrieved via</text><text fill="#FFFFFF" font-family="sans-serif" font-size="13" lengthAdjust="spacing" textLength="198" x="369" y="167.377">PersistenceContext.repositories()</text><polygon fill="#E7E7E7" points="336,230.892,346,234.892,336,238.892,340,234.892" style="stroke:#E7E7E7;stroke-width:1.0;"/><line style="stroke:#E7E7E7;stroke-width:1.0;stroke-dasharray:2.0,2.0;" x1="160" x2="342" y1="234.892" y2="234.892"/><text fill="#FFFFFF" font-family="sans-serif" font-size="13" lengthAdjust="spacing" textLength="105" x="167" y="229.083">formativeExams()</text><polygon fill="#E7E7E7" points="581,262.598,591,266.598,581,270.598,585,266.598" style="stroke:#E7E7E7;stroke-width:1.0;"/><line style="stroke:#E7E7E7;stroke-width:1.0;stroke-dasharray:2.0,2.0;" x1="358" x2="587" y1="266.598" y2="266.598"/><text fill="#FFFFFF" font-family="sans-serif" font-size="13" lengthAdjust="spacing" textLength="216" x="365" y="260.789">ongoingCoursesOfStudent(student)</text><polygon fill="#E7E7E7" points="369,294.304,359,298.304,369,302.304,365,298.304" style="stroke:#E7E7E7;stroke-width:1.0;"/><line style="stroke:#E7E7E7;stroke-width:1.0;stroke-dasharray:2.0,2.0;" x1="363" x2="597" y1="298.304" y2="298.304"/><text fill="#FFFFFF" font-family="sans-serif" font-size="13" lengthAdjust="spacing" textLength="46" x="375" y="292.495">courses</text><polygon fill="#E7E7E7" points="764,326.01,774,330.01,764,334.01,768,330.01" style="stroke:#E7E7E7;stroke-width:1.0;"/><line style="stroke:#E7E7E7;stroke-width:1.0;stroke-dasharray:2.0,2.0;" x1="358" x2="770" y1="330.01" y2="330.01"/><text fill="#FFFFFF" font-family="sans-serif" font-size="13" lengthAdjust="spacing" textLength="213" x="365" y="324.201">formativeExamsOfCourses(courses)</text><polygon fill="#E7E7E7" points="369,357.716,359,361.716,369,365.716,365,361.716" style="stroke:#E7E7E7;stroke-width:1.0;"/><line style="stroke:#E7E7E7;stroke-width:1.0;stroke-dasharray:2.0,2.0;" x1="363" x2="780" y1="361.716" y2="361.716"/><text fill="#FFFFFF" font-family="sans-serif" font-size="13" lengthAdjust="spacing" textLength="39" x="375" y="355.907">exams</text><polygon fill="#E7E7E7" points="966.5,389.4221,976.5,393.4221,966.5,397.4221,970.5,393.4221" style="stroke:#E7E7E7;stroke-width:1.0;"/><line style="stroke:#E7E7E7;stroke-width:1.0;stroke-dasharray:2.0,2.0;" x1="358" x2="972.5" y1="393.4221" y2="393.4221"/><text fill="#FFFFFF" font-family="sans-serif" font-size="13" lengthAdjust="spacing" textLength="45" x="365" y="387.6131">create()</text><path d="M874.5,408.4221 L947.5,408.4221 L947.5,418.1281 L937.5,428.1281 L874.5,428.1281 L874.5,408.4221 " fill="#555555" style="stroke:#FFFFFF;stroke-width:1.5;"/><rect fill="none" height="81.412" style="stroke:#FFFFFF;stroke-width:1.5;" width="373" x="874.5" y="408.4221"/><text fill="#FFFFFF" font-family="sans-serif" font-size="13" font-weight="bold" lengthAdjust="spacing" textLength="28" x="889.5" y="423.3191">loop</text><text fill="#FFFFFF" font-family="sans-serif" font-size="11" font-weight="bold" lengthAdjust="spacing" textLength="140" x="962.5" y="422.181">[for each exam in exams]</text><polygon fill="#E7E7E7" points="1148,447.8341,1158,451.8341,1148,455.8341,1152,451.8341" style="stroke:#E7E7E7;stroke-width:1.0;"/><line style="stroke:#E7E7E7;stroke-width:1.0;stroke-dasharray:2.0,2.0;" x1="988.5" x2="1154" y1="451.8341" y2="451.8341"/><text fill="#FFFFFF" font-family="sans-serif" font-size="13" lengthAdjust="spacing" textLength="45" x="995.5" y="446.0251">create()</text><polygon fill="#E7E7E7" points="369,516.5401,359,520.5401,369,524.5401,365,520.5401" style="stroke:#E7E7E7;stroke-width:1.0;"/><line style="stroke:#E7E7E7;stroke-width:1.0;stroke-dasharray:2.0,2.0;" x1="363" x2="982.5" y1="520.5401" y2="520.5401"/><text fill="#FFFFFF" font-family="sans-serif" font-size="13" lengthAdjust="spacing" textLength="80" x="375" y="514.7311">examDTOList</text><polygon fill="#E7E7E7" points="171,548.2461,161,552.2461,171,556.2461,167,552.2461" style="stroke:#E7E7E7;stroke-width:1.0;"/><line style="stroke:#E7E7E7;stroke-width:1.0;stroke-dasharray:2.0,2.0;" x1="165" x2="352" y1="552.2461" y2="552.2461"/><text fill="#FFFFFF" font-family="sans-serif" font-size="13" lengthAdjust="spacing" textLength="80" x="177" y="546.4371">examDTOList</text><polygon fill="#E7E7E7" points="45.5,579.9521,35.5,583.9521,45.5,587.9521,41.5,583.9521" style="stroke:#E7E7E7;stroke-width:1.0;"/><line style="stroke:#E7E7E7;stroke-width:1.0;stroke-dasharray:2.0,2.0;" x1="39.5" x2="154" y1="583.9521" y2="583.9521"/><text fill="#FFFFFF" font-family="sans-serif" font-size="13" lengthAdjust="spacing" textLength="32" x="51.5" y="578.1431">show</text><!--SRC=[VLF1JiCm3BttAtBS3kC3Tk0oXeG46e9nGq9HwsuHRL8btXX_ZzrcnKsxvXJPptxFpelEqNdrZgS2B2eTLEYkMTPeZoOtZQRuNd_3e_ErHdE6xKNN7q-CFPbvrCPPzAwgm3CwHryDssujPskYUuF61KDIVXa9VVpBKs9GCo0ObfL0eQxYTid3VlUYcwQJLBUtMJ332gIEMToCMgtkQNAr9fb8nJedj4RWRIWwb684JqkOt0Fb5iisrKFRLQXuhAE8DuSZ4jvV9p8GbFQK0AJx6GfrDlhJle8F9Y3O77YxSC4xMHA92XXIJGWhvPnXLc1RmQN9kr0NPm_EsCF6dNo0i2kZaHPnLyk-HzyvVLibJjfVxh5ZwE5YmhJZMFU_CKQ3xygeVH4P9YGBNqcregiGoi59cTAT8uMT4LE_35H4hqe5bNCDpwE8vTWoAsCJ1TSJ6PYCx3p5D69aswT9CL2Q1bkqYh8Rj691zA-UoSLJQufZZbVKVRcaUCxer_-wLk7eVZ81fP_w1m00]--></g></svg>