<?xml version="1.0" encoding="us-ascii" standalone="no"?><svg xmlns="http://www.w3.org/2000/svg" xmlns:xlink="http://www.w3.org/1999/xlink" contentStyleType="text/css" height="715px" preserveAspectRatio="none" style="width:1669px;height:715px;background:#1B1B1B;" version="1.1" viewBox="0 0 1669 715" width="1669px" zoomAndPan="magnify"><defs/><g><rect fill="#1B1B1B" height="715" style="stroke:none;stroke-width:1.0;" width="1669" x="0" y="0"/><rect fill="#000000" height="495.8842" style="stroke:#E7E7E7;stroke-width:1.0;" width="10" x="150" y="117.7739"/><rect fill="#000000" height="432.4722" style="stroke:#E7E7E7;stroke-width:1.0;" width="10" x="394" y="149.4799"/><rect fill="#000000" height="31.706" style="stroke:#E7E7E7;stroke-width:1.0;" width="10" x="604.5" y="181.186"/><rect fill="#000000" height="31.706" style="stroke:#E7E7E7;stroke-width:1.0;" width="10" x="781" y="244.598"/><rect fill="#000000" height="93.412" style="stroke:#E7E7E7;stroke-width:1.0;" width="10" x="928.5" y="308.01"/><rect fill="#000000" height="61.706" style="stroke:#E7E7E7;stroke-width:1.0;" width="10" x="1117.5" y="339.716"/><rect fill="#000000" height="30" style="stroke:#E7E7E7;stroke-width:1.0;" width="10" x="1317.5" y="371.4221"/><rect fill="#000000" height="105.265" style="stroke:#E7E7E7;stroke-width:1.0;" width="10" x="1317.5" y="444.9811"/><rect fill="#000000" height="30" style="stroke:#E7E7E7;stroke-width:1.0;" width="10" x="1549.5" y="488.5401"/><line style="stroke:#E7E7E7;stroke-width:0.5;stroke-dasharray:5.0,5.0;" x1="34" x2="34" y1="84.0679" y2="631.6582"/><line style="stroke:#E7E7E7;stroke-width:0.5;stroke-dasharray:5.0,5.0;" x1="155" x2="155" y1="84.0679" y2="631.6582"/><line style="stroke:#E7E7E7;stroke-width:0.5;stroke-dasharray:5.0,5.0;" x1="399" x2="399" y1="84.0679" y2="631.6582"/><line style="stroke:#E7E7E7;stroke-width:0.5;stroke-dasharray:5.0,5.0;" x1="609" x2="609" y1="84.0679" y2="631.6582"/><line style="stroke:#E7E7E7;stroke-width:0.5;stroke-dasharray:5.0,5.0;" x1="786" x2="786" y1="84.0679" y2="631.6582"/><line style="stroke:#E7E7E7;stroke-width:0.5;stroke-dasharray:5.0,5.0;" x1="933" x2="933" y1="84.0679" y2="631.6582"/><line style="stroke:#E7E7E7;stroke-width:0.5;stroke-dasharray:5.0,5.0;" x1="1122.5" x2="1122.5" y1="84.0679" y2="631.6582"/><line style="stroke:#E7E7E7;stroke-width:0.5;stroke-dasharray:5.0,5.0;" x1="1322.5" x2="1322.5" y1="84.0679" y2="631.6582"/><line style="stroke:#E7E7E7;stroke-width:0.5;stroke-dasharray:5.0,5.0;" x1="1554.5" x2="1554.5" y1="84.0679" y2="631.6582"/><text fill="#FFFFFF" font-family="sans-serif" font-size="14" lengthAdjust="spacing" textLength="53" x="5" y="79.9659">Student</text><ellipse cx="34.5" cy="13.5" fill="#222222" rx="8" ry="8" style="stroke:#E7E7E7;stroke-width:0.5;"/><path d="M34.5,21.5 L34.5,48.5 M21.5,29.5 L47.5,29.5 M34.5,48.5 L21.5,63.5 M34.5,48.5 L47.5,63.5 " fill="none" style="stroke:#E7E7E7;stroke-width:0.5;"/><text fill="#FFFFFF" font-family="sans-serif" font-size="14" lengthAdjust="spacing" textLength="53" x="5" y="645.6241">Student</text><ellipse cx="34.5" cy="658.2261" fill="#222222" rx="8" ry="8" style="stroke:#E7E7E7;stroke-width:0.5;"/><path d="M34.5,666.2261 L34.5,693.2261 M21.5,674.2261 L47.5,674.2261 M34.5,693.2261 L21.5,708.2261 M34.5,693.2261 L47.5,708.2261 " fill="none" style="stroke:#E7E7E7;stroke-width:0.5;"/><rect fill="#222222" height="33.0679" rx="2.5" ry="2.5" style="stroke:#E7E7E7;stroke-width:0.5;" width="162" x="74" y="50"/><text fill="#FFFFFF" font-family="sans-serif" font-size="14" lengthAdjust="spacing" textLength="148" x="81" y="71.9659">TakeFormativeExamUI</text><rect fill="#222222" height="33.0679" rx="2.5" ry="2.5" style="stroke:#E7E7E7;stroke-width:0.5;" width="162" x="74" y="630.6582"/><text fill="#FFFFFF" font-family="sans-serif" font-size="14" lengthAdjust="spacing" textLength="148" x="81" y="652.6241">TakeFormativeExamUI</text><rect fill="#222222" height="33.0679" rx="2.5" ry="2.5" style="stroke:#E7E7E7;stroke-width:0.5;" width="214" x="292" y="50"/><text fill="#FFFFFF" font-family="sans-serif" font-size="14" lengthAdjust="spacing" textLength="200" x="299" y="71.9659">TakeFormativeExamController</text><rect fill="#222222" height="33.0679" rx="2.5" ry="2.5" style="stroke:#E7E7E7;stroke-width:0.5;" width="214" x="292" y="630.6582"/><text fill="#FFFFFF" font-family="sans-serif" font-size="14" lengthAdjust="spacing" textLength="200" x="299" y="652.6241">TakeFormativeExamController</text><rect fill="#222222" height="33.0679" rx="2.5" ry="2.5" style="stroke:#E7E7E7;stroke-width:0.5;" width="187" x="516" y="50"/><text fill="#FFFFFF" font-family="sans-serif" font-size="14" lengthAdjust="spacing" textLength="173" x="523" y="71.9659">FormativeExamRepository</text><rect fill="#222222" height="33.0679" rx="2.5" ry="2.5" style="stroke:#E7E7E7;stroke-width:0.5;" width="187" x="516" y="630.6582"/><text fill="#FFFFFF" font-family="sans-serif" font-size="14" lengthAdjust="spacing" textLength="173" x="523" y="652.6241">FormativeExamRepository</text><rect fill="#222222" height="33.0679" rx="2.5" ry="2.5" style="stroke:#E7E7E7;stroke-width:0.5;" width="146" x="713" y="50"/><text fill="#FFFFFF" font-family="sans-serif" font-size="14" lengthAdjust="spacing" textLength="132" x="720" y="71.9659">QuestionRepository</text><rect fill="#222222" height="33.0679" rx="2.5" ry="2.5" style="stroke:#E7E7E7;stroke-width:0.5;" width="146" x="713" y="630.6582"/><text fill="#FFFFFF" font-family="sans-serif" font-size="14" lengthAdjust="spacing" textLength="132" x="720" y="652.6241">QuestionRepository</text><rect fill="#222222" height="33.0679" rx="2.5" ry="2.5" style="stroke:#E7E7E7;stroke-width:0.5;" width="129" x="869" y="50"/><text fill="#FFFFFF" font-family="sans-serif" font-size="14" lengthAdjust="spacing" textLength="115" x="876" y="71.9659">GrammarContext</text><rect fill="#222222" height="33.0679" rx="2.5" ry="2.5" style="stroke:#E7E7E7;stroke-width:0.5;" width="129" x="869" y="630.6582"/><text fill="#FFFFFF" font-family="sans-serif" font-size="14" lengthAdjust="spacing" textLength="115" x="876" y="652.6241">GrammarContext</text><rect fill="#222222" height="33.0679" rx="2.5" ry="2.5" style="stroke:#E7E7E7;stroke-width:0.5;" width="154" x="1045.5" y="50"/><text fill="#FFFFFF" font-family="sans-serif" font-size="14" lengthAdjust="spacing" textLength="140" x="1052.5" y="71.9659">GrammarToolFactory</text><rect fill="#222222" height="33.0679" rx="2.5" ry="2.5" style="stroke:#E7E7E7;stroke-width:0.5;" width="154" x="1045.5" y="630.6582"/><text fill="#FFFFFF" font-family="sans-serif" font-size="14" lengthAdjust="spacing" textLength="140" x="1052.5" y="652.6241">GrammarToolFactory</text><rect fill="#222222" height="33.0679" rx="2.5" ry="2.5" style="stroke:#E7E7E7;stroke-width:0.5;" width="226" x="1209.5" y="50"/><text fill="#FFFFFF" font-family="sans-serif" font-size="14" lengthAdjust="spacing" textLength="212" x="1216.5" y="71.9659">GenerateFormativeExamService</text><rect fill="#222222" height="33.0679" rx="2.5" ry="2.5" style="stroke:#E7E7E7;stroke-width:0.5;" width="226" x="1209.5" y="630.6582"/><text fill="#FFFFFF" font-family="sans-serif" font-size="14" lengthAdjust="spacing" textLength="212" x="1216.5" y="652.6241">GenerateFormativeExamService</text><rect fill="#222222" height="33.0679" rx="2.5" ry="2.5" style="stroke:#E7E7E7;stroke-width:0.5;" width="218" x="1445.5" y="50"/><text fill="#FFFFFF" font-family="sans-serif" font-size="14" lengthAdjust="spacing" textLength="204" x="1452.5" y="71.9659">FormativeExamToBeTakenDTO</text><rect fill="#222222" height="33.0679" rx="2.5" ry="2.5" style="stroke:#E7E7E7;stroke-width:0.5;" width="218" x="1445.5" y="630.6582"/><text fill="#FFFFFF" font-family="sans-serif" font-size="14" lengthAdjust="spacing" textLength="204" x="1452.5" y="652.6241">FormativeExamToBeTakenDTO</text><rect fill="#000000" height="495.8842" style="stroke:#E7E7E7;stroke-width:1.0;" width="10" x="150" y="117.7739"/><rect fill="#000000" height="432.4722" style="stroke:#E7E7E7;stroke-width:1.0;" width="10" x="394" y="149.4799"/><rect fill="#000000" height="31.706" style="stroke:#E7E7E7;stroke-width:1.0;" width="10" x="604.5" y="181.186"/><rect fill="#000000" height="31.706" style="stroke:#E7E7E7;stroke-width:1.0;" width="10" x="781" y="244.598"/><rect fill="#000000" height="93.412" style="stroke:#E7E7E7;stroke-width:1.0;" width="10" x="928.5" y="308.01"/><rect fill="#000000" height="61.706" style="stroke:#E7E7E7;stroke-width:1.0;" width="10" x="1117.5" y="339.716"/><rect fill="#000000" height="30" style="stroke:#E7E7E7;stroke-width:1.0;" width="10" x="1317.5" y="371.4221"/><rect fill="#000000" height="105.265" style="stroke:#E7E7E7;stroke-width:1.0;" width="10" x="1317.5" y="444.9811"/><rect fill="#000000" height="30" style="stroke:#E7E7E7;stroke-width:1.0;" width="10" x="1549.5" y="488.5401"/><polygon fill="#E7E7E7" points="138,113.7739,148,117.7739,138,121.7739,142,117.7739" style="stroke:#E7E7E7;stroke-width:1.0;"/><line style="stroke:#E7E7E7;stroke-width:1.0;stroke-dasharray:2.0,2.0;" x1="34.5" x2="144" y1="117.7739" y2="117.7739"/><text fill="#FFFFFF" font-family="sans-serif" font-size="13" lengthAdjust="spacing" textLength="85" x="41.5" y="111.9649">chooses exam</text><polygon fill="#E7E7E7" points="382,145.4799,392,149.4799,382,153.4799,386,149.4799" style="stroke:#E7E7E7;stroke-width:1.0;"/><line style="stroke:#E7E7E7;stroke-width:1.0;stroke-dasharray:2.0,2.0;" x1="160" x2="388" y1="149.4799" y2="149.4799"/><text fill="#FFFFFF" font-family="sans-serif" font-size="13" lengthAdjust="spacing" textLength="215" x="167" y="143.6709">generateFormativeExam(examDTO)</text><polygon fill="#E7E7E7" points="592.5,177.186,602.5,181.186,592.5,185.186,596.5,181.186" style="stroke:#E7E7E7;stroke-width:1.0;"/><line style="stroke:#E7E7E7;stroke-width:1.0;stroke-dasharray:2.0,2.0;" x1="404" x2="598.5" y1="181.186" y2="181.186"/><text fill="#FFFFFF" font-family="sans-serif" font-size="13" lengthAdjust="spacing" textLength="67" x="411" y="175.377">ofIdentity()</text><polygon fill="#E7E7E7" points="415,208.892,405,212.892,415,216.892,411,212.892" style="stroke:#E7E7E7;stroke-width:1.0;"/><line style="stroke:#E7E7E7;stroke-width:1.0;stroke-dasharray:2.0,2.0;" x1="409" x2="608.5" y1="212.892" y2="212.892"/><text fill="#FFFFFF" font-family="sans-serif" font-size="13" lengthAdjust="spacing" textLength="33" x="421" y="207.083">exam</text><polygon fill="#E7E7E7" points="769,240.598,779,244.598,769,248.598,773,244.598" style="stroke:#E7E7E7;stroke-width:1.0;"/><line style="stroke:#E7E7E7;stroke-width:1.0;stroke-dasharray:2.0,2.0;" x1="404" x2="775" y1="244.598" y2="244.598"/><text fill="#FFFFFF" font-family="sans-serif" font-size="13" lengthAdjust="spacing" textLength="199" x="411" y="238.789">questionsOfCourse(exam.course)</text><polygon fill="#E7E7E7" points="415,272.304,405,276.304,415,280.304,411,276.304" style="stroke:#E7E7E7;stroke-width:1.0;"/><line style="stroke:#E7E7E7;stroke-width:1.0;stroke-dasharray:2.0,2.0;" x1="409" x2="785" y1="276.304" y2="276.304"/><text fill="#FFFFFF" font-family="sans-serif" font-size="13" lengthAdjust="spacing" textLength="59" x="421" y="270.495">questions</text><polygon fill="#E7E7E7" points="916.5,304.01,926.5,308.01,916.5,312.01,920.5,308.01" style="stroke:#E7E7E7;stroke-width:1.0;"/><line style="stroke:#E7E7E7;stroke-width:1.0;stroke-dasharray:2.0,2.0;" x1="404" x2="922.5" y1="308.01" y2="308.01"/><text fill="#FFFFFF" font-family="sans-serif" font-size="13" lengthAdjust="spacing" textLength="96" x="411" y="302.201">grammarTools()</text><polygon fill="#E7E7E7" points="1105.5,335.716,1115.5,339.716,1105.5,343.716,1109.5,339.716" style="stroke:#E7E7E7;stroke-width:1.0;"/><line style="stroke:#E7E7E7;stroke-width:1.0;stroke-dasharray:2.0,2.0;" x1="938.5" x2="1111.5" y1="339.716" y2="339.716"/><text fill="#FFFFFF" font-family="sans-serif" font-size="13" lengthAdjust="spacing" textLength="160" x="945.5" y="333.907">formativeExamGenerator()</text><polygon fill="#E7E7E7" points="1305.5,367.4221,1315.5,371.4221,1305.5,375.4221,1309.5,371.4221" style="stroke:#E7E7E7;stroke-width:1.0;"/><line style="stroke:#E7E7E7;stroke-width:1.0;stroke-dasharray:2.0,2.0;" x1="1127.5" x2="1311.5" y1="371.4221" y2="371.4221"/><text fill="#FFFFFF" font-family="sans-serif" font-size="13" lengthAdjust="spacing" textLength="45" x="1134.5" y="365.6131">create()</text><polygon fill="#E7E7E7" points="1305.5,440.9811,1315.5,444.9811,1305.5,448.9811,1309.5,444.9811" style="stroke:#E7E7E7;stroke-width:1.0;"/><line style="stroke:#E7E7E7;stroke-width:1.0;stroke-dasharray:2.0,2.0;" x1="404" x2="1311.5" y1="444.9811" y2="444.9811"/><text fill="#FFFFFF" font-family="sans-serif" font-size="13" lengthAdjust="spacing" textLength="160" x="411" y="439.1721">generate(exam, questions)</text><path d="M1332,414.4221 L1332,459.4221 L1492,459.4221 L1492,424.4221 L1482,414.4221 L1332,414.4221 " fill="#714137" style="stroke:#E7E7E7;stroke-width:0.5;"/><path d="M1482,414.4221 L1482,424.4221 L1492,424.4221 L1482,414.4221 " fill="#714137" style="stroke:#E7E7E7;stroke-width:0.5;"/><text fill="#FFFFFF" font-family="sans-serif" font-size="13" lengthAdjust="spacing" textLength="136" x="1338" y="433.3191">exam generation done</text><text fill="#FFFFFF" font-family="sans-serif" font-size="13" lengthAdjust="spacing" textLength="129" x="1338" y="451.0251">by an external service</text><polygon fill="#E7E7E7" points="1537.5,484.5401,1547.5,488.5401,1537.5,492.5401,1541.5,488.5401" style="stroke:#E7E7E7;stroke-width:1.0;"/><line style="stroke:#E7E7E7;stroke-width:1.0;stroke-dasharray:2.0,2.0;" x1="1327.5" x2="1543.5" y1="488.5401" y2="488.5401"/><text fill="#FFFFFF" font-family="sans-serif" font-size="13" lengthAdjust="spacing" textLength="45" x="1334.5" y="482.7311">create()</text><polygon fill="#E7E7E7" points="415,546.2461,405,550.2461,415,554.2461,411,550.2461" style="stroke:#E7E7E7;stroke-width:1.0;"/><line style="stroke:#E7E7E7;stroke-width:1.0;stroke-dasharray:2.0,2.0;" x1="409" x2="1321.5" y1="550.2461" y2="550.2461"/><text fill="#FFFFFF" font-family="sans-serif" font-size="13" lengthAdjust="spacing" textLength="125" x="421" y="544.4371">examToBeTakenDTO</text><polygon fill="#E7E7E7" points="171,577.9521,161,581.9521,171,585.9521,167,581.9521" style="stroke:#E7E7E7;stroke-width:1.0;"/><line style="stroke:#E7E7E7;stroke-width:1.0;stroke-dasharray:2.0,2.0;" x1="165" x2="398" y1="581.9521" y2="581.9521"/><text fill="#FFFFFF" font-family="sans-serif" font-size="13" lengthAdjust="spacing" textLength="125" x="177" y="576.1431">examToBeTakenDTO</text><polygon fill="#E7E7E7" points="45.5,609.6582,35.5,613.6582,45.5,617.6582,41.5,613.6582" style="stroke:#E7E7E7;stroke-width:1.0;"/><line style="stroke:#E7E7E7;stroke-width:1.0;stroke-dasharray:2.0,2.0;" x1="39.5" x2="154" y1="613.6582" y2="613.6582"/><text fill="#FFFFFF" font-family="sans-serif" font-size="13" lengthAdjust="spacing" textLength="78" x="51.5" y="607.8492">display exam</text><!--SRC=[VLHDRy8m3BtpAt84QUm7SDXXR4oSq4PtcpHbhIdHsgGaQGN_VdRwGTAcowdWv-Vd5piyjKgpewqpa9PnmqpxkLXKN5kHYehZ_md_XPtI9RUYWTShBp_tXAt5_wYjabQheW1DwDJg8gGDm1zGAIDGpOt06dy5sFSQZ1LAXh3BjmC6o3VDov9hAWvNsrQ-nX29KiMEfprN7g422PhRiAiZw4QauCngqlc64lKCP8byIGu4pYooT_QozVe9xMCRbfwLCc0OOCO2nOW6wv6p30yY24ZE8JIFgLbI8bPOkOI1m9dDkkFoYOWwH29rsfC8OM_BrG0QKfqDp3ikozFXfFR13CB4QT7sZZ3lqbsXEPosgjO6dFR7r7r7X7INwqlfk3mn0sbCKJyU4qqu4MJeVGvCp0cQ6xywPL5stZLqyY-YcnMbFQQ0BPzqGoSV6i9XeddGWE0HHy13GpSEUZsFmrueLE05gD6fIQsWVkhSPJtS_OxuDIuj5Ks5oC-s7PgU2zDPfYImB_c3goSnQ45BNZ3JxbR0GZ983kxFd3-30jgncUR7ePxM6sf_OnSpravjSciSJGySfiVFs-d-8TYmJ9YguBTshRmKV0F-0000]--></g></svg>