<?xml version="1.0" encoding="us-ascii" standalone="no"?><svg xmlns="http://www.w3.org/2000/svg" xmlns:xlink="http://www.w3.org/1999/xlink" contentStyleType="text/css" height="674px" preserveAspectRatio="none" style="width:1642px;height:674px;background:#FFFFFF;" version="1.1" viewBox="0 0 1642 674" width="1642px" zoomAndPan="magnify"><defs/><g><rect fill="#FFFFFF" height="462.3477" style="stroke:#181818;stroke-width:1.0;" width="10" x="152.5" y="112.7988"/><rect fill="#FFFFFF" height="403.7266" style="stroke:#181818;stroke-width:1.0;" width="10" x="401.5" y="142.1094"/><rect fill="#FFFFFF" height="29.3105" style="stroke:#181818;stroke-width:1.0;" width="10" x="619.5" y="171.4199"/><rect fill="#FFFFFF" height="29.3105" style="stroke:#181818;stroke-width:1.0;" width="10" x="800.5" y="230.041"/><rect fill="#FFFFFF" height="88.6211" style="stroke:#181818;stroke-width:1.0;" width="10" x="951.5" y="288.6621"/><rect fill="#FFFFFF" height="59.3105" style="stroke:#181818;stroke-width:1.0;" width="10" x="1143.5" y="317.9727"/><rect fill="#FFFFFF" height="30" style="stroke:#181818;stroke-width:1.0;" width="10" x="1348" y="347.2832"/><rect fill="#FFFFFF" height="99.2764" style="stroke:#181818;stroke-width:1.0;" width="10" x="1348" y="417.249"/><rect fill="#FFFFFF" height="30" style="stroke:#181818;stroke-width:1.0;" width="10" x="1552" y="457.2148"/><line style="stroke:#181818;stroke-width:0.5;stroke-dasharray:5.0,5.0;" x1="34" x2="34" y1="81.4883" y2="593.1465"/><line style="stroke:#181818;stroke-width:0.5;stroke-dasharray:5.0,5.0;" x1="157" x2="157" y1="81.4883" y2="593.1465"/><line style="stroke:#181818;stroke-width:0.5;stroke-dasharray:5.0,5.0;" x1="406" x2="406" y1="81.4883" y2="593.1465"/><line style="stroke:#181818;stroke-width:0.5;stroke-dasharray:5.0,5.0;" x1="624" x2="624" y1="81.4883" y2="593.1465"/><line style="stroke:#181818;stroke-width:0.5;stroke-dasharray:5.0,5.0;" x1="805" x2="805" y1="81.4883" y2="593.1465"/><line style="stroke:#181818;stroke-width:0.5;stroke-dasharray:5.0,5.0;" x1="956" x2="956" y1="81.4883" y2="593.1465"/><line style="stroke:#181818;stroke-width:0.5;stroke-dasharray:5.0,5.0;" x1="1148" x2="1148" y1="81.4883" y2="593.1465"/><line style="stroke:#181818;stroke-width:0.5;stroke-dasharray:5.0,5.0;" x1="1353" x2="1353" y1="81.4883" y2="593.1465"/><line style="stroke:#181818;stroke-width:0.5;stroke-dasharray:5.0,5.0;" x1="1557" x2="1557" y1="81.4883" y2="593.1465"/><text fill="#000000" font-family="sans-serif" font-size="14" lengthAdjust="spacing" textLength="53" x="5" y="78.5352">Student</text><ellipse cx="34.5" cy="13.5" fill="#E2E2F0" rx="8" ry="8" style="stroke:#181818;stroke-width:0.5;"/><path d="M34.5,21.5 L34.5,48.5 M21.5,29.5 L47.5,29.5 M34.5,48.5 L21.5,63.5 M34.5,48.5 L47.5,63.5 " fill="none" style="stroke:#181818;stroke-width:0.5;"/><text fill="#000000" font-family="sans-serif" font-size="14" lengthAdjust="spacing" textLength="53" x="5" y="605.6816">Student</text><ellipse cx="34.5" cy="617.1348" fill="#E2E2F0" rx="8" ry="8" style="stroke:#181818;stroke-width:0.5;"/><path d="M34.5,625.1348 L34.5,652.1348 M21.5,633.1348 L47.5,633.1348 M34.5,652.1348 L21.5,667.1348 M34.5,652.1348 L47.5,667.1348 " fill="none" style="stroke:#181818;stroke-width:0.5;"/><rect fill="#E2E2F0" height="30.4883" rx="2.5" ry="2.5" style="stroke:#181818;stroke-width:0.5;" width="167" x="74" y="50"/><text fill="#000000" font-family="sans-serif" font-size="14" lengthAdjust="spacing" textLength="153" x="81" y="70.5352">TakeFormativeExamUI</text><rect fill="#E2E2F0" height="30.4883" rx="2.5" ry="2.5" style="stroke:#181818;stroke-width:0.5;" width="167" x="74" y="592.1465"/><text fill="#000000" font-family="sans-serif" font-size="14" lengthAdjust="spacing" textLength="153" x="81" y="612.6816">TakeFormativeExamUI</text><rect fill="#E2E2F0" height="30.4883" rx="2.5" ry="2.5" style="stroke:#181818;stroke-width:0.5;" width="223" x="295" y="50"/><text fill="#000000" font-family="sans-serif" font-size="14" lengthAdjust="spacing" textLength="209" x="302" y="70.5352">TakeFormativeExamController</text><rect fill="#E2E2F0" height="30.4883" rx="2.5" ry="2.5" style="stroke:#181818;stroke-width:0.5;" width="223" x="295" y="592.1465"/><text fill="#000000" font-family="sans-serif" font-size="14" lengthAdjust="spacing" textLength="209" x="302" y="612.6816">TakeFormativeExamController</text><rect fill="#E2E2F0" height="30.4883" rx="2.5" ry="2.5" style="stroke:#181818;stroke-width:0.5;" width="193" x="528" y="50"/><text fill="#000000" font-family="sans-serif" font-size="14" lengthAdjust="spacing" textLength="179" x="535" y="70.5352">FormativeExamRepository</text><rect fill="#E2E2F0" height="30.4883" rx="2.5" ry="2.5" style="stroke:#181818;stroke-width:0.5;" width="193" x="528" y="592.1465"/><text fill="#000000" font-family="sans-serif" font-size="14" lengthAdjust="spacing" textLength="179" x="535" y="612.6816">FormativeExamRepository</text><rect fill="#E2E2F0" height="30.4883" rx="2.5" ry="2.5" style="stroke:#181818;stroke-width:0.5;" width="149" x="731" y="50"/><text fill="#000000" font-family="sans-serif" font-size="14" lengthAdjust="spacing" textLength="135" x="738" y="70.5352">QuestionRepository</text><rect fill="#E2E2F0" height="30.4883" rx="2.5" ry="2.5" style="stroke:#181818;stroke-width:0.5;" width="149" x="731" y="592.1465"/><text fill="#000000" font-family="sans-serif" font-size="14" lengthAdjust="spacing" textLength="135" x="738" y="612.6816">QuestionRepository</text><rect fill="#E2E2F0" height="30.4883" rx="2.5" ry="2.5" style="stroke:#181818;stroke-width:0.5;" width="133" x="890" y="50"/><text fill="#000000" font-family="sans-serif" font-size="14" lengthAdjust="spacing" textLength="119" x="897" y="70.5352">GrammarContext</text><rect fill="#E2E2F0" height="30.4883" rx="2.5" ry="2.5" style="stroke:#181818;stroke-width:0.5;" width="133" x="890" y="592.1465"/><text fill="#000000" font-family="sans-serif" font-size="14" lengthAdjust="spacing" textLength="119" x="897" y="612.6816">GrammarContext</text><rect fill="#E2E2F0" height="30.4883" rx="2.5" ry="2.5" style="stroke:#181818;stroke-width:0.5;" width="159" x="1069" y="50"/><text fill="#000000" font-family="sans-serif" font-size="14" lengthAdjust="spacing" textLength="145" x="1076" y="70.5352">GrammarToolFactory</text><rect fill="#E2E2F0" height="30.4883" rx="2.5" ry="2.5" style="stroke:#181818;stroke-width:0.5;" width="159" x="1069" y="592.1465"/><text fill="#000000" font-family="sans-serif" font-size="14" lengthAdjust="spacing" textLength="145" x="1076" y="612.6816">GrammarToolFactory</text><rect fill="#E2E2F0" height="30.4883" rx="2.5" ry="2.5" style="stroke:#181818;stroke-width:0.5;" width="230" x="1238" y="50"/><text fill="#000000" font-family="sans-serif" font-size="14" lengthAdjust="spacing" textLength="216" x="1245" y="70.5352">GenerateFormativeExamService</text><rect fill="#E2E2F0" height="30.4883" rx="2.5" ry="2.5" style="stroke:#181818;stroke-width:0.5;" width="230" x="1238" y="592.1465"/><text fill="#000000" font-family="sans-serif" font-size="14" lengthAdjust="spacing" textLength="216" x="1245" y="612.6816">GenerateFormativeExamService</text><rect fill="#E2E2F0" height="30.4883" rx="2.5" ry="2.5" style="stroke:#181818;stroke-width:0.5;" width="158" x="1478" y="50"/><text fill="#000000" font-family="sans-serif" font-size="14" lengthAdjust="spacing" textLength="144" x="1485" y="70.5352">ExamToBeTakenDTO</text><rect fill="#E2E2F0" height="30.4883" rx="2.5" ry="2.5" style="stroke:#181818;stroke-width:0.5;" width="158" x="1478" y="592.1465"/><text fill="#000000" font-family="sans-serif" font-size="14" lengthAdjust="spacing" textLength="144" x="1485" y="612.6816">ExamToBeTakenDTO</text><rect fill="#FFFFFF" height="462.3477" style="stroke:#181818;stroke-width:1.0;" width="10" x="152.5" y="112.7988"/><rect fill="#FFFFFF" height="403.7266" style="stroke:#181818;stroke-width:1.0;" width="10" x="401.5" y="142.1094"/><rect fill="#FFFFFF" height="29.3105" style="stroke:#181818;stroke-width:1.0;" width="10" x="619.5" y="171.4199"/><rect fill="#FFFFFF" height="29.3105" style="stroke:#181818;stroke-width:1.0;" width="10" x="800.5" y="230.041"/><rect fill="#FFFFFF" height="88.6211" style="stroke:#181818;stroke-width:1.0;" width="10" x="951.5" y="288.6621"/><rect fill="#FFFFFF" height="59.3105" style="stroke:#181818;stroke-width:1.0;" width="10" x="1143.5" y="317.9727"/><rect fill="#FFFFFF" height="30" style="stroke:#181818;stroke-width:1.0;" width="10" x="1348" y="347.2832"/><rect fill="#FFFFFF" height="99.2764" style="stroke:#181818;stroke-width:1.0;" width="10" x="1348" y="417.249"/><rect fill="#FFFFFF" height="30" style="stroke:#181818;stroke-width:1.0;" width="10" x="1552" y="457.2148"/><polygon fill="#181818" points="140.5,108.7988,150.5,112.7988,140.5,116.7988,144.5,112.7988" style="stroke:#181818;stroke-width:1.0;"/><line style="stroke:#181818;stroke-width:1.0;stroke-dasharray:2.0,2.0;" x1="34.5" x2="146.5" y1="112.7988" y2="112.7988"/><text fill="#000000" font-family="sans-serif" font-size="13" lengthAdjust="spacing" textLength="90" x="41.5" y="108.0566">chooses exam</text><polygon fill="#181818" points="389.5,138.1094,399.5,142.1094,389.5,146.1094,393.5,142.1094" style="stroke:#181818;stroke-width:1.0;"/><line style="stroke:#181818;stroke-width:1.0;stroke-dasharray:2.0,2.0;" x1="162.5" x2="395.5" y1="142.1094" y2="142.1094"/><text fill="#000000" font-family="sans-serif" font-size="13" lengthAdjust="spacing" textLength="220" x="169.5" y="137.3672">generateFormativeExam(examDTO)</text><polygon fill="#181818" points="607.5,167.4199,617.5,171.4199,607.5,175.4199,611.5,171.4199" style="stroke:#181818;stroke-width:1.0;"/><line style="stroke:#181818;stroke-width:1.0;stroke-dasharray:2.0,2.0;" x1="411.5" x2="613.5" y1="171.4199" y2="171.4199"/><text fill="#000000" font-family="sans-serif" font-size="13" lengthAdjust="spacing" textLength="69" x="418.5" y="166.6777">ofIdentity()</text><polygon fill="#181818" points="422.5,196.7305,412.5,200.7305,422.5,204.7305,418.5,200.7305" style="stroke:#181818;stroke-width:1.0;"/><line style="stroke:#181818;stroke-width:1.0;stroke-dasharray:2.0,2.0;" x1="416.5" x2="623.5" y1="200.7305" y2="200.7305"/><text fill="#000000" font-family="sans-serif" font-size="13" lengthAdjust="spacing" textLength="34" x="428.5" y="195.9883">exam</text><polygon fill="#181818" points="788.5,226.041,798.5,230.041,788.5,234.041,792.5,230.041" style="stroke:#181818;stroke-width:1.0;"/><line style="stroke:#181818;stroke-width:1.0;stroke-dasharray:2.0,2.0;" x1="411.5" x2="794.5" y1="230.041" y2="230.041"/><text fill="#000000" font-family="sans-serif" font-size="13" lengthAdjust="spacing" textLength="209" x="418.5" y="225.2988">questionsOfCourse(exam.course)</text><polygon fill="#181818" points="422.5,255.3516,412.5,259.3516,422.5,263.3516,418.5,259.3516" style="stroke:#181818;stroke-width:1.0;"/><line style="stroke:#181818;stroke-width:1.0;stroke-dasharray:2.0,2.0;" x1="416.5" x2="804.5" y1="259.3516" y2="259.3516"/><text fill="#000000" font-family="sans-serif" font-size="13" lengthAdjust="spacing" textLength="62" x="428.5" y="254.6094">questions</text><polygon fill="#181818" points="939.5,284.6621,949.5,288.6621,939.5,292.6621,943.5,288.6621" style="stroke:#181818;stroke-width:1.0;"/><line style="stroke:#181818;stroke-width:1.0;stroke-dasharray:2.0,2.0;" x1="411.5" x2="945.5" y1="288.6621" y2="288.6621"/><text fill="#000000" font-family="sans-serif" font-size="13" lengthAdjust="spacing" textLength="99" x="418.5" y="283.9199">grammarTools()</text><polygon fill="#181818" points="1131.5,313.9727,1141.5,317.9727,1131.5,321.9727,1135.5,317.9727" style="stroke:#181818;stroke-width:1.0;"/><line style="stroke:#181818;stroke-width:1.0;stroke-dasharray:2.0,2.0;" x1="961.5" x2="1137.5" y1="317.9727" y2="317.9727"/><text fill="#000000" font-family="sans-serif" font-size="13" lengthAdjust="spacing" textLength="163" x="968.5" y="313.2305">formativeExamGenerator()</text><polygon fill="#181818" points="1336,343.2832,1346,347.2832,1336,351.2832,1340,347.2832" style="stroke:#181818;stroke-width:1.0;"/><line style="stroke:#181818;stroke-width:1.0;stroke-dasharray:2.0,2.0;" x1="1153.5" x2="1342" y1="347.2832" y2="347.2832"/><text fill="#000000" font-family="sans-serif" font-size="13" lengthAdjust="spacing" textLength="46" x="1160.5" y="342.541">create()</text><polygon fill="#181818" points="1336,413.249,1346,417.249,1336,421.249,1340,417.249" style="stroke:#181818;stroke-width:1.0;"/><line style="stroke:#181818;stroke-width:1.0;stroke-dasharray:2.0,2.0;" x1="411.5" x2="1342" y1="417.249" y2="417.249"/><text fill="#000000" font-family="sans-serif" font-size="13" lengthAdjust="spacing" textLength="166" x="418.5" y="412.5068">generate(exam, questions)</text><path d="M1363,390.2832 L1363,430.2832 L1528,430.2832 L1528,400.2832 L1518,390.2832 L1363,390.2832 " fill="#FEFFDD" style="stroke:#181818;stroke-width:0.5;"/><path d="M1518,390.2832 L1518,400.2832 L1528,400.2832 L1518,390.2832 " fill="#FEFFDD" style="stroke:#181818;stroke-width:0.5;"/><text fill="#000000" font-family="sans-serif" font-size="13" lengthAdjust="spacing" textLength="140" x="1369" y="407.8516">exam generation done</text><text fill="#000000" font-family="sans-serif" font-size="13" lengthAdjust="spacing" textLength="137" x="1369" y="423.1621">by an external service</text><polygon fill="#181818" points="1540,453.2148,1550,457.2148,1540,461.2148,1544,457.2148" style="stroke:#181818;stroke-width:1.0;"/><line style="stroke:#181818;stroke-width:1.0;stroke-dasharray:2.0,2.0;" x1="1358" x2="1546" y1="457.2148" y2="457.2148"/><text fill="#000000" font-family="sans-serif" font-size="13" lengthAdjust="spacing" textLength="46" x="1365" y="452.4727">create()</text><polygon fill="#181818" points="422.5,512.5254,412.5,516.5254,422.5,520.5254,418.5,516.5254" style="stroke:#181818;stroke-width:1.0;"/><line style="stroke:#181818;stroke-width:1.0;stroke-dasharray:2.0,2.0;" x1="416.5" x2="1352" y1="516.5254" y2="516.5254"/><text fill="#000000" font-family="sans-serif" font-size="13" lengthAdjust="spacing" textLength="130" x="428.5" y="511.7832">examToBeTakenDTO</text><polygon fill="#181818" points="173.5,541.8359,163.5,545.8359,173.5,549.8359,169.5,545.8359" style="stroke:#181818;stroke-width:1.0;"/><line style="stroke:#181818;stroke-width:1.0;stroke-dasharray:2.0,2.0;" x1="167.5" x2="405.5" y1="545.8359" y2="545.8359"/><text fill="#000000" font-family="sans-serif" font-size="13" lengthAdjust="spacing" textLength="130" x="179.5" y="541.0938">examToBeTakenDTO</text><polygon fill="#181818" points="45.5,571.1465,35.5,575.1465,45.5,579.1465,41.5,575.1465" style="stroke:#181818;stroke-width:1.0;"/><line style="stroke:#181818;stroke-width:1.0;stroke-dasharray:2.0,2.0;" x1="39.5" x2="156.5" y1="575.1465" y2="575.1465"/><text fill="#000000" font-family="sans-serif" font-size="13" lengthAdjust="spacing" textLength="83" x="51.5" y="570.4043">display exam</text><!--SRC=[VLHDRy8m3BttL-G8qjWFuB33s9WueOtkDcdAMbEYjKb9qWh-_UpqWwGDowdWv-Vd5piyiqgpWsroa9PnmqptcIGrrrPaekRuVyf_OQjqnQreuVN2gyyTOHlnFsgZfDMgB44JEhEw36a3y0VKoWXKSoMmnby1zhq1OuMI8UpyxO01yatpgkAQYiF5TfKlCKIgLBdbsS1LHAX0WkOsxEe0kXKPEBFQBC1JE5NFG4x8btHFcDmYQUygMwsUq3MsPjb9AGE60MOag46qM8OCPNWGGK0o3A55JCI24h72qYMC1CvZrX-NJqJK61Afuuv427jTB4VGcEgwPzvnMPuE9tK8vX0cpejsLuDvv_xcpFwuKOqsuBG_Pkux8gI_KrzAp-M96KbZYeQfc6d2GI13RzTlOaxGkFZLAOkoYxwXetyH_OWexJ45RCMi6ph5s13E4Cs31WHFE08UchLfqEjv6lP2eG8lG8tEJUe43LFdBklXvdV4hsbfgMWgH76otT0CN9ZESYM1VSaVt3Y9GGjQyfAPRgK25f91Sd1_xlapAg0TkzFyD3JGUaFjRsnonzgvJMwDe-c1m_JcUJizF0HhbWjJb_pQhPMNWc_07m00]--></g></svg>