<?xml version="1.0" encoding="us-ascii" standalone="no"?><svg xmlns="http://www.w3.org/2000/svg" xmlns:xlink="http://www.w3.org/1999/xlink" contentStyleType="text/css" height="778px" preserveAspectRatio="none" style="width:1838px;height:778px;background:#1B1B1B;" version="1.1" viewBox="0 0 1838 778" width="1838px" zoomAndPan="magnify"><defs/><g><rect fill="#1B1B1B" height="778" style="stroke:none;stroke-width:1.0;" width="1838" x="0" y="0"/><rect fill="#000000" height="559.2963" style="stroke:#E7E7E7;stroke-width:1.0;" width="10" x="150" y="117.7739"/><rect fill="#000000" height="495.8842" style="stroke:#E7E7E7;stroke-width:1.0;" width="10" x="394" y="149.4799"/><rect fill="#000000" height="31.706" style="stroke:#E7E7E7;stroke-width:1.0;" width="10" x="604.5" y="181.186"/><rect fill="#000000" height="31.706" style="stroke:#E7E7E7;stroke-width:1.0;" width="10" x="787.5" y="244.598"/><rect fill="#000000" height="31.706" style="stroke:#E7E7E7;stroke-width:1.0;" width="10" x="950" y="308.01"/><rect fill="#000000" height="93.412" style="stroke:#E7E7E7;stroke-width:1.0;" width="10" x="1097.5" y="371.4221"/><rect fill="#000000" height="61.706" style="stroke:#E7E7E7;stroke-width:1.0;" width="10" x="1286.5" y="403.1281"/><rect fill="#000000" height="30" style="stroke:#E7E7E7;stroke-width:1.0;" width="10" x="1486.5" y="434.8341"/><rect fill="#000000" height="105.265" style="stroke:#E7E7E7;stroke-width:1.0;" width="10" x="1486.5" y="508.3931"/><rect fill="#000000" height="30" style="stroke:#E7E7E7;stroke-width:1.0;" width="10" x="1718.5" y="551.9521"/><line style="stroke:#E7E7E7;stroke-width:0.5;stroke-dasharray:5.0,5.0;" x1="34" x2="34" y1="84.0679" y2="695.0702"/><line style="stroke:#E7E7E7;stroke-width:0.5;stroke-dasharray:5.0,5.0;" x1="155" x2="155" y1="84.0679" y2="695.0702"/><line style="stroke:#E7E7E7;stroke-width:0.5;stroke-dasharray:5.0,5.0;" x1="399" x2="399" y1="84.0679" y2="695.0702"/><line style="stroke:#E7E7E7;stroke-width:0.5;stroke-dasharray:5.0,5.0;" x1="609" x2="609" y1="84.0679" y2="695.0702"/><line style="stroke:#E7E7E7;stroke-width:0.5;stroke-dasharray:5.0,5.0;" x1="792" x2="792" y1="84.0679" y2="695.0702"/><line style="stroke:#E7E7E7;stroke-width:0.5;stroke-dasharray:5.0,5.0;" x1="955" x2="955" y1="84.0679" y2="695.0702"/><line style="stroke:#E7E7E7;stroke-width:0.5;stroke-dasharray:5.0,5.0;" x1="1102" x2="1102" y1="84.0679" y2="695.0702"/><line style="stroke:#E7E7E7;stroke-width:0.5;stroke-dasharray:5.0,5.0;" x1="1291.5" x2="1291.5" y1="84.0679" y2="695.0702"/><line style="stroke:#E7E7E7;stroke-width:0.5;stroke-dasharray:5.0,5.0;" x1="1491.5" x2="1491.5" y1="84.0679" y2="695.0702"/><line style="stroke:#E7E7E7;stroke-width:0.5;stroke-dasharray:5.0,5.0;" x1="1723.5" x2="1723.5" y1="84.0679" y2="695.0702"/><text fill="#FFFFFF" font-family="sans-serif" font-size="14" lengthAdjust="spacing" textLength="53" x="5" y="79.9659">Student</text><ellipse cx="34.5" cy="13.5" fill="#222222" rx="8" ry="8" style="stroke:#E7E7E7;stroke-width:0.5;"/><path d="M34.5,21.5 L34.5,48.5 M21.5,29.5 L47.5,29.5 M34.5,48.5 L21.5,63.5 M34.5,48.5 L47.5,63.5 " fill="none" style="stroke:#E7E7E7;stroke-width:0.5;"/><text fill="#FFFFFF" font-family="sans-serif" font-size="14" lengthAdjust="spacing" textLength="53" x="5" y="709.0361">Student</text><ellipse cx="34.5" cy="721.6381" fill="#222222" rx="8" ry="8" style="stroke:#E7E7E7;stroke-width:0.5;"/><path d="M34.5,729.6381 L34.5,756.6381 M21.5,737.6381 L47.5,737.6381 M34.5,756.6381 L21.5,771.6381 M34.5,756.6381 L47.5,771.6381 " fill="none" style="stroke:#E7E7E7;stroke-width:0.5;"/><rect fill="#222222" height="33.0679" rx="2.5" ry="2.5" style="stroke:#E7E7E7;stroke-width:0.5;" width="162" x="74" y="50"/><text fill="#FFFFFF" font-family="sans-serif" font-size="14" lengthAdjust="spacing" textLength="148" x="81" y="71.9659">TakeFormativeExamUI</text><rect fill="#222222" height="33.0679" rx="2.5" ry="2.5" style="stroke:#E7E7E7;stroke-width:0.5;" width="162" x="74" y="694.0702"/><text fill="#FFFFFF" font-family="sans-serif" font-size="14" lengthAdjust="spacing" textLength="148" x="81" y="716.0361">TakeFormativeExamUI</text><rect fill="#222222" height="33.0679" rx="2.5" ry="2.5" style="stroke:#E7E7E7;stroke-width:0.5;" width="214" x="292" y="50"/><text fill="#FFFFFF" font-family="sans-serif" font-size="14" lengthAdjust="spacing" textLength="200" x="299" y="71.9659">TakeFormativeExamController</text><rect fill="#222222" height="33.0679" rx="2.5" ry="2.5" style="stroke:#E7E7E7;stroke-width:0.5;" width="214" x="292" y="694.0702"/><text fill="#FFFFFF" font-family="sans-serif" font-size="14" lengthAdjust="spacing" textLength="200" x="299" y="716.0361">TakeFormativeExamController</text><rect fill="#222222" height="33.0679" rx="2.5" ry="2.5" style="stroke:#E7E7E7;stroke-width:0.5;" width="187" x="516" y="50"/><text fill="#FFFFFF" font-family="sans-serif" font-size="14" lengthAdjust="spacing" textLength="173" x="523" y="71.9659">FormativeExamRepository</text><rect fill="#222222" height="33.0679" rx="2.5" ry="2.5" style="stroke:#E7E7E7;stroke-width:0.5;" width="187" x="516" y="694.0702"/><text fill="#FFFFFF" font-family="sans-serif" font-size="14" lengthAdjust="spacing" textLength="173" x="523" y="716.0361">FormativeExamRepository</text><rect fill="#222222" height="33.0679" rx="2.5" ry="2.5" style="stroke:#E7E7E7;stroke-width:0.5;" width="159" x="713" y="50"/><text fill="#FFFFFF" font-family="sans-serif" font-size="14" lengthAdjust="spacing" textLength="145" x="720" y="71.9659">EnrollmentRepository</text><rect fill="#222222" height="33.0679" rx="2.5" ry="2.5" style="stroke:#E7E7E7;stroke-width:0.5;" width="159" x="713" y="694.0702"/><text fill="#FFFFFF" font-family="sans-serif" font-size="14" lengthAdjust="spacing" textLength="145" x="720" y="716.0361">EnrollmentRepository</text><rect fill="#222222" height="33.0679" rx="2.5" ry="2.5" style="stroke:#E7E7E7;stroke-width:0.5;" width="146" x="882" y="50"/><text fill="#FFFFFF" font-family="sans-serif" font-size="14" lengthAdjust="spacing" textLength="132" x="889" y="71.9659">QuestionRepository</text><rect fill="#222222" height="33.0679" rx="2.5" ry="2.5" style="stroke:#E7E7E7;stroke-width:0.5;" width="146" x="882" y="694.0702"/><text fill="#FFFFFF" font-family="sans-serif" font-size="14" lengthAdjust="spacing" textLength="132" x="889" y="716.0361">QuestionRepository</text><rect fill="#222222" height="33.0679" rx="2.5" ry="2.5" style="stroke:#E7E7E7;stroke-width:0.5;" width="129" x="1038" y="50"/><text fill="#FFFFFF" font-family="sans-serif" font-size="14" lengthAdjust="spacing" textLength="115" x="1045" y="71.9659">GrammarContext</text><rect fill="#222222" height="33.0679" rx="2.5" ry="2.5" style="stroke:#E7E7E7;stroke-width:0.5;" width="129" x="1038" y="694.0702"/><text fill="#FFFFFF" font-family="sans-serif" font-size="14" lengthAdjust="spacing" textLength="115" x="1045" y="716.0361">GrammarContext</text><rect fill="#222222" height="33.0679" rx="2.5" ry="2.5" style="stroke:#E7E7E7;stroke-width:0.5;" width="154" x="1214.5" y="50"/><text fill="#FFFFFF" font-family="sans-serif" font-size="14" lengthAdjust="spacing" textLength="140" x="1221.5" y="71.9659">GrammarToolFactory</text><rect fill="#222222" height="33.0679" rx="2.5" ry="2.5" style="stroke:#E7E7E7;stroke-width:0.5;" width="154" x="1214.5" y="694.0702"/><text fill="#FFFFFF" font-family="sans-serif" font-size="14" lengthAdjust="spacing" textLength="140" x="1221.5" y="716.0361">GrammarToolFactory</text><rect fill="#222222" height="33.0679" rx="2.5" ry="2.5" style="stroke:#E7E7E7;stroke-width:0.5;" width="226" x="1378.5" y="50"/><text fill="#FFFFFF" font-family="sans-serif" font-size="14" lengthAdjust="spacing" textLength="212" x="1385.5" y="71.9659">GenerateFormativeExamService</text><rect fill="#222222" height="33.0679" rx="2.5" ry="2.5" style="stroke:#E7E7E7;stroke-width:0.5;" width="226" x="1378.5" y="694.0702"/><text fill="#FFFFFF" font-family="sans-serif" font-size="14" lengthAdjust="spacing" textLength="212" x="1385.5" y="716.0361">GenerateFormativeExamService</text><rect fill="#222222" height="33.0679" rx="2.5" ry="2.5" style="stroke:#E7E7E7;stroke-width:0.5;" width="218" x="1614.5" y="50"/><text fill="#FFFFFF" font-family="sans-serif" font-size="14" lengthAdjust="spacing" textLength="204" x="1621.5" y="71.9659">FormativeExamToBeTakenDTO</text><rect fill="#222222" height="33.0679" rx="2.5" ry="2.5" style="stroke:#E7E7E7;stroke-width:0.5;" width="218" x="1614.5" y="694.0702"/><text fill="#FFFFFF" font-family="sans-serif" font-size="14" lengthAdjust="spacing" textLength="204" x="1621.5" y="716.0361">FormativeExamToBeTakenDTO</text><rect fill="#000000" height="559.2963" style="stroke:#E7E7E7;stroke-width:1.0;" width="10" x="150" y="117.7739"/><rect fill="#000000" height="495.8842" style="stroke:#E7E7E7;stroke-width:1.0;" width="10" x="394" y="149.4799"/><rect fill="#000000" height="31.706" style="stroke:#E7E7E7;stroke-width:1.0;" width="10" x="604.5" y="181.186"/><rect fill="#000000" height="31.706" style="stroke:#E7E7E7;stroke-width:1.0;" width="10" x="787.5" y="244.598"/><rect fill="#000000" height="31.706" style="stroke:#E7E7E7;stroke-width:1.0;" width="10" x="950" y="308.01"/><rect fill="#000000" height="93.412" style="stroke:#E7E7E7;stroke-width:1.0;" width="10" x="1097.5" y="371.4221"/><rect fill="#000000" height="61.706" style="stroke:#E7E7E7;stroke-width:1.0;" width="10" x="1286.5" y="403.1281"/><rect fill="#000000" height="30" style="stroke:#E7E7E7;stroke-width:1.0;" width="10" x="1486.5" y="434.8341"/><rect fill="#000000" height="105.265" style="stroke:#E7E7E7;stroke-width:1.0;" width="10" x="1486.5" y="508.3931"/><rect fill="#000000" height="30" style="stroke:#E7E7E7;stroke-width:1.0;" width="10" x="1718.5" y="551.9521"/><polygon fill="#E7E7E7" points="138,113.7739,148,117.7739,138,121.7739,142,117.7739" style="stroke:#E7E7E7;stroke-width:1.0;"/><line style="stroke:#E7E7E7;stroke-width:1.0;stroke-dasharray:2.0,2.0;" x1="34.5" x2="144" y1="117.7739" y2="117.7739"/><text fill="#FFFFFF" font-family="sans-serif" font-size="13" lengthAdjust="spacing" textLength="85" x="41.5" y="111.9649">chooses exam</text><polygon fill="#E7E7E7" points="382,145.4799,392,149.4799,382,153.4799,386,149.4799" style="stroke:#E7E7E7;stroke-width:1.0;"/><line style="stroke:#E7E7E7;stroke-width:1.0;stroke-dasharray:2.0,2.0;" x1="160" x2="388" y1="149.4799" y2="149.4799"/><text fill="#FFFFFF" font-family="sans-serif" font-size="13" lengthAdjust="spacing" textLength="215" x="167" y="143.6709">generateFormativeExam(examDTO)</text><polygon fill="#E7E7E7" points="592.5,177.186,602.5,181.186,592.5,185.186,596.5,181.186" style="stroke:#E7E7E7;stroke-width:1.0;"/><line style="stroke:#E7E7E7;stroke-width:1.0;stroke-dasharray:2.0,2.0;" x1="404" x2="598.5" y1="181.186" y2="181.186"/><text fill="#FFFFFF" font-family="sans-serif" font-size="13" lengthAdjust="spacing" textLength="67" x="411" y="175.377">ofIdentity()</text><polygon fill="#E7E7E7" points="415,208.892,405,212.892,415,216.892,411,212.892" style="stroke:#E7E7E7;stroke-width:1.0;"/><line style="stroke:#E7E7E7;stroke-width:1.0;stroke-dasharray:2.0,2.0;" x1="409" x2="608.5" y1="212.892" y2="212.892"/><text fill="#FFFFFF" font-family="sans-serif" font-size="13" lengthAdjust="spacing" textLength="33" x="421" y="207.083">exam</text><polygon fill="#E7E7E7" points="775.5,240.598,785.5,244.598,775.5,248.598,779.5,244.598" style="stroke:#E7E7E7;stroke-width:1.0;"/><line style="stroke:#E7E7E7;stroke-width:1.0;stroke-dasharray:2.0,2.0;" x1="404" x2="781.5" y1="244.598" y2="244.598"/><text fill="#FFFFFF" font-family="sans-serif" font-size="13" lengthAdjust="spacing" textLength="216" x="411" y="238.789">ongoingCoursesOfStudent(student)</text><polygon fill="#E7E7E7" points="415,272.304,405,276.304,415,280.304,411,276.304" style="stroke:#E7E7E7;stroke-width:1.0;"/><line style="stroke:#E7E7E7;stroke-width:1.0;stroke-dasharray:2.0,2.0;" x1="409" x2="791.5" y1="276.304" y2="276.304"/><text fill="#FFFFFF" font-family="sans-serif" font-size="13" lengthAdjust="spacing" textLength="46" x="421" y="270.495">courses</text><polygon fill="#E7E7E7" points="938,304.01,948,308.01,938,312.01,942,308.01" style="stroke:#E7E7E7;stroke-width:1.0;"/><line style="stroke:#E7E7E7;stroke-width:1.0;stroke-dasharray:2.0,2.0;" x1="404" x2="944" y1="308.01" y2="308.01"/><text fill="#FFFFFF" font-family="sans-serif" font-size="13" lengthAdjust="spacing" textLength="175" x="411" y="302.201">questionsOfCourses(courses)</text><polygon fill="#E7E7E7" points="415,335.716,405,339.716,415,343.716,411,339.716" style="stroke:#E7E7E7;stroke-width:1.0;"/><line style="stroke:#E7E7E7;stroke-width:1.0;stroke-dasharray:2.0,2.0;" x1="409" x2="954" y1="339.716" y2="339.716"/><text fill="#FFFFFF" font-family="sans-serif" font-size="13" lengthAdjust="spacing" textLength="59" x="421" y="333.907">questions</text><polygon fill="#E7E7E7" points="1085.5,367.4221,1095.5,371.4221,1085.5,375.4221,1089.5,371.4221" style="stroke:#E7E7E7;stroke-width:1.0;"/><line style="stroke:#E7E7E7;stroke-width:1.0;stroke-dasharray:2.0,2.0;" x1="404" x2="1091.5" y1="371.4221" y2="371.4221"/><text fill="#FFFFFF" font-family="sans-serif" font-size="13" lengthAdjust="spacing" textLength="96" x="411" y="365.6131">grammarTools()</text><polygon fill="#E7E7E7" points="1274.5,399.1281,1284.5,403.1281,1274.5,407.1281,1278.5,403.1281" style="stroke:#E7E7E7;stroke-width:1.0;"/><line style="stroke:#E7E7E7;stroke-width:1.0;stroke-dasharray:2.0,2.0;" x1="1107.5" x2="1280.5" y1="403.1281" y2="403.1281"/><text fill="#FFFFFF" font-family="sans-serif" font-size="13" lengthAdjust="spacing" textLength="160" x="1114.5" y="397.3191">formativeExamGenerator()</text><polygon fill="#E7E7E7" points="1474.5,430.8341,1484.5,434.8341,1474.5,438.8341,1478.5,434.8341" style="stroke:#E7E7E7;stroke-width:1.0;"/><line style="stroke:#E7E7E7;stroke-width:1.0;stroke-dasharray:2.0,2.0;" x1="1296.5" x2="1480.5" y1="434.8341" y2="434.8341"/><text fill="#FFFFFF" font-family="sans-serif" font-size="13" lengthAdjust="spacing" textLength="45" x="1303.5" y="429.0251">create()</text><polygon fill="#E7E7E7" points="1474.5,504.3931,1484.5,508.3931,1474.5,512.3931,1478.5,508.3931" style="stroke:#E7E7E7;stroke-width:1.0;"/><line style="stroke:#E7E7E7;stroke-width:1.0;stroke-dasharray:2.0,2.0;" x1="404" x2="1480.5" y1="508.3931" y2="508.3931"/><text fill="#FFFFFF" font-family="sans-serif" font-size="13" lengthAdjust="spacing" textLength="160" x="411" y="502.5841">generate(exam, questions)</text><path d="M1501,477.8341 L1501,522.8341 L1661,522.8341 L1661,487.8341 L1651,477.8341 L1501,477.8341 " fill="#714137" style="stroke:#E7E7E7;stroke-width:0.5;"/><path d="M1651,477.8341 L1651,487.8341 L1661,487.8341 L1651,477.8341 " fill="#714137" style="stroke:#E7E7E7;stroke-width:0.5;"/><text fill="#FFFFFF" font-family="sans-serif" font-size="13" lengthAdjust="spacing" textLength="136" x="1507" y="496.7311">exam generation done</text><text fill="#FFFFFF" font-family="sans-serif" font-size="13" lengthAdjust="spacing" textLength="129" x="1507" y="514.4371">by an external service</text><polygon fill="#E7E7E7" points="1706.5,547.9521,1716.5,551.9521,1706.5,555.9521,1710.5,551.9521" style="stroke:#E7E7E7;stroke-width:1.0;"/><line style="stroke:#E7E7E7;stroke-width:1.0;stroke-dasharray:2.0,2.0;" x1="1496.5" x2="1712.5" y1="551.9521" y2="551.9521"/><text fill="#FFFFFF" font-family="sans-serif" font-size="13" lengthAdjust="spacing" textLength="45" x="1503.5" y="546.1431">create()</text><polygon fill="#E7E7E7" points="415,609.6582,405,613.6582,415,617.6582,411,613.6582" style="stroke:#E7E7E7;stroke-width:1.0;"/><line style="stroke:#E7E7E7;stroke-width:1.0;stroke-dasharray:2.0,2.0;" x1="409" x2="1490.5" y1="613.6582" y2="613.6582"/><text fill="#FFFFFF" font-family="sans-serif" font-size="13" lengthAdjust="spacing" textLength="125" x="421" y="607.8492">examToBeTakenDTO</text><polygon fill="#E7E7E7" points="171,641.3642,161,645.3642,171,649.3642,167,645.3642" style="stroke:#E7E7E7;stroke-width:1.0;"/><line style="stroke:#E7E7E7;stroke-width:1.0;stroke-dasharray:2.0,2.0;" x1="165" x2="398" y1="645.3642" y2="645.3642"/><text fill="#FFFFFF" font-family="sans-serif" font-size="13" lengthAdjust="spacing" textLength="125" x="177" y="639.5552">examToBeTakenDTO</text><polygon fill="#E7E7E7" points="45.5,673.0702,35.5,677.0702,45.5,681.0702,41.5,677.0702" style="stroke:#E7E7E7;stroke-width:1.0;"/><line style="stroke:#E7E7E7;stroke-width:1.0;stroke-dasharray:2.0,2.0;" x1="39.5" x2="154" y1="677.0702" y2="677.0702"/><text fill="#FFFFFF" font-family="sans-serif" font-size="13" lengthAdjust="spacing" textLength="78" x="51.5" y="671.2612">display exam</text><!--SRC=[VLHDJyCm3BtlL-Gu9FW3Et3WOsYd2HWt91HQhujeupNDfktVOoTfITgKdBRw-UNvnROiB1hnRaybQ2ja9ph_Sx4uIcDLeOwIlk_a3wpHDDAgCpnVPFEnOUn9_OzwH6qDrZKOHXVMr2bj0dw38tQAr5mPREXVWdtMpDIGj1G8NnFewmawgr2dmDO34-IBaKqZ3Uk4Y_KYBpd43h5UowBdgZ9KeC58cnhm3kQi2d2-delvsdVu0EoUVjfj6LnQOWyl8UxkxibfiHB50R43Afao5YH6dUa-VWH1Xn0CP9C9MkNKB3cHRhXn2GE1UnSHZijd8gwGY72_OH7ANfSt0sX8TJQ8wBYiI8UJsWTBI1Edb_h7v6jrXKfNZtWoLF5s7nfq6Jp9I0bz48i9R96SmlFb58NygQQsrzI6jY8vGTSoy6Naj5CvxKJEm9WJrCu9eXRb5_vhp2xtDDp8yUsSnTbLg6OVTqPeNZGHKy9MJQhXKmq5KNUplGO8FE98U7WAni6evd4u2gKAeW0NEZN92-h7m7N-xP_V6R_6LslaDbNLmVekxhaeNPIeGNpgRze5ce8MZ9QrwFom9omiW-NGGC_vCoZWePyfVXpgQQCfYrV8OiRQgKrkhsJJ4uTvSKTBfjzCAr6gxbZBgv_pA8MMqYy0]--></g></svg>