<?xml version="1.0" encoding="us-ascii" standalone="no"?><svg xmlns="http://www.w3.org/2000/svg" xmlns:xlink="http://www.w3.org/1999/xlink" contentStyleType="text/css" height="748px" preserveAspectRatio="none" style="width:1681px;height:748px;background:#1B1B1B;" version="1.1" viewBox="0 0 1681 748" width="1681px" zoomAndPan="magnify"><defs/><g><rect fill="#1B1B1B" height="748" style="stroke:none;stroke-width:1.0;" width="1681" x="0" y="0"/><rect fill="#000000" height="529.5902" style="stroke:#E7E7E7;stroke-width:1.0;" width="10" x="169.5" y="117.7739"/><rect fill="#000000" height="466.1782" style="stroke:#E7E7E7;stroke-width:1.0;" width="10" x="374.5" y="149.4799"/><rect fill="#000000" height="128.8241" style="stroke:#E7E7E7;stroke-width:1.0;" width="10" x="636.5" y="181.186"/><rect fill="#000000" height="31.706" style="stroke:#E7E7E7;stroke-width:1.0;" width="10" x="864.5" y="239.598"/><rect fill="#000000" height="93.412" style="stroke:#E7E7E7;stroke-width:1.0;" width="10" x="1012" y="341.716"/><rect fill="#000000" height="61.706" style="stroke:#E7E7E7;stroke-width:1.0;" width="10" x="1181" y="373.4221"/><rect fill="#000000" height="30" style="stroke:#E7E7E7;stroke-width:1.0;" width="10" x="1370.5" y="405.1281"/><rect fill="#000000" height="105.265" style="stroke:#E7E7E7;stroke-width:1.0;" width="10" x="1370.5" y="478.6871"/><rect fill="#000000" height="30" style="stroke:#E7E7E7;stroke-width:1.0;" width="10" x="1576.5" y="522.2461"/><rect fill="none" height="83.118" style="stroke:#FFFFFF;stroke-width:1.5;" width="466" x="486.5" y="196.186"/><line style="stroke:#E7E7E7;stroke-width:0.5;stroke-dasharray:5.0,5.0;" x1="34" x2="34" y1="84.0679" y2="665.3642"/><line style="stroke:#E7E7E7;stroke-width:0.5;stroke-dasharray:5.0,5.0;" x1="174.5" x2="174.5" y1="84.0679" y2="665.3642"/><line style="stroke:#E7E7E7;stroke-width:0.5;stroke-dasharray:5.0,5.0;" x1="379.5" x2="379.5" y1="84.0679" y2="665.3642"/><line style="stroke:#E7E7E7;stroke-width:0.5;stroke-dasharray:5.0,5.0;" x1="641.5" x2="641.5" y1="84.0679" y2="665.3642"/><line style="stroke:#E7E7E7;stroke-width:0.5;stroke-dasharray:5.0,5.0;" x1="869.5" x2="869.5" y1="84.0679" y2="665.3642"/><line style="stroke:#E7E7E7;stroke-width:0.5;stroke-dasharray:5.0,5.0;" x1="1016.5" x2="1016.5" y1="84.0679" y2="665.3642"/><line style="stroke:#E7E7E7;stroke-width:0.5;stroke-dasharray:5.0,5.0;" x1="1186" x2="1186" y1="84.0679" y2="665.3642"/><line style="stroke:#E7E7E7;stroke-width:0.5;stroke-dasharray:5.0,5.0;" x1="1375" x2="1375" y1="84.0679" y2="665.3642"/><line style="stroke:#E7E7E7;stroke-width:0.5;stroke-dasharray:5.0,5.0;" x1="1581" x2="1581" y1="84.0679" y2="665.3642"/><text fill="#FFFFFF" font-family="sans-serif" font-size="14" lengthAdjust="spacing" textLength="53" x="5" y="79.9659">Student</text><ellipse cx="34.5" cy="13.5" fill="#222222" rx="8" ry="8" style="stroke:#E7E7E7;stroke-width:0.5;"/><path d="M34.5,21.5 L34.5,48.5 M21.5,29.5 L47.5,29.5 M34.5,48.5 L21.5,63.5 M34.5,48.5 L47.5,63.5 " fill="none" style="stroke:#E7E7E7;stroke-width:0.5;"/><text fill="#FFFFFF" font-family="sans-serif" font-size="14" lengthAdjust="spacing" textLength="53" x="5" y="679.3301">Student</text><ellipse cx="34.5" cy="691.9321" fill="#222222" rx="8" ry="8" style="stroke:#E7E7E7;stroke-width:0.5;"/><path d="M34.5,699.9321 L34.5,726.9321 M21.5,707.9321 L47.5,707.9321 M34.5,726.9321 L21.5,741.9321 M34.5,726.9321 L47.5,741.9321 " fill="none" style="stroke:#E7E7E7;stroke-width:0.5;"/><rect fill="#222222" height="33.0679" rx="2.5" ry="2.5" style="stroke:#E7E7E7;stroke-width:0.5;" width="162" x="93.5" y="50"/><text fill="#FFFFFF" font-family="sans-serif" font-size="14" lengthAdjust="spacing" textLength="148" x="100.5" y="71.9659">TakeFormativeExamUI</text><rect fill="#222222" height="33.0679" rx="2.5" ry="2.5" style="stroke:#E7E7E7;stroke-width:0.5;" width="162" x="93.5" y="664.3642"/><text fill="#FFFFFF" font-family="sans-serif" font-size="14" lengthAdjust="spacing" textLength="148" x="100.5" y="686.3301">TakeFormativeExamUI</text><rect fill="#222222" height="33.0679" rx="2.5" ry="2.5" style="stroke:#E7E7E7;stroke-width:0.5;" width="214" x="272.5" y="50"/><text fill="#FFFFFF" font-family="sans-serif" font-size="14" lengthAdjust="spacing" textLength="200" x="279.5" y="71.9659">TakeFormativeExamController</text><rect fill="#222222" height="33.0679" rx="2.5" ry="2.5" style="stroke:#E7E7E7;stroke-width:0.5;" width="214" x="272.5" y="664.3642"/><text fill="#FFFFFF" font-family="sans-serif" font-size="14" lengthAdjust="spacing" textLength="200" x="279.5" y="686.3301">TakeFormativeExamController</text><rect fill="#222222" height="33.0679" rx="2.5" ry="2.5" style="stroke:#E7E7E7;stroke-width:0.5;" width="290" x="496.5" y="50"/><text fill="#FFFFFF" font-family="sans-serif" font-size="14" lengthAdjust="spacing" textLength="276" x="503.5" y="71.9659">FormativeExamToBeTakenDTOUnMapper</text><rect fill="#222222" height="33.0679" rx="2.5" ry="2.5" style="stroke:#E7E7E7;stroke-width:0.5;" width="290" x="496.5" y="664.3642"/><text fill="#FFFFFF" font-family="sans-serif" font-size="14" lengthAdjust="spacing" textLength="276" x="503.5" y="686.3301">FormativeExamToBeTakenDTOUnMapper</text><rect fill="#222222" height="33.0679" rx="2.5" ry="2.5" style="stroke:#E7E7E7;stroke-width:0.5;" width="146" x="796.5" y="50"/><text fill="#FFFFFF" font-family="sans-serif" font-size="14" lengthAdjust="spacing" textLength="132" x="803.5" y="71.9659">QuestionRepository</text><rect fill="#222222" height="33.0679" rx="2.5" ry="2.5" style="stroke:#E7E7E7;stroke-width:0.5;" width="146" x="796.5" y="664.3642"/><text fill="#FFFFFF" font-family="sans-serif" font-size="14" lengthAdjust="spacing" textLength="132" x="803.5" y="686.3301">QuestionRepository</text><rect fill="#222222" height="33.0679" rx="2.5" ry="2.5" style="stroke:#E7E7E7;stroke-width:0.5;" width="129" x="952.5" y="50"/><text fill="#FFFFFF" font-family="sans-serif" font-size="14" lengthAdjust="spacing" textLength="115" x="959.5" y="71.9659">GrammarContext</text><rect fill="#222222" height="33.0679" rx="2.5" ry="2.5" style="stroke:#E7E7E7;stroke-width:0.5;" width="129" x="952.5" y="664.3642"/><text fill="#FFFFFF" font-family="sans-serif" font-size="14" lengthAdjust="spacing" textLength="115" x="959.5" y="686.3301">GrammarContext</text><rect fill="#222222" height="33.0679" rx="2.5" ry="2.5" style="stroke:#E7E7E7;stroke-width:0.5;" width="154" x="1109" y="50"/><text fill="#FFFFFF" font-family="sans-serif" font-size="14" lengthAdjust="spacing" textLength="140" x="1116" y="71.9659">GrammarToolFactory</text><rect fill="#222222" height="33.0679" rx="2.5" ry="2.5" style="stroke:#E7E7E7;stroke-width:0.5;" width="154" x="1109" y="664.3642"/><text fill="#FFFFFF" font-family="sans-serif" font-size="14" lengthAdjust="spacing" textLength="140" x="1116" y="686.3301">GrammarToolFactory</text><rect fill="#222222" height="33.0679" rx="2.5" ry="2.5" style="stroke:#E7E7E7;stroke-width:0.5;" width="205" x="1273" y="50"/><text fill="#FFFFFF" font-family="sans-serif" font-size="14" lengthAdjust="spacing" textLength="191" x="1280" y="71.9659">GradeFormativeExamService</text><rect fill="#222222" height="33.0679" rx="2.5" ry="2.5" style="stroke:#E7E7E7;stroke-width:0.5;" width="205" x="1273" y="664.3642"/><text fill="#FFFFFF" font-family="sans-serif" font-size="14" lengthAdjust="spacing" textLength="191" x="1280" y="686.3301">GradeFormativeExamService</text><rect fill="#222222" height="33.0679" rx="2.5" ry="2.5" style="stroke:#E7E7E7;stroke-width:0.5;" width="187" x="1488" y="50"/><text fill="#FFFFFF" font-family="sans-serif" font-size="14" lengthAdjust="spacing" textLength="173" x="1495" y="71.9659">FormativeExamResultDTO</text><rect fill="#222222" height="33.0679" rx="2.5" ry="2.5" style="stroke:#E7E7E7;stroke-width:0.5;" width="187" x="1488" y="664.3642"/><text fill="#FFFFFF" font-family="sans-serif" font-size="14" lengthAdjust="spacing" textLength="173" x="1495" y="686.3301">FormativeExamResultDTO</text><rect fill="#000000" height="529.5902" style="stroke:#E7E7E7;stroke-width:1.0;" width="10" x="169.5" y="117.7739"/><rect fill="#000000" height="466.1782" style="stroke:#E7E7E7;stroke-width:1.0;" width="10" x="374.5" y="149.4799"/><rect fill="#000000" height="128.8241" style="stroke:#E7E7E7;stroke-width:1.0;" width="10" x="636.5" y="181.186"/><rect fill="#000000" height="31.706" style="stroke:#E7E7E7;stroke-width:1.0;" width="10" x="864.5" y="239.598"/><rect fill="#000000" height="93.412" style="stroke:#E7E7E7;stroke-width:1.0;" width="10" x="1012" y="341.716"/><rect fill="#000000" height="61.706" style="stroke:#E7E7E7;stroke-width:1.0;" width="10" x="1181" y="373.4221"/><rect fill="#000000" height="30" style="stroke:#E7E7E7;stroke-width:1.0;" width="10" x="1370.5" y="405.1281"/><rect fill="#000000" height="105.265" style="stroke:#E7E7E7;stroke-width:1.0;" width="10" x="1370.5" y="478.6871"/><rect fill="#000000" height="30" style="stroke:#E7E7E7;stroke-width:1.0;" width="10" x="1576.5" y="522.2461"/><polygon fill="#E7E7E7" points="157.5,113.7739,167.5,117.7739,157.5,121.7739,161.5,117.7739" style="stroke:#E7E7E7;stroke-width:1.0;"/><line style="stroke:#E7E7E7;stroke-width:1.0;stroke-dasharray:2.0,2.0;" x1="34.5" x2="163.5" y1="117.7739" y2="117.7739"/><text fill="#FFFFFF" font-family="sans-serif" font-size="13" lengthAdjust="spacing" textLength="112" x="41.5" y="111.9649">submits resolution</text><polygon fill="#E7E7E7" points="362.5,145.4799,372.5,149.4799,362.5,153.4799,366.5,149.4799" style="stroke:#E7E7E7;stroke-width:1.0;"/><line style="stroke:#E7E7E7;stroke-width:1.0;stroke-dasharray:2.0,2.0;" x1="179.5" x2="368.5" y1="149.4799" y2="149.4799"/><text fill="#FFFFFF" font-family="sans-serif" font-size="13" lengthAdjust="spacing" textLength="176" x="186.5" y="143.6709">examGrading(resolutionDTO)</text><polygon fill="#E7E7E7" points="624.5,177.186,634.5,181.186,624.5,185.186,628.5,181.186" style="stroke:#E7E7E7;stroke-width:1.0;"/><line style="stroke:#E7E7E7;stroke-width:1.0;stroke-dasharray:2.0,2.0;" x1="384.5" x2="630.5" y1="181.186" y2="181.186"/><text fill="#FFFFFF" font-family="sans-serif" font-size="13" lengthAdjust="spacing" textLength="150" x="391.5" y="175.377">fromDTO(resolutionDTO)</text><path d="M486.5,196.186 L559.5,196.186 L559.5,205.892 L549.5,215.892 L486.5,215.892 L486.5,196.186 " fill="#555555" style="stroke:#FFFFFF;stroke-width:1.5;"/><rect fill="none" height="83.118" style="stroke:#FFFFFF;stroke-width:1.5;" width="466" x="486.5" y="196.186"/><text fill="#FFFFFF" font-family="sans-serif" font-size="13" font-weight="bold" lengthAdjust="spacing" textLength="28" x="501.5" y="211.083">loop</text><text fill="#FFFFFF" font-family="sans-serif" font-size="11" font-weight="bold" lengthAdjust="spacing" textLength="245" x="574.5" y="209.9449">[for each question_answer in resolutionDTO]</text><polygon fill="#E7E7E7" points="852.5,235.598,862.5,239.598,852.5,243.598,856.5,239.598" style="stroke:#E7E7E7;stroke-width:1.0;"/><line style="stroke:#E7E7E7;stroke-width:1.0;stroke-dasharray:2.0,2.0;" x1="646.5" x2="858.5" y1="239.598" y2="239.598"/><text fill="#FFFFFF" font-family="sans-serif" font-size="13" lengthAdjust="spacing" textLength="169" x="653.5" y="233.789">ofIdentity(question_answer)</text><polygon fill="#E7E7E7" points="657.5,267.304,647.5,271.304,657.5,275.304,653.5,271.304" style="stroke:#E7E7E7;stroke-width:1.0;"/><line style="stroke:#E7E7E7;stroke-width:1.0;stroke-dasharray:2.0,2.0;" x1="651.5" x2="868.5" y1="271.304" y2="271.304"/><text fill="#FFFFFF" font-family="sans-serif" font-size="13" lengthAdjust="spacing" textLength="53" x="663.5" y="265.495">question</text><polygon fill="#E7E7E7" points="395.5,306.01,385.5,310.01,395.5,314.01,391.5,310.01" style="stroke:#E7E7E7;stroke-width:1.0;"/><line style="stroke:#E7E7E7;stroke-width:1.0;stroke-dasharray:2.0,2.0;" x1="389.5" x2="640.5" y1="310.01" y2="310.01"/><text fill="#FFFFFF" font-family="sans-serif" font-size="13" lengthAdjust="spacing" textLength="59" x="401.5" y="304.201">questions</text><polygon fill="#E7E7E7" points="1000,337.716,1010,341.716,1000,345.716,1004,341.716" style="stroke:#E7E7E7;stroke-width:1.0;"/><line style="stroke:#E7E7E7;stroke-width:1.0;stroke-dasharray:2.0,2.0;" x1="384.5" x2="1006" y1="341.716" y2="341.716"/><text fill="#FFFFFF" font-family="sans-serif" font-size="13" lengthAdjust="spacing" textLength="96" x="391.5" y="335.907">grammarTools()</text><polygon fill="#E7E7E7" points="1169,369.4221,1179,373.4221,1169,377.4221,1173,373.4221" style="stroke:#E7E7E7;stroke-width:1.0;"/><line style="stroke:#E7E7E7;stroke-width:1.0;stroke-dasharray:2.0,2.0;" x1="1022" x2="1175" y1="373.4221" y2="373.4221"/><text fill="#FFFFFF" font-family="sans-serif" font-size="13" lengthAdjust="spacing" textLength="140" x="1029" y="367.6131">formativeExamGrader()</text><polygon fill="#E7E7E7" points="1358.5,401.1281,1368.5,405.1281,1358.5,409.1281,1362.5,405.1281" style="stroke:#E7E7E7;stroke-width:1.0;"/><line style="stroke:#E7E7E7;stroke-width:1.0;stroke-dasharray:2.0,2.0;" x1="1191" x2="1364.5" y1="405.1281" y2="405.1281"/><text fill="#FFFFFF" font-family="sans-serif" font-size="13" lengthAdjust="spacing" textLength="45" x="1198" y="399.3191">create()</text><polygon fill="#E7E7E7" points="1358.5,474.6871,1368.5,478.6871,1358.5,482.6871,1362.5,478.6871" style="stroke:#E7E7E7;stroke-width:1.0;"/><line style="stroke:#E7E7E7;stroke-width:1.0;stroke-dasharray:2.0,2.0;" x1="384.5" x2="1364.5" y1="478.6871" y2="478.6871"/><text fill="#FFFFFF" font-family="sans-serif" font-size="13" lengthAdjust="spacing" textLength="235" x="391.5" y="472.8781">correctExam(resolutionDTO, questions)</text><path d="M1385,448.1281 L1385,493.1281 L1540,493.1281 L1540,458.1281 L1530,448.1281 L1385,448.1281 " fill="#714137" style="stroke:#E7E7E7;stroke-width:0.5;"/><path d="M1530,448.1281 L1530,458.1281 L1540,458.1281 L1530,448.1281 " fill="#714137" style="stroke:#E7E7E7;stroke-width:0.5;"/><text fill="#FFFFFF" font-family="sans-serif" font-size="13" lengthAdjust="spacing" textLength="131" x="1391" y="467.0251">exam correction done</text><text fill="#FFFFFF" font-family="sans-serif" font-size="13" lengthAdjust="spacing" textLength="129" x="1391" y="484.7311">by an external service</text><polygon fill="#E7E7E7" points="1564.5,518.2461,1574.5,522.2461,1564.5,526.2461,1568.5,522.2461" style="stroke:#E7E7E7;stroke-width:1.0;"/><line style="stroke:#E7E7E7;stroke-width:1.0;stroke-dasharray:2.0,2.0;" x1="1380.5" x2="1570.5" y1="522.2461" y2="522.2461"/><text fill="#FFFFFF" font-family="sans-serif" font-size="13" lengthAdjust="spacing" textLength="45" x="1387.5" y="516.4371">create()</text><polygon fill="#E7E7E7" points="395.5,579.9521,385.5,583.9521,395.5,587.9521,391.5,583.9521" style="stroke:#E7E7E7;stroke-width:1.0;"/><line style="stroke:#E7E7E7;stroke-width:1.0;stroke-dasharray:2.0,2.0;" x1="389.5" x2="1374.5" y1="583.9521" y2="583.9521"/><text fill="#FFFFFF" font-family="sans-serif" font-size="13" lengthAdjust="spacing" textLength="60" x="401.5" y="578.1431">resultDTO</text><polygon fill="#E7E7E7" points="190.5,611.6582,180.5,615.6582,190.5,619.6582,186.5,615.6582" style="stroke:#E7E7E7;stroke-width:1.0;"/><line style="stroke:#E7E7E7;stroke-width:1.0;stroke-dasharray:2.0,2.0;" x1="184.5" x2="378.5" y1="615.6582" y2="615.6582"/><text fill="#FFFFFF" font-family="sans-serif" font-size="13" lengthAdjust="spacing" textLength="60" x="196.5" y="609.8492">resultDTO</text><polygon fill="#E7E7E7" points="45.5,643.3642,35.5,647.3642,45.5,651.3642,41.5,647.3642" style="stroke:#E7E7E7;stroke-width:1.0;"/><line style="stroke:#E7E7E7;stroke-width:1.0;stroke-dasharray:2.0,2.0;" x1="39.5" x2="173.5" y1="647.3642" y2="647.3642"/><text fill="#FFFFFF" font-family="sans-serif" font-size="13" lengthAdjust="spacing" textLength="111" x="51.5" y="641.5552">show exam results</text><!--SRC=[VLJ1Sfim4Btp5NihcMb-88SUsYOT7z9C4tphJ4Q61MiA4f64O_zzTv70o9RH2QHzJs_VhbQKJXjuSqE5oe6mOFrdblN2E5dANj1-8VxXapQTSFA0ZqVHRJSSEyZrg1zQEQFR5Wr7bywqCMqKNEZlo0pgP_6oLS-YxpriK9te8zYV0QsJMhrYhwqa_IUE-tWtz1zVyCk8hXE6TU3HUH77L4IXTViaoechIL9LSNPlQ0wonD6qGxcIsIlQeNMK5eTMZeY3oN1__urCX0UmmwwJpe91gzk1ayj8ZJm8X-moqA8u3cSN2O34ovAaQl8pYEwu6uDdi3STmXh1uwLiAj7KHdS4Ib54DBu8i5YjrZtKr3ieoZryX9Ay2sK_gMvIGKGPGSTiHW4inTUDjEXwmwP8TyelwEwkuBEmK7L8h42yJ7VYlOglS8qHLJNccsNf549D9dQR9MYzWzULe8OaQ7DkGvid_EUsNTxDA4OtmRjwsMzZgveyTcscQfA6DRDNrCj4M1gau7p5UUxv5HilZnT7iOB50MTvxL0Gf8t1qd5-SRT-FVkUCEvIXjAqQMIpT_uDJRm4XqehXBzgHoD0qQ53eqGBrZ_pkFQiYRNHQxvbrYo1N_mD9yPXaE8D7MMcoP7TS7ZU_mA_Nuh71-Z4QOVG2sj1G2Nh6WqF6Xu-9DNj4RQRn3YGLvT5PPbcI9X1q_YYkRNNdzv7ZxRPikLbzXy0]--></g></svg>