<?xml version="1.0" encoding="us-ascii" standalone="no"?><svg xmlns="http://www.w3.org/2000/svg" xmlns:xlink="http://www.w3.org/1999/xlink" contentStyleType="text/css" height="705px" preserveAspectRatio="none" style="width:1656px;height:705px;background:#FFFFFF;" version="1.1" viewBox="0 0 1656 705" width="1656px" zoomAndPan="magnify"><defs/><g><rect fill="#FFFFFF" height="493.6582" style="stroke:#181818;stroke-width:1.0;" width="10" x="176.5" y="112.7988"/><rect fill="#FFFFFF" height="435.0371" style="stroke:#181818;stroke-width:1.0;" width="10" x="388.5" y="142.1094"/><rect fill="#FFFFFF" height="119.2422" style="stroke:#181818;stroke-width:1.0;" width="10" x="657.5" y="171.4199"/><rect fill="#FFFFFF" height="29.3105" style="stroke:#181818;stroke-width:1.0;" width="10" x="889.5" y="225.041"/><rect fill="#FFFFFF" height="88.6211" style="stroke:#181818;stroke-width:1.0;" width="10" x="1040.5" y="319.9727"/><rect fill="#FFFFFF" height="59.3105" style="stroke:#181818;stroke-width:1.0;" width="10" x="1212.5" y="349.2832"/><rect fill="#FFFFFF" height="30" style="stroke:#181818;stroke-width:1.0;" width="10" x="1406.5" y="378.5938"/><rect fill="#FFFFFF" height="99.2764" style="stroke:#181818;stroke-width:1.0;" width="10" x="1406.5" y="448.5596"/><rect fill="#FFFFFF" height="30" style="stroke:#181818;stroke-width:1.0;" width="10" x="1583" y="488.5254"/><rect fill="none" height="75.9316" style="stroke:#000000;stroke-width:1.5;" width="474" x="505" y="186.4199"/><line style="stroke:#181818;stroke-width:0.5;stroke-dasharray:5.0,5.0;" x1="34" x2="34" y1="81.4883" y2="624.457"/><line style="stroke:#181818;stroke-width:0.5;stroke-dasharray:5.0,5.0;" x1="181" x2="181" y1="81.4883" y2="624.457"/><line style="stroke:#181818;stroke-width:0.5;stroke-dasharray:5.0,5.0;" x1="393" x2="393" y1="81.4883" y2="624.457"/><line style="stroke:#181818;stroke-width:0.5;stroke-dasharray:5.0,5.0;" x1="662" x2="662" y1="81.4883" y2="624.457"/><line style="stroke:#181818;stroke-width:0.5;stroke-dasharray:5.0,5.0;" x1="894" x2="894" y1="81.4883" y2="624.457"/><line style="stroke:#181818;stroke-width:0.5;stroke-dasharray:5.0,5.0;" x1="1045" x2="1045" y1="81.4883" y2="624.457"/><line style="stroke:#181818;stroke-width:0.5;stroke-dasharray:5.0,5.0;" x1="1217" x2="1217" y1="81.4883" y2="624.457"/><line style="stroke:#181818;stroke-width:0.5;stroke-dasharray:5.0,5.0;" x1="1411" x2="1411" y1="81.4883" y2="624.457"/><line style="stroke:#181818;stroke-width:0.5;stroke-dasharray:5.0,5.0;" x1="1588" x2="1588" y1="81.4883" y2="624.457"/><text fill="#000000" font-family="sans-serif" font-size="14" lengthAdjust="spacing" textLength="53" x="5" y="78.5352">Student</text><ellipse cx="34.5" cy="13.5" fill="#E2E2F0" rx="8" ry="8" style="stroke:#181818;stroke-width:0.5;"/><path d="M34.5,21.5 L34.5,48.5 M21.5,29.5 L47.5,29.5 M34.5,48.5 L21.5,63.5 M34.5,48.5 L47.5,63.5 " fill="none" style="stroke:#181818;stroke-width:0.5;"/><text fill="#000000" font-family="sans-serif" font-size="14" lengthAdjust="spacing" textLength="53" x="5" y="636.9922">Student</text><ellipse cx="34.5" cy="648.4453" fill="#E2E2F0" rx="8" ry="8" style="stroke:#181818;stroke-width:0.5;"/><path d="M34.5,656.4453 L34.5,683.4453 M21.5,664.4453 L47.5,664.4453 M34.5,683.4453 L21.5,698.4453 M34.5,683.4453 L47.5,698.4453 " fill="none" style="stroke:#181818;stroke-width:0.5;"/><rect fill="#E2E2F0" height="30.4883" rx="2.5" ry="2.5" style="stroke:#181818;stroke-width:0.5;" width="167" x="98" y="50"/><text fill="#000000" font-family="sans-serif" font-size="14" lengthAdjust="spacing" textLength="153" x="105" y="70.5352">TakeFormativeExamUI</text><rect fill="#E2E2F0" height="30.4883" rx="2.5" ry="2.5" style="stroke:#181818;stroke-width:0.5;" width="167" x="98" y="623.457"/><text fill="#000000" font-family="sans-serif" font-size="14" lengthAdjust="spacing" textLength="153" x="105" y="643.9922">TakeFormativeExamUI</text><rect fill="#E2E2F0" height="30.4883" rx="2.5" ry="2.5" style="stroke:#181818;stroke-width:0.5;" width="223" x="282" y="50"/><text fill="#000000" font-family="sans-serif" font-size="14" lengthAdjust="spacing" textLength="209" x="289" y="70.5352">TakeFormativeExamController</text><rect fill="#E2E2F0" height="30.4883" rx="2.5" ry="2.5" style="stroke:#181818;stroke-width:0.5;" width="223" x="282" y="623.457"/><text fill="#000000" font-family="sans-serif" font-size="14" lengthAdjust="spacing" textLength="209" x="289" y="643.9922">TakeFormativeExamController</text><rect fill="#E2E2F0" height="30.4883" rx="2.5" ry="2.5" style="stroke:#181818;stroke-width:0.5;" width="295" x="515" y="50"/><text fill="#000000" font-family="sans-serif" font-size="14" lengthAdjust="spacing" textLength="281" x="522" y="70.5352">FormativeExamResolutionDTOUnmapper</text><rect fill="#E2E2F0" height="30.4883" rx="2.5" ry="2.5" style="stroke:#181818;stroke-width:0.5;" width="295" x="515" y="623.457"/><text fill="#000000" font-family="sans-serif" font-size="14" lengthAdjust="spacing" textLength="281" x="522" y="643.9922">FormativeExamResolutionDTOUnmapper</text><rect fill="#E2E2F0" height="30.4883" rx="2.5" ry="2.5" style="stroke:#181818;stroke-width:0.5;" width="149" x="820" y="50"/><text fill="#000000" font-family="sans-serif" font-size="14" lengthAdjust="spacing" textLength="135" x="827" y="70.5352">QuestionRepository</text><rect fill="#E2E2F0" height="30.4883" rx="2.5" ry="2.5" style="stroke:#181818;stroke-width:0.5;" width="149" x="820" y="623.457"/><text fill="#000000" font-family="sans-serif" font-size="14" lengthAdjust="spacing" textLength="135" x="827" y="643.9922">QuestionRepository</text><rect fill="#E2E2F0" height="30.4883" rx="2.5" ry="2.5" style="stroke:#181818;stroke-width:0.5;" width="133" x="979" y="50"/><text fill="#000000" font-family="sans-serif" font-size="14" lengthAdjust="spacing" textLength="119" x="986" y="70.5352">GrammarContext</text><rect fill="#E2E2F0" height="30.4883" rx="2.5" ry="2.5" style="stroke:#181818;stroke-width:0.5;" width="133" x="979" y="623.457"/><text fill="#000000" font-family="sans-serif" font-size="14" lengthAdjust="spacing" textLength="119" x="986" y="643.9922">GrammarContext</text><rect fill="#E2E2F0" height="30.4883" rx="2.5" ry="2.5" style="stroke:#181818;stroke-width:0.5;" width="159" x="1138" y="50"/><text fill="#000000" font-family="sans-serif" font-size="14" lengthAdjust="spacing" textLength="145" x="1145" y="70.5352">GrammarToolFactory</text><rect fill="#E2E2F0" height="30.4883" rx="2.5" ry="2.5" style="stroke:#181818;stroke-width:0.5;" width="159" x="1138" y="623.457"/><text fill="#000000" font-family="sans-serif" font-size="14" lengthAdjust="spacing" textLength="145" x="1145" y="643.9922">GrammarToolFactory</text><rect fill="#E2E2F0" height="30.4883" rx="2.5" ry="2.5" style="stroke:#181818;stroke-width:0.5;" width="209" x="1307" y="50"/><text fill="#000000" font-family="sans-serif" font-size="14" lengthAdjust="spacing" textLength="195" x="1314" y="70.5352">GradeFormativeExamService</text><rect fill="#E2E2F0" height="30.4883" rx="2.5" ry="2.5" style="stroke:#181818;stroke-width:0.5;" width="209" x="1307" y="623.457"/><text fill="#000000" font-family="sans-serif" font-size="14" lengthAdjust="spacing" textLength="195" x="1314" y="643.9922">GradeFormativeExamService</text><rect fill="#E2E2F0" height="30.4883" rx="2.5" ry="2.5" style="stroke:#181818;stroke-width:0.5;" width="124" x="1526" y="50"/><text fill="#000000" font-family="sans-serif" font-size="14" lengthAdjust="spacing" textLength="110" x="1533" y="70.5352">ExamResultDTO</text><rect fill="#E2E2F0" height="30.4883" rx="2.5" ry="2.5" style="stroke:#181818;stroke-width:0.5;" width="124" x="1526" y="623.457"/><text fill="#000000" font-family="sans-serif" font-size="14" lengthAdjust="spacing" textLength="110" x="1533" y="643.9922">ExamResultDTO</text><rect fill="#FFFFFF" height="493.6582" style="stroke:#181818;stroke-width:1.0;" width="10" x="176.5" y="112.7988"/><rect fill="#FFFFFF" height="435.0371" style="stroke:#181818;stroke-width:1.0;" width="10" x="388.5" y="142.1094"/><rect fill="#FFFFFF" height="119.2422" style="stroke:#181818;stroke-width:1.0;" width="10" x="657.5" y="171.4199"/><rect fill="#FFFFFF" height="29.3105" style="stroke:#181818;stroke-width:1.0;" width="10" x="889.5" y="225.041"/><rect fill="#FFFFFF" height="88.6211" style="stroke:#181818;stroke-width:1.0;" width="10" x="1040.5" y="319.9727"/><rect fill="#FFFFFF" height="59.3105" style="stroke:#181818;stroke-width:1.0;" width="10" x="1212.5" y="349.2832"/><rect fill="#FFFFFF" height="30" style="stroke:#181818;stroke-width:1.0;" width="10" x="1406.5" y="378.5938"/><rect fill="#FFFFFF" height="99.2764" style="stroke:#181818;stroke-width:1.0;" width="10" x="1406.5" y="448.5596"/><rect fill="#FFFFFF" height="30" style="stroke:#181818;stroke-width:1.0;" width="10" x="1583" y="488.5254"/><polygon fill="#181818" points="164.5,108.7988,174.5,112.7988,164.5,116.7988,168.5,112.7988" style="stroke:#181818;stroke-width:1.0;"/><line style="stroke:#181818;stroke-width:1.0;stroke-dasharray:2.0,2.0;" x1="34.5" x2="170.5" y1="112.7988" y2="112.7988"/><text fill="#000000" font-family="sans-serif" font-size="13" lengthAdjust="spacing" textLength="119" x="41.5" y="108.0566">submits resolution</text><polygon fill="#181818" points="376.5,138.1094,386.5,142.1094,376.5,146.1094,380.5,142.1094" style="stroke:#181818;stroke-width:1.0;"/><line style="stroke:#181818;stroke-width:1.0;stroke-dasharray:2.0,2.0;" x1="186.5" x2="382.5" y1="142.1094" y2="142.1094"/><text fill="#000000" font-family="sans-serif" font-size="13" lengthAdjust="spacing" textLength="183" x="193.5" y="137.3672">examGrading(resolutionDTO)</text><polygon fill="#181818" points="645.5,167.4199,655.5,171.4199,645.5,175.4199,649.5,171.4199" style="stroke:#181818;stroke-width:1.0;"/><line style="stroke:#181818;stroke-width:1.0;stroke-dasharray:2.0,2.0;" x1="398.5" x2="651.5" y1="171.4199" y2="171.4199"/><text fill="#000000" font-family="sans-serif" font-size="13" lengthAdjust="spacing" textLength="158" x="405.5" y="166.6777">fromDTO(resolutionDTO)</text><path d="M505,186.4199 L579,186.4199 L579,193.7305 L569,203.7305 L505,203.7305 L505,186.4199 " fill="#EEEEEE" style="stroke:#000000;stroke-width:1.5;"/><rect fill="none" height="75.9316" style="stroke:#000000;stroke-width:1.5;" width="474" x="505" y="186.4199"/><text fill="#000000" font-family="sans-serif" font-size="13" font-weight="bold" lengthAdjust="spacing" textLength="29" x="520" y="199.9883">loop</text><text fill="#000000" font-family="sans-serif" font-size="11" font-weight="bold" lengthAdjust="spacing" textLength="253" x="594" y="199.0547">[for each question_answer in resolutionDTO]</text><polygon fill="#181818" points="877.5,221.041,887.5,225.041,877.5,229.041,881.5,225.041" style="stroke:#181818;stroke-width:1.0;"/><line style="stroke:#181818;stroke-width:1.0;stroke-dasharray:2.0,2.0;" x1="667.5" x2="883.5" y1="225.041" y2="225.041"/><text fill="#000000" font-family="sans-serif" font-size="13" lengthAdjust="spacing" textLength="191" x="674.5" y="220.2988">ofIdentity(question_answer.id)</text><polygon fill="#181818" points="678.5,250.3516,668.5,254.3516,678.5,258.3516,674.5,254.3516" style="stroke:#181818;stroke-width:1.0;"/><line style="stroke:#181818;stroke-width:1.0;stroke-dasharray:2.0,2.0;" x1="672.5" x2="893.5" y1="254.3516" y2="254.3516"/><text fill="#000000" font-family="sans-serif" font-size="13" lengthAdjust="spacing" textLength="55" x="684.5" y="249.6094">question</text><polygon fill="#181818" points="409.5,286.6621,399.5,290.6621,409.5,294.6621,405.5,290.6621" style="stroke:#181818;stroke-width:1.0;"/><line style="stroke:#181818;stroke-width:1.0;stroke-dasharray:2.0,2.0;" x1="403.5" x2="661.5" y1="290.6621" y2="290.6621"/><text fill="#000000" font-family="sans-serif" font-size="13" lengthAdjust="spacing" textLength="62" x="415.5" y="285.9199">questions</text><polygon fill="#181818" points="1028.5,315.9727,1038.5,319.9727,1028.5,323.9727,1032.5,319.9727" style="stroke:#181818;stroke-width:1.0;"/><line style="stroke:#181818;stroke-width:1.0;stroke-dasharray:2.0,2.0;" x1="398.5" x2="1034.5" y1="319.9727" y2="319.9727"/><text fill="#000000" font-family="sans-serif" font-size="13" lengthAdjust="spacing" textLength="99" x="405.5" y="315.2305">grammarTools()</text><polygon fill="#181818" points="1200.5,345.2832,1210.5,349.2832,1200.5,353.2832,1204.5,349.2832" style="stroke:#181818;stroke-width:1.0;"/><line style="stroke:#181818;stroke-width:1.0;stroke-dasharray:2.0,2.0;" x1="1050.5" x2="1206.5" y1="349.2832" y2="349.2832"/><text fill="#000000" font-family="sans-serif" font-size="13" lengthAdjust="spacing" textLength="143" x="1057.5" y="344.541">formativeExamGrader()</text><polygon fill="#181818" points="1394.5,374.5938,1404.5,378.5938,1394.5,382.5938,1398.5,378.5938" style="stroke:#181818;stroke-width:1.0;"/><line style="stroke:#181818;stroke-width:1.0;stroke-dasharray:2.0,2.0;" x1="1222.5" x2="1400.5" y1="378.5938" y2="378.5938"/><text fill="#000000" font-family="sans-serif" font-size="13" lengthAdjust="spacing" textLength="46" x="1229.5" y="373.8516">create()</text><polygon fill="#181818" points="1394.5,444.5596,1404.5,448.5596,1394.5,452.5596,1398.5,448.5596" style="stroke:#181818;stroke-width:1.0;"/><line style="stroke:#181818;stroke-width:1.0;stroke-dasharray:2.0,2.0;" x1="398.5" x2="1400.5" y1="448.5596" y2="448.5596"/><text fill="#000000" font-family="sans-serif" font-size="13" lengthAdjust="spacing" textLength="248" x="405.5" y="443.8174">correctExam(resolutionDTO, questions)</text><path d="M1421,421.5938 L1421,461.5938 L1583,461.5938 L1583,431.5938 L1573,421.5938 L1421,421.5938 " fill="#FEFFDD" style="stroke:#181818;stroke-width:0.5;"/><path d="M1573,421.5938 L1573,431.5938 L1583,431.5938 L1573,421.5938 " fill="#FEFFDD" style="stroke:#181818;stroke-width:0.5;"/><text fill="#000000" font-family="sans-serif" font-size="13" lengthAdjust="spacing" textLength="137" x="1427" y="439.1621">exam correction done</text><text fill="#000000" font-family="sans-serif" font-size="13" lengthAdjust="spacing" textLength="137" x="1427" y="454.4727">by an external service</text><polygon fill="#181818" points="1571,484.5254,1581,488.5254,1571,492.5254,1575,488.5254" style="stroke:#181818;stroke-width:1.0;"/><line style="stroke:#181818;stroke-width:1.0;stroke-dasharray:2.0,2.0;" x1="1416.5" x2="1577" y1="488.5254" y2="488.5254"/><text fill="#000000" font-family="sans-serif" font-size="13" lengthAdjust="spacing" textLength="46" x="1423.5" y="483.7832">create()</text><polygon fill="#181818" points="409.5,543.8359,399.5,547.8359,409.5,551.8359,405.5,547.8359" style="stroke:#181818;stroke-width:1.0;"/><line style="stroke:#181818;stroke-width:1.0;stroke-dasharray:2.0,2.0;" x1="403.5" x2="1410.5" y1="547.8359" y2="547.8359"/><text fill="#000000" font-family="sans-serif" font-size="13" lengthAdjust="spacing" textLength="64" x="415.5" y="543.0938">resultDTO</text><polygon fill="#181818" points="197.5,573.1465,187.5,577.1465,197.5,581.1465,193.5,577.1465" style="stroke:#181818;stroke-width:1.0;"/><line style="stroke:#181818;stroke-width:1.0;stroke-dasharray:2.0,2.0;" x1="191.5" x2="392.5" y1="577.1465" y2="577.1465"/><text fill="#000000" font-family="sans-serif" font-size="13" lengthAdjust="spacing" textLength="64" x="203.5" y="572.4043">resultDTO</text><polygon fill="#181818" points="45.5,602.457,35.5,606.457,45.5,610.457,41.5,606.457" style="stroke:#181818;stroke-width:1.0;"/><line style="stroke:#181818;stroke-width:1.0;stroke-dasharray:2.0,2.0;" x1="39.5" x2="180.5" y1="606.457" y2="606.457"/><text fill="#000000" font-family="sans-serif" font-size="13" lengthAdjust="spacing" textLength="118" x="51.5" y="601.7148">show exam results</text><!--SRC=[VLJ1Rjim3BtxAtXR2gpxW1vssTeXbnLhazk0Gh5fHvWjkPIS9dy_qf9TAr6YaoqzFZq-KbIbjmIlVgZGU50ENFWiYbwHrwNk5Uzlr3zyijGfhm_uU5JTTYtOGTz6_R36asrR946NdjgKDW6_eBFjuBKrFpVFMzEflWznWtmdSNy6T09ymTuwpGcS1FV-HloVtl2BLDSf4Y5uz475COVOMDi-gNBYQh9KLPhUAz91bpYwTYXJTCneQ3rd8uZACryq5-xllxDvy01ks7NQEw0v-O95w8FoAEu2ByO9NDpZ06HUKQ9DiwAbOtSZU0uEPaDSO_1ugNZ9D3NPZeDo50bDy1uMgxMsXvfx1bMvX_TOYJTbt0UNInj8A9FGCPjHW4W9vM8jjbwBATgVLcTqttHrTy4mQulrXioAtCkC9-eBV8Mt6D5KOyf5aSyYbcLYTqM6DfXuMGnkHGvjFXlGhJ8ba8PTtYrH4jr4- -fbIuvDIglKjPcgoHhMp5vn5pDXISZWrGtdfTjls7X-l3XA5ImE9CjBXw8WIuIbb_pIXltwwNl6k7CPnl8cwMRlmpEQU3aSAciG_feTFtx3Xnx9g1PSUE1fxKMJQEC7VSsiMO8y-YjEZFCWnnixYgRXKLnnUDx_0h-VDuyFqAdJ3g5Npe62IjSraimQcJyirUyHjklCHD0NboLbcSP874FJ1EFHjRSVmSSGxOfbo-lYFm00]--></g></svg>