<?xml version="1.0" encoding="us-ascii" standalone="no"?><svg xmlns="http://www.w3.org/2000/svg" xmlns:xlink="http://www.w3.org/1999/xlink" contentStyleType="text/css" height="1145px" preserveAspectRatio="none" style="width:2654px;height:1145px;background:#FFFFFF;" version="1.1" viewBox="0 0 2654 1145" width="2654px" zoomAndPan="magnify"><defs/><g><rect fill="#FFFFFF" height="916.9375" style="stroke:#181818;stroke-width:1.0;" width="10" x="221.5" y="115.2871"/><rect fill="#FFFFFF" height="739.7637" style="stroke:#181818;stroke-width:1.0;" width="10" x="435.5" y="263.1504"/><rect fill="#FFFFFF" height="73.9316" style="stroke:#181818;stroke-width:1.0;" width="10" x="685.5" y="307.7715"/><rect fill="#FFFFFF" height="148.5527" style="stroke:#181818;stroke-width:1.0;" width="10" x="1822" y="825.0508"/><rect fill="#FFFFFF" height="119.9316" style="stroke:#181818;stroke-width:1.0;" width="10" x="2108" y="411.0137"/><rect fill="#FFFFFF" height="30" style="stroke:#181818;stroke-width:1.0;" width="10" x="2470" y="464.6348"/><rect fill="none" height="76.6211" style="stroke:#000000;stroke-width:1.5;" width="734" x="1914" y="426.0137"/><rect fill="none" height="162.8633" style="stroke:#000000;stroke-width:1.5;" width="587.5" x="10" y="604.5664"/><rect fill="none" height="75.9316" style="stroke:#000000;stroke-width:1.5;" width="1425.5" x="314.5" y="869.3613"/><line style="stroke:#181818;stroke-width:0.5;stroke-dasharray:5.0,5.0;" x1="38" x2="38" y1="83.9766" y2="1050.2246"/><line style="stroke:#181818;stroke-width:0.5;stroke-dasharray:5.0,5.0;" x1="226.5" x2="226.5" y1="83.9766" y2="1050.2246"/><line style="stroke:#181818;stroke-width:0.5;stroke-dasharray:5.0,5.0;" x1="440.5" x2="440.5" y1="83.9766" y2="1050.2246"/><line style="stroke:#181818;stroke-width:0.5;stroke-dasharray:5.0,5.0;" x1="690.5" x2="690.5" y1="83.9766" y2="1050.2246"/><line style="stroke:#181818;stroke-width:0.5;stroke-dasharray:5.0,5.0;" x1="921" x2="921" y1="83.9766" y2="1050.2246"/><line style="stroke:#181818;stroke-width:0.5;stroke-dasharray:5.0,5.0;" x1="1064" x2="1064" y1="83.9766" y2="1050.2246"/><line style="stroke:#181818;stroke-width:0.5;stroke-dasharray:5.0,5.0;" x1="1208" x2="1208" y1="83.9766" y2="1050.2246"/><line style="stroke:#181818;stroke-width:0.5;stroke-dasharray:5.0,5.0;" x1="1351" x2="1351" y1="83.9766" y2="1050.2246"/><line style="stroke:#181818;stroke-width:0.5;stroke-dasharray:5.0,5.0;" x1="1491" x2="1491" y1="83.9766" y2="1050.2246"/><line style="stroke:#181818;stroke-width:0.5;stroke-dasharray:5.0,5.0;" x1="1648" x2="1648" y1="83.9766" y2="1050.2246"/><line style="stroke:#181818;stroke-width:0.5;stroke-dasharray:5.0,5.0;" x1="1827" x2="1827" y1="83.9766" y2="1050.2246"/><line style="stroke:#181818;stroke-width:0.5;stroke-dasharray:5.0,5.0;" x1="2113" x2="2113" y1="83.9766" y2="1050.2246"/><line style="stroke:#181818;stroke-width:0.5;stroke-dasharray:5.0,5.0;" x1="2475" x2="2475" y1="83.9766" y2="1050.2246"/><text fill="#000000" font-family="sans-serif" font-size="14" lengthAdjust="spacing" textLength="31" x="20" y="81.0234">User</text><ellipse cx="38.5" cy="15.9883" fill="#E2E2F0" rx="8" ry="8" style="stroke:#181818;stroke-width:0.5;"/><path d="M38.5,23.9883 L38.5,50.9883 M25.5,31.9883 L51.5,31.9883 M38.5,50.9883 L25.5,65.9883 M38.5,50.9883 L51.5,65.9883 " fill="none" style="stroke:#181818;stroke-width:0.5;"/><text fill="#000000" font-family="sans-serif" font-size="14" lengthAdjust="spacing" textLength="31" x="20" y="1062.7598">User</text><ellipse cx="38.5" cy="1074.2129" fill="#E2E2F0" rx="8" ry="8" style="stroke:#181818;stroke-width:0.5;"/><path d="M38.5,1082.2129 L38.5,1109.2129 M25.5,1090.2129 L51.5,1090.2129 M38.5,1109.2129 L25.5,1124.2129 M38.5,1109.2129 L51.5,1124.2129 " fill="none" style="stroke:#181818;stroke-width:0.5;"/><rect fill="#E2E2F0" height="46.9766" rx="2.5" ry="2.5" style="stroke:#181818;stroke-width:0.5;" width="176" x="138.5" y="36"/><text fill="#000000" font-family="sans-serif" font-size="14" font-style="italic" lengthAdjust="spacing" textLength="101" x="176" y="56.5352">&#171;presentation&#187;</text><text fill="#000000" font-family="sans-serif" font-size="14" lengthAdjust="spacing" textLength="162" x="145.5" y="73.0234">ScheduleExtraLectureUI</text><rect fill="#E2E2F0" height="46.9766" rx="2.5" ry="2.5" style="stroke:#181818;stroke-width:0.5;" width="176" x="138.5" y="1049.2246"/><text fill="#000000" font-family="sans-serif" font-size="14" font-style="italic" lengthAdjust="spacing" textLength="101" x="176" y="1069.7598">&#171;presentation&#187;</text><text fill="#000000" font-family="sans-serif" font-size="14" lengthAdjust="spacing" textLength="162" x="145.5" y="1086.248">ScheduleExtraLectureUI</text><rect fill="#E2E2F0" height="46.9766" rx="2.5" ry="2.5" style="stroke:#181818;stroke-width:0.5;" width="232" x="324.5" y="36"/><text fill="#000000" font-family="sans-serif" font-size="14" font-style="italic" lengthAdjust="spacing" textLength="90" x="395.5" y="56.5352">&#171;application&#187;</text><text fill="#000000" font-family="sans-serif" font-size="14" lengthAdjust="spacing" textLength="218" x="331.5" y="73.0234">ScheduleExtraLectureController</text><rect fill="#E2E2F0" height="46.9766" rx="2.5" ry="2.5" style="stroke:#181818;stroke-width:0.5;" width="232" x="324.5" y="1049.2246"/><text fill="#000000" font-family="sans-serif" font-size="14" font-style="italic" lengthAdjust="spacing" textLength="90" x="395.5" y="1069.7598">&#171;application&#187;</text><text fill="#000000" font-family="sans-serif" font-size="14" lengthAdjust="spacing" textLength="218" x="331.5" y="1086.248">ScheduleExtraLectureController</text><rect fill="#E2E2F0" height="63.4648" rx="2.5" ry="2.5" style="stroke:#181818;stroke-width:0.5;" width="80" x="650.5" y="19.5117"/><text fill="#000000" font-family="sans-serif" font-size="14" font-style="italic" lengthAdjust="spacing" textLength="66" x="657.5" y="40.0469">&#171;domain&#187;</text><text fill="#000000" font-family="sans-serif" font-size="14" lengthAdjust="spacing" textLength="51" x="665" y="56.5352">lecture:</text><text fill="#000000" font-family="sans-serif" font-size="14" lengthAdjust="spacing" textLength="50" x="665.5" y="73.0234">Lecture</text><rect fill="#E2E2F0" height="63.4648" rx="2.5" ry="2.5" style="stroke:#181818;stroke-width:0.5;" width="80" x="650.5" y="1049.2246"/><text fill="#000000" font-family="sans-serif" font-size="14" font-style="italic" lengthAdjust="spacing" textLength="66" x="657.5" y="1069.7598">&#171;domain&#187;</text><text fill="#000000" font-family="sans-serif" font-size="14" lengthAdjust="spacing" textLength="51" x="665" y="1086.248">lecture:</text><text fill="#000000" font-family="sans-serif" font-size="14" lengthAdjust="spacing" textLength="50" x="665.5" y="1102.7363">Lecture</text><rect fill="#E2E2F0" height="63.4648" rx="2.5" ry="2.5" style="stroke:#181818;stroke-width:0.5;" width="131" x="856" y="19.5117"/><text fill="#000000" font-family="sans-serif" font-size="14" font-style="italic" lengthAdjust="spacing" textLength="66" x="888.5" y="40.0469">&#171;domain&#187;</text><text fill="#000000" font-family="sans-serif" font-size="14" lengthAdjust="spacing" textLength="117" x="863" y="56.5352">recurringPattern:</text><text fill="#000000" font-family="sans-serif" font-size="14" lengthAdjust="spacing" textLength="116" x="863.5" y="73.0234">RecurringPattern</text><rect fill="#E2E2F0" height="63.4648" rx="2.5" ry="2.5" style="stroke:#181818;stroke-width:0.5;" width="131" x="856" y="1049.2246"/><text fill="#000000" font-family="sans-serif" font-size="14" font-style="italic" lengthAdjust="spacing" textLength="66" x="888.5" y="1069.7598">&#171;domain&#187;</text><text fill="#000000" font-family="sans-serif" font-size="14" lengthAdjust="spacing" textLength="117" x="863" y="1086.248">recurringPattern:</text><text fill="#000000" font-family="sans-serif" font-size="14" lengthAdjust="spacing" textLength="116" x="863.5" y="1102.7363">RecurringPattern</text><rect fill="#E2E2F0" height="63.4648" rx="2.5" ry="2.5" style="stroke:#181818;stroke-width:0.5;" width="134" x="997" y="19.5117"/><text fill="#000000" font-family="sans-serif" font-size="14" font-style="italic" lengthAdjust="spacing" textLength="66" x="1031" y="40.0469">&#171;domain&#187;</text><text fill="#000000" font-family="sans-serif" font-size="14" lengthAdjust="spacing" textLength="78" x="1025" y="56.5352">participant:</text><text fill="#000000" font-family="sans-serif" font-size="14" lengthAdjust="spacing" textLength="120" x="1004" y="73.0234">lectureParticipant</text><rect fill="#E2E2F0" height="63.4648" rx="2.5" ry="2.5" style="stroke:#181818;stroke-width:0.5;" width="134" x="997" y="1049.2246"/><text fill="#000000" font-family="sans-serif" font-size="14" font-style="italic" lengthAdjust="spacing" textLength="66" x="1031" y="1069.7598">&#171;domain&#187;</text><text fill="#000000" font-family="sans-serif" font-size="14" lengthAdjust="spacing" textLength="78" x="1025" y="1086.248">participant:</text><text fill="#000000" font-family="sans-serif" font-size="14" lengthAdjust="spacing" textLength="120" x="1004" y="1102.7363">lectureParticipant</text><text fill="#000000" font-family="sans-serif" font-size="14" font-style="italic" lengthAdjust="spacing" textLength="84" x="1163" y="64.5352">&#171;repository&#187;</text><text fill="#000000" font-family="sans-serif" font-size="14" lengthAdjust="spacing" textLength="128" x="1141" y="81.0234">TeacherRepository</text><path d="M1190,15 C1190,5 1208,5 1208,5 C1208,5 1226,5 1226,15 L1226,41 C1226,51 1208,51 1208,51 C1208,51 1190,51 1190,41 L1190,15 " fill="#E2E2F0" style="stroke:#181818;stroke-width:1.5;"/><path d="M1190,15 C1190,25 1208,25 1208,25 C1208,25 1226,25 1226,15 " fill="none" style="stroke:#181818;stroke-width:1.5;"/><text fill="#000000" font-family="sans-serif" font-size="14" font-style="italic" lengthAdjust="spacing" textLength="84" x="1163" y="1062.7598">&#171;repository&#187;</text><text fill="#000000" font-family="sans-serif" font-size="14" lengthAdjust="spacing" textLength="128" x="1141" y="1079.248">TeacherRepository</text><path d="M1190,1092.2012 C1190,1082.2012 1208,1082.2012 1208,1082.2012 C1208,1082.2012 1226,1082.2012 1226,1092.2012 L1226,1118.2012 C1226,1128.2012 1208,1128.2012 1208,1128.2012 C1208,1128.2012 1190,1128.2012 1190,1118.2012 L1190,1092.2012 " fill="#E2E2F0" style="stroke:#181818;stroke-width:1.5;"/><path d="M1190,1092.2012 C1190,1102.2012 1208,1102.2012 1208,1102.2012 C1208,1102.2012 1226,1102.2012 1226,1092.2012 " fill="none" style="stroke:#181818;stroke-width:1.5;"/><text fill="#000000" font-family="sans-serif" font-size="14" font-style="italic" lengthAdjust="spacing" textLength="84" x="1306" y="64.5352">&#171;repository&#187;</text><text fill="#000000" font-family="sans-serif" font-size="14" lengthAdjust="spacing" textLength="126" x="1285" y="81.0234">StudentRepository</text><path d="M1333,15 C1333,5 1351,5 1351,5 C1351,5 1369,5 1369,15 L1369,41 C1369,51 1351,51 1351,51 C1351,51 1333,51 1333,41 L1333,15 " fill="#E2E2F0" style="stroke:#181818;stroke-width:1.5;"/><path d="M1333,15 C1333,25 1351,25 1351,25 C1351,25 1369,25 1369,15 " fill="none" style="stroke:#181818;stroke-width:1.5;"/><text fill="#000000" font-family="sans-serif" font-size="14" font-style="italic" lengthAdjust="spacing" textLength="84" x="1306" y="1062.7598">&#171;repository&#187;</text><text fill="#000000" font-family="sans-serif" font-size="14" lengthAdjust="spacing" textLength="126" x="1285" y="1079.248">StudentRepository</text><path d="M1333,1092.2012 C1333,1082.2012 1351,1082.2012 1351,1082.2012 C1351,1082.2012 1369,1082.2012 1369,1092.2012 L1369,1118.2012 C1369,1128.2012 1351,1128.2012 1351,1128.2012 C1351,1128.2012 1333,1128.2012 1333,1118.2012 L1333,1092.2012 " fill="#E2E2F0" style="stroke:#181818;stroke-width:1.5;"/><path d="M1333,1092.2012 C1333,1102.2012 1351,1102.2012 1351,1102.2012 C1351,1102.2012 1369,1102.2012 1369,1092.2012 " fill="none" style="stroke:#181818;stroke-width:1.5;"/><text fill="#000000" font-family="sans-serif" font-size="14" font-style="italic" lengthAdjust="spacing" textLength="84" x="1446.5" y="64.5352">&#171;repository&#187;</text><text fill="#000000" font-family="sans-serif" font-size="14" lengthAdjust="spacing" textLength="123" x="1427" y="81.0234">LectureRepository</text><path d="M1473.5,15 C1473.5,5 1491.5,5 1491.5,5 C1491.5,5 1509.5,5 1509.5,15 L1509.5,41 C1509.5,51 1491.5,51 1491.5,51 C1491.5,51 1473.5,51 1473.5,41 L1473.5,15 " fill="#E2E2F0" style="stroke:#181818;stroke-width:1.5;"/><path d="M1473.5,15 C1473.5,25 1491.5,25 1491.5,25 C1491.5,25 1509.5,25 1509.5,15 " fill="none" style="stroke:#181818;stroke-width:1.5;"/><text fill="#000000" font-family="sans-serif" font-size="14" font-style="italic" lengthAdjust="spacing" textLength="84" x="1446.5" y="1062.7598">&#171;repository&#187;</text><text fill="#000000" font-family="sans-serif" font-size="14" lengthAdjust="spacing" textLength="123" x="1427" y="1079.248">LectureRepository</text><path d="M1473.5,1092.2012 C1473.5,1082.2012 1491.5,1082.2012 1491.5,1082.2012 C1491.5,1082.2012 1509.5,1082.2012 1509.5,1092.2012 L1509.5,1118.2012 C1509.5,1128.2012 1491.5,1128.2012 1491.5,1128.2012 C1491.5,1128.2012 1473.5,1128.2012 1473.5,1118.2012 L1473.5,1092.2012 " fill="#E2E2F0" style="stroke:#181818;stroke-width:1.5;"/><path d="M1473.5,1092.2012 C1473.5,1102.2012 1491.5,1102.2012 1491.5,1102.2012 C1491.5,1102.2012 1509.5,1102.2012 1509.5,1092.2012 " fill="none" style="stroke:#181818;stroke-width:1.5;"/><text fill="#000000" font-family="sans-serif" font-size="14" font-style="italic" lengthAdjust="spacing" textLength="84" x="1603" y="64.5352">&#171;repository&#187;</text><text fill="#000000" font-family="sans-serif" font-size="14" lengthAdjust="spacing" textLength="158" x="1566" y="81.0234">LectureParticipantRepo</text><path d="M1630,15 C1630,5 1648,5 1648,5 C1648,5 1666,5 1666,15 L1666,41 C1666,51 1648,51 1648,51 C1648,51 1630,51 1630,41 L1630,15 " fill="#E2E2F0" style="stroke:#181818;stroke-width:1.5;"/><path d="M1630,15 C1630,25 1648,25 1648,25 C1648,25 1666,25 1666,15 " fill="none" style="stroke:#181818;stroke-width:1.5;"/><text fill="#000000" font-family="sans-serif" font-size="14" font-style="italic" lengthAdjust="spacing" textLength="84" x="1603" y="1062.7598">&#171;repository&#187;</text><text fill="#000000" font-family="sans-serif" font-size="14" lengthAdjust="spacing" textLength="158" x="1566" y="1079.248">LectureParticipantRepo</text><path d="M1630,1092.2012 C1630,1082.2012 1648,1082.2012 1648,1082.2012 C1648,1082.2012 1666,1082.2012 1666,1092.2012 L1666,1118.2012 C1666,1128.2012 1648,1128.2012 1648,1128.2012 C1648,1128.2012 1630,1128.2012 1630,1118.2012 L1630,1092.2012 " fill="#E2E2F0" style="stroke:#181818;stroke-width:1.5;"/><path d="M1630,1092.2012 C1630,1102.2012 1648,1102.2012 1648,1102.2012 C1648,1102.2012 1666,1102.2012 1666,1092.2012 " fill="none" style="stroke:#181818;stroke-width:1.5;"/><rect fill="#E2E2F0" height="46.9766" rx="2.5" ry="2.5" style="stroke:#181818;stroke-width:0.5;" width="174" x="1740" y="36"/><text fill="#000000" font-family="sans-serif" font-size="14" font-style="italic" lengthAdjust="spacing" textLength="90" x="1782" y="56.5352">&#171;application&#187;</text><text fill="#000000" font-family="sans-serif" font-size="14" lengthAdjust="spacing" textLength="160" x="1747" y="73.0234">CheckAvailabiltyService</text><rect fill="#E2E2F0" height="46.9766" rx="2.5" ry="2.5" style="stroke:#181818;stroke-width:0.5;" width="174" x="1740" y="1049.2246"/><text fill="#000000" font-family="sans-serif" font-size="14" font-style="italic" lengthAdjust="spacing" textLength="90" x="1782" y="1069.7598">&#171;application&#187;</text><text fill="#000000" font-family="sans-serif" font-size="14" lengthAdjust="spacing" textLength="160" x="1747" y="1086.248">CheckAvailabiltyService</text><rect fill="#E2E2F0" height="46.9766" rx="2.5" ry="2.5" style="stroke:#181818;stroke-width:0.5;" width="378" x="1924" y="36"/><text fill="#000000" font-family="sans-serif" font-size="14" font-style="italic" lengthAdjust="spacing" textLength="90" x="2068" y="56.5352">&#171;application&#187;</text><text fill="#000000" font-family="sans-serif" font-size="14" lengthAdjust="spacing" textLength="364" x="1931" y="73.0234">StudentUsernameMecanographicNumberDTOMapper</text><rect fill="#E2E2F0" height="46.9766" rx="2.5" ry="2.5" style="stroke:#181818;stroke-width:0.5;" width="378" x="1924" y="1049.2246"/><text fill="#000000" font-family="sans-serif" font-size="14" font-style="italic" lengthAdjust="spacing" textLength="90" x="2068" y="1069.7598">&#171;application&#187;</text><text fill="#000000" font-family="sans-serif" font-size="14" lengthAdjust="spacing" textLength="364" x="1931" y="1086.248">StudentUsernameMecanographicNumberDTOMapper</text><rect fill="#E2E2F0" height="46.9766" rx="2.5" ry="2.5" style="stroke:#181818;stroke-width:0.5;" width="326" x="2312" y="36"/><text fill="#000000" font-family="sans-serif" font-size="14" font-style="italic" lengthAdjust="spacing" textLength="90" x="2430" y="56.5352">&#171;application&#187;</text><text fill="#000000" font-family="sans-serif" font-size="14" lengthAdjust="spacing" textLength="312" x="2319" y="73.0234">StudentUsernameMecanographicNumberDTO</text><rect fill="#E2E2F0" height="46.9766" rx="2.5" ry="2.5" style="stroke:#181818;stroke-width:0.5;" width="326" x="2312" y="1049.2246"/><text fill="#000000" font-family="sans-serif" font-size="14" font-style="italic" lengthAdjust="spacing" textLength="90" x="2430" y="1069.7598">&#171;application&#187;</text><text fill="#000000" font-family="sans-serif" font-size="14" lengthAdjust="spacing" textLength="312" x="2319" y="1086.248">StudentUsernameMecanographicNumberDTO</text><rect fill="#FFFFFF" height="916.9375" style="stroke:#181818;stroke-width:1.0;" width="10" x="221.5" y="115.2871"/><rect fill="#FFFFFF" height="739.7637" style="stroke:#181818;stroke-width:1.0;" width="10" x="435.5" y="263.1504"/><rect fill="#FFFFFF" height="73.9316" style="stroke:#181818;stroke-width:1.0;" width="10" x="685.5" y="307.7715"/><rect fill="#FFFFFF" height="148.5527" style="stroke:#181818;stroke-width:1.0;" width="10" x="1822" y="825.0508"/><rect fill="#FFFFFF" height="119.9316" style="stroke:#181818;stroke-width:1.0;" width="10" x="2108" y="411.0137"/><rect fill="#FFFFFF" height="30" style="stroke:#181818;stroke-width:1.0;" width="10" x="2470" y="464.6348"/><polygon fill="#181818" points="209.5,111.2871,219.5,115.2871,209.5,119.2871,213.5,115.2871" style="stroke:#181818;stroke-width:1.0;"/><line style="stroke:#181818;stroke-width:1.0;" x1="38.5" x2="215.5" y1="115.2871" y2="115.2871"/><text fill="#000000" font-family="sans-serif" font-size="13" lengthAdjust="spacing" textLength="85" x="45.5" y="110.5449">create lecture</text><polygon fill="#181818" points="428.5,140.5977,438.5,144.5977,428.5,148.5977,432.5,144.5977" style="stroke:#181818;stroke-width:1.0;"/><line style="stroke:#181818;stroke-width:1.0;" x1="231.5" x2="434.5" y1="144.5977" y2="144.5977"/><text fill="#000000" font-family="sans-serif" font-size="13" lengthAdjust="spacing" textLength="38" x="238.5" y="139.8555">create</text><polygon fill="#181818" points="49.5,169.9082,39.5,173.9082,49.5,177.9082,45.5,173.9082" style="stroke:#181818;stroke-width:1.0;"/><line style="stroke:#181818;stroke-width:1.0;stroke-dasharray:2.0,2.0;" x1="43.5" x2="220.5" y1="173.9082" y2="173.9082"/><text fill="#000000" font-family="sans-serif" font-size="13" lengthAdjust="spacing" textLength="131" x="55.5" y="169.166">ask user information</text><polygon fill="#181818" points="209.5,214.5293,219.5,218.5293,209.5,222.5293,213.5,218.5293" style="stroke:#181818;stroke-width:1.0;"/><line style="stroke:#181818;stroke-width:1.0;" x1="38.5" x2="215.5" y1="218.5293" y2="218.5293"/><text fill="#000000" font-family="sans-serif" font-size="13" lengthAdjust="spacing" textLength="99" x="45.5" y="198.4766">date, startTime,</text><text fill="#000000" font-family="sans-serif" font-size="13" lengthAdjust="spacing" textLength="53" x="45.5" y="213.7871">duration</text><polygon fill="#181818" points="423.5,259.1504,433.5,263.1504,423.5,267.1504,427.5,263.1504" style="stroke:#181818;stroke-width:1.0;"/><line style="stroke:#181818;stroke-width:1.0;" x1="231.5" x2="429.5" y1="263.1504" y2="263.1504"/><text fill="#000000" font-family="sans-serif" font-size="13" lengthAdjust="spacing" textLength="157" x="238.5" y="243.0977">createLectures(startDate,</text><text fill="#000000" font-family="sans-serif" font-size="13" lengthAdjust="spacing" textLength="185" x="238.5" y="258.4082">endDate, startTime, duration)</text><polygon fill="#181818" points="673.5,303.7715,683.5,307.7715,673.5,311.7715,677.5,307.7715" style="stroke:#181818;stroke-width:1.0;"/><line style="stroke:#181818;stroke-width:1.0;" x1="445.5" x2="679.5" y1="307.7715" y2="307.7715"/><text fill="#000000" font-family="sans-serif" font-size="13" lengthAdjust="spacing" textLength="217" x="452.5" y="287.7188">createLectures(startDate, endDate,</text><text fill="#000000" font-family="sans-serif" font-size="13" lengthAdjust="spacing" textLength="125" x="452.5" y="303.0293">startTime, duration)</text><polygon fill="#181818" points="909.5,348.3926,919.5,352.3926,909.5,356.3926,913.5,352.3926" style="stroke:#181818;stroke-width:1.0;"/><line style="stroke:#181818;stroke-width:1.0;" x1="695.5" x2="915.5" y1="352.3926" y2="352.3926"/><text fill="#000000" font-family="sans-serif" font-size="13" lengthAdjust="spacing" textLength="198" x="702.5" y="332.3398">buildPattern(startDate,endDate,</text><text fill="#000000" font-family="sans-serif" font-size="13" lengthAdjust="spacing" textLength="125" x="702.5" y="347.6504">startTime, duration)</text><polygon fill="#181818" points="456.5,377.7031,446.5,381.7031,456.5,385.7031,452.5,381.7031" style="stroke:#181818;stroke-width:1.0;"/><line style="stroke:#181818;stroke-width:1.0;stroke-dasharray:2.0,2.0;" x1="450.5" x2="689.5" y1="381.7031" y2="381.7031"/><text fill="#000000" font-family="sans-serif" font-size="13" lengthAdjust="spacing" textLength="43" x="462.5" y="376.9609">lecture</text><polygon fill="#181818" points="2096,407.0137,2106,411.0137,2096,415.0137,2100,411.0137" style="stroke:#181818;stroke-width:1.0;"/><line style="stroke:#181818;stroke-width:1.0;stroke-dasharray:2.0,2.0;" x1="445.5" x2="2102" y1="411.0137" y2="411.0137"/><text fill="#000000" font-family="sans-serif" font-size="13" lengthAdjust="spacing" textLength="99" x="452.5" y="406.2715">toDto(students)</text><path d="M1914,426.0137 L1988,426.0137 L1988,433.3242 L1978,443.3242 L1914,443.3242 L1914,426.0137 " fill="#EEEEEE" style="stroke:#000000;stroke-width:1.5;"/><rect fill="none" height="76.6211" style="stroke:#000000;stroke-width:1.5;" width="734" x="1914" y="426.0137"/><text fill="#000000" font-family="sans-serif" font-size="13" font-weight="bold" lengthAdjust="spacing" textLength="29" x="1929" y="439.582">loop</text><text fill="#000000" font-family="sans-serif" font-size="11" font-weight="bold" lengthAdjust="spacing" textLength="131" x="2003" y="438.6484">[for each user in users]</text><polygon fill="#181818" points="2458,460.6348,2468,464.6348,2458,468.6348,2462,464.6348" style="stroke:#181818;stroke-width:1.0;"/><line style="stroke:#181818;stroke-width:1.0;stroke-dasharray:2.0,2.0;" x1="2118" x2="2464" y1="464.6348" y2="464.6348"/><text fill="#000000" font-family="sans-serif" font-size="13" lengthAdjust="spacing" textLength="101" x="2125" y="459.8926">create(students)</text><polygon fill="#181818" points="456.5,526.9453,446.5,530.9453,456.5,534.9453,452.5,530.9453" style="stroke:#181818;stroke-width:1.0;"/><line style="stroke:#181818;stroke-width:1.0;stroke-dasharray:2.0,2.0;" x1="450.5" x2="2112" y1="530.9453" y2="530.9453"/><text fill="#000000" font-family="sans-serif" font-size="13" lengthAdjust="spacing" textLength="78" x="462.5" y="526.2031">studentsDto</text><polygon fill="#181818" points="242.5,556.2559,232.5,560.2559,242.5,564.2559,238.5,560.2559" style="stroke:#181818;stroke-width:1.0;"/><line style="stroke:#181818;stroke-width:1.0;stroke-dasharray:2.0,2.0;" x1="236.5" x2="434.5" y1="560.2559" y2="560.2559"/><text fill="#000000" font-family="sans-serif" font-size="13" lengthAdjust="spacing" textLength="78" x="248.5" y="555.5137">studentsDto</text><polygon fill="#181818" points="49.5,585.5664,39.5,589.5664,49.5,593.5664,45.5,589.5664" style="stroke:#181818;stroke-width:1.0;"/><line style="stroke:#181818;stroke-width:1.0;stroke-dasharray:2.0,2.0;" x1="43.5" x2="220.5" y1="589.5664" y2="589.5664"/><text fill="#000000" font-family="sans-serif" font-size="13" lengthAdjust="spacing" textLength="55" x="55.5" y="584.8242">students</text><path d="M10,604.5664 L84,604.5664 L84,611.877 L74,621.877 L10,621.877 L10,604.5664 " fill="#EEEEEE" style="stroke:#000000;stroke-width:1.5;"/><rect fill="none" height="162.8633" style="stroke:#000000;stroke-width:1.5;" width="587.5" x="10" y="604.5664"/><text fill="#000000" font-family="sans-serif" font-size="13" font-weight="bold" lengthAdjust="spacing" textLength="29" x="25" y="618.1348">loop</text><a href="invite==true" target="_top" title="invite==true" xlink:actuate="onRequest" xlink:href="invite==true" xlink:show="new" xlink:title="invite==true" xlink:type="simple"><text fill="#0000FF" font-family="sans-serif" font-size="11" font-weight="bold" lengthAdjust="spacing" text-decoration="underline" textLength="72" x="99" y="617.2012">invite==true</text></a><polygon fill="#181818" points="209.5,639.1875,219.5,643.1875,209.5,647.1875,213.5,643.1875" style="stroke:#181818;stroke-width:1.0;"/><line style="stroke:#181818;stroke-width:1.0;" x1="38.5" x2="215.5" y1="643.1875" y2="643.1875"/><text fill="#000000" font-family="sans-serif" font-size="13" lengthAdjust="spacing" textLength="55" x="45.5" y="638.4453">students</text><polygon fill="#181818" points="423.5,668.498,433.5,672.498,423.5,676.498,427.5,672.498" style="stroke:#181818;stroke-width:1.0;"/><line style="stroke:#181818;stroke-width:1.0;" x1="231.5" x2="429.5" y1="672.498" y2="672.498"/><text fill="#000000" font-family="sans-serif" font-size="13" lengthAdjust="spacing" textLength="153" x="238.5" y="667.7559">inviteStudents(students)</text><line style="stroke:#181818;stroke-width:1.0;" x1="445.5" x2="487.5" y1="706.8086" y2="706.8086"/><line style="stroke:#181818;stroke-width:1.0;" x1="487.5" x2="487.5" y1="706.8086" y2="719.8086"/><line style="stroke:#181818;stroke-width:1.0;" x1="440.5" x2="487.5" y1="719.8086" y2="719.8086"/><polygon fill="#181818" points="450.5,715.8086,440.5,719.8086,450.5,723.8086,446.5,719.8086" style="stroke:#181818;stroke-width:1.0;"/><text fill="#000000" font-family="sans-serif" font-size="13" lengthAdjust="spacing" textLength="133" x="452.5" y="702.0664">addInvited(students);</text><polygon fill="#181818" points="49.5,755.4297,39.5,759.4297,49.5,763.4297,45.5,759.4297" style="stroke:#181818;stroke-width:1.0;"/><line style="stroke:#181818;stroke-width:1.0;stroke-dasharray:2.0,2.0;" x1="43.5" x2="220.5" y1="759.4297" y2="759.4297"/><text fill="#000000" font-family="sans-serif" font-size="13" lengthAdjust="spacing" textLength="113" x="55.5" y="739.377">asks if it wants to</text><text fill="#000000" font-family="sans-serif" font-size="13" lengthAdjust="spacing" textLength="135" x="55.5" y="754.6875">add a new participant</text><polygon fill="#181818" points="423.5,791.7402,433.5,795.7402,423.5,799.7402,427.5,795.7402" style="stroke:#181818;stroke-width:1.0;"/><line style="stroke:#181818;stroke-width:1.0;" x1="231.5" x2="429.5" y1="795.7402" y2="795.7402"/><text fill="#000000" font-family="sans-serif" font-size="13" lengthAdjust="spacing" textLength="64" x="238.5" y="790.998">schedule()</text><polygon fill="#181818" points="1810,821.0508,1820,825.0508,1810,829.0508,1814,825.0508" style="stroke:#181818;stroke-width:1.0;"/><line style="stroke:#181818;stroke-width:1.0;" x1="445.5" x2="1816" y1="825.0508" y2="825.0508"/><text fill="#000000" font-family="sans-serif" font-size="13" lengthAdjust="spacing" textLength="266" x="452.5" y="820.3086">checkAvailability(teacher,recurringPattern)</text><polygon fill="#181818" points="456.5,850.3613,446.5,854.3613,456.5,858.3613,452.5,854.3613" style="stroke:#181818;stroke-width:1.0;"/><line style="stroke:#181818;stroke-width:1.0;stroke-dasharray:2.0,2.0;" x1="450.5" x2="1821" y1="854.3613" y2="854.3613"/><text fill="#000000" font-family="sans-serif" font-size="13" lengthAdjust="spacing" textLength="117" x="462.5" y="849.6191">returns availability</text><path d="M314.5,869.3613 L388.5,869.3613 L388.5,876.6719 L378.5,886.6719 L314.5,886.6719 L314.5,869.3613 " fill="#EEEEEE" style="stroke:#000000;stroke-width:1.5;"/><rect fill="none" height="75.9316" style="stroke:#000000;stroke-width:1.5;" width="1425.5" x="314.5" y="869.3613"/><text fill="#000000" font-family="sans-serif" font-size="13" font-weight="bold" lengthAdjust="spacing" textLength="29" x="329.5" y="882.9297">loop</text><text fill="#000000" font-family="sans-serif" font-size="11" font-weight="bold" lengthAdjust="spacing" textLength="142" x="403.5" y="881.9961">[for each invited student]</text><polygon fill="#181818" points="1052,903.9824,1062,907.9824,1052,911.9824,1056,907.9824" style="stroke:#181818;stroke-width:1.0;"/><line style="stroke:#181818;stroke-width:1.0;stroke-dasharray:2.0,2.0;" x1="445.5" x2="1058" y1="907.9824" y2="907.9824"/><text fill="#000000" font-family="sans-serif" font-size="13" lengthAdjust="spacing" textLength="208" x="452.5" y="903.2402">createParticipant(student,lecture)</text><polygon fill="#181818" points="1636,933.293,1646,937.293,1636,941.293,1640,937.293" style="stroke:#181818;stroke-width:1.0;"/><line style="stroke:#181818;stroke-width:1.0;stroke-dasharray:2.0,2.0;" x1="445.5" x2="1642" y1="937.293" y2="937.293"/><text fill="#000000" font-family="sans-serif" font-size="13" lengthAdjust="spacing" textLength="104" x="452.5" y="932.5508">save(participant)</text><polygon fill="#181818" points="1815,969.6035,1825,973.6035,1815,977.6035,1819,973.6035" style="stroke:#181818;stroke-width:1.0;"/><line style="stroke:#181818;stroke-width:1.0;" x1="445.5" x2="1821" y1="973.6035" y2="973.6035"/><text fill="#000000" font-family="sans-serif" font-size="13" lengthAdjust="spacing" textLength="212" x="452.5" y="968.8613">schedule(invited,recurringPattern)</text><polygon fill="#181818" points="242.5,998.9141,232.5,1002.9141,242.5,1006.9141,238.5,1002.9141" style="stroke:#181818;stroke-width:1.0;"/><line style="stroke:#181818;stroke-width:1.0;stroke-dasharray:2.0,2.0;" x1="236.5" x2="439.5" y1="1002.9141" y2="1002.9141"/><text fill="#000000" font-family="sans-serif" font-size="13" lengthAdjust="spacing" textLength="43" x="248.5" y="998.1719">lecture</text><polygon fill="#181818" points="49.5,1028.2246,39.5,1032.2246,49.5,1036.2246,45.5,1032.2246" style="stroke:#181818;stroke-width:1.0;"/><line style="stroke:#181818;stroke-width:1.0;stroke-dasharray:2.0,2.0;" x1="43.5" x2="225.5" y1="1032.2246" y2="1032.2246"/><text fill="#000000" font-family="sans-serif" font-size="13" lengthAdjust="spacing" textLength="159" x="55.5" y="1027.4824">display Schedule Success</text><!--SRC=[bPPVJzim4C3V_Iaidee4qe1Dshg2X60FI6D359xMFLoJWrfDxSXsolhjTqxin4wJ8lBGncVVx-pxvvYra2LesF0IiZMyujpk2kGQCyjCEsTMaAit8L_v2nG66OFCAisV3MeEXb-x4QEbLcIY16dvF5jXNXNuuv_Ly9DWbSRdExUMVcUpKgD1QS4A9Q-kkD8vWSxU9TmeQRKgYiPgD9hDe2mBaQN0ymHuL3IGwK9wt96ZU2aXShK1qMbVfDhaaKfhSi43M8jQ4kQn9wfv_dsVzpdbHGD2-LqyTC9uSv5ud_k5vM1X2GRv4m9vJJzYgOoWaEmSmtP2KjRjN0lusW7cjiefBYd0TC9t0TwpAQ3eXCE0Rtk0wCIr6b7AdcYGTFOfyVBD2hFrzHP40KjHsDqSzLPaMEUiauRnSFwSzJAoyODBUWaRlCSCf7hLKAv4zglQB57VFls-9r2Jdlvj17t-SRI3khyHuWLZTHtoqojNP5EUQGIBmVkkPCNM2Pxl6AU7rj3Ag8Y21gkdSsmLkZNrJ6DbTdhQc06pvfLh14A-ABsfTnMj2xkX2EC9vHAT-abiw7KXyqftgqUtupF2J6hTsngpa2Zpspuny8vhuDZsmnEP8iEX3HoosjfSo56huMcj1_VptXCCaktGCgPyMOaYzyF8yaSCnrsHGjITQsWZKP27fcCNqJvzHa-vLRTMJNnVCAdzGgcIKo9mrtP2OjJ_PjX13JMPyuQSJPVm8IOZ5biIhMLZntDpyHIvz93RsgC6atJWCVJ00TmbHvGacyT8lN8AovgJrDxy8-HMMBoyjBh2lmFAeSPQtTvU-eNLy7pJCIDkJUiZqOSylwiHUQVxlNFzVbQvXir6ceVXueKBoz-e4T9jfIZ9YS-1ItoBcpuBOHjh5yP_CKoEcoNf0P9-JncLt0p2xYR-dZpfN_IzRX9ps53gz0nf90T8mo6onVOBfGb97a9ug0ptFmf2WKIY49WJl_hu4B5tjP8hOOkJI7gujzNHZOlgeEVRCFaZZpWyIgB4vMoilk86DdnvzN8l5wOiODT-QV9vbMLe38kqwQxy3m00]--></g></svg>