<?xml version="1.0" encoding="us-ascii" standalone="no"?><svg xmlns="http://www.w3.org/2000/svg" xmlns:xlink="http://www.w3.org/1999/xlink" contentStyleType="text/css" height="784px" preserveAspectRatio="none" style="width:738px;height:784px;background:#FFFFFF;" version="1.1" viewBox="0 0 738 784" width="738.5px" zoomAndPan="magnify"><defs/><g><!--class Runnable--><g id="elem_Runnable"><rect codeLine="52" fill="#F1F1F1" height="26.9707" id="Runnable" rx="1.25" ry="1.25" style="stroke:#181818;stroke-width:0.25;" width="57" x="309.5" y="591.5"/><ellipse cx="317" cy="600.9854" fill="#B4A7E5" rx="5.5" ry="5.5" style="stroke:#181818;stroke-width:0.5;"/><path d="M317.4766,599.3057 L317.4766,602.6338 L318.3359,602.6338 Q318.6406,602.6338 318.7734,602.751 Q318.9063,602.8682 318.9063,603.0635 Q318.9063,603.251 318.7734,603.3682 Q318.6406,603.4854 318.3359,603.4854 L315.7656,603.4854 Q315.4609,603.4854 315.3281,603.3682 Q315.1953,603.251 315.1953,603.0557 Q315.1953,602.8682 315.3281,602.751 Q315.4609,602.6338 315.7656,602.6338 L316.625,602.6338 L316.625,599.3057 L315.7656,599.3057 Q315.4609,599.3057 315.3281,599.1885 Q315.1953,599.0713 315.1953,598.876 Q315.1953,598.6885 315.3281,598.5713 Q315.4609,598.4541 315.7656,598.4541 L318.3359,598.4541 Q318.6406,598.4541 318.7734,598.5713 Q318.9063,598.6885 318.9063,598.876 Q318.9063,599.0713 318.7734,599.1885 Q318.6406,599.3057 318.3359,599.3057 L317.4766,599.3057 Z " fill="#000000"/><text fill="#000000" font-family="sans-serif" font-size="9" font-style="italic" lengthAdjust="spacing" textLength="39" x="325" y="604.7119">Runnable</text><line style="stroke:#181818;stroke-width:0.25;" x1="310" x2="366" y1="610.4707" y2="610.4707"/><line style="stroke:#181818;stroke-width:0.25;" x1="310" x2="366" y1="614.4707" y2="614.4707"/></g><!--class MessageProtocol--><g id="elem_MessageProtocol"><rect codeLine="53" fill="#F1F1F1" height="26.9707" id="MessageProtocol" rx="1.25" ry="1.25" style="stroke:#181818;stroke-width:0.25;" width="88.5" x="110.75" y="486.5"/><ellipse cx="118.25" cy="495.9854" fill="#B4A7E5" rx="5.5" ry="5.5" style="stroke:#181818;stroke-width:0.5;"/><path d="M118.7266,494.3057 L118.7266,497.6338 L119.5859,497.6338 Q119.8906,497.6338 120.0234,497.751 Q120.1563,497.8682 120.1563,498.0635 Q120.1563,498.251 120.0234,498.3682 Q119.8906,498.4854 119.5859,498.4854 L117.0156,498.4854 Q116.7109,498.4854 116.5781,498.3682 Q116.4453,498.251 116.4453,498.0557 Q116.4453,497.8682 116.5781,497.751 Q116.7109,497.6338 117.0156,497.6338 L117.875,497.6338 L117.875,494.3057 L117.0156,494.3057 Q116.7109,494.3057 116.5781,494.1885 Q116.4453,494.0713 116.4453,493.876 Q116.4453,493.6885 116.5781,493.5713 Q116.7109,493.4541 117.0156,493.4541 L119.5859,493.4541 Q119.8906,493.4541 120.0234,493.5713 Q120.1563,493.6885 120.1563,493.876 Q120.1563,494.0713 120.0234,494.1885 Q119.8906,494.3057 119.5859,494.3057 L118.7266,494.3057 Z " fill="#000000"/><text fill="#000000" font-family="sans-serif" font-size="9" font-style="italic" lengthAdjust="spacing" textLength="70.5" x="126.25" y="499.7119">MessageProtocol</text><line style="stroke:#181818;stroke-width:0.25;" x1="111.25" x2="198.75" y1="505.4707" y2="505.4707"/><line style="stroke:#181818;stroke-width:0.25;" x1="111.25" x2="198.75" y1="509.4707" y2="509.4707"/></g><!--class BoardRepository--><g id="elem_BoardRepository"><rect codeLine="12" fill="#F1F1F1" height="68.8828" id="BoardRepository" rx="1.25" ry="1.25" style="stroke:#181818;stroke-width:0.25;" width="225" x="353" y="108.5"/><ellipse cx="428.625" cy="117.9854" fill="#B4A7E5" rx="5.5" ry="5.5" style="stroke:#181818;stroke-width:0.5;"/><path d="M429.1016,116.3057 L429.1016,119.6338 L429.9609,119.6338 Q430.2656,119.6338 430.3984,119.751 Q430.5313,119.8682 430.5313,120.0635 Q430.5313,120.251 430.3984,120.3682 Q430.2656,120.4854 429.9609,120.4854 L427.3906,120.4854 Q427.0859,120.4854 426.9531,120.3682 Q426.8203,120.251 426.8203,120.0557 Q426.8203,119.8682 426.9531,119.751 Q427.0859,119.6338 427.3906,119.6338 L428.25,119.6338 L428.25,116.3057 L427.3906,116.3057 Q427.0859,116.3057 426.9531,116.1885 Q426.8203,116.0713 426.8203,115.876 Q426.8203,115.6885 426.9531,115.5713 Q427.0859,115.4541 427.3906,115.4541 L429.9609,115.4541 Q430.2656,115.4541 430.3984,115.5713 Q430.5313,115.6885 430.5313,115.876 Q430.5313,116.0713 430.3984,116.1885 Q430.2656,116.3057 429.9609,116.3057 L429.1016,116.3057 Z " fill="#000000"/><text fill="#000000" font-family="sans-serif" font-size="9" font-style="italic" lengthAdjust="spacing" textLength="67.5" x="439.875" y="121.7119">BoardRepository</text><line style="stroke:#181818;stroke-width:0.25;" x1="353.5" x2="577.5" y1="127.4707" y2="127.4707"/><line style="stroke:#181818;stroke-width:0.25;" x1="353.5" x2="577.5" y1="131.4707" y2="131.4707"/><text fill="#000000" font-family="sans-serif" font-size="9" lengthAdjust="spacing" textLength="217" x="357" y="144.1826">+listBoardsUserOwnsNotArchived(SystemUser owner)</text><text fill="#000000" font-family="sans-serif" font-size="9" lengthAdjust="spacing" textLength="203" x="357" y="158.1533">+listBoardsUserOwnsArchived(SystemUser owner)</text><text fill="#000000" font-family="sans-serif" font-size="9" lengthAdjust="spacing" textLength="78" x="357" y="172.124">+ofIdentity(final I id)</text></g><!--class AbstractUI--><g id="elem_AbstractUI"><rect codeLine="19" fill="#F1F1F1" height="26.9707" id="AbstractUI" rx="1.25" ry="1.25" style="stroke:#181818;stroke-width:0.25;" width="59" x="3.5" y="248.5"/><ellipse cx="11" cy="257.9854" fill="#ADD1B2" rx="5.5" ry="5.5" style="stroke:#181818;stroke-width:0.5;"/><path d="M12.3828,255.9229 Q12.4609,255.8135 12.5547,255.7588 Q12.6484,255.7041 12.7578,255.7041 Q12.9453,255.7041 13.0625,255.8369 Q13.1797,255.9619 13.1797,256.2666 L13.1797,256.9932 Q13.1797,257.2979 13.0625,257.4307 Q12.9453,257.5635 12.7578,257.5635 Q12.5859,257.5635 12.4844,257.4619 Q12.3828,257.3682 12.3281,257.1104 Q12.3047,256.9307 12.2109,256.8369 Q12.0469,256.6494 11.7422,256.54 Q11.4375,256.4307 11.125,256.4307 Q10.7422,256.4307 10.4219,256.5947 Q10.1094,256.7588 9.8594,257.1338 Q9.6172,257.5088 9.6172,258.0244 L9.6172,258.5713 Q9.6172,259.1885 10.0625,259.6025 Q10.5078,260.0088 11.3047,260.0088 Q11.7734,260.0088 12.1016,259.8838 Q12.2969,259.8057 12.5078,259.5869 Q12.6406,259.4541 12.7109,259.415 Q12.7891,259.376 12.8906,259.376 Q13.0547,259.376 13.1797,259.5088 Q13.3125,259.6338 13.3125,259.8057 Q13.3125,259.9775 13.1406,260.1807 Q12.8906,260.4697 12.4922,260.6338 Q11.9531,260.8604 11.3047,260.8604 Q10.5469,260.8604 9.9453,260.5479 Q9.4531,260.2979 9.1094,259.7666 Q8.7656,259.2275 8.7656,258.5869 L8.7656,258.0088 Q8.7656,257.3447 9.0703,256.7744 Q9.3828,256.1963 9.9297,255.8916 Q10.4766,255.5791 11.0938,255.5791 Q11.4609,255.5791 11.7813,255.665 Q12.1094,255.7432 12.3828,255.9229 Z " fill="#000000"/><text fill="#000000" font-family="sans-serif" font-size="9" lengthAdjust="spacing" textLength="41" x="19" y="261.7119">AbstractUI</text><line style="stroke:#181818;stroke-width:0.25;" x1="4" x2="62" y1="267.4707" y2="267.4707"/><line style="stroke:#181818;stroke-width:0.25;" x1="4" x2="62" y1="271.4707" y2="271.4707"/></g><!--class ArchiveBoardUI--><g id="elem_ArchiveBoardUI"><rect codeLine="23" fill="#F1F1F1" height="54.9121" id="ArchiveBoardUI" rx="1.25" ry="1.25" style="stroke:#181818;stroke-width:0.25;" width="80" x="54" y="115.5"/><ellipse cx="61.5" cy="124.9854" fill="#ADD1B2" rx="5.5" ry="5.5" style="stroke:#181818;stroke-width:0.5;"/><path d="M62.8828,122.9229 Q62.9609,122.8135 63.0547,122.7588 Q63.1484,122.7041 63.2578,122.7041 Q63.4453,122.7041 63.5625,122.8369 Q63.6797,122.9619 63.6797,123.2666 L63.6797,123.9932 Q63.6797,124.2979 63.5625,124.4307 Q63.4453,124.5635 63.2578,124.5635 Q63.0859,124.5635 62.9844,124.4619 Q62.8828,124.3682 62.8281,124.1104 Q62.8047,123.9307 62.7109,123.8369 Q62.5469,123.6494 62.2422,123.54 Q61.9375,123.4307 61.625,123.4307 Q61.2422,123.4307 60.9219,123.5947 Q60.6094,123.7588 60.3594,124.1338 Q60.1172,124.5088 60.1172,125.0244 L60.1172,125.5713 Q60.1172,126.1885 60.5625,126.6025 Q61.0078,127.0088 61.8047,127.0088 Q62.2734,127.0088 62.6016,126.8838 Q62.7969,126.8057 63.0078,126.5869 Q63.1406,126.4541 63.2109,126.415 Q63.2891,126.376 63.3906,126.376 Q63.5547,126.376 63.6797,126.5088 Q63.8125,126.6338 63.8125,126.8057 Q63.8125,126.9775 63.6406,127.1807 Q63.3906,127.4697 62.9922,127.6338 Q62.4531,127.8604 61.8047,127.8604 Q61.0469,127.8604 60.4453,127.5479 Q59.9531,127.2979 59.6094,126.7666 Q59.2656,126.2275 59.2656,125.5869 L59.2656,125.0088 Q59.2656,124.3447 59.5703,123.7744 Q59.8828,123.1963 60.4297,122.8916 Q60.9766,122.5791 61.5938,122.5791 Q61.9609,122.5791 62.2813,122.665 Q62.6094,122.7432 62.8828,122.9229 Z " fill="#000000"/><text fill="#000000" font-family="sans-serif" font-size="9" lengthAdjust="spacing" textLength="62" x="69.5" y="128.7119">ArchiveBoardUI</text><line style="stroke:#181818;stroke-width:0.25;" x1="54.5" x2="133.5" y1="134.4707" y2="134.4707"/><line style="stroke:#181818;stroke-width:0.25;" x1="54.5" x2="133.5" y1="138.4707" y2="138.4707"/><text fill="#000000" font-family="sans-serif" font-size="9" lengthAdjust="spacing" textLength="43.5" x="58" y="151.1826">#doShow()</text><text fill="#000000" font-family="sans-serif" font-size="9" lengthAdjust="spacing" textLength="45.5" x="58" y="165.1533">+headline()</text></g><!--class ArchiveBoardController--><g id="elem_ArchiveBoardController"><rect codeLine="29" fill="#F1F1F1" height="68.8828" id="ArchiveBoardController" rx="1.25" ry="1.25" style="stroke:#181818;stroke-width:0.25;" width="149.5" x="80.25" y="227.5"/><ellipse cx="105.625" cy="236.9854" fill="#ADD1B2" rx="5.5" ry="5.5" style="stroke:#181818;stroke-width:0.5;"/><path d="M107.0078,234.9229 Q107.0859,234.8135 107.1797,234.7588 Q107.2734,234.7041 107.3828,234.7041 Q107.5703,234.7041 107.6875,234.8369 Q107.8047,234.9619 107.8047,235.2666 L107.8047,235.9932 Q107.8047,236.2979 107.6875,236.4307 Q107.5703,236.5635 107.3828,236.5635 Q107.2109,236.5635 107.1094,236.4619 Q107.0078,236.3682 106.9531,236.1104 Q106.9297,235.9307 106.8359,235.8369 Q106.6719,235.6494 106.3672,235.54 Q106.0625,235.4307 105.75,235.4307 Q105.3672,235.4307 105.0469,235.5947 Q104.7344,235.7588 104.4844,236.1338 Q104.2422,236.5088 104.2422,237.0244 L104.2422,237.5713 Q104.2422,238.1885 104.6875,238.6025 Q105.1328,239.0088 105.9297,239.0088 Q106.3984,239.0088 106.7266,238.8838 Q106.9219,238.8057 107.1328,238.5869 Q107.2656,238.4541 107.3359,238.415 Q107.4141,238.376 107.5156,238.376 Q107.6797,238.376 107.8047,238.5088 Q107.9375,238.6338 107.9375,238.8057 Q107.9375,238.9775 107.7656,239.1807 Q107.5156,239.4697 107.1172,239.6338 Q106.5781,239.8604 105.9297,239.8604 Q105.1719,239.8604 104.5703,239.5479 Q104.0781,239.2979 103.7344,238.7666 Q103.3906,238.2275 103.3906,237.5869 L103.3906,237.0088 Q103.3906,236.3447 103.6953,235.7744 Q104.0078,235.1963 104.5547,234.8916 Q105.1016,234.5791 105.7188,234.5791 Q106.0859,234.5791 106.4063,234.665 Q106.7344,234.7432 107.0078,234.9229 Z " fill="#000000"/><text fill="#000000" font-family="sans-serif" font-size="9" lengthAdjust="spacing" textLength="92.5" x="116.875" y="240.7119">ArchiveBoardController</text><line style="stroke:#181818;stroke-width:0.25;" x1="80.75" x2="229.25" y1="246.4707" y2="246.4707"/><line style="stroke:#181818;stroke-width:0.25;" x1="80.75" x2="229.25" y1="250.4707" y2="250.4707"/><text fill="#000000" font-family="sans-serif" font-size="9" lengthAdjust="spacing" textLength="141.5" x="84.25" y="263.1826">+listBoardsUserOwnsNotArchived()</text><text fill="#000000" font-family="sans-serif" font-size="9" lengthAdjust="spacing" textLength="140.5" x="84.25" y="277.1533">+archivedBoards(String boardTitle)</text><text fill="#000000" font-family="sans-serif" font-size="9" lengthAdjust="spacing" textLength="60" x="84.25" y="291.124">+closeSocket()</text></g><!--class ArchiveBoardHandler--><g id="elem_ArchiveBoardHandler"><rect codeLine="37" fill="#F1F1F1" height="54.9121" id="ArchiveBoardHandler" rx="1.25" ry="1.25" style="stroke:#181818;stroke-width:0.25;" width="103" x="336" y="234.5"/><ellipse cx="343.5" cy="243.9854" fill="#ADD1B2" rx="5.5" ry="5.5" style="stroke:#181818;stroke-width:0.5;"/><path d="M344.8828,241.9229 Q344.9609,241.8135 345.0547,241.7588 Q345.1484,241.7041 345.2578,241.7041 Q345.4453,241.7041 345.5625,241.8369 Q345.6797,241.9619 345.6797,242.2666 L345.6797,242.9932 Q345.6797,243.2979 345.5625,243.4307 Q345.4453,243.5635 345.2578,243.5635 Q345.0859,243.5635 344.9844,243.4619 Q344.8828,243.3682 344.8281,243.1104 Q344.8047,242.9307 344.7109,242.8369 Q344.5469,242.6494 344.2422,242.54 Q343.9375,242.4307 343.625,242.4307 Q343.2422,242.4307 342.9219,242.5947 Q342.6094,242.7588 342.3594,243.1338 Q342.1172,243.5088 342.1172,244.0244 L342.1172,244.5713 Q342.1172,245.1885 342.5625,245.6025 Q343.0078,246.0088 343.8047,246.0088 Q344.2734,246.0088 344.6016,245.8838 Q344.7969,245.8057 345.0078,245.5869 Q345.1406,245.4541 345.2109,245.415 Q345.2891,245.376 345.3906,245.376 Q345.5547,245.376 345.6797,245.5088 Q345.8125,245.6338 345.8125,245.8057 Q345.8125,245.9775 345.6406,246.1807 Q345.3906,246.4697 344.9922,246.6338 Q344.4531,246.8604 343.8047,246.8604 Q343.0469,246.8604 342.4453,246.5479 Q341.9531,246.2979 341.6094,245.7666 Q341.2656,245.2275 341.2656,244.5869 L341.2656,244.0088 Q341.2656,243.3447 341.5703,242.7744 Q341.8828,242.1963 342.4297,241.8916 Q342.9766,241.5791 343.5938,241.5791 Q343.9609,241.5791 344.2813,241.665 Q344.6094,241.7432 344.8828,241.9229 Z " fill="#000000"/><text fill="#000000" font-family="sans-serif" font-size="9" lengthAdjust="spacing" textLength="85" x="351.5" y="247.7119">ArchiveBoardHandler</text><line style="stroke:#181818;stroke-width:0.25;" x1="336.5" x2="438.5" y1="253.4707" y2="253.4707"/><line style="stroke:#181818;stroke-width:0.25;" x1="336.5" x2="438.5" y1="257.4707" y2="257.4707"/><text fill="#000000" font-family="sans-serif" font-size="9" lengthAdjust="spacing" textLength="24.5" x="340" y="270.1826">+run()</text><text fill="#000000" font-family="sans-serif" font-size="9" lengthAdjust="spacing" textLength="81" x="340" y="284.1533">-sendBoardOwned()</text></g><!--class MenuRequest--><g id="elem_MenuRequest"><rect codeLine="43" fill="#F1F1F1" height="40.9414" id="MenuRequest" rx="1.25" ry="1.25" style="stroke:#181818;stroke-width:0.25;" width="138.5" x="318.25" y="367.5"/><ellipse cx="356.375" cy="376.9854" fill="#ADD1B2" rx="5.5" ry="5.5" style="stroke:#181818;stroke-width:0.5;"/><path d="M357.7578,374.9229 Q357.8359,374.8135 357.9297,374.7588 Q358.0234,374.7041 358.1328,374.7041 Q358.3203,374.7041 358.4375,374.8369 Q358.5547,374.9619 358.5547,375.2666 L358.5547,375.9932 Q358.5547,376.2979 358.4375,376.4307 Q358.3203,376.5635 358.1328,376.5635 Q357.9609,376.5635 357.8594,376.4619 Q357.7578,376.3682 357.7031,376.1104 Q357.6797,375.9307 357.5859,375.8369 Q357.4219,375.6494 357.1172,375.54 Q356.8125,375.4307 356.5,375.4307 Q356.1172,375.4307 355.7969,375.5947 Q355.4844,375.7588 355.2344,376.1338 Q354.9922,376.5088 354.9922,377.0244 L354.9922,377.5713 Q354.9922,378.1885 355.4375,378.6025 Q355.8828,379.0088 356.6797,379.0088 Q357.1484,379.0088 357.4766,378.8838 Q357.6719,378.8057 357.8828,378.5869 Q358.0156,378.4541 358.0859,378.415 Q358.1641,378.376 358.2656,378.376 Q358.4297,378.376 358.5547,378.5088 Q358.6875,378.6338 358.6875,378.8057 Q358.6875,378.9775 358.5156,379.1807 Q358.2656,379.4697 357.8672,379.6338 Q357.3281,379.8604 356.6797,379.8604 Q355.9219,379.8604 355.3203,379.5479 Q354.8281,379.2979 354.4844,378.7666 Q354.1406,378.2275 354.1406,377.5869 L354.1406,377.0088 Q354.1406,376.3447 354.4453,375.7744 Q354.7578,375.1963 355.3047,374.8916 Q355.8516,374.5791 356.4688,374.5791 Q356.8359,374.5791 357.1563,374.665 Q357.4844,374.7432 357.7578,374.9229 Z " fill="#000000"/><text fill="#000000" font-family="sans-serif" font-size="9" lengthAdjust="spacing" textLength="56" x="367.625" y="380.7119">MenuRequest</text><line style="stroke:#181818;stroke-width:0.25;" x1="318.75" x2="456.25" y1="386.4707" y2="386.4707"/><line style="stroke:#181818;stroke-width:0.25;" x1="318.75" x2="456.25" y1="390.4707" y2="390.4707"/><text fill="#000000" font-family="sans-serif" font-size="9" lengthAdjust="spacing" textLength="130.5" x="322.25" y="403.1826">+clientBySock(InetAddress addr)</text></g><!--class Thread--><g id="elem_Thread"><rect codeLine="48" fill="#F1F1F1" height="26.9707" id="Thread" rx="1.25" ry="1.25" style="stroke:#181818;stroke-width:0.25;" width="47" x="341" y="486.5"/><ellipse cx="348.5" cy="495.9854" fill="#ADD1B2" rx="5.5" ry="5.5" style="stroke:#181818;stroke-width:0.5;"/><path d="M349.8828,493.9229 Q349.9609,493.8135 350.0547,493.7588 Q350.1484,493.7041 350.2578,493.7041 Q350.4453,493.7041 350.5625,493.8369 Q350.6797,493.9619 350.6797,494.2666 L350.6797,494.9932 Q350.6797,495.2979 350.5625,495.4307 Q350.4453,495.5635 350.2578,495.5635 Q350.0859,495.5635 349.9844,495.4619 Q349.8828,495.3682 349.8281,495.1104 Q349.8047,494.9307 349.7109,494.8369 Q349.5469,494.6494 349.2422,494.54 Q348.9375,494.4307 348.625,494.4307 Q348.2422,494.4307 347.9219,494.5947 Q347.6094,494.7588 347.3594,495.1338 Q347.1172,495.5088 347.1172,496.0244 L347.1172,496.5713 Q347.1172,497.1885 347.5625,497.6025 Q348.0078,498.0088 348.8047,498.0088 Q349.2734,498.0088 349.6016,497.8838 Q349.7969,497.8057 350.0078,497.5869 Q350.1406,497.4541 350.2109,497.415 Q350.2891,497.376 350.3906,497.376 Q350.5547,497.376 350.6797,497.5088 Q350.8125,497.6338 350.8125,497.8057 Q350.8125,497.9775 350.6406,498.1807 Q350.3906,498.4697 349.9922,498.6338 Q349.4531,498.8604 348.8047,498.8604 Q348.0469,498.8604 347.4453,498.5479 Q346.9531,498.2979 346.6094,497.7666 Q346.2656,497.2275 346.2656,496.5869 L346.2656,496.0088 Q346.2656,495.3447 346.5703,494.7744 Q346.8828,494.1963 347.4297,493.8916 Q347.9766,493.5791 348.5938,493.5791 Q348.9609,493.5791 349.2813,493.665 Q349.6094,493.7432 349.8828,493.9229 Z " fill="#000000"/><text fill="#000000" font-family="sans-serif" font-size="9" lengthAdjust="spacing" textLength="29" x="356.5" y="499.7119">Thread</text><line style="stroke:#181818;stroke-width:0.25;" x1="341.5" x2="387.5" y1="505.4707" y2="505.4707"/><line style="stroke:#181818;stroke-width:0.25;" x1="341.5" x2="387.5" y1="509.4707" y2="509.4707"/></g><!--class SBProtocol--><g id="elem_SBProtocol"><rect codeLine="55" fill="#F1F1F1" height="82.8535" id="SBProtocol" rx="1.25" ry="1.25" style="stroke:#181818;stroke-width:0.25;" width="149" x="80.5" y="346.5"/><ellipse cx="129.375" cy="355.9854" fill="#ADD1B2" rx="5.5" ry="5.5" style="stroke:#181818;stroke-width:0.5;"/><path d="M130.7578,353.9229 Q130.8359,353.8135 130.9297,353.7588 Q131.0234,353.7041 131.1328,353.7041 Q131.3203,353.7041 131.4375,353.8369 Q131.5547,353.9619 131.5547,354.2666 L131.5547,354.9932 Q131.5547,355.2979 131.4375,355.4307 Q131.3203,355.5635 131.1328,355.5635 Q130.9609,355.5635 130.8594,355.4619 Q130.7578,355.3682 130.7031,355.1104 Q130.6797,354.9307 130.5859,354.8369 Q130.4219,354.6494 130.1172,354.54 Q129.8125,354.4307 129.5,354.4307 Q129.1172,354.4307 128.7969,354.5947 Q128.4844,354.7588 128.2344,355.1338 Q127.9922,355.5088 127.9922,356.0244 L127.9922,356.5713 Q127.9922,357.1885 128.4375,357.6025 Q128.8828,358.0088 129.6797,358.0088 Q130.1484,358.0088 130.4766,357.8838 Q130.6719,357.8057 130.8828,357.5869 Q131.0156,357.4541 131.0859,357.415 Q131.1641,357.376 131.2656,357.376 Q131.4297,357.376 131.5547,357.5088 Q131.6875,357.6338 131.6875,357.8057 Q131.6875,357.9775 131.5156,358.1807 Q131.2656,358.4697 130.8672,358.6338 Q130.3281,358.8604 129.6797,358.8604 Q128.9219,358.8604 128.3203,358.5479 Q127.8281,358.2979 127.4844,357.7666 Q127.1406,357.2275 127.1406,356.5869 L127.1406,356.0088 Q127.1406,355.3447 127.4453,354.7744 Q127.7578,354.1963 128.3047,353.8916 Q128.8516,353.5791 129.4688,353.5791 Q129.8359,353.5791 130.1563,353.665 Q130.4844,353.7432 130.7578,353.9229 Z " fill="#000000"/><text fill="#000000" font-family="sans-serif" font-size="9" lengthAdjust="spacing" textLength="45" x="140.625" y="359.7119">SBProtocol</text><line style="stroke:#181818;stroke-width:0.25;" x1="81" x2="229" y1="365.4707" y2="365.4707"/><line style="stroke:#181818;stroke-width:0.25;" x1="81" x2="229" y1="369.4707" y2="369.4707"/><text fill="#000000" font-family="sans-serif" font-size="9" lengthAdjust="spacing" textLength="76.5" x="84.5" y="382.1826">+setCode(int code)</text><text fill="#000000" font-family="sans-serif" font-size="9" lengthAdjust="spacing" textLength="141" x="84.5" y="396.1533">+setContentFromString(String cStr)</text><text fill="#000000" font-family="sans-serif" font-size="9" lengthAdjust="spacing" textLength="120.5" x="84.5" y="410.124">+send(DataOutputStream out)</text><text fill="#000000" font-family="sans-serif" font-size="9" lengthAdjust="spacing" textLength="89" x="84.5" y="424.0947">+getContentAsString()</text></g><!--class JpaBoardRepository--><g id="elem_JpaBoardRepository"><rect codeLine="64" fill="#F1F1F1" height="54.9121" id="JpaBoardRepository" rx="1.25" ry="1.25" style="stroke:#181818;stroke-width:0.25;" width="225" x="353" y="3.5"/><ellipse cx="421.625" cy="12.9854" fill="#ADD1B2" rx="5.5" ry="5.5" style="stroke:#181818;stroke-width:0.5;"/><path d="M423.0078,10.9229 Q423.0859,10.8135 423.1797,10.7588 Q423.2734,10.7041 423.3828,10.7041 Q423.5703,10.7041 423.6875,10.8369 Q423.8047,10.9619 423.8047,11.2666 L423.8047,11.9932 Q423.8047,12.2979 423.6875,12.4307 Q423.5703,12.5635 423.3828,12.5635 Q423.2109,12.5635 423.1094,12.4619 Q423.0078,12.3682 422.9531,12.1104 Q422.9297,11.9307 422.8359,11.8369 Q422.6719,11.6494 422.3672,11.54 Q422.0625,11.4307 421.75,11.4307 Q421.3672,11.4307 421.0469,11.5947 Q420.7344,11.7588 420.4844,12.1338 Q420.2422,12.5088 420.2422,13.0244 L420.2422,13.5713 Q420.2422,14.1885 420.6875,14.6025 Q421.1328,15.0088 421.9297,15.0088 Q422.3984,15.0088 422.7266,14.8838 Q422.9219,14.8057 423.1328,14.5869 Q423.2656,14.4541 423.3359,14.415 Q423.4141,14.376 423.5156,14.376 Q423.6797,14.376 423.8047,14.5088 Q423.9375,14.6338 423.9375,14.8057 Q423.9375,14.9775 423.7656,15.1807 Q423.5156,15.4697 423.1172,15.6338 Q422.5781,15.8604 421.9297,15.8604 Q421.1719,15.8604 420.5703,15.5479 Q420.0781,15.2979 419.7344,14.7666 Q419.3906,14.2275 419.3906,13.5869 L419.3906,13.0088 Q419.3906,12.3447 419.6953,11.7744 Q420.0078,11.1963 420.5547,10.8916 Q421.1016,10.5791 421.7188,10.5791 Q422.0859,10.5791 422.4063,10.665 Q422.7344,10.7432 423.0078,10.9229 Z " fill="#000000"/><text fill="#000000" font-family="sans-serif" font-size="9" lengthAdjust="spacing" textLength="81.5" x="432.875" y="16.7119">JpaBoardRepository</text><line style="stroke:#181818;stroke-width:0.25;" x1="353.5" x2="577.5" y1="22.4707" y2="22.4707"/><line style="stroke:#181818;stroke-width:0.25;" x1="353.5" x2="577.5" y1="26.4707" y2="26.4707"/><text fill="#000000" font-family="sans-serif" font-size="9" lengthAdjust="spacing" textLength="217" x="357" y="39.1826">+listBoardsUserOwnsNotArchived(SystemUser owner)</text><text fill="#000000" font-family="sans-serif" font-size="9" lengthAdjust="spacing" textLength="203" x="357" y="53.1533">+listBoardsUserOwnsArchived(SystemUser owner)</text></g><!--class SystemUser--><g id="elem_SystemUser"><rect codeLine="70" fill="#F1F1F1" height="40.9414" id="SystemUser" rx="1.25" ry="1.25" style="stroke:#181818;stroke-width:0.25;" width="88" x="357" y="740"/><ellipse cx="374.175" cy="749.4854" fill="#ADD1B2" rx="5.5" ry="5.5" style="stroke:#181818;stroke-width:0.5;"/><path d="M375.5578,747.4229 Q375.6359,747.3135 375.7297,747.2588 Q375.8234,747.2041 375.9328,747.2041 Q376.1203,747.2041 376.2375,747.3369 Q376.3547,747.4619 376.3547,747.7666 L376.3547,748.4932 Q376.3547,748.7979 376.2375,748.9307 Q376.1203,749.0635 375.9328,749.0635 Q375.7609,749.0635 375.6594,748.9619 Q375.5578,748.8682 375.5031,748.6104 Q375.4797,748.4307 375.3859,748.3369 Q375.2219,748.1494 374.9172,748.04 Q374.6125,747.9307 374.3,747.9307 Q373.9172,747.9307 373.5969,748.0947 Q373.2844,748.2588 373.0344,748.6338 Q372.7922,749.0088 372.7922,749.5244 L372.7922,750.0713 Q372.7922,750.6885 373.2375,751.1025 Q373.6828,751.5088 374.4797,751.5088 Q374.9484,751.5088 375.2766,751.3838 Q375.4719,751.3057 375.6828,751.0869 Q375.8156,750.9541 375.8859,750.915 Q375.9641,750.876 376.0656,750.876 Q376.2297,750.876 376.3547,751.0088 Q376.4875,751.1338 376.4875,751.3057 Q376.4875,751.4775 376.3156,751.6807 Q376.0656,751.9697 375.6672,752.1338 Q375.1281,752.3604 374.4797,752.3604 Q373.7219,752.3604 373.1203,752.0479 Q372.6281,751.7979 372.2844,751.2666 Q371.9406,750.7275 371.9406,750.0869 L371.9406,749.5088 Q371.9406,748.8447 372.2453,748.2744 Q372.5578,747.6963 373.1047,747.3916 Q373.6516,747.0791 374.2688,747.0791 Q374.6359,747.0791 374.9563,747.165 Q375.2844,747.2432 375.5578,747.4229 Z " fill="#000000"/><text fill="#000000" font-family="sans-serif" font-size="9" lengthAdjust="spacing" textLength="48.5" x="384.325" y="753.2119">SystemUser</text><line style="stroke:#181818;stroke-width:0.25;" x1="357.5" x2="444.5" y1="758.9707" y2="758.9707"/><line style="stroke:#181818;stroke-width:0.25;" x1="357.5" x2="444.5" y1="762.9707" y2="762.9707"/><text fill="#000000" font-family="sans-serif" font-size="9" lengthAdjust="spacing" textLength="80" x="361" y="775.6826">+getUserLoggedIn()</text></g><!--class ShareBoardService--><g id="elem_ShareBoardService"><rect codeLine="75" fill="#F1F1F1" height="54.9121" id="ShareBoardService" rx="1.25" ry="1.25" style="stroke:#181818;stroke-width:0.25;" width="225" x="510" y="360.5"/><ellipse cx="580.375" cy="369.9854" fill="#ADD1B2" rx="5.5" ry="5.5" style="stroke:#181818;stroke-width:0.5;"/><path d="M581.7578,367.9229 Q581.8359,367.8135 581.9297,367.7588 Q582.0234,367.7041 582.1328,367.7041 Q582.3203,367.7041 582.4375,367.8369 Q582.5547,367.9619 582.5547,368.2666 L582.5547,368.9932 Q582.5547,369.2979 582.4375,369.4307 Q582.3203,369.5635 582.1328,369.5635 Q581.9609,369.5635 581.8594,369.4619 Q581.7578,369.3682 581.7031,369.1104 Q581.6797,368.9307 581.5859,368.8369 Q581.4219,368.6494 581.1172,368.54 Q580.8125,368.4307 580.5,368.4307 Q580.1172,368.4307 579.7969,368.5947 Q579.4844,368.7588 579.2344,369.1338 Q578.9922,369.5088 578.9922,370.0244 L578.9922,370.5713 Q578.9922,371.1885 579.4375,371.6025 Q579.8828,372.0088 580.6797,372.0088 Q581.1484,372.0088 581.4766,371.8838 Q581.6719,371.8057 581.8828,371.5869 Q582.0156,371.4541 582.0859,371.415 Q582.1641,371.376 582.2656,371.376 Q582.4297,371.376 582.5547,371.5088 Q582.6875,371.6338 582.6875,371.8057 Q582.6875,371.9775 582.5156,372.1807 Q582.2656,372.4697 581.8672,372.6338 Q581.3281,372.8604 580.6797,372.8604 Q579.9219,372.8604 579.3203,372.5479 Q578.8281,372.2979 578.4844,371.7666 Q578.1406,371.2275 578.1406,370.5869 L578.1406,370.0088 Q578.1406,369.3447 578.4453,368.7744 Q578.7578,368.1963 579.3047,367.8916 Q579.8516,367.5791 580.4688,367.5791 Q580.8359,367.5791 581.1563,367.665 Q581.4844,367.7432 581.7578,367.9229 Z " fill="#000000"/><text fill="#000000" font-family="sans-serif" font-size="9" lengthAdjust="spacing" textLength="78" x="591.625" y="373.7119">ShareBoardService</text><line style="stroke:#181818;stroke-width:0.25;" x1="510.5" x2="734.5" y1="379.4707" y2="379.4707"/><line style="stroke:#181818;stroke-width:0.25;" x1="510.5" x2="734.5" y1="383.4707" y2="383.4707"/><text fill="#000000" font-family="sans-serif" font-size="9" lengthAdjust="spacing" textLength="217" x="514" y="396.1826">+listBoardsUserOwnsNotArchived(SystemUser owner)</text><text fill="#000000" font-family="sans-serif" font-size="9" lengthAdjust="spacing" textLength="203" x="514" y="410.1533">+listBoardsUserOwnsArchived(SystemUser owner)</text></g><!--class BoardState--><g id="elem_BoardState"><rect codeLine="81" fill="#F1F1F1" height="68.8828" id="BoardState" rx="1.25" ry="1.25" style="stroke:#181818;stroke-width:0.25;" width="63" x="471" y="570.5"/><ellipse cx="478.5" cy="579.9854" fill="#EB937F" rx="5.5" ry="5.5" style="stroke:#181818;stroke-width:0.5;"/><path d="M477.9297,580.3838 L477.9297,581.6338 L480.0938,581.6338 L480.0938,581.1729 Q480.0938,580.8682 480.2109,580.7354 Q480.3359,580.6025 480.5234,580.6025 Q480.7109,580.6025 480.8281,580.7354 Q480.9453,580.8682 480.9453,581.1729 L480.9453,582.4854 L476.9453,582.4854 Q476.6328,582.4854 476.5,582.3682 Q476.375,582.251 476.375,582.0557 Q476.375,581.8682 476.5078,581.751 Q476.6406,581.6338 476.9453,581.6338 L477.0781,581.6338 L477.0781,578.3057 L476.9453,578.3057 Q476.6328,578.3057 476.5,578.1885 Q476.375,578.0713 476.375,577.876 Q476.375,577.6885 476.5,577.5713 Q476.6328,577.4541 476.9453,577.4541 L480.7578,577.4541 L480.7578,578.751 Q480.7578,579.0557 480.6406,579.1885 Q480.5313,579.3135 480.3359,579.3135 Q480.1484,579.3135 480.0313,579.1885 Q479.9141,579.0557 479.9141,578.751 L479.9141,578.3057 L477.9297,578.3057 L477.9297,579.5322 L478.6719,579.5322 Q478.6719,579.2041 478.7344,579.1104 Q478.8672,578.9072 479.1016,578.9072 Q479.2891,578.9072 479.4063,579.04 Q479.5234,579.165 479.5234,579.4697 L479.5234,580.4541 Q479.5234,580.7275 479.4609,580.8213 Q479.3281,581.0166 479.1016,581.0166 Q478.8672,581.0166 478.7344,580.8135 Q478.6719,580.7197 478.6719,580.3838 L477.9297,580.3838 Z " fill="#000000"/><text fill="#000000" font-family="sans-serif" font-size="9" lengthAdjust="spacing" textLength="45" x="486.5" y="583.7119">BoardState</text><line style="stroke:#181818;stroke-width:0.25;" x1="471.5" x2="533.5" y1="589.4707" y2="589.4707"/><text fill="#000000" font-family="sans-serif" font-size="9" lengthAdjust="spacing" textLength="48.5" x="475" y="602.1826">+CREATED</text><text fill="#000000" font-family="sans-serif" font-size="9" lengthAdjust="spacing" textLength="42.5" x="475" y="616.1533">+SHARED</text><text fill="#000000" font-family="sans-serif" font-size="9" lengthAdjust="spacing" textLength="50.5" x="475" y="630.124">+ARCHIVED</text><line style="stroke:#181818;stroke-width:0.25;" x1="471.5" x2="533.5" y1="635.3828" y2="635.3828"/></g><!--class Board--><g id="elem_Board"><rect codeLine="88" fill="#F1F1F1" height="40.9414" id="Board" rx="1.25" ry="1.25" style="stroke:#181818;stroke-width:0.25;" width="72.5" x="466.25" y="479.5"/><ellipse cx="487.475" cy="488.9854" fill="#ADD1B2" rx="5.5" ry="5.5" style="stroke:#181818;stroke-width:0.5;"/><path d="M488.8578,486.9229 Q488.9359,486.8135 489.0297,486.7588 Q489.1234,486.7041 489.2328,486.7041 Q489.4203,486.7041 489.5375,486.8369 Q489.6547,486.9619 489.6547,487.2666 L489.6547,487.9932 Q489.6547,488.2979 489.5375,488.4307 Q489.4203,488.5635 489.2328,488.5635 Q489.0609,488.5635 488.9594,488.4619 Q488.8578,488.3682 488.8031,488.1104 Q488.7797,487.9307 488.6859,487.8369 Q488.5219,487.6494 488.2172,487.54 Q487.9125,487.4307 487.6,487.4307 Q487.2172,487.4307 486.8969,487.5947 Q486.5844,487.7588 486.3344,488.1338 Q486.0922,488.5088 486.0922,489.0244 L486.0922,489.5713 Q486.0922,490.1885 486.5375,490.6025 Q486.9828,491.0088 487.7797,491.0088 Q488.2484,491.0088 488.5766,490.8838 Q488.7719,490.8057 488.9828,490.5869 Q489.1156,490.4541 489.1859,490.415 Q489.2641,490.376 489.3656,490.376 Q489.5297,490.376 489.6547,490.5088 Q489.7875,490.6338 489.7875,490.8057 Q489.7875,490.9775 489.6156,491.1807 Q489.3656,491.4697 488.9672,491.6338 Q488.4281,491.8604 487.7797,491.8604 Q487.0219,491.8604 486.4203,491.5479 Q485.9281,491.2979 485.5844,490.7666 Q485.2406,490.2275 485.2406,489.5869 L485.2406,489.0088 Q485.2406,488.3447 485.5453,487.7744 Q485.8578,487.1963 486.4047,486.8916 Q486.9516,486.5791 487.5688,486.5791 Q487.9359,486.5791 488.2563,486.665 Q488.5844,486.7432 488.8578,486.9229 Z " fill="#000000"/><text fill="#000000" font-family="sans-serif" font-size="9" lengthAdjust="spacing" textLength="24" x="498.525" y="492.7119">Board</text><line style="stroke:#181818;stroke-width:0.25;" x1="466.75" x2="538.25" y1="498.4707" y2="498.4707"/><line style="stroke:#181818;stroke-width:0.25;" x1="466.75" x2="538.25" y1="502.4707" y2="502.4707"/><text fill="#000000" font-family="sans-serif" font-size="9" lengthAdjust="spacing" textLength="64.5" x="470.25" y="515.1826">+archiveBoard()</text></g><!--link ArchiveBoardUI to AbstractUI--><g id="link_ArchiveBoardUI_AbstractUI"><path codeLine="96" d="M80.005,170.57 C69.21,191.46 54.46,219.985 44.385,239.48 " fill="none" id="ArchiveBoardUI-to-AbstractUI" style="stroke:#181818;stroke-width:0.5;"/><polygon fill="none" points="47.485,241.105,39.78,248.38,41.265,237.89,47.485,241.105" style="stroke:#181818;stroke-width:0.5;"/></g><!--link MenuRequest to Thread--><g id="link_MenuRequest_Thread"><path codeLine="97" d="M383.335,408.6 C379.365,427.77 373.385,456.615 369.235,476.65 " fill="none" id="MenuRequest-to-Thread" style="stroke:#181818;stroke-width:0.5;"/><polygon fill="none" points="372.65,477.405,367.195,486.49,365.8,475.985,372.65,477.405" style="stroke:#181818;stroke-width:0.5;"/></g><!--link ArchiveBoardUI to ArchiveBoardController--><g id="link_ArchiveBoardUI_ArchiveBoardController"><path codeLine="101" d="M107.995,170.57 C116.345,186.72 127.05,207.435 136.14,225.015 " fill="none" id="ArchiveBoardUI-to-ArchiveBoardController" style="stroke:#181818;stroke-width:0.5;"/><polygon fill="#181818" points="137.355,227.365,137.0623,222.4493,136.2057,225.1449,133.5101,224.2882,137.355,227.365" style="stroke:#181818;stroke-width:0.5;"/><text fill="#000000" font-family="sans-serif" font-size="6.5" lengthAdjust="spacing" textLength="3.5" x="130.7518" y="220.7796">1</text></g><!--link ArchiveBoardController to SBProtocol--><g id="link_ArchiveBoardController_SBProtocol"><path codeLine="102" d="M155,296.655 C155,311.21 155,328.37 155,343.83 " fill="none" id="ArchiveBoardController-to-SBProtocol" style="stroke:#181818;stroke-width:0.5;"/><polygon fill="#181818" points="155,346.495,157,341.995,155,343.995,153,341.995,155,346.495" style="stroke:#181818;stroke-width:0.5;"/><text fill="#000000" font-family="sans-serif" font-size="6.5" lengthAdjust="spacing" textLength="2.5" x="151.2996" y="339.858">*</text></g><!--link ArchiveBoardHandler to SBProtocol--><g id="link_ArchiveBoardHandler_SBProtocol"><path codeLine="104" d="M337.195,289.545 C306.425,306.09 266.445,327.585 231.78,346.22 " fill="none" id="ArchiveBoardHandler-to-SBProtocol" style="stroke:#181818;stroke-width:0.5;"/><polygon fill="#181818" points="229.505,347.445,234.4152,347.0706,231.7057,346.2589,232.5174,343.5494,229.505,347.445" style="stroke:#181818;stroke-width:0.5;"/><text fill="#000000" font-family="sans-serif" font-size="6.5" lengthAdjust="spacing" textLength="2.5" x="234.4627" y="342.6049">*</text></g><!--reverse link BoardRepository to ArchiveBoardHandler--><g id="link_BoardRepository_ArchiveBoardHandler"><path codeLine="105" d="M441.53,179.76 C429.895,197.365 416.15,218.16 405.435,234.37 " fill="none" id="BoardRepository-backto-ArchiveBoardHandler" style="stroke:#181818;stroke-width:0.5;"/><polygon fill="#181818" points="442.94,177.63,438.7902,180.2813,441.5615,179.7156,442.1272,182.4869,442.94,177.63" style="stroke:#181818;stroke-width:0.5;"/><text fill="#000000" font-family="sans-serif" font-size="6.5" lengthAdjust="spacing" textLength="3.5" x="436.0276" y="189.4577">1</text></g><!--link ArchiveBoardHandler to MenuRequest--><g id="link_ArchiveBoardHandler_MenuRequest"><path codeLine="107" d="M387.5,289.625 C387.5,312.115 387.5,343.725 387.5,364.875 " fill="none" id="ArchiveBoardHandler-to-MenuRequest" style="stroke:#181818;stroke-width:0.5;"/><polygon fill="#181818" points="387.5,367.4,389.5,362.9,387.5,364.9,385.5,362.9,387.5,367.4" style="stroke:#181818;stroke-width:0.5;"/><text fill="#000000" font-family="sans-serif" font-size="6.5" lengthAdjust="spacing" textLength="3.5" x="382.5617" y="360.8106">1</text></g><!--link ArchiveBoardHandler to SystemUser--><g id="link_ArchiveBoardHandler_SystemUser"><path codeLine="108" d="M346.58,289.62 C327.455,304.305 305.98,324.035 292.5,346.5 C256.53,406.445 256,429.59 256,499.5 C256,499.5 256,499.5 256,605.5 C256,666.455 316.75,713.23 359.605,738.645 " fill="none" id="ArchiveBoardHandler-to-SystemUser" style="stroke:#181818;stroke-width:0.5;"/><polygon fill="#181818" points="361.76,739.915,358.889,735.9141,359.6031,738.6509,356.8664,739.3651,361.76,739.915" style="stroke:#181818;stroke-width:0.5;"/><text fill="#000000" font-family="sans-serif" font-size="6.5" lengthAdjust="spacing" textLength="3.5" x="350.5678" y="733.328">1</text></g><!--link ArchiveBoardHandler to ShareBoardService--><g id="link_ArchiveBoardHandler_ShareBoardService"><path codeLine="109" d="M438.345,289.545 C476.985,310.1 529.995,338.295 569.22,359.16 " fill="none" id="ArchiveBoardHandler-to-ShareBoardService" style="stroke:#181818;stroke-width:0.5;"/><polygon fill="#181818" points="571.545,360.395,568.5078,356.5188,569.3367,359.223,566.6325,360.052,571.545,360.395" style="stroke:#181818;stroke-width:0.5;"/><text fill="#000000" font-family="sans-serif" font-size="6.5" lengthAdjust="spacing" textLength="3.5" x="560.4997" y="353.9192">1</text></g><!--link ShareBoardService to BoardRepository--><g id="link_ShareBoardService_BoardRepository"><path codeLine="111" d="M605.105,360.47 C576.76,316.415 520.585,229.11 488.815,179.73 " fill="none" id="ShareBoardService-to-BoardRepository" style="stroke:#181818;stroke-width:0.5;"/><polygon fill="#181818" points="487.415,177.555,488.1661,182.4218,488.7669,179.6579,491.5308,180.2588,487.415,177.555" style="stroke:#181818;stroke-width:0.5;"/><text fill="#000000" font-family="sans-serif" font-size="6.5" lengthAdjust="spacing" textLength="3.5" x="484.7417" y="189.3756">1</text></g><!--link ShareBoardService to Board--><g id="link_ShareBoardService_Board"><path codeLine="112" d="M593.3,415.51 C572.665,434.595 545.365,459.85 526.105,477.665 " fill="none" id="ShareBoardService-to-Board" style="stroke:#181818;stroke-width:0.5;"/><polygon fill="#181818" points="524.27,479.365,528.9306,477.7748,526.1043,477.6663,526.2128,474.84,524.27,479.365" style="stroke:#181818;stroke-width:0.5;"/><text fill="#000000" font-family="sans-serif" font-size="6.5" lengthAdjust="spacing" textLength="2.5" x="523.759" y="472.9311">*</text></g><!--link ShareBoardService to SystemUser--><g id="link_ShareBoardService_SystemUser"><path codeLine="113" d="M618.885,415.52 C611.385,463.93 590.63,567.145 542.5,639.5 C514.565,681.495 467.985,717.135 435.95,738.52 " fill="none" id="ShareBoardService-to-SystemUser" style="stroke:#181818;stroke-width:0.5;"/><polygon fill="#181818" points="433.86,739.91,438.7149,739.0856,435.9423,738.5265,436.5014,735.7539,433.86,739.91" style="stroke:#181818;stroke-width:0.5;"/><text fill="#000000" font-family="sans-serif" font-size="6.5" lengthAdjust="spacing" textLength="2.5" x="435.2385" y="733.3222">*</text></g><!--link ArchiveBoardHandler to Board--><g id="link_ArchiveBoardHandler_Board"><path codeLine="115" d="M419.6,289.685 C435.61,304.865 453.965,325.02 465.5,346.5 C488.355,389.06 497.29,445.8 500.63,476.84 " fill="none" id="ArchiveBoardHandler-to-Board" style="stroke:#181818;stroke-width:0.5;"/><polygon fill="#181818" points="500.9,479.395,502.4263,474.7131,500.6428,476.9083,498.4476,475.1247,500.9,479.395" style="stroke:#181818;stroke-width:0.5;"/><text fill="#000000" font-family="sans-serif" font-size="6.5" lengthAdjust="spacing" textLength="2.5" x="496.7864" y="472.8048">*</text></g><!--link Board to BoardState--><g id="link_Board_BoardState"><path codeLine="117" d="M502.5,520.55 C502.5,533.945 502.5,551.95 502.5,567.85 " fill="none" id="Board-to-BoardState" style="stroke:#181818;stroke-width:0.5;"/><polygon fill="#181818" points="502.5,570.385,504.5,565.885,502.5,567.885,500.5,565.885,502.5,570.385" style="stroke:#181818;stroke-width:0.5;"/></g><!--link ArchiveBoardHandler to Runnable--><g id="link_ArchiveBoardHandler_Runnable"><path codeLine="120" d="M352.24,289.61 C335.915,304.425 318.23,324.27 309.5,346.5 C277.225,428.685 311.05,536.2 328.7,582.125 " fill="none" id="ArchiveBoardHandler-to-Runnable" style="stroke:#181818;stroke-width:0.5;stroke-dasharray:7.0,7.0;"/><polygon fill="none" points="331.965,580.865,332.39,591.455,325.455,583.445,331.965,580.865" style="stroke:#181818;stroke-width:0.5;"/></g><!--link Thread to Runnable--><g id="link_Thread_Runnable"><path codeLine="121" d="M361.145,513.67 C356.795,530.745 349.135,560.795 343.825,581.635 " fill="none" id="Thread-to-Runnable" style="stroke:#181818;stroke-width:0.5;stroke-dasharray:7.0,7.0;"/><polygon fill="none" points="347.19,582.61,341.33,591.435,340.405,580.88,347.19,582.61" style="stroke:#181818;stroke-width:0.5;"/></g><!--link SBProtocol to MessageProtocol--><g id="link_SBProtocol_MessageProtocol"><path codeLine="122" d="M155,429.515 C155,445.325 155,462.815 155,476.36 " fill="none" id="SBProtocol-to-MessageProtocol" style="stroke:#181818;stroke-width:0.5;stroke-dasharray:7.0,7.0;"/><polygon fill="none" points="158.5,476.475,155,486.475,151.5,476.475,158.5,476.475" style="stroke:#181818;stroke-width:0.5;"/></g><!--link JpaBoardRepository to BoardRepository--><g id="link_JpaBoardRepository_BoardRepository"><path codeLine="123" d="M465.5,58.51 C465.5,70.48 465.5,84.87 465.5,98.33 " fill="none" id="JpaBoardRepository-to-BoardRepository" style="stroke:#181818;stroke-width:0.5;stroke-dasharray:7.0,7.0;"/><polygon fill="none" points="469,98.385,465.5,108.385,462,98.385,469,98.385" style="stroke:#181818;stroke-width:0.5;"/></g><!--SRC=[bLHDRzim3BthLmZT8Kw3z6EdOOS2RjgY7jPrYDlT5Oj9XCgI9z7jie__Fjfo72znCiGNM-JZ8qK-Uh14BFp7y_D22uDbhiyocvzdMdW_baeidCWPyo_A588-UUs84PsQbGX9PasgVWA_w40A8QKo2_w-OtF2l7We-EN5nJRPdJLOSrn-O8mfW-3c8WC-BOqHCmqTqmDuBnRmrLcqcTLTzBKLJawXi5wXTIlsYt4-qifZxV3F7jpZc_5VBCOkMwfNa56wyWXvvU7spO0RzeSSnjjv8i6WmbKqLqPedd0boVE7iVfsF9vvT2B3vuHgsbW3QPsfzd1wtd5fqwLzYuRrSSIN8AHM1iZG6pcXrZchDJXYOF-xBx6EH7C8g2YbETAaPjNfIQ662fDfwo6rsGlWliJtmiYGTUHAGwYn1nD8AMkTgurx05DEuNi97Yiy3LrHmwvNLOOeCO2nb8u6oqashXFtj7Hq_T2qurGHujFhraBj7N4FEB4I8Wha6NqCMoCn6RnpDW_jM7SbetS3CZAw4IWUIonA93EGU6s9jNVHKiI-8HYopJK-5M9NcqShypXTjiathaPY8wgsEdwsYmN8n7G7bIw52-DDmRsg3Eg-7Rr3HvTA-iZ3_gOe4DQLJgQtyTFjJJYaz_5q_HrF9_V9DpgrbTV1wpZHqMcu7cC3-443afxzktTyFFvzrTtGZbQ3hn4XCKWeAWPkJQJomZhqmrssAtvoUR9lHVlD8UhqfAjNrhDhVRXUM5aqPMpBRZyhWRjRUWZNKTH1s8wMs8w9j-ZjIlT1JnjeFs3STcXJuy5E1YvMlsfZHuHiG5FMaDDQ-rwIipEIH_it2ZhPCcuc5HpRFwhTNqF0xGoE_GK0]--></g></svg>