<?xml version="1.0" encoding="us-ascii" standalone="no"?><svg xmlns="http://www.w3.org/2000/svg" xmlns:xlink="http://www.w3.org/1999/xlink" contentStyleType="text/css" height="916px" preserveAspectRatio="none" style="width:1181px;height:916px;background:#FFFFFF;" version="1.1" viewBox="0 0 1181 916" width="1181.6px" zoomAndPan="magnify"><defs/><g><!--class Runnable--><g id="elem_Runnable"><rect codeLine="50" fill="#F1F1F1" height="43.1531" id="Runnable" rx="2" ry="2" style="stroke:#181818;stroke-width:0.4000000000000001;" width="91.2" x="516" y="856.8"/><ellipse cx="528" cy="871.9766" fill="#B4A7E5" rx="8.8" ry="8.8" style="stroke:#181818;stroke-width:0.8000000000000002;"/><path d="M528.7625,869.2891 L528.7625,874.6141 L530.1375,874.6141 Q530.625,874.6141 530.8375,874.8016 Q531.05,874.9891 531.05,875.3016 Q531.05,875.6016 530.8375,875.7891 Q530.625,875.9766 530.1375,875.9766 L526.025,875.9766 Q525.5375,875.9766 525.325,875.7891 Q525.1125,875.6016 525.1125,875.2891 Q525.1125,874.9891 525.325,874.8016 Q525.5375,874.6141 526.025,874.6141 L527.4,874.6141 L527.4,869.2891 L526.025,869.2891 Q525.5375,869.2891 525.325,869.1016 Q525.1125,868.9141 525.1125,868.6016 Q525.1125,868.3016 525.325,868.1141 Q525.5375,867.9266 526.025,867.9266 L530.1375,867.9266 Q530.625,867.9266 530.8375,868.1141 Q531.05,868.3016 531.05,868.6016 Q531.05,868.9141 530.8375,869.1016 Q530.625,869.2891 530.1375,869.2891 L528.7625,869.2891 Z " fill="#000000"/><text fill="#000000" font-family="sans-serif" font-size="14.4" font-style="italic" lengthAdjust="spacing" textLength="62.4" x="540.8" y="877.9391">Runnable</text><line style="stroke:#181818;stroke-width:0.4000000000000001;" x1="516.8" x2="606.4" y1="887.1531" y2="887.1531"/><line style="stroke:#181818;stroke-width:0.4000000000000001;" x1="516.8" x2="606.4" y1="893.5531" y2="893.5531"/></g><!--class MessageProtocol--><g id="elem_MessageProtocol"><rect codeLine="51" fill="#F1F1F1" height="43.1531" id="MessageProtocol" rx="2" ry="2" style="stroke:#181818;stroke-width:0.4000000000000001;" width="141.6" x="177.2" y="722.4"/><ellipse cx="189.2" cy="737.5766" fill="#B4A7E5" rx="8.8" ry="8.8" style="stroke:#181818;stroke-width:0.8000000000000002;"/><path d="M189.9625,734.8891 L189.9625,740.2141 L191.3375,740.2141 Q191.825,740.2141 192.0375,740.4016 Q192.25,740.5891 192.25,740.9016 Q192.25,741.2016 192.0375,741.3891 Q191.825,741.5766 191.3375,741.5766 L187.225,741.5766 Q186.7375,741.5766 186.525,741.3891 Q186.3125,741.2016 186.3125,740.8891 Q186.3125,740.5891 186.525,740.4016 Q186.7375,740.2141 187.225,740.2141 L188.6,740.2141 L188.6,734.8891 L187.225,734.8891 Q186.7375,734.8891 186.525,734.7016 Q186.3125,734.5141 186.3125,734.2016 Q186.3125,733.9016 186.525,733.7141 Q186.7375,733.5266 187.225,733.5266 L191.3375,733.5266 Q191.825,733.5266 192.0375,733.7141 Q192.25,733.9016 192.25,734.2016 Q192.25,734.5141 192.0375,734.7016 Q191.825,734.8891 191.3375,734.8891 L189.9625,734.8891 Z " fill="#000000"/><text fill="#000000" font-family="sans-serif" font-size="14.4" font-style="italic" lengthAdjust="spacing" textLength="112.8" x="202" y="743.5391">MessageProtocol</text><line style="stroke:#181818;stroke-width:0.4000000000000001;" x1="178" x2="318" y1="752.7531" y2="752.7531"/><line style="stroke:#181818;stroke-width:0.4000000000000001;" x1="178" x2="318" y1="759.1531" y2="759.1531"/></g><!--class BoardRepository--><g id="elem_BoardRepository"><rect codeLine="12" fill="#F1F1F1" height="65.5063" id="BoardRepository" rx="2" ry="2" style="stroke:#181818;stroke-width:0.4000000000000001;" width="360" x="637.6" y="162.4"/><ellipse cx="758.6" cy="177.5766" fill="#B4A7E5" rx="8.8" ry="8.8" style="stroke:#181818;stroke-width:0.8000000000000002;"/><path d="M759.3625,174.8891 L759.3625,180.2141 L760.7375,180.2141 Q761.225,180.2141 761.4375,180.4016 Q761.65,180.5891 761.65,180.9016 Q761.65,181.2016 761.4375,181.3891 Q761.225,181.5766 760.7375,181.5766 L756.625,181.5766 Q756.1375,181.5766 755.925,181.3891 Q755.7125,181.2016 755.7125,180.8891 Q755.7125,180.5891 755.925,180.4016 Q756.1375,180.2141 756.625,180.2141 L758,180.2141 L758,174.8891 L756.625,174.8891 Q756.1375,174.8891 755.925,174.7016 Q755.7125,174.5141 755.7125,174.2016 Q755.7125,173.9016 755.925,173.7141 Q756.1375,173.5266 756.625,173.5266 L760.7375,173.5266 Q761.225,173.5266 761.4375,173.7141 Q761.65,173.9016 761.65,174.2016 Q761.65,174.5141 761.4375,174.7016 Q761.225,174.8891 760.7375,174.8891 L759.3625,174.8891 Z " fill="#000000"/><text fill="#000000" font-family="sans-serif" font-size="14.4" font-style="italic" lengthAdjust="spacing" textLength="108" x="776.6" y="183.5391">BoardRepository</text><line style="stroke:#181818;stroke-width:0.4000000000000001;" x1="638.4" x2="996.8" y1="192.7531" y2="192.7531"/><line style="stroke:#181818;stroke-width:0.4000000000000001;" x1="638.4" x2="996.8" y1="199.1531" y2="199.1531"/><text fill="#000000" font-family="sans-serif" font-size="14.4" lengthAdjust="spacing" textLength="347.2" x="644" y="219.4922">+listBoardsUserOwnsNotArchived(SystemUser owner)</text></g><!--class AbstractUI--><g id="elem_AbstractUI"><rect codeLine="17" fill="#F1F1F1" height="43.1531" id="AbstractUI" rx="2" ry="2" style="stroke:#181818;stroke-width:0.4000000000000001;" width="94.4" x="5.6" y="352.8"/><ellipse cx="17.6" cy="367.9766" fill="#ADD1B2" rx="8.8" ry="8.8" style="stroke:#181818;stroke-width:0.8000000000000002;"/><path d="M19.8125,364.6766 Q19.9375,364.5016 20.0875,364.4141 Q20.2375,364.3266 20.4125,364.3266 Q20.7125,364.3266 20.9,364.5391 Q21.0875,364.7391 21.0875,365.2266 L21.0875,366.3891 Q21.0875,366.8766 20.9,367.0891 Q20.7125,367.3016 20.4125,367.3016 Q20.1375,367.3016 19.975,367.1391 Q19.8125,366.9891 19.725,366.5766 Q19.6875,366.2891 19.5375,366.1391 Q19.275,365.8391 18.7875,365.6641 Q18.3,365.4891 17.8,365.4891 Q17.1875,365.4891 16.675,365.7516 Q16.175,366.0141 15.775,366.6141 Q15.3875,367.2141 15.3875,368.0391 L15.3875,368.9141 Q15.3875,369.9016 16.1,370.5641 Q16.8125,371.2141 18.0875,371.2141 Q18.8375,371.2141 19.3625,371.0141 Q19.675,370.8891 20.0125,370.5391 Q20.225,370.3266 20.3375,370.2641 Q20.4625,370.2016 20.625,370.2016 Q20.8875,370.2016 21.0875,370.4141 Q21.3,370.6141 21.3,370.8891 Q21.3,371.1641 21.025,371.4891 Q20.625,371.9516 19.9875,372.2141 Q19.125,372.5766 18.0875,372.5766 Q16.875,372.5766 15.9125,372.0766 Q15.125,371.6766 14.575,370.8266 Q14.025,369.9641 14.025,368.9391 L14.025,368.0141 Q14.025,366.9516 14.5125,366.0391 Q15.0125,365.1141 15.8875,364.6266 Q16.7625,364.1266 17.75,364.1266 Q18.3375,364.1266 18.85,364.2641 Q19.375,364.3891 19.8125,364.6766 Z " fill="#000000"/><text fill="#000000" font-family="sans-serif" font-size="14.4" lengthAdjust="spacing" textLength="65.6" x="30.4" y="373.9391">AbstractUI</text><line style="stroke:#181818;stroke-width:0.4000000000000001;" x1="6.4" x2="99.2" y1="383.1531" y2="383.1531"/><line style="stroke:#181818;stroke-width:0.4000000000000001;" x1="6.4" x2="99.2" y1="389.5531" y2="389.5531"/></g><!--class ArchiveBoardUI--><g id="elem_ArchiveBoardUI"><rect codeLine="21" fill="#F1F1F1" height="87.8594" id="ArchiveBoardUI" rx="2" ry="2" style="stroke:#181818;stroke-width:0.4000000000000001;" width="128" x="86.4" y="151.2"/><ellipse cx="98.4" cy="166.3766" fill="#ADD1B2" rx="8.8" ry="8.8" style="stroke:#181818;stroke-width:0.8000000000000002;"/><path d="M100.6125,163.0766 Q100.7375,162.9016 100.8875,162.8141 Q101.0375,162.7266 101.2125,162.7266 Q101.5125,162.7266 101.7,162.9391 Q101.8875,163.1391 101.8875,163.6266 L101.8875,164.7891 Q101.8875,165.2766 101.7,165.4891 Q101.5125,165.7016 101.2125,165.7016 Q100.9375,165.7016 100.775,165.5391 Q100.6125,165.3891 100.525,164.9766 Q100.4875,164.6891 100.3375,164.5391 Q100.075,164.2391 99.5875,164.0641 Q99.1,163.8891 98.6,163.8891 Q97.9875,163.8891 97.475,164.1516 Q96.975,164.4141 96.575,165.0141 Q96.1875,165.6141 96.1875,166.4391 L96.1875,167.3141 Q96.1875,168.3016 96.9,168.9641 Q97.6125,169.6141 98.8875,169.6141 Q99.6375,169.6141 100.1625,169.4141 Q100.475,169.2891 100.8125,168.9391 Q101.025,168.7266 101.1375,168.6641 Q101.2625,168.6016 101.425,168.6016 Q101.6875,168.6016 101.8875,168.8141 Q102.1,169.0141 102.1,169.2891 Q102.1,169.5641 101.825,169.8891 Q101.425,170.3516 100.7875,170.6141 Q99.925,170.9766 98.8875,170.9766 Q97.675,170.9766 96.7125,170.4766 Q95.925,170.0766 95.375,169.2266 Q94.825,168.3641 94.825,167.3391 L94.825,166.4141 Q94.825,165.3516 95.3125,164.4391 Q95.8125,163.5141 96.6875,163.0266 Q97.5625,162.5266 98.55,162.5266 Q99.1375,162.5266 99.65,162.6641 Q100.175,162.7891 100.6125,163.0766 Z " fill="#000000"/><text fill="#000000" font-family="sans-serif" font-size="14.4" lengthAdjust="spacing" textLength="99.2" x="111.2" y="172.3391">ArchiveBoardUI</text><line style="stroke:#181818;stroke-width:0.4000000000000001;" x1="87.2" x2="213.6" y1="181.5531" y2="181.5531"/><line style="stroke:#181818;stroke-width:0.4000000000000001;" x1="87.2" x2="213.6" y1="187.9531" y2="187.9531"/><text fill="#000000" font-family="sans-serif" font-size="14.4" lengthAdjust="spacing" textLength="69.6" x="92.8" y="208.2922">#doShow()</text><text fill="#000000" font-family="sans-serif" font-size="14.4" lengthAdjust="spacing" textLength="72.8" x="92.8" y="230.6453">+headline()</text></g><!--class ArchiveBoardController--><g id="elem_ArchiveBoardController"><rect codeLine="27" fill="#F1F1F1" height="110.2125" id="ArchiveBoardController" rx="2" ry="2" style="stroke:#181818;stroke-width:0.4000000000000001;" width="239.2" x="128.4" y="319.2"/><ellipse cx="169" cy="334.3766" fill="#ADD1B2" rx="8.8" ry="8.8" style="stroke:#181818;stroke-width:0.8000000000000002;"/><path d="M171.2125,331.0766 Q171.3375,330.9016 171.4875,330.8141 Q171.6375,330.7266 171.8125,330.7266 Q172.1125,330.7266 172.3,330.9391 Q172.4875,331.1391 172.4875,331.6266 L172.4875,332.7891 Q172.4875,333.2766 172.3,333.4891 Q172.1125,333.7016 171.8125,333.7016 Q171.5375,333.7016 171.375,333.5391 Q171.2125,333.3891 171.125,332.9766 Q171.0875,332.6891 170.9375,332.5391 Q170.675,332.2391 170.1875,332.0641 Q169.7,331.8891 169.2,331.8891 Q168.5875,331.8891 168.075,332.1516 Q167.575,332.4141 167.175,333.0141 Q166.7875,333.6141 166.7875,334.4391 L166.7875,335.3141 Q166.7875,336.3016 167.5,336.9641 Q168.2125,337.6141 169.4875,337.6141 Q170.2375,337.6141 170.7625,337.4141 Q171.075,337.2891 171.4125,336.9391 Q171.625,336.7266 171.7375,336.6641 Q171.8625,336.6016 172.025,336.6016 Q172.2875,336.6016 172.4875,336.8141 Q172.7,337.0141 172.7,337.2891 Q172.7,337.5641 172.425,337.8891 Q172.025,338.3516 171.3875,338.6141 Q170.525,338.9766 169.4875,338.9766 Q168.275,338.9766 167.3125,338.4766 Q166.525,338.0766 165.975,337.2266 Q165.425,336.3641 165.425,335.3391 L165.425,334.4141 Q165.425,333.3516 165.9125,332.4391 Q166.4125,331.5141 167.2875,331.0266 Q168.1625,330.5266 169.15,330.5266 Q169.7375,330.5266 170.25,330.6641 Q170.775,330.7891 171.2125,331.0766 Z " fill="#000000"/><text fill="#000000" font-family="sans-serif" font-size="14.4" lengthAdjust="spacing" textLength="148" x="187" y="340.3391">ArchiveBoardController</text><line style="stroke:#181818;stroke-width:0.4000000000000001;" x1="129.2" x2="366.8" y1="349.5531" y2="349.5531"/><line style="stroke:#181818;stroke-width:0.4000000000000001;" x1="129.2" x2="366.8" y1="355.9531" y2="355.9531"/><text fill="#000000" font-family="sans-serif" font-size="14.4" lengthAdjust="spacing" textLength="226.4" x="134.8" y="376.2922">+listBoardsUserOwnsNotArchived()</text><text fill="#000000" font-family="sans-serif" font-size="14.4" lengthAdjust="spacing" textLength="224.8" x="134.8" y="398.6453">+archivedBoards(String boardTitle)</text><text fill="#000000" font-family="sans-serif" font-size="14.4" lengthAdjust="spacing" textLength="96" x="134.8" y="420.9984">+closeSocket()</text></g><!--class ArchiveBoardHandler--><g id="elem_ArchiveBoardHandler"><rect codeLine="35" fill="#F1F1F1" height="87.8594" id="ArchiveBoardHandler" rx="2" ry="2" style="stroke:#181818;stroke-width:0.4000000000000001;" width="164.8" x="634.4" y="330.4"/><ellipse cx="646.4" cy="345.5766" fill="#ADD1B2" rx="8.8" ry="8.8" style="stroke:#181818;stroke-width:0.8000000000000002;"/><path d="M648.6125,342.2766 Q648.7375,342.1016 648.8875,342.0141 Q649.0375,341.9266 649.2125,341.9266 Q649.5125,341.9266 649.7,342.1391 Q649.8875,342.3391 649.8875,342.8266 L649.8875,343.9891 Q649.8875,344.4766 649.7,344.6891 Q649.5125,344.9016 649.2125,344.9016 Q648.9375,344.9016 648.775,344.7391 Q648.6125,344.5891 648.525,344.1766 Q648.4875,343.8891 648.3375,343.7391 Q648.075,343.4391 647.5875,343.2641 Q647.1,343.0891 646.6,343.0891 Q645.9875,343.0891 645.475,343.3516 Q644.975,343.6141 644.575,344.2141 Q644.1875,344.8141 644.1875,345.6391 L644.1875,346.5141 Q644.1875,347.5016 644.9,348.1641 Q645.6125,348.8141 646.8875,348.8141 Q647.6375,348.8141 648.1625,348.6141 Q648.475,348.4891 648.8125,348.1391 Q649.025,347.9266 649.1375,347.8641 Q649.2625,347.8016 649.425,347.8016 Q649.6875,347.8016 649.8875,348.0141 Q650.1,348.2141 650.1,348.4891 Q650.1,348.7641 649.825,349.0891 Q649.425,349.5516 648.7875,349.8141 Q647.925,350.1766 646.8875,350.1766 Q645.675,350.1766 644.7125,349.6766 Q643.925,349.2766 643.375,348.4266 Q642.825,347.5641 642.825,346.5391 L642.825,345.6141 Q642.825,344.5516 643.3125,343.6391 Q643.8125,342.7141 644.6875,342.2266 Q645.5625,341.7266 646.55,341.7266 Q647.1375,341.7266 647.65,341.8641 Q648.175,341.9891 648.6125,342.2766 Z " fill="#000000"/><text fill="#000000" font-family="sans-serif" font-size="14.4" lengthAdjust="spacing" textLength="136" x="659.2" y="351.5391">ArchiveBoardHandler</text><line style="stroke:#181818;stroke-width:0.4000000000000001;" x1="635.2" x2="798.4" y1="360.7531" y2="360.7531"/><line style="stroke:#181818;stroke-width:0.4000000000000001;" x1="635.2" x2="798.4" y1="367.1531" y2="367.1531"/><text fill="#000000" font-family="sans-serif" font-size="14.4" lengthAdjust="spacing" textLength="39.2" x="640.8" y="387.4922">+run()</text><text fill="#000000" font-family="sans-serif" font-size="14.4" lengthAdjust="spacing" textLength="129.6" x="640.8" y="409.8453">-sendBoardOwned()</text></g><!--class MenuRequest--><g id="elem_MenuRequest"><rect codeLine="41" fill="#F1F1F1" height="65.5063" id="MenuRequest" rx="2" ry="2" style="stroke:#181818;stroke-width:0.4000000000000001;" width="221.6" x="395.6" y="543.2"/><ellipse cx="456.6" cy="558.3766" fill="#ADD1B2" rx="8.8" ry="8.8" style="stroke:#181818;stroke-width:0.8000000000000002;"/><path d="M458.8125,555.0766 Q458.9375,554.9016 459.0875,554.8141 Q459.2375,554.7266 459.4125,554.7266 Q459.7125,554.7266 459.9,554.9391 Q460.0875,555.1391 460.0875,555.6266 L460.0875,556.7891 Q460.0875,557.2766 459.9,557.4891 Q459.7125,557.7016 459.4125,557.7016 Q459.1375,557.7016 458.975,557.5391 Q458.8125,557.3891 458.725,556.9766 Q458.6875,556.6891 458.5375,556.5391 Q458.275,556.2391 457.7875,556.0641 Q457.3,555.8891 456.8,555.8891 Q456.1875,555.8891 455.675,556.1516 Q455.175,556.4141 454.775,557.0141 Q454.3875,557.6141 454.3875,558.4391 L454.3875,559.3141 Q454.3875,560.3016 455.1,560.9641 Q455.8125,561.6141 457.0875,561.6141 Q457.8375,561.6141 458.3625,561.4141 Q458.675,561.2891 459.0125,560.9391 Q459.225,560.7266 459.3375,560.6641 Q459.4625,560.6016 459.625,560.6016 Q459.8875,560.6016 460.0875,560.8141 Q460.3,561.0141 460.3,561.2891 Q460.3,561.5641 460.025,561.8891 Q459.625,562.3516 458.9875,562.6141 Q458.125,562.9766 457.0875,562.9766 Q455.875,562.9766 454.9125,562.4766 Q454.125,562.0766 453.575,561.2266 Q453.025,560.3641 453.025,559.3391 L453.025,558.4141 Q453.025,557.3516 453.5125,556.4391 Q454.0125,555.5141 454.8875,555.0266 Q455.7625,554.5266 456.75,554.5266 Q457.3375,554.5266 457.85,554.6641 Q458.375,554.7891 458.8125,555.0766 Z " fill="#000000"/><text fill="#000000" font-family="sans-serif" font-size="14.4" lengthAdjust="spacing" textLength="89.6" x="474.6" y="564.3391">MenuRequest</text><line style="stroke:#181818;stroke-width:0.4000000000000001;" x1="396.4" x2="616.4" y1="573.5531" y2="573.5531"/><line style="stroke:#181818;stroke-width:0.4000000000000001;" x1="396.4" x2="616.4" y1="579.9531" y2="579.9531"/><text fill="#000000" font-family="sans-serif" font-size="14.4" lengthAdjust="spacing" textLength="208.8" x="402" y="600.2922">+clientBySock(InetAddress addr)</text></g><!--class Thread--><g id="elem_Thread"><rect codeLine="46" fill="#F1F1F1" height="43.1531" id="Thread" rx="2" ry="2" style="stroke:#181818;stroke-width:0.4000000000000001;" width="75.2" x="496" y="722.4"/><ellipse cx="508" cy="737.5766" fill="#ADD1B2" rx="8.8" ry="8.8" style="stroke:#181818;stroke-width:0.8000000000000002;"/><path d="M510.2125,734.2766 Q510.3375,734.1016 510.4875,734.0141 Q510.6375,733.9266 510.8125,733.9266 Q511.1125,733.9266 511.3,734.1391 Q511.4875,734.3391 511.4875,734.8266 L511.4875,735.9891 Q511.4875,736.4766 511.3,736.6891 Q511.1125,736.9016 510.8125,736.9016 Q510.5375,736.9016 510.375,736.7391 Q510.2125,736.5891 510.125,736.1766 Q510.0875,735.8891 509.9375,735.7391 Q509.675,735.4391 509.1875,735.2641 Q508.7,735.0891 508.2,735.0891 Q507.5875,735.0891 507.075,735.3516 Q506.575,735.6141 506.175,736.2141 Q505.7875,736.8141 505.7875,737.6391 L505.7875,738.5141 Q505.7875,739.5016 506.5,740.1641 Q507.2125,740.8141 508.4875,740.8141 Q509.2375,740.8141 509.7625,740.6141 Q510.075,740.4891 510.4125,740.1391 Q510.625,739.9266 510.7375,739.8641 Q510.8625,739.8016 511.025,739.8016 Q511.2875,739.8016 511.4875,740.0141 Q511.7,740.2141 511.7,740.4891 Q511.7,740.7641 511.425,741.0891 Q511.025,741.5516 510.3875,741.8141 Q509.525,742.1766 508.4875,742.1766 Q507.275,742.1766 506.3125,741.6766 Q505.525,741.2766 504.975,740.4266 Q504.425,739.5641 504.425,738.5391 L504.425,737.6141 Q504.425,736.5516 504.9125,735.6391 Q505.4125,734.7141 506.2875,734.2266 Q507.1625,733.7266 508.15,733.7266 Q508.7375,733.7266 509.25,733.8641 Q509.775,733.9891 510.2125,734.2766 Z " fill="#000000"/><text fill="#000000" font-family="sans-serif" font-size="14.4" lengthAdjust="spacing" textLength="46.4" x="520.8" y="743.5391">Thread</text><line style="stroke:#181818;stroke-width:0.4000000000000001;" x1="496.8" x2="570.4" y1="752.7531" y2="752.7531"/><line style="stroke:#181818;stroke-width:0.4000000000000001;" x1="496.8" x2="570.4" y1="759.1531" y2="759.1531"/></g><!--class SBProtocol--><g id="elem_SBProtocol"><rect codeLine="53" fill="#F1F1F1" height="132.5656" id="SBProtocol" rx="2" ry="2" style="stroke:#181818;stroke-width:0.4000000000000001;" width="238.4" x="128.8" y="509.6"/><ellipse cx="207" cy="524.7766" fill="#ADD1B2" rx="8.8" ry="8.8" style="stroke:#181818;stroke-width:0.8000000000000002;"/><path d="M209.2125,521.4766 Q209.3375,521.3016 209.4875,521.2141 Q209.6375,521.1266 209.8125,521.1266 Q210.1125,521.1266 210.3,521.3391 Q210.4875,521.5391 210.4875,522.0266 L210.4875,523.1891 Q210.4875,523.6766 210.3,523.8891 Q210.1125,524.1016 209.8125,524.1016 Q209.5375,524.1016 209.375,523.9391 Q209.2125,523.7891 209.125,523.3766 Q209.0875,523.0891 208.9375,522.9391 Q208.675,522.6391 208.1875,522.4641 Q207.7,522.2891 207.2,522.2891 Q206.5875,522.2891 206.075,522.5516 Q205.575,522.8141 205.175,523.4141 Q204.7875,524.0141 204.7875,524.8391 L204.7875,525.7141 Q204.7875,526.7016 205.5,527.3641 Q206.2125,528.0141 207.4875,528.0141 Q208.2375,528.0141 208.7625,527.8141 Q209.075,527.6891 209.4125,527.3391 Q209.625,527.1266 209.7375,527.0641 Q209.8625,527.0016 210.025,527.0016 Q210.2875,527.0016 210.4875,527.2141 Q210.7,527.4141 210.7,527.6891 Q210.7,527.9641 210.425,528.2891 Q210.025,528.7516 209.3875,529.0141 Q208.525,529.3766 207.4875,529.3766 Q206.275,529.3766 205.3125,528.8766 Q204.525,528.4766 203.975,527.6266 Q203.425,526.7641 203.425,525.7391 L203.425,524.8141 Q203.425,523.7516 203.9125,522.8391 Q204.4125,521.9141 205.2875,521.4266 Q206.1625,520.9266 207.15,520.9266 Q207.7375,520.9266 208.25,521.0641 Q208.775,521.1891 209.2125,521.4766 Z " fill="#000000"/><text fill="#000000" font-family="sans-serif" font-size="14.4" lengthAdjust="spacing" textLength="72" x="225" y="530.7391">SBProtocol</text><line style="stroke:#181818;stroke-width:0.4000000000000001;" x1="129.6" x2="366.4" y1="539.9531" y2="539.9531"/><line style="stroke:#181818;stroke-width:0.4000000000000001;" x1="129.6" x2="366.4" y1="546.3531" y2="546.3531"/><text fill="#000000" font-family="sans-serif" font-size="14.4" lengthAdjust="spacing" textLength="122.4" x="135.2" y="566.6922">+setCode(int code)</text><text fill="#000000" font-family="sans-serif" font-size="14.4" lengthAdjust="spacing" textLength="225.6" x="135.2" y="589.0453">+setContentFromString(String cStr)</text><text fill="#000000" font-family="sans-serif" font-size="14.4" lengthAdjust="spacing" textLength="192.8" x="135.2" y="611.3984">+send(DataOutputStream out)</text><text fill="#000000" font-family="sans-serif" font-size="14.4" lengthAdjust="spacing" textLength="142.4" x="135.2" y="633.7516">+getContentAsString()</text></g><!--class JpaBoardRepository--><g id="elem_JpaBoardRepository"><rect codeLine="62" fill="#F1F1F1" height="65.5063" id="JpaBoardRepository" rx="2" ry="2" style="stroke:#181818;stroke-width:0.4000000000000001;" width="360" x="637.6" y="5.6"/><ellipse cx="747.4" cy="20.7766" fill="#ADD1B2" rx="8.8" ry="8.8" style="stroke:#181818;stroke-width:0.8000000000000002;"/><path d="M749.6125,17.4766 Q749.7375,17.3016 749.8875,17.2141 Q750.0375,17.1266 750.2125,17.1266 Q750.5125,17.1266 750.7,17.3391 Q750.8875,17.5391 750.8875,18.0266 L750.8875,19.1891 Q750.8875,19.6766 750.7,19.8891 Q750.5125,20.1016 750.2125,20.1016 Q749.9375,20.1016 749.775,19.9391 Q749.6125,19.7891 749.525,19.3766 Q749.4875,19.0891 749.3375,18.9391 Q749.075,18.6391 748.5875,18.4641 Q748.1,18.2891 747.6,18.2891 Q746.9875,18.2891 746.475,18.5516 Q745.975,18.8141 745.575,19.4141 Q745.1875,20.0141 745.1875,20.8391 L745.1875,21.7141 Q745.1875,22.7016 745.9,23.3641 Q746.6125,24.0141 747.8875,24.0141 Q748.6375,24.0141 749.1625,23.8141 Q749.475,23.6891 749.8125,23.3391 Q750.025,23.1266 750.1375,23.0641 Q750.2625,23.0016 750.425,23.0016 Q750.6875,23.0016 750.8875,23.2141 Q751.1,23.4141 751.1,23.6891 Q751.1,23.9641 750.825,24.2891 Q750.425,24.7516 749.7875,25.0141 Q748.925,25.3766 747.8875,25.3766 Q746.675,25.3766 745.7125,24.8766 Q744.925,24.4766 744.375,23.6266 Q743.825,22.7641 743.825,21.7391 L743.825,20.8141 Q743.825,19.7516 744.3125,18.8391 Q744.8125,17.9141 745.6875,17.4266 Q746.5625,16.9266 747.55,16.9266 Q748.1375,16.9266 748.65,17.0641 Q749.175,17.1891 749.6125,17.4766 Z " fill="#000000"/><text fill="#000000" font-family="sans-serif" font-size="14.4" lengthAdjust="spacing" textLength="130.4" x="765.4" y="26.7391">JpaBoardRepository</text><line style="stroke:#181818;stroke-width:0.4000000000000001;" x1="638.4" x2="996.8" y1="35.9531" y2="35.9531"/><line style="stroke:#181818;stroke-width:0.4000000000000001;" x1="638.4" x2="996.8" y1="42.3531" y2="42.3531"/><text fill="#000000" font-family="sans-serif" font-size="14.4" lengthAdjust="spacing" textLength="347.2" x="644" y="62.6922">+listBoardsUserOwnsNotArchived(SystemUser owner)</text></g><!--class SystemUser--><g id="elem_SystemUser"><rect codeLine="67" fill="#F1F1F1" height="65.5063" id="SystemUser" rx="2" ry="2" style="stroke:#181818;stroke-width:0.4000000000000001;" width="140.8" x="689.6" y="845.6"/><ellipse cx="717.08" cy="860.7766" fill="#ADD1B2" rx="8.8" ry="8.8" style="stroke:#181818;stroke-width:0.8000000000000002;"/><path d="M719.2925,857.4766 Q719.4175,857.3016 719.5675,857.2141 Q719.7175,857.1266 719.8925,857.1266 Q720.1925,857.1266 720.38,857.3391 Q720.5675,857.5391 720.5675,858.0266 L720.5675,859.1891 Q720.5675,859.6766 720.38,859.8891 Q720.1925,860.1016 719.8925,860.1016 Q719.6175,860.1016 719.455,859.9391 Q719.2925,859.7891 719.205,859.3766 Q719.1675,859.0891 719.0175,858.9391 Q718.755,858.6391 718.2675,858.4641 Q717.78,858.2891 717.28,858.2891 Q716.6675,858.2891 716.155,858.5516 Q715.655,858.8141 715.255,859.4141 Q714.8675,860.0141 714.8675,860.8391 L714.8675,861.7141 Q714.8675,862.7016 715.58,863.3641 Q716.2925,864.0141 717.5675,864.0141 Q718.3175,864.0141 718.8425,863.8141 Q719.155,863.6891 719.4925,863.3391 Q719.705,863.1266 719.8175,863.0641 Q719.9425,863.0016 720.105,863.0016 Q720.3675,863.0016 720.5675,863.2141 Q720.78,863.4141 720.78,863.6891 Q720.78,863.9641 720.505,864.2891 Q720.105,864.7516 719.4675,865.0141 Q718.605,865.3766 717.5675,865.3766 Q716.355,865.3766 715.3925,864.8766 Q714.605,864.4766 714.055,863.6266 Q713.505,862.7641 713.505,861.7391 L713.505,860.8141 Q713.505,859.7516 713.9925,858.8391 Q714.4925,857.9141 715.3675,857.4266 Q716.2425,856.9266 717.23,856.9266 Q717.8175,856.9266 718.33,857.0641 Q718.855,857.1891 719.2925,857.4766 Z " fill="#000000"/><text fill="#000000" font-family="sans-serif" font-size="14.4" lengthAdjust="spacing" textLength="77.6" x="733.32" y="866.7391">SystemUser</text><line style="stroke:#181818;stroke-width:0.4000000000000001;" x1="690.4" x2="829.6" y1="875.9531" y2="875.9531"/><line style="stroke:#181818;stroke-width:0.4000000000000001;" x1="690.4" x2="829.6" y1="882.3531" y2="882.3531"/><text fill="#000000" font-family="sans-serif" font-size="14.4" lengthAdjust="spacing" textLength="128" x="696" y="902.6922">+getUserLoggedIn()</text></g><!--class ShareBoardService--><g id="elem_ShareBoardService"><rect codeLine="72" fill="#F1F1F1" height="65.5063" id="ShareBoardService" rx="2" ry="2" style="stroke:#181818;stroke-width:0.4000000000000001;" width="360" x="816" y="543.2"/><ellipse cx="928.6" cy="558.3766" fill="#ADD1B2" rx="8.8" ry="8.8" style="stroke:#181818;stroke-width:0.8000000000000002;"/><path d="M930.8125,555.0766 Q930.9375,554.9016 931.0875,554.8141 Q931.2375,554.7266 931.4125,554.7266 Q931.7125,554.7266 931.9,554.9391 Q932.0875,555.1391 932.0875,555.6266 L932.0875,556.7891 Q932.0875,557.2766 931.9,557.4891 Q931.7125,557.7016 931.4125,557.7016 Q931.1375,557.7016 930.975,557.5391 Q930.8125,557.3891 930.725,556.9766 Q930.6875,556.6891 930.5375,556.5391 Q930.275,556.2391 929.7875,556.0641 Q929.3,555.8891 928.8,555.8891 Q928.1875,555.8891 927.675,556.1516 Q927.175,556.4141 926.775,557.0141 Q926.3875,557.6141 926.3875,558.4391 L926.3875,559.3141 Q926.3875,560.3016 927.1,560.9641 Q927.8125,561.6141 929.0875,561.6141 Q929.8375,561.6141 930.3625,561.4141 Q930.675,561.2891 931.0125,560.9391 Q931.225,560.7266 931.3375,560.6641 Q931.4625,560.6016 931.625,560.6016 Q931.8875,560.6016 932.0875,560.8141 Q932.3,561.0141 932.3,561.2891 Q932.3,561.5641 932.025,561.8891 Q931.625,562.3516 930.9875,562.6141 Q930.125,562.9766 929.0875,562.9766 Q927.875,562.9766 926.9125,562.4766 Q926.125,562.0766 925.575,561.2266 Q925.025,560.3641 925.025,559.3391 L925.025,558.4141 Q925.025,557.3516 925.5125,556.4391 Q926.0125,555.5141 926.8875,555.0266 Q927.7625,554.5266 928.75,554.5266 Q929.3375,554.5266 929.85,554.6641 Q930.375,554.7891 930.8125,555.0766 Z " fill="#000000"/><text fill="#000000" font-family="sans-serif" font-size="14.4" lengthAdjust="spacing" textLength="124.8" x="946.6" y="564.3391">ShareBoardService</text><line style="stroke:#181818;stroke-width:0.4000000000000001;" x1="816.8" x2="1175.2" y1="573.5531" y2="573.5531"/><line style="stroke:#181818;stroke-width:0.4000000000000001;" x1="816.8" x2="1175.2" y1="579.9531" y2="579.9531"/><text fill="#000000" font-family="sans-serif" font-size="14.4" lengthAdjust="spacing" textLength="347.2" x="822.4" y="600.2922">+listBoardsUserOwnsNotArchived(SystemUser owner)</text></g><!--class Board--><g id="elem_Board"><rect fill="#F1F1F1" height="43.1531" id="Board" rx="2" ry="2" style="stroke:#181818;stroke-width:0.4000000000000001;" width="67.2" x="822.4" y="722.4"/><ellipse cx="834.4" cy="737.5766" fill="#ADD1B2" rx="8.8" ry="8.8" style="stroke:#181818;stroke-width:0.8000000000000002;"/><path d="M836.6125,734.2766 Q836.7375,734.1016 836.8875,734.0141 Q837.0375,733.9266 837.2125,733.9266 Q837.5125,733.9266 837.7,734.1391 Q837.8875,734.3391 837.8875,734.8266 L837.8875,735.9891 Q837.8875,736.4766 837.7,736.6891 Q837.5125,736.9016 837.2125,736.9016 Q836.9375,736.9016 836.775,736.7391 Q836.6125,736.5891 836.525,736.1766 Q836.4875,735.8891 836.3375,735.7391 Q836.075,735.4391 835.5875,735.2641 Q835.1,735.0891 834.6,735.0891 Q833.9875,735.0891 833.475,735.3516 Q832.975,735.6141 832.575,736.2141 Q832.1875,736.8141 832.1875,737.6391 L832.1875,738.5141 Q832.1875,739.5016 832.9,740.1641 Q833.6125,740.8141 834.8875,740.8141 Q835.6375,740.8141 836.1625,740.6141 Q836.475,740.4891 836.8125,740.1391 Q837.025,739.9266 837.1375,739.8641 Q837.2625,739.8016 837.425,739.8016 Q837.6875,739.8016 837.8875,740.0141 Q838.1,740.2141 838.1,740.4891 Q838.1,740.7641 837.825,741.0891 Q837.425,741.5516 836.7875,741.8141 Q835.925,742.1766 834.8875,742.1766 Q833.675,742.1766 832.7125,741.6766 Q831.925,741.2766 831.375,740.4266 Q830.825,739.5641 830.825,738.5391 L830.825,737.6141 Q830.825,736.5516 831.3125,735.6391 Q831.8125,734.7141 832.6875,734.2266 Q833.5625,733.7266 834.55,733.7266 Q835.1375,733.7266 835.65,733.8641 Q836.175,733.9891 836.6125,734.2766 Z " fill="#000000"/><text fill="#000000" font-family="sans-serif" font-size="14.4" lengthAdjust="spacing" textLength="38.4" x="847.2" y="743.5391">Board</text><line style="stroke:#181818;stroke-width:0.4000000000000001;" x1="823.2" x2="888.8" y1="752.7531" y2="752.7531"/><line style="stroke:#181818;stroke-width:0.4000000000000001;" x1="823.2" x2="888.8" y1="759.1531" y2="759.1531"/></g><!--link ArchiveBoardUI to AbstractUI--><g id="link_ArchiveBoardUI_AbstractUI"><path codeLine="80" d="M126.648,239.216 C109.864,269.768 87.648,310.192 71.984,338.696 " fill="none" id="ArchiveBoardUI-to-AbstractUI" style="stroke:#181818;stroke-width:0.8000000000000002;"/><polygon fill="none" points="76.856,341.456,64.24,352.784,67.04,336.064,76.856,341.456" style="stroke:#181818;stroke-width:0.8000000000000002;"/></g><!--link MenuRequest to Thread--><g id="link_MenuRequest_Thread"><path codeLine="81" d="M511.648,608.88 C516.2,636.768 522.8,677.152 527.576,706.352 " fill="none" id="MenuRequest-to-Thread" style="stroke:#181818;stroke-width:0.8000000000000002;"/><polygon fill="none" points="533.128,705.576,530.176,722.272,522.072,707.384,533.128,705.576" style="stroke:#181818;stroke-width:0.8000000000000002;"/></g><!--link ArchiveBoardUI to ArchiveBoardController--><g id="link_ArchiveBoardUI_ArchiveBoardController"><path codeLine="85" d="M174.152,239.216 C186.736,262.12 202.368,290.568 216.008,315.384 " fill="none" id="ArchiveBoardUI-to-ArchiveBoardController" style="stroke:#181818;stroke-width:0.8000000000000002;"/><polygon fill="#181818" points="218.008,319.016,217.3588,311.1637,216.0878,315.507,211.7445,314.236,218.008,319.016" style="stroke:#181818;stroke-width:0.8000000000000002;"/><text fill="#000000" font-family="sans-serif" font-size="10.4" lengthAdjust="spacing" textLength="5.6" x="207.2613" y="308.4826">1</text></g><!--link ArchiveBoardController to SBProtocol--><g id="link_ArchiveBoardController_SBProtocol"><path codeLine="86" d="M248,429.848 C248,453.136 248,480.592 248,505.328 " fill="none" id="ArchiveBoardController-to-SBProtocol" style="stroke:#181818;stroke-width:0.8000000000000002;"/><polygon fill="#181818" points="248,509.592,251.2,502.392,248,505.592,244.8,502.392,248,509.592" style="stroke:#181818;stroke-width:0.8000000000000002;"/><text fill="#000000" font-family="sans-serif" font-size="10.4" lengthAdjust="spacing" textLength="4" x="242.0794" y="498.9729">*</text></g><!--link ArchiveBoardHandler to SBProtocol--><g id="link_ArchiveBoardHandler_SBProtocol"><path codeLine="88" d="M634.112,406.36 C565.824,432.568 466.656,471.728 381.6,509.6 C378.136,511.144 374.624,512.728 371.088,514.336 " fill="none" id="ArchiveBoardHandler-to-SBProtocol" style="stroke:#181818;stroke-width:0.8000000000000002;"/><polygon fill="#181818" points="367.248,516.096,375.1265,516,370.8832,514.427,372.4561,510.1837,367.248,516.096" style="stroke:#181818;stroke-width:0.8000000000000002;"/><text fill="#000000" font-family="sans-serif" font-size="10.4" lengthAdjust="spacing" textLength="4" x="375.1824" y="508.6088">*</text></g><!--reverse link BoardRepository to ArchiveBoardHandler--><g id="link_BoardRepository_ArchiveBoardHandler"><path codeLine="89" d="M797.216,231.92 C781.08,260.344 758.496,300.136 741.368,330.312 " fill="none" id="BoardRepository-backto-ArchiveBoardHandler" style="stroke:#181818;stroke-width:0.8000000000000002;"/><polygon fill="#181818" points="799.344,228.16,793.02,232.8596,797.3792,231.6442,798.5946,236.0034,799.344,228.16" style="stroke:#181818;stroke-width:0.8000000000000002;"/><text fill="#000000" font-family="sans-serif" font-size="10.4" lengthAdjust="spacing" textLength="5.6" x="788.8164" y="247.0814">1</text></g><!--link ArchiveBoardHandler to MenuRequest--><g id="link_ArchiveBoardHandler_MenuRequest"><path codeLine="91" d="M671.144,418.6 C632.824,455.024 578.784,506.4 543.184,540.232 " fill="none" id="ArchiveBoardHandler-to-MenuRequest" style="stroke:#181818;stroke-width:0.8000000000000002;"/><polygon fill="#181818" points="540.232,543.04,547.6576,540.4056,543.1337,540.2868,543.2525,535.7629,540.232,543.04" style="stroke:#181818;stroke-width:0.8000000000000002;"/><text fill="#000000" font-family="sans-serif" font-size="10.4" lengthAdjust="spacing" textLength="5.6" x="537.7227" y="532.4969">1</text></g><!--link ArchiveBoardHandler to SystemUser--><g id="link_ArchiveBoardHandler_SystemUser"><path codeLine="92" d="M720.52,418.472 C728.888,515.816 749.08,750.632 756.864,841.16 " fill="none" id="ArchiveBoardHandler-to-SystemUser" style="stroke:#181818;stroke-width:0.8000000000000002;"/><polygon fill="#181818" points="757.224,845.36,759.7956,837.9124,756.8814,841.3747,753.4191,838.4605,757.224,845.36" style="stroke:#181818;stroke-width:0.8000000000000002;"/><text fill="#000000" font-family="sans-serif" font-size="10.4" lengthAdjust="spacing" textLength="5.6" x="748.9252" y="835.0622">1</text></g><!--link ArchiveBoardHandler to ShareBoardService--><g id="link_ArchiveBoardHandler_ShareBoardService"><path codeLine="93" d="M777.384,418.6 C828.52,455.232 900.752,506.968 947.968,540.792 " fill="none" id="ArchiveBoardHandler-to-ShareBoardService" style="stroke:#181818;stroke-width:0.8000000000000002;"/><polygon fill="#181818" points="951.328,543.2,947.3358,536.4072,948.0754,540.8718,943.6107,541.6114,951.328,543.2" style="stroke:#181818;stroke-width:0.8000000000000002;"/><text fill="#000000" font-family="sans-serif" font-size="10.4" lengthAdjust="spacing" textLength="5.6" x="936.3072" y="532.6824">1</text></g><!--link ShareBoardService to BoardRepository--><g id="link_ShareBoardService_BoardRepository"><path codeLine="95" d="M980.92,543.152 C947.816,472.776 868.976,305.2 834.368,231.648 " fill="none" id="ShareBoardService-to-BoardRepository" style="stroke:#181818;stroke-width:0.8000000000000002;"/><polygon fill="#181818" points="832.656,228,832.8323,235.8771,834.3619,231.618,838.6211,233.1476,832.656,228" style="stroke:#181818;stroke-width:0.8000000000000002;"/><text fill="#000000" font-family="sans-serif" font-size="10.4" lengthAdjust="spacing" textLength="5.6" x="827.0877" y="247.1564">1</text></g><!--link ShareBoardService to Board--><g id="link_ShareBoardService_Board"><path codeLine="96" d="M969.008,608.88 C941.864,641.144 900.648,690.136 876.208,719.176 " fill="none" id="ShareBoardService-to-Board" style="stroke:#181818;stroke-width:0.8000000000000002;"/><polygon fill="#181818" points="873.608,722.272,880.6883,718.8153,876.18,719.2085,875.7867,714.7001,873.608,722.272" style="stroke:#181818;stroke-width:0.8000000000000002;"/><text fill="#000000" font-family="sans-serif" font-size="10.4" lengthAdjust="spacing" textLength="4" x="871.0723" y="711.7347">*</text></g><!--link ShareBoardService to SystemUser--><g id="link_ShareBoardService_SystemUser"><path codeLine="97" d="M985.248,609.04 C970.912,648.768 942.68,716.968 903.2,765.6 C878.536,795.976 844.184,823.192 815.304,843.192 " fill="none" id="ShareBoardService-to-SystemUser" style="stroke:#181818;stroke-width:0.8000000000000002;"/><polygon fill="#181818" points="811.816,845.592,819.5586,844.1317,815.1068,843.3181,815.9204,838.8664,811.816,845.592" style="stroke:#181818;stroke-width:0.8000000000000002;"/><text fill="#000000" font-family="sans-serif" font-size="10.4" lengthAdjust="spacing" textLength="4" x="813.9004" y="835.0732">*</text></g><!--link ArchiveBoardHandler to Board--><g id="link_ArchiveBoardHandler_Board"><path codeLine="99" d="M727.832,418.432 C742.104,472.024 769.056,565.672 801.6,642.4 C813,669.288 829.224,698.496 840.984,718.52 " fill="none" id="ArchiveBoardHandler-to-Board" style="stroke:#181818;stroke-width:0.8000000000000002;"/><polygon fill="#181818" points="843.128,722.144,842.2175,714.3177,841.0919,718.701,836.7086,717.5754,843.128,722.144" style="stroke:#181818;stroke-width:0.8000000000000002;"/><text fill="#000000" font-family="sans-serif" font-size="10.4" lengthAdjust="spacing" textLength="4" x="834.1307" y="711.9552">*</text></g><!--link ArchiveBoardHandler to Runnable--><g id="link_ArchiveBoardHandler_Runnable"><path codeLine="101" d="M703.432,418.472 C673.352,515.84 600.792,750.72 572.84,841.208 " fill="none" id="ArchiveBoardHandler-to-Runnable" style="stroke:#181818;stroke-width:0.8000000000000002;stroke-dasharray:7.0,7.0;"/><polygon fill="none" points="578.16,842.96,568.088,856.592,567.464,839.656,578.16,842.96" style="stroke:#181818;stroke-width:0.8000000000000002;"/></g><!--link Thread to Runnable--><g id="link_Thread_Runnable"><path codeLine="102" d="M538.04,765.84 C542.28,785.952 548.76,816.688 553.848,840.84 " fill="none" id="Thread-to-Runnable" style="stroke:#181818;stroke-width:0.8000000000000002;stroke-dasharray:7.0,7.0;"/><polygon fill="none" points="559.36,839.848,557.184,856.656,548.4,842.152,559.36,839.848" style="stroke:#181818;stroke-width:0.8000000000000002;"/></g><!--link SBProtocol to MessageProtocol--><g id="link_SBProtocol_MessageProtocol"><path codeLine="103" d="M248,642.568 C248,664.152 248,687.384 248,706.08 " fill="none" id="SBProtocol-to-MessageProtocol" style="stroke:#181818;stroke-width:0.8000000000000002;stroke-dasharray:7.0,7.0;"/><polygon fill="none" points="253.6,706.104,248,722.104,242.4,706.104,253.6,706.104" style="stroke:#181818;stroke-width:0.8000000000000002;"/></g><!--link JpaBoardRepository to BoardRepository--><g id="link_JpaBoardRepository_BoardRepository"><path codeLine="104" d="M817.6,71.36 C817.6,92.896 817.6,121.648 817.6,145.936 " fill="none" id="JpaBoardRepository-to-BoardRepository" style="stroke:#181818;stroke-width:0.8000000000000002;stroke-dasharray:7.0,7.0;"/><polygon fill="none" points="823.2,146.28,817.6,162.28,812,146.28,823.2,146.28" style="stroke:#181818;stroke-width:0.8000000000000002;"/></g><!--SRC=[dLFBRjim4BppAmZtO3c2NpqLFGImKmHrqJI5bNm0BMvbmXAfagkuxkFVin8LMRLa5wal5dTdPvSxm-4MCNVlfzCy5HgBB9t49fl6gN1kB9L8hCWOSpkbSq6Vl4ei4AtQ50YhsEX8_GG-Qq5o8QNI2N_RYbcXTmvoFf_DJibkZSQAO_wECQOqWlqcOk3hGcknIQ4LkWFdH09VhK4JcxIDNXfXvHfounGQUs2_6ETXgXnM2VVemDxljVjYS67ZhNe26KG7Xv2L6Mxs6ko8yJ-CLJFnnSQX5J4-heZf6FMb5MMLuVHxmwM9jcOVZAfZoBSWPAeqKA2tyeOkR4sQWYK6zgyfYJKKzS6ZWeYsJ_lTbAS7XIcKc3Wr3Y8Jxm3FDVuejFHTGrjeGeqTQ4zANQjUJTqTw68DtmjmME99AWKQbuUoGx3IW0ifBSd1IMpRgdlOMhg-NzhhjFJrqRA9q7f3xW1lZ8I02dbC7wCcI4mQRwt9_3fUjXBJVmtIClWWKDmNc1T8OI3BcGAhRD9GB5nDC6B7QtpAHTTHh_PJGtTCrQO9gNzv_6oI1EHAjrSVRONrWaLWdrGCrIR-epTZG_X1LvIE_UrSFXx_lcvxlAMspzKo4eE4l6JWHWSgour5D-goNVF1V73EvFrXNtKrQ2lEUjpQX-k55Nazngbmvra9tFRv9LnBmOkmZdQi4-8D-dJISz2h6jeFUDdFSSABU_HCGn8pXOpyxthHamcve7cstWudmQCWFd7wehjloECw-h1d]--></g></svg>