<?xml version="1.0" encoding="us-ascii" standalone="no"?><svg xmlns="http://www.w3.org/2000/svg" xmlns:xlink="http://www.w3.org/1999/xlink" contentStyleType="text/css" height="1621px" preserveAspectRatio="none" style="width:1272px;height:1621px;background:#FFFFFF;" version="1.1" viewBox="0 0 1272 1621" width="1272px" zoomAndPan="magnify"><defs/><g><!--class Runnable--><g id="elem_Runnable"><rect codeLine="51" fill="#F1F1F1" height="53.9414" id="Runnable" rx="2.5" ry="2.5" style="stroke:#181818;stroke-width:0.5;" width="114" x="595" y="1085"/><ellipse cx="610" cy="1103.9707" fill="#B4A7E5" rx="11" ry="11" style="stroke:#181818;stroke-width:1.0;"/><path d="M610.9531,1100.6113 L610.9531,1107.2676 L612.6719,1107.2676 Q613.2813,1107.2676 613.5469,1107.502 Q613.8125,1107.7363 613.8125,1108.127 Q613.8125,1108.502 613.5469,1108.7363 Q613.2813,1108.9707 612.6719,1108.9707 L607.5313,1108.9707 Q606.9219,1108.9707 606.6563,1108.7363 Q606.3906,1108.502 606.3906,1108.1113 Q606.3906,1107.7363 606.6563,1107.502 Q606.9219,1107.2676 607.5313,1107.2676 L609.25,1107.2676 L609.25,1100.6113 L607.5313,1100.6113 Q606.9219,1100.6113 606.6563,1100.377 Q606.3906,1100.1426 606.3906,1099.752 Q606.3906,1099.377 606.6563,1099.1426 Q606.9219,1098.9082 607.5313,1098.9082 L612.6719,1098.9082 Q613.2813,1098.9082 613.5469,1099.1426 Q613.8125,1099.377 613.8125,1099.752 Q613.8125,1100.1426 613.5469,1100.377 Q613.2813,1100.6113 612.6719,1100.6113 L610.9531,1100.6113 Z " fill="#000000"/><text fill="#000000" font-family="sans-serif" font-size="18" font-style="italic" lengthAdjust="spacing" textLength="78" x="626" y="1111.4238">Runnable</text><line style="stroke:#181818;stroke-width:0.5;" x1="596" x2="708" y1="1122.9414" y2="1122.9414"/><line style="stroke:#181818;stroke-width:0.5;" x1="596" x2="708" y1="1130.9414" y2="1130.9414"/></g><!--class MessageProtocol--><g id="elem_MessageProtocol"><rect codeLine="52" fill="#F1F1F1" height="53.9414" id="MessageProtocol" rx="2.5" ry="2.5" style="stroke:#181818;stroke-width:0.5;" width="177" x="322.5" y="1309"/><ellipse cx="337.5" cy="1327.9707" fill="#B4A7E5" rx="11" ry="11" style="stroke:#181818;stroke-width:1.0;"/><path d="M338.4531,1324.6113 L338.4531,1331.2676 L340.1719,1331.2676 Q340.7813,1331.2676 341.0469,1331.502 Q341.3125,1331.7363 341.3125,1332.127 Q341.3125,1332.502 341.0469,1332.7363 Q340.7813,1332.9707 340.1719,1332.9707 L335.0313,1332.9707 Q334.4219,1332.9707 334.1563,1332.7363 Q333.8906,1332.502 333.8906,1332.1113 Q333.8906,1331.7363 334.1563,1331.502 Q334.4219,1331.2676 335.0313,1331.2676 L336.75,1331.2676 L336.75,1324.6113 L335.0313,1324.6113 Q334.4219,1324.6113 334.1563,1324.377 Q333.8906,1324.1426 333.8906,1323.752 Q333.8906,1323.377 334.1563,1323.1426 Q334.4219,1322.9082 335.0313,1322.9082 L340.1719,1322.9082 Q340.7813,1322.9082 341.0469,1323.1426 Q341.3125,1323.377 341.3125,1323.752 Q341.3125,1324.1426 341.0469,1324.377 Q340.7813,1324.6113 340.1719,1324.6113 L338.4531,1324.6113 Z " fill="#000000"/><text fill="#000000" font-family="sans-serif" font-size="18" font-style="italic" lengthAdjust="spacing" textLength="141" x="353.5" y="1335.4238">MessageProtocol</text><line style="stroke:#181818;stroke-width:0.5;" x1="323.5" x2="498.5" y1="1346.9414" y2="1346.9414"/><line style="stroke:#181818;stroke-width:0.5;" x1="323.5" x2="498.5" y1="1354.9414" y2="1354.9414"/></g><!--class BoardRepository--><g id="elem_BoardRepository"><rect codeLine="12" fill="#F1F1F1" height="109.8242" id="BoardRepository" rx="2.5" ry="2.5" style="stroke:#181818;stroke-width:0.5;" width="450" x="795" y="581"/><ellipse cx="946.25" cy="599.9707" fill="#B4A7E5" rx="11" ry="11" style="stroke:#181818;stroke-width:1.0;"/><path d="M947.2031,596.6113 L947.2031,603.2676 L948.9219,603.2676 Q949.5313,603.2676 949.7969,603.502 Q950.0625,603.7363 950.0625,604.127 Q950.0625,604.502 949.7969,604.7363 Q949.5313,604.9707 948.9219,604.9707 L943.7813,604.9707 Q943.1719,604.9707 942.9063,604.7363 Q942.6406,604.502 942.6406,604.1113 Q942.6406,603.7363 942.9063,603.502 Q943.1719,603.2676 943.7813,603.2676 L945.5,603.2676 L945.5,596.6113 L943.7813,596.6113 Q943.1719,596.6113 942.9063,596.377 Q942.6406,596.1426 942.6406,595.752 Q942.6406,595.377 942.9063,595.1426 Q943.1719,594.9082 943.7813,594.9082 L948.9219,594.9082 Q949.5313,594.9082 949.7969,595.1426 Q950.0625,595.377 950.0625,595.752 Q950.0625,596.1426 949.7969,596.377 Q949.5313,596.6113 948.9219,596.6113 L947.2031,596.6113 Z " fill="#000000"/><text fill="#000000" font-family="sans-serif" font-size="18" font-style="italic" lengthAdjust="spacing" textLength="135" x="968.75" y="607.4238">BoardRepository</text><line style="stroke:#181818;stroke-width:0.5;" x1="796" x2="1244" y1="618.9414" y2="618.9414"/><line style="stroke:#181818;stroke-width:0.5;" x1="796" x2="1244" y1="626.9414" y2="626.9414"/><text fill="#000000" font-family="sans-serif" font-size="18" lengthAdjust="spacing" textLength="434" x="803" y="652.3652">+listBoardsUserOwnsNotArchived(SystemUser owner)</text><text fill="#000000" font-family="sans-serif" font-size="18" lengthAdjust="spacing" textLength="406" x="803" y="680.3066">+listBoardsUserOwnsArchived(SystemUser owner)</text></g><!--class AbstractUI--><g id="elem_AbstractUI"><rect codeLine="18" fill="#F1F1F1" height="53.9414" id="AbstractUI" rx="2.5" ry="2.5" style="stroke:#181818;stroke-width:0.5;" width="120" x="7" y="833"/><ellipse cx="22" cy="851.9707" fill="#A9DCDF" rx="11" ry="11" style="stroke:#181818;stroke-width:1.0;"/><path d="M24.1875,853.7363 L20.0469,853.7363 L19.625,854.7676 L20.0469,854.7676 Q20.6563,854.7676 20.9219,855.002 Q21.1875,855.2363 21.1875,855.627 Q21.1875,856.002 20.9219,856.2363 Q20.6563,856.4707 20.0469,856.4707 L17.75,856.4707 Q17.1406,856.4707 16.8906,856.2363 Q16.625,856.002 16.625,855.6113 Q16.625,855.2363 16.9063,855.002 Q17.1719,854.752 17.7969,854.7676 L20.4688,848.1113 L19.3594,848.1113 Q18.75,848.1113 18.4844,847.877 Q18.2188,847.6426 18.2188,847.252 Q18.2188,846.877 18.4844,846.6426 Q18.75,846.4082 19.3594,846.4082 L23.0313,846.4082 L26.4219,854.7676 Q27.0156,854.7676 27.2031,854.9082 Q27.5938,855.1738 27.5938,855.627 Q27.5938,856.002 27.3281,856.2363 Q27.0781,856.4707 26.4688,856.4707 L24.1719,856.4707 Q23.5625,856.4707 23.2969,856.2363 Q23.0313,856.002 23.0313,855.6113 Q23.0313,855.2363 23.2969,855.002 Q23.5625,854.7676 24.1719,854.7676 L24.5938,854.7676 L24.1875,853.7363 Z M23.4688,852.0332 L22.1094,848.6582 L20.7344,852.0332 L23.4688,852.0332 Z " fill="#000000"/><text fill="#000000" font-family="sans-serif" font-size="18" font-style="italic" lengthAdjust="spacing" textLength="84" x="38" y="859.4238">AbstractUI</text><line style="stroke:#181818;stroke-width:0.5;" x1="8" x2="126" y1="870.9414" y2="870.9414"/><line style="stroke:#181818;stroke-width:0.5;" x1="8" x2="126" y1="878.9414" y2="878.9414"/></g><!--class ArchiveBoardUI--><g id="elem_ArchiveBoardUI"><rect codeLine="22" fill="#F1F1F1" height="109.8242" id="ArchiveBoardUI" rx="2.5" ry="2.5" style="stroke:#181818;stroke-width:0.5;" width="160" x="150" y="581"/><ellipse cx="165" cy="599.9707" fill="#ADD1B2" rx="11" ry="11" style="stroke:#181818;stroke-width:1.0;"/><path d="M167.7656,595.8457 Q167.9219,595.627 168.1094,595.5176 Q168.2969,595.4082 168.5156,595.4082 Q168.8906,595.4082 169.125,595.6738 Q169.3594,595.9238 169.3594,596.5332 L169.3594,597.9863 Q169.3594,598.5957 169.125,598.8613 Q168.8906,599.127 168.5156,599.127 Q168.1719,599.127 167.9688,598.9238 Q167.7656,598.7363 167.6563,598.2207 Q167.6094,597.8613 167.4219,597.6738 Q167.0938,597.2988 166.4844,597.0801 Q165.875,596.8613 165.25,596.8613 Q164.4844,596.8613 163.8438,597.1895 Q163.2188,597.5176 162.7188,598.2676 Q162.2344,599.0176 162.2344,600.0488 L162.2344,601.1426 Q162.2344,602.377 163.125,603.2051 Q164.0156,604.0176 165.6094,604.0176 Q166.5469,604.0176 167.2031,603.7676 Q167.5938,603.6113 168.0156,603.1738 Q168.2813,602.9082 168.4219,602.8301 Q168.5781,602.752 168.7813,602.752 Q169.1094,602.752 169.3594,603.0176 Q169.625,603.2676 169.625,603.6113 Q169.625,603.9551 169.2813,604.3613 Q168.7813,604.9395 167.9844,605.2676 Q166.9063,605.7207 165.6094,605.7207 Q164.0938,605.7207 162.8906,605.0957 Q161.9063,604.5957 161.2188,603.5332 Q160.5313,602.4551 160.5313,601.1738 L160.5313,600.0176 Q160.5313,598.6895 161.1406,597.5488 Q161.7656,596.3926 162.8594,595.7832 Q163.9531,595.1582 165.1875,595.1582 Q165.9219,595.1582 166.5625,595.3301 Q167.2188,595.4863 167.7656,595.8457 Z " fill="#000000"/><text fill="#000000" font-family="sans-serif" font-size="18" lengthAdjust="spacing" textLength="124" x="181" y="607.4238">ArchiveBoardUI</text><line style="stroke:#181818;stroke-width:0.5;" x1="151" x2="309" y1="618.9414" y2="618.9414"/><line style="stroke:#181818;stroke-width:0.5;" x1="151" x2="309" y1="626.9414" y2="626.9414"/><text fill="#000000" font-family="sans-serif" font-size="18" lengthAdjust="spacing" textLength="87" x="158" y="652.3652">#doShow()</text><text fill="#000000" font-family="sans-serif" font-size="18" lengthAdjust="spacing" textLength="91" x="158" y="680.3066">+headline()</text></g><!--class ArchiveBoardController--><g id="elem_ArchiveBoardController"><rect codeLine="28" fill="#F1F1F1" height="137.7656" id="ArchiveBoardController" rx="2.5" ry="2.5" style="stroke:#181818;stroke-width:0.5;" width="299" x="162.5" y="791"/><ellipse cx="213.25" cy="809.9707" fill="#ADD1B2" rx="11" ry="11" style="stroke:#181818;stroke-width:1.0;"/><path d="M216.0156,805.8457 Q216.1719,805.627 216.3594,805.5176 Q216.5469,805.4082 216.7656,805.4082 Q217.1406,805.4082 217.375,805.6738 Q217.6094,805.9238 217.6094,806.5332 L217.6094,807.9863 Q217.6094,808.5957 217.375,808.8613 Q217.1406,809.127 216.7656,809.127 Q216.4219,809.127 216.2188,808.9238 Q216.0156,808.7363 215.9063,808.2207 Q215.8594,807.8613 215.6719,807.6738 Q215.3438,807.2988 214.7344,807.0801 Q214.125,806.8613 213.5,806.8613 Q212.7344,806.8613 212.0938,807.1895 Q211.4688,807.5176 210.9688,808.2676 Q210.4844,809.0176 210.4844,810.0488 L210.4844,811.1426 Q210.4844,812.377 211.375,813.2051 Q212.2656,814.0176 213.8594,814.0176 Q214.7969,814.0176 215.4531,813.7676 Q215.8438,813.6113 216.2656,813.1738 Q216.5313,812.9082 216.6719,812.8301 Q216.8281,812.752 217.0313,812.752 Q217.3594,812.752 217.6094,813.0176 Q217.875,813.2676 217.875,813.6113 Q217.875,813.9551 217.5313,814.3613 Q217.0313,814.9395 216.2344,815.2676 Q215.1563,815.7207 213.8594,815.7207 Q212.3438,815.7207 211.1406,815.0957 Q210.1563,814.5957 209.4688,813.5332 Q208.7813,812.4551 208.7813,811.1738 L208.7813,810.0176 Q208.7813,808.6895 209.3906,807.5488 Q210.0156,806.3926 211.1094,805.7832 Q212.2031,805.1582 213.4375,805.1582 Q214.1719,805.1582 214.8125,805.3301 Q215.4688,805.4863 216.0156,805.8457 Z " fill="#000000"/><text fill="#000000" font-family="sans-serif" font-size="18" lengthAdjust="spacing" textLength="185" x="235.75" y="817.4238">ArchiveBoardController</text><line style="stroke:#181818;stroke-width:0.5;" x1="163.5" x2="460.5" y1="828.9414" y2="828.9414"/><line style="stroke:#181818;stroke-width:0.5;" x1="163.5" x2="460.5" y1="836.9414" y2="836.9414"/><text fill="#000000" font-family="sans-serif" font-size="18" lengthAdjust="spacing" textLength="283" x="170.5" y="862.3652">+listBoardsUserOwnsNotArchived()</text><text fill="#000000" font-family="sans-serif" font-size="18" lengthAdjust="spacing" textLength="281" x="170.5" y="890.3066">+archivedBoards(String boardTitle)</text><text fill="#000000" font-family="sans-serif" font-size="18" lengthAdjust="spacing" textLength="120" x="170.5" y="918.248">+closeSocket()</text></g><!--class ArchiveBoardHandler--><g id="elem_ArchiveBoardHandler"><rect codeLine="36" fill="#F1F1F1" height="109.8242" id="ArchiveBoardHandler" rx="2.5" ry="2.5" style="stroke:#181818;stroke-width:0.5;" width="206" x="697" y="805"/><ellipse cx="712" cy="823.9707" fill="#ADD1B2" rx="11" ry="11" style="stroke:#181818;stroke-width:1.0;"/><path d="M714.7656,819.8457 Q714.9219,819.627 715.1094,819.5176 Q715.2969,819.4082 715.5156,819.4082 Q715.8906,819.4082 716.125,819.6738 Q716.3594,819.9238 716.3594,820.5332 L716.3594,821.9863 Q716.3594,822.5957 716.125,822.8613 Q715.8906,823.127 715.5156,823.127 Q715.1719,823.127 714.9688,822.9238 Q714.7656,822.7363 714.6563,822.2207 Q714.6094,821.8613 714.4219,821.6738 Q714.0938,821.2988 713.4844,821.0801 Q712.875,820.8613 712.25,820.8613 Q711.4844,820.8613 710.8438,821.1895 Q710.2188,821.5176 709.7188,822.2676 Q709.2344,823.0176 709.2344,824.0488 L709.2344,825.1426 Q709.2344,826.377 710.125,827.2051 Q711.0156,828.0176 712.6094,828.0176 Q713.5469,828.0176 714.2031,827.7676 Q714.5938,827.6113 715.0156,827.1738 Q715.2813,826.9082 715.4219,826.8301 Q715.5781,826.752 715.7813,826.752 Q716.1094,826.752 716.3594,827.0176 Q716.625,827.2676 716.625,827.6113 Q716.625,827.9551 716.2813,828.3613 Q715.7813,828.9395 714.9844,829.2676 Q713.9063,829.7207 712.6094,829.7207 Q711.0938,829.7207 709.8906,829.0957 Q708.9063,828.5957 708.2188,827.5332 Q707.5313,826.4551 707.5313,825.1738 L707.5313,824.0176 Q707.5313,822.6895 708.1406,821.5488 Q708.7656,820.3926 709.8594,819.7832 Q710.9531,819.1582 712.1875,819.1582 Q712.9219,819.1582 713.5625,819.3301 Q714.2188,819.4863 714.7656,819.8457 Z " fill="#000000"/><text fill="#000000" font-family="sans-serif" font-size="18" lengthAdjust="spacing" textLength="170" x="728" y="831.4238">ArchiveBoardHandler</text><line style="stroke:#181818;stroke-width:0.5;" x1="698" x2="902" y1="842.9414" y2="842.9414"/><line style="stroke:#181818;stroke-width:0.5;" x1="698" x2="902" y1="850.9414" y2="850.9414"/><text fill="#000000" font-family="sans-serif" font-size="18" lengthAdjust="spacing" textLength="49" x="705" y="876.3652">+run()</text><text fill="#000000" font-family="sans-serif" font-size="18" lengthAdjust="spacing" textLength="162" x="705" y="904.3066">-sendBoardOwned()</text></g><!--class MenuRequest--><g id="elem_MenuRequest"><rect codeLine="42" fill="#F1F1F1" height="81.8828" id="MenuRequest" rx="2.5" ry="2.5" style="stroke:#181818;stroke-width:0.5;" width="148" x="491" y="595"/><ellipse cx="506" cy="613.9707" fill="#ADD1B2" rx="11" ry="11" style="stroke:#181818;stroke-width:1.0;"/><path d="M508.7656,609.8457 Q508.9219,609.627 509.1094,609.5176 Q509.2969,609.4082 509.5156,609.4082 Q509.8906,609.4082 510.125,609.6738 Q510.3594,609.9238 510.3594,610.5332 L510.3594,611.9863 Q510.3594,612.5957 510.125,612.8613 Q509.8906,613.127 509.5156,613.127 Q509.1719,613.127 508.9688,612.9238 Q508.7656,612.7363 508.6563,612.2207 Q508.6094,611.8613 508.4219,611.6738 Q508.0938,611.2988 507.4844,611.0801 Q506.875,610.8613 506.25,610.8613 Q505.4844,610.8613 504.8438,611.1895 Q504.2188,611.5176 503.7188,612.2676 Q503.2344,613.0176 503.2344,614.0488 L503.2344,615.1426 Q503.2344,616.377 504.125,617.2051 Q505.0156,618.0176 506.6094,618.0176 Q507.5469,618.0176 508.2031,617.7676 Q508.5938,617.6113 509.0156,617.1738 Q509.2813,616.9082 509.4219,616.8301 Q509.5781,616.752 509.7813,616.752 Q510.1094,616.752 510.3594,617.0176 Q510.625,617.2676 510.625,617.6113 Q510.625,617.9551 510.2813,618.3613 Q509.7813,618.9395 508.9844,619.2676 Q507.9063,619.7207 506.6094,619.7207 Q505.0938,619.7207 503.8906,619.0957 Q502.9063,618.5957 502.2188,617.5332 Q501.5313,616.4551 501.5313,615.1738 L501.5313,614.0176 Q501.5313,612.6895 502.1406,611.5488 Q502.7656,610.3926 503.8594,609.7832 Q504.9531,609.1582 506.1875,609.1582 Q506.9219,609.1582 507.5625,609.3301 Q508.2188,609.4863 508.7656,609.8457 Z " fill="#000000"/><text fill="#000000" font-family="sans-serif" font-size="18" lengthAdjust="spacing" textLength="112" x="522" y="621.4238">MenuRequest</text><line style="stroke:#181818;stroke-width:0.5;" x1="492" x2="638" y1="632.9414" y2="632.9414"/><line style="stroke:#181818;stroke-width:0.5;" x1="492" x2="638" y1="640.9414" y2="640.9414"/><text fill="#000000" font-family="sans-serif" font-size="18" lengthAdjust="spacing" textLength="49" x="499" y="666.3652">+run()</text></g><!--class Thread--><g id="elem_Thread"><rect codeLine="47" fill="#F1F1F1" height="53.9414" id="Thread" rx="2.5" ry="2.5" style="stroke:#181818;stroke-width:0.5;" width="94" x="568" y="833"/><ellipse cx="583" cy="851.9707" fill="#ADD1B2" rx="11" ry="11" style="stroke:#181818;stroke-width:1.0;"/><path d="M585.7656,847.8457 Q585.9219,847.627 586.1094,847.5176 Q586.2969,847.4082 586.5156,847.4082 Q586.8906,847.4082 587.125,847.6738 Q587.3594,847.9238 587.3594,848.5332 L587.3594,849.9863 Q587.3594,850.5957 587.125,850.8613 Q586.8906,851.127 586.5156,851.127 Q586.1719,851.127 585.9688,850.9238 Q585.7656,850.7363 585.6563,850.2207 Q585.6094,849.8613 585.4219,849.6738 Q585.0938,849.2988 584.4844,849.0801 Q583.875,848.8613 583.25,848.8613 Q582.4844,848.8613 581.8438,849.1895 Q581.2188,849.5176 580.7188,850.2676 Q580.2344,851.0176 580.2344,852.0488 L580.2344,853.1426 Q580.2344,854.377 581.125,855.2051 Q582.0156,856.0176 583.6094,856.0176 Q584.5469,856.0176 585.2031,855.7676 Q585.5938,855.6113 586.0156,855.1738 Q586.2813,854.9082 586.4219,854.8301 Q586.5781,854.752 586.7813,854.752 Q587.1094,854.752 587.3594,855.0176 Q587.625,855.2676 587.625,855.6113 Q587.625,855.9551 587.2813,856.3613 Q586.7813,856.9395 585.9844,857.2676 Q584.9063,857.7207 583.6094,857.7207 Q582.0938,857.7207 580.8906,857.0957 Q579.9063,856.5957 579.2188,855.5332 Q578.5313,854.4551 578.5313,853.1738 L578.5313,852.0176 Q578.5313,850.6895 579.1406,849.5488 Q579.7656,848.3926 580.8594,847.7832 Q581.9531,847.1582 583.1875,847.1582 Q583.9219,847.1582 584.5625,847.3301 Q585.2188,847.4863 585.7656,847.8457 Z " fill="#000000"/><text fill="#000000" font-family="sans-serif" font-size="18" lengthAdjust="spacing" textLength="58" x="599" y="859.4238">Thread</text><line style="stroke:#181818;stroke-width:0.5;" x1="569" x2="661" y1="870.9414" y2="870.9414"/><line style="stroke:#181818;stroke-width:0.5;" x1="569" x2="661" y1="878.9414" y2="878.9414"/></g><!--class SBProtocol--><g id="elem_SBProtocol"><rect codeLine="54" fill="#F1F1F1" height="165.707" id="SBProtocol" rx="2.5" ry="2.5" style="stroke:#181818;stroke-width:0.5;" width="298" x="262" y="1029"/><ellipse cx="359.75" cy="1047.9707" fill="#ADD1B2" rx="11" ry="11" style="stroke:#181818;stroke-width:1.0;"/><path d="M362.5156,1043.8457 Q362.6719,1043.627 362.8594,1043.5176 Q363.0469,1043.4082 363.2656,1043.4082 Q363.6406,1043.4082 363.875,1043.6738 Q364.1094,1043.9238 364.1094,1044.5332 L364.1094,1045.9863 Q364.1094,1046.5957 363.875,1046.8613 Q363.6406,1047.127 363.2656,1047.127 Q362.9219,1047.127 362.7188,1046.9238 Q362.5156,1046.7363 362.4063,1046.2207 Q362.3594,1045.8613 362.1719,1045.6738 Q361.8438,1045.2988 361.2344,1045.0801 Q360.625,1044.8613 360,1044.8613 Q359.2344,1044.8613 358.5938,1045.1895 Q357.9688,1045.5176 357.4688,1046.2676 Q356.9844,1047.0176 356.9844,1048.0488 L356.9844,1049.1426 Q356.9844,1050.377 357.875,1051.2051 Q358.7656,1052.0176 360.3594,1052.0176 Q361.2969,1052.0176 361.9531,1051.7676 Q362.3438,1051.6113 362.7656,1051.1738 Q363.0313,1050.9082 363.1719,1050.8301 Q363.3281,1050.752 363.5313,1050.752 Q363.8594,1050.752 364.1094,1051.0176 Q364.375,1051.2676 364.375,1051.6113 Q364.375,1051.9551 364.0313,1052.3613 Q363.5313,1052.9395 362.7344,1053.2676 Q361.6563,1053.7207 360.3594,1053.7207 Q358.8438,1053.7207 357.6406,1053.0957 Q356.6563,1052.5957 355.9688,1051.5332 Q355.2813,1050.4551 355.2813,1049.1738 L355.2813,1048.0176 Q355.2813,1046.6895 355.8906,1045.5488 Q356.5156,1044.3926 357.6094,1043.7832 Q358.7031,1043.1582 359.9375,1043.1582 Q360.6719,1043.1582 361.3125,1043.3301 Q361.9688,1043.4863 362.5156,1043.8457 Z " fill="#000000"/><text fill="#000000" font-family="sans-serif" font-size="18" lengthAdjust="spacing" textLength="90" x="382.25" y="1055.4238">SBProtocol</text><line style="stroke:#181818;stroke-width:0.5;" x1="263" x2="559" y1="1066.9414" y2="1066.9414"/><line style="stroke:#181818;stroke-width:0.5;" x1="263" x2="559" y1="1074.9414" y2="1074.9414"/><text fill="#000000" font-family="sans-serif" font-size="18" lengthAdjust="spacing" textLength="153" x="270" y="1100.3652">+setCode(int code)</text><text fill="#000000" font-family="sans-serif" font-size="18" lengthAdjust="spacing" textLength="282" x="270" y="1128.3066">+setContentFromString(String cStr)</text><text fill="#000000" font-family="sans-serif" font-size="18" lengthAdjust="spacing" textLength="241" x="270" y="1156.248">+send(DataOutputStream out)</text><text fill="#000000" font-family="sans-serif" font-size="18" lengthAdjust="spacing" textLength="178" x="270" y="1184.1895">+getContentAsString()</text></g><!--class JpaBoardRepository--><g id="elem_JpaBoardRepository"><rect codeLine="63" fill="#F1F1F1" height="109.8242" id="JpaBoardRepository" rx="2.5" ry="2.5" style="stroke:#181818;stroke-width:0.5;" width="450" x="795" y="371"/><ellipse cx="932.25" cy="389.9707" fill="#ADD1B2" rx="11" ry="11" style="stroke:#181818;stroke-width:1.0;"/><path d="M935.0156,385.8457 Q935.1719,385.627 935.3594,385.5176 Q935.5469,385.4082 935.7656,385.4082 Q936.1406,385.4082 936.375,385.6738 Q936.6094,385.9238 936.6094,386.5332 L936.6094,387.9863 Q936.6094,388.5957 936.375,388.8613 Q936.1406,389.127 935.7656,389.127 Q935.4219,389.127 935.2188,388.9238 Q935.0156,388.7363 934.9063,388.2207 Q934.8594,387.8613 934.6719,387.6738 Q934.3438,387.2988 933.7344,387.0801 Q933.125,386.8613 932.5,386.8613 Q931.7344,386.8613 931.0938,387.1895 Q930.4688,387.5176 929.9688,388.2676 Q929.4844,389.0176 929.4844,390.0488 L929.4844,391.1426 Q929.4844,392.377 930.375,393.2051 Q931.2656,394.0176 932.8594,394.0176 Q933.7969,394.0176 934.4531,393.7676 Q934.8438,393.6113 935.2656,393.1738 Q935.5313,392.9082 935.6719,392.8301 Q935.8281,392.752 936.0313,392.752 Q936.3594,392.752 936.6094,393.0176 Q936.875,393.2676 936.875,393.6113 Q936.875,393.9551 936.5313,394.3613 Q936.0313,394.9395 935.2344,395.2676 Q934.1563,395.7207 932.8594,395.7207 Q931.3438,395.7207 930.1406,395.0957 Q929.1563,394.5957 928.4688,393.5332 Q927.7813,392.4551 927.7813,391.1738 L927.7813,390.0176 Q927.7813,388.6895 928.3906,387.5488 Q929.0156,386.3926 930.1094,385.7832 Q931.2031,385.1582 932.4375,385.1582 Q933.1719,385.1582 933.8125,385.3301 Q934.4688,385.4863 935.0156,385.8457 Z " fill="#000000"/><text fill="#000000" font-family="sans-serif" font-size="18" lengthAdjust="spacing" textLength="163" x="954.75" y="397.4238">JpaBoardRepository</text><line style="stroke:#181818;stroke-width:0.5;" x1="796" x2="1244" y1="408.9414" y2="408.9414"/><line style="stroke:#181818;stroke-width:0.5;" x1="796" x2="1244" y1="416.9414" y2="416.9414"/><text fill="#000000" font-family="sans-serif" font-size="18" lengthAdjust="spacing" textLength="434" x="803" y="442.3652">+listBoardsUserOwnsNotArchived(SystemUser owner)</text><text fill="#000000" font-family="sans-serif" font-size="18" lengthAdjust="spacing" textLength="406" x="803" y="470.3066">+listBoardsUserOwnsArchived(SystemUser owner)</text></g><!--class Client--><g id="elem_Client"><rect codeLine="69" fill="#F1F1F1" height="81.8828" id="Client" rx="2.5" ry="2.5" style="stroke:#181818;stroke-width:0.5;" width="176" x="579" y="385"/><ellipse cx="637.75" cy="403.9707" fill="#ADD1B2" rx="11" ry="11" style="stroke:#181818;stroke-width:1.0;"/><path d="M640.5156,399.8457 Q640.6719,399.627 640.8594,399.5176 Q641.0469,399.4082 641.2656,399.4082 Q641.6406,399.4082 641.875,399.6738 Q642.1094,399.9238 642.1094,400.5332 L642.1094,401.9863 Q642.1094,402.5957 641.875,402.8613 Q641.6406,403.127 641.2656,403.127 Q640.9219,403.127 640.7188,402.9238 Q640.5156,402.7363 640.4063,402.2207 Q640.3594,401.8613 640.1719,401.6738 Q639.8438,401.2988 639.2344,401.0801 Q638.625,400.8613 638,400.8613 Q637.2344,400.8613 636.5938,401.1895 Q635.9688,401.5176 635.4688,402.2676 Q634.9844,403.0176 634.9844,404.0488 L634.9844,405.1426 Q634.9844,406.377 635.875,407.2051 Q636.7656,408.0176 638.3594,408.0176 Q639.2969,408.0176 639.9531,407.7676 Q640.3438,407.6113 640.7656,407.1738 Q641.0313,406.9082 641.1719,406.8301 Q641.3281,406.752 641.5313,406.752 Q641.8594,406.752 642.1094,407.0176 Q642.375,407.2676 642.375,407.6113 Q642.375,407.9551 642.0313,408.3613 Q641.5313,408.9395 640.7344,409.2676 Q639.6563,409.7207 638.3594,409.7207 Q636.8438,409.7207 635.6406,409.0957 Q634.6563,408.5957 633.9688,407.5332 Q633.2813,406.4551 633.2813,405.1738 L633.2813,404.0176 Q633.2813,402.6895 633.8906,401.5488 Q634.5156,400.3926 635.6094,399.7832 Q636.7031,399.1582 637.9375,399.1582 Q638.6719,399.1582 639.3125,399.3301 Q639.9688,399.4863 640.5156,399.8457 Z " fill="#000000"/><text fill="#000000" font-family="sans-serif" font-size="18" lengthAdjust="spacing" textLength="46" x="660.25" y="411.4238">Client</text><line style="stroke:#181818;stroke-width:0.5;" x1="580" x2="754" y1="422.9414" y2="422.9414"/><line style="stroke:#181818;stroke-width:0.5;" x1="580" x2="754" y1="430.9414" y2="430.9414"/><text fill="#000000" font-family="sans-serif" font-size="18" lengthAdjust="spacing" textLength="160" x="587" y="456.3652">+getUserLoggedIn()</text></g><!--class BoardService--><g id="elem_BoardService"><rect codeLine="74" fill="#F1F1F1" height="109.8242" id="BoardService" rx="2.5" ry="2.5" style="stroke:#181818;stroke-width:0.5;" width="450" x="815" y="1057"/><ellipse cx="979.75" cy="1075.9707" fill="#ADD1B2" rx="11" ry="11" style="stroke:#181818;stroke-width:1.0;"/><path d="M982.5156,1071.8457 Q982.6719,1071.627 982.8594,1071.5176 Q983.0469,1071.4082 983.2656,1071.4082 Q983.6406,1071.4082 983.875,1071.6738 Q984.1094,1071.9238 984.1094,1072.5332 L984.1094,1073.9863 Q984.1094,1074.5957 983.875,1074.8613 Q983.6406,1075.127 983.2656,1075.127 Q982.9219,1075.127 982.7188,1074.9238 Q982.5156,1074.7363 982.4063,1074.2207 Q982.3594,1073.8613 982.1719,1073.6738 Q981.8438,1073.2988 981.2344,1073.0801 Q980.625,1072.8613 980,1072.8613 Q979.2344,1072.8613 978.5938,1073.1895 Q977.9688,1073.5176 977.4688,1074.2676 Q976.9844,1075.0176 976.9844,1076.0488 L976.9844,1077.1426 Q976.9844,1078.377 977.875,1079.2051 Q978.7656,1080.0176 980.3594,1080.0176 Q981.2969,1080.0176 981.9531,1079.7676 Q982.3438,1079.6113 982.7656,1079.1738 Q983.0313,1078.9082 983.1719,1078.8301 Q983.3281,1078.752 983.5313,1078.752 Q983.8594,1078.752 984.1094,1079.0176 Q984.375,1079.2676 984.375,1079.6113 Q984.375,1079.9551 984.0313,1080.3613 Q983.5313,1080.9395 982.7344,1081.2676 Q981.6563,1081.7207 980.3594,1081.7207 Q978.8438,1081.7207 977.6406,1081.0957 Q976.6563,1080.5957 975.9688,1079.5332 Q975.2813,1078.4551 975.2813,1077.1738 L975.2813,1076.0176 Q975.2813,1074.6895 975.8906,1073.5488 Q976.5156,1072.3926 977.6094,1071.7832 Q978.7031,1071.1582 979.9375,1071.1582 Q980.6719,1071.1582 981.3125,1071.3301 Q981.9688,1071.4863 982.5156,1071.8457 Z " fill="#000000"/><text fill="#000000" font-family="sans-serif" font-size="18" lengthAdjust="spacing" textLength="108" x="1002.25" y="1083.4238">BoardService</text><line style="stroke:#181818;stroke-width:0.5;" x1="816" x2="1264" y1="1094.9414" y2="1094.9414"/><line style="stroke:#181818;stroke-width:0.5;" x1="816" x2="1264" y1="1102.9414" y2="1102.9414"/><text fill="#000000" font-family="sans-serif" font-size="18" lengthAdjust="spacing" textLength="434" x="823" y="1128.3652">+listBoardsUserOwnsNotArchived(SystemUser owner)</text><text fill="#000000" font-family="sans-serif" font-size="18" lengthAdjust="spacing" textLength="406" x="823" y="1156.3066">+listBoardsUserOwnsArchived(SystemUser owner)</text></g><!--class BoardState--><g id="elem_BoardState"><rect codeLine="80" fill="#F1F1F1" height="137.7656" id="BoardState" rx="2.5" ry="2.5" style="stroke:#181818;stroke-width:0.5;" width="126" x="838" y="1477"/><ellipse cx="853" cy="1495.9707" fill="#EB937F" rx="11" ry="11" style="stroke:#181818;stroke-width:1.0;"/><path d="M851.8594,1496.7676 L851.8594,1499.2676 L856.1875,1499.2676 L856.1875,1498.3457 Q856.1875,1497.7363 856.4219,1497.4707 Q856.6719,1497.2051 857.0469,1497.2051 Q857.4219,1497.2051 857.6563,1497.4707 Q857.8906,1497.7363 857.8906,1498.3457 L857.8906,1500.9707 L849.8906,1500.9707 Q849.2656,1500.9707 849,1500.7363 Q848.75,1500.502 848.75,1500.1113 Q848.75,1499.7363 849.0156,1499.502 Q849.2813,1499.2676 849.8906,1499.2676 L850.1563,1499.2676 L850.1563,1492.6113 L849.8906,1492.6113 Q849.2656,1492.6113 849,1492.377 Q848.75,1492.1426 848.75,1491.752 Q848.75,1491.377 849,1491.1426 Q849.2656,1490.9082 849.8906,1490.9082 L857.5156,1490.9082 L857.5156,1493.502 Q857.5156,1494.1113 857.2813,1494.377 Q857.0625,1494.627 856.6719,1494.627 Q856.2969,1494.627 856.0625,1494.377 Q855.8281,1494.1113 855.8281,1493.502 L855.8281,1492.6113 L851.8594,1492.6113 L851.8594,1495.0645 L853.3438,1495.0645 Q853.3438,1494.4082 853.4688,1494.2207 Q853.7344,1493.8145 854.2031,1493.8145 Q854.5781,1493.8145 854.8125,1494.0801 Q855.0469,1494.3301 855.0469,1494.9395 L855.0469,1496.9082 Q855.0469,1497.4551 854.9219,1497.6426 Q854.6563,1498.0332 854.2031,1498.0332 Q853.7344,1498.0332 853.4688,1497.627 Q853.3438,1497.4395 853.3438,1496.7676 L851.8594,1496.7676 Z " fill="#000000"/><text fill="#000000" font-family="sans-serif" font-size="18" lengthAdjust="spacing" textLength="90" x="869" y="1503.4238">BoardState</text><line style="stroke:#181818;stroke-width:0.5;" x1="839" x2="963" y1="1514.9414" y2="1514.9414"/><text fill="#000000" font-family="sans-serif" font-size="18" lengthAdjust="spacing" textLength="97" x="846" y="1540.3652">+CREATED</text><text fill="#000000" font-family="sans-serif" font-size="18" lengthAdjust="spacing" textLength="85" x="846" y="1568.3066">+SHARED</text><text fill="#000000" font-family="sans-serif" font-size="18" lengthAdjust="spacing" textLength="101" x="846" y="1596.248">+ARCHIVED</text><line style="stroke:#181818;stroke-width:0.5;" x1="839" x2="963" y1="1606.7656" y2="1606.7656"/></g><!--class Board--><g id="elem_Board"><rect codeLine="87" fill="#F1F1F1" height="81.8828" id="Board" rx="2.5" ry="2.5" style="stroke:#181818;stroke-width:0.5;" width="145" x="828.5" y="1295"/><ellipse cx="870.95" cy="1313.9707" fill="#ADD1B2" rx="11" ry="11" style="stroke:#181818;stroke-width:1.0;"/><path d="M873.7156,1309.8457 Q873.8719,1309.627 874.0594,1309.5176 Q874.2469,1309.4082 874.4656,1309.4082 Q874.8406,1309.4082 875.075,1309.6738 Q875.3094,1309.9238 875.3094,1310.5332 L875.3094,1311.9863 Q875.3094,1312.5957 875.075,1312.8613 Q874.8406,1313.127 874.4656,1313.127 Q874.1219,1313.127 873.9188,1312.9238 Q873.7156,1312.7363 873.6063,1312.2207 Q873.5594,1311.8613 873.3719,1311.6738 Q873.0438,1311.2988 872.4344,1311.0801 Q871.825,1310.8613 871.2,1310.8613 Q870.4344,1310.8613 869.7938,1311.1895 Q869.1688,1311.5176 868.6688,1312.2676 Q868.1844,1313.0176 868.1844,1314.0488 L868.1844,1315.1426 Q868.1844,1316.377 869.075,1317.2051 Q869.9656,1318.0176 871.5594,1318.0176 Q872.4969,1318.0176 873.1531,1317.7676 Q873.5438,1317.6113 873.9656,1317.1738 Q874.2313,1316.9082 874.3719,1316.8301 Q874.5281,1316.752 874.7313,1316.752 Q875.0594,1316.752 875.3094,1317.0176 Q875.575,1317.2676 875.575,1317.6113 Q875.575,1317.9551 875.2313,1318.3613 Q874.7313,1318.9395 873.9344,1319.2676 Q872.8563,1319.7207 871.5594,1319.7207 Q870.0438,1319.7207 868.8406,1319.0957 Q867.8563,1318.5957 867.1688,1317.5332 Q866.4813,1316.4551 866.4813,1315.1738 L866.4813,1314.0176 Q866.4813,1312.6895 867.0906,1311.5488 Q867.7156,1310.3926 868.8094,1309.7832 Q869.9031,1309.1582 871.1375,1309.1582 Q871.8719,1309.1582 872.5125,1309.3301 Q873.1688,1309.4863 873.7156,1309.8457 Z " fill="#000000"/><text fill="#000000" font-family="sans-serif" font-size="18" lengthAdjust="spacing" textLength="48" x="893.05" y="1321.4238">Board</text><line style="stroke:#181818;stroke-width:0.5;" x1="829.5" x2="972.5" y1="1332.9414" y2="1332.9414"/><line style="stroke:#181818;stroke-width:0.5;" x1="829.5" x2="972.5" y1="1340.9414" y2="1340.9414"/><text fill="#000000" font-family="sans-serif" font-size="18" lengthAdjust="spacing" textLength="129" x="836.5" y="1366.3652">+archiveBoard()</text></g><!--class SBPClientApp--><g id="elem_SBPClientApp"><rect codeLine="92" fill="#F1F1F1" height="53.9414" id="SBPClientApp" rx="2.5" ry="2.5" style="stroke:#181818;stroke-width:0.5;" width="149" x="174.5" y="189"/><ellipse cx="189.5" cy="207.9707" fill="#ADD1B2" rx="11" ry="11" style="stroke:#181818;stroke-width:1.0;"/><path d="M192.2656,203.8457 Q192.4219,203.627 192.6094,203.5176 Q192.7969,203.4082 193.0156,203.4082 Q193.3906,203.4082 193.625,203.6738 Q193.8594,203.9238 193.8594,204.5332 L193.8594,205.9863 Q193.8594,206.5957 193.625,206.8613 Q193.3906,207.127 193.0156,207.127 Q192.6719,207.127 192.4688,206.9238 Q192.2656,206.7363 192.1563,206.2207 Q192.1094,205.8613 191.9219,205.6738 Q191.5938,205.2988 190.9844,205.0801 Q190.375,204.8613 189.75,204.8613 Q188.9844,204.8613 188.3438,205.1895 Q187.7188,205.5176 187.2188,206.2676 Q186.7344,207.0176 186.7344,208.0488 L186.7344,209.1426 Q186.7344,210.377 187.625,211.2051 Q188.5156,212.0176 190.1094,212.0176 Q191.0469,212.0176 191.7031,211.7676 Q192.0938,211.6113 192.5156,211.1738 Q192.7813,210.9082 192.9219,210.8301 Q193.0781,210.752 193.2813,210.752 Q193.6094,210.752 193.8594,211.0176 Q194.125,211.2676 194.125,211.6113 Q194.125,211.9551 193.7813,212.3613 Q193.2813,212.9395 192.4844,213.2676 Q191.4063,213.7207 190.1094,213.7207 Q188.5938,213.7207 187.3906,213.0957 Q186.4063,212.5957 185.7188,211.5332 Q185.0313,210.4551 185.0313,209.1738 L185.0313,208.0176 Q185.0313,206.6895 185.6406,205.5488 Q186.2656,204.3926 187.3594,203.7832 Q188.4531,203.1582 189.6875,203.1582 Q190.4219,203.1582 191.0625,203.3301 Q191.7188,203.4863 192.2656,203.8457 Z " fill="#000000"/><text fill="#000000" font-family="sans-serif" font-size="18" lengthAdjust="spacing" textLength="113" x="205.5" y="215.4238">SBPClientApp</text><line style="stroke:#181818;stroke-width:0.5;" x1="175.5" x2="322.5" y1="226.9414" y2="226.9414"/><line style="stroke:#181818;stroke-width:0.5;" x1="175.5" x2="322.5" y1="234.9414" y2="234.9414"/></g><!--class SBPServerApp--><g id="elem_SBPServerApp"><rect codeLine="94" fill="#F1F1F1" height="109.8242" id="SBPServerApp" rx="2.5" ry="2.5" style="stroke:#181818;stroke-width:0.5;" width="331" x="360.5" y="161"/><ellipse cx="459.75" cy="179.9707" fill="#ADD1B2" rx="11" ry="11" style="stroke:#181818;stroke-width:1.0;"/><path d="M462.5156,175.8457 Q462.6719,175.627 462.8594,175.5176 Q463.0469,175.4082 463.2656,175.4082 Q463.6406,175.4082 463.875,175.6738 Q464.1094,175.9238 464.1094,176.5332 L464.1094,177.9863 Q464.1094,178.5957 463.875,178.8613 Q463.6406,179.127 463.2656,179.127 Q462.9219,179.127 462.7188,178.9238 Q462.5156,178.7363 462.4063,178.2207 Q462.3594,177.8613 462.1719,177.6738 Q461.8438,177.2988 461.2344,177.0801 Q460.625,176.8613 460,176.8613 Q459.2344,176.8613 458.5938,177.1895 Q457.9688,177.5176 457.4688,178.2676 Q456.9844,179.0176 456.9844,180.0488 L456.9844,181.1426 Q456.9844,182.377 457.875,183.2051 Q458.7656,184.0176 460.3594,184.0176 Q461.2969,184.0176 461.9531,183.7676 Q462.3438,183.6113 462.7656,183.1738 Q463.0313,182.9082 463.1719,182.8301 Q463.3281,182.752 463.5313,182.752 Q463.8594,182.752 464.1094,183.0176 Q464.375,183.2676 464.375,183.6113 Q464.375,183.9551 464.0313,184.3613 Q463.5313,184.9395 462.7344,185.2676 Q461.6563,185.7207 460.3594,185.7207 Q458.8438,185.7207 457.6406,185.0957 Q456.6563,184.5957 455.9688,183.5332 Q455.2813,182.4551 455.2813,181.1738 L455.2813,180.0176 Q455.2813,178.6895 455.8906,177.5488 Q456.5156,176.3926 457.6094,175.7832 Q458.7031,175.1582 459.9375,175.1582 Q460.6719,175.1582 461.3125,175.3301 Q461.9688,175.4863 462.5156,175.8457 Z " fill="#000000"/><text fill="#000000" font-family="sans-serif" font-size="18" lengthAdjust="spacing" textLength="120" x="482.25" y="187.4238">SBPServerApp</text><line style="stroke:#181818;stroke-width:0.5;" x1="361.5" x2="690.5" y1="198.9414" y2="198.9414"/><text fill="#000000" font-family="sans-serif" font-size="18" lengthAdjust="spacing" text-decoration="underline" textLength="315" x="368.5" y="224.3652">+Map&lt;InetAddress, Client&gt; activeAuths</text><text fill="#000000" font-family="sans-serif" font-size="18" lengthAdjust="spacing" text-decoration="underline" textLength="269" x="368.5" y="252.3066">+Map&lt;BoardTitle, Board&gt; boards</text><line style="stroke:#181818;stroke-width:0.5;" x1="361.5" x2="690.5" y1="262.8242" y2="262.8242"/></g><!--class BaseApplication--><g id="elem_BaseApplication"><rect codeLine="101" fill="#F1F1F1" height="53.9414" id="BaseApplication" rx="2.5" ry="2.5" style="stroke:#181818;stroke-width:0.5;" width="168" x="302" y="7"/><ellipse cx="317" cy="25.9707" fill="#A9DCDF" rx="11" ry="11" style="stroke:#181818;stroke-width:1.0;"/><path d="M319.1875,27.7363 L315.0469,27.7363 L314.625,28.7676 L315.0469,28.7676 Q315.6563,28.7676 315.9219,29.002 Q316.1875,29.2363 316.1875,29.627 Q316.1875,30.002 315.9219,30.2363 Q315.6563,30.4707 315.0469,30.4707 L312.75,30.4707 Q312.1406,30.4707 311.8906,30.2363 Q311.625,30.002 311.625,29.6113 Q311.625,29.2363 311.9063,29.002 Q312.1719,28.752 312.7969,28.7676 L315.4688,22.1113 L314.3594,22.1113 Q313.75,22.1113 313.4844,21.877 Q313.2188,21.6426 313.2188,21.252 Q313.2188,20.877 313.4844,20.6426 Q313.75,20.4082 314.3594,20.4082 L318.0313,20.4082 L321.4219,28.7676 Q322.0156,28.7676 322.2031,28.9082 Q322.5938,29.1738 322.5938,29.627 Q322.5938,30.002 322.3281,30.2363 Q322.0781,30.4707 321.4688,30.4707 L319.1719,30.4707 Q318.5625,30.4707 318.2969,30.2363 Q318.0313,30.002 318.0313,29.6113 Q318.0313,29.2363 318.2969,29.002 Q318.5625,28.7676 319.1719,28.7676 L319.5938,28.7676 L319.1875,27.7363 Z M318.4688,26.0332 L317.1094,22.6582 L315.7344,26.0332 L318.4688,26.0332 Z " fill="#000000"/><text fill="#000000" font-family="sans-serif" font-size="18" font-style="italic" lengthAdjust="spacing" textLength="132" x="333" y="33.4238">BaseApplication</text><line style="stroke:#181818;stroke-width:0.5;" x1="303" x2="469" y1="44.9414" y2="44.9414"/><line style="stroke:#181818;stroke-width:0.5;" x1="303" x2="469" y1="52.9414" y2="52.9414"/></g><!--class MainMenu--><g id="elem_MainMenu"><rect codeLine="103" fill="#F1F1F1" height="81.8828" id="MainMenu" rx="2.5" ry="2.5" style="stroke:#181818;stroke-width:0.5;" width="156" x="152" y="385"/><ellipse cx="183.2" cy="403.9707" fill="#ADD1B2" rx="11" ry="11" style="stroke:#181818;stroke-width:1.0;"/><path d="M185.9656,399.8457 Q186.1219,399.627 186.3094,399.5176 Q186.4969,399.4082 186.7156,399.4082 Q187.0906,399.4082 187.325,399.6738 Q187.5594,399.9238 187.5594,400.5332 L187.5594,401.9863 Q187.5594,402.5957 187.325,402.8613 Q187.0906,403.127 186.7156,403.127 Q186.3719,403.127 186.1688,402.9238 Q185.9656,402.7363 185.8563,402.2207 Q185.8094,401.8613 185.6219,401.6738 Q185.2938,401.2988 184.6844,401.0801 Q184.075,400.8613 183.45,400.8613 Q182.6844,400.8613 182.0438,401.1895 Q181.4188,401.5176 180.9188,402.2676 Q180.4344,403.0176 180.4344,404.0488 L180.4344,405.1426 Q180.4344,406.377 181.325,407.2051 Q182.2156,408.0176 183.8094,408.0176 Q184.7469,408.0176 185.4031,407.7676 Q185.7938,407.6113 186.2156,407.1738 Q186.4813,406.9082 186.6219,406.8301 Q186.7781,406.752 186.9813,406.752 Q187.3094,406.752 187.5594,407.0176 Q187.825,407.2676 187.825,407.6113 Q187.825,407.9551 187.4813,408.3613 Q186.9813,408.9395 186.1844,409.2676 Q185.1063,409.7207 183.8094,409.7207 Q182.2938,409.7207 181.0906,409.0957 Q180.1063,408.5957 179.4188,407.5332 Q178.7313,406.4551 178.7313,405.1738 L178.7313,404.0176 Q178.7313,402.6895 179.3406,401.5488 Q179.9656,400.3926 181.0594,399.7832 Q182.1531,399.1582 183.3875,399.1582 Q184.1219,399.1582 184.7625,399.3301 Q185.4188,399.4863 185.9656,399.8457 Z " fill="#000000"/><text fill="#000000" font-family="sans-serif" font-size="18" lengthAdjust="spacing" textLength="84" x="202.8" y="411.4238">MainMenu</text><line style="stroke:#181818;stroke-width:0.5;" x1="153" x2="307" y1="422.9414" y2="422.9414"/><line style="stroke:#181818;stroke-width:0.5;" x1="153" x2="307" y1="430.9414" y2="430.9414"/><text fill="#000000" font-family="sans-serif" font-size="18" lengthAdjust="spacing" textLength="140" x="160" y="456.3652">-buildMainMenu()</text></g><!--reverse link SBPServerApp to Client--><g id="link_SBPServerApp_Client"><path codeLine="108" d="M570.23,282.25 C593.05,315.91 620.15,355.89 639.86,384.96 " fill="none" id="SBPServerApp-backto-Client" style="stroke:#181818;stroke-width:1.0;"/><polygon fill="none" points="562.68,271.11,562.7393,278.3209,569.4183,281.0395,569.359,273.8286,562.68,271.11" style="stroke:#181818;stroke-width:1.0;"/></g><!--link ArchiveBoardUI to AbstractUI--><g id="link_ArchiveBoardUI_AbstractUI"><path codeLine="110" d="M190.33,691.02 C161.91,729.74 124.17,781.14 97.96,816.84 " fill="none" id="ArchiveBoardUI-to-AbstractUI" style="stroke:#181818;stroke-width:1.0;"/><polygon fill="none" points="103.58,821,86.1,832.98,92.3,812.72,103.58,821" style="stroke:#181818;stroke-width:1.0;"/></g><!--link MenuRequest to Thread--><g id="link_MenuRequest_Thread"><path codeLine="111" d="M574.05,677.2 C582.69,715.54 595.68,773.23 604.71,813.3 " fill="none" id="MenuRequest-to-Thread" style="stroke:#181818;stroke-width:1.0;"/><polygon fill="none" points="611.57,811.93,609.14,832.98,597.92,815.01,611.57,811.93" style="stroke:#181818;stroke-width:1.0;"/></g><!--reverse link BaseApplication to SBPClientApp--><g id="link_BaseApplication_SBPClientApp"><path codeLine="112" d="M353.73,77.4 C327.45,111.93 291.18,159.59 268.95,188.79 " fill="none" id="BaseApplication-backto-SBPClientApp" style="stroke:#181818;stroke-width:1.0;"/><polygon fill="none" points="348.4,72.85,366.08,61.17,359.54,81.33,348.4,72.85" style="stroke:#181818;stroke-width:1.0;"/></g><!--reverse link BaseApplication to SBPServerApp--><g id="link_BaseApplication_SBPServerApp"><path codeLine="113" d="M418.84,77.22 C438.27,102.2 463.09,134.11 483.94,160.92 " fill="none" id="BaseApplication-backto-SBPServerApp" style="stroke:#181818;stroke-width:1.0;"/><polygon fill="none" points="413.11,81.26,406.36,61.17,424.16,72.66,413.11,81.26" style="stroke:#181818;stroke-width:1.0;"/></g><!--link MainMenu to AbstractUI--><g id="link_MainMenu_AbstractUI"><path codeLine="114" d="M199.16,467.06 C177.49,496.98 149.39,539.67 132,581 C99.25,658.84 81.3,756.21 72.96,812.64 " fill="none" id="MainMenu-to-AbstractUI" style="stroke:#181818;stroke-width:1.0;"/><polygon fill="none" points="79.84,813.96,70.13,832.8,65.98,812.02,79.84,813.96" style="stroke:#181818;stroke-width:1.0;"/></g><!--link ArchiveBoardUI to ArchiveBoardController--><g id="link_ArchiveBoardUI_ArchiveBoardController"><path codeLine="117" d="M249.95,691.02 C260.48,719.53 273.56,754.92 284.98,785.85 " fill="none" id="ArchiveBoardUI-to-ArchiveBoardController" style="stroke:#181818;stroke-width:1.0;"/><polygon fill="#181818" points="286.8,790.77,287.4379,780.9418,285.0695,786.079,279.9323,783.7106,286.8,790.77" style="stroke:#181818;stroke-width:1.0;"/><text fill="#000000" font-family="sans-serif" font-size="13" lengthAdjust="spacing" textLength="7" x="274.6341" y="777.6033">1</text></g><!--link ArchiveBoardController to SBProtocol--><g id="link_ArchiveBoardController_SBProtocol"><path codeLine="118" d="M339.05,929.31 C350.63,958.54 364.28,993.02 376.56,1024.04 " fill="none" id="ArchiveBoardController-to-SBProtocol" style="stroke:#181818;stroke-width:1.0;"/><polygon fill="#181818" points="378.52,1028.99,378.9437,1019.1503,376.6878,1024.3378,371.5002,1022.0819,378.52,1028.99" style="stroke:#181818;stroke-width:1.0;"/><text fill="#000000" font-family="sans-serif" font-size="13" lengthAdjust="spacing" textLength="5" x="368.2265" y="1015.7161">*</text></g><!--link ArchiveBoardHandler to SBProtocol--><g id="link_ArchiveBoardHandler_SBProtocol"><path codeLine="120" d="M715.59,915.25 C665.29,947.58 600.33,989.32 543.33,1025.96 " fill="none" id="ArchiveBoardHandler-to-SBProtocol" style="stroke:#181818;stroke-width:1.0;"/><polygon fill="#181818" points="538.89,1028.81,548.6259,1027.3229,543.1001,1026.1127,544.3103,1020.5868,538.89,1028.81" style="stroke:#181818;stroke-width:1.0;"/><text fill="#000000" font-family="sans-serif" font-size="13" lengthAdjust="spacing" textLength="5" x="542.4938" y="1015.8119">*</text></g><!--reverse link BoardRepository to ArchiveBoardHandler--><g id="link_BoardRepository_ArchiveBoardHandler"><path codeLine="121" d="M962.82,694.7 C929.15,728.67 886.83,771.38 853.78,804.73 " fill="none" id="BoardRepository-backto-ArchiveBoardHandler" style="stroke:#181818;stroke-width:1.0;"/><polygon fill="#181818" points="966.46,691.02,957.2819,694.5926,962.9388,694.5698,962.9616,700.2266,966.46,691.02" style="stroke:#181818;stroke-width:1.0;"/><text fill="#000000" font-family="sans-serif" font-size="13" lengthAdjust="spacing" textLength="7" x="950.6335" y="714.6511">1</text></g><!--link ArchiveBoardHandler to BoardService--><g id="link_ArchiveBoardHandler_BoardService"><path codeLine="125" d="M852.08,915.25 C891.15,955.95 944.56,1011.58 984.45,1053.14 " fill="none" id="ArchiveBoardHandler-to-BoardService" style="stroke:#181818;stroke-width:1.0;"/><polygon fill="#181818" points="988.03,1056.86,984.6812,1047.5979,984.5667,1053.2536,978.911,1053.1391,988.03,1056.86" style="stroke:#181818;stroke-width:1.0;"/><text fill="#000000" font-family="sans-serif" font-size="13" lengthAdjust="spacing" textLength="7" x="972.0258" y="1043.9169">1</text></g><!--link BoardService to BoardRepository--><g id="link_BoardService_BoardRepository"><path codeLine="127" d="M1037.72,1056.9 C1033.94,967.46 1026.43,789.45 1022.51,696.55 " fill="none" id="BoardService-to-BoardRepository" style="stroke:#181818;stroke-width:1.0;"/><polygon fill="#181818" points="1022.29,691.37,1018.654,700.5231,1022.4904,696.366,1026.6475,700.2024,1022.29,691.37" style="stroke:#181818;stroke-width:1.0;"/><text fill="#000000" font-family="sans-serif" font-size="13" lengthAdjust="spacing" textLength="7" x="1012.9188" y="715.0415">1</text></g><!--link BoardService to Board--><g id="link_BoardService_Board"><path codeLine="128" d="M1006.17,1167.02 C982.47,1204.89 951.16,1254.88 928.89,1290.46 " fill="none" id="BoardService-to-Board" style="stroke:#181818;stroke-width:1.0;"/><polygon fill="#181818" points="926.22,1294.73,934.3953,1289.2378,928.8803,1290.4964,927.6216,1284.9814,926.22,1294.73" style="stroke:#181818;stroke-width:1.0;"/><text fill="#000000" font-family="sans-serif" font-size="13" lengthAdjust="spacing" textLength="5" x="922.3928" y="1281.8623">*</text></g><!--link ArchiveBoardHandler to Board--><g id="link_ArchiveBoardHandler_Board"><path codeLine="130" d="M789.03,915.29 C777.73,982.77 765.77,1100.58 797,1195 C808.91,1231.02 834.08,1265.32 856.67,1290.95 " fill="none" id="ArchiveBoardHandler-to-Board" style="stroke:#181818;stroke-width:1.0;"/><polygon fill="#181818" points="860.27,1294.99,857.2603,1285.6123,856.9402,1291.2601,851.2924,1290.9399,860.27,1294.99" style="stroke:#181818;stroke-width:1.0;"/><text fill="#000000" font-family="sans-serif" font-size="13" lengthAdjust="spacing" textLength="5" x="846.0615" y="1281.8414">*</text></g><!--link Board to BoardState--><g id="link_Board_BoardState"><path codeLine="132" d="M901,1377.1 C901,1403.89 901,1439.9 901,1471.7 " fill="none" id="Board-to-BoardState" style="stroke:#181818;stroke-width:1.0;"/><polygon fill="#181818" points="901,1476.77,905,1467.77,901,1471.77,897,1467.77,901,1476.77" style="stroke:#181818;stroke-width:1.0;"/></g><!--link MenuRequest to SBProtocol--><g id="link_MenuRequest_SBProtocol"><path codeLine="134" d="M554.07,677.43 C538.55,734.05 508.69,840.02 479,929 C468.56,960.28 456.18,994.22 444.86,1024.22 " fill="none" id="MenuRequest-to-SBProtocol" style="stroke:#181818;stroke-width:1.0;"/><polygon fill="#181818" points="443.05,1028.99,449.9742,1021.986,444.8181,1024.3131,442.491,1019.157,443.05,1028.99" style="stroke:#181818;stroke-width:1.0;"/><text fill="#000000" font-family="sans-serif" font-size="13" lengthAdjust="spacing" textLength="7" x="436.4146" y="1015.7161">1</text></g><!--link MainMenu to ArchiveBoardUI--><g id="link_MainMenu_ArchiveBoardUI"><path codeLine="135" d="M230,467.1 C230,497.93 230,541 230,575.79 " fill="none" id="MainMenu-to-ArchiveBoardUI" style="stroke:#181818;stroke-width:1.0;"/><polygon fill="#181818" points="230,580.86,234,571.86,230,575.86,226,571.86,230,580.86" style="stroke:#181818;stroke-width:1.0;"/><text fill="#000000" font-family="sans-serif" font-size="13" lengthAdjust="spacing" textLength="7" x="220.3297" y="567.9169">1</text></g><!--link SBPClientApp to MainMenu--><g id="link_SBPClientApp_MainMenu"><path codeLine="136" d="M246.59,243.34 C243.46,277.69 237.92,338.3 234.11,380 " fill="none" id="SBPClientApp-to-MainMenu" style="stroke:#181818;stroke-width:1.0;"/><polygon fill="#181818" points="233.65,384.99,238.4573,376.3941,234.1078,380.011,230.4909,375.6615,233.65,384.99" style="stroke:#181818;stroke-width:1.0;"/><text fill="#000000" font-family="sans-serif" font-size="13" lengthAdjust="spacing" textLength="7" x="224.3552" y="371.8414">1</text></g><!--link SBPServerApp to MenuRequest--><g id="link_SBPServerApp_MenuRequest"><path codeLine="137" d="M531.06,271.22 C538.83,354.54 553.58,512.55 560.8,589.97 " fill="none" id="SBPServerApp-to-MenuRequest" style="stroke:#181818;stroke-width:1.0;"/><polygon fill="#181818" points="561.26,594.95,564.4191,585.6215,560.8022,589.971,556.4527,586.3541,561.26,594.95" style="stroke:#181818;stroke-width:1.0;"/><text fill="#000000" font-family="sans-serif" font-size="13" lengthAdjust="spacing" textLength="7" x="550.7874" y="581.7951">1</text></g><!--link MenuRequest to ArchiveBoardHandler--><g id="link_MenuRequest_ArchiveBoardHandler"><path codeLine="138" d="M607.56,677.2 C644.2,711.82 697.54,762.21 738.77,801.16 " fill="none" id="MenuRequest-to-ArchiveBoardHandler" style="stroke:#181818;stroke-width:1.0;"/><polygon fill="#181818" points="742.73,804.89,738.9355,795.8015,739.0957,801.456,733.4411,801.6163,742.73,804.89" style="stroke:#181818;stroke-width:1.0;"/><text fill="#000000" font-family="sans-serif" font-size="13" lengthAdjust="spacing" textLength="7" x="725.6876" y="791.5419">1</text></g><!--link ArchiveBoardHandler to Runnable--><g id="link_ArchiveBoardHandler_Runnable"><path codeLine="143" d="M767.89,915.25 C740.92,960.8 702.88,1025.06 677.84,1067.35 " fill="none" id="ArchiveBoardHandler-to-Runnable" style="stroke:#181818;stroke-width:1.0;stroke-dasharray:7.0,7.0;"/><polygon fill="none" points="683.71,1071.17,667.5,1084.82,671.66,1064.04,683.71,1071.17" style="stroke:#181818;stroke-width:1.0;"/></g><!--link Thread to Runnable--><g id="link_Thread_Runnable"><path codeLine="144" d="M618.89,887.28 C625.12,929.39 637.43,1012.53 645.15,1064.74 " fill="none" id="Thread-to-Runnable" style="stroke:#181818;stroke-width:1.0;stroke-dasharray:7.0,7.0;"/><polygon fill="none" points="652.1,1063.89,648.11,1084.7,638.25,1065.94,652.1,1063.89" style="stroke:#181818;stroke-width:1.0;"/></g><!--link SBProtocol to MessageProtocol--><g id="link_SBProtocol_MessageProtocol"><path codeLine="145" d="M411,1195.03 C411,1226.65 411,1261.63 411,1288.72 " fill="none" id="SBProtocol-to-MessageProtocol" style="stroke:#181818;stroke-width:1.0;stroke-dasharray:7.0,7.0;"/><polygon fill="none" points="418,1288.95,411,1308.95,404,1288.95,418,1288.95" style="stroke:#181818;stroke-width:1.0;"/></g><!--link JpaBoardRepository to BoardRepository--><g id="link_JpaBoardRepository_BoardRepository"><path codeLine="146" d="M1020,481.11 C1020,505.33 1020,534.28 1020,560.5 " fill="none" id="JpaBoardRepository-to-BoardRepository" style="stroke:#181818;stroke-width:1.0;stroke-dasharray:7.0,7.0;"/><polygon fill="none" points="1027,560.8,1020,580.8,1013,560.8,1027,560.8" style="stroke:#181818;stroke-width:1.0;"/></g><!--SRC=[bLLBKzim4BxhLsZe8Gd1F7hgT3gPSG8CwPJIYQ5tnTec6cJ9bMHeI_dlNLksaHr39xxOslts_QqysZgNsuyd9xbaoXMPF4vrTf9APct41TiObX5YxuNA6NxIIX4xPyIwSB1CjKh47w2d0IHdd0kreUy3cM7gta9EpqvF-yukjNALZxCFX12X79WVB0MwAfHYQmc1w1giPHluPhJJgPOXUgwPuIl8jHLEcz_aYL0wbSAwIc7lB9YRHsM_QXURT2iUW8-JtzP1LcgeVbHW9iCcR-6V2M5hwmnBdI-6nlNnReafeBgMUX-Luqf3yNb7kKws-d4ygOvJkWN6fL20Wa7B1NRAQ2d1e0Vol_BGwvJL1uyQ9pWs7CowFDqA9w74f59RI7Hw3-wrm5TCSHzrQWg5gCY2yaunQXMhjRi6LQpWPm7MlU1RxUtMO96-DVkDsjidyrQ2JPnI2swXEOpHaARuCMc5w4cvIwCpNtHJUuhl6gJu-9mvTbEul70e1cIaBbobtRGkObixc92NCZxdR9TmUzDjFxArmHTIO5urYQQOQOdweZSRuCjEiolN2PW7aKBLhhttOUyCSVXP7TSn1qsIYzL5V7jnxW_9LRnglkFLuchv7K_Tf1ix5f0mh0nfuBiGvtaWAsi5Kyfm6ayMCn3fypNBFoqLk9XpWwGwglitexYbw3iktDPsqVDsFuvyEZE_ChPYG6_Xvym2HfGYHNkjsZLWGfMhW9b4wq98tWXy6M6oL4THCzGH_4BIOQJkZK6ZwEyil5k2BVEwUh72nj2eo4jLFyDEx5SmJROxWSc8GrvcIBKQYopNnjd9RhOpUd1syDhbDIpsLeS7uOwJWLje23S8myfy6lrL9M_uRU3Dsf3mHBkOmEK0wh16lLr43QbUbJ1OdjwKVUIWwc18k_t6MNN9K6DQOdPfq6Y3stie-j1V0PyHCa52Xg7iOBN7nyYYzfRtNEq9N-hoYluFOFVAzRZTuVu3]--></g></svg>