<?xml version="1.0" encoding="us-ascii" standalone="no"?><svg xmlns="http://www.w3.org/2000/svg" xmlns:xlink="http://www.w3.org/1999/xlink" contentStyleType="text/css" height="648.4px" preserveAspectRatio="none" style="width:577px;height:648px;background:#FFFFFF;" version="1.1" viewBox="0 0 577 648" width="577.6px" zoomAndPan="magnify"><defs/><g><!--class Runnable--><g id="elem_Runnable"><rect codeLine="51" fill="#F1F1F1" height="21.5766" id="Runnable" rx="1" ry="1" style="stroke:#181818;stroke-width:0.20000000000000004;" width="45.6" x="222.4" y="434"/><ellipse cx="228.4" cy="441.5883" fill="#B4A7E5" rx="4.4" ry="4.4" style="stroke:#181818;stroke-width:0.4000000000000001;"/><path d="M228.7813,440.2445 L228.7813,442.907 L229.4688,442.907 Q229.7125,442.907 229.8188,443.0008 Q229.925,443.0945 229.925,443.2508 Q229.925,443.4008 229.8188,443.4945 Q229.7125,443.5883 229.4688,443.5883 L227.4125,443.5883 Q227.1688,443.5883 227.0625,443.4945 Q226.9563,443.4008 226.9563,443.2445 Q226.9563,443.0945 227.0625,443.0008 Q227.1688,442.907 227.4125,442.907 L228.1,442.907 L228.1,440.2445 L227.4125,440.2445 Q227.1688,440.2445 227.0625,440.1508 Q226.9563,440.057 226.9563,439.9008 Q226.9563,439.7508 227.0625,439.657 Q227.1688,439.5633 227.4125,439.5633 L229.4688,439.5633 Q229.7125,439.5633 229.8188,439.657 Q229.925,439.7508 229.925,439.9008 Q229.925,440.057 229.8188,440.1508 Q229.7125,440.2445 229.4688,440.2445 L228.7813,440.2445 Z " fill="#000000"/><text fill="#000000" font-family="sans-serif" font-size="7.2" font-style="italic" lengthAdjust="spacing" textLength="31.2" x="234.8" y="444.5695">Runnable</text><line style="stroke:#181818;stroke-width:0.20000000000000004;" x1="222.8" x2="267.6" y1="449.1766" y2="449.1766"/><line style="stroke:#181818;stroke-width:0.20000000000000004;" x1="222.8" x2="267.6" y1="452.3766" y2="452.3766"/></g><!--class MessageProtocol--><g id="elem_MessageProtocol"><rect codeLine="52" fill="#F1F1F1" height="21.5766" id="MessageProtocol" rx="1" ry="1" style="stroke:#181818;stroke-width:0.20000000000000004;" width="70.8" x="113.4" y="523.6"/><ellipse cx="119.4" cy="531.1883" fill="#B4A7E5" rx="4.4" ry="4.4" style="stroke:#181818;stroke-width:0.4000000000000001;"/><path d="M119.7813,529.8445 L119.7813,532.507 L120.4688,532.507 Q120.7125,532.507 120.8188,532.6008 Q120.925,532.6945 120.925,532.8508 Q120.925,533.0008 120.8188,533.0945 Q120.7125,533.1883 120.4688,533.1883 L118.4125,533.1883 Q118.1688,533.1883 118.0625,533.0945 Q117.9563,533.0008 117.9563,532.8445 Q117.9563,532.6945 118.0625,532.6008 Q118.1688,532.507 118.4125,532.507 L119.1,532.507 L119.1,529.8445 L118.4125,529.8445 Q118.1688,529.8445 118.0625,529.7508 Q117.9563,529.657 117.9563,529.5008 Q117.9563,529.3508 118.0625,529.257 Q118.1688,529.1633 118.4125,529.1633 L120.4688,529.1633 Q120.7125,529.1633 120.8188,529.257 Q120.925,529.3508 120.925,529.5008 Q120.925,529.657 120.8188,529.7508 Q120.7125,529.8445 120.4688,529.8445 L119.7813,529.8445 Z " fill="#000000"/><text fill="#000000" font-family="sans-serif" font-size="7.2" font-style="italic" lengthAdjust="spacing" textLength="56.4" x="125.8" y="534.1695">MessageProtocol</text><line style="stroke:#181818;stroke-width:0.20000000000000004;" x1="113.8" x2="183.8" y1="538.7766" y2="538.7766"/><line style="stroke:#181818;stroke-width:0.20000000000000004;" x1="113.8" x2="183.8" y1="541.9766" y2="541.9766"/></g><!--class BoardRepository--><g id="elem_BoardRepository"><rect codeLine="12" fill="#F1F1F1" height="43.9297" id="BoardRepository" rx="1" ry="1" style="stroke:#181818;stroke-width:0.20000000000000004;" width="180" x="341.6" y="232.4"/><ellipse cx="402.1" cy="239.9883" fill="#B4A7E5" rx="4.4" ry="4.4" style="stroke:#181818;stroke-width:0.4000000000000001;"/><path d="M402.4813,238.6445 L402.4813,241.307 L403.1688,241.307 Q403.4125,241.307 403.5188,241.4008 Q403.625,241.4945 403.625,241.6508 Q403.625,241.8008 403.5188,241.8945 Q403.4125,241.9883 403.1688,241.9883 L401.1125,241.9883 Q400.8688,241.9883 400.7625,241.8945 Q400.6563,241.8008 400.6563,241.6445 Q400.6563,241.4945 400.7625,241.4008 Q400.8688,241.307 401.1125,241.307 L401.8,241.307 L401.8,238.6445 L401.1125,238.6445 Q400.8688,238.6445 400.7625,238.5508 Q400.6563,238.457 400.6563,238.3008 Q400.6563,238.1508 400.7625,238.057 Q400.8688,237.9633 401.1125,237.9633 L403.1688,237.9633 Q403.4125,237.9633 403.5188,238.057 Q403.625,238.1508 403.625,238.3008 Q403.625,238.457 403.5188,238.5508 Q403.4125,238.6445 403.1688,238.6445 L402.4813,238.6445 Z " fill="#000000"/><text fill="#000000" font-family="sans-serif" font-size="7.2" font-style="italic" lengthAdjust="spacing" textLength="54" x="411.1" y="242.9695">BoardRepository</text><line style="stroke:#181818;stroke-width:0.20000000000000004;" x1="342" x2="521.2" y1="247.5766" y2="247.5766"/><line style="stroke:#181818;stroke-width:0.20000000000000004;" x1="342" x2="521.2" y1="250.7766" y2="250.7766"/><text fill="#000000" font-family="sans-serif" font-size="7.2" lengthAdjust="spacing" textLength="173.6" x="344.8" y="260.9461">+listBoardsUserOwnsNotArchived(SystemUser owner)</text><text fill="#000000" font-family="sans-serif" font-size="7.2" lengthAdjust="spacing" textLength="162.4" x="344.8" y="272.1227">+listBoardsUserOwnsArchived(SystemUser owner)</text></g><!--class AbstractUI--><g id="elem_AbstractUI"><rect codeLine="18" fill="#F1F1F1" height="21.5766" id="AbstractUI" rx="1" ry="1" style="stroke:#181818;stroke-width:0.20000000000000004;" width="47.2" x="2.8" y="333.2"/><ellipse cx="8.8" cy="340.7883" fill="#ADD1B2" rx="4.4" ry="4.4" style="stroke:#181818;stroke-width:0.4000000000000001;"/><path d="M9.9063,339.1383 Q9.9688,339.0508 10.0438,339.007 Q10.1188,338.9633 10.2063,338.9633 Q10.3563,338.9633 10.45,339.0695 Q10.5438,339.1695 10.5438,339.4133 L10.5438,339.9945 Q10.5438,340.2383 10.45,340.3445 Q10.3563,340.4508 10.2063,340.4508 Q10.0688,340.4508 9.9875,340.3695 Q9.9063,340.2945 9.8625,340.0883 Q9.8438,339.9445 9.7688,339.8695 Q9.6375,339.7195 9.3938,339.632 Q9.15,339.5445 8.9,339.5445 Q8.5938,339.5445 8.3375,339.6758 Q8.0875,339.807 7.8875,340.107 Q7.6938,340.407 7.6938,340.8195 L7.6938,341.257 Q7.6938,341.7508 8.05,342.082 Q8.4063,342.407 9.0438,342.407 Q9.4188,342.407 9.6813,342.307 Q9.8375,342.2445 10.0063,342.0695 Q10.1125,341.9633 10.1688,341.932 Q10.2313,341.9008 10.3125,341.9008 Q10.4438,341.9008 10.5438,342.007 Q10.65,342.107 10.65,342.2445 Q10.65,342.382 10.5125,342.5445 Q10.3125,342.7758 9.9938,342.907 Q9.5625,343.0883 9.0438,343.0883 Q8.4375,343.0883 7.9563,342.8383 Q7.5625,342.6383 7.2875,342.2133 Q7.0125,341.782 7.0125,341.2695 L7.0125,340.807 Q7.0125,340.2758 7.2563,339.8195 Q7.5063,339.357 7.9438,339.1133 Q8.3813,338.8633 8.875,338.8633 Q9.1688,338.8633 9.425,338.932 Q9.6875,338.9945 9.9063,339.1383 Z " fill="#000000"/><text fill="#000000" font-family="sans-serif" font-size="7.2" lengthAdjust="spacing" textLength="32.8" x="15.2" y="343.7695">AbstractUI</text><line style="stroke:#181818;stroke-width:0.20000000000000004;" x1="3.2" x2="49.6" y1="348.3766" y2="348.3766"/><line style="stroke:#181818;stroke-width:0.20000000000000004;" x1="3.2" x2="49.6" y1="351.5766" y2="351.5766"/></g><!--class ArchiveBoardUI--><g id="elem_ArchiveBoardUI"><rect codeLine="22" fill="#F1F1F1" height="43.9297" id="ArchiveBoardUI" rx="1" ry="1" style="stroke:#181818;stroke-width:0.20000000000000004;" width="64" x="60.4" y="232.4"/><ellipse cx="66.4" cy="239.9883" fill="#ADD1B2" rx="4.4" ry="4.4" style="stroke:#181818;stroke-width:0.4000000000000001;"/><path d="M67.5063,238.3383 Q67.5688,238.2508 67.6438,238.207 Q67.7188,238.1633 67.8063,238.1633 Q67.9563,238.1633 68.05,238.2695 Q68.1438,238.3695 68.1438,238.6133 L68.1438,239.1945 Q68.1438,239.4383 68.05,239.5445 Q67.9563,239.6508 67.8063,239.6508 Q67.6688,239.6508 67.5875,239.5695 Q67.5063,239.4945 67.4625,239.2883 Q67.4438,239.1445 67.3688,239.0695 Q67.2375,238.9195 66.9938,238.832 Q66.75,238.7445 66.5,238.7445 Q66.1938,238.7445 65.9375,238.8758 Q65.6875,239.007 65.4875,239.307 Q65.2938,239.607 65.2938,240.0195 L65.2938,240.457 Q65.2938,240.9508 65.65,241.282 Q66.0063,241.607 66.6438,241.607 Q67.0188,241.607 67.2813,241.507 Q67.4375,241.4445 67.6063,241.2695 Q67.7125,241.1633 67.7688,241.132 Q67.8313,241.1008 67.9125,241.1008 Q68.0438,241.1008 68.1438,241.207 Q68.25,241.307 68.25,241.4445 Q68.25,241.582 68.1125,241.7445 Q67.9125,241.9758 67.5938,242.107 Q67.1625,242.2883 66.6438,242.2883 Q66.0375,242.2883 65.5563,242.0383 Q65.1625,241.8383 64.8875,241.4133 Q64.6125,240.982 64.6125,240.4695 L64.6125,240.007 Q64.6125,239.4758 64.8563,239.0195 Q65.1063,238.557 65.5438,238.3133 Q65.9813,238.0633 66.475,238.0633 Q66.7688,238.0633 67.025,238.132 Q67.2875,238.1945 67.5063,238.3383 Z " fill="#000000"/><text fill="#000000" font-family="sans-serif" font-size="7.2" lengthAdjust="spacing" textLength="49.6" x="72.8" y="242.9695">ArchiveBoardUI</text><line style="stroke:#181818;stroke-width:0.20000000000000004;" x1="60.8" x2="124" y1="247.5766" y2="247.5766"/><line style="stroke:#181818;stroke-width:0.20000000000000004;" x1="60.8" x2="124" y1="250.7766" y2="250.7766"/><text fill="#000000" font-family="sans-serif" font-size="7.2" lengthAdjust="spacing" textLength="34.8" x="63.6" y="260.9461">#doShow()</text><text fill="#000000" font-family="sans-serif" font-size="7.2" lengthAdjust="spacing" textLength="36.4" x="63.6" y="272.1227">+headline()</text></g><!--class ArchiveBoardController--><g id="elem_ArchiveBoardController"><rect codeLine="28" fill="#F1F1F1" height="55.1063" id="ArchiveBoardController" rx="1" ry="1" style="stroke:#181818;stroke-width:0.20000000000000004;" width="119.6" x="64.2" y="316.4"/><ellipse cx="84.5" cy="323.9883" fill="#ADD1B2" rx="4.4" ry="4.4" style="stroke:#181818;stroke-width:0.4000000000000001;"/><path d="M85.6063,322.3383 Q85.6688,322.2508 85.7438,322.207 Q85.8188,322.1633 85.9063,322.1633 Q86.0563,322.1633 86.15,322.2695 Q86.2438,322.3695 86.2438,322.6133 L86.2438,323.1945 Q86.2438,323.4383 86.15,323.5445 Q86.0563,323.6508 85.9063,323.6508 Q85.7688,323.6508 85.6875,323.5695 Q85.6063,323.4945 85.5625,323.2883 Q85.5438,323.1445 85.4688,323.0695 Q85.3375,322.9195 85.0938,322.832 Q84.85,322.7445 84.6,322.7445 Q84.2938,322.7445 84.0375,322.8758 Q83.7875,323.007 83.5875,323.307 Q83.3938,323.607 83.3938,324.0195 L83.3938,324.457 Q83.3938,324.9508 83.75,325.282 Q84.1063,325.607 84.7438,325.607 Q85.1188,325.607 85.3813,325.507 Q85.5375,325.4445 85.7063,325.2695 Q85.8125,325.1633 85.8688,325.132 Q85.9313,325.1008 86.0125,325.1008 Q86.1438,325.1008 86.2438,325.207 Q86.35,325.307 86.35,325.4445 Q86.35,325.582 86.2125,325.7445 Q86.0125,325.9758 85.6938,326.107 Q85.2625,326.2883 84.7438,326.2883 Q84.1375,326.2883 83.6563,326.0383 Q83.2625,325.8383 82.9875,325.4133 Q82.7125,324.982 82.7125,324.4695 L82.7125,324.007 Q82.7125,323.4758 82.9563,323.0195 Q83.2063,322.557 83.6438,322.3133 Q84.0813,322.0633 84.575,322.0633 Q84.8688,322.0633 85.125,322.132 Q85.3875,322.1945 85.6063,322.3383 Z " fill="#000000"/><text fill="#000000" font-family="sans-serif" font-size="7.2" lengthAdjust="spacing" textLength="74" x="93.5" y="326.9695">ArchiveBoardController</text><line style="stroke:#181818;stroke-width:0.20000000000000004;" x1="64.6" x2="183.4" y1="331.5766" y2="331.5766"/><line style="stroke:#181818;stroke-width:0.20000000000000004;" x1="64.6" x2="183.4" y1="334.7766" y2="334.7766"/><text fill="#000000" font-family="sans-serif" font-size="7.2" lengthAdjust="spacing" textLength="113.2" x="67.4" y="344.9461">+listBoardsUserOwnsNotArchived()</text><text fill="#000000" font-family="sans-serif" font-size="7.2" lengthAdjust="spacing" textLength="112.4" x="67.4" y="356.1227">+archivedBoards(String boardTitle)</text><text fill="#000000" font-family="sans-serif" font-size="7.2" lengthAdjust="spacing" textLength="48" x="67.4" y="367.2992">+closeSocket()</text></g><!--class ArchiveBoardHandler--><g id="elem_ArchiveBoardHandler"><rect codeLine="36" fill="#F1F1F1" height="43.9297" id="ArchiveBoardHandler" rx="1" ry="1" style="stroke:#181818;stroke-width:0.20000000000000004;" width="82.4" x="278" y="322"/><ellipse cx="284" cy="329.5883" fill="#ADD1B2" rx="4.4" ry="4.4" style="stroke:#181818;stroke-width:0.4000000000000001;"/><path d="M285.1063,327.9383 Q285.1688,327.8508 285.2438,327.807 Q285.3188,327.7633 285.4063,327.7633 Q285.5563,327.7633 285.65,327.8695 Q285.7438,327.9695 285.7438,328.2133 L285.7438,328.7945 Q285.7438,329.0383 285.65,329.1445 Q285.5563,329.2508 285.4063,329.2508 Q285.2688,329.2508 285.1875,329.1695 Q285.1063,329.0945 285.0625,328.8883 Q285.0438,328.7445 284.9688,328.6695 Q284.8375,328.5195 284.5938,328.432 Q284.35,328.3445 284.1,328.3445 Q283.7938,328.3445 283.5375,328.4758 Q283.2875,328.607 283.0875,328.907 Q282.8938,329.207 282.8938,329.6195 L282.8938,330.057 Q282.8938,330.5508 283.25,330.882 Q283.6063,331.207 284.2438,331.207 Q284.6188,331.207 284.8813,331.107 Q285.0375,331.0445 285.2063,330.8695 Q285.3125,330.7633 285.3688,330.732 Q285.4313,330.7008 285.5125,330.7008 Q285.6438,330.7008 285.7438,330.807 Q285.85,330.907 285.85,331.0445 Q285.85,331.182 285.7125,331.3445 Q285.5125,331.5758 285.1938,331.707 Q284.7625,331.8883 284.2438,331.8883 Q283.6375,331.8883 283.1563,331.6383 Q282.7625,331.4383 282.4875,331.0133 Q282.2125,330.582 282.2125,330.0695 L282.2125,329.607 Q282.2125,329.0758 282.4563,328.6195 Q282.7063,328.157 283.1438,327.9133 Q283.5813,327.6633 284.075,327.6633 Q284.3688,327.6633 284.625,327.732 Q284.8875,327.7945 285.1063,327.9383 Z " fill="#000000"/><text fill="#000000" font-family="sans-serif" font-size="7.2" lengthAdjust="spacing" textLength="68" x="290.4" y="332.5695">ArchiveBoardHandler</text><line style="stroke:#181818;stroke-width:0.20000000000000004;" x1="278.4" x2="360" y1="337.1766" y2="337.1766"/><line style="stroke:#181818;stroke-width:0.20000000000000004;" x1="278.4" x2="360" y1="340.3766" y2="340.3766"/><text fill="#000000" font-family="sans-serif" font-size="7.2" lengthAdjust="spacing" textLength="19.6" x="281.2" y="350.5461">+run()</text><text fill="#000000" font-family="sans-serif" font-size="7.2" lengthAdjust="spacing" textLength="64.8" x="281.2" y="361.7227">-sendBoardOwned()</text></g><!--class MenuRequest--><g id="elem_MenuRequest"><rect codeLine="42" fill="#F1F1F1" height="32.7531" id="MenuRequest" rx="1" ry="1" style="stroke:#181818;stroke-width:0.20000000000000004;" width="59.2" x="195.6" y="238"/><ellipse cx="201.6" cy="245.5883" fill="#ADD1B2" rx="4.4" ry="4.4" style="stroke:#181818;stroke-width:0.4000000000000001;"/><path d="M202.7063,243.9383 Q202.7688,243.8508 202.8438,243.807 Q202.9188,243.7633 203.0063,243.7633 Q203.1563,243.7633 203.25,243.8695 Q203.3438,243.9695 203.3438,244.2133 L203.3438,244.7945 Q203.3438,245.0383 203.25,245.1445 Q203.1563,245.2508 203.0063,245.2508 Q202.8688,245.2508 202.7875,245.1695 Q202.7063,245.0945 202.6625,244.8883 Q202.6438,244.7445 202.5688,244.6695 Q202.4375,244.5195 202.1938,244.432 Q201.95,244.3445 201.7,244.3445 Q201.3938,244.3445 201.1375,244.4758 Q200.8875,244.607 200.6875,244.907 Q200.4938,245.207 200.4938,245.6195 L200.4938,246.057 Q200.4938,246.5508 200.85,246.882 Q201.2063,247.207 201.8438,247.207 Q202.2188,247.207 202.4813,247.107 Q202.6375,247.0445 202.8063,246.8695 Q202.9125,246.7633 202.9688,246.732 Q203.0313,246.7008 203.1125,246.7008 Q203.2438,246.7008 203.3438,246.807 Q203.45,246.907 203.45,247.0445 Q203.45,247.182 203.3125,247.3445 Q203.1125,247.5758 202.7938,247.707 Q202.3625,247.8883 201.8438,247.8883 Q201.2375,247.8883 200.7563,247.6383 Q200.3625,247.4383 200.0875,247.0133 Q199.8125,246.582 199.8125,246.0695 L199.8125,245.607 Q199.8125,245.0758 200.0563,244.6195 Q200.3063,244.157 200.7438,243.9133 Q201.1813,243.6633 201.675,243.6633 Q201.9688,243.6633 202.225,243.732 Q202.4875,243.7945 202.7063,243.9383 Z " fill="#000000"/><text fill="#000000" font-family="sans-serif" font-size="7.2" lengthAdjust="spacing" textLength="44.8" x="208" y="248.5695">MenuRequest</text><line style="stroke:#181818;stroke-width:0.20000000000000004;" x1="196" x2="254.4" y1="253.1766" y2="253.1766"/><line style="stroke:#181818;stroke-width:0.20000000000000004;" x1="196" x2="254.4" y1="256.3766" y2="256.3766"/><text fill="#000000" font-family="sans-serif" font-size="7.2" lengthAdjust="spacing" textLength="19.6" x="198.8" y="266.5461">+run()</text></g><!--class Thread--><g id="elem_Thread"><rect codeLine="47" fill="#F1F1F1" height="21.5766" id="Thread" rx="1" ry="1" style="stroke:#181818;stroke-width:0.20000000000000004;" width="37.6" x="226.4" y="333.2"/><ellipse cx="232.4" cy="340.7883" fill="#ADD1B2" rx="4.4" ry="4.4" style="stroke:#181818;stroke-width:0.4000000000000001;"/><path d="M233.5063,339.1383 Q233.5688,339.0508 233.6438,339.007 Q233.7188,338.9633 233.8063,338.9633 Q233.9563,338.9633 234.05,339.0695 Q234.1438,339.1695 234.1438,339.4133 L234.1438,339.9945 Q234.1438,340.2383 234.05,340.3445 Q233.9563,340.4508 233.8063,340.4508 Q233.6688,340.4508 233.5875,340.3695 Q233.5063,340.2945 233.4625,340.0883 Q233.4438,339.9445 233.3688,339.8695 Q233.2375,339.7195 232.9938,339.632 Q232.75,339.5445 232.5,339.5445 Q232.1938,339.5445 231.9375,339.6758 Q231.6875,339.807 231.4875,340.107 Q231.2938,340.407 231.2938,340.8195 L231.2938,341.257 Q231.2938,341.7508 231.65,342.082 Q232.0063,342.407 232.6438,342.407 Q233.0188,342.407 233.2813,342.307 Q233.4375,342.2445 233.6063,342.0695 Q233.7125,341.9633 233.7688,341.932 Q233.8313,341.9008 233.9125,341.9008 Q234.0438,341.9008 234.1438,342.007 Q234.25,342.107 234.25,342.2445 Q234.25,342.382 234.1125,342.5445 Q233.9125,342.7758 233.5938,342.907 Q233.1625,343.0883 232.6438,343.0883 Q232.0375,343.0883 231.5563,342.8383 Q231.1625,342.6383 230.8875,342.2133 Q230.6125,341.782 230.6125,341.2695 L230.6125,340.807 Q230.6125,340.2758 230.8563,339.8195 Q231.1063,339.357 231.5438,339.1133 Q231.9813,338.8633 232.475,338.8633 Q232.7688,338.8633 233.025,338.932 Q233.2875,338.9945 233.5063,339.1383 Z " fill="#000000"/><text fill="#000000" font-family="sans-serif" font-size="7.2" lengthAdjust="spacing" textLength="23.2" x="238.8" y="343.7695">Thread</text><line style="stroke:#181818;stroke-width:0.20000000000000004;" x1="226.8" x2="263.6" y1="348.3766" y2="348.3766"/><line style="stroke:#181818;stroke-width:0.20000000000000004;" x1="226.8" x2="263.6" y1="351.5766" y2="351.5766"/></g><!--class SBProtocol--><g id="elem_SBProtocol"><rect codeLine="54" fill="#F1F1F1" height="66.2828" id="SBProtocol" rx="1" ry="1" style="stroke:#181818;stroke-width:0.20000000000000004;" width="119.2" x="89.2" y="411.6"/><ellipse cx="128.3" cy="419.1883" fill="#ADD1B2" rx="4.4" ry="4.4" style="stroke:#181818;stroke-width:0.4000000000000001;"/><path d="M129.4063,417.5383 Q129.4688,417.4508 129.5438,417.407 Q129.6188,417.3633 129.7063,417.3633 Q129.8563,417.3633 129.95,417.4695 Q130.0438,417.5695 130.0438,417.8133 L130.0438,418.3945 Q130.0438,418.6383 129.95,418.7445 Q129.8563,418.8508 129.7063,418.8508 Q129.5688,418.8508 129.4875,418.7695 Q129.4063,418.6945 129.3625,418.4883 Q129.3438,418.3445 129.2688,418.2695 Q129.1375,418.1195 128.8938,418.032 Q128.65,417.9445 128.4,417.9445 Q128.0938,417.9445 127.8375,418.0758 Q127.5875,418.207 127.3875,418.507 Q127.1938,418.807 127.1938,419.2195 L127.1938,419.657 Q127.1938,420.1508 127.55,420.482 Q127.9063,420.807 128.5438,420.807 Q128.9188,420.807 129.1813,420.707 Q129.3375,420.6445 129.5063,420.4695 Q129.6125,420.3633 129.6688,420.332 Q129.7313,420.3008 129.8125,420.3008 Q129.9438,420.3008 130.0438,420.407 Q130.15,420.507 130.15,420.6445 Q130.15,420.782 130.0125,420.9445 Q129.8125,421.1758 129.4938,421.307 Q129.0625,421.4883 128.5438,421.4883 Q127.9375,421.4883 127.4563,421.2383 Q127.0625,421.0383 126.7875,420.6133 Q126.5125,420.182 126.5125,419.6695 L126.5125,419.207 Q126.5125,418.6758 126.7563,418.2195 Q127.0063,417.757 127.4438,417.5133 Q127.8813,417.2633 128.375,417.2633 Q128.6688,417.2633 128.925,417.332 Q129.1875,417.3945 129.4063,417.5383 Z " fill="#000000"/><text fill="#000000" font-family="sans-serif" font-size="7.2" lengthAdjust="spacing" textLength="36" x="137.3" y="422.1695">SBProtocol</text><line style="stroke:#181818;stroke-width:0.20000000000000004;" x1="89.6" x2="208" y1="426.7766" y2="426.7766"/><line style="stroke:#181818;stroke-width:0.20000000000000004;" x1="89.6" x2="208" y1="429.9766" y2="429.9766"/><text fill="#000000" font-family="sans-serif" font-size="7.2" lengthAdjust="spacing" textLength="61.2" x="92.4" y="440.1461">+setCode(int code)</text><text fill="#000000" font-family="sans-serif" font-size="7.2" lengthAdjust="spacing" textLength="112.8" x="92.4" y="451.3227">+setContentFromString(String cStr)</text><text fill="#000000" font-family="sans-serif" font-size="7.2" lengthAdjust="spacing" textLength="96.4" x="92.4" y="462.4992">+send(DataOutputStream out)</text><text fill="#000000" font-family="sans-serif" font-size="7.2" lengthAdjust="spacing" textLength="71.2" x="92.4" y="473.6758">+getContentAsString()</text></g><!--class JpaBoardRepository--><g id="elem_JpaBoardRepository"><rect codeLine="63" fill="#F1F1F1" height="43.9297" id="JpaBoardRepository" rx="1" ry="1" style="stroke:#181818;stroke-width:0.20000000000000004;" width="180" x="341.6" y="148.4"/><ellipse cx="396.5" cy="155.9883" fill="#ADD1B2" rx="4.4" ry="4.4" style="stroke:#181818;stroke-width:0.4000000000000001;"/><path d="M397.6063,154.3383 Q397.6688,154.2508 397.7438,154.207 Q397.8188,154.1633 397.9063,154.1633 Q398.0563,154.1633 398.15,154.2695 Q398.2438,154.3695 398.2438,154.6133 L398.2438,155.1945 Q398.2438,155.4383 398.15,155.5445 Q398.0563,155.6508 397.9063,155.6508 Q397.7688,155.6508 397.6875,155.5695 Q397.6063,155.4945 397.5625,155.2883 Q397.5438,155.1445 397.4688,155.0695 Q397.3375,154.9195 397.0938,154.832 Q396.85,154.7445 396.6,154.7445 Q396.2938,154.7445 396.0375,154.8758 Q395.7875,155.007 395.5875,155.307 Q395.3938,155.607 395.3938,156.0195 L395.3938,156.457 Q395.3938,156.9508 395.75,157.282 Q396.1063,157.607 396.7438,157.607 Q397.1188,157.607 397.3813,157.507 Q397.5375,157.4445 397.7063,157.2695 Q397.8125,157.1633 397.8688,157.132 Q397.9313,157.1008 398.0125,157.1008 Q398.1438,157.1008 398.2438,157.207 Q398.35,157.307 398.35,157.4445 Q398.35,157.582 398.2125,157.7445 Q398.0125,157.9758 397.6938,158.107 Q397.2625,158.2883 396.7438,158.2883 Q396.1375,158.2883 395.6563,158.0383 Q395.2625,157.8383 394.9875,157.4133 Q394.7125,156.982 394.7125,156.4695 L394.7125,156.007 Q394.7125,155.4758 394.9563,155.0195 Q395.2063,154.557 395.6438,154.3133 Q396.0813,154.0633 396.575,154.0633 Q396.8688,154.0633 397.125,154.132 Q397.3875,154.1945 397.6063,154.3383 Z " fill="#000000"/><text fill="#000000" font-family="sans-serif" font-size="7.2" lengthAdjust="spacing" textLength="65.2" x="405.5" y="158.9695">JpaBoardRepository</text><line style="stroke:#181818;stroke-width:0.20000000000000004;" x1="342" x2="521.2" y1="163.5766" y2="163.5766"/><line style="stroke:#181818;stroke-width:0.20000000000000004;" x1="342" x2="521.2" y1="166.7766" y2="166.7766"/><text fill="#000000" font-family="sans-serif" font-size="7.2" lengthAdjust="spacing" textLength="173.6" x="344.8" y="176.9461">+listBoardsUserOwnsNotArchived(SystemUser owner)</text><text fill="#000000" font-family="sans-serif" font-size="7.2" lengthAdjust="spacing" textLength="162.4" x="344.8" y="188.1227">+listBoardsUserOwnsArchived(SystemUser owner)</text></g><!--class Client--><g id="elem_Client"><rect codeLine="69" fill="#F1F1F1" height="32.7531" id="Client" rx="1" ry="1" style="stroke:#181818;stroke-width:0.20000000000000004;" width="70.4" x="282" y="428.4"/><ellipse cx="305.5" cy="435.9883" fill="#ADD1B2" rx="4.4" ry="4.4" style="stroke:#181818;stroke-width:0.4000000000000001;"/><path d="M306.6063,434.3383 Q306.6688,434.2508 306.7438,434.207 Q306.8188,434.1633 306.9063,434.1633 Q307.0563,434.1633 307.15,434.2695 Q307.2438,434.3695 307.2438,434.6133 L307.2438,435.1945 Q307.2438,435.4383 307.15,435.5445 Q307.0563,435.6508 306.9063,435.6508 Q306.7688,435.6508 306.6875,435.5695 Q306.6063,435.4945 306.5625,435.2883 Q306.5438,435.1445 306.4688,435.0695 Q306.3375,434.9195 306.0938,434.832 Q305.85,434.7445 305.6,434.7445 Q305.2938,434.7445 305.0375,434.8758 Q304.7875,435.007 304.5875,435.307 Q304.3938,435.607 304.3938,436.0195 L304.3938,436.457 Q304.3938,436.9508 304.75,437.282 Q305.1063,437.607 305.7438,437.607 Q306.1188,437.607 306.3813,437.507 Q306.5375,437.4445 306.7063,437.2695 Q306.8125,437.1633 306.8688,437.132 Q306.9313,437.1008 307.0125,437.1008 Q307.1438,437.1008 307.2438,437.207 Q307.35,437.307 307.35,437.4445 Q307.35,437.582 307.2125,437.7445 Q307.0125,437.9758 306.6938,438.107 Q306.2625,438.2883 305.7438,438.2883 Q305.1375,438.2883 304.6563,438.0383 Q304.2625,437.8383 303.9875,437.4133 Q303.7125,436.982 303.7125,436.4695 L303.7125,436.007 Q303.7125,435.4758 303.9563,435.0195 Q304.2063,434.557 304.6438,434.3133 Q305.0813,434.0633 305.575,434.0633 Q305.8688,434.0633 306.125,434.132 Q306.3875,434.1945 306.6063,434.3383 Z " fill="#000000"/><text fill="#000000" font-family="sans-serif" font-size="7.2" lengthAdjust="spacing" textLength="18.4" x="314.5" y="438.9695">Client</text><line style="stroke:#181818;stroke-width:0.20000000000000004;" x1="282.4" x2="352" y1="443.5766" y2="443.5766"/><line style="stroke:#181818;stroke-width:0.20000000000000004;" x1="282.4" x2="352" y1="446.7766" y2="446.7766"/><text fill="#000000" font-family="sans-serif" font-size="7.2" lengthAdjust="spacing" textLength="64" x="285.2" y="456.9461">+getUserLoggedIn()</text></g><!--class BoardService--><g id="elem_BoardService"><rect codeLine="74" fill="#F1F1F1" height="43.9297" id="BoardService" rx="1" ry="1" style="stroke:#181818;stroke-width:0.20000000000000004;" width="180" x="394.8" y="422.8"/><ellipse cx="460.7" cy="430.3883" fill="#ADD1B2" rx="4.4" ry="4.4" style="stroke:#181818;stroke-width:0.4000000000000001;"/><path d="M461.8063,428.7383 Q461.8688,428.6508 461.9438,428.607 Q462.0188,428.5633 462.1063,428.5633 Q462.2563,428.5633 462.35,428.6695 Q462.4438,428.7695 462.4438,429.0133 L462.4438,429.5945 Q462.4438,429.8383 462.35,429.9445 Q462.2563,430.0508 462.1063,430.0508 Q461.9688,430.0508 461.8875,429.9695 Q461.8063,429.8945 461.7625,429.6883 Q461.7438,429.5445 461.6688,429.4695 Q461.5375,429.3195 461.2938,429.232 Q461.05,429.1445 460.8,429.1445 Q460.4938,429.1445 460.2375,429.2758 Q459.9875,429.407 459.7875,429.707 Q459.5938,430.007 459.5938,430.4195 L459.5938,430.857 Q459.5938,431.3508 459.95,431.682 Q460.3063,432.007 460.9438,432.007 Q461.3188,432.007 461.5813,431.907 Q461.7375,431.8445 461.9063,431.6695 Q462.0125,431.5633 462.0688,431.532 Q462.1313,431.5008 462.2125,431.5008 Q462.3438,431.5008 462.4438,431.607 Q462.55,431.707 462.55,431.8445 Q462.55,431.982 462.4125,432.1445 Q462.2125,432.3758 461.8938,432.507 Q461.4625,432.6883 460.9438,432.6883 Q460.3375,432.6883 459.8563,432.4383 Q459.4625,432.2383 459.1875,431.8133 Q458.9125,431.382 458.9125,430.8695 L458.9125,430.407 Q458.9125,429.8758 459.1563,429.4195 Q459.4063,428.957 459.8438,428.7133 Q460.2813,428.4633 460.775,428.4633 Q461.0688,428.4633 461.325,428.532 Q461.5875,428.5945 461.8063,428.7383 Z " fill="#000000"/><text fill="#000000" font-family="sans-serif" font-size="7.2" lengthAdjust="spacing" textLength="43.2" x="469.7" y="433.3695">BoardService</text><line style="stroke:#181818;stroke-width:0.20000000000000004;" x1="395.2" x2="574.4" y1="437.9766" y2="437.9766"/><line style="stroke:#181818;stroke-width:0.20000000000000004;" x1="395.2" x2="574.4" y1="441.1766" y2="441.1766"/><text fill="#000000" font-family="sans-serif" font-size="7.2" lengthAdjust="spacing" textLength="173.6" x="398" y="451.3461">+listBoardsUserOwnsNotArchived(SystemUser owner)</text><text fill="#000000" font-family="sans-serif" font-size="7.2" lengthAdjust="spacing" textLength="162.4" x="398" y="462.5227">+listBoardsUserOwnsArchived(SystemUser owner)</text></g><!--class BoardState--><g id="elem_BoardState"><rect codeLine="80" fill="#F1F1F1" height="55.1063" id="BoardState" rx="1" ry="1" style="stroke:#181818;stroke-width:0.20000000000000004;" width="50.4" x="404" y="590.8"/><ellipse cx="410" cy="598.3883" fill="#EB937F" rx="4.4" ry="4.4" style="stroke:#181818;stroke-width:0.4000000000000001;"/><path d="M409.5438,598.707 L409.5438,599.707 L411.275,599.707 L411.275,599.3383 Q411.275,599.0945 411.3688,598.9883 Q411.4688,598.882 411.6188,598.882 Q411.7688,598.882 411.8625,598.9883 Q411.9563,599.0945 411.9563,599.3383 L411.9563,600.3883 L408.7563,600.3883 Q408.5063,600.3883 408.4,600.2945 Q408.3,600.2008 408.3,600.0445 Q408.3,599.8945 408.4063,599.8008 Q408.5125,599.707 408.7563,599.707 L408.8625,599.707 L408.8625,597.0445 L408.7563,597.0445 Q408.5063,597.0445 408.4,596.9508 Q408.3,596.857 408.3,596.7008 Q408.3,596.5508 408.4,596.457 Q408.5063,596.3633 408.7563,596.3633 L411.8063,596.3633 L411.8063,597.4008 Q411.8063,597.6445 411.7125,597.7508 Q411.625,597.8508 411.4688,597.8508 Q411.3188,597.8508 411.225,597.7508 Q411.1313,597.6445 411.1313,597.4008 L411.1313,597.0445 L409.5438,597.0445 L409.5438,598.0258 L410.1375,598.0258 Q410.1375,597.7633 410.1875,597.6883 Q410.2938,597.5258 410.4813,597.5258 Q410.6313,597.5258 410.725,597.632 Q410.8188,597.732 410.8188,597.9758 L410.8188,598.7633 Q410.8188,598.982 410.7688,599.057 Q410.6625,599.2133 410.4813,599.2133 Q410.2938,599.2133 410.1875,599.0508 Q410.1375,598.9758 410.1375,598.707 L409.5438,598.707 Z " fill="#000000"/><text fill="#000000" font-family="sans-serif" font-size="7.2" lengthAdjust="spacing" textLength="36" x="416.4" y="601.3695">BoardState</text><line style="stroke:#181818;stroke-width:0.20000000000000004;" x1="404.4" x2="454" y1="605.9766" y2="605.9766"/><text fill="#000000" font-family="sans-serif" font-size="7.2" lengthAdjust="spacing" textLength="38.8" x="407.2" y="616.1461">+CREATED</text><text fill="#000000" font-family="sans-serif" font-size="7.2" lengthAdjust="spacing" textLength="34" x="407.2" y="627.3227">+SHARED</text><text fill="#000000" font-family="sans-serif" font-size="7.2" lengthAdjust="spacing" textLength="40.4" x="407.2" y="638.4992">+ARCHIVED</text><line style="stroke:#181818;stroke-width:0.20000000000000004;" x1="404.4" x2="454" y1="642.7063" y2="642.7063"/></g><!--class Board--><g id="elem_Board"><rect codeLine="87" fill="#F1F1F1" height="32.7531" id="Board" rx="1" ry="1" style="stroke:#181818;stroke-width:0.20000000000000004;" width="58" x="400.2" y="518"/><ellipse cx="417.18" cy="525.5883" fill="#ADD1B2" rx="4.4" ry="4.4" style="stroke:#181818;stroke-width:0.4000000000000001;"/><path d="M418.2863,523.9383 Q418.3488,523.8508 418.4238,523.807 Q418.4988,523.7633 418.5863,523.7633 Q418.7363,523.7633 418.83,523.8695 Q418.9238,523.9695 418.9238,524.2133 L418.9238,524.7945 Q418.9238,525.0383 418.83,525.1445 Q418.7363,525.2508 418.5863,525.2508 Q418.4488,525.2508 418.3675,525.1695 Q418.2863,525.0945 418.2425,524.8883 Q418.2238,524.7445 418.1488,524.6695 Q418.0175,524.5195 417.7738,524.432 Q417.53,524.3445 417.28,524.3445 Q416.9738,524.3445 416.7175,524.4758 Q416.4675,524.607 416.2675,524.907 Q416.0738,525.207 416.0738,525.6195 L416.0738,526.057 Q416.0738,526.5508 416.43,526.882 Q416.7863,527.207 417.4238,527.207 Q417.7988,527.207 418.0613,527.107 Q418.2175,527.0445 418.3863,526.8695 Q418.4925,526.7633 418.5488,526.732 Q418.6113,526.7008 418.6925,526.7008 Q418.8238,526.7008 418.9238,526.807 Q419.03,526.907 419.03,527.0445 Q419.03,527.182 418.8925,527.3445 Q418.6925,527.5758 418.3738,527.707 Q417.9425,527.8883 417.4238,527.8883 Q416.8175,527.8883 416.3363,527.6383 Q415.9425,527.4383 415.6675,527.0133 Q415.3925,526.582 415.3925,526.0695 L415.3925,525.607 Q415.3925,525.0758 415.6363,524.6195 Q415.8863,524.157 416.3238,523.9133 Q416.7613,523.6633 417.255,523.6633 Q417.5488,523.6633 417.805,523.732 Q418.0675,523.7945 418.2863,523.9383 Z " fill="#000000"/><text fill="#000000" font-family="sans-serif" font-size="7.2" lengthAdjust="spacing" textLength="19.2" x="426.02" y="528.5695">Board</text><line style="stroke:#181818;stroke-width:0.20000000000000004;" x1="400.6" x2="457.8" y1="533.1766" y2="533.1766"/><line style="stroke:#181818;stroke-width:0.20000000000000004;" x1="400.6" x2="457.8" y1="536.3766" y2="536.3766"/><text fill="#000000" font-family="sans-serif" font-size="7.2" lengthAdjust="spacing" textLength="51.6" x="403.4" y="546.5461">+archiveBoard()</text></g><!--class SBPClientApp--><g id="elem_SBPClientApp"><rect codeLine="92" fill="#F1F1F1" height="21.5766" id="SBPClientApp" rx="1" ry="1" style="stroke:#181818;stroke-width:0.20000000000000004;" width="59.6" x="70.2" y="75.6"/><ellipse cx="76.2" cy="83.1883" fill="#ADD1B2" rx="4.4" ry="4.4" style="stroke:#181818;stroke-width:0.4000000000000001;"/><path d="M77.3063,81.5383 Q77.3688,81.4508 77.4438,81.407 Q77.5188,81.3633 77.6063,81.3633 Q77.7563,81.3633 77.85,81.4695 Q77.9438,81.5695 77.9438,81.8133 L77.9438,82.3945 Q77.9438,82.6383 77.85,82.7445 Q77.7563,82.8508 77.6063,82.8508 Q77.4688,82.8508 77.3875,82.7695 Q77.3063,82.6945 77.2625,82.4883 Q77.2438,82.3445 77.1688,82.2695 Q77.0375,82.1195 76.7938,82.032 Q76.55,81.9445 76.3,81.9445 Q75.9938,81.9445 75.7375,82.0758 Q75.4875,82.207 75.2875,82.507 Q75.0938,82.807 75.0938,83.2195 L75.0938,83.657 Q75.0938,84.1508 75.45,84.482 Q75.8063,84.807 76.4438,84.807 Q76.8188,84.807 77.0813,84.707 Q77.2375,84.6445 77.4063,84.4695 Q77.5125,84.3633 77.5688,84.332 Q77.6313,84.3008 77.7125,84.3008 Q77.8438,84.3008 77.9438,84.407 Q78.05,84.507 78.05,84.6445 Q78.05,84.782 77.9125,84.9445 Q77.7125,85.1758 77.3938,85.307 Q76.9625,85.4883 76.4438,85.4883 Q75.8375,85.4883 75.3563,85.2383 Q74.9625,85.0383 74.6875,84.6133 Q74.4125,84.182 74.4125,83.6695 L74.4125,83.207 Q74.4125,82.6758 74.6563,82.2195 Q74.9063,81.757 75.3438,81.5133 Q75.7813,81.2633 76.275,81.2633 Q76.5688,81.2633 76.825,81.332 Q77.0875,81.3945 77.3063,81.5383 Z " fill="#000000"/><text fill="#000000" font-family="sans-serif" font-size="7.2" lengthAdjust="spacing" textLength="45.2" x="82.6" y="86.1695">SBPClientApp</text><line style="stroke:#181818;stroke-width:0.20000000000000004;" x1="70.6" x2="129.4" y1="90.7766" y2="90.7766"/><line style="stroke:#181818;stroke-width:0.20000000000000004;" x1="70.6" x2="129.4" y1="93.9766" y2="93.9766"/></g><!--class SBPServerApp--><g id="elem_SBPServerApp"><rect codeLine="94" fill="#F1F1F1" height="43.9297" id="SBPServerApp" rx="1" ry="1" style="stroke:#181818;stroke-width:0.20000000000000004;" width="132.4" x="144.6" y="64.4"/><ellipse cx="184.3" cy="71.9883" fill="#ADD1B2" rx="4.4" ry="4.4" style="stroke:#181818;stroke-width:0.4000000000000001;"/><path d="M185.4063,70.3383 Q185.4688,70.2508 185.5438,70.207 Q185.6188,70.1633 185.7063,70.1633 Q185.8563,70.1633 185.95,70.2695 Q186.0438,70.3695 186.0438,70.6133 L186.0438,71.1945 Q186.0438,71.4383 185.95,71.5445 Q185.8563,71.6508 185.7063,71.6508 Q185.5688,71.6508 185.4875,71.5695 Q185.4063,71.4945 185.3625,71.2883 Q185.3438,71.1445 185.2688,71.0695 Q185.1375,70.9195 184.8938,70.832 Q184.65,70.7445 184.4,70.7445 Q184.0938,70.7445 183.8375,70.8758 Q183.5875,71.007 183.3875,71.307 Q183.1938,71.607 183.1938,72.0195 L183.1938,72.457 Q183.1938,72.9508 183.55,73.282 Q183.9063,73.607 184.5438,73.607 Q184.9188,73.607 185.1813,73.507 Q185.3375,73.4445 185.5063,73.2695 Q185.6125,73.1633 185.6688,73.132 Q185.7313,73.1008 185.8125,73.1008 Q185.9438,73.1008 186.0438,73.207 Q186.15,73.307 186.15,73.4445 Q186.15,73.582 186.0125,73.7445 Q185.8125,73.9758 185.4938,74.107 Q185.0625,74.2883 184.5438,74.2883 Q183.9375,74.2883 183.4563,74.0383 Q183.0625,73.8383 182.7875,73.4133 Q182.5125,72.982 182.5125,72.4695 L182.5125,72.007 Q182.5125,71.4758 182.7563,71.0195 Q183.0063,70.557 183.4438,70.3133 Q183.8813,70.0633 184.375,70.0633 Q184.6688,70.0633 184.925,70.132 Q185.1875,70.1945 185.4063,70.3383 Z " fill="#000000"/><text fill="#000000" font-family="sans-serif" font-size="7.2" lengthAdjust="spacing" textLength="48" x="193.3" y="74.9695">SBPServerApp</text><line style="stroke:#181818;stroke-width:0.20000000000000004;" x1="145" x2="276.6" y1="79.5766" y2="79.5766"/><text fill="#000000" font-family="sans-serif" font-size="7.2" lengthAdjust="spacing" text-decoration="underline" textLength="126" x="147.8" y="89.7461">+Map&lt;InetAddress, Client&gt; activeAuths</text><text fill="#000000" font-family="sans-serif" font-size="7.2" lengthAdjust="spacing" text-decoration="underline" textLength="107.6" x="147.8" y="100.9227">+Map&lt;BoardTitle, Board&gt; boards</text><line style="stroke:#181818;stroke-width:0.20000000000000004;" x1="145" x2="276.6" y1="105.1297" y2="105.1297"/></g><!--class BaseApplication--><g id="elem_BaseApplication"><rect codeLine="101" fill="#F1F1F1" height="21.5766" id="BaseApplication" rx="1" ry="1" style="stroke:#181818;stroke-width:0.20000000000000004;" width="67.2" x="121.2" y="2.8"/><ellipse cx="127.2" cy="10.3883" fill="#A9DCDF" rx="4.4" ry="4.4" style="stroke:#181818;stroke-width:0.4000000000000001;"/><path d="M128.075,11.0945 L126.4188,11.0945 L126.25,11.507 L126.4188,11.507 Q126.6625,11.507 126.7688,11.6008 Q126.875,11.6945 126.875,11.8508 Q126.875,12.0008 126.7688,12.0945 Q126.6625,12.1883 126.4188,12.1883 L125.5,12.1883 Q125.2563,12.1883 125.1563,12.0945 Q125.05,12.0008 125.05,11.8445 Q125.05,11.6945 125.1625,11.6008 Q125.2688,11.5008 125.5188,11.507 L126.5875,8.8445 L126.1438,8.8445 Q125.9,8.8445 125.7938,8.7508 Q125.6875,8.657 125.6875,8.5008 Q125.6875,8.3508 125.7938,8.257 Q125.9,8.1633 126.1438,8.1633 L127.6125,8.1633 L128.9688,11.507 Q129.2063,11.507 129.2813,11.5633 Q129.4375,11.6695 129.4375,11.8508 Q129.4375,12.0008 129.3313,12.0945 Q129.2313,12.1883 128.9875,12.1883 L128.0688,12.1883 Q127.825,12.1883 127.7188,12.0945 Q127.6125,12.0008 127.6125,11.8445 Q127.6125,11.6945 127.7188,11.6008 Q127.825,11.507 128.0688,11.507 L128.2375,11.507 L128.075,11.0945 Z M127.7875,10.4133 L127.2438,9.0633 L126.6938,10.4133 L127.7875,10.4133 Z " fill="#000000"/><text fill="#000000" font-family="sans-serif" font-size="7.2" font-style="italic" lengthAdjust="spacing" textLength="52.8" x="133.6" y="13.3695">BaseApplication</text><line style="stroke:#181818;stroke-width:0.20000000000000004;" x1="121.6" x2="188" y1="17.9766" y2="17.9766"/><line style="stroke:#181818;stroke-width:0.20000000000000004;" x1="121.6" x2="188" y1="21.1766" y2="21.1766"/></g><!--class MainMenu--><g id="elem_MainMenu"><rect codeLine="103" fill="#F1F1F1" height="32.7531" id="MainMenu" rx="1" ry="1" style="stroke:#181818;stroke-width:0.20000000000000004;" width="62.4" x="61.2" y="154"/><ellipse cx="73.68" cy="161.5883" fill="#ADD1B2" rx="4.4" ry="4.4" style="stroke:#181818;stroke-width:0.4000000000000001;"/><path d="M74.7863,159.9383 Q74.8488,159.8508 74.9238,159.807 Q74.9988,159.7633 75.0863,159.7633 Q75.2363,159.7633 75.33,159.8695 Q75.4238,159.9695 75.4238,160.2133 L75.4238,160.7945 Q75.4238,161.0383 75.33,161.1445 Q75.2363,161.2508 75.0863,161.2508 Q74.9488,161.2508 74.8675,161.1695 Q74.7863,161.0945 74.7425,160.8883 Q74.7238,160.7445 74.6488,160.6695 Q74.5175,160.5195 74.2738,160.432 Q74.03,160.3445 73.78,160.3445 Q73.4738,160.3445 73.2175,160.4758 Q72.9675,160.607 72.7675,160.907 Q72.5738,161.207 72.5738,161.6195 L72.5738,162.057 Q72.5738,162.5508 72.93,162.882 Q73.2863,163.207 73.9238,163.207 Q74.2988,163.207 74.5613,163.107 Q74.7175,163.0445 74.8863,162.8695 Q74.9925,162.7633 75.0488,162.732 Q75.1113,162.7008 75.1925,162.7008 Q75.3238,162.7008 75.4238,162.807 Q75.53,162.907 75.53,163.0445 Q75.53,163.182 75.3925,163.3445 Q75.1925,163.5758 74.8738,163.707 Q74.4425,163.8883 73.9238,163.8883 Q73.3175,163.8883 72.8363,163.6383 Q72.4425,163.4383 72.1675,163.0133 Q71.8925,162.582 71.8925,162.0695 L71.8925,161.607 Q71.8925,161.0758 72.1363,160.6195 Q72.3863,160.157 72.8238,159.9133 Q73.2613,159.6633 73.755,159.6633 Q74.0488,159.6633 74.305,159.732 Q74.5675,159.7945 74.7863,159.9383 Z " fill="#000000"/><text fill="#000000" font-family="sans-serif" font-size="7.2" lengthAdjust="spacing" textLength="33.6" x="81.52" y="164.5695">MainMenu</text><line style="stroke:#181818;stroke-width:0.20000000000000004;" x1="61.6" x2="123.2" y1="169.1766" y2="169.1766"/><line style="stroke:#181818;stroke-width:0.20000000000000004;" x1="61.6" x2="123.2" y1="172.3766" y2="172.3766"/><text fill="#000000" font-family="sans-serif" font-size="7.2" lengthAdjust="spacing" textLength="56" x="64.4" y="182.5461">-buildMainMenu()</text></g><!--link ArchiveBoardUI to AbstractUI--><g id="link_ArchiveBoardUI_AbstractUI"><path codeLine="110" d="M76.34,276.408 C64.828,291.896 49.548,312.456 38.936,326.736 " fill="none" id="ArchiveBoardUI-to-AbstractUI" style="stroke:#181818;stroke-width:0.4000000000000001;"/><polygon fill="none" points="41.156,328.44,34.136,333.192,36.66,325.1,41.156,328.44" style="stroke:#181818;stroke-width:0.4000000000000001;"/></g><!--link MenuRequest to Thread--><g id="link_MenuRequest_Thread"><path codeLine="111" d="M228.82,270.88 C232.276,286.216 237.472,309.292 241.084,325.32 " fill="none" id="MenuRequest-to-Thread" style="stroke:#181818;stroke-width:0.4000000000000001;"/><polygon fill="none" points="243.828,324.772,242.856,333.192,238.368,326.004,243.828,324.772" style="stroke:#181818;stroke-width:0.4000000000000001;"/></g><!--reverse link BaseApplication to SBPClientApp--><g id="link_BaseApplication_SBPClientApp"><path codeLine="112" d="M141.892,30.96 C131.38,44.772 116.872,63.836 107.98,75.516 " fill="none" id="BaseApplication-backto-SBPClientApp" style="stroke:#181818;stroke-width:0.4000000000000001;"/><polygon fill="none" points="139.76,29.14,146.832,24.468,144.216,32.532,139.76,29.14" style="stroke:#181818;stroke-width:0.4000000000000001;"/></g><!--reverse link BaseApplication to SBPServerApp--><g id="link_BaseApplication_SBPServerApp"><path codeLine="113" d="M167.936,30.888 C175.708,40.88 185.636,53.644 193.976,64.368 " fill="none" id="BaseApplication-backto-SBPServerApp" style="stroke:#181818;stroke-width:0.4000000000000001;"/><polygon fill="none" points="165.644,32.504,162.944,24.468,170.064,29.064,165.644,32.504" style="stroke:#181818;stroke-width:0.4000000000000001;"/></g><!--link MainMenu to AbstractUI--><g id="link_MainMenu_AbstractUI"><path codeLine="114" d="M80.096,186.836 C71.448,198.812 60.212,215.892 53.2,232.4 C39.944,263.612 32.448,302.66 28.928,325.204 " fill="none" id="MainMenu-to-AbstractUI" style="stroke:#181818;stroke-width:0.4000000000000001;"/><polygon fill="none" points="31.696,325.62,27.748,333.12,26.156,324.796,31.696,325.62" style="stroke:#181818;stroke-width:0.4000000000000001;"/></g><!--link ArchiveBoardUI to ArchiveBoardController--><g id="link_ArchiveBoardUI_ArchiveBoardController"><path codeLine="117" d="M100.088,276.408 C104.148,287.812 109.184,301.968 113.588,314.34 " fill="none" id="ArchiveBoardUI-to-ArchiveBoardController" style="stroke:#181818;stroke-width:0.4000000000000001;"/><polygon fill="#181818" points="114.288,316.308,114.5893,312.38,113.6179,314.4236,111.5743,313.4522,114.288,316.308" style="stroke:#181818;stroke-width:0.4000000000000001;"/><text fill="#000000" font-family="sans-serif" font-size="5.2" lengthAdjust="spacing" textLength="2.8" x="109.4596" y="311.0413">1</text></g><!--link ArchiveBoardController to SBProtocol--><g id="link_ArchiveBoardController_SBProtocol"><path codeLine="118" d="M130.776,371.724 C133.676,383.416 137.096,397.208 140.172,409.616 " fill="none" id="ArchiveBoardController-to-SBProtocol" style="stroke:#181818;stroke-width:0.4000000000000001;"/><polygon fill="#181818" points="140.664,411.596,141.3431,407.7154,140.1789,409.6557,138.2386,408.4915,140.664,411.596" style="stroke:#181818;stroke-width:0.4000000000000001;"/><text fill="#000000" font-family="sans-serif" font-size="5.2" lengthAdjust="spacing" textLength="2" x="136.9791" y="406.2864">*</text></g><!--link ArchiveBoardHandler to SBProtocol--><g id="link_ArchiveBoardHandler_SBProtocol"><path codeLine="120" d="M282.332,366.036 C260.208,379.02 231.588,395.816 206.52,410.528 " fill="none" id="ArchiveBoardHandler-to-SBProtocol" style="stroke:#181818;stroke-width:0.4000000000000001;"/><polygon fill="#181818" points="204.72,411.584,208.6343,411.1384,206.444,410.5702,207.0122,408.38,204.72,411.584" style="stroke:#181818;stroke-width:0.4000000000000001;"/><text fill="#000000" font-family="sans-serif" font-size="5.2" lengthAdjust="spacing" textLength="2" x="206.7401" y="406.2734">*</text></g><!--reverse link BoardRepository to ArchiveBoardHandler--><g id="link_BoardRepository_ArchiveBoardHandler"><path codeLine="121" d="M402.596,277.716 C385.36,291.332 363.632,308.496 346.676,321.892 " fill="none" id="BoardRepository-backto-ArchiveBoardHandler" style="stroke:#181818;stroke-width:0.4000000000000001;"/><polygon fill="#181818" points="404.248,276.408,400.4308,277.382,402.6779,277.6469,402.413,279.8941,404.248,276.408" style="stroke:#181818;stroke-width:0.4000000000000001;"/><text fill="#000000" font-family="sans-serif" font-size="5.2" lengthAdjust="spacing" textLength="2.8" x="397.2311" y="285.8604">1</text></g><!--link ArchiveBoardHandler to Client--><g id="link_ArchiveBoardHandler_Client"><path codeLine="124" d="M318.768,366.1 C318.408,384.092 317.9,409.38 317.56,426.3 " fill="none" id="ArchiveBoardHandler-to-Client" style="stroke:#181818;stroke-width:0.4000000000000001;"/><polygon fill="#181818" points="317.52,428.32,319.1917,424.7527,317.56,426.3204,315.9923,424.6887,317.52,428.32" style="stroke:#181818;stroke-width:0.4000000000000001;"/><text fill="#000000" font-family="sans-serif" font-size="5.2" lengthAdjust="spacing" textLength="2.8" x="313.6204" y="423.0485">1</text></g><!--link ArchiveBoardHandler to BoardService--><g id="link_ArchiveBoardHandler_BoardService"><path codeLine="125" d="M355.032,366.036 C382.204,382.448 419.464,404.944 447.088,421.628 " fill="none" id="ArchiveBoardHandler-to-BoardService" style="stroke:#181818;stroke-width:0.4000000000000001;"/><polygon fill="#181818" points="448.892,422.716,446.6361,419.4863,447.1795,421.6828,444.983,422.2262,448.892,422.716" style="stroke:#181818;stroke-width:0.4000000000000001;"/><text fill="#000000" font-family="sans-serif" font-size="5.2" lengthAdjust="spacing" textLength="2.8" x="440.6476" y="417.5353">1</text></g><!--link BoardService to BoardRepository--><g id="link_BoardService_BoardRepository"><path codeLine="127" d="M478.728,422.76 C468.68,386.948 448.672,315.636 438.252,278.508 " fill="none" id="BoardService-to-BoardRepository" style="stroke:#181818;stroke-width:0.4000000000000001;"/><polygon fill="#181818" points="437.704,276.548,437.1301,280.4455,438.2414,278.4745,440.2124,279.5857,437.704,276.548" style="stroke:#181818;stroke-width:0.4000000000000001;"/><text fill="#000000" font-family="sans-serif" font-size="5.2" lengthAdjust="spacing" textLength="2.8" x="434.5554" y="286.0166">1</text></g><!--link BoardService to Board--><g id="link_BoardService_Board"><path codeLine="128" d="M471.268,466.808 C461.788,481.956 449.264,501.952 440.356,516.184 " fill="none" id="BoardService-to-Board" style="stroke:#181818;stroke-width:0.4000000000000001;"/><polygon fill="#181818" points="439.288,517.892,442.5581,515.6951,440.3521,516.1986,439.8487,513.9926,439.288,517.892" style="stroke:#181818;stroke-width:0.4000000000000001;"/><text fill="#000000" font-family="sans-serif" font-size="5.2" lengthAdjust="spacing" textLength="2" x="437.7571" y="512.7449">*</text></g><!--link ArchiveBoardHandler to Board--><g id="link_ArchiveBoardHandler_Board"><path codeLine="130" d="M333.104,366.08 C341.164,379.048 351.26,395.988 359.2,411.6 C373.752,440.208 371.608,450.172 387.6,478 C395.36,491.508 405.824,505.576 414.316,516.236 " fill="none" id="ArchiveBoardHandler-to-Board" style="stroke:#181818;stroke-width:0.4000000000000001;"/><polygon fill="#181818" points="415.66,517.916,414.6554,514.1067,414.4085,516.3559,412.1593,516.1091,415.66,517.916" style="stroke:#181818;stroke-width:0.4000000000000001;"/><text fill="#000000" font-family="sans-serif" font-size="5.2" lengthAdjust="spacing" textLength="2" x="410.4152" y="512.6438">*</text></g><!--link Board to BoardState--><g id="link_Board_BoardState"><path codeLine="132" d="M429.2,550.84 C429.2,561.556 429.2,575.96 429.2,588.68 " fill="none" id="Board-to-BoardState" style="stroke:#181818;stroke-width:0.4000000000000001;"/><polygon fill="#181818" points="429.2,590.708,430.8,587.108,429.2,588.708,427.6,587.108,429.2,590.708" style="stroke:#181818;stroke-width:0.4000000000000001;"/></g><!--link MenuRequest to SBProtocol--><g id="link_MenuRequest_SBProtocol"><path codeLine="134" d="M221.736,270.896 C216.524,293.816 205.664,336.916 190.8,371.6 C185.268,384.512 177.956,398.008 170.988,409.82 " fill="none" id="MenuRequest-to-SBProtocol" style="stroke:#181818;stroke-width:0.4000000000000001;"/><polygon fill="#181818" points="169.964,411.552,173.1793,409.2756,170.9863,409.833,170.4289,407.64,169.964,411.552" style="stroke:#181818;stroke-width:0.4000000000000001;"/><text fill="#000000" font-family="sans-serif" font-size="5.2" lengthAdjust="spacing" textLength="2.8" x="168.053" y="406.2385">1</text></g><!--link MainMenu to ArchiveBoardUI--><g id="link_MainMenu_ArchiveBoardUI"><path codeLine="135" d="M92.4,186.84 C92.4,199.172 92.4,216.4 92.4,230.316 " fill="none" id="MainMenu-to-ArchiveBoardUI" style="stroke:#181818;stroke-width:0.4000000000000001;"/><polygon fill="#181818" points="92.4,232.344,94,228.744,92.4,230.344,90.8,228.744,92.4,232.344" style="stroke:#181818;stroke-width:0.4000000000000001;"/><text fill="#000000" font-family="sans-serif" font-size="5.2" lengthAdjust="spacing" textLength="2.8" x="88.5319" y="227.1668">1</text></g><!--link SBPClientApp to MainMenu--><g id="link_SBPClientApp_MainMenu"><path codeLine="136" d="M99.036,97.336 C97.784,111.076 95.568,135.32 94.044,152 " fill="none" id="SBPClientApp-to-MainMenu" style="stroke:#181818;stroke-width:0.4000000000000001;"/><polygon fill="#181818" points="93.86,153.996,95.7829,150.5576,94.0431,152.0044,92.5964,150.2646,93.86,153.996" style="stroke:#181818;stroke-width:0.4000000000000001;"/><text fill="#000000" font-family="sans-serif" font-size="5.2" lengthAdjust="spacing" textLength="2.8" x="90.1421" y="148.7366">1</text></g><!--link SBPServerApp to MenuRequest--><g id="link_SBPServerApp_MenuRequest"><path codeLine="137" d="M212.668,108.488 C215.532,141.752 220.96,204.768 223.632,235.8 " fill="none" id="SBPServerApp-to-MenuRequest" style="stroke:#181818;stroke-width:0.4000000000000001;"/><polygon fill="#181818" points="223.82,237.98,225.1049,234.2559,223.6482,235.9874,221.9167,234.5307,223.82,237.98" style="stroke:#181818;stroke-width:0.4000000000000001;"/><text fill="#000000" font-family="sans-serif" font-size="5.2" lengthAdjust="spacing" textLength="2.8" x="219.6494" y="232.718">1</text></g><!--link MenuRequest to ArchiveBoardHandler--><g id="link_MenuRequest_ArchiveBoardHandler"><path codeLine="138" d="M242.224,270.88 C256.88,284.728 278.216,304.884 294.708,320.464 " fill="none" id="MenuRequest-to-ArchiveBoardHandler" style="stroke:#181818;stroke-width:0.4000000000000001;"/><polygon fill="#181818" points="296.292,321.956,294.7742,318.3206,294.8383,320.5824,292.5765,320.6465,296.292,321.956" style="stroke:#181818;stroke-width:0.4000000000000001;"/><text fill="#000000" font-family="sans-serif" font-size="5.2" lengthAdjust="spacing" textLength="2.8" x="289.475" y="316.6168">1</text></g><!--link ArchiveBoardHandler to Runnable--><g id="link_ArchiveBoardHandler_Runnable"><path codeLine="143" d="M303.144,366.1 C289.536,384.484 270.296,410.484 257.784,427.392 " fill="none" id="ArchiveBoardHandler-to-Runnable" style="stroke:#181818;stroke-width:0.4000000000000001;stroke-dasharray:7.0,7.0;"/><polygon fill="none" points="259.96,429.164,252.948,433.928,255.456,425.832,259.96,429.164" style="stroke:#181818;stroke-width:0.4000000000000001;"/></g><!--link Thread to Runnable--><g id="link_Thread_Runnable"><path codeLine="144" d="M245.2,354.912 C245.2,371.716 245.2,404.864 245.2,425.756 " fill="none" id="Thread-to-Runnable" style="stroke:#181818;stroke-width:0.4000000000000001;stroke-dasharray:7.0,7.0;"/><polygon fill="none" points="248,425.88,245.2,433.88,242.4,425.88,248,425.88" style="stroke:#181818;stroke-width:0.4000000000000001;"/></g><!--link SBProtocol to MessageProtocol--><g id="link_SBProtocol_MessageProtocol"><path codeLine="145" d="M148.8,478.012 C148.8,490.66 148.8,504.652 148.8,515.488 " fill="none" id="SBProtocol-to-MessageProtocol" style="stroke:#181818;stroke-width:0.4000000000000001;stroke-dasharray:7.0,7.0;"/><polygon fill="none" points="151.6,515.58,148.8,523.58,146,515.58,151.6,515.58" style="stroke:#181818;stroke-width:0.4000000000000001;"/></g><!--link JpaBoardRepository to BoardRepository--><g id="link_JpaBoardRepository_BoardRepository"><path codeLine="146" d="M431.6,192.444 C431.6,202.132 431.6,213.712 431.6,224.2 " fill="none" id="JpaBoardRepository-to-BoardRepository" style="stroke:#181818;stroke-width:0.4000000000000001;stroke-dasharray:7.0,7.0;"/><polygon fill="none" points="434.4,224.32,431.6,232.32,428.8,224.32,434.4,224.32" style="stroke:#181818;stroke-width:0.4000000000000001;"/></g><!--SRC=[bLLBKzim4BxhLsZeWOGG7ZrrEftCc013EgLqOkXTiRQ91bbo9HdQKlvxrvBjo8b99xxOslts_Qryk7Aki1zFJml9b2jpUPBf_3IJpDen5snfM4w8VHIgOFX9lI9npeX5wM2MQPMAFq3F8aZ1E1TgITz7CiFKeuM2df-TRJgxrifv7-SV2252EJ0_M0PqNYh55X8YqIrOovRmpMYdCorZz8LcXi-Xq5OuRNwJ5qBfI0hhlC8-M31tpyf-rIunsKey0H-alws3lD9G_Qp03FjDTk5V2V4rq6HXdM6PUvXXvBKqc7f_NaFnUKUvJbVwUJ3qnn5T0UDIA411h-KK6sIqb63G0_bVLUXrnEf3G0rId1REOr6TxeMJK64ogIsaEdi4zrRW6wPuY3eofKBKs88AJZ6gZzNQtO8gv_2p1ElM-5Pxlp9OP6ZDVXCEzkb5Ay4cZgW5DzKS1cX8C_mOjaBqfDorqNaekgazmtSDKdnmoHoxArrHEXG34b6NpckNhOl4rWw6P5t6vu9jysnlbkt7iJRuL0hCgoRH23EjK5_qSWbyrccsTvs2UH8P-7RjlGPxPuZ3p-kuZZbeafpEhvBxgyjmI6-IUVETpASti-zuwYRTsB68X75bI8FGXQGe8bbLAvXAXjDuiPY1o5vlMV5ffi0bd1iarN7Tlmd5BKNVIUbMjek-QFVZEAGp2IjZFGDOlU6qpfTPm8XIP6YlLRi6JAXg5J2JyQ8KaZU2K0OvX5_8BdJPlHheUFnt4byYqJe5NRr1SGVek2mgrMOgSKVUmZHfRGKcXnoAAaEgrK3aXJRE3hUpdT23yuEtRgb-SR0wEeYNcVHSDtsuNXXM5jBOtCaTRX5Txz4kI6U3I7oYNKmKj0TrLADsbrb3_CiBeptQu4687FKb6kFsH72QNRhKc9QZNQ8qskWYxulUzuEeY8rSaP1ZADjRxSa9ygozy0ERDuJhke9Yyr-mVVi6tFRu_m40]--></g></svg>