<?xml version="1.0" encoding="us-ascii" standalone="no"?><svg xmlns="http://www.w3.org/2000/svg" xmlns:xlink="http://www.w3.org/1999/xlink" contentStyleType="text/css" height="768px" preserveAspectRatio="none" style="width:609px;height:768px;background:#FFFFFF;" version="1.1" viewBox="0 0 609 768" width="609.6px" zoomAndPan="magnify"><defs/><g><rect fill="#FFFFFF" height="612.5547" style="stroke:#181818;stroke-width:0.8000000000000002;" width="8" x="37.6" y="74.8969"/><rect fill="#FFFFFF" height="291.3609" style="stroke:#181818;stroke-width:0.8000000000000002;" width="8" x="177.6" y="93.5297"/><rect fill="#FFFFFF" height="277.5281" style="stroke:#181818;stroke-width:0.8000000000000002;" width="8" x="177.6" y="409.9234"/><rect fill="#FFFFFF" height="24" style="stroke:#181818;stroke-width:0.8000000000000002;" width="8" x="356.8" y="134.7953"/><rect fill="#FFFFFF" height="159.7969" style="stroke:#181818;stroke-width:0.8000000000000002;" width="8" x="356.8" y="200.0609"/><rect fill="#FFFFFF" height="164.5969" style="stroke:#181818;stroke-width:0.8000000000000002;" width="8" x="356.8" y="434.9563"/><rect fill="#FFFFFF" height="24" style="stroke:#181818;stroke-width:0.8000000000000002;" width="8" x="356.8" y="663.4516"/><rect fill="#FFFFFF" height="107.3313" style="stroke:#181818;stroke-width:0.8000000000000002;" width="8" x="462.8" y="225.0938"/><rect fill="#FFFFFF" height="112.1313" style="stroke:#181818;stroke-width:0.8000000000000002;" width="8" x="462.8" y="459.9891"/><line style="stroke:#181818;stroke-width:0.4000000000000001;stroke-dasharray:5.0,5.0;" x1="41.6" x2="41.6" y1="66.8969" y2="701.8516"/><line style="stroke:#181818;stroke-width:0.4000000000000001;stroke-dasharray:5.0,5.0;" x1="181.2" x2="181.2" y1="66.8969" y2="701.8516"/><line style="stroke:#181818;stroke-width:0.4000000000000001;stroke-dasharray:5.0,5.0;" x1="360.4" x2="360.4" y1="66.8969" y2="701.8516"/><line style="stroke:#181818;stroke-width:0.4000000000000001;stroke-dasharray:5.0,5.0;" x1="466.8" x2="466.8" y1="66.8969" y2="701.8516"/><text fill="#000000" font-family="sans-serif" font-size="11.2" lengthAdjust="spacing" textLength="70.4" x="4" y="64.0859">SBPClientApp</text><ellipse cx="41.6" cy="10.8" fill="#E2E2F0" rx="6.4" ry="6.4" style="stroke:#181818;stroke-width:0.4000000000000001;"/><path d="M41.6,17.2 L41.6,38.8 M31.2,23.6 L52,23.6 M41.6,38.8 L31.2,50.8 M41.6,38.8 L52,50.8 " fill="none" style="stroke:#181818;stroke-width:0.4000000000000001;"/><text fill="#000000" font-family="sans-serif" font-size="11.2" lengthAdjust="spacing" textLength="70.4" x="4" y="713.1375">SBPClientApp</text><ellipse cx="41.6" cy="722.7484" fill="#E2E2F0" rx="6.4" ry="6.4" style="stroke:#181818;stroke-width:0.4000000000000001;"/><path d="M41.6,729.1484 L41.6,750.7484 M31.2,735.5484 L52,735.5484 M41.6,750.7484 L31.2,762.7484 M41.6,750.7484 L52,762.7484 " fill="none" style="stroke:#181818;stroke-width:0.4000000000000001;"/><rect fill="#E2E2F0" height="26.0969" rx="2" ry="2" style="stroke:#181818;stroke-width:0.4000000000000001;" width="88.8" x="137.2" y="40"/><text fill="#000000" font-family="sans-serif" font-size="11.2" lengthAdjust="spacing" textLength="77.6" x="142.8" y="57.6859">ArchiveBoardUI</text><rect fill="#E2E2F0" height="26.0969" rx="2" ry="2" style="stroke:#181818;stroke-width:0.4000000000000001;" width="88.8" x="137.2" y="701.0516"/><text fill="#000000" font-family="sans-serif" font-size="11.2" lengthAdjust="spacing" textLength="77.6" x="142.8" y="718.7375">ArchiveBoardUI</text><rect fill="#E2E2F0" height="26.0969" rx="2" ry="2" style="stroke:#181818;stroke-width:0.4000000000000001;" width="128.8" x="296.4" y="40"/><text fill="#000000" font-family="sans-serif" font-size="11.2" lengthAdjust="spacing" textLength="117.6" x="302" y="57.6859">ArchiveBoardController</text><rect fill="#E2E2F0" height="26.0969" rx="2" ry="2" style="stroke:#181818;stroke-width:0.4000000000000001;" width="128.8" x="296.4" y="701.0516"/><text fill="#000000" font-family="sans-serif" font-size="11.2" lengthAdjust="spacing" textLength="117.6" x="302" y="718.7375">ArchiveBoardController</text><rect fill="#E2E2F0" height="26.0969" rx="2" ry="2" style="stroke:#181818;stroke-width:0.4000000000000001;" width="67.2" x="433.2" y="40"/><text fill="#000000" font-family="sans-serif" font-size="11.2" lengthAdjust="spacing" textLength="56" x="438.8" y="57.6859">SBProtocol</text><rect fill="#E2E2F0" height="26.0969" rx="2" ry="2" style="stroke:#181818;stroke-width:0.4000000000000001;" width="67.2" x="433.2" y="701.0516"/><text fill="#000000" font-family="sans-serif" font-size="11.2" lengthAdjust="spacing" textLength="56" x="438.8" y="718.7375">SBProtocol</text><rect fill="#FFFFFF" height="612.5547" style="stroke:#181818;stroke-width:0.8000000000000002;" width="8" x="37.6" y="74.8969"/><rect fill="#FFFFFF" height="291.3609" style="stroke:#181818;stroke-width:0.8000000000000002;" width="8" x="177.6" y="93.5297"/><rect fill="#FFFFFF" height="277.5281" style="stroke:#181818;stroke-width:0.8000000000000002;" width="8" x="177.6" y="409.9234"/><rect fill="#FFFFFF" height="24" style="stroke:#181818;stroke-width:0.8000000000000002;" width="8" x="356.8" y="134.7953"/><rect fill="#FFFFFF" height="159.7969" style="stroke:#181818;stroke-width:0.8000000000000002;" width="8" x="356.8" y="200.0609"/><rect fill="#FFFFFF" height="164.5969" style="stroke:#181818;stroke-width:0.8000000000000002;" width="8" x="356.8" y="434.9563"/><rect fill="#FFFFFF" height="24" style="stroke:#181818;stroke-width:0.8000000000000002;" width="8" x="356.8" y="663.4516"/><rect fill="#FFFFFF" height="107.3313" style="stroke:#181818;stroke-width:0.8000000000000002;" width="8" x="462.8" y="225.0938"/><rect fill="#FFFFFF" height="112.1313" style="stroke:#181818;stroke-width:0.8000000000000002;" width="8" x="462.8" y="459.9891"/><polygon fill="#181818" points="168,90.3297,176,93.5297,168,96.7297,171.2,93.5297" style="stroke:#181818;stroke-width:0.8000000000000002;"/><line style="stroke:#181818;stroke-width:0.8000000000000002;" x1="45.6" x2="172.8" y1="93.5297" y2="93.5297"/><text fill="#000000" font-family="sans-serif" font-size="10.4" lengthAdjust="spacing" textLength="66.4" x="51.2" y="89.3195">archive boards</text><polygon fill="#181818" points="347.2,131.5953,355.2,134.7953,347.2,137.9953,350.4,134.7953" style="stroke:#181818;stroke-width:0.8000000000000002;"/><line style="stroke:#181818;stroke-width:0.8000000000000002;" x1="185.6" x2="352" y1="134.7953" y2="134.7953"/><text fill="#000000" font-family="sans-serif" font-size="10.4" lengthAdjust="spacing" textLength="124.8" x="191.2" y="130.5852">create(serverIP, serverPort)</text><path d="M368.8,103.9297 L368.8,152.7297 L551.2,152.7297 L551.2,111.9297 L543.2,103.9297 L368.8,103.9297 " fill="#FEFFDD" style="stroke:#181818;stroke-width:0.4000000000000001;"/><path d="M543.2,103.9297 L543.2,111.9297 L551.2,111.9297 L543.2,103.9297 " fill="#FEFFDD" style="stroke:#181818;stroke-width:0.4000000000000001;"/><text fill="#000000" font-family="sans-serif" font-size="10.4" lengthAdjust="spacing" textLength="112.8" x="373.6" y="119.1523">create Socket as "sock"</text><text fill="#000000" font-family="sans-serif" font-size="10.4" lengthAdjust="spacing" textLength="150.4" x="373.6" y="132.9852">create DataInputStream as "inS"</text><text fill="#000000" font-family="sans-serif" font-size="10.4" lengthAdjust="spacing" textLength="165.6" x="373.6" y="146.818">create DataOutputStream as "outS"</text><polygon fill="#181818" points="347.2,196.8609,355.2,200.0609,347.2,203.2609,350.4,200.0609" style="stroke:#181818;stroke-width:0.8000000000000002;"/><line style="stroke:#181818;stroke-width:0.8000000000000002;" x1="185.6" x2="352" y1="200.0609" y2="200.0609"/><text fill="#000000" font-family="sans-serif" font-size="10.4" lengthAdjust="spacing" textLength="156" x="191.2" y="195.8508">listBoardsUserOwnsNotArchived()</text><polygon fill="#181818" points="453.2,221.8938,461.2,225.0938,453.2,228.2938,456.4,225.0938" style="stroke:#181818;stroke-width:0.8000000000000002;"/><line style="stroke:#181818;stroke-width:0.8000000000000002;" x1="364.8" x2="458" y1="225.0938" y2="225.0938"/><text fill="#000000" font-family="sans-serif" font-size="10.4" lengthAdjust="spacing" textLength="35.2" x="370.4" y="220.8836">create()</text><polygon fill="#181818" points="453.2,246.9266,461.2,250.1266,453.2,253.3266,456.4,250.1266" style="stroke:#181818;stroke-width:0.8000000000000002;"/><line style="stroke:#181818;stroke-width:0.8000000000000002;" x1="364.8" x2="458" y1="250.1266" y2="250.1266"/><text fill="#000000" font-family="sans-serif" font-size="10.4" lengthAdjust="spacing" textLength="50.4" x="370.4" y="245.9164">send(outS)</text><path d="M368.8,260.5266 L368.8,282.1266 L512.8,282.1266 L512.8,268.5266 L504.8,260.5266 L368.8,260.5266 " fill="#FEFFDD" style="stroke:#181818;stroke-width:0.4000000000000001;"/><path d="M504.8,260.5266 L504.8,268.5266 L512.8,268.5266 L504.8,260.5266 " fill="#FEFFDD" style="stroke:#181818;stroke-width:0.4000000000000001;"/><text fill="#000000" font-family="sans-serif" font-size="10.4" lengthAdjust="spacing" textLength="127.2" x="373.6" y="275.7492">check ArchiveBoardHandler</text><polygon fill="#181818" points="453.2,301.7922,461.2,304.9922,453.2,308.1922,456.4,304.9922" style="stroke:#181818;stroke-width:0.8000000000000002;"/><line style="stroke:#181818;stroke-width:0.8000000000000002;" x1="364.8" x2="458" y1="304.9922" y2="304.9922"/><text fill="#000000" font-family="sans-serif" font-size="10.4" lengthAdjust="spacing" textLength="50.4" x="370.4" y="300.782">create(inS)</text><polygon fill="#181818" points="373.6,329.225,365.6,332.425,373.6,335.625,370.4,332.425" style="stroke:#181818;stroke-width:0.8000000000000002;"/><line style="stroke:#181818;stroke-width:0.8000000000000002;stroke-dasharray:2.0,2.0;" x1="368.8" x2="466" y1="332.425" y2="332.425"/><text fill="#000000" font-family="sans-serif" font-size="10.4" lengthAdjust="spacing" textLength="34.4" x="378.4" y="328.2148">content</text><path d="M474.4,315.3922 L474.4,336.9922 L563.2,336.9922 L563.2,323.3922 L555.2,315.3922 L474.4,315.3922 " fill="#FEFFDD" style="stroke:#181818;stroke-width:0.4000000000000001;"/><path d="M555.2,315.3922 L555.2,323.3922 L563.2,323.3922 L555.2,315.3922 " fill="#FEFFDD" style="stroke:#181818;stroke-width:0.4000000000000001;"/><text fill="#000000" font-family="sans-serif" font-size="10.4" lengthAdjust="spacing" textLength="72" x="479.2" y="330.6148">receives boards</text><polygon fill="#181818" points="194.4,356.6578,186.4,359.8578,194.4,363.0578,191.2,359.8578" style="stroke:#181818;stroke-width:0.8000000000000002;"/><line style="stroke:#181818;stroke-width:0.8000000000000002;" x1="189.6" x2="360" y1="359.8578" y2="359.8578"/><text fill="#000000" font-family="sans-serif" font-size="10.4" lengthAdjust="spacing" textLength="56.8" x="199.2" y="355.6477">listOfBoards</text><polygon fill="#181818" points="54.4,381.6906,46.4,384.8906,54.4,388.0906,51.2,384.8906" style="stroke:#181818;stroke-width:0.8000000000000002;"/><line style="stroke:#181818;stroke-width:0.8000000000000002;stroke-dasharray:2.0,2.0;" x1="49.6" x2="180.8" y1="384.8906" y2="384.8906"/><text fill="#000000" font-family="sans-serif" font-size="10.4" lengthAdjust="spacing" textLength="86.4" x="59.2" y="380.6805">show list of boards</text><polygon fill="#181818" points="168,406.7234,176,409.9234,168,413.1234,171.2,409.9234" style="stroke:#181818;stroke-width:0.8000000000000002;"/><line style="stroke:#181818;stroke-width:0.8000000000000002;" x1="45.6" x2="172.8" y1="409.9234" y2="409.9234"/><text fill="#000000" font-family="sans-serif" font-size="10.4" lengthAdjust="spacing" textLength="115.2" x="51.2" y="405.7133">chooses board to archive</text><polygon fill="#181818" points="347.2,431.7563,355.2,434.9563,347.2,438.1563,350.4,434.9563" style="stroke:#181818;stroke-width:0.8000000000000002;"/><line style="stroke:#181818;stroke-width:0.8000000000000002;" x1="185.6" x2="352" y1="434.9563" y2="434.9563"/><text fill="#000000" font-family="sans-serif" font-size="10.4" lengthAdjust="spacing" textLength="121.6" x="191.2" y="430.7461">archivedBoards(boardTitle)</text><polygon fill="#181818" points="453.2,456.7891,461.2,459.9891,453.2,463.1891,456.4,459.9891" style="stroke:#181818;stroke-width:0.8000000000000002;"/><line style="stroke:#181818;stroke-width:0.8000000000000002;" x1="364.8" x2="458" y1="459.9891" y2="459.9891"/><text fill="#000000" font-family="sans-serif" font-size="10.4" lengthAdjust="spacing" textLength="35.2" x="370.4" y="455.7789">create()</text><polygon fill="#181818" points="453.2,484.2219,461.2,487.4219,453.2,490.6219,456.4,487.4219" style="stroke:#181818;stroke-width:0.8000000000000002;"/><line style="stroke:#181818;stroke-width:0.8000000000000002;" x1="364.8" x2="458" y1="487.4219" y2="487.4219"/><text fill="#000000" font-family="sans-serif" font-size="10.4" lengthAdjust="spacing" textLength="50.4" x="370.4" y="483.2117">send(outS)</text><path d="M474.4,470.3891 L474.4,491.9891 L568,491.9891 L568,478.3891 L560,470.3891 L474.4,470.3891 " fill="#FEFFDD" style="stroke:#181818;stroke-width:0.4000000000000001;"/><path d="M560,470.3891 L560,478.3891 L568,478.3891 L560,470.3891 " fill="#FEFFDD" style="stroke:#181818;stroke-width:0.4000000000000001;"/><text fill="#000000" font-family="sans-serif" font-size="10.4" lengthAdjust="spacing" textLength="76.8" x="479.2" y="485.6117">sends board title</text><path d="M368.8,500.2219 L368.8,521.8219 L512.8,521.8219 L512.8,508.2219 L504.8,500.2219 L368.8,500.2219 " fill="#FEFFDD" style="stroke:#181818;stroke-width:0.4000000000000001;"/><path d="M504.8,500.2219 L504.8,508.2219 L512.8,508.2219 L504.8,500.2219 " fill="#FEFFDD" style="stroke:#181818;stroke-width:0.4000000000000001;"/><text fill="#000000" font-family="sans-serif" font-size="10.4" lengthAdjust="spacing" textLength="127.2" x="373.6" y="515.4445">check ArchiveBoardHandler</text><polygon fill="#181818" points="453.2,541.4875,461.2,544.6875,453.2,547.8875,456.4,544.6875" style="stroke:#181818;stroke-width:0.8000000000000002;"/><line style="stroke:#181818;stroke-width:0.8000000000000002;" x1="364.8" x2="458" y1="544.6875" y2="544.6875"/><text fill="#000000" font-family="sans-serif" font-size="10.4" lengthAdjust="spacing" textLength="50.4" x="370.4" y="540.4773">create(inS)</text><polygon fill="#181818" points="373.6,568.9203,365.6,572.1203,373.6,575.3203,370.4,572.1203" style="stroke:#181818;stroke-width:0.8000000000000002;"/><line style="stroke:#181818;stroke-width:0.8000000000000002;stroke-dasharray:2.0,2.0;" x1="368.8" x2="466" y1="572.1203" y2="572.1203"/><text fill="#000000" font-family="sans-serif" font-size="10.4" lengthAdjust="spacing" textLength="34.4" x="378.4" y="567.9102">content</text><path d="M474.4,555.0875 L474.4,576.6875 L604,576.6875 L604,563.0875 L596,555.0875 L474.4,555.0875 " fill="#FEFFDD" style="stroke:#181818;stroke-width:0.4000000000000001;"/><path d="M596,555.0875 L596,563.0875 L604,563.0875 L596,555.0875 " fill="#FEFFDD" style="stroke:#181818;stroke-width:0.4000000000000001;"/><text fill="#000000" font-family="sans-serif" font-size="10.4" lengthAdjust="spacing" textLength="112.8" x="479.2" y="570.3102">receives boards archived</text><polygon fill="#181818" points="194.4,596.3531,186.4,599.5531,194.4,602.7531,191.2,599.5531" style="stroke:#181818;stroke-width:0.8000000000000002;"/><line style="stroke:#181818;stroke-width:0.8000000000000002;" x1="189.6" x2="360" y1="599.5531" y2="599.5531"/><text fill="#000000" font-family="sans-serif" font-size="10.4" lengthAdjust="spacing" textLength="70.4" x="199.2" y="595.343">archivedBoards</text><polygon fill="#181818" points="54.4,635.2188,46.4,638.4188,54.4,641.6188,51.2,638.4188" style="stroke:#181818;stroke-width:0.8000000000000002;"/><line style="stroke:#181818;stroke-width:0.8000000000000002;stroke-dasharray:2.0,2.0;" x1="49.6" x2="176.8" y1="638.4188" y2="638.4188"/><text fill="#000000" font-family="sans-serif" font-size="10.4" lengthAdjust="spacing" textLength="109.6" x="59.2" y="620.3758">show list of boards user</text><text fill="#000000" font-family="sans-serif" font-size="10.4" lengthAdjust="spacing" textLength="102.4" x="59.2" y="634.2086">owns in state archived</text><polygon fill="#181818" points="347.2,660.2516,355.2,663.4516,347.2,666.6516,350.4,663.4516" style="stroke:#181818;stroke-width:0.8000000000000002;"/><line style="stroke:#181818;stroke-width:0.8000000000000002;" x1="185.6" x2="352" y1="663.4516" y2="663.4516"/><text fill="#000000" font-family="sans-serif" font-size="10.4" lengthAdjust="spacing" textLength="64" x="191.2" y="659.2414">closeSocket()</text><!--SRC=[dLJBRi8m4BpdArQSG2e_a4CbQ0_bKf0eDox6SOlLr1lP6_ZzxZeFufQqj3v4YNV6EnwFepIXX-royr1QusXHLQ02rC7uh5AUhBQLSWGBhu_sP9QeVB5RHOWT1JoW8uzbQRm0DVaoWN8pZuGQIoc7GvNnK9hiIP5fMii3vlVS17BLh0m7MJeCW3RBW0TZ62bT8DVUS6dAx9FngyqTD6yRz3IBO8VCzFRjI3aqODYYVZSaKYQ1NoTxrnOU5QcLgshQ4azyH8HrsnImhYb587zDOgzUQNH0PWgJpdtJNzf0qSAmO-NhimlFIAsrnNGsigoCo9_VivlTnbfuGebcms2qD2b0pcwvOYeRc2MWYsc0hv72FOv6loUd_gHSmKV-q_gjC3OnRI3LUMy2QCuFPt5CGmxUQCDjGvU97ZamEDbg9wEsEOZ7wzV6vMl4n5Ov7E597jcV8vuZNtpeUW-e4ibBTCKanD39149eivo4-6i6MapHA9n6xekbqjnm_AdF8m6u-UmJpwNUxqJaPF-Bn-t9-2KLFoMYCxhuKp9Ivw_UsDfUud0b3Krbxv1lBbW7WOJPYyc6vmowv70qVv_Hg_srVngsuPVyDhFi4m00]--></g></svg>