<?xml version="1.0" encoding="us-ascii" standalone="no"?><svg xmlns="http://www.w3.org/2000/svg" xmlns:xlink="http://www.w3.org/1999/xlink" contentStyleType="text/css" height="1067px" preserveAspectRatio="none" style="width:914px;height:1067px;background:#FFFFFF;" version="1.1" viewBox="0 0 914 1067" width="914px" zoomAndPan="magnify"><defs/><g><rect fill="#FFFFFF" height="872.8574" style="stroke:#181818;stroke-width:1.0;" width="10" x="47" y="93.6211"/><rect fill="#FFFFFF" height="420.7832" style="stroke:#181818;stroke-width:1.0;" width="10" x="222" y="116.9121"/><rect fill="#FFFFFF" height="397.4922" style="stroke:#181818;stroke-width:1.0;" width="10" x="222" y="568.9863"/><rect fill="#FFFFFF" height="30" style="stroke:#181818;stroke-width:1.0;" width="10" x="446" y="168.4941"/><rect fill="#FFFFFF" height="256.3281" style="stroke:#181818;stroke-width:1.0;" width="10" x="446" y="250.0762"/><rect fill="#FFFFFF" height="256.3281" style="stroke:#181818;stroke-width:1.0;" width="10" x="446" y="600.2773"/><rect fill="#FFFFFF" height="30" style="stroke:#181818;stroke-width:1.0;" width="10" x="446" y="936.4785"/><rect fill="#FFFFFF" height="193.7461" style="stroke:#181818;stroke-width:1.0;" width="10" x="861" y="281.3672"/><rect fill="#FFFFFF" height="193.7461" style="stroke:#181818;stroke-width:1.0;" width="10" x="861" y="631.5684"/><line style="stroke:#181818;stroke-width:0.5;stroke-dasharray:5.0,5.0;" x1="52" x2="52" y1="83.6211" y2="984.4785"/><line style="stroke:#181818;stroke-width:0.5;stroke-dasharray:5.0,5.0;" x1="226.5" x2="226.5" y1="83.6211" y2="984.4785"/><line style="stroke:#181818;stroke-width:0.5;stroke-dasharray:5.0,5.0;" x1="450.5" x2="450.5" y1="83.6211" y2="984.4785"/><line style="stroke:#181818;stroke-width:0.5;stroke-dasharray:5.0,5.0;" x1="866" x2="866" y1="83.6211" y2="984.4785"/><text fill="#000000" font-family="sans-serif" font-size="14" lengthAdjust="spacing" textLength="88" x="5" y="80.1074">SBPClientApp</text><ellipse cx="52" cy="13.5" fill="#E2E2F0" rx="8" ry="8" style="stroke:#181818;stroke-width:0.5;"/><path d="M52,21.5 L52,48.5 M39,29.5 L65,29.5 M52,48.5 L39,63.5 M52,48.5 L65,63.5 " fill="none" style="stroke:#181818;stroke-width:0.5;"/><text fill="#000000" font-family="sans-serif" font-size="14" lengthAdjust="spacing" textLength="88" x="5" y="998.5859">SBPClientApp</text><ellipse cx="52" cy="1010.5996" fill="#E2E2F0" rx="8" ry="8" style="stroke:#181818;stroke-width:0.5;"/><path d="M52,1018.5996 L52,1045.5996 M39,1026.5996 L65,1026.5996 M52,1045.5996 L39,1060.5996 M52,1045.5996 L65,1060.5996 " fill="none" style="stroke:#181818;stroke-width:0.5;"/><rect fill="#E2E2F0" height="32.6211" rx="2.5" ry="2.5" style="stroke:#181818;stroke-width:0.5;" width="111" x="171.5" y="50"/><text fill="#000000" font-family="sans-serif" font-size="14" lengthAdjust="spacing" textLength="97" x="178.5" y="72.1074">ArchiveBoardUI</text><rect fill="#E2E2F0" height="32.6211" rx="2.5" ry="2.5" style="stroke:#181818;stroke-width:0.5;" width="111" x="171.5" y="983.4785"/><text fill="#000000" font-family="sans-serif" font-size="14" lengthAdjust="spacing" textLength="97" x="178.5" y="1005.5859">ArchiveBoardUI</text><rect fill="#E2E2F0" height="32.6211" rx="2.5" ry="2.5" style="stroke:#181818;stroke-width:0.5;" width="161" x="370.5" y="50"/><text fill="#000000" font-family="sans-serif" font-size="14" lengthAdjust="spacing" textLength="147" x="377.5" y="72.1074">ArchiveBoardController</text><rect fill="#E2E2F0" height="32.6211" rx="2.5" ry="2.5" style="stroke:#181818;stroke-width:0.5;" width="161" x="370.5" y="983.4785"/><text fill="#000000" font-family="sans-serif" font-size="14" lengthAdjust="spacing" textLength="147" x="377.5" y="1005.5859">ArchiveBoardController</text><rect fill="#E2E2F0" height="32.6211" rx="2.5" ry="2.5" style="stroke:#181818;stroke-width:0.5;" width="84" x="824" y="50"/><text fill="#000000" font-family="sans-serif" font-size="14" lengthAdjust="spacing" textLength="70" x="831" y="72.1074">SBProtocol</text><rect fill="#E2E2F0" height="32.6211" rx="2.5" ry="2.5" style="stroke:#181818;stroke-width:0.5;" width="84" x="824" y="983.4785"/><text fill="#000000" font-family="sans-serif" font-size="14" lengthAdjust="spacing" textLength="70" x="831" y="1005.5859">SBProtocol</text><rect fill="#FFFFFF" height="872.8574" style="stroke:#181818;stroke-width:1.0;" width="10" x="47" y="93.6211"/><rect fill="#FFFFFF" height="420.7832" style="stroke:#181818;stroke-width:1.0;" width="10" x="222" y="116.9121"/><rect fill="#FFFFFF" height="397.4922" style="stroke:#181818;stroke-width:1.0;" width="10" x="222" y="568.9863"/><rect fill="#FFFFFF" height="30" style="stroke:#181818;stroke-width:1.0;" width="10" x="446" y="168.4941"/><rect fill="#FFFFFF" height="256.3281" style="stroke:#181818;stroke-width:1.0;" width="10" x="446" y="250.0762"/><rect fill="#FFFFFF" height="256.3281" style="stroke:#181818;stroke-width:1.0;" width="10" x="446" y="600.2773"/><rect fill="#FFFFFF" height="30" style="stroke:#181818;stroke-width:1.0;" width="10" x="446" y="936.4785"/><rect fill="#FFFFFF" height="193.7461" style="stroke:#181818;stroke-width:1.0;" width="10" x="861" y="281.3672"/><rect fill="#FFFFFF" height="193.7461" style="stroke:#181818;stroke-width:1.0;" width="10" x="861" y="631.5684"/><polygon fill="#181818" points="210,112.9121,220,116.9121,210,120.9121,214,116.9121" style="stroke:#181818;stroke-width:1.0;"/><line style="stroke:#181818;stroke-width:1.0;" x1="57" x2="216" y1="116.9121" y2="116.9121"/><text fill="#000000" font-family="sans-serif" font-size="13" lengthAdjust="spacing" textLength="83" x="64" y="111.6494">archive boards</text><polygon fill="#181818" points="434,164.4941,444,168.4941,434,172.4941,438,168.4941" style="stroke:#181818;stroke-width:1.0;"/><line style="stroke:#181818;stroke-width:1.0;" x1="232" x2="440" y1="168.4941" y2="168.4941"/><text fill="#000000" font-family="sans-serif" font-size="13" lengthAdjust="spacing" textLength="156" x="239" y="163.2314">create(serverIP, serverPort)</text><path d="M461,129.9121 L461,190.9121 L689,190.9121 L689,139.9121 L679,129.9121 L461,129.9121 " fill="#FEFFDD" style="stroke:#181818;stroke-width:0.5;"/><path d="M679,129.9121 L679,139.9121 L689,139.9121 L679,129.9121 " fill="#FEFFDD" style="stroke:#181818;stroke-width:0.5;"/><text fill="#000000" font-family="sans-serif" font-size="13" lengthAdjust="spacing" textLength="141" x="467" y="148.9404">create Socket as "sock"</text><text fill="#000000" font-family="sans-serif" font-size="13" lengthAdjust="spacing" textLength="188" x="467" y="166.2314">create DataInputStream as "inS"</text><text fill="#000000" font-family="sans-serif" font-size="13" lengthAdjust="spacing" textLength="207" x="467" y="183.5225">create DataOutputStream as "outS"</text><polygon fill="#181818" points="434,246.0762,444,250.0762,434,254.0762,438,250.0762" style="stroke:#181818;stroke-width:1.0;"/><line style="stroke:#181818;stroke-width:1.0;" x1="232" x2="440" y1="250.0762" y2="250.0762"/><text fill="#000000" font-family="sans-serif" font-size="13" lengthAdjust="spacing" textLength="195" x="239" y="244.8135">listBoardsUserOwnsNotArchived()</text><polygon fill="#181818" points="849,277.3672,859,281.3672,849,285.3672,853,281.3672" style="stroke:#181818;stroke-width:1.0;"/><line style="stroke:#181818;stroke-width:1.0;" x1="456" x2="855" y1="281.3672" y2="281.3672"/><text fill="#000000" font-family="sans-serif" font-size="13" lengthAdjust="spacing" textLength="44" x="463" y="276.1045">create()</text><polygon fill="#181818" points="849,308.6582,859,312.6582,849,316.6582,853,312.6582" style="stroke:#181818;stroke-width:1.0;"/><line style="stroke:#181818;stroke-width:1.0;" x1="456" x2="855" y1="312.6582" y2="312.6582"/><text fill="#000000" font-family="sans-serif" font-size="13" lengthAdjust="spacing" textLength="381" x="463" y="307.3955">setCode(SBProtocol.GET_BOARDS_OWNED_NOT_ARCHIVED);</text><polygon fill="#181818" points="849,339.9492,859,343.9492,849,347.9492,853,343.9492" style="stroke:#181818;stroke-width:1.0;"/><line style="stroke:#181818;stroke-width:1.0;" x1="456" x2="855" y1="343.9492" y2="343.9492"/><text fill="#000000" font-family="sans-serif" font-size="13" lengthAdjust="spacing" textLength="67" x="463" y="338.6865">send(outS);</text><path d="M461,356.9492 L461,383.9492 L641,383.9492 L641,366.9492 L631,356.9492 L461,356.9492 " fill="#FEFFDD" style="stroke:#181818;stroke-width:0.5;"/><path d="M631,356.9492 L631,366.9492 L641,366.9492 L631,356.9492 " fill="#FEFFDD" style="stroke:#181818;stroke-width:0.5;"/><text fill="#000000" font-family="sans-serif" font-size="13" lengthAdjust="spacing" textLength="159" x="467" y="375.9775">check ArchiveBoardHandler</text><polygon fill="#181818" points="849,408.5313,859,412.5313,849,416.5313,853,412.5313" style="stroke:#181818;stroke-width:1.0;"/><line style="stroke:#181818;stroke-width:1.0;" x1="456" x2="855" y1="412.5313" y2="412.5313"/><text fill="#000000" font-family="sans-serif" font-size="13" lengthAdjust="spacing" textLength="138" x="463" y="407.2686">getBoards = create(inS)</text><polygon fill="#181818" points="849,439.8223,859,443.8223,849,447.8223,853,443.8223" style="stroke:#181818;stroke-width:1.0;"/><line style="stroke:#181818;stroke-width:1.0;" x1="456" x2="855" y1="443.8223" y2="443.8223"/><text fill="#000000" font-family="sans-serif" font-size="13" lengthAdjust="spacing" textLength="241" x="463" y="438.5596">getBoards.getContentAsString().split("\0")</text><polygon fill="#181818" points="467,471.1133,457,475.1133,467,479.1133,463,475.1133" style="stroke:#181818;stroke-width:1.0;"/><line style="stroke:#181818;stroke-width:1.0;stroke-dasharray:2.0,2.0;" x1="461" x2="865" y1="475.1133" y2="475.1133"/><text fill="#000000" font-family="sans-serif" font-size="13" lengthAdjust="spacing" textLength="43" x="473" y="469.8506">content</text><polygon fill="#181818" points="243,502.4043,233,506.4043,243,510.4043,239,506.4043" style="stroke:#181818;stroke-width:1.0;"/><line style="stroke:#181818;stroke-width:1.0;" x1="237" x2="450" y1="506.4043" y2="506.4043"/><text fill="#000000" font-family="sans-serif" font-size="13" lengthAdjust="spacing" textLength="71" x="249" y="501.1416">listOfBoards</text><polygon fill="#181818" points="68,533.6953,58,537.6953,68,541.6953,64,537.6953" style="stroke:#181818;stroke-width:1.0;"/><line style="stroke:#181818;stroke-width:1.0;stroke-dasharray:2.0,2.0;" x1="62" x2="226" y1="537.6953" y2="537.6953"/><text fill="#000000" font-family="sans-serif" font-size="13" lengthAdjust="spacing" textLength="108" x="74" y="532.4326">show list of boards</text><polygon fill="#181818" points="210,564.9863,220,568.9863,210,572.9863,214,568.9863" style="stroke:#181818;stroke-width:1.0;"/><line style="stroke:#181818;stroke-width:1.0;" x1="57" x2="216" y1="568.9863" y2="568.9863"/><text fill="#000000" font-family="sans-serif" font-size="13" lengthAdjust="spacing" textLength="144" x="64" y="563.7236">chooses board to archive</text><polygon fill="#181818" points="434,596.2773,444,600.2773,434,604.2773,438,600.2773" style="stroke:#181818;stroke-width:1.0;"/><line style="stroke:#181818;stroke-width:1.0;" x1="232" x2="440" y1="600.2773" y2="600.2773"/><text fill="#000000" font-family="sans-serif" font-size="13" lengthAdjust="spacing" textLength="152" x="239" y="595.0146">archivedBoards(boardTitle)</text><polygon fill="#181818" points="849,627.5684,859,631.5684,849,635.5684,853,631.5684" style="stroke:#181818;stroke-width:1.0;"/><line style="stroke:#181818;stroke-width:1.0;" x1="456" x2="855" y1="631.5684" y2="631.5684"/><text fill="#000000" font-family="sans-serif" font-size="13" lengthAdjust="spacing" textLength="44" x="463" y="626.3057">create()</text><polygon fill="#181818" points="849,658.8594,859,662.8594,849,666.8594,853,662.8594" style="stroke:#181818;stroke-width:1.0;"/><line style="stroke:#181818;stroke-width:1.0;" x1="456" x2="855" y1="662.8594" y2="662.8594"/><text fill="#000000" font-family="sans-serif" font-size="13" lengthAdjust="spacing" textLength="191" x="463" y="657.5967">setContentFromString(boardTitle)</text><polygon fill="#181818" points="849,690.1504,859,694.1504,849,698.1504,853,694.1504" style="stroke:#181818;stroke-width:1.0;"/><line style="stroke:#181818;stroke-width:1.0;" x1="456" x2="855" y1="694.1504" y2="694.1504"/><text fill="#000000" font-family="sans-serif" font-size="13" lengthAdjust="spacing" textLength="63" x="463" y="688.8877">send(outS)</text><path d="M461,707.1504 L461,734.1504 L641,734.1504 L641,717.1504 L631,707.1504 L461,707.1504 " fill="#FEFFDD" style="stroke:#181818;stroke-width:0.5;"/><path d="M631,707.1504 L631,717.1504 L641,717.1504 L631,707.1504 " fill="#FEFFDD" style="stroke:#181818;stroke-width:0.5;"/><text fill="#000000" font-family="sans-serif" font-size="13" lengthAdjust="spacing" textLength="159" x="467" y="726.1787">check ArchiveBoardHandler</text><polygon fill="#181818" points="849,758.7324,859,762.7324,849,766.7324,853,762.7324" style="stroke:#181818;stroke-width:1.0;"/><line style="stroke:#181818;stroke-width:1.0;" x1="456" x2="855" y1="762.7324" y2="762.7324"/><text fill="#000000" font-family="sans-serif" font-size="13" lengthAdjust="spacing" textLength="138" x="463" y="757.4697">getBoards = create(inS)</text><polygon fill="#181818" points="849,790.0234,859,794.0234,849,798.0234,853,794.0234" style="stroke:#181818;stroke-width:1.0;"/><line style="stroke:#181818;stroke-width:1.0;" x1="456" x2="855" y1="794.0234" y2="794.0234"/><text fill="#000000" font-family="sans-serif" font-size="13" lengthAdjust="spacing" textLength="241" x="463" y="788.7607">getBoards.getContentAsString().split("\0")</text><polygon fill="#181818" points="467,821.3145,457,825.3145,467,829.3145,463,825.3145" style="stroke:#181818;stroke-width:1.0;"/><line style="stroke:#181818;stroke-width:1.0;stroke-dasharray:2.0,2.0;" x1="461" x2="865" y1="825.3145" y2="825.3145"/><text fill="#000000" font-family="sans-serif" font-size="13" lengthAdjust="spacing" textLength="43" x="473" y="820.0518">content</text><polygon fill="#181818" points="243,852.6055,233,856.6055,243,860.6055,239,856.6055" style="stroke:#181818;stroke-width:1.0;"/><line style="stroke:#181818;stroke-width:1.0;" x1="237" x2="450" y1="856.6055" y2="856.6055"/><text fill="#000000" font-family="sans-serif" font-size="13" lengthAdjust="spacing" textLength="88" x="249" y="851.3428">archivedBoards</text><polygon fill="#181818" points="68,901.1875,58,905.1875,68,909.1875,64,905.1875" style="stroke:#181818;stroke-width:1.0;"/><line style="stroke:#181818;stroke-width:1.0;stroke-dasharray:2.0,2.0;" x1="62" x2="221" y1="905.1875" y2="905.1875"/><text fill="#000000" font-family="sans-serif" font-size="13" lengthAdjust="spacing" textLength="137" x="74" y="882.6338">show list of boards user</text><text fill="#000000" font-family="sans-serif" font-size="13" lengthAdjust="spacing" textLength="128" x="74" y="899.9248">owns in state archived</text><polygon fill="#181818" points="434,932.4785,444,936.4785,434,940.4785,438,936.4785" style="stroke:#181818;stroke-width:1.0;"/><line style="stroke:#181818;stroke-width:1.0;" x1="232" x2="440" y1="936.4785" y2="936.4785"/><text fill="#000000" font-family="sans-serif" font-size="13" lengthAdjust="spacing" textLength="80" x="239" y="931.2158">closeSocket()</text><!--SRC=[fLHDR-8m4BtdLumu1Mb1UwPg9RvsouMWXkvUa93hk60rjIDxe7z_PvnGOXOGs_KXIkptPYPltbX8j0xoqM9SQcLmM5KWFEoySaab76gfAs4GXavkzLwDh735yon0z4N0s1fqjYoLOw14LqPGIkOiMcbBFlOlLK9BIDHxWQfEpG_eFL0I68WwChnmQDy2wYG1MeGX96U1WNIAZb9YxvMRBRv1_RQm3hi1R2mndTviSG0r678htnHoAHrFhvsLQGuc0iNCL3lCaJRU0qARF0PaEumHbhuw8TTdfK41tYbKlFTN_QNs62JqprHvzc7yt68ZRP5sBuJb5VYz1rBpy6CDFAAmsD1Q3OltOK1YuTWMAZqsgFzpkboFik7J95zdl-VJoNgUBTV3f_7ZxDTqqhsx6imKAOjnWZfs0Enhu531MoNV8Wiz2bEGVv8h2JQgaGhk3tzCtUdUmkXl-4yDik4zzKwRJThj-whKc7PMtpjn42RtFbi4iYOUIsjrDPZvDFbE3u0RcxtMsSyHerwo8vZ7Gq12Rkr7uBDUpH0aBIhFmN5UM4nhlV8r5D12Cq3Hv9mQhy4KTOLfu2urbke6ppNgtkQwCuuBSlvmzhtfn6doQzvAlcQhhpdglzrqmKd_OgIuKMTlbPq-kkUCUUgJbR5qku0su96PXxZafPOjG9RafVg6l7ZzdEQFlTd-ugizIVu0]--></g></svg>