<?xml version="1.0" encoding="us-ascii" standalone="no"?><svg xmlns="http://www.w3.org/2000/svg" xmlns:xlink="http://www.w3.org/1999/xlink" contentStyleType="text/css" height="802.2px" preserveAspectRatio="none" style="width:864px;height:802px;background:#FFFFFF;" version="1.1" viewBox="0 0 864 802" width="864px" zoomAndPan="magnify"><defs/><g><rect fill="#FFFFFF" height="690.9621" style="stroke:#181818;stroke-width:0.6;" width="6" x="10.5" y="56.1727"/><rect fill="#FFFFFF" height="344.7938" style="stroke:#181818;stroke-width:0.6;" width="6" x="115.5" y="70.1473"/><rect fill="#FFFFFF" height="308.0191" style="stroke:#181818;stroke-width:0.6;" width="6" x="115.5" y="433.7156"/><rect fill="#FFFFFF" height="18" style="stroke:#181818;stroke-width:0.6;" width="6" x="249.9" y="101.0965"/><rect fill="#FFFFFF" height="246.1207" style="stroke:#181818;stroke-width:0.6;" width="6" x="249.9" y="150.0457"/><rect fill="#FFFFFF" height="260.0953" style="stroke:#181818;stroke-width:0.6;" width="6" x="249.9" y="452.4902"/><rect fill="#FFFFFF" height="194.5969" style="stroke:#181818;stroke-width:0.6;" width="6" x="391.5" y="180.9949"/><rect fill="#FFFFFF" height="213.7588" style="stroke:#181818;stroke-width:0.6;" width="6" x="391.5" y="478.2521"/><rect fill="#FFFFFF" height="18" style="stroke:#181818;stroke-width:0.6;" width="6" x="500.1" y="211.9441"/><rect fill="#FFFFFF" height="18" style="stroke:#181818;stroke-width:0.6;" width="6" x="563.4" y="248.7188"/><rect fill="#FFFFFF" height="62.5365" style="stroke:#181818;stroke-width:0.6;" width="6" x="637.2" y="292.4807"/><rect fill="#FFFFFF" height="56.3238" style="stroke:#181818;stroke-width:0.6;" width="6" x="637.2" y="615.1125"/><rect fill="#FFFFFF" height="18" style="stroke:#181818;stroke-width:0.6;" width="6" x="786.6" y="318.2426"/><rect fill="#FFFFFF" height="18.7746" style="stroke:#181818;stroke-width:0.6;" width="6" x="786.6" y="504.0141"/><rect fill="#FFFFFF" height="18" style="stroke:#181818;stroke-width:0.6;" width="6" x="786.6" y="578.3379"/><rect fill="#FFFFFF" height="18.7746" style="stroke:#181818;stroke-width:0.6;" width="6" x="786.6" y="633.8871"/><rect fill="#FFFFFF" height="18" style="stroke:#181818;stroke-width:0.6;" width="6" x="841.8" y="541.5633"/><line style="stroke:#181818;stroke-width:0.3;stroke-dasharray:5.0,5.0;" x1="13.2" x2="13.2" y1="50.1727" y2="752.5348"/><line style="stroke:#181818;stroke-width:0.3;stroke-dasharray:5.0,5.0;" x1="118.2" x2="118.2" y1="50.1727" y2="752.5348"/><line style="stroke:#181818;stroke-width:0.3;stroke-dasharray:5.0,5.0;" x1="252.6" x2="252.6" y1="50.1727" y2="752.5348"/><line style="stroke:#181818;stroke-width:0.3;stroke-dasharray:5.0,5.0;" x1="394.5" x2="394.5" y1="50.1727" y2="752.5348"/><line style="stroke:#181818;stroke-width:0.3;stroke-dasharray:5.0,5.0;" x1="503.1" x2="503.1" y1="50.1727" y2="752.5348"/><line style="stroke:#181818;stroke-width:0.3;stroke-dasharray:5.0,5.0;" x1="566.1" x2="566.1" y1="50.1727" y2="752.5348"/><line style="stroke:#181818;stroke-width:0.3;stroke-dasharray:5.0,5.0;" x1="639.9" x2="639.9" y1="50.1727" y2="752.5348"/><line style="stroke:#181818;stroke-width:0.3;stroke-dasharray:5.0,5.0;" x1="789.6" x2="789.6" y1="50.1727" y2="752.5348"/><line style="stroke:#181818;stroke-width:0.3;stroke-dasharray:5.0,5.0;" x1="844.8" x2="844.8" y1="50.1727" y2="752.5348"/><text fill="#000000" font-family="sans-serif" font-size="8.4" lengthAdjust="spacing" textLength="17.4" x="3" y="48.0645">User</text><ellipse cx="13.5" cy="8.1" fill="#E2E2F0" rx="4.8" ry="4.8" style="stroke:#181818;stroke-width:0.3;"/><path d="M13.5,12.9 L13.5,29.1 M5.7,17.7 L21.3,17.7 M13.5,29.1 L5.7,38.1 M13.5,29.1 L21.3,38.1 " fill="none" style="stroke:#181818;stroke-width:0.3;"/><text fill="#000000" font-family="sans-serif" font-size="8.4" lengthAdjust="spacing" textLength="17.4" x="3" y="760.9992">User</text><ellipse cx="13.5" cy="768.2074" fill="#E2E2F0" rx="4.8" ry="4.8" style="stroke:#181818;stroke-width:0.3;"/><path d="M13.5,773.0074 L13.5,789.2074 M5.7,777.8074 L21.3,777.8074 M13.5,789.2074 L5.7,798.2074 M13.5,789.2074 L21.3,798.2074 " fill="none" style="stroke:#181818;stroke-width:0.3;"/><rect fill="#E2E2F0" height="19.5727" rx="1.5" ry="1.5" style="stroke:#181818;stroke-width:0.3;" width="66.6" x="85.2" y="30"/><text fill="#000000" font-family="sans-serif" font-size="8.4" lengthAdjust="spacing" textLength="58.2" x="89.4" y="43.2645">ArchiveBoardUI</text><rect fill="#E2E2F0" height="19.5727" rx="1.5" ry="1.5" style="stroke:#181818;stroke-width:0.3;" width="66.6" x="85.2" y="751.9348"/><text fill="#000000" font-family="sans-serif" font-size="8.4" lengthAdjust="spacing" textLength="58.2" x="89.4" y="765.1992">ArchiveBoardUI</text><rect fill="#E2E2F0" height="19.5727" rx="1.5" ry="1.5" style="stroke:#181818;stroke-width:0.3;" width="96.6" x="204.6" y="30"/><text fill="#000000" font-family="sans-serif" font-size="8.4" lengthAdjust="spacing" textLength="88.2" x="208.8" y="43.2645">ArchiveBoardController</text><rect fill="#E2E2F0" height="19.5727" rx="1.5" ry="1.5" style="stroke:#181818;stroke-width:0.3;" width="96.6" x="204.6" y="751.9348"/><text fill="#000000" font-family="sans-serif" font-size="8.4" lengthAdjust="spacing" textLength="88.2" x="208.8" y="765.1992">ArchiveBoardController</text><rect fill="#E2E2F0" height="19.5727" rx="1.5" ry="1.5" style="stroke:#181818;stroke-width:0.3;" width="88.8" x="350.1" y="30"/><text fill="#000000" font-family="sans-serif" font-size="8.4" lengthAdjust="spacing" textLength="80.4" x="354.3" y="43.2645">ArchiveBoardHandler</text><rect fill="#E2E2F0" height="19.5727" rx="1.5" ry="1.5" style="stroke:#181818;stroke-width:0.3;" width="88.8" x="350.1" y="751.9348"/><text fill="#000000" font-family="sans-serif" font-size="8.4" lengthAdjust="spacing" textLength="80.4" x="354.3" y="765.1992">ArchiveBoardHandler</text><rect fill="#E2E2F0" height="19.5727" rx="1.5" ry="1.5" style="stroke:#181818;stroke-width:0.3;" width="61.2" x="472.5" y="30"/><text fill="#000000" font-family="sans-serif" font-size="8.4" lengthAdjust="spacing" textLength="52.8" x="476.7" y="43.2645">MenuRequest</text><rect fill="#E2E2F0" height="19.5727" rx="1.5" ry="1.5" style="stroke:#181818;stroke-width:0.3;" width="61.2" x="472.5" y="751.9348"/><text fill="#000000" font-family="sans-serif" font-size="8.4" lengthAdjust="spacing" textLength="52.8" x="476.7" y="765.1992">MenuRequest</text><rect fill="#E2E2F0" height="19.5727" rx="1.5" ry="1.5" style="stroke:#181818;stroke-width:0.3;" width="53.4" x="539.7" y="30"/><text fill="#000000" font-family="sans-serif" font-size="8.4" lengthAdjust="spacing" textLength="45" x="543.9" y="43.2645">SystemUser</text><rect fill="#E2E2F0" height="19.5727" rx="1.5" ry="1.5" style="stroke:#181818;stroke-width:0.3;" width="53.4" x="539.7" y="751.9348"/><text fill="#000000" font-family="sans-serif" font-size="8.4" lengthAdjust="spacing" textLength="45" x="543.9" y="765.1992">SystemUser</text><rect fill="#E2E2F0" height="19.5727" rx="1.5" ry="1.5" style="stroke:#181818;stroke-width:0.3;" width="82.2" x="599.1" y="30"/><text fill="#000000" font-family="sans-serif" font-size="8.4" lengthAdjust="spacing" textLength="73.8" x="603.3" y="43.2645">ShareBoardService</text><rect fill="#E2E2F0" height="19.5727" rx="1.5" ry="1.5" style="stroke:#181818;stroke-width:0.3;" width="82.2" x="599.1" y="751.9348"/><text fill="#000000" font-family="sans-serif" font-size="8.4" lengthAdjust="spacing" textLength="73.8" x="603.3" y="765.1992">ShareBoardService</text><text fill="#000000" font-family="sans-serif" font-size="8.4" lengthAdjust="spacing" textLength="63.6" x="756" y="48.0645">BoardRepository</text><path d="M778.8,17.4 C778.8,11.4 789.6,11.4 789.6,11.4 C789.6,11.4 800.4,11.4 800.4,17.4 L800.4,33 C800.4,39 789.6,39 789.6,39 C789.6,39 778.8,39 778.8,33 L778.8,17.4 " fill="#E2E2F0" style="stroke:#181818;stroke-width:0.8999999999999999;"/><path d="M778.8,17.4 C778.8,23.4 789.6,23.4 789.6,23.4 C789.6,23.4 800.4,23.4 800.4,17.4 " fill="none" style="stroke:#181818;stroke-width:0.8999999999999999;"/><text fill="#000000" font-family="sans-serif" font-size="8.4" lengthAdjust="spacing" textLength="63.6" x="756" y="760.9992">BoardRepository</text><path d="M778.8,769.1074 C778.8,763.1074 789.6,763.1074 789.6,763.1074 C789.6,763.1074 800.4,763.1074 800.4,769.1074 L800.4,784.7074 C800.4,790.7074 789.6,790.7074 789.6,790.7074 C789.6,790.7074 778.8,790.7074 778.8,784.7074 L778.8,769.1074 " fill="#E2E2F0" style="stroke:#181818;stroke-width:0.8999999999999999;"/><path d="M778.8,769.1074 C778.8,775.1074 789.6,775.1074 789.6,775.1074 C789.6,775.1074 800.4,775.1074 800.4,769.1074 " fill="none" style="stroke:#181818;stroke-width:0.8999999999999999;"/><rect fill="#E2E2F0" height="19.5727" rx="1.5" ry="1.5" style="stroke:#181818;stroke-width:0.3;" width="31.2" x="829.2" y="30"/><text fill="#000000" font-family="sans-serif" font-size="8.4" lengthAdjust="spacing" textLength="22.8" x="833.4" y="43.2645">Board</text><rect fill="#E2E2F0" height="19.5727" rx="1.5" ry="1.5" style="stroke:#181818;stroke-width:0.3;" width="31.2" x="829.2" y="751.9348"/><text fill="#000000" font-family="sans-serif" font-size="8.4" lengthAdjust="spacing" textLength="22.8" x="833.4" y="765.1992">Board</text><rect fill="#FFFFFF" height="690.9621" style="stroke:#181818;stroke-width:0.6;" width="6" x="10.5" y="56.1727"/><rect fill="#FFFFFF" height="344.7938" style="stroke:#181818;stroke-width:0.6;" width="6" x="115.5" y="70.1473"/><rect fill="#FFFFFF" height="308.0191" style="stroke:#181818;stroke-width:0.6;" width="6" x="115.5" y="433.7156"/><rect fill="#FFFFFF" height="18" style="stroke:#181818;stroke-width:0.6;" width="6" x="249.9" y="101.0965"/><rect fill="#FFFFFF" height="246.1207" style="stroke:#181818;stroke-width:0.6;" width="6" x="249.9" y="150.0457"/><rect fill="#FFFFFF" height="260.0953" style="stroke:#181818;stroke-width:0.6;" width="6" x="249.9" y="452.4902"/><rect fill="#FFFFFF" height="194.5969" style="stroke:#181818;stroke-width:0.6;" width="6" x="391.5" y="180.9949"/><rect fill="#FFFFFF" height="213.7588" style="stroke:#181818;stroke-width:0.6;" width="6" x="391.5" y="478.2521"/><rect fill="#FFFFFF" height="18" style="stroke:#181818;stroke-width:0.6;" width="6" x="500.1" y="211.9441"/><rect fill="#FFFFFF" height="18" style="stroke:#181818;stroke-width:0.6;" width="6" x="563.4" y="248.7188"/><rect fill="#FFFFFF" height="62.5365" style="stroke:#181818;stroke-width:0.6;" width="6" x="637.2" y="292.4807"/><rect fill="#FFFFFF" height="56.3238" style="stroke:#181818;stroke-width:0.6;" width="6" x="637.2" y="615.1125"/><rect fill="#FFFFFF" height="18" style="stroke:#181818;stroke-width:0.6;" width="6" x="786.6" y="318.2426"/><rect fill="#FFFFFF" height="18.7746" style="stroke:#181818;stroke-width:0.6;" width="6" x="786.6" y="504.0141"/><rect fill="#FFFFFF" height="18" style="stroke:#181818;stroke-width:0.6;" width="6" x="786.6" y="578.3379"/><rect fill="#FFFFFF" height="18.7746" style="stroke:#181818;stroke-width:0.6;" width="6" x="786.6" y="633.8871"/><rect fill="#FFFFFF" height="18" style="stroke:#181818;stroke-width:0.6;" width="6" x="841.8" y="541.5633"/><polygon fill="#181818" points="108.3,67.7473,114.3,70.1473,108.3,72.5473,110.7,70.1473" style="stroke:#181818;stroke-width:0.6;"/><line style="stroke:#181818;stroke-width:0.6;" x1="16.5" x2="111.9" y1="70.1473" y2="70.1473"/><text fill="#000000" font-family="sans-serif" font-size="7.8" lengthAdjust="spacing" textLength="17.4" x="20.7" y="66.9896">enter</text><polygon fill="#181818" points="242.7,98.6965,248.7,101.0965,242.7,103.4965,245.1,101.0965" style="stroke:#181818;stroke-width:0.6;"/><line style="stroke:#181818;stroke-width:0.6;" x1="121.5" x2="246.3" y1="101.0965" y2="101.0965"/><text fill="#000000" font-family="sans-serif" font-size="7.8" lengthAdjust="spacing" textLength="93.6" x="125.7" y="97.9389">create(serverIP, serverPort)</text><path d="M258.6,77.9473 L258.6,114.5473 L360,114.5473 L360,83.9473 L354,77.9473 L258.6,77.9473 " fill="#FEFFDD" style="stroke:#181818;stroke-width:0.3;"/><path d="M354,77.9473 L354,83.9473 L360,83.9473 L354,77.9473 " fill="#FEFFDD" style="stroke:#181818;stroke-width:0.3;"/><text fill="#000000" font-family="sans-serif" font-size="7.8" lengthAdjust="spacing" textLength="48.6" x="262.2" y="89.3643">create Socket</text><text fill="#000000" font-family="sans-serif" font-size="7.8" lengthAdjust="spacing" textLength="82.2" x="262.2" y="99.7389">create DataInputStream</text><text fill="#000000" font-family="sans-serif" font-size="7.8" lengthAdjust="spacing" textLength="88.8" x="262.2" y="110.1135">create DataOutputStream</text><polygon fill="#181818" points="242.7,147.6457,248.7,150.0457,242.7,152.4457,245.1,150.0457" style="stroke:#181818;stroke-width:0.6;"/><line style="stroke:#181818;stroke-width:0.6;" x1="121.5" x2="246.3" y1="150.0457" y2="150.0457"/><text fill="#000000" font-family="sans-serif" font-size="7.8" lengthAdjust="spacing" textLength="117" x="125.7" y="146.8881">listBoardsUserOwnsNotArchived()</text><polygon fill="#181818" points="384.3,178.5949,390.3,180.9949,384.3,183.3949,386.7,180.9949" style="stroke:#181818;stroke-width:0.6;"/><line style="stroke:#181818;stroke-width:0.6;" x1="255.9" x2="387.9" y1="180.9949" y2="180.9949"/><text fill="#000000" font-family="sans-serif" font-size="7.8" lengthAdjust="spacing" textLength="21.6" x="260.1" y="177.8373">create</text><path d="M400.2,157.8457 L400.2,194.4457 L556.8,194.4457 L556.8,163.8457 L550.8,157.8457 L400.2,157.8457 " fill="#FEFFDD" style="stroke:#181818;stroke-width:0.3;"/><path d="M550.8,157.8457 L550.8,163.8457 L556.8,163.8457 L550.8,157.8457 " fill="#FEFFDD" style="stroke:#181818;stroke-width:0.3;"/><text fill="#000000" font-family="sans-serif" font-size="7.8" lengthAdjust="spacing" textLength="144" x="403.8" y="169.2627">Creation of ArchiveBoardHandler in Server</text><text fill="#000000" font-family="sans-serif" font-size="7.8" lengthAdjust="spacing" textLength="119.4" x="403.8" y="179.6373">Communication between controller</text><text fill="#000000" font-family="sans-serif" font-size="7.8" lengthAdjust="spacing" textLength="91.2" x="403.8" y="190.0119">and handler through server</text><polygon fill="#181818" points="492.9,209.5441,498.9,211.9441,492.9,214.3441,495.3,211.9441" style="stroke:#181818;stroke-width:0.6;"/><line style="stroke:#181818;stroke-width:0.6;" x1="397.5" x2="496.5" y1="211.9441" y2="211.9441"/><text fill="#000000" font-family="sans-serif" font-size="7.8" lengthAdjust="spacing" textLength="91.2" x="401.7" y="208.7865">clientBysock(InetAddress)</text><polygon fill="#181818" points="556.2,246.3188,562.2,248.7188,556.2,251.1187,558.6,248.7188" style="stroke:#181818;stroke-width:0.6;"/><line style="stroke:#181818;stroke-width:0.6;" x1="397.5" x2="559.8" y1="248.7188" y2="248.7188"/><text fill="#000000" font-family="sans-serif" font-size="7.8" lengthAdjust="spacing" textLength="63" x="401.7" y="245.5611">getUserLoggedIn()</text><polygon fill="#181818" points="630,290.0807,636,292.4807,630,294.8807,632.4,292.4807" style="stroke:#181818;stroke-width:0.6;"/><line style="stroke:#181818;stroke-width:0.6;" x1="397.5" x2="633.6" y1="292.4807" y2="292.4807"/><text fill="#000000" font-family="sans-serif" font-size="7.8" lengthAdjust="spacing" textLength="137.4" x="401.7" y="289.323">listBoardsUserOwnsNotArchived(owner)</text><path d="M646.2,274.5188 L646.2,300.9188 L774.6,300.9188 L774.6,280.5188 L768.6,274.5188 L646.2,274.5188 " fill="#FEFFDD" style="stroke:#181818;stroke-width:0.3;"/><path d="M768.6,274.5188 L768.6,280.5188 L774.6,280.5188 L768.6,274.5188 " fill="#FEFFDD" style="stroke:#181818;stroke-width:0.3;"/><text fill="#000000" font-family="sans-serif" font-size="7.8" lengthAdjust="spacing" textLength="96" x="649.8" y="285.9357">repositories are retrieved via</text><text fill="#000000" font-family="sans-serif" font-size="7.8" lengthAdjust="spacing" textLength="115.8" x="649.8" y="296.3104">PersistenceContext.repositories()</text><polygon fill="#181818" points="779.4,315.8426,785.4,318.2426,779.4,320.6426,781.8,318.2426" style="stroke:#181818;stroke-width:0.6;"/><line style="stroke:#181818;stroke-width:0.6;" x1="643.2" x2="783" y1="318.2426" y2="318.2426"/><text fill="#000000" font-family="sans-serif" font-size="7.8" lengthAdjust="spacing" textLength="132" x="647.4" y="315.085">listBoardsUserOwnsNotArchived(user)</text><polygon fill="#181818" points="404.1,352.6172,398.1,355.0172,404.1,357.4172,401.7,355.0172" style="stroke:#181818;stroke-width:0.6;"/><line style="stroke:#181818;stroke-width:0.6;" x1="400.5" x2="639.6" y1="355.0172" y2="355.0172"/><text fill="#000000" font-family="sans-serif" font-size="7.8" lengthAdjust="spacing" textLength="112.2" x="407.7" y="351.8596">listBoardsUserOwnsNotArchived</text><polygon fill="#181818" points="262.5,373.1918,256.5,375.5918,262.5,377.9918,260.1,375.5918" style="stroke:#181818;stroke-width:0.6;"/><line style="stroke:#181818;stroke-width:0.6;" x1="258.9" x2="393.9" y1="375.5918" y2="375.5918"/><text fill="#000000" font-family="sans-serif" font-size="7.8" lengthAdjust="spacing" textLength="121.2" x="266.1" y="372.4342">stringBoardsUserOwnsNotArchived</text><path d="M400.2,362.8172 L400.2,379.0172 L567,379.0172 L567,368.8172 L561,362.8172 L400.2,362.8172 " fill="#FEFFDD" style="stroke:#181818;stroke-width:0.3;"/><path d="M561,362.8172 L561,368.8172 L567,368.8172 L561,362.8172 " fill="#FEFFDD" style="stroke:#181818;stroke-width:0.3;"/><text fill="#000000" font-family="sans-serif" font-size="7.8" lengthAdjust="spacing" textLength="154.2" x="403.8" y="374.2342">sends boards in a string array through server</text><polygon fill="#181818" points="128.1,393.7664,122.1,396.1664,128.1,398.5664,125.7,396.1664" style="stroke:#181818;stroke-width:0.6;"/><line style="stroke:#181818;stroke-width:0.6;" x1="124.5" x2="252.3" y1="396.1664" y2="396.1664"/><text fill="#000000" font-family="sans-serif" font-size="7.8" lengthAdjust="spacing" textLength="112.2" x="131.7" y="393.0088">listBoardsUserOwnsNotArchived</text><polygon fill="#181818" points="23.1,412.541,17.1,414.941,23.1,417.341,20.7,414.941" style="stroke:#181818;stroke-width:0.6;"/><line style="stroke:#181818;stroke-width:0.6;stroke-dasharray:2.0,2.0;" x1="19.5" x2="117.9" y1="414.941" y2="414.941"/><text fill="#000000" font-family="sans-serif" font-size="7.8" lengthAdjust="spacing" textLength="64.8" x="26.7" y="411.7834">show list of boards</text><polygon fill="#181818" points="108.3,431.3156,114.3,433.7156,108.3,436.1156,110.7,433.7156" style="stroke:#181818;stroke-width:0.6;"/><line style="stroke:#181818;stroke-width:0.6;" x1="16.5" x2="111.9" y1="433.7156" y2="433.7156"/><text fill="#000000" font-family="sans-serif" font-size="7.8" lengthAdjust="spacing" textLength="86.4" x="20.7" y="430.558">chooses board to archive</text><polygon fill="#181818" points="242.7,450.0902,248.7,452.4902,242.7,454.8902,245.1,452.4902" style="stroke:#181818;stroke-width:0.6;"/><line style="stroke:#181818;stroke-width:0.6;" x1="121.5" x2="246.3" y1="452.4902" y2="452.4902"/><text fill="#000000" font-family="sans-serif" font-size="7.8" lengthAdjust="spacing" textLength="91.2" x="125.7" y="449.3326">archivedBoards(boardTitle)</text><polygon fill="#181818" points="384.3,475.8521,390.3,478.2521,384.3,480.6521,386.7,478.2521" style="stroke:#181818;stroke-width:0.6;"/><line style="stroke:#181818;stroke-width:0.6;" x1="255.9" x2="387.9" y1="478.2521" y2="478.2521"/><text fill="#000000" font-family="sans-serif" font-size="7.8" lengthAdjust="spacing" textLength="33.6" x="260.1" y="475.0945">boardTitle</text><path d="M400.2,460.2902 L400.2,486.6902 L531,486.6902 L531,466.2902 L525,460.2902 L400.2,460.2902 " fill="#FEFFDD" style="stroke:#181818;stroke-width:0.3;"/><path d="M525,460.2902 L525,466.2902 L531,466.2902 L525,460.2902 " fill="#FEFFDD" style="stroke:#181818;stroke-width:0.3;"/><text fill="#000000" font-family="sans-serif" font-size="7.8" lengthAdjust="spacing" textLength="118.2" x="403.8" y="471.7072">communication between controller</text><text fill="#000000" font-family="sans-serif" font-size="7.8" lengthAdjust="spacing" textLength="91.2" x="403.8" y="482.0818">and handler through server</text><polygon fill="#181818" points="779.4,501.6141,785.4,504.0141,779.4,506.4141,781.8,504.0141" style="stroke:#181818;stroke-width:0.6;"/><line style="stroke:#181818;stroke-width:0.6;" x1="397.5" x2="783" y1="504.0141" y2="504.0141"/><text fill="#000000" font-family="sans-serif" font-size="7.8" lengthAdjust="spacing" textLength="69.6" x="401.7" y="500.8564">ofIdentity(boardTitle)</text><polygon fill="#181818" points="404.1,520.3887,398.1,522.7887,404.1,525.1887,401.7,522.7887" style="stroke:#181818;stroke-width:0.6;"/><line style="stroke:#181818;stroke-width:0.6;" x1="400.5" x2="789" y1="522.7887" y2="522.7887"/><text fill="#000000" font-family="sans-serif" font-size="7.8" lengthAdjust="spacing" textLength="19.2" x="407.7" y="519.6311">board</text><polygon fill="#181818" points="834.6,539.1633,840.6,541.5633,834.6,543.9633,837,541.5633" style="stroke:#181818;stroke-width:0.6;"/><line style="stroke:#181818;stroke-width:0.6;" x1="397.5" x2="838.2" y1="541.5633" y2="541.5633"/><text fill="#000000" font-family="sans-serif" font-size="7.8" lengthAdjust="spacing" textLength="49.2" x="401.7" y="538.4057">archiveBoard()</text><polygon fill="#181818" points="779.4,575.9379,785.4,578.3379,779.4,580.7379,781.8,578.3379" style="stroke:#181818;stroke-width:0.6;"/><line style="stroke:#181818;stroke-width:0.6;" x1="397.5" x2="783" y1="578.3379" y2="578.3379"/><text fill="#000000" font-family="sans-serif" font-size="7.8" lengthAdjust="spacing" textLength="39.6" x="401.7" y="575.1803">save(board)</text><polygon fill="#181818" points="630,612.7125,636,615.1125,630,617.5125,632.4,615.1125" style="stroke:#181818;stroke-width:0.6;"/><line style="stroke:#181818;stroke-width:0.6;" x1="397.5" x2="633.6" y1="615.1125" y2="615.1125"/><text fill="#000000" font-family="sans-serif" font-size="7.8" lengthAdjust="spacing" textLength="125.4" x="401.7" y="611.9549">listBoardsUserOwnsArchived(owner)</text><polygon fill="#181818" points="779.4,631.4871,785.4,633.8871,779.4,636.2871,781.8,633.8871" style="stroke:#181818;stroke-width:0.6;"/><line style="stroke:#181818;stroke-width:0.6;" x1="643.2" x2="783" y1="633.8871" y2="633.8871"/><text fill="#000000" font-family="sans-serif" font-size="7.8" lengthAdjust="spacing" textLength="120" x="647.4" y="630.7295">listBoardsUserOwnsArchived(user)</text><polygon fill="#181818" points="649.8,650.2617,643.8,652.6617,649.8,655.0617,647.4,652.6617" style="stroke:#181818;stroke-width:0.6;"/><line style="stroke:#181818;stroke-width:0.6;" x1="646.2" x2="789" y1="652.6617" y2="652.6617"/><text fill="#000000" font-family="sans-serif" font-size="7.8" lengthAdjust="spacing" textLength="100.2" x="653.4" y="649.5041">listBoardsUserOwnsArchived</text><polygon fill="#181818" points="404.1,669.0363,398.1,671.4363,404.1,673.8363,401.7,671.4363" style="stroke:#181818;stroke-width:0.6;"/><line style="stroke:#181818;stroke-width:0.6;" x1="400.5" x2="639.6" y1="671.4363" y2="671.4363"/><text fill="#000000" font-family="sans-serif" font-size="7.8" lengthAdjust="spacing" textLength="100.2" x="407.7" y="668.2787">listBoardsUserOwnsArchived</text><polygon fill="#181818" points="262.5,689.6109,256.5,692.0109,262.5,694.4109,260.1,692.0109" style="stroke:#181818;stroke-width:0.6;"/><line style="stroke:#181818;stroke-width:0.6;" x1="258.9" x2="393.9" y1="692.0109" y2="692.0109"/><text fill="#000000" font-family="sans-serif" font-size="7.8" lengthAdjust="spacing" textLength="109.2" x="266.1" y="688.8533">stringBoardsUserOwnsArchived</text><path d="M400.2,679.2363 L400.2,695.4363 L567,695.4363 L567,685.2363 L561,679.2363 L400.2,679.2363 " fill="#FEFFDD" style="stroke:#181818;stroke-width:0.3;"/><path d="M561,679.2363 L561,685.2363 L567,685.2363 L561,679.2363 " fill="#FEFFDD" style="stroke:#181818;stroke-width:0.3;"/><text fill="#000000" font-family="sans-serif" font-size="7.8" lengthAdjust="spacing" textLength="154.2" x="403.8" y="690.6533">sends boards in a string array through server</text><polygon fill="#181818" points="128.1,710.1855,122.1,712.5855,128.1,714.9855,125.7,712.5855" style="stroke:#181818;stroke-width:0.6;"/><line style="stroke:#181818;stroke-width:0.6;" x1="124.5" x2="252.3" y1="712.5855" y2="712.5855"/><text fill="#000000" font-family="sans-serif" font-size="7.8" lengthAdjust="spacing" textLength="100.2" x="131.7" y="709.4279">listBoardsUserOwnsArchived</text><polygon fill="#181818" points="23.1,739.3348,17.1,741.7348,23.1,744.1348,20.7,741.7348" style="stroke:#181818;stroke-width:0.6;"/><line style="stroke:#181818;stroke-width:0.6;stroke-dasharray:2.0,2.0;" x1="19.5" x2="117.9" y1="741.7348" y2="741.7348"/><text fill="#000000" font-family="sans-serif" font-size="7.8" lengthAdjust="spacing" textLength="82.2" x="26.7" y="728.2025">show list of boards user</text><text fill="#000000" font-family="sans-serif" font-size="7.8" lengthAdjust="spacing" textLength="76.8" x="26.7" y="738.5771">owns in state archived</text><!--SRC=[jLRBRjim4BphAtYqWQOVu4E0n3tKGDe4SNCp4D3KnY9gaowvakk_xvAKPEh1M2aG7HA9- -3ixEx0NA0sxCM2OTooalvdHsvG2dda2jcT4OMiu5vpax-il8jCEYorGgFt-v1BeDadNRzpbTT-HNZjkFu0LJx3dn8iEfS3VNRiwxD5E3IexUi0zxhW9joq1bD90Twl4bdEaM-v1UQDpt3KLX83PsVVlfhskvFD-tgFZ1ukK5OS8R3b_h2RM-A5BK0XdLpiCiiOFMGY1yS7MmW3P9fHK0LczVI5XRSdRN3kdPMcI2Dt1IvOS6PhBNu3RbJz-OrAMAbZYMkaWqFd_B74rk3JjM1yEzn93jsp0SIzjEWhjexWnvEoFpNMpSjdyqHQz_Zuczkwemt-rXoNjdGcgHNJRwE38HLRUsOsQgaFXr994VotW2S0nKGxR1j5CSqOCIoCBdT5pMjxTmku6JSMFKqiKU16ZO3l9VNo_co9-TbA0TxbkG5hvvsmDgUVpzWISJomHPU5mMKBjWDqN3_etGxobPebxga7FN5JRSsIjrNYMdFrIO7fNdvf6k5izqE2PRHXT83qJg6iadoZdi1OkW2K02S6y1U_nY79kcWnMUznQ0bql9DNmBlgvuCyxIMTxUvxHJI-wrUZQbXTi7SX9JlLgpTgKbX1PebMjPkMkBDN5bHEEkK3tHBnEXLro_1pQZiYRCr-z9VQ2zn_LTkH22SqBbcOUrleawVGoK00dMLHg5FGYy3INXPQMwZhOwYfAdztHtFxUbRxv07upCV-ahY72L8MTVeIDofeubDKAXiPaNX02PT-M-KaLXBFWzAcpNydtx3axDgEZ69iQVUipyRmZ2QUKB7b5OHIfrRv4UHU9KVMEgMHoQKU4R2n1Nf7lgP9Khzz2Pc_jgNZn4pGkq7Ydj1b7rEvGRfFKRUXk5sZBF6pwI9c8reMB1j58-FXMdJXZHxrXUuV]--></g></svg>