<?xml version="1.0" encoding="us-ascii" standalone="no"?><svg xmlns="http://www.w3.org/2000/svg" xmlns:xlink="http://www.w3.org/1999/xlink" contentStyleType="text/css" height="1381px" preserveAspectRatio="none" style="width:1333px;height:1381px;background:#FFFFFF;" version="1.1" viewBox="0 0 1333 1381" width="1333px" zoomAndPan="magnify"><defs/><g><rect fill="#FFFFFF" height="1195.4766" style="stroke:#181818;stroke-width:1.0;" width="10" x="50" y="93.6211"/><rect fill="#FFFFFF" height="1145.8945" style="stroke:#181818;stroke-width:1.0;" width="10" x="381" y="134.2031"/><rect fill="#FFFFFF" height="72.9365" style="stroke:#181818;stroke-width:1.0;" width="10" x="562" y="177.1396"/><rect fill="#FFFFFF" height="987.085" style="stroke:#181818;stroke-width:1.0;" width="10" x="562" y="293.0127"/><rect fill="#FFFFFF" height="117.1641" style="stroke:#181818;stroke-width:1.0;" width="10" x="879" y="581.9863"/><rect fill="#FFFFFF" height="62.582" style="stroke:#181818;stroke-width:1.0;" width="10" x="879" y="730.4414"/><rect fill="#FFFFFF" height="126.1641" style="stroke:#181818;stroke-width:1.0;" width="10" x="879" y="1162.9336"/><rect fill="#FFFFFF" height="30" style="stroke:#181818;stroke-width:1.0;" width="10" x="980.5" y="220.0762"/><rect fill="#FFFFFF" height="31.291" style="stroke:#181818;stroke-width:1.0;" width="10" x="980.5" y="437.8223"/><rect fill="#FFFFFF" height="31.291" style="stroke:#181818;stroke-width:1.0;" width="10" x="980.5" y="1018.7695"/><rect fill="#FFFFFF" height="30" style="stroke:#181818;stroke-width:1.0;" width="10" x="1065" y="356.2402"/><rect fill="#FFFFFF" height="30" style="stroke:#181818;stroke-width:1.0;" width="10" x="1126" y="896.1875"/><rect fill="#FFFFFF" height="30" style="stroke:#181818;stroke-width:1.0;" width="10" x="1218" y="957.4785"/><line style="stroke:#181818;stroke-width:0.5;stroke-dasharray:5.0,5.0;" x1="55" x2="55" y1="83.6211" y2="1298.0977"/><line style="stroke:#181818;stroke-width:0.5;stroke-dasharray:5.0,5.0;" x1="386" x2="386" y1="83.6211" y2="1298.0977"/><line style="stroke:#181818;stroke-width:0.5;stroke-dasharray:5.0,5.0;" x1="567" x2="567" y1="83.6211" y2="1298.0977"/><line style="stroke:#181818;stroke-width:0.5;stroke-dasharray:5.0,5.0;" x1="884" x2="884" y1="83.6211" y2="1298.0977"/><line style="stroke:#181818;stroke-width:0.5;stroke-dasharray:5.0,5.0;" x1="985" x2="985" y1="83.6211" y2="1298.0977"/><line style="stroke:#181818;stroke-width:0.5;stroke-dasharray:5.0,5.0;" x1="1070" x2="1070" y1="83.6211" y2="1298.0977"/><line style="stroke:#181818;stroke-width:0.5;stroke-dasharray:5.0,5.0;" x1="1131" x2="1131" y1="83.6211" y2="1298.0977"/><line style="stroke:#181818;stroke-width:0.5;stroke-dasharray:5.0,5.0;" x1="1223" x2="1223" y1="83.6211" y2="1298.0977"/><text fill="#000000" font-family="sans-serif" font-size="14" lengthAdjust="spacing" textLength="94" x="5" y="80.1074">SBPServerApp</text><ellipse cx="55" cy="13.5" fill="#E2E2F0" rx="8" ry="8" style="stroke:#181818;stroke-width:0.5;"/><path d="M55,21.5 L55,48.5 M42,29.5 L68,29.5 M55,48.5 L42,63.5 M55,48.5 L68,63.5 " fill="none" style="stroke:#181818;stroke-width:0.5;"/><text fill="#000000" font-family="sans-serif" font-size="14" lengthAdjust="spacing" textLength="94" x="5" y="1312.2051">SBPServerApp</text><ellipse cx="55" cy="1324.2188" fill="#E2E2F0" rx="8" ry="8" style="stroke:#181818;stroke-width:0.5;"/><path d="M55,1332.2188 L55,1359.2188 M42,1340.2188 L68,1340.2188 M55,1359.2188 L42,1374.2188 M55,1359.2188 L68,1374.2188 " fill="none" style="stroke:#181818;stroke-width:0.5;"/><rect fill="#E2E2F0" height="32.6211" rx="2.5" ry="2.5" style="stroke:#181818;stroke-width:0.5;" width="102" x="335" y="50"/><text fill="#000000" font-family="sans-serif" font-size="14" lengthAdjust="spacing" textLength="88" x="342" y="72.1074">MenuRequest</text><rect fill="#E2E2F0" height="32.6211" rx="2.5" ry="2.5" style="stroke:#181818;stroke-width:0.5;" width="102" x="335" y="1297.0977"/><text fill="#000000" font-family="sans-serif" font-size="14" lengthAdjust="spacing" textLength="88" x="342" y="1319.2051">MenuRequest</text><rect fill="#E2E2F0" height="32.6211" rx="2.5" ry="2.5" style="stroke:#181818;stroke-width:0.5;" width="148" x="493" y="50"/><text fill="#000000" font-family="sans-serif" font-size="14" lengthAdjust="spacing" textLength="134" x="500" y="72.1074">ArchiveBoardHandler</text><rect fill="#E2E2F0" height="32.6211" rx="2.5" ry="2.5" style="stroke:#181818;stroke-width:0.5;" width="148" x="493" y="1297.0977"/><text fill="#000000" font-family="sans-serif" font-size="14" lengthAdjust="spacing" textLength="134" x="500" y="1319.2051">ArchiveBoardHandler</text><rect fill="#E2E2F0" height="32.6211" rx="2.5" ry="2.5" style="stroke:#181818;stroke-width:0.5;" width="84" x="842" y="50"/><text fill="#000000" font-family="sans-serif" font-size="14" lengthAdjust="spacing" textLength="70" x="849" y="72.1074">SBProtocol</text><rect fill="#E2E2F0" height="32.6211" rx="2.5" ry="2.5" style="stroke:#181818;stroke-width:0.5;" width="84" x="842" y="1297.0977"/><text fill="#000000" font-family="sans-serif" font-size="14" lengthAdjust="spacing" textLength="70" x="849" y="1319.2051">SBProtocol</text><rect fill="#E2E2F0" height="32.6211" rx="2.5" ry="2.5" style="stroke:#181818;stroke-width:0.5;" width="99" x="936" y="50"/><text fill="#000000" font-family="sans-serif" font-size="14" lengthAdjust="spacing" textLength="85" x="943" y="72.1074">BoardService</text><rect fill="#E2E2F0" height="32.6211" rx="2.5" ry="2.5" style="stroke:#181818;stroke-width:0.5;" width="99" x="936" y="1297.0977"/><text fill="#000000" font-family="sans-serif" font-size="14" lengthAdjust="spacing" textLength="85" x="943" y="1319.2051">BoardService</text><rect fill="#E2E2F0" height="32.6211" rx="2.5" ry="2.5" style="stroke:#181818;stroke-width:0.5;" width="50" x="1045" y="50"/><text fill="#000000" font-family="sans-serif" font-size="14" lengthAdjust="spacing" textLength="36" x="1052" y="72.1074">Client</text><rect fill="#E2E2F0" height="32.6211" rx="2.5" ry="2.5" style="stroke:#181818;stroke-width:0.5;" width="50" x="1045" y="1297.0977"/><text fill="#000000" font-family="sans-serif" font-size="14" lengthAdjust="spacing" textLength="36" x="1052" y="1319.2051">Client</text><rect fill="#E2E2F0" height="32.6211" rx="2.5" ry="2.5" style="stroke:#181818;stroke-width:0.5;" width="52" x="1105" y="50"/><text fill="#000000" font-family="sans-serif" font-size="14" lengthAdjust="spacing" textLength="38" x="1112" y="72.1074">Board</text><rect fill="#E2E2F0" height="32.6211" rx="2.5" ry="2.5" style="stroke:#181818;stroke-width:0.5;" width="52" x="1105" y="1297.0977"/><text fill="#000000" font-family="sans-serif" font-size="14" lengthAdjust="spacing" textLength="38" x="1112" y="1319.2051">Board</text><text fill="#000000" font-family="sans-serif" font-size="14" lengthAdjust="spacing" textLength="106" x="1167" y="80.1074">BoardRepository</text><path d="M1205,29 C1205,19 1223,19 1223,19 C1223,19 1241,19 1241,29 L1241,55 C1241,65 1223,65 1223,65 C1223,65 1205,65 1205,55 L1205,29 " fill="#E2E2F0" style="stroke:#181818;stroke-width:1.5;"/><path d="M1205,29 C1205,39 1223,39 1223,39 C1223,39 1241,39 1241,29 " fill="none" style="stroke:#181818;stroke-width:1.5;"/><text fill="#000000" font-family="sans-serif" font-size="14" lengthAdjust="spacing" textLength="106" x="1167" y="1312.2051">BoardRepository</text><path d="M1205,1325.7188 C1205,1315.7188 1223,1315.7188 1223,1315.7188 C1223,1315.7188 1241,1315.7188 1241,1325.7188 L1241,1351.7188 C1241,1361.7188 1223,1361.7188 1223,1361.7188 C1223,1361.7188 1205,1361.7188 1205,1351.7188 L1205,1325.7188 " fill="#E2E2F0" style="stroke:#181818;stroke-width:1.5;"/><path d="M1205,1325.7188 C1205,1335.7188 1223,1335.7188 1223,1335.7188 C1223,1335.7188 1241,1335.7188 1241,1325.7188 " fill="none" style="stroke:#181818;stroke-width:1.5;"/><rect fill="#FFFFFF" height="1195.4766" style="stroke:#181818;stroke-width:1.0;" width="10" x="50" y="93.6211"/><rect fill="#FFFFFF" height="1145.8945" style="stroke:#181818;stroke-width:1.0;" width="10" x="381" y="134.2031"/><rect fill="#FFFFFF" height="72.9365" style="stroke:#181818;stroke-width:1.0;" width="10" x="562" y="177.1396"/><rect fill="#FFFFFF" height="987.085" style="stroke:#181818;stroke-width:1.0;" width="10" x="562" y="293.0127"/><rect fill="#FFFFFF" height="117.1641" style="stroke:#181818;stroke-width:1.0;" width="10" x="879" y="581.9863"/><rect fill="#FFFFFF" height="62.582" style="stroke:#181818;stroke-width:1.0;" width="10" x="879" y="730.4414"/><rect fill="#FFFFFF" height="126.1641" style="stroke:#181818;stroke-width:1.0;" width="10" x="879" y="1162.9336"/><rect fill="#FFFFFF" height="30" style="stroke:#181818;stroke-width:1.0;" width="10" x="980.5" y="220.0762"/><rect fill="#FFFFFF" height="31.291" style="stroke:#181818;stroke-width:1.0;" width="10" x="980.5" y="437.8223"/><rect fill="#FFFFFF" height="31.291" style="stroke:#181818;stroke-width:1.0;" width="10" x="980.5" y="1018.7695"/><rect fill="#FFFFFF" height="30" style="stroke:#181818;stroke-width:1.0;" width="10" x="1065" y="356.2402"/><rect fill="#FFFFFF" height="30" style="stroke:#181818;stroke-width:1.0;" width="10" x="1126" y="896.1875"/><rect fill="#FFFFFF" height="30" style="stroke:#181818;stroke-width:1.0;" width="10" x="1218" y="957.4785"/><polygon fill="#181818" points="369,130.2031,379,134.2031,369,138.2031,373,134.2031" style="stroke:#181818;stroke-width:1.0;"/><line style="stroke:#181818;stroke-width:1.0;" x1="60" x2="375" y1="134.2031" y2="134.2031"/><text fill="#000000" font-family="sans-serif" font-size="13" lengthAdjust="spacing" textLength="302" x="67" y="111.6494">receives GET_BOARDS_OWNED_NOT_ARCHIVED</text><text fill="#000000" font-family="sans-serif" font-size="13" lengthAdjust="spacing" textLength="75" x="67" y="128.9404">code request</text><polygon fill="#181818" points="550,173.1396,560,177.1396,550,181.1396,554,177.1396" style="stroke:#181818;stroke-width:1.0;"/><line style="stroke:#181818;stroke-width:1.0;" x1="391" x2="556" y1="177.1396" y2="177.1396"/><text fill="#000000" font-family="sans-serif" font-size="13" lengthAdjust="spacing" textLength="152" x="398" y="171.877">create(sock,codeRequest)</text><path d="M577,147.2031 L577,191.2031 L744,191.2031 L744,157.2031 L734,147.2031 L577,147.2031 " fill="#FEFFDD" style="stroke:#181818;stroke-width:0.5;"/><path d="M734,147.2031 L734,157.2031 L744,157.2031 L734,147.2031 " fill="#FEFFDD" style="stroke:#181818;stroke-width:0.5;"/><text fill="#000000" font-family="sans-serif" font-size="13" lengthAdjust="spacing" textLength="126" x="583" y="166.2314">receives a socket and</text><text fill="#000000" font-family="sans-serif" font-size="13" lengthAdjust="spacing" textLength="146" x="583" y="183.5225">SBProtocol codeRequest</text><polygon fill="#181818" points="968.5,216.0762,978.5,220.0762,968.5,224.0762,972.5,220.0762" style="stroke:#181818;stroke-width:1.0;"/><line style="stroke:#181818;stroke-width:1.0;" x1="572" x2="974.5" y1="220.0762" y2="220.0762"/><text fill="#000000" font-family="sans-serif" font-size="13" lengthAdjust="spacing" textLength="44" x="579" y="214.8135">create()</text><polygon fill="#181818" points="550,289.0127,560,293.0127,550,297.0127,554,293.0127" style="stroke:#181818;stroke-width:1.0;"/><line style="stroke:#181818;stroke-width:1.0;" x1="391" x2="556" y1="293.0127" y2="293.0127"/><text fill="#000000" font-family="sans-serif" font-size="13" lengthAdjust="spacing" textLength="26" x="398" y="287.75">run()</text><path d="M577,263.0762 L577,307.0762 L805,307.0762 L805,273.0762 L795,263.0762 L577,263.0762 " fill="#FEFFDD" style="stroke:#181818;stroke-width:0.5;"/><path d="M795,263.0762 L795,273.0762 L805,273.0762 L795,263.0762 " fill="#FEFFDD" style="stroke:#181818;stroke-width:0.5;"/><text fill="#000000" font-family="sans-serif" font-size="13" lengthAdjust="spacing" textLength="188" x="583" y="282.1045">create DataInputStream as "inS"</text><text fill="#000000" font-family="sans-serif" font-size="13" lengthAdjust="spacing" textLength="207" x="583" y="299.3955">create DataOutputStream as "outS"</text><polygon fill="#181818" points="1053,352.2402,1063,356.2402,1053,360.2402,1057,356.2402" style="stroke:#181818;stroke-width:1.0;"/><line style="stroke:#181818;stroke-width:1.0;" x1="572" x2="1059" y1="356.2402" y2="356.2402"/><text fill="#000000" font-family="sans-serif" font-size="13" lengthAdjust="spacing" textLength="155" x="579" y="350.9775">owner = getUserLoggedIn()</text><path d="M1080,317.6582 L1080,378.6582 L1326,378.6582 L1326,327.6582 L1316,317.6582 L1080,317.6582 " fill="#FEFFDD" style="stroke:#181818;stroke-width:0.5;"/><path d="M1316,317.6582 L1316,327.6582 L1326,327.6582 L1316,317.6582 " fill="#FEFFDD" style="stroke:#181818;stroke-width:0.5;"/><text fill="#000000" font-family="sans-serif" font-size="13" lengthAdjust="spacing" textLength="225" x="1086" y="336.6865">get from SBPServerApp activate status</text><text fill="#000000" font-family="sans-serif" font-size="13" lengthAdjust="spacing" textLength="222" x="1086" y="353.9775">Map&lt;InetAddress, Client&gt; activeAuths</text><text fill="#000000" font-family="sans-serif" font-size="13" lengthAdjust="spacing" textLength="192" x="1086" y="371.2686">Then from Client get SystemUser</text><polygon fill="#181818" points="968.5,433.8223,978.5,437.8223,968.5,441.8223,972.5,437.8223" style="stroke:#181818;stroke-width:1.0;"/><line style="stroke:#181818;stroke-width:1.0;" x1="572" x2="974.5" y1="437.8223" y2="437.8223"/><text fill="#000000" font-family="sans-serif" font-size="13" lengthAdjust="spacing" textLength="229" x="579" y="432.5596">listBoardsUserOwnsNotArchived(owner)</text><polygon fill="#181818" points="583,465.1133,573,469.1133,583,473.1133,579,469.1133" style="stroke:#181818;stroke-width:1.0;"/><line style="stroke:#181818;stroke-width:1.0;" x1="577" x2="984.5" y1="469.1133" y2="469.1133"/><text fill="#000000" font-family="sans-serif" font-size="13" lengthAdjust="spacing" textLength="39" x="589" y="463.8506">boards</text><path d="M577,482.1133 L577,509.1133 L712,509.1133 L712,492.1133 L702,482.1133 L577,482.1133 " fill="#FEFFDD" style="stroke:#181818;stroke-width:0.5;"/><path d="M702,482.1133 L702,492.1133 L712,492.1133 L702,482.1133 " fill="#FEFFDD" style="stroke:#181818;stroke-width:0.5;"/><text fill="#000000" font-family="sans-serif" font-size="13" lengthAdjust="spacing" textLength="114" x="583" y="501.1416">create string builder</text><line style="stroke:#181818;stroke-width:1.0;" x1="572" x2="614" y1="537.6953" y2="537.6953"/><line style="stroke:#181818;stroke-width:1.0;" x1="614" x2="614" y1="537.6953" y2="550.6953"/><line style="stroke:#181818;stroke-width:1.0;" x1="573" x2="614" y1="550.6953" y2="550.6953"/><polygon fill="#181818" points="583,546.6953,573,550.6953,583,554.6953,579,550.6953" style="stroke:#181818;stroke-width:1.0;"/><text fill="#000000" font-family="sans-serif" font-size="13" lengthAdjust="spacing" textLength="195" x="579" y="532.4326">sendBoardOwned(builder, boards)</text><polygon fill="#181818" points="867,577.9863,877,581.9863,867,585.9863,871,581.9863" style="stroke:#181818;stroke-width:1.0;"/><line style="stroke:#181818;stroke-width:1.0;" x1="572" x2="873" y1="581.9863" y2="581.9863"/><text fill="#000000" font-family="sans-serif" font-size="13" lengthAdjust="spacing" textLength="129" x="579" y="576.7236">sendBoards = create()</text><path d="M577,594.9863 L577,638.9863 L744,638.9863 L744,604.9863 L734,594.9863 L577,594.9863 " fill="#FEFFDD" style="stroke:#181818;stroke-width:0.5;"/><path d="M734,594.9863 L734,604.9863 L744,604.9863 L734,594.9863 " fill="#FEFFDD" style="stroke:#181818;stroke-width:0.5;"/><text fill="#000000" font-family="sans-serif" font-size="13" lengthAdjust="spacing" textLength="146" x="583" y="614.0146">loop for to append boards</text><text fill="#000000" font-family="sans-serif" font-size="13" lengthAdjust="spacing" textLength="63" x="583" y="631.3057">into builder</text><polygon fill="#181818" points="867,663.8594,877,667.8594,867,671.8594,871,667.8594" style="stroke:#181818;stroke-width:1.0;"/><line style="stroke:#181818;stroke-width:1.0;" x1="572" x2="873" y1="667.8594" y2="667.8594"/><text fill="#000000" font-family="sans-serif" font-size="13" lengthAdjust="spacing" textLength="173" x="579" y="662.5967">setContentFromString(builder)</text><polygon fill="#181818" points="872,695.1504,882,699.1504,872,703.1504,876,699.1504" style="stroke:#181818;stroke-width:1.0;"/><line style="stroke:#181818;stroke-width:1.0;" x1="572" x2="878" y1="699.1504" y2="699.1504"/><text fill="#000000" font-family="sans-serif" font-size="13" lengthAdjust="spacing" textLength="63" x="579" y="693.8877">send(outS)</text><polygon fill="#181818" points="867,726.4414,877,730.4414,867,734.4414,871,730.4414" style="stroke:#181818;stroke-width:1.0;"/><line style="stroke:#181818;stroke-width:1.0;" x1="572" x2="873" y1="730.4414" y2="730.4414"/><text fill="#000000" font-family="sans-serif" font-size="13" lengthAdjust="spacing" textLength="153" x="579" y="725.1787">receiveBoard = create(inS)</text><polygon fill="#181818" points="867,757.7324,877,761.7324,867,765.7324,871,761.7324" style="stroke:#181818;stroke-width:1.0;"/><line style="stroke:#181818;stroke-width:1.0;" x1="572" x2="873" y1="761.7324" y2="761.7324"/><text fill="#000000" font-family="sans-serif" font-size="13" lengthAdjust="spacing" textLength="121" x="579" y="756.4697">getContentAsString()</text><polygon fill="#181818" points="583,789.0234,573,793.0234,583,797.0234,579,793.0234" style="stroke:#181818;stroke-width:1.0;"/><line style="stroke:#181818;stroke-width:1.0;stroke-dasharray:2.0,2.0;" x1="577" x2="883" y1="793.0234" y2="793.0234"/><text fill="#000000" font-family="sans-serif" font-size="13" lengthAdjust="spacing" textLength="66" x="589" y="787.7607">boardName</text><path d="M577,806.0234 L577,867.0234 L794,867.0234 L794,816.0234 L784,806.0234 L577,806.0234 " fill="#FEFFDD" style="stroke:#181818;stroke-width:0.5;"/><path d="M784,806.0234 L784,816.0234 L794,816.0234 L784,806.0234 " fill="#FEFFDD" style="stroke:#181818;stroke-width:0.5;"/><text fill="#000000" font-family="sans-serif" font-size="13" lengthAdjust="spacing" textLength="104" x="583" y="825.0518">SBPServerApp as</text><text fill="#000000" font-family="sans-serif" font-size="13" lengthAdjust="spacing" textLength="184" x="587" y="842.3428">Map&lt;BoardTitle, Board&gt; boards</text><text fill="#000000" font-family="sans-serif" font-size="13" lengthAdjust="spacing" textLength="196" x="583" y="859.6338">get "board" with title "boardName"</text><polygon fill="#181818" points="1114,892.1875,1124,896.1875,1114,900.1875,1118,896.1875" style="stroke:#181818;stroke-width:1.0;"/><line style="stroke:#181818;stroke-width:1.0;" x1="572" x2="1120" y1="896.1875" y2="896.1875"/><text fill="#000000" font-family="sans-serif" font-size="13" lengthAdjust="spacing" textLength="82" x="579" y="890.9248">archiveBoard()</text><polygon fill="#181818" points="1206,953.4785,1216,957.4785,1206,961.4785,1210,957.4785" style="stroke:#181818;stroke-width:1.0;"/><line style="stroke:#181818;stroke-width:1.0;" x1="572" x2="1212" y1="957.4785" y2="957.4785"/><text fill="#000000" font-family="sans-serif" font-size="13" lengthAdjust="spacing" textLength="66" x="579" y="952.2158">save(board)</text><polygon fill="#181818" points="968.5,1014.7695,978.5,1018.7695,968.5,1022.7695,972.5,1018.7695" style="stroke:#181818;stroke-width:1.0;"/><line style="stroke:#181818;stroke-width:1.0;" x1="572" x2="974.5" y1="1018.7695" y2="1018.7695"/><text fill="#000000" font-family="sans-serif" font-size="13" lengthAdjust="spacing" textLength="209" x="579" y="1013.5068">listBoardsUserOwnsArchived(owner)</text><polygon fill="#181818" points="583,1046.0605,573,1050.0605,583,1054.0605,579,1050.0605" style="stroke:#181818;stroke-width:1.0;"/><line style="stroke:#181818;stroke-width:1.0;" x1="577" x2="984.5" y1="1050.0605" y2="1050.0605"/><text fill="#000000" font-family="sans-serif" font-size="13" lengthAdjust="spacing" textLength="39" x="589" y="1044.7979">boards</text><path d="M577,1063.0605 L577,1090.0605 L761,1090.0605 L761,1073.0605 L751,1063.0605 L577,1063.0605 " fill="#FEFFDD" style="stroke:#181818;stroke-width:0.5;"/><path d="M751,1063.0605 L751,1073.0605 L761,1073.0605 L751,1063.0605 " fill="#FEFFDD" style="stroke:#181818;stroke-width:0.5;"/><text fill="#000000" font-family="sans-serif" font-size="13" lengthAdjust="spacing" textLength="163" x="583" y="1082.0889">create string builderArchived</text><line style="stroke:#181818;stroke-width:1.0;" x1="572" x2="614" y1="1118.6426" y2="1118.6426"/><line style="stroke:#181818;stroke-width:1.0;" x1="614" x2="614" y1="1118.6426" y2="1131.6426"/><line style="stroke:#181818;stroke-width:1.0;" x1="573" x2="614" y1="1131.6426" y2="1131.6426"/><polygon fill="#181818" points="583,1127.6426,573,1131.6426,583,1135.6426,579,1131.6426" style="stroke:#181818;stroke-width:1.0;"/><text fill="#000000" font-family="sans-serif" font-size="13" lengthAdjust="spacing" textLength="293" x="579" y="1113.3799">sendBoardOwned(builderArchived, boardsArchived)</text><polygon fill="#181818" points="867,1158.9336,877,1162.9336,867,1166.9336,871,1162.9336" style="stroke:#181818;stroke-width:1.0;"/><line style="stroke:#181818;stroke-width:1.0;" x1="572" x2="873" y1="1162.9336" y2="1162.9336"/><text fill="#000000" font-family="sans-serif" font-size="13" lengthAdjust="spacing" textLength="129" x="579" y="1157.6709">sendBoards = create()</text><path d="M577,1175.9336 L577,1219.9336 L744,1219.9336 L744,1185.9336 L734,1175.9336 L577,1175.9336 " fill="#FEFFDD" style="stroke:#181818;stroke-width:0.5;"/><path d="M734,1175.9336 L734,1185.9336 L744,1185.9336 L734,1175.9336 " fill="#FEFFDD" style="stroke:#181818;stroke-width:0.5;"/><text fill="#000000" font-family="sans-serif" font-size="13" lengthAdjust="spacing" textLength="146" x="583" y="1194.9619">loop for to append boards</text><text fill="#000000" font-family="sans-serif" font-size="13" lengthAdjust="spacing" textLength="112" x="583" y="1212.2529">into builderArchived</text><polygon fill="#181818" points="867,1244.8066,877,1248.8066,867,1252.8066,871,1248.8066" style="stroke:#181818;stroke-width:1.0;"/><line style="stroke:#181818;stroke-width:1.0;" x1="572" x2="873" y1="1248.8066" y2="1248.8066"/><text fill="#000000" font-family="sans-serif" font-size="13" lengthAdjust="spacing" textLength="173" x="579" y="1243.5439">setContentFromString(builder)</text><polygon fill="#181818" points="867,1276.0977,877,1280.0977,867,1284.0977,871,1280.0977" style="stroke:#181818;stroke-width:1.0;"/><line style="stroke:#181818;stroke-width:1.0;" x1="567" x2="873" y1="1280.0977" y2="1280.0977"/><text fill="#000000" font-family="sans-serif" font-size="13" lengthAdjust="spacing" textLength="63" x="574" y="1274.835">send(outS)</text><!--SRC=[jLPjRzem4FwUNs7n2IJw1z1MAItjYhJ2HDZs1GavoHMi1JkpBrJzzpixpXk4CY7XBy7dUtdkkJiRdg3IB7hu4O4-W0xpd773ZDi4GSurYaJaN29x1LaiuMy11gtAdhQTyr0dEt601yLr-i9bce6sUhloPqULmcc5Ab6P2nRddLFdmS8H2RZpGz8vVym4I8SXsHJcoBKpjcTna7BaCJTGofQGAoCesGztkj7rFWW2dg0uS8GgyVB3xkvTccp2D2H0oHdsxMcrULY4oscqMVoUFqqtyyLg4ouVNsQ_dgPhcQWKIDcnr7XrN0MCbdD7RZqh4vPe88sXKScViJNs38-SjbHahCLsXsq8d5bj80PakfOjBblsphoENzM0-UNt5WYHoseKergZ8OJ8huGfd8XRedQGepGj-a8EUv8g0xCfbMecym8Z9C7ULcWWP3GWGXk5HO5T3KMxGV3VgPRTGa7LkwJlLxO5_4cIxsgxXNGcM-at62TMYxrfjJyQafe9v5YOjNpb-PUP10pJL8CnOz-czwKcX0NkI6kr0rbwyrrilKSV1c5lePpoxrkyfmJ-v6nHCs7GTRwndXVlqimL-Y5DXuw32_Msoxhg539sBi_rH13qSCZKM-F05zIW5dBBua9aQN-vcf06PEeoeIG8khSPUoYZNWRYl6regDgVz3XTG9-Ydh1CgPozqKs9Yl4y9xy- -beAIR8gZy-muAEII3L_fl97BlqgbGif36sZZtef9-JdRVsDKLw9DG4qLnSuE76qhR67nYDlN5YLkzCMcVCzN8HyXksZvsWjcPqkbyTAO0RZyag_hsjWfsZWDWFsBd37qAfvaKKowAKf9h2yzMprDKVSbqJSxwxrgDZIyGCC7O8-j-q7g2z2vu4wUt6V3ldD9_oQ-Qv0NJFdbMqrxzN-shc_mTZNwTro_FtLslFYjaJbFmrQ_m00]--></g></svg>