<?xml version="1.0" encoding="us-ascii" standalone="no"?><svg xmlns="http://www.w3.org/2000/svg" xmlns:xlink="http://www.w3.org/1999/xlink" contentStyleType="text/css" height="843.2px" preserveAspectRatio="none" style="width:759px;height:843px;background:#FFFFFF;" version="1.1" viewBox="0 0 759 843" width="759.2px" zoomAndPan="magnify"><defs/><g><rect fill="#FFFFFF" height="694.9547" style="stroke:#181818;stroke-width:0.8000000000000002;" width="8" x="40" y="74.8969"/><rect fill="#FFFFFF" height="58.3492" style="stroke:#181818;stroke-width:0.8000000000000002;" width="8" x="184.8" y="102.8461"/><rect fill="#FFFFFF" height="567.107" style="stroke:#181818;stroke-width:0.8000000000000002;" width="8" x="184.8" y="195.5445"/><rect fill="#FFFFFF" height="54.8656" style="stroke:#181818;stroke-width:0.8000000000000002;" width="8" x="438.4" y="364.425"/><rect fill="#FFFFFF" height="25.0328" style="stroke:#181818;stroke-width:0.8000000000000002;" width="8" x="438.4" y="444.3234"/><rect fill="#FFFFFF" height="62.0656" style="stroke:#181818;stroke-width:0.8000000000000002;" width="8" x="438.4" y="707.7859"/><rect fill="#FFFFFF" height="24" style="stroke:#181818;stroke-width:0.8000000000000002;" width="8" x="519.6" y="137.1953"/><rect fill="#FFFFFF" height="25.0328" style="stroke:#181818;stroke-width:0.8000000000000002;" width="8" x="519.6" y="278.9266"/><rect fill="#FFFFFF" height="25.0328" style="stroke:#181818;stroke-width:0.8000000000000002;" width="8" x="519.6" y="622.2875"/><rect fill="#FFFFFF" height="24" style="stroke:#181818;stroke-width:0.8000000000000002;" width="8" x="587.2" y="229.8938"/><rect fill="#FFFFFF" height="24" style="stroke:#181818;stroke-width:0.8000000000000002;" width="8" x="636" y="524.2219"/><rect fill="#FFFFFF" height="24" style="stroke:#181818;stroke-width:0.8000000000000002;" width="8" x="709.6" y="573.2547"/><line style="stroke:#181818;stroke-width:0.4000000000000001;stroke-dasharray:5.0,5.0;" x1="44" x2="44" y1="66.8969" y2="777.0516"/><line style="stroke:#181818;stroke-width:0.4000000000000001;stroke-dasharray:5.0,5.0;" x1="188.8" x2="188.8" y1="66.8969" y2="777.0516"/><line style="stroke:#181818;stroke-width:0.4000000000000001;stroke-dasharray:5.0,5.0;" x1="442.4" x2="442.4" y1="66.8969" y2="777.0516"/><line style="stroke:#181818;stroke-width:0.4000000000000001;stroke-dasharray:5.0,5.0;" x1="523.2" x2="523.2" y1="66.8969" y2="777.0516"/><line style="stroke:#181818;stroke-width:0.4000000000000001;stroke-dasharray:5.0,5.0;" x1="591.2" x2="591.2" y1="66.8969" y2="777.0516"/><line style="stroke:#181818;stroke-width:0.4000000000000001;stroke-dasharray:5.0,5.0;" x1="640" x2="640" y1="66.8969" y2="777.0516"/><line style="stroke:#181818;stroke-width:0.4000000000000001;stroke-dasharray:5.0,5.0;" x1="713.6" x2="713.6" y1="66.8969" y2="777.0516"/><text fill="#000000" font-family="sans-serif" font-size="11.2" lengthAdjust="spacing" textLength="75.2" x="4" y="64.0859">SBPServerApp</text><ellipse cx="44" cy="10.8" fill="#E2E2F0" rx="6.4" ry="6.4" style="stroke:#181818;stroke-width:0.4000000000000001;"/><path d="M44,17.2 L44,38.8 M33.6,23.6 L54.4,23.6 M44,38.8 L33.6,50.8 M44,38.8 L54.4,50.8 " fill="none" style="stroke:#181818;stroke-width:0.4000000000000001;"/><text fill="#000000" font-family="sans-serif" font-size="11.2" lengthAdjust="spacing" textLength="75.2" x="4" y="788.3375">SBPServerApp</text><ellipse cx="44" cy="797.9484" fill="#E2E2F0" rx="6.4" ry="6.4" style="stroke:#181818;stroke-width:0.4000000000000001;"/><path d="M44,804.3484 L44,825.9484 M33.6,810.7484 L54.4,810.7484 M44,825.9484 L33.6,837.9484 M44,825.9484 L54.4,837.9484 " fill="none" style="stroke:#181818;stroke-width:0.4000000000000001;"/><rect fill="#E2E2F0" height="26.0969" rx="2" ry="2" style="stroke:#181818;stroke-width:0.4000000000000001;" width="118.4" x="129.6" y="40"/><text fill="#000000" font-family="sans-serif" font-size="11.2" lengthAdjust="spacing" textLength="107.2" x="135.2" y="57.6859">ArchiveBoardHandler</text><rect fill="#E2E2F0" height="26.0969" rx="2" ry="2" style="stroke:#181818;stroke-width:0.4000000000000001;" width="118.4" x="129.6" y="776.2516"/><text fill="#000000" font-family="sans-serif" font-size="11.2" lengthAdjust="spacing" textLength="107.2" x="135.2" y="793.9375">ArchiveBoardHandler</text><rect fill="#E2E2F0" height="26.0969" rx="2" ry="2" style="stroke:#181818;stroke-width:0.4000000000000001;" width="67.2" x="408.8" y="40"/><text fill="#000000" font-family="sans-serif" font-size="11.2" lengthAdjust="spacing" textLength="56" x="414.4" y="57.6859">SBProtocol</text><rect fill="#E2E2F0" height="26.0969" rx="2" ry="2" style="stroke:#181818;stroke-width:0.4000000000000001;" width="67.2" x="408.8" y="776.2516"/><text fill="#000000" font-family="sans-serif" font-size="11.2" lengthAdjust="spacing" textLength="56" x="414.4" y="793.9375">SBProtocol</text><rect fill="#E2E2F0" height="26.0969" rx="2" ry="2" style="stroke:#181818;stroke-width:0.4000000000000001;" width="79.2" x="484" y="40"/><text fill="#000000" font-family="sans-serif" font-size="11.2" lengthAdjust="spacing" textLength="68" x="489.6" y="57.6859">BoardService</text><rect fill="#E2E2F0" height="26.0969" rx="2" ry="2" style="stroke:#181818;stroke-width:0.4000000000000001;" width="79.2" x="484" y="776.2516"/><text fill="#000000" font-family="sans-serif" font-size="11.2" lengthAdjust="spacing" textLength="68" x="489.6" y="793.9375">BoardService</text><rect fill="#E2E2F0" height="26.0969" rx="2" ry="2" style="stroke:#181818;stroke-width:0.4000000000000001;" width="40" x="571.2" y="40"/><text fill="#000000" font-family="sans-serif" font-size="11.2" lengthAdjust="spacing" textLength="28.8" x="576.8" y="57.6859">Client</text><rect fill="#E2E2F0" height="26.0969" rx="2" ry="2" style="stroke:#181818;stroke-width:0.4000000000000001;" width="40" x="571.2" y="776.2516"/><text fill="#000000" font-family="sans-serif" font-size="11.2" lengthAdjust="spacing" textLength="28.8" x="576.8" y="793.9375">Client</text><rect fill="#E2E2F0" height="26.0969" rx="2" ry="2" style="stroke:#181818;stroke-width:0.4000000000000001;" width="41.6" x="619.2" y="40"/><text fill="#000000" font-family="sans-serif" font-size="11.2" lengthAdjust="spacing" textLength="30.4" x="624.8" y="57.6859">Board</text><rect fill="#E2E2F0" height="26.0969" rx="2" ry="2" style="stroke:#181818;stroke-width:0.4000000000000001;" width="41.6" x="619.2" y="776.2516"/><text fill="#000000" font-family="sans-serif" font-size="11.2" lengthAdjust="spacing" textLength="30.4" x="624.8" y="793.9375">Board</text><text fill="#000000" font-family="sans-serif" font-size="11.2" lengthAdjust="spacing" textLength="84.8" x="668.8" y="64.0859">BoardRepository</text><path d="M699.2,23.2 C699.2,15.2 713.6,15.2 713.6,15.2 C713.6,15.2 728,15.2 728,23.2 L728,44 C728,52 713.6,52 713.6,52 C713.6,52 699.2,52 699.2,44 L699.2,23.2 " fill="#E2E2F0" style="stroke:#181818;stroke-width:1.2000000000000002;"/><path d="M699.2,23.2 C699.2,31.2 713.6,31.2 713.6,31.2 C713.6,31.2 728,31.2 728,23.2 " fill="none" style="stroke:#181818;stroke-width:1.2000000000000002;"/><text fill="#000000" font-family="sans-serif" font-size="11.2" lengthAdjust="spacing" textLength="84.8" x="668.8" y="788.3375">BoardRepository</text><path d="M699.2,799.1484 C699.2,791.1484 713.6,791.1484 713.6,791.1484 C713.6,791.1484 728,791.1484 728,799.1484 L728,819.9484 C728,827.9484 713.6,827.9484 713.6,827.9484 C713.6,827.9484 699.2,827.9484 699.2,819.9484 L699.2,799.1484 " fill="#E2E2F0" style="stroke:#181818;stroke-width:1.2000000000000002;"/><path d="M699.2,799.1484 C699.2,807.1484 713.6,807.1484 713.6,807.1484 C713.6,807.1484 728,807.1484 728,799.1484 " fill="none" style="stroke:#181818;stroke-width:1.2000000000000002;"/><rect fill="#FFFFFF" height="694.9547" style="stroke:#181818;stroke-width:0.8000000000000002;" width="8" x="40" y="74.8969"/><rect fill="#FFFFFF" height="58.3492" style="stroke:#181818;stroke-width:0.8000000000000002;" width="8" x="184.8" y="102.8461"/><rect fill="#FFFFFF" height="567.107" style="stroke:#181818;stroke-width:0.8000000000000002;" width="8" x="184.8" y="195.5445"/><rect fill="#FFFFFF" height="54.8656" style="stroke:#181818;stroke-width:0.8000000000000002;" width="8" x="438.4" y="364.425"/><rect fill="#FFFFFF" height="25.0328" style="stroke:#181818;stroke-width:0.8000000000000002;" width="8" x="438.4" y="444.3234"/><rect fill="#FFFFFF" height="62.0656" style="stroke:#181818;stroke-width:0.8000000000000002;" width="8" x="438.4" y="707.7859"/><rect fill="#FFFFFF" height="24" style="stroke:#181818;stroke-width:0.8000000000000002;" width="8" x="519.6" y="137.1953"/><rect fill="#FFFFFF" height="25.0328" style="stroke:#181818;stroke-width:0.8000000000000002;" width="8" x="519.6" y="278.9266"/><rect fill="#FFFFFF" height="25.0328" style="stroke:#181818;stroke-width:0.8000000000000002;" width="8" x="519.6" y="622.2875"/><rect fill="#FFFFFF" height="24" style="stroke:#181818;stroke-width:0.8000000000000002;" width="8" x="587.2" y="229.8938"/><rect fill="#FFFFFF" height="24" style="stroke:#181818;stroke-width:0.8000000000000002;" width="8" x="636" y="524.2219"/><rect fill="#FFFFFF" height="24" style="stroke:#181818;stroke-width:0.8000000000000002;" width="8" x="709.6" y="573.2547"/><polygon fill="#181818" points="175.2,99.6461,183.2,102.8461,175.2,106.0461,178.4,102.8461" style="stroke:#181818;stroke-width:0.8000000000000002;"/><line style="stroke:#181818;stroke-width:0.8000000000000002;" x1="48" x2="180" y1="102.8461" y2="102.8461"/><text fill="#000000" font-family="sans-serif" font-size="10.4" lengthAdjust="spacing" textLength="121.6" x="53.6" y="98.6359">create(sock,codeRequest)</text><path d="M196.8,78.8969 L196.8,114.0969 L330.4,114.0969 L330.4,86.8969 L322.4,78.8969 L196.8,78.8969 " fill="#FEFFDD" style="stroke:#181818;stroke-width:0.4000000000000001;"/><path d="M322.4,78.8969 L322.4,86.8969 L330.4,86.8969 L322.4,78.8969 " fill="#FEFFDD" style="stroke:#181818;stroke-width:0.4000000000000001;"/><text fill="#000000" font-family="sans-serif" font-size="10.4" lengthAdjust="spacing" textLength="100.8" x="201.6" y="94.1195">receives a socket and</text><text fill="#000000" font-family="sans-serif" font-size="10.4" lengthAdjust="spacing" textLength="116.8" x="201.6" y="107.9523">SBProtocol codeRequest</text><polygon fill="#181818" points="510,133.9953,518,137.1953,510,140.3953,513.2,137.1953" style="stroke:#181818;stroke-width:0.8000000000000002;"/><line style="stroke:#181818;stroke-width:0.8000000000000002;" x1="192.8" x2="514.8" y1="137.1953" y2="137.1953"/><text fill="#000000" font-family="sans-serif" font-size="10.4" lengthAdjust="spacing" textLength="35.2" x="198.4" y="132.9852">create()</text><polygon fill="#181818" points="175.2,192.3445,183.2,195.5445,175.2,198.7445,178.4,195.5445" style="stroke:#181818;stroke-width:0.8000000000000002;"/><line style="stroke:#181818;stroke-width:0.8000000000000002;" x1="48" x2="180" y1="195.5445" y2="195.5445"/><text fill="#000000" font-family="sans-serif" font-size="10.4" lengthAdjust="spacing" textLength="20.8" x="53.6" y="191.3344">run()</text><path d="M196.8,171.5953 L196.8,206.7953 L379.2,206.7953 L379.2,179.5953 L371.2,171.5953 L196.8,171.5953 " fill="#FEFFDD" style="stroke:#181818;stroke-width:0.4000000000000001;"/><path d="M371.2,171.5953 L371.2,179.5953 L379.2,179.5953 L371.2,171.5953 " fill="#FEFFDD" style="stroke:#181818;stroke-width:0.4000000000000001;"/><text fill="#000000" font-family="sans-serif" font-size="10.4" lengthAdjust="spacing" textLength="150.4" x="201.6" y="186.818">create DataInputStream as "inS"</text><text fill="#000000" font-family="sans-serif" font-size="10.4" lengthAdjust="spacing" textLength="165.6" x="201.6" y="200.6508">create DataOutputStream as "outS"</text><polygon fill="#181818" points="577.6,226.6938,585.6,229.8938,577.6,233.0938,580.8,229.8938" style="stroke:#181818;stroke-width:0.8000000000000002;"/><line style="stroke:#181818;stroke-width:0.8000000000000002;" x1="192.8" x2="582.4" y1="229.8938" y2="229.8938"/><text fill="#000000" font-family="sans-serif" font-size="10.4" lengthAdjust="spacing" textLength="124" x="198.4" y="225.6836">owner = getUserLoggedIn()</text><polygon fill="#181818" points="510,275.7266,518,278.9266,510,282.1266,513.2,278.9266" style="stroke:#181818;stroke-width:0.8000000000000002;"/><line style="stroke:#181818;stroke-width:0.8000000000000002;" x1="192.8" x2="514.8" y1="278.9266" y2="278.9266"/><text fill="#000000" font-family="sans-serif" font-size="10.4" lengthAdjust="spacing" textLength="183.2" x="198.4" y="274.7164">listBoardsUserOwnsNotArchived(owner)</text><polygon fill="#181818" points="201.6,300.7594,193.6,303.9594,201.6,307.1594,198.4,303.9594" style="stroke:#181818;stroke-width:0.8000000000000002;"/><line style="stroke:#181818;stroke-width:0.8000000000000002;" x1="196.8" x2="522.8" y1="303.9594" y2="303.9594"/><text fill="#000000" font-family="sans-serif" font-size="10.4" lengthAdjust="spacing" textLength="31.2" x="206.4" y="299.7492">boards</text><line style="stroke:#181818;stroke-width:0.8000000000000002;" x1="192.8" x2="226.4" y1="328.9922" y2="328.9922"/><line style="stroke:#181818;stroke-width:0.8000000000000002;" x1="226.4" x2="226.4" y1="328.9922" y2="339.3922"/><line style="stroke:#181818;stroke-width:0.8000000000000002;" x1="193.6" x2="226.4" y1="339.3922" y2="339.3922"/><polygon fill="#181818" points="201.6,336.1922,193.6,339.3922,201.6,342.5922,198.4,339.3922" style="stroke:#181818;stroke-width:0.8000000000000002;"/><text fill="#000000" font-family="sans-serif" font-size="10.4" lengthAdjust="spacing" textLength="156" x="198.4" y="324.782">sendBoardOwned(builder, boards)</text><polygon fill="#181818" points="428.8,361.225,436.8,364.425,428.8,367.625,432,364.425" style="stroke:#181818;stroke-width:0.8000000000000002;"/><line style="stroke:#181818;stroke-width:0.8000000000000002;" x1="192.8" x2="433.6" y1="364.425" y2="364.425"/><text fill="#000000" font-family="sans-serif" font-size="10.4" lengthAdjust="spacing" textLength="35.2" x="198.4" y="360.2148">create()</text><path d="M196.8,374.825 L196.8,396.425 L330.4,396.425 L330.4,382.825 L322.4,374.825 L196.8,374.825 " fill="#FEFFDD" style="stroke:#181818;stroke-width:0.4000000000000001;"/><path d="M322.4,374.825 L322.4,382.825 L330.4,382.825 L322.4,374.825 " fill="#FEFFDD" style="stroke:#181818;stroke-width:0.4000000000000001;"/><text fill="#000000" font-family="sans-serif" font-size="10.4" lengthAdjust="spacing" textLength="116.8" x="201.6" y="390.0477">append boards into string</text><polygon fill="#181818" points="432.8,416.0906,440.8,419.2906,432.8,422.4906,436,419.2906" style="stroke:#181818;stroke-width:0.8000000000000002;"/><line style="stroke:#181818;stroke-width:0.8000000000000002;" x1="192.8" x2="437.6" y1="419.2906" y2="419.2906"/><text fill="#000000" font-family="sans-serif" font-size="10.4" lengthAdjust="spacing" textLength="50.4" x="198.4" y="415.0805">send(outS)</text><polygon fill="#181818" points="428.8,441.1234,436.8,444.3234,428.8,447.5234,432,444.3234" style="stroke:#181818;stroke-width:0.8000000000000002;"/><line style="stroke:#181818;stroke-width:0.8000000000000002;" x1="192.8" x2="433.6" y1="444.3234" y2="444.3234"/><text fill="#000000" font-family="sans-serif" font-size="10.4" lengthAdjust="spacing" textLength="50.4" x="198.4" y="440.1133">create(inS)</text><polygon fill="#181818" points="201.6,466.1563,193.6,469.3563,201.6,472.5563,198.4,469.3563" style="stroke:#181818;stroke-width:0.8000000000000002;"/><line style="stroke:#181818;stroke-width:0.8000000000000002;stroke-dasharray:2.0,2.0;" x1="196.8" x2="441.6" y1="469.3563" y2="469.3563"/><text fill="#000000" font-family="sans-serif" font-size="10.4" lengthAdjust="spacing" textLength="52.8" x="206.4" y="465.1461">boardName</text><path d="M196.8,479.7563 L196.8,501.3563 L466.4,501.3563 L466.4,487.7563 L458.4,479.7563 L196.8,479.7563 " fill="#FEFFDD" style="stroke:#181818;stroke-width:0.4000000000000001;"/><path d="M458.4,479.7563 L458.4,487.7563 L466.4,487.7563 L458.4,479.7563 " fill="#FEFFDD" style="stroke:#181818;stroke-width:0.4000000000000001;"/><text fill="#000000" font-family="sans-serif" font-size="10.4" lengthAdjust="spacing" textLength="252.8" x="201.6" y="494.9789">SBPServerApp as boards, get board with "boardName"</text><polygon fill="#181818" points="626.4,521.0219,634.4,524.2219,626.4,527.4219,629.6,524.2219" style="stroke:#181818;stroke-width:0.8000000000000002;"/><line style="stroke:#181818;stroke-width:0.8000000000000002;" x1="192.8" x2="631.2" y1="524.2219" y2="524.2219"/><text fill="#000000" font-family="sans-serif" font-size="10.4" lengthAdjust="spacing" textLength="65.6" x="198.4" y="520.0117">archiveBoard()</text><polygon fill="#181818" points="700,570.0547,708,573.2547,700,576.4547,703.2,573.2547" style="stroke:#181818;stroke-width:0.8000000000000002;"/><line style="stroke:#181818;stroke-width:0.8000000000000002;" x1="192.8" x2="704.8" y1="573.2547" y2="573.2547"/><text fill="#000000" font-family="sans-serif" font-size="10.4" lengthAdjust="spacing" textLength="52.8" x="198.4" y="569.0445">save(board)</text><polygon fill="#181818" points="510,619.0875,518,622.2875,510,625.4875,513.2,622.2875" style="stroke:#181818;stroke-width:0.8000000000000002;"/><line style="stroke:#181818;stroke-width:0.8000000000000002;" x1="192.8" x2="514.8" y1="622.2875" y2="622.2875"/><text fill="#000000" font-family="sans-serif" font-size="10.4" lengthAdjust="spacing" textLength="167.2" x="198.4" y="618.0773">listBoardsUserOwnsArchived(owner)</text><polygon fill="#181818" points="201.6,644.1203,193.6,647.3203,201.6,650.5203,198.4,647.3203" style="stroke:#181818;stroke-width:0.8000000000000002;"/><line style="stroke:#181818;stroke-width:0.8000000000000002;" x1="196.8" x2="522.8" y1="647.3203" y2="647.3203"/><text fill="#000000" font-family="sans-serif" font-size="10.4" lengthAdjust="spacing" textLength="31.2" x="206.4" y="643.1102">boards</text><line style="stroke:#181818;stroke-width:0.8000000000000002;" x1="192.8" x2="226.4" y1="672.3531" y2="672.3531"/><line style="stroke:#181818;stroke-width:0.8000000000000002;" x1="226.4" x2="226.4" y1="672.3531" y2="682.7531"/><line style="stroke:#181818;stroke-width:0.8000000000000002;" x1="193.6" x2="226.4" y1="682.7531" y2="682.7531"/><polygon fill="#181818" points="201.6,679.5531,193.6,682.7531,201.6,685.9531,198.4,682.7531" style="stroke:#181818;stroke-width:0.8000000000000002;"/><text fill="#000000" font-family="sans-serif" font-size="10.4" lengthAdjust="spacing" textLength="234.4" x="198.4" y="668.143">sendBoardOwned(builderArchived, boardsArchived)</text><polygon fill="#181818" points="428.8,704.5859,436.8,707.7859,428.8,710.9859,432,707.7859" style="stroke:#181818;stroke-width:0.8000000000000002;"/><line style="stroke:#181818;stroke-width:0.8000000000000002;" x1="192.8" x2="433.6" y1="707.7859" y2="707.7859"/><text fill="#000000" font-family="sans-serif" font-size="10.4" lengthAdjust="spacing" textLength="35.2" x="198.4" y="703.5758">create()</text><path d="M196.8,718.1859 L196.8,739.7859 L336,739.7859 L336,726.1859 L328,718.1859 L196.8,718.1859 " fill="#FEFFDD" style="stroke:#181818;stroke-width:0.4000000000000001;"/><path d="M328,718.1859 L328,726.1859 L336,726.1859 L328,718.1859 " fill="#FEFFDD" style="stroke:#181818;stroke-width:0.4000000000000001;"/><text fill="#000000" font-family="sans-serif" font-size="10.4" lengthAdjust="spacing" textLength="122.4" x="201.6" y="733.4086">appends boards into string</text><polygon fill="#181818" points="428.8,759.4516,436.8,762.6516,428.8,765.8516,432,762.6516" style="stroke:#181818;stroke-width:0.8000000000000002;"/><line style="stroke:#181818;stroke-width:0.8000000000000002;" x1="188.8" x2="433.6" y1="762.6516" y2="762.6516"/><text fill="#000000" font-family="sans-serif" font-size="10.4" lengthAdjust="spacing" textLength="50.4" x="194.4" y="758.4414">send(outS)</text><!--SRC=[jLJ1RjmW4BtxAqO-UQND3qHgfAGz95ALL5db5Yd2CF6YEa01UzM_xu2DryxYRXEfN6ncXdbl7iCmxhM5tSsF7TeUxRKnm1ouk2cAmZ3h9PU6AG_NbkzbZpUQMN7Bb6ZHXjZzyBi8fNnMUyrr6xFLPk6D6GAUv1ZzFL_ulxOIwKCU_jAvTwdZuU2h2y4ygvd3mVQ8HZj9rVoEtXSxxQaEnhticSTKsV21Yoj8_2-1MwI8ocd-Sykrm4VyrQ7pcm9eAKs7hMps7Yx18aTImW6348t4LObdDQjwTZuUd_2JMZ2kSH-Oa0mmiTXC4KVg95Co2Zmnpqnpa6Eb2OhuTwhAb3L0mpUIzKwPpkyy6Tw2cgLKk_9PpG8UEh-CqBGhYtykThXP0jK7HTylqA1_8ijttJGexWA_KmN6TiY8C7fMPMsbyx5BN01vE2Xth_tOqAAA7Cue7hMaL0iXwvXoxLR2oX0w7dUeH6H5X8X6tSbMeDsEQJVPQchpzoQXjvQCiylLhyS-PyOGxWW2KdaDpbkfcc8TC32jmXLliiKIw5cor49d-8RmYrDzxzaRdaLTgVNzO1kAtePk6_xX8FqUoWcep1PI4nSs6tyvvUiSnpgVRZQSWhYinoeooAMT3x8SmcBGhOwLqmVm_xl_4xsVIAKtaFOVU0iVVmhkqs-1LcRinlK7]--></g></svg>