<?xml version="1.0" encoding="us-ascii" standalone="no"?><svg xmlns="http://www.w3.org/2000/svg" xmlns:xlink="http://www.w3.org/1999/xlink" contentStyleType="text/css" height="846px" preserveAspectRatio="none" style="width:1116px;height:846px;background:#FFFFFF;" version="1.1" viewBox="0 0 1116 846" width="1116px" zoomAndPan="magnify"><defs/><g><rect fill="#FFFFFF" height="608.1113" style="stroke:#181818;stroke-width:1.0;" width="10" x="194.5" y="121.5332"/><rect fill="#FFFFFF" height="399.7832" style="stroke:#181818;stroke-width:1.0;" width="10" x="372.5" y="281.2793"/><rect fill="#FFFFFF" height="84.582" style="stroke:#181818;stroke-width:1.0;" width="10" x="583.5" y="329.8613"/><rect fill="#FFFFFF" height="28" style="stroke:#181818;stroke-width:1.0;" width="10" x="588.5" y="386.4434"/><rect fill="#FFFFFF" height="93.873" style="stroke:#181818;stroke-width:1.0;" width="10" x="780.5" y="524.6074"/><rect fill="#FFFFFF" height="62.582" style="stroke:#181818;stroke-width:1.0;" width="10" x="923.5" y="555.8984"/><rect fill="#FFFFFF" height="62.582" style="stroke:#181818;stroke-width:1.0;" width="10" x="1054.5" y="587.1895"/><line style="stroke:#181818;stroke-width:0.5;stroke-dasharray:5.0,5.0;" x1="45" x2="45" y1="88.2422" y2="747.6445"/><line style="stroke:#181818;stroke-width:0.5;stroke-dasharray:5.0,5.0;" x1="199" x2="199" y1="88.2422" y2="747.6445"/><line style="stroke:#181818;stroke-width:0.5;stroke-dasharray:5.0,5.0;" x1="377" x2="377" y1="88.2422" y2="747.6445"/><line style="stroke:#181818;stroke-width:0.5;stroke-dasharray:5.0,5.0;" x1="588" x2="588" y1="88.2422" y2="747.6445"/><line style="stroke:#181818;stroke-width:0.5;stroke-dasharray:5.0,5.0;" x1="785.5" x2="785.5" y1="88.2422" y2="747.6445"/><line style="stroke:#181818;stroke-width:0.5;stroke-dasharray:5.0,5.0;" x1="928.5" x2="928.5" y1="88.2422" y2="747.6445"/><line style="stroke:#181818;stroke-width:0.5;stroke-dasharray:5.0,5.0;" x1="1059.5" x2="1059.5" y1="88.2422" y2="747.6445"/><text fill="#000000" font-family="sans-serif" font-size="14" lengthAdjust="spacing" textLength="75" x="5" y="84.7285">SystemUser</text><ellipse cx="45.5" cy="18.1211" fill="#E2E2F0" rx="8" ry="8" style="stroke:#181818;stroke-width:0.5;"/><path d="M45.5,26.1211 L45.5,53.1211 M32.5,34.1211 L58.5,34.1211 M45.5,53.1211 L32.5,68.1211 M45.5,53.1211 L58.5,68.1211 " fill="none" style="stroke:#181818;stroke-width:0.5;"/><text fill="#000000" font-family="sans-serif" font-size="14" lengthAdjust="spacing" textLength="75" x="5" y="761.752">SystemUser</text><ellipse cx="45.5" cy="773.7656" fill="#E2E2F0" rx="8" ry="8" style="stroke:#181818;stroke-width:0.5;"/><path d="M45.5,781.7656 L45.5,808.7656 M32.5,789.7656 L58.5,789.7656 M45.5,808.7656 L32.5,823.7656 M45.5,808.7656 L58.5,823.7656 " fill="none" style="stroke:#181818;stroke-width:0.5;"/><rect fill="#E2E2F0" height="51.2422" rx="2.5" ry="2.5" style="stroke:#181818;stroke-width:0.5;" width="109" x="145" y="36"/><text fill="#000000" font-family="sans-serif" font-size="14" font-style="italic" lengthAdjust="spacing" textLength="95" x="152" y="58.1074">&#171;presentation&#187;</text><text fill="#000000" font-family="sans-serif" font-size="14" lengthAdjust="spacing" textLength="93" x="153" y="76.7285">CreateBoardUI</text><rect fill="#E2E2F0" height="51.2422" rx="2.5" ry="2.5" style="stroke:#181818;stroke-width:0.5;" width="109" x="145" y="746.6445"/><text fill="#000000" font-family="sans-serif" font-size="14" font-style="italic" lengthAdjust="spacing" textLength="95" x="152" y="768.752">&#171;presentation&#187;</text><text fill="#000000" font-family="sans-serif" font-size="14" lengthAdjust="spacing" textLength="93" x="153" y="787.373">CreateBoardUI</text><rect fill="#E2E2F0" height="51.2422" rx="2.5" ry="2.5" style="stroke:#181818;stroke-width:0.5;" width="157" x="299" y="36"/><text fill="#000000" font-family="sans-serif" font-size="14" font-style="italic" lengthAdjust="spacing" textLength="84" x="335.5" y="58.1074">&#171;application&#187;</text><text fill="#000000" font-family="sans-serif" font-size="14" lengthAdjust="spacing" textLength="143" x="306" y="76.7285">CreateBoardController</text><rect fill="#E2E2F0" height="51.2422" rx="2.5" ry="2.5" style="stroke:#181818;stroke-width:0.5;" width="157" x="299" y="746.6445"/><text fill="#000000" font-family="sans-serif" font-size="14" font-style="italic" lengthAdjust="spacing" textLength="84" x="335.5" y="768.752">&#171;application&#187;</text><text fill="#000000" font-family="sans-serif" font-size="14" lengthAdjust="spacing" textLength="143" x="306" y="787.373">CreateBoardController</text><rect fill="#E2E2F0" height="51.2422" rx="2.5" ry="2.5" style="stroke:#181818;stroke-width:0.5;" width="93" x="542" y="36"/><text fill="#000000" font-family="sans-serif" font-size="14" font-style="italic" lengthAdjust="spacing" textLength="62" x="557.5" y="58.1074">&#171;domain&#187;</text><text fill="#000000" font-family="sans-serif" font-size="14" lengthAdjust="spacing" textLength="79" x="549" y="76.7285">board:Board</text><rect fill="#E2E2F0" height="51.2422" rx="2.5" ry="2.5" style="stroke:#181818;stroke-width:0.5;" width="93" x="542" y="746.6445"/><text fill="#000000" font-family="sans-serif" font-size="14" font-style="italic" lengthAdjust="spacing" textLength="62" x="557.5" y="768.752">&#171;domain&#187;</text><text fill="#000000" font-family="sans-serif" font-size="14" lengthAdjust="spacing" textLength="79" x="549" y="787.373">board:Board</text><rect fill="#E2E2F0" height="51.2422" rx="2.5" ry="2.5" style="stroke:#181818;stroke-width:0.5;" width="136" x="717.5" y="36"/><text fill="#000000" font-family="sans-serif" font-size="14" font-style="italic" lengthAdjust="spacing" textLength="89" x="741" y="58.1074">&#171;persistence&#187;</text><text fill="#000000" font-family="sans-serif" font-size="14" lengthAdjust="spacing" textLength="122" x="724.5" y="76.7285">PersistenceContext</text><rect fill="#E2E2F0" height="51.2422" rx="2.5" ry="2.5" style="stroke:#181818;stroke-width:0.5;" width="136" x="717.5" y="746.6445"/><text fill="#000000" font-family="sans-serif" font-size="14" font-style="italic" lengthAdjust="spacing" textLength="89" x="741" y="768.752">&#171;persistence&#187;</text><text fill="#000000" font-family="sans-serif" font-size="14" lengthAdjust="spacing" textLength="122" x="724.5" y="787.373">PersistenceContext</text><rect fill="#E2E2F0" height="51.2422" rx="2.5" ry="2.5" style="stroke:#181818;stroke-width:0.5;" width="130" x="863.5" y="36"/><text fill="#000000" font-family="sans-serif" font-size="14" font-style="italic" lengthAdjust="spacing" textLength="59" x="899" y="58.1074">&#171;factory&#187;</text><text fill="#000000" font-family="sans-serif" font-size="14" lengthAdjust="spacing" textLength="116" x="870.5" y="76.7285">RepositoryFactory</text><rect fill="#E2E2F0" height="51.2422" rx="2.5" ry="2.5" style="stroke:#181818;stroke-width:0.5;" width="130" x="863.5" y="746.6445"/><text fill="#000000" font-family="sans-serif" font-size="14" font-style="italic" lengthAdjust="spacing" textLength="59" x="899" y="768.752">&#171;factory&#187;</text><text fill="#000000" font-family="sans-serif" font-size="14" lengthAdjust="spacing" textLength="116" x="870.5" y="787.373">RepositoryFactory</text><text fill="#000000" font-family="sans-serif" font-size="14" font-style="italic" lengthAdjust="spacing" textLength="79" x="1017" y="66.1074">&#171;repository&#187;</text><text fill="#000000" font-family="sans-serif" font-size="14" lengthAdjust="spacing" textLength="106" x="1003.5" y="84.7285">BoardRepository</text><path d="M1041.5,15 C1041.5,5 1059.5,5 1059.5,5 C1059.5,5 1077.5,5 1077.5,15 L1077.5,41 C1077.5,51 1059.5,51 1059.5,51 C1059.5,51 1041.5,51 1041.5,41 L1041.5,15 " fill="#E2E2F0" style="stroke:#181818;stroke-width:1.5;"/><path d="M1041.5,15 C1041.5,25 1059.5,25 1059.5,25 C1059.5,25 1077.5,25 1077.5,15 " fill="none" style="stroke:#181818;stroke-width:1.5;"/><text fill="#000000" font-family="sans-serif" font-size="14" font-style="italic" lengthAdjust="spacing" textLength="79" x="1017" y="761.752">&#171;repository&#187;</text><text fill="#000000" font-family="sans-serif" font-size="14" lengthAdjust="spacing" textLength="106" x="1003.5" y="780.373">BoardRepository</text><path d="M1041.5,793.8867 C1041.5,783.8867 1059.5,783.8867 1059.5,783.8867 C1059.5,783.8867 1077.5,783.8867 1077.5,793.8867 L1077.5,819.8867 C1077.5,829.8867 1059.5,829.8867 1059.5,829.8867 C1059.5,829.8867 1041.5,829.8867 1041.5,819.8867 L1041.5,793.8867 " fill="#E2E2F0" style="stroke:#181818;stroke-width:1.5;"/><path d="M1041.5,793.8867 C1041.5,803.8867 1059.5,803.8867 1059.5,803.8867 C1059.5,803.8867 1077.5,803.8867 1077.5,793.8867 " fill="none" style="stroke:#181818;stroke-width:1.5;"/><rect fill="#FFFFFF" height="608.1113" style="stroke:#181818;stroke-width:1.0;" width="10" x="194.5" y="121.5332"/><rect fill="#FFFFFF" height="399.7832" style="stroke:#181818;stroke-width:1.0;" width="10" x="372.5" y="281.2793"/><rect fill="#FFFFFF" height="84.582" style="stroke:#181818;stroke-width:1.0;" width="10" x="583.5" y="329.8613"/><rect fill="#FFFFFF" height="28" style="stroke:#181818;stroke-width:1.0;" width="10" x="588.5" y="386.4434"/><rect fill="#FFFFFF" height="93.873" style="stroke:#181818;stroke-width:1.0;" width="10" x="780.5" y="524.6074"/><rect fill="#FFFFFF" height="62.582" style="stroke:#181818;stroke-width:1.0;" width="10" x="923.5" y="555.8984"/><rect fill="#FFFFFF" height="62.582" style="stroke:#181818;stroke-width:1.0;" width="10" x="1054.5" y="587.1895"/><polygon fill="#181818" points="182.5,117.5332,192.5,121.5332,182.5,125.5332,186.5,121.5332" style="stroke:#181818;stroke-width:1.0;"/><line style="stroke:#181818;stroke-width:1.0;" x1="45.5" x2="188.5" y1="121.5332" y2="121.5332"/><text fill="#000000" font-family="sans-serif" font-size="13" lengthAdjust="spacing" textLength="74" x="52.5" y="116.2705">create Board</text><polygon fill="#181818" points="365.5,148.8242,375.5,152.8242,365.5,156.8242,369.5,152.8242" style="stroke:#181818;stroke-width:1.0;"/><line style="stroke:#181818;stroke-width:1.0;" x1="204.5" x2="371.5" y1="152.8242" y2="152.8242"/><text fill="#000000" font-family="sans-serif" font-size="13" lengthAdjust="spacing" textLength="36" x="211.5" y="147.5615">create</text><polygon fill="#181818" points="56.5,180.1152,46.5,184.1152,56.5,188.1152,52.5,184.1152" style="stroke:#181818;stroke-width:1.0;"/><line style="stroke:#181818;stroke-width:1.0;stroke-dasharray:2.0,2.0;" x1="50.5" x2="193.5" y1="184.1152" y2="184.1152"/><text fill="#000000" font-family="sans-serif" font-size="13" lengthAdjust="spacing" textLength="117" x="62.5" y="178.8525">ask user information</text><polygon fill="#181818" points="182.5,228.6973,192.5,232.6973,182.5,236.6973,186.5,232.6973" style="stroke:#181818;stroke-width:1.0;"/><line style="stroke:#181818;stroke-width:1.0;" x1="45.5" x2="188.5" y1="232.6973" y2="232.6973"/><text fill="#000000" font-family="sans-serif" font-size="13" lengthAdjust="spacing" textLength="125" x="52.5" y="210.1436">boardTitle, maxRows,</text><text fill="#000000" font-family="sans-serif" font-size="13" lengthAdjust="spacing" textLength="76" x="56.5" y="227.4346">maxColumns</text><polygon fill="#181818" points="360.5,277.2793,370.5,281.2793,360.5,285.2793,364.5,281.2793" style="stroke:#181818;stroke-width:1.0;"/><line style="stroke:#181818;stroke-width:1.0;" x1="204.5" x2="366.5" y1="281.2793" y2="281.2793"/><text fill="#000000" font-family="sans-serif" font-size="13" lengthAdjust="spacing" textLength="134" x="211.5" y="258.7256">createBoard(boardTitle,</text><text fill="#000000" font-family="sans-serif" font-size="13" lengthAdjust="spacing" textLength="145" x="215.5" y="276.0166">maxRows, maxColumns)</text><polygon fill="#181818" points="571.5,325.8613,581.5,329.8613,571.5,333.8613,575.5,329.8613" style="stroke:#181818;stroke-width:1.0;"/><line style="stroke:#181818;stroke-width:1.0;" x1="382.5" x2="577.5" y1="329.8613" y2="329.8613"/><text fill="#000000" font-family="sans-serif" font-size="13" lengthAdjust="spacing" textLength="182" x="389.5" y="307.3076">board = createBoard(boardTitle,</text><text fill="#000000" font-family="sans-serif" font-size="13" lengthAdjust="spacing" textLength="141" x="393.5" y="324.5986">maxRows, maxColumns</text><line style="stroke:#181818;stroke-width:1.0;" x1="598.5" x2="640.5" y1="378.4434" y2="378.4434"/><line style="stroke:#181818;stroke-width:1.0;" x1="640.5" x2="640.5" y1="378.4434" y2="391.4434"/><line style="stroke:#181818;stroke-width:1.0;" x1="599.5" x2="640.5" y1="391.4434" y2="391.4434"/><polygon fill="#181818" points="609.5,387.4434,599.5,391.4434,609.5,395.4434,605.5,391.4434" style="stroke:#181818;stroke-width:1.0;"/><text fill="#000000" font-family="sans-serif" font-size="13" lengthAdjust="spacing" textLength="173" x="605.5" y="355.8896">setUpBoard(cellId, BoardRow,</text><text fill="#000000" font-family="sans-serif" font-size="13" lengthAdjust="spacing" textLength="82" x="609.5" y="373.1807">BoardColumn)</text><path d="M593,434.4434 L593,495.4434 L770,495.4434 L770,444.4434 L760,434.4434 L593,434.4434 " fill="#FEFFDD" style="stroke:#181818;stroke-width:0.5;"/><path d="M760,434.4434 L760,444.4434 L770,444.4434 L760,434.4434 " fill="#FEFFDD" style="stroke:#181818;stroke-width:0.5;"/><text fill="#000000" font-family="sans-serif" font-size="13" lengthAdjust="spacing" textLength="156" x="599" y="453.4717">Board creates all cells with</text><text fill="#000000" font-family="sans-serif" font-size="13" lengthAdjust="spacing" textLength="146" x="603" y="470.7627">the corresponding id from</text><text fill="#000000" font-family="sans-serif" font-size="13" lengthAdjust="spacing" textLength="149" x="603" y="488.0537">the rows and the columns</text><polygon fill="#181818" points="768.5,520.6074,778.5,524.6074,768.5,528.6074,772.5,524.6074" style="stroke:#181818;stroke-width:1.0;"/><line style="stroke:#181818;stroke-width:1.0;" x1="382.5" x2="774.5" y1="524.6074" y2="524.6074"/><text fill="#000000" font-family="sans-serif" font-size="13" lengthAdjust="spacing" textLength="75" x="389.5" y="519.3447">repositories()</text><polygon fill="#181818" points="911.5,551.8984,921.5,555.8984,911.5,559.8984,915.5,555.8984" style="stroke:#181818;stroke-width:1.0;"/><line style="stroke:#181818;stroke-width:1.0;" x1="790.5" x2="917.5" y1="555.8984" y2="555.8984"/><text fill="#000000" font-family="sans-serif" font-size="13" lengthAdjust="spacing" textLength="47" x="797.5" y="550.6357">boards()</text><polygon fill="#181818" points="1042.5,583.1895,1052.5,587.1895,1042.5,591.1895,1046.5,587.1895" style="stroke:#181818;stroke-width:1.0;"/><line style="stroke:#181818;stroke-width:1.0;" x1="933.5" x2="1048.5" y1="587.1895" y2="587.1895"/><text fill="#000000" font-family="sans-serif" font-size="13" lengthAdjust="spacing" textLength="36" x="940.5" y="581.9268">create</text><polygon fill="#181818" points="393.5,614.4805,383.5,618.4805,393.5,622.4805,389.5,618.4805" style="stroke:#181818;stroke-width:1.0;"/><line style="stroke:#181818;stroke-width:1.0;stroke-dasharray:2.0,2.0;" x1="387.5" x2="784.5" y1="618.4805" y2="618.4805"/><text fill="#000000" font-family="sans-serif" font-size="13" lengthAdjust="spacing" textLength="94" x="399.5" y="613.2178">boardRepository</text><polygon fill="#181818" points="1047.5,645.7715,1057.5,649.7715,1047.5,653.7715,1051.5,649.7715" style="stroke:#181818;stroke-width:1.0;"/><line style="stroke:#181818;stroke-width:1.0;" x1="382.5" x2="1053.5" y1="649.7715" y2="649.7715"/><text fill="#000000" font-family="sans-serif" font-size="13" lengthAdjust="spacing" textLength="115" x="389.5" y="644.5088">persistBoard(Board)</text><polygon fill="#181818" points="215.5,677.0625,205.5,681.0625,215.5,685.0625,211.5,681.0625" style="stroke:#181818;stroke-width:1.0;"/><line style="stroke:#181818;stroke-width:1.0;stroke-dasharray:2.0,2.0;" x1="209.5" x2="376.5" y1="681.0625" y2="681.0625"/><text fill="#000000" font-family="sans-serif" font-size="13" lengthAdjust="spacing" textLength="32" x="221.5" y="675.7998">board</text><polygon fill="#181818" points="56.5,725.6445,46.5,729.6445,56.5,733.6445,52.5,729.6445" style="stroke:#181818;stroke-width:1.0;"/><line style="stroke:#181818;stroke-width:1.0;stroke-dasharray:2.0,2.0;" x1="50.5" x2="198.5" y1="729.6445" y2="729.6445"/><text fill="#000000" font-family="sans-serif" font-size="13" lengthAdjust="spacing" textLength="65" x="62.5" y="707.0908">Success of</text><text fill="#000000" font-family="sans-serif" font-size="13" lengthAdjust="spacing" textLength="78" x="62.5" y="724.3818">the Operation</text><!--SRC=[dLHDRnen4BtlhnZb52Guf5y7H95If4gSMeLooyLu1x3msYlRbF3lEsClNczKI5CVTlqnxptFZ6VyGPbMED50A-H1x70LpXh1eGoLpsT-BsfxKcO7Mw4zLfMGmJfOdNt0PktHWV3mo7iL0OAIgXKcmCAX2FZD2bUlbsn2tzciTUZH116KDVCvM5SJ_k4QS65DS5Rhf56iPZFHjbh98S-70S_TXYccaUYEyN56qDesGlMeZmFKJtHUaMT68klXIs1eiSjEzAlCycd0yeIjzOf2SluUetLc4fuIUfjsCl9pLOiWDi9Zkc6FPH2l2EJoPiPzgQeOTPZCERPJa35mYOIJf7xpShsiW0PPa5qHmejzF4r4iyaaCGb_W2DdLfcjTKsCSc5t4Om1_gM2nZ4qukN9dlpusV1qOVMnCVwsShpeVK6Ii96c81b5bknFJnJt2rvIIIdkRWPVtoSK-IuZwwLmbaT9f53p6DPj4f6ezR8UTvcq9vRgdZ9hZ0P4nXA_Kxjz0BkziALVkhW7eJKmfuUJ2diY2ti4QHsLKMjDpLMfQjWwstHdZfm2OUhEy5sErVY_X-KOPgIid2daPwpGtu-kKcIb0dtLk5GWmLXbtGlu9mq6NBNY4Hc9EPRYe6pUv6R8JSkofr7r5RvqBlJTu2PFaPqt_Ibi_nRVOVuwfxkMbnvv_FQHBVYolzpioPz1rM_oioaGHJc_QaAhevJeFPV6i-7N_8CkaLfHWQVsLlq1]--></g></svg>