<?xml version="1.0" encoding="us-ascii" standalone="no"?><svg xmlns="http://www.w3.org/2000/svg" xmlns:xlink="http://www.w3.org/1999/xlink" contentStyleType="text/css" height="1196px" preserveAspectRatio="none" style="width:1114px;height:1196px;background:#FFFFFF;" version="1.1" viewBox="0 0 1114 1196" width="1114px" zoomAndPan="magnify"><defs/><g><rect fill="#FFFFFF" height="957.8945" style="stroke:#181818;stroke-width:1.0;" width="10" x="190.5" y="121.5332"/><rect fill="#FFFFFF" height="601.8203" style="stroke:#181818;stroke-width:1.0;" width="10" x="341.5" y="446.3164"/><rect fill="#FFFFFF" height="128.4551" style="stroke:#181818;stroke-width:1.0;" width="10" x="512.5" y="632.0625"/><rect fill="#FFFFFF" height="99.873" style="stroke:#181818;stroke-width:1.0;" width="10" x="787.5" y="791.8086"/><rect fill="#FFFFFF" height="62.582" style="stroke:#181818;stroke-width:1.0;" width="10" x="930.5" y="922.9727"/><rect fill="none" height="99.1641" style="stroke:#000000;stroke-width:1.5;" width="250" x="10" y="264.9883"/><line style="stroke:#181818;stroke-width:0.5;stroke-dasharray:5.0,5.0;" x1="42" x2="42" y1="88.2422" y2="1097.4277"/><line style="stroke:#181818;stroke-width:0.5;stroke-dasharray:5.0,5.0;" x1="195" x2="195" y1="88.2422" y2="1097.4277"/><line style="stroke:#181818;stroke-width:0.5;stroke-dasharray:5.0,5.0;" x1="346.5" x2="346.5" y1="88.2422" y2="1097.4277"/><line style="stroke:#181818;stroke-width:0.5;stroke-dasharray:5.0,5.0;" x1="517" x2="517" y1="88.2422" y2="1097.4277"/><line style="stroke:#181818;stroke-width:0.5;stroke-dasharray:5.0,5.0;" x1="676.5" x2="676.5" y1="88.2422" y2="1097.4277"/><line style="stroke:#181818;stroke-width:0.5;stroke-dasharray:5.0,5.0;" x1="792.5" x2="792.5" y1="88.2422" y2="1097.4277"/><line style="stroke:#181818;stroke-width:0.5;stroke-dasharray:5.0,5.0;" x1="935.5" x2="935.5" y1="88.2422" y2="1097.4277"/><line style="stroke:#181818;stroke-width:0.5;stroke-dasharray:5.0,5.0;" x1="1061.5" x2="1061.5" y1="88.2422" y2="1097.4277"/><text fill="#000000" font-family="sans-serif" font-size="14" lengthAdjust="spacing" textLength="39" x="20" y="84.7285">Admin</text><ellipse cx="42.5" cy="18.1211" fill="#E2E2F0" rx="8" ry="8" style="stroke:#181818;stroke-width:0.5;"/><path d="M42.5,26.1211 L42.5,53.1211 M29.5,34.1211 L55.5,34.1211 M42.5,53.1211 L29.5,68.1211 M42.5,53.1211 L55.5,68.1211 " fill="none" style="stroke:#181818;stroke-width:0.5;"/><text fill="#000000" font-family="sans-serif" font-size="14" lengthAdjust="spacing" textLength="39" x="20" y="1111.5352">Admin</text><ellipse cx="42.5" cy="1123.5488" fill="#E2E2F0" rx="8" ry="8" style="stroke:#181818;stroke-width:0.5;"/><path d="M42.5,1131.5488 L42.5,1158.5488 M29.5,1139.5488 L55.5,1139.5488 M42.5,1158.5488 L29.5,1173.5488 M42.5,1158.5488 L55.5,1173.5488 " fill="none" style="stroke:#181818;stroke-width:0.5;"/><rect fill="#E2E2F0" height="51.2422" rx="2.5" ry="2.5" style="stroke:#181818;stroke-width:0.5;" width="109" x="141" y="36"/><text fill="#000000" font-family="sans-serif" font-size="14" font-style="italic" lengthAdjust="spacing" textLength="95" x="148" y="58.1074">&#171;presentation&#187;</text><text fill="#000000" font-family="sans-serif" font-size="14" lengthAdjust="spacing" textLength="66" x="162.5" y="76.7285">AddUserUI</text><rect fill="#E2E2F0" height="51.2422" rx="2.5" ry="2.5" style="stroke:#181818;stroke-width:0.5;" width="109" x="141" y="1096.4277"/><text fill="#000000" font-family="sans-serif" font-size="14" font-style="italic" lengthAdjust="spacing" textLength="95" x="148" y="1118.5352">&#171;presentation&#187;</text><text fill="#000000" font-family="sans-serif" font-size="14" lengthAdjust="spacing" textLength="66" x="162.5" y="1137.1563">AddUserUI</text><rect fill="#E2E2F0" height="51.2422" rx="2.5" ry="2.5" style="stroke:#181818;stroke-width:0.5;" width="130" x="281.5" y="36"/><text fill="#000000" font-family="sans-serif" font-size="14" font-style="italic" lengthAdjust="spacing" textLength="84" x="304.5" y="58.1074">&#171;application&#187;</text><text fill="#000000" font-family="sans-serif" font-size="14" lengthAdjust="spacing" textLength="116" x="288.5" y="76.7285">AddUserController</text><rect fill="#E2E2F0" height="51.2422" rx="2.5" ry="2.5" style="stroke:#181818;stroke-width:0.5;" width="130" x="281.5" y="1096.4277"/><text fill="#000000" font-family="sans-serif" font-size="14" font-style="italic" lengthAdjust="spacing" textLength="84" x="304.5" y="1118.5352">&#171;application&#187;</text><text fill="#000000" font-family="sans-serif" font-size="14" lengthAdjust="spacing" textLength="116" x="288.5" y="1137.1563">AddUserController</text><rect fill="#E2E2F0" height="51.2422" rx="2.5" ry="2.5" style="stroke:#181818;stroke-width:0.5;" width="87" x="474" y="36"/><text fill="#000000" font-family="sans-serif" font-size="14" font-style="italic" lengthAdjust="spacing" textLength="59" x="488" y="58.1074">&#171;builder&#187;</text><text fill="#000000" font-family="sans-serif" font-size="14" lengthAdjust="spacing" textLength="73" x="481" y="76.7285">UserBuilder</text><rect fill="#E2E2F0" height="51.2422" rx="2.5" ry="2.5" style="stroke:#181818;stroke-width:0.5;" width="87" x="474" y="1096.4277"/><text fill="#000000" font-family="sans-serif" font-size="14" font-style="italic" lengthAdjust="spacing" textLength="59" x="488" y="1118.5352">&#171;builder&#187;</text><text fill="#000000" font-family="sans-serif" font-size="14" lengthAdjust="spacing" textLength="73" x="481" y="1137.1563">UserBuilder</text><rect fill="#E2E2F0" height="51.2422" rx="2.5" ry="2.5" style="stroke:#181818;stroke-width:0.5;" width="76" x="638.5" y="36"/><text fill="#000000" font-family="sans-serif" font-size="14" font-style="italic" lengthAdjust="spacing" textLength="62" x="645.5" y="58.1074">&#171;domain&#187;</text><text fill="#000000" font-family="sans-serif" font-size="14" lengthAdjust="spacing" textLength="61" x="646" y="76.7285">user:User</text><rect fill="#E2E2F0" height="51.2422" rx="2.5" ry="2.5" style="stroke:#181818;stroke-width:0.5;" width="76" x="638.5" y="1096.4277"/><text fill="#000000" font-family="sans-serif" font-size="14" font-style="italic" lengthAdjust="spacing" textLength="62" x="645.5" y="1118.5352">&#171;domain&#187;</text><text fill="#000000" font-family="sans-serif" font-size="14" lengthAdjust="spacing" textLength="61" x="646" y="1137.1563">user:User</text><rect fill="#E2E2F0" height="51.2422" rx="2.5" ry="2.5" style="stroke:#181818;stroke-width:0.5;" width="136" x="724.5" y="36"/><text fill="#000000" font-family="sans-serif" font-size="14" font-style="italic" lengthAdjust="spacing" textLength="89" x="748" y="58.1074">&#171;persistence&#187;</text><text fill="#000000" font-family="sans-serif" font-size="14" lengthAdjust="spacing" textLength="122" x="731.5" y="76.7285">PersistenceContext</text><rect fill="#E2E2F0" height="51.2422" rx="2.5" ry="2.5" style="stroke:#181818;stroke-width:0.5;" width="136" x="724.5" y="1096.4277"/><text fill="#000000" font-family="sans-serif" font-size="14" font-style="italic" lengthAdjust="spacing" textLength="89" x="748" y="1118.5352">&#171;persistence&#187;</text><text fill="#000000" font-family="sans-serif" font-size="14" lengthAdjust="spacing" textLength="122" x="731.5" y="1137.1563">PersistenceContext</text><rect fill="#E2E2F0" height="51.2422" rx="2.5" ry="2.5" style="stroke:#181818;stroke-width:0.5;" width="130" x="870.5" y="36"/><text fill="#000000" font-family="sans-serif" font-size="14" font-style="italic" lengthAdjust="spacing" textLength="59" x="906" y="58.1074">&#171;factory&#187;</text><text fill="#000000" font-family="sans-serif" font-size="14" lengthAdjust="spacing" textLength="116" x="877.5" y="76.7285">RepositoryFactory</text><rect fill="#E2E2F0" height="51.2422" rx="2.5" ry="2.5" style="stroke:#181818;stroke-width:0.5;" width="130" x="870.5" y="1096.4277"/><text fill="#000000" font-family="sans-serif" font-size="14" font-style="italic" lengthAdjust="spacing" textLength="59" x="906" y="1118.5352">&#171;factory&#187;</text><text fill="#000000" font-family="sans-serif" font-size="14" lengthAdjust="spacing" textLength="116" x="877.5" y="1137.1563">RepositoryFactory</text><text fill="#000000" font-family="sans-serif" font-size="14" font-style="italic" lengthAdjust="spacing" textLength="79" x="1019.5" y="66.1074">&#171;repository&#187;</text><text fill="#000000" font-family="sans-serif" font-size="14" lengthAdjust="spacing" textLength="97" x="1010.5" y="84.7285">UserRepository</text><path d="M1044,15 C1044,5 1062,5 1062,5 C1062,5 1080,5 1080,15 L1080,41 C1080,51 1062,51 1062,51 C1062,51 1044,51 1044,41 L1044,15 " fill="#E2E2F0" style="stroke:#181818;stroke-width:1.5;"/><path d="M1044,15 C1044,25 1062,25 1062,25 C1062,25 1080,25 1080,15 " fill="none" style="stroke:#181818;stroke-width:1.5;"/><text fill="#000000" font-family="sans-serif" font-size="14" font-style="italic" lengthAdjust="spacing" textLength="79" x="1019.5" y="1111.5352">&#171;repository&#187;</text><text fill="#000000" font-family="sans-serif" font-size="14" lengthAdjust="spacing" textLength="97" x="1010.5" y="1130.1563">UserRepository</text><path d="M1044,1143.6699 C1044,1133.6699 1062,1133.6699 1062,1133.6699 C1062,1133.6699 1080,1133.6699 1080,1143.6699 L1080,1169.6699 C1080,1179.6699 1062,1179.6699 1062,1179.6699 C1062,1179.6699 1044,1179.6699 1044,1169.6699 L1044,1143.6699 " fill="#E2E2F0" style="stroke:#181818;stroke-width:1.5;"/><path d="M1044,1143.6699 C1044,1153.6699 1062,1153.6699 1062,1153.6699 C1062,1153.6699 1080,1153.6699 1080,1143.6699 " fill="none" style="stroke:#181818;stroke-width:1.5;"/><rect fill="#FFFFFF" height="957.8945" style="stroke:#181818;stroke-width:1.0;" width="10" x="190.5" y="121.5332"/><rect fill="#FFFFFF" height="601.8203" style="stroke:#181818;stroke-width:1.0;" width="10" x="341.5" y="446.3164"/><rect fill="#FFFFFF" height="128.4551" style="stroke:#181818;stroke-width:1.0;" width="10" x="512.5" y="632.0625"/><rect fill="#FFFFFF" height="99.873" style="stroke:#181818;stroke-width:1.0;" width="10" x="787.5" y="791.8086"/><rect fill="#FFFFFF" height="62.582" style="stroke:#181818;stroke-width:1.0;" width="10" x="930.5" y="922.9727"/><polygon fill="#181818" points="178.5,117.5332,188.5,121.5332,178.5,125.5332,182.5,121.5332" style="stroke:#181818;stroke-width:1.0;"/><line style="stroke:#181818;stroke-width:1.0;stroke-dasharray:2.0,2.0;" x1="42.5" x2="184.5" y1="121.5332" y2="121.5332"/><text fill="#000000" font-family="sans-serif" font-size="13" lengthAdjust="spacing" textLength="54" x="49.5" y="116.2705">Add User</text><polygon fill="#181818" points="334.5,148.8242,344.5,152.8242,334.5,156.8242,338.5,152.8242" style="stroke:#181818;stroke-width:1.0;"/><line style="stroke:#181818;stroke-width:1.0;" x1="200.5" x2="340.5" y1="152.8242" y2="152.8242"/><text fill="#000000" font-family="sans-serif" font-size="13" lengthAdjust="spacing" textLength="36" x="207.5" y="147.5615">create</text><polygon fill="#181818" points="53.5,180.1152,43.5,184.1152,53.5,188.1152,49.5,184.1152" style="stroke:#181818;stroke-width:1.0;"/><line style="stroke:#181818;stroke-width:1.0;stroke-dasharray:2.0,2.0;" x1="47.5" x2="189.5" y1="184.1152" y2="184.1152"/><text fill="#000000" font-family="sans-serif" font-size="13" lengthAdjust="spacing" textLength="119" x="59.5" y="178.8525">Ask user information</text><polygon fill="#181818" points="178.5,245.9883,188.5,249.9883,178.5,253.9883,182.5,249.9883" style="stroke:#181818;stroke-width:1.0;"/><line style="stroke:#181818;stroke-width:1.0;stroke-dasharray:2.0,2.0;" x1="42.5" x2="184.5" y1="249.9883" y2="249.9883"/><text fill="#000000" font-family="sans-serif" font-size="13" lengthAdjust="spacing" textLength="124" x="49.5" y="210.1436">Usernane, Password,</text><text fill="#000000" font-family="sans-serif" font-size="13" lengthAdjust="spacing" textLength="68" x="49.5" y="227.4346">First Name,</text><text fill="#000000" font-family="sans-serif" font-size="13" lengthAdjust="spacing" textLength="108" x="49.5" y="244.7256">Last Name, E-Mail</text><path d="M10,264.9883 L83,264.9883 L83,274.2793 L73,284.2793 L10,284.2793 L10,264.9883 " fill="#EEEEEE" style="stroke:#000000;stroke-width:1.5;"/><rect fill="none" height="99.1641" style="stroke:#000000;stroke-width:1.5;" width="250" x="10" y="264.9883"/><text fill="#000000" font-family="sans-serif" font-size="13" font-weight="bold" lengthAdjust="spacing" textLength="28" x="25" y="280.0166">loop</text><text fill="#000000" font-family="sans-serif" font-size="11" font-weight="bold" lengthAdjust="spacing" textLength="64" x="98" y="278.8584">[option != 0]</text><polygon fill="#181818" points="53.5,320.8613,43.5,324.8613,53.5,328.8613,49.5,324.8613" style="stroke:#181818;stroke-width:1.0;"/><line style="stroke:#181818;stroke-width:1.0;stroke-dasharray:2.0,2.0;" x1="47.5" x2="189.5" y1="324.8613" y2="324.8613"/><text fill="#000000" font-family="sans-serif" font-size="13" lengthAdjust="spacing" textLength="57" x="59.5" y="302.3076">Show List</text><text fill="#000000" font-family="sans-serif" font-size="13" lengthAdjust="spacing" textLength="79" x="59.5" y="319.5986">of Role Types</text><polygon fill="#181818" points="178.5,352.1523,188.5,356.1523,178.5,360.1523,182.5,356.1523" style="stroke:#181818;stroke-width:1.0;"/><line style="stroke:#181818;stroke-width:1.0;stroke-dasharray:2.0,2.0;" x1="42.5" x2="184.5" y1="356.1523" y2="356.1523"/><text fill="#000000" font-family="sans-serif" font-size="13" lengthAdjust="spacing" textLength="58" x="49.5" y="350.8896">Role Type</text><polygon fill="#181818" points="329.5,442.3164,339.5,446.3164,329.5,450.3164,333.5,446.3164" style="stroke:#181818;stroke-width:1.0;"/><line style="stroke:#181818;stroke-width:1.0;" x1="200.5" x2="335.5" y1="446.3164" y2="446.3164"/><text fill="#000000" font-family="sans-serif" font-size="13" lengthAdjust="spacing" textLength="113" x="207.5" y="389.1807">addUser(username,</text><text fill="#000000" font-family="sans-serif" font-size="13" lengthAdjust="spacing" textLength="122" x="207.5" y="406.4717">password, firstName,</text><text fill="#000000" font-family="sans-serif" font-size="13" lengthAdjust="spacing" textLength="98" x="207.5" y="423.7627">lastName, email,</text><text fill="#000000" font-family="sans-serif" font-size="13" lengthAdjust="spacing" textLength="32" x="207.5" y="441.0537">roles)</text><path d="M522,459.3164 L522,503.3164 L711,503.3164 L711,469.3164 L701,459.3164 L522,459.3164 " fill="#FEFFDD" style="stroke:#181818;stroke-width:0.5;"/><path d="M701,459.3164 L701,469.3164 L711,469.3164 L701,459.3164 " fill="#FEFFDD" style="stroke:#181818;stroke-width:0.5;"/><text fill="#000000" font-family="sans-serif" font-size="13" lengthAdjust="spacing" textLength="168" x="528" y="478.3447">UserBuilder is used to create</text><text fill="#000000" font-family="sans-serif" font-size="13" lengthAdjust="spacing" textLength="136" x="532" y="495.6357">a user with a valid state</text><polygon fill="#181818" points="505.5,528.1895,515.5,532.1895,505.5,536.1895,509.5,532.1895" style="stroke:#181818;stroke-width:1.0;"/><line style="stroke:#181818;stroke-width:1.0;" x1="351.5" x2="511.5" y1="532.1895" y2="532.1895"/><text fill="#000000" font-family="sans-serif" font-size="13" lengthAdjust="spacing" textLength="36" x="358.5" y="526.9268">create</text><polygon fill="#181818" points="505.5,559.4805,515.5,563.4805,505.5,567.4805,509.5,563.4805" style="stroke:#181818;stroke-width:1.0;"/><line style="stroke:#181818;stroke-width:1.0;" x1="351.5" x2="511.5" y1="563.4805" y2="563.4805"/><text fill="#000000" font-family="sans-serif" font-size="13" lengthAdjust="spacing" textLength="142" x="358.5" y="558.2178">setUsername(username)</text><path d="M356,576.4805 L356,603.4805 L548,603.4805 L548,586.4805 L538,576.4805 L356,576.4805 " fill="#FEFFDD" style="stroke:#181818;stroke-width:0.5;"/><path d="M538,576.4805 L538,586.4805 L548,586.4805 L538,576.4805 " fill="#FEFFDD" style="stroke:#181818;stroke-width:0.5;"/><text fill="#000000" font-family="sans-serif" font-size="13" lengthAdjust="spacing" textLength="171" x="362" y="595.5088">Set the rest of the information</text><polygon fill="#181818" points="500.5,628.0625,510.5,632.0625,500.5,636.0625,504.5,632.0625" style="stroke:#181818;stroke-width:1.0;"/><line style="stroke:#181818;stroke-width:1.0;" x1="351.5" x2="506.5" y1="632.0625" y2="632.0625"/><text fill="#000000" font-family="sans-serif" font-size="13" lengthAdjust="spacing" textLength="71" x="358.5" y="626.7998">createUser()</text><polygon fill="#181818" points="664.5,693.9355,674.5,697.9355,664.5,701.9355,668.5,697.9355" style="stroke:#181818;stroke-width:1.0;"/><line style="stroke:#181818;stroke-width:1.0;" x1="522.5" x2="670.5" y1="697.9355" y2="697.9355"/><text fill="#000000" font-family="sans-serif" font-size="13" lengthAdjust="spacing" textLength="105" x="529.5" y="658.0908">create (username,</text><text fill="#000000" font-family="sans-serif" font-size="13" lengthAdjust="spacing" textLength="122" x="529.5" y="675.3818">password, firstName,</text><text fill="#000000" font-family="sans-serif" font-size="13" lengthAdjust="spacing" textLength="130" x="529.5" y="692.6729">lastName,email, roles)</text><polygon fill="#181818" points="533.5,725.2266,523.5,729.2266,533.5,733.2266,529.5,729.2266" style="stroke:#181818;stroke-width:1.0;"/><line style="stroke:#181818;stroke-width:1.0;" x1="527.5" x2="675.5" y1="729.2266" y2="729.2266"/><text fill="#000000" font-family="sans-serif" font-size="13" lengthAdjust="spacing" textLength="25" x="539.5" y="723.9639">user</text><polygon fill="#181818" points="362.5,756.5176,352.5,760.5176,362.5,764.5176,358.5,760.5176" style="stroke:#181818;stroke-width:1.0;"/><line style="stroke:#181818;stroke-width:1.0;" x1="356.5" x2="516.5" y1="760.5176" y2="760.5176"/><text fill="#000000" font-family="sans-serif" font-size="13" lengthAdjust="spacing" textLength="25" x="368.5" y="755.2549">user</text><polygon fill="#181818" points="775.5,787.8086,785.5,791.8086,775.5,795.8086,779.5,791.8086" style="stroke:#181818;stroke-width:1.0;"/><line style="stroke:#181818;stroke-width:1.0;" x1="351.5" x2="781.5" y1="791.8086" y2="791.8086"/><text fill="#000000" font-family="sans-serif" font-size="13" lengthAdjust="spacing" textLength="75" x="358.5" y="786.5459">repositories()</text><path d="M802,804.8086 L802,831.8086 L1066,831.8086 L1066,814.8086 L1056,804.8086 L802,804.8086 " fill="#FEFFDD" style="stroke:#181818;stroke-width:0.5;"/><path d="M1056,804.8086 L1056,814.8086 L1066,814.8086 L1056,804.8086 " fill="#FEFFDD" style="stroke:#181818;stroke-width:0.5;"/><text fill="#000000" font-family="sans-serif" font-size="13" lengthAdjust="spacing" textLength="243" x="808" y="823.8369">pode criar reposit&#243;rio em mem&#243;ria ou JPA</text><polygon fill="#181818" points="923.5,856.3906,933.5,860.3906,923.5,864.3906,927.5,860.3906" style="stroke:#181818;stroke-width:1.0;"/><line style="stroke:#181818;stroke-width:1.0;" x1="797.5" x2="929.5" y1="860.3906" y2="860.3906"/><text fill="#000000" font-family="sans-serif" font-size="13" lengthAdjust="spacing" textLength="36" x="804.5" y="855.1279">create</text><polygon fill="#181818" points="362.5,887.6816,352.5,891.6816,362.5,895.6816,358.5,891.6816" style="stroke:#181818;stroke-width:1.0;"/><line style="stroke:#181818;stroke-width:1.0;" x1="356.5" x2="791.5" y1="891.6816" y2="891.6816"/><text fill="#000000" font-family="sans-serif" font-size="13" lengthAdjust="spacing" textLength="39" x="368.5" y="886.4189">factory</text><polygon fill="#181818" points="918.5,918.9727,928.5,922.9727,918.5,926.9727,922.5,922.9727" style="stroke:#181818;stroke-width:1.0;"/><line style="stroke:#181818;stroke-width:1.0;" x1="351.5" x2="924.5" y1="922.9727" y2="922.9727"/><text fill="#000000" font-family="sans-serif" font-size="13" lengthAdjust="spacing" textLength="40" x="358.5" y="917.71">users()</text><polygon fill="#181818" points="1050,950.2637,1060,954.2637,1050,958.2637,1054,954.2637" style="stroke:#181818;stroke-width:1.0;"/><line style="stroke:#181818;stroke-width:1.0;" x1="940.5" x2="1056" y1="954.2637" y2="954.2637"/><text fill="#000000" font-family="sans-serif" font-size="13" lengthAdjust="spacing" textLength="36" x="947.5" y="949.001">create</text><polygon fill="#181818" points="362.5,981.5547,352.5,985.5547,362.5,989.5547,358.5,985.5547" style="stroke:#181818;stroke-width:1.0;"/><line style="stroke:#181818;stroke-width:1.0;" x1="356.5" x2="934.5" y1="985.5547" y2="985.5547"/><text fill="#000000" font-family="sans-serif" font-size="13" lengthAdjust="spacing" textLength="87" x="368.5" y="980.292">userRepository</text><polygon fill="#181818" points="1050,1012.8457,1060,1016.8457,1050,1020.8457,1054,1016.8457" style="stroke:#181818;stroke-width:1.0;"/><line style="stroke:#181818;stroke-width:1.0;" x1="351.5" x2="1056" y1="1016.8457" y2="1016.8457"/><text fill="#000000" font-family="sans-serif" font-size="13" lengthAdjust="spacing" textLength="59" x="358.5" y="1011.583">save(user)</text><polygon fill="#181818" points="211.5,1044.1367,201.5,1048.1367,211.5,1052.1367,207.5,1048.1367" style="stroke:#181818;stroke-width:1.0;"/><line style="stroke:#181818;stroke-width:1.0;" x1="205.5" x2="345.5" y1="1048.1367" y2="1048.1367"/><text fill="#000000" font-family="sans-serif" font-size="13" lengthAdjust="spacing" textLength="25" x="217.5" y="1042.874">user</text><polygon fill="#181818" points="53.5,1075.4277,43.5,1079.4277,53.5,1083.4277,49.5,1079.4277" style="stroke:#181818;stroke-width:1.0;"/><line style="stroke:#181818;stroke-width:1.0;stroke-dasharray:2.0,2.0;" x1="47.5" x2="194.5" y1="1079.4277" y2="1079.4277"/><text fill="#000000" font-family="sans-serif" font-size="13" lengthAdjust="spacing" textLength="88" x="59.5" y="1074.165">displayUserInfo</text><!--SRC=[ZLR1Rjim3BtxAxXUcW1DitFW1KYt1iYG3KMxt79HOsKHQak6fBJBT-qJzcCZPKcMKnkD3m5baK_aunETwuErzMmwhKicxR4gRtUgcfeN8MkcMNLxi5MPPMndbOP5KGa9pC22bXawMB4JDSRXLh4nN6zMj8s_ULvhRhYqp0ebv_C-vwzAMgtAaciAIbPvpkgw5Bk-M0gyEugoQAA2cUVFZNNcVdL4_na5NP7xDrKnB27F2sUSEJzmROInNEuuPSF_M8f9tb9PxUei-f7NoWWavhHqT9qeE9Xvlcyi32gOPS_CS5TB6qNkoIhFTLnWKEOuXybaZlJEY48NJfqHhymYs2e3V91xT6d9dC5ESzoFcxZhe133l03H0qBkbQuSsywjUnGT8vdaD_30Z7bJkhZPogNGni9FLd5Sh5cmuNxoWmaK3C6KIjMWQeA5Jr_WitlvFesdWtg3DNAwbMeFZwhayEjKSnFTk-b41xVFPP4DrCqQbOsEBdzARekQzXN0dWhm-PVCcy1H5IKv8WWtOuSS6Mx1OsfIuNijVXyiOEvUZBEEI8KXaWkmodTYYrUeuVrDs0FQhwmK1HWRkaHFSXkmh0YSz7BOot2xyJN7uiVPGCufOq_SWZtW9ZTkZ-nK6n7YUl3W895HO7fyGT0oz68Kkt99sDgtRHJwTqdGFNLuvFfyYJkfpOoy6ZxWlMcEqrmB7TNZlU86FK4Z2D9Cfj1XQ5NxeMYzPXF5XgV1dCoZV0XqA85421stWhyhOO27P53E80ulWVprq94uTpBgghC3MQk28p-2wO3-xwyM2YyjLBmYcu4wmlU7HGSndT-OfP_8x-vIZsjwD_puxgCbBMM0cdWeKTlBn_8CdvxmyK20ziFGctZYcIPzx7nW-d8Fn_RaFPadXnhssWoJSQyd3UQecWG-6Pd9zCTHxcT_8Gp-xpZHdLdXeCcIqCtgFm00]--></g></svg>