<?xml version="1.0" encoding="us-ascii" standalone="no"?><svg xmlns="http://www.w3.org/2000/svg" xmlns:xlink="http://www.w3.org/1999/xlink" contentStyleType="text/css" height="839px" preserveAspectRatio="none" style="width:1141px;height:839px;background:#FFFFFF;" version="1.1" viewBox="0 0 1141 839" width="1141px" zoomAndPan="magnify"><defs/><g><rect fill="#FFFFFF" height="256.3281" style="stroke:#181818;stroke-width:1.0;" width="10" x="207" y="121.5332"/><rect fill="#FFFFFF" height="159.4551" style="stroke:#181818;stroke-width:1.0;" width="10" x="347.5" y="184.1152"/><rect fill="#FFFFFF" height="250.3281" style="stroke:#181818;stroke-width:1.0;" width="10" x="347.5" y="440.4434"/><rect fill="#FFFFFF" height="93.873" style="stroke:#181818;stroke-width:1.0;" width="10" x="519.5" y="215.4063"/><rect fill="#FFFFFF" height="125.1641" style="stroke:#181818;stroke-width:1.0;" width="10" x="519.5" y="534.3164"/><rect fill="#FFFFFF" height="31.291" style="stroke:#181818;stroke-width:1.0;" width="10" x="1084" y="246.6973"/><rect fill="#FFFFFF" height="31.291" style="stroke:#181818;stroke-width:1.0;" width="10" x="1084" y="471.7344"/><rect fill="#FFFFFF" height="31.291" style="stroke:#181818;stroke-width:1.0;" width="10" x="1084" y="596.8984"/><line style="stroke:#181818;stroke-width:0.5;stroke-dasharray:5.0,5.0;" x1="36" x2="36" y1="88.2422" y2="740.0625"/><line style="stroke:#181818;stroke-width:0.5;stroke-dasharray:5.0,5.0;" x1="211.5" x2="211.5" y1="88.2422" y2="740.0625"/><line style="stroke:#181818;stroke-width:0.5;stroke-dasharray:5.0,5.0;" x1="352.5" x2="352.5" y1="88.2422" y2="740.0625"/><line style="stroke:#181818;stroke-width:0.5;stroke-dasharray:5.0,5.0;" x1="524.5" x2="524.5" y1="88.2422" y2="740.0625"/><line style="stroke:#181818;stroke-width:0.5;stroke-dasharray:5.0,5.0;" x1="680.5" x2="680.5" y1="88.2422" y2="740.0625"/><line style="stroke:#181818;stroke-width:0.5;stroke-dasharray:5.0,5.0;" x1="819.5" x2="819.5" y1="88.2422" y2="740.0625"/><line style="stroke:#181818;stroke-width:0.5;stroke-dasharray:5.0,5.0;" x1="962.5" x2="962.5" y1="88.2422" y2="740.0625"/><line style="stroke:#181818;stroke-width:0.5;stroke-dasharray:5.0,5.0;" x1="1088.5" x2="1088.5" y1="88.2422" y2="740.0625"/><text fill="#000000" font-family="sans-serif" font-size="14" lengthAdjust="spacing" textLength="56" x="5" y="84.7285">Manager</text><ellipse cx="36" cy="18.1211" fill="#E2E2F0" rx="8" ry="8" style="stroke:#181818;stroke-width:0.5;"/><path d="M36,26.1211 L36,53.1211 M23,34.1211 L49,34.1211 M36,53.1211 L23,68.1211 M36,53.1211 L49,68.1211 " fill="none" style="stroke:#181818;stroke-width:0.5;"/><text fill="#000000" font-family="sans-serif" font-size="14" lengthAdjust="spacing" textLength="56" x="5" y="754.1699">Manager</text><ellipse cx="36" cy="766.1836" fill="#E2E2F0" rx="8" ry="8" style="stroke:#181818;stroke-width:0.5;"/><path d="M36,774.1836 L36,801.1836 M23,782.1836 L49,782.1836 M36,801.1836 L23,816.1836 M36,801.1836 L49,816.1836 " fill="none" style="stroke:#181818;stroke-width:0.5;"/><rect fill="#E2E2F0" height="51.2422" rx="2.5" ry="2.5" style="stroke:#181818;stroke-width:0.5;" width="109" x="157.5" y="36"/><text fill="#000000" font-family="sans-serif" font-size="14" font-style="italic" lengthAdjust="spacing" textLength="95" x="164.5" y="58.1074">&#171;presentation&#187;</text><text fill="#000000" font-family="sans-serif" font-size="14" lengthAdjust="spacing" textLength="88" x="168" y="76.7285">DisableUserUI</text><rect fill="#E2E2F0" height="51.2422" rx="2.5" ry="2.5" style="stroke:#181818;stroke-width:0.5;" width="109" x="157.5" y="739.0625"/><text fill="#000000" font-family="sans-serif" font-size="14" font-style="italic" lengthAdjust="spacing" textLength="95" x="164.5" y="761.1699">&#171;presentation&#187;</text><text fill="#000000" font-family="sans-serif" font-size="14" lengthAdjust="spacing" textLength="88" x="168" y="779.791">DisableUserUI</text><rect fill="#E2E2F0" height="51.2422" rx="2.5" ry="2.5" style="stroke:#181818;stroke-width:0.5;" width="152" x="276.5" y="36"/><text fill="#000000" font-family="sans-serif" font-size="14" font-style="italic" lengthAdjust="spacing" textLength="84" x="310.5" y="58.1074">&#171;application&#187;</text><text fill="#000000" font-family="sans-serif" font-size="14" lengthAdjust="spacing" textLength="138" x="283.5" y="76.7285">DisableUserController</text><rect fill="#E2E2F0" height="51.2422" rx="2.5" ry="2.5" style="stroke:#181818;stroke-width:0.5;" width="152" x="276.5" y="739.0625"/><text fill="#000000" font-family="sans-serif" font-size="14" font-style="italic" lengthAdjust="spacing" textLength="84" x="310.5" y="761.1699">&#171;application&#187;</text><text fill="#000000" font-family="sans-serif" font-size="14" lengthAdjust="spacing" textLength="138" x="283.5" y="779.791">DisableUserController</text><rect fill="#E2E2F0" height="51.2422" rx="2.5" ry="2.5" style="stroke:#181818;stroke-width:0.5;" width="172" x="438.5" y="36"/><text fill="#000000" font-family="sans-serif" font-size="14" font-style="italic" lengthAdjust="spacing" textLength="84" x="482.5" y="58.1074">&#171;application&#187;</text><text fill="#000000" font-family="sans-serif" font-size="14" lengthAdjust="spacing" textLength="158" x="445.5" y="76.7285">UserManagementService</text><rect fill="#E2E2F0" height="51.2422" rx="2.5" ry="2.5" style="stroke:#181818;stroke-width:0.5;" width="172" x="438.5" y="739.0625"/><text fill="#000000" font-family="sans-serif" font-size="14" font-style="italic" lengthAdjust="spacing" textLength="84" x="482.5" y="761.1699">&#171;application&#187;</text><text fill="#000000" font-family="sans-serif" font-size="14" lengthAdjust="spacing" textLength="158" x="445.5" y="779.791">UserManagementService</text><rect fill="#E2E2F0" height="51.2422" rx="2.5" ry="2.5" style="stroke:#181818;stroke-width:0.5;" width="121" x="620.5" y="36"/><text fill="#000000" font-family="sans-serif" font-size="14" font-style="italic" lengthAdjust="spacing" textLength="62" x="650" y="58.1074">&#171;domain&#187;</text><text fill="#000000" font-family="sans-serif" font-size="14" lengthAdjust="spacing" textLength="107" x="627.5" y="76.7285">user:SystemUser</text><rect fill="#E2E2F0" height="51.2422" rx="2.5" ry="2.5" style="stroke:#181818;stroke-width:0.5;" width="121" x="620.5" y="739.0625"/><text fill="#000000" font-family="sans-serif" font-size="14" font-style="italic" lengthAdjust="spacing" textLength="62" x="650" y="761.1699">&#171;domain&#187;</text><text fill="#000000" font-family="sans-serif" font-size="14" lengthAdjust="spacing" textLength="107" x="627.5" y="779.791">user:SystemUser</text><rect fill="#E2E2F0" height="51.2422" rx="2.5" ry="2.5" style="stroke:#181818;stroke-width:0.5;" width="136" x="751.5" y="36"/><text fill="#000000" font-family="sans-serif" font-size="14" font-style="italic" lengthAdjust="spacing" textLength="89" x="775" y="58.1074">&#171;persistence&#187;</text><text fill="#000000" font-family="sans-serif" font-size="14" lengthAdjust="spacing" textLength="122" x="758.5" y="76.7285">PersistenceContext</text><rect fill="#E2E2F0" height="51.2422" rx="2.5" ry="2.5" style="stroke:#181818;stroke-width:0.5;" width="136" x="751.5" y="739.0625"/><text fill="#000000" font-family="sans-serif" font-size="14" font-style="italic" lengthAdjust="spacing" textLength="89" x="775" y="761.1699">&#171;persistence&#187;</text><text fill="#000000" font-family="sans-serif" font-size="14" lengthAdjust="spacing" textLength="122" x="758.5" y="779.791">PersistenceContext</text><rect fill="#E2E2F0" height="51.2422" rx="2.5" ry="2.5" style="stroke:#181818;stroke-width:0.5;" width="130" x="897.5" y="36"/><text fill="#000000" font-family="sans-serif" font-size="14" font-style="italic" lengthAdjust="spacing" textLength="59" x="933" y="58.1074">&#171;factory&#187;</text><text fill="#000000" font-family="sans-serif" font-size="14" lengthAdjust="spacing" textLength="116" x="904.5" y="76.7285">RepositoryFactory</text><rect fill="#E2E2F0" height="51.2422" rx="2.5" ry="2.5" style="stroke:#181818;stroke-width:0.5;" width="130" x="897.5" y="739.0625"/><text fill="#000000" font-family="sans-serif" font-size="14" font-style="italic" lengthAdjust="spacing" textLength="59" x="933" y="761.1699">&#171;factory&#187;</text><text fill="#000000" font-family="sans-serif" font-size="14" lengthAdjust="spacing" textLength="116" x="904.5" y="779.791">RepositoryFactory</text><text fill="#000000" font-family="sans-serif" font-size="14" font-style="italic" lengthAdjust="spacing" textLength="79" x="1046.5" y="66.1074">&#171;repository&#187;</text><text fill="#000000" font-family="sans-serif" font-size="14" lengthAdjust="spacing" textLength="97" x="1037.5" y="84.7285">UserRepository</text><path d="M1071,15 C1071,5 1089,5 1089,5 C1089,5 1107,5 1107,15 L1107,41 C1107,51 1089,51 1089,51 C1089,51 1071,51 1071,41 L1071,15 " fill="#E2E2F0" style="stroke:#181818;stroke-width:1.5;"/><path d="M1071,15 C1071,25 1089,25 1089,25 C1089,25 1107,25 1107,15 " fill="none" style="stroke:#181818;stroke-width:1.5;"/><text fill="#000000" font-family="sans-serif" font-size="14" font-style="italic" lengthAdjust="spacing" textLength="79" x="1046.5" y="754.1699">&#171;repository&#187;</text><text fill="#000000" font-family="sans-serif" font-size="14" lengthAdjust="spacing" textLength="97" x="1037.5" y="772.791">UserRepository</text><path d="M1071,786.3047 C1071,776.3047 1089,776.3047 1089,776.3047 C1089,776.3047 1107,776.3047 1107,786.3047 L1107,812.3047 C1107,822.3047 1089,822.3047 1089,822.3047 C1089,822.3047 1071,822.3047 1071,812.3047 L1071,786.3047 " fill="#E2E2F0" style="stroke:#181818;stroke-width:1.5;"/><path d="M1071,786.3047 C1071,796.3047 1089,796.3047 1089,796.3047 C1089,796.3047 1107,796.3047 1107,786.3047 " fill="none" style="stroke:#181818;stroke-width:1.5;"/><rect fill="#FFFFFF" height="256.3281" style="stroke:#181818;stroke-width:1.0;" width="10" x="207" y="121.5332"/><rect fill="#FFFFFF" height="159.4551" style="stroke:#181818;stroke-width:1.0;" width="10" x="347.5" y="184.1152"/><rect fill="#FFFFFF" height="250.3281" style="stroke:#181818;stroke-width:1.0;" width="10" x="347.5" y="440.4434"/><rect fill="#FFFFFF" height="93.873" style="stroke:#181818;stroke-width:1.0;" width="10" x="519.5" y="215.4063"/><rect fill="#FFFFFF" height="125.1641" style="stroke:#181818;stroke-width:1.0;" width="10" x="519.5" y="534.3164"/><rect fill="#FFFFFF" height="31.291" style="stroke:#181818;stroke-width:1.0;" width="10" x="1084" y="246.6973"/><rect fill="#FFFFFF" height="31.291" style="stroke:#181818;stroke-width:1.0;" width="10" x="1084" y="471.7344"/><rect fill="#FFFFFF" height="31.291" style="stroke:#181818;stroke-width:1.0;" width="10" x="1084" y="596.8984"/><polygon fill="#181818" points="195,117.5332,205,121.5332,195,125.5332,199,121.5332" style="stroke:#181818;stroke-width:1.0;"/><line style="stroke:#181818;stroke-width:1.0;" x1="36" x2="201" y1="121.5332" y2="121.5332"/><text fill="#000000" font-family="sans-serif" font-size="13" lengthAdjust="spacing" textLength="74" x="43" y="116.2705">enable users</text><polygon fill="#181818" points="340.5,148.8242,350.5,152.8242,340.5,156.8242,344.5,152.8242" style="stroke:#181818;stroke-width:1.0;"/><line style="stroke:#181818;stroke-width:1.0;" x1="217" x2="346.5" y1="152.8242" y2="152.8242"/><text fill="#000000" font-family="sans-serif" font-size="13" lengthAdjust="spacing" textLength="36" x="224" y="147.5615">create</text><polygon fill="#181818" points="335.5,180.1152,345.5,184.1152,335.5,188.1152,339.5,184.1152" style="stroke:#181818;stroke-width:1.0;"/><line style="stroke:#181818;stroke-width:1.0;" x1="217" x2="341.5" y1="184.1152" y2="184.1152"/><text fill="#000000" font-family="sans-serif" font-size="13" lengthAdjust="spacing" textLength="87" x="224" y="178.8525">enabledUsers()</text><polygon fill="#181818" points="507.5,211.4063,517.5,215.4063,507.5,219.4063,511.5,215.4063" style="stroke:#181818;stroke-width:1.0;"/><line style="stroke:#181818;stroke-width:1.0;" x1="357.5" x2="513.5" y1="215.4063" y2="215.4063"/><text fill="#000000" font-family="sans-serif" font-size="13" lengthAdjust="spacing" textLength="93" x="364.5" y="210.1436">activatedUsers()</text><polygon fill="#181818" points="1072,242.6973,1082,246.6973,1072,250.6973,1076,246.6973" style="stroke:#181818;stroke-width:1.0;"/><line style="stroke:#181818;stroke-width:1.0;" x1="529.5" x2="1078" y1="246.6973" y2="246.6973"/><text fill="#000000" font-family="sans-serif" font-size="13" lengthAdjust="spacing" textLength="101" x="536.5" y="241.4346">findByActive(true)</text><polygon fill="#181818" points="540.5,273.9883,530.5,277.9883,540.5,281.9883,536.5,277.9883" style="stroke:#181818;stroke-width:1.0;"/><line style="stroke:#181818;stroke-width:1.0;" x1="534.5" x2="1088" y1="277.9883" y2="277.9883"/><text fill="#000000" font-family="sans-serif" font-size="13" lengthAdjust="spacing" textLength="79" x="546.5" y="272.7256">enabledUsers</text><polygon fill="#181818" points="368.5,305.2793,358.5,309.2793,368.5,313.2793,364.5,309.2793" style="stroke:#181818;stroke-width:1.0;"/><line style="stroke:#181818;stroke-width:1.0;" x1="362.5" x2="523.5" y1="309.2793" y2="309.2793"/><text fill="#000000" font-family="sans-serif" font-size="13" lengthAdjust="spacing" textLength="79" x="374.5" y="304.0166">enabledUsers</text><polygon fill="#181818" points="228,339.5703,218,343.5703,228,347.5703,224,343.5703" style="stroke:#181818;stroke-width:1.0;"/><line style="stroke:#181818;stroke-width:1.0;" x1="222" x2="351.5" y1="343.5703" y2="343.5703"/><text fill="#000000" font-family="sans-serif" font-size="13" lengthAdjust="spacing" textLength="79" x="234" y="338.3076">enabledUsers</text><path d="M362,322.2793 L362,349.2793 L625,349.2793 L625,332.2793 L615,322.2793 L362,322.2793 " fill="#FEFFDD" style="stroke:#181818;stroke-width:0.5;"/><path d="M615,322.2793 L615,332.2793 L625,332.2793 L615,322.2793 " fill="#FEFFDD" style="stroke:#181818;stroke-width:0.5;"/><text fill="#000000" font-family="sans-serif" font-size="13" lengthAdjust="spacing" textLength="242" x="368" y="341.3076">parse systemUsers on to SystemUserDto</text><polygon fill="#181818" points="47,373.8613,37,377.8613,47,381.8613,43,377.8613" style="stroke:#181818;stroke-width:1.0;"/><line style="stroke:#181818;stroke-width:1.0;stroke-dasharray:2.0,2.0;" x1="41" x2="211" y1="377.8613" y2="377.8613"/><text fill="#000000" font-family="sans-serif" font-size="13" lengthAdjust="spacing" textLength="120" x="53" y="372.5986">shows enabledUsers</text><polygon fill="#181818" points="200,405.1523,210,409.1523,200,413.1523,204,409.1523" style="stroke:#181818;stroke-width:1.0;"/><line style="stroke:#181818;stroke-width:1.0;" x1="36" x2="206" y1="409.1523" y2="409.1523"/><text fill="#000000" font-family="sans-serif" font-size="13" lengthAdjust="spacing" textLength="138" x="43" y="403.8896">chooses user to disable</text><polygon fill="#181818" points="335.5,436.4434,345.5,440.4434,335.5,444.4434,339.5,440.4434" style="stroke:#181818;stroke-width:1.0;"/><line style="stroke:#181818;stroke-width:1.0;" x1="212" x2="341.5" y1="440.4434" y2="440.4434"/><text fill="#000000" font-family="sans-serif" font-size="13" lengthAdjust="spacing" textLength="73" x="219" y="435.1807">enableUser()</text><polygon fill="#181818" points="1072,467.7344,1082,471.7344,1072,475.7344,1076,471.7344" style="stroke:#181818;stroke-width:1.0;"/><line style="stroke:#181818;stroke-width:1.0;" x1="357.5" x2="1078" y1="471.7344" y2="471.7344"/><text fill="#000000" font-family="sans-serif" font-size="13" lengthAdjust="spacing" textLength="117" x="364.5" y="466.4717">ofIdentity(username)</text><polygon fill="#181818" points="368.5,499.0254,358.5,503.0254,368.5,507.0254,364.5,503.0254" style="stroke:#181818;stroke-width:1.0;"/><line style="stroke:#181818;stroke-width:1.0;stroke-dasharray:2.0,2.0;" x1="362.5" x2="1088" y1="503.0254" y2="503.0254"/><text fill="#000000" font-family="sans-serif" font-size="13" lengthAdjust="spacing" textLength="25" x="374.5" y="497.7627">user</text><polygon fill="#181818" points="507.5,530.3164,517.5,534.3164,507.5,538.3164,511.5,534.3164" style="stroke:#181818;stroke-width:1.0;"/><line style="stroke:#181818;stroke-width:1.0;" x1="357.5" x2="513.5" y1="534.3164" y2="534.3164"/><text fill="#000000" font-family="sans-serif" font-size="13" lengthAdjust="spacing" textLength="91" x="364.5" y="529.0537">deactivate(user)</text><polygon fill="#181818" points="669,561.6074,679,565.6074,669,569.6074,673,565.6074" style="stroke:#181818;stroke-width:1.0;"/><line style="stroke:#181818;stroke-width:1.0;" x1="529.5" x2="675" y1="565.6074" y2="565.6074"/><text fill="#000000" font-family="sans-serif" font-size="13" lengthAdjust="spacing" textLength="66" x="536.5" y="560.3447">deactivate()</text><polygon fill="#181818" points="1072,592.8984,1082,596.8984,1072,600.8984,1076,596.8984" style="stroke:#181818;stroke-width:1.0;"/><line style="stroke:#181818;stroke-width:1.0;" x1="529.5" x2="1078" y1="596.8984" y2="596.8984"/><text fill="#000000" font-family="sans-serif" font-size="13" lengthAdjust="spacing" textLength="59" x="536.5" y="591.6357">save(user)</text><polygon fill="#181818" points="540.5,624.1895,530.5,628.1895,540.5,632.1895,536.5,628.1895" style="stroke:#181818;stroke-width:1.0;"/><line style="stroke:#181818;stroke-width:1.0;stroke-dasharray:2.0,2.0;" x1="534.5" x2="1088" y1="628.1895" y2="628.1895"/><text fill="#000000" font-family="sans-serif" font-size="13" lengthAdjust="spacing" textLength="25" x="546.5" y="622.9268">user</text><polygon fill="#181818" points="368.5,655.4805,358.5,659.4805,368.5,663.4805,364.5,659.4805" style="stroke:#181818;stroke-width:1.0;"/><line style="stroke:#181818;stroke-width:1.0;stroke-dasharray:2.0,2.0;" x1="362.5" x2="523.5" y1="659.4805" y2="659.4805"/><text fill="#000000" font-family="sans-serif" font-size="13" lengthAdjust="spacing" textLength="25" x="374.5" y="654.2178">user</text><polygon fill="#181818" points="223,686.7715,213,690.7715,223,694.7715,219,690.7715" style="stroke:#181818;stroke-width:1.0;"/><line style="stroke:#181818;stroke-width:1.0;stroke-dasharray:2.0,2.0;" x1="217" x2="351.5" y1="690.7715" y2="690.7715"/><text fill="#000000" font-family="sans-serif" font-size="13" lengthAdjust="spacing" textLength="106" x="229" y="685.5088">operation success</text><polygon fill="#181818" points="47,718.0625,37,722.0625,47,726.0625,43,722.0625" style="stroke:#181818;stroke-width:1.0;"/><line style="stroke:#181818;stroke-width:1.0;stroke-dasharray:2.0,2.0;" x1="41" x2="211" y1="722.0625" y2="722.0625"/><text fill="#000000" font-family="sans-serif" font-size="13" lengthAdjust="spacing" textLength="152" x="53" y="716.7998">informs operation success</text><!--SRC=[bLHDRwCm4BtpAwnUcXpIt16Ar4yfXzLMYRftrqoAjM0ZZvEMVxyp9WMS0ktwWC2yz-RhsTU5ztMwNjUbDFvObJVALclygqqjdQnk2b-LIIALjqxyaaQ-WHCInIrl90JnMkcQcE91etmjuGN1lMmPGiyignqW62-zjcQpcIBSM-ETBSjMM_LVMIRhkjHgZC_4DgEA8kp1dRG2vkztV-vdcLT7egRx1ZrKh78Lqjq_xeYLsqhgIy8pEDI4DWeuLVZmpAZxNQwq_xfWxw2sgAbVpLFeOyFam_aroyvlHCgbbwyI8PJMinY-Utp-JLZNRH8yIS8Kn6f3lKx1S3S5buOyBtsIdfIsYQ15io3KeB6fK0u8a4pzRkLopWGNou3gH7jWsESru99Ic43Q4IALI8c1tIwlm2I5K6zwq2Q_QsuP3GllZh2Cm9qCewC_l894dyome0YRmxJEPpgJhKb6LAAYuiPGesSoCPROJhyLFXLa8382TXv5OOtmLlIkVV0skOWyCXWUBGLkdP8ABEmxnXaC-EIMG1puYfrIM8k0mLgSGjuUt7ddiFP_-wQTkh27RKv7MljcmJ6Dh634Er-6DRmtLgjFCLRuyRp7RDpZGpOJ5fnqShXNqa7KnNB6yIXFis767TgN6rNxmqgPVJuaSytgAkIBdIZHq2rTV-6g5NXK2X2_iMRhC9O95jFcO5s58p8NxXny1eb_]--></g></svg>