<?xml version="1.0" encoding="us-ascii" standalone="no"?><svg xmlns="http://www.w3.org/2000/svg" xmlns:xlink="http://www.w3.org/1999/xlink" contentStyleType="text/css" height="776px" preserveAspectRatio="none" style="width:1130px;height:776px;background:#FFFFFF;" version="1.1" viewBox="0 0 1130 776" width="1130px" zoomAndPan="magnify"><defs/><g><rect fill="#FFFFFF" height="256.3281" style="stroke:#181818;stroke-width:1.0;" width="10" x="207" y="121.5332"/><rect fill="#FFFFFF" height="159.4551" style="stroke:#181818;stroke-width:1.0;" width="10" x="346" y="184.1152"/><rect fill="#FFFFFF" height="187.7461" style="stroke:#181818;stroke-width:1.0;" width="10" x="346" y="440.4434"/><rect fill="#FFFFFF" height="93.873" style="stroke:#181818;stroke-width:1.0;" width="10" x="512.5" y="215.4063"/><rect fill="#FFFFFF" height="31.291" style="stroke:#181818;stroke-width:1.0;" width="10" x="1073" y="246.6973"/><rect fill="#FFFFFF" height="31.291" style="stroke:#181818;stroke-width:1.0;" width="10" x="1073" y="471.7344"/><rect fill="#FFFFFF" height="31.291" style="stroke:#181818;stroke-width:1.0;" width="10" x="1073" y="565.6074"/><line style="stroke:#181818;stroke-width:0.5;stroke-dasharray:5.0,5.0;" x1="36" x2="36" y1="88.2422" y2="677.4805"/><line style="stroke:#181818;stroke-width:0.5;stroke-dasharray:5.0,5.0;" x1="211.5" x2="211.5" y1="88.2422" y2="677.4805"/><line style="stroke:#181818;stroke-width:0.5;stroke-dasharray:5.0,5.0;" x1="350.5" x2="350.5" y1="88.2422" y2="677.4805"/><line style="stroke:#181818;stroke-width:0.5;stroke-dasharray:5.0,5.0;" x1="517.5" x2="517.5" y1="88.2422" y2="677.4805"/><line style="stroke:#181818;stroke-width:0.5;stroke-dasharray:5.0,5.0;" x1="669.5" x2="669.5" y1="88.2422" y2="677.4805"/><line style="stroke:#181818;stroke-width:0.5;stroke-dasharray:5.0,5.0;" x1="808.5" x2="808.5" y1="88.2422" y2="677.4805"/><line style="stroke:#181818;stroke-width:0.5;stroke-dasharray:5.0,5.0;" x1="951.5" x2="951.5" y1="88.2422" y2="677.4805"/><line style="stroke:#181818;stroke-width:0.5;stroke-dasharray:5.0,5.0;" x1="1077.5" x2="1077.5" y1="88.2422" y2="677.4805"/><text fill="#000000" font-family="sans-serif" font-size="14" lengthAdjust="spacing" textLength="56" x="5" y="84.7285">Manager</text><ellipse cx="36" cy="18.1211" fill="#E2E2F0" rx="8" ry="8" style="stroke:#181818;stroke-width:0.5;"/><path d="M36,26.1211 L36,53.1211 M23,34.1211 L49,34.1211 M36,53.1211 L23,68.1211 M36,53.1211 L49,68.1211 " fill="none" style="stroke:#181818;stroke-width:0.5;"/><text fill="#000000" font-family="sans-serif" font-size="14" lengthAdjust="spacing" textLength="56" x="5" y="691.5879">Manager</text><ellipse cx="36" cy="703.6016" fill="#E2E2F0" rx="8" ry="8" style="stroke:#181818;stroke-width:0.5;"/><path d="M36,711.6016 L36,738.6016 M23,719.6016 L49,719.6016 M36,738.6016 L23,753.6016 M36,738.6016 L49,753.6016 " fill="none" style="stroke:#181818;stroke-width:0.5;"/><rect fill="#E2E2F0" height="51.2422" rx="2.5" ry="2.5" style="stroke:#181818;stroke-width:0.5;" width="109" x="157.5" y="36"/><text fill="#000000" font-family="sans-serif" font-size="14" font-style="italic" lengthAdjust="spacing" textLength="95" x="164.5" y="58.1074">&#171;presentation&#187;</text><text fill="#000000" font-family="sans-serif" font-size="14" lengthAdjust="spacing" textLength="85" x="169.5" y="76.7285">EnableUserUI</text><rect fill="#E2E2F0" height="51.2422" rx="2.5" ry="2.5" style="stroke:#181818;stroke-width:0.5;" width="109" x="157.5" y="676.4805"/><text fill="#000000" font-family="sans-serif" font-size="14" font-style="italic" lengthAdjust="spacing" textLength="95" x="164.5" y="698.5879">&#171;presentation&#187;</text><text fill="#000000" font-family="sans-serif" font-size="14" lengthAdjust="spacing" textLength="85" x="169.5" y="717.209">EnableUserUI</text><rect fill="#E2E2F0" height="51.2422" rx="2.5" ry="2.5" style="stroke:#181818;stroke-width:0.5;" width="149" x="276.5" y="36"/><text fill="#000000" font-family="sans-serif" font-size="14" font-style="italic" lengthAdjust="spacing" textLength="84" x="309" y="58.1074">&#171;application&#187;</text><text fill="#000000" font-family="sans-serif" font-size="14" lengthAdjust="spacing" textLength="135" x="283.5" y="76.7285">EnableUserController</text><rect fill="#E2E2F0" height="51.2422" rx="2.5" ry="2.5" style="stroke:#181818;stroke-width:0.5;" width="149" x="276.5" y="676.4805"/><text fill="#000000" font-family="sans-serif" font-size="14" font-style="italic" lengthAdjust="spacing" textLength="84" x="309" y="698.5879">&#171;application&#187;</text><text fill="#000000" font-family="sans-serif" font-size="14" lengthAdjust="spacing" textLength="135" x="283.5" y="717.209">EnableUserController</text><rect fill="#E2E2F0" height="51.2422" rx="2.5" ry="2.5" style="stroke:#181818;stroke-width:0.5;" width="164" x="435.5" y="36"/><text fill="#000000" font-family="sans-serif" font-size="14" font-style="italic" lengthAdjust="spacing" textLength="84" x="475.5" y="58.1074">&#171;application&#187;</text><text fill="#000000" font-family="sans-serif" font-size="14" lengthAdjust="spacing" textLength="150" x="442.5" y="76.7285">UserManagmentService</text><rect fill="#E2E2F0" height="51.2422" rx="2.5" ry="2.5" style="stroke:#181818;stroke-width:0.5;" width="164" x="435.5" y="676.4805"/><text fill="#000000" font-family="sans-serif" font-size="14" font-style="italic" lengthAdjust="spacing" textLength="84" x="475.5" y="698.5879">&#171;application&#187;</text><text fill="#000000" font-family="sans-serif" font-size="14" lengthAdjust="spacing" textLength="150" x="442.5" y="717.209">UserManagmentService</text><rect fill="#E2E2F0" height="51.2422" rx="2.5" ry="2.5" style="stroke:#181818;stroke-width:0.5;" width="121" x="609.5" y="36"/><text fill="#000000" font-family="sans-serif" font-size="14" font-style="italic" lengthAdjust="spacing" textLength="62" x="639" y="58.1074">&#171;domain&#187;</text><text fill="#000000" font-family="sans-serif" font-size="14" lengthAdjust="spacing" textLength="107" x="616.5" y="76.7285">user:SystemUser</text><rect fill="#E2E2F0" height="51.2422" rx="2.5" ry="2.5" style="stroke:#181818;stroke-width:0.5;" width="121" x="609.5" y="676.4805"/><text fill="#000000" font-family="sans-serif" font-size="14" font-style="italic" lengthAdjust="spacing" textLength="62" x="639" y="698.5879">&#171;domain&#187;</text><text fill="#000000" font-family="sans-serif" font-size="14" lengthAdjust="spacing" textLength="107" x="616.5" y="717.209">user:SystemUser</text><rect fill="#E2E2F0" height="51.2422" rx="2.5" ry="2.5" style="stroke:#181818;stroke-width:0.5;" width="136" x="740.5" y="36"/><text fill="#000000" font-family="sans-serif" font-size="14" font-style="italic" lengthAdjust="spacing" textLength="89" x="764" y="58.1074">&#171;persistence&#187;</text><text fill="#000000" font-family="sans-serif" font-size="14" lengthAdjust="spacing" textLength="122" x="747.5" y="76.7285">PersistenceContext</text><rect fill="#E2E2F0" height="51.2422" rx="2.5" ry="2.5" style="stroke:#181818;stroke-width:0.5;" width="136" x="740.5" y="676.4805"/><text fill="#000000" font-family="sans-serif" font-size="14" font-style="italic" lengthAdjust="spacing" textLength="89" x="764" y="698.5879">&#171;persistence&#187;</text><text fill="#000000" font-family="sans-serif" font-size="14" lengthAdjust="spacing" textLength="122" x="747.5" y="717.209">PersistenceContext</text><rect fill="#E2E2F0" height="51.2422" rx="2.5" ry="2.5" style="stroke:#181818;stroke-width:0.5;" width="130" x="886.5" y="36"/><text fill="#000000" font-family="sans-serif" font-size="14" font-style="italic" lengthAdjust="spacing" textLength="59" x="922" y="58.1074">&#171;factory&#187;</text><text fill="#000000" font-family="sans-serif" font-size="14" lengthAdjust="spacing" textLength="116" x="893.5" y="76.7285">RepositoryFactory</text><rect fill="#E2E2F0" height="51.2422" rx="2.5" ry="2.5" style="stroke:#181818;stroke-width:0.5;" width="130" x="886.5" y="676.4805"/><text fill="#000000" font-family="sans-serif" font-size="14" font-style="italic" lengthAdjust="spacing" textLength="59" x="922" y="698.5879">&#171;factory&#187;</text><text fill="#000000" font-family="sans-serif" font-size="14" lengthAdjust="spacing" textLength="116" x="893.5" y="717.209">RepositoryFactory</text><text fill="#000000" font-family="sans-serif" font-size="14" font-style="italic" lengthAdjust="spacing" textLength="79" x="1035.5" y="66.1074">&#171;repository&#187;</text><text fill="#000000" font-family="sans-serif" font-size="14" lengthAdjust="spacing" textLength="97" x="1026.5" y="84.7285">UserRepository</text><path d="M1060,15 C1060,5 1078,5 1078,5 C1078,5 1096,5 1096,15 L1096,41 C1096,51 1078,51 1078,51 C1078,51 1060,51 1060,41 L1060,15 " fill="#E2E2F0" style="stroke:#181818;stroke-width:1.5;"/><path d="M1060,15 C1060,25 1078,25 1078,25 C1078,25 1096,25 1096,15 " fill="none" style="stroke:#181818;stroke-width:1.5;"/><text fill="#000000" font-family="sans-serif" font-size="14" font-style="italic" lengthAdjust="spacing" textLength="79" x="1035.5" y="691.5879">&#171;repository&#187;</text><text fill="#000000" font-family="sans-serif" font-size="14" lengthAdjust="spacing" textLength="97" x="1026.5" y="710.209">UserRepository</text><path d="M1060,723.7227 C1060,713.7227 1078,713.7227 1078,713.7227 C1078,713.7227 1096,713.7227 1096,723.7227 L1096,749.7227 C1096,759.7227 1078,759.7227 1078,759.7227 C1078,759.7227 1060,759.7227 1060,749.7227 L1060,723.7227 " fill="#E2E2F0" style="stroke:#181818;stroke-width:1.5;"/><path d="M1060,723.7227 C1060,733.7227 1078,733.7227 1078,733.7227 C1078,733.7227 1096,733.7227 1096,723.7227 " fill="none" style="stroke:#181818;stroke-width:1.5;"/><rect fill="#FFFFFF" height="256.3281" style="stroke:#181818;stroke-width:1.0;" width="10" x="207" y="121.5332"/><rect fill="#FFFFFF" height="159.4551" style="stroke:#181818;stroke-width:1.0;" width="10" x="346" y="184.1152"/><rect fill="#FFFFFF" height="187.7461" style="stroke:#181818;stroke-width:1.0;" width="10" x="346" y="440.4434"/><rect fill="#FFFFFF" height="93.873" style="stroke:#181818;stroke-width:1.0;" width="10" x="512.5" y="215.4063"/><rect fill="#FFFFFF" height="31.291" style="stroke:#181818;stroke-width:1.0;" width="10" x="1073" y="246.6973"/><rect fill="#FFFFFF" height="31.291" style="stroke:#181818;stroke-width:1.0;" width="10" x="1073" y="471.7344"/><rect fill="#FFFFFF" height="31.291" style="stroke:#181818;stroke-width:1.0;" width="10" x="1073" y="565.6074"/><polygon fill="#181818" points="195,117.5332,205,121.5332,195,125.5332,199,121.5332" style="stroke:#181818;stroke-width:1.0;"/><line style="stroke:#181818;stroke-width:1.0;" x1="36" x2="201" y1="121.5332" y2="121.5332"/><text fill="#000000" font-family="sans-serif" font-size="13" lengthAdjust="spacing" textLength="74" x="43" y="116.2705">enable users</text><polygon fill="#181818" points="339,148.8242,349,152.8242,339,156.8242,343,152.8242" style="stroke:#181818;stroke-width:1.0;"/><line style="stroke:#181818;stroke-width:1.0;" x1="217" x2="345" y1="152.8242" y2="152.8242"/><text fill="#000000" font-family="sans-serif" font-size="13" lengthAdjust="spacing" textLength="36" x="224" y="147.5615">create</text><polygon fill="#181818" points="334,180.1152,344,184.1152,334,188.1152,338,184.1152" style="stroke:#181818;stroke-width:1.0;"/><line style="stroke:#181818;stroke-width:1.0;" x1="217" x2="340" y1="184.1152" y2="184.1152"/><text fill="#000000" font-family="sans-serif" font-size="13" lengthAdjust="spacing" textLength="90" x="224" y="178.8525">disabledUsers()</text><polygon fill="#181818" points="500.5,211.4063,510.5,215.4063,500.5,219.4063,504.5,215.4063" style="stroke:#181818;stroke-width:1.0;"/><line style="stroke:#181818;stroke-width:1.0;" x1="356" x2="506.5" y1="215.4063" y2="215.4063"/><text fill="#000000" font-family="sans-serif" font-size="13" lengthAdjust="spacing" textLength="107" x="363" y="210.1436">deactivatedUsers()</text><polygon fill="#181818" points="1061,242.6973,1071,246.6973,1061,250.6973,1065,246.6973" style="stroke:#181818;stroke-width:1.0;"/><line style="stroke:#181818;stroke-width:1.0;" x1="522.5" x2="1067" y1="246.6973" y2="246.6973"/><text fill="#000000" font-family="sans-serif" font-size="13" lengthAdjust="spacing" textLength="106" x="529.5" y="241.4346">findByActive(false)</text><polygon fill="#181818" points="533.5,273.9883,523.5,277.9883,533.5,281.9883,529.5,277.9883" style="stroke:#181818;stroke-width:1.0;"/><line style="stroke:#181818;stroke-width:1.0;" x1="527.5" x2="1077" y1="277.9883" y2="277.9883"/><text fill="#000000" font-family="sans-serif" font-size="13" lengthAdjust="spacing" textLength="82" x="539.5" y="272.7256">disabledUsers</text><polygon fill="#181818" points="367,305.2793,357,309.2793,367,313.2793,363,309.2793" style="stroke:#181818;stroke-width:1.0;"/><line style="stroke:#181818;stroke-width:1.0;" x1="361" x2="516.5" y1="309.2793" y2="309.2793"/><text fill="#000000" font-family="sans-serif" font-size="13" lengthAdjust="spacing" textLength="82" x="373" y="304.0166">disabledUsers</text><polygon fill="#181818" points="228,339.5703,218,343.5703,228,347.5703,224,343.5703" style="stroke:#181818;stroke-width:1.0;"/><line style="stroke:#181818;stroke-width:1.0;" x1="222" x2="350" y1="343.5703" y2="343.5703"/><text fill="#000000" font-family="sans-serif" font-size="13" lengthAdjust="spacing" textLength="82" x="234" y="338.3076">disabledUsers</text><path d="M361,322.2793 L361,349.2793 L624,349.2793 L624,332.2793 L614,322.2793 L361,322.2793 " fill="#FEFFDD" style="stroke:#181818;stroke-width:0.5;"/><path d="M614,322.2793 L614,332.2793 L624,332.2793 L614,322.2793 " fill="#FEFFDD" style="stroke:#181818;stroke-width:0.5;"/><text fill="#000000" font-family="sans-serif" font-size="13" lengthAdjust="spacing" textLength="242" x="367" y="341.3076">parse systemUsers on to SystemUserDto</text><polygon fill="#181818" points="47,373.8613,37,377.8613,47,381.8613,43,377.8613" style="stroke:#181818;stroke-width:1.0;"/><line style="stroke:#181818;stroke-width:1.0;stroke-dasharray:2.0,2.0;" x1="41" x2="211" y1="377.8613" y2="377.8613"/><text fill="#000000" font-family="sans-serif" font-size="13" lengthAdjust="spacing" textLength="123" x="53" y="372.5986">shows disabledUsers</text><polygon fill="#181818" points="200,405.1523,210,409.1523,200,413.1523,204,409.1523" style="stroke:#181818;stroke-width:1.0;"/><line style="stroke:#181818;stroke-width:1.0;" x1="36" x2="206" y1="409.1523" y2="409.1523"/><text fill="#000000" font-family="sans-serif" font-size="13" lengthAdjust="spacing" textLength="135" x="43" y="403.8896">chooses user to enable</text><polygon fill="#181818" points="334,436.4434,344,440.4434,334,444.4434,338,440.4434" style="stroke:#181818;stroke-width:1.0;"/><line style="stroke:#181818;stroke-width:1.0;" x1="212" x2="340" y1="440.4434" y2="440.4434"/><text fill="#000000" font-family="sans-serif" font-size="13" lengthAdjust="spacing" textLength="73" x="219" y="435.1807">enableUser()</text><polygon fill="#181818" points="1061,467.7344,1071,471.7344,1061,475.7344,1065,471.7344" style="stroke:#181818;stroke-width:1.0;"/><line style="stroke:#181818;stroke-width:1.0;" x1="356" x2="1067" y1="471.7344" y2="471.7344"/><text fill="#000000" font-family="sans-serif" font-size="13" lengthAdjust="spacing" textLength="117" x="363" y="466.4717">ofIdentity(username)</text><polygon fill="#181818" points="367,499.0254,357,503.0254,367,507.0254,363,503.0254" style="stroke:#181818;stroke-width:1.0;"/><line style="stroke:#181818;stroke-width:1.0;stroke-dasharray:2.0,2.0;" x1="361" x2="1077" y1="503.0254" y2="503.0254"/><text fill="#000000" font-family="sans-serif" font-size="13" lengthAdjust="spacing" textLength="25" x="373" y="497.7627">user</text><polygon fill="#181818" points="658,530.3164,668,534.3164,658,538.3164,662,534.3164" style="stroke:#181818;stroke-width:1.0;"/><line style="stroke:#181818;stroke-width:1.0;" x1="356" x2="664" y1="534.3164" y2="534.3164"/><text fill="#000000" font-family="sans-serif" font-size="13" lengthAdjust="spacing" textLength="52" x="363" y="529.0537">activate()</text><polygon fill="#181818" points="1061,561.6074,1071,565.6074,1061,569.6074,1065,565.6074" style="stroke:#181818;stroke-width:1.0;"/><line style="stroke:#181818;stroke-width:1.0;" x1="356" x2="1067" y1="565.6074" y2="565.6074"/><text fill="#000000" font-family="sans-serif" font-size="13" lengthAdjust="spacing" textLength="59" x="363" y="560.3447">save(user)</text><polygon fill="#181818" points="367,592.8984,357,596.8984,367,600.8984,363,596.8984" style="stroke:#181818;stroke-width:1.0;"/><line style="stroke:#181818;stroke-width:1.0;stroke-dasharray:2.0,2.0;" x1="361" x2="1077" y1="596.8984" y2="596.8984"/><text fill="#000000" font-family="sans-serif" font-size="13" lengthAdjust="spacing" textLength="25" x="373" y="591.6357">user</text><polygon fill="#181818" points="223,624.1895,213,628.1895,223,632.1895,219,628.1895" style="stroke:#181818;stroke-width:1.0;"/><line style="stroke:#181818;stroke-width:1.0;stroke-dasharray:2.0,2.0;" x1="217" x2="350" y1="628.1895" y2="628.1895"/><text fill="#000000" font-family="sans-serif" font-size="13" lengthAdjust="spacing" textLength="106" x="229" y="622.9268">operation success</text><polygon fill="#181818" points="47,655.4805,37,659.4805,47,663.4805,43,659.4805" style="stroke:#181818;stroke-width:1.0;"/><line style="stroke:#181818;stroke-width:1.0;stroke-dasharray:2.0,2.0;" x1="41" x2="211" y1="659.4805" y2="659.4805"/><text fill="#000000" font-family="sans-serif" font-size="13" lengthAdjust="spacing" textLength="152" x="53" y="654.2178">informs operation success</text><!--SRC=[hLJBRjim4BphAuXSwXmStmN1G9gwW0z50nlfdQ5M4L699BXqMlrzTocRUaHESYWFWaZD39Sx8twfGt3vPkCQQSAfRUwKRJVuMnidlMplwj0sMIPLi5xya4Q-W1SInJqlP0G9Mcb7JB4pyhc19mJ_j6S4FOl2UK0mGGPjpNPx1VzWJV2sQNfbDSoAGZhNQBL4PsAifoNz8_XNhO3fnyElXtU9DoTYviSE0xGiSXEBFUuEn2fjA_MSy0WUDQ6D0guK_WPck66LppdCPkm3E8kQcjLzZqtic5oTNulY_4QaKWRvB17YoGOMmm-xnv-4zMcHu5aMBH3hBNKwXzXCmKT3Dak_oa1A-qpG82S8DUfhBfG70cJNFfSQMQ_aKd1rs-EIx02Dwpn6RDAA7f0AN2X9w89FMWnDgpmYbpJYcVDAc_9hTyzeM5MoGRYTe9CEmoTVU4IDKJtZKqt0GwLlXIu5NMzGjY0pETUqEzJlzsenbkXUlzGX5nGa2WIchAAmHWGhXlH-2pQRRRrW3rjCE_U9oGNMzW_EIXW9K6mYSnGmZanjBGB6Z74DVUIk9GZIttrs_VFfwPqNjjgNz6lhqAruIoDRMCZF6xl6ryTwVH5ZXKyvFhEAhuKyxJOAy5B9A2calDD_gdEfHhvL2JxfjQNR9zvq0azA0U87YUXzPPbeh3QLzIqkoCmoCPf6YNy0]--></g></svg>