<?xml version="1.0" encoding="us-ascii" standalone="no"?><svg xmlns="http://www.w3.org/2000/svg" xmlns:xlink="http://www.w3.org/1999/xlink" contentStyleType="text/css" height="1368px" preserveAspectRatio="none" style="width:1286px;height:1368px;background:#FFFFFF;" version="1.1" viewBox="0 0 1286 1368" width="1286px" zoomAndPan="magnify"><defs/><g><rect fill="#FFFFFF" height="1153.0586" style="stroke:#181818;stroke-width:1.0;" width="10" x="31" y="98.2422"/><rect fill="#FFFFFF" height="438.0742" style="stroke:#181818;stroke-width:1.0;" width="10" x="198" y="156.1152"/><rect fill="#FFFFFF" height="187.7461" style="stroke:#181818;stroke-width:1.0;" width="10" x="198" y="625.4805"/><rect fill="#FFFFFF" height="187.7461" style="stroke:#181818;stroke-width:1.0;" width="10" x="198" y="844.5176"/><rect fill="#FFFFFF" height="187.7461" style="stroke:#181818;stroke-width:1.0;" width="10" x="198" y="1063.5547"/><rect fill="#FFFFFF" height="406.7832" style="stroke:#181818;stroke-width:1.0;" width="10" x="388.5" y="187.4063"/><rect fill="#FFFFFF" height="156.4551" style="stroke:#181818;stroke-width:1.0;" width="10" x="388.5" y="625.4805"/><rect fill="#FFFFFF" height="156.4551" style="stroke:#181818;stroke-width:1.0;" width="10" x="388.5" y="844.5176"/><rect fill="#FFFFFF" height="156.4551" style="stroke:#181818;stroke-width:1.0;" width="10" x="388.5" y="1063.5547"/><rect fill="#FFFFFF" height="375.4922" style="stroke:#181818;stroke-width:1.0;" width="10" x="525" y="218.6973"/><rect fill="#FFFFFF" height="93.873" style="stroke:#181818;stroke-width:1.0;" width="10" x="525" y="656.7715"/><rect fill="#FFFFFF" height="93.873" style="stroke:#181818;stroke-width:1.0;" width="10" x="525" y="875.8086"/><rect fill="#FFFFFF" height="93.873" style="stroke:#181818;stroke-width:1.0;" width="10" x="525" y="1094.8457"/><rect fill="#FFFFFF" height="62.582" style="stroke:#181818;stroke-width:1.0;" width="10" x="662.5" y="249.9883"/><rect fill="#FFFFFF" height="31.291" style="stroke:#181818;stroke-width:1.0;" width="10" x="805.5" y="281.2793"/><rect fill="#FFFFFF" height="62.582" style="stroke:#181818;stroke-width:1.0;" width="10" x="805.5" y="343.8613"/><rect fill="#FFFFFF" height="62.582" style="stroke:#181818;stroke-width:1.0;" width="10" x="805.5" y="437.7344"/><rect fill="#FFFFFF" height="62.582" style="stroke:#181818;stroke-width:1.0;" width="10" x="805.5" y="531.6074"/><rect fill="#FFFFFF" height="31.291" style="stroke:#181818;stroke-width:1.0;" width="10" x="944" y="375.1523"/><rect fill="#FFFFFF" height="31.291" style="stroke:#181818;stroke-width:1.0;" width="10" x="944" y="688.0625"/><rect fill="#FFFFFF" height="31.291" style="stroke:#181818;stroke-width:1.0;" width="10" x="1079" y="469.0254"/><rect fill="#FFFFFF" height="31.291" style="stroke:#181818;stroke-width:1.0;" width="10" x="1079" y="907.0996"/><rect fill="#FFFFFF" height="31.291" style="stroke:#181818;stroke-width:1.0;" width="10" x="1215.5" y="562.8984"/><rect fill="#FFFFFF" height="31.291" style="stroke:#181818;stroke-width:1.0;" width="10" x="1215.5" y="1126.1367"/><line style="stroke:#181818;stroke-width:0.5;stroke-dasharray:5.0,5.0;" x1="36" x2="36" y1="88.2422" y2="1269.3008"/><line style="stroke:#181818;stroke-width:0.5;stroke-dasharray:5.0,5.0;" x1="202.5" x2="202.5" y1="88.2422" y2="1269.3008"/><line style="stroke:#181818;stroke-width:0.5;stroke-dasharray:5.0,5.0;" x1="393.5" x2="393.5" y1="88.2422" y2="1269.3008"/><line style="stroke:#181818;stroke-width:0.5;stroke-dasharray:5.0,5.0;" x1="529.5" x2="529.5" y1="88.2422" y2="1269.3008"/><line style="stroke:#181818;stroke-width:0.5;stroke-dasharray:5.0,5.0;" x1="667.5" x2="667.5" y1="88.2422" y2="1269.3008"/><line style="stroke:#181818;stroke-width:0.5;stroke-dasharray:5.0,5.0;" x1="810.5" x2="810.5" y1="88.2422" y2="1269.3008"/><line style="stroke:#181818;stroke-width:0.5;stroke-dasharray:5.0,5.0;" x1="948.5" x2="948.5" y1="88.2422" y2="1269.3008"/><line style="stroke:#181818;stroke-width:0.5;stroke-dasharray:5.0,5.0;" x1="1083.5" x2="1083.5" y1="88.2422" y2="1269.3008"/><line style="stroke:#181818;stroke-width:0.5;stroke-dasharray:5.0,5.0;" x1="1220.5" x2="1220.5" y1="88.2422" y2="1269.3008"/><text fill="#000000" font-family="sans-serif" font-size="14" lengthAdjust="spacing" textLength="56" x="5" y="84.7285">Manager</text><ellipse cx="36" cy="18.1211" fill="#E2E2F0" rx="8" ry="8" style="stroke:#181818;stroke-width:0.5;"/><path d="M36,26.1211 L36,53.1211 M23,34.1211 L49,34.1211 M36,53.1211 L23,68.1211 M36,53.1211 L49,68.1211 " fill="none" style="stroke:#181818;stroke-width:0.5;"/><text fill="#000000" font-family="sans-serif" font-size="14" lengthAdjust="spacing" textLength="56" x="5" y="1283.4082">Manager</text><ellipse cx="36" cy="1295.4219" fill="#E2E2F0" rx="8" ry="8" style="stroke:#181818;stroke-width:0.5;"/><path d="M36,1303.4219 L36,1330.4219 M23,1311.4219 L49,1311.4219 M36,1330.4219 L23,1345.4219 M36,1330.4219 L49,1345.4219 " fill="none" style="stroke:#181818;stroke-width:0.5;"/><rect fill="#E2E2F0" height="51.2422" rx="2.5" ry="2.5" style="stroke:#181818;stroke-width:0.5;" width="227" x="89.5" y="36"/><text fill="#000000" font-family="sans-serif" font-size="14" font-style="italic" lengthAdjust="spacing" textLength="95" x="155.5" y="58.1074">&#171;presentation&#187;</text><text fill="#000000" font-family="sans-serif" font-size="14" lengthAdjust="spacing" textLength="213" x="96.5" y="76.7285">ListTeachersStudentsManagersUI</text><rect fill="#E2E2F0" height="51.2422" rx="2.5" ry="2.5" style="stroke:#181818;stroke-width:0.5;" width="227" x="89.5" y="1268.3008"/><text fill="#000000" font-family="sans-serif" font-size="14" font-style="italic" lengthAdjust="spacing" textLength="95" x="155.5" y="1290.4082">&#171;presentation&#187;</text><text fill="#000000" font-family="sans-serif" font-size="14" lengthAdjust="spacing" textLength="213" x="96.5" y="1309.0293">ListTeachersStudentsManagersUI</text><rect fill="#E2E2F0" height="51.2422" rx="2.5" ry="2.5" style="stroke:#181818;stroke-width:0.5;" width="134" x="326.5" y="36"/><text fill="#000000" font-family="sans-serif" font-size="14" font-style="italic" lengthAdjust="spacing" textLength="84" x="351.5" y="58.1074">&#171;application&#187;</text><text fill="#000000" font-family="sans-serif" font-size="14" lengthAdjust="spacing" textLength="120" x="333.5" y="76.7285">ListUsersController</text><rect fill="#E2E2F0" height="51.2422" rx="2.5" ry="2.5" style="stroke:#181818;stroke-width:0.5;" width="134" x="326.5" y="1268.3008"/><text fill="#000000" font-family="sans-serif" font-size="14" font-style="italic" lengthAdjust="spacing" textLength="84" x="351.5" y="1290.4082">&#171;application&#187;</text><text fill="#000000" font-family="sans-serif" font-size="14" lengthAdjust="spacing" textLength="120" x="333.5" y="1309.0293">ListUsersController</text><rect fill="#E2E2F0" height="51.2422" rx="2.5" ry="2.5" style="stroke:#181818;stroke-width:0.5;" width="119" x="470.5" y="36"/><text fill="#000000" font-family="sans-serif" font-size="14" font-style="italic" lengthAdjust="spacing" textLength="84" x="488" y="58.1074">&#171;application&#187;</text><text fill="#000000" font-family="sans-serif" font-size="14" lengthAdjust="spacing" textLength="105" x="477.5" y="76.7285">ListUsersService</text><rect fill="#E2E2F0" height="51.2422" rx="2.5" ry="2.5" style="stroke:#181818;stroke-width:0.5;" width="119" x="470.5" y="1268.3008"/><text fill="#000000" font-family="sans-serif" font-size="14" font-style="italic" lengthAdjust="spacing" textLength="84" x="488" y="1290.4082">&#171;application&#187;</text><text fill="#000000" font-family="sans-serif" font-size="14" lengthAdjust="spacing" textLength="105" x="477.5" y="1309.0293">ListUsersService</text><rect fill="#E2E2F0" height="51.2422" rx="2.5" ry="2.5" style="stroke:#181818;stroke-width:0.5;" width="136" x="599.5" y="36"/><text fill="#000000" font-family="sans-serif" font-size="14" font-style="italic" lengthAdjust="spacing" textLength="89" x="623" y="58.1074">&#171;persistence&#187;</text><text fill="#000000" font-family="sans-serif" font-size="14" lengthAdjust="spacing" textLength="122" x="606.5" y="76.7285">PersistenceContext</text><rect fill="#E2E2F0" height="51.2422" rx="2.5" ry="2.5" style="stroke:#181818;stroke-width:0.5;" width="136" x="599.5" y="1268.3008"/><text fill="#000000" font-family="sans-serif" font-size="14" font-style="italic" lengthAdjust="spacing" textLength="89" x="623" y="1290.4082">&#171;persistence&#187;</text><text fill="#000000" font-family="sans-serif" font-size="14" lengthAdjust="spacing" textLength="122" x="606.5" y="1309.0293">PersistenceContext</text><rect fill="#E2E2F0" height="51.2422" rx="2.5" ry="2.5" style="stroke:#181818;stroke-width:0.5;" width="130" x="745.5" y="36"/><text fill="#000000" font-family="sans-serif" font-size="14" font-style="italic" lengthAdjust="spacing" textLength="59" x="781" y="58.1074">&#171;factory&#187;</text><text fill="#000000" font-family="sans-serif" font-size="14" lengthAdjust="spacing" textLength="116" x="752.5" y="76.7285">RepositoryFactory</text><rect fill="#E2E2F0" height="51.2422" rx="2.5" ry="2.5" style="stroke:#181818;stroke-width:0.5;" width="130" x="745.5" y="1268.3008"/><text fill="#000000" font-family="sans-serif" font-size="14" font-style="italic" lengthAdjust="spacing" textLength="59" x="781" y="1290.4082">&#171;factory&#187;</text><text fill="#000000" font-family="sans-serif" font-size="14" lengthAdjust="spacing" textLength="116" x="752.5" y="1309.0293">RepositoryFactory</text><text fill="#000000" font-family="sans-serif" font-size="14" font-style="italic" lengthAdjust="spacing" textLength="79" x="906.5" y="66.1074">&#171;repository&#187;</text><text fill="#000000" font-family="sans-serif" font-size="14" lengthAdjust="spacing" textLength="121" x="885.5" y="84.7285">TeacherRepository</text><path d="M931,15 C931,5 949,5 949,5 C949,5 967,5 967,15 L967,41 C967,51 949,51 949,51 C949,51 931,51 931,41 L931,15 " fill="#E2E2F0" style="stroke:#181818;stroke-width:1.5;"/><path d="M931,15 C931,25 949,25 949,25 C949,25 967,25 967,15 " fill="none" style="stroke:#181818;stroke-width:1.5;"/><text fill="#000000" font-family="sans-serif" font-size="14" font-style="italic" lengthAdjust="spacing" textLength="79" x="906.5" y="1283.4082">&#171;repository&#187;</text><text fill="#000000" font-family="sans-serif" font-size="14" lengthAdjust="spacing" textLength="121" x="885.5" y="1302.0293">TeacherRepository</text><path d="M931,1315.543 C931,1305.543 949,1305.543 949,1305.543 C949,1305.543 967,1305.543 967,1315.543 L967,1341.543 C967,1351.543 949,1351.543 949,1351.543 C949,1351.543 931,1351.543 931,1341.543 L931,1315.543 " fill="#E2E2F0" style="stroke:#181818;stroke-width:1.5;"/><path d="M931,1315.543 C931,1325.543 949,1325.543 949,1325.543 C949,1325.543 967,1325.543 967,1315.543 " fill="none" style="stroke:#181818;stroke-width:1.5;"/><text fill="#000000" font-family="sans-serif" font-size="14" font-style="italic" lengthAdjust="spacing" textLength="79" x="1041.5" y="66.1074">&#171;repository&#187;</text><text fill="#000000" font-family="sans-serif" font-size="14" lengthAdjust="spacing" textLength="117" x="1022.5" y="84.7285">StudentRepository</text><path d="M1066,15 C1066,5 1084,5 1084,5 C1084,5 1102,5 1102,15 L1102,41 C1102,51 1084,51 1084,51 C1084,51 1066,51 1066,41 L1066,15 " fill="#E2E2F0" style="stroke:#181818;stroke-width:1.5;"/><path d="M1066,15 C1066,25 1084,25 1084,25 C1084,25 1102,25 1102,15 " fill="none" style="stroke:#181818;stroke-width:1.5;"/><text fill="#000000" font-family="sans-serif" font-size="14" font-style="italic" lengthAdjust="spacing" textLength="79" x="1041.5" y="1283.4082">&#171;repository&#187;</text><text fill="#000000" font-family="sans-serif" font-size="14" lengthAdjust="spacing" textLength="117" x="1022.5" y="1302.0293">StudentRepository</text><path d="M1066,1315.543 C1066,1305.543 1084,1305.543 1084,1305.543 C1084,1305.543 1102,1305.543 1102,1315.543 L1102,1341.543 C1102,1351.543 1084,1351.543 1084,1351.543 C1084,1351.543 1066,1351.543 1066,1341.543 L1066,1315.543 " fill="#E2E2F0" style="stroke:#181818;stroke-width:1.5;"/><path d="M1066,1315.543 C1066,1325.543 1084,1325.543 1084,1325.543 C1084,1325.543 1102,1325.543 1102,1315.543 " fill="none" style="stroke:#181818;stroke-width:1.5;"/><text fill="#000000" font-family="sans-serif" font-size="14" font-style="italic" lengthAdjust="spacing" textLength="79" x="1178" y="66.1074">&#171;repository&#187;</text><text fill="#000000" font-family="sans-serif" font-size="14" lengthAdjust="spacing" textLength="124" x="1155.5" y="84.7285">ManagerRepository</text><path d="M1202.5,15 C1202.5,5 1220.5,5 1220.5,5 C1220.5,5 1238.5,5 1238.5,15 L1238.5,41 C1238.5,51 1220.5,51 1220.5,51 C1220.5,51 1202.5,51 1202.5,41 L1202.5,15 " fill="#E2E2F0" style="stroke:#181818;stroke-width:1.5;"/><path d="M1202.5,15 C1202.5,25 1220.5,25 1220.5,25 C1220.5,25 1238.5,25 1238.5,15 " fill="none" style="stroke:#181818;stroke-width:1.5;"/><text fill="#000000" font-family="sans-serif" font-size="14" font-style="italic" lengthAdjust="spacing" textLength="79" x="1178" y="1283.4082">&#171;repository&#187;</text><text fill="#000000" font-family="sans-serif" font-size="14" lengthAdjust="spacing" textLength="124" x="1155.5" y="1302.0293">ManagerRepository</text><path d="M1202.5,1315.543 C1202.5,1305.543 1220.5,1305.543 1220.5,1305.543 C1220.5,1305.543 1238.5,1305.543 1238.5,1315.543 L1238.5,1341.543 C1238.5,1351.543 1220.5,1351.543 1220.5,1351.543 C1220.5,1351.543 1202.5,1351.543 1202.5,1341.543 L1202.5,1315.543 " fill="#E2E2F0" style="stroke:#181818;stroke-width:1.5;"/><path d="M1202.5,1315.543 C1202.5,1325.543 1220.5,1325.543 1220.5,1325.543 C1220.5,1325.543 1238.5,1325.543 1238.5,1315.543 " fill="none" style="stroke:#181818;stroke-width:1.5;"/><rect fill="#FFFFFF" height="1153.0586" style="stroke:#181818;stroke-width:1.0;" width="10" x="31" y="98.2422"/><rect fill="#FFFFFF" height="438.0742" style="stroke:#181818;stroke-width:1.0;" width="10" x="198" y="156.1152"/><rect fill="#FFFFFF" height="187.7461" style="stroke:#181818;stroke-width:1.0;" width="10" x="198" y="625.4805"/><rect fill="#FFFFFF" height="187.7461" style="stroke:#181818;stroke-width:1.0;" width="10" x="198" y="844.5176"/><rect fill="#FFFFFF" height="187.7461" style="stroke:#181818;stroke-width:1.0;" width="10" x="198" y="1063.5547"/><rect fill="#FFFFFF" height="406.7832" style="stroke:#181818;stroke-width:1.0;" width="10" x="388.5" y="187.4063"/><rect fill="#FFFFFF" height="156.4551" style="stroke:#181818;stroke-width:1.0;" width="10" x="388.5" y="625.4805"/><rect fill="#FFFFFF" height="156.4551" style="stroke:#181818;stroke-width:1.0;" width="10" x="388.5" y="844.5176"/><rect fill="#FFFFFF" height="156.4551" style="stroke:#181818;stroke-width:1.0;" width="10" x="388.5" y="1063.5547"/><rect fill="#FFFFFF" height="375.4922" style="stroke:#181818;stroke-width:1.0;" width="10" x="525" y="218.6973"/><rect fill="#FFFFFF" height="93.873" style="stroke:#181818;stroke-width:1.0;" width="10" x="525" y="656.7715"/><rect fill="#FFFFFF" height="93.873" style="stroke:#181818;stroke-width:1.0;" width="10" x="525" y="875.8086"/><rect fill="#FFFFFF" height="93.873" style="stroke:#181818;stroke-width:1.0;" width="10" x="525" y="1094.8457"/><rect fill="#FFFFFF" height="62.582" style="stroke:#181818;stroke-width:1.0;" width="10" x="662.5" y="249.9883"/><rect fill="#FFFFFF" height="31.291" style="stroke:#181818;stroke-width:1.0;" width="10" x="805.5" y="281.2793"/><rect fill="#FFFFFF" height="62.582" style="stroke:#181818;stroke-width:1.0;" width="10" x="805.5" y="343.8613"/><rect fill="#FFFFFF" height="62.582" style="stroke:#181818;stroke-width:1.0;" width="10" x="805.5" y="437.7344"/><rect fill="#FFFFFF" height="62.582" style="stroke:#181818;stroke-width:1.0;" width="10" x="805.5" y="531.6074"/><rect fill="#FFFFFF" height="31.291" style="stroke:#181818;stroke-width:1.0;" width="10" x="944" y="375.1523"/><rect fill="#FFFFFF" height="31.291" style="stroke:#181818;stroke-width:1.0;" width="10" x="944" y="688.0625"/><rect fill="#FFFFFF" height="31.291" style="stroke:#181818;stroke-width:1.0;" width="10" x="1079" y="469.0254"/><rect fill="#FFFFFF" height="31.291" style="stroke:#181818;stroke-width:1.0;" width="10" x="1079" y="907.0996"/><rect fill="#FFFFFF" height="31.291" style="stroke:#181818;stroke-width:1.0;" width="10" x="1215.5" y="562.8984"/><rect fill="#FFFFFF" height="31.291" style="stroke:#181818;stroke-width:1.0;" width="10" x="1215.5" y="1126.1367"/><polygon fill="#181818" points="186,152.1152,196,156.1152,186,160.1152,190,156.1152" style="stroke:#181818;stroke-width:1.0;"/><line style="stroke:#181818;stroke-width:1.0;" x1="41" x2="192" y1="156.1152" y2="156.1152"/><text fill="#000000" font-family="sans-serif" font-size="13" lengthAdjust="spacing" textLength="133" x="48" y="116.2705">List user of the system</text><text fill="#000000" font-family="sans-serif" font-size="13" lengthAdjust="spacing" textLength="117" x="48" y="133.5615">(Teachers, Students</text><text fill="#000000" font-family="sans-serif" font-size="13" lengthAdjust="spacing" textLength="86" x="48" y="150.8525">and Managers)</text><polygon fill="#181818" points="376.5,183.4063,386.5,187.4063,376.5,191.4063,380.5,187.4063" style="stroke:#181818;stroke-width:1.0;"/><line style="stroke:#181818;stroke-width:1.0;" x1="208" x2="382.5" y1="187.4063" y2="187.4063"/><text fill="#000000" font-family="sans-serif" font-size="13" lengthAdjust="spacing" textLength="36" x="215" y="182.1436">create</text><polygon fill="#181818" points="513,214.6973,523,218.6973,513,222.6973,517,218.6973" style="stroke:#181818;stroke-width:1.0;"/><line style="stroke:#181818;stroke-width:1.0;" x1="398.5" x2="519" y1="218.6973" y2="218.6973"/><text fill="#000000" font-family="sans-serif" font-size="13" lengthAdjust="spacing" textLength="36" x="405.5" y="213.4346">create</text><polygon fill="#181818" points="650.5,245.9883,660.5,249.9883,650.5,253.9883,654.5,249.9883" style="stroke:#181818;stroke-width:1.0;"/><line style="stroke:#181818;stroke-width:1.0;" x1="535" x2="656.5" y1="249.9883" y2="249.9883"/><text fill="#000000" font-family="sans-serif" font-size="13" lengthAdjust="spacing" textLength="75" x="542" y="244.7256">repositories()</text><polygon fill="#181818" points="793.5,277.2793,803.5,281.2793,793.5,285.2793,797.5,281.2793" style="stroke:#181818;stroke-width:1.0;"/><line style="stroke:#181818;stroke-width:1.0;" x1="672.5" x2="799.5" y1="281.2793" y2="281.2793"/><text fill="#000000" font-family="sans-serif" font-size="13" lengthAdjust="spacing" textLength="36" x="679.5" y="276.0166">create</text><polygon fill="#181818" points="546,308.5703,536,312.5703,546,316.5703,542,312.5703" style="stroke:#181818;stroke-width:1.0;"/><line style="stroke:#181818;stroke-width:1.0;" x1="540" x2="666.5" y1="312.5703" y2="312.5703"/><text fill="#000000" font-family="sans-serif" font-size="13" lengthAdjust="spacing" textLength="39" x="552" y="307.3076">factory</text><polygon fill="#181818" points="793.5,339.8613,803.5,343.8613,793.5,347.8613,797.5,343.8613" style="stroke:#181818;stroke-width:1.0;"/><line style="stroke:#181818;stroke-width:1.0;" x1="535" x2="799.5" y1="343.8613" y2="343.8613"/><text fill="#000000" font-family="sans-serif" font-size="13" lengthAdjust="spacing" textLength="58" x="542" y="338.5986">teachers()</text><polygon fill="#181818" points="932,371.1523,942,375.1523,932,379.1523,936,375.1523" style="stroke:#181818;stroke-width:1.0;"/><line style="stroke:#181818;stroke-width:1.0;" x1="815.5" x2="938" y1="375.1523" y2="375.1523"/><text fill="#000000" font-family="sans-serif" font-size="13" lengthAdjust="spacing" textLength="36" x="822.5" y="369.8896">create</text><polygon fill="#181818" points="546,402.4434,536,406.4434,546,410.4434,542,406.4434" style="stroke:#181818;stroke-width:1.0;"/><line style="stroke:#181818;stroke-width:1.0;" x1="540" x2="809.5" y1="406.4434" y2="406.4434"/><text fill="#000000" font-family="sans-serif" font-size="13" lengthAdjust="spacing" textLength="105" x="552" y="401.1807">teacherRepository</text><polygon fill="#181818" points="793.5,433.7344,803.5,437.7344,793.5,441.7344,797.5,437.7344" style="stroke:#181818;stroke-width:1.0;"/><line style="stroke:#181818;stroke-width:1.0;" x1="535" x2="799.5" y1="437.7344" y2="437.7344"/><text fill="#000000" font-family="sans-serif" font-size="13" lengthAdjust="spacing" textLength="58" x="542" y="432.4717">students()</text><polygon fill="#181818" points="1067,465.0254,1077,469.0254,1067,473.0254,1071,469.0254" style="stroke:#181818;stroke-width:1.0;"/><line style="stroke:#181818;stroke-width:1.0;" x1="815.5" x2="1073" y1="469.0254" y2="469.0254"/><text fill="#000000" font-family="sans-serif" font-size="13" lengthAdjust="spacing" textLength="36" x="822.5" y="463.7627">create</text><polygon fill="#181818" points="546,496.3164,536,500.3164,546,504.3164,542,500.3164" style="stroke:#181818;stroke-width:1.0;"/><line style="stroke:#181818;stroke-width:1.0;" x1="540" x2="809.5" y1="500.3164" y2="500.3164"/><text fill="#000000" font-family="sans-serif" font-size="13" lengthAdjust="spacing" textLength="105" x="552" y="495.0537">studentRepository</text><polygon fill="#181818" points="793.5,527.6074,803.5,531.6074,793.5,535.6074,797.5,531.6074" style="stroke:#181818;stroke-width:1.0;"/><line style="stroke:#181818;stroke-width:1.0;" x1="535" x2="799.5" y1="531.6074" y2="531.6074"/><text fill="#000000" font-family="sans-serif" font-size="13" lengthAdjust="spacing" textLength="65" x="542" y="526.3447">managers()</text><polygon fill="#181818" points="1203.5,558.8984,1213.5,562.8984,1203.5,566.8984,1207.5,562.8984" style="stroke:#181818;stroke-width:1.0;"/><line style="stroke:#181818;stroke-width:1.0;" x1="815.5" x2="1209.5" y1="562.8984" y2="562.8984"/><text fill="#000000" font-family="sans-serif" font-size="13" lengthAdjust="spacing" textLength="36" x="822.5" y="557.6357">create</text><polygon fill="#181818" points="541,590.1895,531,594.1895,541,598.1895,537,594.1895" style="stroke:#181818;stroke-width:1.0;"/><line style="stroke:#181818;stroke-width:1.0;" x1="535" x2="809.5" y1="594.1895" y2="594.1895"/><text fill="#000000" font-family="sans-serif" font-size="13" lengthAdjust="spacing" textLength="112" x="547" y="588.9268">managerRepository</text><polygon fill="#181818" points="376.5,621.4805,386.5,625.4805,376.5,629.4805,380.5,625.4805" style="stroke:#181818;stroke-width:1.0;"/><line style="stroke:#181818;stroke-width:1.0;" x1="208" x2="382.5" y1="625.4805" y2="625.4805"/><text fill="#000000" font-family="sans-serif" font-size="13" lengthAdjust="spacing" textLength="78" x="215" y="620.2178">listTeachers()</text><polygon fill="#181818" points="513,652.7715,523,656.7715,513,660.7715,517,656.7715" style="stroke:#181818;stroke-width:1.0;"/><line style="stroke:#181818;stroke-width:1.0;" x1="398.5" x2="519" y1="656.7715" y2="656.7715"/><text fill="#000000" font-family="sans-serif" font-size="13" lengthAdjust="spacing" textLength="78" x="405.5" y="651.5088">listTeachers()</text><polygon fill="#181818" points="932,684.0625,942,688.0625,932,692.0625,936,688.0625" style="stroke:#181818;stroke-width:1.0;"/><line style="stroke:#181818;stroke-width:1.0;" x1="535" x2="938" y1="688.0625" y2="688.0625"/><text fill="#000000" font-family="sans-serif" font-size="13" lengthAdjust="spacing" textLength="43" x="542" y="682.7998">findAll()</text><polygon fill="#181818" points="546,715.3535,536,719.3535,546,723.3535,542,719.3535" style="stroke:#181818;stroke-width:1.0;"/><line style="stroke:#181818;stroke-width:1.0;" x1="540" x2="948" y1="719.3535" y2="719.3535"/><text fill="#000000" font-family="sans-serif" font-size="13" lengthAdjust="spacing" textLength="70" x="552" y="714.0908">listTeachers</text><polygon fill="#181818" points="409.5,746.6445,399.5,750.6445,409.5,754.6445,405.5,750.6445" style="stroke:#181818;stroke-width:1.0;"/><line style="stroke:#181818;stroke-width:1.0;" x1="403.5" x2="529" y1="750.6445" y2="750.6445"/><text fill="#000000" font-family="sans-serif" font-size="13" lengthAdjust="spacing" textLength="70" x="415.5" y="745.3818">listTeachers</text><polygon fill="#181818" points="219,777.9355,209,781.9355,219,785.9355,215,781.9355" style="stroke:#181818;stroke-width:1.0;"/><line style="stroke:#181818;stroke-width:1.0;" x1="213" x2="392.5" y1="781.9355" y2="781.9355"/><text fill="#000000" font-family="sans-serif" font-size="13" lengthAdjust="spacing" textLength="70" x="225" y="776.6729">listTeachers</text><polygon fill="#181818" points="52,809.2266,42,813.2266,52,817.2266,48,813.2266" style="stroke:#181818;stroke-width:1.0;"/><line style="stroke:#181818;stroke-width:1.0;stroke-dasharray:2.0,2.0;" x1="46" x2="202" y1="813.2266" y2="813.2266"/><text fill="#000000" font-family="sans-serif" font-size="13" lengthAdjust="spacing" textLength="126" x="58" y="807.9639">shows list of teachers</text><polygon fill="#181818" points="376.5,840.5176,386.5,844.5176,376.5,848.5176,380.5,844.5176" style="stroke:#181818;stroke-width:1.0;"/><line style="stroke:#181818;stroke-width:1.0;" x1="208" x2="382.5" y1="844.5176" y2="844.5176"/><text fill="#000000" font-family="sans-serif" font-size="13" lengthAdjust="spacing" textLength="77" x="215" y="839.2549">listStudents()</text><polygon fill="#181818" points="513,871.8086,523,875.8086,513,879.8086,517,875.8086" style="stroke:#181818;stroke-width:1.0;"/><line style="stroke:#181818;stroke-width:1.0;" x1="398.5" x2="519" y1="875.8086" y2="875.8086"/><text fill="#000000" font-family="sans-serif" font-size="13" lengthAdjust="spacing" textLength="77" x="405.5" y="870.5459">listStudents()</text><polygon fill="#181818" points="1067,903.0996,1077,907.0996,1067,911.0996,1071,907.0996" style="stroke:#181818;stroke-width:1.0;"/><line style="stroke:#181818;stroke-width:1.0;" x1="535" x2="1073" y1="907.0996" y2="907.0996"/><text fill="#000000" font-family="sans-serif" font-size="13" lengthAdjust="spacing" textLength="43" x="542" y="901.8369">findAll()</text><polygon fill="#181818" points="546,934.3906,536,938.3906,546,942.3906,542,938.3906" style="stroke:#181818;stroke-width:1.0;"/><line style="stroke:#181818;stroke-width:1.0;" x1="540" x2="1083" y1="938.3906" y2="938.3906"/><text fill="#000000" font-family="sans-serif" font-size="13" lengthAdjust="spacing" textLength="69" x="552" y="933.1279">listStudents</text><polygon fill="#181818" points="409.5,965.6816,399.5,969.6816,409.5,973.6816,405.5,969.6816" style="stroke:#181818;stroke-width:1.0;"/><line style="stroke:#181818;stroke-width:1.0;" x1="403.5" x2="529" y1="969.6816" y2="969.6816"/><text fill="#000000" font-family="sans-serif" font-size="13" lengthAdjust="spacing" textLength="69" x="415.5" y="964.4189">listStudents</text><polygon fill="#181818" points="219,996.9727,209,1000.9727,219,1004.9727,215,1000.9727" style="stroke:#181818;stroke-width:1.0;"/><line style="stroke:#181818;stroke-width:1.0;" x1="213" x2="392.5" y1="1000.9727" y2="1000.9727"/><text fill="#000000" font-family="sans-serif" font-size="13" lengthAdjust="spacing" textLength="69" x="225" y="995.71">listStudents</text><polygon fill="#181818" points="52,1028.2637,42,1032.2637,52,1036.2637,48,1032.2637" style="stroke:#181818;stroke-width:1.0;"/><line style="stroke:#181818;stroke-width:1.0;stroke-dasharray:2.0,2.0;" x1="46" x2="202" y1="1032.2637" y2="1032.2637"/><text fill="#000000" font-family="sans-serif" font-size="13" lengthAdjust="spacing" textLength="126" x="58" y="1027.001">shows list of students</text><polygon fill="#181818" points="376.5,1059.5547,386.5,1063.5547,376.5,1067.5547,380.5,1063.5547" style="stroke:#181818;stroke-width:1.0;"/><line style="stroke:#181818;stroke-width:1.0;" x1="208" x2="382.5" y1="1063.5547" y2="1063.5547"/><text fill="#000000" font-family="sans-serif" font-size="13" lengthAdjust="spacing" textLength="82" x="215" y="1058.292">listManagers()</text><polygon fill="#181818" points="513,1090.8457,523,1094.8457,513,1098.8457,517,1094.8457" style="stroke:#181818;stroke-width:1.0;"/><line style="stroke:#181818;stroke-width:1.0;" x1="398.5" x2="519" y1="1094.8457" y2="1094.8457"/><text fill="#000000" font-family="sans-serif" font-size="13" lengthAdjust="spacing" textLength="82" x="405.5" y="1089.583">listManagers()</text><polygon fill="#181818" points="1203.5,1122.1367,1213.5,1126.1367,1203.5,1130.1367,1207.5,1126.1367" style="stroke:#181818;stroke-width:1.0;"/><line style="stroke:#181818;stroke-width:1.0;" x1="535" x2="1209.5" y1="1126.1367" y2="1126.1367"/><text fill="#000000" font-family="sans-serif" font-size="13" lengthAdjust="spacing" textLength="43" x="542" y="1120.874">findAll()</text><polygon fill="#181818" points="546,1153.4277,536,1157.4277,546,1161.4277,542,1157.4277" style="stroke:#181818;stroke-width:1.0;"/><line style="stroke:#181818;stroke-width:1.0;" x1="540" x2="1219.5" y1="1157.4277" y2="1157.4277"/><text fill="#000000" font-family="sans-serif" font-size="13" lengthAdjust="spacing" textLength="74" x="552" y="1152.165">listManagers</text><polygon fill="#181818" points="409.5,1184.7188,399.5,1188.7188,409.5,1192.7188,405.5,1188.7188" style="stroke:#181818;stroke-width:1.0;"/><line style="stroke:#181818;stroke-width:1.0;" x1="403.5" x2="529" y1="1188.7188" y2="1188.7188"/><text fill="#000000" font-family="sans-serif" font-size="13" lengthAdjust="spacing" textLength="74" x="415.5" y="1183.4561">listManagers</text><polygon fill="#181818" points="219,1216.0098,209,1220.0098,219,1224.0098,215,1220.0098" style="stroke:#181818;stroke-width:1.0;"/><line style="stroke:#181818;stroke-width:1.0;" x1="213" x2="392.5" y1="1220.0098" y2="1220.0098"/><text fill="#000000" font-family="sans-serif" font-size="13" lengthAdjust="spacing" textLength="74" x="225" y="1214.7471">listManagers</text><polygon fill="#181818" points="47,1247.3008,37,1251.3008,47,1255.3008,43,1251.3008" style="stroke:#181818;stroke-width:1.0;"/><line style="stroke:#181818;stroke-width:1.0;stroke-dasharray:2.0,2.0;" x1="41" x2="202" y1="1251.3008" y2="1251.3008"/><text fill="#000000" font-family="sans-serif" font-size="13" lengthAdjust="spacing" textLength="133" x="53" y="1246.0381">shows list of managers</text><!--SRC=[fLN1ZjiW4BtxAxWrAxMRksL5MbMgj58ZLKrpsmkrIOrgOykGRVFt7RnW3nYmi_N1CZ3lUNZp63xKIlNvVjytLAXhspoMNRkNlxdewK3RnrgrJPRHKdK3EL91Vx61K4cUz4G68OgNl0Sa-Sgb-i5eMRD1djIrOa990v3dPus1Tr7q0vEmH1NlnE6mO3XB2F_S2JLqJVFsgt8U5GNj-uQNIVI93Q-yP1hQI2NDA0Nz1YX0Cr4o_MlsLsbmFy_glEUHX_xE-avoaEFsPPJffi4NyraKvWj05LNq9vMC69bce4OCC38BW1gcDGmqkYw1PY4AD8LO0cr9FU1OSVvA5JEL7j_aqm6Ac8zIaoieIxeBKJKZyWRAj2zYPmtmqQOgoOkWeh89o8UP-FoS4NZ05K2BYfoJSc0GCAvEqNF0EAyVX046L6k7mM6PWs2BUWMXW0ENF2UJ8fp9tOER3egS_eBHG6Oj4C_6HCG8d1tviHKBqg1fdE84S_SxfwXCuSm-asdgnoA111itzxRgyA109y3ZSxQj_AFY8D5kG-G1ZLQ5aCQtxnJ27iHL8KpWPY6aV_HJGlZaAI6YIhJco28bqbBuMjZU4jB25SD4BiI8gj7w_So5Ud8iwDSFZzCe_4NKYz0izBDOGslGtRXpM-3_T3cFDjNji3fkmPtZU-6YUceQNFAj9nZpU8dYFEyvlyjaewg6h1xOlYicL2h04YwqPT3L1UZRVGZ7ikx-o95Zl0ijJy0MCL-SveRZNurhrjXWZzEodMsnIDWcKtCBssHpZxDsiNm1kzYy5zYLJhVHDa7wj7KIzbcmfIsqQYDx1ztHNOvkimuvQOkRDZZg6BWMxd1Ls5dJLH5trlPB0pdCyWOSPlSHnAzT8DkT5ltDkjiIZWkohhjkrNajvlNSb_bsHCEHxHy0]--></g></svg>