<?xml version="1.0" encoding="us-ascii" standalone="no"?><svg xmlns="http://www.w3.org/2000/svg" xmlns:xlink="http://www.w3.org/1999/xlink" contentStyleType="text/css" height="1313px" preserveAspectRatio="none" style="width:1456px;height:1313px;background:#FFFFFF;" version="1.1" viewBox="0 0 1456 1313" width="1456px" zoomAndPan="magnify"><defs/><g><rect fill="#FFFFFF" height="569.8842" style="stroke:#181818;stroke-width:1.0;" width="10" x="232.5" y="117.7739"/><rect fill="#FFFFFF" height="492.1782" style="stroke:#181818;stroke-width:1.0;" width="10" x="232.5" y="719.3642"/><rect fill="#FFFFFF" height="30" style="stroke:#181818;stroke-width:1.0;" width="10" x="450.5" y="152.4799"/><rect fill="#FFFFFF" height="438.7662" style="stroke:#181818;stroke-width:1.0;" width="10" x="450.5" y="217.186"/><rect fill="#FFFFFF" height="367.0602" style="stroke:#181818;stroke-width:1.0;" width="10" x="450.5" y="751.0702"/><rect fill="#FFFFFF" height="30" style="stroke:#181818;stroke-width:1.0;" width="10" x="450.5" y="1181.5424"/><rect fill="#FFFFFF" height="30" style="stroke:#181818;stroke-width:1.0;" width="10" x="620" y="260.745"/><rect fill="#FFFFFF" height="30" style="stroke:#181818;stroke-width:1.0;" width="10" x="620" y="334.304"/><rect fill="#FFFFFF" height="31.706" style="stroke:#181818;stroke-width:1.0;" width="10" x="620" y="433.716"/><rect fill="#FFFFFF" height="30" style="stroke:#181818;stroke-width:1.0;" width="10" x="620" y="881.7473"/><rect fill="#FFFFFF" height="30" style="stroke:#181818;stroke-width:1.0;" width="10" x="620" y="955.3063"/><rect fill="#FFFFFF" height="31.706" style="stroke:#181818;stroke-width:1.0;" width="10" x="620" y="1054.7183"/><rect fill="#FFFFFF" height="127.118" style="stroke:#181818;stroke-width:1.0;" width="10" x="879" y="497.1281"/><rect fill="#FFFFFF" height="30" style="stroke:#181818;stroke-width:1.0;" width="10" x="1080.5" y="555.5401"/><rect fill="#FFFFFF" height="43.559" style="stroke:#181818;stroke-width:1.0;" width="10" x="1266" y="794.6292"/><rect fill="none" height="81.412" style="stroke:#000000;stroke-width:1.5;" width="413" x="764.5" y="512.1281"/><line style="stroke:#181818;stroke-width:0.5;stroke-dasharray:5.0,5.0;" x1="49" x2="49" y1="84.0679" y2="1229.5424"/><line style="stroke:#181818;stroke-width:0.5;stroke-dasharray:5.0,5.0;" x1="237.5" x2="237.5" y1="84.0679" y2="1229.5424"/><line style="stroke:#181818;stroke-width:0.5;stroke-dasharray:5.0,5.0;" x1="455.5" x2="455.5" y1="84.0679" y2="1229.5424"/><line style="stroke:#181818;stroke-width:0.5;stroke-dasharray:5.0,5.0;" x1="624.5" x2="624.5" y1="84.0679" y2="1229.5424"/><line style="stroke:#181818;stroke-width:0.5;stroke-dasharray:5.0,5.0;" x1="720.5" x2="720.5" y1="84.0679" y2="1229.5424"/><line style="stroke:#181818;stroke-width:0.5;stroke-dasharray:5.0,5.0;" x1="883.5" x2="883.5" y1="84.0679" y2="1229.5424"/><line style="stroke:#181818;stroke-width:0.5;stroke-dasharray:5.0,5.0;" x1="1085.5" x2="1085.5" y1="84.0679" y2="1229.5424"/><line style="stroke:#181818;stroke-width:0.5;stroke-dasharray:5.0,5.0;" x1="1270.5" x2="1270.5" y1="84.0679" y2="1229.5424"/><text fill="#000000" font-family="sans-serif" font-size="14" lengthAdjust="spacing" textLength="83" x="5" y="79.9659">SBAappUser</text><ellipse cx="49.5" cy="13.5" fill="#E2E2F0" rx="8" ry="8" style="stroke:#181818;stroke-width:0.5;"/><path d="M49.5,21.5 L49.5,48.5 M36.5,29.5 L62.5,29.5 M49.5,48.5 L36.5,63.5 M49.5,48.5 L62.5,63.5 " fill="none" style="stroke:#181818;stroke-width:0.5;"/><text fill="#000000" font-family="sans-serif" font-size="14" lengthAdjust="spacing" textLength="83" x="5" y="1243.5083">SBAappUser</text><ellipse cx="49.5" cy="1256.1103" fill="#E2E2F0" rx="8" ry="8" style="stroke:#181818;stroke-width:0.5;"/><path d="M49.5,1264.1103 L49.5,1291.1103 M36.5,1272.1103 L62.5,1272.1103 M49.5,1291.1103 L36.5,1306.1103 M49.5,1291.1103 L62.5,1306.1103 " fill="none" style="stroke:#181818;stroke-width:0.5;"/><rect fill="#E2E2F0" height="33.0679" rx="2.5" ry="2.5" style="stroke:#181818;stroke-width:0.5;" width="182" x="146.5" y="50"/><text fill="#000000" font-family="sans-serif" font-size="14" lengthAdjust="spacing" textLength="168" x="153.5" y="71.9659">UndoPostItLastChangeUI</text><rect fill="#E2E2F0" height="33.0679" rx="2.5" ry="2.5" style="stroke:#181818;stroke-width:0.5;" width="182" x="146.5" y="1228.5424"/><text fill="#000000" font-family="sans-serif" font-size="14" lengthAdjust="spacing" textLength="168" x="153.5" y="1250.5083">UndoPostItLastChangeUI</text><rect fill="#E2E2F0" height="33.0679" rx="2.5" ry="2.5" style="stroke:#181818;stroke-width:0.5;" width="234" x="338.5" y="50"/><text fill="#000000" font-family="sans-serif" font-size="14" lengthAdjust="spacing" textLength="220" x="345.5" y="71.9659">UndoPostItLastChangeController</text><rect fill="#E2E2F0" height="33.0679" rx="2.5" ry="2.5" style="stroke:#181818;stroke-width:0.5;" width="234" x="338.5" y="1228.5424"/><text fill="#000000" font-family="sans-serif" font-size="14" lengthAdjust="spacing" textLength="220" x="345.5" y="1250.5083">UndoPostItLastChangeController</text><rect fill="#E2E2F0" height="33.0679" rx="2.5" ry="2.5" style="stroke:#181818;stroke-width:0.5;" width="85" x="582.5" y="50"/><text fill="#000000" font-family="sans-serif" font-size="14" lengthAdjust="spacing" textLength="71" x="589.5" y="71.9659">SBProtocol</text><rect fill="#E2E2F0" height="33.0679" rx="2.5" ry="2.5" style="stroke:#181818;stroke-width:0.5;" width="85" x="582.5" y="1228.5424"/><text fill="#000000" font-family="sans-serif" font-size="14" lengthAdjust="spacing" textLength="71" x="589.5" y="1250.5083">SBProtocol</text><rect fill="#E2E2F0" height="33.0679" rx="2.5" ry="2.5" style="stroke:#181818;stroke-width:0.5;" width="87" x="677.5" y="50"/><text fill="#000000" font-family="sans-serif" font-size="14" lengthAdjust="spacing" textLength="73" x="684.5" y="71.9659">ServerAJAX</text><rect fill="#E2E2F0" height="33.0679" rx="2.5" ry="2.5" style="stroke:#181818;stroke-width:0.5;" width="87" x="677.5" y="1228.5424"/><text fill="#000000" font-family="sans-serif" font-size="14" lengthAdjust="spacing" textLength="73" x="684.5" y="1250.5083">ServerAJAX</text><rect fill="#E2E2F0" height="33.0679" rx="2.5" ry="2.5" style="stroke:#181818;stroke-width:0.5;" width="219" x="774.5" y="50"/><text fill="#000000" font-family="sans-serif" font-size="14" lengthAdjust="spacing" textLength="205" x="781.5" y="71.9659">BoardWriteAccessDTOEncoder</text><rect fill="#E2E2F0" height="33.0679" rx="2.5" ry="2.5" style="stroke:#181818;stroke-width:0.5;" width="219" x="774.5" y="1228.5424"/><text fill="#000000" font-family="sans-serif" font-size="14" lengthAdjust="spacing" textLength="205" x="781.5" y="1250.5083">BoardWriteAccessDTOEncoder</text><rect fill="#E2E2F0" height="33.0679" rx="2.5" ry="2.5" style="stroke:#181818;stroke-width:0.5;" width="164" x="1003.5" y="50"/><text fill="#000000" font-family="sans-serif" font-size="14" lengthAdjust="spacing" textLength="150" x="1010.5" y="71.9659">BoardWriteAccessDTO</text><rect fill="#E2E2F0" height="33.0679" rx="2.5" ry="2.5" style="stroke:#181818;stroke-width:0.5;" width="164" x="1003.5" y="1228.5424"/><text fill="#000000" font-family="sans-serif" font-size="14" lengthAdjust="spacing" textLength="150" x="1010.5" y="1250.5083">BoardWriteAccessDTO</text><rect fill="#E2E2F0" height="33.0679" rx="2.5" ry="2.5" style="stroke:#181818;stroke-width:0.5;" width="187" x="1177.5" y="50"/><text fill="#000000" font-family="sans-serif" font-size="14" lengthAdjust="spacing" textLength="173" x="1184.5" y="71.9659">BoardRowColDTOEncoder</text><rect fill="#E2E2F0" height="33.0679" rx="2.5" ry="2.5" style="stroke:#181818;stroke-width:0.5;" width="187" x="1177.5" y="1228.5424"/><text fill="#000000" font-family="sans-serif" font-size="14" lengthAdjust="spacing" textLength="173" x="1184.5" y="1250.5083">BoardRowColDTOEncoder</text><rect fill="#FFFFFF" height="569.8842" style="stroke:#181818;stroke-width:1.0;" width="10" x="232.5" y="117.7739"/><rect fill="#FFFFFF" height="492.1782" style="stroke:#181818;stroke-width:1.0;" width="10" x="232.5" y="719.3642"/><rect fill="#FFFFFF" height="30" style="stroke:#181818;stroke-width:1.0;" width="10" x="450.5" y="152.4799"/><rect fill="#FFFFFF" height="438.7662" style="stroke:#181818;stroke-width:1.0;" width="10" x="450.5" y="217.186"/><rect fill="#FFFFFF" height="367.0602" style="stroke:#181818;stroke-width:1.0;" width="10" x="450.5" y="751.0702"/><rect fill="#FFFFFF" height="30" style="stroke:#181818;stroke-width:1.0;" width="10" x="450.5" y="1181.5424"/><rect fill="#FFFFFF" height="30" style="stroke:#181818;stroke-width:1.0;" width="10" x="620" y="260.745"/><rect fill="#FFFFFF" height="30" style="stroke:#181818;stroke-width:1.0;" width="10" x="620" y="334.304"/><rect fill="#FFFFFF" height="31.706" style="stroke:#181818;stroke-width:1.0;" width="10" x="620" y="433.716"/><rect fill="#FFFFFF" height="30" style="stroke:#181818;stroke-width:1.0;" width="10" x="620" y="881.7473"/><rect fill="#FFFFFF" height="30" style="stroke:#181818;stroke-width:1.0;" width="10" x="620" y="955.3063"/><rect fill="#FFFFFF" height="31.706" style="stroke:#181818;stroke-width:1.0;" width="10" x="620" y="1054.7183"/><rect fill="#FFFFFF" height="127.118" style="stroke:#181818;stroke-width:1.0;" width="10" x="879" y="497.1281"/><rect fill="#FFFFFF" height="30" style="stroke:#181818;stroke-width:1.0;" width="10" x="1080.5" y="555.5401"/><rect fill="#FFFFFF" height="43.559" style="stroke:#181818;stroke-width:1.0;" width="10" x="1266" y="794.6292"/><polygon fill="#181818" points="220.5,113.7739,230.5,117.7739,220.5,121.7739,224.5,117.7739" style="stroke:#181818;stroke-width:1.0;"/><line style="stroke:#181818;stroke-width:1.0;stroke-dasharray:2.0,2.0;" x1="49.5" x2="226.5" y1="117.7739" y2="117.7739"/><text fill="#000000" font-family="sans-serif" font-size="13" lengthAdjust="spacing" textLength="164" x="56.5" y="111.9649">undo last change on post-it</text><polygon fill="#181818" points="438.5,148.4799,448.5,152.4799,438.5,156.4799,442.5,152.4799" style="stroke:#181818;stroke-width:1.0;"/><line style="stroke:#181818;stroke-width:1.0;stroke-dasharray:2.0,2.0;" x1="242.5" x2="444.5" y1="152.4799" y2="152.4799"/><text fill="#000000" font-family="sans-serif" font-size="13" lengthAdjust="spacing" textLength="160" x="249.5" y="146.6709">create(serverIp,serverPort)</text><path d="M465,130.7739 L465,157.7739 L741,157.7739 L741,140.7739 L731,130.7739 L465,130.7739 " fill="#FEFFDD" style="stroke:#181818;stroke-width:0.5;"/><path d="M731,130.7739 L731,140.7739 L741,140.7739 L731,130.7739 " fill="#FEFFDD" style="stroke:#181818;stroke-width:0.5;"/><text fill="#000000" font-family="sans-serif" font-size="13" lengthAdjust="spacing" textLength="255" x="471" y="149.6709">establish socket, input and output streams</text><polygon fill="#181818" points="438.5,213.186,448.5,217.186,438.5,221.186,442.5,217.186" style="stroke:#181818;stroke-width:1.0;"/><line style="stroke:#181818;stroke-width:1.0;stroke-dasharray:2.0,2.0;" x1="242.5" x2="444.5" y1="217.186" y2="217.186"/><text fill="#000000" font-family="sans-serif" font-size="13" lengthAdjust="spacing" textLength="96" x="249.5" y="211.377">requestBoards()</text><polygon fill="#181818" points="608,256.745,618,260.745,608,264.745,612,260.745" style="stroke:#181818;stroke-width:1.0;"/><line style="stroke:#181818;stroke-width:1.0;stroke-dasharray:2.0,2.0;" x1="460.5" x2="614" y1="260.745" y2="260.745"/><text fill="#000000" font-family="sans-serif" font-size="13" lengthAdjust="spacing" textLength="45" x="467.5" y="254.936">create()</text><path d="M635,230.186 L635,275.186 L878,275.186 L878,240.186 L868,230.186 L635,230.186 " fill="#FEFFDD" style="stroke:#181818;stroke-width:0.5;"/><path d="M868,230.186 L868,240.186 L878,240.186 L868,230.186 " fill="#FEFFDD" style="stroke:#181818;stroke-width:0.5;"/><text fill="#000000" font-family="sans-serif" font-size="13" lengthAdjust="spacing" textLength="222" x="641" y="249.083">code: UNDO_LAST_POST_IT_CHANGE</text><text fill="#000000" font-family="sans-serif" font-size="13" lengthAdjust="spacing" textLength="161" x="641" y="266.789">due to technical limitations</text><polygon fill="#181818" points="608,330.304,618,334.304,608,338.304,612,334.304" style="stroke:#181818;stroke-width:1.0;"/><line style="stroke:#181818;stroke-width:1.0;stroke-dasharray:2.0,2.0;" x1="460.5" x2="614" y1="334.304" y2="334.304"/><text fill="#000000" font-family="sans-serif" font-size="13" lengthAdjust="spacing" textLength="65" x="467.5" y="328.495">send(outS)</text><path d="M465,377.304 L465,404.304 L678,404.304 L678,387.304 L668,377.304 L465,377.304 " fill="#FEFFDD" style="stroke:#181818;stroke-width:0.5;"/><path d="M668,377.304 L668,387.304 L678,387.304 L668,377.304 " fill="#FEFFDD" style="stroke:#181818;stroke-width:0.5;"/><text fill="#000000" font-family="sans-serif" font-size="13" lengthAdjust="spacing" textLength="192" x="471" y="396.201">controller awaits for server reply</text><polygon fill="#181818" points="608,429.716,618,433.716,608,437.716,612,433.716" style="stroke:#181818;stroke-width:1.0;"/><line style="stroke:#181818;stroke-width:1.0;stroke-dasharray:2.0,2.0;" x1="460.5" x2="614" y1="433.716" y2="433.716"/><text fill="#000000" font-family="sans-serif" font-size="13" lengthAdjust="spacing" textLength="63" x="467.5" y="427.907">create(inS)</text><polygon fill="#181818" points="471.5,461.4221,461.5,465.4221,471.5,469.4221,467.5,465.4221" style="stroke:#181818;stroke-width:1.0;"/><line style="stroke:#181818;stroke-width:1.0;stroke-dasharray:2.0,2.0;" x1="465.5" x2="624" y1="465.4221" y2="465.4221"/><text fill="#000000" font-family="sans-serif" font-size="13" lengthAdjust="spacing" textLength="30" x="477.5" y="459.6131">reply</text><polygon fill="#181818" points="867,493.1281,877,497.1281,867,501.1281,871,497.1281" style="stroke:#181818;stroke-width:1.0;"/><line style="stroke:#181818;stroke-width:1.0;stroke-dasharray:2.0,2.0;" x1="460.5" x2="873" y1="497.1281" y2="497.1281"/><text fill="#000000" font-family="sans-serif" font-size="13" lengthAdjust="spacing" textLength="238" x="467.5" y="491.3191">decodeMany(reply.getContentAsString)</text><path d="M764.5,512.1281 L837.5,512.1281 L837.5,521.8341 L827.5,531.8341 L764.5,531.8341 L764.5,512.1281 " fill="#EEEEEE" style="stroke:#000000;stroke-width:1.5;"/><rect fill="none" height="81.412" style="stroke:#000000;stroke-width:1.5;" width="413" x="764.5" y="512.1281"/><text fill="#000000" font-family="sans-serif" font-size="13" font-weight="bold" lengthAdjust="spacing" textLength="28" x="779.5" y="527.0251">loop</text><text fill="#000000" font-family="sans-serif" font-size="11" font-weight="bold" lengthAdjust="spacing" textLength="131" x="852.5" y="525.887">[for each value in reply]</text><polygon fill="#181818" points="1068.5,551.5401,1078.5,555.5401,1068.5,559.5401,1072.5,555.5401" style="stroke:#181818;stroke-width:1.0;"/><line style="stroke:#181818;stroke-width:1.0;stroke-dasharray:2.0,2.0;" x1="889" x2="1074.5" y1="555.5401" y2="555.5401"/><text fill="#000000" font-family="sans-serif" font-size="13" lengthAdjust="spacing" textLength="45" x="896" y="549.7311">create()</text><polygon fill="#181818" points="471.5,620.2461,461.5,624.2461,471.5,628.2461,467.5,624.2461" style="stroke:#181818;stroke-width:1.0;"/><line style="stroke:#181818;stroke-width:1.0;stroke-dasharray:2.0,2.0;" x1="465.5" x2="883" y1="624.2461" y2="624.2461"/><text fill="#000000" font-family="sans-serif" font-size="13" lengthAdjust="spacing" textLength="83" x="477.5" y="618.4371">boardDTOList</text><polygon fill="#181818" points="253.5,651.9521,243.5,655.9521,253.5,659.9521,249.5,655.9521" style="stroke:#181818;stroke-width:1.0;"/><line style="stroke:#181818;stroke-width:1.0;stroke-dasharray:2.0,2.0;" x1="247.5" x2="454.5" y1="655.9521" y2="655.9521"/><text fill="#000000" font-family="sans-serif" font-size="13" lengthAdjust="spacing" textLength="83" x="259.5" y="650.1431">boardDTOList</text><polygon fill="#181818" points="60.5,683.6582,50.5,687.6582,60.5,691.6582,56.5,687.6582" style="stroke:#181818;stroke-width:1.0;"/><line style="stroke:#181818;stroke-width:1.0;stroke-dasharray:2.0,2.0;" x1="54.5" x2="236.5" y1="687.6582" y2="687.6582"/><text fill="#000000" font-family="sans-serif" font-size="13" lengthAdjust="spacing" textLength="77" x="66.5" y="681.8492">show boards</text><polygon fill="#181818" points="220.5,715.3642,230.5,719.3642,220.5,723.3642,224.5,719.3642" style="stroke:#181818;stroke-width:1.0;"/><line style="stroke:#181818;stroke-width:1.0;stroke-dasharray:2.0,2.0;" x1="49.5" x2="226.5" y1="719.3642" y2="719.3642"/><text fill="#000000" font-family="sans-serif" font-size="13" lengthAdjust="spacing" textLength="82" x="56.5" y="713.5552">choose board</text><polygon fill="#181818" points="438.5,747.0702,448.5,751.0702,438.5,755.0702,442.5,751.0702" style="stroke:#181818;stroke-width:1.0;"/><line style="stroke:#181818;stroke-width:1.0;stroke-dasharray:2.0,2.0;" x1="242.5" x2="444.5" y1="751.0702" y2="751.0702"/><text fill="#000000" font-family="sans-serif" font-size="13" lengthAdjust="spacing" textLength="148" x="249.5" y="745.2612">undoChange(boardDTO)</text><polygon fill="#181818" points="1254,790.6292,1264,794.6292,1254,798.6292,1258,794.6292" style="stroke:#181818;stroke-width:1.0;"/><line style="stroke:#181818;stroke-width:1.0;stroke-dasharray:2.0,2.0;" x1="460.5" x2="1260" y1="794.6292" y2="794.6292"/><text fill="#000000" font-family="sans-serif" font-size="13" lengthAdjust="spacing" textLength="73" x="467.5" y="788.8202">encode(dto)</text><path d="M1281,764.0702 L1281,809.0702 L1449,809.0702 L1449,774.0702 L1439,764.0702 L1281,764.0702 " fill="#FEFFDD" style="stroke:#181818;stroke-width:0.5;"/><path d="M1439,764.0702 L1439,774.0702 L1449,774.0702 L1439,764.0702 " fill="#FEFFDD" style="stroke:#181818;stroke-width:0.5;"/><text fill="#000000" font-family="sans-serif" font-size="13" lengthAdjust="spacing" textLength="147" x="1287" y="782.9672">encode dto in a way that</text><text fill="#000000" font-family="sans-serif" font-size="13" lengthAdjust="spacing" textLength="142" x="1287" y="800.6732">can be sent via protocol</text><polygon fill="#181818" points="471.5,834.1882,461.5,838.1882,471.5,842.1882,467.5,838.1882" style="stroke:#181818;stroke-width:1.0;"/><line style="stroke:#181818;stroke-width:1.0;stroke-dasharray:2.0,2.0;" x1="465.5" x2="1270" y1="838.1882" y2="838.1882"/><text fill="#000000" font-family="sans-serif" font-size="13" lengthAdjust="spacing" textLength="78" x="477.5" y="832.3792">encodedDTO</text><polygon fill="#181818" points="608,877.7473,618,881.7473,608,885.7473,612,881.7473" style="stroke:#181818;stroke-width:1.0;"/><line style="stroke:#181818;stroke-width:1.0;stroke-dasharray:2.0,2.0;" x1="460.5" x2="614" y1="881.7473" y2="881.7473"/><text fill="#000000" font-family="sans-serif" font-size="13" lengthAdjust="spacing" textLength="45" x="467.5" y="875.9383">create()</text><path d="M635,851.1882 L635,896.1882 L878,896.1882 L878,861.1882 L868,851.1882 L635,851.1882 " fill="#FEFFDD" style="stroke:#181818;stroke-width:0.5;"/><path d="M868,851.1882 L868,861.1882 L878,861.1882 L868,851.1882 " fill="#FEFFDD" style="stroke:#181818;stroke-width:0.5;"/><text fill="#000000" font-family="sans-serif" font-size="13" lengthAdjust="spacing" textLength="222" x="641" y="870.0853">code: UNDO_LAST_POST_IT_CHANGE</text><text fill="#000000" font-family="sans-serif" font-size="13" lengthAdjust="spacing" textLength="131" x="641" y="887.7913">content: encodedDTO</text><polygon fill="#181818" points="608,951.3063,618,955.3063,608,959.3063,612,955.3063" style="stroke:#181818;stroke-width:1.0;"/><line style="stroke:#181818;stroke-width:1.0;" x1="460.5" x2="614" y1="955.3063" y2="955.3063"/><text fill="#000000" font-family="sans-serif" font-size="13" lengthAdjust="spacing" textLength="65" x="467.5" y="949.4973">send(outS)</text><path d="M465,998.3063 L465,1025.3063 L678,1025.3063 L678,1008.3063 L668,998.3063 L465,998.3063 " fill="#FEFFDD" style="stroke:#181818;stroke-width:0.5;"/><path d="M668,998.3063 L668,1008.3063 L678,1008.3063 L668,998.3063 " fill="#FEFFDD" style="stroke:#181818;stroke-width:0.5;"/><text fill="#000000" font-family="sans-serif" font-size="13" lengthAdjust="spacing" textLength="192" x="471" y="1017.2033">controller awaits for server reply</text><polygon fill="#181818" points="608,1050.7183,618,1054.7183,608,1058.7183,612,1054.7183" style="stroke:#181818;stroke-width:1.0;"/><line style="stroke:#181818;stroke-width:1.0;stroke-dasharray:2.0,2.0;" x1="460.5" x2="614" y1="1054.7183" y2="1054.7183"/><text fill="#000000" font-family="sans-serif" font-size="13" lengthAdjust="spacing" textLength="63" x="467.5" y="1048.9093">create(inS)</text><polygon fill="#181818" points="471.5,1082.4243,461.5,1086.4243,471.5,1090.4243,467.5,1086.4243" style="stroke:#181818;stroke-width:1.0;"/><line style="stroke:#181818;stroke-width:1.0;stroke-dasharray:2.0,2.0;" x1="465.5" x2="624" y1="1086.4243" y2="1086.4243"/><text fill="#000000" font-family="sans-serif" font-size="13" lengthAdjust="spacing" textLength="30" x="477.5" y="1080.6153">reply</text><polygon fill="#181818" points="253.5,1114.1304,243.5,1118.1304,253.5,1122.1304,249.5,1118.1304" style="stroke:#181818;stroke-width:1.0;"/><line style="stroke:#181818;stroke-width:1.0;stroke-dasharray:2.0,2.0;" x1="247.5" x2="454.5" y1="1118.1304" y2="1118.1304"/><text fill="#000000" font-family="sans-serif" font-size="13" lengthAdjust="spacing" textLength="45" x="259.5" y="1112.3214">success</text><polygon fill="#181818" points="60.5,1145.8364,50.5,1149.8364,60.5,1153.8364,56.5,1149.8364" style="stroke:#181818;stroke-width:1.0;"/><line style="stroke:#181818;stroke-width:1.0;stroke-dasharray:2.0,2.0;" x1="54.5" x2="231.5" y1="1149.8364" y2="1149.8364"/><text fill="#000000" font-family="sans-serif" font-size="13" lengthAdjust="spacing" textLength="88" x="66.5" y="1144.0274">inform success</text><polygon fill="#181818" points="438.5,1177.5424,448.5,1181.5424,438.5,1185.5424,442.5,1181.5424" style="stroke:#181818;stroke-width:1.0;"/><line style="stroke:#181818;stroke-width:1.0;stroke-dasharray:2.0,2.0;" x1="242.5" x2="444.5" y1="1181.5424" y2="1181.5424"/><text fill="#000000" font-family="sans-serif" font-size="13" lengthAdjust="spacing" textLength="78" x="249.5" y="1175.7334">closeSocket()</text><!--SRC=[dLR1Rk8m4BtxA-OOf7O_e8ULKbhjikgsQ2dQFLH2hkCIQrrFrfw0-lSxTaXA81Ie3s25cV6RDtulI4NeONQTowgQ1-r11gZvMmXHIKz6cKewWhahS8g19dGd0urBwPPwFad1vcZW61rvjBQfhiZRVl7PzTGZeK8RVwys-tw8zYljyn_vdnWILd7NBtADqXU_lI6TAwL3k7byk7KAY-RGjQU5TkfOHXjQ40vK_uNhCTf-uLXKYCWON5v-PJRW2chc02ot3ohr3-YWOauk3GaX5PcL91s90rwS4HCZAvoglERVif3QdLGNpMQAdaOfsY5dUhCiYODr8FbiJIWXeFghwGACgse2wGh0ck8s41Ty3I8bTqUd4SGdXUu_6q3azR-Q3qe4X6mqK2WzYYjbnDHsXEyDZRgWBhURCsojNd-Hv2kOtzyyBExosUDY-i0VayV5-7j-_-tsoHMr1a8WhKfdbBHWpQiXIGPTwAfkjTYT-27Ye5sHCNspJs36bswGMtT-BGq5U66TDUDaJYlxzdc46qwDEnbYbzmRxFaWDZBYx4B7wVoKxYrBXRuiDKMTQqTvc94tRZa0hfNXDZQBM2Lo6449AsbvgiRjm6jN2w05mq8TkcI31qTHxmPijJqKmbSXuHFY48WDcSzH7kmCToQGE52yiOezJfDbxEL_fCpaDdnHIrmtYK5iXRElxFYHAX63Ra9x_ZCWz-XTZMjdBQRH0VFOwwIv6JgPOyPKzkVH5TYz0Fk-bYf0d2rV10bh-GPKIdfoIZfurb6Y12iZXozxCxZUU9gAiHbnOFffE8DTVMHcnvLtjgcfHaIdODuNwZlmOvPsDl9FMTiPW8zRt6cGZrlTUQ2IWaAT_Y6SgapZc97NBcleFMzPaRFqriv69xwS-nh_3m00]--></g></svg>