<?xml version="1.0" encoding="us-ascii" standalone="no"?><svg xmlns="http://www.w3.org/2000/svg" xmlns:xlink="http://www.w3.org/1999/xlink" contentStyleType="text/css" height="377px" preserveAspectRatio="none" style="width:266px;height:377px;background:#FFFFFF;" version="1.1" viewBox="0 0 266 377" width="266px" zoomAndPan="magnify"><defs/><g><line style="stroke:#181818;stroke-width:0.5;stroke-dasharray:5.0,5.0;" x1="27" x2="27" y1="84.0679" y2="294.304"/><line style="stroke:#181818;stroke-width:0.5;stroke-dasharray:5.0,5.0;" x1="240" x2="240" y1="84.0679" y2="294.304"/><text fill="#000000" font-family="sans-serif" font-size="14" lengthAdjust="spacing" textLength="39" x="5" y="79.9659">Client</text><ellipse cx="27.5" cy="13.5" fill="#E2E2F0" rx="8" ry="8" style="stroke:#181818;stroke-width:0.5;"/><path d="M27.5,21.5 L27.5,48.5 M14.5,29.5 L40.5,29.5 M27.5,48.5 L14.5,63.5 M27.5,48.5 L40.5,63.5 " fill="none" style="stroke:#181818;stroke-width:0.5;"/><text fill="#000000" font-family="sans-serif" font-size="14" lengthAdjust="spacing" textLength="39" x="5" y="308.27">Client</text><ellipse cx="27.5" cy="320.8719" fill="#E2E2F0" rx="8" ry="8" style="stroke:#181818;stroke-width:0.5;"/><path d="M27.5,328.8719 L27.5,355.8719 M14.5,336.8719 L40.5,336.8719 M27.5,355.8719 L14.5,370.8719 M27.5,355.8719 L40.5,370.8719 " fill="none" style="stroke:#181818;stroke-width:0.5;"/><text fill="#000000" font-family="sans-serif" font-size="14" lengthAdjust="spacing" textLength="43" x="216" y="79.9659">Server</text><ellipse cx="240.5" cy="13.5" fill="#E2E2F0" rx="8" ry="8" style="stroke:#181818;stroke-width:0.5;"/><path d="M240.5,21.5 L240.5,48.5 M227.5,29.5 L253.5,29.5 M240.5,48.5 L227.5,63.5 M240.5,48.5 L253.5,63.5 " fill="none" style="stroke:#181818;stroke-width:0.5;"/><text fill="#000000" font-family="sans-serif" font-size="14" lengthAdjust="spacing" textLength="43" x="216" y="308.27">Server</text><ellipse cx="240.5" cy="320.8719" fill="#E2E2F0" rx="8" ry="8" style="stroke:#181818;stroke-width:0.5;"/><path d="M240.5,328.8719 L240.5,355.8719 M227.5,336.8719 L253.5,336.8719 M240.5,355.8719 L227.5,370.8719 M240.5,355.8719 L253.5,370.8719 " fill="none" style="stroke:#181818;stroke-width:0.5;"/><polygon fill="#181818" points="228.5,113.7739,238.5,117.7739,228.5,121.7739,232.5,117.7739" style="stroke:#181818;stroke-width:1.0;"/><line style="stroke:#181818;stroke-width:1.0;" x1="27.5" x2="234.5" y1="117.7739" y2="117.7739"/><text fill="#000000" font-family="sans-serif" font-size="13" lengthAdjust="spacing" textLength="71" x="34.5" y="111.9649">openSocket</text><polygon fill="#181818" points="38.5,145.4799,28.5,149.4799,38.5,153.4799,34.5,149.4799" style="stroke:#181818;stroke-width:1.0;"/><line style="stroke:#181818;stroke-width:1.0;stroke-dasharray:2.0,2.0;" x1="32.5" x2="239.5" y1="149.4799" y2="149.4799"/><text fill="#000000" font-family="sans-serif" font-size="13" lengthAdjust="spacing" textLength="81" x="44.5" y="143.6709">accept socket</text><polygon fill="#181818" points="228.5,177.186,238.5,181.186,228.5,185.186,232.5,181.186" style="stroke:#181818;stroke-width:1.0;"/><line style="stroke:#181818;stroke-width:1.0;" x1="27.5" x2="234.5" y1="181.186" y2="181.186"/><text fill="#000000" font-family="sans-serif" font-size="13" lengthAdjust="spacing" textLength="96" x="34.5" y="175.377">requestBoards()</text><polygon fill="#181818" points="38.5,208.892,28.5,212.892,38.5,216.892,34.5,212.892" style="stroke:#181818;stroke-width:1.0;"/><line style="stroke:#181818;stroke-width:1.0;stroke-dasharray:2.0,2.0;" x1="32.5" x2="239.5" y1="212.892" y2="212.892"/><text fill="#000000" font-family="sans-serif" font-size="13" lengthAdjust="spacing" textLength="189" x="44.5" y="207.083">board with permissions to write</text><polygon fill="#181818" points="228.5,240.598,238.5,244.598,228.5,248.598,232.5,244.598" style="stroke:#181818;stroke-width:1.0;"/><line style="stroke:#181818;stroke-width:1.0;" x1="27.5" x2="234.5" y1="244.598" y2="244.598"/><text fill="#000000" font-family="sans-serif" font-size="13" lengthAdjust="spacing" textLength="122" x="34.5" y="238.789">undoChange(board)</text><polygon fill="#181818" points="38.5,272.304,28.5,276.304,38.5,280.304,34.5,276.304" style="stroke:#181818;stroke-width:1.0;"/><line style="stroke:#181818;stroke-width:1.0;stroke-dasharray:2.0,2.0;" x1="32.5" x2="239.5" y1="276.304" y2="276.304"/><text fill="#000000" font-family="sans-serif" font-size="13" lengthAdjust="spacing" textLength="88" x="44.5" y="270.495">inform success</text><!--SRC=[ROvB3i8m34JtESKiow8NY10BUeIU8AI6Hj2us2wzFZJyXEXkz9vdv12D1SqbKJO4HIp9XO9RaXl9WhKavvuQzUv5uC4ZvPRZcUnjjtNzrI566WtwS_7fUmXT9rBRSv1Egyt_XiTXSPYJzHX9XgIQE2kCCKioMXcTSiTD7_A9gb9UdKtvo390fyU7gkuE]--></g></svg>