<?xml version="1.0" encoding="us-ascii" standalone="no"?><svg xmlns="http://www.w3.org/2000/svg" xmlns:xlink="http://www.w3.org/1999/xlink" contentStyleType="text/css" height="1721px" preserveAspectRatio="none" style="width:2141px;height:1721px;background:#FFFFFF;" version="1.1" viewBox="0 0 2141 1721" width="2141px" zoomAndPan="magnify"><defs/><g><rect fill="#FFFFFF" height="30" style="stroke:#181818;stroke-width:1.0;" width="10" x="193" y="117.7739"/><rect fill="#FFFFFF" height="1437.8865" style="stroke:#181818;stroke-width:1.0;" width="10" x="193" y="182.4799"/><rect fill="#FFFFFF" height="30" style="stroke:#181818;stroke-width:1.0;" width="10" x="360" y="220.186"/><rect fill="#FFFFFF" height="30" style="stroke:#181818;stroke-width:1.0;" width="10" x="360" y="909.4822"/><rect fill="#FFFFFF" height="30" style="stroke:#181818;stroke-width:1.0;" width="10" x="459" y="516.1281"/><rect fill="#FFFFFF" height="31.706" style="stroke:#181818;stroke-width:1.0;" width="10" x="459" y="650.2461"/><rect fill="#FFFFFF" height="30" style="stroke:#181818;stroke-width:1.0;" width="10" x="459" y="1325.6894"/><rect fill="#FFFFFF" height="30" style="stroke:#181818;stroke-width:1.0;" width="10" x="459" y="1525.6604"/><rect fill="#FFFFFF" height="30" style="stroke:#181818;stroke-width:1.0;" width="10" x="459" y="1590.3665"/><rect fill="#FFFFFF" height="34.706" style="stroke:#181818;stroke-width:1.0;" width="10" x="562.5" y="287.892"/><rect fill="#FFFFFF" height="127.118" style="stroke:#181818;stroke-width:1.0;" width="10" x="733" y="354.304"/><rect fill="#FFFFFF" height="30" style="stroke:#181818;stroke-width:1.0;" width="10" x="934.5" y="412.716"/><rect fill="#FFFFFF" height="93.412" style="stroke:#181818;stroke-width:1.0;" width="10" x="1120" y="713.6582"/><rect fill="#FFFFFF" height="30" style="stroke:#181818;stroke-width:1.0;" width="10" x="1289.5" y="745.3642"/><rect fill="#FFFFFF" height="30" style="stroke:#181818;stroke-width:1.0;" width="10" x="1392.5" y="841.7762"/><rect fill="#FFFFFF" height="307.9421" style="stroke:#181818;stroke-width:1.0;" width="10" x="1392.5" y="974.1882"/><rect fill="#FFFFFF" height="30" style="stroke:#181818;stroke-width:1.0;" width="10" x="1587.5" y="1005.8943"/><rect fill="#FFFFFF" height="182.8241" style="stroke:#181818;stroke-width:1.0;" width="10" x="1587.5" y="1067.6003"/><rect fill="#FFFFFF" height="30" style="stroke:#181818;stroke-width:1.0;" width="10" x="1836.5" y="1144.0123"/><rect fill="#FFFFFF" height="30" style="stroke:#181818;stroke-width:1.0;" width="10" x="1939" y="1399.2484"/><rect fill="#FFFFFF" height="30" style="stroke:#181818;stroke-width:1.0;" width="10" x="2073" y="1460.9544"/><rect fill="none" height="81.412" style="stroke:#000000;stroke-width:1.5;" width="413" x="618.5" y="369.304"/><line style="stroke:#181818;stroke-width:0.5;stroke-dasharray:5.0,5.0;" x1="38" x2="38" y1="84.0679" y2="1638.3665"/><line style="stroke:#181818;stroke-width:0.5;stroke-dasharray:5.0,5.0;" x1="197.5" x2="197.5" y1="84.0679" y2="1638.3665"/><line style="stroke:#181818;stroke-width:0.5;stroke-dasharray:5.0,5.0;" x1="364.5" x2="364.5" y1="84.0679" y2="1638.3665"/><line style="stroke:#181818;stroke-width:0.5;stroke-dasharray:5.0,5.0;" x1="463.5" x2="463.5" y1="84.0679" y2="1638.3665"/><line style="stroke:#181818;stroke-width:0.5;stroke-dasharray:5.0,5.0;" x1="567.5" x2="567.5" y1="84.0679" y2="1638.3665"/><line style="stroke:#181818;stroke-width:0.5;stroke-dasharray:5.0,5.0;" x1="737.5" x2="737.5" y1="84.0679" y2="1638.3665"/><line style="stroke:#181818;stroke-width:0.5;stroke-dasharray:5.0,5.0;" x1="939.5" x2="939.5" y1="84.0679" y2="1638.3665"/><line style="stroke:#181818;stroke-width:0.5;stroke-dasharray:5.0,5.0;" x1="1124.5" x2="1124.5" y1="84.0679" y2="1638.3665"/><line style="stroke:#181818;stroke-width:0.5;stroke-dasharray:5.0,5.0;" x1="1294.5" x2="1294.5" y1="84.0679" y2="1638.3665"/><line style="stroke:#181818;stroke-width:0.5;stroke-dasharray:5.0,5.0;" x1="1397.5" x2="1397.5" y1="84.0679" y2="1638.3665"/><line style="stroke:#181818;stroke-width:0.5;stroke-dasharray:5.0,5.0;" x1="1592" x2="1592" y1="84.0679" y2="1638.3665"/><line style="stroke:#181818;stroke-width:0.5;stroke-dasharray:5.0,5.0;" x1="1841.5" x2="1841.5" y1="84.0679" y2="1638.3665"/><line style="stroke:#181818;stroke-width:0.5;stroke-dasharray:5.0,5.0;" x1="1943.5" x2="1943.5" y1="84.0679" y2="1638.3665"/><line style="stroke:#181818;stroke-width:0.5;stroke-dasharray:5.0,5.0;" x1="2077.5" x2="2077.5" y1="84.0679" y2="1638.3665"/><text fill="#000000" font-family="sans-serif" font-size="14" lengthAdjust="spacing" textLength="60" x="5" y="79.9659">SBServer</text><ellipse cx="38" cy="13.5" fill="#E2E2F0" rx="8" ry="8" style="stroke:#181818;stroke-width:0.5;"/><path d="M38,21.5 L38,48.5 M25,29.5 L51,29.5 M38,48.5 L25,63.5 M38,48.5 L51,63.5 " fill="none" style="stroke:#181818;stroke-width:0.5;"/><text fill="#000000" font-family="sans-serif" font-size="14" lengthAdjust="spacing" textLength="60" x="5" y="1652.3324">SBServer</text><ellipse cx="38" cy="1664.9344" fill="#E2E2F0" rx="8" ry="8" style="stroke:#181818;stroke-width:0.5;"/><path d="M38,1672.9344 L38,1699.9344 M25,1680.9344 L51,1680.9344 M38,1699.9344 L25,1714.9344 M38,1699.9344 L51,1714.9344 " fill="none" style="stroke:#181818;stroke-width:0.5;"/><rect fill="#E2E2F0" height="33.0679" rx="2.5" ry="2.5" style="stroke:#181818;stroke-width:0.5;" width="221" x="87.5" y="50"/><text fill="#000000" font-family="sans-serif" font-size="14" lengthAdjust="spacing" textLength="207" x="94.5" y="71.9659">UndoPostItLastChangeHandler</text><rect fill="#E2E2F0" height="33.0679" rx="2.5" ry="2.5" style="stroke:#181818;stroke-width:0.5;" width="221" x="87.5" y="1637.3665"/><text fill="#000000" font-family="sans-serif" font-size="14" lengthAdjust="spacing" textLength="207" x="94.5" y="1659.3324">UndoPostItLastChangeHandler</text><rect fill="#E2E2F0" height="33.0679" rx="2.5" ry="2.5" style="stroke:#181818;stroke-width:0.5;" width="93" x="318.5" y="50"/><text fill="#000000" font-family="sans-serif" font-size="14" lengthAdjust="spacing" textLength="79" x="325.5" y="71.9659">SystemUser</text><rect fill="#E2E2F0" height="33.0679" rx="2.5" ry="2.5" style="stroke:#181818;stroke-width:0.5;" width="93" x="318.5" y="1637.3665"/><text fill="#000000" font-family="sans-serif" font-size="14" lengthAdjust="spacing" textLength="79" x="325.5" y="1659.3324">SystemUser</text><rect fill="#E2E2F0" height="33.0679" rx="2.5" ry="2.5" style="stroke:#181818;stroke-width:0.5;" width="85" x="421.5" y="50"/><text fill="#000000" font-family="sans-serif" font-size="14" lengthAdjust="spacing" textLength="71" x="428.5" y="71.9659">SBProtocol</text><rect fill="#E2E2F0" height="33.0679" rx="2.5" ry="2.5" style="stroke:#181818;stroke-width:0.5;" width="85" x="421.5" y="1637.3665"/><text fill="#000000" font-family="sans-serif" font-size="14" lengthAdjust="spacing" textLength="71" x="428.5" y="1659.3324">SBProtocol</text><rect fill="#E2E2F0" height="33.0679" rx="2.5" ry="2.5" style="stroke:#181818;stroke-width:0.5;" width="102" x="516.5" y="50"/><text fill="#000000" font-family="sans-serif" font-size="14" lengthAdjust="spacing" textLength="88" x="523.5" y="71.9659">BoardService</text><rect fill="#E2E2F0" height="33.0679" rx="2.5" ry="2.5" style="stroke:#181818;stroke-width:0.5;" width="102" x="516.5" y="1637.3665"/><text fill="#000000" font-family="sans-serif" font-size="14" lengthAdjust="spacing" textLength="88" x="523.5" y="1659.3324">BoardService</text><rect fill="#E2E2F0" height="33.0679" rx="2.5" ry="2.5" style="stroke:#181818;stroke-width:0.5;" width="219" x="628.5" y="50"/><text fill="#000000" font-family="sans-serif" font-size="14" lengthAdjust="spacing" textLength="205" x="635.5" y="71.9659">BoardWriteAccessDTOEncoder</text><rect fill="#E2E2F0" height="33.0679" rx="2.5" ry="2.5" style="stroke:#181818;stroke-width:0.5;" width="219" x="628.5" y="1637.3665"/><text fill="#000000" font-family="sans-serif" font-size="14" lengthAdjust="spacing" textLength="205" x="635.5" y="1659.3324">BoardWriteAccessDTOEncoder</text><rect fill="#E2E2F0" height="33.0679" rx="2.5" ry="2.5" style="stroke:#181818;stroke-width:0.5;" width="164" x="857.5" y="50"/><text fill="#000000" font-family="sans-serif" font-size="14" lengthAdjust="spacing" textLength="150" x="864.5" y="71.9659">BoardWriteAccessDTO</text><rect fill="#E2E2F0" height="33.0679" rx="2.5" ry="2.5" style="stroke:#181818;stroke-width:0.5;" width="164" x="857.5" y="1637.3665"/><text fill="#000000" font-family="sans-serif" font-size="14" lengthAdjust="spacing" textLength="150" x="864.5" y="1659.3324">BoardWriteAccessDTO</text><rect fill="#E2E2F0" height="33.0679" rx="2.5" ry="2.5" style="stroke:#181818;stroke-width:0.5;" width="187" x="1031.5" y="50"/><text fill="#000000" font-family="sans-serif" font-size="14" lengthAdjust="spacing" textLength="173" x="1038.5" y="71.9659">BoardRowColDTOEncoder</text><rect fill="#E2E2F0" height="33.0679" rx="2.5" ry="2.5" style="stroke:#181818;stroke-width:0.5;" width="187" x="1031.5" y="1637.3665"/><text fill="#000000" font-family="sans-serif" font-size="14" lengthAdjust="spacing" textLength="173" x="1038.5" y="1659.3324">BoardRowColDTOEncoder</text><rect fill="#E2E2F0" height="33.0679" rx="2.5" ry="2.5" style="stroke:#181818;stroke-width:0.5;" width="132" x="1228.5" y="50"/><text fill="#000000" font-family="sans-serif" font-size="14" lengthAdjust="spacing" textLength="118" x="1235.5" y="71.9659">BoardRowColDTO</text><rect fill="#E2E2F0" height="33.0679" rx="2.5" ry="2.5" style="stroke:#181818;stroke-width:0.5;" width="132" x="1228.5" y="1637.3665"/><text fill="#000000" font-family="sans-serif" font-size="14" lengthAdjust="spacing" textLength="118" x="1235.5" y="1659.3324">BoardRowColDTO</text><rect fill="#E2E2F0" height="33.0679" rx="2.5" ry="2.5" style="stroke:#181818;stroke-width:0.5;" width="54" x="1370.5" y="50"/><text fill="#000000" font-family="sans-serif" font-size="14" lengthAdjust="spacing" textLength="40" x="1377.5" y="71.9659">Board</text><rect fill="#E2E2F0" height="33.0679" rx="2.5" ry="2.5" style="stroke:#181818;stroke-width:0.5;" width="54" x="1370.5" y="1637.3665"/><text fill="#000000" font-family="sans-serif" font-size="14" lengthAdjust="spacing" textLength="40" x="1377.5" y="1659.3324">Board</text><rect fill="#E2E2F0" height="33.0679" rx="2.5" ry="2.5" style="stroke:#181818;stroke-width:0.5;" width="39" x="1573" y="50"/><text fill="#000000" font-family="sans-serif" font-size="14" lengthAdjust="spacing" textLength="25" x="1580" y="71.9659">Cell</text><rect fill="#E2E2F0" height="33.0679" rx="2.5" ry="2.5" style="stroke:#181818;stroke-width:0.5;" width="39" x="1573" y="1637.3665"/><text fill="#000000" font-family="sans-serif" font-size="14" lengthAdjust="spacing" textLength="25" x="1580" y="1659.3324">Cell</text><rect fill="#E2E2F0" height="33.0679" rx="2.5" ry="2.5" style="stroke:#181818;stroke-width:0.5;" width="52" x="1815.5" y="50"/><text fill="#000000" font-family="sans-serif" font-size="14" lengthAdjust="spacing" textLength="38" x="1822.5" y="71.9659">PostIt</text><rect fill="#E2E2F0" height="33.0679" rx="2.5" ry="2.5" style="stroke:#181818;stroke-width:0.5;" width="52" x="1815.5" y="1637.3665"/><text fill="#000000" font-family="sans-serif" font-size="14" lengthAdjust="spacing" textLength="38" x="1822.5" y="1659.3324">PostIt</text><rect fill="#E2E2F0" height="33.0679" rx="2.5" ry="2.5" style="stroke:#181818;stroke-width:0.5;" width="133" x="1877.5" y="50"/><text fill="#000000" font-family="sans-serif" font-size="14" lengthAdjust="spacing" textLength="119" x="1884.5" y="71.9659">NewChangeEvent</text><rect fill="#E2E2F0" height="33.0679" rx="2.5" ry="2.5" style="stroke:#181818;stroke-width:0.5;" width="133" x="1877.5" y="1637.3665"/><text fill="#000000" font-family="sans-serif" font-size="14" lengthAdjust="spacing" textLength="119" x="1884.5" y="1659.3324">NewChangeEvent</text><rect fill="#E2E2F0" height="33.0679" rx="2.5" ry="2.5" style="stroke:#181818;stroke-width:0.5;" width="115" x="2020.5" y="50"/><text fill="#000000" font-family="sans-serif" font-size="14" lengthAdjust="spacing" textLength="101" x="2027.5" y="71.9659">EventPublisher</text><rect fill="#E2E2F0" height="33.0679" rx="2.5" ry="2.5" style="stroke:#181818;stroke-width:0.5;" width="115" x="2020.5" y="1637.3665"/><text fill="#000000" font-family="sans-serif" font-size="14" lengthAdjust="spacing" textLength="101" x="2027.5" y="1659.3324">EventPublisher</text><rect fill="#FFFFFF" height="30" style="stroke:#181818;stroke-width:1.0;" width="10" x="193" y="117.7739"/><rect fill="#FFFFFF" height="1437.8865" style="stroke:#181818;stroke-width:1.0;" width="10" x="193" y="182.4799"/><rect fill="#FFFFFF" height="30" style="stroke:#181818;stroke-width:1.0;" width="10" x="360" y="220.186"/><rect fill="#FFFFFF" height="30" style="stroke:#181818;stroke-width:1.0;" width="10" x="360" y="909.4822"/><rect fill="#FFFFFF" height="30" style="stroke:#181818;stroke-width:1.0;" width="10" x="459" y="516.1281"/><rect fill="#FFFFFF" height="31.706" style="stroke:#181818;stroke-width:1.0;" width="10" x="459" y="650.2461"/><rect fill="#FFFFFF" height="30" style="stroke:#181818;stroke-width:1.0;" width="10" x="459" y="1325.6894"/><rect fill="#FFFFFF" height="30" style="stroke:#181818;stroke-width:1.0;" width="10" x="459" y="1525.6604"/><rect fill="#FFFFFF" height="30" style="stroke:#181818;stroke-width:1.0;" width="10" x="459" y="1590.3665"/><rect fill="#FFFFFF" height="34.706" style="stroke:#181818;stroke-width:1.0;" width="10" x="562.5" y="287.892"/><rect fill="#FFFFFF" height="127.118" style="stroke:#181818;stroke-width:1.0;" width="10" x="733" y="354.304"/><rect fill="#FFFFFF" height="30" style="stroke:#181818;stroke-width:1.0;" width="10" x="934.5" y="412.716"/><rect fill="#FFFFFF" height="93.412" style="stroke:#181818;stroke-width:1.0;" width="10" x="1120" y="713.6582"/><rect fill="#FFFFFF" height="30" style="stroke:#181818;stroke-width:1.0;" width="10" x="1289.5" y="745.3642"/><rect fill="#FFFFFF" height="30" style="stroke:#181818;stroke-width:1.0;" width="10" x="1392.5" y="841.7762"/><rect fill="#FFFFFF" height="307.9421" style="stroke:#181818;stroke-width:1.0;" width="10" x="1392.5" y="974.1882"/><rect fill="#FFFFFF" height="30" style="stroke:#181818;stroke-width:1.0;" width="10" x="1587.5" y="1005.8943"/><rect fill="#FFFFFF" height="182.8241" style="stroke:#181818;stroke-width:1.0;" width="10" x="1587.5" y="1067.6003"/><rect fill="#FFFFFF" height="30" style="stroke:#181818;stroke-width:1.0;" width="10" x="1836.5" y="1144.0123"/><rect fill="#FFFFFF" height="30" style="stroke:#181818;stroke-width:1.0;" width="10" x="1939" y="1399.2484"/><rect fill="#FFFFFF" height="30" style="stroke:#181818;stroke-width:1.0;" width="10" x="2073" y="1460.9544"/><polygon fill="#181818" points="181,113.7739,191,117.7739,181,121.7739,185,117.7739" style="stroke:#181818;stroke-width:1.0;"/><line style="stroke:#181818;stroke-width:1.0;stroke-dasharray:2.0,2.0;" x1="38" x2="187" y1="117.7739" y2="117.7739"/><text fill="#000000" font-family="sans-serif" font-size="13" lengthAdjust="spacing" textLength="136" x="45" y="111.9649">create(socket, request)</text><polygon fill="#181818" points="181,178.4799,191,182.4799,181,186.4799,185,182.4799" style="stroke:#181818;stroke-width:1.0;"/><line style="stroke:#181818;stroke-width:1.0;" x1="38" x2="187" y1="182.4799" y2="182.4799"/><text fill="#000000" font-family="sans-serif" font-size="13" lengthAdjust="spacing" textLength="29" x="45" y="176.6709">run()</text><path d="M208,160.7739 L208,187.7739 L451,187.7739 L451,170.7739 L441,160.7739 L208,160.7739 " fill="#FEFFDD" style="stroke:#181818;stroke-width:0.5;"/><path d="M441,160.7739 L441,170.7739 L451,170.7739 L441,160.7739 " fill="#FEFFDD" style="stroke:#181818;stroke-width:0.5;"/><text fill="#000000" font-family="sans-serif" font-size="13" lengthAdjust="spacing" textLength="222" x="214" y="179.6709">establish socket input/output stream</text><polygon fill="#181818" points="348,216.186,358,220.186,348,224.186,352,220.186" style="stroke:#181818;stroke-width:1.0;"/><line style="stroke:#181818;stroke-width:1.0;stroke-dasharray:2.0,2.0;" x1="203" x2="354" y1="220.186" y2="220.186"/><text fill="#000000" font-family="sans-serif" font-size="13" lengthAdjust="spacing" textLength="28" x="210" y="214.377">get()</text><path d="M375,198.4799 L375,225.4799 L692,225.4799 L692,208.4799 L682,198.4799 L375,198.4799 " fill="#FEFFDD" style="stroke:#181818;stroke-width:0.5;"/><path d="M682,198.4799 L682,208.4799 L692,208.4799 L682,198.4799 " fill="#FEFFDD" style="stroke:#181818;stroke-width:0.5;"/><text fill="#000000" font-family="sans-serif" font-size="13" lengthAdjust="spacing" textLength="296" x="381" y="217.377">sys_usr obtained via SBServerApp and auth token</text><polygon fill="#181818" points="550.5,283.892,560.5,287.892,550.5,291.892,554.5,287.892" style="stroke:#181818;stroke-width:1.0;"/><line style="stroke:#181818;stroke-width:1.0;stroke-dasharray:2.0,2.0;" x1="203" x2="556.5" y1="287.892" y2="287.892"/><text fill="#000000" font-family="sans-serif" font-size="13" lengthAdjust="spacing" textLength="177" x="210" y="282.083">boardsUserCanWrite(sys_usr)</text><path d="M577,266.186 L577,293.186 L749,293.186 L749,276.186 L739,266.186 L577,266.186 " fill="#FEFFDD" style="stroke:#181818;stroke-width:0.5;"/><path d="M739,266.186 L739,276.186 L749,276.186 L739,266.186 " fill="#FEFFDD" style="stroke:#181818;stroke-width:0.5;"/><text fill="#000000" font-family="sans-serif" font-size="13" lengthAdjust="spacing" textLength="151" x="583" y="285.083">same process as US_3006</text><polygon fill="#181818" points="214,318.598,204,322.598,214,326.598,210,322.598" style="stroke:#181818;stroke-width:1.0;"/><line style="stroke:#181818;stroke-width:1.0;stroke-dasharray:2.0,2.0;" x1="208" x2="566.5" y1="322.598" y2="322.598"/><text fill="#000000" font-family="sans-serif" font-size="13" lengthAdjust="spacing" textLength="42" x="220" y="316.789">boards</text><polygon fill="#181818" points="721,350.304,731,354.304,721,358.304,725,354.304" style="stroke:#181818;stroke-width:1.0;"/><line style="stroke:#181818;stroke-width:1.0;stroke-dasharray:2.0,2.0;" x1="203" x2="727" y1="354.304" y2="354.304"/><text fill="#000000" font-family="sans-serif" font-size="13" lengthAdjust="spacing" textLength="94" x="210" y="348.495">encode(boards)</text><path d="M618.5,369.304 L691.5,369.304 L691.5,379.01 L681.5,389.01 L618.5,389.01 L618.5,369.304 " fill="#EEEEEE" style="stroke:#000000;stroke-width:1.5;"/><rect fill="none" height="81.412" style="stroke:#000000;stroke-width:1.5;" width="413" x="618.5" y="369.304"/><text fill="#000000" font-family="sans-serif" font-size="13" font-weight="bold" lengthAdjust="spacing" textLength="28" x="633.5" y="384.201">loop</text><text fill="#000000" font-family="sans-serif" font-size="11" font-weight="bold" lengthAdjust="spacing" textLength="144" x="706.5" y="383.0629">[for each board in boards]</text><polygon fill="#181818" points="922.5,408.716,932.5,412.716,922.5,416.716,926.5,412.716" style="stroke:#181818;stroke-width:1.0;"/><line style="stroke:#181818;stroke-width:1.0;stroke-dasharray:2.0,2.0;" x1="743" x2="928.5" y1="412.716" y2="412.716"/><text fill="#000000" font-family="sans-serif" font-size="13" lengthAdjust="spacing" textLength="45" x="750" y="406.907">create()</text><polygon fill="#181818" points="214,477.4221,204,481.4221,214,485.4221,210,481.4221" style="stroke:#181818;stroke-width:1.0;"/><line style="stroke:#181818;stroke-width:1.0;stroke-dasharray:2.0,2.0;" x1="208" x2="737" y1="481.4221" y2="481.4221"/><text fill="#000000" font-family="sans-serif" font-size="13" lengthAdjust="spacing" textLength="109" x="220" y="475.6131">encodedBoardList</text><polygon fill="#181818" points="447,512.1281,457,516.1281,447,520.1281,451,516.1281" style="stroke:#181818;stroke-width:1.0;"/><line style="stroke:#181818;stroke-width:1.0;stroke-dasharray:2.0,2.0;" x1="203" x2="453" y1="516.1281" y2="516.1281"/><text fill="#000000" font-family="sans-serif" font-size="13" lengthAdjust="spacing" textLength="45" x="210" y="510.3191">create()</text><path d="M474,494.4221 L474,521.4221 L657,521.4221 L657,504.4221 L647,494.4221 L474,494.4221 " fill="#FEFFDD" style="stroke:#181818;stroke-width:0.5;"/><path d="M647,494.4221 L647,504.4221 L657,504.4221 L647,494.4221 " fill="#FEFFDD" style="stroke:#181818;stroke-width:0.5;"/><text fill="#000000" font-family="sans-serif" font-size="13" lengthAdjust="spacing" textLength="162" x="480" y="513.3191">content: encodedBoardList</text><polygon fill="#181818" points="452,576.8341,462,580.8341,452,584.8341,456,580.8341" style="stroke:#181818;stroke-width:1.0;"/><line style="stroke:#181818;stroke-width:1.0;stroke-dasharray:2.0,2.0;" x1="203" x2="458" y1="580.8341" y2="580.8341"/><text fill="#000000" font-family="sans-serif" font-size="13" lengthAdjust="spacing" textLength="65" x="210" y="575.0251">send(outS)</text><path d="M208,593.8341 L208,620.8341 L329,620.8341 L329,603.8341 L319,593.8341 L208,593.8341 " fill="#FEFFDD" style="stroke:#181818;stroke-width:0.5;"/><path d="M319,593.8341 L319,603.8341 L329,603.8341 L319,593.8341 " fill="#FEFFDD" style="stroke:#181818;stroke-width:0.5;"/><text fill="#000000" font-family="sans-serif" font-size="13" lengthAdjust="spacing" textLength="100" x="214" y="612.7311">await client reply</text><polygon fill="#181818" points="447,646.2461,457,650.2461,447,654.2461,451,650.2461" style="stroke:#181818;stroke-width:1.0;"/><line style="stroke:#181818;stroke-width:1.0;stroke-dasharray:2.0,2.0;" x1="203" x2="453" y1="650.2461" y2="650.2461"/><text fill="#000000" font-family="sans-serif" font-size="13" lengthAdjust="spacing" textLength="63" x="210" y="644.4371">create(inS)</text><polygon fill="#181818" points="214,677.9521,204,681.9521,214,685.9521,210,681.9521" style="stroke:#181818;stroke-width:1.0;"/><line style="stroke:#181818;stroke-width:1.0;stroke-dasharray:2.0,2.0;" x1="208" x2="463" y1="681.9521" y2="681.9521"/><text fill="#000000" font-family="sans-serif" font-size="13" lengthAdjust="spacing" textLength="30" x="220" y="676.1431">reply</text><polygon fill="#181818" points="1108,709.6582,1118,713.6582,1108,717.6582,1112,713.6582" style="stroke:#181818;stroke-width:1.0;"/><line style="stroke:#181818;stroke-width:1.0;stroke-dasharray:2.0,2.0;" x1="203" x2="1114" y1="713.6582" y2="713.6582"/><text fill="#000000" font-family="sans-serif" font-size="13" lengthAdjust="spacing" textLength="220" x="210" y="707.8492">decode(request.getContentAsString)</text><polygon fill="#181818" points="1277.5,741.3642,1287.5,745.3642,1277.5,749.3642,1281.5,745.3642" style="stroke:#181818;stroke-width:1.0;"/><line style="stroke:#181818;stroke-width:1.0;stroke-dasharray:2.0,2.0;" x1="1130" x2="1283.5" y1="745.3642" y2="745.3642"/><text fill="#000000" font-family="sans-serif" font-size="13" lengthAdjust="spacing" textLength="37" x="1137" y="739.5552">create</text><polygon fill="#181818" points="214,803.0702,204,807.0702,214,811.0702,210,807.0702" style="stroke:#181818;stroke-width:1.0;"/><line style="stroke:#181818;stroke-width:1.0;stroke-dasharray:2.0,2.0;" x1="208" x2="1124" y1="807.0702" y2="807.0702"/><text fill="#000000" font-family="sans-serif" font-size="13" lengthAdjust="spacing" textLength="21" x="220" y="801.2612">dto</text><polygon fill="#181818" points="1380.5,837.7762,1390.5,841.7762,1380.5,845.7762,1384.5,841.7762" style="stroke:#181818;stroke-width:1.0;"/><line style="stroke:#181818;stroke-width:1.0;stroke-dasharray:2.0,2.0;" x1="203" x2="1386.5" y1="841.7762" y2="841.7762"/><text fill="#000000" font-family="sans-serif" font-size="13" lengthAdjust="spacing" textLength="28" x="210" y="835.9672">get()</text><path d="M1407,820.0702 L1407,847.0702 L1621,847.0702 L1621,830.0702 L1611,820.0702 L1407,820.0702 " fill="#FEFFDD" style="stroke:#181818;stroke-width:0.5;"/><path d="M1611,820.0702 L1611,830.0702 L1621,830.0702 L1611,820.0702 " fill="#FEFFDD" style="stroke:#181818;stroke-width:0.5;"/><text fill="#000000" font-family="sans-serif" font-size="13" lengthAdjust="spacing" textLength="193" x="1413" y="838.9672">board obtained via SBServerApp</text><polygon fill="#181818" points="348,905.4822,358,909.4822,348,913.4822,352,909.4822" style="stroke:#181818;stroke-width:1.0;"/><line style="stroke:#181818;stroke-width:1.0;stroke-dasharray:2.0,2.0;" x1="203" x2="354" y1="909.4822" y2="909.4822"/><text fill="#000000" font-family="sans-serif" font-size="13" lengthAdjust="spacing" textLength="124" x="210" y="903.6732">get(dto.boardName)</text><path d="M375,887.7762 L375,914.7762 L692,914.7762 L692,897.7762 L682,887.7762 L375,887.7762 " fill="#FEFFDD" style="stroke:#181818;stroke-width:0.5;"/><path d="M682,887.7762 L682,897.7762 L692,897.7762 L682,887.7762 " fill="#FEFFDD" style="stroke:#181818;stroke-width:0.5;"/><text fill="#000000" font-family="sans-serif" font-size="13" lengthAdjust="spacing" textLength="296" x="381" y="906.6732">sys_usr obtained via SBServerApp and auth token</text><polygon fill="#181818" points="1380.5,970.1882,1390.5,974.1882,1380.5,978.1882,1384.5,974.1882" style="stroke:#181818;stroke-width:1.0;"/><line style="stroke:#181818;stroke-width:1.0;stroke-dasharray:2.0,2.0;" x1="203" x2="1386.5" y1="974.1882" y2="974.1882"/><text fill="#000000" font-family="sans-serif" font-size="13" lengthAdjust="spacing" textLength="284" x="210" y="968.3792">undoChangeOnPostIt(dto.row, dto.col, sys_usr)</text><polygon fill="#181818" points="1575.5,1001.8943,1585.5,1005.8943,1575.5,1009.8943,1579.5,1005.8943" style="stroke:#181818;stroke-width:1.0;"/><line style="stroke:#181818;stroke-width:1.0;stroke-dasharray:2.0,2.0;" x1="1402.5" x2="1581.5" y1="1005.8943" y2="1005.8943"/><text fill="#000000" font-family="sans-serif" font-size="13" lengthAdjust="spacing" textLength="74" x="1409.5" y="1000.0853">get(row, col)</text><polygon fill="#181818" points="1575.5,1063.6003,1585.5,1067.6003,1575.5,1071.6003,1579.5,1067.6003" style="stroke:#181818;stroke-width:1.0;"/><line style="stroke:#181818;stroke-width:1.0;stroke-dasharray:2.0,2.0;" x1="1402.5" x2="1581.5" y1="1067.6003" y2="1067.6003"/><text fill="#000000" font-family="sans-serif" font-size="13" lengthAdjust="spacing" textLength="166" x="1409.5" y="1061.7913">undoPostItChange(sys_usr)</text><line style="stroke:#181818;stroke-width:1.0;stroke-dasharray:2.0,2.0;" x1="1597.5" x2="1639.5" y1="1099.3063" y2="1099.3063"/><line style="stroke:#181818;stroke-width:1.0;stroke-dasharray:2.0,2.0;" x1="1639.5" x2="1639.5" y1="1099.3063" y2="1112.3063"/><line style="stroke:#181818;stroke-width:1.0;stroke-dasharray:2.0,2.0;" x1="1598.5" x2="1639.5" y1="1112.3063" y2="1112.3063"/><polygon fill="#181818" points="1608.5,1108.3063,1598.5,1112.3063,1608.5,1116.3063,1604.5,1112.3063" style="stroke:#181818;stroke-width:1.0;"/><text fill="#000000" font-family="sans-serif" font-size="13" lengthAdjust="spacing" textLength="142" x="1604.5" y="1093.4973">getLastHistoryUpdate()</text><polygon fill="#181818" points="1824.5,1140.0123,1834.5,1144.0123,1824.5,1148.0123,1828.5,1144.0123" style="stroke:#181818;stroke-width:1.0;"/><line style="stroke:#181818;stroke-width:1.0;stroke-dasharray:2.0,2.0;" x1="1597.5" x2="1830.5" y1="1144.0123" y2="1144.0123"/><text fill="#000000" font-family="sans-serif" font-size="13" lengthAdjust="spacing" textLength="220" x="1604.5" y="1138.2033">alterPostItData(history.prevContent)</text><line style="stroke:#181818;stroke-width:1.0;stroke-dasharray:2.0,2.0;" x1="1597.5" x2="1639.5" y1="1205.7183" y2="1205.7183"/><line style="stroke:#181818;stroke-width:1.0;stroke-dasharray:2.0,2.0;" x1="1639.5" x2="1639.5" y1="1205.7183" y2="1218.7183"/><line style="stroke:#181818;stroke-width:1.0;stroke-dasharray:2.0,2.0;" x1="1598.5" x2="1639.5" y1="1218.7183" y2="1218.7183"/><polygon fill="#181818" points="1608.5,1214.7183,1598.5,1218.7183,1608.5,1222.7183,1604.5,1218.7183" style="stroke:#181818;stroke-width:1.0;"/><text fill="#000000" font-family="sans-serif" font-size="13" lengthAdjust="spacing" textLength="124" x="1604.5" y="1199.9093">addUndoToHistory()</text><polygon fill="#181818" points="1413.5,1246.4243,1403.5,1250.4243,1413.5,1254.4243,1409.5,1250.4243" style="stroke:#181818;stroke-width:1.0;"/><line style="stroke:#181818;stroke-width:1.0;stroke-dasharray:2.0,2.0;" x1="1407.5" x2="1591.5" y1="1250.4243" y2="1250.4243"/><text fill="#000000" font-family="sans-serif" font-size="13" lengthAdjust="spacing" textLength="110" x="1419.5" y="1244.6153">newPostItContent</text><polygon fill="#181818" points="214,1278.1304,204,1282.1304,214,1286.1304,210,1282.1304" style="stroke:#181818;stroke-width:1.0;"/><line style="stroke:#181818;stroke-width:1.0;stroke-dasharray:2.0,2.0;" x1="208" x2="1396.5" y1="1282.1304" y2="1282.1304"/><text fill="#000000" font-family="sans-serif" font-size="13" lengthAdjust="spacing" textLength="110" x="220" y="1276.3214">newPostItContent</text><polygon fill="#181818" points="447,1321.6894,457,1325.6894,447,1329.6894,451,1325.6894" style="stroke:#181818;stroke-width:1.0;"/><line style="stroke:#181818;stroke-width:1.0;stroke-dasharray:2.0,2.0;" x1="203" x2="453" y1="1325.6894" y2="1325.6894"/><text fill="#000000" font-family="sans-serif" font-size="13" lengthAdjust="spacing" textLength="45" x="210" y="1319.8804">create()</text><path d="M474,1295.1304 L474,1340.1304 L788,1340.1304 L788,1305.1304 L778,1295.1304 L474,1295.1304 " fill="#FEFFDD" style="stroke:#181818;stroke-width:0.5;"/><path d="M778,1295.1304 L778,1305.1304 L788,1305.1304 L778,1295.1304 " fill="#FEFFDD" style="stroke:#181818;stroke-width:0.5;"/><text fill="#000000" font-family="sans-serif" font-size="13" lengthAdjust="spacing" textLength="139" x="480" y="1314.0274">code: UPDATE_POST_IT</text><text fill="#000000" font-family="sans-serif" font-size="13" lengthAdjust="spacing" textLength="293" x="480" y="1331.7334">content: boardName, row, col, newPostItContent</text><polygon fill="#181818" points="1927,1395.2484,1937,1399.2484,1927,1403.2484,1931,1399.2484" style="stroke:#181818;stroke-width:1.0;"/><line style="stroke:#181818;stroke-width:1.0;stroke-dasharray:2.0,2.0;" x1="203" x2="1933" y1="1399.2484" y2="1399.2484"/><text fill="#000000" font-family="sans-serif" font-size="13" lengthAdjust="spacing" textLength="174" x="210" y="1393.4394">create(boardName, protocol)</text><polygon fill="#181818" points="2061,1456.9544,2071,1460.9544,2061,1464.9544,2065,1460.9544" style="stroke:#181818;stroke-width:1.0;"/><line style="stroke:#181818;stroke-width:1.0;stroke-dasharray:2.0,2.0;" x1="203" x2="2067" y1="1460.9544" y2="1460.9544"/><text fill="#000000" font-family="sans-serif" font-size="13" lengthAdjust="spacing" textLength="86" x="210" y="1455.1454">publish(event)</text><polygon fill="#181818" points="447,1521.6604,457,1525.6604,447,1529.6604,451,1525.6604" style="stroke:#181818;stroke-width:1.0;"/><line style="stroke:#181818;stroke-width:1.0;stroke-dasharray:2.0,2.0;" x1="203" x2="453" y1="1525.6604" y2="1525.6604"/><text fill="#000000" font-family="sans-serif" font-size="13" lengthAdjust="spacing" textLength="45" x="210" y="1519.8514">create()</text><path d="M474,1503.9544 L474,1530.9544 L554,1530.9544 L554,1513.9544 L544,1503.9544 L474,1503.9544 " fill="#FEFFDD" style="stroke:#181818;stroke-width:0.5;"/><path d="M544,1503.9544 L544,1513.9544 L554,1513.9544 L544,1503.9544 " fill="#FEFFDD" style="stroke:#181818;stroke-width:0.5;"/><text fill="#000000" font-family="sans-serif" font-size="13" lengthAdjust="spacing" textLength="59" x="480" y="1522.8514">code: ACK</text><polygon fill="#181818" points="447,1586.3665,457,1590.3665,447,1594.3665,451,1590.3665" style="stroke:#181818;stroke-width:1.0;"/><line style="stroke:#181818;stroke-width:1.0;stroke-dasharray:2.0,2.0;" x1="203" x2="453" y1="1590.3665" y2="1590.3665"/><text fill="#000000" font-family="sans-serif" font-size="13" lengthAdjust="spacing" textLength="65" x="210" y="1584.5575">send(outS)</text><!--SRC=[nLPDRzim3BtxL-YO06bMOC0EFGn8qm8jLhJ1d62N0O4YgubHL_8asa7-_IZHTYr_D1jMOBd4YSd7H_AH4XUW3OklOsbAQHYtpFgdACgvWLIaELV0DYhHAstX7XwuXUM1gxsyuoh9o4M0oKA7-6H1lcvi1Ncosy9sCEFhbT6WXSwSILuz1oRNcfl4CKk5z3YbYFe6FqmASY64jFPc_NIhX4uexD70LYfnpgCsJK0Fe7_NnwNEGk11qCRGMGnZkJSxzn2yMihCbq3WT_22AkwhWqyXtgCyKXjkIwcyZImXiF0lLiKkI-s1QEV5BegelUpYugjl6xjYmaWEScArU94mOqR-AgI5QSG5f2M-eVOcClpT03Kufb2JhbV4yACq_ZJf_W1eXT3SSs8KaAKgB-2JBW2_c0KayngHdyTrH2lzeFTU0iPmBviujRXOzGcYrPvw1pnLCc5boXkrB_ASeOWPB-30GBz8vK5QcJR23UcK0g5z8wsJ-98hhwX9PTubYAeT9iTVfHE-qw7hpoRUVhwy_D8OkpYjFb707aKt4m6zIlQkrbwo4tBiiAg7emwMQPspPzm527sWMDYQTj3wK-FNiL3hRogQ1gP1D3SJxPUj9Bgl9NR54OgYeQ1LFIYxn4_MGue3CW3gCWohKo-QBkN6hTb4WpqJMW7ErVde3SneU8jPJb3tyRGt9lgvJf8VUGfCPAcRSYFpx7GsdrJ5vr9gd5hb9F0_ouBabKWlhsfXp74sbrITXOt1f6hVeT6MMztBjdYYdcpQccYnyjkrYrIbKRkqpBq8mWH8tuFxX1RqOFF9QsoNTCCIq7kR3BdElTKZReB_ljRgcXHusDFPygJe2F94ZJxEN7NdA8SP6rvrOUq8qFV67N6KiuT1Y6c_s_u076Yt_tySjMWk9yGwNCFZ4Npo3Y9aw6uuTpZGsfmsUK8BOjZ7dSfkH3EGXWZSSE2J0pdFSoFBQY16jg8_raTM8Xtvxt7bIUBkPMjTiHtbMJTMoMDL9sBrLxMcwHg4w6l-WrTk8g_OPdMpMDzkLq_nUdk__gcQHTmC45vTActDpl8Sssibl95i0TVctOLMze3TNvtiYnrYvdGHcyYoaSCR6RoNTVcvgzh75t6n_FPFvzHum474xftnDm00]--></g></svg>