<?xml version="1.0" encoding="us-ascii" standalone="no"?><svg xmlns="http://www.w3.org/2000/svg" xmlns:xlink="http://www.w3.org/1999/xlink" contentStyleType="text/css" height="1090px" preserveAspectRatio="none" style="width:906px;height:1090px;background:#FFFFFF;" version="1.1" viewBox="0 0 906 1090" width="906px" zoomAndPan="magnify"><defs/><g><!--class Board--><g id="elem_Board"><rect codeLine="3" fill="#F1F1F1" height="290.0742" id="Board" rx="2.5" ry="2.5" style="stroke:#181818;stroke-width:0.5;" width="436" x="76" y="134"/><ellipse cx="270.75" cy="150" fill="#ADD1B2" rx="11" ry="11" style="stroke:#181818;stroke-width:1.0;"/><path d="M273.5156,145.875 Q273.6719,145.6563 273.8594,145.5469 Q274.0469,145.4375 274.2656,145.4375 Q274.6406,145.4375 274.875,145.7031 Q275.1094,145.9531 275.1094,146.5625 L275.1094,148.0156 Q275.1094,148.625 274.875,148.8906 Q274.6406,149.1563 274.2656,149.1563 Q273.9219,149.1563 273.7188,148.9531 Q273.5156,148.7656 273.4063,148.25 Q273.3594,147.8906 273.1719,147.7031 Q272.8438,147.3281 272.2344,147.1094 Q271.625,146.8906 271,146.8906 Q270.2344,146.8906 269.5938,147.2188 Q268.9688,147.5469 268.4688,148.2969 Q267.9844,149.0469 267.9844,150.0781 L267.9844,151.1719 Q267.9844,152.4063 268.875,153.2344 Q269.7656,154.0469 271.3594,154.0469 Q272.2969,154.0469 272.9531,153.7969 Q273.3438,153.6406 273.7656,153.2031 Q274.0313,152.9375 274.1719,152.8594 Q274.3281,152.7813 274.5313,152.7813 Q274.8594,152.7813 275.1094,153.0469 Q275.375,153.2969 275.375,153.6406 Q275.375,153.9844 275.0313,154.3906 Q274.5313,154.9688 273.7344,155.2969 Q272.6563,155.75 271.3594,155.75 Q269.8438,155.75 268.6406,155.125 Q267.6563,154.625 266.9688,153.5625 Q266.2813,152.4844 266.2813,151.2031 L266.2813,150.0469 Q266.2813,148.7188 266.8906,147.5781 Q267.5156,146.4219 268.6094,145.8125 Q269.7031,145.1875 270.9375,145.1875 Q271.6719,145.1875 272.3125,145.3594 Q272.9688,145.5156 273.5156,145.875 Z " fill="#000000"/><text fill="#000000" font-family="sans-serif" font-size="14" lengthAdjust="spacing" textLength="38" x="291.25" y="155.7969">Board</text><line style="stroke:#181818;stroke-width:0.5;" x1="77" x2="511" y1="166" y2="166"/><rect fill="none" height="6" style="stroke:#C82930;stroke-width:1.0;" width="6" x="84" y="177.8105"/><text fill="#000000" font-family="sans-serif" font-size="14" lengthAdjust="spacing" textLength="137" x="96" y="185.1074">boardTitle: BoardTitle</text><rect fill="none" height="6" style="stroke:#C82930;stroke-width:1.0;" width="6" x="84" y="196.4316"/><text fill="#000000" font-family="sans-serif" font-size="14" lengthAdjust="spacing" textLength="84" x="96" y="203.7285">numRows: int</text><rect fill="none" height="6" style="stroke:#C82930;stroke-width:1.0;" width="6" x="84" y="215.0527"/><text fill="#000000" font-family="sans-serif" font-size="14" lengthAdjust="spacing" textLength="105" x="96" y="222.3496">numColumns: int</text><rect fill="none" height="6" style="stroke:#C82930;stroke-width:1.0;" width="6" x="84" y="233.6738"/><text fill="#000000" font-family="sans-serif" font-size="14" lengthAdjust="spacing" textLength="121" x="96" y="240.9707">owner: SystemUser</text><line style="stroke:#181818;stroke-width:1.0;" x1="77" x2="511" y1="248.4844" y2="248.4844"/><ellipse cx="87" cy="263.2949" fill="#84BE84" rx="3" ry="3" style="stroke:#038048;stroke-width:1.0;"/><text fill="#000000" font-family="sans-serif" font-size="14" lengthAdjust="spacing" textLength="334" x="96" y="267.5918">addPostIt(row: int, column: int, postIt: PostIt): boolean</text><ellipse cx="87" cy="281.916" fill="#84BE84" rx="3" ry="3" style="stroke:#038048;stroke-width:1.0;"/><text fill="#000000" font-family="sans-serif" font-size="14" lengthAdjust="spacing" textLength="410" x="96" y="286.2129">changePostItData(row: int, column: int, newData: String): boolean</text><ellipse cx="87" cy="300.5371" fill="#84BE84" rx="3" ry="3" style="stroke:#038048;stroke-width:1.0;"/><text fill="#000000" font-family="sans-serif" font-size="14" lengthAdjust="spacing" textLength="326" x="96" y="304.834">undoChangeOnPostIt(row: int, column: int): boolean</text><ellipse cx="87" cy="319.1582" fill="#84BE84" rx="3" ry="3" style="stroke:#038048;stroke-width:1.0;"/><text fill="#000000" font-family="sans-serif" font-size="14" lengthAdjust="spacing" textLength="94" x="96" y="323.4551">archiveBoard()</text><ellipse cx="87" cy="337.7793" fill="#84BE84" rx="3" ry="3" style="stroke:#038048;stroke-width:1.0;"/><text fill="#000000" font-family="sans-serif" font-size="14" lengthAdjust="spacing" textLength="92" x="96" y="342.0762">sharedBoard()</text><ellipse cx="87" cy="356.4004" fill="#84BE84" rx="3" ry="3" style="stroke:#038048;stroke-width:1.0;"/><text fill="#000000" font-family="sans-serif" font-size="14" lengthAdjust="spacing" textLength="96" x="96" y="360.6973">createdBoard()</text><ellipse cx="87" cy="375.0215" fill="#84BE84" rx="3" ry="3" style="stroke:#038048;stroke-width:1.0;"/><text fill="#000000" font-family="sans-serif" font-size="14" lengthAdjust="spacing" textLength="131" x="96" y="379.3184">getCells(): List&lt;Cell&gt;</text><ellipse cx="87" cy="393.6426" fill="#84BE84" rx="3" ry="3" style="stroke:#038048;stroke-width:1.0;"/><text fill="#000000" font-family="sans-serif" font-size="14" lengthAdjust="spacing" textLength="180" x="96" y="397.9395">getCell(row: int, col: int): Cell</text><ellipse cx="87" cy="412.2637" fill="#84BE84" rx="3" ry="3" style="stroke:#038048;stroke-width:1.0;"/><text fill="#000000" font-family="sans-serif" font-size="14" lengthAdjust="spacing" textLength="220" x="96" y="416.5605">getHistory(): Deque&lt;BoardHistory&gt;</text></g><!--class Cell--><g id="elem_Cell"><rect codeLine="19" fill="#F1F1F1" height="215.5898" id="Cell" rx="2.5" ry="2.5" style="stroke:#181818;stroke-width:0.5;" width="398" x="221" y="484"/><ellipse cx="403.75" cy="500" fill="#ADD1B2" rx="11" ry="11" style="stroke:#181818;stroke-width:1.0;"/><path d="M406.5156,495.875 Q406.6719,495.6563 406.8594,495.5469 Q407.0469,495.4375 407.2656,495.4375 Q407.6406,495.4375 407.875,495.7031 Q408.1094,495.9531 408.1094,496.5625 L408.1094,498.0156 Q408.1094,498.625 407.875,498.8906 Q407.6406,499.1563 407.2656,499.1563 Q406.9219,499.1563 406.7188,498.9531 Q406.5156,498.7656 406.4063,498.25 Q406.3594,497.8906 406.1719,497.7031 Q405.8438,497.3281 405.2344,497.1094 Q404.625,496.8906 404,496.8906 Q403.2344,496.8906 402.5938,497.2188 Q401.9688,497.5469 401.4688,498.2969 Q400.9844,499.0469 400.9844,500.0781 L400.9844,501.1719 Q400.9844,502.4063 401.875,503.2344 Q402.7656,504.0469 404.3594,504.0469 Q405.2969,504.0469 405.9531,503.7969 Q406.3438,503.6406 406.7656,503.2031 Q407.0313,502.9375 407.1719,502.8594 Q407.3281,502.7813 407.5313,502.7813 Q407.8594,502.7813 408.1094,503.0469 Q408.375,503.2969 408.375,503.6406 Q408.375,503.9844 408.0313,504.3906 Q407.5313,504.9688 406.7344,505.2969 Q405.6563,505.75 404.3594,505.75 Q402.8438,505.75 401.6406,505.125 Q400.6563,504.625 399.9688,503.5625 Q399.2813,502.4844 399.2813,501.2031 L399.2813,500.0469 Q399.2813,498.7188 399.8906,497.5781 Q400.5156,496.4219 401.6094,495.8125 Q402.7031,495.1875 403.9375,495.1875 Q404.6719,495.1875 405.3125,495.3594 Q405.9688,495.5156 406.5156,495.875 Z " fill="#000000"/><text fill="#000000" font-family="sans-serif" font-size="14" lengthAdjust="spacing" textLength="24" x="424.25" y="505.7969">Cell</text><line style="stroke:#181818;stroke-width:0.5;" x1="222" x2="618" y1="516" y2="516"/><rect fill="none" height="6" style="stroke:#C82930;stroke-width:1.0;" width="6" x="229" y="527.8105"/><text fill="#000000" font-family="sans-serif" font-size="14" lengthAdjust="spacing" textLength="95" x="241" y="535.1074">row: BoardRow</text><rect fill="none" height="6" style="stroke:#C82930;stroke-width:1.0;" width="6" x="229" y="546.4316"/><text fill="#000000" font-family="sans-serif" font-size="14" lengthAdjust="spacing" textLength="139" x="241" y="553.7285">column: BoardColumn</text><rect fill="none" height="6" style="stroke:#C82930;stroke-width:1.0;" width="6" x="229" y="565.0527"/><text fill="#000000" font-family="sans-serif" font-size="14" lengthAdjust="spacing" textLength="189" x="241" y="572.3496">history: Deque&lt;BoardHistory&gt;</text><line style="stroke:#181818;stroke-width:1.0;" x1="222" x2="618" y1="579.8633" y2="579.8633"/><ellipse cx="232" cy="594.6738" fill="#84BE84" rx="3" ry="3" style="stroke:#038048;stroke-width:1.0;"/><text fill="#000000" font-family="sans-serif" font-size="14" lengthAdjust="spacing" textLength="296" x="241" y="598.9707">addPostIt(board: Board, postIt: PostIt): boolean</text><ellipse cx="232" cy="613.2949" fill="#84BE84" rx="3" ry="3" style="stroke:#038048;stroke-width:1.0;"/><text fill="#000000" font-family="sans-serif" font-size="14" lengthAdjust="spacing" textLength="372" x="241" y="617.5918">changePostItData(board: Board, newData: String): boolean</text><ellipse cx="232" cy="631.916" fill="#84BE84" rx="3" ry="3" style="stroke:#038048;stroke-width:1.0;"/><text fill="#000000" font-family="sans-serif" font-size="14" lengthAdjust="spacing" textLength="92" x="241" y="636.2129">removePostIt()</text><ellipse cx="232" cy="650.5371" fill="#84BE84" rx="3" ry="3" style="stroke:#038048;stroke-width:1.0;"/><text fill="#000000" font-family="sans-serif" font-size="14" lengthAdjust="spacing" textLength="140" x="241" y="654.834">getPostItData(): String</text><ellipse cx="232" cy="669.1582" fill="#84BE84" rx="3" ry="3" style="stroke:#038048;stroke-width:1.0;"/><text fill="#000000" font-family="sans-serif" font-size="14" lengthAdjust="spacing" textLength="127" x="241" y="673.4551">hasPostIt(): boolean</text><ellipse cx="232" cy="687.7793" fill="#84BE84" rx="3" ry="3" style="stroke:#038048;stroke-width:1.0;"/><text fill="#000000" font-family="sans-serif" font-size="14" lengthAdjust="spacing" textLength="354" x="241" y="692.0762">addUndoToHistory(board: Board, postit: PostIt): boolean</text></g><!--class BoardTitle--><g id="elem_BoardTitle"><rect codeLine="31" fill="#F1F1F1" height="66.6211" id="BoardTitle" rx="2.5" ry="2.5" style="stroke:#181818;stroke-width:0.5;" width="103" x="242.5" y="7"/><ellipse cx="260.2" cy="23" fill="#ADD1B2" rx="11" ry="11" style="stroke:#181818;stroke-width:1.0;"/><path d="M262.9656,18.875 Q263.1219,18.6563 263.3094,18.5469 Q263.4969,18.4375 263.7156,18.4375 Q264.0906,18.4375 264.325,18.7031 Q264.5594,18.9531 264.5594,19.5625 L264.5594,21.0156 Q264.5594,21.625 264.325,21.8906 Q264.0906,22.1563 263.7156,22.1563 Q263.3719,22.1563 263.1688,21.9531 Q262.9656,21.7656 262.8563,21.25 Q262.8094,20.8906 262.6219,20.7031 Q262.2938,20.3281 261.6844,20.1094 Q261.075,19.8906 260.45,19.8906 Q259.6844,19.8906 259.0438,20.2188 Q258.4188,20.5469 257.9188,21.2969 Q257.4344,22.0469 257.4344,23.0781 L257.4344,24.1719 Q257.4344,25.4063 258.325,26.2344 Q259.2156,27.0469 260.8094,27.0469 Q261.7469,27.0469 262.4031,26.7969 Q262.7938,26.6406 263.2156,26.2031 Q263.4813,25.9375 263.6219,25.8594 Q263.7781,25.7813 263.9813,25.7813 Q264.3094,25.7813 264.5594,26.0469 Q264.825,26.2969 264.825,26.6406 Q264.825,26.9844 264.4813,27.3906 Q263.9813,27.9688 263.1844,28.2969 Q262.1063,28.75 260.8094,28.75 Q259.2938,28.75 258.0906,28.125 Q257.1063,27.625 256.4188,26.5625 Q255.7313,25.4844 255.7313,24.2031 L255.7313,23.0469 Q255.7313,21.7188 256.3406,20.5781 Q256.9656,19.4219 258.0594,18.8125 Q259.1531,18.1875 260.3875,18.1875 Q261.1219,18.1875 261.7625,18.3594 Q262.4188,18.5156 262.9656,18.875 Z " fill="#000000"/><text fill="#000000" font-family="sans-serif" font-size="14" lengthAdjust="spacing" textLength="65" x="274.8" y="28.7969">BoardTitle</text><line style="stroke:#181818;stroke-width:0.5;" x1="243.5" x2="344.5" y1="39" y2="39"/><line style="stroke:#181818;stroke-width:0.5;" x1="243.5" x2="344.5" y1="47" y2="47"/><ellipse cx="253.5" cy="61.8105" fill="#84BE84" rx="3" ry="3" style="stroke:#038048;stroke-width:1.0;"/><text fill="#000000" font-family="sans-serif" font-size="14" lengthAdjust="spacing" textLength="77" x="262.5" y="66.1074">title(): String</text></g><!--class BoardColumn--><g id="elem_BoardColumn"><rect codeLine="34" fill="#F1F1F1" height="85.2422" id="BoardColumn" rx="2.5" ry="2.5" style="stroke:#181818;stroke-width:0.5;" width="138" x="7" y="816"/><ellipse cx="31" cy="832" fill="#ADD1B2" rx="11" ry="11" style="stroke:#181818;stroke-width:1.0;"/><path d="M33.7656,827.875 Q33.9219,827.6563 34.1094,827.5469 Q34.2969,827.4375 34.5156,827.4375 Q34.8906,827.4375 35.125,827.7031 Q35.3594,827.9531 35.3594,828.5625 L35.3594,830.0156 Q35.3594,830.625 35.125,830.8906 Q34.8906,831.1563 34.5156,831.1563 Q34.1719,831.1563 33.9688,830.9531 Q33.7656,830.7656 33.6563,830.25 Q33.6094,829.8906 33.4219,829.7031 Q33.0938,829.3281 32.4844,829.1094 Q31.875,828.8906 31.25,828.8906 Q30.4844,828.8906 29.8438,829.2188 Q29.2188,829.5469 28.7188,830.2969 Q28.2344,831.0469 28.2344,832.0781 L28.2344,833.1719 Q28.2344,834.4063 29.125,835.2344 Q30.0156,836.0469 31.6094,836.0469 Q32.5469,836.0469 33.2031,835.7969 Q33.5938,835.6406 34.0156,835.2031 Q34.2813,834.9375 34.4219,834.8594 Q34.5781,834.7813 34.7813,834.7813 Q35.1094,834.7813 35.3594,835.0469 Q35.625,835.2969 35.625,835.6406 Q35.625,835.9844 35.2813,836.3906 Q34.7813,836.9688 33.9844,837.2969 Q32.9063,837.75 31.6094,837.75 Q30.0938,837.75 28.8906,837.125 Q27.9063,836.625 27.2188,835.5625 Q26.5313,834.4844 26.5313,833.2031 L26.5313,832.0469 Q26.5313,830.7188 27.1406,829.5781 Q27.7656,828.4219 28.8594,827.8125 Q29.9531,827.1875 31.1875,827.1875 Q31.9219,827.1875 32.5625,827.3594 Q33.2188,827.5156 33.7656,827.875 Z " fill="#000000"/><text fill="#000000" font-family="sans-serif" font-size="14" lengthAdjust="spacing" textLength="86" x="47" y="837.7969">BoardColumn</text><line style="stroke:#181818;stroke-width:0.5;" x1="8" x2="144" y1="848" y2="848"/><rect fill="none" height="6" style="stroke:#C82930;stroke-width:1.0;" width="6" x="15" y="859.8105"/><text fill="#000000" font-family="sans-serif" font-size="14" lengthAdjust="spacing" textLength="79" x="27" y="867.1074">columnId: int</text><line style="stroke:#181818;stroke-width:1.0;" x1="8" x2="144" y1="874.6211" y2="874.6211"/><ellipse cx="18" cy="889.4316" fill="#84BE84" rx="3" ry="3" style="stroke:#038048;stroke-width:1.0;"/><text fill="#000000" font-family="sans-serif" font-size="14" lengthAdjust="spacing" textLength="112" x="27" y="893.7285">getColumnId(): int</text></g><!--class BoardRow--><g id="elem_BoardRow"><rect codeLine="39" fill="#F1F1F1" height="85.2422" id="BoardRow" rx="2.5" ry="2.5" style="stroke:#181818;stroke-width:0.5;" width="117" x="180.5" y="816"/><ellipse cx="204.5" cy="832" fill="#ADD1B2" rx="11" ry="11" style="stroke:#181818;stroke-width:1.0;"/><path d="M207.2656,827.875 Q207.4219,827.6563 207.6094,827.5469 Q207.7969,827.4375 208.0156,827.4375 Q208.3906,827.4375 208.625,827.7031 Q208.8594,827.9531 208.8594,828.5625 L208.8594,830.0156 Q208.8594,830.625 208.625,830.8906 Q208.3906,831.1563 208.0156,831.1563 Q207.6719,831.1563 207.4688,830.9531 Q207.2656,830.7656 207.1563,830.25 Q207.1094,829.8906 206.9219,829.7031 Q206.5938,829.3281 205.9844,829.1094 Q205.375,828.8906 204.75,828.8906 Q203.9844,828.8906 203.3438,829.2188 Q202.7188,829.5469 202.2188,830.2969 Q201.7344,831.0469 201.7344,832.0781 L201.7344,833.1719 Q201.7344,834.4063 202.625,835.2344 Q203.5156,836.0469 205.1094,836.0469 Q206.0469,836.0469 206.7031,835.7969 Q207.0938,835.6406 207.5156,835.2031 Q207.7813,834.9375 207.9219,834.8594 Q208.0781,834.7813 208.2813,834.7813 Q208.6094,834.7813 208.8594,835.0469 Q209.125,835.2969 209.125,835.6406 Q209.125,835.9844 208.7813,836.3906 Q208.2813,836.9688 207.4844,837.2969 Q206.4063,837.75 205.1094,837.75 Q203.5938,837.75 202.3906,837.125 Q201.4063,836.625 200.7188,835.5625 Q200.0313,834.4844 200.0313,833.2031 L200.0313,832.0469 Q200.0313,830.7188 200.6406,829.5781 Q201.2656,828.4219 202.3594,827.8125 Q203.4531,827.1875 204.6875,827.1875 Q205.4219,827.1875 206.0625,827.3594 Q206.7188,827.5156 207.2656,827.875 Z " fill="#000000"/><text fill="#000000" font-family="sans-serif" font-size="14" lengthAdjust="spacing" textLength="65" x="220.5" y="837.7969">BoardRow</text><line style="stroke:#181818;stroke-width:0.5;" x1="181.5" x2="296.5" y1="848" y2="848"/><rect fill="none" height="6" style="stroke:#C82930;stroke-width:1.0;" width="6" x="188.5" y="859.8105"/><text fill="#000000" font-family="sans-serif" font-size="14" lengthAdjust="spacing" textLength="56" x="200.5" y="867.1074">rowId: int</text><line style="stroke:#181818;stroke-width:1.0;" x1="181.5" x2="296.5" y1="874.6211" y2="874.6211"/><ellipse cx="191.5" cy="889.4316" fill="#84BE84" rx="3" ry="3" style="stroke:#038048;stroke-width:1.0;"/><text fill="#000000" font-family="sans-serif" font-size="14" lengthAdjust="spacing" textLength="91" x="200.5" y="893.7285">getRowId(): int</text></g><!--class BoardHistory--><g id="elem_BoardHistory"><rect codeLine="45" fill="#F1F1F1" height="196.9688" id="BoardHistory" rx="2.5" ry="2.5" style="stroke:#181818;stroke-width:0.5;" width="190" x="333" y="760"/><ellipse cx="382.75" cy="776" fill="#A9DCDF" rx="11" ry="11" style="stroke:#181818;stroke-width:1.0;"/><path d="M384.9375,777.7656 L380.7969,777.7656 L380.375,778.7969 L380.7969,778.7969 Q381.4063,778.7969 381.6719,779.0313 Q381.9375,779.2656 381.9375,779.6563 Q381.9375,780.0313 381.6719,780.2656 Q381.4063,780.5 380.7969,780.5 L378.5,780.5 Q377.8906,780.5 377.6406,780.2656 Q377.375,780.0313 377.375,779.6406 Q377.375,779.2656 377.6563,779.0313 Q377.9219,778.7813 378.5469,778.7969 L381.2188,772.1406 L380.1094,772.1406 Q379.5,772.1406 379.2344,771.9063 Q378.9688,771.6719 378.9688,771.2813 Q378.9688,770.9063 379.2344,770.6719 Q379.5,770.4375 380.1094,770.4375 L383.7813,770.4375 L387.1719,778.7969 Q387.7656,778.7969 387.9531,778.9375 Q388.3438,779.2031 388.3438,779.6563 Q388.3438,780.0313 388.0781,780.2656 Q387.8281,780.5 387.2188,780.5 L384.9219,780.5 Q384.3125,780.5 384.0469,780.2656 Q383.7813,780.0313 383.7813,779.6406 Q383.7813,779.2656 384.0469,779.0313 Q384.3125,778.7969 384.9219,778.7969 L385.3438,778.7969 L384.9375,777.7656 Z M384.2188,776.0625 L382.8594,772.6875 L381.4844,776.0625 L384.2188,776.0625 Z " fill="#000000"/><text fill="#000000" font-family="sans-serif" font-size="14" font-style="italic" lengthAdjust="spacing" textLength="82" x="403.25" y="781.7969">BoardHistory</text><line style="stroke:#181818;stroke-width:0.5;" x1="334" x2="522" y1="792" y2="792"/><rect fill="none" height="6" style="stroke:#C82930;stroke-width:1.0;" width="6" x="341" y="803.8105"/><text fill="#000000" font-family="sans-serif" font-size="14" lengthAdjust="spacing" textLength="72" x="353" y="811.1074">type: String</text><rect fill="none" height="6" style="stroke:#C82930;stroke-width:1.0;" width="6" x="341" y="822.4316"/><text fill="#000000" font-family="sans-serif" font-size="14" lengthAdjust="spacing" textLength="83" x="353" y="829.7285">board: Board</text><rect fill="none" height="6" style="stroke:#C82930;stroke-width:1.0;" width="6" x="341" y="841.0527"/><text fill="#000000" font-family="sans-serif" font-size="14" lengthAdjust="spacing" textLength="94" x="353" y="848.3496">position: String</text><rect fill="none" height="6" style="stroke:#C82930;stroke-width:1.0;" width="6" x="341" y="859.6738"/><text fill="#000000" font-family="sans-serif" font-size="14" lengthAdjust="spacing" textLength="129" x="353" y="866.9707">time: LocalDateTime</text><line style="stroke:#181818;stroke-width:1.0;" x1="334" x2="522" y1="874.4844" y2="874.4844"/><ellipse cx="344" cy="889.2949" fill="#84BE84" rx="3" ry="3" style="stroke:#038048;stroke-width:1.0;"/><text fill="#000000" font-family="sans-serif" font-size="14" lengthAdjust="spacing" textLength="107" x="353" y="893.5918">getType(): String</text><ellipse cx="344" cy="907.916" fill="#84BE84" rx="3" ry="3" style="stroke:#038048;stroke-width:1.0;"/><text fill="#000000" font-family="sans-serif" font-size="14" lengthAdjust="spacing" textLength="114" x="353" y="912.2129">getBoard(): Board</text><ellipse cx="344" cy="926.5371" fill="#84BE84" rx="3" ry="3" style="stroke:#038048;stroke-width:1.0;"/><text fill="#000000" font-family="sans-serif" font-size="14" lengthAdjust="spacing" textLength="125" x="353" y="930.834">getPosition(): String</text><ellipse cx="344" cy="945.1582" fill="#84BE84" rx="3" ry="3" style="stroke:#038048;stroke-width:1.0;"/><text fill="#000000" font-family="sans-serif" font-size="14" lengthAdjust="spacing" textLength="164" x="353" y="949.4551">getTime(): LocalDateTime</text></g><!--class CreatePostIt--><g id="elem_CreatePostIt"><rect codeLine="56" fill="#F1F1F1" height="66.6211" id="CreatePostIt" rx="2.5" ry="2.5" style="stroke:#181818;stroke-width:0.5;" width="208" x="77" y="1017"/><ellipse cx="137.75" cy="1033" fill="#ADD1B2" rx="11" ry="11" style="stroke:#181818;stroke-width:1.0;"/><path d="M140.5156,1028.875 Q140.6719,1028.6563 140.8594,1028.5469 Q141.0469,1028.4375 141.2656,1028.4375 Q141.6406,1028.4375 141.875,1028.7031 Q142.1094,1028.9531 142.1094,1029.5625 L142.1094,1031.0156 Q142.1094,1031.625 141.875,1031.8906 Q141.6406,1032.1563 141.2656,1032.1563 Q140.9219,1032.1563 140.7188,1031.9531 Q140.5156,1031.7656 140.4063,1031.25 Q140.3594,1030.8906 140.1719,1030.7031 Q139.8438,1030.3281 139.2344,1030.1094 Q138.625,1029.8906 138,1029.8906 Q137.2344,1029.8906 136.5938,1030.2188 Q135.9688,1030.5469 135.4688,1031.2969 Q134.9844,1032.0469 134.9844,1033.0781 L134.9844,1034.1719 Q134.9844,1035.4063 135.875,1036.2344 Q136.7656,1037.0469 138.3594,1037.0469 Q139.2969,1037.0469 139.9531,1036.7969 Q140.3438,1036.6406 140.7656,1036.2031 Q141.0313,1035.9375 141.1719,1035.8594 Q141.3281,1035.7813 141.5313,1035.7813 Q141.8594,1035.7813 142.1094,1036.0469 Q142.375,1036.2969 142.375,1036.6406 Q142.375,1036.9844 142.0313,1037.3906 Q141.5313,1037.9688 140.7344,1038.2969 Q139.6563,1038.75 138.3594,1038.75 Q136.8438,1038.75 135.6406,1038.125 Q134.6563,1037.625 133.9688,1036.5625 Q133.2813,1035.4844 133.2813,1034.2031 L133.2813,1033.0469 Q133.2813,1031.7188 133.8906,1030.5781 Q134.5156,1029.4219 135.6094,1028.8125 Q136.7031,1028.1875 137.9375,1028.1875 Q138.6719,1028.1875 139.3125,1028.3594 Q139.9688,1028.5156 140.5156,1028.875 Z " fill="#000000"/><text fill="#000000" font-family="sans-serif" font-size="14" lengthAdjust="spacing" textLength="78" x="158.25" y="1038.7969">CreatePostIt</text><line style="stroke:#181818;stroke-width:0.5;" x1="78" x2="284" y1="1049" y2="1049"/><line style="stroke:#181818;stroke-width:1.0;" x1="78" x2="284" y1="1057" y2="1057"/><ellipse cx="88" cy="1071.8105" fill="#84BE84" rx="3" ry="3" style="stroke:#038048;stroke-width:1.0;"/><text fill="#000000" font-family="sans-serif" font-size="14" lengthAdjust="spacing" textLength="182" x="97" y="1076.1074">CreatePostIt(position: String)</text></g><!--class ChangePostIt--><g id="elem_ChangePostIt"><rect codeLine="60" fill="#F1F1F1" height="66.6211" id="ChangePostIt" rx="2.5" ry="2.5" style="stroke:#181818;stroke-width:0.5;" width="215" x="320.5" y="1017"/><ellipse cx="381.25" cy="1033" fill="#ADD1B2" rx="11" ry="11" style="stroke:#181818;stroke-width:1.0;"/><path d="M384.0156,1028.875 Q384.1719,1028.6563 384.3594,1028.5469 Q384.5469,1028.4375 384.7656,1028.4375 Q385.1406,1028.4375 385.375,1028.7031 Q385.6094,1028.9531 385.6094,1029.5625 L385.6094,1031.0156 Q385.6094,1031.625 385.375,1031.8906 Q385.1406,1032.1563 384.7656,1032.1563 Q384.4219,1032.1563 384.2188,1031.9531 Q384.0156,1031.7656 383.9063,1031.25 Q383.8594,1030.8906 383.6719,1030.7031 Q383.3438,1030.3281 382.7344,1030.1094 Q382.125,1029.8906 381.5,1029.8906 Q380.7344,1029.8906 380.0938,1030.2188 Q379.4688,1030.5469 378.9688,1031.2969 Q378.4844,1032.0469 378.4844,1033.0781 L378.4844,1034.1719 Q378.4844,1035.4063 379.375,1036.2344 Q380.2656,1037.0469 381.8594,1037.0469 Q382.7969,1037.0469 383.4531,1036.7969 Q383.8438,1036.6406 384.2656,1036.2031 Q384.5313,1035.9375 384.6719,1035.8594 Q384.8281,1035.7813 385.0313,1035.7813 Q385.3594,1035.7813 385.6094,1036.0469 Q385.875,1036.2969 385.875,1036.6406 Q385.875,1036.9844 385.5313,1037.3906 Q385.0313,1037.9688 384.2344,1038.2969 Q383.1563,1038.75 381.8594,1038.75 Q380.3438,1038.75 379.1406,1038.125 Q378.1563,1037.625 377.4688,1036.5625 Q376.7813,1035.4844 376.7813,1034.2031 L376.7813,1033.0469 Q376.7813,1031.7188 377.3906,1030.5781 Q378.0156,1029.4219 379.1094,1028.8125 Q380.2031,1028.1875 381.4375,1028.1875 Q382.1719,1028.1875 382.8125,1028.3594 Q383.4688,1028.5156 384.0156,1028.875 Z " fill="#000000"/><text fill="#000000" font-family="sans-serif" font-size="14" lengthAdjust="spacing" textLength="85" x="401.75" y="1038.7969">ChangePostIt</text><line style="stroke:#181818;stroke-width:0.5;" x1="321.5" x2="534.5" y1="1049" y2="1049"/><line style="stroke:#181818;stroke-width:1.0;" x1="321.5" x2="534.5" y1="1057" y2="1057"/><ellipse cx="331.5" cy="1071.8105" fill="#84BE84" rx="3" ry="3" style="stroke:#038048;stroke-width:1.0;"/><text fill="#000000" font-family="sans-serif" font-size="14" lengthAdjust="spacing" textLength="189" x="340.5" y="1076.1074">ChangePostIt(position: String)</text></g><!--class UndoPostIt--><g id="elem_UndoPostIt"><rect codeLine="64" fill="#F1F1F1" height="66.6211" id="UndoPostIt" rx="2.5" ry="2.5" style="stroke:#181818;stroke-width:0.5;" width="329" x="570.5" y="1017"/><ellipse cx="696.75" cy="1033" fill="#ADD1B2" rx="11" ry="11" style="stroke:#181818;stroke-width:1.0;"/><path d="M699.5156,1028.875 Q699.6719,1028.6563 699.8594,1028.5469 Q700.0469,1028.4375 700.2656,1028.4375 Q700.6406,1028.4375 700.875,1028.7031 Q701.1094,1028.9531 701.1094,1029.5625 L701.1094,1031.0156 Q701.1094,1031.625 700.875,1031.8906 Q700.6406,1032.1563 700.2656,1032.1563 Q699.9219,1032.1563 699.7188,1031.9531 Q699.5156,1031.7656 699.4063,1031.25 Q699.3594,1030.8906 699.1719,1030.7031 Q698.8438,1030.3281 698.2344,1030.1094 Q697.625,1029.8906 697,1029.8906 Q696.2344,1029.8906 695.5938,1030.2188 Q694.9688,1030.5469 694.4688,1031.2969 Q693.9844,1032.0469 693.9844,1033.0781 L693.9844,1034.1719 Q693.9844,1035.4063 694.875,1036.2344 Q695.7656,1037.0469 697.3594,1037.0469 Q698.2969,1037.0469 698.9531,1036.7969 Q699.3438,1036.6406 699.7656,1036.2031 Q700.0313,1035.9375 700.1719,1035.8594 Q700.3281,1035.7813 700.5313,1035.7813 Q700.8594,1035.7813 701.1094,1036.0469 Q701.375,1036.2969 701.375,1036.6406 Q701.375,1036.9844 701.0313,1037.3906 Q700.5313,1037.9688 699.7344,1038.2969 Q698.6563,1038.75 697.3594,1038.75 Q695.8438,1038.75 694.6406,1038.125 Q693.6563,1037.625 692.9688,1036.5625 Q692.2813,1035.4844 692.2813,1034.2031 L692.2813,1033.0469 Q692.2813,1031.7188 692.8906,1030.5781 Q693.5156,1029.4219 694.6094,1028.8125 Q695.7031,1028.1875 696.9375,1028.1875 Q697.6719,1028.1875 698.3125,1028.3594 Q698.9688,1028.5156 699.5156,1028.875 Z " fill="#000000"/><text fill="#000000" font-family="sans-serif" font-size="14" lengthAdjust="spacing" textLength="68" x="717.25" y="1038.7969">UndoPostIt</text><line style="stroke:#181818;stroke-width:0.5;" x1="571.5" x2="898.5" y1="1049" y2="1049"/><line style="stroke:#181818;stroke-width:1.0;" x1="571.5" x2="898.5" y1="1057" y2="1057"/><ellipse cx="581.5" cy="1071.8105" fill="#84BE84" rx="3" ry="3" style="stroke:#038048;stroke-width:1.0;"/><text fill="#000000" font-family="sans-serif" font-size="14" lengthAdjust="spacing" textLength="303" x="590.5" y="1076.1074">UndoPostIt(position: String, prevContent: String)</text></g><!--class SystemUser--><g id="elem_SystemUser"><rect codeLine="71" fill="#F1F1F1" height="122.4844" id="SystemUser" rx="2.5" ry="2.5" style="stroke:#181818;stroke-width:0.5;" width="165" x="654.5" y="531"/><ellipse cx="695.6" cy="547" fill="#ADD1B2" rx="11" ry="11" style="stroke:#181818;stroke-width:1.0;"/><path d="M698.3656,542.875 Q698.5219,542.6563 698.7094,542.5469 Q698.8969,542.4375 699.1156,542.4375 Q699.4906,542.4375 699.725,542.7031 Q699.9594,542.9531 699.9594,543.5625 L699.9594,545.0156 Q699.9594,545.625 699.725,545.8906 Q699.4906,546.1563 699.1156,546.1563 Q698.7719,546.1563 698.5688,545.9531 Q698.3656,545.7656 698.2563,545.25 Q698.2094,544.8906 698.0219,544.7031 Q697.6938,544.3281 697.0844,544.1094 Q696.475,543.8906 695.85,543.8906 Q695.0844,543.8906 694.4438,544.2188 Q693.8188,544.5469 693.3188,545.2969 Q692.8344,546.0469 692.8344,547.0781 L692.8344,548.1719 Q692.8344,549.4063 693.725,550.2344 Q694.6156,551.0469 696.2094,551.0469 Q697.1469,551.0469 697.8031,550.7969 Q698.1938,550.6406 698.6156,550.2031 Q698.8813,549.9375 699.0219,549.8594 Q699.1781,549.7813 699.3813,549.7813 Q699.7094,549.7813 699.9594,550.0469 Q700.225,550.2969 700.225,550.6406 Q700.225,550.9844 699.8813,551.3906 Q699.3813,551.9688 698.5844,552.2969 Q697.5063,552.75 696.2094,552.75 Q694.6938,552.75 693.4906,552.125 Q692.5063,551.625 691.8188,550.5625 Q691.1313,549.4844 691.1313,548.2031 L691.1313,547.0469 Q691.1313,545.7188 691.7406,544.5781 Q692.3656,543.4219 693.4594,542.8125 Q694.5531,542.1875 695.7875,542.1875 Q696.5219,542.1875 697.1625,542.3594 Q697.8188,542.5156 698.3656,542.875 Z " fill="#000000"/><text fill="#000000" font-family="sans-serif" font-size="14" lengthAdjust="spacing" textLength="75" x="715.4" y="552.7969">SystemUser</text><line style="stroke:#181818;stroke-width:0.5;" x1="655.5" x2="818.5" y1="563" y2="563"/><rect fill="none" height="6" style="stroke:#C82930;stroke-width:1.0;" width="6" x="662.5" y="574.8105"/><text fill="#000000" font-family="sans-serif" font-size="14" lengthAdjust="spacing" textLength="108" x="674.5" y="582.1074">username: String</text><rect fill="none" height="6" style="stroke:#C82930;stroke-width:1.0;" width="6" x="662.5" y="593.4316"/><text fill="#000000" font-family="sans-serif" font-size="14" lengthAdjust="spacing" textLength="105" x="674.5" y="600.7285">password: String</text><line style="stroke:#181818;stroke-width:1.0;" x1="655.5" x2="818.5" y1="608.2422" y2="608.2422"/><ellipse cx="665.5" cy="623.0527" fill="#84BE84" rx="3" ry="3" style="stroke:#038048;stroke-width:1.0;"/><text fill="#000000" font-family="sans-serif" font-size="14" lengthAdjust="spacing" textLength="139" x="674.5" y="627.3496">getUsername(): String</text><ellipse cx="665.5" cy="641.6738" fill="#84BE84" rx="3" ry="3" style="stroke:#038048;stroke-width:1.0;"/><text fill="#000000" font-family="sans-serif" font-size="14" lengthAdjust="spacing" textLength="136" x="674.5" y="645.9707">getPassword(): String</text></g><!--class PostIt--><g id="elem_PostIt"><rect codeLine="81" fill="#F1F1F1" height="103.8633" id="PostIt" rx="2.5" ry="2.5" style="stroke:#181818;stroke-width:0.5;" width="163" x="558.5" y="806.5"/><ellipse cx="618.25" cy="822.5" fill="#ADD1B2" rx="11" ry="11" style="stroke:#181818;stroke-width:1.0;"/><path d="M621.0156,818.375 Q621.1719,818.1563 621.3594,818.0469 Q621.5469,817.9375 621.7656,817.9375 Q622.1406,817.9375 622.375,818.2031 Q622.6094,818.4531 622.6094,819.0625 L622.6094,820.5156 Q622.6094,821.125 622.375,821.3906 Q622.1406,821.6563 621.7656,821.6563 Q621.4219,821.6563 621.2188,821.4531 Q621.0156,821.2656 620.9063,820.75 Q620.8594,820.3906 620.6719,820.2031 Q620.3438,819.8281 619.7344,819.6094 Q619.125,819.3906 618.5,819.3906 Q617.7344,819.3906 617.0938,819.7188 Q616.4688,820.0469 615.9688,820.7969 Q615.4844,821.5469 615.4844,822.5781 L615.4844,823.6719 Q615.4844,824.9063 616.375,825.7344 Q617.2656,826.5469 618.8594,826.5469 Q619.7969,826.5469 620.4531,826.2969 Q620.8438,826.1406 621.2656,825.7031 Q621.5313,825.4375 621.6719,825.3594 Q621.8281,825.2813 622.0313,825.2813 Q622.3594,825.2813 622.6094,825.5469 Q622.875,825.7969 622.875,826.1406 Q622.875,826.4844 622.5313,826.8906 Q622.0313,827.4688 621.2344,827.7969 Q620.1563,828.25 618.8594,828.25 Q617.3438,828.25 616.1406,827.625 Q615.1563,827.125 614.4688,826.0625 Q613.7813,824.9844 613.7813,823.7031 L613.7813,822.5469 Q613.7813,821.2188 614.3906,820.0781 Q615.0156,818.9219 616.1094,818.3125 Q617.2031,817.6875 618.4375,817.6875 Q619.1719,817.6875 619.8125,817.8594 Q620.4688,818.0156 621.0156,818.375 Z " fill="#000000"/><text fill="#000000" font-family="sans-serif" font-size="14" lengthAdjust="spacing" textLength="35" x="638.75" y="828.2969">PostIt</text><line style="stroke:#181818;stroke-width:0.5;" x1="559.5" x2="720.5" y1="838.5" y2="838.5"/><rect fill="none" height="6" style="stroke:#C82930;stroke-width:1.0;" width="6" x="566.5" y="850.3105"/><text fill="#000000" font-family="sans-serif" font-size="14" lengthAdjust="spacing" textLength="92" x="578.5" y="857.6074">content: String</text><line style="stroke:#181818;stroke-width:1.0;" x1="559.5" x2="720.5" y1="865.1211" y2="865.1211"/><ellipse cx="569.5" cy="879.9316" fill="#84BE84" rx="3" ry="3" style="stroke:#038048;stroke-width:1.0;"/><text fill="#000000" font-family="sans-serif" font-size="14" lengthAdjust="spacing" textLength="137" x="578.5" y="884.2285">PostIt(content: String)</text><ellipse cx="569.5" cy="898.5527" fill="#84BE84" rx="3" ry="3" style="stroke:#038048;stroke-width:1.0;"/><text fill="#000000" font-family="sans-serif" font-size="14" lengthAdjust="spacing" textLength="125" x="578.5" y="902.8496">getContent(): String</text></g><!--link Board to Cell--><g id="link_Board_Cell"><path codeLine="89" d="M357.34,436.34 C362.1,448.08 366.85,459.82 371.5,471.28 " fill="none" id="Board-Cell" style="stroke:#181818;stroke-width:1.0;"/><polygon fill="#181818" points="352.39,424.12,350.9361,431.183,356.8966,435.2416,358.3505,428.1786,352.39,424.12" style="stroke:#181818;stroke-width:1.0;"/><polygon fill="#181818" points="376.49,483.6,376.8232,473.7568,374.615,478.9649,369.407,476.7567,376.49,483.6" style="stroke:#181818;stroke-width:1.0;"/><line style="stroke:#181818;stroke-width:1.0;" x1="374.615" x2="371.605" y1="478.9649" y2="471.555"/></g><!--link Board to SystemUser--><g id="link_Board_SystemUser"><path codeLine="90" d="M512.13,397.79 C554.66,424.12 597.84,453.39 636,484 C651.98,496.82 667.86,512.11 682.14,527.06 " fill="none" id="Board-to-SystemUser" style="stroke:#181818;stroke-width:1.0;"/><polygon fill="#181818" points="685.73,530.85,682.437,521.568,682.2885,527.2229,676.6336,527.0744,685.73,530.85" style="stroke:#181818;stroke-width:1.0;"/></g><!--link Cell to BoardRow--><g id="link_Cell_BoardRow"><path codeLine="91" d="M346.64,700.2 C320.12,738.96 291.55,780.71 270.52,811.44 " fill="none" id="Cell-to-BoardRow" style="stroke:#181818;stroke-width:1.0;"/><polygon fill="#181818" points="267.47,815.9,275.8566,810.7362,270.296,811.7752,269.2569,806.2146,267.47,815.9" style="stroke:#181818;stroke-width:1.0;"/></g><!--link Cell to BoardColumn--><g id="link_Cell_BoardColumn"><path codeLine="92" d="M241.34,700.22 C214.22,718.99 187.23,739.21 163,760 C144.91,775.52 127.02,794.72 112.21,811.97 " fill="none" id="Cell-to-BoardColumn" style="stroke:#181818;stroke-width:1.0;"/><polygon fill="#181818" points="108.9,815.85,117.7771,811.5841,112.1387,812.0407,111.6821,806.4023,108.9,815.85" style="stroke:#181818;stroke-width:1.0;"/></g><!--link Cell to PostIt--><g id="link_Cell_PostIt"><path codeLine="93" d="M509.17,700.2 C538.35,735.29 569.56,772.81 594.18,802.41 " fill="none" id="Cell-to-PostIt" style="stroke:#181818;stroke-width:1.0;"/><polygon fill="#181818" points="597.45,806.35,594.7647,796.8743,594.2505,802.5077,588.617,801.9935,597.45,806.35" style="stroke:#181818;stroke-width:1.0;"/></g><!--link Cell to BoardHistory--><g id="link_Cell_BoardHistory"><path codeLine="94" d="M423.24,700.2 C423.79,718.26 424.35,736.97 424.9,754.92 " fill="none" id="Cell-to-BoardHistory" style="stroke:#181818;stroke-width:1.0;"/><polygon fill="#181818" points="425.05,759.96,428.7913,750.8494,424.9072,754.962,420.7946,751.0779,425.05,759.96" style="stroke:#181818;stroke-width:1.0;"/></g><!--link BoardTitle to Board--><g id="link_BoardTitle_Board"><path codeLine="96" d="M294,74.38 C294,89.42 294,108.4 294,128.69 " fill="none" id="BoardTitle-to-Board" style="stroke:#181818;stroke-width:1.0;"/><polygon fill="#181818" points="294,133.87,298,124.87,294,128.87,290,124.87,294,133.87" style="stroke:#181818;stroke-width:1.0;"/></g><!--link BoardColumn to Board--><g id="link_BoardColumn_Board"><path codeLine="97" d="M85.34,815.96 C101.71,746.02 138.4,600.92 186,484 C192.41,468.25 199.67,452.12 207.31,436.16 " fill="none" id="BoardColumn-to-Board" style="stroke:#181818;stroke-width:1.0;"/><polygon fill="#181818" points="213.22,424,206.9998,427.6482,207.975,434.7931,214.1952,431.1449,213.22,424" style="stroke:#181818;stroke-width:1.0;"/></g><!--link BoardRow to Board--><g id="link_BoardRow_Board"><path codeLine="98" d="M226.81,815.86 C208.29,746.36 177.73,602.67 203,484 C206.35,468.29 210.99,452.32 216.43,436.59 " fill="none" id="BoardRow-to-Board" style="stroke:#181818;stroke-width:1.0;"/><polygon fill="#181818" points="220.95,424.03,215.1564,428.3236,216.8914,435.3228,222.685,431.0293,220.95,424.03" style="stroke:#181818;stroke-width:1.0;"/></g><!--reverse link BoardHistory to CreatePostIt--><g id="link_BoardHistory_CreatePostIt"><path codeLine="99" d="M316.92,955.51 C316.28,956.01 315.64,956.51 315,957 C287.94,977.92 256.52,999.73 230.91,1016.91 " fill="none" id="BoardHistory-backto-CreatePostIt" style="stroke:#181818;stroke-width:1.0;"/><polygon fill="none" points="312.72,949.91,332.73,942.94,321.43,960.87,312.72,949.91" style="stroke:#181818;stroke-width:1.0;"/></g><!--reverse link BoardHistory to ChangePostIt--><g id="link_BoardHistory_ChangePostIt"><path codeLine="100" d="M428,977.47 C428,991.7 428,1005.2 428,1016.59 " fill="none" id="BoardHistory-backto-ChangePostIt" style="stroke:#181818;stroke-width:1.0;"/><polygon fill="none" points="421,977,428,957,435,977,421,977" style="stroke:#181818;stroke-width:1.0;"/></g><!--reverse link BoardHistory to UndoPostIt--><g id="link_BoardHistory_UndoPostIt"><path codeLine="101" d="M539.6,956.08 C540.07,956.39 540.53,956.7 541,957 C576.46,980.15 618.61,1000.96 654.55,1016.95 " fill="none" id="BoardHistory-backto-UndoPostIt" style="stroke:#181818;stroke-width:1.0;"/><polygon fill="none" points="535.49,961.75,523.11,944.56,543.51,950.27,535.49,961.75" style="stroke:#181818;stroke-width:1.0;"/></g><!--SRC=[dLLBRjim4Dth55pQINK1mSYYpg810ZH8xGCmqi0I894kILamsjwz_CaQVkG6zS8svmtV36VUa8GGKlTKIlALKz6GNmNndv9y6CkXKprK3hN_aGCRXtS-oOfqJ8NcFU_7WIK8dnY8YlouIWN3KO9OiFBszv7GfddZKhseZU2JvVX2Qile5sUBLiHvRIkTAk-1CiHHjvITm3ayKqNNg1XC1jP9AT6nKvPhP0tVMxxlx5vYsSrKr6rt0Ll0pHO1igK2cjHU2w0g1vn0xQ7lvKR7UUsasfdLK-eG9ZTdPf3GzvlcuE9gw9xXvmWx6z9R7UyV- -q4OWW2VTWmTezM0RBF5R6GKm92MyU_7lEE7AmYFV7_gI1a-4pp1GpyuYdYTY3YxKo2F5egvtrPPJJDKIlhmET6fCVhrew76xFC9chF8r764kMLR7Fj2ThgslVIHCDRHaBpNYR0x9UmQrt4YlaNxxjn2Kdj3_sGIj1QONfVjo24kfuXQOM_otnfaLdNk5CTPvaTgXiqqIklQQyR30UzN4twe8Dc5Q0nFyTnx5a_DlpQNXFKJdkIHJ2Ozi9mCi6rm4bYdqrywcrAYUPcbHBvV8BIIFq-uUAHqEbf473PSwQ0gJX6KQ0moziIo6BK1aQ7d3JEUjl4ZJfYAEhoqNEiTUlD4oKp5oIOra1FN72kV0A-CdMk1cWgBPh9m3tl3sNvv5u2jpPBz1hRAzxORhTwQF6N-SteSegS_5JwaEvUke45ldNAyW5RpMqHcUO9t_qkoq33EHZfCGClwYh-0W00]--></g></svg>