<?xml version="1.0" encoding="us-ascii" standalone="no"?><svg xmlns="http://www.w3.org/2000/svg" xmlns:xlink="http://www.w3.org/1999/xlink" contentStyleType="text/css" height="1109px" preserveAspectRatio="none" style="width:684px;height:1109px;background:#FFFFFF;" version="1.1" viewBox="0 0 684 1109" width="684px" zoomAndPan="magnify"><defs/><g><rect fill="#FFFFFF" height="891.8574" style="stroke:#181818;stroke-width:1.0;" width="10" x="150" y="116.9121"/><rect fill="#FFFFFF" height="30" style="stroke:#181818;stroke-width:1.0;" width="10" x="329" y="159.8486"/><rect fill="#FFFFFF" height="287.6191" style="stroke:#181818;stroke-width:1.0;" width="10" x="329" y="232.7852"/><rect fill="#FFFFFF" height="363.2012" style="stroke:#181818;stroke-width:1.0;" width="10" x="329" y="614.2773"/><line style="stroke:#181818;stroke-width:0.5;stroke-dasharray:5.0,5.0;" x1="48" x2="48" y1="83.6211" y2="1026.7695"/><line style="stroke:#181818;stroke-width:0.5;stroke-dasharray:5.0,5.0;" x1="155" x2="155" y1="83.6211" y2="1026.7695"/><line style="stroke:#181818;stroke-width:0.5;stroke-dasharray:5.0,5.0;" x1="334" x2="334" y1="83.6211" y2="1026.7695"/><line style="stroke:#181818;stroke-width:0.5;stroke-dasharray:5.0,5.0;" x1="530" x2="530" y1="83.6211" y2="1026.7695"/><line style="stroke:#181818;stroke-width:0.5;stroke-dasharray:5.0,5.0;" x1="626" x2="626" y1="83.6211" y2="1026.7695"/><text fill="#000000" font-family="sans-serif" font-size="14" lengthAdjust="spacing" textLength="80" x="5" y="80.1074">SBAappUser</text><ellipse cx="48" cy="13.5" fill="#E2E2F0" rx="8" ry="8" style="stroke:#181818;stroke-width:0.5;"/><path d="M48,21.5 L48,48.5 M35,29.5 L61,29.5 M48,48.5 L35,63.5 M48,48.5 L61,63.5 " fill="none" style="stroke:#181818;stroke-width:0.5;"/><text fill="#000000" font-family="sans-serif" font-size="14" lengthAdjust="spacing" textLength="80" x="5" y="1040.877">SBAappUser</text><ellipse cx="48" cy="1052.8906" fill="#E2E2F0" rx="8" ry="8" style="stroke:#181818;stroke-width:0.5;"/><path d="M48,1060.8906 L48,1087.8906 M35,1068.8906 L61,1068.8906 M48,1087.8906 L35,1102.8906 M48,1087.8906 L61,1102.8906 " fill="none" style="stroke:#181818;stroke-width:0.5;"/><rect fill="#E2E2F0" height="32.6211" rx="2.5" ry="2.5" style="stroke:#181818;stroke-width:0.5;" width="100" x="105" y="50"/><text fill="#000000" font-family="sans-serif" font-size="14" lengthAdjust="spacing" textLength="86" x="112" y="72.1074">ViewBoardsUI</text><rect fill="#E2E2F0" height="32.6211" rx="2.5" ry="2.5" style="stroke:#181818;stroke-width:0.5;" width="100" x="105" y="1025.7695"/><text fill="#000000" font-family="sans-serif" font-size="14" lengthAdjust="spacing" textLength="86" x="112" y="1047.877">ViewBoardsUI</text><rect fill="#E2E2F0" height="32.6211" rx="2.5" ry="2.5" style="stroke:#181818;stroke-width:0.5;" width="150" x="259" y="50"/><text fill="#000000" font-family="sans-serif" font-size="14" lengthAdjust="spacing" textLength="136" x="266" y="72.1074">ViewBoardsController</text><rect fill="#E2E2F0" height="32.6211" rx="2.5" ry="2.5" style="stroke:#181818;stroke-width:0.5;" width="150" x="259" y="1025.7695"/><text fill="#000000" font-family="sans-serif" font-size="14" lengthAdjust="spacing" textLength="136" x="266" y="1047.877">ViewBoardsController</text><rect fill="#E2E2F0" height="32.6211" rx="2.5" ry="2.5" style="stroke:#181818;stroke-width:0.5;" width="84" x="488" y="50"/><text fill="#000000" font-family="sans-serif" font-size="14" lengthAdjust="spacing" textLength="70" x="495" y="72.1074">SBProtocol</text><rect fill="#E2E2F0" height="32.6211" rx="2.5" ry="2.5" style="stroke:#181818;stroke-width:0.5;" width="84" x="488" y="1025.7695"/><text fill="#000000" font-family="sans-serif" font-size="14" lengthAdjust="spacing" textLength="70" x="495" y="1047.877">SBProtocol</text><rect fill="#E2E2F0" height="32.6211" rx="2.5" ry="2.5" style="stroke:#181818;stroke-width:0.5;" width="88" x="582" y="50"/><text fill="#000000" font-family="sans-serif" font-size="14" lengthAdjust="spacing" textLength="74" x="589" y="72.1074">ServerAJAX</text><rect fill="#E2E2F0" height="32.6211" rx="2.5" ry="2.5" style="stroke:#181818;stroke-width:0.5;" width="88" x="582" y="1025.7695"/><text fill="#000000" font-family="sans-serif" font-size="14" lengthAdjust="spacing" textLength="74" x="589" y="1047.877">ServerAJAX</text><rect fill="#FFFFFF" height="891.8574" style="stroke:#181818;stroke-width:1.0;" width="10" x="150" y="116.9121"/><rect fill="#FFFFFF" height="30" style="stroke:#181818;stroke-width:1.0;" width="10" x="329" y="159.8486"/><rect fill="#FFFFFF" height="287.6191" style="stroke:#181818;stroke-width:1.0;" width="10" x="329" y="232.7852"/><rect fill="#FFFFFF" height="363.2012" style="stroke:#181818;stroke-width:1.0;" width="10" x="329" y="614.2773"/><polygon fill="#181818" points="138,112.9121,148,116.9121,138,120.9121,142,116.9121" style="stroke:#181818;stroke-width:1.0;"/><line style="stroke:#181818;stroke-width:1.0;" x1="48" x2="144" y1="116.9121" y2="116.9121"/><text fill="#000000" font-family="sans-serif" font-size="13" lengthAdjust="spacing" textLength="69" x="55" y="111.6494">view Boards</text><polygon fill="#181818" points="317,155.8486,327,159.8486,317,163.8486,321,159.8486" style="stroke:#181818;stroke-width:1.0;"/><line style="stroke:#181818;stroke-width:1.0;stroke-dasharray:2.0,2.0;" x1="160" x2="323" y1="159.8486" y2="159.8486"/><text fill="#000000" font-family="sans-serif" font-size="13" lengthAdjust="spacing" textLength="150" x="167" y="154.5859">create(serverIp,serverPort)</text><path d="M344,129.9121 L344,173.9121 L677,173.9121 L677,139.9121 L667,129.9121 L344,129.9121 " fill="#FEFFDD" style="stroke:#181818;stroke-width:0.5;"/><path d="M667,129.9121 L667,139.9121 L677,139.9121 L667,129.9121 " fill="#FEFFDD" style="stroke:#181818;stroke-width:0.5;"/><text fill="#000000" font-family="sans-serif" font-size="13" lengthAdjust="spacing" textLength="312" x="350" y="148.9404">create instance of socket with serverIp and serverPort,</text><text fill="#000000" font-family="sans-serif" font-size="13" lengthAdjust="spacing" textLength="256" x="350" y="166.2314">a input stream(inS) and output Stream(outS)</text><polygon fill="#181818" points="317,228.7852,327,232.7852,317,236.7852,321,232.7852" style="stroke:#181818;stroke-width:1.0;"/><line style="stroke:#181818;stroke-width:1.0;stroke-dasharray:2.0,2.0;" x1="160" x2="323" y1="232.7852" y2="232.7852"/><text fill="#000000" font-family="sans-serif" font-size="13" lengthAdjust="spacing" textLength="89" x="167" y="227.5225">boardsToView()</text><polygon fill="#181818" points="518,260.0762,528,264.0762,518,268.0762,522,264.0762" style="stroke:#181818;stroke-width:1.0;"/><line style="stroke:#181818;stroke-width:1.0;" x1="339" x2="524" y1="264.0762" y2="264.0762"/><text fill="#000000" font-family="sans-serif" font-size="13" lengthAdjust="spacing" textLength="44" x="346" y="258.8135">create()</text><polygon fill="#181818" points="518,291.3672,528,295.3672,518,299.3672,522,295.3672" style="stroke:#181818;stroke-width:1.0;"/><line style="stroke:#181818;stroke-width:1.0;" x1="339" x2="524" y1="295.3672" y2="295.3672"/><text fill="#000000" font-family="sans-serif" font-size="13" lengthAdjust="spacing" textLength="152" x="346" y="290.1045">setCode(VIEW_BOARDS)</text><polygon fill="#181818" points="518,322.6582,528,326.6582,518,330.6582,522,326.6582" style="stroke:#181818;stroke-width:1.0;"/><line style="stroke:#181818;stroke-width:1.0;" x1="339" x2="524" y1="326.6582" y2="326.6582"/><text fill="#000000" font-family="sans-serif" font-size="13" lengthAdjust="spacing" textLength="146" x="346" y="321.3955">setToken(AUTH_TOKEN)</text><polygon fill="#181818" points="518,353.9492,528,357.9492,518,361.9492,522,357.9492" style="stroke:#181818;stroke-width:1.0;"/><line style="stroke:#181818;stroke-width:1.0;" x1="339" x2="524" y1="357.9492" y2="357.9492"/><text fill="#000000" font-family="sans-serif" font-size="13" lengthAdjust="spacing" textLength="63" x="346" y="352.6865">send(outS)</text><path d="M344,370.9492 L344,397.9492 L522,397.9492 L522,380.9492 L512,370.9492 L344,370.9492 " fill="#FEFFDD" style="stroke:#181818;stroke-width:0.5;"/><path d="M512,370.9492 L512,380.9492 L522,380.9492 L512,370.9492 " fill="#FEFFDD" style="stroke:#181818;stroke-width:0.5;"/><text fill="#000000" font-family="sans-serif" font-size="13" lengthAdjust="spacing" textLength="157" x="350" y="389.9775">check viewBoardHandler sv</text><polygon fill="#181818" points="518,422.5313,528,426.5313,518,430.5313,522,426.5313" style="stroke:#181818;stroke-width:1.0;"/><line style="stroke:#181818;stroke-width:1.0;" x1="339" x2="524" y1="426.5313" y2="426.5313"/><text fill="#000000" font-family="sans-serif" font-size="13" lengthAdjust="spacing" textLength="63" x="346" y="421.2686">create(inS)</text><polygon fill="#181818" points="518,453.8223,528,457.8223,518,461.8223,522,457.8223" style="stroke:#181818;stroke-width:1.0;"/><line style="stroke:#181818;stroke-width:1.0;" x1="339" x2="524" y1="457.8223" y2="457.8223"/><text fill="#000000" font-family="sans-serif" font-size="13" lengthAdjust="spacing" textLength="140" x="346" y="452.5596">getContentAsString(inS)</text><polygon fill="#181818" points="350,485.1133,340,489.1133,350,493.1133,346,489.1133" style="stroke:#181818;stroke-width:1.0;"/><line style="stroke:#181818;stroke-width:1.0;stroke-dasharray:2.0,2.0;" x1="344" x2="529" y1="489.1133" y2="489.1133"/><text fill="#000000" font-family="sans-serif" font-size="13" lengthAdjust="spacing" textLength="43" x="356" y="483.8506">content</text><polygon fill="#181818" points="171,516.4043,161,520.4043,171,524.4043,167,520.4043" style="stroke:#181818;stroke-width:1.0;"/><line style="stroke:#181818;stroke-width:1.0;stroke-dasharray:2.0,2.0;" x1="165" x2="333" y1="520.4043" y2="520.4043"/><text fill="#000000" font-family="sans-serif" font-size="13" lengthAdjust="spacing" textLength="100" x="177" y="515.1416">content.split("\0")</text><polygon fill="#181818" points="59,547.6953,49,551.6953,59,555.6953,55,551.6953" style="stroke:#181818;stroke-width:1.0;"/><line style="stroke:#181818;stroke-width:1.0;stroke-dasharray:2.0,2.0;" x1="53" x2="149" y1="551.6953" y2="551.6953"/><text fill="#000000" font-family="sans-serif" font-size="13" lengthAdjust="spacing" textLength="73" x="65" y="546.4326">show boards</text><polygon fill="#181818" points="138,578.9863,148,582.9863,138,586.9863,142,582.9863" style="stroke:#181818;stroke-width:1.0;"/><line style="stroke:#181818;stroke-width:1.0;" x1="48" x2="144" y1="582.9863" y2="582.9863"/><text fill="#000000" font-family="sans-serif" font-size="13" lengthAdjust="spacing" textLength="78" x="55" y="577.7236">choose board</text><polygon fill="#181818" points="317,610.2773,327,614.2773,317,618.2773,321,614.2773" style="stroke:#181818;stroke-width:1.0;"/><line style="stroke:#181818;stroke-width:1.0;" x1="160" x2="323" y1="614.2773" y2="614.2773"/><text fill="#000000" font-family="sans-serif" font-size="13" lengthAdjust="spacing" textLength="124" x="167" y="609.0146">requestHistory(board)</text><polygon fill="#181818" points="518,641.5684,528,645.5684,518,649.5684,522,645.5684" style="stroke:#181818;stroke-width:1.0;"/><line style="stroke:#181818;stroke-width:1.0;" x1="339" x2="524" y1="645.5684" y2="645.5684"/><text fill="#000000" font-family="sans-serif" font-size="13" lengthAdjust="spacing" textLength="44" x="346" y="640.3057">create()</text><polygon fill="#181818" points="518,672.8594,528,676.8594,518,680.8594,522,676.8594" style="stroke:#181818;stroke-width:1.0;"/><line style="stroke:#181818;stroke-width:1.0;" x1="339" x2="524" y1="676.8594" y2="676.8594"/><text fill="#000000" font-family="sans-serif" font-size="13" lengthAdjust="spacing" textLength="145" x="346" y="671.5967">setCode(LIST_HISTORY)</text><polygon fill="#181818" points="518,704.1504,528,708.1504,518,712.1504,522,708.1504" style="stroke:#181818;stroke-width:1.0;"/><line style="stroke:#181818;stroke-width:1.0;" x1="339" x2="524" y1="708.1504" y2="708.1504"/><text fill="#000000" font-family="sans-serif" font-size="13" lengthAdjust="spacing" textLength="167" x="346" y="702.8877">setContentFromString(board)</text><polygon fill="#181818" points="518,735.4414,528,739.4414,518,743.4414,522,739.4414" style="stroke:#181818;stroke-width:1.0;"/><line style="stroke:#181818;stroke-width:1.0;" x1="339" x2="524" y1="739.4414" y2="739.4414"/><text fill="#000000" font-family="sans-serif" font-size="13" lengthAdjust="spacing" textLength="146" x="346" y="734.1787">setToken(AUTH_TOKEN)</text><polygon fill="#181818" points="518,766.7324,528,770.7324,518,774.7324,522,770.7324" style="stroke:#181818;stroke-width:1.0;"/><line style="stroke:#181818;stroke-width:1.0;" x1="339" x2="524" y1="770.7324" y2="770.7324"/><text fill="#000000" font-family="sans-serif" font-size="13" lengthAdjust="spacing" textLength="63" x="346" y="765.4697">send(outS)</text><path d="M344,783.7324 L344,810.7324 L522,810.7324 L522,793.7324 L512,783.7324 L344,783.7324 " fill="#FEFFDD" style="stroke:#181818;stroke-width:0.5;"/><path d="M512,783.7324 L512,793.7324 L522,793.7324 L512,783.7324 " fill="#FEFFDD" style="stroke:#181818;stroke-width:0.5;"/><text fill="#000000" font-family="sans-serif" font-size="13" lengthAdjust="spacing" textLength="157" x="350" y="802.7607">check viewBoardHandler sv</text><polygon fill="#181818" points="518,835.3145,528,839.3145,518,843.3145,522,839.3145" style="stroke:#181818;stroke-width:1.0;"/><line style="stroke:#181818;stroke-width:1.0;" x1="339" x2="524" y1="839.3145" y2="839.3145"/><text fill="#000000" font-family="sans-serif" font-size="13" lengthAdjust="spacing" textLength="63" x="346" y="834.0518">create(inS)</text><polygon fill="#181818" points="518,866.6055,528,870.6055,518,874.6055,522,870.6055" style="stroke:#181818;stroke-width:1.0;"/><line style="stroke:#181818;stroke-width:1.0;" x1="339" x2="524" y1="870.6055" y2="870.6055"/><text fill="#000000" font-family="sans-serif" font-size="13" lengthAdjust="spacing" textLength="140" x="346" y="865.3428">getContentAsString(inS)</text><polygon fill="#181818" points="350,897.8965,340,901.8965,350,905.8965,346,901.8965" style="stroke:#181818;stroke-width:1.0;"/><line style="stroke:#181818;stroke-width:1.0;stroke-dasharray:2.0,2.0;" x1="344" x2="529" y1="901.8965" y2="901.8965"/><text fill="#000000" font-family="sans-serif" font-size="13" lengthAdjust="spacing" textLength="43" x="356" y="896.6338">content</text><line style="stroke:#181818;stroke-width:1.0;" x1="339" x2="381" y1="933.1875" y2="933.1875"/><line style="stroke:#181818;stroke-width:1.0;" x1="381" x2="381" y1="933.1875" y2="946.1875"/><line style="stroke:#181818;stroke-width:1.0;" x1="340" x2="381" y1="946.1875" y2="946.1875"/><polygon fill="#181818" points="350,942.1875,340,946.1875,350,950.1875,346,946.1875" style="stroke:#181818;stroke-width:1.0;"/><text fill="#000000" font-family="sans-serif" font-size="13" lengthAdjust="spacing" textLength="97" x="346" y="927.9248">content.split("\r")</text><polygon fill="#181818" points="171,973.4785,161,977.4785,171,981.4785,167,977.4785" style="stroke:#181818;stroke-width:1.0;"/><line style="stroke:#181818;stroke-width:1.0;stroke-dasharray:2.0,2.0;" x1="165" x2="333" y1="977.4785" y2="977.4785"/><text fill="#000000" font-family="sans-serif" font-size="13" lengthAdjust="spacing" textLength="39" x="177" y="972.2158">history</text><polygon fill="#181818" points="59,1004.7695,49,1008.7695,59,1012.7695,55,1008.7695" style="stroke:#181818;stroke-width:1.0;"/><line style="stroke:#181818;stroke-width:1.0;stroke-dasharray:2.0,2.0;" x1="53" x2="154" y1="1008.7695" y2="1008.7695"/><text fill="#000000" font-family="sans-serif" font-size="13" lengthAdjust="spacing" textLength="73" x="65" y="1003.5068">show history</text><!--SRC=[fLHHRzem47xFhpZrAP7AjETfcXIwJh1Desf2jqb8o7CyOf7wCli8sh_VsKae80ffvuV4-BxlplVTHuGaj92DKr7NSwSi20SRVaUriAIbheKXUD1gEqPX2pUV1e1-9do3XYnMLPj7agqEWDdupYAXnCg7wsv_256sKJRzdFxm4DVuNHH5_aem-i2LuHqqN0_QWf6Gf1j1ojy9U35Wn3XVcf7IAex5BYITrjVjvWuj9G7jbq5cMxqgQKS0RHm98nNWRt0erufWgwc4FX48Ky1Jikk54SofDmIEECDZh4sM111ko1zdxJ7_of8ebDvTFAZaJmfrU7QYdr-XwHozud7oJ1w_0fvvlSPFMYJdC4xH3HOgVfZUVb-EP-dzn-mIFiUrCd4wpoVBVFRbzji5l2aw4Kx8ps9tVO8ibLo7GOSvJrXARohN3EZGQtyEjl9D6bA6KiTpqMPrWl9-D3f8tHAEqlQ6xA9lN5rfYgyMRw-w8H-FT6-YmT6iI8dRRgnjTD_eiaHqgWtlk3ipMFLdennDjEE_yDyueCvvOgWlBdZZwpJBbnD-pEv_3YC5SJvPVEpKthlfQxqrt5__ux4N-EoLNXlgj_tq_RVjo7GBsxlkj4dBrYSlyMLFsOFpP_OV]--></g></svg>