<?xml version="1.0" encoding="us-ascii" standalone="no"?><svg xmlns="http://www.w3.org/2000/svg" xmlns:xlink="http://www.w3.org/1999/xlink" contentStyleType="text/css" height="374px" preserveAspectRatio="none" style="width:251px;height:374px;background:#FFFFFF;" version="1.1" viewBox="0 0 251 374" width="251px" zoomAndPan="magnify"><defs/><g><line style="stroke:#181818;stroke-width:0.5;stroke-dasharray:5.0,5.0;" x1="26" x2="26" y1="83.6211" y2="291.3672"/><line style="stroke:#181818;stroke-width:0.5;stroke-dasharray:5.0,5.0;" x1="226" x2="226" y1="83.6211" y2="291.3672"/><text fill="#000000" font-family="sans-serif" font-size="14" lengthAdjust="spacing" textLength="36" x="5" y="80.1074">Client</text><ellipse cx="26" cy="13.5" fill="#E2E2F0" rx="8" ry="8" style="stroke:#181818;stroke-width:0.5;"/><path d="M26,21.5 L26,48.5 M13,29.5 L39,29.5 M26,48.5 L13,63.5 M26,48.5 L39,63.5 " fill="none" style="stroke:#181818;stroke-width:0.5;"/><text fill="#000000" font-family="sans-serif" font-size="14" lengthAdjust="spacing" textLength="36" x="5" y="305.4746">Client</text><ellipse cx="26" cy="317.4883" fill="#E2E2F0" rx="8" ry="8" style="stroke:#181818;stroke-width:0.5;"/><path d="M26,325.4883 L26,352.4883 M13,333.4883 L39,333.4883 M26,352.4883 L13,367.4883 M26,352.4883 L39,367.4883 " fill="none" style="stroke:#181818;stroke-width:0.5;"/><text fill="#000000" font-family="sans-serif" font-size="14" lengthAdjust="spacing" textLength="42" x="202" y="80.1074">Server</text><ellipse cx="226" cy="13.5" fill="#E2E2F0" rx="8" ry="8" style="stroke:#181818;stroke-width:0.5;"/><path d="M226,21.5 L226,48.5 M213,29.5 L239,29.5 M226,48.5 L213,63.5 M226,48.5 L239,63.5 " fill="none" style="stroke:#181818;stroke-width:0.5;"/><text fill="#000000" font-family="sans-serif" font-size="14" lengthAdjust="spacing" textLength="42" x="202" y="305.4746">Server</text><ellipse cx="226" cy="317.4883" fill="#E2E2F0" rx="8" ry="8" style="stroke:#181818;stroke-width:0.5;"/><path d="M226,325.4883 L226,352.4883 M213,333.4883 L239,333.4883 M226,352.4883 L213,367.4883 M226,352.4883 L239,367.4883 " fill="none" style="stroke:#181818;stroke-width:0.5;"/><polygon fill="#181818" points="214,112.9121,224,116.9121,214,120.9121,218,116.9121" style="stroke:#181818;stroke-width:1.0;"/><line style="stroke:#181818;stroke-width:1.0;" x1="26" x2="220" y1="116.9121" y2="116.9121"/><text fill="#000000" font-family="sans-serif" font-size="13" lengthAdjust="spacing" textLength="69" x="33" y="111.6494">openSocket</text><polygon fill="#181818" points="37,144.2031,27,148.2031,37,152.2031,33,148.2031" style="stroke:#181818;stroke-width:1.0;"/><line style="stroke:#181818;stroke-width:1.0;stroke-dasharray:2.0,2.0;" x1="31" x2="225" y1="148.2031" y2="148.2031"/><text fill="#000000" font-family="sans-serif" font-size="13" lengthAdjust="spacing" textLength="82" x="43" y="142.9404">accept socket</text><polygon fill="#181818" points="214,175.4941,224,179.4941,214,183.4941,218,179.4941" style="stroke:#181818;stroke-width:1.0;"/><line style="stroke:#181818;stroke-width:1.0;" x1="26" x2="220" y1="179.4941" y2="179.4941"/><text fill="#000000" font-family="sans-serif" font-size="13" lengthAdjust="spacing" textLength="98" x="33" y="174.2314">viewBoards(user)</text><polygon fill="#181818" points="37,206.7852,27,210.7852,37,214.7852,33,210.7852" style="stroke:#181818;stroke-width:1.0;"/><line style="stroke:#181818;stroke-width:1.0;stroke-dasharray:2.0,2.0;" x1="31" x2="225" y1="210.7852" y2="210.7852"/><text fill="#000000" font-family="sans-serif" font-size="13" lengthAdjust="spacing" textLength="176" x="43" y="205.5225">board with permissions to view</text><polygon fill="#181818" points="214,238.0762,224,242.0762,214,246.0762,218,242.0762" style="stroke:#181818;stroke-width:1.0;"/><line style="stroke:#181818;stroke-width:1.0;" x1="26" x2="220" y1="242.0762" y2="242.0762"/><text fill="#000000" font-family="sans-serif" font-size="13" lengthAdjust="spacing" textLength="124" x="33" y="236.8135">requestHistory(board)</text><polygon fill="#181818" points="37,269.3672,27,273.3672,37,277.3672,33,273.3672" style="stroke:#181818;stroke-width:1.0;"/><line style="stroke:#181818;stroke-width:1.0;stroke-dasharray:2.0,2.0;" x1="31" x2="225" y1="273.3672" y2="273.3672"/><text fill="#000000" font-family="sans-serif" font-size="13" lengthAdjust="spacing" textLength="84" x="43" y="268.1045">display history</text><!--SRC=[ROyx3eCm44Hxds9AKlW2A4gHDEavWMDMOXM27Uy2ulQ0oKTHw5RlpOoqpcj8kBHCdS89VBwCoxYYD51QiUJBc4t3dbu49KAahWh-JlgsHsk_sdbFKI4_YK-_nC0qdeDBjHJzmWx_8oLkgyV8sY1IUh08XqwW8RTtHXCzUnAziYnlJ4NkxoxNBB5r4vejQSmC]--></g></svg>