<?xml version="1.0" encoding="us-ascii" standalone="no"?><svg xmlns="http://www.w3.org/2000/svg" xmlns:xlink="http://www.w3.org/1999/xlink" contentStyleType="text/css" height="1002px" preserveAspectRatio="none" style="width:699px;height:1002px;background:#FFFFFF;" version="1.1" viewBox="0 0 699 1002" width="699px" zoomAndPan="magnify"><defs/><g><rect fill="#FFFFFF" height="85.873" style="stroke:#181818;stroke-width:1.0;" width="10" x="33" y="265.3672"/><rect fill="#FFFFFF" height="131.1641" style="stroke:#181818;stroke-width:1.0;" width="10" x="33" y="676.1504"/><rect fill="#FFFFFF" height="741.3389" style="stroke:#181818;stroke-width:1.0;" width="10" x="198" y="159.8486"/><rect fill="#FFFFFF" height="31.291" style="stroke:#181818;stroke-width:1.0;" width="10" x="477" y="202.7852"/><rect fill="#FFFFFF" height="31.291" style="stroke:#181818;stroke-width:1.0;" width="10" x="477" y="613.5684"/><rect fill="#FFFFFF" height="31.291" style="stroke:#181818;stroke-width:1.0;" width="10" x="578.5" y="445.1133"/><rect fill="#FFFFFF" height="31.291" style="stroke:#181818;stroke-width:1.0;" width="10" x="663" y="382.5313"/><line style="stroke:#181818;stroke-width:0.5;stroke-dasharray:5.0,5.0;" x1="38" x2="38" y1="83.6211" y2="919.1875"/><line style="stroke:#181818;stroke-width:0.5;stroke-dasharray:5.0,5.0;" x1="202.5" x2="202.5" y1="83.6211" y2="919.1875"/><line style="stroke:#181818;stroke-width:0.5;stroke-dasharray:5.0,5.0;" x1="482" x2="482" y1="83.6211" y2="919.1875"/><line style="stroke:#181818;stroke-width:0.5;stroke-dasharray:5.0,5.0;" x1="583" x2="583" y1="83.6211" y2="919.1875"/><line style="stroke:#181818;stroke-width:0.5;stroke-dasharray:5.0,5.0;" x1="668" x2="668" y1="83.6211" y2="919.1875"/><text fill="#000000" font-family="sans-serif" font-size="14" lengthAdjust="spacing" textLength="60" x="5" y="80.1074">SBServer</text><ellipse cx="38" cy="13.5" fill="#E2E2F0" rx="8" ry="8" style="stroke:#181818;stroke-width:0.5;"/><path d="M38,21.5 L38,48.5 M25,29.5 L51,29.5 M38,48.5 L25,63.5 M38,48.5 L51,63.5 " fill="none" style="stroke:#181818;stroke-width:0.5;"/><text fill="#000000" font-family="sans-serif" font-size="14" lengthAdjust="spacing" textLength="60" x="5" y="933.2949">SBServer</text><ellipse cx="38" cy="945.3086" fill="#E2E2F0" rx="8" ry="8" style="stroke:#181818;stroke-width:0.5;"/><path d="M38,953.3086 L38,980.3086 M25,961.3086 L51,961.3086 M38,980.3086 L25,995.3086 M38,980.3086 L51,995.3086 " fill="none" style="stroke:#181818;stroke-width:0.5;"/><rect fill="#E2E2F0" height="32.6211" rx="2.5" ry="2.5" style="stroke:#181818;stroke-width:0.5;" width="183" x="111.5" y="50"/><text fill="#000000" font-family="sans-serif" font-size="14" lengthAdjust="spacing" textLength="169" x="118.5" y="72.1074">ViewBoardRequestHandler</text><rect fill="#E2E2F0" height="32.6211" rx="2.5" ry="2.5" style="stroke:#181818;stroke-width:0.5;" width="183" x="111.5" y="918.1875"/><text fill="#000000" font-family="sans-serif" font-size="14" lengthAdjust="spacing" textLength="169" x="118.5" y="940.2949">ViewBoardRequestHandler</text><rect fill="#E2E2F0" height="32.6211" rx="2.5" ry="2.5" style="stroke:#181818;stroke-width:0.5;" width="84" x="440" y="50"/><text fill="#000000" font-family="sans-serif" font-size="14" lengthAdjust="spacing" textLength="70" x="447" y="72.1074">SBProtocol</text><rect fill="#E2E2F0" height="32.6211" rx="2.5" ry="2.5" style="stroke:#181818;stroke-width:0.5;" width="84" x="440" y="918.1875"/><text fill="#000000" font-family="sans-serif" font-size="14" lengthAdjust="spacing" textLength="70" x="447" y="940.2949">SBProtocol</text><rect fill="#E2E2F0" height="32.6211" rx="2.5" ry="2.5" style="stroke:#181818;stroke-width:0.5;" width="99" x="534" y="50"/><text fill="#000000" font-family="sans-serif" font-size="14" lengthAdjust="spacing" textLength="85" x="541" y="72.1074">BoardService</text><rect fill="#E2E2F0" height="32.6211" rx="2.5" ry="2.5" style="stroke:#181818;stroke-width:0.5;" width="99" x="534" y="918.1875"/><text fill="#000000" font-family="sans-serif" font-size="14" lengthAdjust="spacing" textLength="85" x="541" y="940.2949">BoardService</text><rect fill="#E2E2F0" height="32.6211" rx="2.5" ry="2.5" style="stroke:#181818;stroke-width:0.5;" width="50" x="643" y="50"/><text fill="#000000" font-family="sans-serif" font-size="14" lengthAdjust="spacing" textLength="36" x="650" y="72.1074">Client</text><rect fill="#E2E2F0" height="32.6211" rx="2.5" ry="2.5" style="stroke:#181818;stroke-width:0.5;" width="50" x="643" y="918.1875"/><text fill="#000000" font-family="sans-serif" font-size="14" lengthAdjust="spacing" textLength="36" x="650" y="940.2949">Client</text><rect fill="#FFFFFF" height="85.873" style="stroke:#181818;stroke-width:1.0;" width="10" x="33" y="265.3672"/><rect fill="#FFFFFF" height="131.1641" style="stroke:#181818;stroke-width:1.0;" width="10" x="33" y="676.1504"/><rect fill="#FFFFFF" height="741.3389" style="stroke:#181818;stroke-width:1.0;" width="10" x="198" y="159.8486"/><rect fill="#FFFFFF" height="31.291" style="stroke:#181818;stroke-width:1.0;" width="10" x="477" y="202.7852"/><rect fill="#FFFFFF" height="31.291" style="stroke:#181818;stroke-width:1.0;" width="10" x="477" y="613.5684"/><rect fill="#FFFFFF" height="31.291" style="stroke:#181818;stroke-width:1.0;" width="10" x="578.5" y="445.1133"/><rect fill="#FFFFFF" height="31.291" style="stroke:#181818;stroke-width:1.0;" width="10" x="663" y="382.5313"/><polygon fill="#181818" points="191,112.9121,201,116.9121,191,120.9121,195,116.9121" style="stroke:#181818;stroke-width:1.0;"/><line style="stroke:#181818;stroke-width:1.0;" x1="38" x2="197" y1="116.9121" y2="116.9121"/><text fill="#000000" font-family="sans-serif" font-size="13" lengthAdjust="spacing" textLength="134" x="45" y="111.6494">create(socket, request)</text><polygon fill="#181818" points="186,155.8486,196,159.8486,186,163.8486,190,159.8486" style="stroke:#181818;stroke-width:1.0;"/><line style="stroke:#181818;stroke-width:1.0;" x1="38" x2="192" y1="159.8486" y2="159.8486"/><text fill="#000000" font-family="sans-serif" font-size="13" lengthAdjust="spacing" textLength="26" x="45" y="154.5859">run()</text><path d="M213,129.9121 L213,173.9121 L546,173.9121 L546,139.9121 L536,129.9121 L213,129.9121 " fill="#FEFFDD" style="stroke:#181818;stroke-width:0.5;"/><path d="M536,129.9121 L536,139.9121 L546,139.9121 L536,129.9121 " fill="#FEFFDD" style="stroke:#181818;stroke-width:0.5;"/><text fill="#000000" font-family="sans-serif" font-size="13" lengthAdjust="spacing" textLength="312" x="219" y="148.9404">create instance of socket with serverIp and serverPort,</text><text fill="#000000" font-family="sans-serif" font-size="13" lengthAdjust="spacing" textLength="256" x="219" y="166.2314">a input stream(inS) and output Stream(outS)</text><polygon fill="#181818" points="465,198.7852,475,202.7852,465,206.7852,469,202.7852" style="stroke:#181818;stroke-width:1.0;"/><line style="stroke:#181818;stroke-width:1.0;" x1="208" x2="471" y1="202.7852" y2="202.7852"/><text fill="#000000" font-family="sans-serif" font-size="13" lengthAdjust="spacing" textLength="61" x="215" y="197.5225">getToken()</text><polygon fill="#181818" points="219,230.0762,209,234.0762,219,238.0762,215,234.0762" style="stroke:#181818;stroke-width:1.0;"/><line style="stroke:#181818;stroke-width:1.0;stroke-dasharray:2.0,2.0;" x1="213" x2="481" y1="234.0762" y2="234.0762"/><text fill="#000000" font-family="sans-serif" font-size="13" lengthAdjust="spacing" textLength="32" x="225" y="228.8135">token</text><polygon fill="#181818" points="54,261.3672,44,265.3672,54,269.3672,50,265.3672" style="stroke:#181818;stroke-width:1.0;"/><line style="stroke:#181818;stroke-width:1.0;" x1="48" x2="197" y1="265.3672" y2="265.3672"/><text fill="#000000" font-family="sans-serif" font-size="13" lengthAdjust="spacing" textLength="91" x="60" y="260.1045">getClient(token)</text><path d="M48,278.3672 L48,322.3672 L232,322.3672 L232,288.3672 L222,278.3672 L48,278.3672 " fill="#FEFFDD" style="stroke:#181818;stroke-width:0.5;"/><path d="M222,278.3672 L222,288.3672 L232,288.3672 L222,278.3672 " fill="#FEFFDD" style="stroke:#181818;stroke-width:0.5;"/><text fill="#000000" font-family="sans-serif" font-size="13" lengthAdjust="spacing" textLength="156" x="54" y="297.3955">clients associated to token</text><text fill="#000000" font-family="sans-serif" font-size="13" lengthAdjust="spacing" textLength="163" x="54" y="314.6865">are stored at SBPServerApp</text><polygon fill="#181818" points="186,347.2402,196,351.2402,186,355.2402,190,351.2402" style="stroke:#181818;stroke-width:1.0;"/><line style="stroke:#181818;stroke-width:1.0;stroke-dasharray:2.0,2.0;" x1="38" x2="192" y1="351.2402" y2="351.2402"/><text fill="#000000" font-family="sans-serif" font-size="13" lengthAdjust="spacing" textLength="31" x="45" y="345.9775">client</text><polygon fill="#181818" points="651,378.5313,661,382.5313,651,386.5313,655,382.5313" style="stroke:#181818;stroke-width:1.0;"/><line style="stroke:#181818;stroke-width:1.0;" x1="208" x2="657" y1="382.5313" y2="382.5313"/><text fill="#000000" font-family="sans-serif" font-size="13" lengthAdjust="spacing" textLength="53" x="215" y="377.2686">getUser()</text><polygon fill="#181818" points="219,409.8223,209,413.8223,219,417.8223,215,413.8223" style="stroke:#181818;stroke-width:1.0;"/><line style="stroke:#181818;stroke-width:1.0;stroke-dasharray:2.0,2.0;" x1="213" x2="667" y1="413.8223" y2="413.8223"/><text fill="#000000" font-family="sans-serif" font-size="13" lengthAdjust="spacing" textLength="25" x="225" y="408.5596">user</text><polygon fill="#181818" points="566.5,441.1133,576.5,445.1133,566.5,449.1133,570.5,445.1133" style="stroke:#181818;stroke-width:1.0;"/><line style="stroke:#181818;stroke-width:1.0;" x1="208" x2="572.5" y1="445.1133" y2="445.1133"/><text fill="#000000" font-family="sans-serif" font-size="13" lengthAdjust="spacing" textLength="143" x="215" y="439.8506">boardUserCanView(user)</text><polygon fill="#181818" points="219,472.4043,209,476.4043,219,480.4043,215,476.4043" style="stroke:#181818;stroke-width:1.0;"/><line style="stroke:#181818;stroke-width:1.0;stroke-dasharray:2.0,2.0;" x1="213" x2="582.5" y1="476.4043" y2="476.4043"/><text fill="#000000" font-family="sans-serif" font-size="13" lengthAdjust="spacing" textLength="39" x="225" y="471.1416">boards</text><path d="M213,489.4043 L213,516.4043 L390,516.4043 L390,499.4043 L380,489.4043 L213,489.4043 " fill="#FEFFDD" style="stroke:#181818;stroke-width:0.5;"/><path d="M380,489.4043 L380,499.4043 L390,499.4043 L380,489.4043 " fill="#FEFFDD" style="stroke:#181818;stroke-width:0.5;"/><text fill="#000000" font-family="sans-serif" font-size="13" lengthAdjust="spacing" textLength="156" x="219" y="508.4326">create protocol with boards</text><polygon fill="#181818" points="470,540.9863,480,544.9863,470,548.9863,474,544.9863" style="stroke:#181818;stroke-width:1.0;"/><line style="stroke:#181818;stroke-width:1.0;" x1="208" x2="476" y1="544.9863" y2="544.9863"/><text fill="#000000" font-family="sans-serif" font-size="13" lengthAdjust="spacing" textLength="63" x="215" y="539.7236">send(outS)</text><polygon fill="#181818" points="470,575.2773,480,579.2773,470,583.2773,474,579.2773" style="stroke:#181818;stroke-width:1.0;"/><line style="stroke:#181818;stroke-width:1.0;" x1="208" x2="476" y1="579.2773" y2="579.2773"/><text fill="#000000" font-family="sans-serif" font-size="13" lengthAdjust="spacing" textLength="63" x="215" y="574.0146">create(inS)</text><path d="M487,557.9863 L487,584.9863 L630,584.9863 L630,567.9863 L620,557.9863 L487,557.9863 " fill="#FEFFDD" style="stroke:#181818;stroke-width:0.5;"/><path d="M620,557.9863 L620,567.9863 L630,567.9863 L620,557.9863 " fill="#FEFFDD" style="stroke:#181818;stroke-width:0.5;"/><text fill="#000000" font-family="sans-serif" font-size="13" lengthAdjust="spacing" textLength="122" x="493" y="577.0146">receive board chosen</text><polygon fill="#181818" points="465,609.5684,475,613.5684,465,617.5684,469,613.5684" style="stroke:#181818;stroke-width:1.0;"/><line style="stroke:#181818;stroke-width:1.0;" x1="208" x2="471" y1="613.5684" y2="613.5684"/><text fill="#000000" font-family="sans-serif" font-size="13" lengthAdjust="spacing" textLength="135" x="215" y="608.3057">getContentFromString()</text><polygon fill="#181818" points="219,640.8594,209,644.8594,219,648.8594,215,644.8594" style="stroke:#181818;stroke-width:1.0;"/><line style="stroke:#181818;stroke-width:1.0;stroke-dasharray:2.0,2.0;" x1="213" x2="481" y1="644.8594" y2="644.8594"/><text fill="#000000" font-family="sans-serif" font-size="13" lengthAdjust="spacing" textLength="76" x="225" y="639.5967">boardChosen</text><polygon fill="#181818" points="54,672.1504,44,676.1504,54,680.1504,50,676.1504" style="stroke:#181818;stroke-width:1.0;"/><line style="stroke:#181818;stroke-width:1.0;" x1="48" x2="197" y1="676.1504" y2="676.1504"/><text fill="#000000" font-family="sans-serif" font-size="13" lengthAdjust="spacing" textLength="136" x="60" y="670.8877">getBoard(boardChosen)</text><path d="M48,689.1504 L48,716.1504 L253,716.1504 L253,699.1504 L243,689.1504 L48,689.1504 " fill="#FEFFDD" style="stroke:#181818;stroke-width:0.5;"/><path d="M243,689.1504 L243,699.1504 L253,699.1504 L243,689.1504 " fill="#FEFFDD" style="stroke:#181818;stroke-width:0.5;"/><text fill="#000000" font-family="sans-serif" font-size="13" lengthAdjust="spacing" textLength="184" x="54" y="708.1787">boards stored at SBPServerApp</text><polygon fill="#181818" points="186,740.7324,196,744.7324,186,748.7324,190,744.7324" style="stroke:#181818;stroke-width:1.0;"/><line style="stroke:#181818;stroke-width:1.0;stroke-dasharray:2.0,2.0;" x1="43" x2="192" y1="744.7324" y2="744.7324"/><text fill="#000000" font-family="sans-serif" font-size="13" lengthAdjust="spacing" textLength="32" x="50" y="739.4697">board</text><polygon fill="#181818" points="54,772.0234,44,776.0234,54,780.0234,50,776.0234" style="stroke:#181818;stroke-width:1.0;"/><line style="stroke:#181818;stroke-width:1.0;" x1="48" x2="197" y1="776.0234" y2="776.0234"/><text fill="#000000" font-family="sans-serif" font-size="13" lengthAdjust="spacing" textLength="124" x="60" y="770.7607">requestHistory(board)</text><polygon fill="#181818" points="186,803.3145,196,807.3145,186,811.3145,190,807.3145" style="stroke:#181818;stroke-width:1.0;"/><line style="stroke:#181818;stroke-width:1.0;stroke-dasharray:2.0,2.0;" x1="38" x2="192" y1="807.3145" y2="807.3145"/><text fill="#000000" font-family="sans-serif" font-size="13" lengthAdjust="spacing" textLength="39" x="45" y="802.0518">history</text><polygon fill="#181818" points="470,834.6055,480,838.6055,470,842.6055,474,838.6055" style="stroke:#181818;stroke-width:1.0;"/><line style="stroke:#181818;stroke-width:1.0;" x1="208" x2="476" y1="838.6055" y2="838.6055"/><text fill="#000000" font-family="sans-serif" font-size="13" lengthAdjust="spacing" textLength="206" x="215" y="833.3428">setCode(VIEW_BOARD_HISTORY)</text><polygon fill="#181818" points="470,865.8965,480,869.8965,470,873.8965,474,869.8965" style="stroke:#181818;stroke-width:1.0;"/><line style="stroke:#181818;stroke-width:1.0;" x1="208" x2="476" y1="869.8965" y2="869.8965"/><text fill="#000000" font-family="sans-serif" font-size="13" lengthAdjust="spacing" textLength="250" x="215" y="864.6338">setContentFromString(buildHistory(history))</text><polygon fill="#181818" points="470,897.1875,480,901.1875,470,905.1875,474,901.1875" style="stroke:#181818;stroke-width:1.0;"/><line style="stroke:#181818;stroke-width:1.0;" x1="203" x2="476" y1="901.1875" y2="901.1875"/><text fill="#000000" font-family="sans-serif" font-size="13" lengthAdjust="spacing" textLength="67" x="210" y="895.9248">send(outS))</text><!--SRC=[dLNRJkCm47tFL_WnaUWFeDLAD0jgdq0Di49Q2HbdjhK8Th0dHVltZ2-9d6BQXJx5pioPCpFdf5oWDgnPDc3sO1YtpFgdekYvGIbapnMoUmblIyrDku7N0Iokk6gx42xGTBFOPdbZD6gXE_UwZy-p40_bAae1BkWfEHS5eryWmHO_FJuxPy80HoYj5i-0Pym47bK-s0og3A-uGBcdn43JtIXD9oEtEvnGcLGMkI8k-YyB5TYRn5q4NlUCses76stmx8_YbDCFo2mImaifLLFv83sWksx2DPsQAZJaVfuTiHndGWIsWBVw6KQwCyhJw6RvFnQB501TzXJHmebigXwdvMlNdGI5fGV9C8XI6E-JqRb1ZJZ2WrXQ9CrEKbvBh08nHfCoX4CQerlknH6KTj7t4-wulsJR7ZBNrW6biQdGI6ZgZc9oywpdeDCqfzp19iX9pLmYrKnLIzd-w6hNN3c_b0ukG-EZs6TiSgWsnsg6ar-H0vr4Fed6I_i0DoDD2whz3mL7Ope7P5YG5q60t4UwJEoqJVIQTqIj5TB0hun-8ID9jVssEtpHUbxpc4U-wX__8IkJAjysKTZ7rvtYypxd6B-JA-c0_mMcrH6uNGWyuhpYk6PeUIsKz-lBtu_BwulDhyVLkhcztZnK9zCET_uqoAuTYKTULKQBUSt6m8I__mSetW40]--></g></svg>