<?xml version="1.0" encoding="us-ascii" standalone="no"?><svg xmlns="http://www.w3.org/2000/svg" xmlns:xlink="http://www.w3.org/1999/xlink" contentStyleType="text/css" height="1219px" preserveAspectRatio="none" style="width:2494px;height:1219px;background:#FFFFFF;" version="1.1" viewBox="0 0 2494 1219" width="2494px" zoomAndPan="magnify"><defs/><g><rect fill="#FFFFFF" height="980.3125" style="stroke:#181818;stroke-width:1.0;" width="10" x="215.5" y="121.5332"/><rect fill="#FFFFFF" height="789.2754" style="stroke:#181818;stroke-width:1.0;" width="10" x="412.5" y="281.2793"/><rect fill="#FFFFFF" height="79.873" style="stroke:#181818;stroke-width:1.0;" width="10" x="648.5" y="329.8613"/><rect fill="#FFFFFF" height="158.4551" style="stroke:#181818;stroke-width:1.0;" width="10" x="1717.5" y="880.8086"/><rect fill="#FFFFFF" height="125.873" style="stroke:#181818;stroke-width:1.0;" width="10" x="1985" y="441.0254"/><rect fill="#FFFFFF" height="30" style="stroke:#181818;stroke-width:1.0;" width="10" x="2322" y="498.6074"/><rect fill="none" height="80.582" style="stroke:#000000;stroke-width:1.5;" width="684" x="1804.5" y="456.0254"/><rect fill="none" height="174.7461" style="stroke:#000000;stroke-width:1.5;" width="550.5" x="10" y="644.4805"/><rect fill="none" height="81.873" style="stroke:#000000;stroke-width:1.5;" width="1324.5" x="316" y="927.0996"/><line style="stroke:#181818;stroke-width:0.5;stroke-dasharray:5.0,5.0;" x1="37" x2="37" y1="88.2422" y2="1119.8457"/><line style="stroke:#181818;stroke-width:0.5;stroke-dasharray:5.0,5.0;" x1="220" x2="220" y1="88.2422" y2="1119.8457"/><line style="stroke:#181818;stroke-width:0.5;stroke-dasharray:5.0,5.0;" x1="417" x2="417" y1="88.2422" y2="1119.8457"/><line style="stroke:#181818;stroke-width:0.5;stroke-dasharray:5.0,5.0;" x1="653.5" x2="653.5" y1="88.2422" y2="1119.8457"/><line style="stroke:#181818;stroke-width:0.5;stroke-dasharray:5.0,5.0;" x1="868.5" x2="868.5" y1="88.2422" y2="1119.8457"/><line style="stroke:#181818;stroke-width:0.5;stroke-dasharray:5.0,5.0;" x1="1001.5" x2="1001.5" y1="88.2422" y2="1119.8457"/><line style="stroke:#181818;stroke-width:0.5;stroke-dasharray:5.0,5.0;" x1="1136.5" x2="1136.5" y1="88.2422" y2="1119.8457"/><line style="stroke:#181818;stroke-width:0.5;stroke-dasharray:5.0,5.0;" x1="1271.5" x2="1271.5" y1="88.2422" y2="1119.8457"/><line style="stroke:#181818;stroke-width:0.5;stroke-dasharray:5.0,5.0;" x1="1404.5" x2="1404.5" y1="88.2422" y2="1119.8457"/><line style="stroke:#181818;stroke-width:0.5;stroke-dasharray:5.0,5.0;" x1="1552.5" x2="1552.5" y1="88.2422" y2="1119.8457"/><line style="stroke:#181818;stroke-width:0.5;stroke-dasharray:5.0,5.0;" x1="1722.5" x2="1722.5" y1="88.2422" y2="1119.8457"/><line style="stroke:#181818;stroke-width:0.5;stroke-dasharray:5.0,5.0;" x1="1989.5" x2="1989.5" y1="88.2422" y2="1119.8457"/><line style="stroke:#181818;stroke-width:0.5;stroke-dasharray:5.0,5.0;" x1="2326.5" x2="2326.5" y1="88.2422" y2="1119.8457"/><text fill="#000000" font-family="sans-serif" font-size="14" lengthAdjust="spacing" textLength="29" x="20" y="84.7285">User</text><ellipse cx="37.5" cy="18.1211" fill="#E2E2F0" rx="8" ry="8" style="stroke:#181818;stroke-width:0.5;"/><path d="M37.5,26.1211 L37.5,53.1211 M24.5,34.1211 L50.5,34.1211 M37.5,53.1211 L24.5,68.1211 M37.5,53.1211 L50.5,68.1211 " fill="none" style="stroke:#181818;stroke-width:0.5;"/><text fill="#000000" font-family="sans-serif" font-size="14" lengthAdjust="spacing" textLength="29" x="20" y="1133.9531">User</text><ellipse cx="37.5" cy="1145.9668" fill="#E2E2F0" rx="8" ry="8" style="stroke:#181818;stroke-width:0.5;"/><path d="M37.5,1153.9668 L37.5,1180.9668 M24.5,1161.9668 L50.5,1161.9668 M37.5,1180.9668 L24.5,1195.9668 M37.5,1180.9668 L50.5,1195.9668 " fill="none" style="stroke:#181818;stroke-width:0.5;"/><rect fill="#E2E2F0" height="51.2422" rx="2.5" ry="2.5" style="stroke:#181818;stroke-width:0.5;" width="133" x="154" y="36"/><text fill="#000000" font-family="sans-serif" font-size="14" font-style="italic" lengthAdjust="spacing" textLength="95" x="173" y="58.1074">&#171;presentation&#187;</text><text fill="#000000" font-family="sans-serif" font-size="14" lengthAdjust="spacing" textLength="119" x="161" y="76.7285">ScheduleLectureUI</text><rect fill="#E2E2F0" height="51.2422" rx="2.5" ry="2.5" style="stroke:#181818;stroke-width:0.5;" width="133" x="154" y="1118.8457"/><text fill="#000000" font-family="sans-serif" font-size="14" font-style="italic" lengthAdjust="spacing" textLength="95" x="173" y="1140.9531">&#171;presentation&#187;</text><text fill="#000000" font-family="sans-serif" font-size="14" lengthAdjust="spacing" textLength="119" x="161" y="1159.5742">ScheduleLectureUI</text><rect fill="#E2E2F0" height="51.2422" rx="2.5" ry="2.5" style="stroke:#181818;stroke-width:0.5;" width="183" x="326" y="36"/><text fill="#000000" font-family="sans-serif" font-size="14" font-style="italic" lengthAdjust="spacing" textLength="84" x="375.5" y="58.1074">&#171;application&#187;</text><text fill="#000000" font-family="sans-serif" font-size="14" lengthAdjust="spacing" textLength="169" x="333" y="76.7285">ScheduleLectureController</text><rect fill="#E2E2F0" height="51.2422" rx="2.5" ry="2.5" style="stroke:#181818;stroke-width:0.5;" width="183" x="326" y="1118.8457"/><text fill="#000000" font-family="sans-serif" font-size="14" font-style="italic" lengthAdjust="spacing" textLength="84" x="375.5" y="1140.9531">&#171;application&#187;</text><text fill="#000000" font-family="sans-serif" font-size="14" lengthAdjust="spacing" textLength="169" x="333" y="1159.5742">ScheduleLectureController</text><rect fill="#E2E2F0" height="69.8633" rx="2.5" ry="2.5" style="stroke:#181818;stroke-width:0.5;" width="76" x="615.5" y="17.3789"/><text fill="#000000" font-family="sans-serif" font-size="14" font-style="italic" lengthAdjust="spacing" textLength="62" x="622.5" y="39.4863">&#171;domain&#187;</text><text fill="#000000" font-family="sans-serif" font-size="14" lengthAdjust="spacing" textLength="47" x="630" y="58.1074">lecture:</text><text fill="#000000" font-family="sans-serif" font-size="14" lengthAdjust="spacing" textLength="48" x="629.5" y="76.7285">Lecture</text><rect fill="#E2E2F0" height="69.8633" rx="2.5" ry="2.5" style="stroke:#181818;stroke-width:0.5;" width="76" x="615.5" y="1118.8457"/><text fill="#000000" font-family="sans-serif" font-size="14" font-style="italic" lengthAdjust="spacing" textLength="62" x="622.5" y="1140.9531">&#171;domain&#187;</text><text fill="#000000" font-family="sans-serif" font-size="14" lengthAdjust="spacing" textLength="47" x="630" y="1159.5742">lecture:</text><text fill="#000000" font-family="sans-serif" font-size="14" lengthAdjust="spacing" textLength="48" x="629.5" y="1178.1953">Lecture</text><rect fill="#E2E2F0" height="69.8633" rx="2.5" ry="2.5" style="stroke:#181818;stroke-width:0.5;" width="122" x="807.5" y="17.3789"/><text fill="#000000" font-family="sans-serif" font-size="14" font-style="italic" lengthAdjust="spacing" textLength="62" x="837.5" y="39.4863">&#171;domain&#187;</text><text fill="#000000" font-family="sans-serif" font-size="14" lengthAdjust="spacing" textLength="107" x="815" y="58.1074">recurringPattern:</text><text fill="#000000" font-family="sans-serif" font-size="14" lengthAdjust="spacing" textLength="108" x="814.5" y="76.7285">RecurringPattern</text><rect fill="#E2E2F0" height="69.8633" rx="2.5" ry="2.5" style="stroke:#181818;stroke-width:0.5;" width="122" x="807.5" y="1118.8457"/><text fill="#000000" font-family="sans-serif" font-size="14" font-style="italic" lengthAdjust="spacing" textLength="62" x="837.5" y="1140.9531">&#171;domain&#187;</text><text fill="#000000" font-family="sans-serif" font-size="14" lengthAdjust="spacing" textLength="107" x="815" y="1159.5742">recurringPattern:</text><text fill="#000000" font-family="sans-serif" font-size="14" lengthAdjust="spacing" textLength="108" x="814.5" y="1178.1953">RecurringPattern</text><rect fill="#E2E2F0" height="69.8633" rx="2.5" ry="2.5" style="stroke:#181818;stroke-width:0.5;" width="124" x="939.5" y="17.3789"/><text fill="#000000" font-family="sans-serif" font-size="14" font-style="italic" lengthAdjust="spacing" textLength="62" x="970.5" y="39.4863">&#171;domain&#187;</text><text fill="#000000" font-family="sans-serif" font-size="14" lengthAdjust="spacing" textLength="70" x="966.5" y="58.1074">participant:</text><text fill="#000000" font-family="sans-serif" font-size="14" lengthAdjust="spacing" textLength="110" x="946.5" y="76.7285">lectureParticipant</text><rect fill="#E2E2F0" height="69.8633" rx="2.5" ry="2.5" style="stroke:#181818;stroke-width:0.5;" width="124" x="939.5" y="1118.8457"/><text fill="#000000" font-family="sans-serif" font-size="14" font-style="italic" lengthAdjust="spacing" textLength="62" x="970.5" y="1140.9531">&#171;domain&#187;</text><text fill="#000000" font-family="sans-serif" font-size="14" lengthAdjust="spacing" textLength="70" x="966.5" y="1159.5742">participant:</text><text fill="#000000" font-family="sans-serif" font-size="14" lengthAdjust="spacing" textLength="110" x="946.5" y="1178.1953">lectureParticipant</text><text fill="#000000" font-family="sans-serif" font-size="14" font-style="italic" lengthAdjust="spacing" textLength="79" x="1094.5" y="66.1074">&#171;repository&#187;</text><text fill="#000000" font-family="sans-serif" font-size="14" lengthAdjust="spacing" textLength="121" x="1073.5" y="84.7285">TeacherRepository</text><path d="M1119,15 C1119,5 1137,5 1137,5 C1137,5 1155,5 1155,15 L1155,41 C1155,51 1137,51 1137,51 C1137,51 1119,51 1119,41 L1119,15 " fill="#E2E2F0" style="stroke:#181818;stroke-width:1.5;"/><path d="M1119,15 C1119,25 1137,25 1137,25 C1137,25 1155,25 1155,15 " fill="none" style="stroke:#181818;stroke-width:1.5;"/><text fill="#000000" font-family="sans-serif" font-size="14" font-style="italic" lengthAdjust="spacing" textLength="79" x="1094.5" y="1133.9531">&#171;repository&#187;</text><text fill="#000000" font-family="sans-serif" font-size="14" lengthAdjust="spacing" textLength="121" x="1073.5" y="1152.5742">TeacherRepository</text><path d="M1119,1166.0879 C1119,1156.0879 1137,1156.0879 1137,1156.0879 C1137,1156.0879 1155,1156.0879 1155,1166.0879 L1155,1192.0879 C1155,1202.0879 1137,1202.0879 1137,1202.0879 C1137,1202.0879 1119,1202.0879 1119,1192.0879 L1119,1166.0879 " fill="#E2E2F0" style="stroke:#181818;stroke-width:1.5;"/><path d="M1119,1166.0879 C1119,1176.0879 1137,1176.0879 1137,1176.0879 C1137,1176.0879 1155,1176.0879 1155,1166.0879 " fill="none" style="stroke:#181818;stroke-width:1.5;"/><text fill="#000000" font-family="sans-serif" font-size="14" font-style="italic" lengthAdjust="spacing" textLength="79" x="1229.5" y="66.1074">&#171;repository&#187;</text><text fill="#000000" font-family="sans-serif" font-size="14" lengthAdjust="spacing" textLength="117" x="1210.5" y="84.7285">StudentRepository</text><path d="M1254,15 C1254,5 1272,5 1272,5 C1272,5 1290,5 1290,15 L1290,41 C1290,51 1272,51 1272,51 C1272,51 1254,51 1254,41 L1254,15 " fill="#E2E2F0" style="stroke:#181818;stroke-width:1.5;"/><path d="M1254,15 C1254,25 1272,25 1272,25 C1272,25 1290,25 1290,15 " fill="none" style="stroke:#181818;stroke-width:1.5;"/><text fill="#000000" font-family="sans-serif" font-size="14" font-style="italic" lengthAdjust="spacing" textLength="79" x="1229.5" y="1133.9531">&#171;repository&#187;</text><text fill="#000000" font-family="sans-serif" font-size="14" lengthAdjust="spacing" textLength="117" x="1210.5" y="1152.5742">StudentRepository</text><path d="M1254,1166.0879 C1254,1156.0879 1272,1156.0879 1272,1156.0879 C1272,1156.0879 1290,1156.0879 1290,1166.0879 L1290,1192.0879 C1290,1202.0879 1272,1202.0879 1272,1202.0879 C1272,1202.0879 1254,1202.0879 1254,1192.0879 L1254,1166.0879 " fill="#E2E2F0" style="stroke:#181818;stroke-width:1.5;"/><path d="M1254,1166.0879 C1254,1176.0879 1272,1176.0879 1272,1176.0879 C1272,1176.0879 1290,1176.0879 1290,1166.0879 " fill="none" style="stroke:#181818;stroke-width:1.5;"/><text fill="#000000" font-family="sans-serif" font-size="14" font-style="italic" lengthAdjust="spacing" textLength="79" x="1362" y="66.1074">&#171;repository&#187;</text><text fill="#000000" font-family="sans-serif" font-size="14" lengthAdjust="spacing" textLength="116" x="1343.5" y="84.7285">LectureRepository</text><path d="M1386.5,15 C1386.5,5 1404.5,5 1404.5,5 C1404.5,5 1422.5,5 1422.5,15 L1422.5,41 C1422.5,51 1404.5,51 1404.5,51 C1404.5,51 1386.5,51 1386.5,41 L1386.5,15 " fill="#E2E2F0" style="stroke:#181818;stroke-width:1.5;"/><path d="M1386.5,15 C1386.5,25 1404.5,25 1404.5,25 C1404.5,25 1422.5,25 1422.5,15 " fill="none" style="stroke:#181818;stroke-width:1.5;"/><text fill="#000000" font-family="sans-serif" font-size="14" font-style="italic" lengthAdjust="spacing" textLength="79" x="1362" y="1133.9531">&#171;repository&#187;</text><text fill="#000000" font-family="sans-serif" font-size="14" lengthAdjust="spacing" textLength="116" x="1343.5" y="1152.5742">LectureRepository</text><path d="M1386.5,1166.0879 C1386.5,1156.0879 1404.5,1156.0879 1404.5,1156.0879 C1404.5,1156.0879 1422.5,1156.0879 1422.5,1166.0879 L1422.5,1192.0879 C1422.5,1202.0879 1404.5,1202.0879 1404.5,1202.0879 C1404.5,1202.0879 1386.5,1202.0879 1386.5,1192.0879 L1386.5,1166.0879 " fill="#E2E2F0" style="stroke:#181818;stroke-width:1.5;"/><path d="M1386.5,1166.0879 C1386.5,1176.0879 1404.5,1176.0879 1404.5,1176.0879 C1404.5,1176.0879 1422.5,1176.0879 1422.5,1166.0879 " fill="none" style="stroke:#181818;stroke-width:1.5;"/><text fill="#000000" font-family="sans-serif" font-size="14" font-style="italic" lengthAdjust="spacing" textLength="79" x="1510.5" y="66.1074">&#171;repository&#187;</text><text fill="#000000" font-family="sans-serif" font-size="14" lengthAdjust="spacing" textLength="149" x="1475.5" y="84.7285">LectureParticipantRepo</text><path d="M1535,15 C1535,5 1553,5 1553,5 C1553,5 1571,5 1571,15 L1571,41 C1571,51 1553,51 1553,51 C1553,51 1535,51 1535,41 L1535,15 " fill="#E2E2F0" style="stroke:#181818;stroke-width:1.5;"/><path d="M1535,15 C1535,25 1553,25 1553,25 C1553,25 1571,25 1571,15 " fill="none" style="stroke:#181818;stroke-width:1.5;"/><text fill="#000000" font-family="sans-serif" font-size="14" font-style="italic" lengthAdjust="spacing" textLength="79" x="1510.5" y="1133.9531">&#171;repository&#187;</text><text fill="#000000" font-family="sans-serif" font-size="14" lengthAdjust="spacing" textLength="149" x="1475.5" y="1152.5742">LectureParticipantRepo</text><path d="M1535,1166.0879 C1535,1156.0879 1553,1156.0879 1553,1156.0879 C1553,1156.0879 1571,1156.0879 1571,1166.0879 L1571,1192.0879 C1571,1202.0879 1553,1202.0879 1553,1202.0879 C1553,1202.0879 1535,1202.0879 1535,1192.0879 L1535,1166.0879 " fill="#E2E2F0" style="stroke:#181818;stroke-width:1.5;"/><path d="M1535,1166.0879 C1535,1176.0879 1553,1176.0879 1553,1176.0879 C1553,1176.0879 1571,1176.0879 1571,1166.0879 " fill="none" style="stroke:#181818;stroke-width:1.5;"/><rect fill="#E2E2F0" height="51.2422" rx="2.5" ry="2.5" style="stroke:#181818;stroke-width:0.5;" width="164" x="1640.5" y="36"/><text fill="#000000" font-family="sans-serif" font-size="14" font-style="italic" lengthAdjust="spacing" textLength="84" x="1680.5" y="58.1074">&#171;application&#187;</text><text fill="#000000" font-family="sans-serif" font-size="14" lengthAdjust="spacing" textLength="150" x="1647.5" y="76.7285">CheckAvailabiltyService</text><rect fill="#E2E2F0" height="51.2422" rx="2.5" ry="2.5" style="stroke:#181818;stroke-width:0.5;" width="164" x="1640.5" y="1118.8457"/><text fill="#000000" font-family="sans-serif" font-size="14" font-style="italic" lengthAdjust="spacing" textLength="84" x="1680.5" y="1140.9531">&#171;application&#187;</text><text fill="#000000" font-family="sans-serif" font-size="14" lengthAdjust="spacing" textLength="150" x="1647.5" y="1159.5742">CheckAvailabiltyService</text><rect fill="#E2E2F0" height="51.2422" rx="2.5" ry="2.5" style="stroke:#181818;stroke-width:0.5;" width="351" x="1814.5" y="36"/><text fill="#000000" font-family="sans-serif" font-size="14" font-style="italic" lengthAdjust="spacing" textLength="84" x="1948" y="58.1074">&#171;application&#187;</text><text fill="#000000" font-family="sans-serif" font-size="14" lengthAdjust="spacing" textLength="337" x="1821.5" y="76.7285">StudentUsernameMecanographicNumberDTOMapper</text><rect fill="#E2E2F0" height="51.2422" rx="2.5" ry="2.5" style="stroke:#181818;stroke-width:0.5;" width="351" x="1814.5" y="1118.8457"/><text fill="#000000" font-family="sans-serif" font-size="14" font-style="italic" lengthAdjust="spacing" textLength="84" x="1948" y="1140.9531">&#171;application&#187;</text><text fill="#000000" font-family="sans-serif" font-size="14" lengthAdjust="spacing" textLength="337" x="1821.5" y="1159.5742">StudentUsernameMecanographicNumberDTOMapper</text><rect fill="#E2E2F0" height="51.2422" rx="2.5" ry="2.5" style="stroke:#181818;stroke-width:0.5;" width="303" x="2175.5" y="36"/><text fill="#000000" font-family="sans-serif" font-size="14" font-style="italic" lengthAdjust="spacing" textLength="84" x="2285" y="58.1074">&#171;application&#187;</text><text fill="#000000" font-family="sans-serif" font-size="14" lengthAdjust="spacing" textLength="289" x="2182.5" y="76.7285">StudentUsernameMecanographicNumberDTO</text><rect fill="#E2E2F0" height="51.2422" rx="2.5" ry="2.5" style="stroke:#181818;stroke-width:0.5;" width="303" x="2175.5" y="1118.8457"/><text fill="#000000" font-family="sans-serif" font-size="14" font-style="italic" lengthAdjust="spacing" textLength="84" x="2285" y="1140.9531">&#171;application&#187;</text><text fill="#000000" font-family="sans-serif" font-size="14" lengthAdjust="spacing" textLength="289" x="2182.5" y="1159.5742">StudentUsernameMecanographicNumberDTO</text><rect fill="#FFFFFF" height="980.3125" style="stroke:#181818;stroke-width:1.0;" width="10" x="215.5" y="121.5332"/><rect fill="#FFFFFF" height="789.2754" style="stroke:#181818;stroke-width:1.0;" width="10" x="412.5" y="281.2793"/><rect fill="#FFFFFF" height="79.873" style="stroke:#181818;stroke-width:1.0;" width="10" x="648.5" y="329.8613"/><rect fill="#FFFFFF" height="158.4551" style="stroke:#181818;stroke-width:1.0;" width="10" x="1717.5" y="880.8086"/><rect fill="#FFFFFF" height="125.873" style="stroke:#181818;stroke-width:1.0;" width="10" x="1985" y="441.0254"/><rect fill="#FFFFFF" height="30" style="stroke:#181818;stroke-width:1.0;" width="10" x="2322" y="498.6074"/><polygon fill="#181818" points="203.5,117.5332,213.5,121.5332,203.5,125.5332,207.5,121.5332" style="stroke:#181818;stroke-width:1.0;"/><line style="stroke:#181818;stroke-width:1.0;" x1="37.5" x2="209.5" y1="121.5332" y2="121.5332"/><text fill="#000000" font-family="sans-serif" font-size="13" lengthAdjust="spacing" textLength="79" x="44.5" y="116.2705">create lecture</text><polygon fill="#181818" points="405.5,148.8242,415.5,152.8242,405.5,156.8242,409.5,152.8242" style="stroke:#181818;stroke-width:1.0;"/><line style="stroke:#181818;stroke-width:1.0;" x1="225.5" x2="411.5" y1="152.8242" y2="152.8242"/><text fill="#000000" font-family="sans-serif" font-size="13" lengthAdjust="spacing" textLength="36" x="232.5" y="147.5615">create</text><polygon fill="#181818" points="48.5,180.1152,38.5,184.1152,48.5,188.1152,44.5,184.1152" style="stroke:#181818;stroke-width:1.0;"/><line style="stroke:#181818;stroke-width:1.0;stroke-dasharray:2.0,2.0;" x1="42.5" x2="214.5" y1="184.1152" y2="184.1152"/><text fill="#000000" font-family="sans-serif" font-size="13" lengthAdjust="spacing" textLength="117" x="54.5" y="178.8525">ask user information</text><polygon fill="#181818" points="203.5,228.6973,213.5,232.6973,203.5,236.6973,207.5,232.6973" style="stroke:#181818;stroke-width:1.0;"/><line style="stroke:#181818;stroke-width:1.0;" x1="37.5" x2="209.5" y1="232.6973" y2="232.6973"/><text fill="#000000" font-family="sans-serif" font-size="13" lengthAdjust="spacing" textLength="91" x="44.5" y="210.1436">date, startTime,</text><text fill="#000000" font-family="sans-serif" font-size="13" lengthAdjust="spacing" textLength="46" x="44.5" y="227.4346">duration</text><polygon fill="#181818" points="400.5,277.2793,410.5,281.2793,400.5,285.2793,404.5,281.2793" style="stroke:#181818;stroke-width:1.0;"/><line style="stroke:#181818;stroke-width:1.0;" x1="225.5" x2="406.5" y1="281.2793" y2="281.2793"/><text fill="#000000" font-family="sans-serif" font-size="13" lengthAdjust="spacing" textLength="147" x="232.5" y="258.7256">createLectures(startDate,</text><text fill="#000000" font-family="sans-serif" font-size="13" lengthAdjust="spacing" textLength="168" x="232.5" y="276.0166">endDate, startTime, duration)</text><polygon fill="#181818" points="636.5,325.8613,646.5,329.8613,636.5,333.8613,640.5,329.8613" style="stroke:#181818;stroke-width:1.0;"/><line style="stroke:#181818;stroke-width:1.0;" x1="422.5" x2="642.5" y1="329.8613" y2="329.8613"/><text fill="#000000" font-family="sans-serif" font-size="13" lengthAdjust="spacing" textLength="203" x="429.5" y="307.3076">createLectures(startDate, endDate,</text><text fill="#000000" font-family="sans-serif" font-size="13" lengthAdjust="spacing" textLength="112" x="429.5" y="324.5986">startTime, duration)</text><polygon fill="#181818" points="856.5,374.4434,866.5,378.4434,856.5,382.4434,860.5,378.4434" style="stroke:#181818;stroke-width:1.0;"/><line style="stroke:#181818;stroke-width:1.0;" x1="658.5" x2="862.5" y1="378.4434" y2="378.4434"/><text fill="#000000" font-family="sans-serif" font-size="13" lengthAdjust="spacing" textLength="182" x="665.5" y="355.8896">buildPattern(startDate,endDate,</text><text fill="#000000" font-family="sans-serif" font-size="13" lengthAdjust="spacing" textLength="112" x="665.5" y="373.1807">startTime, duration)</text><polygon fill="#181818" points="433.5,405.7344,423.5,409.7344,433.5,413.7344,429.5,409.7344" style="stroke:#181818;stroke-width:1.0;"/><line style="stroke:#181818;stroke-width:1.0;stroke-dasharray:2.0,2.0;" x1="427.5" x2="652.5" y1="409.7344" y2="409.7344"/><text fill="#000000" font-family="sans-serif" font-size="13" lengthAdjust="spacing" textLength="39" x="439.5" y="404.4717">lecture</text><polygon fill="#181818" points="1973,437.0254,1983,441.0254,1973,445.0254,1977,441.0254" style="stroke:#181818;stroke-width:1.0;"/><line style="stroke:#181818;stroke-width:1.0;stroke-dasharray:2.0,2.0;" x1="422.5" x2="1979" y1="441.0254" y2="441.0254"/><text fill="#000000" font-family="sans-serif" font-size="13" lengthAdjust="spacing" textLength="89" x="429.5" y="435.7627">toDto(students)</text><path d="M1804.5,456.0254 L1877.5,456.0254 L1877.5,465.3164 L1867.5,475.3164 L1804.5,475.3164 L1804.5,456.0254 " fill="#EEEEEE" style="stroke:#000000;stroke-width:1.5;"/><rect fill="none" height="80.582" style="stroke:#000000;stroke-width:1.5;" width="684" x="1804.5" y="456.0254"/><text fill="#000000" font-family="sans-serif" font-size="13" font-weight="bold" lengthAdjust="spacing" textLength="28" x="1819.5" y="471.0537">loop</text><text fill="#000000" font-family="sans-serif" font-size="11" font-weight="bold" lengthAdjust="spacing" textLength="131" x="1892.5" y="469.8955">[for each user in users]</text><polygon fill="#181818" points="2310,494.6074,2320,498.6074,2310,502.6074,2314,498.6074" style="stroke:#181818;stroke-width:1.0;"/><line style="stroke:#181818;stroke-width:1.0;stroke-dasharray:2.0,2.0;" x1="1995" x2="2316" y1="498.6074" y2="498.6074"/><text fill="#000000" font-family="sans-serif" font-size="13" lengthAdjust="spacing" textLength="94" x="2002" y="493.3447">create(students)</text><polygon fill="#181818" points="433.5,562.8984,423.5,566.8984,433.5,570.8984,429.5,566.8984" style="stroke:#181818;stroke-width:1.0;"/><line style="stroke:#181818;stroke-width:1.0;stroke-dasharray:2.0,2.0;" x1="427.5" x2="1989" y1="566.8984" y2="566.8984"/><text fill="#000000" font-family="sans-serif" font-size="13" lengthAdjust="spacing" textLength="70" x="439.5" y="561.6357">studentsDto</text><polygon fill="#181818" points="236.5,594.1895,226.5,598.1895,236.5,602.1895,232.5,598.1895" style="stroke:#181818;stroke-width:1.0;"/><line style="stroke:#181818;stroke-width:1.0;stroke-dasharray:2.0,2.0;" x1="230.5" x2="411.5" y1="598.1895" y2="598.1895"/><text fill="#000000" font-family="sans-serif" font-size="13" lengthAdjust="spacing" textLength="70" x="242.5" y="592.9268">studentsDto</text><polygon fill="#181818" points="48.5,625.4805,38.5,629.4805,48.5,633.4805,44.5,629.4805" style="stroke:#181818;stroke-width:1.0;"/><line style="stroke:#181818;stroke-width:1.0;stroke-dasharray:2.0,2.0;" x1="42.5" x2="214.5" y1="629.4805" y2="629.4805"/><text fill="#000000" font-family="sans-serif" font-size="13" lengthAdjust="spacing" textLength="50" x="54.5" y="624.2178">students</text><path d="M10,644.4805 L83,644.4805 L83,653.7715 L73,663.7715 L10,663.7715 L10,644.4805 " fill="#EEEEEE" style="stroke:#000000;stroke-width:1.5;"/><rect fill="none" height="174.7461" style="stroke:#000000;stroke-width:1.5;" width="550.5" x="10" y="644.4805"/><text fill="#000000" font-family="sans-serif" font-size="13" font-weight="bold" lengthAdjust="spacing" textLength="28" x="25" y="659.5088">loop</text><a href="invite==true" target="_top" title="invite==true" xlink:actuate="onRequest" xlink:href="invite==true" xlink:show="new" xlink:title="invite==true" xlink:type="simple"><text fill="#0000FF" font-family="sans-serif" font-size="11" font-weight="bold" lengthAdjust="spacing" text-decoration="underline" textLength="65" x="98" y="658.3506">invite==true</text></a><polygon fill="#181818" points="203.5,683.0625,213.5,687.0625,203.5,691.0625,207.5,687.0625" style="stroke:#181818;stroke-width:1.0;"/><line style="stroke:#181818;stroke-width:1.0;" x1="37.5" x2="209.5" y1="687.0625" y2="687.0625"/><text fill="#000000" font-family="sans-serif" font-size="13" lengthAdjust="spacing" textLength="50" x="44.5" y="681.7998">students</text><polygon fill="#181818" points="400.5,714.3535,410.5,718.3535,400.5,722.3535,404.5,718.3535" style="stroke:#181818;stroke-width:1.0;"/><line style="stroke:#181818;stroke-width:1.0;" x1="225.5" x2="406.5" y1="718.3535" y2="718.3535"/><text fill="#000000" font-family="sans-serif" font-size="13" lengthAdjust="spacing" textLength="139" x="232.5" y="713.0908">inviteStudents(students)</text><line style="stroke:#181818;stroke-width:1.0;" x1="422.5" x2="464.5" y1="754.6445" y2="754.6445"/><line style="stroke:#181818;stroke-width:1.0;" x1="464.5" x2="464.5" y1="754.6445" y2="767.6445"/><line style="stroke:#181818;stroke-width:1.0;" x1="417.5" x2="464.5" y1="767.6445" y2="767.6445"/><polygon fill="#181818" points="427.5,763.6445,417.5,767.6445,427.5,771.6445,423.5,767.6445" style="stroke:#181818;stroke-width:1.0;"/><text fill="#000000" font-family="sans-serif" font-size="13" lengthAdjust="spacing" textLength="119" x="429.5" y="749.3818">addInvited(students);</text><polygon fill="#181818" points="48.5,807.2266,38.5,811.2266,48.5,815.2266,44.5,811.2266" style="stroke:#181818;stroke-width:1.0;"/><line style="stroke:#181818;stroke-width:1.0;stroke-dasharray:2.0,2.0;" x1="42.5" x2="214.5" y1="811.2266" y2="811.2266"/><text fill="#000000" font-family="sans-serif" font-size="13" lengthAdjust="spacing" textLength="102" x="54.5" y="788.6729">asks if it wants to</text><text fill="#000000" font-family="sans-serif" font-size="13" lengthAdjust="spacing" textLength="123" x="54.5" y="805.9639">add a new participant</text><polygon fill="#181818" points="400.5,845.5176,410.5,849.5176,400.5,853.5176,404.5,849.5176" style="stroke:#181818;stroke-width:1.0;"/><line style="stroke:#181818;stroke-width:1.0;" x1="225.5" x2="406.5" y1="849.5176" y2="849.5176"/><text fill="#000000" font-family="sans-serif" font-size="13" lengthAdjust="spacing" textLength="60" x="232.5" y="844.2549">schedule()</text><polygon fill="#181818" points="1705.5,876.8086,1715.5,880.8086,1705.5,884.8086,1709.5,880.8086" style="stroke:#181818;stroke-width:1.0;"/><line style="stroke:#181818;stroke-width:1.0;" x1="422.5" x2="1711.5" y1="880.8086" y2="880.8086"/><text fill="#000000" font-family="sans-serif" font-size="13" lengthAdjust="spacing" textLength="243" x="429.5" y="875.5459">checkAvailability(teacher,recurringPattern)</text><polygon fill="#181818" points="433.5,908.0996,423.5,912.0996,433.5,916.0996,429.5,912.0996" style="stroke:#181818;stroke-width:1.0;"/><line style="stroke:#181818;stroke-width:1.0;stroke-dasharray:2.0,2.0;" x1="427.5" x2="1716.5" y1="912.0996" y2="912.0996"/><text fill="#000000" font-family="sans-serif" font-size="13" lengthAdjust="spacing" textLength="103" x="439.5" y="906.8369">returns availability</text><path d="M316,927.0996 L389,927.0996 L389,936.3906 L379,946.3906 L316,946.3906 L316,927.0996 " fill="#EEEEEE" style="stroke:#000000;stroke-width:1.5;"/><rect fill="none" height="81.873" style="stroke:#000000;stroke-width:1.5;" width="1324.5" x="316" y="927.0996"/><text fill="#000000" font-family="sans-serif" font-size="13" font-weight="bold" lengthAdjust="spacing" textLength="28" x="331" y="942.1279">loop</text><text fill="#000000" font-family="sans-serif" font-size="11" font-weight="bold" lengthAdjust="spacing" textLength="139" x="404" y="940.9697">[for each invited student]</text><polygon fill="#181818" points="989.5,965.6816,999.5,969.6816,989.5,973.6816,993.5,969.6816" style="stroke:#181818;stroke-width:1.0;"/><line style="stroke:#181818;stroke-width:1.0;stroke-dasharray:2.0,2.0;" x1="422.5" x2="995.5" y1="969.6816" y2="969.6816"/><text fill="#000000" font-family="sans-serif" font-size="13" lengthAdjust="spacing" textLength="192" x="429.5" y="964.4189">createParticipant(student,lecture)</text><polygon fill="#181818" points="1541,996.9727,1551,1000.9727,1541,1004.9727,1545,1000.9727" style="stroke:#181818;stroke-width:1.0;"/><line style="stroke:#181818;stroke-width:1.0;stroke-dasharray:2.0,2.0;" x1="422.5" x2="1547" y1="1000.9727" y2="1000.9727"/><text fill="#000000" font-family="sans-serif" font-size="13" lengthAdjust="spacing" textLength="94" x="429.5" y="995.71">save(participant)</text><polygon fill="#181818" points="1710.5,1035.2637,1720.5,1039.2637,1710.5,1043.2637,1714.5,1039.2637" style="stroke:#181818;stroke-width:1.0;"/><line style="stroke:#181818;stroke-width:1.0;" x1="422.5" x2="1716.5" y1="1039.2637" y2="1039.2637"/><text fill="#000000" font-family="sans-serif" font-size="13" lengthAdjust="spacing" textLength="192" x="429.5" y="1034.001">schedule(invited,recurringPattern)</text><polygon fill="#181818" points="236.5,1066.5547,226.5,1070.5547,236.5,1074.5547,232.5,1070.5547" style="stroke:#181818;stroke-width:1.0;"/><line style="stroke:#181818;stroke-width:1.0;stroke-dasharray:2.0,2.0;" x1="230.5" x2="416.5" y1="1070.5547" y2="1070.5547"/><text fill="#000000" font-family="sans-serif" font-size="13" lengthAdjust="spacing" textLength="39" x="242.5" y="1065.292">lecture</text><polygon fill="#181818" points="48.5,1097.8457,38.5,1101.8457,48.5,1105.8457,44.5,1101.8457" style="stroke:#181818;stroke-width:1.0;"/><line style="stroke:#181818;stroke-width:1.0;stroke-dasharray:2.0,2.0;" x1="42.5" x2="219.5" y1="1101.8457" y2="1101.8457"/><text fill="#000000" font-family="sans-serif" font-size="13" lengthAdjust="spacing" textLength="154" x="54.5" y="1096.583">display Schedule Success</text><!--SRC=[bPPFJzim5C3l_XGMfoA1D62JjguW8Nf16XkYSA8xkF63Matjo7QA-kttdDY9dSQToA6Dd_r-ptx_7BCHicAQRMd5YWrxXuNTbq0r59QORiwi6LSVGhxJDrOQ88GLLcdwOa1JPkYj6n5SQaKXAYOjNHHhu7K9lv1JQtYvTylmTpQhD1YGbbcXvCqDLPeZu-AOyfsILgkoR6r5ezcCLLKfYfHrcR1EoXOoNKgFEt4KBqK4LricUkshL1lzK6kD1tzareAMY7aQY1gUVp_aVKrvqG1HVXUFlJ3UN2G-v7uZd5csOWReCp1qc7w2IXc1WTWxXks5gAoxkGxmlGSiRCqn92d0zCB_0hndKq3P2yS1Fmu0qOaRDQHK0z4ewU9BukMxDHIRsnqJ9Lk9qkuNe7UYW2PJdJICn_FdOf2ChHzSgaksXGSec5JlcbLhKVokjolGy-S_3mXgqzE_PT2NdqSxgFlB4Ay8QQgFdj-u-fhIGWEp4Bpl2bNidE3bdb1yS0skZ8eeQ91ccaEdqAzfPbehi_FprWmp6rgxyXVoJUbjiwjeNTWDHXZEC9VmrCzYYwzBoMlThyvknsU4cJIwymQpb23vV4WClDC6cDj-U29JQ3YqWMDMEvjBcRKQdivwS3yTFC4WsWujOqfNjIYv7qQMFsCuxeeOelvSOnk9WZms7Ri8z-apUagjcbiryNt1fFPBfIgAYK1Tsmc9qVoRSGUrr6JE6t8sNSA7c6GiTYHSItB7StFn5BhqcDkwemQJUE0SUkG0xdv3IfBDETAWdCAozYIDDr-5t0aBrzTMr_1tH3dKMASxsCkmi5gURpecuzQqFX9znlbzW-2zxi_UzOTPvHesoJGFGyKR5PP-O2F4sqfXaYEVCYhX8sxw98GjrowC_rYOdBPBqWCa_HupAhaPXDrF_3rvDhpe1zqavf2nr1aOqe0Ea8Qoo1OvB9Gs93o4y5WP7duKX0A9H24mPtxrwJ7Yu6f5Lx8TJ2BfyTxMH3SkggEUxyBaZvnnU9H4YSj9hhxY1ZP-UGroZmjJbMpVVMJIHLqKO0o9jF6k_0S0]--></g></svg>