<?xml version="1.0" encoding="us-ascii" standalone="no"?><svg xmlns="http://www.w3.org/2000/svg" xmlns:xlink="http://www.w3.org/1999/xlink" contentStyleType="text/css" height="890px" preserveAspectRatio="none" style="width:1807px;height:890px;background:#FFFFFF;" version="1.1" viewBox="0 0 1807 890" width="1807px" zoomAndPan="magnify"><defs/><g><rect fill="#FFFFFF" height="651.6934" style="stroke:#181818;stroke-width:1.0;" width="10" x="212.5" y="121.5332"/><rect fill="#FFFFFF" height="380.7832" style="stroke:#181818;stroke-width:1.0;" width="10" x="409.5" y="361.1523"/><rect fill="#FFFFFF" height="79.873" style="stroke:#181818;stroke-width:1.0;" width="10" x="645.5" y="409.7344"/><rect fill="none" height="50.582" style="stroke:#000000;stroke-width:1.5;" width="1324.5" x="313" y="598.4805"/><line style="stroke:#181818;stroke-width:0.5;stroke-dasharray:5.0,5.0;" x1="34" x2="34" y1="88.2422" y2="791.2266"/><line style="stroke:#181818;stroke-width:0.5;stroke-dasharray:5.0,5.0;" x1="217" x2="217" y1="88.2422" y2="791.2266"/><line style="stroke:#181818;stroke-width:0.5;stroke-dasharray:5.0,5.0;" x1="414" x2="414" y1="88.2422" y2="791.2266"/><line style="stroke:#181818;stroke-width:0.5;stroke-dasharray:5.0,5.0;" x1="650.5" x2="650.5" y1="88.2422" y2="791.2266"/><line style="stroke:#181818;stroke-width:0.5;stroke-dasharray:5.0,5.0;" x1="865.5" x2="865.5" y1="88.2422" y2="791.2266"/><line style="stroke:#181818;stroke-width:0.5;stroke-dasharray:5.0,5.0;" x1="998.5" x2="998.5" y1="88.2422" y2="791.2266"/><line style="stroke:#181818;stroke-width:0.5;stroke-dasharray:5.0,5.0;" x1="1133.5" x2="1133.5" y1="88.2422" y2="791.2266"/><line style="stroke:#181818;stroke-width:0.5;stroke-dasharray:5.0,5.0;" x1="1268.5" x2="1268.5" y1="88.2422" y2="791.2266"/><line style="stroke:#181818;stroke-width:0.5;stroke-dasharray:5.0,5.0;" x1="1401.5" x2="1401.5" y1="88.2422" y2="791.2266"/><line style="stroke:#181818;stroke-width:0.5;stroke-dasharray:5.0,5.0;" x1="1549.5" x2="1549.5" y1="88.2422" y2="791.2266"/><line style="stroke:#181818;stroke-width:0.5;stroke-dasharray:5.0,5.0;" x1="1719.5" x2="1719.5" y1="88.2422" y2="791.2266"/><text fill="#000000" font-family="sans-serif" font-size="14" lengthAdjust="spacing" textLength="53" x="5" y="84.7285">Teacher</text><ellipse cx="34.5" cy="18.1211" fill="#E2E2F0" rx="8" ry="8" style="stroke:#181818;stroke-width:0.5;"/><path d="M34.5,26.1211 L34.5,53.1211 M21.5,34.1211 L47.5,34.1211 M34.5,53.1211 L21.5,68.1211 M34.5,53.1211 L47.5,68.1211 " fill="none" style="stroke:#181818;stroke-width:0.5;"/><text fill="#000000" font-family="sans-serif" font-size="14" lengthAdjust="spacing" textLength="53" x="5" y="805.334">Teacher</text><ellipse cx="34.5" cy="817.3477" fill="#E2E2F0" rx="8" ry="8" style="stroke:#181818;stroke-width:0.5;"/><path d="M34.5,825.3477 L34.5,852.3477 M21.5,833.3477 L47.5,833.3477 M34.5,852.3477 L21.5,867.3477 M34.5,852.3477 L47.5,867.3477 " fill="none" style="stroke:#181818;stroke-width:0.5;"/><rect fill="#E2E2F0" height="51.2422" rx="2.5" ry="2.5" style="stroke:#181818;stroke-width:0.5;" width="133" x="151" y="36"/><text fill="#000000" font-family="sans-serif" font-size="14" font-style="italic" lengthAdjust="spacing" textLength="95" x="170" y="58.1074">&#171;presentation&#187;</text><text fill="#000000" font-family="sans-serif" font-size="14" lengthAdjust="spacing" textLength="119" x="158" y="76.7285">ScheduleLectureUI</text><rect fill="#E2E2F0" height="51.2422" rx="2.5" ry="2.5" style="stroke:#181818;stroke-width:0.5;" width="133" x="151" y="790.2266"/><text fill="#000000" font-family="sans-serif" font-size="14" font-style="italic" lengthAdjust="spacing" textLength="95" x="170" y="812.334">&#171;presentation&#187;</text><text fill="#000000" font-family="sans-serif" font-size="14" lengthAdjust="spacing" textLength="119" x="158" y="830.9551">ScheduleLectureUI</text><rect fill="#E2E2F0" height="51.2422" rx="2.5" ry="2.5" style="stroke:#181818;stroke-width:0.5;" width="183" x="323" y="36"/><text fill="#000000" font-family="sans-serif" font-size="14" font-style="italic" lengthAdjust="spacing" textLength="84" x="372.5" y="58.1074">&#171;application&#187;</text><text fill="#000000" font-family="sans-serif" font-size="14" lengthAdjust="spacing" textLength="169" x="330" y="76.7285">ScheduleLectureController</text><rect fill="#E2E2F0" height="51.2422" rx="2.5" ry="2.5" style="stroke:#181818;stroke-width:0.5;" width="183" x="323" y="790.2266"/><text fill="#000000" font-family="sans-serif" font-size="14" font-style="italic" lengthAdjust="spacing" textLength="84" x="372.5" y="812.334">&#171;application&#187;</text><text fill="#000000" font-family="sans-serif" font-size="14" lengthAdjust="spacing" textLength="169" x="330" y="830.9551">ScheduleLectureController</text><rect fill="#E2E2F0" height="69.8633" rx="2.5" ry="2.5" style="stroke:#181818;stroke-width:0.5;" width="76" x="612.5" y="17.3789"/><text fill="#000000" font-family="sans-serif" font-size="14" font-style="italic" lengthAdjust="spacing" textLength="62" x="619.5" y="39.4863">&#171;domain&#187;</text><text fill="#000000" font-family="sans-serif" font-size="14" lengthAdjust="spacing" textLength="47" x="627" y="58.1074">lecture:</text><text fill="#000000" font-family="sans-serif" font-size="14" lengthAdjust="spacing" textLength="48" x="626.5" y="76.7285">Lecture</text><rect fill="#E2E2F0" height="69.8633" rx="2.5" ry="2.5" style="stroke:#181818;stroke-width:0.5;" width="76" x="612.5" y="790.2266"/><text fill="#000000" font-family="sans-serif" font-size="14" font-style="italic" lengthAdjust="spacing" textLength="62" x="619.5" y="812.334">&#171;domain&#187;</text><text fill="#000000" font-family="sans-serif" font-size="14" lengthAdjust="spacing" textLength="47" x="627" y="830.9551">lecture:</text><text fill="#000000" font-family="sans-serif" font-size="14" lengthAdjust="spacing" textLength="48" x="626.5" y="849.5762">Lecture</text><rect fill="#E2E2F0" height="69.8633" rx="2.5" ry="2.5" style="stroke:#181818;stroke-width:0.5;" width="122" x="804.5" y="17.3789"/><text fill="#000000" font-family="sans-serif" font-size="14" font-style="italic" lengthAdjust="spacing" textLength="62" x="834.5" y="39.4863">&#171;domain&#187;</text><text fill="#000000" font-family="sans-serif" font-size="14" lengthAdjust="spacing" textLength="107" x="812" y="58.1074">recurringPattern:</text><text fill="#000000" font-family="sans-serif" font-size="14" lengthAdjust="spacing" textLength="108" x="811.5" y="76.7285">RecurringPattern</text><rect fill="#E2E2F0" height="69.8633" rx="2.5" ry="2.5" style="stroke:#181818;stroke-width:0.5;" width="122" x="804.5" y="790.2266"/><text fill="#000000" font-family="sans-serif" font-size="14" font-style="italic" lengthAdjust="spacing" textLength="62" x="834.5" y="812.334">&#171;domain&#187;</text><text fill="#000000" font-family="sans-serif" font-size="14" lengthAdjust="spacing" textLength="107" x="812" y="830.9551">recurringPattern:</text><text fill="#000000" font-family="sans-serif" font-size="14" lengthAdjust="spacing" textLength="108" x="811.5" y="849.5762">RecurringPattern</text><rect fill="#E2E2F0" height="69.8633" rx="2.5" ry="2.5" style="stroke:#181818;stroke-width:0.5;" width="124" x="936.5" y="17.3789"/><text fill="#000000" font-family="sans-serif" font-size="14" font-style="italic" lengthAdjust="spacing" textLength="62" x="967.5" y="39.4863">&#171;domain&#187;</text><text fill="#000000" font-family="sans-serif" font-size="14" lengthAdjust="spacing" textLength="70" x="963.5" y="58.1074">participant:</text><text fill="#000000" font-family="sans-serif" font-size="14" lengthAdjust="spacing" textLength="110" x="943.5" y="76.7285">lectureParticipant</text><rect fill="#E2E2F0" height="69.8633" rx="2.5" ry="2.5" style="stroke:#181818;stroke-width:0.5;" width="124" x="936.5" y="790.2266"/><text fill="#000000" font-family="sans-serif" font-size="14" font-style="italic" lengthAdjust="spacing" textLength="62" x="967.5" y="812.334">&#171;domain&#187;</text><text fill="#000000" font-family="sans-serif" font-size="14" lengthAdjust="spacing" textLength="70" x="963.5" y="830.9551">participant:</text><text fill="#000000" font-family="sans-serif" font-size="14" lengthAdjust="spacing" textLength="110" x="943.5" y="849.5762">lectureParticipant</text><text fill="#000000" font-family="sans-serif" font-size="14" font-style="italic" lengthAdjust="spacing" textLength="79" x="1091.5" y="66.1074">&#171;repository&#187;</text><text fill="#000000" font-family="sans-serif" font-size="14" lengthAdjust="spacing" textLength="121" x="1070.5" y="84.7285">TeacherRepository</text><path d="M1116,15 C1116,5 1134,5 1134,5 C1134,5 1152,5 1152,15 L1152,41 C1152,51 1134,51 1134,51 C1134,51 1116,51 1116,41 L1116,15 " fill="#E2E2F0" style="stroke:#181818;stroke-width:1.5;"/><path d="M1116,15 C1116,25 1134,25 1134,25 C1134,25 1152,25 1152,15 " fill="none" style="stroke:#181818;stroke-width:1.5;"/><text fill="#000000" font-family="sans-serif" font-size="14" font-style="italic" lengthAdjust="spacing" textLength="79" x="1091.5" y="805.334">&#171;repository&#187;</text><text fill="#000000" font-family="sans-serif" font-size="14" lengthAdjust="spacing" textLength="121" x="1070.5" y="823.9551">TeacherRepository</text><path d="M1116,837.4688 C1116,827.4688 1134,827.4688 1134,827.4688 C1134,827.4688 1152,827.4688 1152,837.4688 L1152,863.4688 C1152,873.4688 1134,873.4688 1134,873.4688 C1134,873.4688 1116,873.4688 1116,863.4688 L1116,837.4688 " fill="#E2E2F0" style="stroke:#181818;stroke-width:1.5;"/><path d="M1116,837.4688 C1116,847.4688 1134,847.4688 1134,847.4688 C1134,847.4688 1152,847.4688 1152,837.4688 " fill="none" style="stroke:#181818;stroke-width:1.5;"/><text fill="#000000" font-family="sans-serif" font-size="14" font-style="italic" lengthAdjust="spacing" textLength="79" x="1226.5" y="66.1074">&#171;repository&#187;</text><text fill="#000000" font-family="sans-serif" font-size="14" lengthAdjust="spacing" textLength="117" x="1207.5" y="84.7285">StudentRepository</text><path d="M1251,15 C1251,5 1269,5 1269,5 C1269,5 1287,5 1287,15 L1287,41 C1287,51 1269,51 1269,51 C1269,51 1251,51 1251,41 L1251,15 " fill="#E2E2F0" style="stroke:#181818;stroke-width:1.5;"/><path d="M1251,15 C1251,25 1269,25 1269,25 C1269,25 1287,25 1287,15 " fill="none" style="stroke:#181818;stroke-width:1.5;"/><text fill="#000000" font-family="sans-serif" font-size="14" font-style="italic" lengthAdjust="spacing" textLength="79" x="1226.5" y="805.334">&#171;repository&#187;</text><text fill="#000000" font-family="sans-serif" font-size="14" lengthAdjust="spacing" textLength="117" x="1207.5" y="823.9551">StudentRepository</text><path d="M1251,837.4688 C1251,827.4688 1269,827.4688 1269,827.4688 C1269,827.4688 1287,827.4688 1287,837.4688 L1287,863.4688 C1287,873.4688 1269,873.4688 1269,873.4688 C1269,873.4688 1251,873.4688 1251,863.4688 L1251,837.4688 " fill="#E2E2F0" style="stroke:#181818;stroke-width:1.5;"/><path d="M1251,837.4688 C1251,847.4688 1269,847.4688 1269,847.4688 C1269,847.4688 1287,847.4688 1287,837.4688 " fill="none" style="stroke:#181818;stroke-width:1.5;"/><text fill="#000000" font-family="sans-serif" font-size="14" font-style="italic" lengthAdjust="spacing" textLength="79" x="1359" y="66.1074">&#171;repository&#187;</text><text fill="#000000" font-family="sans-serif" font-size="14" lengthAdjust="spacing" textLength="116" x="1340.5" y="84.7285">LectureRepository</text><path d="M1383.5,15 C1383.5,5 1401.5,5 1401.5,5 C1401.5,5 1419.5,5 1419.5,15 L1419.5,41 C1419.5,51 1401.5,51 1401.5,51 C1401.5,51 1383.5,51 1383.5,41 L1383.5,15 " fill="#E2E2F0" style="stroke:#181818;stroke-width:1.5;"/><path d="M1383.5,15 C1383.5,25 1401.5,25 1401.5,25 C1401.5,25 1419.5,25 1419.5,15 " fill="none" style="stroke:#181818;stroke-width:1.5;"/><text fill="#000000" font-family="sans-serif" font-size="14" font-style="italic" lengthAdjust="spacing" textLength="79" x="1359" y="805.334">&#171;repository&#187;</text><text fill="#000000" font-family="sans-serif" font-size="14" lengthAdjust="spacing" textLength="116" x="1340.5" y="823.9551">LectureRepository</text><path d="M1383.5,837.4688 C1383.5,827.4688 1401.5,827.4688 1401.5,827.4688 C1401.5,827.4688 1419.5,827.4688 1419.5,837.4688 L1419.5,863.4688 C1419.5,873.4688 1401.5,873.4688 1401.5,873.4688 C1401.5,873.4688 1383.5,873.4688 1383.5,863.4688 L1383.5,837.4688 " fill="#E2E2F0" style="stroke:#181818;stroke-width:1.5;"/><path d="M1383.5,837.4688 C1383.5,847.4688 1401.5,847.4688 1401.5,847.4688 C1401.5,847.4688 1419.5,847.4688 1419.5,837.4688 " fill="none" style="stroke:#181818;stroke-width:1.5;"/><text fill="#000000" font-family="sans-serif" font-size="14" font-style="italic" lengthAdjust="spacing" textLength="79" x="1507.5" y="66.1074">&#171;repository&#187;</text><text fill="#000000" font-family="sans-serif" font-size="14" lengthAdjust="spacing" textLength="149" x="1472.5" y="84.7285">LectureParticipantRepo</text><path d="M1532,15 C1532,5 1550,5 1550,5 C1550,5 1568,5 1568,15 L1568,41 C1568,51 1550,51 1550,51 C1550,51 1532,51 1532,41 L1532,15 " fill="#E2E2F0" style="stroke:#181818;stroke-width:1.5;"/><path d="M1532,15 C1532,25 1550,25 1550,25 C1550,25 1568,25 1568,15 " fill="none" style="stroke:#181818;stroke-width:1.5;"/><text fill="#000000" font-family="sans-serif" font-size="14" font-style="italic" lengthAdjust="spacing" textLength="79" x="1507.5" y="805.334">&#171;repository&#187;</text><text fill="#000000" font-family="sans-serif" font-size="14" lengthAdjust="spacing" textLength="149" x="1472.5" y="823.9551">LectureParticipantRepo</text><path d="M1532,837.4688 C1532,827.4688 1550,827.4688 1550,827.4688 C1550,827.4688 1568,827.4688 1568,837.4688 L1568,863.4688 C1568,873.4688 1550,873.4688 1550,873.4688 C1550,873.4688 1532,873.4688 1532,863.4688 L1532,837.4688 " fill="#E2E2F0" style="stroke:#181818;stroke-width:1.5;"/><path d="M1532,837.4688 C1532,847.4688 1550,847.4688 1550,847.4688 C1550,847.4688 1568,847.4688 1568,837.4688 " fill="none" style="stroke:#181818;stroke-width:1.5;"/><rect fill="#E2E2F0" height="51.2422" rx="2.5" ry="2.5" style="stroke:#181818;stroke-width:0.5;" width="164" x="1637.5" y="36"/><text fill="#000000" font-family="sans-serif" font-size="14" font-style="italic" lengthAdjust="spacing" textLength="84" x="1677.5" y="58.1074">&#171;application&#187;</text><text fill="#000000" font-family="sans-serif" font-size="14" lengthAdjust="spacing" textLength="150" x="1644.5" y="76.7285">CheckAvailabiltyService</text><rect fill="#E2E2F0" height="51.2422" rx="2.5" ry="2.5" style="stroke:#181818;stroke-width:0.5;" width="164" x="1637.5" y="790.2266"/><text fill="#000000" font-family="sans-serif" font-size="14" font-style="italic" lengthAdjust="spacing" textLength="84" x="1677.5" y="812.334">&#171;application&#187;</text><text fill="#000000" font-family="sans-serif" font-size="14" lengthAdjust="spacing" textLength="150" x="1644.5" y="830.9551">CheckAvailabiltyService</text><rect fill="#FFFFFF" height="651.6934" style="stroke:#181818;stroke-width:1.0;" width="10" x="212.5" y="121.5332"/><rect fill="#FFFFFF" height="380.7832" style="stroke:#181818;stroke-width:1.0;" width="10" x="409.5" y="361.1523"/><rect fill="#FFFFFF" height="79.873" style="stroke:#181818;stroke-width:1.0;" width="10" x="645.5" y="409.7344"/><polygon fill="#181818" points="200.5,117.5332,210.5,121.5332,200.5,125.5332,204.5,121.5332" style="stroke:#181818;stroke-width:1.0;"/><line style="stroke:#181818;stroke-width:1.0;" x1="34.5" x2="206.5" y1="121.5332" y2="121.5332"/><text fill="#000000" font-family="sans-serif" font-size="13" lengthAdjust="spacing" textLength="79" x="41.5" y="116.2705">create lecture</text><polygon fill="#181818" points="402.5,148.8242,412.5,152.8242,402.5,156.8242,406.5,152.8242" style="stroke:#181818;stroke-width:1.0;"/><line style="stroke:#181818;stroke-width:1.0;" x1="222.5" x2="408.5" y1="152.8242" y2="152.8242"/><text fill="#000000" font-family="sans-serif" font-size="13" lengthAdjust="spacing" textLength="85" x="229.5" y="147.5615">choose course</text><polygon fill="#181818" points="45.5,197.4063,35.5,201.4063,45.5,205.4063,41.5,201.4063" style="stroke:#181818;stroke-width:1.0;"/><line style="stroke:#181818;stroke-width:1.0;stroke-dasharray:2.0,2.0;" x1="39.5" x2="211.5" y1="201.4063" y2="201.4063"/><text fill="#000000" font-family="sans-serif" font-size="13" lengthAdjust="spacing" textLength="130" x="51.5" y="178.8525">show courses teaches</text><text fill="#000000" font-family="sans-serif" font-size="13" lengthAdjust="spacing" textLength="61" x="55.5" y="196.1436">by teacher</text><polygon fill="#181818" points="402.5,228.6973,412.5,232.6973,402.5,236.6973,406.5,232.6973" style="stroke:#181818;stroke-width:1.0;"/><line style="stroke:#181818;stroke-width:1.0;" x1="222.5" x2="408.5" y1="232.6973" y2="232.6973"/><text fill="#000000" font-family="sans-serif" font-size="13" lengthAdjust="spacing" textLength="36" x="229.5" y="227.4346">create</text><polygon fill="#181818" points="45.5,259.9883,35.5,263.9883,45.5,267.9883,41.5,263.9883" style="stroke:#181818;stroke-width:1.0;"/><line style="stroke:#181818;stroke-width:1.0;stroke-dasharray:2.0,2.0;" x1="39.5" x2="211.5" y1="263.9883" y2="263.9883"/><text fill="#000000" font-family="sans-serif" font-size="13" lengthAdjust="spacing" textLength="117" x="51.5" y="258.7256">ask user information</text><polygon fill="#181818" points="200.5,308.5703,210.5,312.5703,200.5,316.5703,204.5,312.5703" style="stroke:#181818;stroke-width:1.0;"/><line style="stroke:#181818;stroke-width:1.0;" x1="34.5" x2="206.5" y1="312.5703" y2="312.5703"/><text fill="#000000" font-family="sans-serif" font-size="13" lengthAdjust="spacing" textLength="113" x="41.5" y="290.0166">startDate, endDate,</text><text fill="#000000" font-family="sans-serif" font-size="13" lengthAdjust="spacing" textLength="108" x="45.5" y="307.3076">startTime, duration</text><polygon fill="#181818" points="397.5,357.1523,407.5,361.1523,397.5,365.1523,401.5,361.1523" style="stroke:#181818;stroke-width:1.0;"/><line style="stroke:#181818;stroke-width:1.0;" x1="222.5" x2="403.5" y1="361.1523" y2="361.1523"/><text fill="#000000" font-family="sans-serif" font-size="13" lengthAdjust="spacing" textLength="147" x="229.5" y="338.5986">createLectures(startDate,</text><text fill="#000000" font-family="sans-serif" font-size="13" lengthAdjust="spacing" textLength="168" x="229.5" y="355.8896">endDate, startTime, duration)</text><polygon fill="#181818" points="633.5,405.7344,643.5,409.7344,633.5,413.7344,637.5,409.7344" style="stroke:#181818;stroke-width:1.0;"/><line style="stroke:#181818;stroke-width:1.0;" x1="419.5" x2="639.5" y1="409.7344" y2="409.7344"/><text fill="#000000" font-family="sans-serif" font-size="13" lengthAdjust="spacing" textLength="203" x="426.5" y="387.1807">createLectures(startDate, endDate,</text><text fill="#000000" font-family="sans-serif" font-size="13" lengthAdjust="spacing" textLength="112" x="426.5" y="404.4717">startTime, duration)</text><polygon fill="#181818" points="853.5,454.3164,863.5,458.3164,853.5,462.3164,857.5,458.3164" style="stroke:#181818;stroke-width:1.0;"/><line style="stroke:#181818;stroke-width:1.0;" x1="655.5" x2="859.5" y1="458.3164" y2="458.3164"/><text fill="#000000" font-family="sans-serif" font-size="13" lengthAdjust="spacing" textLength="182" x="662.5" y="435.7627">buildPattern(startDate,endDate,</text><text fill="#000000" font-family="sans-serif" font-size="13" lengthAdjust="spacing" textLength="112" x="662.5" y="453.0537">startTime, duration)</text><polygon fill="#181818" points="430.5,485.6074,420.5,489.6074,430.5,493.6074,426.5,489.6074" style="stroke:#181818;stroke-width:1.0;"/><line style="stroke:#181818;stroke-width:1.0;stroke-dasharray:2.0,2.0;" x1="424.5" x2="649.5" y1="489.6074" y2="489.6074"/><text fill="#000000" font-family="sans-serif" font-size="13" lengthAdjust="spacing" textLength="39" x="436.5" y="484.3447">lecture</text><polygon fill="#181818" points="233.5,516.8984,223.5,520.8984,233.5,524.8984,229.5,520.8984" style="stroke:#181818;stroke-width:1.0;"/><line style="stroke:#181818;stroke-width:1.0;stroke-dasharray:2.0,2.0;" x1="227.5" x2="408.5" y1="520.8984" y2="520.8984"/><text fill="#000000" font-family="sans-serif" font-size="13" lengthAdjust="spacing" textLength="120" x="239.5" y="515.6357">success of operation</text><polygon fill="#181818" points="397.5,548.1895,407.5,552.1895,397.5,556.1895,401.5,552.1895" style="stroke:#181818;stroke-width:1.0;"/><line style="stroke:#181818;stroke-width:1.0;" x1="222.5" x2="403.5" y1="552.1895" y2="552.1895"/><text fill="#000000" font-family="sans-serif" font-size="13" lengthAdjust="spacing" textLength="101" x="229.5" y="546.9268">schedule(enrolled</text><polygon fill="#181818" points="1707.5,579.4805,1717.5,583.4805,1707.5,587.4805,1711.5,583.4805" style="stroke:#181818;stroke-width:1.0;"/><line style="stroke:#181818;stroke-width:1.0;" x1="419.5" x2="1713.5" y1="583.4805" y2="583.4805"/><text fill="#000000" font-family="sans-serif" font-size="13" lengthAdjust="spacing" textLength="290" x="426.5" y="578.2178">checkAvailabilityByUser(teacher, recurringPattern)</text><path d="M313,598.4805 L386,598.4805 L386,607.7715 L376,617.7715 L313,617.7715 L313,598.4805 " fill="#EEEEEE" style="stroke:#000000;stroke-width:1.5;"/><rect fill="none" height="50.582" style="stroke:#000000;stroke-width:1.5;" width="1324.5" x="313" y="598.4805"/><text fill="#000000" font-family="sans-serif" font-size="13" font-weight="bold" lengthAdjust="spacing" textLength="28" x="328" y="613.5088">loop</text><text fill="#000000" font-family="sans-serif" font-size="11" font-weight="bold" lengthAdjust="spacing" textLength="210" x="401" y="612.3506">[for each students enrolled in course]</text><polygon fill="#181818" points="1538,637.0625,1548,641.0625,1538,645.0625,1542,641.0625" style="stroke:#181818;stroke-width:1.0;"/><line style="stroke:#181818;stroke-width:1.0;" x1="419.5" x2="1544" y1="641.0625" y2="641.0625"/><text fill="#000000" font-family="sans-serif" font-size="13" lengthAdjust="spacing" textLength="192" x="426.5" y="635.7998">createParticipant(student,lecture)</text><polygon fill="#181818" points="45.5,675.3535,35.5,679.3535,45.5,683.3535,41.5,679.3535" style="stroke:#181818;stroke-width:1.0;"/><line style="stroke:#181818;stroke-width:1.0;stroke-dasharray:2.0,2.0;" x1="39.5" x2="211.5" y1="679.3535" y2="679.3535"/><text fill="#000000" font-family="sans-serif" font-size="13" lengthAdjust="spacing" textLength="50" x="51.5" y="674.0908">students</text><polygon fill="#181818" points="1707.5,706.6445,1717.5,710.6445,1707.5,714.6445,1711.5,710.6445" style="stroke:#181818;stroke-width:1.0;"/><line style="stroke:#181818;stroke-width:1.0;" x1="419.5" x2="1713.5" y1="710.6445" y2="710.6445"/><text fill="#000000" font-family="sans-serif" font-size="13" lengthAdjust="spacing" textLength="199" x="426.5" y="705.3818">schedule(present,recurringPattern)</text><polygon fill="#181818" points="233.5,737.9355,223.5,741.9355,233.5,745.9355,229.5,741.9355" style="stroke:#181818;stroke-width:1.0;"/><line style="stroke:#181818;stroke-width:1.0;stroke-dasharray:2.0,2.0;" x1="227.5" x2="413.5" y1="741.9355" y2="741.9355"/><text fill="#000000" font-family="sans-serif" font-size="13" lengthAdjust="spacing" textLength="39" x="239.5" y="736.6729">lecture</text><polygon fill="#181818" points="45.5,769.2266,35.5,773.2266,45.5,777.2266,41.5,773.2266" style="stroke:#181818;stroke-width:1.0;"/><line style="stroke:#181818;stroke-width:1.0;stroke-dasharray:2.0,2.0;" x1="39.5" x2="216.5" y1="773.2266" y2="773.2266"/><text fill="#000000" font-family="sans-serif" font-size="13" lengthAdjust="spacing" textLength="154" x="51.5" y="767.9639">display Schedule Success</text><!--SRC=[bPNDRo8X5C3l_1KlFTd49kj-9Bl6c7IxboPxQ6gzUK70IaIO06Cp__q-HfY1SRHP3aOUx_tU9umxI5rHIuzGKNQWxsBb6oN02kQ9wyxSddBp8VKxxAXoWX3AlB7m9YZR2mlKmMCG4DJsaicAQWyhFEAr4dyHLLknVWvg-BjOL5OueJtrqkZb4epbo9ZTCduosbkZrDbNjbiiQ5KfoKhMru9rfywG-KP7t5sWH2aYk3bIsLj_Awsn5BMrcFiBzLvOZPZNWQZbnV-NlEybBziWAaRnqWlpu3Bn9VS7uTJJBNKYDU9LLCP9R4GJ6BuNeh7jpZh0pnwmyZN7bfG0rmi_1SJAbW3L2yS1lou0MSQj6LAgWMYKDFjILFbfBzZXyKIbebkfVBCIzYIPQ2SrIDD-V7vcCq98Ez7mi0mpEmTc1VKYPHJcNvw2OFrC01Vge6Osc6YnDmRpOgQsU6E2qfcuU7Wu8ztUVCJZr2otqR1jKkUkajjOI7lCHHTAhpFcZRe3r0xjfTuPUsmJplHIdivZ5VyWRWf2y_OFnjHAt-GHfRoslUtLu68ttIJZRNGYZl7kM-2rPDBANA7ZT8LlUUryRlHLhsbrtbEROR2IG_IThliSjhLKF6upp__ZE7_Hi65zNcE1P2rFnrThrBMrPamu1sO7fX9P1zCQwQIBR_14w5R6RtIYk5HXzlFh9ttpkrdZx4tYO4zX-AYMvL36L81J2a4zFKCEKXmumlcrkXxLyEL8Sv8zCfD8dyPItfEocDZ5KZ2yn36uQ7QpAbr1umTmEbw5hByvWAGR5tmNZSg7PFmz60JDfQiKRRglBApEuq4oQtpO_W40]--></g></svg>