<?xml version="1.0" encoding="us-ascii" standalone="no"?><svg xmlns="http://www.w3.org/2000/svg" xmlns:xlink="http://www.w3.org/1999/xlink" contentStyleType="text/css" height="738.5px" preserveAspectRatio="none" style="width:1063px;height:738px;background:#FFFFFF;" version="1.1" viewBox="0 0 1063 738" width="1063.3px" zoomAndPan="magnify"><defs/><g><rect fill="#FFFFFF" height="564.9232" style="stroke:#181818;stroke-width:0.6999999999999998;" width="7" x="116.55" y="97.177"/><rect fill="#FFFFFF" height="77.8148" style="stroke:#181818;stroke-width:0.6999999999999998;" width="7" x="289.45" y="119.0807"/><rect fill="#FFFFFF" height="151.5186" style="stroke:#181818;stroke-width:0.6999999999999998;" width="7" x="289.45" y="271.2104"/><rect fill="#FFFFFF" height="151.5186" style="stroke:#181818;stroke-width:0.6999999999999998;" width="7" x="289.45" y="478.1779"/><rect fill="#FFFFFF" height="85.8074" style="stroke:#181818;stroke-width:0.6999999999999998;" width="7" x="474.6" y="336.9215"/><rect fill="#FFFFFF" height="85.8074" style="stroke:#181818;stroke-width:0.6999999999999998;" width="7" x="474.6" y="543.8891"/><rect fill="#FFFFFF" height="21.9037" style="stroke:#181818;stroke-width:0.6999999999999998;" width="7" x="636.3" y="140.9844"/><rect fill="#FFFFFF" height="21" style="stroke:#181818;stroke-width:0.6999999999999998;" width="7" x="867.3" y="358.8252"/><rect fill="#FFFFFF" height="21" style="stroke:#181818;stroke-width:0.6999999999999998;" width="7" x="867.3" y="565.7928"/><rect fill="#FFFFFF" height="21.9037" style="stroke:#181818;stroke-width:0.6999999999999998;" width="7" x="984.2" y="293.1141"/><rect fill="#FFFFFF" height="21" style="stroke:#181818;stroke-width:0.6999999999999998;" width="7" x="984.2" y="401.7289"/><rect fill="#FFFFFF" height="21.9037" style="stroke:#181818;stroke-width:0.6999999999999998;" width="7" x="984.2" y="500.0816"/><rect fill="#FFFFFF" height="21" style="stroke:#181818;stroke-width:0.6999999999999998;" width="7" x="984.2" y="608.6965"/><rect fill="none" height="415.7973" style="stroke:#000000;stroke-width:1.0499999999999998;" width="1051.75" x="7" y="241.4029"/><line style="stroke:#181818;stroke-width:0.3499999999999999;stroke-dasharray:5.0,5.0;" x1="25.9" x2="25.9" y1="61.7695" y2="669.1002"/><line style="stroke:#181818;stroke-width:0.3499999999999999;stroke-dasharray:5.0,5.0;" x1="120.05" x2="120.05" y1="61.7695" y2="669.1002"/><line style="stroke:#181818;stroke-width:0.3499999999999999;stroke-dasharray:5.0,5.0;" x1="292.95" x2="292.95" y1="61.7695" y2="669.1002"/><line style="stroke:#181818;stroke-width:0.3499999999999999;stroke-dasharray:5.0,5.0;" x1="477.75" x2="477.75" y1="61.7695" y2="669.1002"/><line style="stroke:#181818;stroke-width:0.3499999999999999;stroke-dasharray:5.0,5.0;" x1="639.45" x2="639.45" y1="61.7695" y2="669.1002"/><line style="stroke:#181818;stroke-width:0.3499999999999999;stroke-dasharray:5.0,5.0;" x1="766.15" x2="766.15" y1="61.7695" y2="669.1002"/><line style="stroke:#181818;stroke-width:0.3499999999999999;stroke-dasharray:5.0,5.0;" x1="870.45" x2="870.45" y1="61.7695" y2="669.1002"/><line style="stroke:#181818;stroke-width:0.3499999999999999;stroke-dasharray:5.0,5.0;" x1="987.35" x2="987.35" y1="61.7695" y2="669.1002"/><text fill="#000000" font-family="sans-serif" font-size="9.8" lengthAdjust="spacing" textLength="20.3" x="14" y="59.31">User</text><ellipse cx="26.25" cy="12.6848" fill="#E2E2F0" rx="5.6" ry="5.6" style="stroke:#181818;stroke-width:0.3499999999999999;"/><path d="M26.25,18.2848 L26.25,37.1848 M17.15,23.8848 L35.35,23.8848 M26.25,37.1848 L17.15,47.6848 M26.25,37.1848 L35.35,47.6848 " fill="none" style="stroke:#181818;stroke-width:0.3499999999999999;"/><text fill="#000000" font-family="sans-serif" font-size="9.8" lengthAdjust="spacing" textLength="20.3" x="14" y="678.9754">User</text><ellipse cx="26.25" cy="687.385" fill="#E2E2F0" rx="5.6" ry="5.6" style="stroke:#181818;stroke-width:0.3499999999999999;"/><path d="M26.25,692.985 L26.25,711.885 M17.15,698.585 L35.35,698.585 M26.25,711.885 L17.15,722.385 M26.25,711.885 L35.35,722.385 " fill="none" style="stroke:#181818;stroke-width:0.3499999999999999;"/><rect fill="#E2E2F0" height="35.8695" rx="1.75" ry="1.75" style="stroke:#181818;stroke-width:0.3499999999999999;" width="148.4" x="45.85" y="25.2"/><text fill="#000000" font-family="sans-serif" font-size="9.8" font-style="italic" lengthAdjust="spacing" textLength="66.5" x="86.8" y="40.6752">&#171;presentation&#187;</text><text fill="#000000" font-family="sans-serif" font-size="9.8" lengthAdjust="spacing" textLength="138.6" x="50.75" y="53.71">AcceptRejectMeetingRequestUI</text><rect fill="#E2E2F0" height="35.8695" rx="1.75" ry="1.75" style="stroke:#181818;stroke-width:0.3499999999999999;" width="148.4" x="45.85" y="668.4002"/><text fill="#000000" font-family="sans-serif" font-size="9.8" font-style="italic" lengthAdjust="spacing" textLength="66.5" x="86.8" y="683.8754">&#171;presentation&#187;</text><text fill="#000000" font-family="sans-serif" font-size="9.8" lengthAdjust="spacing" textLength="138.6" x="50.75" y="696.9102">AcceptRejectMeetingRequestUI</text><rect fill="#E2E2F0" height="35.8695" rx="1.75" ry="1.75" style="stroke:#181818;stroke-width:0.3499999999999999;" width="183.4" x="201.25" y="25.2"/><text fill="#000000" font-family="sans-serif" font-size="9.8" font-style="italic" lengthAdjust="spacing" textLength="58.8" x="263.55" y="40.6752">&#171;application&#187;</text><text fill="#000000" font-family="sans-serif" font-size="9.8" lengthAdjust="spacing" textLength="173.6" x="206.15" y="53.71">AcceptRejectMeetingRequestController</text><rect fill="#E2E2F0" height="35.8695" rx="1.75" ry="1.75" style="stroke:#181818;stroke-width:0.3499999999999999;" width="183.4" x="201.25" y="668.4002"/><text fill="#000000" font-family="sans-serif" font-size="9.8" font-style="italic" lengthAdjust="spacing" textLength="58.8" x="263.55" y="683.8754">&#171;application&#187;</text><text fill="#000000" font-family="sans-serif" font-size="9.8" lengthAdjust="spacing" textLength="173.6" x="206.15" y="696.9102">AcceptRejectMeetingRequestController</text><rect fill="#E2E2F0" height="35.8695" rx="1.75" ry="1.75" style="stroke:#181818;stroke-width:0.3499999999999999;" width="172.9" x="391.65" y="25.2"/><text fill="#000000" font-family="sans-serif" font-size="9.8" font-style="italic" lengthAdjust="spacing" textLength="58.8" x="448.7" y="40.6752">&#171;application&#187;</text><text fill="#000000" font-family="sans-serif" font-size="9.8" lengthAdjust="spacing" textLength="163.1" x="396.55" y="53.71">AcceptRejectMeetingRequestService</text><rect fill="#E2E2F0" height="35.8695" rx="1.75" ry="1.75" style="stroke:#181818;stroke-width:0.3499999999999999;" width="172.9" x="391.65" y="668.4002"/><text fill="#000000" font-family="sans-serif" font-size="9.8" font-style="italic" lengthAdjust="spacing" textLength="58.8" x="448.7" y="683.8754">&#171;application&#187;</text><text fill="#000000" font-family="sans-serif" font-size="9.8" lengthAdjust="spacing" textLength="163.1" x="396.55" y="696.9102">AcceptRejectMeetingRequestService</text><rect fill="#E2E2F0" height="35.8695" rx="1.75" ry="1.75" style="stroke:#181818;stroke-width:0.3499999999999999;" width="136.5" x="571.55" y="25.2"/><text fill="#000000" font-family="sans-serif" font-size="9.8" font-style="italic" lengthAdjust="spacing" textLength="55.3" x="612.15" y="40.6752">&#171;repository&#187;</text><text fill="#000000" font-family="sans-serif" font-size="9.8" lengthAdjust="spacing" textLength="126.7" x="576.45" y="53.71">MeetingRequestDTOMapper</text><rect fill="#E2E2F0" height="35.8695" rx="1.75" ry="1.75" style="stroke:#181818;stroke-width:0.3499999999999999;" width="136.5" x="571.55" y="668.4002"/><text fill="#000000" font-family="sans-serif" font-size="9.8" font-style="italic" lengthAdjust="spacing" textLength="55.3" x="612.15" y="683.8754">&#171;repository&#187;</text><text fill="#000000" font-family="sans-serif" font-size="9.8" lengthAdjust="spacing" textLength="126.7" x="576.45" y="696.9102">MeetingRequestDTOMapper</text><rect fill="#E2E2F0" height="35.8695" rx="1.75" ry="1.75" style="stroke:#181818;stroke-width:0.3499999999999999;" width="102.9" x="715.05" y="25.2"/><text fill="#000000" font-family="sans-serif" font-size="9.8" font-style="italic" lengthAdjust="spacing" textLength="55.3" x="738.85" y="40.6752">&#171;repository&#187;</text><text fill="#000000" font-family="sans-serif" font-size="9.8" lengthAdjust="spacing" textLength="93.1" x="719.95" y="53.71">MeetingRequestDTO</text><rect fill="#E2E2F0" height="35.8695" rx="1.75" ry="1.75" style="stroke:#181818;stroke-width:0.3499999999999999;" width="102.9" x="715.05" y="668.4002"/><text fill="#000000" font-family="sans-serif" font-size="9.8" font-style="italic" lengthAdjust="spacing" textLength="55.3" x="738.85" y="683.8754">&#171;repository&#187;</text><text fill="#000000" font-family="sans-serif" font-size="9.8" lengthAdjust="spacing" textLength="93.1" x="719.95" y="696.9102">MeetingRequestDTO</text><rect fill="#E2E2F0" height="35.8695" rx="1.75" ry="1.75" style="stroke:#181818;stroke-width:0.3499999999999999;" width="91.7" x="824.95" y="25.2"/><text fill="#000000" font-family="sans-serif" font-size="9.8" font-style="italic" lengthAdjust="spacing" textLength="43.4" x="849.1" y="40.6752">&#171;domain&#187;</text><text fill="#000000" font-family="sans-serif" font-size="9.8" lengthAdjust="spacing" textLength="81.9" x="829.85" y="53.71">MeetingParticipant</text><rect fill="#E2E2F0" height="35.8695" rx="1.75" ry="1.75" style="stroke:#181818;stroke-width:0.3499999999999999;" width="91.7" x="824.95" y="668.4002"/><text fill="#000000" font-family="sans-serif" font-size="9.8" font-style="italic" lengthAdjust="spacing" textLength="43.4" x="849.1" y="683.8754">&#171;domain&#187;</text><text fill="#000000" font-family="sans-serif" font-size="9.8" lengthAdjust="spacing" textLength="81.9" x="829.85" y="696.9102">MeetingParticipant</text><text fill="#000000" font-family="sans-serif" font-size="9.8" font-style="italic" lengthAdjust="spacing" textLength="55.3" x="957.95" y="46.2752">&#171;repository&#187;</text><text fill="#000000" font-family="sans-serif" font-size="9.8" lengthAdjust="spacing" textLength="123.9" x="923.65" y="59.31">MeetingParticipantRepositry</text><path d="M975.1,10.5 C975.1,3.5 987.7,3.5 987.7,3.5 C987.7,3.5 1000.3,3.5 1000.3,10.5 L1000.3,28.7 C1000.3,35.7 987.7,35.7 987.7,35.7 C987.7,35.7 975.1,35.7 975.1,28.7 L975.1,10.5 " fill="#E2E2F0" style="stroke:#181818;stroke-width:1.0499999999999998;"/><path d="M975.1,10.5 C975.1,17.5 987.7,17.5 987.7,17.5 C987.7,17.5 1000.3,17.5 1000.3,10.5 " fill="none" style="stroke:#181818;stroke-width:1.0499999999999998;"/><text fill="#000000" font-family="sans-serif" font-size="9.8" font-style="italic" lengthAdjust="spacing" textLength="55.3" x="957.95" y="678.9754">&#171;repository&#187;</text><text fill="#000000" font-family="sans-serif" font-size="9.8" lengthAdjust="spacing" textLength="123.9" x="923.65" y="692.0102">MeetingParticipantRepositry</text><path d="M975.1,701.4697 C975.1,694.4697 987.7,694.4697 987.7,694.4697 C987.7,694.4697 1000.3,694.4697 1000.3,701.4697 L1000.3,719.6697 C1000.3,726.6697 987.7,726.6697 987.7,726.6697 C987.7,726.6697 975.1,726.6697 975.1,719.6697 L975.1,701.4697 " fill="#E2E2F0" style="stroke:#181818;stroke-width:1.0499999999999998;"/><path d="M975.1,701.4697 C975.1,708.4697 987.7,708.4697 987.7,708.4697 C987.7,708.4697 1000.3,708.4697 1000.3,701.4697 " fill="none" style="stroke:#181818;stroke-width:1.0499999999999998;"/><rect fill="#FFFFFF" height="564.9232" style="stroke:#181818;stroke-width:0.6999999999999998;" width="7" x="116.55" y="97.177"/><rect fill="#FFFFFF" height="77.8148" style="stroke:#181818;stroke-width:0.6999999999999998;" width="7" x="289.45" y="119.0807"/><rect fill="#FFFFFF" height="151.5186" style="stroke:#181818;stroke-width:0.6999999999999998;" width="7" x="289.45" y="271.2104"/><rect fill="#FFFFFF" height="151.5186" style="stroke:#181818;stroke-width:0.6999999999999998;" width="7" x="289.45" y="478.1779"/><rect fill="#FFFFFF" height="85.8074" style="stroke:#181818;stroke-width:0.6999999999999998;" width="7" x="474.6" y="336.9215"/><rect fill="#FFFFFF" height="85.8074" style="stroke:#181818;stroke-width:0.6999999999999998;" width="7" x="474.6" y="543.8891"/><rect fill="#FFFFFF" height="21.9037" style="stroke:#181818;stroke-width:0.6999999999999998;" width="7" x="636.3" y="140.9844"/><rect fill="#FFFFFF" height="21" style="stroke:#181818;stroke-width:0.6999999999999998;" width="7" x="867.3" y="358.8252"/><rect fill="#FFFFFF" height="21" style="stroke:#181818;stroke-width:0.6999999999999998;" width="7" x="867.3" y="565.7928"/><rect fill="#FFFFFF" height="21.9037" style="stroke:#181818;stroke-width:0.6999999999999998;" width="7" x="984.2" y="293.1141"/><rect fill="#FFFFFF" height="21" style="stroke:#181818;stroke-width:0.6999999999999998;" width="7" x="984.2" y="401.7289"/><rect fill="#FFFFFF" height="21.9037" style="stroke:#181818;stroke-width:0.6999999999999998;" width="7" x="984.2" y="500.0816"/><rect fill="#FFFFFF" height="21" style="stroke:#181818;stroke-width:0.6999999999999998;" width="7" x="984.2" y="608.6965"/><polygon fill="#181818" points="108.15,94.377,115.15,97.177,108.15,99.977,110.95,97.177" style="stroke:#181818;stroke-width:0.6999999999999998;"/><line style="stroke:#181818;stroke-width:0.6999999999999998;" x1="26.25" x2="112.35" y1="97.177" y2="97.177"/><text fill="#000000" font-family="sans-serif" font-size="9.1" lengthAdjust="spacing" textLength="57.4" x="31.15" y="81.3894">Accept/Reject</text><text fill="#000000" font-family="sans-serif" font-size="9.1" lengthAdjust="spacing" textLength="68.6" x="31.15" y="93.4931">Meeting Request</text><polygon fill="#181818" points="281.05,116.2807,288.05,119.0807,281.05,121.8807,283.85,119.0807" style="stroke:#181818;stroke-width:0.6999999999999998;"/><line style="stroke:#181818;stroke-width:0.6999999999999998;" x1="123.55" x2="285.25" y1="119.0807" y2="119.0807"/><text fill="#000000" font-family="sans-serif" font-size="9.1" lengthAdjust="spacing" textLength="30.8" x="128.45" y="115.3968">create()</text><polygon fill="#181818" points="627.9,138.1844,634.9,140.9844,627.9,143.7844,630.7,140.9844" style="stroke:#181818;stroke-width:0.6999999999999998;"/><line style="stroke:#181818;stroke-width:0.6999999999999998;" x1="296.45" x2="632.1" y1="140.9844" y2="140.9844"/><text fill="#000000" font-family="sans-serif" font-size="9.1" lengthAdjust="spacing" textLength="88.9" x="301.35" y="137.3005">showInvitedMeetings()</text><polygon fill="#181818" points="758.1,160.0881,765.1,162.8881,758.1,165.6881,760.9,162.8881" style="stroke:#181818;stroke-width:0.6999999999999998;"/><line style="stroke:#181818;stroke-width:0.6999999999999998;" x1="639.8" x2="762.3" y1="162.8881" y2="162.8881"/><text fill="#000000" font-family="sans-serif" font-size="9.1" lengthAdjust="spacing" textLength="68.6" x="644.7" y="159.2042">toDTO(meetings)</text><polygon fill="#181818" points="33.95,194.0955,26.95,196.8955,33.95,199.6955,31.15,196.8955" style="stroke:#181818;stroke-width:0.6999999999999998;"/><line style="stroke:#181818;stroke-width:0.6999999999999998;stroke-dasharray:2.0,2.0;" x1="29.75" x2="115.85" y1="196.8955" y2="196.8955"/><text fill="#000000" font-family="sans-serif" font-size="9.1" lengthAdjust="spacing" textLength="49" x="38.15" y="181.1079">show Invited</text><text fill="#000000" font-family="sans-serif" font-size="9.1" lengthAdjust="spacing" textLength="73.5" x="38.15" y="193.2116">Meeting Requests</text><polygon fill="#181818" points="108.15,228.1029,115.15,230.9029,108.15,233.7029,110.95,230.9029" style="stroke:#181818;stroke-width:0.6999999999999998;"/><line style="stroke:#181818;stroke-width:0.6999999999999998;" x1="26.25" x2="112.35" y1="230.9029" y2="230.9029"/><text fill="#000000" font-family="sans-serif" font-size="9.1" lengthAdjust="spacing" textLength="24.5" x="31.15" y="215.1153">select</text><text fill="#000000" font-family="sans-serif" font-size="9.1" lengthAdjust="spacing" textLength="68.6" x="31.15" y="227.219">Meeting Request</text><path d="M7,241.4029 L49.7,241.4029 L49.7,247.9066 L42.7,254.9066 L7,254.9066 L7,241.4029 " fill="#EEEEEE" style="stroke:#000000;stroke-width:1.0499999999999998;"/><rect fill="none" height="415.7973" style="stroke:#000000;stroke-width:1.0499999999999998;" width="1051.75" x="7" y="241.4029"/><text fill="#000000" font-family="sans-serif" font-size="9.1" font-weight="bold" lengthAdjust="spacing" textLength="11.2" x="17.5" y="251.9228">alt</text><text fill="#000000" font-family="sans-serif" font-size="7.7" font-weight="bold" lengthAdjust="spacing" textLength="32.2" x="60.2" y="251.112">[Accept]</text><polygon fill="#181818" points="281.05,268.4104,288.05,271.2104,281.05,274.0104,283.85,271.2104" style="stroke:#181818;stroke-width:0.6999999999999998;"/><line style="stroke:#181818;stroke-width:0.6999999999999998;" x1="123.55" x2="285.25" y1="271.2104" y2="271.2104"/><text fill="#000000" font-family="sans-serif" font-size="9.1" lengthAdjust="spacing" textLength="65.1" x="128.45" y="267.5265">accept(meeting)</text><polygon fill="#181818" points="975.8,290.3141,982.8,293.1141,975.8,295.9141,978.6,293.1141" style="stroke:#181818;stroke-width:0.6999999999999998;"/><line style="stroke:#181818;stroke-width:0.6999999999999998;" x1="296.45" x2="980" y1="293.1141" y2="293.1141"/><text fill="#000000" font-family="sans-serif" font-size="9.1" lengthAdjust="spacing" textLength="228.9" x="301.35" y="289.4302">findMeetingParticipantByUserAndMeeting(user, meeting)</text><polygon fill="#181818" points="304.15,312.2178,297.15,315.0178,304.15,317.8178,301.35,315.0178" style="stroke:#181818;stroke-width:0.6999999999999998;"/><line style="stroke:#181818;stroke-width:0.6999999999999998;stroke-dasharray:2.0,2.0;" x1="299.95" x2="987" y1="315.0178" y2="315.0178"/><text fill="#000000" font-family="sans-serif" font-size="9.1" lengthAdjust="spacing" textLength="42" x="308.35" y="311.3339">participant</text><polygon fill="#181818" points="466.2,334.1215,473.2,336.9215,466.2,339.7215,469,336.9215" style="stroke:#181818;stroke-width:0.6999999999999998;"/><line style="stroke:#181818;stroke-width:0.6999999999999998;" x1="296.45" x2="470.4" y1="336.9215" y2="336.9215"/><text fill="#000000" font-family="sans-serif" font-size="9.1" lengthAdjust="spacing" textLength="143.5" x="301.35" y="333.2376">acceptMeetingRequest (participant)</text><polygon fill="#181818" points="858.9,356.0252,865.9,358.8252,858.9,361.6252,861.7,358.8252" style="stroke:#181818;stroke-width:0.6999999999999998;"/><line style="stroke:#181818;stroke-width:0.6999999999999998;" x1="481.6" x2="863.1" y1="358.8252" y2="358.8252"/><text fill="#000000" font-family="sans-serif" font-size="9.1" lengthAdjust="spacing" textLength="32.9" x="486.5" y="355.1413">accept()</text><polygon fill="#181818" points="975.8,398.9289,982.8,401.7289,975.8,404.5289,978.6,401.7289" style="stroke:#181818;stroke-width:0.6999999999999998;"/><line style="stroke:#181818;stroke-width:0.6999999999999998;" x1="481.6" x2="980" y1="401.7289" y2="401.7289"/><text fill="#000000" font-family="sans-serif" font-size="9.1" lengthAdjust="spacing" textLength="99.4" x="486.5" y="398.045">save(meetingParticipant)</text><polygon fill="#181818" points="33.95,441.8326,26.95,444.6326,33.95,447.4326,31.15,444.6326" style="stroke:#181818;stroke-width:0.6999999999999998;"/><line style="stroke:#181818;stroke-width:0.6999999999999998;stroke-dasharray:2.0,2.0;" x1="29.75" x2="115.85" y1="444.6326" y2="444.6326"/><text fill="#000000" font-family="sans-serif" font-size="9.1" lengthAdjust="spacing" textLength="58.1" x="38.15" y="440.9487">show success</text><line style="stroke:#000000;stroke-width:0.6999999999999998;stroke-dasharray:2.0,2.0;" x1="7" x2="1058.75" y1="450.9326" y2="450.9326"/><text fill="#000000" font-family="sans-serif" font-size="7.7" font-weight="bold" lengthAdjust="spacing" textLength="29.4" x="10.5" y="459.2417">[Reject]</text><polygon fill="#181818" points="281.05,475.3779,288.05,478.1779,281.05,480.9779,283.85,478.1779" style="stroke:#181818;stroke-width:0.6999999999999998;"/><line style="stroke:#181818;stroke-width:0.6999999999999998;" x1="123.55" x2="285.25" y1="478.1779" y2="478.1779"/><text fill="#000000" font-family="sans-serif" font-size="9.1" lengthAdjust="spacing" textLength="57.4" x="128.45" y="474.494">deny(meeting)</text><polygon fill="#181818" points="975.8,497.2816,982.8,500.0816,975.8,502.8816,978.6,500.0816" style="stroke:#181818;stroke-width:0.6999999999999998;"/><line style="stroke:#181818;stroke-width:0.6999999999999998;" x1="296.45" x2="980" y1="500.0816" y2="500.0816"/><text fill="#000000" font-family="sans-serif" font-size="9.1" lengthAdjust="spacing" textLength="228.9" x="301.35" y="496.3978">findMeetingParticipantByUserAndMeeting(user, meeting)</text><polygon fill="#181818" points="304.15,519.1854,297.15,521.9854,304.15,524.7854,301.35,521.9854" style="stroke:#181818;stroke-width:0.6999999999999998;"/><line style="stroke:#181818;stroke-width:0.6999999999999998;stroke-dasharray:2.0,2.0;" x1="299.95" x2="987" y1="521.9854" y2="521.9854"/><text fill="#000000" font-family="sans-serif" font-size="9.1" lengthAdjust="spacing" textLength="42" x="308.35" y="518.3015">participant</text><polygon fill="#181818" points="466.2,541.0891,473.2,543.8891,466.2,546.6891,469,543.8891" style="stroke:#181818;stroke-width:0.6999999999999998;"/><line style="stroke:#181818;stroke-width:0.6999999999999998;" x1="296.45" x2="470.4" y1="543.8891" y2="543.8891"/><text fill="#000000" font-family="sans-serif" font-size="9.1" lengthAdjust="spacing" textLength="138.6" x="301.35" y="540.2052">rejectMeetingRequest (participant)</text><polygon fill="#181818" points="858.9,562.9928,865.9,565.7928,858.9,568.5928,861.7,565.7928" style="stroke:#181818;stroke-width:0.6999999999999998;"/><line style="stroke:#181818;stroke-width:0.6999999999999998;" x1="481.6" x2="863.1" y1="565.7928" y2="565.7928"/><text fill="#000000" font-family="sans-serif" font-size="9.1" lengthAdjust="spacing" textLength="25.2" x="486.5" y="562.1089">deny()</text><polygon fill="#181818" points="975.8,605.8965,982.8,608.6965,975.8,611.4965,978.6,608.6965" style="stroke:#181818;stroke-width:0.6999999999999998;"/><line style="stroke:#181818;stroke-width:0.6999999999999998;" x1="481.6" x2="980" y1="608.6965" y2="608.6965"/><text fill="#000000" font-family="sans-serif" font-size="9.1" lengthAdjust="spacing" textLength="99.4" x="486.5" y="605.0126">save(meetingParticipant)</text><polygon fill="#181818" points="33.95,648.8002,26.95,651.6002,33.95,654.4002,31.15,651.6002" style="stroke:#181818;stroke-width:0.6999999999999998;"/><line style="stroke:#181818;stroke-width:0.6999999999999998;stroke-dasharray:2.0,2.0;" x1="29.75" x2="115.85" y1="651.6002" y2="651.6002"/><text fill="#000000" font-family="sans-serif" font-size="9.1" lengthAdjust="spacing" textLength="58.1" x="38.15" y="647.9163">show success</text><!--SRC=[xLKzRzim4DtrApWgG8EYtu0W64ZR9KFGmccsBgnuITd8fCgZ7UZVzoXICYdJYjqv6Wph-DuxtZkUY8zITTpm3UjuyyWVuDRsBJ03ZIrmMiFVNEWdgHxOFMyHYe8tLXjsXs0OHtRbtWg2Mjd8ZYjBaGOwkuO_f7C3O8cwXhzRG7jtxHZqMzUT0GHbkPLQhLPC6q5oRqxK-QALDRfj_GwQ_LjTywvhPPFAlZrHzXRCJZRWD37ypGk-ImHJaQy_ljqGnszju__LjO5EeoId-ada_RA8emkhyzmFEUxtAEHo7qRhMkWDb_j2FXQ2M_wB8sH4rZwlwKSrj-Q2-JrzAkWPJWExNBacLy7grzvhzbE572nKwKwIt74BX2uOFKGYQjJFYZK6251U3EiJVWyPuX63-C7qYawkVhfMEsb1XCmu5_BO8HPe9E1ihvZLr8Kok8YU9o37TDiccg_TfsKXxs7HE1UQrP8wYD3chHkmGodjUAIdq14h-O0QAxf8uBdT982PnV5fgDYzLEBm_7pktJVYQbegj_JwYYtdZvKJH9BoSbvRD0u9AsvOhBnGspZwes7fPB8oIdMaXg2G9XbbWtkpoPowis1BIbagSm4vsqRKHEGxA0_Pv_Rf-CdE84QdpcvPRkHmInOYxe50rnNp7v_dPaE0wbycu-J9C9dRyvp9E6SmXjQaUlyp8Y_ZykouAE6ky29If7lv7m00]--></g></svg>