<?xml version="1.0" encoding="us-ascii" standalone="no"?><svg xmlns="http://www.w3.org/2000/svg" xmlns:xlink="http://www.w3.org/1999/xlink" contentStyleType="text/css" height="973px" preserveAspectRatio="none" style="width:1101px;height:973px;background:#FFFFFF;" version="1.1" viewBox="0 0 1101 973" width="1101px" zoomAndPan="magnify"><defs/><g><!--class AcceptRejectMeetingRequestUI--><g id="elem_AcceptRejectMeetingRequestUI"><rect codeLine="2" fill="#F1F1F1" height="122.4844" id="AcceptRejectMeetingRequestUI" rx="2.5" ry="2.5" style="stroke:#181818;stroke-width:0.5;" width="230" x="529.5" y="7"/><ellipse cx="544.5" cy="23" fill="#ADD1B2" rx="11" ry="11" style="stroke:#181818;stroke-width:1.0;"/><path d="M547.2656,18.875 Q547.4219,18.6563 547.6094,18.5469 Q547.7969,18.4375 548.0156,18.4375 Q548.3906,18.4375 548.625,18.7031 Q548.8594,18.9531 548.8594,19.5625 L548.8594,21.0156 Q548.8594,21.625 548.625,21.8906 Q548.3906,22.1563 548.0156,22.1563 Q547.6719,22.1563 547.4688,21.9531 Q547.2656,21.7656 547.1563,21.25 Q547.1094,20.8906 546.9219,20.7031 Q546.5938,20.3281 545.9844,20.1094 Q545.375,19.8906 544.75,19.8906 Q543.9844,19.8906 543.3438,20.2188 Q542.7188,20.5469 542.2188,21.2969 Q541.7344,22.0469 541.7344,23.0781 L541.7344,24.1719 Q541.7344,25.4063 542.625,26.2344 Q543.5156,27.0469 545.1094,27.0469 Q546.0469,27.0469 546.7031,26.7969 Q547.0938,26.6406 547.5156,26.2031 Q547.7813,25.9375 547.9219,25.8594 Q548.0781,25.7813 548.2813,25.7813 Q548.6094,25.7813 548.8594,26.0469 Q549.125,26.2969 549.125,26.6406 Q549.125,26.9844 548.7813,27.3906 Q548.2813,27.9688 547.4844,28.2969 Q546.4063,28.75 545.1094,28.75 Q543.5938,28.75 542.3906,28.125 Q541.4063,27.625 540.7188,26.5625 Q540.0313,25.4844 540.0313,24.2031 L540.0313,23.0469 Q540.0313,21.7188 540.6406,20.5781 Q541.2656,19.4219 542.3594,18.8125 Q543.4531,18.1875 544.6875,18.1875 Q545.4219,18.1875 546.0625,18.3594 Q546.7188,18.5156 547.2656,18.875 Z " fill="#000000"/><text fill="#000000" font-family="sans-serif" font-size="14" lengthAdjust="spacing" textLength="198" x="558.5" y="28.7969">AcceptRejectMeetingRequestUI</text><line style="stroke:#181818;stroke-width:0.5;" x1="530.5" x2="758.5" y1="39" y2="39"/><rect fill="none" height="6" style="stroke:#C82930;stroke-width:1.0;" width="6" x="537.5" y="50.8105"/><text fill="#000000" font-family="sans-serif" font-size="14" lengthAdjust="spacing" textLength="158" x="549.5" y="58.1074">SystemUser: SystemUser</text><line style="stroke:#181818;stroke-width:0.5;" x1="530.5" x2="758.5" y1="65.6211" y2="65.6211"/><ellipse cx="540.5" cy="80.4316" fill="#84BE84" rx="3" ry="3" style="stroke:#038048;stroke-width:1.0;"/><text fill="#000000" font-family="sans-serif" font-size="14" lengthAdjust="spacing" textLength="84" x="549.5" y="84.7285">create(): void</text><ellipse cx="540.5" cy="99.0527" fill="#84BE84" rx="3" ry="3" style="stroke:#038048;stroke-width:1.0;"/><text fill="#000000" font-family="sans-serif" font-size="14" lengthAdjust="spacing" textLength="174" x="549.5" y="103.3496">showInvitedMeetings(): void</text><ellipse cx="540.5" cy="117.6738" fill="#84BE84" rx="3" ry="3" style="stroke:#038048;stroke-width:1.0;"/><text fill="#000000" font-family="sans-serif" font-size="14" lengthAdjust="spacing" textLength="184" x="549.5" y="121.9707">selectMeetingRequest(): void</text></g><!--class AcceptRejectMeetingRequestController--><g id="elem_AcceptRejectMeetingRequestController"><rect codeLine="9" fill="#F1F1F1" height="103.8633" id="AcceptRejectMeetingRequestController" rx="2.5" ry="2.5" style="stroke:#181818;stroke-width:0.5;" width="280" x="504.5" y="189"/><ellipse cx="519.5" cy="205" fill="#ADD1B2" rx="11" ry="11" style="stroke:#181818;stroke-width:1.0;"/><path d="M522.2656,200.875 Q522.4219,200.6563 522.6094,200.5469 Q522.7969,200.4375 523.0156,200.4375 Q523.3906,200.4375 523.625,200.7031 Q523.8594,200.9531 523.8594,201.5625 L523.8594,203.0156 Q523.8594,203.625 523.625,203.8906 Q523.3906,204.1563 523.0156,204.1563 Q522.6719,204.1563 522.4688,203.9531 Q522.2656,203.7656 522.1563,203.25 Q522.1094,202.8906 521.9219,202.7031 Q521.5938,202.3281 520.9844,202.1094 Q520.375,201.8906 519.75,201.8906 Q518.9844,201.8906 518.3438,202.2188 Q517.7188,202.5469 517.2188,203.2969 Q516.7344,204.0469 516.7344,205.0781 L516.7344,206.1719 Q516.7344,207.4063 517.625,208.2344 Q518.5156,209.0469 520.1094,209.0469 Q521.0469,209.0469 521.7031,208.7969 Q522.0938,208.6406 522.5156,208.2031 Q522.7813,207.9375 522.9219,207.8594 Q523.0781,207.7813 523.2813,207.7813 Q523.6094,207.7813 523.8594,208.0469 Q524.125,208.2969 524.125,208.6406 Q524.125,208.9844 523.7813,209.3906 Q523.2813,209.9688 522.4844,210.2969 Q521.4063,210.75 520.1094,210.75 Q518.5938,210.75 517.3906,210.125 Q516.4063,209.625 515.7188,208.5625 Q515.0313,207.4844 515.0313,206.2031 L515.0313,205.0469 Q515.0313,203.7188 515.6406,202.5781 Q516.2656,201.4219 517.3594,200.8125 Q518.4531,200.1875 519.6875,200.1875 Q520.4219,200.1875 521.0625,200.3594 Q521.7188,200.5156 522.2656,200.875 Z " fill="#000000"/><text fill="#000000" font-family="sans-serif" font-size="14" lengthAdjust="spacing" textLength="248" x="533.5" y="210.7969">AcceptRejectMeetingRequestController</text><line style="stroke:#181818;stroke-width:0.5;" x1="505.5" x2="783.5" y1="221" y2="221"/><line style="stroke:#181818;stroke-width:0.5;" x1="505.5" x2="783.5" y1="229" y2="229"/><ellipse cx="515.5" cy="243.8105" fill="#84BE84" rx="3" ry="3" style="stroke:#038048;stroke-width:1.0;"/><text fill="#000000" font-family="sans-serif" font-size="14" lengthAdjust="spacing" textLength="236" x="524.5" y="248.1074">showInvitedMeetings(): List&lt;Meeting&gt;</text><ellipse cx="515.5" cy="262.4316" fill="#84BE84" rx="3" ry="3" style="stroke:#038048;stroke-width:1.0;"/><text fill="#000000" font-family="sans-serif" font-size="14" lengthAdjust="spacing" textLength="194" x="524.5" y="266.7285">accept(meeting: Meeting): void</text><ellipse cx="515.5" cy="281.0527" fill="#84BE84" rx="3" ry="3" style="stroke:#038048;stroke-width:1.0;"/><text fill="#000000" font-family="sans-serif" font-size="14" lengthAdjust="spacing" textLength="183" x="524.5" y="285.3496">deny(meeting: Meeting): void</text></g><!--class AcceptRejectMeetingRequestService--><g id="elem_AcceptRejectMeetingRequestService"><rect codeLine="15" fill="#F1F1F1" height="85.2422" id="AcceptRejectMeetingRequestService" rx="2.5" ry="2.5" style="stroke:#181818;stroke-width:0.5;" width="406" x="220.5" y="353"/><ellipse cx="302.75" cy="369" fill="#ADD1B2" rx="11" ry="11" style="stroke:#181818;stroke-width:1.0;"/><path d="M305.5156,364.875 Q305.6719,364.6563 305.8594,364.5469 Q306.0469,364.4375 306.2656,364.4375 Q306.6406,364.4375 306.875,364.7031 Q307.1094,364.9531 307.1094,365.5625 L307.1094,367.0156 Q307.1094,367.625 306.875,367.8906 Q306.6406,368.1563 306.2656,368.1563 Q305.9219,368.1563 305.7188,367.9531 Q305.5156,367.7656 305.4063,367.25 Q305.3594,366.8906 305.1719,366.7031 Q304.8438,366.3281 304.2344,366.1094 Q303.625,365.8906 303,365.8906 Q302.2344,365.8906 301.5938,366.2188 Q300.9688,366.5469 300.4688,367.2969 Q299.9844,368.0469 299.9844,369.0781 L299.9844,370.1719 Q299.9844,371.4063 300.875,372.2344 Q301.7656,373.0469 303.3594,373.0469 Q304.2969,373.0469 304.9531,372.7969 Q305.3438,372.6406 305.7656,372.2031 Q306.0313,371.9375 306.1719,371.8594 Q306.3281,371.7813 306.5313,371.7813 Q306.8594,371.7813 307.1094,372.0469 Q307.375,372.2969 307.375,372.6406 Q307.375,372.9844 307.0313,373.3906 Q306.5313,373.9688 305.7344,374.2969 Q304.6563,374.75 303.3594,374.75 Q301.8438,374.75 300.6406,374.125 Q299.6563,373.625 298.9688,372.5625 Q298.2813,371.4844 298.2813,370.2031 L298.2813,369.0469 Q298.2813,367.7188 298.8906,366.5781 Q299.5156,365.4219 300.6094,364.8125 Q301.7031,364.1875 302.9375,364.1875 Q303.6719,364.1875 304.3125,364.3594 Q304.9688,364.5156 305.5156,364.875 Z " fill="#000000"/><text fill="#000000" font-family="sans-serif" font-size="14" lengthAdjust="spacing" textLength="233" x="323.25" y="374.7969">AcceptRejectMeetingRequestService</text><line style="stroke:#181818;stroke-width:0.5;" x1="221.5" x2="625.5" y1="385" y2="385"/><line style="stroke:#181818;stroke-width:0.5;" x1="221.5" x2="625.5" y1="393" y2="393"/><ellipse cx="231.5" cy="407.8105" fill="#84BE84" rx="3" ry="3" style="stroke:#038048;stroke-width:1.0;"/><text fill="#000000" font-family="sans-serif" font-size="14" lengthAdjust="spacing" textLength="380" x="240.5" y="412.1074">acceptMeetingRequest(participant: MeetingParticipant): void</text><ellipse cx="231.5" cy="426.4316" fill="#84BE84" rx="3" ry="3" style="stroke:#038048;stroke-width:1.0;"/><text fill="#000000" font-family="sans-serif" font-size="14" lengthAdjust="spacing" textLength="373" x="240.5" y="430.7285">rejectMeetingRequest(participant: MeetingParticipant): void</text></g><!--class MeetingRequestDTOMapper--><g id="elem_MeetingRequestDTOMapper"><rect codeLine="20" fill="#F1F1F1" height="66.6211" id="MeetingRequestDTOMapper" rx="2.5" ry="2.5" style="stroke:#181818;stroke-width:0.5;" width="410" x="684.5" y="362"/><ellipse cx="794.75" cy="378" fill="#ADD1B2" rx="11" ry="11" style="stroke:#181818;stroke-width:1.0;"/><path d="M797.5156,373.875 Q797.6719,373.6563 797.8594,373.5469 Q798.0469,373.4375 798.2656,373.4375 Q798.6406,373.4375 798.875,373.7031 Q799.1094,373.9531 799.1094,374.5625 L799.1094,376.0156 Q799.1094,376.625 798.875,376.8906 Q798.6406,377.1563 798.2656,377.1563 Q797.9219,377.1563 797.7188,376.9531 Q797.5156,376.7656 797.4063,376.25 Q797.3594,375.8906 797.1719,375.7031 Q796.8438,375.3281 796.2344,375.1094 Q795.625,374.8906 795,374.8906 Q794.2344,374.8906 793.5938,375.2188 Q792.9688,375.5469 792.4688,376.2969 Q791.9844,377.0469 791.9844,378.0781 L791.9844,379.1719 Q791.9844,380.4063 792.875,381.2344 Q793.7656,382.0469 795.3594,382.0469 Q796.2969,382.0469 796.9531,381.7969 Q797.3438,381.6406 797.7656,381.2031 Q798.0313,380.9375 798.1719,380.8594 Q798.3281,380.7813 798.5313,380.7813 Q798.8594,380.7813 799.1094,381.0469 Q799.375,381.2969 799.375,381.6406 Q799.375,381.9844 799.0313,382.3906 Q798.5313,382.9688 797.7344,383.2969 Q796.6563,383.75 795.3594,383.75 Q793.8438,383.75 792.6406,383.125 Q791.6563,382.625 790.9688,381.5625 Q790.2813,380.4844 790.2813,379.2031 L790.2813,378.0469 Q790.2813,376.7188 790.8906,375.5781 Q791.5156,374.4219 792.6094,373.8125 Q793.7031,373.1875 794.9375,373.1875 Q795.6719,373.1875 796.3125,373.3594 Q796.9688,373.5156 797.5156,373.875 Z " fill="#000000"/><text fill="#000000" font-family="sans-serif" font-size="14" lengthAdjust="spacing" textLength="181" x="815.25" y="383.7969">MeetingRequestDTOMapper</text><line style="stroke:#181818;stroke-width:0.5;" x1="685.5" x2="1093.5" y1="394" y2="394"/><line style="stroke:#181818;stroke-width:0.5;" x1="685.5" x2="1093.5" y1="402" y2="402"/><ellipse cx="695.5" cy="416.8105" fill="#84BE84" rx="3" ry="3" style="stroke:#038048;stroke-width:1.0;"/><text fill="#000000" font-family="sans-serif" font-size="14" lengthAdjust="spacing" textLength="384" x="704.5" y="421.1074">toDTO(meetings: List&lt;Meeting&gt;): List&lt;MeetingRequestDTO&gt;</text></g><!--class MeetingRequestDTO--><g id="elem_MeetingRequestDTO"><rect codeLine="24" fill="#F1F1F1" height="159.7266" id="MeetingRequestDTO" rx="2.5" ry="2.5" style="stroke:#181818;stroke-width:0.5;" width="261" x="783" y="498"/><ellipse cx="842.75" cy="514" fill="#ADD1B2" rx="11" ry="11" style="stroke:#181818;stroke-width:1.0;"/><path d="M845.5156,509.875 Q845.6719,509.6563 845.8594,509.5469 Q846.0469,509.4375 846.2656,509.4375 Q846.6406,509.4375 846.875,509.7031 Q847.1094,509.9531 847.1094,510.5625 L847.1094,512.0156 Q847.1094,512.625 846.875,512.8906 Q846.6406,513.1563 846.2656,513.1563 Q845.9219,513.1563 845.7188,512.9531 Q845.5156,512.7656 845.4063,512.25 Q845.3594,511.8906 845.1719,511.7031 Q844.8438,511.3281 844.2344,511.1094 Q843.625,510.8906 843,510.8906 Q842.2344,510.8906 841.5938,511.2188 Q840.9688,511.5469 840.4688,512.2969 Q839.9844,513.0469 839.9844,514.0781 L839.9844,515.1719 Q839.9844,516.4063 840.875,517.2344 Q841.7656,518.0469 843.3594,518.0469 Q844.2969,518.0469 844.9531,517.7969 Q845.3438,517.6406 845.7656,517.2031 Q846.0313,516.9375 846.1719,516.8594 Q846.3281,516.7813 846.5313,516.7813 Q846.8594,516.7813 847.1094,517.0469 Q847.375,517.2969 847.375,517.6406 Q847.375,517.9844 847.0313,518.3906 Q846.5313,518.9688 845.7344,519.2969 Q844.6563,519.75 843.3594,519.75 Q841.8438,519.75 840.6406,519.125 Q839.6563,518.625 838.9688,517.5625 Q838.2813,516.4844 838.2813,515.2031 L838.2813,514.0469 Q838.2813,512.7188 838.8906,511.5781 Q839.5156,510.4219 840.6094,509.8125 Q841.7031,509.1875 842.9375,509.1875 Q843.6719,509.1875 844.3125,509.3594 Q844.9688,509.5156 845.5156,509.875 Z " fill="#000000"/><text fill="#000000" font-family="sans-serif" font-size="14" lengthAdjust="spacing" textLength="133" x="863.25" y="519.7969">MeetingRequestDTO</text><line style="stroke:#181818;stroke-width:0.5;" x1="784" x2="1043" y1="530" y2="530"/><rect fill="none" height="6" style="stroke:#C82930;stroke-width:1.0;" width="6" x="791" y="541.8105"/><text fill="#000000" font-family="sans-serif" font-size="14" lengthAdjust="spacing" textLength="108" x="803" y="549.1074">meeting: Meeting</text><rect fill="none" height="6" style="stroke:#C82930;stroke-width:1.0;" width="6" x="791" y="560.4316"/><text fill="#000000" font-family="sans-serif" font-size="14" lengthAdjust="spacing" textLength="149" x="803" y="567.7285">participant: SystemUser</text><rect fill="none" height="6" style="stroke:#C82930;stroke-width:1.0;" width="6" x="791" y="579.0527"/><text fill="#000000" font-family="sans-serif" font-size="14" lengthAdjust="spacing" textLength="203" x="803" y="586.3496">status: MeetingParticipantStatus</text><line style="stroke:#181818;stroke-width:0.5;" x1="784" x2="1043" y1="593.8633" y2="593.8633"/><ellipse cx="794" cy="608.6738" fill="#84BE84" rx="3" ry="3" style="stroke:#038048;stroke-width:1.0;"/><text fill="#000000" font-family="sans-serif" font-size="14" lengthAdjust="spacing" textLength="138" x="803" y="612.9707">getMeeting(): Meeting</text><ellipse cx="794" cy="627.2949" fill="#84BE84" rx="3" ry="3" style="stroke:#038048;stroke-width:1.0;"/><text fill="#000000" font-family="sans-serif" font-size="14" lengthAdjust="spacing" textLength="180" x="803" y="631.5918">getParticipant(): SystemUser</text><ellipse cx="794" cy="645.916" fill="#84BE84" rx="3" ry="3" style="stroke:#038048;stroke-width:1.0;"/><text fill="#000000" font-family="sans-serif" font-size="14" lengthAdjust="spacing" textLength="235" x="803" y="650.2129">getStatus(): MeetingParticipantStatus</text></g><!--class MeetingParticipant--><g id="elem_MeetingParticipant"><rect codeLine="33" fill="#F1F1F1" height="85.2422" id="MeetingParticipant" rx="2.5" ry="2.5" style="stroke:#181818;stroke-width:0.5;" width="149" x="763" y="718"/><ellipse cx="778" cy="734" fill="#ADD1B2" rx="11" ry="11" style="stroke:#181818;stroke-width:1.0;"/><path d="M780.7656,729.875 Q780.9219,729.6563 781.1094,729.5469 Q781.2969,729.4375 781.5156,729.4375 Q781.8906,729.4375 782.125,729.7031 Q782.3594,729.9531 782.3594,730.5625 L782.3594,732.0156 Q782.3594,732.625 782.125,732.8906 Q781.8906,733.1563 781.5156,733.1563 Q781.1719,733.1563 780.9688,732.9531 Q780.7656,732.7656 780.6563,732.25 Q780.6094,731.8906 780.4219,731.7031 Q780.0938,731.3281 779.4844,731.1094 Q778.875,730.8906 778.25,730.8906 Q777.4844,730.8906 776.8438,731.2188 Q776.2188,731.5469 775.7188,732.2969 Q775.2344,733.0469 775.2344,734.0781 L775.2344,735.1719 Q775.2344,736.4063 776.125,737.2344 Q777.0156,738.0469 778.6094,738.0469 Q779.5469,738.0469 780.2031,737.7969 Q780.5938,737.6406 781.0156,737.2031 Q781.2813,736.9375 781.4219,736.8594 Q781.5781,736.7813 781.7813,736.7813 Q782.1094,736.7813 782.3594,737.0469 Q782.625,737.2969 782.625,737.6406 Q782.625,737.9844 782.2813,738.3906 Q781.7813,738.9688 780.9844,739.2969 Q779.9063,739.75 778.6094,739.75 Q777.0938,739.75 775.8906,739.125 Q774.9063,738.625 774.2188,737.5625 Q773.5313,736.4844 773.5313,735.2031 L773.5313,734.0469 Q773.5313,732.7188 774.1406,731.5781 Q774.7656,730.4219 775.8594,729.8125 Q776.9531,729.1875 778.1875,729.1875 Q778.9219,729.1875 779.5625,729.3594 Q780.2188,729.5156 780.7656,729.875 Z " fill="#000000"/><text fill="#000000" font-family="sans-serif" font-size="14" lengthAdjust="spacing" textLength="117" x="792" y="739.7969">MeetingParticipant</text><line style="stroke:#181818;stroke-width:0.5;" x1="764" x2="911" y1="750" y2="750"/><line style="stroke:#181818;stroke-width:0.5;" x1="764" x2="911" y1="758" y2="758"/><ellipse cx="774" cy="772.8105" fill="#84BE84" rx="3" ry="3" style="stroke:#038048;stroke-width:1.0;"/><text fill="#000000" font-family="sans-serif" font-size="14" lengthAdjust="spacing" textLength="86" x="783" y="777.1074">accept(): void</text><ellipse cx="774" cy="791.4316" fill="#84BE84" rx="3" ry="3" style="stroke:#038048;stroke-width:1.0;"/><text fill="#000000" font-family="sans-serif" font-size="14" lengthAdjust="spacing" textLength="75" x="783" y="795.7285">deny(): void</text></g><!--class MeetingParticipantRepository--><g id="elem_MeetingParticipantRepository"><rect codeLine="38" fill="#F1F1F1" height="85.2422" id="MeetingParticipantRepository" rx="2.5" ry="2.5" style="stroke:#181818;stroke-width:0.5;" width="741" x="7" y="535.5"/><ellipse cx="280.75" cy="551.5" fill="#ADD1B2" rx="11" ry="11" style="stroke:#181818;stroke-width:1.0;"/><path d="M283.5156,547.375 Q283.6719,547.1563 283.8594,547.0469 Q284.0469,546.9375 284.2656,546.9375 Q284.6406,546.9375 284.875,547.2031 Q285.1094,547.4531 285.1094,548.0625 L285.1094,549.5156 Q285.1094,550.125 284.875,550.3906 Q284.6406,550.6563 284.2656,550.6563 Q283.9219,550.6563 283.7188,550.4531 Q283.5156,550.2656 283.4063,549.75 Q283.3594,549.3906 283.1719,549.2031 Q282.8438,548.8281 282.2344,548.6094 Q281.625,548.3906 281,548.3906 Q280.2344,548.3906 279.5938,548.7188 Q278.9688,549.0469 278.4688,549.7969 Q277.9844,550.5469 277.9844,551.5781 L277.9844,552.6719 Q277.9844,553.9063 278.875,554.7344 Q279.7656,555.5469 281.3594,555.5469 Q282.2969,555.5469 282.9531,555.2969 Q283.3438,555.1406 283.7656,554.7031 Q284.0313,554.4375 284.1719,554.3594 Q284.3281,554.2813 284.5313,554.2813 Q284.8594,554.2813 285.1094,554.5469 Q285.375,554.7969 285.375,555.1406 Q285.375,555.4844 285.0313,555.8906 Q284.5313,556.4688 283.7344,556.7969 Q282.6563,557.25 281.3594,557.25 Q279.8438,557.25 278.6406,556.625 Q277.6563,556.125 276.9688,555.0625 Q276.2813,553.9844 276.2813,552.7031 L276.2813,551.5469 Q276.2813,550.2188 276.8906,549.0781 Q277.5156,547.9219 278.6094,547.3125 Q279.7031,546.6875 280.9375,546.6875 Q281.6719,546.6875 282.3125,546.8594 Q282.9688,547.0156 283.5156,547.375 Z " fill="#000000"/><text fill="#000000" font-family="sans-serif" font-size="14" lengthAdjust="spacing" textLength="185" x="301.25" y="557.2969">MeetingParticipantRepository</text><line style="stroke:#181818;stroke-width:0.5;" x1="8" x2="747" y1="567.5" y2="567.5"/><line style="stroke:#181818;stroke-width:0.5;" x1="8" x2="747" y1="575.5" y2="575.5"/><ellipse cx="18" cy="590.3105" fill="#84BE84" rx="3" ry="3" style="stroke:#038048;stroke-width:1.0;"/><text fill="#000000" font-family="sans-serif" font-size="14" lengthAdjust="spacing" textLength="715" x="27" y="594.6074">findMeetingParticipantBySystemUserAndMeeting(SystemUser: SystemUser, meeting: Meeting): MeetingParticipant</text><ellipse cx="18" cy="608.9316" fill="#84BE84" rx="3" ry="3" style="stroke:#038048;stroke-width:1.0;"/><text fill="#000000" font-family="sans-serif" font-size="14" lengthAdjust="spacing" textLength="316" x="27" y="613.2285">save(meetingParticipant: MeetingParticipant): void</text></g><!--class SystemUser--><g id="elem_SystemUser"><rect codeLine="43" fill="#F1F1F1" height="48" id="SystemUser" rx="2.5" ry="2.5" style="stroke:#181818;stroke-width:0.5;" width="107" x="693" y="891"/><ellipse cx="708" cy="907" fill="#ADD1B2" rx="11" ry="11" style="stroke:#181818;stroke-width:1.0;"/><path d="M710.7656,902.875 Q710.9219,902.6563 711.1094,902.5469 Q711.2969,902.4375 711.5156,902.4375 Q711.8906,902.4375 712.125,902.7031 Q712.3594,902.9531 712.3594,903.5625 L712.3594,905.0156 Q712.3594,905.625 712.125,905.8906 Q711.8906,906.1563 711.5156,906.1563 Q711.1719,906.1563 710.9688,905.9531 Q710.7656,905.7656 710.6563,905.25 Q710.6094,904.8906 710.4219,904.7031 Q710.0938,904.3281 709.4844,904.1094 Q708.875,903.8906 708.25,903.8906 Q707.4844,903.8906 706.8438,904.2188 Q706.2188,904.5469 705.7188,905.2969 Q705.2344,906.0469 705.2344,907.0781 L705.2344,908.1719 Q705.2344,909.4063 706.125,910.2344 Q707.0156,911.0469 708.6094,911.0469 Q709.5469,911.0469 710.2031,910.7969 Q710.5938,910.6406 711.0156,910.2031 Q711.2813,909.9375 711.4219,909.8594 Q711.5781,909.7813 711.7813,909.7813 Q712.1094,909.7813 712.3594,910.0469 Q712.625,910.2969 712.625,910.6406 Q712.625,910.9844 712.2813,911.3906 Q711.7813,911.9688 710.9844,912.2969 Q709.9063,912.75 708.6094,912.75 Q707.0938,912.75 705.8906,912.125 Q704.9063,911.625 704.2188,910.5625 Q703.5313,909.4844 703.5313,908.2031 L703.5313,907.0469 Q703.5313,905.7188 704.1406,904.5781 Q704.7656,903.4219 705.8594,902.8125 Q706.9531,902.1875 708.1875,902.1875 Q708.9219,902.1875 709.5625,902.3594 Q710.2188,902.5156 710.7656,902.875 Z " fill="#000000"/><text fill="#000000" font-family="sans-serif" font-size="14" lengthAdjust="spacing" textLength="75" x="722" y="912.7969">SystemUser</text><line style="stroke:#181818;stroke-width:0.5;" x1="694" x2="799" y1="923" y2="923"/><line style="stroke:#181818;stroke-width:0.5;" x1="694" x2="799" y1="931" y2="931"/></g><!--class Meeting--><g id="elem_Meeting"><rect codeLine="47" fill="#F1F1F1" height="48" id="Meeting" rx="2.5" ry="2.5" style="stroke:#181818;stroke-width:0.5;" width="82" x="947.5" y="736.5"/><ellipse cx="962.5" cy="752.5" fill="#ADD1B2" rx="11" ry="11" style="stroke:#181818;stroke-width:1.0;"/><path d="M965.2656,748.375 Q965.4219,748.1563 965.6094,748.0469 Q965.7969,747.9375 966.0156,747.9375 Q966.3906,747.9375 966.625,748.2031 Q966.8594,748.4531 966.8594,749.0625 L966.8594,750.5156 Q966.8594,751.125 966.625,751.3906 Q966.3906,751.6563 966.0156,751.6563 Q965.6719,751.6563 965.4688,751.4531 Q965.2656,751.2656 965.1563,750.75 Q965.1094,750.3906 964.9219,750.2031 Q964.5938,749.8281 963.9844,749.6094 Q963.375,749.3906 962.75,749.3906 Q961.9844,749.3906 961.3438,749.7188 Q960.7188,750.0469 960.2188,750.7969 Q959.7344,751.5469 959.7344,752.5781 L959.7344,753.6719 Q959.7344,754.9063 960.625,755.7344 Q961.5156,756.5469 963.1094,756.5469 Q964.0469,756.5469 964.7031,756.2969 Q965.0938,756.1406 965.5156,755.7031 Q965.7813,755.4375 965.9219,755.3594 Q966.0781,755.2813 966.2813,755.2813 Q966.6094,755.2813 966.8594,755.5469 Q967.125,755.7969 967.125,756.1406 Q967.125,756.4844 966.7813,756.8906 Q966.2813,757.4688 965.4844,757.7969 Q964.4063,758.25 963.1094,758.25 Q961.5938,758.25 960.3906,757.625 Q959.4063,757.125 958.7188,756.0625 Q958.0313,754.9844 958.0313,753.7031 L958.0313,752.5469 Q958.0313,751.2188 958.6406,750.0781 Q959.2656,748.9219 960.3594,748.3125 Q961.4531,747.6875 962.6875,747.6875 Q963.4219,747.6875 964.0625,747.8594 Q964.7188,748.0156 965.2656,748.375 Z " fill="#000000"/><text fill="#000000" font-family="sans-serif" font-size="14" lengthAdjust="spacing" textLength="50" x="976.5" y="758.2969">Meeting</text><line style="stroke:#181818;stroke-width:0.5;" x1="948.5" x2="1028.5" y1="768.5" y2="768.5"/><line style="stroke:#181818;stroke-width:0.5;" x1="948.5" x2="1028.5" y1="776.5" y2="776.5"/></g><!--class MeetingParticipantStatus--><g id="elem_MeetingParticipantStatus"><rect codeLine="51" fill="#F1F1F1" height="103.8633" id="MeetingParticipantStatus" rx="2.5" ry="2.5" style="stroke:#181818;stroke-width:0.5;" width="189" x="835" y="863"/><ellipse cx="850" cy="879" fill="#ADD1B2" rx="11" ry="11" style="stroke:#181818;stroke-width:1.0;"/><path d="M852.7656,874.875 Q852.9219,874.6563 853.1094,874.5469 Q853.2969,874.4375 853.5156,874.4375 Q853.8906,874.4375 854.125,874.7031 Q854.3594,874.9531 854.3594,875.5625 L854.3594,877.0156 Q854.3594,877.625 854.125,877.8906 Q853.8906,878.1563 853.5156,878.1563 Q853.1719,878.1563 852.9688,877.9531 Q852.7656,877.7656 852.6563,877.25 Q852.6094,876.8906 852.4219,876.7031 Q852.0938,876.3281 851.4844,876.1094 Q850.875,875.8906 850.25,875.8906 Q849.4844,875.8906 848.8438,876.2188 Q848.2188,876.5469 847.7188,877.2969 Q847.2344,878.0469 847.2344,879.0781 L847.2344,880.1719 Q847.2344,881.4063 848.125,882.2344 Q849.0156,883.0469 850.6094,883.0469 Q851.5469,883.0469 852.2031,882.7969 Q852.5938,882.6406 853.0156,882.2031 Q853.2813,881.9375 853.4219,881.8594 Q853.5781,881.7813 853.7813,881.7813 Q854.1094,881.7813 854.3594,882.0469 Q854.625,882.2969 854.625,882.6406 Q854.625,882.9844 854.2813,883.3906 Q853.7813,883.9688 852.9844,884.2969 Q851.9063,884.75 850.6094,884.75 Q849.0938,884.75 847.8906,884.125 Q846.9063,883.625 846.2188,882.5625 Q845.5313,881.4844 845.5313,880.2031 L845.5313,879.0469 Q845.5313,877.7188 846.1406,876.5781 Q846.7656,875.4219 847.8594,874.8125 Q848.9531,874.1875 850.1875,874.1875 Q850.9219,874.1875 851.5625,874.3594 Q852.2188,874.5156 852.7656,874.875 Z " fill="#000000"/><text fill="#000000" font-family="sans-serif" font-size="14" lengthAdjust="spacing" textLength="157" x="864" y="884.7969">MeetingParticipantStatus</text><line style="stroke:#181818;stroke-width:0.5;" x1="836" x2="1023" y1="895" y2="895"/><rect fill="none" height="6" style="stroke:#C82930;stroke-width:1.0;" width="6" x="843" y="906.8105"/><text fill="#000000" font-family="sans-serif" font-size="14" lengthAdjust="spacing" textLength="75" x="855" y="914.1074">ACCEPTED</text><rect fill="none" height="6" style="stroke:#C82930;stroke-width:1.0;" width="6" x="843" y="925.4316"/><text fill="#000000" font-family="sans-serif" font-size="14" lengthAdjust="spacing" textLength="72" x="855" y="932.7285">REJECTED</text><rect fill="none" height="6" style="stroke:#C82930;stroke-width:1.0;" width="6" x="843" y="944.0527"/><text fill="#000000" font-family="sans-serif" font-size="14" lengthAdjust="spacing" textLength="60" x="855" y="951.3496">PENDING</text><line style="stroke:#181818;stroke-width:0.5;" x1="836" x2="1023" y1="958.8633" y2="958.8633"/></g><!--link AcceptRejectMeetingRequestUI to AcceptRejectMeetingRequestController--><g id="link_AcceptRejectMeetingRequestUI_AcceptRejectMeetingRequestController"><path codeLine="57" d="M644.5,129.29 C644.5,146.89 644.5,166.06 644.5,183.42 " fill="none" id="AcceptRejectMeetingRequestUI-to-AcceptRejectMeetingRequestController" style="stroke:#181818;stroke-width:1.0;"/><polygon fill="#181818" points="644.5,188.75,648.5,179.75,644.5,183.75,640.5,179.75,644.5,188.75" style="stroke:#181818;stroke-width:1.0;"/></g><!--link AcceptRejectMeetingRequestController to AcceptRejectMeetingRequestService--><g id="link_AcceptRejectMeetingRequestController_AcceptRejectMeetingRequestService"><path codeLine="58" d="M570.3,293.2 C543.74,311.53 514.04,332.02 488.34,349.75 " fill="none" id="AcceptRejectMeetingRequestController-to-AcceptRejectMeetingRequestService" style="stroke:#181818;stroke-width:1.0;"/><polygon fill="#181818" points="483.93,352.8,493.6125,350.9974,488.0502,349.9674,489.0803,344.4051,483.93,352.8" style="stroke:#181818;stroke-width:1.0;"/></g><!--link AcceptRejectMeetingRequestController to MeetingRequestDTOMapper--><g id="link_AcceptRejectMeetingRequestController_MeetingRequestDTOMapper"><path codeLine="59" d="M726.76,293.2 C761.48,314.81 801.04,339.44 832.47,359 " fill="none" id="AcceptRejectMeetingRequestController-to-MeetingRequestDTOMapper" style="stroke:#181818;stroke-width:1.0;"/><polygon fill="#181818" points="837.04,361.85,831.5157,353.6964,832.796,359.2064,827.2859,360.4868,837.04,361.85" style="stroke:#181818;stroke-width:1.0;"/></g><!--link AcceptRejectMeetingRequestService to MeetingParticipantRepository--><g id="link_AcceptRejectMeetingRequestService_MeetingParticipantRepository"><path codeLine="61" d="M412.83,438.36 C405.81,465.93 396.6,502.05 389.35,530.5 " fill="none" id="AcceptRejectMeetingRequestService-to-MeetingParticipantRepository" style="stroke:#181818;stroke-width:1.0;"/><polygon fill="#181818" points="388.11,535.36,394.2003,527.6199,389.3395,530.5135,386.4459,525.6527,388.11,535.36" style="stroke:#181818;stroke-width:1.0;"/></g><!--link MeetingRequestDTOMapper to MeetingRequestDTO--><g id="link_MeetingRequestDTOMapper_MeetingRequestDTO"><path codeLine="62" d="M893.85,429.19 C896.22,447.04 899.28,470.05 902.27,492.57 " fill="none" id="MeetingRequestDTOMapper-to-MeetingRequestDTO" style="stroke:#181818;stroke-width:1.0;"/><polygon fill="#181818" points="902.95,497.67,905.7326,488.2224,902.2929,492.7134,897.802,489.2737,902.95,497.67" style="stroke:#181818;stroke-width:1.0;"/></g><!--link MeetingParticipant to MeetingParticipantStatus--><g id="link_MeetingParticipant_MeetingParticipantStatus"><path codeLine="63" d="M862.64,803.17 C872.89,820.16 884.89,840.06 895.88,858.27 " fill="none" id="MeetingParticipant-to-MeetingParticipantStatus" style="stroke:#181818;stroke-width:1.0;"/><polygon fill="#181818" points="898.65,862.86,897.4495,853.0846,896.0775,858.5725,890.5896,857.2005,898.65,862.86" style="stroke:#181818;stroke-width:1.0;"/></g><!--link MeetingParticipant to SystemUser--><g id="link_MeetingParticipant_SystemUser"><path codeLine="64" d="M812.63,803.17 C796.85,829.63 776.85,863.13 763.01,886.34 " fill="none" id="MeetingParticipant-to-SystemUser" style="stroke:#181818;stroke-width:1.0;"/><polygon fill="#181818" points="760.32,890.84,768.3582,885.149,762.8757,886.5425,761.4822,881.06,760.32,890.84" style="stroke:#181818;stroke-width:1.0;"/></g><!--link MeetingRequestDTO to Meeting--><g id="link_MeetingRequestDTO_Meeting"><path codeLine="65" d="M946.4,658.17 C957.28,684.37 968.69,711.83 976.88,731.54 " fill="none" id="MeetingRequestDTO-to-Meeting" style="stroke:#181818;stroke-width:1.0;"/><polygon fill="#181818" points="978.9,736.38,979.1459,726.5342,976.984,731.7617,971.7566,729.5998,978.9,736.38" style="stroke:#181818;stroke-width:1.0;"/></g><!--link MeetingRequestDTO to MeetingParticipant--><g id="link_MeetingRequestDTO_MeetingParticipant"><path codeLine="66" d="M880.17,658.17 C872.29,676.87 864.15,696.22 857.11,712.93 " fill="none" id="MeetingRequestDTO-to-MeetingParticipant" style="stroke:#181818;stroke-width:1.0;"/><polygon fill="#181818" points="855.15,717.57,862.3291,710.8275,857.0903,712.9618,854.956,707.7231,855.15,717.57" style="stroke:#181818;stroke-width:1.0;"/></g><!--SRC=[bLJTJeCm6BtdANg9KLvWCKic8sR6JSBc0pJbSzOmmBR34EEx2wL0eGNn3hwVSyxtLv9Wpj664CX511z0n1v0qFGSmUSLk7ZTeMy78GyTIoxWyig1hRJlodMB20CimBrPeIAZiJJnz-nhbnPKGApm-D0FYK7L1Vmu3lb3bf-bWcL90apAcoHyfbpSAyDQ1cA9wLuQsmeffoukXhIS35WWxWYie0IKiePmL6gEcQ24vZWL7KFOstGrpCAmDByJEqpVdbxsEC-xveciihGLyr7NHbti8TOpy6ffnasKne7smIfvY0iihjnMqb5wfDmpjEseHzn3Iu-MKdj7gre5D41QfaaohakB60pLDRPcgl4QGWHvngd8MAcmtcWQcs4FPIzzqmMuzZEyGvPrDJ6RIy45jBCE_xb6FMEjtQZIQZJQAykkPhtn_I0y1TlcBmgU0h_x2uF3TdTuhC5ctoRFMozw9Pn5JyaycZhhvL0JHpTNKljqQEdMrN6c3jhAwrZssCwW3c0YNZicy-8rm7cllf3EBm00]--></g></svg>