<?xml version="1.0" encoding="us-ascii" standalone="no"?><svg xmlns="http://www.w3.org/2000/svg" xmlns:xlink="http://www.w3.org/1999/xlink" contentStyleType="text/css" height="1374px" preserveAspectRatio="none" style="width:1871px;height:1374px;background:#1B1B1B;" version="1.1" viewBox="0 0 1871 1374" width="1871px" zoomAndPan="magnify"><defs/><g><rect fill="#1B1B1B" height="1374" style="stroke:none;stroke-width:1.0;" width="1871" x="0" y="0"/><rect fill="#000000" height="787.4143" style="stroke:#E7E7E7;stroke-width:1.0;" width="10" x="194.5" y="117.7739"/><rect fill="#000000" height="335.6481" style="stroke:#E7E7E7;stroke-width:1.0;" width="10" x="194.5" y="936.8943"/><rect fill="#000000" height="280.2361" style="stroke:#E7E7E7;stroke-width:1.0;" width="10" x="423.5" y="149.4799"/><rect fill="#000000" height="412.0602" style="stroke:#E7E7E7;stroke-width:1.0;" width="10" x="423.5" y="461.4221"/><rect fill="#000000" height="272.2361" style="stroke:#E7E7E7;stroke-width:1.0;" width="10" x="423.5" y="968.6003"/><rect fill="#000000" height="117.118" style="stroke:#E7E7E7;stroke-width:1.0;" width="10" x="595" y="493.1281"/><rect fill="#000000" height="117.118" style="stroke:#E7E7E7;stroke-width:1.0;" width="10" x="595" y="1000.3063"/><rect fill="#000000" height="30" style="stroke:#E7E7E7;stroke-width:1.0;" width="10" x="695" y="536.6871"/><rect fill="#000000" height="30" style="stroke:#E7E7E7;stroke-width:1.0;" width="10" x="695" y="1043.8653"/><rect fill="#000000" height="199.8241" style="stroke:#E7E7E7;stroke-width:1.0;" width="10" x="808" y="641.9521"/><rect fill="#000000" height="61.706" style="stroke:#E7E7E7;stroke-width:1.0;" width="10" x="958.5" y="181.186"/><rect fill="#000000" height="30" style="stroke:#E7E7E7;stroke-width:1.0;" width="10" x="1106" y="212.892"/><rect fill="#000000" height="61.706" style="stroke:#E7E7E7;stroke-width:1.0;" width="10" x="1106" y="274.598"/><rect fill="#000000" height="61.706" style="stroke:#E7E7E7;stroke-width:1.0;" width="10" x="1106" y="368.01"/><rect fill="#000000" height="30" style="stroke:#E7E7E7;stroke-width:1.0;" width="10" x="1248.5" y="306.304"/><rect fill="#000000" height="30" style="stroke:#E7E7E7;stroke-width:1.0;" width="10" x="1248.5" y="673.6582"/><rect fill="#000000" height="30" style="stroke:#E7E7E7;stroke-width:1.0;" width="10" x="1431.5" y="399.716"/><rect fill="#000000" height="30" style="stroke:#E7E7E7;stroke-width:1.0;" width="10" x="1431.5" y="1210.8364"/><rect fill="#000000" height="30" style="stroke:#E7E7E7;stroke-width:1.0;" width="10" x="1628" y="735.3642"/><rect fill="#000000" height="30" style="stroke:#E7E7E7;stroke-width:1.0;" width="10" x="1789" y="1149.1304"/><line style="stroke:#E7E7E7;stroke-width:0.5;stroke-dasharray:5.0,5.0;" x1="34" x2="34" y1="84.0679" y2="1290.5424"/><line style="stroke:#E7E7E7;stroke-width:0.5;stroke-dasharray:5.0,5.0;" x1="199.5" x2="199.5" y1="84.0679" y2="1290.5424"/><line style="stroke:#E7E7E7;stroke-width:0.5;stroke-dasharray:5.0,5.0;" x1="428.5" x2="428.5" y1="84.0679" y2="1290.5424"/><line style="stroke:#E7E7E7;stroke-width:0.5;stroke-dasharray:5.0,5.0;" x1="599.5" x2="599.5" y1="84.0679" y2="1290.5424"/><line style="stroke:#E7E7E7;stroke-width:0.5;stroke-dasharray:5.0,5.0;" x1="699.5" x2="699.5" y1="84.0679" y2="1290.5424"/><line style="stroke:#E7E7E7;stroke-width:0.5;stroke-dasharray:5.0,5.0;" x1="812.5" x2="812.5" y1="84.0679" y2="1290.5424"/><line style="stroke:#E7E7E7;stroke-width:0.5;stroke-dasharray:5.0,5.0;" x1="963.5" x2="963.5" y1="84.0679" y2="1290.5424"/><line style="stroke:#E7E7E7;stroke-width:0.5;stroke-dasharray:5.0,5.0;" x1="1110.5" x2="1110.5" y1="84.0679" y2="1290.5424"/><line style="stroke:#E7E7E7;stroke-width:0.5;stroke-dasharray:5.0,5.0;" x1="1253.5" x2="1253.5" y1="84.0679" y2="1290.5424"/><line style="stroke:#E7E7E7;stroke-width:0.5;stroke-dasharray:5.0,5.0;" x1="1436.5" x2="1436.5" y1="84.0679" y2="1290.5424"/><line style="stroke:#E7E7E7;stroke-width:0.5;stroke-dasharray:5.0,5.0;" x1="1632.5" x2="1632.5" y1="84.0679" y2="1290.5424"/><line style="stroke:#E7E7E7;stroke-width:0.5;stroke-dasharray:5.0,5.0;" x1="1793.5" x2="1793.5" y1="84.0679" y2="1290.5424"/><text fill="#FFFFFF" font-family="sans-serif" font-size="14" lengthAdjust="spacing" textLength="53" x="5" y="79.9659">Student</text><ellipse cx="34.5" cy="13.5" fill="#222222" rx="8" ry="8" style="stroke:#E7E7E7;stroke-width:0.5;"/><path d="M34.5,21.5 L34.5,48.5 M21.5,29.5 L47.5,29.5 M34.5,48.5 L21.5,63.5 M34.5,48.5 L47.5,63.5 " fill="none" style="stroke:#E7E7E7;stroke-width:0.5;"/><text fill="#FFFFFF" font-family="sans-serif" font-size="14" lengthAdjust="spacing" textLength="53" x="5" y="1304.5083">Student</text><ellipse cx="34.5" cy="1317.1103" fill="#222222" rx="8" ry="8" style="stroke:#E7E7E7;stroke-width:0.5;"/><path d="M34.5,1325.1103 L34.5,1352.1103 M21.5,1333.1103 L47.5,1333.1103 M34.5,1352.1103 L21.5,1367.1103 M34.5,1352.1103 L47.5,1367.1103 " fill="none" style="stroke:#E7E7E7;stroke-width:0.5;"/><rect fill="#222222" height="33.0679" rx="2.5" ry="2.5" style="stroke:#E7E7E7;stroke-width:0.5;" width="158" x="120.5" y="50"/><text fill="#FFFFFF" font-family="sans-serif" font-size="14" lengthAdjust="spacing" textLength="144" x="127.5" y="71.9659">EnrollmentRequestUI</text><rect fill="#222222" height="33.0679" rx="2.5" ry="2.5" style="stroke:#E7E7E7;stroke-width:0.5;" width="158" x="120.5" y="1289.5424"/><text fill="#FFFFFF" font-family="sans-serif" font-size="14" lengthAdjust="spacing" textLength="144" x="127.5" y="1311.5083">EnrollmentRequestUI</text><rect fill="#222222" height="33.0679" rx="2.5" ry="2.5" style="stroke:#E7E7E7;stroke-width:0.5;" width="210" x="323.5" y="50"/><text fill="#FFFFFF" font-family="sans-serif" font-size="14" lengthAdjust="spacing" textLength="196" x="330.5" y="71.9659">EnrollmentRequestController</text><rect fill="#222222" height="33.0679" rx="2.5" ry="2.5" style="stroke:#E7E7E7;stroke-width:0.5;" width="210" x="323.5" y="1289.5424"/><text fill="#FFFFFF" font-family="sans-serif" font-size="14" lengthAdjust="spacing" textLength="196" x="330.5" y="1311.5083">EnrollmentRequestController</text><rect fill="#222222" height="33.0679" rx="2.5" ry="2.5" style="stroke:#E7E7E7;stroke-width:0.5;" width="113" x="543.5" y="50"/><text fill="#FFFFFF" font-family="sans-serif" font-size="14" lengthAdjust="spacing" textLength="99" x="550.5" y="71.9659">MyUserService</text><rect fill="#222222" height="33.0679" rx="2.5" ry="2.5" style="stroke:#E7E7E7;stroke-width:0.5;" width="113" x="543.5" y="1289.5424"/><text fill="#FFFFFF" font-family="sans-serif" font-size="14" lengthAdjust="spacing" textLength="99" x="550.5" y="1311.5083">MyUserService</text><rect fill="#222222" height="33.0679" rx="2.5" ry="2.5" style="stroke:#E7E7E7;stroke-width:0.5;" width="67" x="666.5" y="50"/><text fill="#FFFFFF" font-family="sans-serif" font-size="14" lengthAdjust="spacing" textLength="53" x="673.5" y="71.9659">Student</text><rect fill="#222222" height="33.0679" rx="2.5" ry="2.5" style="stroke:#E7E7E7;stroke-width:0.5;" width="67" x="666.5" y="1289.5424"/><text fill="#FFFFFF" font-family="sans-serif" font-size="14" lengthAdjust="spacing" textLength="53" x="673.5" y="1311.5083">Student</text><rect fill="#222222" height="33.0679" rx="2.5" ry="2.5" style="stroke:#E7E7E7;stroke-width:0.5;" width="139" x="743.5" y="50"/><text fill="#FFFFFF" font-family="sans-serif" font-size="14" lengthAdjust="spacing" textLength="125" x="750.5" y="71.9659">ListCoursesService</text><rect fill="#222222" height="33.0679" rx="2.5" ry="2.5" style="stroke:#E7E7E7;stroke-width:0.5;" width="139" x="743.5" y="1289.5424"/><text fill="#FFFFFF" font-family="sans-serif" font-size="14" lengthAdjust="spacing" textLength="125" x="750.5" y="1311.5083">ListCoursesService</text><rect fill="#222222" height="33.0679" rx="2.5" ry="2.5" style="stroke:#E7E7E7;stroke-width:0.5;" width="142" x="892.5" y="50"/><text fill="#FFFFFF" font-family="sans-serif" font-size="14" lengthAdjust="spacing" textLength="128" x="899.5" y="71.9659">PersistenceContext</text><rect fill="#222222" height="33.0679" rx="2.5" ry="2.5" style="stroke:#E7E7E7;stroke-width:0.5;" width="142" x="892.5" y="1289.5424"/><text fill="#FFFFFF" font-family="sans-serif" font-size="14" lengthAdjust="spacing" textLength="128" x="899.5" y="1311.5083">PersistenceContext</text><rect fill="#222222" height="33.0679" rx="2.5" ry="2.5" style="stroke:#E7E7E7;stroke-width:0.5;" width="133" x="1044.5" y="50"/><text fill="#FFFFFF" font-family="sans-serif" font-size="14" lengthAdjust="spacing" textLength="119" x="1051.5" y="71.9659">RepositoryFactory</text><rect fill="#222222" height="33.0679" rx="2.5" ry="2.5" style="stroke:#E7E7E7;stroke-width:0.5;" width="133" x="1044.5" y="1289.5424"/><text fill="#FFFFFF" font-family="sans-serif" font-size="14" lengthAdjust="spacing" textLength="119" x="1051.5" y="1311.5083">RepositoryFactory</text><rect fill="#222222" height="33.0679" rx="2.5" ry="2.5" style="stroke:#E7E7E7;stroke-width:0.5;" width="132" x="1187.5" y="50"/><text fill="#FFFFFF" font-family="sans-serif" font-size="14" lengthAdjust="spacing" textLength="118" x="1194.5" y="71.9659">CourseRepository</text><rect fill="#222222" height="33.0679" rx="2.5" ry="2.5" style="stroke:#E7E7E7;stroke-width:0.5;" width="132" x="1187.5" y="1289.5424"/><text fill="#FFFFFF" font-family="sans-serif" font-size="14" lengthAdjust="spacing" textLength="118" x="1194.5" y="1311.5083">CourseRepository</text><rect fill="#222222" height="33.0679" rx="2.5" ry="2.5" style="stroke:#E7E7E7;stroke-width:0.5;" width="214" x="1329.5" y="50"/><text fill="#FFFFFF" font-family="sans-serif" font-size="14" lengthAdjust="spacing" textLength="200" x="1336.5" y="71.9659">EnrollmentRequestRepository</text><rect fill="#222222" height="33.0679" rx="2.5" ry="2.5" style="stroke:#E7E7E7;stroke-width:0.5;" width="214" x="1329.5" y="1289.5424"/><text fill="#FFFFFF" font-family="sans-serif" font-size="14" lengthAdjust="spacing" textLength="200" x="1336.5" y="1311.5083">EnrollmentRequestRepository</text><rect fill="#222222" height="33.0679" rx="2.5" ry="2.5" style="stroke:#E7E7E7;stroke-width:0.5;" width="159" x="1553.5" y="50"/><text fill="#FFFFFF" font-family="sans-serif" font-size="14" lengthAdjust="spacing" textLength="145" x="1560.5" y="71.9659">EnrollmentRepository</text><rect fill="#222222" height="33.0679" rx="2.5" ry="2.5" style="stroke:#E7E7E7;stroke-width:0.5;" width="159" x="1553.5" y="1289.5424"/><text fill="#FFFFFF" font-family="sans-serif" font-size="14" lengthAdjust="spacing" textLength="145" x="1560.5" y="1311.5083">EnrollmentRepository</text><rect fill="#222222" height="33.0679" rx="2.5" ry="2.5" style="stroke:#E7E7E7;stroke-width:0.5;" width="143" x="1722.5" y="50"/><text fill="#FFFFFF" font-family="sans-serif" font-size="14" lengthAdjust="spacing" textLength="129" x="1729.5" y="71.9659">EnrollmentRequest</text><rect fill="#222222" height="33.0679" rx="2.5" ry="2.5" style="stroke:#E7E7E7;stroke-width:0.5;" width="143" x="1722.5" y="1289.5424"/><text fill="#FFFFFF" font-family="sans-serif" font-size="14" lengthAdjust="spacing" textLength="129" x="1729.5" y="1311.5083">EnrollmentRequest</text><rect fill="#000000" height="787.4143" style="stroke:#E7E7E7;stroke-width:1.0;" width="10" x="194.5" y="117.7739"/><rect fill="#000000" height="335.6481" style="stroke:#E7E7E7;stroke-width:1.0;" width="10" x="194.5" y="936.8943"/><rect fill="#000000" height="280.2361" style="stroke:#E7E7E7;stroke-width:1.0;" width="10" x="423.5" y="149.4799"/><rect fill="#000000" height="412.0602" style="stroke:#E7E7E7;stroke-width:1.0;" width="10" x="423.5" y="461.4221"/><rect fill="#000000" height="272.2361" style="stroke:#E7E7E7;stroke-width:1.0;" width="10" x="423.5" y="968.6003"/><rect fill="#000000" height="117.118" style="stroke:#E7E7E7;stroke-width:1.0;" width="10" x="595" y="493.1281"/><rect fill="#000000" height="117.118" style="stroke:#E7E7E7;stroke-width:1.0;" width="10" x="595" y="1000.3063"/><rect fill="#000000" height="30" style="stroke:#E7E7E7;stroke-width:1.0;" width="10" x="695" y="536.6871"/><rect fill="#000000" height="30" style="stroke:#E7E7E7;stroke-width:1.0;" width="10" x="695" y="1043.8653"/><rect fill="#000000" height="199.8241" style="stroke:#E7E7E7;stroke-width:1.0;" width="10" x="808" y="641.9521"/><rect fill="#000000" height="61.706" style="stroke:#E7E7E7;stroke-width:1.0;" width="10" x="958.5" y="181.186"/><rect fill="#000000" height="30" style="stroke:#E7E7E7;stroke-width:1.0;" width="10" x="1106" y="212.892"/><rect fill="#000000" height="61.706" style="stroke:#E7E7E7;stroke-width:1.0;" width="10" x="1106" y="274.598"/><rect fill="#000000" height="61.706" style="stroke:#E7E7E7;stroke-width:1.0;" width="10" x="1106" y="368.01"/><rect fill="#000000" height="30" style="stroke:#E7E7E7;stroke-width:1.0;" width="10" x="1248.5" y="306.304"/><rect fill="#000000" height="30" style="stroke:#E7E7E7;stroke-width:1.0;" width="10" x="1248.5" y="673.6582"/><rect fill="#000000" height="30" style="stroke:#E7E7E7;stroke-width:1.0;" width="10" x="1431.5" y="399.716"/><rect fill="#000000" height="30" style="stroke:#E7E7E7;stroke-width:1.0;" width="10" x="1431.5" y="1210.8364"/><rect fill="#000000" height="30" style="stroke:#E7E7E7;stroke-width:1.0;" width="10" x="1628" y="735.3642"/><rect fill="#000000" height="30" style="stroke:#E7E7E7;stroke-width:1.0;" width="10" x="1789" y="1149.1304"/><polygon fill="#E7E7E7" points="182.5,113.7739,192.5,117.7739,182.5,121.7739,186.5,117.7739" style="stroke:#E7E7E7;stroke-width:1.0;"/><line style="stroke:#E7E7E7;stroke-width:1.0;stroke-dasharray:2.0,2.0;" x1="34.5" x2="188.5" y1="117.7739" y2="117.7739"/><text fill="#FFFFFF" font-family="sans-serif" font-size="13" lengthAdjust="spacing" textLength="32" x="41.5" y="111.9649">enter</text><polygon fill="#E7E7E7" points="411.5,145.4799,421.5,149.4799,411.5,153.4799,415.5,149.4799" style="stroke:#E7E7E7;stroke-width:1.0;"/><line style="stroke:#E7E7E7;stroke-width:1.0;stroke-dasharray:2.0,2.0;" x1="204.5" x2="417.5" y1="149.4799" y2="149.4799"/><text fill="#FFFFFF" font-family="sans-serif" font-size="13" lengthAdjust="spacing" textLength="45" x="211.5" y="143.6709">create()</text><polygon fill="#E7E7E7" points="946.5,177.186,956.5,181.186,946.5,185.186,950.5,181.186" style="stroke:#E7E7E7;stroke-width:1.0;"/><line style="stroke:#E7E7E7;stroke-width:1.0;stroke-dasharray:2.0,2.0;" x1="433.5" x2="952.5" y1="181.186" y2="181.186"/><text fill="#FFFFFF" font-family="sans-serif" font-size="13" lengthAdjust="spacing" textLength="79" x="440.5" y="175.377">repositories()</text><polygon fill="#E7E7E7" points="1094,208.892,1104,212.892,1094,216.892,1098,212.892" style="stroke:#E7E7E7;stroke-width:1.0;"/><line style="stroke:#E7E7E7;stroke-width:1.0;stroke-dasharray:2.0,2.0;" x1="968.5" x2="1100" y1="212.892" y2="212.892"/><text fill="#FFFFFF" font-family="sans-serif" font-size="13" lengthAdjust="spacing" textLength="45" x="975.5" y="207.083">create()</text><polygon fill="#E7E7E7" points="1094,270.598,1104,274.598,1094,278.598,1098,274.598" style="stroke:#E7E7E7;stroke-width:1.0;"/><line style="stroke:#E7E7E7;stroke-width:1.0;stroke-dasharray:2.0,2.0;" x1="433.5" x2="1100" y1="274.598" y2="274.598"/><text fill="#FFFFFF" font-family="sans-serif" font-size="13" lengthAdjust="spacing" textLength="54" x="440.5" y="268.789">courses()</text><polygon fill="#E7E7E7" points="1236.5,302.304,1246.5,306.304,1236.5,310.304,1240.5,306.304" style="stroke:#E7E7E7;stroke-width:1.0;"/><line style="stroke:#E7E7E7;stroke-width:1.0;stroke-dasharray:2.0,2.0;" x1="1116" x2="1242.5" y1="306.304" y2="306.304"/><text fill="#FFFFFF" font-family="sans-serif" font-size="13" lengthAdjust="spacing" textLength="45" x="1123" y="300.495">create()</text><polygon fill="#E7E7E7" points="1094,364.01,1104,368.01,1094,372.01,1098,368.01" style="stroke:#E7E7E7;stroke-width:1.0;"/><line style="stroke:#E7E7E7;stroke-width:1.0;stroke-dasharray:2.0,2.0;" x1="433.5" x2="1100" y1="368.01" y2="368.01"/><text fill="#FFFFFF" font-family="sans-serif" font-size="13" lengthAdjust="spacing" textLength="129" x="440.5" y="362.201">enrollmentRequests()</text><polygon fill="#E7E7E7" points="1419.5,395.716,1429.5,399.716,1419.5,403.716,1423.5,399.716" style="stroke:#E7E7E7;stroke-width:1.0;"/><line style="stroke:#E7E7E7;stroke-width:1.0;stroke-dasharray:2.0,2.0;" x1="1116" x2="1425.5" y1="399.716" y2="399.716"/><text fill="#FFFFFF" font-family="sans-serif" font-size="13" lengthAdjust="spacing" textLength="45" x="1123" y="393.907">create()</text><polygon fill="#E7E7E7" points="411.5,457.4221,421.5,461.4221,411.5,465.4221,415.5,461.4221" style="stroke:#E7E7E7;stroke-width:1.0;"/><line style="stroke:#E7E7E7;stroke-width:1.0;stroke-dasharray:2.0,2.0;" x1="204.5" x2="417.5" y1="461.4221" y2="461.4221"/><text fill="#FFFFFF" font-family="sans-serif" font-size="13" lengthAdjust="spacing" textLength="135" x="211.5" y="455.6131">getEnrollableCourses()</text><polygon fill="#E7E7E7" points="583,489.1281,593,493.1281,583,497.1281,587,493.1281" style="stroke:#E7E7E7;stroke-width:1.0;"/><line style="stroke:#E7E7E7;stroke-width:1.0;stroke-dasharray:2.0,2.0;" x1="433.5" x2="589" y1="493.1281" y2="493.1281"/><text fill="#FFFFFF" font-family="sans-serif" font-size="13" lengthAdjust="spacing" textLength="100" x="440.5" y="487.3191">currentStudent()</text><polygon fill="#E7E7E7" points="683,532.6871,693,536.6871,683,540.6871,687,536.6871" style="stroke:#E7E7E7;stroke-width:1.0;"/><line style="stroke:#E7E7E7;stroke-width:1.0;stroke-dasharray:2.0,2.0;" x1="605" x2="689" y1="536.6871" y2="536.6871"/><text fill="#FFFFFF" font-family="sans-serif" font-size="13" lengthAdjust="spacing" textLength="28" x="612" y="530.8781">get()</text><path d="M710,506.1281 L710,551.1281 L955,551.1281 L955,516.1281 L945,506.1281 L710,506.1281 " fill="#714137" style="stroke:#E7E7E7;stroke-width:0.5;"/><path d="M945,506.1281 L945,516.1281 L955,516.1281 L945,506.1281 " fill="#714137" style="stroke:#E7E7E7;stroke-width:0.5;"/><text fill="#FFFFFF" font-family="sans-serif" font-size="13" lengthAdjust="spacing" textLength="224" x="716" y="525.0251">student obtained via the framework's</text><text fill="#FFFFFF" font-family="sans-serif" font-size="13" lengthAdjust="spacing" textLength="214" x="716" y="542.7311">Authz package + StudentRepository</text><polygon fill="#E7E7E7" points="444.5,606.2461,434.5,610.2461,444.5,614.2461,440.5,610.2461" style="stroke:#E7E7E7;stroke-width:1.0;"/><line style="stroke:#E7E7E7;stroke-width:1.0;stroke-dasharray:2.0,2.0;" x1="438.5" x2="599" y1="610.2461" y2="610.2461"/><text fill="#FFFFFF" font-family="sans-serif" font-size="13" lengthAdjust="spacing" textLength="47" x="450.5" y="604.4371">student</text><polygon fill="#E7E7E7" points="796,637.9521,806,641.9521,796,645.9521,800,641.9521" style="stroke:#E7E7E7;stroke-width:1.0;"/><line style="stroke:#E7E7E7;stroke-width:1.0;stroke-dasharray:2.0,2.0;" x1="433.5" x2="802" y1="641.9521" y2="641.9521"/><text fill="#FFFFFF" font-family="sans-serif" font-size="13" lengthAdjust="spacing" textLength="208" x="440.5" y="636.1431">studentCanRequestEnroll(student)</text><polygon fill="#E7E7E7" points="1236.5,669.6582,1246.5,673.6582,1236.5,677.6582,1240.5,673.6582" style="stroke:#E7E7E7;stroke-width:1.0;"/><line style="stroke:#E7E7E7;stroke-width:1.0;stroke-dasharray:2.0,2.0;" x1="818" x2="1242.5" y1="673.6582" y2="673.6582"/><text fill="#FFFFFF" font-family="sans-serif" font-size="13" lengthAdjust="spacing" textLength="67" x="825" y="667.8492">enrollable()</text><polygon fill="#E7E7E7" points="1616,731.3642,1626,735.3642,1616,739.3642,1620,735.3642" style="stroke:#E7E7E7;stroke-width:1.0;"/><line style="stroke:#E7E7E7;stroke-width:1.0;stroke-dasharray:2.0,2.0;" x1="818" x2="1622" y1="735.3642" y2="735.3642"/><text fill="#FFFFFF" font-family="sans-serif" font-size="13" lengthAdjust="spacing" textLength="212" x="825" y="729.5552">coursesOfEnrolledStudent(student)</text><line style="stroke:#E7E7E7;stroke-width:1.0;stroke-dasharray:2.0,2.0;" x1="818" x2="860" y1="797.0702" y2="797.0702"/><line style="stroke:#E7E7E7;stroke-width:1.0;stroke-dasharray:2.0,2.0;" x1="860" x2="860" y1="797.0702" y2="810.0702"/><line style="stroke:#E7E7E7;stroke-width:1.0;stroke-dasharray:2.0,2.0;" x1="819" x2="860" y1="810.0702" y2="810.0702"/><polygon fill="#E7E7E7" points="829,806.0702,819,810.0702,829,814.0702,825,810.0702" style="stroke:#E7E7E7;stroke-width:1.0;"/><text fill="#FFFFFF" font-family="sans-serif" font-size="13" lengthAdjust="spacing" textLength="114" x="825" y="791.2612">calculate difference</text><polygon fill="#E7E7E7" points="444.5,837.7762,434.5,841.7762,444.5,845.7762,440.5,841.7762" style="stroke:#E7E7E7;stroke-width:1.0;"/><line style="stroke:#E7E7E7;stroke-width:1.0;stroke-dasharray:2.0,2.0;" x1="438.5" x2="812" y1="841.7762" y2="841.7762"/><text fill="#FFFFFF" font-family="sans-serif" font-size="13" lengthAdjust="spacing" textLength="46" x="450.5" y="835.9672">courses</text><polygon fill="#E7E7E7" points="215.5,869.4822,205.5,873.4822,215.5,877.4822,211.5,873.4822" style="stroke:#E7E7E7;stroke-width:1.0;"/><line style="stroke:#E7E7E7;stroke-width:1.0;stroke-dasharray:2.0,2.0;" x1="209.5" x2="427.5" y1="873.4822" y2="873.4822"/><text fill="#FFFFFF" font-family="sans-serif" font-size="13" lengthAdjust="spacing" textLength="46" x="221.5" y="867.6732">courses</text><polygon fill="#E7E7E7" points="45.5,901.1882,35.5,905.1882,45.5,909.1882,41.5,905.1882" style="stroke:#E7E7E7;stroke-width:1.0;"/><line style="stroke:#E7E7E7;stroke-width:1.0;stroke-dasharray:2.0,2.0;" x1="39.5" x2="198.5" y1="905.1882" y2="905.1882"/><text fill="#FFFFFF" font-family="sans-serif" font-size="13" lengthAdjust="spacing" textLength="81" x="51.5" y="899.3792">show courses</text><polygon fill="#E7E7E7" points="182.5,932.8943,192.5,936.8943,182.5,940.8943,186.5,936.8943" style="stroke:#E7E7E7;stroke-width:1.0;"/><line style="stroke:#E7E7E7;stroke-width:1.0;stroke-dasharray:2.0,2.0;" x1="34.5" x2="188.5" y1="936.8943" y2="936.8943"/><text fill="#FFFFFF" font-family="sans-serif" font-size="13" lengthAdjust="spacing" textLength="135" x="41.5" y="931.0853">selects course from list</text><polygon fill="#E7E7E7" points="411.5,964.6003,421.5,968.6003,411.5,972.6003,415.5,968.6003" style="stroke:#E7E7E7;stroke-width:1.0;"/><line style="stroke:#E7E7E7;stroke-width:1.0;stroke-dasharray:2.0,2.0;" x1="204.5" x2="417.5" y1="968.6003" y2="968.6003"/><text fill="#FFFFFF" font-family="sans-serif" font-size="13" lengthAdjust="spacing" textLength="200" x="211.5" y="962.7913">createEnrollmentRequest(course)</text><polygon fill="#E7E7E7" points="583,996.3063,593,1000.3063,583,1004.3063,587,1000.3063" style="stroke:#E7E7E7;stroke-width:1.0;"/><line style="stroke:#E7E7E7;stroke-width:1.0;stroke-dasharray:2.0,2.0;" x1="433.5" x2="589" y1="1000.3063" y2="1000.3063"/><text fill="#FFFFFF" font-family="sans-serif" font-size="13" lengthAdjust="spacing" textLength="100" x="440.5" y="994.4973">currentStudent()</text><polygon fill="#E7E7E7" points="683,1039.8653,693,1043.8653,683,1047.8653,687,1043.8653" style="stroke:#E7E7E7;stroke-width:1.0;"/><line style="stroke:#E7E7E7;stroke-width:1.0;stroke-dasharray:2.0,2.0;" x1="605" x2="689" y1="1043.8653" y2="1043.8653"/><text fill="#FFFFFF" font-family="sans-serif" font-size="13" lengthAdjust="spacing" textLength="28" x="612" y="1038.0563">get()</text><path d="M710,1013.3063 L710,1058.3063 L955,1058.3063 L955,1023.3063 L945,1013.3063 L710,1013.3063 " fill="#714137" style="stroke:#E7E7E7;stroke-width:0.5;"/><path d="M945,1013.3063 L945,1023.3063 L955,1023.3063 L945,1013.3063 " fill="#714137" style="stroke:#E7E7E7;stroke-width:0.5;"/><text fill="#FFFFFF" font-family="sans-serif" font-size="13" lengthAdjust="spacing" textLength="224" x="716" y="1032.2033">student obtained via the framework's</text><text fill="#FFFFFF" font-family="sans-serif" font-size="13" lengthAdjust="spacing" textLength="214" x="716" y="1049.9093">Authz package + StudentRepository</text><polygon fill="#E7E7E7" points="444.5,1113.4243,434.5,1117.4243,444.5,1121.4243,440.5,1117.4243" style="stroke:#E7E7E7;stroke-width:1.0;"/><line style="stroke:#E7E7E7;stroke-width:1.0;stroke-dasharray:2.0,2.0;" x1="438.5" x2="599" y1="1117.4243" y2="1117.4243"/><text fill="#FFFFFF" font-family="sans-serif" font-size="13" lengthAdjust="spacing" textLength="47" x="450.5" y="1111.6153">student</text><polygon fill="#E7E7E7" points="1777,1145.1304,1787,1149.1304,1777,1153.1304,1781,1149.1304" style="stroke:#E7E7E7;stroke-width:1.0;"/><line style="stroke:#E7E7E7;stroke-width:1.0;stroke-dasharray:2.0,2.0;" x1="433.5" x2="1783" y1="1149.1304" y2="1149.1304"/><text fill="#FFFFFF" font-family="sans-serif" font-size="13" lengthAdjust="spacing" textLength="372" x="440.5" y="1143.3214">enrollmentRequest = new EnrollmentRequest(course, student)</text><polygon fill="#E7E7E7" points="1419.5,1206.8364,1429.5,1210.8364,1419.5,1214.8364,1423.5,1210.8364" style="stroke:#E7E7E7;stroke-width:1.0;"/><line style="stroke:#E7E7E7;stroke-width:1.0;stroke-dasharray:2.0,2.0;" x1="433.5" x2="1425.5" y1="1210.8364" y2="1210.8364"/><text fill="#FFFFFF" font-family="sans-serif" font-size="13" lengthAdjust="spacing" textLength="150" x="440.5" y="1205.0274">save(enrollmentRequest)</text><polygon fill="#E7E7E7" points="45.5,1268.5424,35.5,1272.5424,45.5,1276.5424,41.5,1272.5424" style="stroke:#E7E7E7;stroke-width:1.0;"/><line style="stroke:#E7E7E7;stroke-width:1.0;stroke-dasharray:2.0,2.0;" x1="39.5" x2="198.5" y1="1272.5424" y2="1272.5424"/><text fill="#FFFFFF" font-family="sans-serif" font-size="13" lengthAdjust="spacing" textLength="136" x="51.5" y="1266.7334">show success message</text><!--SRC=[xLRDYjim4BxxANHhIhil46YXX1OAMrfssLiXQEL98jQnN4bsd3vzHvP_95kIGodqiZai6yryyp_VX38j97dKTGwb9bIHMe7CAYerPxoY-FQvbA8epYX-W5yrAFtqjTFZQQsTABLv0ccqcPP5vW6-NP_GqoF8XZCO7EzLmpmj9p1b__N4zzmuggK2vLXYzgKpvgd_0AaG0IK34nwqsiRMUbeFK0d5iIpNBzHKvsgK95Jx0_M3ivudzSdt7jL5kZu-34OnGZjvsaGKYvYqtx2tB3Fb9tTt7x6nMrJGE0KPfiyRgi4qc-2dvfs6QUQMC0aeshpj9ADcrsZIVyoN7j6IhQcX3Pk3wd4pR3i-MdZReVlQavdF1NxeaIlC8IfsHCRpCch7hvseKD0XfmEmItqQYDK4tE69915I2UIOIWRc8_5NUKKcTZN7sAH7ybrJZ_JNwwsXdjduOfX7q7Ovw7C1Ew_1AzCyC9N9jPOIO-jfAbJ7aTRS14SBnbnFR3QaMDa6zekKAIGkXIaAFvwCwS69UDQKbv2JXbEYJq0EafxX8kJB6_Mp_5JhqszIKVP2Zq3U3VGxyKqyYxwgyq2S6CTA1FXXOkp9newM_O3QFctwzn1pE8plCOXZTxcCCBR_7oraqlUCfYTM-Nwm-K4-ZD4YqVW6tRWvQy7v3M2qO7LXZEJyS01f3cOQRflVFsVHCgb8_t4pVNHgVxjBXLDo4fSHuuuPdnqp1GKmFPnc77Xn9WN-34YTjv765lTpOysy4iL_88hWsGbTDFA1b70XiUQz9t4g2Vmskkai1QOwVY8LRM2pYFgcQABdBwLwwpgfcZ5GYfpn3pRMNwi_]--></g></svg>