<?xml version="1.0" encoding="us-ascii" standalone="no"?><svg xmlns="http://www.w3.org/2000/svg" xmlns:xlink="http://www.w3.org/1999/xlink" contentStyleType="text/css" height="1299px" preserveAspectRatio="none" style="width:1872px;height:1299px;background:#FFFFFF;" version="1.1" viewBox="0 0 1872 1299" width="1872px" zoomAndPan="magnify"><defs/><g><rect fill="#FFFFFF" height="799.7083" style="stroke:#181818;stroke-width:1.0;" width="10" x="194.5" y="117.7739"/><rect fill="#FFFFFF" height="248.5301" style="stroke:#181818;stroke-width:1.0;" width="10" x="194.5" y="949.1882"/><rect fill="#FFFFFF" height="373.6481" style="stroke:#181818;stroke-width:1.0;" width="10" x="423.5" y="149.4799"/><rect fill="#FFFFFF" height="330.9421" style="stroke:#181818;stroke-width:1.0;" width="10" x="423.5" y="554.8341"/><rect fill="#FFFFFF" height="185.118" style="stroke:#181818;stroke-width:1.0;" width="10" x="423.5" y="980.8943"/><rect fill="#FFFFFF" height="199.8241" style="stroke:#181818;stroke-width:1.0;" width="10" x="660.5" y="654.2461"/><rect fill="#FFFFFF" height="61.706" style="stroke:#181818;stroke-width:1.0;" width="10" x="811" y="181.186"/><rect fill="#FFFFFF" height="30" style="stroke:#181818;stroke-width:1.0;" width="10" x="958.5" y="212.892"/><rect fill="#FFFFFF" height="61.706" style="stroke:#181818;stroke-width:1.0;" width="10" x="958.5" y="274.598"/><rect fill="#FFFFFF" height="61.706" style="stroke:#181818;stroke-width:1.0;" width="10" x="958.5" y="368.01"/><rect fill="#FFFFFF" height="61.706" style="stroke:#181818;stroke-width:1.0;" width="10" x="958.5" y="461.4221"/><rect fill="#FFFFFF" height="30" style="stroke:#181818;stroke-width:1.0;" width="10" x="1101" y="306.304"/><rect fill="#FFFFFF" height="30" style="stroke:#181818;stroke-width:1.0;" width="10" x="1101" y="685.9521"/><rect fill="#FFFFFF" height="30" style="stroke:#181818;stroke-width:1.0;" width="10" x="1284" y="399.716"/><rect fill="#FFFFFF" height="30" style="stroke:#181818;stroke-width:1.0;" width="10" x="1284" y="1136.0123"/><rect fill="#FFFFFF" height="30" style="stroke:#181818;stroke-width:1.0;" width="10" x="1470" y="493.1281"/><rect fill="#FFFFFF" height="30" style="stroke:#181818;stroke-width:1.0;" width="10" x="1470" y="589.5401"/><rect fill="#FFFFFF" height="30" style="stroke:#181818;stroke-width:1.0;" width="10" x="1470" y="1012.6003"/><rect fill="#FFFFFF" height="30" style="stroke:#181818;stroke-width:1.0;" width="10" x="1628.5" y="747.6582"/><rect fill="#FFFFFF" height="30" style="stroke:#181818;stroke-width:1.0;" width="10" x="1789.5" y="1074.3063"/><line style="stroke:#181818;stroke-width:0.5;stroke-dasharray:5.0,5.0;" x1="34" x2="34" y1="84.0679" y2="1215.7183"/><line style="stroke:#181818;stroke-width:0.5;stroke-dasharray:5.0,5.0;" x1="199.5" x2="199.5" y1="84.0679" y2="1215.7183"/><line style="stroke:#181818;stroke-width:0.5;stroke-dasharray:5.0,5.0;" x1="428.5" x2="428.5" y1="84.0679" y2="1215.7183"/><line style="stroke:#181818;stroke-width:0.5;stroke-dasharray:5.0,5.0;" x1="665" x2="665" y1="84.0679" y2="1215.7183"/><line style="stroke:#181818;stroke-width:0.5;stroke-dasharray:5.0,5.0;" x1="816" x2="816" y1="84.0679" y2="1215.7183"/><line style="stroke:#181818;stroke-width:0.5;stroke-dasharray:5.0,5.0;" x1="963" x2="963" y1="84.0679" y2="1215.7183"/><line style="stroke:#181818;stroke-width:0.5;stroke-dasharray:5.0,5.0;" x1="1106" x2="1106" y1="84.0679" y2="1215.7183"/><line style="stroke:#181818;stroke-width:0.5;stroke-dasharray:5.0,5.0;" x1="1289" x2="1289" y1="84.0679" y2="1215.7183"/><line style="stroke:#181818;stroke-width:0.5;stroke-dasharray:5.0,5.0;" x1="1475" x2="1475" y1="84.0679" y2="1215.7183"/><line style="stroke:#181818;stroke-width:0.5;stroke-dasharray:5.0,5.0;" x1="1633" x2="1633" y1="84.0679" y2="1215.7183"/><line style="stroke:#181818;stroke-width:0.5;stroke-dasharray:5.0,5.0;" x1="1794" x2="1794" y1="84.0679" y2="1215.7183"/><text fill="#000000" font-family="sans-serif" font-size="14" lengthAdjust="spacing" textLength="53" x="5" y="79.9659">Student</text><ellipse cx="34.5" cy="13.5" fill="#E2E2F0" rx="8" ry="8" style="stroke:#181818;stroke-width:0.5;"/><path d="M34.5,21.5 L34.5,48.5 M21.5,29.5 L47.5,29.5 M34.5,48.5 L21.5,63.5 M34.5,48.5 L47.5,63.5 " fill="none" style="stroke:#181818;stroke-width:0.5;"/><text fill="#000000" font-family="sans-serif" font-size="14" lengthAdjust="spacing" textLength="53" x="5" y="1229.6843">Student</text><ellipse cx="34.5" cy="1242.2862" fill="#E2E2F0" rx="8" ry="8" style="stroke:#181818;stroke-width:0.5;"/><path d="M34.5,1250.2862 L34.5,1277.2862 M21.5,1258.2862 L47.5,1258.2862 M34.5,1277.2862 L21.5,1292.2862 M34.5,1277.2862 L47.5,1292.2862 " fill="none" style="stroke:#181818;stroke-width:0.5;"/><rect fill="#E2E2F0" height="33.0679" rx="2.5" ry="2.5" style="stroke:#181818;stroke-width:0.5;" width="158" x="120.5" y="50"/><text fill="#000000" font-family="sans-serif" font-size="14" lengthAdjust="spacing" textLength="144" x="127.5" y="71.9659">EnrollmentRequestUI</text><rect fill="#E2E2F0" height="33.0679" rx="2.5" ry="2.5" style="stroke:#181818;stroke-width:0.5;" width="158" x="120.5" y="1214.7183"/><text fill="#000000" font-family="sans-serif" font-size="14" lengthAdjust="spacing" textLength="144" x="127.5" y="1236.6843">EnrollmentRequestUI</text><rect fill="#E2E2F0" height="33.0679" rx="2.5" ry="2.5" style="stroke:#181818;stroke-width:0.5;" width="210" x="323.5" y="50"/><text fill="#000000" font-family="sans-serif" font-size="14" lengthAdjust="spacing" textLength="196" x="330.5" y="71.9659">EnrollmentRequestController</text><rect fill="#E2E2F0" height="33.0679" rx="2.5" ry="2.5" style="stroke:#181818;stroke-width:0.5;" width="210" x="323.5" y="1214.7183"/><text fill="#000000" font-family="sans-serif" font-size="14" lengthAdjust="spacing" textLength="196" x="330.5" y="1236.6843">EnrollmentRequestController</text><rect fill="#E2E2F0" height="33.0679" rx="2.5" ry="2.5" style="stroke:#181818;stroke-width:0.5;" width="139" x="596" y="50"/><text fill="#000000" font-family="sans-serif" font-size="14" lengthAdjust="spacing" textLength="125" x="603" y="71.9659">ListCoursesService</text><rect fill="#E2E2F0" height="33.0679" rx="2.5" ry="2.5" style="stroke:#181818;stroke-width:0.5;" width="139" x="596" y="1214.7183"/><text fill="#000000" font-family="sans-serif" font-size="14" lengthAdjust="spacing" textLength="125" x="603" y="1236.6843">ListCoursesService</text><rect fill="#E2E2F0" height="33.0679" rx="2.5" ry="2.5" style="stroke:#181818;stroke-width:0.5;" width="142" x="745" y="50"/><text fill="#000000" font-family="sans-serif" font-size="14" lengthAdjust="spacing" textLength="128" x="752" y="71.9659">PersistenceContext</text><rect fill="#E2E2F0" height="33.0679" rx="2.5" ry="2.5" style="stroke:#181818;stroke-width:0.5;" width="142" x="745" y="1214.7183"/><text fill="#000000" font-family="sans-serif" font-size="14" lengthAdjust="spacing" textLength="128" x="752" y="1236.6843">PersistenceContext</text><rect fill="#E2E2F0" height="33.0679" rx="2.5" ry="2.5" style="stroke:#181818;stroke-width:0.5;" width="133" x="897" y="50"/><text fill="#000000" font-family="sans-serif" font-size="14" lengthAdjust="spacing" textLength="119" x="904" y="71.9659">RepositoryFactory</text><rect fill="#E2E2F0" height="33.0679" rx="2.5" ry="2.5" style="stroke:#181818;stroke-width:0.5;" width="133" x="897" y="1214.7183"/><text fill="#000000" font-family="sans-serif" font-size="14" lengthAdjust="spacing" textLength="119" x="904" y="1236.6843">RepositoryFactory</text><rect fill="#E2E2F0" height="33.0679" rx="2.5" ry="2.5" style="stroke:#181818;stroke-width:0.5;" width="132" x="1040" y="50"/><text fill="#000000" font-family="sans-serif" font-size="14" lengthAdjust="spacing" textLength="118" x="1047" y="71.9659">CourseRepository</text><rect fill="#E2E2F0" height="33.0679" rx="2.5" ry="2.5" style="stroke:#181818;stroke-width:0.5;" width="132" x="1040" y="1214.7183"/><text fill="#000000" font-family="sans-serif" font-size="14" lengthAdjust="spacing" textLength="118" x="1047" y="1236.6843">CourseRepository</text><rect fill="#E2E2F0" height="33.0679" rx="2.5" ry="2.5" style="stroke:#181818;stroke-width:0.5;" width="214" x="1182" y="50"/><text fill="#000000" font-family="sans-serif" font-size="14" lengthAdjust="spacing" textLength="200" x="1189" y="71.9659">EnrollmentRequestRepository</text><rect fill="#E2E2F0" height="33.0679" rx="2.5" ry="2.5" style="stroke:#181818;stroke-width:0.5;" width="214" x="1182" y="1214.7183"/><text fill="#000000" font-family="sans-serif" font-size="14" lengthAdjust="spacing" textLength="200" x="1189" y="1236.6843">EnrollmentRequestRepository</text><rect fill="#E2E2F0" height="33.0679" rx="2.5" ry="2.5" style="stroke:#181818;stroke-width:0.5;" width="138" x="1406" y="50"/><text fill="#000000" font-family="sans-serif" font-size="14" lengthAdjust="spacing" textLength="124" x="1413" y="71.9659">StudentRepository</text><rect fill="#E2E2F0" height="33.0679" rx="2.5" ry="2.5" style="stroke:#181818;stroke-width:0.5;" width="138" x="1406" y="1214.7183"/><text fill="#000000" font-family="sans-serif" font-size="14" lengthAdjust="spacing" textLength="124" x="1413" y="1236.6843">StudentRepository</text><rect fill="#E2E2F0" height="33.0679" rx="2.5" ry="2.5" style="stroke:#181818;stroke-width:0.5;" width="159" x="1554" y="50"/><text fill="#000000" font-family="sans-serif" font-size="14" lengthAdjust="spacing" textLength="145" x="1561" y="71.9659">EnrollmentRepository</text><rect fill="#E2E2F0" height="33.0679" rx="2.5" ry="2.5" style="stroke:#181818;stroke-width:0.5;" width="159" x="1554" y="1214.7183"/><text fill="#000000" font-family="sans-serif" font-size="14" lengthAdjust="spacing" textLength="145" x="1561" y="1236.6843">EnrollmentRepository</text><rect fill="#E2E2F0" height="33.0679" rx="2.5" ry="2.5" style="stroke:#181818;stroke-width:0.5;" width="143" x="1723" y="50"/><text fill="#000000" font-family="sans-serif" font-size="14" lengthAdjust="spacing" textLength="129" x="1730" y="71.9659">EnrollmentRequest</text><rect fill="#E2E2F0" height="33.0679" rx="2.5" ry="2.5" style="stroke:#181818;stroke-width:0.5;" width="143" x="1723" y="1214.7183"/><text fill="#000000" font-family="sans-serif" font-size="14" lengthAdjust="spacing" textLength="129" x="1730" y="1236.6843">EnrollmentRequest</text><rect fill="#FFFFFF" height="799.7083" style="stroke:#181818;stroke-width:1.0;" width="10" x="194.5" y="117.7739"/><rect fill="#FFFFFF" height="248.5301" style="stroke:#181818;stroke-width:1.0;" width="10" x="194.5" y="949.1882"/><rect fill="#FFFFFF" height="373.6481" style="stroke:#181818;stroke-width:1.0;" width="10" x="423.5" y="149.4799"/><rect fill="#FFFFFF" height="330.9421" style="stroke:#181818;stroke-width:1.0;" width="10" x="423.5" y="554.8341"/><rect fill="#FFFFFF" height="185.118" style="stroke:#181818;stroke-width:1.0;" width="10" x="423.5" y="980.8943"/><rect fill="#FFFFFF" height="199.8241" style="stroke:#181818;stroke-width:1.0;" width="10" x="660.5" y="654.2461"/><rect fill="#FFFFFF" height="61.706" style="stroke:#181818;stroke-width:1.0;" width="10" x="811" y="181.186"/><rect fill="#FFFFFF" height="30" style="stroke:#181818;stroke-width:1.0;" width="10" x="958.5" y="212.892"/><rect fill="#FFFFFF" height="61.706" style="stroke:#181818;stroke-width:1.0;" width="10" x="958.5" y="274.598"/><rect fill="#FFFFFF" height="61.706" style="stroke:#181818;stroke-width:1.0;" width="10" x="958.5" y="368.01"/><rect fill="#FFFFFF" height="61.706" style="stroke:#181818;stroke-width:1.0;" width="10" x="958.5" y="461.4221"/><rect fill="#FFFFFF" height="30" style="stroke:#181818;stroke-width:1.0;" width="10" x="1101" y="306.304"/><rect fill="#FFFFFF" height="30" style="stroke:#181818;stroke-width:1.0;" width="10" x="1101" y="685.9521"/><rect fill="#FFFFFF" height="30" style="stroke:#181818;stroke-width:1.0;" width="10" x="1284" y="399.716"/><rect fill="#FFFFFF" height="30" style="stroke:#181818;stroke-width:1.0;" width="10" x="1284" y="1136.0123"/><rect fill="#FFFFFF" height="30" style="stroke:#181818;stroke-width:1.0;" width="10" x="1470" y="493.1281"/><rect fill="#FFFFFF" height="30" style="stroke:#181818;stroke-width:1.0;" width="10" x="1470" y="589.5401"/><rect fill="#FFFFFF" height="30" style="stroke:#181818;stroke-width:1.0;" width="10" x="1470" y="1012.6003"/><rect fill="#FFFFFF" height="30" style="stroke:#181818;stroke-width:1.0;" width="10" x="1628.5" y="747.6582"/><rect fill="#FFFFFF" height="30" style="stroke:#181818;stroke-width:1.0;" width="10" x="1789.5" y="1074.3063"/><polygon fill="#181818" points="182.5,113.7739,192.5,117.7739,182.5,121.7739,186.5,117.7739" style="stroke:#181818;stroke-width:1.0;"/><line style="stroke:#181818;stroke-width:1.0;stroke-dasharray:2.0,2.0;" x1="34.5" x2="188.5" y1="117.7739" y2="117.7739"/><text fill="#000000" font-family="sans-serif" font-size="13" lengthAdjust="spacing" textLength="32" x="41.5" y="111.9649">enter</text><polygon fill="#181818" points="411.5,145.4799,421.5,149.4799,411.5,153.4799,415.5,149.4799" style="stroke:#181818;stroke-width:1.0;"/><line style="stroke:#181818;stroke-width:1.0;stroke-dasharray:2.0,2.0;" x1="204.5" x2="417.5" y1="149.4799" y2="149.4799"/><text fill="#000000" font-family="sans-serif" font-size="13" lengthAdjust="spacing" textLength="45" x="211.5" y="143.6709">create()</text><polygon fill="#181818" points="799,177.186,809,181.186,799,185.186,803,181.186" style="stroke:#181818;stroke-width:1.0;"/><line style="stroke:#181818;stroke-width:1.0;stroke-dasharray:2.0,2.0;" x1="433.5" x2="805" y1="181.186" y2="181.186"/><text fill="#000000" font-family="sans-serif" font-size="13" lengthAdjust="spacing" textLength="79" x="440.5" y="175.377">repositories()</text><polygon fill="#181818" points="946.5,208.892,956.5,212.892,946.5,216.892,950.5,212.892" style="stroke:#181818;stroke-width:1.0;"/><line style="stroke:#181818;stroke-width:1.0;stroke-dasharray:2.0,2.0;" x1="821" x2="952.5" y1="212.892" y2="212.892"/><text fill="#000000" font-family="sans-serif" font-size="13" lengthAdjust="spacing" textLength="45" x="828" y="207.083">create()</text><polygon fill="#181818" points="946.5,270.598,956.5,274.598,946.5,278.598,950.5,274.598" style="stroke:#181818;stroke-width:1.0;"/><line style="stroke:#181818;stroke-width:1.0;stroke-dasharray:2.0,2.0;" x1="433.5" x2="952.5" y1="274.598" y2="274.598"/><text fill="#000000" font-family="sans-serif" font-size="13" lengthAdjust="spacing" textLength="54" x="440.5" y="268.789">courses()</text><polygon fill="#181818" points="1089,302.304,1099,306.304,1089,310.304,1093,306.304" style="stroke:#181818;stroke-width:1.0;"/><line style="stroke:#181818;stroke-width:1.0;stroke-dasharray:2.0,2.0;" x1="968.5" x2="1095" y1="306.304" y2="306.304"/><text fill="#000000" font-family="sans-serif" font-size="13" lengthAdjust="spacing" textLength="45" x="975.5" y="300.495">create()</text><polygon fill="#181818" points="946.5,364.01,956.5,368.01,946.5,372.01,950.5,368.01" style="stroke:#181818;stroke-width:1.0;"/><line style="stroke:#181818;stroke-width:1.0;stroke-dasharray:2.0,2.0;" x1="433.5" x2="952.5" y1="368.01" y2="368.01"/><text fill="#000000" font-family="sans-serif" font-size="13" lengthAdjust="spacing" textLength="129" x="440.5" y="362.201">enrollmentRequests()</text><polygon fill="#181818" points="1272,395.716,1282,399.716,1272,403.716,1276,399.716" style="stroke:#181818;stroke-width:1.0;"/><line style="stroke:#181818;stroke-width:1.0;stroke-dasharray:2.0,2.0;" x1="968.5" x2="1278" y1="399.716" y2="399.716"/><text fill="#000000" font-family="sans-serif" font-size="13" lengthAdjust="spacing" textLength="45" x="975.5" y="393.907">create()</text><polygon fill="#181818" points="946.5,457.4221,956.5,461.4221,946.5,465.4221,950.5,461.4221" style="stroke:#181818;stroke-width:1.0;"/><line style="stroke:#181818;stroke-width:1.0;stroke-dasharray:2.0,2.0;" x1="433.5" x2="952.5" y1="461.4221" y2="461.4221"/><text fill="#000000" font-family="sans-serif" font-size="13" lengthAdjust="spacing" textLength="61" x="440.5" y="455.6131">students()</text><polygon fill="#181818" points="1458,489.1281,1468,493.1281,1458,497.1281,1462,493.1281" style="stroke:#181818;stroke-width:1.0;"/><line style="stroke:#181818;stroke-width:1.0;stroke-dasharray:2.0,2.0;" x1="968.5" x2="1464" y1="493.1281" y2="493.1281"/><text fill="#000000" font-family="sans-serif" font-size="13" lengthAdjust="spacing" textLength="45" x="975.5" y="487.3191">create()</text><polygon fill="#181818" points="411.5,550.8341,421.5,554.8341,411.5,558.8341,415.5,554.8341" style="stroke:#181818;stroke-width:1.0;"/><line style="stroke:#181818;stroke-width:1.0;stroke-dasharray:2.0,2.0;" x1="204.5" x2="417.5" y1="554.8341" y2="554.8341"/><text fill="#000000" font-family="sans-serif" font-size="13" lengthAdjust="spacing" textLength="135" x="211.5" y="549.0251">getEnrollableCourses()</text><polygon fill="#181818" points="1458,585.5401,1468,589.5401,1458,593.5401,1462,589.5401" style="stroke:#181818;stroke-width:1.0;"/><line style="stroke:#181818;stroke-width:1.0;stroke-dasharray:2.0,2.0;" x1="433.5" x2="1464" y1="589.5401" y2="589.5401"/><text fill="#000000" font-family="sans-serif" font-size="13" lengthAdjust="spacing" textLength="249" x="440.5" y="583.7311">student = findBySystemUser(systemUser)</text><path d="M169,567.8341 L169,594.8341 L418,594.8341 L418,577.8341 L408,567.8341 L169,567.8341 " fill="#FEFFDD" style="stroke:#181818;stroke-width:0.5;"/><path d="M408,567.8341 L408,577.8341 L418,577.8341 L408,567.8341 " fill="#FEFFDD" style="stroke:#181818;stroke-width:0.5;"/><text fill="#000000" font-family="sans-serif" font-size="13" lengthAdjust="spacing" textLength="228" x="175" y="586.7311">systemUser is taken from user session</text><polygon fill="#181818" points="648.5,650.2461,658.5,654.2461,648.5,658.2461,652.5,654.2461" style="stroke:#181818;stroke-width:1.0;"/><line style="stroke:#181818;stroke-width:1.0;stroke-dasharray:2.0,2.0;" x1="433.5" x2="654.5" y1="654.2461" y2="654.2461"/><text fill="#000000" font-family="sans-serif" font-size="13" lengthAdjust="spacing" textLength="208" x="440.5" y="648.4371">studentCanRequestEnroll(student)</text><polygon fill="#181818" points="1089,681.9521,1099,685.9521,1089,689.9521,1093,685.9521" style="stroke:#181818;stroke-width:1.0;"/><line style="stroke:#181818;stroke-width:1.0;stroke-dasharray:2.0,2.0;" x1="670.5" x2="1095" y1="685.9521" y2="685.9521"/><text fill="#000000" font-family="sans-serif" font-size="13" lengthAdjust="spacing" textLength="67" x="677.5" y="680.1431">enrollable()</text><polygon fill="#181818" points="1616.5,743.6582,1626.5,747.6582,1616.5,751.6582,1620.5,747.6582" style="stroke:#181818;stroke-width:1.0;"/><line style="stroke:#181818;stroke-width:1.0;stroke-dasharray:2.0,2.0;" x1="670.5" x2="1622.5" y1="747.6582" y2="747.6582"/><text fill="#000000" font-family="sans-serif" font-size="13" lengthAdjust="spacing" textLength="212" x="677.5" y="741.8492">coursesOfEnrolledStudent(student)</text><line style="stroke:#181818;stroke-width:1.0;stroke-dasharray:2.0,2.0;" x1="670.5" x2="712.5" y1="809.3642" y2="809.3642"/><line style="stroke:#181818;stroke-width:1.0;stroke-dasharray:2.0,2.0;" x1="712.5" x2="712.5" y1="809.3642" y2="822.3642"/><line style="stroke:#181818;stroke-width:1.0;stroke-dasharray:2.0,2.0;" x1="671.5" x2="712.5" y1="822.3642" y2="822.3642"/><polygon fill="#181818" points="681.5,818.3642,671.5,822.3642,681.5,826.3642,677.5,822.3642" style="stroke:#181818;stroke-width:1.0;"/><text fill="#000000" font-family="sans-serif" font-size="13" lengthAdjust="spacing" textLength="114" x="677.5" y="803.5552">calculate difference</text><polygon fill="#181818" points="444.5,850.0702,434.5,854.0702,444.5,858.0702,440.5,854.0702" style="stroke:#181818;stroke-width:1.0;"/><line style="stroke:#181818;stroke-width:1.0;stroke-dasharray:2.0,2.0;" x1="438.5" x2="664.5" y1="854.0702" y2="854.0702"/><text fill="#000000" font-family="sans-serif" font-size="13" lengthAdjust="spacing" textLength="46" x="450.5" y="848.2612">courses</text><polygon fill="#181818" points="215.5,881.7762,205.5,885.7762,215.5,889.7762,211.5,885.7762" style="stroke:#181818;stroke-width:1.0;"/><line style="stroke:#181818;stroke-width:1.0;stroke-dasharray:2.0,2.0;" x1="209.5" x2="427.5" y1="885.7762" y2="885.7762"/><text fill="#000000" font-family="sans-serif" font-size="13" lengthAdjust="spacing" textLength="46" x="221.5" y="879.9672">courses</text><polygon fill="#181818" points="45.5,913.4822,35.5,917.4822,45.5,921.4822,41.5,917.4822" style="stroke:#181818;stroke-width:1.0;"/><line style="stroke:#181818;stroke-width:1.0;stroke-dasharray:2.0,2.0;" x1="39.5" x2="198.5" y1="917.4822" y2="917.4822"/><text fill="#000000" font-family="sans-serif" font-size="13" lengthAdjust="spacing" textLength="81" x="51.5" y="911.6732">show courses</text><polygon fill="#181818" points="182.5,945.1882,192.5,949.1882,182.5,953.1882,186.5,949.1882" style="stroke:#181818;stroke-width:1.0;"/><line style="stroke:#181818;stroke-width:1.0;stroke-dasharray:2.0,2.0;" x1="34.5" x2="188.5" y1="949.1882" y2="949.1882"/><text fill="#000000" font-family="sans-serif" font-size="13" lengthAdjust="spacing" textLength="135" x="41.5" y="943.3792">selects course from list</text><polygon fill="#181818" points="411.5,976.8943,421.5,980.8943,411.5,984.8943,415.5,980.8943" style="stroke:#181818;stroke-width:1.0;"/><line style="stroke:#181818;stroke-width:1.0;stroke-dasharray:2.0,2.0;" x1="204.5" x2="417.5" y1="980.8943" y2="980.8943"/><text fill="#000000" font-family="sans-serif" font-size="13" lengthAdjust="spacing" textLength="200" x="211.5" y="975.0853">createEnrollmentRequest(course)</text><polygon fill="#181818" points="1458,1008.6003,1468,1012.6003,1458,1016.6003,1462,1012.6003" style="stroke:#181818;stroke-width:1.0;"/><line style="stroke:#181818;stroke-width:1.0;stroke-dasharray:2.0,2.0;" x1="433.5" x2="1464" y1="1012.6003" y2="1012.6003"/><text fill="#000000" font-family="sans-serif" font-size="13" lengthAdjust="spacing" textLength="249" x="440.5" y="1006.7913">student = findBySystemUser(systemUser)</text><polygon fill="#181818" points="1777.5,1070.3063,1787.5,1074.3063,1777.5,1078.3063,1781.5,1074.3063" style="stroke:#181818;stroke-width:1.0;"/><line style="stroke:#181818;stroke-width:1.0;stroke-dasharray:2.0,2.0;" x1="433.5" x2="1783.5" y1="1074.3063" y2="1074.3063"/><text fill="#000000" font-family="sans-serif" font-size="13" lengthAdjust="spacing" textLength="372" x="440.5" y="1068.4973">enrollmentRequest = new EnrollmentRequest(course, student)</text><polygon fill="#181818" points="1272,1132.0123,1282,1136.0123,1272,1140.0123,1276,1136.0123" style="stroke:#181818;stroke-width:1.0;"/><line style="stroke:#181818;stroke-width:1.0;stroke-dasharray:2.0,2.0;" x1="433.5" x2="1278" y1="1136.0123" y2="1136.0123"/><text fill="#000000" font-family="sans-serif" font-size="13" lengthAdjust="spacing" textLength="150" x="440.5" y="1130.2033">save(enrollmentRequest)</text><polygon fill="#181818" points="45.5,1193.7183,35.5,1197.7183,45.5,1201.7183,41.5,1197.7183" style="stroke:#181818;stroke-width:1.0;"/><line style="stroke:#181818;stroke-width:1.0;stroke-dasharray:2.0,2.0;" x1="39.5" x2="198.5" y1="1197.7183" y2="1197.7183"/><text fill="#000000" font-family="sans-serif" font-size="13" lengthAdjust="spacing" textLength="136" x="51.5" y="1191.9093">show success message</text><!--SRC=[pLRDZjCm4BxdANmC4li2bU101H8I4cYhFLTUPx9Of7QndMxwzen_ciI9xPGL1tAe6iytdldcDvGPgSZ1z0q8GwWclGPLdQaodF4pnRFFGickEw7u4NxteCtJLuVZPTHU2cEFG5aqCwgh8eLlt69wfK4VG5qu0uVp9qTzOJ7y1oYD6Y0Os9jXCFxQ8K8zmbbgZeokNwWbThKW1UTZIra4z9Od-6JxY71PfXQhmIX6LITVNn7Y6ojgVrWscBM4EcKlqxvLbKqmUNZuY1dS8S1WkYiC5hzG0pQh19-UEuJDseum1IYgtpd9Y7GP9U6nBq5Z83iRSUys1ntq5hh3UEZL1wSTCaKMDbVwjupEXGranJEHjRpsUcRNrr_AwPJHcwAZFfNF9e5vgML8f209ZYKoi2o9D_7ArFScnrnVPFXkmV-IUsYkDp6UD-OcpQYBCzoIc4p1HiLgX-QY7z6X5p2-s-bp1_keOZVQSy4il98FfEMY-NGzN772dfvmGDHw_9i8u1QVf5n8b3nBO-G9BO_N4ww9eRz0a5R9ari_1FbeBaKYmRFzCFc_fo8Kk0zB7SvJasUsNw89DBjttSmmHliVDNJHzcBCJrFfU-lvGHFsoPfelWFlxBmjv-84CDgnlhENDBnjGTdrN5Rt5HoEgsoOmXV0Al_O2B5sgLrSBM6L_9IleyuCZxikNeOQEc3czY7Wwx73ZuxIUXpdmsh_rlwQ_xOlbruaHtrgYw1R0bv9Zl1xac-_nFV8NQiWKGdvjQJf1UgLrtTvaurS2Nfl2UgUCHniv8G_z0NYKlm3]--></g></svg>