<?xml version="1.0" encoding="us-ascii" standalone="no"?><svg xmlns="http://www.w3.org/2000/svg" xmlns:xlink="http://www.w3.org/1999/xlink" contentStyleType="text/css" height="979px" preserveAspectRatio="none" style="width:1878px;height:979px;background:#FFFFFF;" version="1.1" viewBox="0 0 1878 979" width="1878px" zoomAndPan="magnify"><defs/><g><rect fill="#FFFFFF" height="591.6582" style="stroke:#181818;stroke-width:1.0;" width="10" x="201.5" y="112.7988"/><rect fill="#FFFFFF" height="146.5527" style="stroke:#181818;stroke-width:1.0;" width="10" x="201.5" y="733.7676"/><rect fill="#FFFFFF" height="265.8633" style="stroke:#181818;stroke-width:1.0;" width="10" x="397.5" y="142.1094"/><rect fill="#FFFFFF" height="237.8633" style="stroke:#181818;stroke-width:1.0;" width="10" x="397.5" y="437.2832"/><rect fill="#FFFFFF" height="87.9316" style="stroke:#181818;stroke-width:1.0;" width="10" x="397.5" y="763.0781"/><rect fill="#FFFFFF" height="59.3105" style="stroke:#181818;stroke-width:1.0;" width="10" x="587.5" y="171.4199"/><rect fill="#FFFFFF" height="30" style="stroke:#181818;stroke-width:1.0;" width="10" x="739" y="200.7305"/><rect fill="#FFFFFF" height="59.3105" style="stroke:#181818;stroke-width:1.0;" width="10" x="739" y="260.041"/><rect fill="#FFFFFF" height="59.3105" style="stroke:#181818;stroke-width:1.0;" width="10" x="739" y="348.6621"/><rect fill="#FFFFFF" height="30" style="stroke:#181818;stroke-width:1.0;" width="10" x="885.5" y="289.3516"/><rect fill="#FFFFFF" height="30" style="stroke:#181818;stroke-width:1.0;" width="10" x="885.5" y="495.9043"/><rect fill="#FFFFFF" height="30" style="stroke:#181818;stroke-width:1.0;" width="10" x="1072" y="377.9727"/><rect fill="#FFFFFF" height="59.3105" style="stroke:#181818;stroke-width:1.0;" width="10" x="1261" y="466.5938"/><rect fill="#FFFFFF" height="98.6211" style="stroke:#181818;stroke-width:1.0;" width="10" x="1445" y="555.2148"/><rect fill="#FFFFFF" height="30" style="stroke:#181818;stroke-width:1.0;" width="10" x="1636" y="608.8359"/><rect fill="#FFFFFF" height="29.3105" style="stroke:#181818;stroke-width:1.0;" width="10" x="1795.5" y="792.3887"/><rect fill="none" height="76.6211" style="stroke:#000000;stroke-width:1.5;" width="392" x="1336.5" y="570.2148"/><line style="stroke:#181818;stroke-width:0.5;stroke-dasharray:5.0,5.0;" x1="34" x2="34" y1="81.4883" y2="898.3203"/><line style="stroke:#181818;stroke-width:0.5;stroke-dasharray:5.0,5.0;" x1="206.5" x2="206.5" y1="81.4883" y2="898.3203"/><line style="stroke:#181818;stroke-width:0.5;stroke-dasharray:5.0,5.0;" x1="402.5" x2="402.5" y1="81.4883" y2="898.3203"/><line style="stroke:#181818;stroke-width:0.5;stroke-dasharray:5.0,5.0;" x1="592.5" x2="592.5" y1="81.4883" y2="898.3203"/><line style="stroke:#181818;stroke-width:0.5;stroke-dasharray:5.0,5.0;" x1="743.5" x2="743.5" y1="81.4883" y2="898.3203"/><line style="stroke:#181818;stroke-width:0.5;stroke-dasharray:5.0,5.0;" x1="890.5" x2="890.5" y1="81.4883" y2="898.3203"/><line style="stroke:#181818;stroke-width:0.5;stroke-dasharray:5.0,5.0;" x1="1076.5" x2="1076.5" y1="81.4883" y2="898.3203"/><line style="stroke:#181818;stroke-width:0.5;stroke-dasharray:5.0,5.0;" x1="1265.5" x2="1265.5" y1="81.4883" y2="898.3203"/><line style="stroke:#181818;stroke-width:0.5;stroke-dasharray:5.0,5.0;" x1="1449.5" x2="1449.5" y1="81.4883" y2="898.3203"/><line style="stroke:#181818;stroke-width:0.5;stroke-dasharray:5.0,5.0;" x1="1640.5" x2="1640.5" y1="81.4883" y2="898.3203"/><line style="stroke:#181818;stroke-width:0.5;stroke-dasharray:5.0,5.0;" x1="1800.5" x2="1800.5" y1="81.4883" y2="898.3203"/><text fill="#000000" font-family="sans-serif" font-size="14" lengthAdjust="spacing" textLength="53" x="5" y="78.5352">Student</text><ellipse cx="34.5" cy="13.5" fill="#E2E2F0" rx="8" ry="8" style="stroke:#181818;stroke-width:0.5;"/><path d="M34.5,21.5 L34.5,48.5 M21.5,29.5 L47.5,29.5 M34.5,48.5 L21.5,63.5 M34.5,48.5 L47.5,63.5 " fill="none" style="stroke:#181818;stroke-width:0.5;"/><text fill="#000000" font-family="sans-serif" font-size="14" lengthAdjust="spacing" textLength="53" x="5" y="910.8555">Student</text><ellipse cx="34.5" cy="922.3086" fill="#E2E2F0" rx="8" ry="8" style="stroke:#181818;stroke-width:0.5;"/><path d="M34.5,930.3086 L34.5,957.3086 M21.5,938.3086 L47.5,938.3086 M34.5,957.3086 L21.5,972.3086 M34.5,957.3086 L47.5,972.3086 " fill="none" style="stroke:#181818;stroke-width:0.5;"/><rect fill="#E2E2F0" height="30.4883" rx="2.5" ry="2.5" style="stroke:#181818;stroke-width:0.5;" width="158" x="127.5" y="50"/><text fill="#000000" font-family="sans-serif" font-size="14" lengthAdjust="spacing" textLength="144" x="134.5" y="70.5352">EnrollmentRequestUI</text><rect fill="#E2E2F0" height="30.4883" rx="2.5" ry="2.5" style="stroke:#181818;stroke-width:0.5;" width="158" x="127.5" y="897.3203"/><text fill="#000000" font-family="sans-serif" font-size="14" lengthAdjust="spacing" textLength="144" x="134.5" y="917.8555">EnrollmentRequestUI</text><rect fill="#E2E2F0" height="30.4883" rx="2.5" ry="2.5" style="stroke:#181818;stroke-width:0.5;" width="214" x="295.5" y="50"/><text fill="#000000" font-family="sans-serif" font-size="14" lengthAdjust="spacing" textLength="200" x="302.5" y="70.5352">EnrollmentRequestController</text><rect fill="#E2E2F0" height="30.4883" rx="2.5" ry="2.5" style="stroke:#181818;stroke-width:0.5;" width="214" x="295.5" y="897.3203"/><text fill="#000000" font-family="sans-serif" font-size="14" lengthAdjust="spacing" textLength="200" x="302.5" y="917.8555">EnrollmentRequestController</text><rect fill="#E2E2F0" height="30.4883" rx="2.5" ry="2.5" style="stroke:#181818;stroke-width:0.5;" width="146" x="519.5" y="50"/><text fill="#000000" font-family="sans-serif" font-size="14" lengthAdjust="spacing" textLength="132" x="526.5" y="70.5352">PersistenceContext</text><rect fill="#E2E2F0" height="30.4883" rx="2.5" ry="2.5" style="stroke:#181818;stroke-width:0.5;" width="146" x="519.5" y="897.3203"/><text fill="#000000" font-family="sans-serif" font-size="14" lengthAdjust="spacing" textLength="132" x="526.5" y="917.8555">PersistenceContext</text><rect fill="#E2E2F0" height="30.4883" rx="2.5" ry="2.5" style="stroke:#181818;stroke-width:0.5;" width="137" x="675.5" y="50"/><text fill="#000000" font-family="sans-serif" font-size="14" lengthAdjust="spacing" textLength="123" x="682.5" y="70.5352">RepositoryFactory</text><rect fill="#E2E2F0" height="30.4883" rx="2.5" ry="2.5" style="stroke:#181818;stroke-width:0.5;" width="137" x="675.5" y="897.3203"/><text fill="#000000" font-family="sans-serif" font-size="14" lengthAdjust="spacing" textLength="123" x="682.5" y="917.8555">RepositoryFactory</text><rect fill="#E2E2F0" height="30.4883" rx="2.5" ry="2.5" style="stroke:#181818;stroke-width:0.5;" width="136" x="822.5" y="50"/><text fill="#000000" font-family="sans-serif" font-size="14" lengthAdjust="spacing" textLength="122" x="829.5" y="70.5352">CourseRepository</text><rect fill="#E2E2F0" height="30.4883" rx="2.5" ry="2.5" style="stroke:#181818;stroke-width:0.5;" width="136" x="822.5" y="897.3203"/><text fill="#000000" font-family="sans-serif" font-size="14" lengthAdjust="spacing" textLength="122" x="829.5" y="917.8555">CourseRepository</text><rect fill="#E2E2F0" height="30.4883" rx="2.5" ry="2.5" style="stroke:#181818;stroke-width:0.5;" width="217" x="968.5" y="50"/><text fill="#000000" font-family="sans-serif" font-size="14" lengthAdjust="spacing" textLength="203" x="975.5" y="70.5352">EnrollmentRequestRepository</text><rect fill="#E2E2F0" height="30.4883" rx="2.5" ry="2.5" style="stroke:#181818;stroke-width:0.5;" width="217" x="968.5" y="897.3203"/><text fill="#000000" font-family="sans-serif" font-size="14" lengthAdjust="spacing" textLength="203" x="975.5" y="917.8555">EnrollmentRequestRepository</text><rect fill="#E2E2F0" height="30.4883" rx="2.5" ry="2.5" style="stroke:#181818;stroke-width:0.5;" width="141" x="1195.5" y="50"/><text fill="#000000" font-family="sans-serif" font-size="14" lengthAdjust="spacing" textLength="127" x="1202.5" y="70.5352">ListCoursesService</text><rect fill="#E2E2F0" height="30.4883" rx="2.5" ry="2.5" style="stroke:#181818;stroke-width:0.5;" width="141" x="1195.5" y="897.3203"/><text fill="#000000" font-family="sans-serif" font-size="14" lengthAdjust="spacing" textLength="127" x="1202.5" y="917.8555">ListCoursesService</text><rect fill="#E2E2F0" height="30.4883" rx="2.5" ry="2.5" style="stroke:#181818;stroke-width:0.5;" width="207" x="1346.5" y="50"/><text fill="#000000" font-family="sans-serif" font-size="14" lengthAdjust="spacing" textLength="193" x="1353.5" y="70.5352">CourseAndStateDTOMapper</text><rect fill="#E2E2F0" height="30.4883" rx="2.5" ry="2.5" style="stroke:#181818;stroke-width:0.5;" width="207" x="1346.5" y="897.3203"/><text fill="#000000" font-family="sans-serif" font-size="14" lengthAdjust="spacing" textLength="193" x="1353.5" y="917.8555">CourseAndStateDTOMapper</text><rect fill="#E2E2F0" height="30.4883" rx="2.5" ry="2.5" style="stroke:#181818;stroke-width:0.5;" width="155" x="1563.5" y="50"/><text fill="#000000" font-family="sans-serif" font-size="14" lengthAdjust="spacing" textLength="141" x="1570.5" y="70.5352">CourseAndStateDTO</text><rect fill="#E2E2F0" height="30.4883" rx="2.5" ry="2.5" style="stroke:#181818;stroke-width:0.5;" width="155" x="1563.5" y="897.3203"/><text fill="#000000" font-family="sans-serif" font-size="14" lengthAdjust="spacing" textLength="141" x="1570.5" y="917.8555">CourseAndStateDTO</text><rect fill="#E2E2F0" height="30.4883" rx="2.5" ry="2.5" style="stroke:#181818;stroke-width:0.5;" width="144" x="1728.5" y="50"/><text fill="#000000" font-family="sans-serif" font-size="14" lengthAdjust="spacing" textLength="130" x="1735.5" y="70.5352">EnrollmentRequest</text><rect fill="#E2E2F0" height="30.4883" rx="2.5" ry="2.5" style="stroke:#181818;stroke-width:0.5;" width="144" x="1728.5" y="897.3203"/><text fill="#000000" font-family="sans-serif" font-size="14" lengthAdjust="spacing" textLength="130" x="1735.5" y="917.8555">EnrollmentRequest</text><rect fill="#FFFFFF" height="591.6582" style="stroke:#181818;stroke-width:1.0;" width="10" x="201.5" y="112.7988"/><rect fill="#FFFFFF" height="146.5527" style="stroke:#181818;stroke-width:1.0;" width="10" x="201.5" y="733.7676"/><rect fill="#FFFFFF" height="265.8633" style="stroke:#181818;stroke-width:1.0;" width="10" x="397.5" y="142.1094"/><rect fill="#FFFFFF" height="237.8633" style="stroke:#181818;stroke-width:1.0;" width="10" x="397.5" y="437.2832"/><rect fill="#FFFFFF" height="87.9316" style="stroke:#181818;stroke-width:1.0;" width="10" x="397.5" y="763.0781"/><rect fill="#FFFFFF" height="59.3105" style="stroke:#181818;stroke-width:1.0;" width="10" x="587.5" y="171.4199"/><rect fill="#FFFFFF" height="30" style="stroke:#181818;stroke-width:1.0;" width="10" x="739" y="200.7305"/><rect fill="#FFFFFF" height="59.3105" style="stroke:#181818;stroke-width:1.0;" width="10" x="739" y="260.041"/><rect fill="#FFFFFF" height="59.3105" style="stroke:#181818;stroke-width:1.0;" width="10" x="739" y="348.6621"/><rect fill="#FFFFFF" height="30" style="stroke:#181818;stroke-width:1.0;" width="10" x="885.5" y="289.3516"/><rect fill="#FFFFFF" height="30" style="stroke:#181818;stroke-width:1.0;" width="10" x="885.5" y="495.9043"/><rect fill="#FFFFFF" height="30" style="stroke:#181818;stroke-width:1.0;" width="10" x="1072" y="377.9727"/><rect fill="#FFFFFF" height="59.3105" style="stroke:#181818;stroke-width:1.0;" width="10" x="1261" y="466.5938"/><rect fill="#FFFFFF" height="98.6211" style="stroke:#181818;stroke-width:1.0;" width="10" x="1445" y="555.2148"/><rect fill="#FFFFFF" height="30" style="stroke:#181818;stroke-width:1.0;" width="10" x="1636" y="608.8359"/><rect fill="#FFFFFF" height="29.3105" style="stroke:#181818;stroke-width:1.0;" width="10" x="1795.5" y="792.3887"/><polygon fill="#181818" points="189.5,108.7988,199.5,112.7988,189.5,116.7988,193.5,112.7988" style="stroke:#181818;stroke-width:1.0;"/><line style="stroke:#181818;stroke-width:1.0;stroke-dasharray:2.0,2.0;" x1="34.5" x2="195.5" y1="112.7988" y2="112.7988"/><text fill="#000000" font-family="sans-serif" font-size="13" lengthAdjust="spacing" textLength="32" x="41.5" y="108.0566">enter</text><polygon fill="#181818" points="385.5,138.1094,395.5,142.1094,385.5,146.1094,389.5,142.1094" style="stroke:#181818;stroke-width:1.0;"/><line style="stroke:#181818;stroke-width:1.0;stroke-dasharray:2.0,2.0;" x1="211.5" x2="391.5" y1="142.1094" y2="142.1094"/><text fill="#000000" font-family="sans-serif" font-size="13" lengthAdjust="spacing" textLength="46" x="218.5" y="137.3672">create()</text><polygon fill="#181818" points="575.5,167.4199,585.5,171.4199,575.5,175.4199,579.5,171.4199" style="stroke:#181818;stroke-width:1.0;"/><line style="stroke:#181818;stroke-width:1.0;stroke-dasharray:2.0,2.0;" x1="407.5" x2="581.5" y1="171.4199" y2="171.4199"/><text fill="#000000" font-family="sans-serif" font-size="13" lengthAdjust="spacing" textLength="83" x="414.5" y="166.6777">repositories()</text><polygon fill="#181818" points="727,196.7305,737,200.7305,727,204.7305,731,200.7305" style="stroke:#181818;stroke-width:1.0;"/><line style="stroke:#181818;stroke-width:1.0;stroke-dasharray:2.0,2.0;" x1="597.5" x2="733" y1="200.7305" y2="200.7305"/><text fill="#000000" font-family="sans-serif" font-size="13" lengthAdjust="spacing" textLength="46" x="604.5" y="195.9883">create()</text><polygon fill="#181818" points="727,256.041,737,260.041,727,264.041,731,260.041" style="stroke:#181818;stroke-width:1.0;"/><line style="stroke:#181818;stroke-width:1.0;stroke-dasharray:2.0,2.0;" x1="407.5" x2="733" y1="260.041" y2="260.041"/><text fill="#000000" font-family="sans-serif" font-size="13" lengthAdjust="spacing" textLength="57" x="414.5" y="255.2988">courses()</text><polygon fill="#181818" points="873.5,285.3516,883.5,289.3516,873.5,293.3516,877.5,289.3516" style="stroke:#181818;stroke-width:1.0;"/><line style="stroke:#181818;stroke-width:1.0;stroke-dasharray:2.0,2.0;" x1="749" x2="879.5" y1="289.3516" y2="289.3516"/><text fill="#000000" font-family="sans-serif" font-size="13" lengthAdjust="spacing" textLength="46" x="756" y="284.6094">create()</text><polygon fill="#181818" points="727,344.6621,737,348.6621,727,352.6621,731,348.6621" style="stroke:#181818;stroke-width:1.0;"/><line style="stroke:#181818;stroke-width:1.0;stroke-dasharray:2.0,2.0;" x1="407.5" x2="733" y1="348.6621" y2="348.6621"/><text fill="#000000" font-family="sans-serif" font-size="13" lengthAdjust="spacing" textLength="133" x="414.5" y="343.9199">enrollmentRequests()</text><polygon fill="#181818" points="1060,373.9727,1070,377.9727,1060,381.9727,1064,377.9727" style="stroke:#181818;stroke-width:1.0;"/><line style="stroke:#181818;stroke-width:1.0;stroke-dasharray:2.0,2.0;" x1="749" x2="1066" y1="377.9727" y2="377.9727"/><text fill="#000000" font-family="sans-serif" font-size="13" lengthAdjust="spacing" textLength="46" x="756" y="373.2305">create()</text><polygon fill="#181818" points="385.5,433.2832,395.5,437.2832,385.5,441.2832,389.5,437.2832" style="stroke:#181818;stroke-width:1.0;"/><line style="stroke:#181818;stroke-width:1.0;stroke-dasharray:2.0,2.0;" x1="211.5" x2="391.5" y1="437.2832" y2="437.2832"/><text fill="#000000" font-family="sans-serif" font-size="13" lengthAdjust="spacing" textLength="79" x="218.5" y="432.541">getCourses()</text><polygon fill="#181818" points="1249,462.5938,1259,466.5938,1249,470.5938,1253,466.5938" style="stroke:#181818;stroke-width:1.0;"/><line style="stroke:#181818;stroke-width:1.0;stroke-dasharray:2.0,2.0;" x1="407.5" x2="1255" y1="466.5938" y2="466.5938"/><text fill="#000000" font-family="sans-serif" font-size="13" lengthAdjust="spacing" textLength="186" x="414.5" y="461.8516">enrollable(coursesRepository)</text><polygon fill="#181818" points="906.5,491.9043,896.5,495.9043,906.5,499.9043,902.5,495.9043" style="stroke:#181818;stroke-width:1.0;"/><line style="stroke:#181818;stroke-width:1.0;stroke-dasharray:2.0,2.0;" x1="900.5" x2="1260" y1="495.9043" y2="495.9043"/><text fill="#000000" font-family="sans-serif" font-size="13" lengthAdjust="spacing" textLength="78" x="912.5" y="491.1621">findByState()</text><polygon fill="#181818" points="1433,551.2148,1443,555.2148,1433,559.2148,1437,555.2148" style="stroke:#181818;stroke-width:1.0;"/><line style="stroke:#181818;stroke-width:1.0;stroke-dasharray:2.0,2.0;" x1="407.5" x2="1439" y1="555.2148" y2="555.2148"/><text fill="#000000" font-family="sans-serif" font-size="13" lengthAdjust="spacing" textLength="93" x="414.5" y="550.4727">toDto(courses)</text><path d="M1336.5,570.2148 L1410.5,570.2148 L1410.5,577.5254 L1400.5,587.5254 L1336.5,587.5254 L1336.5,570.2148 " fill="#EEEEEE" style="stroke:#000000;stroke-width:1.5;"/><rect fill="none" height="76.6211" style="stroke:#000000;stroke-width:1.5;" width="392" x="1336.5" y="570.2148"/><text fill="#000000" font-family="sans-serif" font-size="13" font-weight="bold" lengthAdjust="spacing" textLength="29" x="1351.5" y="583.7832">loop</text><text fill="#000000" font-family="sans-serif" font-size="11" font-weight="bold" lengthAdjust="spacing" textLength="157" x="1425.5" y="582.8496">[for each course in courses]</text><polygon fill="#181818" points="1624,604.8359,1634,608.8359,1624,612.8359,1628,608.8359" style="stroke:#181818;stroke-width:1.0;"/><line style="stroke:#181818;stroke-width:1.0;stroke-dasharray:2.0,2.0;" x1="1455" x2="1630" y1="608.8359" y2="608.8359"/><text fill="#000000" font-family="sans-serif" font-size="13" lengthAdjust="spacing" textLength="46" x="1462" y="604.0938">create()</text><polygon fill="#181818" points="222.5,671.1465,212.5,675.1465,222.5,679.1465,218.5,675.1465" style="stroke:#181818;stroke-width:1.0;"/><line style="stroke:#181818;stroke-width:1.0;stroke-dasharray:2.0,2.0;" x1="216.5" x2="401.5" y1="675.1465" y2="675.1465"/><text fill="#000000" font-family="sans-serif" font-size="13" lengthAdjust="spacing" textLength="49" x="228.5" y="670.4043">courses</text><polygon fill="#181818" points="45.5,700.457,35.5,704.457,45.5,708.457,41.5,704.457" style="stroke:#181818;stroke-width:1.0;"/><line style="stroke:#181818;stroke-width:1.0;stroke-dasharray:2.0,2.0;" x1="39.5" x2="205.5" y1="704.457" y2="704.457"/><text fill="#000000" font-family="sans-serif" font-size="13" lengthAdjust="spacing" textLength="86" x="51.5" y="699.7148">show courses</text><polygon fill="#181818" points="189.5,729.7676,199.5,733.7676,189.5,737.7676,193.5,733.7676" style="stroke:#181818;stroke-width:1.0;"/><line style="stroke:#181818;stroke-width:1.0;stroke-dasharray:2.0,2.0;" x1="34.5" x2="195.5" y1="733.7676" y2="733.7676"/><text fill="#000000" font-family="sans-serif" font-size="13" lengthAdjust="spacing" textLength="148" x="41.5" y="729.0254">selects course from list</text><polygon fill="#181818" points="385.5,759.0781,395.5,763.0781,385.5,767.0781,389.5,763.0781" style="stroke:#181818;stroke-width:1.0;"/><line style="stroke:#181818;stroke-width:1.0;stroke-dasharray:2.0,2.0;" x1="211.5" x2="391.5" y1="763.0781" y2="763.0781"/><text fill="#000000" font-family="sans-serif" font-size="13" lengthAdjust="spacing" textLength="124" x="218.5" y="758.3359">chosen course (dto)</text><polygon fill="#181818" points="1783.5,788.3887,1793.5,792.3887,1783.5,796.3887,1787.5,792.3887" style="stroke:#181818;stroke-width:1.0;"/><line style="stroke:#181818;stroke-width:1.0;stroke-dasharray:2.0,2.0;" x1="407.5" x2="1789.5" y1="792.3887" y2="792.3887"/><text fill="#000000" font-family="sans-serif" font-size="13" lengthAdjust="spacing" textLength="123" x="414.5" y="787.6465">requestEnrollment()</text><polygon fill="#181818" points="418.5,817.6992,408.5,821.6992,418.5,825.6992,414.5,821.6992" style="stroke:#181818;stroke-width:1.0;"/><line style="stroke:#181818;stroke-width:1.0;stroke-dasharray:2.0,2.0;" x1="412.5" x2="1799.5" y1="821.6992" y2="821.6992"/><text fill="#000000" font-family="sans-serif" font-size="13" lengthAdjust="spacing" textLength="36" x="424.5" y="816.957">result</text><polygon fill="#181818" points="222.5,847.0098,212.5,851.0098,222.5,855.0098,218.5,851.0098" style="stroke:#181818;stroke-width:1.0;"/><line style="stroke:#181818;stroke-width:1.0;stroke-dasharray:2.0,2.0;" x1="216.5" x2="401.5" y1="851.0098" y2="851.0098"/><text fill="#000000" font-family="sans-serif" font-size="13" lengthAdjust="spacing" textLength="36" x="228.5" y="846.2676">result</text><polygon fill="#181818" points="45.5,876.3203,35.5,880.3203,45.5,884.3203,41.5,880.3203" style="stroke:#181818;stroke-width:1.0;"/><line style="stroke:#181818;stroke-width:1.0;stroke-dasharray:2.0,2.0;" x1="39.5" x2="205.5" y1="880.3203" y2="880.3203"/><text fill="#000000" font-family="sans-serif" font-size="13" lengthAdjust="spacing" textLength="73" x="51.5" y="875.5781">show result</text><!--SRC=[jLN9Rjim4BthAtXq3_a17G9aQO40AHh4pJbWgN5CG1OLadBal-yCILcaHCb6WV8aSTuiRpPoOPLcMzjLq5Z63UiCwABbsaeXMuvttnkjwlg0ubVuxC3OjoU7a-ke1zLOkW9DQ65rNIGABw2DD1OQ0GI5tdfSdw1UeLL6OeYd7vmYFH58G_k-uo81FgXE6nZXpfYxUqUuMeyrLOEp65MTt9j8R3nBeaZspHRqKGeWLNCKHIQikwRQMcxXyVUldxnjVKeExciTJRZAJbpFmiy7NHHKIdPpSukrAX5WqLk1MPH7D4xrOtWwwH1Kdv893IZQV7EICzBLZeL3Fq6ZBwaIFd4IJ52RgFRdIw_TE-LGmOd7cVfGw5XOmQ8u4f7ZUSoZMr-vNCWvd-7EynwRwbBuSVyjKCX1LXXEcR0oAdpeXdzYjT3pbnWkZSe2sqlm1UP9NMcFp1ht0uPXlAvvSKw7pF4_DMn2Funx89D2cksO5_xF6s8dc-h-vCRt_tM5sp8pJdwVbCogHwi6HXaUOU_4hckbMhR3Tm1zx8Dt9fjXJ18i7M_2USNjjD0aYLDQObDXn6WgXgPoGUNOX_Zd2Q0j5qUyrZQq6ajczkhhh1B1SJUcozD03S8EBmhRQNLWDRu05zRfNXaOiiWsIFAAvimE8srQzp7k_joKPnw1DAjJSHIi1jFLjhXgQXUI7vcuClT18qdzNm00]--></g></svg>