<?xml version="1.0" encoding="us-ascii" standalone="no"?><svg xmlns="http://www.w3.org/2000/svg" xmlns:xlink="http://www.w3.org/1999/xlink" contentStyleType="text/css" height="896px" preserveAspectRatio="none" style="width:1956px;height:896px;background:#FFFFFF;" version="1.1" viewBox="0 0 1956 896" width="1956px" zoomAndPan="magnify"><defs/><g><rect fill="#FFFFFF" height="471.7266" style="stroke:#181818;stroke-width:1.0;" width="10" x="204.5" y="112.7988"/><rect fill="#FFFFFF" height="183.2422" style="stroke:#181818;stroke-width:1.0;" width="10" x="204.5" y="613.8359"/><rect fill="#FFFFFF" height="265.8633" style="stroke:#181818;stroke-width:1.0;" width="10" x="475.5" y="142.1094"/><rect fill="#FFFFFF" height="117.9316" style="stroke:#181818;stroke-width:1.0;" width="10" x="475.5" y="437.2832"/><rect fill="#FFFFFF" height="124.6211" style="stroke:#181818;stroke-width:1.0;" width="10" x="475.5" y="643.1465"/><rect fill="#FFFFFF" height="59.3105" style="stroke:#181818;stroke-width:1.0;" width="10" x="665.5" y="171.4199"/><rect fill="#FFFFFF" height="30" style="stroke:#181818;stroke-width:1.0;" width="10" x="817" y="200.7305"/><rect fill="#FFFFFF" height="59.3105" style="stroke:#181818;stroke-width:1.0;" width="10" x="817" y="260.041"/><rect fill="#FFFFFF" height="59.3105" style="stroke:#181818;stroke-width:1.0;" width="10" x="817" y="348.6621"/><rect fill="#FFFFFF" height="30" style="stroke:#181818;stroke-width:1.0;" width="10" x="963.5" y="289.3516"/><rect fill="#FFFFFF" height="30" style="stroke:#181818;stroke-width:1.0;" width="10" x="963.5" y="495.9043"/><rect fill="#FFFFFF" height="30" style="stroke:#181818;stroke-width:1.0;" width="10" x="1150" y="377.9727"/><rect fill="#FFFFFF" height="30" style="stroke:#181818;stroke-width:1.0;" width="10" x="1150" y="737.7676"/><rect fill="#FFFFFF" height="59.3105" style="stroke:#181818;stroke-width:1.0;" width="10" x="1339" y="466.5938"/><rect fill="#FFFFFF" height="30" style="stroke:#181818;stroke-width:1.0;" width="10" x="1873.5" y="675.457"/><line style="stroke:#181818;stroke-width:0.5;stroke-dasharray:5.0,5.0;" x1="34" x2="34" y1="81.4883" y2="815.0781"/><line style="stroke:#181818;stroke-width:0.5;stroke-dasharray:5.0,5.0;" x1="209.5" x2="209.5" y1="81.4883" y2="815.0781"/><line style="stroke:#181818;stroke-width:0.5;stroke-dasharray:5.0,5.0;" x1="480.5" x2="480.5" y1="81.4883" y2="815.0781"/><line style="stroke:#181818;stroke-width:0.5;stroke-dasharray:5.0,5.0;" x1="670.5" x2="670.5" y1="81.4883" y2="815.0781"/><line style="stroke:#181818;stroke-width:0.5;stroke-dasharray:5.0,5.0;" x1="821.5" x2="821.5" y1="81.4883" y2="815.0781"/><line style="stroke:#181818;stroke-width:0.5;stroke-dasharray:5.0,5.0;" x1="968.5" x2="968.5" y1="81.4883" y2="815.0781"/><line style="stroke:#181818;stroke-width:0.5;stroke-dasharray:5.0,5.0;" x1="1154.5" x2="1154.5" y1="81.4883" y2="815.0781"/><line style="stroke:#181818;stroke-width:0.5;stroke-dasharray:5.0,5.0;" x1="1343.5" x2="1343.5" y1="81.4883" y2="815.0781"/><line style="stroke:#181818;stroke-width:0.5;stroke-dasharray:5.0,5.0;" x1="1527.5" x2="1527.5" y1="81.4883" y2="815.0781"/><line style="stroke:#181818;stroke-width:0.5;stroke-dasharray:5.0,5.0;" x1="1718.5" x2="1718.5" y1="81.4883" y2="815.0781"/><line style="stroke:#181818;stroke-width:0.5;stroke-dasharray:5.0,5.0;" x1="1878.5" x2="1878.5" y1="81.4883" y2="815.0781"/><text fill="#000000" font-family="sans-serif" font-size="14" lengthAdjust="spacing" textLength="53" x="5" y="78.5352">Student</text><ellipse cx="34.5" cy="13.5" fill="#E2E2F0" rx="8" ry="8" style="stroke:#181818;stroke-width:0.5;"/><path d="M34.5,21.5 L34.5,48.5 M21.5,29.5 L47.5,29.5 M34.5,48.5 L21.5,63.5 M34.5,48.5 L47.5,63.5 " fill="none" style="stroke:#181818;stroke-width:0.5;"/><text fill="#000000" font-family="sans-serif" font-size="14" lengthAdjust="spacing" textLength="53" x="5" y="827.6133">Student</text><ellipse cx="34.5" cy="839.0664" fill="#E2E2F0" rx="8" ry="8" style="stroke:#181818;stroke-width:0.5;"/><path d="M34.5,847.0664 L34.5,874.0664 M21.5,855.0664 L47.5,855.0664 M34.5,874.0664 L21.5,889.0664 M34.5,874.0664 L47.5,889.0664 " fill="none" style="stroke:#181818;stroke-width:0.5;"/><rect fill="#E2E2F0" height="30.4883" rx="2.5" ry="2.5" style="stroke:#181818;stroke-width:0.5;" width="158" x="130.5" y="50"/><text fill="#000000" font-family="sans-serif" font-size="14" lengthAdjust="spacing" textLength="144" x="137.5" y="70.5352">EnrollmentRequestUI</text><rect fill="#E2E2F0" height="30.4883" rx="2.5" ry="2.5" style="stroke:#181818;stroke-width:0.5;" width="158" x="130.5" y="814.0781"/><text fill="#000000" font-family="sans-serif" font-size="14" lengthAdjust="spacing" textLength="144" x="137.5" y="834.6133">EnrollmentRequestUI</text><rect fill="#E2E2F0" height="30.4883" rx="2.5" ry="2.5" style="stroke:#181818;stroke-width:0.5;" width="214" x="373.5" y="50"/><text fill="#000000" font-family="sans-serif" font-size="14" lengthAdjust="spacing" textLength="200" x="380.5" y="70.5352">EnrollmentRequestController</text><rect fill="#E2E2F0" height="30.4883" rx="2.5" ry="2.5" style="stroke:#181818;stroke-width:0.5;" width="214" x="373.5" y="814.0781"/><text fill="#000000" font-family="sans-serif" font-size="14" lengthAdjust="spacing" textLength="200" x="380.5" y="834.6133">EnrollmentRequestController</text><rect fill="#E2E2F0" height="30.4883" rx="2.5" ry="2.5" style="stroke:#181818;stroke-width:0.5;" width="146" x="597.5" y="50"/><text fill="#000000" font-family="sans-serif" font-size="14" lengthAdjust="spacing" textLength="132" x="604.5" y="70.5352">PersistenceContext</text><rect fill="#E2E2F0" height="30.4883" rx="2.5" ry="2.5" style="stroke:#181818;stroke-width:0.5;" width="146" x="597.5" y="814.0781"/><text fill="#000000" font-family="sans-serif" font-size="14" lengthAdjust="spacing" textLength="132" x="604.5" y="834.6133">PersistenceContext</text><rect fill="#E2E2F0" height="30.4883" rx="2.5" ry="2.5" style="stroke:#181818;stroke-width:0.5;" width="137" x="753.5" y="50"/><text fill="#000000" font-family="sans-serif" font-size="14" lengthAdjust="spacing" textLength="123" x="760.5" y="70.5352">RepositoryFactory</text><rect fill="#E2E2F0" height="30.4883" rx="2.5" ry="2.5" style="stroke:#181818;stroke-width:0.5;" width="137" x="753.5" y="814.0781"/><text fill="#000000" font-family="sans-serif" font-size="14" lengthAdjust="spacing" textLength="123" x="760.5" y="834.6133">RepositoryFactory</text><rect fill="#E2E2F0" height="30.4883" rx="2.5" ry="2.5" style="stroke:#181818;stroke-width:0.5;" width="136" x="900.5" y="50"/><text fill="#000000" font-family="sans-serif" font-size="14" lengthAdjust="spacing" textLength="122" x="907.5" y="70.5352">CourseRepository</text><rect fill="#E2E2F0" height="30.4883" rx="2.5" ry="2.5" style="stroke:#181818;stroke-width:0.5;" width="136" x="900.5" y="814.0781"/><text fill="#000000" font-family="sans-serif" font-size="14" lengthAdjust="spacing" textLength="122" x="907.5" y="834.6133">CourseRepository</text><rect fill="#E2E2F0" height="30.4883" rx="2.5" ry="2.5" style="stroke:#181818;stroke-width:0.5;" width="217" x="1046.5" y="50"/><text fill="#000000" font-family="sans-serif" font-size="14" lengthAdjust="spacing" textLength="203" x="1053.5" y="70.5352">EnrollmentRequestRepository</text><rect fill="#E2E2F0" height="30.4883" rx="2.5" ry="2.5" style="stroke:#181818;stroke-width:0.5;" width="217" x="1046.5" y="814.0781"/><text fill="#000000" font-family="sans-serif" font-size="14" lengthAdjust="spacing" textLength="203" x="1053.5" y="834.6133">EnrollmentRequestRepository</text><rect fill="#E2E2F0" height="30.4883" rx="2.5" ry="2.5" style="stroke:#181818;stroke-width:0.5;" width="141" x="1273.5" y="50"/><text fill="#000000" font-family="sans-serif" font-size="14" lengthAdjust="spacing" textLength="127" x="1280.5" y="70.5352">ListCoursesService</text><rect fill="#E2E2F0" height="30.4883" rx="2.5" ry="2.5" style="stroke:#181818;stroke-width:0.5;" width="141" x="1273.5" y="814.0781"/><text fill="#000000" font-family="sans-serif" font-size="14" lengthAdjust="spacing" textLength="127" x="1280.5" y="834.6133">ListCoursesService</text><rect fill="#E2E2F0" height="30.4883" rx="2.5" ry="2.5" style="stroke:#181818;stroke-width:0.5;" width="207" x="1424.5" y="50"/><text fill="#000000" font-family="sans-serif" font-size="14" lengthAdjust="spacing" textLength="193" x="1431.5" y="70.5352">CourseAndStateDTOMapper</text><rect fill="#E2E2F0" height="30.4883" rx="2.5" ry="2.5" style="stroke:#181818;stroke-width:0.5;" width="207" x="1424.5" y="814.0781"/><text fill="#000000" font-family="sans-serif" font-size="14" lengthAdjust="spacing" textLength="193" x="1431.5" y="834.6133">CourseAndStateDTOMapper</text><rect fill="#E2E2F0" height="30.4883" rx="2.5" ry="2.5" style="stroke:#181818;stroke-width:0.5;" width="155" x="1641.5" y="50"/><text fill="#000000" font-family="sans-serif" font-size="14" lengthAdjust="spacing" textLength="141" x="1648.5" y="70.5352">CourseAndStateDTO</text><rect fill="#E2E2F0" height="30.4883" rx="2.5" ry="2.5" style="stroke:#181818;stroke-width:0.5;" width="155" x="1641.5" y="814.0781"/><text fill="#000000" font-family="sans-serif" font-size="14" lengthAdjust="spacing" textLength="141" x="1648.5" y="834.6133">CourseAndStateDTO</text><rect fill="#E2E2F0" height="30.4883" rx="2.5" ry="2.5" style="stroke:#181818;stroke-width:0.5;" width="144" x="1806.5" y="50"/><text fill="#000000" font-family="sans-serif" font-size="14" lengthAdjust="spacing" textLength="130" x="1813.5" y="70.5352">EnrollmentRequest</text><rect fill="#E2E2F0" height="30.4883" rx="2.5" ry="2.5" style="stroke:#181818;stroke-width:0.5;" width="144" x="1806.5" y="814.0781"/><text fill="#000000" font-family="sans-serif" font-size="14" lengthAdjust="spacing" textLength="130" x="1813.5" y="834.6133">EnrollmentRequest</text><rect fill="#FFFFFF" height="471.7266" style="stroke:#181818;stroke-width:1.0;" width="10" x="204.5" y="112.7988"/><rect fill="#FFFFFF" height="183.2422" style="stroke:#181818;stroke-width:1.0;" width="10" x="204.5" y="613.8359"/><rect fill="#FFFFFF" height="265.8633" style="stroke:#181818;stroke-width:1.0;" width="10" x="475.5" y="142.1094"/><rect fill="#FFFFFF" height="117.9316" style="stroke:#181818;stroke-width:1.0;" width="10" x="475.5" y="437.2832"/><rect fill="#FFFFFF" height="124.6211" style="stroke:#181818;stroke-width:1.0;" width="10" x="475.5" y="643.1465"/><rect fill="#FFFFFF" height="59.3105" style="stroke:#181818;stroke-width:1.0;" width="10" x="665.5" y="171.4199"/><rect fill="#FFFFFF" height="30" style="stroke:#181818;stroke-width:1.0;" width="10" x="817" y="200.7305"/><rect fill="#FFFFFF" height="59.3105" style="stroke:#181818;stroke-width:1.0;" width="10" x="817" y="260.041"/><rect fill="#FFFFFF" height="59.3105" style="stroke:#181818;stroke-width:1.0;" width="10" x="817" y="348.6621"/><rect fill="#FFFFFF" height="30" style="stroke:#181818;stroke-width:1.0;" width="10" x="963.5" y="289.3516"/><rect fill="#FFFFFF" height="30" style="stroke:#181818;stroke-width:1.0;" width="10" x="963.5" y="495.9043"/><rect fill="#FFFFFF" height="30" style="stroke:#181818;stroke-width:1.0;" width="10" x="1150" y="377.9727"/><rect fill="#FFFFFF" height="30" style="stroke:#181818;stroke-width:1.0;" width="10" x="1150" y="737.7676"/><rect fill="#FFFFFF" height="59.3105" style="stroke:#181818;stroke-width:1.0;" width="10" x="1339" y="466.5938"/><rect fill="#FFFFFF" height="30" style="stroke:#181818;stroke-width:1.0;" width="10" x="1873.5" y="675.457"/><polygon fill="#181818" points="192.5,108.7988,202.5,112.7988,192.5,116.7988,196.5,112.7988" style="stroke:#181818;stroke-width:1.0;"/><line style="stroke:#181818;stroke-width:1.0;stroke-dasharray:2.0,2.0;" x1="34.5" x2="198.5" y1="112.7988" y2="112.7988"/><text fill="#000000" font-family="sans-serif" font-size="13" lengthAdjust="spacing" textLength="32" x="41.5" y="108.0566">enter</text><polygon fill="#181818" points="463.5,138.1094,473.5,142.1094,463.5,146.1094,467.5,142.1094" style="stroke:#181818;stroke-width:1.0;"/><line style="stroke:#181818;stroke-width:1.0;stroke-dasharray:2.0,2.0;" x1="214.5" x2="469.5" y1="142.1094" y2="142.1094"/><text fill="#000000" font-family="sans-serif" font-size="13" lengthAdjust="spacing" textLength="46" x="221.5" y="137.3672">create()</text><polygon fill="#181818" points="653.5,167.4199,663.5,171.4199,653.5,175.4199,657.5,171.4199" style="stroke:#181818;stroke-width:1.0;"/><line style="stroke:#181818;stroke-width:1.0;stroke-dasharray:2.0,2.0;" x1="485.5" x2="659.5" y1="171.4199" y2="171.4199"/><text fill="#000000" font-family="sans-serif" font-size="13" lengthAdjust="spacing" textLength="83" x="492.5" y="166.6777">repositories()</text><polygon fill="#181818" points="805,196.7305,815,200.7305,805,204.7305,809,200.7305" style="stroke:#181818;stroke-width:1.0;"/><line style="stroke:#181818;stroke-width:1.0;stroke-dasharray:2.0,2.0;" x1="675.5" x2="811" y1="200.7305" y2="200.7305"/><text fill="#000000" font-family="sans-serif" font-size="13" lengthAdjust="spacing" textLength="46" x="682.5" y="195.9883">create()</text><polygon fill="#181818" points="805,256.041,815,260.041,805,264.041,809,260.041" style="stroke:#181818;stroke-width:1.0;"/><line style="stroke:#181818;stroke-width:1.0;stroke-dasharray:2.0,2.0;" x1="485.5" x2="811" y1="260.041" y2="260.041"/><text fill="#000000" font-family="sans-serif" font-size="13" lengthAdjust="spacing" textLength="57" x="492.5" y="255.2988">courses()</text><polygon fill="#181818" points="951.5,285.3516,961.5,289.3516,951.5,293.3516,955.5,289.3516" style="stroke:#181818;stroke-width:1.0;"/><line style="stroke:#181818;stroke-width:1.0;stroke-dasharray:2.0,2.0;" x1="827" x2="957.5" y1="289.3516" y2="289.3516"/><text fill="#000000" font-family="sans-serif" font-size="13" lengthAdjust="spacing" textLength="46" x="834" y="284.6094">create()</text><polygon fill="#181818" points="805,344.6621,815,348.6621,805,352.6621,809,348.6621" style="stroke:#181818;stroke-width:1.0;"/><line style="stroke:#181818;stroke-width:1.0;stroke-dasharray:2.0,2.0;" x1="485.5" x2="811" y1="348.6621" y2="348.6621"/><text fill="#000000" font-family="sans-serif" font-size="13" lengthAdjust="spacing" textLength="133" x="492.5" y="343.9199">enrollmentRequests()</text><polygon fill="#181818" points="1138,373.9727,1148,377.9727,1138,381.9727,1142,377.9727" style="stroke:#181818;stroke-width:1.0;"/><line style="stroke:#181818;stroke-width:1.0;stroke-dasharray:2.0,2.0;" x1="827" x2="1144" y1="377.9727" y2="377.9727"/><text fill="#000000" font-family="sans-serif" font-size="13" lengthAdjust="spacing" textLength="46" x="834" y="373.2305">create()</text><polygon fill="#181818" points="463.5,433.2832,473.5,437.2832,463.5,441.2832,467.5,437.2832" style="stroke:#181818;stroke-width:1.0;"/><line style="stroke:#181818;stroke-width:1.0;stroke-dasharray:2.0,2.0;" x1="214.5" x2="469.5" y1="437.2832" y2="437.2832"/><text fill="#000000" font-family="sans-serif" font-size="13" lengthAdjust="spacing" textLength="79" x="221.5" y="432.541">getCourses()</text><polygon fill="#181818" points="1327,462.5938,1337,466.5938,1327,470.5938,1331,466.5938" style="stroke:#181818;stroke-width:1.0;"/><line style="stroke:#181818;stroke-width:1.0;stroke-dasharray:2.0,2.0;" x1="485.5" x2="1333" y1="466.5938" y2="466.5938"/><text fill="#000000" font-family="sans-serif" font-size="13" lengthAdjust="spacing" textLength="186" x="492.5" y="461.8516">enrollable(coursesRepository)</text><polygon fill="#181818" points="984.5,491.9043,974.5,495.9043,984.5,499.9043,980.5,495.9043" style="stroke:#181818;stroke-width:1.0;"/><line style="stroke:#181818;stroke-width:1.0;stroke-dasharray:2.0,2.0;" x1="978.5" x2="1338" y1="495.9043" y2="495.9043"/><text fill="#000000" font-family="sans-serif" font-size="13" lengthAdjust="spacing" textLength="78" x="990.5" y="491.1621">findByState()</text><polygon fill="#181818" points="225.5,551.2148,215.5,555.2148,225.5,559.2148,221.5,555.2148" style="stroke:#181818;stroke-width:1.0;"/><line style="stroke:#181818;stroke-width:1.0;stroke-dasharray:2.0,2.0;" x1="219.5" x2="479.5" y1="555.2148" y2="555.2148"/><text fill="#000000" font-family="sans-serif" font-size="13" lengthAdjust="spacing" textLength="49" x="231.5" y="550.4727">courses</text><polygon fill="#181818" points="45.5,580.5254,35.5,584.5254,45.5,588.5254,41.5,584.5254" style="stroke:#181818;stroke-width:1.0;"/><line style="stroke:#181818;stroke-width:1.0;stroke-dasharray:2.0,2.0;" x1="39.5" x2="208.5" y1="584.5254" y2="584.5254"/><text fill="#000000" font-family="sans-serif" font-size="13" lengthAdjust="spacing" textLength="86" x="51.5" y="579.7832">show courses</text><polygon fill="#181818" points="192.5,609.8359,202.5,613.8359,192.5,617.8359,196.5,613.8359" style="stroke:#181818;stroke-width:1.0;"/><line style="stroke:#181818;stroke-width:1.0;stroke-dasharray:2.0,2.0;" x1="34.5" x2="198.5" y1="613.8359" y2="613.8359"/><text fill="#000000" font-family="sans-serif" font-size="13" lengthAdjust="spacing" textLength="148" x="41.5" y="609.0938">selects course from list</text><polygon fill="#181818" points="463.5,639.1465,473.5,643.1465,463.5,647.1465,467.5,643.1465" style="stroke:#181818;stroke-width:1.0;"/><line style="stroke:#181818;stroke-width:1.0;stroke-dasharray:2.0,2.0;" x1="214.5" x2="469.5" y1="643.1465" y2="643.1465"/><text fill="#000000" font-family="sans-serif" font-size="13" lengthAdjust="spacing" textLength="242" x="221.5" y="638.4043">createEnrollmentRequest(courseName)</text><polygon fill="#181818" points="1861.5,671.457,1871.5,675.457,1861.5,679.457,1865.5,675.457" style="stroke:#181818;stroke-width:1.0;"/><line style="stroke:#181818;stroke-width:1.0;stroke-dasharray:2.0,2.0;" x1="485.5" x2="1867.5" y1="675.457" y2="675.457"/><text fill="#000000" font-family="sans-serif" font-size="13" lengthAdjust="spacing" textLength="438" x="492.5" y="670.7148">EnrollmentRequest = new EnrollmentRequest(courseName, username)</text><path d="M217,656.1465 L217,681.1465 L470,681.1465 L470,666.1465 L460,656.1465 L217,656.1465 " fill="#FEFFDD" style="stroke:#181818;stroke-width:0.5;"/><path d="M460,656.1465 L460,666.1465 L470,666.1465 L460,656.1465 " fill="#FEFFDD" style="stroke:#181818;stroke-width:0.5;"/><text fill="#000000" font-family="sans-serif" font-size="13" lengthAdjust="spacing" textLength="232" x="223" y="673.7148">username is taken from user session</text><polygon fill="#181818" points="1138,733.7676,1148,737.7676,1138,741.7676,1142,737.7676" style="stroke:#181818;stroke-width:1.0;"/><line style="stroke:#181818;stroke-width:1.0;stroke-dasharray:2.0,2.0;" x1="485.5" x2="1144" y1="737.7676" y2="737.7676"/><text fill="#000000" font-family="sans-serif" font-size="13" lengthAdjust="spacing" textLength="154" x="492.5" y="733.0254">save(enrollmentRequest)</text><polygon fill="#181818" points="45.5,793.0781,35.5,797.0781,45.5,801.0781,41.5,797.0781" style="stroke:#181818;stroke-width:1.0;"/><line style="stroke:#181818;stroke-width:1.0;stroke-dasharray:2.0,2.0;" x1="39.5" x2="208.5" y1="797.0781" y2="797.0781"/><text fill="#000000" font-family="sans-serif" font-size="13" lengthAdjust="spacing" textLength="146" x="51.5" y="792.3359">show success message</text><!--SRC=[jLJRRjim37tNL-Wn1TeVCD01QxS11RfrQBRdG9MPJfWjkPASEdy_KdPiAvOTRy3yK3JaeNWvv17I6yktliv1UouShnrOLWdhbLILGDjdRKrHbEX-XhSQdF_v471g6NLlj2SJM49BRmiM1Nm7wvJpe2KG51hVufe8zGoLSGfBF7uHLEcHG1QgtLx827XlQkjWW8V7Wcs7SBDSQnm6lHj3Wxzz8dhZKL6BzBxRWZqe2KD6jtC7oHBbVTJvrWiFdtuyVHLLrOwc3FyjemcN-xCI9csaYsUCAEKtDn-Gimm17hCndAOwuEF48yUlLW51F6LSMa3NvYfuUcJWa7SV_UWYcemOQGUem7LXPw5DRsoZcn3SCNcMSH9-8dpip67MFN9HucdDGzgMhrJ9gPoThUrxMAvBvO_tSAQ556IXm_DEU3OYljk6V-fgPlSlTJXtCZFTNeBFT1xnIdeoMTnNE1tbokKTxlKqGV5ImAQp3xgGskdHhKUxFTYdYx9NEhyxXhF-VziIgT2aPnA13f6UQZHNqewCkr_clGyQ1Q1unEhYe03fJqB8zzQKl42fNACt4pthQFWcIbZ1Pd9xiuHAtd8DxtmfstLeM_TvwTC6yxuOxqsPzMwk7FVYD-Ysqp0A795JHhCLHy9MtKQ2mzapTU80cuaKNB6_ljYLrxfqagFLSRMKE1PUuX_n2l4A_G40]--></g></svg>