<?xml version="1.0" encoding="us-ascii" standalone="no"?><svg xmlns="http://www.w3.org/2000/svg" xmlns:xlink="http://www.w3.org/1999/xlink" contentStyleType="text/css" height="1283px" preserveAspectRatio="none" style="width:2086px;height:1283px;background:#FFFFFF;" version="1.1" viewBox="0 0 2086 1283" width="2086px" zoomAndPan="magnify"><defs/><g><rect fill="#FFFFFF" height="745.5898" style="stroke:#181818;stroke-width:1.0;" width="10" x="202.5" y="112.7988"/><rect fill="#FFFFFF" height="296.4844" style="stroke:#181818;stroke-width:1.0;" width="10" x="202.5" y="887.6992"/><rect fill="#FFFFFF" height="354.4844" style="stroke:#181818;stroke-width:1.0;" width="10" x="398.5" y="142.1094"/><rect fill="#FFFFFF" height="303.1738" style="stroke:#181818;stroke-width:1.0;" width="10" x="398.5" y="525.9043"/><rect fill="#FFFFFF" height="237.8633" style="stroke:#181818;stroke-width:1.0;" width="10" x="398.5" y="917.0098"/><rect fill="#FFFFFF" height="59.3105" style="stroke:#181818;stroke-width:1.0;" width="10" x="588.5" y="171.4199"/><rect fill="#FFFFFF" height="30" style="stroke:#181818;stroke-width:1.0;" width="10" x="740" y="200.7305"/><rect fill="#FFFFFF" height="59.3105" style="stroke:#181818;stroke-width:1.0;" width="10" x="740" y="260.041"/><rect fill="#FFFFFF" height="59.3105" style="stroke:#181818;stroke-width:1.0;" width="10" x="740" y="348.6621"/><rect fill="#FFFFFF" height="59.3105" style="stroke:#181818;stroke-width:1.0;" width="10" x="740" y="437.2832"/><rect fill="#FFFFFF" height="30" style="stroke:#181818;stroke-width:1.0;" width="10" x="886.5" y="289.3516"/><rect fill="#FFFFFF" height="30" style="stroke:#181818;stroke-width:1.0;" width="10" x="886.5" y="620.5254"/><rect fill="#FFFFFF" height="30" style="stroke:#181818;stroke-width:1.0;" width="10" x="1027" y="377.9727"/><rect fill="#FFFFFF" height="30" style="stroke:#181818;stroke-width:1.0;" width="10" x="1027" y="946.3203"/><rect fill="#FFFFFF" height="30" style="stroke:#181818;stroke-width:1.0;" width="10" x="1170.5" y="466.5938"/><rect fill="#FFFFFF" height="30" style="stroke:#181818;stroke-width:1.0;" width="10" x="1170.5" y="558.2148"/><rect fill="#FFFFFF" height="119.9316" style="stroke:#181818;stroke-width:1.0;" width="10" x="1377" y="679.8359"/><rect fill="#FFFFFF" height="30" style="stroke:#181818;stroke-width:1.0;" width="10" x="1612" y="733.457"/><rect fill="#FFFFFF" height="119.9316" style="stroke:#181818;stroke-width:1.0;" width="10" x="1818" y="1005.6309"/><rect fill="#FFFFFF" height="30" style="stroke:#181818;stroke-width:1.0;" width="10" x="1995" y="1059.252"/><rect fill="none" height="76.6211" style="stroke:#000000;stroke-width:1.5;" width="480" x="1246.5" y="694.8359"/><rect fill="none" height="76.6211" style="stroke:#000000;stroke-width:1.5;" width="364" x="1716.5" y="1020.6309"/><line style="stroke:#181818;stroke-width:0.5;stroke-dasharray:5.0,5.0;" x1="35" x2="35" y1="81.4883" y2="1202.1836"/><line style="stroke:#181818;stroke-width:0.5;stroke-dasharray:5.0,5.0;" x1="207.5" x2="207.5" y1="81.4883" y2="1202.1836"/><line style="stroke:#181818;stroke-width:0.5;stroke-dasharray:5.0,5.0;" x1="403.5" x2="403.5" y1="81.4883" y2="1202.1836"/><line style="stroke:#181818;stroke-width:0.5;stroke-dasharray:5.0,5.0;" x1="593.5" x2="593.5" y1="81.4883" y2="1202.1836"/><line style="stroke:#181818;stroke-width:0.5;stroke-dasharray:5.0,5.0;" x1="744.5" x2="744.5" y1="81.4883" y2="1202.1836"/><line style="stroke:#181818;stroke-width:0.5;stroke-dasharray:5.0,5.0;" x1="891.5" x2="891.5" y1="81.4883" y2="1202.1836"/><line style="stroke:#181818;stroke-width:0.5;stroke-dasharray:5.0,5.0;" x1="1031.5" x2="1031.5" y1="81.4883" y2="1202.1836"/><line style="stroke:#181818;stroke-width:0.5;stroke-dasharray:5.0,5.0;" x1="1175.5" x2="1175.5" y1="81.4883" y2="1202.1836"/><line style="stroke:#181818;stroke-width:0.5;stroke-dasharray:5.0,5.0;" x1="1381.5" x2="1381.5" y1="81.4883" y2="1202.1836"/><line style="stroke:#181818;stroke-width:0.5;stroke-dasharray:5.0,5.0;" x1="1616.5" x2="1616.5" y1="81.4883" y2="1202.1836"/><line style="stroke:#181818;stroke-width:0.5;stroke-dasharray:5.0,5.0;" x1="1822.5" x2="1822.5" y1="81.4883" y2="1202.1836"/><line style="stroke:#181818;stroke-width:0.5;stroke-dasharray:5.0,5.0;" x1="1999.5" x2="1999.5" y1="81.4883" y2="1202.1836"/><text fill="#000000" font-family="sans-serif" font-size="14" lengthAdjust="spacing" textLength="55" x="5" y="78.5352">Teacher</text><ellipse cx="35.5" cy="13.5" fill="#E2E2F0" rx="8" ry="8" style="stroke:#181818;stroke-width:0.5;"/><path d="M35.5,21.5 L35.5,48.5 M22.5,29.5 L48.5,29.5 M35.5,48.5 L22.5,63.5 M35.5,48.5 L48.5,63.5 " fill="none" style="stroke:#181818;stroke-width:0.5;"/><text fill="#000000" font-family="sans-serif" font-size="14" lengthAdjust="spacing" textLength="55" x="5" y="1214.7188">Teacher</text><ellipse cx="35.5" cy="1226.1719" fill="#E2E2F0" rx="8" ry="8" style="stroke:#181818;stroke-width:0.5;"/><path d="M35.5,1234.1719 L35.5,1261.1719 M22.5,1242.1719 L48.5,1242.1719 M35.5,1261.1719 L22.5,1276.1719 M35.5,1261.1719 L48.5,1276.1719 " fill="none" style="stroke:#181818;stroke-width:0.5;"/><rect fill="#E2E2F0" height="30.4883" rx="2.5" ry="2.5" style="stroke:#181818;stroke-width:0.5;" width="158" x="128.5" y="50"/><text fill="#000000" font-family="sans-serif" font-size="14" lengthAdjust="spacing" textLength="144" x="135.5" y="70.5352">ListExamsInCourseUI</text><rect fill="#E2E2F0" height="30.4883" rx="2.5" ry="2.5" style="stroke:#181818;stroke-width:0.5;" width="158" x="128.5" y="1201.1836"/><text fill="#000000" font-family="sans-serif" font-size="14" lengthAdjust="spacing" textLength="144" x="135.5" y="1221.7188">ListExamsInCourseUI</text><rect fill="#E2E2F0" height="30.4883" rx="2.5" ry="2.5" style="stroke:#181818;stroke-width:0.5;" width="214" x="296.5" y="50"/><text fill="#000000" font-family="sans-serif" font-size="14" lengthAdjust="spacing" textLength="200" x="303.5" y="70.5352">ListExamsInCourseController</text><rect fill="#E2E2F0" height="30.4883" rx="2.5" ry="2.5" style="stroke:#181818;stroke-width:0.5;" width="214" x="296.5" y="1201.1836"/><text fill="#000000" font-family="sans-serif" font-size="14" lengthAdjust="spacing" textLength="200" x="303.5" y="1221.7188">ListExamsInCourseController</text><rect fill="#E2E2F0" height="30.4883" rx="2.5" ry="2.5" style="stroke:#181818;stroke-width:0.5;" width="146" x="520.5" y="50"/><text fill="#000000" font-family="sans-serif" font-size="14" lengthAdjust="spacing" textLength="132" x="527.5" y="70.5352">PersistenceContext</text><rect fill="#E2E2F0" height="30.4883" rx="2.5" ry="2.5" style="stroke:#181818;stroke-width:0.5;" width="146" x="520.5" y="1201.1836"/><text fill="#000000" font-family="sans-serif" font-size="14" lengthAdjust="spacing" textLength="132" x="527.5" y="1221.7188">PersistenceContext</text><rect fill="#E2E2F0" height="30.4883" rx="2.5" ry="2.5" style="stroke:#181818;stroke-width:0.5;" width="137" x="676.5" y="50"/><text fill="#000000" font-family="sans-serif" font-size="14" lengthAdjust="spacing" textLength="123" x="683.5" y="70.5352">RepositoryFactory</text><rect fill="#E2E2F0" height="30.4883" rx="2.5" ry="2.5" style="stroke:#181818;stroke-width:0.5;" width="137" x="676.5" y="1201.1836"/><text fill="#000000" font-family="sans-serif" font-size="14" lengthAdjust="spacing" textLength="123" x="683.5" y="1221.7188">RepositoryFactory</text><rect fill="#E2E2F0" height="30.4883" rx="2.5" ry="2.5" style="stroke:#181818;stroke-width:0.5;" width="136" x="823.5" y="50"/><text fill="#000000" font-family="sans-serif" font-size="14" lengthAdjust="spacing" textLength="122" x="830.5" y="70.5352">CourseRepository</text><rect fill="#E2E2F0" height="30.4883" rx="2.5" ry="2.5" style="stroke:#181818;stroke-width:0.5;" width="136" x="823.5" y="1201.1836"/><text fill="#000000" font-family="sans-serif" font-size="14" lengthAdjust="spacing" textLength="122" x="830.5" y="1221.7188">CourseRepository</text><rect fill="#E2E2F0" height="30.4883" rx="2.5" ry="2.5" style="stroke:#181818;stroke-width:0.5;" width="125" x="969.5" y="50"/><text fill="#000000" font-family="sans-serif" font-size="14" lengthAdjust="spacing" textLength="111" x="976.5" y="70.5352">ExamRepository</text><rect fill="#E2E2F0" height="30.4883" rx="2.5" ry="2.5" style="stroke:#181818;stroke-width:0.5;" width="125" x="969.5" y="1201.1836"/><text fill="#000000" font-family="sans-serif" font-size="14" lengthAdjust="spacing" textLength="111" x="976.5" y="1221.7188">ExamRepository</text><rect fill="#E2E2F0" height="30.4883" rx="2.5" ry="2.5" style="stroke:#181818;stroke-width:0.5;" width="142" x="1104.5" y="50"/><text fill="#000000" font-family="sans-serif" font-size="14" lengthAdjust="spacing" textLength="128" x="1111.5" y="70.5352">TeacherRepository</text><rect fill="#E2E2F0" height="30.4883" rx="2.5" ry="2.5" style="stroke:#181818;stroke-width:0.5;" width="142" x="1104.5" y="1201.1836"/><text fill="#000000" font-family="sans-serif" font-size="14" lengthAdjust="spacing" textLength="128" x="1111.5" y="1221.7188">TeacherRepository</text><rect fill="#E2E2F0" height="30.4883" rx="2.5" ry="2.5" style="stroke:#181818;stroke-width:0.5;" width="251" x="1256.5" y="50"/><text fill="#000000" font-family="sans-serif" font-size="14" lengthAdjust="spacing" textLength="237" x="1263.5" y="70.5352">CourseAndDescriptionDTOMapper</text><rect fill="#E2E2F0" height="30.4883" rx="2.5" ry="2.5" style="stroke:#181818;stroke-width:0.5;" width="251" x="1256.5" y="1201.1836"/><text fill="#000000" font-family="sans-serif" font-size="14" lengthAdjust="spacing" textLength="237" x="1263.5" y="1221.7188">CourseAndDescriptionDTOMapper</text><rect fill="#E2E2F0" height="30.4883" rx="2.5" ry="2.5" style="stroke:#181818;stroke-width:0.5;" width="199" x="1517.5" y="50"/><text fill="#000000" font-family="sans-serif" font-size="14" lengthAdjust="spacing" textLength="185" x="1524.5" y="70.5352">CourseAndDescriptionDTO</text><rect fill="#E2E2F0" height="30.4883" rx="2.5" ry="2.5" style="stroke:#181818;stroke-width:0.5;" width="199" x="1517.5" y="1201.1836"/><text fill="#000000" font-family="sans-serif" font-size="14" lengthAdjust="spacing" textLength="185" x="1524.5" y="1221.7188">CourseAndDescriptionDTO</text><rect fill="#E2E2F0" height="30.4883" rx="2.5" ry="2.5" style="stroke:#181818;stroke-width:0.5;" width="193" x="1726.5" y="50"/><text fill="#000000" font-family="sans-serif" font-size="14" lengthAdjust="spacing" textLength="179" x="1733.5" y="70.5352">ExamAndDateDTOMapper</text><rect fill="#E2E2F0" height="30.4883" rx="2.5" ry="2.5" style="stroke:#181818;stroke-width:0.5;" width="193" x="1726.5" y="1201.1836"/><text fill="#000000" font-family="sans-serif" font-size="14" lengthAdjust="spacing" textLength="179" x="1733.5" y="1221.7188">ExamAndDateDTOMapper</text><rect fill="#E2E2F0" height="30.4883" rx="2.5" ry="2.5" style="stroke:#181818;stroke-width:0.5;" width="141" x="1929.5" y="50"/><text fill="#000000" font-family="sans-serif" font-size="14" lengthAdjust="spacing" textLength="127" x="1936.5" y="70.5352">ExamAndDateDTO</text><rect fill="#E2E2F0" height="30.4883" rx="2.5" ry="2.5" style="stroke:#181818;stroke-width:0.5;" width="141" x="1929.5" y="1201.1836"/><text fill="#000000" font-family="sans-serif" font-size="14" lengthAdjust="spacing" textLength="127" x="1936.5" y="1221.7188">ExamAndDateDTO</text><rect fill="#FFFFFF" height="745.5898" style="stroke:#181818;stroke-width:1.0;" width="10" x="202.5" y="112.7988"/><rect fill="#FFFFFF" height="296.4844" style="stroke:#181818;stroke-width:1.0;" width="10" x="202.5" y="887.6992"/><rect fill="#FFFFFF" height="354.4844" style="stroke:#181818;stroke-width:1.0;" width="10" x="398.5" y="142.1094"/><rect fill="#FFFFFF" height="303.1738" style="stroke:#181818;stroke-width:1.0;" width="10" x="398.5" y="525.9043"/><rect fill="#FFFFFF" height="237.8633" style="stroke:#181818;stroke-width:1.0;" width="10" x="398.5" y="917.0098"/><rect fill="#FFFFFF" height="59.3105" style="stroke:#181818;stroke-width:1.0;" width="10" x="588.5" y="171.4199"/><rect fill="#FFFFFF" height="30" style="stroke:#181818;stroke-width:1.0;" width="10" x="740" y="200.7305"/><rect fill="#FFFFFF" height="59.3105" style="stroke:#181818;stroke-width:1.0;" width="10" x="740" y="260.041"/><rect fill="#FFFFFF" height="59.3105" style="stroke:#181818;stroke-width:1.0;" width="10" x="740" y="348.6621"/><rect fill="#FFFFFF" height="59.3105" style="stroke:#181818;stroke-width:1.0;" width="10" x="740" y="437.2832"/><rect fill="#FFFFFF" height="30" style="stroke:#181818;stroke-width:1.0;" width="10" x="886.5" y="289.3516"/><rect fill="#FFFFFF" height="30" style="stroke:#181818;stroke-width:1.0;" width="10" x="886.5" y="620.5254"/><rect fill="#FFFFFF" height="30" style="stroke:#181818;stroke-width:1.0;" width="10" x="1027" y="377.9727"/><rect fill="#FFFFFF" height="30" style="stroke:#181818;stroke-width:1.0;" width="10" x="1027" y="946.3203"/><rect fill="#FFFFFF" height="30" style="stroke:#181818;stroke-width:1.0;" width="10" x="1170.5" y="466.5938"/><rect fill="#FFFFFF" height="30" style="stroke:#181818;stroke-width:1.0;" width="10" x="1170.5" y="558.2148"/><rect fill="#FFFFFF" height="119.9316" style="stroke:#181818;stroke-width:1.0;" width="10" x="1377" y="679.8359"/><rect fill="#FFFFFF" height="30" style="stroke:#181818;stroke-width:1.0;" width="10" x="1612" y="733.457"/><rect fill="#FFFFFF" height="119.9316" style="stroke:#181818;stroke-width:1.0;" width="10" x="1818" y="1005.6309"/><rect fill="#FFFFFF" height="30" style="stroke:#181818;stroke-width:1.0;" width="10" x="1995" y="1059.252"/><polygon fill="#181818" points="190.5,108.7988,200.5,112.7988,190.5,116.7988,194.5,112.7988" style="stroke:#181818;stroke-width:1.0;"/><line style="stroke:#181818;stroke-width:1.0;stroke-dasharray:2.0,2.0;" x1="35.5" x2="196.5" y1="112.7988" y2="112.7988"/><text fill="#000000" font-family="sans-serif" font-size="13" lengthAdjust="spacing" textLength="32" x="42.5" y="108.0566">enter</text><polygon fill="#181818" points="386.5,138.1094,396.5,142.1094,386.5,146.1094,390.5,142.1094" style="stroke:#181818;stroke-width:1.0;"/><line style="stroke:#181818;stroke-width:1.0;stroke-dasharray:2.0,2.0;" x1="212.5" x2="392.5" y1="142.1094" y2="142.1094"/><text fill="#000000" font-family="sans-serif" font-size="13" lengthAdjust="spacing" textLength="46" x="219.5" y="137.3672">create()</text><polygon fill="#181818" points="576.5,167.4199,586.5,171.4199,576.5,175.4199,580.5,171.4199" style="stroke:#181818;stroke-width:1.0;"/><line style="stroke:#181818;stroke-width:1.0;stroke-dasharray:2.0,2.0;" x1="408.5" x2="582.5" y1="171.4199" y2="171.4199"/><text fill="#000000" font-family="sans-serif" font-size="13" lengthAdjust="spacing" textLength="83" x="415.5" y="166.6777">repositories()</text><polygon fill="#181818" points="728,196.7305,738,200.7305,728,204.7305,732,200.7305" style="stroke:#181818;stroke-width:1.0;"/><line style="stroke:#181818;stroke-width:1.0;stroke-dasharray:2.0,2.0;" x1="598.5" x2="734" y1="200.7305" y2="200.7305"/><text fill="#000000" font-family="sans-serif" font-size="13" lengthAdjust="spacing" textLength="46" x="605.5" y="195.9883">create()</text><polygon fill="#181818" points="728,256.041,738,260.041,728,264.041,732,260.041" style="stroke:#181818;stroke-width:1.0;"/><line style="stroke:#181818;stroke-width:1.0;stroke-dasharray:2.0,2.0;" x1="408.5" x2="734" y1="260.041" y2="260.041"/><text fill="#000000" font-family="sans-serif" font-size="13" lengthAdjust="spacing" textLength="57" x="415.5" y="255.2988">courses()</text><polygon fill="#181818" points="874.5,285.3516,884.5,289.3516,874.5,293.3516,878.5,289.3516" style="stroke:#181818;stroke-width:1.0;"/><line style="stroke:#181818;stroke-width:1.0;stroke-dasharray:2.0,2.0;" x1="750" x2="880.5" y1="289.3516" y2="289.3516"/><text fill="#000000" font-family="sans-serif" font-size="13" lengthAdjust="spacing" textLength="46" x="757" y="284.6094">create()</text><polygon fill="#181818" points="728,344.6621,738,348.6621,728,352.6621,732,348.6621" style="stroke:#181818;stroke-width:1.0;"/><line style="stroke:#181818;stroke-width:1.0;stroke-dasharray:2.0,2.0;" x1="408.5" x2="734" y1="348.6621" y2="348.6621"/><text fill="#000000" font-family="sans-serif" font-size="13" lengthAdjust="spacing" textLength="49" x="415.5" y="343.9199">exams()</text><polygon fill="#181818" points="1015,373.9727,1025,377.9727,1015,381.9727,1019,377.9727" style="stroke:#181818;stroke-width:1.0;"/><line style="stroke:#181818;stroke-width:1.0;stroke-dasharray:2.0,2.0;" x1="750" x2="1021" y1="377.9727" y2="377.9727"/><text fill="#000000" font-family="sans-serif" font-size="13" lengthAdjust="spacing" textLength="46" x="757" y="373.2305">create()</text><polygon fill="#181818" points="728,433.2832,738,437.2832,728,441.2832,732,437.2832" style="stroke:#181818;stroke-width:1.0;"/><line style="stroke:#181818;stroke-width:1.0;stroke-dasharray:2.0,2.0;" x1="408.5" x2="734" y1="437.2832" y2="437.2832"/><text fill="#000000" font-family="sans-serif" font-size="13" lengthAdjust="spacing" textLength="61" x="415.5" y="432.541">teachers()</text><polygon fill="#181818" points="1158.5,462.5938,1168.5,466.5938,1158.5,470.5938,1162.5,466.5938" style="stroke:#181818;stroke-width:1.0;"/><line style="stroke:#181818;stroke-width:1.0;stroke-dasharray:2.0,2.0;" x1="750" x2="1164.5" y1="466.5938" y2="466.5938"/><text fill="#000000" font-family="sans-serif" font-size="13" lengthAdjust="spacing" textLength="46" x="757" y="461.8516">create()</text><polygon fill="#181818" points="386.5,521.9043,396.5,525.9043,386.5,529.9043,390.5,525.9043" style="stroke:#181818;stroke-width:1.0;"/><line style="stroke:#181818;stroke-width:1.0;stroke-dasharray:2.0,2.0;" x1="212.5" x2="392.5" y1="525.9043" y2="525.9043"/><text fill="#000000" font-family="sans-serif" font-size="13" lengthAdjust="spacing" textLength="79" x="219.5" y="521.1621">getCourses()</text><polygon fill="#181818" points="1158.5,554.2148,1168.5,558.2148,1158.5,562.2148,1162.5,558.2148" style="stroke:#181818;stroke-width:1.0;"/><line style="stroke:#181818;stroke-width:1.0;stroke-dasharray:2.0,2.0;" x1="408.5" x2="1164.5" y1="558.2148" y2="558.2148"/><text fill="#000000" font-family="sans-serif" font-size="13" lengthAdjust="spacing" textLength="257" x="415.5" y="553.4727">teacher = findBySystemUser(systemUser)</text><path d="M128,538.9043 L128,563.9043 L393,563.9043 L393,548.9043 L383,538.9043 L128,538.9043 " fill="#FEFFDD" style="stroke:#181818;stroke-width:0.5;"/><path d="M383,538.9043 L383,548.9043 L393,548.9043 L383,538.9043 " fill="#FEFFDD" style="stroke:#181818;stroke-width:0.5;"/><text fill="#000000" font-family="sans-serif" font-size="13" lengthAdjust="spacing" textLength="244" x="134" y="556.4727">systemUser is taken from user session</text><polygon fill="#181818" points="874.5,616.5254,884.5,620.5254,874.5,624.5254,878.5,620.5254" style="stroke:#181818;stroke-width:1.0;"/><line style="stroke:#181818;stroke-width:1.0;stroke-dasharray:2.0,2.0;" x1="408.5" x2="880.5" y1="620.5254" y2="620.5254"/><text fill="#000000" font-family="sans-serif" font-size="13" lengthAdjust="spacing" textLength="109" x="415.5" y="615.7832">taughtBy(teacher)</text><polygon fill="#181818" points="1365,675.8359,1375,679.8359,1365,683.8359,1369,679.8359" style="stroke:#181818;stroke-width:1.0;"/><line style="stroke:#181818;stroke-width:1.0;stroke-dasharray:2.0,2.0;" x1="408.5" x2="1371" y1="679.8359" y2="679.8359"/><text fill="#000000" font-family="sans-serif" font-size="13" lengthAdjust="spacing" textLength="93" x="415.5" y="675.0938">toDto(courses)</text><path d="M1246.5,694.8359 L1320.5,694.8359 L1320.5,702.1465 L1310.5,712.1465 L1246.5,712.1465 L1246.5,694.8359 " fill="#EEEEEE" style="stroke:#000000;stroke-width:1.5;"/><rect fill="none" height="76.6211" style="stroke:#000000;stroke-width:1.5;" width="480" x="1246.5" y="694.8359"/><text fill="#000000" font-family="sans-serif" font-size="13" font-weight="bold" lengthAdjust="spacing" textLength="29" x="1261.5" y="708.4043">loop</text><text fill="#000000" font-family="sans-serif" font-size="11" font-weight="bold" lengthAdjust="spacing" textLength="157" x="1335.5" y="707.4707">[for each course in courses]</text><polygon fill="#181818" points="1600,729.457,1610,733.457,1600,737.457,1604,733.457" style="stroke:#181818;stroke-width:1.0;"/><line style="stroke:#181818;stroke-width:1.0;stroke-dasharray:2.0,2.0;" x1="1387" x2="1606" y1="733.457" y2="733.457"/><text fill="#000000" font-family="sans-serif" font-size="13" lengthAdjust="spacing" textLength="46" x="1394" y="728.7148">create()</text><polygon fill="#181818" points="419.5,795.7676,409.5,799.7676,419.5,803.7676,415.5,799.7676" style="stroke:#181818;stroke-width:1.0;"/><line style="stroke:#181818;stroke-width:1.0;stroke-dasharray:2.0,2.0;" x1="413.5" x2="1381" y1="799.7676" y2="799.7676"/><text fill="#000000" font-family="sans-serif" font-size="13" lengthAdjust="spacing" textLength="93" x="425.5" y="795.0254">courseDTOList</text><polygon fill="#181818" points="223.5,825.0781,213.5,829.0781,223.5,833.0781,219.5,829.0781" style="stroke:#181818;stroke-width:1.0;"/><line style="stroke:#181818;stroke-width:1.0;stroke-dasharray:2.0,2.0;" x1="217.5" x2="402.5" y1="829.0781" y2="829.0781"/><text fill="#000000" font-family="sans-serif" font-size="13" lengthAdjust="spacing" textLength="49" x="229.5" y="824.3359">courses</text><polygon fill="#181818" points="46.5,854.3887,36.5,858.3887,46.5,862.3887,42.5,858.3887" style="stroke:#181818;stroke-width:1.0;"/><line style="stroke:#181818;stroke-width:1.0;stroke-dasharray:2.0,2.0;" x1="40.5" x2="206.5" y1="858.3887" y2="858.3887"/><text fill="#000000" font-family="sans-serif" font-size="13" lengthAdjust="spacing" textLength="86" x="52.5" y="853.6465">show courses</text><polygon fill="#181818" points="190.5,883.6992,200.5,887.6992,190.5,891.6992,194.5,887.6992" style="stroke:#181818;stroke-width:1.0;"/><line style="stroke:#181818;stroke-width:1.0;stroke-dasharray:2.0,2.0;" x1="35.5" x2="196.5" y1="887.6992" y2="887.6992"/><text fill="#000000" font-family="sans-serif" font-size="13" lengthAdjust="spacing" textLength="148" x="42.5" y="882.957">selects course from list</text><polygon fill="#181818" points="386.5,913.0098,396.5,917.0098,386.5,921.0098,390.5,917.0098" style="stroke:#181818;stroke-width:1.0;"/><line style="stroke:#181818;stroke-width:1.0;stroke-dasharray:2.0,2.0;" x1="212.5" x2="392.5" y1="917.0098" y2="917.0098"/><text fill="#000000" font-family="sans-serif" font-size="13" lengthAdjust="spacing" textLength="111" x="219.5" y="912.2676">listExams(course)</text><polygon fill="#181818" points="1015,942.3203,1025,946.3203,1015,950.3203,1019,946.3203" style="stroke:#181818;stroke-width:1.0;"/><line style="stroke:#181818;stroke-width:1.0;stroke-dasharray:2.0,2.0;" x1="408.5" x2="1021" y1="946.3203" y2="946.3203"/><text fill="#000000" font-family="sans-serif" font-size="13" lengthAdjust="spacing" textLength="133" x="415.5" y="941.5781">findByCourse(course)</text><polygon fill="#181818" points="1806,1001.6309,1816,1005.6309,1806,1009.6309,1810,1005.6309" style="stroke:#181818;stroke-width:1.0;"/><line style="stroke:#181818;stroke-width:1.0;stroke-dasharray:2.0,2.0;" x1="408.5" x2="1812" y1="1005.6309" y2="1005.6309"/><text fill="#000000" font-family="sans-serif" font-size="13" lengthAdjust="spacing" textLength="85" x="415.5" y="1000.8887">toDto(exams)</text><path d="M1716.5,1020.6309 L1790.5,1020.6309 L1790.5,1027.9414 L1780.5,1037.9414 L1716.5,1037.9414 L1716.5,1020.6309 " fill="#EEEEEE" style="stroke:#000000;stroke-width:1.5;"/><rect fill="none" height="76.6211" style="stroke:#000000;stroke-width:1.5;" width="364" x="1716.5" y="1020.6309"/><text fill="#000000" font-family="sans-serif" font-size="13" font-weight="bold" lengthAdjust="spacing" textLength="29" x="1731.5" y="1034.1992">loop</text><text fill="#000000" font-family="sans-serif" font-size="11" font-weight="bold" lengthAdjust="spacing" textLength="141" x="1805.5" y="1033.2656">[for each exam in exams]</text><polygon fill="#181818" points="1983,1055.252,1993,1059.252,1983,1063.252,1987,1059.252" style="stroke:#181818;stroke-width:1.0;"/><line style="stroke:#181818;stroke-width:1.0;stroke-dasharray:2.0,2.0;" x1="1828" x2="1989" y1="1059.252" y2="1059.252"/><text fill="#000000" font-family="sans-serif" font-size="13" lengthAdjust="spacing" textLength="46" x="1835" y="1054.5098">create()</text><polygon fill="#181818" points="419.5,1121.5625,409.5,1125.5625,419.5,1129.5625,415.5,1125.5625" style="stroke:#181818;stroke-width:1.0;"/><line style="stroke:#181818;stroke-width:1.0;stroke-dasharray:2.0,2.0;" x1="413.5" x2="1822" y1="1125.5625" y2="1125.5625"/><text fill="#000000" font-family="sans-serif" font-size="13" lengthAdjust="spacing" textLength="85" x="425.5" y="1120.8203">examDTOList</text><polygon fill="#181818" points="223.5,1150.873,213.5,1154.873,223.5,1158.873,219.5,1154.873" style="stroke:#181818;stroke-width:1.0;"/><line style="stroke:#181818;stroke-width:1.0;stroke-dasharray:2.0,2.0;" x1="217.5" x2="402.5" y1="1154.873" y2="1154.873"/><text fill="#000000" font-family="sans-serif" font-size="13" lengthAdjust="spacing" textLength="41" x="229.5" y="1150.1309">exams</text><polygon fill="#181818" points="46.5,1180.1836,36.5,1184.1836,46.5,1188.1836,42.5,1184.1836" style="stroke:#181818;stroke-width:1.0;"/><line style="stroke:#181818;stroke-width:1.0;stroke-dasharray:2.0,2.0;" x1="40.5" x2="206.5" y1="1184.1836" y2="1184.1836"/><text fill="#000000" font-family="sans-serif" font-size="13" lengthAdjust="spacing" textLength="78" x="52.5" y="1179.4414">show exams</text><!--SRC=[dLR1Rjim3BtxAtHC3lq10nkmfXjGOCE6hJqNciCqmXp9a9JD-VkHacnBjXIdpIcX7iL7yf4ARwpIx0buSmJDk65d0xhgkBQY4HsNbdqLndxk-SayofqwQmFFZmudhgDsIbgjsjRVsbZTLed33z06VK0s3WgzzRW-GVs4JXc152zVE36z44X3ztBWJGBqGIUukypPNX2k4YpnJ960bYKkL2M5Mc_qw0o5JtB_0ARHehD2oOUdxzzuruKYU3udPxZ5DNBQsraqIe8Sk8KaY4ib4oB5ZqXtB_MStTrznARM3B0Pki9gYx-8fJwVXJka7jQiqO3cpRPY-1bHhhyiVEX7yEXhwfOldm0Jt6Qk_MZqthrp3bsUHLou3sA83_TGF8wEAF2IynJM5JvBEHSps7pUa_3MwCSQBQIGWsGoBAR2QjVgTsKo3iPQ7jC45R9O0jwIGptCtRkoY6TsBP5alWkvP345qIM2eoL8ncIYNi7k4gsjJ5MQJVZ5Fh23aFlxowyBBjNJCqxqnenVCpNBvY0LdlnMrgfJpIPt9d3lyJyWsK6hatiY6D8rkAMgjV9aja8y7PQVNu_s_h89Jjkgkcb62lDHZEOt8iPJ3rPjmcnlYx720etxtohLiGC-baGqu9YGmvv8i8v1V5DC1LTkGOGv9hIWvvXbydCKoBqZNAqmyYlTsV5Le4VyIeLdHHbBJA_6K8MivYF9atPGMaVrRtI9qFZOf8-HWHOQExo2NdujiOnT5XFL3dz6GgDl6gjerVb9yaEPNB6oyhBhhX0f5QHRqAKOgs8a54dHtR9GItJ75Fv64Ox_4Qv8C8l92d3En7UBh5V4boj18hqfwzjqv_6fwlu3]--></g></svg>