<?xml version="1.0" encoding="us-ascii" standalone="no"?><svg xmlns="http://www.w3.org/2000/svg" xmlns:xlink="http://www.w3.org/1999/xlink" contentStyleType="text/css" height="1277px" preserveAspectRatio="none" style="width:1862px;height:1277px;background:#1B1B1B;" version="1.1" viewBox="0 0 1862 1277" width="1862px" zoomAndPan="magnify"><defs/><g><rect fill="#1B1B1B" height="1277" style="stroke:none;stroke-width:1.0;" width="1862" x="0" y="0"/><rect fill="#000000" height="869.8263" style="stroke:#E7E7E7;stroke-width:1.0;" width="10" x="189" y="117.7739"/><rect fill="#000000" height="156.8241" style="stroke:#E7E7E7;stroke-width:1.0;" width="10" x="189" y="1019.3063"/><rect fill="#000000" height="373.6481" style="stroke:#E7E7E7;stroke-width:1.0;" width="10" x="381" y="149.4799"/><rect fill="#000000" height="401.0602" style="stroke:#E7E7E7;stroke-width:1.0;" width="10" x="381" y="554.8341"/><rect fill="#000000" height="93.412" style="stroke:#E7E7E7;stroke-width:1.0;" width="10" x="381" y="1051.0123"/><rect fill="#000000" height="117.118" style="stroke:#E7E7E7;stroke-width:1.0;" width="10" x="551.5" y="586.5401"/><rect fill="#000000" height="30" style="stroke:#E7E7E7;stroke-width:1.0;" width="10" x="652" y="630.0991"/><rect fill="#000000" height="61.706" style="stroke:#E7E7E7;stroke-width:1.0;" width="10" x="767" y="181.186"/><rect fill="#000000" height="30" style="stroke:#E7E7E7;stroke-width:1.0;" width="10" x="914.5" y="212.892"/><rect fill="#000000" height="61.706" style="stroke:#E7E7E7;stroke-width:1.0;" width="10" x="914.5" y="274.598"/><rect fill="#000000" height="61.706" style="stroke:#E7E7E7;stroke-width:1.0;" width="10" x="914.5" y="368.01"/><rect fill="#000000" height="61.706" style="stroke:#E7E7E7;stroke-width:1.0;" width="10" x="914.5" y="461.4221"/><rect fill="#000000" height="30" style="stroke:#E7E7E7;stroke-width:1.0;" width="10" x="1057" y="306.304"/><rect fill="#000000" height="30" style="stroke:#E7E7E7;stroke-width:1.0;" width="10" x="1193.5" y="399.716"/><rect fill="#000000" height="30" style="stroke:#E7E7E7;stroke-width:1.0;" width="10" x="1193.5" y="1082.7183"/><rect fill="#000000" height="30" style="stroke:#E7E7E7;stroke-width:1.0;" width="10" x="1322" y="493.1281"/><rect fill="#000000" height="30" style="stroke:#E7E7E7;stroke-width:1.0;" width="10" x="1322" y="735.3642"/><rect fill="#000000" height="127.118" style="stroke:#E7E7E7;stroke-width:1.0;" width="10" x="1513.5" y="797.0702"/><rect fill="#000000" height="30" style="stroke:#E7E7E7;stroke-width:1.0;" width="10" x="1744" y="855.4822"/><rect fill="none" height="81.412" style="stroke:#FFFFFF;stroke-width:1.5;" width="471" x="1385" y="812.0702"/><line style="stroke:#E7E7E7;stroke-width:0.5;stroke-dasharray:5.0,5.0;" x1="35" x2="35" y1="84.0679" y2="1194.1304"/><line style="stroke:#E7E7E7;stroke-width:0.5;stroke-dasharray:5.0,5.0;" x1="194" x2="194" y1="84.0679" y2="1194.1304"/><line style="stroke:#E7E7E7;stroke-width:0.5;stroke-dasharray:5.0,5.0;" x1="386" x2="386" y1="84.0679" y2="1194.1304"/><line style="stroke:#E7E7E7;stroke-width:0.5;stroke-dasharray:5.0,5.0;" x1="556" x2="556" y1="84.0679" y2="1194.1304"/><line style="stroke:#E7E7E7;stroke-width:0.5;stroke-dasharray:5.0,5.0;" x1="657" x2="657" y1="84.0679" y2="1194.1304"/><line style="stroke:#E7E7E7;stroke-width:0.5;stroke-dasharray:5.0,5.0;" x1="772" x2="772" y1="84.0679" y2="1194.1304"/><line style="stroke:#E7E7E7;stroke-width:0.5;stroke-dasharray:5.0,5.0;" x1="919" x2="919" y1="84.0679" y2="1194.1304"/><line style="stroke:#E7E7E7;stroke-width:0.5;stroke-dasharray:5.0,5.0;" x1="1062" x2="1062" y1="84.0679" y2="1194.1304"/><line style="stroke:#E7E7E7;stroke-width:0.5;stroke-dasharray:5.0,5.0;" x1="1198" x2="1198" y1="84.0679" y2="1194.1304"/><line style="stroke:#E7E7E7;stroke-width:0.5;stroke-dasharray:5.0,5.0;" x1="1327" x2="1327" y1="84.0679" y2="1194.1304"/><line style="stroke:#E7E7E7;stroke-width:0.5;stroke-dasharray:5.0,5.0;" x1="1518" x2="1518" y1="84.0679" y2="1194.1304"/><line style="stroke:#E7E7E7;stroke-width:0.5;stroke-dasharray:5.0,5.0;" x1="1749" x2="1749" y1="84.0679" y2="1194.1304"/><text fill="#FFFFFF" font-family="sans-serif" font-size="14" lengthAdjust="spacing" textLength="54" x="5" y="79.9659">Teacher</text><ellipse cx="35" cy="13.5" fill="#222222" rx="8" ry="8" style="stroke:#E7E7E7;stroke-width:0.5;"/><path d="M35,21.5 L35,48.5 M22,29.5 L48,29.5 M35,48.5 L22,63.5 M35,48.5 L48,63.5 " fill="none" style="stroke:#E7E7E7;stroke-width:0.5;"/><text fill="#FFFFFF" font-family="sans-serif" font-size="14" lengthAdjust="spacing" textLength="54" x="5" y="1208.0963">Teacher</text><ellipse cx="35" cy="1220.6983" fill="#222222" rx="8" ry="8" style="stroke:#E7E7E7;stroke-width:0.5;"/><path d="M35,1228.6983 L35,1255.6983 M22,1236.6983 L48,1236.6983 M35,1255.6983 L22,1270.6983 M35,1255.6983 L48,1270.6983 " fill="none" style="stroke:#E7E7E7;stroke-width:0.5;"/><rect fill="#222222" height="33.0679" rx="2.5" ry="2.5" style="stroke:#E7E7E7;stroke-width:0.5;" width="156" x="116" y="50"/><text fill="#FFFFFF" font-family="sans-serif" font-size="14" lengthAdjust="spacing" textLength="142" x="123" y="71.9659">ListExamsInCourseUI</text><rect fill="#222222" height="33.0679" rx="2.5" ry="2.5" style="stroke:#E7E7E7;stroke-width:0.5;" width="156" x="116" y="1193.1304"/><text fill="#FFFFFF" font-family="sans-serif" font-size="14" lengthAdjust="spacing" textLength="142" x="123" y="1215.0963">ListExamsInCourseUI</text><rect fill="#222222" height="33.0679" rx="2.5" ry="2.5" style="stroke:#E7E7E7;stroke-width:0.5;" width="208" x="282" y="50"/><text fill="#FFFFFF" font-family="sans-serif" font-size="14" lengthAdjust="spacing" textLength="194" x="289" y="71.9659">ListExamsInCourseController</text><rect fill="#222222" height="33.0679" rx="2.5" ry="2.5" style="stroke:#E7E7E7;stroke-width:0.5;" width="208" x="282" y="1193.1304"/><text fill="#FFFFFF" font-family="sans-serif" font-size="14" lengthAdjust="spacing" textLength="194" x="289" y="1215.0963">ListExamsInCourseController</text><rect fill="#222222" height="33.0679" rx="2.5" ry="2.5" style="stroke:#E7E7E7;stroke-width:0.5;" width="113" x="500" y="50"/><text fill="#FFFFFF" font-family="sans-serif" font-size="14" lengthAdjust="spacing" textLength="99" x="507" y="71.9659">MyUserService</text><rect fill="#222222" height="33.0679" rx="2.5" ry="2.5" style="stroke:#E7E7E7;stroke-width:0.5;" width="113" x="500" y="1193.1304"/><text fill="#FFFFFF" font-family="sans-serif" font-size="14" lengthAdjust="spacing" textLength="99" x="507" y="1215.0963">MyUserService</text><rect fill="#222222" height="33.0679" rx="2.5" ry="2.5" style="stroke:#E7E7E7;stroke-width:0.5;" width="68" x="623" y="50"/><text fill="#FFFFFF" font-family="sans-serif" font-size="14" lengthAdjust="spacing" textLength="54" x="630" y="71.9659">Teacher</text><rect fill="#222222" height="33.0679" rx="2.5" ry="2.5" style="stroke:#E7E7E7;stroke-width:0.5;" width="68" x="623" y="1193.1304"/><text fill="#FFFFFF" font-family="sans-serif" font-size="14" lengthAdjust="spacing" textLength="54" x="630" y="1215.0963">Teacher</text><rect fill="#222222" height="33.0679" rx="2.5" ry="2.5" style="stroke:#E7E7E7;stroke-width:0.5;" width="142" x="701" y="50"/><text fill="#FFFFFF" font-family="sans-serif" font-size="14" lengthAdjust="spacing" textLength="128" x="708" y="71.9659">PersistenceContext</text><rect fill="#222222" height="33.0679" rx="2.5" ry="2.5" style="stroke:#E7E7E7;stroke-width:0.5;" width="142" x="701" y="1193.1304"/><text fill="#FFFFFF" font-family="sans-serif" font-size="14" lengthAdjust="spacing" textLength="128" x="708" y="1215.0963">PersistenceContext</text><rect fill="#222222" height="33.0679" rx="2.5" ry="2.5" style="stroke:#E7E7E7;stroke-width:0.5;" width="133" x="853" y="50"/><text fill="#FFFFFF" font-family="sans-serif" font-size="14" lengthAdjust="spacing" textLength="119" x="860" y="71.9659">RepositoryFactory</text><rect fill="#222222" height="33.0679" rx="2.5" ry="2.5" style="stroke:#E7E7E7;stroke-width:0.5;" width="133" x="853" y="1193.1304"/><text fill="#FFFFFF" font-family="sans-serif" font-size="14" lengthAdjust="spacing" textLength="119" x="860" y="1215.0963">RepositoryFactory</text><rect fill="#222222" height="33.0679" rx="2.5" ry="2.5" style="stroke:#E7E7E7;stroke-width:0.5;" width="132" x="996" y="50"/><text fill="#FFFFFF" font-family="sans-serif" font-size="14" lengthAdjust="spacing" textLength="118" x="1003" y="71.9659">CourseRepository</text><rect fill="#222222" height="33.0679" rx="2.5" ry="2.5" style="stroke:#E7E7E7;stroke-width:0.5;" width="132" x="996" y="1193.1304"/><text fill="#FFFFFF" font-family="sans-serif" font-size="14" lengthAdjust="spacing" textLength="118" x="1003" y="1215.0963">CourseRepository</text><rect fill="#222222" height="33.0679" rx="2.5" ry="2.5" style="stroke:#E7E7E7;stroke-width:0.5;" width="121" x="1138" y="50"/><text fill="#FFFFFF" font-family="sans-serif" font-size="14" lengthAdjust="spacing" textLength="107" x="1145" y="71.9659">ExamRepository</text><rect fill="#222222" height="33.0679" rx="2.5" ry="2.5" style="stroke:#E7E7E7;stroke-width:0.5;" width="121" x="1138" y="1193.1304"/><text fill="#FFFFFF" font-family="sans-serif" font-size="14" lengthAdjust="spacing" textLength="107" x="1145" y="1215.0963">ExamRepository</text><rect fill="#222222" height="33.0679" rx="2.5" ry="2.5" style="stroke:#E7E7E7;stroke-width:0.5;" width="116" x="1269" y="50"/><text fill="#FFFFFF" font-family="sans-serif" font-size="14" lengthAdjust="spacing" textLength="102" x="1276" y="71.9659">StaffRepository</text><rect fill="#222222" height="33.0679" rx="2.5" ry="2.5" style="stroke:#E7E7E7;stroke-width:0.5;" width="116" x="1269" y="1193.1304"/><text fill="#FFFFFF" font-family="sans-serif" font-size="14" lengthAdjust="spacing" textLength="102" x="1276" y="1215.0963">StaffRepository</text><rect fill="#222222" height="33.0679" rx="2.5" ry="2.5" style="stroke:#E7E7E7;stroke-width:0.5;" width="247" x="1395" y="50"/><text fill="#FFFFFF" font-family="sans-serif" font-size="14" lengthAdjust="spacing" textLength="233" x="1402" y="71.9659">CourseAndDescriptionDTOMapper</text><rect fill="#222222" height="33.0679" rx="2.5" ry="2.5" style="stroke:#E7E7E7;stroke-width:0.5;" width="247" x="1395" y="1193.1304"/><text fill="#FFFFFF" font-family="sans-serif" font-size="14" lengthAdjust="spacing" textLength="233" x="1402" y="1215.0963">CourseAndDescriptionDTOMapper</text><rect fill="#222222" height="33.0679" rx="2.5" ry="2.5" style="stroke:#E7E7E7;stroke-width:0.5;" width="194" x="1652" y="50"/><text fill="#FFFFFF" font-family="sans-serif" font-size="14" lengthAdjust="spacing" textLength="180" x="1659" y="71.9659">CourseAndDescriptionDTO</text><rect fill="#222222" height="33.0679" rx="2.5" ry="2.5" style="stroke:#E7E7E7;stroke-width:0.5;" width="194" x="1652" y="1193.1304"/><text fill="#FFFFFF" font-family="sans-serif" font-size="14" lengthAdjust="spacing" textLength="180" x="1659" y="1215.0963">CourseAndDescriptionDTO</text><rect fill="#000000" height="869.8263" style="stroke:#E7E7E7;stroke-width:1.0;" width="10" x="189" y="117.7739"/><rect fill="#000000" height="156.8241" style="stroke:#E7E7E7;stroke-width:1.0;" width="10" x="189" y="1019.3063"/><rect fill="#000000" height="373.6481" style="stroke:#E7E7E7;stroke-width:1.0;" width="10" x="381" y="149.4799"/><rect fill="#000000" height="401.0602" style="stroke:#E7E7E7;stroke-width:1.0;" width="10" x="381" y="554.8341"/><rect fill="#000000" height="93.412" style="stroke:#E7E7E7;stroke-width:1.0;" width="10" x="381" y="1051.0123"/><rect fill="#000000" height="117.118" style="stroke:#E7E7E7;stroke-width:1.0;" width="10" x="551.5" y="586.5401"/><rect fill="#000000" height="30" style="stroke:#E7E7E7;stroke-width:1.0;" width="10" x="652" y="630.0991"/><rect fill="#000000" height="61.706" style="stroke:#E7E7E7;stroke-width:1.0;" width="10" x="767" y="181.186"/><rect fill="#000000" height="30" style="stroke:#E7E7E7;stroke-width:1.0;" width="10" x="914.5" y="212.892"/><rect fill="#000000" height="61.706" style="stroke:#E7E7E7;stroke-width:1.0;" width="10" x="914.5" y="274.598"/><rect fill="#000000" height="61.706" style="stroke:#E7E7E7;stroke-width:1.0;" width="10" x="914.5" y="368.01"/><rect fill="#000000" height="61.706" style="stroke:#E7E7E7;stroke-width:1.0;" width="10" x="914.5" y="461.4221"/><rect fill="#000000" height="30" style="stroke:#E7E7E7;stroke-width:1.0;" width="10" x="1057" y="306.304"/><rect fill="#000000" height="30" style="stroke:#E7E7E7;stroke-width:1.0;" width="10" x="1193.5" y="399.716"/><rect fill="#000000" height="30" style="stroke:#E7E7E7;stroke-width:1.0;" width="10" x="1193.5" y="1082.7183"/><rect fill="#000000" height="30" style="stroke:#E7E7E7;stroke-width:1.0;" width="10" x="1322" y="493.1281"/><rect fill="#000000" height="30" style="stroke:#E7E7E7;stroke-width:1.0;" width="10" x="1322" y="735.3642"/><rect fill="#000000" height="127.118" style="stroke:#E7E7E7;stroke-width:1.0;" width="10" x="1513.5" y="797.0702"/><rect fill="#000000" height="30" style="stroke:#E7E7E7;stroke-width:1.0;" width="10" x="1744" y="855.4822"/><polygon fill="#E7E7E7" points="177,113.7739,187,117.7739,177,121.7739,181,117.7739" style="stroke:#E7E7E7;stroke-width:1.0;"/><line style="stroke:#E7E7E7;stroke-width:1.0;stroke-dasharray:2.0,2.0;" x1="35" x2="183" y1="117.7739" y2="117.7739"/><text fill="#FFFFFF" font-family="sans-serif" font-size="13" lengthAdjust="spacing" textLength="32" x="42" y="111.9649">enter</text><polygon fill="#E7E7E7" points="369,145.4799,379,149.4799,369,153.4799,373,149.4799" style="stroke:#E7E7E7;stroke-width:1.0;"/><line style="stroke:#E7E7E7;stroke-width:1.0;stroke-dasharray:2.0,2.0;" x1="199" x2="375" y1="149.4799" y2="149.4799"/><text fill="#FFFFFF" font-family="sans-serif" font-size="13" lengthAdjust="spacing" textLength="45" x="206" y="143.6709">create()</text><polygon fill="#E7E7E7" points="755,177.186,765,181.186,755,185.186,759,181.186" style="stroke:#E7E7E7;stroke-width:1.0;"/><line style="stroke:#E7E7E7;stroke-width:1.0;stroke-dasharray:2.0,2.0;" x1="391" x2="761" y1="181.186" y2="181.186"/><text fill="#FFFFFF" font-family="sans-serif" font-size="13" lengthAdjust="spacing" textLength="79" x="398" y="175.377">repositories()</text><polygon fill="#E7E7E7" points="902.5,208.892,912.5,212.892,902.5,216.892,906.5,212.892" style="stroke:#E7E7E7;stroke-width:1.0;"/><line style="stroke:#E7E7E7;stroke-width:1.0;stroke-dasharray:2.0,2.0;" x1="777" x2="908.5" y1="212.892" y2="212.892"/><text fill="#FFFFFF" font-family="sans-serif" font-size="13" lengthAdjust="spacing" textLength="45" x="784" y="207.083">create()</text><polygon fill="#E7E7E7" points="902.5,270.598,912.5,274.598,902.5,278.598,906.5,274.598" style="stroke:#E7E7E7;stroke-width:1.0;"/><line style="stroke:#E7E7E7;stroke-width:1.0;stroke-dasharray:2.0,2.0;" x1="391" x2="908.5" y1="274.598" y2="274.598"/><text fill="#FFFFFF" font-family="sans-serif" font-size="13" lengthAdjust="spacing" textLength="54" x="398" y="268.789">courses()</text><polygon fill="#E7E7E7" points="1045,302.304,1055,306.304,1045,310.304,1049,306.304" style="stroke:#E7E7E7;stroke-width:1.0;"/><line style="stroke:#E7E7E7;stroke-width:1.0;stroke-dasharray:2.0,2.0;" x1="924.5" x2="1051" y1="306.304" y2="306.304"/><text fill="#FFFFFF" font-family="sans-serif" font-size="13" lengthAdjust="spacing" textLength="45" x="931.5" y="300.495">create()</text><polygon fill="#E7E7E7" points="902.5,364.01,912.5,368.01,902.5,372.01,906.5,368.01" style="stroke:#E7E7E7;stroke-width:1.0;"/><line style="stroke:#E7E7E7;stroke-width:1.0;stroke-dasharray:2.0,2.0;" x1="391" x2="908.5" y1="368.01" y2="368.01"/><text fill="#FFFFFF" font-family="sans-serif" font-size="13" lengthAdjust="spacing" textLength="47" x="398" y="362.201">exams()</text><polygon fill="#E7E7E7" points="1181.5,395.716,1191.5,399.716,1181.5,403.716,1185.5,399.716" style="stroke:#E7E7E7;stroke-width:1.0;"/><line style="stroke:#E7E7E7;stroke-width:1.0;stroke-dasharray:2.0,2.0;" x1="924.5" x2="1187.5" y1="399.716" y2="399.716"/><text fill="#FFFFFF" font-family="sans-serif" font-size="13" lengthAdjust="spacing" textLength="45" x="931.5" y="393.907">create()</text><polygon fill="#E7E7E7" points="902.5,457.4221,912.5,461.4221,902.5,465.4221,906.5,461.4221" style="stroke:#E7E7E7;stroke-width:1.0;"/><line style="stroke:#E7E7E7;stroke-width:1.0;stroke-dasharray:2.0,2.0;" x1="391" x2="908.5" y1="461.4221" y2="461.4221"/><text fill="#FFFFFF" font-family="sans-serif" font-size="13" lengthAdjust="spacing" textLength="34" x="398" y="455.6131">staff()</text><polygon fill="#E7E7E7" points="1310,489.1281,1320,493.1281,1310,497.1281,1314,493.1281" style="stroke:#E7E7E7;stroke-width:1.0;"/><line style="stroke:#E7E7E7;stroke-width:1.0;stroke-dasharray:2.0,2.0;" x1="924.5" x2="1316" y1="493.1281" y2="493.1281"/><text fill="#FFFFFF" font-family="sans-serif" font-size="13" lengthAdjust="spacing" textLength="45" x="931.5" y="487.3191">create()</text><polygon fill="#E7E7E7" points="369,550.8341,379,554.8341,369,558.8341,373,554.8341" style="stroke:#E7E7E7;stroke-width:1.0;"/><line style="stroke:#E7E7E7;stroke-width:1.0;stroke-dasharray:2.0,2.0;" x1="199" x2="375" y1="554.8341" y2="554.8341"/><text fill="#FFFFFF" font-family="sans-serif" font-size="13" lengthAdjust="spacing" textLength="76" x="206" y="549.0251">getCourses()</text><polygon fill="#E7E7E7" points="539.5,582.5401,549.5,586.5401,539.5,590.5401,543.5,586.5401" style="stroke:#E7E7E7;stroke-width:1.0;"/><line style="stroke:#E7E7E7;stroke-width:1.0;stroke-dasharray:2.0,2.0;" x1="391" x2="545.5" y1="586.5401" y2="586.5401"/><text fill="#FFFFFF" font-family="sans-serif" font-size="13" lengthAdjust="spacing" textLength="99" x="398" y="580.7311">currentTeacher()</text><polygon fill="#E7E7E7" points="640,626.0991,650,630.0991,640,634.0991,644,630.0991" style="stroke:#E7E7E7;stroke-width:1.0;"/><line style="stroke:#E7E7E7;stroke-width:1.0;stroke-dasharray:2.0,2.0;" x1="561.5" x2="646" y1="630.0991" y2="630.0991"/><text fill="#FFFFFF" font-family="sans-serif" font-size="13" lengthAdjust="spacing" textLength="28" x="568.5" y="624.2901">get()</text><path d="M667,599.5401 L667,644.5401 L910,644.5401 L910,609.5401 L900,599.5401 L667,599.5401 " fill="#714137" style="stroke:#E7E7E7;stroke-width:0.5;"/><path d="M900,599.5401 L900,609.5401 L910,609.5401 L900,599.5401 " fill="#714137" style="stroke:#E7E7E7;stroke-width:0.5;"/><text fill="#FFFFFF" font-family="sans-serif" font-size="13" lengthAdjust="spacing" textLength="222" x="673" y="618.4371">teacher obtained via the framework's</text><text fill="#FFFFFF" font-family="sans-serif" font-size="13" lengthAdjust="spacing" textLength="213" x="673" y="636.1431">Authz package + TeacherRepository</text><polygon fill="#E7E7E7" points="402,699.6582,392,703.6582,402,707.6582,398,703.6582" style="stroke:#E7E7E7;stroke-width:1.0;"/><line style="stroke:#E7E7E7;stroke-width:1.0;stroke-dasharray:2.0,2.0;" x1="396" x2="555.5" y1="703.6582" y2="703.6582"/><text fill="#FFFFFF" font-family="sans-serif" font-size="13" lengthAdjust="spacing" textLength="45" x="408" y="697.8492">teacher</text><polygon fill="#E7E7E7" points="1310,731.3642,1320,735.3642,1310,739.3642,1314,735.3642" style="stroke:#E7E7E7;stroke-width:1.0;"/><line style="stroke:#E7E7E7;stroke-width:1.0;stroke-dasharray:2.0,2.0;" x1="391" x2="1316" y1="735.3642" y2="735.3642"/><text fill="#FFFFFF" font-family="sans-serif" font-size="13" lengthAdjust="spacing" textLength="109" x="398" y="729.5552">taughtBy(teacher)</text><polygon fill="#E7E7E7" points="1501.5,793.0702,1511.5,797.0702,1501.5,801.0702,1505.5,797.0702" style="stroke:#E7E7E7;stroke-width:1.0;"/><line style="stroke:#E7E7E7;stroke-width:1.0;stroke-dasharray:2.0,2.0;" x1="391" x2="1507.5" y1="797.0702" y2="797.0702"/><text fill="#FFFFFF" font-family="sans-serif" font-size="13" lengthAdjust="spacing" textLength="89" x="398" y="791.2612">toDto(courses)</text><path d="M1385,812.0702 L1458,812.0702 L1458,821.7762 L1448,831.7762 L1385,831.7762 L1385,812.0702 " fill="#555555" style="stroke:#FFFFFF;stroke-width:1.5;"/><rect fill="none" height="81.412" style="stroke:#FFFFFF;stroke-width:1.5;" width="471" x="1385" y="812.0702"/><text fill="#FFFFFF" font-family="sans-serif" font-size="13" font-weight="bold" lengthAdjust="spacing" textLength="28" x="1400" y="826.9672">loop</text><text fill="#FFFFFF" font-family="sans-serif" font-size="11" font-weight="bold" lengthAdjust="spacing" textLength="152" x="1473" y="825.8291">[for each course in courses]</text><polygon fill="#E7E7E7" points="1732,851.4822,1742,855.4822,1732,859.4822,1736,855.4822" style="stroke:#E7E7E7;stroke-width:1.0;"/><line style="stroke:#E7E7E7;stroke-width:1.0;stroke-dasharray:2.0,2.0;" x1="1523.5" x2="1738" y1="855.4822" y2="855.4822"/><text fill="#FFFFFF" font-family="sans-serif" font-size="13" lengthAdjust="spacing" textLength="45" x="1530.5" y="849.6732">create()</text><polygon fill="#E7E7E7" points="402,920.1882,392,924.1882,402,928.1882,398,924.1882" style="stroke:#E7E7E7;stroke-width:1.0;"/><line style="stroke:#E7E7E7;stroke-width:1.0;stroke-dasharray:2.0,2.0;" x1="396" x2="1517.5" y1="924.1882" y2="924.1882"/><text fill="#FFFFFF" font-family="sans-serif" font-size="13" lengthAdjust="spacing" textLength="87" x="408" y="918.3792">courseDTOList</text><polygon fill="#E7E7E7" points="210,951.8943,200,955.8943,210,959.8943,206,955.8943" style="stroke:#E7E7E7;stroke-width:1.0;"/><line style="stroke:#E7E7E7;stroke-width:1.0;stroke-dasharray:2.0,2.0;" x1="204" x2="385" y1="955.8943" y2="955.8943"/><text fill="#FFFFFF" font-family="sans-serif" font-size="13" lengthAdjust="spacing" textLength="46" x="216" y="950.0853">courses</text><polygon fill="#E7E7E7" points="46,983.6003,36,987.6003,46,991.6003,42,987.6003" style="stroke:#E7E7E7;stroke-width:1.0;"/><line style="stroke:#E7E7E7;stroke-width:1.0;stroke-dasharray:2.0,2.0;" x1="40" x2="193" y1="987.6003" y2="987.6003"/><text fill="#FFFFFF" font-family="sans-serif" font-size="13" lengthAdjust="spacing" textLength="81" x="52" y="981.7913">show courses</text><polygon fill="#E7E7E7" points="177,1015.3063,187,1019.3063,177,1023.3063,181,1019.3063" style="stroke:#E7E7E7;stroke-width:1.0;"/><line style="stroke:#E7E7E7;stroke-width:1.0;stroke-dasharray:2.0,2.0;" x1="35" x2="183" y1="1019.3063" y2="1019.3063"/><text fill="#FFFFFF" font-family="sans-serif" font-size="13" lengthAdjust="spacing" textLength="135" x="42" y="1013.4973">selects course from list</text><polygon fill="#E7E7E7" points="369,1047.0123,379,1051.0123,369,1055.0123,373,1051.0123" style="stroke:#E7E7E7;stroke-width:1.0;"/><line style="stroke:#E7E7E7;stroke-width:1.0;stroke-dasharray:2.0,2.0;" x1="199" x2="375" y1="1051.0123" y2="1051.0123"/><text fill="#FFFFFF" font-family="sans-serif" font-size="13" lengthAdjust="spacing" textLength="104" x="206" y="1045.2033">listExams(course)</text><polygon fill="#E7E7E7" points="1181.5,1078.7183,1191.5,1082.7183,1181.5,1086.7183,1185.5,1082.7183" style="stroke:#E7E7E7;stroke-width:1.0;"/><line style="stroke:#E7E7E7;stroke-width:1.0;stroke-dasharray:2.0,2.0;" x1="391" x2="1187.5" y1="1082.7183" y2="1082.7183"/><text fill="#FFFFFF" font-family="sans-serif" font-size="13" lengthAdjust="spacing" textLength="128" x="398" y="1076.9093">findByCourse(course)</text><polygon fill="#E7E7E7" points="210,1140.4243,200,1144.4243,210,1148.4243,206,1144.4243" style="stroke:#E7E7E7;stroke-width:1.0;"/><line style="stroke:#E7E7E7;stroke-width:1.0;stroke-dasharray:2.0,2.0;" x1="204" x2="385" y1="1144.4243" y2="1144.4243"/><text fill="#FFFFFF" font-family="sans-serif" font-size="13" lengthAdjust="spacing" textLength="39" x="216" y="1138.6153">exams</text><polygon fill="#E7E7E7" points="46,1172.1304,36,1176.1304,46,1180.1304,42,1176.1304" style="stroke:#E7E7E7;stroke-width:1.0;"/><line style="stroke:#E7E7E7;stroke-width:1.0;stroke-dasharray:2.0,2.0;" x1="40" x2="193" y1="1176.1304" y2="1176.1304"/><text fill="#FFFFFF" font-family="sans-serif" font-size="13" lengthAdjust="spacing" textLength="74" x="52" y="1170.3214">show exams</text><!--SRC=[dLRBRjim4BphAtYhWo8_e4E1n6c100bQDCcjWC5IAvk8J0eavSZz-l8bYPJ8o8bFzdBsCSlTeJ5HNA1dmEG00c69EWcYQB5GbD0MCuKUg5JVUtoKzspBEo7XvTxYwFkeBMTAyAPnKOaIJH4vF9vVTAOd42TAO4YyaoSIeOB2bFiQH_a5GkhCm8XD2BrosVe8zHjQBgacUlw13T-p0GbeTpMEqxdI9xWDPcqx3USHrh2DaQ0jIzoJmdKT0wKnEMGY_Gshxa0IGLj5ERjx_lc8szQtqTLoj8PBN0EdIkbifide-lgRlhuIWMwOA7H7w0ahC3VQKNjeRgj4H80sRwuAf3yZojuayX_pmtlqfUce8qb1UhUPQpyQdNTldVrDp38kt8SB2myho1u7HoRnikOfhMrGikHKJczplAVXM2i_dACCXHGamJ1B1PLs1Z_5P1pUDHxJb6TOB04VuL2wxVWCXMcjrZW42vWXaK1aPYsQCwDonXWjqXxKDXgnbMKQb51V9-c4q6lgPJ3Lb54sGo9Z11FE2oUoXUGwCgXhfXsfOyPD9-Z-e7Je8Gd_gp1bKA4JnKWT0DK27-6DYzSlyW-xwTJX7senUSLxG5y7UP_KCS_2TgTS51BKE7PYsT5mCXJkTCctvuqFTLKKbyn7UZOIIXXAjCx6xnJVU8L9QMAaw27xXlCMrVfnDcLw7A9iKAi8Qoi88uMbQE7Fx4Eg4lDCp35BYPgZW5Msu6Ab8lUmMBj-dSoVXYAVPDQKQJ_egDb5SWM33JH3eINbmDz6bt1awEn9bD00KSERgOUN7r5ZgWnT5WlU37z-_4LVjEM1uDQKLRTdfn5HY1NXVLTqetRPP-43lNBuk5F_0G00]--></g></svg>