<?xml version="1.0" encoding="us-ascii" standalone="no"?><svg xmlns="http://www.w3.org/2000/svg" xmlns:xlink="http://www.w3.org/1999/xlink" contentStyleType="text/css" height="868px" preserveAspectRatio="none" style="width:1925px;height:868px;background:#FFFFFF;" version="1.1" viewBox="0 0 1925 868" width="1925px" zoomAndPan="magnify"><defs/><g><!--class Meeting--><g id="elem_Meeting"><rect codeLine="2" fill="#F1F1F1" height="67.0679" id="Meeting" rx="2.5" ry="2.5" style="stroke:#181818;stroke-width:0.5;" width="155" x="789.5" y="667.81"/><ellipse cx="834.75" cy="683.81" fill="#ADD1B2" rx="11" ry="11" style="stroke:#181818;stroke-width:1.0;"/><path d="M837.3125,690.3256 Q835.6563,690.9506 834.4531,690.9506 Q832.875,690.9506 831.5313,690.1069 Q830.2031,689.2475 829.4688,687.5913 Q828.7344,685.935 828.7344,683.8569 Q828.7344,681.7944 829.4531,680.1381 Q830.1719,678.4819 831.5156,677.6225 Q832.8594,676.7631 834.4531,676.7631 Q835.6563,676.7631 837.3125,677.3725 L837.3125,679.56 Q835.625,678.5756 834.3906,678.5756 Q833.4844,678.5756 832.7188,679.2163 Q831.9688,679.8413 831.4844,681.1069 Q831,682.3569 831,683.8569 Q831,685.3725 831.5,686.6538 Q832,687.9194 832.75,688.5288 Q833.5,689.1381 834.3906,689.1381 Q835.625,689.1381 837.3125,688.1538 L837.3125,690.3256 Z " fill="#000000"/><text fill="#000000" font-family="sans-serif" font-size="14" lengthAdjust="spacing" textLength="56" x="855.25" y="689.242">Meeting</text><line style="stroke:#181818;stroke-width:0.5;" x1="790.5" x2="943.5" y1="699.81" y2="699.81"/><rect fill="none" height="6" style="stroke:#C82930;stroke-width:1.0;" width="6" x="797.5" y="711.844"/><text fill="#000000" font-family="sans-serif" font-size="14" lengthAdjust="spacing" textLength="129" x="809.5" y="718.7759">owner: SystemUser</text><line style="stroke:#181818;stroke-width:0.5;" x1="790.5" x2="943.5" y1="726.8779" y2="726.8779"/></g><!--class MeetingParticipant--><g id="elem_MeetingParticipant"><rect codeLine="6" fill="#F1F1F1" height="86.1358" id="MeetingParticipant" rx="2.5" ry="2.5" style="stroke:#181818;stroke-width:0.5;" width="161" x="1154.5" y="502.61"/><ellipse cx="1169.5" cy="518.61" fill="#ADD1B2" rx="11" ry="11" style="stroke:#181818;stroke-width:1.0;"/><path d="M1172.0625,525.1256 Q1170.4063,525.7506 1169.2031,525.7506 Q1167.625,525.7506 1166.2813,524.9069 Q1164.9531,524.0475 1164.2188,522.3913 Q1163.4844,520.735 1163.4844,518.6569 Q1163.4844,516.5944 1164.2031,514.9381 Q1164.9219,513.2819 1166.2656,512.4225 Q1167.6094,511.5631 1169.2031,511.5631 Q1170.4063,511.5631 1172.0625,512.1725 L1172.0625,514.36 Q1170.375,513.3756 1169.1406,513.3756 Q1168.2344,513.3756 1167.4688,514.0163 Q1166.7188,514.6413 1166.2344,515.9069 Q1165.75,517.1569 1165.75,518.6569 Q1165.75,520.1725 1166.25,521.4538 Q1166.75,522.7194 1167.5,523.3288 Q1168.25,523.9381 1169.1406,523.9381 Q1170.375,523.9381 1172.0625,522.9538 L1172.0625,525.1256 Z " fill="#000000"/><text fill="#000000" font-family="sans-serif" font-size="14" lengthAdjust="spacing" textLength="129" x="1183.5" y="524.042">MeetingParticipant</text><line style="stroke:#181818;stroke-width:0.5;" x1="1155.5" x2="1314.5" y1="534.61" y2="534.61"/><rect fill="none" height="6" style="stroke:#C82930;stroke-width:1.0;" width="6" x="1162.5" y="546.644"/><text fill="#000000" font-family="sans-serif" font-size="14" lengthAdjust="spacing" textLength="120" x="1174.5" y="553.5759">meeting: Meeting</text><rect fill="none" height="6" style="stroke:#C82930;stroke-width:1.0;" width="6" x="1162.5" y="565.7119"/><text fill="#000000" font-family="sans-serif" font-size="14" lengthAdjust="spacing" textLength="117" x="1174.5" y="572.6439">user: SystemUser</text><line style="stroke:#181818;stroke-width:0.5;" x1="1155.5" x2="1314.5" y1="580.7458" y2="580.7458"/></g><!--class MeetingParticipantStatus--><g id="elem_MeetingParticipantStatus"><rect codeLine="11" fill="#F1F1F1" height="105.2038" id="MeetingParticipantStatus" rx="2.5" ry="2.5" style="stroke:#181818;stroke-width:0.5;" width="203" x="979.5" y="648.75"/><ellipse cx="994.5" cy="664.75" fill="#EB937F" rx="11" ry="11" style="stroke:#181818;stroke-width:1.0;"/><path d="M997.6719,669.7969 L997.6719,671.75 L990.1875,671.75 L990.1875,658.3281 L997.5469,658.3281 L997.5469,660.1563 L992.3906,660.1563 L992.3906,664 L997.0313,664 L997.0313,665.8281 L992.3906,665.8281 L992.3906,669.7969 L997.6719,669.7969 Z " fill="#000000"/><text fill="#000000" font-family="sans-serif" font-size="14" lengthAdjust="spacing" textLength="171" x="1008.5" y="670.182">MeetingParticipantStatus</text><line style="stroke:#181818;stroke-width:0.5;" x1="980.5" x2="1181.5" y1="680.75" y2="680.75"/><rect fill="none" height="6" style="stroke:#C82930;stroke-width:1.0;" width="6" x="987.5" y="692.784"/><text fill="#000000" font-family="sans-serif" font-size="14" lengthAdjust="spacing" textLength="73" x="999.5" y="699.7159">ACCEPTED,</text><rect fill="none" height="6" style="stroke:#C82930;stroke-width:1.0;" width="6" x="987.5" y="711.8519"/><text fill="#000000" font-family="sans-serif" font-size="14" lengthAdjust="spacing" textLength="68" x="999.5" y="718.7839">REJECTED,</text><rect fill="none" height="6" style="stroke:#C82930;stroke-width:1.0;" width="6" x="987.5" y="730.9198"/><text fill="#000000" font-family="sans-serif" font-size="14" lengthAdjust="spacing" textLength="63" x="999.5" y="737.8518">PENDING</text><line style="stroke:#181818;stroke-width:0.5;" x1="980.5" x2="1181.5" y1="745.9538" y2="745.9538"/></g><!--class SystemUser--><g id="elem_SystemUser"><rect codeLine="17" fill="#F1F1F1" height="48" id="SystemUser" rx="2.5" ry="2.5" style="stroke:#181818;stroke-width:0.5;" width="111" x="644.5" y="813.95"/><ellipse cx="659.5" cy="829.95" fill="#ADD1B2" rx="11" ry="11" style="stroke:#181818;stroke-width:1.0;"/><path d="M662.0625,836.4656 Q660.4063,837.0906 659.2031,837.0906 Q657.625,837.0906 656.2813,836.2469 Q654.9531,835.3875 654.2188,833.7313 Q653.4844,832.075 653.4844,829.9969 Q653.4844,827.9344 654.2031,826.2781 Q654.9219,824.6219 656.2656,823.7625 Q657.6094,822.9031 659.2031,822.9031 Q660.4063,822.9031 662.0625,823.5125 L662.0625,825.7 Q660.375,824.7156 659.1406,824.7156 Q658.2344,824.7156 657.4688,825.3563 Q656.7188,825.9813 656.2344,827.2469 Q655.75,828.4969 655.75,829.9969 Q655.75,831.5125 656.25,832.7938 Q656.75,834.0594 657.5,834.6688 Q658.25,835.2781 659.1406,835.2781 Q660.375,835.2781 662.0625,834.2938 L662.0625,836.4656 Z " fill="#000000"/><text fill="#000000" font-family="sans-serif" font-size="14" lengthAdjust="spacing" textLength="79" x="673.5" y="835.382">SystemUser</text><line style="stroke:#181818;stroke-width:0.5;" x1="645.5" x2="754.5" y1="845.95" y2="845.95"/><line style="stroke:#181818;stroke-width:0.5;" x1="645.5" x2="754.5" y1="853.95" y2="853.95"/></g><!--class ListMeetingParticipantsController--><g id="elem_ListMeetingParticipantsController"><rect codeLine="21" fill="#F1F1F1" height="86.1358" id="ListMeetingParticipantsController" rx="2.5" ry="2.5" style="stroke:#181818;stroke-width:0.5;" width="567" x="694.5" y="7"/><ellipse cx="860.75" cy="23" fill="#ADD1B2" rx="11" ry="11" style="stroke:#181818;stroke-width:1.0;"/><path d="M863.3125,29.5156 Q861.6563,30.1406 860.4531,30.1406 Q858.875,30.1406 857.5313,29.2969 Q856.2031,28.4375 855.4688,26.7813 Q854.7344,25.125 854.7344,23.0469 Q854.7344,20.9844 855.4531,19.3281 Q856.1719,17.6719 857.5156,16.8125 Q858.8594,15.9531 860.4531,15.9531 Q861.6563,15.9531 863.3125,16.5625 L863.3125,18.75 Q861.625,17.7656 860.3906,17.7656 Q859.4844,17.7656 858.7188,18.4063 Q857.9688,19.0313 857.4844,20.2969 Q857,21.5469 857,23.0469 Q857,24.5625 857.5,25.8438 Q858,27.1094 858.75,27.7188 Q859.5,28.3281 860.3906,28.3281 Q861.625,28.3281 863.3125,27.3438 L863.3125,29.5156 Z " fill="#000000"/><text fill="#000000" font-family="sans-serif" font-size="14" lengthAdjust="spacing" textLength="226" x="881.25" y="28.432">ListMeetingParticipantsController</text><line style="stroke:#181818;stroke-width:0.5;" x1="695.5" x2="1260.5" y1="39" y2="39"/><line style="stroke:#181818;stroke-width:0.5;" x1="695.5" x2="1260.5" y1="47" y2="47"/><ellipse cx="705.5" cy="62.034" fill="#84BE84" rx="3" ry="3" style="stroke:#038048;stroke-width:1.0;"/><text fill="#000000" font-family="sans-serif" font-size="14" lengthAdjust="spacing" textLength="327" x="714.5" y="65.9659">meetingsOfUser(): Iterable&lt;MeetingOfUserDTO&gt;</text><ellipse cx="705.5" cy="81.1019" fill="#84BE84" rx="3" ry="3" style="stroke:#038048;stroke-width:1.0;"/><text fill="#000000" font-family="sans-serif" font-size="14" lengthAdjust="spacing" textLength="541" x="714.5" y="85.0339">meetingParticipants(dto: MeetingOfUserDTO): Iterable&lt;MeetingParticipantDTO&gt;</text></g><!--class ListMeetingsService--><g id="elem_ListMeetingsService"><rect codeLine="26" fill="#F1F1F1" height="67.0679" id="ListMeetingsService" rx="2.5" ry="2.5" style="stroke:#181818;stroke-width:0.5;" width="394" x="324" y="162.67"/><ellipse cx="449.75" cy="178.67" fill="#ADD1B2" rx="11" ry="11" style="stroke:#181818;stroke-width:1.0;"/><path d="M452.3125,185.1856 Q450.6563,185.8106 449.4531,185.8106 Q447.875,185.8106 446.5313,184.9669 Q445.2031,184.1075 444.4688,182.4513 Q443.7344,180.795 443.7344,178.7169 Q443.7344,176.6544 444.4531,174.9981 Q445.1719,173.3419 446.5156,172.4825 Q447.8594,171.6231 449.4531,171.6231 Q450.6563,171.6231 452.3125,172.2325 L452.3125,174.42 Q450.625,173.4356 449.3906,173.4356 Q448.4844,173.4356 447.7188,174.0763 Q446.9688,174.7013 446.4844,175.9669 Q446,177.2169 446,178.7169 Q446,180.2325 446.5,181.5138 Q447,182.7794 447.75,183.3888 Q448.5,183.9981 449.3906,183.9981 Q450.625,183.9981 452.3125,183.0138 L452.3125,185.1856 Z " fill="#000000"/><text fill="#000000" font-family="sans-serif" font-size="14" lengthAdjust="spacing" textLength="134" x="470.25" y="184.102">ListMeetingsService</text><line style="stroke:#181818;stroke-width:0.5;" x1="325" x2="717" y1="194.67" y2="194.67"/><line style="stroke:#181818;stroke-width:0.5;" x1="325" x2="717" y1="202.67" y2="202.67"/><ellipse cx="335" cy="217.704" fill="#84BE84" rx="3" ry="3" style="stroke:#038048;stroke-width:1.0;"/><text fill="#000000" font-family="sans-serif" font-size="14" lengthAdjust="spacing" textLength="368" x="344" y="221.6359">meetingsOfUser(user: SystemUser): Iterable&lt;Meeting&gt;</text></g><!--class MyUserService--><g id="elem_MyUserService"><rect codeLine="30" fill="#F1F1F1" height="67.0679" id="MyUserService" rx="2.5" ry="2.5" style="stroke:#181818;stroke-width:0.5;" width="202" x="7" y="512.14"/><ellipse cx="54.25" cy="528.14" fill="#ADD1B2" rx="11" ry="11" style="stroke:#181818;stroke-width:1.0;"/><path d="M56.8125,534.6556 Q55.1563,535.2806 53.9531,535.2806 Q52.375,535.2806 51.0313,534.4369 Q49.7031,533.5775 48.9688,531.9213 Q48.2344,530.265 48.2344,528.1869 Q48.2344,526.1244 48.9531,524.4681 Q49.6719,522.8119 51.0156,521.9525 Q52.3594,521.0931 53.9531,521.0931 Q55.1563,521.0931 56.8125,521.7025 L56.8125,523.89 Q55.125,522.9056 53.8906,522.9056 Q52.9844,522.9056 52.2188,523.5463 Q51.4688,524.1713 50.9844,525.4369 Q50.5,526.6869 50.5,528.1869 Q50.5,529.7025 51,530.9838 Q51.5,532.2494 52.25,532.8588 Q53,533.4681 53.8906,533.4681 Q55.125,533.4681 56.8125,532.4838 L56.8125,534.6556 Z " fill="#000000"/><text fill="#000000" font-family="sans-serif" font-size="14" lengthAdjust="spacing" textLength="99" x="74.75" y="533.572">MyUserService</text><line style="stroke:#181818;stroke-width:0.5;" x1="8" x2="208" y1="544.14" y2="544.14"/><line style="stroke:#181818;stroke-width:0.5;" x1="8" x2="208" y1="552.14" y2="552.14"/><ellipse cx="18" cy="567.174" fill="#84BE84" rx="3" ry="3" style="stroke:#038048;stroke-width:1.0;"/><text fill="#000000" font-family="sans-serif" font-size="14" lengthAdjust="spacing" textLength="176" x="27" y="571.1059">currentUser(): SystemUser</text></g><!--class MeetingRepository--><g id="elem_MeetingRepository"><rect codeLine="33" fill="#F1F1F1" height="67.0679" id="MeetingRepository" rx="2.5" ry="2.5" style="stroke:#181818;stroke-width:0.5;" width="368" x="244" y="512.14"/><ellipse cx="360.25" cy="528.14" fill="#ADD1B2" rx="11" ry="11" style="stroke:#181818;stroke-width:1.0;"/><path d="M362.8125,534.6556 Q361.1563,535.2806 359.9531,535.2806 Q358.375,535.2806 357.0313,534.4369 Q355.7031,533.5775 354.9688,531.9213 Q354.2344,530.265 354.2344,528.1869 Q354.2344,526.1244 354.9531,524.4681 Q355.6719,522.8119 357.0156,521.9525 Q358.3594,521.0931 359.9531,521.0931 Q361.1563,521.0931 362.8125,521.7025 L362.8125,523.89 Q361.125,522.9056 359.8906,522.9056 Q358.9844,522.9056 358.2188,523.5463 Q357.4688,524.1713 356.9844,525.4369 Q356.5,526.6869 356.5,528.1869 Q356.5,529.7025 357,530.9838 Q357.5,532.2494 358.25,532.8588 Q359,533.4681 359.8906,533.4681 Q361.125,533.4681 362.8125,532.4838 L362.8125,534.6556 Z " fill="#000000"/><text fill="#000000" font-family="sans-serif" font-size="14" lengthAdjust="spacing" textLength="127" x="380.75" y="533.572">MeetingRepository</text><line style="stroke:#181818;stroke-width:0.5;" x1="245" x2="611" y1="544.14" y2="544.14"/><line style="stroke:#181818;stroke-width:0.5;" x1="245" x2="611" y1="552.14" y2="552.14"/><ellipse cx="255" cy="567.174" fill="#84BE84" rx="3" ry="3" style="stroke:#038048;stroke-width:1.0;"/><text fill="#000000" font-family="sans-serif" font-size="14" lengthAdjust="spacing" textLength="342" x="264" y="571.1059">organizedBy(user: SystemUser): Iterable&lt;Meeting&gt;</text></g><!--class MeetingParticipantRepository--><g id="elem_MeetingParticipantRepository"><rect codeLine="36" fill="#F1F1F1" height="86.1358" id="MeetingParticipantRepository" rx="2.5" ry="2.5" style="stroke:#181818;stroke-width:0.5;" width="496" x="553" y="327.87"/><ellipse cx="696.75" cy="343.87" fill="#ADD1B2" rx="11" ry="11" style="stroke:#181818;stroke-width:1.0;"/><path d="M699.3125,350.3856 Q697.6563,351.0106 696.4531,351.0106 Q694.875,351.0106 693.5313,350.1669 Q692.2031,349.3075 691.4688,347.6513 Q690.7344,345.995 690.7344,343.9169 Q690.7344,341.8544 691.4531,340.1981 Q692.1719,338.5419 693.5156,337.6825 Q694.8594,336.8231 696.4531,336.8231 Q697.6563,336.8231 699.3125,337.4325 L699.3125,339.62 Q697.625,338.6356 696.3906,338.6356 Q695.4844,338.6356 694.7188,339.2763 Q693.9688,339.9013 693.4844,341.1669 Q693,342.4169 693,343.9169 Q693,345.4325 693.5,346.7138 Q694,347.9794 694.75,348.5888 Q695.5,349.1981 696.3906,349.1981 Q697.625,349.1981 699.3125,348.2138 L699.3125,350.3856 Z " fill="#000000"/><text fill="#000000" font-family="sans-serif" font-size="14" lengthAdjust="spacing" textLength="200" x="717.25" y="349.302">MeetingParticipantRepository</text><line style="stroke:#181818;stroke-width:0.5;" x1="554" x2="1048" y1="359.87" y2="359.87"/><line style="stroke:#181818;stroke-width:0.5;" x1="554" x2="1048" y1="367.87" y2="367.87"/><ellipse cx="564" cy="382.904" fill="#84BE84" rx="3" ry="3" style="stroke:#038048;stroke-width:1.0;"/><text fill="#000000" font-family="sans-serif" font-size="14" lengthAdjust="spacing" textLength="368" x="573" y="386.8359">meetingsOfUser(user: SystemUser): Iterable&lt;Meeting&gt;</text><ellipse cx="564" cy="401.9719" fill="#84BE84" rx="3" ry="3" style="stroke:#038048;stroke-width:1.0;"/><text fill="#000000" font-family="sans-serif" font-size="14" lengthAdjust="spacing" textLength="470" x="573" y="405.9039">meetingParticipants(meeting: Meeting): Iterable&lt;MeetingParticipant&gt;</text></g><!--class MeetingOfUserDTO--><g id="elem_MeetingOfUserDTO"><rect codeLine="41" fill="#F1F1F1" height="143.3396" id="MeetingOfUserDTO" rx="2.5" ry="2.5" style="stroke:#181818;stroke-width:0.5;" width="205" x="1154.5" y="299.27"/><ellipse cx="1187.95" cy="315.27" fill="#ADD1B2" rx="11" ry="11" style="stroke:#181818;stroke-width:1.0;"/><path d="M1190.5125,321.7856 Q1188.8563,322.4106 1187.6531,322.4106 Q1186.075,322.4106 1184.7313,321.5669 Q1183.4031,320.7075 1182.6688,319.0513 Q1181.9344,317.395 1181.9344,315.3169 Q1181.9344,313.2544 1182.6531,311.5981 Q1183.3719,309.9419 1184.7156,309.0825 Q1186.0594,308.2231 1187.6531,308.2231 Q1188.8563,308.2231 1190.5125,308.8325 L1190.5125,311.02 Q1188.825,310.0356 1187.5906,310.0356 Q1186.6844,310.0356 1185.9188,310.6763 Q1185.1688,311.3013 1184.6844,312.5669 Q1184.2,313.8169 1184.2,315.3169 Q1184.2,316.8325 1184.7,318.1138 Q1185.2,319.3794 1185.95,319.9888 Q1186.7,320.5981 1187.5906,320.5981 Q1188.825,320.5981 1190.5125,319.6138 L1190.5125,321.7856 Z " fill="#000000"/><text fill="#000000" font-family="sans-serif" font-size="14" lengthAdjust="spacing" textLength="132" x="1206.05" y="320.702">MeetingOfUserDTO</text><line style="stroke:#181818;stroke-width:0.5;" x1="1155.5" x2="1358.5" y1="331.27" y2="331.27"/><rect fill="none" height="6" style="stroke:#C82930;stroke-width:1.0;" width="6" x="1162.5" y="343.304"/><text fill="#000000" font-family="sans-serif" font-size="14" lengthAdjust="spacing" textLength="97" x="1174.5" y="350.2359">meetingID: int</text><rect fill="none" height="6" style="stroke:#C82930;stroke-width:1.0;" width="6" x="1162.5" y="362.3719"/><text fill="#000000" font-family="sans-serif" font-size="14" lengthAdjust="spacing" textLength="125" x="1174.5" y="369.3039">description: String</text><rect fill="none" height="6" style="stroke:#C82930;stroke-width:1.0;" width="6" x="1162.5" y="381.4398"/><text fill="#000000" font-family="sans-serif" font-size="14" lengthAdjust="spacing" textLength="170" x="1174.5" y="388.3718">startTime: LocalDateTime</text><rect fill="none" height="6" style="stroke:#C82930;stroke-width:1.0;" width="6" x="1162.5" y="400.5077"/><text fill="#000000" font-family="sans-serif" font-size="14" lengthAdjust="spacing" textLength="90" x="1174.5" y="407.4397">owner: Name</text><rect fill="none" height="6" style="stroke:#C82930;stroke-width:1.0;" width="6" x="1162.5" y="419.5756"/><text fill="#000000" font-family="sans-serif" font-size="14" lengthAdjust="spacing" textLength="179" x="1174.5" y="426.5076">ownerEmail: EmailAddress</text><line style="stroke:#181818;stroke-width:0.5;" x1="1155.5" x2="1358.5" y1="434.6096" y2="434.6096"/></g><!--class MeetingOfUserDTOMapper--><g id="elem_MeetingOfUserDTOMapper"><rect codeLine="50" fill="#F1F1F1" height="86.1358" id="MeetingOfUserDTOMapper" rx="2.5" ry="2.5" style="stroke:#181818;stroke-width:0.5;" width="451" x="752.5" y="153.13"/><ellipse cx="881.25" cy="169.13" fill="#ADD1B2" rx="11" ry="11" style="stroke:#181818;stroke-width:1.0;"/><path d="M883.8125,175.6456 Q882.1563,176.2706 880.9531,176.2706 Q879.375,176.2706 878.0313,175.4269 Q876.7031,174.5675 875.9688,172.9113 Q875.2344,171.255 875.2344,169.1769 Q875.2344,167.1144 875.9531,165.4581 Q876.6719,163.8019 878.0156,162.9425 Q879.3594,162.0831 880.9531,162.0831 Q882.1563,162.0831 883.8125,162.6925 L883.8125,164.88 Q882.125,163.8956 880.8906,163.8956 Q879.9844,163.8956 879.2188,164.5363 Q878.4688,165.1613 877.9844,166.4269 Q877.5,167.6769 877.5,169.1769 Q877.5,170.6925 878,171.9738 Q878.5,173.2394 879.25,173.8488 Q880,174.4581 880.8906,174.4581 Q882.125,174.4581 883.8125,173.4738 L883.8125,175.6456 Z " fill="#000000"/><text fill="#000000" font-family="sans-serif" font-size="14" lengthAdjust="spacing" textLength="185" x="901.75" y="174.562">MeetingOfUserDTOMapper</text><line style="stroke:#181818;stroke-width:0.5;" x1="753.5" x2="1202.5" y1="185.13" y2="185.13"/><line style="stroke:#181818;stroke-width:0.5;" x1="753.5" x2="1202.5" y1="193.13" y2="193.13"/><ellipse cx="763.5" cy="208.164" fill="#84BE84" rx="3" ry="3" style="stroke:#038048;stroke-width:1.0;"/><text fill="#000000" font-family="sans-serif" font-size="14" lengthAdjust="spacing" textLength="310" x="772.5" y="212.0959">toDTO(meeting: Meeting): MeetingOfUserDTO</text><ellipse cx="763.5" cy="227.2319" fill="#84BE84" rx="3" ry="3" style="stroke:#038048;stroke-width:1.0;"/><text fill="#000000" font-family="sans-serif" font-size="14" lengthAdjust="spacing" textLength="425" x="772.5" y="231.1639">toDTO(meetings: Iterable&lt;Meeting&gt;): List&lt;MeetingOfUserDTO&gt;</text></g><!--class MeetingParticipantDTO--><g id="elem_MeetingParticipantDTO"><rect codeLine="54" fill="#F1F1F1" height="105.2038" id="MeetingParticipantDTO" rx="2.5" ry="2.5" style="stroke:#181818;stroke-width:0.5;" width="246" x="1670" y="318.34"/><ellipse cx="1710.2" cy="334.34" fill="#ADD1B2" rx="11" ry="11" style="stroke:#181818;stroke-width:1.0;"/><path d="M1712.7625,340.8556 Q1711.1063,341.4806 1709.9031,341.4806 Q1708.325,341.4806 1706.9813,340.6369 Q1705.6531,339.7775 1704.9188,338.1213 Q1704.1844,336.465 1704.1844,334.3869 Q1704.1844,332.3244 1704.9031,330.6681 Q1705.6219,329.0119 1706.9656,328.1525 Q1708.3094,327.2931 1709.9031,327.2931 Q1711.1063,327.2931 1712.7625,327.9025 L1712.7625,330.09 Q1711.075,329.1056 1709.8406,329.1056 Q1708.9344,329.1056 1708.1688,329.7463 Q1707.4188,330.3713 1706.9344,331.6369 Q1706.45,332.8869 1706.45,334.3869 Q1706.45,335.9025 1706.95,337.1838 Q1707.45,338.4494 1708.2,339.0588 Q1708.95,339.6681 1709.8406,339.6681 Q1711.075,339.6681 1712.7625,338.6838 L1712.7625,340.8556 Z " fill="#000000"/><text fill="#000000" font-family="sans-serif" font-size="14" lengthAdjust="spacing" textLength="158" x="1729.8" y="339.772">MeetingParticipantDTO</text><line style="stroke:#181818;stroke-width:0.5;" x1="1671" x2="1915" y1="350.34" y2="350.34"/><rect fill="none" height="6" style="stroke:#C82930;stroke-width:1.0;" width="6" x="1678" y="362.374"/><text fill="#000000" font-family="sans-serif" font-size="14" lengthAdjust="spacing" textLength="115" x="1690" y="369.3059">name: Username</text><rect fill="none" height="6" style="stroke:#C82930;stroke-width:1.0;" width="6" x="1678" y="381.4419"/><text fill="#000000" font-family="sans-serif" font-size="14" lengthAdjust="spacing" textLength="137" x="1690" y="388.3739">email: EmailAddress</text><rect fill="none" height="6" style="stroke:#C82930;stroke-width:1.0;" width="6" x="1678" y="400.5098"/><text fill="#000000" font-family="sans-serif" font-size="14" lengthAdjust="spacing" textLength="220" x="1690" y="407.4418">status: MeetingParticipantStatus</text><line style="stroke:#181818;stroke-width:0.5;" x1="1671" x2="1915" y1="415.5438" y2="415.5438"/></g><!--class MeetingParticipantDTOMapper--><g id="elem_MeetingParticipantDTOMapper"><rect codeLine="59" fill="#F1F1F1" height="86.1358" id="MeetingParticipantDTOMapper" rx="2.5" ry="2.5" style="stroke:#181818;stroke-width:0.5;" width="550" x="1310" y="153.13"/><ellipse cx="1475.25" cy="169.13" fill="#ADD1B2" rx="11" ry="11" style="stroke:#181818;stroke-width:1.0;"/><path d="M1477.8125,175.6456 Q1476.1563,176.2706 1474.9531,176.2706 Q1473.375,176.2706 1472.0313,175.4269 Q1470.7031,174.5675 1469.9688,172.9113 Q1469.2344,171.255 1469.2344,169.1769 Q1469.2344,167.1144 1469.9531,165.4581 Q1470.6719,163.8019 1472.0156,162.9425 Q1473.3594,162.0831 1474.9531,162.0831 Q1476.1563,162.0831 1477.8125,162.6925 L1477.8125,164.88 Q1476.125,163.8956 1474.8906,163.8956 Q1473.9844,163.8956 1473.2188,164.5363 Q1472.4688,165.1613 1471.9844,166.4269 Q1471.5,167.6769 1471.5,169.1769 Q1471.5,170.6925 1472,171.9738 Q1472.5,173.2394 1473.25,173.8488 Q1474,174.4581 1474.8906,174.4581 Q1476.125,174.4581 1477.8125,173.4738 L1477.8125,175.6456 Z " fill="#000000"/><text fill="#000000" font-family="sans-serif" font-size="14" lengthAdjust="spacing" textLength="211" x="1495.75" y="174.562">MeetingParticipantDTOMapper</text><line style="stroke:#181818;stroke-width:0.5;" x1="1311" x2="1859" y1="185.13" y2="185.13"/><line style="stroke:#181818;stroke-width:0.5;" x1="1311" x2="1859" y1="193.13" y2="193.13"/><ellipse cx="1321" cy="208.164" fill="#84BE84" rx="3" ry="3" style="stroke:#038048;stroke-width:1.0;"/><text fill="#000000" font-family="sans-serif" font-size="14" lengthAdjust="spacing" textLength="409" x="1330" y="212.0959">toDTO(meeting: MeetingParticipant): MeetingParticipantDTO</text><ellipse cx="1321" cy="227.2319" fill="#84BE84" rx="3" ry="3" style="stroke:#038048;stroke-width:1.0;"/><text fill="#000000" font-family="sans-serif" font-size="14" lengthAdjust="spacing" textLength="524" x="1330" y="231.1639">toDTO(meetings: Iterable&lt;MeetingParticipant&gt;): List&lt;MeetingParticipantDTO&gt;</text></g><!--link ListMeetingParticipantsController to MeetingRepository--><g id="link_ListMeetingParticipantsController_MeetingRepository"><path codeLine="64" d="M694.35,58.16 C534.84,68.81 357.74,94.1 307,153.13 C216.18,258.81 335.14,431.96 396.06,507.49 " fill="none" id="ListMeetingParticipantsController-to-MeetingRepository" style="stroke:#181818;stroke-width:1.0;stroke-dasharray:7.0,7.0;"/><polygon fill="#181818" points="399.63,510.89,397.042,501.3873,396.47,507.0151,390.8422,506.4432,399.63,510.89" style="stroke:#181818;stroke-width:1.0;"/></g><!--link ListMeetingParticipantsController to MeetingParticipantDTO--><g id="link_ListMeetingParticipantsController_MeetingParticipantDTO"><path codeLine="65" d="M1261.92,64.56 C1510.06,79.34 1837.04,107.26 1878,153.13 C1918.7,198.71 1881.72,266.03 1844.6,313.54 " fill="none" id="ListMeetingParticipantsController-to-MeetingParticipantDTO" style="stroke:#181818;stroke-width:1.0;stroke-dasharray:7.0,7.0;"/><polygon fill="#181818" points="1841.01,317.07,1849.7334,312.498,1844.1142,313.1504,1843.4619,307.5312,1841.01,317.07" style="stroke:#181818;stroke-width:1.0;"/></g><!--link ListMeetingParticipantsController to MyUserService--><g id="link_ListMeetingParticipantsController_MyUserService"><path codeLine="66" d="M694.19,63.3 C525.96,75.91 333.05,101.46 267,153.13 C153.15,242.2 120.36,426.09 111.3,506.09 " fill="none" id="ListMeetingParticipantsController-to-MyUserService" style="stroke:#181818;stroke-width:1.0;stroke-dasharray:7.0,7.0;"/><polygon fill="#181818" points="110.69,510.67,115.6433,502.1574,111.2328,505.6995,107.6906,501.289,110.69,510.67" style="stroke:#181818;stroke-width:1.0;"/></g><!--link MyUserService to SystemUser--><g id="link_MyUserService_SystemUser"><path codeLine="67" d="M170.46,579.54 C250.13,621.2 392.41,694.72 516,753.95 C557.57,773.87 604.99,795.23 641.29,811.29 " fill="none" id="MyUserService-to-SystemUser" style="stroke:#181818;stroke-width:1.0;stroke-dasharray:7.0,7.0;"/><polygon fill="#181818" points="645.56,813.62,638.9369,806.3306,640.9845,811.6039,635.7112,813.6515,645.56,813.62" style="stroke:#181818;stroke-width:1.0;"/></g><!--link ListMeetingParticipantsController to ListMeetingsService--><g id="link_ListMeetingParticipantsController_ListMeetingsService"><path codeLine="68" d="M843.05,93.63 C775.59,114.91 694.98,140.33 631.28,160.42 " fill="none" id="ListMeetingParticipantsController-to-ListMeetingsService" style="stroke:#181818;stroke-width:1.0;stroke-dasharray:7.0,7.0;"/><polygon fill="#181818" points="626.56,162.22,636.3453,163.3368,631.3299,160.7205,633.9461,155.705,626.56,162.22" style="stroke:#181818;stroke-width:1.0;"/></g><!--link ListMeetingsService to SystemUser--><g id="link_ListMeetingsService_SystemUser"><path codeLine="71" d="M513.99,230.07 C505.23,279.83 495.75,375.59 535,442.61 C560.05,485.38 600.77,461.87 629,502.61 C695.79,599 701.77,745.82 701.03,807.76 " fill="none" id="ListMeetingsService-to-SystemUser" style="stroke:#181818;stroke-width:1.0;stroke-dasharray:7.0,7.0;"/><polygon fill="#181818" points="700.94,812.49,705.0682,803.5481,701.0114,807.4905,697.069,803.4338,700.94,812.49" style="stroke:#181818;stroke-width:1.0;"/></g><!--link ListMeetingsService to MeetingRepository--><g id="link_ListMeetingsService_MeetingRepository"><path codeLine="72" d="M503.42,229.93 C493.51,249.56 481.64,275.29 474,299.27 C451.3,370.51 438.31,457.16 432.25,506.11 " fill="none" id="ListMeetingsService-to-MeetingRepository" style="stroke:#181818;stroke-width:1.0;stroke-dasharray:7.0,7.0;"/><polygon fill="#181818" points="431.54,510.89,436.5925,502.4359,432.1408,505.9262,428.6504,501.4746,431.54,510.89" style="stroke:#181818;stroke-width:1.0;"/></g><!--link ListMeetingsService to MeetingParticipantRepository--><g id="link_ListMeetingsService_MeetingParticipantRepository"><path codeLine="73" d="M574.32,230.1 C617.66,256.84 679.26,294.84 727.32,324.48 " fill="none" id="ListMeetingsService-to-MeetingParticipantRepository" style="stroke:#181818;stroke-width:1.0;stroke-dasharray:7.0,7.0;"/><polygon fill="#181818" points="731.22,327.51,725.6636,319.3782,726.9656,324.8831,721.4607,326.1852,731.22,327.51" style="stroke:#181818;stroke-width:1.0;"/></g><!--link ListMeetingParticipantsController to MeetingOfUserDTOMapper--><g id="link_ListMeetingParticipantsController_MeetingOfUserDTOMapper"><path codeLine="75" d="M978,93.53 C978,110.39 978,129.87 978,147.24 " fill="none" id="ListMeetingParticipantsController-to-MeetingOfUserDTOMapper" style="stroke:#181818;stroke-width:1.0;stroke-dasharray:7.0,7.0;"/><polygon fill="#181818" points="978,152.04,982,143.04,978,147.04,974,143.04,978,152.04" style="stroke:#181818;stroke-width:1.0;"/></g><!--link ListMeetingParticipantsController to MeetingOfUserDTO--><g id="link_ListMeetingParticipantsController_MeetingOfUserDTO"><path codeLine="76" d="M1142.8,93.55 C1172.61,108.04 1200.64,127.38 1221,153.13 C1251.91,192.25 1260.65,247.91 1261.79,293.05 " fill="none" id="ListMeetingParticipantsController-to-MeetingOfUserDTO" style="stroke:#181818;stroke-width:1.0;stroke-dasharray:7.0,7.0;"/><polygon fill="#181818" points="1261.9,297.78,1265.7451,288.7128,1261.8143,292.7807,1257.7463,288.8499,1261.9,297.78" style="stroke:#181818;stroke-width:1.0;"/></g><!--link MeetingOfUserDTOMapper to MeetingOfUserDTO--><g id="link_MeetingOfUserDTOMapper_MeetingOfUserDTO"><path codeLine="77" d="M1046.61,239.68 C1077.44,258.77 1114.57,281.76 1149,303.07 " fill="none" id="MeetingOfUserDTOMapper-to-MeetingOfUserDTO" style="stroke:#181818;stroke-width:1.0;stroke-dasharray:7.0,7.0;"/><polygon fill="#181818" points="1153.05,306.2,1147.4936,298.0682,1148.7956,303.5731,1143.2907,304.8752,1153.05,306.2" style="stroke:#181818;stroke-width:1.0;"/></g><!--link MeetingOfUserDTOMapper to Meeting--><g id="link_MeetingOfUserDTOMapper_Meeting"><path codeLine="78" d="M1027.21,239.69 C1043.06,256.46 1058.67,277.04 1067,299.27 C1089.36,358.93 1087.64,382.34 1067,442.61 C1035.83,533.63 957.96,617.34 909.1,663.37 " fill="none" id="MeetingOfUserDTOMapper-to-Meeting" style="stroke:#181818;stroke-width:1.0;stroke-dasharray:7.0,7.0;"/><polygon fill="#181818" points="905.75,666.43,915.052,663.1939,909.3981,663.0108,909.5813,657.3569,905.75,666.43" style="stroke:#181818;stroke-width:1.0;"/></g><!--link MeetingRepository to SystemUser--><g id="link_MeetingRepository_SystemUser"><path codeLine="80" d="M458.94,579.69 C513.08,637.48 624.04,755.89 674.27,809.5 " fill="none" id="MeetingRepository-to-SystemUser" style="stroke:#181818;stroke-width:1.0;stroke-dasharray:7.0,7.0;"/><polygon fill="#181818" points="677.08,812.55,673.8439,803.248,673.6608,808.9019,668.0069,808.7187,677.08,812.55" style="stroke:#181818;stroke-width:1.0;"/></g><!--link MeetingRepository to Meeting--><g id="link_MeetingRepository_Meeting"><path codeLine="81" d="M522.18,579.64 C599.92,606.86 709.22,645.12 783.78,671.22 " fill="none" id="MeetingRepository-to-Meeting" style="stroke:#181818;stroke-width:1.0;stroke-dasharray:7.0,7.0;"/><polygon fill="#181818" points="788.09,673.08,780.9012,666.3479,783.3669,671.4391,778.2757,673.9048,788.09,673.08" style="stroke:#181818;stroke-width:1.0;"/></g><!--link MeetingParticipantRepository to SystemUser--><g id="link_MeetingParticipantRepository_SystemUser"><path codeLine="83" d="M791.77,414.44 C771.49,507.82 723.47,728.87 706.27,808.08 " fill="none" id="MeetingParticipantRepository-to-SystemUser" style="stroke:#181818;stroke-width:1.0;stroke-dasharray:7.0,7.0;"/><polygon fill="#181818" points="705.09,812.54,710.9029,804.5895,706.1474,807.6531,703.0838,802.8976,705.09,812.54" style="stroke:#181818;stroke-width:1.0;"/></g><!--link MeetingParticipantRepository to Meeting--><g id="link_MeetingParticipantRepository_Meeting"><path codeLine="84" d="M809.49,414.2 C822.41,478.48 846.81,599.87 859.26,661.84 " fill="none" id="MeetingParticipantRepository-to-Meeting" style="stroke:#181818;stroke-width:1.0;stroke-dasharray:7.0,7.0;"/><polygon fill="#181818" points="860.43,666.64,862.5765,657.0279,859.4439,661.7382,854.7336,658.6056,860.43,666.64" style="stroke:#181818;stroke-width:1.0;"/></g><!--link MeetingParticipantRepository to MeetingParticipant--><g id="link_MeetingParticipantRepository_MeetingParticipant"><path codeLine="85" d="M907.72,414.42 C981.96,443.97 1079.66,482.85 1148.92,510.42 " fill="none" id="MeetingParticipantRepository-to-MeetingParticipant" style="stroke:#181818;stroke-width:1.0;stroke-dasharray:7.0,7.0;"/><polygon fill="#181818" points="1153.28,512.55,1146.3906,505.5118,1148.6327,510.7054,1143.4392,512.9475,1153.28,512.55" style="stroke:#181818;stroke-width:1.0;"/></g><!--link ListMeetingParticipantsController to MeetingParticipantDTOMapper--><g id="link_ListMeetingParticipantsController_MeetingParticipantDTOMapper"><path codeLine="88" d="M1157.25,93.63 C1233.82,111.81 1323.14,133.02 1400.3,151.35 " fill="none" id="ListMeetingParticipantsController-to-MeetingParticipantDTOMapper" style="stroke:#181818;stroke-width:1.0;stroke-dasharray:7.0,7.0;"/><polygon fill="#181818" points="1404.84,152.66,1397.0081,146.6883,1399.9754,151.5045,1395.1592,154.4718,1404.84,152.66" style="stroke:#181818;stroke-width:1.0;"/></g><!--link MeetingParticipantDTOMapper to MeetingParticipantDTO--><g id="link_MeetingParticipantDTOMapper_MeetingParticipantDTO"><path codeLine="89" d="M1636.15,239.68 C1663.32,262.25 1697.05,290.26 1726.26,314.51 " fill="none" id="MeetingParticipantDTOMapper-to-MeetingParticipantDTO" style="stroke:#181818;stroke-width:1.0;stroke-dasharray:7.0,7.0;"/><polygon fill="#181818" points="1729.53,318.06,1725.1541,309.2367,1725.6807,314.8689,1720.0484,315.3955,1729.53,318.06" style="stroke:#181818;stroke-width:1.0;"/></g><!--link MeetingParticipantDTOMapper to MeetingParticipant--><g id="link_MeetingParticipantDTOMapper_MeetingParticipant"><path codeLine="90" d="M1554.31,239.43 C1516,290.61 1446.97,378.02 1377,442.61 C1355.25,462.69 1329.47,482.28 1305.88,498.84 " fill="none" id="MeetingParticipantDTOMapper-to-MeetingParticipant" style="stroke:#181818;stroke-width:1.0;stroke-dasharray:7.0,7.0;"/><polygon fill="#181818" points="1302.2,502.11,1311.8709,500.2461,1306.3022,499.2513,1307.297,493.6826,1302.2,502.11" style="stroke:#181818;stroke-width:1.0;"/></g><!--link MeetingParticipant to Meeting--><g id="link_MeetingParticipant_Meeting"><path codeLine="93" d="M1154.17,578.73 C1145.35,582.15 1136.5,585.54 1128,588.75 C1054.6,616.43 1033.56,616.6 962,648.75 C951.33,653.54 940.23,659.05 929.54,664.66 " fill="none" id="MeetingParticipant-to-Meeting" style="stroke:#181818;stroke-width:1.0;"/><polygon fill="#181818" points="925.32,667.41,935.1466,666.7488,929.7424,665.0771,931.4141,659.6729,925.32,667.41" style="stroke:#181818;stroke-width:1.0;"/></g><!--link MeetingParticipant to SystemUser--><g id="link_MeetingParticipant_SystemUser"><path codeLine="94" d="M1240.93,589.23 C1244.89,636.27 1243.03,711.04 1200,753.95 C1139.34,814.44 881.7,830.93 761.82,835.36 " fill="none" id="MeetingParticipant-to-SystemUser" style="stroke:#181818;stroke-width:1.0;"/><polygon fill="#181818" points="756.87,835.57,766.0123,839.2332,761.8666,835.3844,765.7153,831.2387,756.87,835.57" style="stroke:#181818;stroke-width:1.0;"/></g><!--link MeetingParticipant to MeetingParticipantStatus--><g id="link_MeetingParticipant_MeetingParticipantStatus"><path codeLine="95" d="M1192.51,589.08 C1175.38,606.17 1155.37,626.14 1137.07,644.4 " fill="none" id="MeetingParticipant-to-MeetingParticipantStatus" style="stroke:#181818;stroke-width:1.0;"/><polygon fill="#181818" points="1133.95,647.51,1143.1495,643.993,1137.4927,643.9816,1137.5041,638.3248,1133.95,647.51" style="stroke:#181818;stroke-width:1.0;"/></g><!--link MeetingParticipantStatus to SystemUser--><g id="link_MeetingParticipantStatus_SystemUser"><path codeLine="97" d="M979.04,747.36 C973.3,749.65 967.59,751.86 962,753.95 C894.3,779.27 814.99,803.69 761.51,819.41 " fill="none" id="MeetingParticipantStatus-to-SystemUser" style="stroke:#181818;stroke-width:1.0;"/><polygon fill="#181818" points="756.76,821.09,766.52,822.41,761.56,819.69,764.28,814.73,756.76,821.09" style="stroke:#181818;stroke-width:1.0;"/></g><!--SRC=[fLRHRjim37pNL-YnnPP-W344w69ZoD2aGPDzW6PpXG1RCYHcGpRitsUbZYtBbEjaVIaiyKxaaJmaBuMrV0E0KhtoFumtVmkkVoam2T-VB4BrpO9XVndB_T2TC2XpMGk57QfwkqekCUtnqOwvG1qhWcgF0e-s8tnShRBT8Ki_jjylsTTivNtlicswtdxfa-iVQJZwuoTfSVoONMc5HfVbETenVhYKO9z_E9Ax-uIl4OpuNiAdbk3j9ZqyBuSGd_YkGDsfq048CWzqPgGojdimFsKEiHn3UObdFEBDoSM4bFdH651ugNdGgq7RNw3MLg8sfmwhpQjGyZSKdqzpSubD4i5-Ix7nleGJEjsIvMZgkrw6CxzE4ouLjeS5sDp86gLMJR9e-bsmsD0VP0K9VzAvA5E1u3w7UxSLmvEi4h9C-FdVOr4OiDQb5ibj8-hQ6sdKpHbLUOYZuYsXRmDruqaiHBoplcHAkF8TIFLr0b5Y9rdZ2KdKBQPVdIM61xbFQ9wPulZJ4-X4xFhxllJmi1oltdMue8wPMDycsD0qtBtd4FC82KDZ0m7i-_I3a4bLg4ZIPwxiGR1ZDu9PP6DlZ6LiRCw1Y7H0YAUTcAQAnrvOvmPw0OpzpsYtFPcoWVXQN8zYb6vyiPXIu7mzAQPFCBOw5lt9513_0m00]--></g></svg>