<?xml version="1.0" encoding="us-ascii" standalone="no"?><svg xmlns="http://www.w3.org/2000/svg" xmlns:xlink="http://www.w3.org/1999/xlink" contentStyleType="text/css" height="1270px" preserveAspectRatio="none" style="width:1983px;height:1270px;background:#1B1B1B;" version="1.1" viewBox="0 0 1983 1270" width="1983px" zoomAndPan="magnify"><defs/><g><rect fill="#1B1B1B" height="1270" style="stroke:none;stroke-width:1.0;" width="1983" x="0" y="0"/><rect fill="#000000" height="638.5902" style="stroke:#E7E7E7;stroke-width:1.0;" width="10" x="190.5" y="117.7739"/><rect fill="#000000" height="380.7662" style="stroke:#E7E7E7;stroke-width:1.0;" width="10" x="190.5" y="788.0702"/><rect fill="#000000" height="30" style="stroke:#E7E7E7;stroke-width:1.0;" width="10" x="424.5" y="161.333"/><rect fill="#000000" height="489.7662" style="stroke:#E7E7E7;stroke-width:1.0;" width="10" x="424.5" y="234.892"/><rect fill="#000000" height="317.3541" style="stroke:#E7E7E7;stroke-width:1.0;" width="10" x="424.5" y="819.7762"/><rect fill="#000000" height="30" style="stroke:#E7E7E7;stroke-width:1.0;" width="10" x="601" y="269.598"/><rect fill="#000000" height="199.8241" style="stroke:#E7E7E7;stroke-width:1.0;" width="10" x="731.5" y="334.304"/><rect fill="#000000" height="30" style="stroke:#E7E7E7;stroke-width:1.0;" width="10" x="886" y="427.716"/><rect fill="#000000" height="31.706" style="stroke:#E7E7E7;stroke-width:1.0;" width="10" x="886" y="851.4822"/><rect fill="#000000" height="30" style="stroke:#E7E7E7;stroke-width:1.0;" width="10" x="1073.5" y="366.01"/><rect fill="#000000" height="31.706" style="stroke:#E7E7E7;stroke-width:1.0;" width="10" x="1073.5" y="914.8943"/><rect fill="#000000" height="127.118" style="stroke:#E7E7E7;stroke-width:1.0;" width="10" x="1290" y="565.8341"/><rect fill="#000000" height="30" style="stroke:#E7E7E7;stroke-width:1.0;" width="10" x="1472.5" y="624.2461"/><rect fill="#000000" height="127.118" style="stroke:#E7E7E7;stroke-width:1.0;" width="10" x="1668" y="978.3063"/><rect fill="#000000" height="30" style="stroke:#E7E7E7;stroke-width:1.0;" width="10" x="1876.5" y="1036.7183"/><rect fill="none" height="81.412" style="stroke:#FFFFFF;stroke-width:1.5;" width="375" x="1185.5" y="580.8341"/><rect fill="none" height="81.412" style="stroke:#FFFFFF;stroke-width:1.5;" width="427" x="1550.5" y="993.3063"/><line style="stroke:#E7E7E7;stroke-width:0.5;stroke-dasharray:5.0,5.0;" x1="23" x2="23" y1="84.0679" y2="1186.8364"/><line style="stroke:#E7E7E7;stroke-width:0.5;stroke-dasharray:5.0,5.0;" x1="195.5" x2="195.5" y1="84.0679" y2="1186.8364"/><line style="stroke:#E7E7E7;stroke-width:0.5;stroke-dasharray:5.0,5.0;" x1="429.5" x2="429.5" y1="84.0679" y2="1186.8364"/><line style="stroke:#E7E7E7;stroke-width:0.5;stroke-dasharray:5.0,5.0;" x1="605.5" x2="605.5" y1="84.0679" y2="1186.8364"/><line style="stroke:#E7E7E7;stroke-width:0.5;stroke-dasharray:5.0,5.0;" x1="736.5" x2="736.5" y1="84.0679" y2="1186.8364"/><line style="stroke:#E7E7E7;stroke-width:0.5;stroke-dasharray:5.0,5.0;" x1="890.5" x2="890.5" y1="84.0679" y2="1186.8364"/><line style="stroke:#E7E7E7;stroke-width:0.5;stroke-dasharray:5.0,5.0;" x1="1078.5" x2="1078.5" y1="84.0679" y2="1186.8364"/><line style="stroke:#E7E7E7;stroke-width:0.5;stroke-dasharray:5.0,5.0;" x1="1294.5" x2="1294.5" y1="84.0679" y2="1186.8364"/><line style="stroke:#E7E7E7;stroke-width:0.5;stroke-dasharray:5.0,5.0;" x1="1477.5" x2="1477.5" y1="84.0679" y2="1186.8364"/><line style="stroke:#E7E7E7;stroke-width:0.5;stroke-dasharray:5.0,5.0;" x1="1672.5" x2="1672.5" y1="84.0679" y2="1186.8364"/><line style="stroke:#E7E7E7;stroke-width:0.5;stroke-dasharray:5.0,5.0;" x1="1881.5" x2="1881.5" y1="84.0679" y2="1186.8364"/><text fill="#FFFFFF" font-family="sans-serif" font-size="14" lengthAdjust="spacing" textLength="31" x="5" y="79.9659">User</text><ellipse cx="23.5" cy="13.5" fill="#222222" rx="8" ry="8" style="stroke:#E7E7E7;stroke-width:0.5;"/><path d="M23.5,21.5 L23.5,48.5 M10.5,29.5 L36.5,29.5 M23.5,48.5 L10.5,63.5 M23.5,48.5 L36.5,63.5 " fill="none" style="stroke:#E7E7E7;stroke-width:0.5;"/><text fill="#FFFFFF" font-family="sans-serif" font-size="14" lengthAdjust="spacing" textLength="31" x="5" y="1200.8023">User</text><ellipse cx="23.5" cy="1213.4043" fill="#222222" rx="8" ry="8" style="stroke:#E7E7E7;stroke-width:0.5;"/><path d="M23.5,1221.4043 L23.5,1248.4043 M10.5,1229.4043 L36.5,1229.4043 M23.5,1248.4043 L10.5,1263.4043 M23.5,1248.4043 L36.5,1263.4043 " fill="none" style="stroke:#E7E7E7;stroke-width:0.5;"/><rect fill="#222222" height="33.0679" rx="2.5" ry="2.5" style="stroke:#E7E7E7;stroke-width:0.5;" width="188" x="101.5" y="50"/><text fill="#FFFFFF" font-family="sans-serif" font-size="14" lengthAdjust="spacing" textLength="174" x="108.5" y="71.9659">ListMeetingParticipantsUI</text><rect fill="#222222" height="33.0679" rx="2.5" ry="2.5" style="stroke:#E7E7E7;stroke-width:0.5;" width="188" x="101.5" y="1185.8364"/><text fill="#FFFFFF" font-family="sans-serif" font-size="14" lengthAdjust="spacing" textLength="174" x="108.5" y="1207.8023">ListMeetingParticipantsUI</text><rect fill="#222222" height="33.0679" rx="2.5" ry="2.5" style="stroke:#E7E7E7;stroke-width:0.5;" width="240" x="309.5" y="50"/><text fill="#FFFFFF" font-family="sans-serif" font-size="14" lengthAdjust="spacing" textLength="226" x="316.5" y="71.9659">ListMeetingParticipantsController</text><rect fill="#222222" height="33.0679" rx="2.5" ry="2.5" style="stroke:#E7E7E7;stroke-width:0.5;" width="240" x="309.5" y="1185.8364"/><text fill="#FFFFFF" font-family="sans-serif" font-size="14" lengthAdjust="spacing" textLength="226" x="316.5" y="1207.8023">ListMeetingParticipantsController</text><rect fill="#222222" height="33.0679" rx="2.5" ry="2.5" style="stroke:#E7E7E7;stroke-width:0.5;" width="93" x="559.5" y="50"/><text fill="#FFFFFF" font-family="sans-serif" font-size="14" lengthAdjust="spacing" textLength="79" x="566.5" y="71.9659">SystemUser</text><rect fill="#222222" height="33.0679" rx="2.5" ry="2.5" style="stroke:#E7E7E7;stroke-width:0.5;" width="93" x="559.5" y="1185.8364"/><text fill="#FFFFFF" font-family="sans-serif" font-size="14" lengthAdjust="spacing" textLength="79" x="566.5" y="1207.8023">SystemUser</text><rect fill="#222222" height="33.0679" rx="2.5" ry="2.5" style="stroke:#E7E7E7;stroke-width:0.5;" width="148" x="662.5" y="50"/><text fill="#FFFFFF" font-family="sans-serif" font-size="14" lengthAdjust="spacing" textLength="134" x="669.5" y="71.9659">ListMeetingsService</text><rect fill="#222222" height="33.0679" rx="2.5" ry="2.5" style="stroke:#E7E7E7;stroke-width:0.5;" width="148" x="662.5" y="1185.8364"/><text fill="#FFFFFF" font-family="sans-serif" font-size="14" lengthAdjust="spacing" textLength="134" x="669.5" y="1207.8023">ListMeetingsService</text><rect fill="#222222" height="33.0679" rx="2.5" ry="2.5" style="stroke:#E7E7E7;stroke-width:0.5;" width="141" x="820.5" y="50"/><text fill="#FFFFFF" font-family="sans-serif" font-size="14" lengthAdjust="spacing" textLength="127" x="827.5" y="71.9659">MeetingRepository</text><rect fill="#222222" height="33.0679" rx="2.5" ry="2.5" style="stroke:#E7E7E7;stroke-width:0.5;" width="141" x="820.5" y="1185.8364"/><text fill="#FFFFFF" font-family="sans-serif" font-size="14" lengthAdjust="spacing" textLength="127" x="827.5" y="1207.8023">MeetingRepository</text><rect fill="#222222" height="33.0679" rx="2.5" ry="2.5" style="stroke:#E7E7E7;stroke-width:0.5;" width="214" x="971.5" y="50"/><text fill="#FFFFFF" font-family="sans-serif" font-size="14" lengthAdjust="spacing" textLength="200" x="978.5" y="71.9659">MeetingParticipantRepository</text><rect fill="#222222" height="33.0679" rx="2.5" ry="2.5" style="stroke:#E7E7E7;stroke-width:0.5;" width="214" x="971.5" y="1185.8364"/><text fill="#FFFFFF" font-family="sans-serif" font-size="14" lengthAdjust="spacing" textLength="200" x="978.5" y="1207.8023">MeetingParticipantRepository</text><rect fill="#222222" height="33.0679" rx="2.5" ry="2.5" style="stroke:#E7E7E7;stroke-width:0.5;" width="199" x="1195.5" y="50"/><text fill="#FFFFFF" font-family="sans-serif" font-size="14" lengthAdjust="spacing" textLength="185" x="1202.5" y="71.9659">MeetingOfUserDTOMapper</text><rect fill="#222222" height="33.0679" rx="2.5" ry="2.5" style="stroke:#E7E7E7;stroke-width:0.5;" width="199" x="1195.5" y="1185.8364"/><text fill="#FFFFFF" font-family="sans-serif" font-size="14" lengthAdjust="spacing" textLength="185" x="1202.5" y="1207.8023">MeetingOfUserDTOMapper</text><rect fill="#222222" height="33.0679" rx="2.5" ry="2.5" style="stroke:#E7E7E7;stroke-width:0.5;" width="146" x="1404.5" y="50"/><text fill="#FFFFFF" font-family="sans-serif" font-size="14" lengthAdjust="spacing" textLength="132" x="1411.5" y="71.9659">MeetingOfUserDTO</text><rect fill="#222222" height="33.0679" rx="2.5" ry="2.5" style="stroke:#E7E7E7;stroke-width:0.5;" width="146" x="1404.5" y="1185.8364"/><text fill="#FFFFFF" font-family="sans-serif" font-size="14" lengthAdjust="spacing" textLength="132" x="1411.5" y="1207.8023">MeetingOfUserDTO</text><rect fill="#222222" height="33.0679" rx="2.5" ry="2.5" style="stroke:#E7E7E7;stroke-width:0.5;" width="225" x="1560.5" y="50"/><text fill="#FFFFFF" font-family="sans-serif" font-size="14" lengthAdjust="spacing" textLength="211" x="1567.5" y="71.9659">MeetingParticipantDTOMapper</text><rect fill="#222222" height="33.0679" rx="2.5" ry="2.5" style="stroke:#E7E7E7;stroke-width:0.5;" width="225" x="1560.5" y="1185.8364"/><text fill="#FFFFFF" font-family="sans-serif" font-size="14" lengthAdjust="spacing" textLength="211" x="1567.5" y="1207.8023">MeetingParticipantDTOMapper</text><rect fill="#222222" height="33.0679" rx="2.5" ry="2.5" style="stroke:#E7E7E7;stroke-width:0.5;" width="172" x="1795.5" y="50"/><text fill="#FFFFFF" font-family="sans-serif" font-size="14" lengthAdjust="spacing" textLength="158" x="1802.5" y="71.9659">MeetingParticipantDTO</text><rect fill="#222222" height="33.0679" rx="2.5" ry="2.5" style="stroke:#E7E7E7;stroke-width:0.5;" width="172" x="1795.5" y="1185.8364"/><text fill="#FFFFFF" font-family="sans-serif" font-size="14" lengthAdjust="spacing" textLength="158" x="1802.5" y="1207.8023">MeetingParticipantDTO</text><rect fill="#000000" height="638.5902" style="stroke:#E7E7E7;stroke-width:1.0;" width="10" x="190.5" y="117.7739"/><rect fill="#000000" height="380.7662" style="stroke:#E7E7E7;stroke-width:1.0;" width="10" x="190.5" y="788.0702"/><rect fill="#000000" height="30" style="stroke:#E7E7E7;stroke-width:1.0;" width="10" x="424.5" y="161.333"/><rect fill="#000000" height="489.7662" style="stroke:#E7E7E7;stroke-width:1.0;" width="10" x="424.5" y="234.892"/><rect fill="#000000" height="317.3541" style="stroke:#E7E7E7;stroke-width:1.0;" width="10" x="424.5" y="819.7762"/><rect fill="#000000" height="30" style="stroke:#E7E7E7;stroke-width:1.0;" width="10" x="601" y="269.598"/><rect fill="#000000" height="199.8241" style="stroke:#E7E7E7;stroke-width:1.0;" width="10" x="731.5" y="334.304"/><rect fill="#000000" height="30" style="stroke:#E7E7E7;stroke-width:1.0;" width="10" x="886" y="427.716"/><rect fill="#000000" height="31.706" style="stroke:#E7E7E7;stroke-width:1.0;" width="10" x="886" y="851.4822"/><rect fill="#000000" height="30" style="stroke:#E7E7E7;stroke-width:1.0;" width="10" x="1073.5" y="366.01"/><rect fill="#000000" height="31.706" style="stroke:#E7E7E7;stroke-width:1.0;" width="10" x="1073.5" y="914.8943"/><rect fill="#000000" height="127.118" style="stroke:#E7E7E7;stroke-width:1.0;" width="10" x="1290" y="565.8341"/><rect fill="#000000" height="30" style="stroke:#E7E7E7;stroke-width:1.0;" width="10" x="1472.5" y="624.2461"/><rect fill="#000000" height="127.118" style="stroke:#E7E7E7;stroke-width:1.0;" width="10" x="1668" y="978.3063"/><rect fill="#000000" height="30" style="stroke:#E7E7E7;stroke-width:1.0;" width="10" x="1876.5" y="1036.7183"/><polygon fill="#E7E7E7" points="178.5,113.7739,188.5,117.7739,178.5,121.7739,182.5,117.7739" style="stroke:#E7E7E7;stroke-width:1.0;"/><line style="stroke:#E7E7E7;stroke-width:1.0;stroke-dasharray:2.0,2.0;" x1="23.5" x2="184.5" y1="117.7739" y2="117.7739"/><text fill="#FFFFFF" font-family="sans-serif" font-size="13" lengthAdjust="spacing" textLength="32" x="30.5" y="111.9649">enter</text><polygon fill="#E7E7E7" points="412.5,157.333,422.5,161.333,412.5,165.333,416.5,161.333" style="stroke:#E7E7E7;stroke-width:1.0;"/><line style="stroke:#E7E7E7;stroke-width:1.0;stroke-dasharray:2.0,2.0;" x1="200.5" x2="418.5" y1="161.333" y2="161.333"/><text fill="#FFFFFF" font-family="sans-serif" font-size="13" lengthAdjust="spacing" textLength="45" x="207.5" y="155.524">create()</text><path d="M439,130.7739 L439,175.7739 L658,175.7739 L658,140.7739 L648,130.7739 L439,130.7739 " fill="#714137" style="stroke:#E7E7E7;stroke-width:0.5;"/><path d="M648,130.7739 L648,140.7739 L658,140.7739 L648,130.7739 " fill="#714137" style="stroke:#E7E7E7;stroke-width:0.5;"/><text fill="#FFFFFF" font-family="sans-serif" font-size="13" lengthAdjust="spacing" textLength="170" x="445" y="149.6709">repositories are retrieved via</text><text fill="#FFFFFF" font-family="sans-serif" font-size="13" lengthAdjust="spacing" textLength="198" x="445" y="167.377">PersistenceContext.repositories()</text><polygon fill="#E7E7E7" points="412.5,230.892,422.5,234.892,412.5,238.892,416.5,234.892" style="stroke:#E7E7E7;stroke-width:1.0;"/><line style="stroke:#E7E7E7;stroke-width:1.0;stroke-dasharray:2.0,2.0;" x1="200.5" x2="418.5" y1="234.892" y2="234.892"/><text fill="#FFFFFF" font-family="sans-serif" font-size="13" lengthAdjust="spacing" textLength="106" x="207.5" y="229.083">meetingsOfUser()</text><polygon fill="#E7E7E7" points="589,265.598,599,269.598,589,273.598,593,269.598" style="stroke:#E7E7E7;stroke-width:1.0;"/><line style="stroke:#E7E7E7;stroke-width:1.0;stroke-dasharray:2.0,2.0;" x1="434.5" x2="595" y1="269.598" y2="269.598"/><text fill="#FFFFFF" font-family="sans-serif" font-size="13" lengthAdjust="spacing" textLength="28" x="441.5" y="263.789">get()</text><path d="M616,247.892 L616,274.892 L878,274.892 L878,257.892 L868,247.892 L616,247.892 " fill="#714137" style="stroke:#E7E7E7;stroke-width:0.5;"/><path d="M868,247.892 L868,257.892 L878,257.892 L868,247.892 " fill="#714137" style="stroke:#E7E7E7;stroke-width:0.5;"/><text fill="#FFFFFF" font-family="sans-serif" font-size="13" lengthAdjust="spacing" textLength="241" x="622" y="266.789">SystemUser obtained via MyUserService</text><polygon fill="#E7E7E7" points="719.5,330.304,729.5,334.304,719.5,338.304,723.5,334.304" style="stroke:#E7E7E7;stroke-width:1.0;"/><line style="stroke:#E7E7E7;stroke-width:1.0;stroke-dasharray:2.0,2.0;" x1="434.5" x2="725.5" y1="334.304" y2="334.304"/><text fill="#FFFFFF" font-family="sans-serif" font-size="13" lengthAdjust="spacing" textLength="132" x="441.5" y="328.495">meetingsOfUser(user)</text><polygon fill="#E7E7E7" points="1061.5,362.01,1071.5,366.01,1061.5,370.01,1065.5,366.01" style="stroke:#E7E7E7;stroke-width:1.0;"/><line style="stroke:#E7E7E7;stroke-width:1.0;stroke-dasharray:2.0,2.0;" x1="741.5" x2="1067.5" y1="366.01" y2="366.01"/><text fill="#FFFFFF" font-family="sans-serif" font-size="13" lengthAdjust="spacing" textLength="132" x="748.5" y="360.201">meetingsOfUser(user)</text><polygon fill="#E7E7E7" points="874,423.716,884,427.716,874,431.716,878,427.716" style="stroke:#E7E7E7;stroke-width:1.0;"/><line style="stroke:#E7E7E7;stroke-width:1.0;stroke-dasharray:2.0,2.0;" x1="741.5" x2="880" y1="427.716" y2="427.716"/><text fill="#FFFFFF" font-family="sans-serif" font-size="13" lengthAdjust="spacing" textLength="109" x="748.5" y="421.907">organizedBy(user)</text><line style="stroke:#E7E7E7;stroke-width:1.0;stroke-dasharray:2.0,2.0;" x1="741.5" x2="783.5" y1="489.4221" y2="489.4221"/><line style="stroke:#E7E7E7;stroke-width:1.0;stroke-dasharray:2.0,2.0;" x1="783.5" x2="783.5" y1="489.4221" y2="502.4221"/><line style="stroke:#E7E7E7;stroke-width:1.0;stroke-dasharray:2.0,2.0;" x1="742.5" x2="783.5" y1="502.4221" y2="502.4221"/><polygon fill="#E7E7E7" points="752.5,498.4221,742.5,502.4221,752.5,506.4221,748.5,502.4221" style="stroke:#E7E7E7;stroke-width:1.0;"/><text fill="#FFFFFF" font-family="sans-serif" font-size="13" lengthAdjust="spacing" textLength="66" x="748.5" y="483.6131">mergeLists</text><polygon fill="#E7E7E7" points="445.5,530.1281,435.5,534.1281,445.5,538.1281,441.5,534.1281" style="stroke:#E7E7E7;stroke-width:1.0;"/><line style="stroke:#E7E7E7;stroke-width:1.0;stroke-dasharray:2.0,2.0;" x1="439.5" x2="735.5" y1="534.1281" y2="534.1281"/><text fill="#FFFFFF" font-family="sans-serif" font-size="13" lengthAdjust="spacing" textLength="56" x="451.5" y="528.3191">meetings</text><polygon fill="#E7E7E7" points="1278,561.8341,1288,565.8341,1278,569.8341,1282,565.8341" style="stroke:#E7E7E7;stroke-width:1.0;"/><line style="stroke:#E7E7E7;stroke-width:1.0;stroke-dasharray:2.0,2.0;" x1="434.5" x2="1284" y1="565.8341" y2="565.8341"/><text fill="#FFFFFF" font-family="sans-serif" font-size="13" lengthAdjust="spacing" textLength="103" x="441.5" y="560.0251">toDTO(meetings)</text><path d="M1185.5,580.8341 L1258.5,580.8341 L1258.5,590.5401 L1248.5,600.5401 L1185.5,600.5401 L1185.5,580.8341 " fill="#555555" style="stroke:#FFFFFF;stroke-width:1.5;"/><rect fill="none" height="81.412" style="stroke:#FFFFFF;stroke-width:1.5;" width="375" x="1185.5" y="580.8341"/><text fill="#FFFFFF" font-family="sans-serif" font-size="13" font-weight="bold" lengthAdjust="spacing" textLength="28" x="1200.5" y="595.7311">loop</text><text fill="#FFFFFF" font-family="sans-serif" font-size="11" font-weight="bold" lengthAdjust="spacing" textLength="172" x="1273.5" y="594.593">[for each meeting in meetings]</text><polygon fill="#E7E7E7" points="1460.5,620.2461,1470.5,624.2461,1460.5,628.2461,1464.5,624.2461" style="stroke:#E7E7E7;stroke-width:1.0;"/><line style="stroke:#E7E7E7;stroke-width:1.0;stroke-dasharray:2.0,2.0;" x1="1300" x2="1466.5" y1="624.2461" y2="624.2461"/><text fill="#FFFFFF" font-family="sans-serif" font-size="13" lengthAdjust="spacing" textLength="45" x="1307" y="618.4371">create()</text><polygon fill="#E7E7E7" points="445.5,688.9521,435.5,692.9521,445.5,696.9521,441.5,692.9521" style="stroke:#E7E7E7;stroke-width:1.0;"/><line style="stroke:#E7E7E7;stroke-width:1.0;stroke-dasharray:2.0,2.0;" x1="439.5" x2="1294" y1="692.9521" y2="692.9521"/><text fill="#FFFFFF" font-family="sans-serif" font-size="13" lengthAdjust="spacing" textLength="103" x="451.5" y="687.1431">meetingsDTOList</text><polygon fill="#E7E7E7" points="211.5,720.6582,201.5,724.6582,211.5,728.6582,207.5,724.6582" style="stroke:#E7E7E7;stroke-width:1.0;"/><line style="stroke:#E7E7E7;stroke-width:1.0;stroke-dasharray:2.0,2.0;" x1="205.5" x2="428.5" y1="724.6582" y2="724.6582"/><text fill="#FFFFFF" font-family="sans-serif" font-size="13" lengthAdjust="spacing" textLength="103" x="217.5" y="718.8492">meetingsDTOList</text><polygon fill="#E7E7E7" points="34.5,752.3642,24.5,756.3642,34.5,760.3642,30.5,756.3642" style="stroke:#E7E7E7;stroke-width:1.0;"/><line style="stroke:#E7E7E7;stroke-width:1.0;stroke-dasharray:2.0,2.0;" x1="28.5" x2="194.5" y1="756.3642" y2="756.3642"/><text fill="#FFFFFF" font-family="sans-serif" font-size="13" lengthAdjust="spacing" textLength="62" x="40.5" y="750.5552">display list</text><polygon fill="#E7E7E7" points="178.5,784.0702,188.5,788.0702,178.5,792.0702,182.5,788.0702" style="stroke:#E7E7E7;stroke-width:1.0;"/><line style="stroke:#E7E7E7;stroke-width:1.0;stroke-dasharray:2.0,2.0;" x1="23.5" x2="184.5" y1="788.0702" y2="788.0702"/><text fill="#FFFFFF" font-family="sans-serif" font-size="13" lengthAdjust="spacing" textLength="148" x="30.5" y="782.2612">choose meeting from list</text><polygon fill="#E7E7E7" points="412.5,815.7762,422.5,819.7762,412.5,823.7762,416.5,819.7762" style="stroke:#E7E7E7;stroke-width:1.0;"/><line style="stroke:#E7E7E7;stroke-width:1.0;stroke-dasharray:2.0,2.0;" x1="200.5" x2="418.5" y1="819.7762" y2="819.7762"/><text fill="#FFFFFF" font-family="sans-serif" font-size="13" lengthAdjust="spacing" textLength="205" x="207.5" y="813.9672">meetingParticipants(meetingDTO)</text><polygon fill="#E7E7E7" points="874,847.4822,884,851.4822,874,855.4822,878,851.4822" style="stroke:#E7E7E7;stroke-width:1.0;"/><line style="stroke:#E7E7E7;stroke-width:1.0;stroke-dasharray:2.0,2.0;" x1="434.5" x2="880" y1="851.4822" y2="851.4822"/><text fill="#FFFFFF" font-family="sans-serif" font-size="13" lengthAdjust="spacing" textLength="165" x="441.5" y="845.6732">ofIdentity(meetingDTO.id())</text><polygon fill="#E7E7E7" points="445.5,879.1882,435.5,883.1882,445.5,887.1882,441.5,883.1882" style="stroke:#E7E7E7;stroke-width:1.0;"/><line style="stroke:#E7E7E7;stroke-width:1.0;stroke-dasharray:2.0,2.0;" x1="439.5" x2="890" y1="883.1882" y2="883.1882"/><text fill="#FFFFFF" font-family="sans-serif" font-size="13" lengthAdjust="spacing" textLength="50" x="451.5" y="877.3792">meeting</text><polygon fill="#E7E7E7" points="1061.5,910.8943,1071.5,914.8943,1061.5,918.8943,1065.5,914.8943" style="stroke:#E7E7E7;stroke-width:1.0;"/><line style="stroke:#E7E7E7;stroke-width:1.0;stroke-dasharray:2.0,2.0;" x1="434.5" x2="1067.5" y1="914.8943" y2="914.8943"/><text fill="#FFFFFF" font-family="sans-serif" font-size="13" lengthAdjust="spacing" textLength="193" x="441.5" y="909.0853">participantsOfMeeting(meeting)</text><polygon fill="#E7E7E7" points="445.5,942.6003,435.5,946.6003,445.5,950.6003,441.5,946.6003" style="stroke:#E7E7E7;stroke-width:1.0;"/><line style="stroke:#E7E7E7;stroke-width:1.0;stroke-dasharray:2.0,2.0;" x1="439.5" x2="1077.5" y1="946.6003" y2="946.6003"/><text fill="#FFFFFF" font-family="sans-serif" font-size="13" lengthAdjust="spacing" textLength="71" x="451.5" y="940.7913">participants</text><polygon fill="#E7E7E7" points="1656,974.3063,1666,978.3063,1656,982.3063,1660,978.3063" style="stroke:#E7E7E7;stroke-width:1.0;"/><line style="stroke:#E7E7E7;stroke-width:1.0;stroke-dasharray:2.0,2.0;" x1="434.5" x2="1662" y1="978.3063" y2="978.3063"/><text fill="#FFFFFF" font-family="sans-serif" font-size="13" lengthAdjust="spacing" textLength="118" x="441.5" y="972.4973">toDTO(participants)</text><path d="M1550.5,993.3063 L1623.5,993.3063 L1623.5,1003.0123 L1613.5,1013.0123 L1550.5,1013.0123 L1550.5,993.3063 " fill="#555555" style="stroke:#FFFFFF;stroke-width:1.5;"/><rect fill="none" height="81.412" style="stroke:#FFFFFF;stroke-width:1.5;" width="427" x="1550.5" y="993.3063"/><text fill="#FFFFFF" font-family="sans-serif" font-size="13" font-weight="bold" lengthAdjust="spacing" textLength="28" x="1565.5" y="1008.2033">loop</text><text fill="#FFFFFF" font-family="sans-serif" font-size="11" font-weight="bold" lengthAdjust="spacing" textLength="202" x="1638.5" y="1007.0652">[for each participant in participants]</text><polygon fill="#E7E7E7" points="1864.5,1032.7183,1874.5,1036.7183,1864.5,1040.7183,1868.5,1036.7183" style="stroke:#E7E7E7;stroke-width:1.0;"/><line style="stroke:#E7E7E7;stroke-width:1.0;stroke-dasharray:2.0,2.0;" x1="1678" x2="1870.5" y1="1036.7183" y2="1036.7183"/><text fill="#FFFFFF" font-family="sans-serif" font-size="13" lengthAdjust="spacing" textLength="45" x="1685" y="1030.9093">create()</text><polygon fill="#E7E7E7" points="445.5,1101.4243,435.5,1105.4243,445.5,1109.4243,441.5,1105.4243" style="stroke:#E7E7E7;stroke-width:1.0;"/><line style="stroke:#E7E7E7;stroke-width:1.0;stroke-dasharray:2.0,2.0;" x1="439.5" x2="1672" y1="1105.4243" y2="1105.4243"/><text fill="#FFFFFF" font-family="sans-serif" font-size="13" lengthAdjust="spacing" textLength="112" x="451.5" y="1099.6153">participantDTOList</text><polygon fill="#E7E7E7" points="211.5,1133.1304,201.5,1137.1304,211.5,1141.1304,207.5,1137.1304" style="stroke:#E7E7E7;stroke-width:1.0;"/><line style="stroke:#E7E7E7;stroke-width:1.0;stroke-dasharray:2.0,2.0;" x1="205.5" x2="428.5" y1="1137.1304" y2="1137.1304"/><text fill="#FFFFFF" font-family="sans-serif" font-size="13" lengthAdjust="spacing" textLength="112" x="217.5" y="1131.3214">participantDTOList</text><polygon fill="#E7E7E7" points="34.5,1164.8364,24.5,1168.8364,34.5,1172.8364,30.5,1168.8364" style="stroke:#E7E7E7;stroke-width:1.0;"/><line style="stroke:#E7E7E7;stroke-width:1.0;stroke-dasharray:2.0,2.0;" x1="28.5" x2="194.5" y1="1168.8364" y2="1168.8364"/><text fill="#FFFFFF" font-family="sans-serif" font-size="13" lengthAdjust="spacing" textLength="120" x="40.5" y="1163.0274">show participant list</text><!--SRC=[ZLN1RjmW4BtxAxXrSqW-e8SUsbuYTPMeIMwLLXJFxYBPW80wTR- -0mO2DlRQb_MQDsyUmxo1CYirUJEW2JNa3_usZQBQSiOL5PRyuCOU0ImNb-UFp-RjqSFv7kmtAQoMNJUbO5PtPOgNqLZeemGpcfENiS9iNa0Fd8773goa2fYVeAJXkB7HeVgJnlyrNAPo5gAcc2hxqzbf_VxwTAHAJQBxK-_VD-4JiBL8-ubKW7vzUcrkg2sJgutiPL20UmskoEJ-_WkU8lbCG5WaeCpoWLfm9qlmmIM7S6U66AO1rmvtVYb1_O6Iy0Y9NpI_N2tYTQmf1qEenWMm-3v0ImPEVubdq0OF5WG3roFmrpxa8I5H2sMgYh1GDJELkYemAVGXBZOs6iPVm8QW8Z2r8icUOeTPwyhVbd8nROqSH_SjT6eAptQIg2kw1hRSaiFM5A81Sd4krd64_ht5Kt35diyNCyN94jLyCPtK5ohuFsY_ZfkvjbDjP8hLqHTmGy7KKRE-g9w0cnsBuaSZOx2LQ9X3fAWKFva-Lz19gSWPHofckaO1X8kbblYab5D-zERSQYibT2wUBnTLd0D0j5vVivf-LZSiW2joKsKFcr_MqC-J6iMMauCJMsvKHqVIkPWCZ_DeDh3OLKe3gS9dBVifQdk6zSlxAPunIjqQRLcFn6O_FxOuDxaTCue7tXxkgjsoQFb0j5JNx335XvpazMpyez_31H2brIHL71_PCb4vRRDdCkJIPdRAkUgAPfug_PHVSEYfgh9i9xcnr7vdgPlMKZkzfIhcKiMDlEelTSDWApGxF6QkyhsePCLi_m40]--></g></svg>