<?xml version="1.0" encoding="us-ascii" standalone="no"?><svg xmlns="http://www.w3.org/2000/svg" xmlns:xlink="http://www.w3.org/1999/xlink" contentStyleType="text/css" height="1657px" preserveAspectRatio="none" style="width:2094px;height:1657px;background:#FFFFFF;" version="1.1" viewBox="0 0 2094 1657" width="2094px" zoomAndPan="magnify"><defs/><g><rect fill="#FFFFFF" height="30" style="stroke:#181818;stroke-width:1.0;" width="10" x="199.5" y="112.7988"/><rect fill="#FFFFFF" height="1383.627" style="stroke:#181818;stroke-width:1.0;" width="10" x="199.5" y="175.1094"/><rect fill="#FFFFFF" height="30" style="stroke:#181818;stroke-width:1.0;" width="10" x="353.5" y="210.4199"/><rect fill="#FFFFFF" height="30" style="stroke:#181818;stroke-width:1.0;" width="10" x="353.5" y="858.3887"/><rect fill="#FFFFFF" height="30" style="stroke:#181818;stroke-width:1.0;" width="10" x="453.5" y="489.5938"/><rect fill="#FFFFFF" height="29.3105" style="stroke:#181818;stroke-width:1.0;" width="10" x="453.5" y="616.5254"/><rect fill="#FFFFFF" height="30" style="stroke:#181818;stroke-width:1.0;" width="10" x="453.5" y="1274.8389"/><rect fill="#FFFFFF" height="30" style="stroke:#181818;stroke-width:1.0;" width="10" x="453.5" y="1466.4258"/><rect fill="#FFFFFF" height="30" style="stroke:#181818;stroke-width:1.0;" width="10" x="453.5" y="1528.7363"/><rect fill="#FFFFFF" height="32.3105" style="stroke:#181818;stroke-width:1.0;" width="10" x="558" y="275.7305"/><rect fill="#FFFFFF" height="119.9316" style="stroke:#181818;stroke-width:1.0;" width="10" x="729.5" y="337.3516"/><rect fill="#FFFFFF" height="30" style="stroke:#181818;stroke-width:1.0;" width="10" x="932.5" y="390.9727"/><rect fill="#FFFFFF" height="88.6211" style="stroke:#181818;stroke-width:1.0;" width="10" x="1122" y="675.1465"/><rect fill="#FFFFFF" height="30" style="stroke:#181818;stroke-width:1.0;" width="10" x="1298" y="704.457"/><rect fill="#FFFFFF" height="30" style="stroke:#181818;stroke-width:1.0;" width="10" x="1404" y="796.0781"/><rect fill="#FFFFFF" height="310.1738" style="stroke:#181818;stroke-width:1.0;" width="10" x="1404" y="917.6992"/><rect fill="#FFFFFF" height="30" style="stroke:#181818;stroke-width:1.0;" width="10" x="1619" y="947.0098"/><rect fill="#FFFFFF" height="221.5527" style="stroke:#181818;stroke-width:1.0;" width="10" x="1619" y="1006.3203"/><rect fill="#FFFFFF" height="30" style="stroke:#181818;stroke-width:1.0;" width="10" x="1789" y="1035.6309"/><rect fill="#FFFFFF" height="30" style="stroke:#181818;stroke-width:1.0;" width="10" x="1891.5" y="1344.8047"/><rect fill="#FFFFFF" height="30" style="stroke:#181818;stroke-width:1.0;" width="10" x="2025.5" y="1404.1152"/><rect fill="none" height="76.6211" style="stroke:#000000;stroke-width:1.5;" width="416" x="614" y="352.3516"/><line style="stroke:#181818;stroke-width:0.5;stroke-dasharray:5.0,5.0;" x1="37" x2="37" y1="81.4883" y2="1576.7363"/><line style="stroke:#181818;stroke-width:0.5;stroke-dasharray:5.0,5.0;" x1="204.5" x2="204.5" y1="81.4883" y2="1576.7363"/><line style="stroke:#181818;stroke-width:0.5;stroke-dasharray:5.0,5.0;" x1="358" x2="358" y1="81.4883" y2="1576.7363"/><line style="stroke:#181818;stroke-width:0.5;stroke-dasharray:5.0,5.0;" x1="458" x2="458" y1="81.4883" y2="1576.7363"/><line style="stroke:#181818;stroke-width:0.5;stroke-dasharray:5.0,5.0;" x1="563" x2="563" y1="81.4883" y2="1576.7363"/><line style="stroke:#181818;stroke-width:0.5;stroke-dasharray:5.0,5.0;" x1="734" x2="734" y1="81.4883" y2="1576.7363"/><line style="stroke:#181818;stroke-width:0.5;stroke-dasharray:5.0,5.0;" x1="937" x2="937" y1="81.4883" y2="1576.7363"/><line style="stroke:#181818;stroke-width:0.5;stroke-dasharray:5.0,5.0;" x1="1127" x2="1127" y1="81.4883" y2="1576.7363"/><line style="stroke:#181818;stroke-width:0.5;stroke-dasharray:5.0,5.0;" x1="1303" x2="1303" y1="81.4883" y2="1576.7363"/><line style="stroke:#181818;stroke-width:0.5;stroke-dasharray:5.0,5.0;" x1="1409" x2="1409" y1="81.4883" y2="1576.7363"/><line style="stroke:#181818;stroke-width:0.5;stroke-dasharray:5.0,5.0;" x1="1624" x2="1624" y1="81.4883" y2="1576.7363"/><line style="stroke:#181818;stroke-width:0.5;stroke-dasharray:5.0,5.0;" x1="1794" x2="1794" y1="81.4883" y2="1576.7363"/><line style="stroke:#181818;stroke-width:0.5;stroke-dasharray:5.0,5.0;" x1="1896" x2="1896" y1="81.4883" y2="1576.7363"/><line style="stroke:#181818;stroke-width:0.5;stroke-dasharray:5.0,5.0;" x1="2030" x2="2030" y1="81.4883" y2="1576.7363"/><text fill="#000000" font-family="sans-serif" font-size="14" lengthAdjust="spacing" textLength="59" x="5" y="78.5352">SBServer</text><ellipse cx="37.5" cy="13.5" fill="#E2E2F0" rx="8" ry="8" style="stroke:#181818;stroke-width:0.5;"/><path d="M37.5,21.5 L37.5,48.5 M24.5,29.5 L50.5,29.5 M37.5,48.5 L24.5,63.5 M37.5,48.5 L50.5,63.5 " fill="none" style="stroke:#181818;stroke-width:0.5;"/><text fill="#000000" font-family="sans-serif" font-size="14" lengthAdjust="spacing" textLength="59" x="5" y="1589.2715">SBServer</text><ellipse cx="37.5" cy="1600.7246" fill="#E2E2F0" rx="8" ry="8" style="stroke:#181818;stroke-width:0.5;"/><path d="M37.5,1608.7246 L37.5,1635.7246 M24.5,1616.7246 L50.5,1616.7246 M37.5,1635.7246 L24.5,1650.7246 M37.5,1635.7246 L50.5,1650.7246 " fill="none" style="stroke:#181818;stroke-width:0.5;"/><rect fill="#E2E2F0" height="30.4883" rx="2.5" ry="2.5" style="stroke:#181818;stroke-width:0.5;" width="142" x="133.5" y="50"/><text fill="#000000" font-family="sans-serif" font-size="14" lengthAdjust="spacing" textLength="128" x="140.5" y="70.5352">MovePostItHandler</text><rect fill="#E2E2F0" height="30.4883" rx="2.5" ry="2.5" style="stroke:#181818;stroke-width:0.5;" width="142" x="133.5" y="1575.7363"/><text fill="#000000" font-family="sans-serif" font-size="14" lengthAdjust="spacing" textLength="128" x="140.5" y="1596.2715">MovePostItHandler</text><rect fill="#E2E2F0" height="30.4883" rx="2.5" ry="2.5" style="stroke:#181818;stroke-width:0.5;" width="93" x="312" y="50"/><text fill="#000000" font-family="sans-serif" font-size="14" lengthAdjust="spacing" textLength="79" x="319" y="70.5352">SystemUser</text><rect fill="#E2E2F0" height="30.4883" rx="2.5" ry="2.5" style="stroke:#181818;stroke-width:0.5;" width="93" x="312" y="1575.7363"/><text fill="#000000" font-family="sans-serif" font-size="14" lengthAdjust="spacing" textLength="79" x="319" y="1596.2715">SystemUser</text><rect fill="#E2E2F0" height="30.4883" rx="2.5" ry="2.5" style="stroke:#181818;stroke-width:0.5;" width="87" x="415" y="50"/><text fill="#000000" font-family="sans-serif" font-size="14" lengthAdjust="spacing" textLength="73" x="422" y="70.5352">SBProtocol</text><rect fill="#E2E2F0" height="30.4883" rx="2.5" ry="2.5" style="stroke:#181818;stroke-width:0.5;" width="87" x="415" y="1575.7363"/><text fill="#000000" font-family="sans-serif" font-size="14" lengthAdjust="spacing" textLength="73" x="422" y="1596.2715">SBProtocol</text><rect fill="#E2E2F0" height="30.4883" rx="2.5" ry="2.5" style="stroke:#181818;stroke-width:0.5;" width="102" x="512" y="50"/><text fill="#000000" font-family="sans-serif" font-size="14" lengthAdjust="spacing" textLength="88" x="519" y="70.5352">BoardService</text><rect fill="#E2E2F0" height="30.4883" rx="2.5" ry="2.5" style="stroke:#181818;stroke-width:0.5;" width="102" x="512" y="1575.7363"/><text fill="#000000" font-family="sans-serif" font-size="14" lengthAdjust="spacing" textLength="88" x="519" y="1596.2715">BoardService</text><rect fill="#E2E2F0" height="30.4883" rx="2.5" ry="2.5" style="stroke:#181818;stroke-width:0.5;" width="221" x="624" y="50"/><text fill="#000000" font-family="sans-serif" font-size="14" lengthAdjust="spacing" textLength="207" x="631" y="70.5352">BoardWriteAccessDTOEncoder</text><rect fill="#E2E2F0" height="30.4883" rx="2.5" ry="2.5" style="stroke:#181818;stroke-width:0.5;" width="221" x="624" y="1575.7363"/><text fill="#000000" font-family="sans-serif" font-size="14" lengthAdjust="spacing" textLength="207" x="631" y="1596.2715">BoardWriteAccessDTOEncoder</text><rect fill="#E2E2F0" height="30.4883" rx="2.5" ry="2.5" style="stroke:#181818;stroke-width:0.5;" width="165" x="855" y="50"/><text fill="#000000" font-family="sans-serif" font-size="14" lengthAdjust="spacing" textLength="151" x="862" y="70.5352">BoardWriteAccessDTO</text><rect fill="#E2E2F0" height="30.4883" rx="2.5" ry="2.5" style="stroke:#181818;stroke-width:0.5;" width="165" x="855" y="1575.7363"/><text fill="#000000" font-family="sans-serif" font-size="14" lengthAdjust="spacing" textLength="151" x="862" y="1596.2715">BoardWriteAccessDTO</text><rect fill="#E2E2F0" height="30.4883" rx="2.5" ry="2.5" style="stroke:#181818;stroke-width:0.5;" width="194" x="1030" y="50"/><text fill="#000000" font-family="sans-serif" font-size="14" lengthAdjust="spacing" textLength="180" x="1037" y="70.5352">BoardFromToDTOEncoder</text><rect fill="#E2E2F0" height="30.4883" rx="2.5" ry="2.5" style="stroke:#181818;stroke-width:0.5;" width="194" x="1030" y="1575.7363"/><text fill="#000000" font-family="sans-serif" font-size="14" lengthAdjust="spacing" textLength="180" x="1037" y="1596.2715">BoardFromToDTOEncoder</text><rect fill="#E2E2F0" height="30.4883" rx="2.5" ry="2.5" style="stroke:#181818;stroke-width:0.5;" width="138" x="1234" y="50"/><text fill="#000000" font-family="sans-serif" font-size="14" lengthAdjust="spacing" textLength="124" x="1241" y="70.5352">BoardFromToDTO</text><rect fill="#E2E2F0" height="30.4883" rx="2.5" ry="2.5" style="stroke:#181818;stroke-width:0.5;" width="138" x="1234" y="1575.7363"/><text fill="#000000" font-family="sans-serif" font-size="14" lengthAdjust="spacing" textLength="124" x="1241" y="1596.2715">BoardFromToDTO</text><rect fill="#E2E2F0" height="30.4883" rx="2.5" ry="2.5" style="stroke:#181818;stroke-width:0.5;" width="54" x="1382" y="50"/><text fill="#000000" font-family="sans-serif" font-size="14" lengthAdjust="spacing" textLength="40" x="1389" y="70.5352">Board</text><rect fill="#E2E2F0" height="30.4883" rx="2.5" ry="2.5" style="stroke:#181818;stroke-width:0.5;" width="54" x="1382" y="1575.7363"/><text fill="#000000" font-family="sans-serif" font-size="14" lengthAdjust="spacing" textLength="40" x="1389" y="1596.2715">Board</text><rect fill="#E2E2F0" height="30.4883" rx="2.5" ry="2.5" style="stroke:#181818;stroke-width:0.5;" width="40" x="1604" y="50"/><text fill="#000000" font-family="sans-serif" font-size="14" lengthAdjust="spacing" textLength="26" x="1611" y="70.5352">Cell</text><rect fill="#E2E2F0" height="30.4883" rx="2.5" ry="2.5" style="stroke:#181818;stroke-width:0.5;" width="40" x="1604" y="1575.7363"/><text fill="#000000" font-family="sans-serif" font-size="14" lengthAdjust="spacing" textLength="26" x="1611" y="1596.2715">Cell</text><rect fill="#E2E2F0" height="30.4883" rx="2.5" ry="2.5" style="stroke:#181818;stroke-width:0.5;" width="52" x="1768" y="50"/><text fill="#000000" font-family="sans-serif" font-size="14" lengthAdjust="spacing" textLength="38" x="1775" y="70.5352">PostIt</text><rect fill="#E2E2F0" height="30.4883" rx="2.5" ry="2.5" style="stroke:#181818;stroke-width:0.5;" width="52" x="1768" y="1575.7363"/><text fill="#000000" font-family="sans-serif" font-size="14" lengthAdjust="spacing" textLength="38" x="1775" y="1596.2715">PostIt</text><rect fill="#E2E2F0" height="30.4883" rx="2.5" ry="2.5" style="stroke:#181818;stroke-width:0.5;" width="133" x="1830" y="50"/><text fill="#000000" font-family="sans-serif" font-size="14" lengthAdjust="spacing" textLength="119" x="1837" y="70.5352">NewChangeEvent</text><rect fill="#E2E2F0" height="30.4883" rx="2.5" ry="2.5" style="stroke:#181818;stroke-width:0.5;" width="133" x="1830" y="1575.7363"/><text fill="#000000" font-family="sans-serif" font-size="14" lengthAdjust="spacing" textLength="119" x="1837" y="1596.2715">NewChangeEvent</text><rect fill="#E2E2F0" height="30.4883" rx="2.5" ry="2.5" style="stroke:#181818;stroke-width:0.5;" width="115" x="1973" y="50"/><text fill="#000000" font-family="sans-serif" font-size="14" lengthAdjust="spacing" textLength="101" x="1980" y="70.5352">EventPublisher</text><rect fill="#E2E2F0" height="30.4883" rx="2.5" ry="2.5" style="stroke:#181818;stroke-width:0.5;" width="115" x="1973" y="1575.7363"/><text fill="#000000" font-family="sans-serif" font-size="14" lengthAdjust="spacing" textLength="101" x="1980" y="1596.2715">EventPublisher</text><rect fill="#FFFFFF" height="30" style="stroke:#181818;stroke-width:1.0;" width="10" x="199.5" y="112.7988"/><rect fill="#FFFFFF" height="1383.627" style="stroke:#181818;stroke-width:1.0;" width="10" x="199.5" y="175.1094"/><rect fill="#FFFFFF" height="30" style="stroke:#181818;stroke-width:1.0;" width="10" x="353.5" y="210.4199"/><rect fill="#FFFFFF" height="30" style="stroke:#181818;stroke-width:1.0;" width="10" x="353.5" y="858.3887"/><rect fill="#FFFFFF" height="30" style="stroke:#181818;stroke-width:1.0;" width="10" x="453.5" y="489.5938"/><rect fill="#FFFFFF" height="29.3105" style="stroke:#181818;stroke-width:1.0;" width="10" x="453.5" y="616.5254"/><rect fill="#FFFFFF" height="30" style="stroke:#181818;stroke-width:1.0;" width="10" x="453.5" y="1274.8389"/><rect fill="#FFFFFF" height="30" style="stroke:#181818;stroke-width:1.0;" width="10" x="453.5" y="1466.4258"/><rect fill="#FFFFFF" height="30" style="stroke:#181818;stroke-width:1.0;" width="10" x="453.5" y="1528.7363"/><rect fill="#FFFFFF" height="32.3105" style="stroke:#181818;stroke-width:1.0;" width="10" x="558" y="275.7305"/><rect fill="#FFFFFF" height="119.9316" style="stroke:#181818;stroke-width:1.0;" width="10" x="729.5" y="337.3516"/><rect fill="#FFFFFF" height="30" style="stroke:#181818;stroke-width:1.0;" width="10" x="932.5" y="390.9727"/><rect fill="#FFFFFF" height="88.6211" style="stroke:#181818;stroke-width:1.0;" width="10" x="1122" y="675.1465"/><rect fill="#FFFFFF" height="30" style="stroke:#181818;stroke-width:1.0;" width="10" x="1298" y="704.457"/><rect fill="#FFFFFF" height="30" style="stroke:#181818;stroke-width:1.0;" width="10" x="1404" y="796.0781"/><rect fill="#FFFFFF" height="310.1738" style="stroke:#181818;stroke-width:1.0;" width="10" x="1404" y="917.6992"/><rect fill="#FFFFFF" height="30" style="stroke:#181818;stroke-width:1.0;" width="10" x="1619" y="947.0098"/><rect fill="#FFFFFF" height="221.5527" style="stroke:#181818;stroke-width:1.0;" width="10" x="1619" y="1006.3203"/><rect fill="#FFFFFF" height="30" style="stroke:#181818;stroke-width:1.0;" width="10" x="1789" y="1035.6309"/><rect fill="#FFFFFF" height="30" style="stroke:#181818;stroke-width:1.0;" width="10" x="1891.5" y="1344.8047"/><rect fill="#FFFFFF" height="30" style="stroke:#181818;stroke-width:1.0;" width="10" x="2025.5" y="1404.1152"/><polygon fill="#181818" points="187.5,108.7988,197.5,112.7988,187.5,116.7988,191.5,112.7988" style="stroke:#181818;stroke-width:1.0;"/><line style="stroke:#181818;stroke-width:1.0;stroke-dasharray:2.0,2.0;" x1="37.5" x2="193.5" y1="112.7988" y2="112.7988"/><text fill="#000000" font-family="sans-serif" font-size="13" lengthAdjust="spacing" textLength="143" x="44.5" y="108.0566">create(socket, request)</text><polygon fill="#181818" points="187.5,171.1094,197.5,175.1094,187.5,179.1094,191.5,175.1094" style="stroke:#181818;stroke-width:1.0;"/><line style="stroke:#181818;stroke-width:1.0;" x1="37.5" x2="193.5" y1="175.1094" y2="175.1094"/><text fill="#000000" font-family="sans-serif" font-size="13" lengthAdjust="spacing" textLength="29" x="44.5" y="170.3672">run()</text><path d="M214,155.7988 L214,180.7988 L471,180.7988 L471,165.7988 L461,155.7988 L214,155.7988 " fill="#FEFFDD" style="stroke:#181818;stroke-width:0.5;"/><path d="M461,155.7988 L461,165.7988 L471,165.7988 L461,155.7988 " fill="#FEFFDD" style="stroke:#181818;stroke-width:0.5;"/><text fill="#000000" font-family="sans-serif" font-size="13" lengthAdjust="spacing" textLength="236" x="220" y="173.3672">establish socket input/output stream</text><polygon fill="#181818" points="341.5,206.4199,351.5,210.4199,341.5,214.4199,345.5,210.4199" style="stroke:#181818;stroke-width:1.0;"/><line style="stroke:#181818;stroke-width:1.0;stroke-dasharray:2.0,2.0;" x1="209.5" x2="347.5" y1="210.4199" y2="210.4199"/><text fill="#000000" font-family="sans-serif" font-size="13" lengthAdjust="spacing" textLength="28" x="216.5" y="205.6777">get()</text><path d="M368,191.1094 L368,216.1094 L677,216.1094 L677,201.1094 L667,191.1094 L368,191.1094 " fill="#FEFFDD" style="stroke:#181818;stroke-width:0.5;"/><path d="M667,191.1094 L667,201.1094 L677,201.1094 L667,191.1094 " fill="#FEFFDD" style="stroke:#181818;stroke-width:0.5;"/><text fill="#000000" font-family="sans-serif" font-size="13" lengthAdjust="spacing" textLength="288" x="374" y="208.6777">user obtained via SBServerApp and auth token</text><polygon fill="#181818" points="546,271.7305,556,275.7305,546,279.7305,550,275.7305" style="stroke:#181818;stroke-width:1.0;"/><line style="stroke:#181818;stroke-width:1.0;stroke-dasharray:2.0,2.0;" x1="209.5" x2="552" y1="275.7305" y2="275.7305"/><text fill="#000000" font-family="sans-serif" font-size="13" lengthAdjust="spacing" textLength="183" x="216.5" y="270.9883">boardsUserCanWrite(sys_usr)</text><path d="M573,256.4199 L573,281.4199 L843,281.4199 L843,266.4199 L833,256.4199 L573,256.4199 " fill="#FEFFDD" style="stroke:#181818;stroke-width:0.5;"/><path d="M833,256.4199 L833,266.4199 L843,266.4199 L833,256.4199 " fill="#FEFFDD" style="stroke:#181818;stroke-width:0.5;"/><text fill="#000000" font-family="sans-serif" font-size="13" lengthAdjust="spacing" textLength="249" x="579" y="273.9883">same process as US_3006 and US_3008</text><polygon fill="#181818" points="220.5,304.041,210.5,308.041,220.5,312.041,216.5,308.041" style="stroke:#181818;stroke-width:1.0;"/><line style="stroke:#181818;stroke-width:1.0;stroke-dasharray:2.0,2.0;" x1="214.5" x2="562" y1="308.041" y2="308.041"/><text fill="#000000" font-family="sans-serif" font-size="13" lengthAdjust="spacing" textLength="43" x="226.5" y="303.2988">boards</text><polygon fill="#181818" points="717.5,333.3516,727.5,337.3516,717.5,341.3516,721.5,337.3516" style="stroke:#181818;stroke-width:1.0;"/><line style="stroke:#181818;stroke-width:1.0;stroke-dasharray:2.0,2.0;" x1="209.5" x2="723.5" y1="337.3516" y2="337.3516"/><text fill="#000000" font-family="sans-serif" font-size="13" lengthAdjust="spacing" textLength="96" x="216.5" y="332.6094">encode(boards)</text><path d="M614,352.3516 L688,352.3516 L688,359.6621 L678,369.6621 L614,369.6621 L614,352.3516 " fill="#EEEEEE" style="stroke:#000000;stroke-width:1.5;"/><rect fill="none" height="76.6211" style="stroke:#000000;stroke-width:1.5;" width="416" x="614" y="352.3516"/><text fill="#000000" font-family="sans-serif" font-size="13" font-weight="bold" lengthAdjust="spacing" textLength="29" x="629" y="365.9199">loop</text><text fill="#000000" font-family="sans-serif" font-size="11" font-weight="bold" lengthAdjust="spacing" textLength="147" x="703" y="364.9863">[for each board in boards]</text><polygon fill="#181818" points="920.5,386.9727,930.5,390.9727,920.5,394.9727,924.5,390.9727" style="stroke:#181818;stroke-width:1.0;"/><line style="stroke:#181818;stroke-width:1.0;stroke-dasharray:2.0,2.0;" x1="739.5" x2="926.5" y1="390.9727" y2="390.9727"/><text fill="#000000" font-family="sans-serif" font-size="13" lengthAdjust="spacing" textLength="46" x="746.5" y="386.2305">create()</text><polygon fill="#181818" points="220.5,453.2832,210.5,457.2832,220.5,461.2832,216.5,457.2832" style="stroke:#181818;stroke-width:1.0;"/><line style="stroke:#181818;stroke-width:1.0;stroke-dasharray:2.0,2.0;" x1="214.5" x2="733.5" y1="457.2832" y2="457.2832"/><text fill="#000000" font-family="sans-serif" font-size="13" lengthAdjust="spacing" textLength="111" x="226.5" y="452.541">encodedBoardList</text><polygon fill="#181818" points="441.5,485.5938,451.5,489.5938,441.5,493.5938,445.5,489.5938" style="stroke:#181818;stroke-width:1.0;"/><line style="stroke:#181818;stroke-width:1.0;stroke-dasharray:2.0,2.0;" x1="209.5" x2="447.5" y1="489.5938" y2="489.5938"/><text fill="#000000" font-family="sans-serif" font-size="13" lengthAdjust="spacing" textLength="46" x="216.5" y="484.8516">create()</text><path d="M468,470.2832 L468,495.2832 L656,495.2832 L656,480.2832 L646,470.2832 L468,470.2832 " fill="#FEFFDD" style="stroke:#181818;stroke-width:0.5;"/><path d="M646,470.2832 L646,480.2832 L656,480.2832 L646,470.2832 " fill="#FEFFDD" style="stroke:#181818;stroke-width:0.5;"/><text fill="#000000" font-family="sans-serif" font-size="13" lengthAdjust="spacing" textLength="167" x="474" y="487.8516">content: encodedBoardList</text><polygon fill="#181818" points="446.5,547.9043,456.5,551.9043,446.5,555.9043,450.5,551.9043" style="stroke:#181818;stroke-width:1.0;"/><line style="stroke:#181818;stroke-width:1.0;stroke-dasharray:2.0,2.0;" x1="209.5" x2="452.5" y1="551.9043" y2="551.9043"/><text fill="#000000" font-family="sans-serif" font-size="13" lengthAdjust="spacing" textLength="66" x="216.5" y="547.1621">send(outS)</text><path d="M214,564.9043 L214,589.9043 L342,589.9043 L342,574.9043 L332,564.9043 L214,564.9043 " fill="#FEFFDD" style="stroke:#181818;stroke-width:0.5;"/><path d="M332,564.9043 L332,574.9043 L342,574.9043 L332,564.9043 " fill="#FEFFDD" style="stroke:#181818;stroke-width:0.5;"/><text fill="#000000" font-family="sans-serif" font-size="13" lengthAdjust="spacing" textLength="107" x="220" y="582.4727">await client reply</text><polygon fill="#181818" points="441.5,612.5254,451.5,616.5254,441.5,620.5254,445.5,616.5254" style="stroke:#181818;stroke-width:1.0;"/><line style="stroke:#181818;stroke-width:1.0;stroke-dasharray:2.0,2.0;" x1="209.5" x2="447.5" y1="616.5254" y2="616.5254"/><text fill="#000000" font-family="sans-serif" font-size="13" lengthAdjust="spacing" textLength="65" x="216.5" y="611.7832">create(inS)</text><polygon fill="#181818" points="220.5,641.8359,210.5,645.8359,220.5,649.8359,216.5,645.8359" style="stroke:#181818;stroke-width:1.0;"/><line style="stroke:#181818;stroke-width:1.0;stroke-dasharray:2.0,2.0;" x1="214.5" x2="457.5" y1="645.8359" y2="645.8359"/><text fill="#000000" font-family="sans-serif" font-size="13" lengthAdjust="spacing" textLength="31" x="226.5" y="641.0938">reply</text><polygon fill="#181818" points="1110,671.1465,1120,675.1465,1110,679.1465,1114,675.1465" style="stroke:#181818;stroke-width:1.0;"/><line style="stroke:#181818;stroke-width:1.0;stroke-dasharray:2.0,2.0;" x1="209.5" x2="1116" y1="675.1465" y2="675.1465"/><text fill="#000000" font-family="sans-serif" font-size="13" lengthAdjust="spacing" textLength="227" x="216.5" y="670.4043">decode(request.getContentAsString)</text><polygon fill="#181818" points="1286,700.457,1296,704.457,1286,708.457,1290,704.457" style="stroke:#181818;stroke-width:1.0;"/><line style="stroke:#181818;stroke-width:1.0;stroke-dasharray:2.0,2.0;" x1="1132" x2="1292" y1="704.457" y2="704.457"/><text fill="#000000" font-family="sans-serif" font-size="13" lengthAdjust="spacing" textLength="38" x="1139" y="699.7148">create</text><polygon fill="#181818" points="220.5,759.7676,210.5,763.7676,220.5,767.7676,216.5,763.7676" style="stroke:#181818;stroke-width:1.0;"/><line style="stroke:#181818;stroke-width:1.0;stroke-dasharray:2.0,2.0;" x1="214.5" x2="1126" y1="763.7676" y2="763.7676"/><text fill="#000000" font-family="sans-serif" font-size="13" lengthAdjust="spacing" textLength="21" x="226.5" y="759.0254">dto</text><polygon fill="#181818" points="1392,792.0781,1402,796.0781,1392,800.0781,1396,796.0781" style="stroke:#181818;stroke-width:1.0;"/><line style="stroke:#181818;stroke-width:1.0;stroke-dasharray:2.0,2.0;" x1="209.5" x2="1398" y1="796.0781" y2="796.0781"/><text fill="#000000" font-family="sans-serif" font-size="13" lengthAdjust="spacing" textLength="28" x="216.5" y="791.3359">get()</text><path d="M1419,776.7676 L1419,801.7676 L1638,801.7676 L1638,786.7676 L1628,776.7676 L1419,776.7676 " fill="#FEFFDD" style="stroke:#181818;stroke-width:0.5;"/><path d="M1628,776.7676 L1628,786.7676 L1638,786.7676 L1628,776.7676 " fill="#FEFFDD" style="stroke:#181818;stroke-width:0.5;"/><text fill="#000000" font-family="sans-serif" font-size="13" lengthAdjust="spacing" textLength="198" x="1425" y="794.3359">board obtained via SBServerApp</text><polygon fill="#181818" points="341.5,854.3887,351.5,858.3887,341.5,862.3887,345.5,858.3887" style="stroke:#181818;stroke-width:1.0;"/><line style="stroke:#181818;stroke-width:1.0;stroke-dasharray:2.0,2.0;" x1="209.5" x2="347.5" y1="858.3887" y2="858.3887"/><text fill="#000000" font-family="sans-serif" font-size="13" lengthAdjust="spacing" textLength="125" x="216.5" y="853.6465">get(dto.boardName)</text><polygon fill="#181818" points="1392,913.6992,1402,917.6992,1392,921.6992,1396,917.6992" style="stroke:#181818;stroke-width:1.0;"/><line style="stroke:#181818;stroke-width:1.0;stroke-dasharray:2.0,2.0;" x1="209.5" x2="1398" y1="917.6992" y2="917.6992"/><text fill="#000000" font-family="sans-serif" font-size="13" lengthAdjust="spacing" textLength="417" x="216.5" y="912.957">movePostIt(dto.rowFrom, dto.colFrom, dto.rowTo, dto.colTo, user)</text><polygon fill="#181818" points="1607,943.0098,1617,947.0098,1607,951.0098,1611,947.0098" style="stroke:#181818;stroke-width:1.0;"/><line style="stroke:#181818;stroke-width:1.0;stroke-dasharray:2.0,2.0;" x1="1414" x2="1613" y1="947.0098" y2="947.0098"/><text fill="#000000" font-family="sans-serif" font-size="13" lengthAdjust="spacing" textLength="78" x="1421" y="942.2676">get(row, col)</text><polygon fill="#181818" points="1607,1002.3203,1617,1006.3203,1607,1010.3203,1611,1006.3203" style="stroke:#181818;stroke-width:1.0;"/><line style="stroke:#181818;stroke-width:1.0;stroke-dasharray:2.0,2.0;" x1="1414" x2="1613" y1="1006.3203" y2="1006.3203"/><text fill="#000000" font-family="sans-serif" font-size="13" lengthAdjust="spacing" textLength="186" x="1421" y="1001.5781">movePostIt(data, cellTo, user)</text><polygon fill="#181818" points="1777,1031.6309,1787,1035.6309,1777,1039.6309,1781,1035.6309" style="stroke:#181818;stroke-width:1.0;"/><line style="stroke:#181818;stroke-width:1.0;stroke-dasharray:2.0,2.0;" x1="1629" x2="1783" y1="1035.6309" y2="1035.6309"/><text fill="#000000" font-family="sans-serif" font-size="13" lengthAdjust="spacing" textLength="28" x="1636" y="1030.8887">get()</text><line style="stroke:#181818;stroke-width:1.0;stroke-dasharray:2.0,2.0;" x1="1629" x2="1671" y1="1094.9414" y2="1094.9414"/><line style="stroke:#181818;stroke-width:1.0;stroke-dasharray:2.0,2.0;" x1="1671" x2="1671" y1="1094.9414" y2="1107.9414"/><line style="stroke:#181818;stroke-width:1.0;stroke-dasharray:2.0,2.0;" x1="1630" x2="1671" y1="1107.9414" y2="1107.9414"/><polygon fill="#181818" points="1640,1103.9414,1630,1107.9414,1640,1111.9414,1636,1107.9414" style="stroke:#181818;stroke-width:1.0;"/><text fill="#000000" font-family="sans-serif" font-size="13" lengthAdjust="spacing" textLength="146" x="1636" y="1090.1992">cellTo.addPostIt(postIt)</text><line style="stroke:#181818;stroke-width:1.0;stroke-dasharray:2.0,2.0;" x1="1629" x2="1671" y1="1137.252" y2="1137.252"/><line style="stroke:#181818;stroke-width:1.0;stroke-dasharray:2.0,2.0;" x1="1671" x2="1671" y1="1137.252" y2="1150.252"/><line style="stroke:#181818;stroke-width:1.0;stroke-dasharray:2.0,2.0;" x1="1630" x2="1671" y1="1150.252" y2="1150.252"/><polygon fill="#181818" points="1640,1146.252,1630,1150.252,1640,1154.252,1636,1150.252" style="stroke:#181818;stroke-width:1.0;"/><text fill="#000000" font-family="sans-serif" font-size="13" lengthAdjust="spacing" textLength="133" x="1636" y="1132.5098">addCreateToHistory()</text><line style="stroke:#181818;stroke-width:1.0;stroke-dasharray:2.0,2.0;" x1="1629" x2="1671" y1="1179.5625" y2="1179.5625"/><line style="stroke:#181818;stroke-width:1.0;stroke-dasharray:2.0,2.0;" x1="1671" x2="1671" y1="1179.5625" y2="1192.5625"/><line style="stroke:#181818;stroke-width:1.0;stroke-dasharray:2.0,2.0;" x1="1630" x2="1671" y1="1192.5625" y2="1192.5625"/><polygon fill="#181818" points="1640,1188.5625,1630,1192.5625,1640,1196.5625,1636,1192.5625" style="stroke:#181818;stroke-width:1.0;"/><text fill="#000000" font-family="sans-serif" font-size="13" lengthAdjust="spacing" textLength="90" x="1636" y="1174.8203">removePostIt()</text><line style="stroke:#181818;stroke-width:1.0;stroke-dasharray:2.0,2.0;" x1="1629" x2="1671" y1="1226.873" y2="1226.873"/><line style="stroke:#181818;stroke-width:1.0;stroke-dasharray:2.0,2.0;" x1="1671" x2="1671" y1="1226.873" y2="1239.873"/><line style="stroke:#181818;stroke-width:1.0;stroke-dasharray:2.0,2.0;" x1="1624" x2="1671" y1="1239.873" y2="1239.873"/><polygon fill="#181818" points="1634,1235.873,1624,1239.873,1634,1243.873,1630,1239.873" style="stroke:#181818;stroke-width:1.0;"/><text fill="#000000" font-family="sans-serif" font-size="13" lengthAdjust="spacing" textLength="142" x="1636" y="1222.1309">addRemoveToHistory()</text><polygon fill="#181818" points="441.5,1270.8389,451.5,1274.8389,441.5,1278.8389,445.5,1274.8389" style="stroke:#181818;stroke-width:1.0;"/><line style="stroke:#181818;stroke-width:1.0;stroke-dasharray:2.0,2.0;" x1="209.5" x2="447.5" y1="1274.8389" y2="1274.8389"/><text fill="#000000" font-family="sans-serif" font-size="13" lengthAdjust="spacing" textLength="46" x="216.5" y="1270.0967">create()</text><path d="M468,1247.873 L468,1287.873 L829,1287.873 L829,1257.873 L819,1247.873 L468,1247.873 " fill="#FEFFDD" style="stroke:#181818;stroke-width:0.5;"/><path d="M819,1247.873 L819,1257.873 L829,1257.873 L819,1247.873 " fill="#FEFFDD" style="stroke:#181818;stroke-width:0.5;"/><text fill="#000000" font-family="sans-serif" font-size="13" lengthAdjust="spacing" textLength="132" x="474" y="1265.4414">code: MOVE_POST_IT</text><text fill="#000000" font-family="sans-serif" font-size="13" lengthAdjust="spacing" textLength="340" x="474" y="1280.752">content: boardName, rowFrom, colFrom, rowTo, colTo</text><polygon fill="#181818" points="1879.5,1340.8047,1889.5,1344.8047,1879.5,1348.8047,1883.5,1344.8047" style="stroke:#181818;stroke-width:1.0;"/><line style="stroke:#181818;stroke-width:1.0;stroke-dasharray:2.0,2.0;" x1="209.5" x2="1885.5" y1="1344.8047" y2="1344.8047"/><text fill="#000000" font-family="sans-serif" font-size="13" lengthAdjust="spacing" textLength="141" x="216.5" y="1340.0625">create(name, protocol)</text><polygon fill="#181818" points="2013.5,1400.1152,2023.5,1404.1152,2013.5,1408.1152,2017.5,1404.1152" style="stroke:#181818;stroke-width:1.0;"/><line style="stroke:#181818;stroke-width:1.0;stroke-dasharray:2.0,2.0;" x1="209.5" x2="2019.5" y1="1404.1152" y2="1404.1152"/><text fill="#000000" font-family="sans-serif" font-size="13" lengthAdjust="spacing" textLength="89" x="216.5" y="1399.373">publish(event)</text><polygon fill="#181818" points="441.5,1462.4258,451.5,1466.4258,441.5,1470.4258,445.5,1466.4258" style="stroke:#181818;stroke-width:1.0;"/><line style="stroke:#181818;stroke-width:1.0;stroke-dasharray:2.0,2.0;" x1="209.5" x2="447.5" y1="1466.4258" y2="1466.4258"/><text fill="#000000" font-family="sans-serif" font-size="13" lengthAdjust="spacing" textLength="46" x="216.5" y="1461.6836">create()</text><path d="M468,1447.1152 L468,1472.1152 L553,1472.1152 L553,1457.1152 L543,1447.1152 L468,1447.1152 " fill="#FEFFDD" style="stroke:#181818;stroke-width:0.5;"/><path d="M543,1447.1152 L543,1457.1152 L553,1457.1152 L543,1447.1152 " fill="#FEFFDD" style="stroke:#181818;stroke-width:0.5;"/><text fill="#000000" font-family="sans-serif" font-size="13" lengthAdjust="spacing" textLength="64" x="474" y="1464.6836">code: ACK</text><polygon fill="#181818" points="441.5,1524.7363,451.5,1528.7363,441.5,1532.7363,445.5,1528.7363" style="stroke:#181818;stroke-width:1.0;"/><line style="stroke:#181818;stroke-width:1.0;stroke-dasharray:2.0,2.0;" x1="209.5" x2="447.5" y1="1528.7363" y2="1528.7363"/><text fill="#000000" font-family="sans-serif" font-size="13" lengthAdjust="spacing" textLength="66" x="216.5" y="1523.9941">send(outS)</text><!--SRC=[hLRVQzim47xtNw771DAiC1YZ3uCqwsZPseOvtLu6GP7LHDIHF4bso7-_qybMBSTE2gjVB5jtt_twxYJAhD8alKwvhhWcr123goGfgBQ2YO9AI-vLnHVAs3jxIsMMUq5cTHwBfGTZ-Ux9r407iofD1oczNcXb5LEv4odgTIHohQZEd3-2SSIfM78iy5iBosUCSME-BXzl95EPDxlNTiKbEwVHY6PMzQ1_qsgtL35mBsWGT1BzM6vdxHRHrfpdc086xsZ3vncp0wiOxu7lvrigD_ocuX9bU6KZ2TnObEjScArtkoZNIUABIYuklc3Po1LXcbFBHqQn5sudHFE_9JTsd51cHGKxlhmPZxy3KC3HfHnrjH82ZrJmgSLcQq4Ae2dwHBn18cHHsW-gjF0Yne8pkyJh8QvpjEOFQ6-u1HjkCzXfo4Ng9x9MEWQgjQL2yenKWWQ2pug208C9BUsMMFN29IAqmWoiZNsf6E1Y5OtZzvnAfDEe5kzw1vJjzSpG7NUiToHqnNbALnylBp-XJtxzEIWwcws2UUD7xhhcY5oj-U-IZjmTUSMEXqsNDCPofGho3AC0eBVU5jIeRRHv6lp65f3-bKxZI3IovfgZlTaAehlD8HlEeIJfCrhdmqUNOOlz4D0fFQ0kmZWxpSJfkXpKmaZghHzJqaA3dRSUO0RD6uXo10sGZe_wHJqtGT8z5PQmNBXsrxp83sVZ4J8z5r9GQgNJWxyj2a-lZ2EzwianXIQT- -pCJ6gra9kE6sswDRLiaoSveasR4oslSCnsaUem6fMME98W3i3pktUm-4dTMtolDJHNkcOzqAcH1hvEKUe1fiA9-NPsEZNXxC8nZTXQxTtnD759cK8LNpzWPwd2VxTq8_Da9hmDpBGxkNm4W3E1diZ7nxN3SwsdUFX_6BKT0hLqWlzZ1uVDO58S3dO6e4GbFjB5ytLW9FcpjnUuzjGxDgLPLljRu6jyMWl4vyZsfRg5iQ7qONH6G_DMJiwZ_qJnDlfG4Vhv-ixZCkDNvFxnryrgyPWkLtVBFpACq41zk7qqJ0qihHcAx7phLAhigviISHl9xYIgZkQr-zK9lLm3NE6lKYFkxbNTsE5crNNDNRRUFuEp-VV_Ec263VOYTczz_m00]--></g></svg>