<?xml version="1.0" encoding="us-ascii" standalone="no"?><svg xmlns="http://www.w3.org/2000/svg" xmlns:xlink="http://www.w3.org/1999/xlink" contentStyleType="text/css" height="1304px" preserveAspectRatio="none" style="width:1221px;height:1304px;background:#FFFFFF;" version="1.1" viewBox="0 0 1221 1304" width="1221px" zoomAndPan="magnify"><defs/><g><rect fill="#FFFFFF" height="536.3477" style="stroke:#181818;stroke-width:1.0;" width="10" x="180.5" y="112.7988"/><rect fill="#FFFFFF" height="461.0371" style="stroke:#181818;stroke-width:1.0;" width="10" x="180.5" y="744.3887"/><rect fill="#FFFFFF" height="30" style="stroke:#181818;stroke-width:1.0;" width="10" x="335.5" y="145.1094"/><rect fill="#FFFFFF" height="412.416" style="stroke:#181818;stroke-width:1.0;" width="10" x="335.5" y="207.4199"/><rect fill="#FFFFFF" height="343.1055" style="stroke:#181818;stroke-width:1.0;" width="10" x="335.5" y="773.6992"/><rect fill="#FFFFFF" height="30" style="stroke:#181818;stroke-width:1.0;" width="10" x="335.5" y="1175.4258"/><rect fill="#FFFFFF" height="30" style="stroke:#181818;stroke-width:1.0;" width="10" x="468" y="247.3857"/><rect fill="#FFFFFF" height="30" style="stroke:#181818;stroke-width:1.0;" width="10" x="468" y="317.3516"/><rect fill="#FFFFFF" height="29.3105" style="stroke:#181818;stroke-width:1.0;" width="10" x="468" y="411.9727"/><rect fill="#FFFFFF" height="30" style="stroke:#181818;stroke-width:1.0;" width="10" x="468" y="893.5967"/><rect fill="#FFFFFF" height="30" style="stroke:#181818;stroke-width:1.0;" width="10" x="468" y="963.5625"/><rect fill="#FFFFFF" height="29.3105" style="stroke:#181818;stroke-width:1.0;" width="10" x="468" y="1058.1836"/><rect fill="#FFFFFF" height="119.9316" style="stroke:#181818;stroke-width:1.0;" width="10" x="632" y="470.5938"/><rect fill="#FFFFFF" height="30" style="stroke:#181818;stroke-width:1.0;" width="10" x="835" y="524.2148"/><rect fill="#FFFFFF" height="39.9658" style="stroke:#181818;stroke-width:1.0;" width="10" x="1024.5" y="813.665"/><rect fill="none" height="76.6211" style="stroke:#000000;stroke-width:1.5;" width="416" x="516.5" y="485.5938"/><line style="stroke:#181818;stroke-width:0.5;stroke-dasharray:5.0,5.0;" x1="49" x2="49" y1="81.4883" y2="1223.4258"/><line style="stroke:#181818;stroke-width:0.5;stroke-dasharray:5.0,5.0;" x1="185.5" x2="185.5" y1="81.4883" y2="1223.4258"/><line style="stroke:#181818;stroke-width:0.5;stroke-dasharray:5.0,5.0;" x1="340.5" x2="340.5" y1="81.4883" y2="1223.4258"/><line style="stroke:#181818;stroke-width:0.5;stroke-dasharray:5.0,5.0;" x1="472.5" x2="472.5" y1="81.4883" y2="1223.4258"/><line style="stroke:#181818;stroke-width:0.5;stroke-dasharray:5.0,5.0;" x1="636.5" x2="636.5" y1="81.4883" y2="1223.4258"/><line style="stroke:#181818;stroke-width:0.5;stroke-dasharray:5.0,5.0;" x1="839.5" x2="839.5" y1="81.4883" y2="1223.4258"/><line style="stroke:#181818;stroke-width:0.5;stroke-dasharray:5.0,5.0;" x1="1029.5" x2="1029.5" y1="81.4883" y2="1223.4258"/><text fill="#000000" font-family="sans-serif" font-size="14" lengthAdjust="spacing" textLength="83" x="5" y="78.5352">SBAappUser</text><ellipse cx="49.5" cy="13.5" fill="#E2E2F0" rx="8" ry="8" style="stroke:#181818;stroke-width:0.5;"/><path d="M49.5,21.5 L49.5,48.5 M36.5,29.5 L62.5,29.5 M49.5,48.5 L36.5,63.5 M49.5,48.5 L62.5,63.5 " fill="none" style="stroke:#181818;stroke-width:0.5;"/><text fill="#000000" font-family="sans-serif" font-size="14" lengthAdjust="spacing" textLength="83" x="5" y="1235.9609">SBAappUser</text><ellipse cx="49.5" cy="1247.4141" fill="#E2E2F0" rx="8" ry="8" style="stroke:#181818;stroke-width:0.5;"/><path d="M49.5,1255.4141 L49.5,1282.4141 M36.5,1263.4141 L62.5,1263.4141 M49.5,1282.4141 L36.5,1297.4141 M49.5,1282.4141 L62.5,1297.4141 " fill="none" style="stroke:#181818;stroke-width:0.5;"/><rect fill="#E2E2F0" height="30.4883" rx="2.5" ry="2.5" style="stroke:#181818;stroke-width:0.5;" width="102" x="134.5" y="50"/><text fill="#000000" font-family="sans-serif" font-size="14" lengthAdjust="spacing" textLength="88" x="141.5" y="70.5352">MovePostItUI</text><rect fill="#E2E2F0" height="30.4883" rx="2.5" ry="2.5" style="stroke:#181818;stroke-width:0.5;" width="102" x="134.5" y="1222.4258"/><text fill="#000000" font-family="sans-serif" font-size="14" lengthAdjust="spacing" textLength="88" x="141.5" y="1242.9609">MovePostItUI</text><rect fill="#E2E2F0" height="30.4883" rx="2.5" ry="2.5" style="stroke:#181818;stroke-width:0.5;" width="158" x="261.5" y="50"/><text fill="#000000" font-family="sans-serif" font-size="14" lengthAdjust="spacing" textLength="144" x="268.5" y="70.5352">MovePostItController</text><rect fill="#E2E2F0" height="30.4883" rx="2.5" ry="2.5" style="stroke:#181818;stroke-width:0.5;" width="158" x="261.5" y="1222.4258"/><text fill="#000000" font-family="sans-serif" font-size="14" lengthAdjust="spacing" textLength="144" x="268.5" y="1242.9609">MovePostItController</text><rect fill="#E2E2F0" height="30.4883" rx="2.5" ry="2.5" style="stroke:#181818;stroke-width:0.5;" width="87" x="429.5" y="50"/><text fill="#000000" font-family="sans-serif" font-size="14" lengthAdjust="spacing" textLength="73" x="436.5" y="70.5352">SBProtocol</text><rect fill="#E2E2F0" height="30.4883" rx="2.5" ry="2.5" style="stroke:#181818;stroke-width:0.5;" width="87" x="429.5" y="1222.4258"/><text fill="#000000" font-family="sans-serif" font-size="14" lengthAdjust="spacing" textLength="73" x="436.5" y="1242.9609">SBProtocol</text><rect fill="#E2E2F0" height="30.4883" rx="2.5" ry="2.5" style="stroke:#181818;stroke-width:0.5;" width="221" x="526.5" y="50"/><text fill="#000000" font-family="sans-serif" font-size="14" lengthAdjust="spacing" textLength="207" x="533.5" y="70.5352">BoardWriteAccessDTOEncoder</text><rect fill="#E2E2F0" height="30.4883" rx="2.5" ry="2.5" style="stroke:#181818;stroke-width:0.5;" width="221" x="526.5" y="1222.4258"/><text fill="#000000" font-family="sans-serif" font-size="14" lengthAdjust="spacing" textLength="207" x="533.5" y="1242.9609">BoardWriteAccessDTOEncoder</text><rect fill="#E2E2F0" height="30.4883" rx="2.5" ry="2.5" style="stroke:#181818;stroke-width:0.5;" width="165" x="757.5" y="50"/><text fill="#000000" font-family="sans-serif" font-size="14" lengthAdjust="spacing" textLength="151" x="764.5" y="70.5352">BoardWriteAccessDTO</text><rect fill="#E2E2F0" height="30.4883" rx="2.5" ry="2.5" style="stroke:#181818;stroke-width:0.5;" width="165" x="757.5" y="1222.4258"/><text fill="#000000" font-family="sans-serif" font-size="14" lengthAdjust="spacing" textLength="151" x="764.5" y="1242.9609">BoardWriteAccessDTO</text><rect fill="#E2E2F0" height="30.4883" rx="2.5" ry="2.5" style="stroke:#181818;stroke-width:0.5;" width="194" x="932.5" y="50"/><text fill="#000000" font-family="sans-serif" font-size="14" lengthAdjust="spacing" textLength="180" x="939.5" y="70.5352">BoardFromToDTOEncoder</text><rect fill="#E2E2F0" height="30.4883" rx="2.5" ry="2.5" style="stroke:#181818;stroke-width:0.5;" width="194" x="932.5" y="1222.4258"/><text fill="#000000" font-family="sans-serif" font-size="14" lengthAdjust="spacing" textLength="180" x="939.5" y="1242.9609">BoardFromToDTOEncoder</text><rect fill="#FFFFFF" height="536.3477" style="stroke:#181818;stroke-width:1.0;" width="10" x="180.5" y="112.7988"/><rect fill="#FFFFFF" height="461.0371" style="stroke:#181818;stroke-width:1.0;" width="10" x="180.5" y="744.3887"/><rect fill="#FFFFFF" height="30" style="stroke:#181818;stroke-width:1.0;" width="10" x="335.5" y="145.1094"/><rect fill="#FFFFFF" height="412.416" style="stroke:#181818;stroke-width:1.0;" width="10" x="335.5" y="207.4199"/><rect fill="#FFFFFF" height="343.1055" style="stroke:#181818;stroke-width:1.0;" width="10" x="335.5" y="773.6992"/><rect fill="#FFFFFF" height="30" style="stroke:#181818;stroke-width:1.0;" width="10" x="335.5" y="1175.4258"/><rect fill="#FFFFFF" height="30" style="stroke:#181818;stroke-width:1.0;" width="10" x="468" y="247.3857"/><rect fill="#FFFFFF" height="30" style="stroke:#181818;stroke-width:1.0;" width="10" x="468" y="317.3516"/><rect fill="#FFFFFF" height="29.3105" style="stroke:#181818;stroke-width:1.0;" width="10" x="468" y="411.9727"/><rect fill="#FFFFFF" height="30" style="stroke:#181818;stroke-width:1.0;" width="10" x="468" y="893.5967"/><rect fill="#FFFFFF" height="30" style="stroke:#181818;stroke-width:1.0;" width="10" x="468" y="963.5625"/><rect fill="#FFFFFF" height="29.3105" style="stroke:#181818;stroke-width:1.0;" width="10" x="468" y="1058.1836"/><rect fill="#FFFFFF" height="119.9316" style="stroke:#181818;stroke-width:1.0;" width="10" x="632" y="470.5938"/><rect fill="#FFFFFF" height="30" style="stroke:#181818;stroke-width:1.0;" width="10" x="835" y="524.2148"/><rect fill="#FFFFFF" height="39.9658" style="stroke:#181818;stroke-width:1.0;" width="10" x="1024.5" y="813.665"/><polygon fill="#181818" points="168.5,108.7988,178.5,112.7988,168.5,116.7988,172.5,112.7988" style="stroke:#181818;stroke-width:1.0;"/><line style="stroke:#181818;stroke-width:1.0;stroke-dasharray:2.0,2.0;" x1="49.5" x2="174.5" y1="112.7988" y2="112.7988"/><text fill="#000000" font-family="sans-serif" font-size="13" lengthAdjust="spacing" textLength="83" x="56.5" y="108.0566">move post-it</text><polygon fill="#181818" points="323.5,141.1094,333.5,145.1094,323.5,149.1094,327.5,145.1094" style="stroke:#181818;stroke-width:1.0;"/><line style="stroke:#181818;stroke-width:1.0;stroke-dasharray:2.0,2.0;" x1="190.5" x2="329.5" y1="145.1094" y2="145.1094"/><text fill="#000000" font-family="sans-serif" font-size="13" lengthAdjust="spacing" textLength="92" x="197.5" y="140.3672">create(ip, port)</text><path d="M350,125.7988 L350,150.7988 L642,150.7988 L642,135.7988 L632,125.7988 L350,125.7988 " fill="#FEFFDD" style="stroke:#181818;stroke-width:0.5;"/><path d="M632,125.7988 L632,135.7988 L642,135.7988 L632,125.7988 " fill="#FEFFDD" style="stroke:#181818;stroke-width:0.5;"/><text fill="#000000" font-family="sans-serif" font-size="13" lengthAdjust="spacing" textLength="271" x="356" y="143.3672">establish socket, input and output streams</text><polygon fill="#181818" points="323.5,203.4199,333.5,207.4199,323.5,211.4199,327.5,207.4199" style="stroke:#181818;stroke-width:1.0;"/><line style="stroke:#181818;stroke-width:1.0;stroke-dasharray:2.0,2.0;" x1="190.5" x2="329.5" y1="207.4199" y2="207.4199"/><text fill="#000000" font-family="sans-serif" font-size="13" lengthAdjust="spacing" textLength="97" x="197.5" y="202.6777">requestBoards()</text><polygon fill="#181818" points="456,243.3857,466,247.3857,456,251.3857,460,247.3857" style="stroke:#181818;stroke-width:1.0;"/><line style="stroke:#181818;stroke-width:1.0;stroke-dasharray:2.0,2.0;" x1="345.5" x2="462" y1="247.3857" y2="247.3857"/><text fill="#000000" font-family="sans-serif" font-size="13" lengthAdjust="spacing" textLength="46" x="352.5" y="242.6436">create()</text><path d="M483,220.4199 L483,260.4199 L677,260.4199 L677,230.4199 L667,220.4199 L483,220.4199 " fill="#FEFFDD" style="stroke:#181818;stroke-width:0.5;"/><path d="M667,220.4199 L667,230.4199 L677,230.4199 L667,220.4199 " fill="#FEFFDD" style="stroke:#181818;stroke-width:0.5;"/><text fill="#000000" font-family="sans-serif" font-size="13" lengthAdjust="spacing" textLength="132" x="489" y="237.9883">code: MOVE_POST_IT</text><text fill="#000000" font-family="sans-serif" font-size="13" lengthAdjust="spacing" textLength="173" x="489" y="253.2988">due to technical limitations</text><polygon fill="#181818" points="456,313.3516,466,317.3516,456,321.3516,460,317.3516" style="stroke:#181818;stroke-width:1.0;"/><line style="stroke:#181818;stroke-width:1.0;stroke-dasharray:2.0,2.0;" x1="345.5" x2="462" y1="317.3516" y2="317.3516"/><text fill="#000000" font-family="sans-serif" font-size="13" lengthAdjust="spacing" textLength="66" x="352.5" y="312.6094">send(outS)</text><path d="M350,360.3516 L350,385.3516 L575,385.3516 L575,370.3516 L565,360.3516 L350,360.3516 " fill="#FEFFDD" style="stroke:#181818;stroke-width:0.5;"/><path d="M565,360.3516 L565,370.3516 L575,370.3516 L565,360.3516 " fill="#FEFFDD" style="stroke:#181818;stroke-width:0.5;"/><text fill="#000000" font-family="sans-serif" font-size="13" lengthAdjust="spacing" textLength="204" x="356" y="377.9199">controller awaits for server reply</text><polygon fill="#181818" points="456,407.9727,466,411.9727,456,415.9727,460,411.9727" style="stroke:#181818;stroke-width:1.0;"/><line style="stroke:#181818;stroke-width:1.0;stroke-dasharray:2.0,2.0;" x1="345.5" x2="462" y1="411.9727" y2="411.9727"/><text fill="#000000" font-family="sans-serif" font-size="13" lengthAdjust="spacing" textLength="65" x="352.5" y="407.2305">create(inS)</text><polygon fill="#181818" points="356.5,437.2832,346.5,441.2832,356.5,445.2832,352.5,441.2832" style="stroke:#181818;stroke-width:1.0;"/><line style="stroke:#181818;stroke-width:1.0;stroke-dasharray:2.0,2.0;" x1="350.5" x2="472" y1="441.2832" y2="441.2832"/><text fill="#000000" font-family="sans-serif" font-size="13" lengthAdjust="spacing" textLength="31" x="362.5" y="436.541">reply</text><polygon fill="#181818" points="620,466.5938,630,470.5938,620,474.5938,624,470.5938" style="stroke:#181818;stroke-width:1.0;"/><line style="stroke:#181818;stroke-width:1.0;stroke-dasharray:2.0,2.0;" x1="345.5" x2="626" y1="470.5938" y2="470.5938"/><text fill="#000000" font-family="sans-serif" font-size="13" lengthAdjust="spacing" textLength="244" x="352.5" y="465.8516">decodeMany(reply.getContentAsString)</text><path d="M516.5,485.5938 L590.5,485.5938 L590.5,492.9043 L580.5,502.9043 L516.5,502.9043 L516.5,485.5938 " fill="#EEEEEE" style="stroke:#000000;stroke-width:1.5;"/><rect fill="none" height="76.6211" style="stroke:#000000;stroke-width:1.5;" width="416" x="516.5" y="485.5938"/><text fill="#000000" font-family="sans-serif" font-size="13" font-weight="bold" lengthAdjust="spacing" textLength="29" x="531.5" y="499.1621">loop</text><text fill="#000000" font-family="sans-serif" font-size="11" font-weight="bold" lengthAdjust="spacing" textLength="135" x="605.5" y="498.2285">[for each value in reply]</text><polygon fill="#181818" points="823,520.2148,833,524.2148,823,528.2148,827,524.2148" style="stroke:#181818;stroke-width:1.0;"/><line style="stroke:#181818;stroke-width:1.0;stroke-dasharray:2.0,2.0;" x1="642" x2="829" y1="524.2148" y2="524.2148"/><text fill="#000000" font-family="sans-serif" font-size="13" lengthAdjust="spacing" textLength="46" x="649" y="519.4727">create()</text><polygon fill="#181818" points="356.5,586.5254,346.5,590.5254,356.5,594.5254,352.5,590.5254" style="stroke:#181818;stroke-width:1.0;"/><line style="stroke:#181818;stroke-width:1.0;stroke-dasharray:2.0,2.0;" x1="350.5" x2="636" y1="590.5254" y2="590.5254"/><text fill="#000000" font-family="sans-serif" font-size="13" lengthAdjust="spacing" textLength="87" x="362.5" y="585.7832">boardDTOList</text><polygon fill="#181818" points="201.5,615.8359,191.5,619.8359,201.5,623.8359,197.5,619.8359" style="stroke:#181818;stroke-width:1.0;"/><line style="stroke:#181818;stroke-width:1.0;stroke-dasharray:2.0,2.0;" x1="195.5" x2="339.5" y1="619.8359" y2="619.8359"/><text fill="#000000" font-family="sans-serif" font-size="13" lengthAdjust="spacing" textLength="87" x="207.5" y="615.0938">boardDTOList</text><polygon fill="#181818" points="60.5,645.1465,50.5,649.1465,60.5,653.1465,56.5,649.1465" style="stroke:#181818;stroke-width:1.0;"/><line style="stroke:#181818;stroke-width:1.0;stroke-dasharray:2.0,2.0;" x1="54.5" x2="184.5" y1="649.1465" y2="649.1465"/><text fill="#000000" font-family="sans-serif" font-size="13" lengthAdjust="spacing" textLength="80" x="66.5" y="644.4043">show boards</text><path d="M190,662.1465 L190,702.1465 L441,702.1465 L441,672.1465 L431,662.1465 L190,662.1465 " fill="#FEFFDD" style="stroke:#181818;stroke-width:0.5;"/><path d="M431,662.1465 L431,672.1465 L441,672.1465 L431,662.1465 " fill="#FEFFDD" style="stroke:#181818;stroke-width:0.5;"/><text fill="#000000" font-family="sans-serif" font-size="13" lengthAdjust="spacing" textLength="230" x="196" y="679.7148">ui now prompts user for information</text><text fill="#000000" font-family="sans-serif" font-size="13" lengthAdjust="spacing" textLength="164" x="196" y="695.0254">about the post-it to move</text><polygon fill="#181818" points="168.5,740.3887,178.5,744.3887,168.5,748.3887,172.5,744.3887" style="stroke:#181818;stroke-width:1.0;"/><line style="stroke:#181818;stroke-width:1.0;stroke-dasharray:2.0,2.0;" x1="49.5" x2="174.5" y1="744.3887" y2="744.3887"/><text fill="#000000" font-family="sans-serif" font-size="13" lengthAdjust="spacing" textLength="112" x="56.5" y="724.3359">choose board and</text><text fill="#000000" font-family="sans-serif" font-size="13" lengthAdjust="spacing" textLength="88" x="56.5" y="739.6465">input cell info</text><polygon fill="#181818" points="323.5,769.6992,333.5,773.6992,323.5,777.6992,327.5,773.6992" style="stroke:#181818;stroke-width:1.0;"/><line style="stroke:#181818;stroke-width:1.0;stroke-dasharray:2.0,2.0;" x1="190.5" x2="329.5" y1="773.6992" y2="773.6992"/><text fill="#000000" font-family="sans-serif" font-size="13" lengthAdjust="spacing" textLength="126" x="197.5" y="768.957">movePostIt(infoDto)</text><polygon fill="#181818" points="1012.5,809.665,1022.5,813.665,1012.5,817.665,1016.5,813.665" style="stroke:#181818;stroke-width:1.0;"/><line style="stroke:#181818;stroke-width:1.0;stroke-dasharray:2.0,2.0;" x1="345.5" x2="1018.5" y1="813.665" y2="813.665"/><text fill="#000000" font-family="sans-serif" font-size="13" lengthAdjust="spacing" textLength="74" x="352.5" y="808.9229">encode(dto)</text><path d="M1039,786.6992 L1039,826.6992 L1214,826.6992 L1214,796.6992 L1204,786.6992 L1039,786.6992 " fill="#FEFFDD" style="stroke:#181818;stroke-width:0.5;"/><path d="M1204,786.6992 L1204,796.6992 L1214,796.6992 L1204,786.6992 " fill="#FEFFDD" style="stroke:#181818;stroke-width:0.5;"/><text fill="#000000" font-family="sans-serif" font-size="13" lengthAdjust="spacing" textLength="154" x="1045" y="804.2676">encode dto in a way that</text><text fill="#000000" font-family="sans-serif" font-size="13" lengthAdjust="spacing" textLength="151" x="1045" y="819.5781">can be sent via protocol</text><polygon fill="#181818" points="356.5,849.6309,346.5,853.6309,356.5,857.6309,352.5,853.6309" style="stroke:#181818;stroke-width:1.0;"/><line style="stroke:#181818;stroke-width:1.0;stroke-dasharray:2.0,2.0;" x1="350.5" x2="1028.5" y1="853.6309" y2="853.6309"/><text fill="#000000" font-family="sans-serif" font-size="13" lengthAdjust="spacing" textLength="81" x="362.5" y="848.8887">encodedDTO</text><polygon fill="#181818" points="456,889.5967,466,893.5967,456,897.5967,460,893.5967" style="stroke:#181818;stroke-width:1.0;"/><line style="stroke:#181818;stroke-width:1.0;stroke-dasharray:2.0,2.0;" x1="345.5" x2="462" y1="893.5967" y2="893.5967"/><text fill="#000000" font-family="sans-serif" font-size="13" lengthAdjust="spacing" textLength="46" x="352.5" y="888.8545">create()</text><path d="M483,866.6309 L483,906.6309 L641,906.6309 L641,876.6309 L631,866.6309 L483,866.6309 " fill="#FEFFDD" style="stroke:#181818;stroke-width:0.5;"/><path d="M631,866.6309 L631,876.6309 L641,876.6309 L631,866.6309 " fill="#FEFFDD" style="stroke:#181818;stroke-width:0.5;"/><text fill="#000000" font-family="sans-serif" font-size="13" lengthAdjust="spacing" textLength="132" x="489" y="884.1992">code: MOVE_POST_IT</text><text fill="#000000" font-family="sans-serif" font-size="13" lengthAdjust="spacing" textLength="137" x="489" y="899.5098">content: encodedDTO</text><polygon fill="#181818" points="456,959.5625,466,963.5625,456,967.5625,460,963.5625" style="stroke:#181818;stroke-width:1.0;"/><line style="stroke:#181818;stroke-width:1.0;" x1="345.5" x2="462" y1="963.5625" y2="963.5625"/><text fill="#000000" font-family="sans-serif" font-size="13" lengthAdjust="spacing" textLength="66" x="352.5" y="958.8203">send(outS)</text><path d="M350,1006.5625 L350,1031.5625 L575,1031.5625 L575,1016.5625 L565,1006.5625 L350,1006.5625 " fill="#FEFFDD" style="stroke:#181818;stroke-width:0.5;"/><path d="M565,1006.5625 L565,1016.5625 L575,1016.5625 L565,1006.5625 " fill="#FEFFDD" style="stroke:#181818;stroke-width:0.5;"/><text fill="#000000" font-family="sans-serif" font-size="13" lengthAdjust="spacing" textLength="204" x="356" y="1024.1309">controller awaits for server reply</text><polygon fill="#181818" points="456,1054.1836,466,1058.1836,456,1062.1836,460,1058.1836" style="stroke:#181818;stroke-width:1.0;"/><line style="stroke:#181818;stroke-width:1.0;stroke-dasharray:2.0,2.0;" x1="345.5" x2="462" y1="1058.1836" y2="1058.1836"/><text fill="#000000" font-family="sans-serif" font-size="13" lengthAdjust="spacing" textLength="65" x="352.5" y="1053.4414">create(inS)</text><polygon fill="#181818" points="356.5,1083.4941,346.5,1087.4941,356.5,1091.4941,352.5,1087.4941" style="stroke:#181818;stroke-width:1.0;"/><line style="stroke:#181818;stroke-width:1.0;stroke-dasharray:2.0,2.0;" x1="350.5" x2="472" y1="1087.4941" y2="1087.4941"/><text fill="#000000" font-family="sans-serif" font-size="13" lengthAdjust="spacing" textLength="31" x="362.5" y="1082.752">reply</text><polygon fill="#181818" points="201.5,1112.8047,191.5,1116.8047,201.5,1120.8047,197.5,1116.8047" style="stroke:#181818;stroke-width:1.0;"/><line style="stroke:#181818;stroke-width:1.0;stroke-dasharray:2.0,2.0;" x1="195.5" x2="339.5" y1="1116.8047" y2="1116.8047"/><text fill="#000000" font-family="sans-serif" font-size="13" lengthAdjust="spacing" textLength="50" x="207.5" y="1112.0625">success</text><polygon fill="#181818" points="60.5,1142.1152,50.5,1146.1152,60.5,1150.1152,56.5,1146.1152" style="stroke:#181818;stroke-width:1.0;"/><line style="stroke:#181818;stroke-width:1.0;stroke-dasharray:2.0,2.0;" x1="54.5" x2="179.5" y1="1146.1152" y2="1146.1152"/><text fill="#000000" font-family="sans-serif" font-size="13" lengthAdjust="spacing" textLength="96" x="66.5" y="1141.373">inform success</text><polygon fill="#181818" points="323.5,1171.4258,333.5,1175.4258,323.5,1179.4258,327.5,1175.4258" style="stroke:#181818;stroke-width:1.0;"/><line style="stroke:#181818;stroke-width:1.0;stroke-dasharray:2.0,2.0;" x1="190.5" x2="329.5" y1="1175.4258" y2="1175.4258"/><text fill="#000000" font-family="sans-serif" font-size="13" lengthAdjust="spacing" textLength="83" x="197.5" y="1170.6836">closeSocket()</text><!--SRC=[dLRRZjem47tFLynZa9P-m3vKWkvMGYe22RPzGKB6yHAhZYUr1n1_tx53iWJ2rGyXScR6PoxdO2497So60r6M7ruv41us_9iafN2afIw59HZZLatHquW-Hj52N_Zy0oqvDAOA9CcPTg3PSEgGKA89tyl3UzjcYC9bVvmcDP1IUVysdxnRYLaLS-TegQoyvL6RPeGTqNywBERO3Xo29Y5rwFU_SuRm2WNd1IKdrjUK24bwAqY5v84NMmJ3a2ERIgVuMwhB5tPmr8ic5jdSwNLERA4yYPNHFWUFyg-Y5z2st108cm5kABnwuYY5Jw9pSrwiOjZ9L7kl0uPJ_pPyK4pIfxsEG74hhEWHNEikV6NHQumQtwPLSBHQ-OL2li9uyljzEPtCvilHV66pZG9282LpgwKmO7IXIP16wvj8Hsbz3SGrb5xPBEMIpPx0YPzDnuv6TISqUVXa9d3_jxpZL6dspoEify7U3R5nRZNpSH07Uh1tfa97niBkqnZesrf5UYfB0pyZf-sw0rnDhsDi1h6CnM44EMo5uQvgUmAlNZM06WmJi6kmEWyEP3qrE4gxouH78U9BaaiW3iLS1KemutzfJyc5u542pciQjU3C_neReupmeEQugnpzgHx4cFomRC7jB4ggT3VMMLj-5f4c2ojMFEf0UQD4WL51cPBa20ABqebuoHpHg-hu838BM-cDLCR44rgArg4bHQFgQJ1_8-nT4AQpYbKJgAAufbdjUDRpqq4xrymO0S8CyS09s8azLqBGmafXOQM2511ijUWcLJKWhJ6e8eP69XUcB0v1PrRNXF8sm-yIJ5aHz1wSvoBm1VQMN3wCzYdPV03mRVcy3_9j6NqCL6IItyHRnRsihzZRU7LT5WmpSnPl0MdlpZ_xDjV_0m00]--></g></svg>