<?xml version="1.0" encoding="us-ascii" standalone="no"?><svg xmlns="http://www.w3.org/2000/svg" xmlns:xlink="http://www.w3.org/1999/xlink" contentStyleType="text/css" height="1589px" preserveAspectRatio="none" style="width:2086px;height:1589px;background:#FFFFFF;" version="1.1" viewBox="0 0 2086 1589" width="2086px" zoomAndPan="magnify"><defs/><g><rect fill="#FFFFFF" height="30" style="stroke:#181818;stroke-width:1.0;" width="10" x="199.5" y="112.7988"/><rect fill="#FFFFFF" height="1315.3164" style="stroke:#181818;stroke-width:1.0;" width="10" x="199.5" y="175.1094"/><rect fill="#FFFFFF" height="30" style="stroke:#181818;stroke-width:1.0;" width="10" x="333.5" y="210.4199"/><rect fill="#FFFFFF" height="30" style="stroke:#181818;stroke-width:1.0;" width="10" x="333.5" y="858.3887"/><rect fill="#FFFFFF" height="30" style="stroke:#181818;stroke-width:1.0;" width="10" x="433.5" y="489.5938"/><rect fill="#FFFFFF" height="29.3105" style="stroke:#181818;stroke-width:1.0;" width="10" x="433.5" y="616.5254"/><rect fill="#FFFFFF" height="30" style="stroke:#181818;stroke-width:1.0;" width="10" x="433.5" y="1206.5283"/><rect fill="#FFFFFF" height="30" style="stroke:#181818;stroke-width:1.0;" width="10" x="433.5" y="1398.1152"/><rect fill="#FFFFFF" height="30" style="stroke:#181818;stroke-width:1.0;" width="10" x="433.5" y="1460.4258"/><rect fill="#FFFFFF" height="32.3105" style="stroke:#181818;stroke-width:1.0;" width="10" x="538" y="275.7305"/><rect fill="#FFFFFF" height="119.9316" style="stroke:#181818;stroke-width:1.0;" width="10" x="709.5" y="337.3516"/><rect fill="#FFFFFF" height="30" style="stroke:#181818;stroke-width:1.0;" width="10" x="912.5" y="390.9727"/><rect fill="#FFFFFF" height="88.6211" style="stroke:#181818;stroke-width:1.0;" width="10" x="1116.5" y="675.1465"/><rect fill="#FFFFFF" height="30" style="stroke:#181818;stroke-width:1.0;" width="10" x="1321.5" y="704.457"/><rect fill="#FFFFFF" height="30" style="stroke:#181818;stroke-width:1.0;" width="10" x="1442" y="796.0781"/><rect fill="#FFFFFF" height="248.8633" style="stroke:#181818;stroke-width:1.0;" width="10" x="1442" y="917.6992"/><rect fill="#FFFFFF" height="30" style="stroke:#181818;stroke-width:1.0;" width="10" x="1620" y="947.0098"/><rect fill="#FFFFFF" height="130.9316" style="stroke:#181818;stroke-width:1.0;" width="10" x="1620" y="1006.3203"/><rect fill="#FFFFFF" height="30" style="stroke:#181818;stroke-width:1.0;" width="10" x="1781" y="1035.6309"/><rect fill="#FFFFFF" height="30" style="stroke:#181818;stroke-width:1.0;" width="10" x="1883.5" y="1276.4941"/><rect fill="#FFFFFF" height="30" style="stroke:#181818;stroke-width:1.0;" width="10" x="2017.5" y="1335.8047"/><rect fill="none" height="76.6211" style="stroke:#000000;stroke-width:1.5;" width="416" x="594" y="352.3516"/><line style="stroke:#181818;stroke-width:0.5;stroke-dasharray:5.0,5.0;" x1="37" x2="37" y1="81.4883" y2="1508.4258"/><line style="stroke:#181818;stroke-width:0.5;stroke-dasharray:5.0,5.0;" x1="204" x2="204" y1="81.4883" y2="1508.4258"/><line style="stroke:#181818;stroke-width:0.5;stroke-dasharray:5.0,5.0;" x1="338" x2="338" y1="81.4883" y2="1508.4258"/><line style="stroke:#181818;stroke-width:0.5;stroke-dasharray:5.0,5.0;" x1="438" x2="438" y1="81.4883" y2="1508.4258"/><line style="stroke:#181818;stroke-width:0.5;stroke-dasharray:5.0,5.0;" x1="543" x2="543" y1="81.4883" y2="1508.4258"/><line style="stroke:#181818;stroke-width:0.5;stroke-dasharray:5.0,5.0;" x1="714" x2="714" y1="81.4883" y2="1508.4258"/><line style="stroke:#181818;stroke-width:0.5;stroke-dasharray:5.0,5.0;" x1="917" x2="917" y1="81.4883" y2="1508.4258"/><line style="stroke:#181818;stroke-width:0.5;stroke-dasharray:5.0,5.0;" x1="1121" x2="1121" y1="81.4883" y2="1508.4258"/><line style="stroke:#181818;stroke-width:0.5;stroke-dasharray:5.0,5.0;" x1="1326" x2="1326" y1="81.4883" y2="1508.4258"/><line style="stroke:#181818;stroke-width:0.5;stroke-dasharray:5.0,5.0;" x1="1447" x2="1447" y1="81.4883" y2="1508.4258"/><line style="stroke:#181818;stroke-width:0.5;stroke-dasharray:5.0,5.0;" x1="1625" x2="1625" y1="81.4883" y2="1508.4258"/><line style="stroke:#181818;stroke-width:0.5;stroke-dasharray:5.0,5.0;" x1="1786" x2="1786" y1="81.4883" y2="1508.4258"/><line style="stroke:#181818;stroke-width:0.5;stroke-dasharray:5.0,5.0;" x1="1888" x2="1888" y1="81.4883" y2="1508.4258"/><line style="stroke:#181818;stroke-width:0.5;stroke-dasharray:5.0,5.0;" x1="2022" x2="2022" y1="81.4883" y2="1508.4258"/><text fill="#000000" font-family="sans-serif" font-size="14" lengthAdjust="spacing" textLength="59" x="5" y="78.5352">SBServer</text><ellipse cx="37.5" cy="13.5" fill="#E2E2F0" rx="8" ry="8" style="stroke:#181818;stroke-width:0.5;"/><path d="M37.5,21.5 L37.5,48.5 M24.5,29.5 L50.5,29.5 M37.5,48.5 L24.5,63.5 M37.5,48.5 L50.5,63.5 " fill="none" style="stroke:#181818;stroke-width:0.5;"/><text fill="#000000" font-family="sans-serif" font-size="14" lengthAdjust="spacing" textLength="59" x="5" y="1520.9609">SBServer</text><ellipse cx="37.5" cy="1532.4141" fill="#E2E2F0" rx="8" ry="8" style="stroke:#181818;stroke-width:0.5;"/><path d="M37.5,1540.4141 L37.5,1567.4141 M24.5,1548.4141 L50.5,1548.4141 M37.5,1567.4141 L24.5,1582.4141 M37.5,1567.4141 L50.5,1582.4141 " fill="none" style="stroke:#181818;stroke-width:0.5;"/><rect fill="#E2E2F0" height="30.4883" rx="2.5" ry="2.5" style="stroke:#181818;stroke-width:0.5;" width="155" x="127" y="50"/><text fill="#000000" font-family="sans-serif" font-size="14" lengthAdjust="spacing" textLength="141" x="134" y="70.5352">UpdatePostItHandler</text><rect fill="#E2E2F0" height="30.4883" rx="2.5" ry="2.5" style="stroke:#181818;stroke-width:0.5;" width="155" x="127" y="1507.4258"/><text fill="#000000" font-family="sans-serif" font-size="14" lengthAdjust="spacing" textLength="141" x="134" y="1527.9609">UpdatePostItHandler</text><rect fill="#E2E2F0" height="30.4883" rx="2.5" ry="2.5" style="stroke:#181818;stroke-width:0.5;" width="93" x="292" y="50"/><text fill="#000000" font-family="sans-serif" font-size="14" lengthAdjust="spacing" textLength="79" x="299" y="70.5352">SystemUser</text><rect fill="#E2E2F0" height="30.4883" rx="2.5" ry="2.5" style="stroke:#181818;stroke-width:0.5;" width="93" x="292" y="1507.4258"/><text fill="#000000" font-family="sans-serif" font-size="14" lengthAdjust="spacing" textLength="79" x="299" y="1527.9609">SystemUser</text><rect fill="#E2E2F0" height="30.4883" rx="2.5" ry="2.5" style="stroke:#181818;stroke-width:0.5;" width="87" x="395" y="50"/><text fill="#000000" font-family="sans-serif" font-size="14" lengthAdjust="spacing" textLength="73" x="402" y="70.5352">SBProtocol</text><rect fill="#E2E2F0" height="30.4883" rx="2.5" ry="2.5" style="stroke:#181818;stroke-width:0.5;" width="87" x="395" y="1507.4258"/><text fill="#000000" font-family="sans-serif" font-size="14" lengthAdjust="spacing" textLength="73" x="402" y="1527.9609">SBProtocol</text><rect fill="#E2E2F0" height="30.4883" rx="2.5" ry="2.5" style="stroke:#181818;stroke-width:0.5;" width="102" x="492" y="50"/><text fill="#000000" font-family="sans-serif" font-size="14" lengthAdjust="spacing" textLength="88" x="499" y="70.5352">BoardService</text><rect fill="#E2E2F0" height="30.4883" rx="2.5" ry="2.5" style="stroke:#181818;stroke-width:0.5;" width="102" x="492" y="1507.4258"/><text fill="#000000" font-family="sans-serif" font-size="14" lengthAdjust="spacing" textLength="88" x="499" y="1527.9609">BoardService</text><rect fill="#E2E2F0" height="30.4883" rx="2.5" ry="2.5" style="stroke:#181818;stroke-width:0.5;" width="221" x="604" y="50"/><text fill="#000000" font-family="sans-serif" font-size="14" lengthAdjust="spacing" textLength="207" x="611" y="70.5352">BoardWriteAccessDTOEncoder</text><rect fill="#E2E2F0" height="30.4883" rx="2.5" ry="2.5" style="stroke:#181818;stroke-width:0.5;" width="221" x="604" y="1507.4258"/><text fill="#000000" font-family="sans-serif" font-size="14" lengthAdjust="spacing" textLength="207" x="611" y="1527.9609">BoardWriteAccessDTOEncoder</text><rect fill="#E2E2F0" height="30.4883" rx="2.5" ry="2.5" style="stroke:#181818;stroke-width:0.5;" width="165" x="835" y="50"/><text fill="#000000" font-family="sans-serif" font-size="14" lengthAdjust="spacing" textLength="151" x="842" y="70.5352">BoardWriteAccessDTO</text><rect fill="#E2E2F0" height="30.4883" rx="2.5" ry="2.5" style="stroke:#181818;stroke-width:0.5;" width="165" x="835" y="1507.4258"/><text fill="#000000" font-family="sans-serif" font-size="14" lengthAdjust="spacing" textLength="151" x="842" y="1527.9609">BoardWriteAccessDTO</text><rect fill="#E2E2F0" height="30.4883" rx="2.5" ry="2.5" style="stroke:#181818;stroke-width:0.5;" width="223" x="1010" y="50"/><text fill="#000000" font-family="sans-serif" font-size="14" lengthAdjust="spacing" textLength="209" x="1017" y="70.5352">BoardRowColDataDTOEncoder</text><rect fill="#E2E2F0" height="30.4883" rx="2.5" ry="2.5" style="stroke:#181818;stroke-width:0.5;" width="223" x="1010" y="1507.4258"/><text fill="#000000" font-family="sans-serif" font-size="14" lengthAdjust="spacing" textLength="209" x="1017" y="1527.9609">BoardRowColDataDTOEncoder</text><rect fill="#E2E2F0" height="30.4883" rx="2.5" ry="2.5" style="stroke:#181818;stroke-width:0.5;" width="167" x="1243" y="50"/><text fill="#000000" font-family="sans-serif" font-size="14" lengthAdjust="spacing" textLength="153" x="1250" y="70.5352">BoardRowColDataDTO</text><rect fill="#E2E2F0" height="30.4883" rx="2.5" ry="2.5" style="stroke:#181818;stroke-width:0.5;" width="167" x="1243" y="1507.4258"/><text fill="#000000" font-family="sans-serif" font-size="14" lengthAdjust="spacing" textLength="153" x="1250" y="1527.9609">BoardRowColDataDTO</text><rect fill="#E2E2F0" height="30.4883" rx="2.5" ry="2.5" style="stroke:#181818;stroke-width:0.5;" width="54" x="1420" y="50"/><text fill="#000000" font-family="sans-serif" font-size="14" lengthAdjust="spacing" textLength="40" x="1427" y="70.5352">Board</text><rect fill="#E2E2F0" height="30.4883" rx="2.5" ry="2.5" style="stroke:#181818;stroke-width:0.5;" width="54" x="1420" y="1507.4258"/><text fill="#000000" font-family="sans-serif" font-size="14" lengthAdjust="spacing" textLength="40" x="1427" y="1527.9609">Board</text><rect fill="#E2E2F0" height="30.4883" rx="2.5" ry="2.5" style="stroke:#181818;stroke-width:0.5;" width="40" x="1605" y="50"/><text fill="#000000" font-family="sans-serif" font-size="14" lengthAdjust="spacing" textLength="26" x="1612" y="70.5352">Cell</text><rect fill="#E2E2F0" height="30.4883" rx="2.5" ry="2.5" style="stroke:#181818;stroke-width:0.5;" width="40" x="1605" y="1507.4258"/><text fill="#000000" font-family="sans-serif" font-size="14" lengthAdjust="spacing" textLength="26" x="1612" y="1527.9609">Cell</text><rect fill="#E2E2F0" height="30.4883" rx="2.5" ry="2.5" style="stroke:#181818;stroke-width:0.5;" width="52" x="1760" y="50"/><text fill="#000000" font-family="sans-serif" font-size="14" lengthAdjust="spacing" textLength="38" x="1767" y="70.5352">PostIt</text><rect fill="#E2E2F0" height="30.4883" rx="2.5" ry="2.5" style="stroke:#181818;stroke-width:0.5;" width="52" x="1760" y="1507.4258"/><text fill="#000000" font-family="sans-serif" font-size="14" lengthAdjust="spacing" textLength="38" x="1767" y="1527.9609">PostIt</text><rect fill="#E2E2F0" height="30.4883" rx="2.5" ry="2.5" style="stroke:#181818;stroke-width:0.5;" width="133" x="1822" y="50"/><text fill="#000000" font-family="sans-serif" font-size="14" lengthAdjust="spacing" textLength="119" x="1829" y="70.5352">NewChangeEvent</text><rect fill="#E2E2F0" height="30.4883" rx="2.5" ry="2.5" style="stroke:#181818;stroke-width:0.5;" width="133" x="1822" y="1507.4258"/><text fill="#000000" font-family="sans-serif" font-size="14" lengthAdjust="spacing" textLength="119" x="1829" y="1527.9609">NewChangeEvent</text><rect fill="#E2E2F0" height="30.4883" rx="2.5" ry="2.5" style="stroke:#181818;stroke-width:0.5;" width="115" x="1965" y="50"/><text fill="#000000" font-family="sans-serif" font-size="14" lengthAdjust="spacing" textLength="101" x="1972" y="70.5352">EventPublisher</text><rect fill="#E2E2F0" height="30.4883" rx="2.5" ry="2.5" style="stroke:#181818;stroke-width:0.5;" width="115" x="1965" y="1507.4258"/><text fill="#000000" font-family="sans-serif" font-size="14" lengthAdjust="spacing" textLength="101" x="1972" y="1527.9609">EventPublisher</text><rect fill="#FFFFFF" height="30" style="stroke:#181818;stroke-width:1.0;" width="10" x="199.5" y="112.7988"/><rect fill="#FFFFFF" height="1315.3164" style="stroke:#181818;stroke-width:1.0;" width="10" x="199.5" y="175.1094"/><rect fill="#FFFFFF" height="30" style="stroke:#181818;stroke-width:1.0;" width="10" x="333.5" y="210.4199"/><rect fill="#FFFFFF" height="30" style="stroke:#181818;stroke-width:1.0;" width="10" x="333.5" y="858.3887"/><rect fill="#FFFFFF" height="30" style="stroke:#181818;stroke-width:1.0;" width="10" x="433.5" y="489.5938"/><rect fill="#FFFFFF" height="29.3105" style="stroke:#181818;stroke-width:1.0;" width="10" x="433.5" y="616.5254"/><rect fill="#FFFFFF" height="30" style="stroke:#181818;stroke-width:1.0;" width="10" x="433.5" y="1206.5283"/><rect fill="#FFFFFF" height="30" style="stroke:#181818;stroke-width:1.0;" width="10" x="433.5" y="1398.1152"/><rect fill="#FFFFFF" height="30" style="stroke:#181818;stroke-width:1.0;" width="10" x="433.5" y="1460.4258"/><rect fill="#FFFFFF" height="32.3105" style="stroke:#181818;stroke-width:1.0;" width="10" x="538" y="275.7305"/><rect fill="#FFFFFF" height="119.9316" style="stroke:#181818;stroke-width:1.0;" width="10" x="709.5" y="337.3516"/><rect fill="#FFFFFF" height="30" style="stroke:#181818;stroke-width:1.0;" width="10" x="912.5" y="390.9727"/><rect fill="#FFFFFF" height="88.6211" style="stroke:#181818;stroke-width:1.0;" width="10" x="1116.5" y="675.1465"/><rect fill="#FFFFFF" height="30" style="stroke:#181818;stroke-width:1.0;" width="10" x="1321.5" y="704.457"/><rect fill="#FFFFFF" height="30" style="stroke:#181818;stroke-width:1.0;" width="10" x="1442" y="796.0781"/><rect fill="#FFFFFF" height="248.8633" style="stroke:#181818;stroke-width:1.0;" width="10" x="1442" y="917.6992"/><rect fill="#FFFFFF" height="30" style="stroke:#181818;stroke-width:1.0;" width="10" x="1620" y="947.0098"/><rect fill="#FFFFFF" height="130.9316" style="stroke:#181818;stroke-width:1.0;" width="10" x="1620" y="1006.3203"/><rect fill="#FFFFFF" height="30" style="stroke:#181818;stroke-width:1.0;" width="10" x="1781" y="1035.6309"/><rect fill="#FFFFFF" height="30" style="stroke:#181818;stroke-width:1.0;" width="10" x="1883.5" y="1276.4941"/><rect fill="#FFFFFF" height="30" style="stroke:#181818;stroke-width:1.0;" width="10" x="2017.5" y="1335.8047"/><polygon fill="#181818" points="187.5,108.7988,197.5,112.7988,187.5,116.7988,191.5,112.7988" style="stroke:#181818;stroke-width:1.0;"/><line style="stroke:#181818;stroke-width:1.0;stroke-dasharray:2.0,2.0;" x1="37.5" x2="193.5" y1="112.7988" y2="112.7988"/><text fill="#000000" font-family="sans-serif" font-size="13" lengthAdjust="spacing" textLength="143" x="44.5" y="108.0566">create(socket, request)</text><polygon fill="#181818" points="187.5,171.1094,197.5,175.1094,187.5,179.1094,191.5,175.1094" style="stroke:#181818;stroke-width:1.0;"/><line style="stroke:#181818;stroke-width:1.0;" x1="37.5" x2="193.5" y1="175.1094" y2="175.1094"/><text fill="#000000" font-family="sans-serif" font-size="13" lengthAdjust="spacing" textLength="29" x="44.5" y="170.3672">run()</text><path d="M214,155.7988 L214,180.7988 L471,180.7988 L471,165.7988 L461,155.7988 L214,155.7988 " fill="#FEFFDD" style="stroke:#181818;stroke-width:0.5;"/><path d="M461,155.7988 L461,165.7988 L471,165.7988 L461,155.7988 " fill="#FEFFDD" style="stroke:#181818;stroke-width:0.5;"/><text fill="#000000" font-family="sans-serif" font-size="13" lengthAdjust="spacing" textLength="236" x="220" y="173.3672">establish socket input/output stream</text><polygon fill="#181818" points="321.5,206.4199,331.5,210.4199,321.5,214.4199,325.5,210.4199" style="stroke:#181818;stroke-width:1.0;"/><line style="stroke:#181818;stroke-width:1.0;stroke-dasharray:2.0,2.0;" x1="209.5" x2="327.5" y1="210.4199" y2="210.4199"/><text fill="#000000" font-family="sans-serif" font-size="13" lengthAdjust="spacing" textLength="28" x="216.5" y="205.6777">get()</text><path d="M348,191.1094 L348,216.1094 L657,216.1094 L657,201.1094 L647,191.1094 L348,191.1094 " fill="#FEFFDD" style="stroke:#181818;stroke-width:0.5;"/><path d="M647,191.1094 L647,201.1094 L657,201.1094 L647,191.1094 " fill="#FEFFDD" style="stroke:#181818;stroke-width:0.5;"/><text fill="#000000" font-family="sans-serif" font-size="13" lengthAdjust="spacing" textLength="288" x="354" y="208.6777">user obtained via SBServerApp and auth token</text><polygon fill="#181818" points="526,271.7305,536,275.7305,526,279.7305,530,275.7305" style="stroke:#181818;stroke-width:1.0;"/><line style="stroke:#181818;stroke-width:1.0;stroke-dasharray:2.0,2.0;" x1="209.5" x2="532" y1="275.7305" y2="275.7305"/><text fill="#000000" font-family="sans-serif" font-size="13" lengthAdjust="spacing" textLength="183" x="216.5" y="270.9883">boardsUserCanWrite(sys_usr)</text><path d="M553,256.4199 L553,281.4199 L823,281.4199 L823,266.4199 L813,256.4199 L553,256.4199 " fill="#FEFFDD" style="stroke:#181818;stroke-width:0.5;"/><path d="M813,256.4199 L813,266.4199 L823,266.4199 L813,256.4199 " fill="#FEFFDD" style="stroke:#181818;stroke-width:0.5;"/><text fill="#000000" font-family="sans-serif" font-size="13" lengthAdjust="spacing" textLength="249" x="559" y="273.9883">same process as US_3006 and US_3008</text><polygon fill="#181818" points="220.5,304.041,210.5,308.041,220.5,312.041,216.5,308.041" style="stroke:#181818;stroke-width:1.0;"/><line style="stroke:#181818;stroke-width:1.0;stroke-dasharray:2.0,2.0;" x1="214.5" x2="542" y1="308.041" y2="308.041"/><text fill="#000000" font-family="sans-serif" font-size="13" lengthAdjust="spacing" textLength="43" x="226.5" y="303.2988">boards</text><polygon fill="#181818" points="697.5,333.3516,707.5,337.3516,697.5,341.3516,701.5,337.3516" style="stroke:#181818;stroke-width:1.0;"/><line style="stroke:#181818;stroke-width:1.0;stroke-dasharray:2.0,2.0;" x1="209.5" x2="703.5" y1="337.3516" y2="337.3516"/><text fill="#000000" font-family="sans-serif" font-size="13" lengthAdjust="spacing" textLength="96" x="216.5" y="332.6094">encode(boards)</text><path d="M594,352.3516 L668,352.3516 L668,359.6621 L658,369.6621 L594,369.6621 L594,352.3516 " fill="#EEEEEE" style="stroke:#000000;stroke-width:1.5;"/><rect fill="none" height="76.6211" style="stroke:#000000;stroke-width:1.5;" width="416" x="594" y="352.3516"/><text fill="#000000" font-family="sans-serif" font-size="13" font-weight="bold" lengthAdjust="spacing" textLength="29" x="609" y="365.9199">loop</text><text fill="#000000" font-family="sans-serif" font-size="11" font-weight="bold" lengthAdjust="spacing" textLength="147" x="683" y="364.9863">[for each board in boards]</text><polygon fill="#181818" points="900.5,386.9727,910.5,390.9727,900.5,394.9727,904.5,390.9727" style="stroke:#181818;stroke-width:1.0;"/><line style="stroke:#181818;stroke-width:1.0;stroke-dasharray:2.0,2.0;" x1="719.5" x2="906.5" y1="390.9727" y2="390.9727"/><text fill="#000000" font-family="sans-serif" font-size="13" lengthAdjust="spacing" textLength="46" x="726.5" y="386.2305">create()</text><polygon fill="#181818" points="220.5,453.2832,210.5,457.2832,220.5,461.2832,216.5,457.2832" style="stroke:#181818;stroke-width:1.0;"/><line style="stroke:#181818;stroke-width:1.0;stroke-dasharray:2.0,2.0;" x1="214.5" x2="713.5" y1="457.2832" y2="457.2832"/><text fill="#000000" font-family="sans-serif" font-size="13" lengthAdjust="spacing" textLength="111" x="226.5" y="452.541">encodedBoardList</text><polygon fill="#181818" points="421.5,485.5938,431.5,489.5938,421.5,493.5938,425.5,489.5938" style="stroke:#181818;stroke-width:1.0;"/><line style="stroke:#181818;stroke-width:1.0;stroke-dasharray:2.0,2.0;" x1="209.5" x2="427.5" y1="489.5938" y2="489.5938"/><text fill="#000000" font-family="sans-serif" font-size="13" lengthAdjust="spacing" textLength="46" x="216.5" y="484.8516">create()</text><path d="M448,470.2832 L448,495.2832 L636,495.2832 L636,480.2832 L626,470.2832 L448,470.2832 " fill="#FEFFDD" style="stroke:#181818;stroke-width:0.5;"/><path d="M626,470.2832 L626,480.2832 L636,480.2832 L626,470.2832 " fill="#FEFFDD" style="stroke:#181818;stroke-width:0.5;"/><text fill="#000000" font-family="sans-serif" font-size="13" lengthAdjust="spacing" textLength="167" x="454" y="487.8516">content: encodedBoardList</text><polygon fill="#181818" points="426.5,547.9043,436.5,551.9043,426.5,555.9043,430.5,551.9043" style="stroke:#181818;stroke-width:1.0;"/><line style="stroke:#181818;stroke-width:1.0;stroke-dasharray:2.0,2.0;" x1="209.5" x2="432.5" y1="551.9043" y2="551.9043"/><text fill="#000000" font-family="sans-serif" font-size="13" lengthAdjust="spacing" textLength="66" x="216.5" y="547.1621">send(outS)</text><path d="M214,564.9043 L214,589.9043 L342,589.9043 L342,574.9043 L332,564.9043 L214,564.9043 " fill="#FEFFDD" style="stroke:#181818;stroke-width:0.5;"/><path d="M332,564.9043 L332,574.9043 L342,574.9043 L332,564.9043 " fill="#FEFFDD" style="stroke:#181818;stroke-width:0.5;"/><text fill="#000000" font-family="sans-serif" font-size="13" lengthAdjust="spacing" textLength="107" x="220" y="582.4727">await client reply</text><polygon fill="#181818" points="421.5,612.5254,431.5,616.5254,421.5,620.5254,425.5,616.5254" style="stroke:#181818;stroke-width:1.0;"/><line style="stroke:#181818;stroke-width:1.0;stroke-dasharray:2.0,2.0;" x1="209.5" x2="427.5" y1="616.5254" y2="616.5254"/><text fill="#000000" font-family="sans-serif" font-size="13" lengthAdjust="spacing" textLength="65" x="216.5" y="611.7832">create(inS)</text><polygon fill="#181818" points="220.5,641.8359,210.5,645.8359,220.5,649.8359,216.5,645.8359" style="stroke:#181818;stroke-width:1.0;"/><line style="stroke:#181818;stroke-width:1.0;stroke-dasharray:2.0,2.0;" x1="214.5" x2="437.5" y1="645.8359" y2="645.8359"/><text fill="#000000" font-family="sans-serif" font-size="13" lengthAdjust="spacing" textLength="31" x="226.5" y="641.0938">reply</text><polygon fill="#181818" points="1104.5,671.1465,1114.5,675.1465,1104.5,679.1465,1108.5,675.1465" style="stroke:#181818;stroke-width:1.0;"/><line style="stroke:#181818;stroke-width:1.0;stroke-dasharray:2.0,2.0;" x1="209.5" x2="1110.5" y1="675.1465" y2="675.1465"/><text fill="#000000" font-family="sans-serif" font-size="13" lengthAdjust="spacing" textLength="227" x="216.5" y="670.4043">decode(request.getContentAsString)</text><polygon fill="#181818" points="1309.5,700.457,1319.5,704.457,1309.5,708.457,1313.5,704.457" style="stroke:#181818;stroke-width:1.0;"/><line style="stroke:#181818;stroke-width:1.0;stroke-dasharray:2.0,2.0;" x1="1126.5" x2="1315.5" y1="704.457" y2="704.457"/><text fill="#000000" font-family="sans-serif" font-size="13" lengthAdjust="spacing" textLength="38" x="1133.5" y="699.7148">create</text><polygon fill="#181818" points="220.5,759.7676,210.5,763.7676,220.5,767.7676,216.5,763.7676" style="stroke:#181818;stroke-width:1.0;"/><line style="stroke:#181818;stroke-width:1.0;stroke-dasharray:2.0,2.0;" x1="214.5" x2="1120.5" y1="763.7676" y2="763.7676"/><text fill="#000000" font-family="sans-serif" font-size="13" lengthAdjust="spacing" textLength="21" x="226.5" y="759.0254">dto</text><polygon fill="#181818" points="1430,792.0781,1440,796.0781,1430,800.0781,1434,796.0781" style="stroke:#181818;stroke-width:1.0;"/><line style="stroke:#181818;stroke-width:1.0;stroke-dasharray:2.0,2.0;" x1="209.5" x2="1436" y1="796.0781" y2="796.0781"/><text fill="#000000" font-family="sans-serif" font-size="13" lengthAdjust="spacing" textLength="28" x="216.5" y="791.3359">get()</text><path d="M1457,776.7676 L1457,801.7676 L1676,801.7676 L1676,786.7676 L1666,776.7676 L1457,776.7676 " fill="#FEFFDD" style="stroke:#181818;stroke-width:0.5;"/><path d="M1666,776.7676 L1666,786.7676 L1676,786.7676 L1666,776.7676 " fill="#FEFFDD" style="stroke:#181818;stroke-width:0.5;"/><text fill="#000000" font-family="sans-serif" font-size="13" lengthAdjust="spacing" textLength="198" x="1463" y="794.3359">board obtained via SBServerApp</text><polygon fill="#181818" points="321.5,854.3887,331.5,858.3887,321.5,862.3887,325.5,858.3887" style="stroke:#181818;stroke-width:1.0;"/><line style="stroke:#181818;stroke-width:1.0;stroke-dasharray:2.0,2.0;" x1="209.5" x2="327.5" y1="858.3887" y2="858.3887"/><text fill="#000000" font-family="sans-serif" font-size="13" lengthAdjust="spacing" textLength="87" x="216.5" y="853.6465">get(dto.name)</text><polygon fill="#181818" points="1430,913.6992,1440,917.6992,1430,921.6992,1434,917.6992" style="stroke:#181818;stroke-width:1.0;"/><line style="stroke:#181818;stroke-width:1.0;stroke-dasharray:2.0,2.0;" x1="209.5" x2="1436" y1="917.6992" y2="917.6992"/><text fill="#000000" font-family="sans-serif" font-size="13" lengthAdjust="spacing" textLength="336" x="216.5" y="912.957">undoChangeOnPostIt(dto.row, dto.col, dto.data, user)</text><polygon fill="#181818" points="1608,943.0098,1618,947.0098,1608,951.0098,1612,947.0098" style="stroke:#181818;stroke-width:1.0;"/><line style="stroke:#181818;stroke-width:1.0;stroke-dasharray:2.0,2.0;" x1="1452" x2="1614" y1="947.0098" y2="947.0098"/><text fill="#000000" font-family="sans-serif" font-size="13" lengthAdjust="spacing" textLength="78" x="1459" y="942.2676">get(row, col)</text><polygon fill="#181818" points="1608,1002.3203,1618,1006.3203,1608,1010.3203,1612,1006.3203" style="stroke:#181818;stroke-width:1.0;"/><line style="stroke:#181818;stroke-width:1.0;stroke-dasharray:2.0,2.0;" x1="1452" x2="1614" y1="1006.3203" y2="1006.3203"/><text fill="#000000" font-family="sans-serif" font-size="13" lengthAdjust="spacing" textLength="149" x="1459" y="1001.5781">updatePostIt(data, user)</text><polygon fill="#181818" points="1769,1031.6309,1779,1035.6309,1769,1039.6309,1773,1035.6309" style="stroke:#181818;stroke-width:1.0;"/><line style="stroke:#181818;stroke-width:1.0;stroke-dasharray:2.0,2.0;" x1="1630" x2="1775" y1="1035.6309" y2="1035.6309"/><text fill="#000000" font-family="sans-serif" font-size="13" lengthAdjust="spacing" textLength="128" x="1637" y="1030.8887">alterPostItData(data)</text><line style="stroke:#181818;stroke-width:1.0;stroke-dasharray:2.0,2.0;" x1="1630" x2="1672" y1="1094.9414" y2="1094.9414"/><line style="stroke:#181818;stroke-width:1.0;stroke-dasharray:2.0,2.0;" x1="1672" x2="1672" y1="1094.9414" y2="1107.9414"/><line style="stroke:#181818;stroke-width:1.0;stroke-dasharray:2.0,2.0;" x1="1631" x2="1672" y1="1107.9414" y2="1107.9414"/><polygon fill="#181818" points="1641,1103.9414,1631,1107.9414,1641,1111.9414,1637,1107.9414" style="stroke:#181818;stroke-width:1.0;"/><text fill="#000000" font-family="sans-serif" font-size="13" lengthAdjust="spacing" textLength="137" x="1637" y="1090.1992">addUpdateToHistory()</text><polygon fill="#181818" points="1463,1133.252,1453,1137.252,1463,1141.252,1459,1137.252" style="stroke:#181818;stroke-width:1.0;"/><line style="stroke:#181818;stroke-width:1.0;stroke-dasharray:2.0,2.0;" x1="1457" x2="1624" y1="1137.252" y2="1137.252"/><text fill="#000000" font-family="sans-serif" font-size="13" lengthAdjust="spacing" textLength="111" x="1469" y="1132.5098">newPostItContent</text><polygon fill="#181818" points="220.5,1162.5625,210.5,1166.5625,220.5,1170.5625,216.5,1166.5625" style="stroke:#181818;stroke-width:1.0;"/><line style="stroke:#181818;stroke-width:1.0;stroke-dasharray:2.0,2.0;" x1="214.5" x2="1446" y1="1166.5625" y2="1166.5625"/><text fill="#000000" font-family="sans-serif" font-size="13" lengthAdjust="spacing" textLength="111" x="226.5" y="1161.8203">newPostItContent</text><polygon fill="#181818" points="421.5,1202.5283,431.5,1206.5283,421.5,1210.5283,425.5,1206.5283" style="stroke:#181818;stroke-width:1.0;"/><line style="stroke:#181818;stroke-width:1.0;stroke-dasharray:2.0,2.0;" x1="209.5" x2="427.5" y1="1206.5283" y2="1206.5283"/><text fill="#000000" font-family="sans-serif" font-size="13" lengthAdjust="spacing" textLength="46" x="216.5" y="1201.7861">create()</text><path d="M448,1179.5625 L448,1219.5625 L774,1219.5625 L774,1189.5625 L764,1179.5625 L448,1179.5625 " fill="#FEFFDD" style="stroke:#181818;stroke-width:0.5;"/><path d="M764,1179.5625 L764,1189.5625 L774,1189.5625 L764,1179.5625 " fill="#FEFFDD" style="stroke:#181818;stroke-width:0.5;"/><text fill="#000000" font-family="sans-serif" font-size="13" lengthAdjust="spacing" textLength="146" x="454" y="1197.1309">code: UPDATE_POST_IT</text><text fill="#000000" font-family="sans-serif" font-size="13" lengthAdjust="spacing" textLength="305" x="454" y="1212.4414">content: boardName, row, col, newPostItContent</text><polygon fill="#181818" points="1871.5,1272.4941,1881.5,1276.4941,1871.5,1280.4941,1875.5,1276.4941" style="stroke:#181818;stroke-width:1.0;"/><line style="stroke:#181818;stroke-width:1.0;stroke-dasharray:2.0,2.0;" x1="209.5" x2="1877.5" y1="1276.4941" y2="1276.4941"/><text fill="#000000" font-family="sans-serif" font-size="13" lengthAdjust="spacing" textLength="141" x="216.5" y="1271.752">create(name, protocol)</text><polygon fill="#181818" points="2005.5,1331.8047,2015.5,1335.8047,2005.5,1339.8047,2009.5,1335.8047" style="stroke:#181818;stroke-width:1.0;"/><line style="stroke:#181818;stroke-width:1.0;stroke-dasharray:2.0,2.0;" x1="209.5" x2="2011.5" y1="1335.8047" y2="1335.8047"/><text fill="#000000" font-family="sans-serif" font-size="13" lengthAdjust="spacing" textLength="89" x="216.5" y="1331.0625">publish(event)</text><polygon fill="#181818" points="421.5,1394.1152,431.5,1398.1152,421.5,1402.1152,425.5,1398.1152" style="stroke:#181818;stroke-width:1.0;"/><line style="stroke:#181818;stroke-width:1.0;stroke-dasharray:2.0,2.0;" x1="209.5" x2="427.5" y1="1398.1152" y2="1398.1152"/><text fill="#000000" font-family="sans-serif" font-size="13" lengthAdjust="spacing" textLength="46" x="216.5" y="1393.373">create()</text><path d="M448,1378.8047 L448,1403.8047 L533,1403.8047 L533,1388.8047 L523,1378.8047 L448,1378.8047 " fill="#FEFFDD" style="stroke:#181818;stroke-width:0.5;"/><path d="M523,1378.8047 L523,1388.8047 L533,1388.8047 L523,1378.8047 " fill="#FEFFDD" style="stroke:#181818;stroke-width:0.5;"/><text fill="#000000" font-family="sans-serif" font-size="13" lengthAdjust="spacing" textLength="64" x="454" y="1396.373">code: ACK</text><polygon fill="#181818" points="421.5,1456.4258,431.5,1460.4258,421.5,1464.4258,425.5,1460.4258" style="stroke:#181818;stroke-width:1.0;"/><line style="stroke:#181818;stroke-width:1.0;stroke-dasharray:2.0,2.0;" x1="209.5" x2="427.5" y1="1460.4258" y2="1460.4258"/><text fill="#000000" font-family="sans-serif" font-size="13" lengthAdjust="spacing" textLength="66" x="216.5" y="1455.6836">send(outS)</text><!--SRC=[hLPHQzim47xthz2Z0rbN68pHXq6Q5bessZ0dx6KG55bDH5t9asI7_FkTTBPhoNQpiUObIdJwxhkxxqwYp2fDikkCwvfhGWqnVfKa9TLMC55IQSccpAdbAsNilRsZCY_Gb5bTX8RPoLZ-iZ4DrCbiAnDXPTShhQnYgd0cPRCEJAuLrRbZ91ZtE3LBXWO_jR1ymHWtvcRzU2kPoj7jKTijb-pSYTOqjse4_OSwBbLnGoqDmKU10sDdDOxfTdPk4MmjUU5JmU0xsC1y-op1AiHxuCVbWSezlwsvz3Qyje65trXLkqAO0r8lgrsIO7d9XmzVVVd85M6QGt5JezWpjtEY-U-A6pjBABEYXXqiSyx3tnrGXwChcSQd4W8VgU2d5lk31Ik0ffuJGOT4oBAo7rLbuOiO2sHU4ZpdSHtHHaTmUiyj-72RdPzMPAJv1DugfqIrirH8dfDQq4xgYx8ae6H2AtiWLZrpwH5wONRg3RdK371z5OtJ-P9ABwkqCO_PWNH7cHdwmftwdHXTSJRPzjFbvMVF2TTVkeFEPwzWw7n0rpL9GBNf0vTqhzyK3qOCssvfdHLAbUG9XW907z0NrAZljFsq-Aql4Fshd6Q1QU3DDKT_inT4lCqX6uvGaemvRVA1qUM-nRuBw9GHK1TXc9rsyiIKksFTQ1gj7rFIGeETzzx1JBet46KA3P3D1lsYdjeWwP4AIrWXNBjhNXQdi_48cPqBgJlKIoU2_rqKAA-SUtara-C2cdI9sLcOp6eXzn6DljpQMlR5amnaqzT4ZvKVip5I4qPxf6VkHH06WFeU7ImugKUBZwUcvahi5e7U6cd0zKB2G7XZj9qTJ6qabSmLNWsF4cyG3w_LSUvoSW55n0LSwNJk9-IRWIEkJwoxg92mHmEasR1K_XeRgPN_VngrwZqnqfZQj0EV0eVWMm1EkrOfBDU8vAvaZpOnZlp5EZ6ByD8TTTHmfdcEBwErkeFEL_gKpYPEjDMH_8ZCcWxvfqoXi4SXXd9xvscNyokoMTqirhVRrMEstjwlVybk1dgN3o1WU3uqofYVvJarKchxIb9wpDOo7YFr0DFz5GLUxG2kn7TGojsZA8uSdaKnDVTIUl_yBPRV_kjsc7OuYXW_sVu0]--></g></svg>