<?xml version="1.0" encoding="us-ascii" standalone="no"?><svg xmlns="http://www.w3.org/2000/svg" xmlns:xlink="http://www.w3.org/1999/xlink" contentStyleType="text/css" height="1043.2px" preserveAspectRatio="none" style="width:1000px;height:1043px;background:#FFFFFF;" version="1.1" viewBox="0 0 1000 1043" width="1000.8px" zoomAndPan="magnify"><defs/><g><rect fill="#FFFFFF" height="429.0781" style="stroke:#181818;stroke-width:0.8000000000000002;" width="8" x="144.4" y="90.2391"/><rect fill="#FFFFFF" height="368.8297" style="stroke:#181818;stroke-width:0.8000000000000002;" width="8" x="144.4" y="595.5109"/><rect fill="#FFFFFF" height="24" style="stroke:#181818;stroke-width:0.8000000000000002;" width="8" x="275.6" y="116.0875"/><rect fill="#FFFFFF" height="329.9328" style="stroke:#181818;stroke-width:0.8000000000000002;" width="8" x="275.6" y="165.9359"/><rect fill="#FFFFFF" height="274.4844" style="stroke:#181818;stroke-width:0.8000000000000002;" width="8" x="275.6" y="618.9594"/><rect fill="#FFFFFF" height="24" style="stroke:#181818;stroke-width:0.8000000000000002;" width="8" x="275.6" y="940.3406"/><rect fill="#FFFFFF" height="24" style="stroke:#181818;stroke-width:0.8000000000000002;" width="8" x="386.8" y="197.9086"/><rect fill="#FFFFFF" height="24" style="stroke:#181818;stroke-width:0.8000000000000002;" width="8" x="386.8" y="253.8813"/><rect fill="#FFFFFF" height="23.4484" style="stroke:#181818;stroke-width:0.8000000000000002;" width="8" x="386.8" y="329.5781"/><rect fill="#FFFFFF" height="24" style="stroke:#181818;stroke-width:0.8000000000000002;" width="8" x="386.8" y="714.8773"/><rect fill="#FFFFFF" height="24" style="stroke:#181818;stroke-width:0.8000000000000002;" width="8" x="386.8" y="770.85"/><rect fill="#FFFFFF" height="23.4484" style="stroke:#181818;stroke-width:0.8000000000000002;" width="8" x="386.8" y="846.5469"/><rect fill="#FFFFFF" height="95.9453" style="stroke:#181818;stroke-width:0.8000000000000002;" width="8" x="518" y="376.475"/><rect fill="#FFFFFF" height="24" style="stroke:#181818;stroke-width:0.8000000000000002;" width="8" x="680.4" y="419.3719"/><rect fill="#FFFFFF" height="31.9727" style="stroke:#181818;stroke-width:0.8000000000000002;" width="8" x="843.6" y="650.932"/><rect fill="none" height="61.2969" style="stroke:#000000;stroke-width:1.2000000000000002;" width="332.8" x="425.6" y="388.475"/><line style="stroke:#181818;stroke-width:0.4000000000000001;stroke-dasharray:5.0,5.0;" x1="39.2" x2="39.2" y1="65.1906" y2="978.7406"/><line style="stroke:#181818;stroke-width:0.4000000000000001;stroke-dasharray:5.0,5.0;" x1="148" x2="148" y1="65.1906" y2="978.7406"/><line style="stroke:#181818;stroke-width:0.4000000000000001;stroke-dasharray:5.0,5.0;" x1="279.2" x2="279.2" y1="65.1906" y2="978.7406"/><line style="stroke:#181818;stroke-width:0.4000000000000001;stroke-dasharray:5.0,5.0;" x1="390.4" x2="390.4" y1="65.1906" y2="978.7406"/><line style="stroke:#181818;stroke-width:0.4000000000000001;stroke-dasharray:5.0,5.0;" x1="521.6" x2="521.6" y1="65.1906" y2="978.7406"/><line style="stroke:#181818;stroke-width:0.4000000000000001;stroke-dasharray:5.0,5.0;" x1="684" x2="684" y1="65.1906" y2="978.7406"/><line style="stroke:#181818;stroke-width:0.4000000000000001;stroke-dasharray:5.0,5.0;" x1="847.2" x2="847.2" y1="65.1906" y2="978.7406"/><text fill="#000000" font-family="sans-serif" font-size="11.2" lengthAdjust="spacing" textLength="66.4" x="4" y="62.8281">SBAappUser</text><ellipse cx="39.6" cy="10.8" fill="#E2E2F0" rx="6.4" ry="6.4" style="stroke:#181818;stroke-width:0.4000000000000001;"/><path d="M39.6,17.2 L39.6,38.8 M29.2,23.6 L50,23.6 M39.6,38.8 L29.2,50.8 M39.6,38.8 L50,50.8 " fill="none" style="stroke:#181818;stroke-width:0.4000000000000001;"/><text fill="#000000" font-family="sans-serif" font-size="11.2" lengthAdjust="spacing" textLength="66.4" x="4" y="988.7688">SBAappUser</text><ellipse cx="39.6" cy="997.9313" fill="#E2E2F0" rx="6.4" ry="6.4" style="stroke:#181818;stroke-width:0.4000000000000001;"/><path d="M39.6,1004.3313 L39.6,1025.9313 M29.2,1010.7313 L50,1010.7313 M39.6,1025.9313 L29.2,1037.9313 M39.6,1025.9313 L50,1037.9313 " fill="none" style="stroke:#181818;stroke-width:0.4000000000000001;"/><rect fill="#E2E2F0" height="24.3906" rx="2" ry="2" style="stroke:#181818;stroke-width:0.4000000000000001;" width="92" x="102.4" y="40"/><text fill="#000000" font-family="sans-serif" font-size="11.2" lengthAdjust="spacing" textLength="80.8" x="108" y="56.4281">UpdatePostItUI</text><rect fill="#E2E2F0" height="24.3906" rx="2" ry="2" style="stroke:#181818;stroke-width:0.4000000000000001;" width="92" x="102.4" y="977.9406"/><text fill="#000000" font-family="sans-serif" font-size="11.2" lengthAdjust="spacing" textLength="80.8" x="108" y="994.3688">UpdatePostItUI</text><rect fill="#E2E2F0" height="24.3906" rx="2" ry="2" style="stroke:#181818;stroke-width:0.4000000000000001;" width="136.8" x="211.2" y="40"/><text fill="#000000" font-family="sans-serif" font-size="11.2" lengthAdjust="spacing" textLength="125.6" x="216.8" y="56.4281">UpdatePostItController</text><rect fill="#E2E2F0" height="24.3906" rx="2" ry="2" style="stroke:#181818;stroke-width:0.4000000000000001;" width="136.8" x="211.2" y="977.9406"/><text fill="#000000" font-family="sans-serif" font-size="11.2" lengthAdjust="spacing" textLength="125.6" x="216.8" y="994.3688">UpdatePostItController</text><rect fill="#E2E2F0" height="24.3906" rx="2" ry="2" style="stroke:#181818;stroke-width:0.4000000000000001;" width="69.6" x="356" y="40"/><text fill="#000000" font-family="sans-serif" font-size="11.2" lengthAdjust="spacing" textLength="58.4" x="361.6" y="56.4281">SBProtocol</text><rect fill="#E2E2F0" height="24.3906" rx="2" ry="2" style="stroke:#181818;stroke-width:0.4000000000000001;" width="69.6" x="356" y="977.9406"/><text fill="#000000" font-family="sans-serif" font-size="11.2" lengthAdjust="spacing" textLength="58.4" x="361.6" y="994.3688">SBProtocol</text><rect fill="#E2E2F0" height="24.3906" rx="2" ry="2" style="stroke:#181818;stroke-width:0.4000000000000001;" width="176.8" x="433.6" y="40"/><text fill="#000000" font-family="sans-serif" font-size="11.2" lengthAdjust="spacing" textLength="165.6" x="439.2" y="56.4281">BoardWriteAccessDTOEncoder</text><rect fill="#E2E2F0" height="24.3906" rx="2" ry="2" style="stroke:#181818;stroke-width:0.4000000000000001;" width="176.8" x="433.6" y="977.9406"/><text fill="#000000" font-family="sans-serif" font-size="11.2" lengthAdjust="spacing" textLength="165.6" x="439.2" y="994.3688">BoardWriteAccessDTOEncoder</text><rect fill="#E2E2F0" height="24.3906" rx="2" ry="2" style="stroke:#181818;stroke-width:0.4000000000000001;" width="132" x="618.4" y="40"/><text fill="#000000" font-family="sans-serif" font-size="11.2" lengthAdjust="spacing" textLength="120.8" x="624" y="56.4281">BoardWriteAccessDTO</text><rect fill="#E2E2F0" height="24.3906" rx="2" ry="2" style="stroke:#181818;stroke-width:0.4000000000000001;" width="132" x="618.4" y="977.9406"/><text fill="#000000" font-family="sans-serif" font-size="11.2" lengthAdjust="spacing" textLength="120.8" x="624" y="994.3688">BoardWriteAccessDTO</text><rect fill="#E2E2F0" height="24.3906" rx="2" ry="2" style="stroke:#181818;stroke-width:0.4000000000000001;" width="178.4" x="758.4" y="40"/><text fill="#000000" font-family="sans-serif" font-size="11.2" lengthAdjust="spacing" textLength="167.2" x="764" y="56.4281">BoardRowColDataDTOEncoder</text><rect fill="#E2E2F0" height="24.3906" rx="2" ry="2" style="stroke:#181818;stroke-width:0.4000000000000001;" width="178.4" x="758.4" y="977.9406"/><text fill="#000000" font-family="sans-serif" font-size="11.2" lengthAdjust="spacing" textLength="167.2" x="764" y="994.3688">BoardRowColDataDTOEncoder</text><rect fill="#FFFFFF" height="429.0781" style="stroke:#181818;stroke-width:0.8000000000000002;" width="8" x="144.4" y="90.2391"/><rect fill="#FFFFFF" height="368.8297" style="stroke:#181818;stroke-width:0.8000000000000002;" width="8" x="144.4" y="595.5109"/><rect fill="#FFFFFF" height="24" style="stroke:#181818;stroke-width:0.8000000000000002;" width="8" x="275.6" y="116.0875"/><rect fill="#FFFFFF" height="329.9328" style="stroke:#181818;stroke-width:0.8000000000000002;" width="8" x="275.6" y="165.9359"/><rect fill="#FFFFFF" height="274.4844" style="stroke:#181818;stroke-width:0.8000000000000002;" width="8" x="275.6" y="618.9594"/><rect fill="#FFFFFF" height="24" style="stroke:#181818;stroke-width:0.8000000000000002;" width="8" x="275.6" y="940.3406"/><rect fill="#FFFFFF" height="24" style="stroke:#181818;stroke-width:0.8000000000000002;" width="8" x="386.8" y="197.9086"/><rect fill="#FFFFFF" height="24" style="stroke:#181818;stroke-width:0.8000000000000002;" width="8" x="386.8" y="253.8813"/><rect fill="#FFFFFF" height="23.4484" style="stroke:#181818;stroke-width:0.8000000000000002;" width="8" x="386.8" y="329.5781"/><rect fill="#FFFFFF" height="24" style="stroke:#181818;stroke-width:0.8000000000000002;" width="8" x="386.8" y="714.8773"/><rect fill="#FFFFFF" height="24" style="stroke:#181818;stroke-width:0.8000000000000002;" width="8" x="386.8" y="770.85"/><rect fill="#FFFFFF" height="23.4484" style="stroke:#181818;stroke-width:0.8000000000000002;" width="8" x="386.8" y="846.5469"/><rect fill="#FFFFFF" height="95.9453" style="stroke:#181818;stroke-width:0.8000000000000002;" width="8" x="518" y="376.475"/><rect fill="#FFFFFF" height="24" style="stroke:#181818;stroke-width:0.8000000000000002;" width="8" x="680.4" y="419.3719"/><rect fill="#FFFFFF" height="31.9727" style="stroke:#181818;stroke-width:0.8000000000000002;" width="8" x="843.6" y="650.932"/><polygon fill="#181818" points="134.8,87.0391,142.8,90.2391,134.8,93.4391,138,90.2391" style="stroke:#181818;stroke-width:0.8000000000000002;"/><line style="stroke:#181818;stroke-width:0.8000000000000002;stroke-dasharray:2.0,2.0;" x1="39.6" x2="139.6" y1="90.2391" y2="90.2391"/><text fill="#000000" font-family="sans-serif" font-size="10.4" lengthAdjust="spacing" textLength="73.6" x="45.2" y="86.4453">update post-it</text><polygon fill="#181818" points="266,112.8875,274,116.0875,266,119.2875,269.2,116.0875" style="stroke:#181818;stroke-width:0.8000000000000002;"/><line style="stroke:#181818;stroke-width:0.8000000000000002;stroke-dasharray:2.0,2.0;" x1="152.4" x2="270.8" y1="116.0875" y2="116.0875"/><text fill="#000000" font-family="sans-serif" font-size="10.4" lengthAdjust="spacing" textLength="73.6" x="158" y="112.2938">create(ip, port)</text><path d="M287.2,100.6391 L287.2,120.6391 L520.8,120.6391 L520.8,108.6391 L512.8,100.6391 L287.2,100.6391 " fill="#FEFFDD" style="stroke:#181818;stroke-width:0.4000000000000001;"/><path d="M512.8,100.6391 L512.8,108.6391 L520.8,108.6391 L512.8,100.6391 " fill="#FEFFDD" style="stroke:#181818;stroke-width:0.4000000000000001;"/><text fill="#000000" font-family="sans-serif" font-size="10.4" lengthAdjust="spacing" textLength="216.8" x="292" y="114.6938">establish socket, input and output streams</text><polygon fill="#181818" points="266,162.7359,274,165.9359,266,169.1359,269.2,165.9359" style="stroke:#181818;stroke-width:0.8000000000000002;"/><line style="stroke:#181818;stroke-width:0.8000000000000002;stroke-dasharray:2.0,2.0;" x1="152.4" x2="270.8" y1="165.9359" y2="165.9359"/><text fill="#000000" font-family="sans-serif" font-size="10.4" lengthAdjust="spacing" textLength="77.6" x="158" y="162.1422">requestBoards()</text><polygon fill="#181818" points="377.2,194.7086,385.2,197.9086,377.2,201.1086,380.4,197.9086" style="stroke:#181818;stroke-width:0.8000000000000002;"/><line style="stroke:#181818;stroke-width:0.8000000000000002;stroke-dasharray:2.0,2.0;" x1="283.6" x2="382" y1="197.9086" y2="197.9086"/><text fill="#000000" font-family="sans-serif" font-size="10.4" lengthAdjust="spacing" textLength="36.8" x="289.2" y="194.1148">create()</text><path d="M398.4,176.3359 L398.4,208.3359 L553.6,208.3359 L553.6,184.3359 L545.6,176.3359 L398.4,176.3359 " fill="#FEFFDD" style="stroke:#181818;stroke-width:0.4000000000000001;"/><path d="M545.6,176.3359 L545.6,184.3359 L553.6,184.3359 L545.6,176.3359 " fill="#FEFFDD" style="stroke:#181818;stroke-width:0.4000000000000001;"/><text fill="#000000" font-family="sans-serif" font-size="10.4" lengthAdjust="spacing" textLength="116.8" x="403.2" y="190.3906">code: UPDATE_POST_IT</text><text fill="#000000" font-family="sans-serif" font-size="10.4" lengthAdjust="spacing" textLength="138.4" x="403.2" y="202.6391">due to technical limitations</text><polygon fill="#181818" points="377.2,250.6813,385.2,253.8813,377.2,257.0813,380.4,253.8813" style="stroke:#181818;stroke-width:0.8000000000000002;"/><line style="stroke:#181818;stroke-width:0.8000000000000002;stroke-dasharray:2.0,2.0;" x1="283.6" x2="382" y1="253.8813" y2="253.8813"/><text fill="#000000" font-family="sans-serif" font-size="10.4" lengthAdjust="spacing" textLength="52.8" x="289.2" y="250.0875">send(outS)</text><path d="M287.2,288.2813 L287.2,308.2813 L467.2,308.2813 L467.2,296.2813 L459.2,288.2813 L287.2,288.2813 " fill="#FEFFDD" style="stroke:#181818;stroke-width:0.4000000000000001;"/><path d="M459.2,288.2813 L459.2,296.2813 L467.2,296.2813 L459.2,288.2813 " fill="#FEFFDD" style="stroke:#181818;stroke-width:0.4000000000000001;"/><text fill="#000000" font-family="sans-serif" font-size="10.4" lengthAdjust="spacing" textLength="163.2" x="292" y="302.3359">controller awaits for server reply</text><polygon fill="#181818" points="377.2,326.3781,385.2,329.5781,377.2,332.7781,380.4,329.5781" style="stroke:#181818;stroke-width:0.8000000000000002;"/><line style="stroke:#181818;stroke-width:0.8000000000000002;stroke-dasharray:2.0,2.0;" x1="283.6" x2="382" y1="329.5781" y2="329.5781"/><text fill="#000000" font-family="sans-serif" font-size="10.4" lengthAdjust="spacing" textLength="52" x="289.2" y="325.7844">create(inS)</text><polygon fill="#181818" points="292.4,349.8266,284.4,353.0266,292.4,356.2266,289.2,353.0266" style="stroke:#181818;stroke-width:0.8000000000000002;"/><line style="stroke:#181818;stroke-width:0.8000000000000002;stroke-dasharray:2.0,2.0;" x1="287.6" x2="390" y1="353.0266" y2="353.0266"/><text fill="#000000" font-family="sans-serif" font-size="10.4" lengthAdjust="spacing" textLength="24.8" x="297.2" y="349.2328">reply</text><polygon fill="#181818" points="508.4,373.275,516.4,376.475,508.4,379.675,511.6,376.475" style="stroke:#181818;stroke-width:0.8000000000000002;"/><line style="stroke:#181818;stroke-width:0.8000000000000002;stroke-dasharray:2.0,2.0;" x1="283.6" x2="513.2" y1="376.475" y2="376.475"/><text fill="#000000" font-family="sans-serif" font-size="10.4" lengthAdjust="spacing" textLength="195.2" x="289.2" y="372.6813">decodeMany(reply.getContentAsString)</text><path d="M425.6,388.475 L484.8,388.475 L484.8,394.3234 L476.8,402.3234 L425.6,402.3234 L425.6,388.475 " fill="#EEEEEE" style="stroke:#000000;stroke-width:1.2000000000000002;"/><rect fill="none" height="61.2969" style="stroke:#000000;stroke-width:1.2000000000000002;" width="332.8" x="425.6" y="388.475"/><text fill="#000000" font-family="sans-serif" font-size="10.4" font-weight="bold" lengthAdjust="spacing" textLength="23.2" x="437.6" y="399.3297">loop</text><text fill="#000000" font-family="sans-serif" font-size="8.8" font-weight="bold" lengthAdjust="spacing" textLength="108" x="496.8" y="398.5828">[for each value in reply]</text><polygon fill="#181818" points="670.8,416.1719,678.8,419.3719,670.8,422.5719,674,419.3719" style="stroke:#181818;stroke-width:0.8000000000000002;"/><line style="stroke:#181818;stroke-width:0.8000000000000002;stroke-dasharray:2.0,2.0;" x1="526" x2="675.6" y1="419.3719" y2="419.3719"/><text fill="#000000" font-family="sans-serif" font-size="10.4" lengthAdjust="spacing" textLength="36.8" x="531.6" y="415.5781">create()</text><polygon fill="#181818" points="292.4,469.2203,284.4,472.4203,292.4,475.6203,289.2,472.4203" style="stroke:#181818;stroke-width:0.8000000000000002;"/><line style="stroke:#181818;stroke-width:0.8000000000000002;stroke-dasharray:2.0,2.0;" x1="287.6" x2="521.2" y1="472.4203" y2="472.4203"/><text fill="#000000" font-family="sans-serif" font-size="10.4" lengthAdjust="spacing" textLength="69.6" x="297.2" y="468.6266">boardDTOList</text><polygon fill="#181818" points="161.2,492.6688,153.2,495.8688,161.2,499.0688,158,495.8688" style="stroke:#181818;stroke-width:0.8000000000000002;"/><line style="stroke:#181818;stroke-width:0.8000000000000002;stroke-dasharray:2.0,2.0;" x1="156.4" x2="278.8" y1="495.8688" y2="495.8688"/><text fill="#000000" font-family="sans-serif" font-size="10.4" lengthAdjust="spacing" textLength="69.6" x="166" y="492.075">boardDTOList</text><polygon fill="#181818" points="48.4,516.1172,40.4,519.3172,48.4,522.5172,45.2,519.3172" style="stroke:#181818;stroke-width:0.8000000000000002;"/><line style="stroke:#181818;stroke-width:0.8000000000000002;stroke-dasharray:2.0,2.0;" x1="43.6" x2="147.6" y1="519.3172" y2="519.3172"/><text fill="#000000" font-family="sans-serif" font-size="10.4" lengthAdjust="spacing" textLength="64" x="53.2" y="515.5234">show boards</text><path d="M152,529.7172 L152,561.7172 L352.8,561.7172 L352.8,537.7172 L344.8,529.7172 L152,529.7172 " fill="#FEFFDD" style="stroke:#181818;stroke-width:0.4000000000000001;"/><path d="M344.8,529.7172 L344.8,537.7172 L352.8,537.7172 L344.8,529.7172 " fill="#FEFFDD" style="stroke:#181818;stroke-width:0.4000000000000001;"/><text fill="#000000" font-family="sans-serif" font-size="10.4" lengthAdjust="spacing" textLength="184" x="156.8" y="543.7719">ui now prompts user for information</text><text fill="#000000" font-family="sans-serif" font-size="10.4" lengthAdjust="spacing" textLength="138.4" x="156.8" y="556.0203">about the post-it to update</text><polygon fill="#181818" points="134.8,592.3109,142.8,595.5109,134.8,598.7109,138,595.5109" style="stroke:#181818;stroke-width:0.8000000000000002;"/><line style="stroke:#181818;stroke-width:0.8000000000000002;stroke-dasharray:2.0,2.0;" x1="39.6" x2="139.6" y1="595.5109" y2="595.5109"/><text fill="#000000" font-family="sans-serif" font-size="10.4" lengthAdjust="spacing" textLength="89.6" x="45.2" y="579.4688">choose board and</text><text fill="#000000" font-family="sans-serif" font-size="10.4" lengthAdjust="spacing" textLength="70.4" x="45.2" y="591.7172">input cell info</text><polygon fill="#181818" points="266,615.7594,274,618.9594,266,622.1594,269.2,618.9594" style="stroke:#181818;stroke-width:0.8000000000000002;"/><line style="stroke:#181818;stroke-width:0.8000000000000002;stroke-dasharray:2.0,2.0;" x1="152.4" x2="270.8" y1="618.9594" y2="618.9594"/><text fill="#000000" font-family="sans-serif" font-size="10.4" lengthAdjust="spacing" textLength="108" x="158" y="615.1656">updatePostIt(infoDto)</text><polygon fill="#181818" points="834,647.732,842,650.932,834,654.132,837.2,650.932" style="stroke:#181818;stroke-width:0.8000000000000002;"/><line style="stroke:#181818;stroke-width:0.8000000000000002;stroke-dasharray:2.0,2.0;" x1="283.6" x2="838.8" y1="650.932" y2="650.932"/><text fill="#000000" font-family="sans-serif" font-size="10.4" lengthAdjust="spacing" textLength="59.2" x="289.2" y="647.1383">encode(dto)</text><path d="M855.2,629.3594 L855.2,661.3594 L995.2,661.3594 L995.2,637.3594 L987.2,629.3594 L855.2,629.3594 " fill="#FEFFDD" style="stroke:#181818;stroke-width:0.4000000000000001;"/><path d="M987.2,629.3594 L987.2,637.3594 L995.2,637.3594 L987.2,629.3594 " fill="#FEFFDD" style="stroke:#181818;stroke-width:0.4000000000000001;"/><text fill="#000000" font-family="sans-serif" font-size="10.4" lengthAdjust="spacing" textLength="123.2" x="860" y="643.4141">encode dto in a way that</text><text fill="#000000" font-family="sans-serif" font-size="10.4" lengthAdjust="spacing" textLength="120.8" x="860" y="655.6625">can be sent via protocol</text><polygon fill="#181818" points="292.4,679.7047,284.4,682.9047,292.4,686.1047,289.2,682.9047" style="stroke:#181818;stroke-width:0.8000000000000002;"/><line style="stroke:#181818;stroke-width:0.8000000000000002;stroke-dasharray:2.0,2.0;" x1="287.6" x2="846.8" y1="682.9047" y2="682.9047"/><text fill="#000000" font-family="sans-serif" font-size="10.4" lengthAdjust="spacing" textLength="64.8" x="297.2" y="679.1109">encodedDTO</text><polygon fill="#181818" points="377.2,711.6773,385.2,714.8773,377.2,718.0773,380.4,714.8773" style="stroke:#181818;stroke-width:0.8000000000000002;"/><line style="stroke:#181818;stroke-width:0.8000000000000002;stroke-dasharray:2.0,2.0;" x1="283.6" x2="382" y1="714.8773" y2="714.8773"/><text fill="#000000" font-family="sans-serif" font-size="10.4" lengthAdjust="spacing" textLength="36.8" x="289.2" y="711.0836">create()</text><path d="M398.4,693.3047 L398.4,725.3047 L532,725.3047 L532,701.3047 L524,693.3047 L398.4,693.3047 " fill="#FEFFDD" style="stroke:#181818;stroke-width:0.4000000000000001;"/><path d="M524,693.3047 L524,701.3047 L532,701.3047 L524,693.3047 " fill="#FEFFDD" style="stroke:#181818;stroke-width:0.4000000000000001;"/><text fill="#000000" font-family="sans-serif" font-size="10.4" lengthAdjust="spacing" textLength="116.8" x="403.2" y="707.3594">code: UPDATE_POST_IT</text><text fill="#000000" font-family="sans-serif" font-size="10.4" lengthAdjust="spacing" textLength="109.6" x="403.2" y="719.6078">content: encodedDTO</text><polygon fill="#181818" points="377.2,767.65,385.2,770.85,377.2,774.05,380.4,770.85" style="stroke:#181818;stroke-width:0.8000000000000002;"/><line style="stroke:#181818;stroke-width:0.8000000000000002;" x1="283.6" x2="382" y1="770.85" y2="770.85"/><text fill="#000000" font-family="sans-serif" font-size="10.4" lengthAdjust="spacing" textLength="52.8" x="289.2" y="767.0563">send(outS)</text><path d="M287.2,805.25 L287.2,825.25 L467.2,825.25 L467.2,813.25 L459.2,805.25 L287.2,805.25 " fill="#FEFFDD" style="stroke:#181818;stroke-width:0.4000000000000001;"/><path d="M459.2,805.25 L459.2,813.25 L467.2,813.25 L459.2,805.25 " fill="#FEFFDD" style="stroke:#181818;stroke-width:0.4000000000000001;"/><text fill="#000000" font-family="sans-serif" font-size="10.4" lengthAdjust="spacing" textLength="163.2" x="292" y="819.3047">controller awaits for server reply</text><polygon fill="#181818" points="377.2,843.3469,385.2,846.5469,377.2,849.7469,380.4,846.5469" style="stroke:#181818;stroke-width:0.8000000000000002;"/><line style="stroke:#181818;stroke-width:0.8000000000000002;stroke-dasharray:2.0,2.0;" x1="283.6" x2="382" y1="846.5469" y2="846.5469"/><text fill="#000000" font-family="sans-serif" font-size="10.4" lengthAdjust="spacing" textLength="52" x="289.2" y="842.7531">create(inS)</text><polygon fill="#181818" points="292.4,866.7953,284.4,869.9953,292.4,873.1953,289.2,869.9953" style="stroke:#181818;stroke-width:0.8000000000000002;"/><line style="stroke:#181818;stroke-width:0.8000000000000002;stroke-dasharray:2.0,2.0;" x1="287.6" x2="390" y1="869.9953" y2="869.9953"/><text fill="#000000" font-family="sans-serif" font-size="10.4" lengthAdjust="spacing" textLength="24.8" x="297.2" y="866.2016">reply</text><polygon fill="#181818" points="161.2,890.2438,153.2,893.4438,161.2,896.6438,158,893.4438" style="stroke:#181818;stroke-width:0.8000000000000002;"/><line style="stroke:#181818;stroke-width:0.8000000000000002;stroke-dasharray:2.0,2.0;" x1="156.4" x2="278.8" y1="893.4438" y2="893.4438"/><text fill="#000000" font-family="sans-serif" font-size="10.4" lengthAdjust="spacing" textLength="40" x="166" y="889.65">success</text><polygon fill="#181818" points="48.4,913.6922,40.4,916.8922,48.4,920.0922,45.2,916.8922" style="stroke:#181818;stroke-width:0.8000000000000002;"/><line style="stroke:#181818;stroke-width:0.8000000000000002;stroke-dasharray:2.0,2.0;" x1="43.6" x2="143.6" y1="916.8922" y2="916.8922"/><text fill="#000000" font-family="sans-serif" font-size="10.4" lengthAdjust="spacing" textLength="76.8" x="53.2" y="913.0984">inform success</text><polygon fill="#181818" points="266,937.1406,274,940.3406,266,943.5406,269.2,940.3406" style="stroke:#181818;stroke-width:0.8000000000000002;"/><line style="stroke:#181818;stroke-width:0.8000000000000002;stroke-dasharray:2.0,2.0;" x1="152.4" x2="270.8" y1="940.3406" y2="940.3406"/><text fill="#000000" font-family="sans-serif" font-size="10.4" lengthAdjust="spacing" textLength="66.4" x="158" y="936.5469">closeSocket()</text><!--SRC=[dLPDZ-8m3BttL_XOf65_m1nMWc4E8yrgq1Qq5oGKqWoDDYJTn0NnxzT9Q6cXVFO0LR3TP_kzHnb7Oo4RZrXPpfsmm1nKz9qa9RCekIoPHfYNEKCnDGu_SFuHOkJ5W3UZqHgbOZ6ELdMBPUEfDMYuKVxtyd3VZHaRPlC_Lg8OSIwScyo-tZKtUQovixWKcj_Ag4DpD3tLVvlTcr4JXgnRt1TE_0XWEFn9VS8hLA4xAAczeSI4SPHRVq130BeeneVwJYcOMq6_fR9yeGIBWn2Y3OLRkIwG8eH3jbBI5U0C_olm1QGkAmIcSp0L-bk7L6NZaf3SF2_Cqf_aedlM0yEAVnKzABJgqa5FeN3ahv3XK-jT7BiOD45DRhCmQ5sT_lmeNs4-dOncxylfLpPRVimMEgy4e04KlD2ICmLARYGob4QxfbQhiICnhk5qGkSf3Irx0gdvRdRMekoEINJmJQeW3cpfn8fIxPz7MFD1tmsnIUwiyt4G1vbGTYxyJdunlKz3eHzh4MGgD8vSXbRgTG-uMcPjRCgOCWo741ImPOgsAlK9lFgg0THWI8XzrEfzi1VjQK2hxRuGeaB0boING1o6kVAY8DL_IeV9XUB11ivd6lpWBF-Q7eEL454Biuk9xjGHeiT8EjhvTMvAZ1uSvYmrVMw2J1QQhOZgW4NZHLvHqPsIf0M2ZEd4mdXXZ1CHW3UQXOwUmuLIuHaTL-lnawhbyAbFcA0PNB2diwb55efWicbU9vxj_PHivyuPAe3d4P6EmOxjQHeC5vep3IlXxG1XArc_i299EbI85VqoamjC2qJexUgQNTvM-PssoQDCxq5wRWL7kBTCys6yJvdd0u1lc-Xza6-RwMEWWffS5TunxjL-r72JrVVIe4YTMNWRI0Tt_kbtzVuV]--></g></svg>