<?xml version="1.0" encoding="us-ascii" standalone="no"?><svg xmlns="http://www.w3.org/2000/svg" xmlns:xlink="http://www.w3.org/1999/xlink" contentStyleType="text/css" height="1224px" preserveAspectRatio="none" style="width:1668px;height:1224px;background:#FFFFFF;" version="1.1" viewBox="0 0 1668 1224" width="1668.8px" zoomAndPan="magnify"><defs/><g><rect fill="#FFFFFF" height="24" style="stroke:#181818;stroke-width:0.8000000000000002;" width="8" x="159.6" y="90.2391"/><rect fill="#FFFFFF" height="1005.3563" style="stroke:#181818;stroke-width:0.8000000000000002;" width="8" x="159.6" y="140.0875"/><rect fill="#FFFFFF" height="24" style="stroke:#181818;stroke-width:0.8000000000000002;" width="8" x="266.8" y="168.3359"/><rect fill="#FFFFFF" height="24" style="stroke:#181818;stroke-width:0.8000000000000002;" width="8" x="266.8" y="686.7109"/><rect fill="#FFFFFF" height="24" style="stroke:#181818;stroke-width:0.8000000000000002;" width="8" x="346.8" y="391.675"/><rect fill="#FFFFFF" height="23.4484" style="stroke:#181818;stroke-width:0.8000000000000002;" width="8" x="346.8" y="493.2203"/><rect fill="#FFFFFF" height="24" style="stroke:#181818;stroke-width:0.8000000000000002;" width="8" x="346.8" y="918.3258"/><rect fill="#FFFFFF" height="24" style="stroke:#181818;stroke-width:0.8000000000000002;" width="8" x="346.8" y="1071.5953"/><rect fill="#FFFFFF" height="24" style="stroke:#181818;stroke-width:0.8000000000000002;" width="8" x="346.8" y="1121.4438"/><rect fill="#FFFFFF" height="25.8484" style="stroke:#181818;stroke-width:0.8000000000000002;" width="8" x="430.4" y="220.5844"/><rect fill="#FFFFFF" height="95.9453" style="stroke:#181818;stroke-width:0.8000000000000002;" width="8" x="567.6" y="269.8813"/><rect fill="#FFFFFF" height="24" style="stroke:#181818;stroke-width:0.8000000000000002;" width="8" x="730" y="312.7781"/><rect fill="#FFFFFF" height="70.8969" style="stroke:#181818;stroke-width:0.8000000000000002;" width="8" x="893.2" y="540.1172"/><rect fill="#FFFFFF" height="24" style="stroke:#181818;stroke-width:0.8000000000000002;" width="8" x="1057.2" y="563.5656"/><rect fill="#FFFFFF" height="24" style="stroke:#181818;stroke-width:0.8000000000000002;" width="8" x="1153.6" y="636.8625"/><rect fill="#FFFFFF" height="146.5938" style="stroke:#181818;stroke-width:0.8000000000000002;" width="8" x="1153.6" y="734.1594"/><rect fill="#FFFFFF" height="24" style="stroke:#181818;stroke-width:0.8000000000000002;" width="8" x="1296" y="757.6078"/><rect fill="#FFFFFF" height="75.6969" style="stroke:#181818;stroke-width:0.8000000000000002;" width="8" x="1296" y="805.0563"/><rect fill="#FFFFFF" height="24" style="stroke:#181818;stroke-width:0.8000000000000002;" width="8" x="1424.8" y="828.5047"/><rect fill="#FFFFFF" height="24" style="stroke:#181818;stroke-width:0.8000000000000002;" width="8" x="1506.8" y="974.2984"/><rect fill="#FFFFFF" height="24" style="stroke:#181818;stroke-width:0.8000000000000002;" width="8" x="1614" y="1021.7469"/><rect fill="none" height="61.2969" style="stroke:#000000;stroke-width:1.2000000000000002;" width="332.8" x="475.2" y="281.8813"/><line style="stroke:#181818;stroke-width:0.4000000000000001;stroke-dasharray:5.0,5.0;" x1="29.6" x2="29.6" y1="65.1906" y2="1159.8438"/><line style="stroke:#181818;stroke-width:0.4000000000000001;stroke-dasharray:5.0,5.0;" x1="163.2" x2="163.2" y1="65.1906" y2="1159.8438"/><line style="stroke:#181818;stroke-width:0.4000000000000001;stroke-dasharray:5.0,5.0;" x1="270.4" x2="270.4" y1="65.1906" y2="1159.8438"/><line style="stroke:#181818;stroke-width:0.4000000000000001;stroke-dasharray:5.0,5.0;" x1="350.4" x2="350.4" y1="65.1906" y2="1159.8438"/><line style="stroke:#181818;stroke-width:0.4000000000000001;stroke-dasharray:5.0,5.0;" x1="434.4" x2="434.4" y1="65.1906" y2="1159.8438"/><line style="stroke:#181818;stroke-width:0.4000000000000001;stroke-dasharray:5.0,5.0;" x1="571.2" x2="571.2" y1="65.1906" y2="1159.8438"/><line style="stroke:#181818;stroke-width:0.4000000000000001;stroke-dasharray:5.0,5.0;" x1="733.6" x2="733.6" y1="65.1906" y2="1159.8438"/><line style="stroke:#181818;stroke-width:0.4000000000000001;stroke-dasharray:5.0,5.0;" x1="896.8" x2="896.8" y1="65.1906" y2="1159.8438"/><line style="stroke:#181818;stroke-width:0.4000000000000001;stroke-dasharray:5.0,5.0;" x1="1060.8" x2="1060.8" y1="65.1906" y2="1159.8438"/><line style="stroke:#181818;stroke-width:0.4000000000000001;stroke-dasharray:5.0,5.0;" x1="1157.6" x2="1157.6" y1="65.1906" y2="1159.8438"/><line style="stroke:#181818;stroke-width:0.4000000000000001;stroke-dasharray:5.0,5.0;" x1="1300" x2="1300" y1="65.1906" y2="1159.8438"/><line style="stroke:#181818;stroke-width:0.4000000000000001;stroke-dasharray:5.0,5.0;" x1="1428.8" x2="1428.8" y1="65.1906" y2="1159.8438"/><line style="stroke:#181818;stroke-width:0.4000000000000001;stroke-dasharray:5.0,5.0;" x1="1510.4" x2="1510.4" y1="65.1906" y2="1159.8438"/><line style="stroke:#181818;stroke-width:0.4000000000000001;stroke-dasharray:5.0,5.0;" x1="1617.6" x2="1617.6" y1="65.1906" y2="1159.8438"/><text fill="#000000" font-family="sans-serif" font-size="11.2" lengthAdjust="spacing" textLength="47.2" x="4" y="62.8281">SBServer</text><ellipse cx="30" cy="10.8" fill="#E2E2F0" rx="6.4" ry="6.4" style="stroke:#181818;stroke-width:0.4000000000000001;"/><path d="M30,17.2 L30,38.8 M19.6,23.6 L40.4,23.6 M30,38.8 L19.6,50.8 M30,38.8 L40.4,50.8 " fill="none" style="stroke:#181818;stroke-width:0.4000000000000001;"/><text fill="#000000" font-family="sans-serif" font-size="11.2" lengthAdjust="spacing" textLength="47.2" x="4" y="1169.8719">SBServer</text><ellipse cx="30" cy="1179.0344" fill="#E2E2F0" rx="6.4" ry="6.4" style="stroke:#181818;stroke-width:0.4000000000000001;"/><path d="M30,1185.4344 L30,1207.0344 M19.6,1191.8344 L40.4,1191.8344 M30,1207.0344 L19.6,1219.0344 M30,1207.0344 L40.4,1219.0344 " fill="none" style="stroke:#181818;stroke-width:0.4000000000000001;"/><rect fill="#E2E2F0" height="24.3906" rx="2" ry="2" style="stroke:#181818;stroke-width:0.4000000000000001;" width="124" x="101.6" y="40"/><text fill="#000000" font-family="sans-serif" font-size="11.2" lengthAdjust="spacing" textLength="112.8" x="107.2" y="56.4281">UpdatePostItHandler</text><rect fill="#E2E2F0" height="24.3906" rx="2" ry="2" style="stroke:#181818;stroke-width:0.4000000000000001;" width="124" x="101.6" y="1159.0438"/><text fill="#000000" font-family="sans-serif" font-size="11.2" lengthAdjust="spacing" textLength="112.8" x="107.2" y="1175.4719">UpdatePostItHandler</text><rect fill="#E2E2F0" height="24.3906" rx="2" ry="2" style="stroke:#181818;stroke-width:0.4000000000000001;" width="74.4" x="233.6" y="40"/><text fill="#000000" font-family="sans-serif" font-size="11.2" lengthAdjust="spacing" textLength="63.2" x="239.2" y="56.4281">SystemUser</text><rect fill="#E2E2F0" height="24.3906" rx="2" ry="2" style="stroke:#181818;stroke-width:0.4000000000000001;" width="74.4" x="233.6" y="1159.0438"/><text fill="#000000" font-family="sans-serif" font-size="11.2" lengthAdjust="spacing" textLength="63.2" x="239.2" y="1175.4719">SystemUser</text><rect fill="#E2E2F0" height="24.3906" rx="2" ry="2" style="stroke:#181818;stroke-width:0.4000000000000001;" width="69.6" x="316" y="40"/><text fill="#000000" font-family="sans-serif" font-size="11.2" lengthAdjust="spacing" textLength="58.4" x="321.6" y="56.4281">SBProtocol</text><rect fill="#E2E2F0" height="24.3906" rx="2" ry="2" style="stroke:#181818;stroke-width:0.4000000000000001;" width="69.6" x="316" y="1159.0438"/><text fill="#000000" font-family="sans-serif" font-size="11.2" lengthAdjust="spacing" textLength="58.4" x="321.6" y="1175.4719">SBProtocol</text><rect fill="#E2E2F0" height="24.3906" rx="2" ry="2" style="stroke:#181818;stroke-width:0.4000000000000001;" width="81.6" x="393.6" y="40"/><text fill="#000000" font-family="sans-serif" font-size="11.2" lengthAdjust="spacing" textLength="70.4" x="399.2" y="56.4281">BoardService</text><rect fill="#E2E2F0" height="24.3906" rx="2" ry="2" style="stroke:#181818;stroke-width:0.4000000000000001;" width="81.6" x="393.6" y="1159.0438"/><text fill="#000000" font-family="sans-serif" font-size="11.2" lengthAdjust="spacing" textLength="70.4" x="399.2" y="1175.4719">BoardService</text><rect fill="#E2E2F0" height="24.3906" rx="2" ry="2" style="stroke:#181818;stroke-width:0.4000000000000001;" width="176.8" x="483.2" y="40"/><text fill="#000000" font-family="sans-serif" font-size="11.2" lengthAdjust="spacing" textLength="165.6" x="488.8" y="56.4281">BoardWriteAccessDTOEncoder</text><rect fill="#E2E2F0" height="24.3906" rx="2" ry="2" style="stroke:#181818;stroke-width:0.4000000000000001;" width="176.8" x="483.2" y="1159.0438"/><text fill="#000000" font-family="sans-serif" font-size="11.2" lengthAdjust="spacing" textLength="165.6" x="488.8" y="1175.4719">BoardWriteAccessDTOEncoder</text><rect fill="#E2E2F0" height="24.3906" rx="2" ry="2" style="stroke:#181818;stroke-width:0.4000000000000001;" width="132" x="668" y="40"/><text fill="#000000" font-family="sans-serif" font-size="11.2" lengthAdjust="spacing" textLength="120.8" x="673.6" y="56.4281">BoardWriteAccessDTO</text><rect fill="#E2E2F0" height="24.3906" rx="2" ry="2" style="stroke:#181818;stroke-width:0.4000000000000001;" width="132" x="668" y="1159.0438"/><text fill="#000000" font-family="sans-serif" font-size="11.2" lengthAdjust="spacing" textLength="120.8" x="673.6" y="1175.4719">BoardWriteAccessDTO</text><rect fill="#E2E2F0" height="24.3906" rx="2" ry="2" style="stroke:#181818;stroke-width:0.4000000000000001;" width="178.4" x="808" y="40"/><text fill="#000000" font-family="sans-serif" font-size="11.2" lengthAdjust="spacing" textLength="167.2" x="813.6" y="56.4281">BoardRowColDataDTOEncoder</text><rect fill="#E2E2F0" height="24.3906" rx="2" ry="2" style="stroke:#181818;stroke-width:0.4000000000000001;" width="178.4" x="808" y="1159.0438"/><text fill="#000000" font-family="sans-serif" font-size="11.2" lengthAdjust="spacing" textLength="167.2" x="813.6" y="1175.4719">BoardRowColDataDTOEncoder</text><rect fill="#E2E2F0" height="24.3906" rx="2" ry="2" style="stroke:#181818;stroke-width:0.4000000000000001;" width="133.6" x="994.4" y="40"/><text fill="#000000" font-family="sans-serif" font-size="11.2" lengthAdjust="spacing" textLength="122.4" x="1000" y="56.4281">BoardRowColDataDTO</text><rect fill="#E2E2F0" height="24.3906" rx="2" ry="2" style="stroke:#181818;stroke-width:0.4000000000000001;" width="133.6" x="994.4" y="1159.0438"/><text fill="#000000" font-family="sans-serif" font-size="11.2" lengthAdjust="spacing" textLength="122.4" x="1000" y="1175.4719">BoardRowColDataDTO</text><rect fill="#E2E2F0" height="24.3906" rx="2" ry="2" style="stroke:#181818;stroke-width:0.4000000000000001;" width="43.2" x="1136" y="40"/><text fill="#000000" font-family="sans-serif" font-size="11.2" lengthAdjust="spacing" textLength="32" x="1141.6" y="56.4281">Board</text><rect fill="#E2E2F0" height="24.3906" rx="2" ry="2" style="stroke:#181818;stroke-width:0.4000000000000001;" width="43.2" x="1136" y="1159.0438"/><text fill="#000000" font-family="sans-serif" font-size="11.2" lengthAdjust="spacing" textLength="32" x="1141.6" y="1175.4719">Board</text><rect fill="#E2E2F0" height="24.3906" rx="2" ry="2" style="stroke:#181818;stroke-width:0.4000000000000001;" width="32" x="1284" y="40"/><text fill="#000000" font-family="sans-serif" font-size="11.2" lengthAdjust="spacing" textLength="20.8" x="1289.6" y="56.4281">Cell</text><rect fill="#E2E2F0" height="24.3906" rx="2" ry="2" style="stroke:#181818;stroke-width:0.4000000000000001;" width="32" x="1284" y="1159.0438"/><text fill="#000000" font-family="sans-serif" font-size="11.2" lengthAdjust="spacing" textLength="20.8" x="1289.6" y="1175.4719">Cell</text><rect fill="#E2E2F0" height="24.3906" rx="2" ry="2" style="stroke:#181818;stroke-width:0.4000000000000001;" width="41.6" x="1408" y="40"/><text fill="#000000" font-family="sans-serif" font-size="11.2" lengthAdjust="spacing" textLength="30.4" x="1413.6" y="56.4281">PostIt</text><rect fill="#E2E2F0" height="24.3906" rx="2" ry="2" style="stroke:#181818;stroke-width:0.4000000000000001;" width="41.6" x="1408" y="1159.0438"/><text fill="#000000" font-family="sans-serif" font-size="11.2" lengthAdjust="spacing" textLength="30.4" x="1413.6" y="1175.4719">PostIt</text><rect fill="#E2E2F0" height="24.3906" rx="2" ry="2" style="stroke:#181818;stroke-width:0.4000000000000001;" width="106.4" x="1457.6" y="40"/><text fill="#000000" font-family="sans-serif" font-size="11.2" lengthAdjust="spacing" textLength="95.2" x="1463.2" y="56.4281">NewChangeEvent</text><rect fill="#E2E2F0" height="24.3906" rx="2" ry="2" style="stroke:#181818;stroke-width:0.4000000000000001;" width="106.4" x="1457.6" y="1159.0438"/><text fill="#000000" font-family="sans-serif" font-size="11.2" lengthAdjust="spacing" textLength="95.2" x="1463.2" y="1175.4719">NewChangeEvent</text><rect fill="#E2E2F0" height="24.3906" rx="2" ry="2" style="stroke:#181818;stroke-width:0.4000000000000001;" width="92" x="1572" y="40"/><text fill="#000000" font-family="sans-serif" font-size="11.2" lengthAdjust="spacing" textLength="80.8" x="1577.6" y="56.4281">EventPublisher</text><rect fill="#E2E2F0" height="24.3906" rx="2" ry="2" style="stroke:#181818;stroke-width:0.4000000000000001;" width="92" x="1572" y="1159.0438"/><text fill="#000000" font-family="sans-serif" font-size="11.2" lengthAdjust="spacing" textLength="80.8" x="1577.6" y="1175.4719">EventPublisher</text><rect fill="#FFFFFF" height="24" style="stroke:#181818;stroke-width:0.8000000000000002;" width="8" x="159.6" y="90.2391"/><rect fill="#FFFFFF" height="1005.3563" style="stroke:#181818;stroke-width:0.8000000000000002;" width="8" x="159.6" y="140.0875"/><rect fill="#FFFFFF" height="24" style="stroke:#181818;stroke-width:0.8000000000000002;" width="8" x="266.8" y="168.3359"/><rect fill="#FFFFFF" height="24" style="stroke:#181818;stroke-width:0.8000000000000002;" width="8" x="266.8" y="686.7109"/><rect fill="#FFFFFF" height="24" style="stroke:#181818;stroke-width:0.8000000000000002;" width="8" x="346.8" y="391.675"/><rect fill="#FFFFFF" height="23.4484" style="stroke:#181818;stroke-width:0.8000000000000002;" width="8" x="346.8" y="493.2203"/><rect fill="#FFFFFF" height="24" style="stroke:#181818;stroke-width:0.8000000000000002;" width="8" x="346.8" y="918.3258"/><rect fill="#FFFFFF" height="24" style="stroke:#181818;stroke-width:0.8000000000000002;" width="8" x="346.8" y="1071.5953"/><rect fill="#FFFFFF" height="24" style="stroke:#181818;stroke-width:0.8000000000000002;" width="8" x="346.8" y="1121.4438"/><rect fill="#FFFFFF" height="25.8484" style="stroke:#181818;stroke-width:0.8000000000000002;" width="8" x="430.4" y="220.5844"/><rect fill="#FFFFFF" height="95.9453" style="stroke:#181818;stroke-width:0.8000000000000002;" width="8" x="567.6" y="269.8813"/><rect fill="#FFFFFF" height="24" style="stroke:#181818;stroke-width:0.8000000000000002;" width="8" x="730" y="312.7781"/><rect fill="#FFFFFF" height="70.8969" style="stroke:#181818;stroke-width:0.8000000000000002;" width="8" x="893.2" y="540.1172"/><rect fill="#FFFFFF" height="24" style="stroke:#181818;stroke-width:0.8000000000000002;" width="8" x="1057.2" y="563.5656"/><rect fill="#FFFFFF" height="24" style="stroke:#181818;stroke-width:0.8000000000000002;" width="8" x="1153.6" y="636.8625"/><rect fill="#FFFFFF" height="146.5938" style="stroke:#181818;stroke-width:0.8000000000000002;" width="8" x="1153.6" y="734.1594"/><rect fill="#FFFFFF" height="24" style="stroke:#181818;stroke-width:0.8000000000000002;" width="8" x="1296" y="757.6078"/><rect fill="#FFFFFF" height="75.6969" style="stroke:#181818;stroke-width:0.8000000000000002;" width="8" x="1296" y="805.0563"/><rect fill="#FFFFFF" height="24" style="stroke:#181818;stroke-width:0.8000000000000002;" width="8" x="1424.8" y="828.5047"/><rect fill="#FFFFFF" height="24" style="stroke:#181818;stroke-width:0.8000000000000002;" width="8" x="1506.8" y="974.2984"/><rect fill="#FFFFFF" height="24" style="stroke:#181818;stroke-width:0.8000000000000002;" width="8" x="1614" y="1021.7469"/><polygon fill="#181818" points="150,87.0391,158,90.2391,150,93.4391,153.2,90.2391" style="stroke:#181818;stroke-width:0.8000000000000002;"/><line style="stroke:#181818;stroke-width:0.8000000000000002;stroke-dasharray:2.0,2.0;" x1="30" x2="154.8" y1="90.2391" y2="90.2391"/><text fill="#000000" font-family="sans-serif" font-size="10.4" lengthAdjust="spacing" textLength="114.4" x="35.6" y="86.4453">create(socket, request)</text><polygon fill="#181818" points="150,136.8875,158,140.0875,150,143.2875,153.2,140.0875" style="stroke:#181818;stroke-width:0.8000000000000002;"/><line style="stroke:#181818;stroke-width:0.8000000000000002;" x1="30" x2="154.8" y1="140.0875" y2="140.0875"/><text fill="#000000" font-family="sans-serif" font-size="10.4" lengthAdjust="spacing" textLength="23.2" x="35.6" y="136.2938">run()</text><path d="M171.2,124.6391 L171.2,144.6391 L376.8,144.6391 L376.8,132.6391 L368.8,124.6391 L171.2,124.6391 " fill="#FEFFDD" style="stroke:#181818;stroke-width:0.4000000000000001;"/><path d="M368.8,124.6391 L368.8,132.6391 L376.8,132.6391 L368.8,124.6391 " fill="#FEFFDD" style="stroke:#181818;stroke-width:0.4000000000000001;"/><text fill="#000000" font-family="sans-serif" font-size="10.4" lengthAdjust="spacing" textLength="188.8" x="176" y="138.6938">establish socket input/output stream</text><polygon fill="#181818" points="257.2,165.1359,265.2,168.3359,257.2,171.5359,260.4,168.3359" style="stroke:#181818;stroke-width:0.8000000000000002;"/><line style="stroke:#181818;stroke-width:0.8000000000000002;stroke-dasharray:2.0,2.0;" x1="167.6" x2="262" y1="168.3359" y2="168.3359"/><text fill="#000000" font-family="sans-serif" font-size="10.4" lengthAdjust="spacing" textLength="22.4" x="173.2" y="164.5422">get()</text><path d="M278.4,152.8875 L278.4,172.8875 L525.6,172.8875 L525.6,160.8875 L517.6,152.8875 L278.4,152.8875 " fill="#FEFFDD" style="stroke:#181818;stroke-width:0.4000000000000001;"/><path d="M517.6,152.8875 L517.6,160.8875 L525.6,160.8875 L517.6,152.8875 " fill="#FEFFDD" style="stroke:#181818;stroke-width:0.4000000000000001;"/><text fill="#000000" font-family="sans-serif" font-size="10.4" lengthAdjust="spacing" textLength="230.4" x="283.2" y="166.9422">user obtained via SBServerApp and auth token</text><polygon fill="#181818" points="420.8,217.3844,428.8,220.5844,420.8,223.7844,424,220.5844" style="stroke:#181818;stroke-width:0.8000000000000002;"/><line style="stroke:#181818;stroke-width:0.8000000000000002;stroke-dasharray:2.0,2.0;" x1="167.6" x2="425.6" y1="220.5844" y2="220.5844"/><text fill="#000000" font-family="sans-serif" font-size="10.4" lengthAdjust="spacing" textLength="146.4" x="173.2" y="216.7906">boardsUserCanWrite(sys_usr)</text><path d="M442.4,205.1359 L442.4,225.1359 L658.4,225.1359 L658.4,213.1359 L650.4,205.1359 L442.4,205.1359 " fill="#FEFFDD" style="stroke:#181818;stroke-width:0.4000000000000001;"/><path d="M650.4,205.1359 L650.4,213.1359 L658.4,213.1359 L650.4,205.1359 " fill="#FEFFDD" style="stroke:#181818;stroke-width:0.4000000000000001;"/><text fill="#000000" font-family="sans-serif" font-size="10.4" lengthAdjust="spacing" textLength="199.2" x="447.2" y="219.1906">same process as US_3006 and US_3008</text><polygon fill="#181818" points="176.4,243.2328,168.4,246.4328,176.4,249.6328,173.2,246.4328" style="stroke:#181818;stroke-width:0.8000000000000002;"/><line style="stroke:#181818;stroke-width:0.8000000000000002;stroke-dasharray:2.0,2.0;" x1="171.6" x2="433.6" y1="246.4328" y2="246.4328"/><text fill="#000000" font-family="sans-serif" font-size="10.4" lengthAdjust="spacing" textLength="34.4" x="181.2" y="242.6391">boards</text><polygon fill="#181818" points="558,266.6813,566,269.8813,558,273.0813,561.2,269.8813" style="stroke:#181818;stroke-width:0.8000000000000002;"/><line style="stroke:#181818;stroke-width:0.8000000000000002;stroke-dasharray:2.0,2.0;" x1="167.6" x2="562.8" y1="269.8813" y2="269.8813"/><text fill="#000000" font-family="sans-serif" font-size="10.4" lengthAdjust="spacing" textLength="76.8" x="173.2" y="266.0875">encode(boards)</text><path d="M475.2,281.8813 L534.4,281.8813 L534.4,287.7297 L526.4,295.7297 L475.2,295.7297 L475.2,281.8813 " fill="#EEEEEE" style="stroke:#000000;stroke-width:1.2000000000000002;"/><rect fill="none" height="61.2969" style="stroke:#000000;stroke-width:1.2000000000000002;" width="332.8" x="475.2" y="281.8813"/><text fill="#000000" font-family="sans-serif" font-size="10.4" font-weight="bold" lengthAdjust="spacing" textLength="23.2" x="487.2" y="292.7359">loop</text><text fill="#000000" font-family="sans-serif" font-size="8.8" font-weight="bold" lengthAdjust="spacing" textLength="117.6" x="546.4" y="291.9891">[for each board in boards]</text><polygon fill="#181818" points="720.4,309.5781,728.4,312.7781,720.4,315.9781,723.6,312.7781" style="stroke:#181818;stroke-width:0.8000000000000002;"/><line style="stroke:#181818;stroke-width:0.8000000000000002;stroke-dasharray:2.0,2.0;" x1="575.6" x2="725.2" y1="312.7781" y2="312.7781"/><text fill="#000000" font-family="sans-serif" font-size="10.4" lengthAdjust="spacing" textLength="36.8" x="581.2" y="308.9844">create()</text><polygon fill="#181818" points="176.4,362.6266,168.4,365.8266,176.4,369.0266,173.2,365.8266" style="stroke:#181818;stroke-width:0.8000000000000002;"/><line style="stroke:#181818;stroke-width:0.8000000000000002;stroke-dasharray:2.0,2.0;" x1="171.6" x2="570.8" y1="365.8266" y2="365.8266"/><text fill="#000000" font-family="sans-serif" font-size="10.4" lengthAdjust="spacing" textLength="88.8" x="181.2" y="362.0328">encodedBoardList</text><polygon fill="#181818" points="337.2,388.475,345.2,391.675,337.2,394.875,340.4,391.675" style="stroke:#181818;stroke-width:0.8000000000000002;"/><line style="stroke:#181818;stroke-width:0.8000000000000002;stroke-dasharray:2.0,2.0;" x1="167.6" x2="342" y1="391.675" y2="391.675"/><text fill="#000000" font-family="sans-serif" font-size="10.4" lengthAdjust="spacing" textLength="36.8" x="173.2" y="387.8813">create()</text><path d="M358.4,376.2266 L358.4,396.2266 L508.8,396.2266 L508.8,384.2266 L500.8,376.2266 L358.4,376.2266 " fill="#FEFFDD" style="stroke:#181818;stroke-width:0.4000000000000001;"/><path d="M500.8,376.2266 L500.8,384.2266 L508.8,384.2266 L500.8,376.2266 " fill="#FEFFDD" style="stroke:#181818;stroke-width:0.4000000000000001;"/><text fill="#000000" font-family="sans-serif" font-size="10.4" lengthAdjust="spacing" textLength="133.6" x="363.2" y="390.2813">content: encodedBoardList</text><polygon fill="#181818" points="341.2,438.3234,349.2,441.5234,341.2,444.7234,344.4,441.5234" style="stroke:#181818;stroke-width:0.8000000000000002;"/><line style="stroke:#181818;stroke-width:0.8000000000000002;stroke-dasharray:2.0,2.0;" x1="167.6" x2="346" y1="441.5234" y2="441.5234"/><text fill="#000000" font-family="sans-serif" font-size="10.4" lengthAdjust="spacing" textLength="52.8" x="173.2" y="437.7297">send(outS)</text><path d="M171.2,451.9234 L171.2,471.9234 L273.6,471.9234 L273.6,459.9234 L265.6,451.9234 L171.2,451.9234 " fill="#FEFFDD" style="stroke:#181818;stroke-width:0.4000000000000001;"/><path d="M265.6,451.9234 L265.6,459.9234 L273.6,459.9234 L265.6,451.9234 " fill="#FEFFDD" style="stroke:#181818;stroke-width:0.4000000000000001;"/><text fill="#000000" font-family="sans-serif" font-size="10.4" lengthAdjust="spacing" textLength="85.6" x="176" y="465.9781">await client reply</text><polygon fill="#181818" points="337.2,490.0203,345.2,493.2203,337.2,496.4203,340.4,493.2203" style="stroke:#181818;stroke-width:0.8000000000000002;"/><line style="stroke:#181818;stroke-width:0.8000000000000002;stroke-dasharray:2.0,2.0;" x1="167.6" x2="342" y1="493.2203" y2="493.2203"/><text fill="#000000" font-family="sans-serif" font-size="10.4" lengthAdjust="spacing" textLength="52" x="173.2" y="489.4266">create(inS)</text><polygon fill="#181818" points="176.4,513.4688,168.4,516.6688,176.4,519.8688,173.2,516.6688" style="stroke:#181818;stroke-width:0.8000000000000002;"/><line style="stroke:#181818;stroke-width:0.8000000000000002;stroke-dasharray:2.0,2.0;" x1="171.6" x2="350" y1="516.6688" y2="516.6688"/><text fill="#000000" font-family="sans-serif" font-size="10.4" lengthAdjust="spacing" textLength="24.8" x="181.2" y="512.875">reply</text><polygon fill="#181818" points="883.6,536.9172,891.6,540.1172,883.6,543.3172,886.8,540.1172" style="stroke:#181818;stroke-width:0.8000000000000002;"/><line style="stroke:#181818;stroke-width:0.8000000000000002;stroke-dasharray:2.0,2.0;" x1="167.6" x2="888.4" y1="540.1172" y2="540.1172"/><text fill="#000000" font-family="sans-serif" font-size="10.4" lengthAdjust="spacing" textLength="181.6" x="173.2" y="536.3234">decode(request.getContentAsString)</text><polygon fill="#181818" points="1047.6,560.3656,1055.6,563.5656,1047.6,566.7656,1050.8,563.5656" style="stroke:#181818;stroke-width:0.8000000000000002;"/><line style="stroke:#181818;stroke-width:0.8000000000000002;stroke-dasharray:2.0,2.0;" x1="901.2" x2="1052.4" y1="563.5656" y2="563.5656"/><text fill="#000000" font-family="sans-serif" font-size="10.4" lengthAdjust="spacing" textLength="30.4" x="906.8" y="559.7719">create</text><polygon fill="#181818" points="176.4,607.8141,168.4,611.0141,176.4,614.2141,173.2,611.0141" style="stroke:#181818;stroke-width:0.8000000000000002;"/><line style="stroke:#181818;stroke-width:0.8000000000000002;stroke-dasharray:2.0,2.0;" x1="171.6" x2="896.4" y1="611.0141" y2="611.0141"/><text fill="#000000" font-family="sans-serif" font-size="10.4" lengthAdjust="spacing" textLength="16.8" x="181.2" y="607.2203">dto</text><polygon fill="#181818" points="1144,633.6625,1152,636.8625,1144,640.0625,1147.2,636.8625" style="stroke:#181818;stroke-width:0.8000000000000002;"/><line style="stroke:#181818;stroke-width:0.8000000000000002;stroke-dasharray:2.0,2.0;" x1="167.6" x2="1148.8" y1="636.8625" y2="636.8625"/><text fill="#000000" font-family="sans-serif" font-size="10.4" lengthAdjust="spacing" textLength="22.4" x="173.2" y="633.0688">get()</text><path d="M1165.6,621.4141 L1165.6,641.4141 L1340.8,641.4141 L1340.8,629.4141 L1332.8,621.4141 L1165.6,621.4141 " fill="#FEFFDD" style="stroke:#181818;stroke-width:0.4000000000000001;"/><path d="M1332.8,621.4141 L1332.8,629.4141 L1340.8,629.4141 L1332.8,621.4141 " fill="#FEFFDD" style="stroke:#181818;stroke-width:0.4000000000000001;"/><text fill="#000000" font-family="sans-serif" font-size="10.4" lengthAdjust="spacing" textLength="158.4" x="1170.4" y="635.4688">board obtained via SBServerApp</text><polygon fill="#181818" points="257.2,683.5109,265.2,686.7109,257.2,689.9109,260.4,686.7109" style="stroke:#181818;stroke-width:0.8000000000000002;"/><line style="stroke:#181818;stroke-width:0.8000000000000002;stroke-dasharray:2.0,2.0;" x1="167.6" x2="262" y1="686.7109" y2="686.7109"/><text fill="#000000" font-family="sans-serif" font-size="10.4" lengthAdjust="spacing" textLength="69.6" x="173.2" y="682.9172">get(dto.name)</text><polygon fill="#181818" points="1144,730.9594,1152,734.1594,1144,737.3594,1147.2,734.1594" style="stroke:#181818;stroke-width:0.8000000000000002;"/><line style="stroke:#181818;stroke-width:0.8000000000000002;stroke-dasharray:2.0,2.0;" x1="167.6" x2="1148.8" y1="734.1594" y2="734.1594"/><text fill="#000000" font-family="sans-serif" font-size="10.4" lengthAdjust="spacing" textLength="225.6" x="173.2" y="730.3656">updatePostIt(dto.row, dto.col, dto.data, user)</text><polygon fill="#181818" points="1286.4,754.4078,1294.4,757.6078,1286.4,760.8078,1289.6,757.6078" style="stroke:#181818;stroke-width:0.8000000000000002;"/><line style="stroke:#181818;stroke-width:0.8000000000000002;stroke-dasharray:2.0,2.0;" x1="1161.6" x2="1291.2" y1="757.6078" y2="757.6078"/><text fill="#000000" font-family="sans-serif" font-size="10.4" lengthAdjust="spacing" textLength="62.4" x="1167.2" y="753.8141">get(row, col)</text><polygon fill="#181818" points="1286.4,801.8563,1294.4,805.0563,1286.4,808.2563,1289.6,805.0563" style="stroke:#181818;stroke-width:0.8000000000000002;"/><line style="stroke:#181818;stroke-width:0.8000000000000002;stroke-dasharray:2.0,2.0;" x1="1161.6" x2="1291.2" y1="805.0563" y2="805.0563"/><text fill="#000000" font-family="sans-serif" font-size="10.4" lengthAdjust="spacing" textLength="119.2" x="1167.2" y="801.2625">updatePostIt(data, user)</text><polygon fill="#181818" points="1415.2,825.3047,1423.2,828.5047,1415.2,831.7047,1418.4,828.5047" style="stroke:#181818;stroke-width:0.8000000000000002;"/><line style="stroke:#181818;stroke-width:0.8000000000000002;stroke-dasharray:2.0,2.0;" x1="1304" x2="1420" y1="828.5047" y2="828.5047"/><text fill="#000000" font-family="sans-serif" font-size="10.4" lengthAdjust="spacing" textLength="102.4" x="1309.6" y="824.7109">alterPostItData(data)</text><line style="stroke:#181818;stroke-width:0.8000000000000002;stroke-dasharray:2.0,2.0;" x1="1304" x2="1337.6" y1="879.9531" y2="879.9531"/><line style="stroke:#181818;stroke-width:0.8000000000000002;stroke-dasharray:2.0,2.0;" x1="1337.6" x2="1337.6" y1="879.9531" y2="890.3531"/><line style="stroke:#181818;stroke-width:0.8000000000000002;stroke-dasharray:2.0,2.0;" x1="1300" x2="1337.6" y1="890.3531" y2="890.3531"/><polygon fill="#181818" points="1308,887.1531,1300,890.3531,1308,893.5531,1304.8,890.3531" style="stroke:#181818;stroke-width:0.8000000000000002;"/><text fill="#000000" font-family="sans-serif" font-size="10.4" lengthAdjust="spacing" textLength="109.6" x="1309.6" y="876.1594">addUpdateToHistory()</text><polygon fill="#181818" points="337.2,915.1258,345.2,918.3258,337.2,921.5258,340.4,918.3258" style="stroke:#181818;stroke-width:0.8000000000000002;"/><line style="stroke:#181818;stroke-width:0.8000000000000002;stroke-dasharray:2.0,2.0;" x1="167.6" x2="342" y1="918.3258" y2="918.3258"/><text fill="#000000" font-family="sans-serif" font-size="10.4" lengthAdjust="spacing" textLength="36.8" x="173.2" y="914.532">create()</text><path d="M358.4,896.7531 L358.4,928.7531 L552,928.7531 L552,904.7531 L544,896.7531 L358.4,896.7531 " fill="#FEFFDD" style="stroke:#181818;stroke-width:0.4000000000000001;"/><path d="M544,896.7531 L544,904.7531 L552,904.7531 L544,896.7531 " fill="#FEFFDD" style="stroke:#181818;stroke-width:0.4000000000000001;"/><text fill="#000000" font-family="sans-serif" font-size="10.4" lengthAdjust="spacing" textLength="116.8" x="363.2" y="910.8078">code: UPDATE_POST_IT</text><text fill="#000000" font-family="sans-serif" font-size="10.4" lengthAdjust="spacing" textLength="176.8" x="363.2" y="923.0563">content: boardName, row, col, data</text><polygon fill="#181818" points="1497.2,971.0984,1505.2,974.2984,1497.2,977.4984,1500.4,974.2984" style="stroke:#181818;stroke-width:0.8000000000000002;"/><line style="stroke:#181818;stroke-width:0.8000000000000002;stroke-dasharray:2.0,2.0;" x1="167.6" x2="1502" y1="974.2984" y2="974.2984"/><text fill="#000000" font-family="sans-serif" font-size="10.4" lengthAdjust="spacing" textLength="112.8" x="173.2" y="970.5047">create(name, protocol)</text><polygon fill="#181818" points="1604.4,1018.5469,1612.4,1021.7469,1604.4,1024.9469,1607.6,1021.7469" style="stroke:#181818;stroke-width:0.8000000000000002;"/><line style="stroke:#181818;stroke-width:0.8000000000000002;stroke-dasharray:2.0,2.0;" x1="167.6" x2="1609.2" y1="1021.7469" y2="1021.7469"/><text fill="#000000" font-family="sans-serif" font-size="10.4" lengthAdjust="spacing" textLength="71.2" x="173.2" y="1017.9531">publish(event)</text><polygon fill="#181818" points="337.2,1068.3953,345.2,1071.5953,337.2,1074.7953,340.4,1071.5953" style="stroke:#181818;stroke-width:0.8000000000000002;"/><line style="stroke:#181818;stroke-width:0.8000000000000002;stroke-dasharray:2.0,2.0;" x1="167.6" x2="342" y1="1071.5953" y2="1071.5953"/><text fill="#000000" font-family="sans-serif" font-size="10.4" lengthAdjust="spacing" textLength="36.8" x="173.2" y="1067.8016">create()</text><path d="M358.4,1056.1469 L358.4,1076.1469 L426.4,1076.1469 L426.4,1064.1469 L418.4,1056.1469 L358.4,1056.1469 " fill="#FEFFDD" style="stroke:#181818;stroke-width:0.4000000000000001;"/><path d="M418.4,1056.1469 L418.4,1064.1469 L426.4,1064.1469 L418.4,1056.1469 " fill="#FEFFDD" style="stroke:#181818;stroke-width:0.4000000000000001;"/><text fill="#000000" font-family="sans-serif" font-size="10.4" lengthAdjust="spacing" textLength="51.2" x="363.2" y="1070.2016">code: ACK</text><polygon fill="#181818" points="337.2,1118.2438,345.2,1121.4438,337.2,1124.6438,340.4,1121.4438" style="stroke:#181818;stroke-width:0.8000000000000002;"/><line style="stroke:#181818;stroke-width:0.8000000000000002;stroke-dasharray:2.0,2.0;" x1="167.6" x2="342" y1="1121.4438" y2="1121.4438"/><text fill="#000000" font-family="sans-serif" font-size="10.4" lengthAdjust="spacing" textLength="52.8" x="173.2" y="1117.65">send(outS)</text><!--SRC=[hLPHQzim47xthz1Z0brN68pHXq6Q5bessZ2dx6KG55bDH5t9ayuE-VSxdMpNKfociEObIdJwxhkxxqxY0enb-LKkRICjuuuvMcLPnIqeeIgkWJrM1GUvC0xku9RheWoc0cmP6-Px1_BbqRLGUxUgNOALNosi0IDCwKsgTXsPN1bk2yz82KauZSWE3NvR1N8cX7JkUlbmeuKfWjkTXPNKujI9phG0CuB-o-pcfhpcm6FmKU38s5kDO_gTjLz4MtDPKYe4VaSR8T-K9Lp5UFToDzzolP4tZTHa8nk8B6XZKQzBvRQ1UbMliooKbttwz9tAnowPi1ABEt56F4iuOrR-hQM3QSO5g0PtGfaB6V_kWNeSM-j9UYfZ-D46VrgrsG9Q8JGdJYmuP4fNDNmsDU0NSu1aNh9mZd0zqLP7U7eZ0NtupTvF9pBMVY9ljLUYMGDNMXQiKRoN-gog62gPyHgs3Copr8Gm2BDNRyob4OXBLNHUvtEkILQJrZnbXz8TPURuY_JgzsBqnNdCLrykBhuIfx3-rX_qFWS52yuFwFecYQYsVU2JJlgTX8C9mwvREcUbCHLxmg60qDlW2siqTDfzElpE5uh-LKxJo3JovfjZk3a88jsMc0rFACl6dBRv2D4Lr68_5NRA2AYFCCvEDtbIolsnVZIDrayO3TXWfxttC4VTEunoWWsGJm_wnJnrGV8TLy14gNoxMrcL-vFnA9sV2ga_D4Xd07zV545UXIHvjPFZ79jq7h8pSpbOfJS9ZQ7SkbeEnPCTo6QeYG4h6hCfKXj6TsHWJYA80mZw7XqiOLAF5Z-SEZPNKhS1wAsHXbpFDGw4DqRRoS7KHL8Fxce2jcPtvhDnZkKB2pJWPpGRtmmv859A_HKLg18Q8aqFYqGNs4YLwF_Zg37XXDfn1nIyHo3nusdV92L86v3yPKneHmOHNQb7fb2uRaSTjPnvKOGtqTBSOiyRknyCl3JqSJbyy3Ggv2LxN5pFbZUhnKE-NDqj_-X-Hf7BUnGONkzj_L09c9ptjda3hyGquNIMQMit1mFG_vK4MwyHhWflaudq3vKqMdogfDJyw-NZSpQR__YlYNtSuIXY-epw1m00]--></g></svg>