<?xml version="1.0" encoding="us-ascii" standalone="no"?><svg xmlns="http://www.w3.org/2000/svg" xmlns:xlink="http://www.w3.org/1999/xlink" contentStyleType="text/css" height="1397px" preserveAspectRatio="none" style="width:1518px;height:1397px;background:#FFFFFF;" version="1.1" viewBox="0 0 1518 1397" width="1518px" zoomAndPan="magnify"><defs/><g><rect fill="#FFFFFF" height="1179.0586" style="stroke:#181818;stroke-width:1.0;" width="10" x="214" y="116.9121"/><rect fill="#FFFFFF" height="250.3281" style="stroke:#181818;stroke-width:1.0;" width="10" x="418" y="148.2031"/><rect fill="#FFFFFF" height="93.873" style="stroke:#181818;stroke-width:1.0;" width="10" x="418" y="429.8223"/><rect fill="#FFFFFF" height="93.873" style="stroke:#181818;stroke-width:1.0;" width="10" x="418" y="666.1504"/><rect fill="#FFFFFF" height="123.873" style="stroke:#181818;stroke-width:1.0;" width="10" x="418" y="871.1875"/><rect fill="#FFFFFF" height="125.1641" style="stroke:#181818;stroke-width:1.0;" width="10" x="418" y="1132.5156"/><rect fill="#FFFFFF" height="93.873" style="stroke:#181818;stroke-width:1.0;" width="10" x="882.5" y="179.4941"/><rect fill="#FFFFFF" height="93.873" style="stroke:#181818;stroke-width:1.0;" width="10" x="882.5" y="304.6582"/><rect fill="#FFFFFF" height="62.582" style="stroke:#181818;stroke-width:1.0;" width="10" x="1025.5" y="210.7852"/><rect fill="#FFFFFF" height="62.582" style="stroke:#181818;stroke-width:1.0;" width="10" x="1025.5" y="335.9492"/><rect fill="#FFFFFF" height="31.291" style="stroke:#181818;stroke-width:1.0;" width="10" x="1307" y="697.4414"/><rect fill="none" height="255.6191" style="stroke:#000000;stroke-width:1.5;" width="1502.5" x="10" y="1010.0605"/><line style="stroke:#181818;stroke-width:0.5;stroke-dasharray:5.0,5.0;" x1="51" x2="51" y1="83.6211" y2="1313.9707"/><line style="stroke:#181818;stroke-width:0.5;stroke-dasharray:5.0,5.0;" x1="218.5" x2="218.5" y1="83.6211" y2="1313.9707"/><line style="stroke:#181818;stroke-width:0.5;stroke-dasharray:5.0,5.0;" x1="422.5" x2="422.5" y1="83.6211" y2="1313.9707"/><line style="stroke:#181818;stroke-width:0.5;stroke-dasharray:5.0,5.0;" x1="596.5" x2="596.5" y1="83.6211" y2="1313.9707"/><line style="stroke:#181818;stroke-width:0.5;stroke-dasharray:5.0,5.0;" x1="734.5" x2="734.5" y1="83.6211" y2="1313.9707"/><line style="stroke:#181818;stroke-width:0.5;stroke-dasharray:5.0,5.0;" x1="887.5" x2="887.5" y1="83.6211" y2="1313.9707"/><line style="stroke:#181818;stroke-width:0.5;stroke-dasharray:5.0,5.0;" x1="1030.5" x2="1030.5" y1="83.6211" y2="1313.9707"/><line style="stroke:#181818;stroke-width:0.5;stroke-dasharray:5.0,5.0;" x1="1169.5" x2="1169.5" y1="83.6211" y2="1313.9707"/><line style="stroke:#181818;stroke-width:0.5;stroke-dasharray:5.0,5.0;" x1="1311.5" x2="1311.5" y1="83.6211" y2="1313.9707"/><line style="stroke:#181818;stroke-width:0.5;stroke-dasharray:5.0,5.0;" x1="1445.5" x2="1445.5" y1="83.6211" y2="1313.9707"/><text fill="#000000" font-family="sans-serif" font-size="14" lengthAdjust="spacing" textLength="56" x="20" y="80.1074">Manager</text><ellipse cx="51" cy="13.5" fill="#E2E2F0" rx="8" ry="8" style="stroke:#181818;stroke-width:0.5;"/><path d="M51,21.5 L51,48.5 M38,29.5 L64,29.5 M51,48.5 L38,63.5 M51,48.5 L64,63.5 " fill="none" style="stroke:#181818;stroke-width:0.5;"/><text fill="#000000" font-family="sans-serif" font-size="14" lengthAdjust="spacing" textLength="56" x="20" y="1328.0781">Manager</text><ellipse cx="51" cy="1340.0918" fill="#E2E2F0" rx="8" ry="8" style="stroke:#181818;stroke-width:0.5;"/><path d="M51,1348.0918 L51,1375.0918 M38,1356.0918 L64,1356.0918 M51,1375.0918 L38,1390.0918 M51,1375.0918 L64,1390.0918 " fill="none" style="stroke:#181818;stroke-width:0.5;"/><rect fill="#E2E2F0" height="51.2422" rx="2.5" ry="2.5" style="stroke:#181818;stroke-width:0.5;" width="153" x="142.5" y="31.3789"/><text fill="#000000" font-family="sans-serif" font-size="14" font-style="italic" lengthAdjust="spacing" textLength="95" x="171.5" y="53.4863">&#171;presentation&#187;</text><text fill="#000000" font-family="sans-serif" font-size="14" lengthAdjust="spacing" textLength="139" x="149.5" y="72.1074">SetCourseTeachersUI</text><rect fill="#E2E2F0" height="51.2422" rx="2.5" ry="2.5" style="stroke:#181818;stroke-width:0.5;" width="153" x="142.5" y="1312.9707"/><text fill="#000000" font-family="sans-serif" font-size="14" font-style="italic" lengthAdjust="spacing" textLength="95" x="171.5" y="1335.0781">&#171;presentation&#187;</text><text fill="#000000" font-family="sans-serif" font-size="14" lengthAdjust="spacing" textLength="139" x="149.5" y="1353.6992">SetCourseTeachersUI</text><rect fill="#E2E2F0" height="51.2422" rx="2.5" ry="2.5" style="stroke:#181818;stroke-width:0.5;" width="203" x="321.5" y="31.3789"/><text fill="#000000" font-family="sans-serif" font-size="14" font-style="italic" lengthAdjust="spacing" textLength="84" x="381" y="53.4863">&#171;application&#187;</text><text fill="#000000" font-family="sans-serif" font-size="14" lengthAdjust="spacing" textLength="189" x="328.5" y="72.1074">SetCourseTeachersController</text><rect fill="#E2E2F0" height="51.2422" rx="2.5" ry="2.5" style="stroke:#181818;stroke-width:0.5;" width="203" x="321.5" y="1312.9707"/><text fill="#000000" font-family="sans-serif" font-size="14" font-style="italic" lengthAdjust="spacing" textLength="84" x="381" y="1335.0781">&#171;application&#187;</text><text fill="#000000" font-family="sans-serif" font-size="14" lengthAdjust="spacing" textLength="189" x="328.5" y="1353.6992">SetCourseTeachersController</text><rect fill="#E2E2F0" height="51.2422" rx="2.5" ry="2.5" style="stroke:#181818;stroke-width:0.5;" width="107" x="543.5" y="31.3789"/><text fill="#000000" font-family="sans-serif" font-size="14" font-style="italic" lengthAdjust="spacing" textLength="62" x="566" y="53.4863">&#171;domain&#187;</text><text fill="#000000" font-family="sans-serif" font-size="14" lengthAdjust="spacing" textLength="93" x="550.5" y="72.1074">course:Course</text><rect fill="#E2E2F0" height="51.2422" rx="2.5" ry="2.5" style="stroke:#181818;stroke-width:0.5;" width="107" x="543.5" y="1312.9707"/><text fill="#000000" font-family="sans-serif" font-size="14" font-style="italic" lengthAdjust="spacing" textLength="62" x="566" y="1335.0781">&#171;domain&#187;</text><text fill="#000000" font-family="sans-serif" font-size="14" lengthAdjust="spacing" textLength="93" x="550.5" y="1353.6992">course:Course</text><rect fill="#E2E2F0" height="51.2422" rx="2.5" ry="2.5" style="stroke:#181818;stroke-width:0.5;" width="149" x="660.5" y="31.3789"/><text fill="#000000" font-family="sans-serif" font-size="14" font-style="italic" lengthAdjust="spacing" textLength="62" x="704" y="53.4863">&#171;domain&#187;</text><text fill="#000000" font-family="sans-serif" font-size="14" lengthAdjust="spacing" textLength="135" x="667.5" y="72.1074">member:StaffMember</text><rect fill="#E2E2F0" height="51.2422" rx="2.5" ry="2.5" style="stroke:#181818;stroke-width:0.5;" width="149" x="660.5" y="1312.9707"/><text fill="#000000" font-family="sans-serif" font-size="14" font-style="italic" lengthAdjust="spacing" textLength="62" x="704" y="1335.0781">&#171;domain&#187;</text><text fill="#000000" font-family="sans-serif" font-size="14" lengthAdjust="spacing" textLength="135" x="667.5" y="1353.6992">member:StaffMember</text><rect fill="#E2E2F0" height="51.2422" rx="2.5" ry="2.5" style="stroke:#181818;stroke-width:0.5;" width="136" x="819.5" y="31.3789"/><text fill="#000000" font-family="sans-serif" font-size="14" font-style="italic" lengthAdjust="spacing" textLength="89" x="843" y="53.4863">&#171;persistence&#187;</text><text fill="#000000" font-family="sans-serif" font-size="14" lengthAdjust="spacing" textLength="122" x="826.5" y="72.1074">PersistenceContext</text><rect fill="#E2E2F0" height="51.2422" rx="2.5" ry="2.5" style="stroke:#181818;stroke-width:0.5;" width="136" x="819.5" y="1312.9707"/><text fill="#000000" font-family="sans-serif" font-size="14" font-style="italic" lengthAdjust="spacing" textLength="89" x="843" y="1335.0781">&#171;persistence&#187;</text><text fill="#000000" font-family="sans-serif" font-size="14" lengthAdjust="spacing" textLength="122" x="826.5" y="1353.6992">PersistenceContext</text><rect fill="#E2E2F0" height="51.2422" rx="2.5" ry="2.5" style="stroke:#181818;stroke-width:0.5;" width="130" x="965.5" y="31.3789"/><text fill="#000000" font-family="sans-serif" font-size="14" font-style="italic" lengthAdjust="spacing" textLength="59" x="1001" y="53.4863">&#171;factory&#187;</text><text fill="#000000" font-family="sans-serif" font-size="14" lengthAdjust="spacing" textLength="116" x="972.5" y="72.1074">RepositoryFactory</text><rect fill="#E2E2F0" height="51.2422" rx="2.5" ry="2.5" style="stroke:#181818;stroke-width:0.5;" width="130" x="965.5" y="1312.9707"/><text fill="#000000" font-family="sans-serif" font-size="14" font-style="italic" lengthAdjust="spacing" textLength="59" x="1001" y="1335.0781">&#171;factory&#187;</text><text fill="#000000" font-family="sans-serif" font-size="14" lengthAdjust="spacing" textLength="116" x="972.5" y="1353.6992">RepositoryFactory</text><rect fill="#E2E2F0" height="69.8633" rx="2.5" ry="2.5" style="stroke:#181818;stroke-width:0.5;" width="129" x="1105.5" y="12.7578"/><text fill="#000000" font-family="sans-serif" font-size="14" font-style="italic" lengthAdjust="spacing" textLength="79" x="1130.5" y="34.8652">&#171;repository&#187;</text><text fill="#000000" font-family="sans-serif" font-size="14" lengthAdjust="spacing" textLength="115" x="1112.5" y="53.4863">courseRepository:</text><text fill="#000000" font-family="sans-serif" font-size="14" lengthAdjust="spacing" textLength="114" x="1113" y="72.1074">CourseRepository</text><rect fill="#E2E2F0" height="69.8633" rx="2.5" ry="2.5" style="stroke:#181818;stroke-width:0.5;" width="129" x="1105.5" y="1312.9707"/><text fill="#000000" font-family="sans-serif" font-size="14" font-style="italic" lengthAdjust="spacing" textLength="79" x="1130.5" y="1335.0781">&#171;repository&#187;</text><text fill="#000000" font-family="sans-serif" font-size="14" lengthAdjust="spacing" textLength="115" x="1112.5" y="1353.6992">courseRepository:</text><text fill="#000000" font-family="sans-serif" font-size="14" lengthAdjust="spacing" textLength="114" x="1113" y="1372.3203">CourseRepository</text><rect fill="#E2E2F0" height="69.8633" rx="2.5" ry="2.5" style="stroke:#181818;stroke-width:0.5;" width="135" x="1244.5" y="12.7578"/><text fill="#000000" font-family="sans-serif" font-size="14" font-style="italic" lengthAdjust="spacing" textLength="79" x="1272.5" y="34.8652">&#171;repository&#187;</text><text fill="#000000" font-family="sans-serif" font-size="14" lengthAdjust="spacing" textLength="120" x="1252" y="53.4863">teacherRepository:</text><text fill="#000000" font-family="sans-serif" font-size="14" lengthAdjust="spacing" textLength="121" x="1251.5" y="72.1074">TeacherRepository</text><rect fill="#E2E2F0" height="69.8633" rx="2.5" ry="2.5" style="stroke:#181818;stroke-width:0.5;" width="135" x="1244.5" y="1312.9707"/><text fill="#000000" font-family="sans-serif" font-size="14" font-style="italic" lengthAdjust="spacing" textLength="79" x="1272.5" y="1335.0781">&#171;repository&#187;</text><text fill="#000000" font-family="sans-serif" font-size="14" lengthAdjust="spacing" textLength="120" x="1252" y="1353.6992">teacherRepository:</text><text fill="#000000" font-family="sans-serif" font-size="14" lengthAdjust="spacing" textLength="121" x="1251.5" y="1372.3203">TeacherRepository</text><rect fill="#E2E2F0" height="69.8633" rx="2.5" ry="2.5" style="stroke:#181818;stroke-width:0.5;" width="113" x="1389.5" y="12.7578"/><text fill="#000000" font-family="sans-serif" font-size="14" font-style="italic" lengthAdjust="spacing" textLength="79" x="1406.5" y="34.8652">&#171;repository&#187;</text><text fill="#000000" font-family="sans-serif" font-size="14" lengthAdjust="spacing" textLength="99" x="1396.5" y="53.4863">staffRepository:</text><text fill="#000000" font-family="sans-serif" font-size="14" lengthAdjust="spacing" textLength="97" x="1397.5" y="72.1074">StaffRepository</text><rect fill="#E2E2F0" height="69.8633" rx="2.5" ry="2.5" style="stroke:#181818;stroke-width:0.5;" width="113" x="1389.5" y="1312.9707"/><text fill="#000000" font-family="sans-serif" font-size="14" font-style="italic" lengthAdjust="spacing" textLength="79" x="1406.5" y="1335.0781">&#171;repository&#187;</text><text fill="#000000" font-family="sans-serif" font-size="14" lengthAdjust="spacing" textLength="99" x="1396.5" y="1353.6992">staffRepository:</text><text fill="#000000" font-family="sans-serif" font-size="14" lengthAdjust="spacing" textLength="97" x="1397.5" y="1372.3203">StaffRepository</text><rect fill="#FFFFFF" height="1179.0586" style="stroke:#181818;stroke-width:1.0;" width="10" x="214" y="116.9121"/><rect fill="#FFFFFF" height="250.3281" style="stroke:#181818;stroke-width:1.0;" width="10" x="418" y="148.2031"/><rect fill="#FFFFFF" height="93.873" style="stroke:#181818;stroke-width:1.0;" width="10" x="418" y="429.8223"/><rect fill="#FFFFFF" height="93.873" style="stroke:#181818;stroke-width:1.0;" width="10" x="418" y="666.1504"/><rect fill="#FFFFFF" height="123.873" style="stroke:#181818;stroke-width:1.0;" width="10" x="418" y="871.1875"/><rect fill="#FFFFFF" height="125.1641" style="stroke:#181818;stroke-width:1.0;" width="10" x="418" y="1132.5156"/><rect fill="#FFFFFF" height="93.873" style="stroke:#181818;stroke-width:1.0;" width="10" x="882.5" y="179.4941"/><rect fill="#FFFFFF" height="93.873" style="stroke:#181818;stroke-width:1.0;" width="10" x="882.5" y="304.6582"/><rect fill="#FFFFFF" height="62.582" style="stroke:#181818;stroke-width:1.0;" width="10" x="1025.5" y="210.7852"/><rect fill="#FFFFFF" height="62.582" style="stroke:#181818;stroke-width:1.0;" width="10" x="1025.5" y="335.9492"/><rect fill="#FFFFFF" height="31.291" style="stroke:#181818;stroke-width:1.0;" width="10" x="1307" y="697.4414"/><polygon fill="#181818" points="202,112.9121,212,116.9121,202,120.9121,206,116.9121" style="stroke:#181818;stroke-width:1.0;"/><line style="stroke:#181818;stroke-width:1.0;" x1="51" x2="208" y1="116.9121" y2="116.9121"/><text fill="#000000" font-family="sans-serif" font-size="13" lengthAdjust="spacing" textLength="115" x="58" y="111.6494">set course teachers</text><polygon fill="#181818" points="406,144.2031,416,148.2031,406,152.2031,410,148.2031" style="stroke:#181818;stroke-width:1.0;"/><line style="stroke:#181818;stroke-width:1.0;" x1="224" x2="412" y1="148.2031" y2="148.2031"/><text fill="#000000" font-family="sans-serif" font-size="13" lengthAdjust="spacing" textLength="36" x="231" y="142.9404">create</text><polygon fill="#181818" points="870.5,175.4941,880.5,179.4941,870.5,183.4941,874.5,179.4941" style="stroke:#181818;stroke-width:1.0;"/><line style="stroke:#181818;stroke-width:1.0;" x1="428" x2="876.5" y1="179.4941" y2="179.4941"/><text fill="#000000" font-family="sans-serif" font-size="13" lengthAdjust="spacing" textLength="75" x="435" y="174.2314">repositories()</text><polygon fill="#181818" points="1013.5,206.7852,1023.5,210.7852,1013.5,214.7852,1017.5,210.7852" style="stroke:#181818;stroke-width:1.0;"/><line style="stroke:#181818;stroke-width:1.0;" x1="892.5" x2="1019.5" y1="210.7852" y2="210.7852"/><text fill="#000000" font-family="sans-serif" font-size="13" lengthAdjust="spacing" textLength="54" x="899.5" y="205.5225">courses()</text><polygon fill="#181818" points="1158,238.0762,1168,242.0762,1158,246.0762,1162,242.0762" style="stroke:#181818;stroke-width:1.0;"/><line style="stroke:#181818;stroke-width:1.0;" x1="1035.5" x2="1164" y1="242.0762" y2="242.0762"/><text fill="#000000" font-family="sans-serif" font-size="13" lengthAdjust="spacing" textLength="36" x="1042.5" y="236.8135">create</text><polygon fill="#181818" points="439,269.3672,429,273.3672,439,277.3672,435,273.3672" style="stroke:#181818;stroke-width:1.0;"/><line style="stroke:#181818;stroke-width:1.0;stroke-dasharray:2.0,2.0;" x1="433" x2="886.5" y1="273.3672" y2="273.3672"/><text fill="#000000" font-family="sans-serif" font-size="13" lengthAdjust="spacing" textLength="101" x="445" y="268.1045">courseRepository</text><polygon fill="#181818" points="870.5,300.6582,880.5,304.6582,870.5,308.6582,874.5,304.6582" style="stroke:#181818;stroke-width:1.0;"/><line style="stroke:#181818;stroke-width:1.0;" x1="428" x2="876.5" y1="304.6582" y2="304.6582"/><text fill="#000000" font-family="sans-serif" font-size="13" lengthAdjust="spacing" textLength="75" x="435" y="299.3955">repositories()</text><polygon fill="#181818" points="1013.5,331.9492,1023.5,335.9492,1013.5,339.9492,1017.5,335.9492" style="stroke:#181818;stroke-width:1.0;"/><line style="stroke:#181818;stroke-width:1.0;" x1="892.5" x2="1019.5" y1="335.9492" y2="335.9492"/><text fill="#000000" font-family="sans-serif" font-size="13" lengthAdjust="spacing" textLength="58" x="899.5" y="330.6865">teachers()</text><polygon fill="#181818" points="1300,363.2402,1310,367.2402,1300,371.2402,1304,367.2402" style="stroke:#181818;stroke-width:1.0;"/><line style="stroke:#181818;stroke-width:1.0;" x1="1035.5" x2="1306" y1="367.2402" y2="367.2402"/><text fill="#000000" font-family="sans-serif" font-size="13" lengthAdjust="spacing" textLength="36" x="1042.5" y="361.9775">create</text><polygon fill="#181818" points="434,394.5313,424,398.5313,434,402.5313,430,398.5313" style="stroke:#181818;stroke-width:1.0;"/><line style="stroke:#181818;stroke-width:1.0;stroke-dasharray:2.0,2.0;" x1="428" x2="886.5" y1="398.5313" y2="398.5313"/><text fill="#000000" font-family="sans-serif" font-size="13" lengthAdjust="spacing" textLength="105" x="440" y="393.2686">teacherRepository</text><polygon fill="#181818" points="406,425.8223,416,429.8223,406,433.8223,410,429.8223" style="stroke:#181818;stroke-width:1.0;"/><line style="stroke:#181818;stroke-width:1.0;" x1="224" x2="412" y1="429.8223" y2="429.8223"/><text fill="#000000" font-family="sans-serif" font-size="13" lengthAdjust="spacing" textLength="91" x="231" y="424.5596">chooseCourse()</text><polygon fill="#181818" points="1158,457.1133,1168,461.1133,1158,465.1133,1162,461.1133" style="stroke:#181818;stroke-width:1.0;"/><line style="stroke:#181818;stroke-width:1.0;" x1="428" x2="1164" y1="461.1133" y2="461.1133"/><text fill="#000000" font-family="sans-serif" font-size="13" lengthAdjust="spacing" textLength="35" x="435" y="455.8506">findAll</text><polygon fill="#181818" points="439,488.4043,429,492.4043,439,496.4043,435,492.4043" style="stroke:#181818;stroke-width:1.0;"/><line style="stroke:#181818;stroke-width:1.0;stroke-dasharray:2.0,2.0;" x1="433" x2="1169" y1="492.4043" y2="492.4043"/><text fill="#000000" font-family="sans-serif" font-size="13" lengthAdjust="spacing" textLength="46" x="445" y="487.1416">courses</text><polygon fill="#181818" points="235,519.6953,225,523.6953,235,527.6953,231,523.6953" style="stroke:#181818;stroke-width:1.0;"/><line style="stroke:#181818;stroke-width:1.0;stroke-dasharray:2.0,2.0;" x1="229" x2="422" y1="523.6953" y2="523.6953"/><text fill="#000000" font-family="sans-serif" font-size="13" lengthAdjust="spacing" textLength="46" x="241" y="518.4326">courses</text><polygon fill="#181818" points="62,568.2773,52,572.2773,62,576.2773,58,572.2773" style="stroke:#181818;stroke-width:1.0;"/><line style="stroke:#181818;stroke-width:1.0;stroke-dasharray:2.0,2.0;" x1="56" x2="213" y1="572.2773" y2="572.2773"/><text fill="#000000" font-family="sans-serif" font-size="13" lengthAdjust="spacing" textLength="84" x="68" y="549.7236">show courses,</text><text fill="#000000" font-family="sans-serif" font-size="13" lengthAdjust="spacing" textLength="139" x="68" y="567.0146">and asks to choose one</text><polygon fill="#181818" points="202,599.5684,212,603.5684,202,607.5684,206,603.5684" style="stroke:#181818;stroke-width:1.0;"/><line style="stroke:#181818;stroke-width:1.0;" x1="51" x2="208" y1="603.5684" y2="603.5684"/><text fill="#000000" font-family="sans-serif" font-size="13" lengthAdjust="spacing" textLength="85" x="58" y="598.3057">choose course</text><polygon fill="#181818" points="411,630.8594,421,634.8594,411,638.8594,415,634.8594" style="stroke:#181818;stroke-width:1.0;"/><line style="stroke:#181818;stroke-width:1.0;" x1="224" x2="417" y1="634.8594" y2="634.8594"/><text fill="#000000" font-family="sans-serif" font-size="13" lengthAdjust="spacing" textLength="130" x="231" y="629.5967">chooseCourse(course)</text><polygon fill="#181818" points="406,662.1504,416,666.1504,406,670.1504,410,666.1504" style="stroke:#181818;stroke-width:1.0;"/><line style="stroke:#181818;stroke-width:1.0;" x1="224" x2="412" y1="666.1504" y2="666.1504"/><text fill="#000000" font-family="sans-serif" font-size="13" lengthAdjust="spacing" textLength="50" x="231" y="660.8877">teachers</text><polygon fill="#181818" points="1295,693.4414,1305,697.4414,1295,701.4414,1299,697.4414" style="stroke:#181818;stroke-width:1.0;"/><line style="stroke:#181818;stroke-width:1.0;" x1="428" x2="1301" y1="697.4414" y2="697.4414"/><text fill="#000000" font-family="sans-serif" font-size="13" lengthAdjust="spacing" textLength="35" x="435" y="692.1787">findAll</text><polygon fill="#181818" points="439,724.7324,429,728.7324,439,732.7324,435,728.7324" style="stroke:#181818;stroke-width:1.0;"/><line style="stroke:#181818;stroke-width:1.0;stroke-dasharray:2.0,2.0;" x1="433" x2="1311" y1="728.7324" y2="728.7324"/><text fill="#000000" font-family="sans-serif" font-size="13" lengthAdjust="spacing" textLength="50" x="445" y="723.4697">teachers</text><polygon fill="#181818" points="235,756.0234,225,760.0234,235,764.0234,231,760.0234" style="stroke:#181818;stroke-width:1.0;"/><line style="stroke:#181818;stroke-width:1.0;stroke-dasharray:2.0,2.0;" x1="229" x2="422" y1="760.0234" y2="760.0234"/><text fill="#000000" font-family="sans-serif" font-size="13" lengthAdjust="spacing" textLength="50" x="241" y="754.7607">teachers</text><polygon fill="#181818" points="62,804.6055,52,808.6055,62,812.6055,58,808.6055" style="stroke:#181818;stroke-width:1.0;"/><line style="stroke:#181818;stroke-width:1.0;stroke-dasharray:2.0,2.0;" x1="56" x2="213" y1="808.6055" y2="808.6055"/><text fill="#000000" font-family="sans-serif" font-size="13" lengthAdjust="spacing" textLength="84" x="68" y="786.0518">show teachers</text><text fill="#000000" font-family="sans-serif" font-size="13" lengthAdjust="spacing" textLength="130" x="68" y="803.3428">asks for Head Teacher</text><polygon fill="#181818" points="202,835.8965,212,839.8965,202,843.8965,206,839.8965" style="stroke:#181818;stroke-width:1.0;"/><line style="stroke:#181818;stroke-width:1.0;" x1="51" x2="208" y1="839.8965" y2="839.8965"/><text fill="#000000" font-family="sans-serif" font-size="13" lengthAdjust="spacing" textLength="89" x="58" y="834.6338">choose teacher</text><polygon fill="#181818" points="406,867.1875,416,871.1875,406,875.1875,410,871.1875" style="stroke:#181818;stroke-width:1.0;"/><line style="stroke:#181818;stroke-width:1.0;" x1="224" x2="412" y1="871.1875" y2="871.1875"/><text fill="#000000" font-family="sans-serif" font-size="13" lengthAdjust="spacing" textLength="173" x="231" y="865.9248">chooseHeadTeacher(teacher))</text><polygon fill="#181818" points="585,928.4785,595,932.4785,585,936.4785,589,932.4785" style="stroke:#181818;stroke-width:1.0;"/><line style="stroke:#181818;stroke-width:1.0;" x1="428" x2="591" y1="932.4785" y2="932.4785"/><text fill="#000000" font-family="sans-serif" font-size="13" lengthAdjust="spacing" textLength="145" x="435" y="927.2158">setHeadTeacher(teacher)</text><polygon fill="#181818" points="1158,959.7695,1168,963.7695,1158,967.7695,1162,963.7695" style="stroke:#181818;stroke-width:1.0;"/><line style="stroke:#181818;stroke-width:1.0;" x1="428" x2="1164" y1="963.7695" y2="963.7695"/><text fill="#000000" font-family="sans-serif" font-size="13" lengthAdjust="spacing" textLength="73" x="435" y="958.5068">save(course)</text><polygon fill="#181818" points="235,991.0605,225,995.0605,235,999.0605,231,995.0605" style="stroke:#181818;stroke-width:1.0;"/><line style="stroke:#181818;stroke-width:1.0;stroke-dasharray:2.0,2.0;" x1="229" x2="422" y1="995.0605" y2="995.0605"/><text fill="#000000" font-family="sans-serif" font-size="13" lengthAdjust="spacing" textLength="32" x="241" y="989.7979">result</text><path d="M10,1010.0605 L83,1010.0605 L83,1019.3516 L73,1029.3516 L10,1029.3516 L10,1010.0605 " fill="#EEEEEE" style="stroke:#000000;stroke-width:1.5;"/><rect fill="none" height="255.6191" style="stroke:#000000;stroke-width:1.5;" width="1502.5" x="10" y="1010.0605"/><text fill="#000000" font-family="sans-serif" font-size="13" font-weight="bold" lengthAdjust="spacing" textLength="28" x="25" y="1025.0889">loop</text><text fill="#000000" font-family="sans-serif" font-size="11" font-weight="bold" lengthAdjust="spacing" textLength="112" x="98" y="1023.9307">[while wants to add]</text><polygon fill="#181818" points="62,1065.9336,52,1069.9336,62,1073.9336,58,1069.9336" style="stroke:#181818;stroke-width:1.0;"/><line style="stroke:#181818;stroke-width:1.0;stroke-dasharray:2.0,2.0;" x1="56" x2="213" y1="1069.9336" y2="1069.9336"/><text fill="#000000" font-family="sans-serif" font-size="13" lengthAdjust="spacing" textLength="84" x="68" y="1047.3799">show teachers</text><text fill="#000000" font-family="sans-serif" font-size="13" lengthAdjust="spacing" textLength="121" x="68" y="1064.6709">asks for staffMember</text><polygon fill="#181818" points="202,1097.2246,212,1101.2246,202,1105.2246,206,1101.2246" style="stroke:#181818;stroke-width:1.0;"/><line style="stroke:#181818;stroke-width:1.0;" x1="51" x2="208" y1="1101.2246" y2="1101.2246"/><text fill="#000000" font-family="sans-serif" font-size="13" lengthAdjust="spacing" textLength="57" x="58" y="1095.9619">username</text><polygon fill="#181818" points="406,1128.5156,416,1132.5156,406,1136.5156,410,1132.5156" style="stroke:#181818;stroke-width:1.0;"/><line style="stroke:#181818;stroke-width:1.0;" x1="224" x2="412" y1="1132.5156" y2="1132.5156"/><text fill="#000000" font-family="sans-serif" font-size="13" lengthAdjust="spacing" textLength="175" x="231" y="1127.2529">chooosestaffMember(teacher))</text><polygon fill="#181818" points="723,1159.8066,733,1163.8066,723,1167.8066,727,1163.8066" style="stroke:#181818;stroke-width:1.0;"/><line style="stroke:#181818;stroke-width:1.0;" x1="428" x2="729" y1="1163.8066" y2="1163.8066"/><text fill="#000000" font-family="sans-serif" font-size="13" lengthAdjust="spacing" textLength="130" x="435" y="1158.5439">create(course,teacher)</text><polygon fill="#181818" points="439,1191.0977,429,1195.0977,439,1199.0977,435,1195.0977" style="stroke:#181818;stroke-width:1.0;"/><line style="stroke:#181818;stroke-width:1.0;stroke-dasharray:2.0,2.0;" x1="433" x2="734" y1="1195.0977" y2="1195.0977"/><text fill="#000000" font-family="sans-serif" font-size="13" lengthAdjust="spacing" textLength="71" x="445" y="1189.835">staffMember</text><polygon fill="#181818" points="1434,1222.3887,1444,1226.3887,1434,1230.3887,1438,1226.3887" style="stroke:#181818;stroke-width:1.0;"/><line style="stroke:#181818;stroke-width:1.0;" x1="428" x2="1440" y1="1226.3887" y2="1226.3887"/><text fill="#000000" font-family="sans-serif" font-size="13" lengthAdjust="spacing" textLength="105" x="435" y="1221.126">save(staffMember)</text><polygon fill="#181818" points="235,1253.6797,225,1257.6797,235,1261.6797,231,1257.6797" style="stroke:#181818;stroke-width:1.0;"/><line style="stroke:#181818;stroke-width:1.0;stroke-dasharray:2.0,2.0;" x1="229" x2="422" y1="1257.6797" y2="1257.6797"/><text fill="#000000" font-family="sans-serif" font-size="13" lengthAdjust="spacing" textLength="32" x="241" y="1252.417">result</text><polygon fill="#181818" points="62,1291.9707,52,1295.9707,62,1299.9707,58,1295.9707" style="stroke:#181818;stroke-width:1.0;"/><line style="stroke:#181818;stroke-width:1.0;stroke-dasharray:2.0,2.0;" x1="56" x2="218" y1="1295.9707" y2="1295.9707"/><text fill="#000000" font-family="sans-serif" font-size="13" lengthAdjust="spacing" textLength="87" x="68" y="1290.708">displayStaffInfo</text><!--SRC=[hPPDR-CW48Rl_XMebssavh3VNIkAL5MgjeTAgqttrWjhZniK1ooWpURVxm0s0PlOhdPzY6myym3lE-EWTemtLD8zQMYney-mqSSQY8H2Pyg_KrjQYWFZpwIYjO8ieuKMaZnGZXcIK4Lkp426qPeLhA5SamteM_4Y5Jm2BROWrQzx4uY_grKZGG7NL3F1rsiYP8cKz-Ffju9hAUhQpHSyhLQqQMfMnBGF4UsYiApS8IySmTnYTYdsb9qIFyQ9UzZ_1fblDAsg1tjlipUFDtTtm-HFKV8FN3PJ6dW1PhtmHvlKODH8SNhobCyHvISqGZ6KztXdPJyQYBd5xCgD-CmlgLsV0FaJl-qDsTsOHwH9F-g1NsEWTcP4nCV-c4K6esdoTKnMHk28kub7dEpTM9hvBSji8PBbsXHQJXHeuaGWxTALgLtsIZLWH4Rmma0C3meg9uK43B1lVVGfm8wRAyX1GkXhJlpg6AZBXK-9a456562ka8PmwtVUxgKFZA0cSl3MN1Q1A2jVjCV-5JRNSXakfLl1oPOae8JfvGGnvtHu5mji7MqLoCwizx_xCEr9LrW9KzvcKCgii8r6FPlhtw239sbpp7oZiLCc-ruzmmrwqOUasdWhX0BtnGlS6MlfOJcrqbUCbpTrdOtet9aqKQ5ZbJonH_TnCtEvhzjM73hC5NdYb9VuaTmfeaMxTo8uzBBzz2x0fSzMqOKlnk87verkgQTsNEyfqJqj21rp9IOEAokGF4LCEJU0f6qRSwr3e6d6i0e3lWCjkoMCUwPxGMTDCyYMUDacBHRPx4QOa6ReNdkcil-xgRcdsqpHrsIH6VMY3U89ygNMCnseXMZ8OSlmP7l0quPj45gMinmYWKNgT0eyuz2B0idfVhAXq9m05fWphsa6yhdpQFSFqIfuDQMxsN6NcTfROXv_06kz2jBYQVxPDE1brZEcPAgfwT4kufvN8Wi8U9hx2m00]--></g></svg>