<?xml version="1.0" encoding="us-ascii" standalone="no"?><svg xmlns="http://www.w3.org/2000/svg" xmlns:xlink="http://www.w3.org/1999/xlink" contentStyleType="text/css" height="1004px" preserveAspectRatio="none" style="width:2530px;height:1004px;background:#FFFFFF;" version="1.1" viewBox="0 0 2530 1004" width="2530px" zoomAndPan="magnify"><defs/><g><!--class CSVLoaderStudentsUI--><g id="elem_CSVLoaderStudentsUI"><rect codeLine="9" fill="#F1F1F1" height="53.9414" id="CSVLoaderStudentsUI" rx="2.5" ry="2.5" style="stroke:#181818;stroke-width:0.5;" width="216" x="1553" y="7"/><ellipse cx="1568" cy="25.9707" fill="#ADD1B2" rx="11" ry="11" style="stroke:#181818;stroke-width:1.0;"/><path d="M1570.7656,21.8457 Q1570.9219,21.627 1571.1094,21.5176 Q1571.2969,21.4082 1571.5156,21.4082 Q1571.8906,21.4082 1572.125,21.6738 Q1572.3594,21.9238 1572.3594,22.5332 L1572.3594,23.9863 Q1572.3594,24.5957 1572.125,24.8613 Q1571.8906,25.127 1571.5156,25.127 Q1571.1719,25.127 1570.9688,24.9238 Q1570.7656,24.7363 1570.6563,24.2207 Q1570.6094,23.8613 1570.4219,23.6738 Q1570.0938,23.2988 1569.4844,23.0801 Q1568.875,22.8613 1568.25,22.8613 Q1567.4844,22.8613 1566.8438,23.1895 Q1566.2188,23.5176 1565.7188,24.2676 Q1565.2344,25.0176 1565.2344,26.0488 L1565.2344,27.1426 Q1565.2344,28.377 1566.125,29.2051 Q1567.0156,30.0176 1568.6094,30.0176 Q1569.5469,30.0176 1570.2031,29.7676 Q1570.5938,29.6113 1571.0156,29.1738 Q1571.2813,28.9082 1571.4219,28.8301 Q1571.5781,28.752 1571.7813,28.752 Q1572.1094,28.752 1572.3594,29.0176 Q1572.625,29.2676 1572.625,29.6113 Q1572.625,29.9551 1572.2813,30.3613 Q1571.7813,30.9395 1570.9844,31.2676 Q1569.9063,31.7207 1568.6094,31.7207 Q1567.0938,31.7207 1565.8906,31.0957 Q1564.9063,30.5957 1564.2188,29.5332 Q1563.5313,28.4551 1563.5313,27.1738 L1563.5313,26.0176 Q1563.5313,24.6895 1564.1406,23.5488 Q1564.7656,22.3926 1565.8594,21.7832 Q1566.9531,21.1582 1568.1875,21.1582 Q1568.9219,21.1582 1569.5625,21.3301 Q1570.2188,21.4863 1570.7656,21.8457 Z " fill="#000000"/><text fill="#000000" font-family="sans-serif" font-size="18" lengthAdjust="spacing" textLength="180" x="1584" y="33.4238">CSVLoaderStudentsUI</text><line style="stroke:#181818;stroke-width:0.5;" x1="1554" x2="1768" y1="44.9414" y2="44.9414"/><line style="stroke:#181818;stroke-width:0.5;" x1="1554" x2="1768" y1="52.9414" y2="52.9414"/></g><!--class CSVLoaderStudentsController--><g id="elem_CSVLoaderStudentsController"><rect codeLine="10" fill="#F1F1F1" height="137.7656" id="CSVLoaderStudentsController" rx="2.5" ry="2.5" style="stroke:#181818;stroke-width:0.5;" width="376" x="1473" y="161"/><ellipse cx="1534.25" cy="179.9707" fill="#ADD1B2" rx="11" ry="11" style="stroke:#181818;stroke-width:1.0;"/><path d="M1537.0156,175.8457 Q1537.1719,175.627 1537.3594,175.5176 Q1537.5469,175.4082 1537.7656,175.4082 Q1538.1406,175.4082 1538.375,175.6738 Q1538.6094,175.9238 1538.6094,176.5332 L1538.6094,177.9863 Q1538.6094,178.5957 1538.375,178.8613 Q1538.1406,179.127 1537.7656,179.127 Q1537.4219,179.127 1537.2188,178.9238 Q1537.0156,178.7363 1536.9063,178.2207 Q1536.8594,177.8613 1536.6719,177.6738 Q1536.3438,177.2988 1535.7344,177.0801 Q1535.125,176.8613 1534.5,176.8613 Q1533.7344,176.8613 1533.0938,177.1895 Q1532.4688,177.5176 1531.9688,178.2676 Q1531.4844,179.0176 1531.4844,180.0488 L1531.4844,181.1426 Q1531.4844,182.377 1532.375,183.2051 Q1533.2656,184.0176 1534.8594,184.0176 Q1535.7969,184.0176 1536.4531,183.7676 Q1536.8438,183.6113 1537.2656,183.1738 Q1537.5313,182.9082 1537.6719,182.8301 Q1537.8281,182.752 1538.0313,182.752 Q1538.3594,182.752 1538.6094,183.0176 Q1538.875,183.2676 1538.875,183.6113 Q1538.875,183.9551 1538.5313,184.3613 Q1538.0313,184.9395 1537.2344,185.2676 Q1536.1563,185.7207 1534.8594,185.7207 Q1533.3438,185.7207 1532.1406,185.0957 Q1531.1563,184.5957 1530.4688,183.5332 Q1529.7813,182.4551 1529.7813,181.1738 L1529.7813,180.0176 Q1529.7813,178.6895 1530.3906,177.5488 Q1531.0156,176.3926 1532.1094,175.7832 Q1533.2031,175.1582 1534.4375,175.1582 Q1535.1719,175.1582 1535.8125,175.3301 Q1536.4688,175.4863 1537.0156,175.8457 Z " fill="#000000"/><text fill="#000000" font-family="sans-serif" font-size="18" lengthAdjust="spacing" textLength="241" x="1556.75" y="187.4238">CSVLoaderStudentsController</text><line style="stroke:#181818;stroke-width:0.5;" x1="1474" x2="1848" y1="198.9414" y2="198.9414"/><text fill="#000000" font-family="sans-serif" font-size="18" lengthAdjust="spacing" textLength="129" x="1481" y="224.3652">-enum CSVFiles</text><text fill="#000000" font-family="sans-serif" font-size="18" lengthAdjust="spacing" textLength="360" x="1481" y="252.3066">-final Map&lt;CSVHeader, CSVParser&gt; parsers</text><line style="stroke:#181818;stroke-width:0.5;" x1="1474" x2="1848" y1="262.8242" y2="262.8242"/><text fill="#000000" font-family="sans-serif" font-size="18" lengthAdjust="spacing" textLength="143" x="1481" y="288.248">+loadResources()</text></g><!--class StudentParser--><g id="elem_StudentParser"><rect codeLine="19" fill="#F1F1F1" height="137.7656" id="StudentParser" rx="2.5" ry="2.5" style="stroke:#181818;stroke-width:0.5;" width="358" x="1045" y="468.5"/><ellipse cx="1160.25" cy="487.4707" fill="#ADD1B2" rx="11" ry="11" style="stroke:#181818;stroke-width:1.0;"/><path d="M1163.0156,483.3457 Q1163.1719,483.127 1163.3594,483.0176 Q1163.5469,482.9082 1163.7656,482.9082 Q1164.1406,482.9082 1164.375,483.1738 Q1164.6094,483.4238 1164.6094,484.0332 L1164.6094,485.4863 Q1164.6094,486.0957 1164.375,486.3613 Q1164.1406,486.627 1163.7656,486.627 Q1163.4219,486.627 1163.2188,486.4238 Q1163.0156,486.2363 1162.9063,485.7207 Q1162.8594,485.3613 1162.6719,485.1738 Q1162.3438,484.7988 1161.7344,484.5801 Q1161.125,484.3613 1160.5,484.3613 Q1159.7344,484.3613 1159.0938,484.6895 Q1158.4688,485.0176 1157.9688,485.7676 Q1157.4844,486.5176 1157.4844,487.5488 L1157.4844,488.6426 Q1157.4844,489.877 1158.375,490.7051 Q1159.2656,491.5176 1160.8594,491.5176 Q1161.7969,491.5176 1162.4531,491.2676 Q1162.8438,491.1113 1163.2656,490.6738 Q1163.5313,490.4082 1163.6719,490.3301 Q1163.8281,490.252 1164.0313,490.252 Q1164.3594,490.252 1164.6094,490.5176 Q1164.875,490.7676 1164.875,491.1113 Q1164.875,491.4551 1164.5313,491.8613 Q1164.0313,492.4395 1163.2344,492.7676 Q1162.1563,493.2207 1160.8594,493.2207 Q1159.3438,493.2207 1158.1406,492.5957 Q1157.1563,492.0957 1156.4688,491.0332 Q1155.7813,489.9551 1155.7813,488.6738 L1155.7813,487.5176 Q1155.7813,486.1895 1156.3906,485.0488 Q1157.0156,483.8926 1158.1094,483.2832 Q1159.2031,482.6582 1160.4375,482.6582 Q1161.1719,482.6582 1161.8125,482.8301 Q1162.4688,482.9863 1163.0156,483.3457 Z " fill="#000000"/><text fill="#000000" font-family="sans-serif" font-size="18" lengthAdjust="spacing" textLength="115" x="1182.75" y="494.9238">StudentParser</text><line style="stroke:#181818;stroke-width:0.5;" x1="1046" x2="1402" y1="506.4414" y2="506.4414"/><text fill="#000000" font-family="sans-serif" font-size="18" lengthAdjust="spacing" textLength="342" x="1053" y="531.8652">-final AddUserController addUserController</text><text fill="#000000" font-family="sans-serif" font-size="18" lengthAdjust="spacing" textLength="187" x="1053" y="559.8066">-enum StudentColumns</text><line style="stroke:#181818;stroke-width:0.5;" x1="1046" x2="1402" y1="570.3242" y2="570.3242"/><text fill="#000000" font-family="sans-serif" font-size="18" lengthAdjust="spacing" textLength="215" x="1053" y="595.748">+parse(List&lt;String[]&gt; data)</text></g><!--class AddUserController--><g id="elem_AddUserController"><rect codeLine="26" fill="#F1F1F1" height="221.5898" id="AddUserController" rx="2.5" ry="2.5" style="stroke:#181818;stroke-width:0.5;" width="1436" x="7" y="776"/><ellipse cx="645.25" cy="794.9707" fill="#ADD1B2" rx="11" ry="11" style="stroke:#181818;stroke-width:1.0;"/><path d="M648.0156,790.8457 Q648.1719,790.627 648.3594,790.5176 Q648.5469,790.4082 648.7656,790.4082 Q649.1406,790.4082 649.375,790.6738 Q649.6094,790.9238 649.6094,791.5332 L649.6094,792.9863 Q649.6094,793.5957 649.375,793.8613 Q649.1406,794.127 648.7656,794.127 Q648.4219,794.127 648.2188,793.9238 Q648.0156,793.7363 647.9063,793.2207 Q647.8594,792.8613 647.6719,792.6738 Q647.3438,792.2988 646.7344,792.0801 Q646.125,791.8613 645.5,791.8613 Q644.7344,791.8613 644.0938,792.1895 Q643.4688,792.5176 642.9688,793.2676 Q642.4844,794.0176 642.4844,795.0488 L642.4844,796.1426 Q642.4844,797.377 643.375,798.2051 Q644.2656,799.0176 645.8594,799.0176 Q646.7969,799.0176 647.4531,798.7676 Q647.8438,798.6113 648.2656,798.1738 Q648.5313,797.9082 648.6719,797.8301 Q648.8281,797.752 649.0313,797.752 Q649.3594,797.752 649.6094,798.0176 Q649.875,798.2676 649.875,798.6113 Q649.875,798.9551 649.5313,799.3613 Q649.0313,799.9395 648.2344,800.2676 Q647.1563,800.7207 645.8594,800.7207 Q644.3438,800.7207 643.1406,800.0957 Q642.1563,799.5957 641.4688,798.5332 Q640.7813,797.4551 640.7813,796.1738 L640.7813,795.0176 Q640.7813,793.6895 641.3906,792.5488 Q642.0156,791.3926 643.1094,790.7832 Q644.2031,790.1582 645.4375,790.1582 Q646.1719,790.1582 646.8125,790.3301 Q647.4688,790.4863 648.0156,790.8457 Z " fill="#000000"/><text fill="#000000" font-family="sans-serif" font-size="18" lengthAdjust="spacing" textLength="147" x="667.75" y="802.4238">AddUserController</text><line style="stroke:#181818;stroke-width:0.5;" x1="8" x2="1442" y1="813.9414" y2="813.9414"/><text fill="#000000" font-family="sans-serif" font-size="18" lengthAdjust="spacing" textLength="255" x="15" y="839.3652">-final AuthorizationService authz</text><text fill="#000000" font-family="sans-serif" font-size="18" lengthAdjust="spacing" textLength="278" x="15" y="867.3066">-UserManagementService userSvc</text><text fill="#000000" font-family="sans-serif" font-size="18" lengthAdjust="spacing" textLength="143" x="15" y="895.248">-SystemUser user</text><line style="stroke:#181818;stroke-width:0.5;" x1="8" x2="1442" y1="905.7656" y2="905.7656"/><text fill="#000000" font-family="sans-serif" font-size="18" lengthAdjust="spacing" textLength="1420" x="15" y="931.1895">+SystemUser addUser(final String username, final String password, final String firstName, final String lastName, final String email, final Set&lt;Role&gt; roles, final Calendar createdOn)</text><text fill="#000000" font-family="sans-serif" font-size="18" lengthAdjust="spacing" textLength="1210" x="15" y="959.1309">+SystemUser addUser(final String username, final String password, final String firstName, final String lastName, final String email, final Set&lt;Role&gt; roles)</text><text fill="#000000" font-family="sans-serif" font-size="18" lengthAdjust="spacing" textLength="1238" x="15" y="987.0723">+Student addStudent(final String mecanographicNumber, final String fullName, final String shortName, final String dateOfBirth, final String taxPayerNumber)</text></g><!--class Role--><g id="elem_Role"><rect codeLine="36" fill="#F1F1F1" height="81.8828" id="Role" rx="2.5" ry="2.5" style="stroke:#181818;stroke-width:0.5;" width="221" x="1478.5" y="846"/><ellipse cx="1564.25" cy="864.9707" fill="#ADD1B2" rx="11" ry="11" style="stroke:#181818;stroke-width:1.0;"/><path d="M1567.0156,860.8457 Q1567.1719,860.627 1567.3594,860.5176 Q1567.5469,860.4082 1567.7656,860.4082 Q1568.1406,860.4082 1568.375,860.6738 Q1568.6094,860.9238 1568.6094,861.5332 L1568.6094,862.9863 Q1568.6094,863.5957 1568.375,863.8613 Q1568.1406,864.127 1567.7656,864.127 Q1567.4219,864.127 1567.2188,863.9238 Q1567.0156,863.7363 1566.9063,863.2207 Q1566.8594,862.8613 1566.6719,862.6738 Q1566.3438,862.2988 1565.7344,862.0801 Q1565.125,861.8613 1564.5,861.8613 Q1563.7344,861.8613 1563.0938,862.1895 Q1562.4688,862.5176 1561.9688,863.2676 Q1561.4844,864.0176 1561.4844,865.0488 L1561.4844,866.1426 Q1561.4844,867.377 1562.375,868.2051 Q1563.2656,869.0176 1564.8594,869.0176 Q1565.7969,869.0176 1566.4531,868.7676 Q1566.8438,868.6113 1567.2656,868.1738 Q1567.5313,867.9082 1567.6719,867.8301 Q1567.8281,867.752 1568.0313,867.752 Q1568.3594,867.752 1568.6094,868.0176 Q1568.875,868.2676 1568.875,868.6113 Q1568.875,868.9551 1568.5313,869.3613 Q1568.0313,869.9395 1567.2344,870.2676 Q1566.1563,870.7207 1564.8594,870.7207 Q1563.3438,870.7207 1562.1406,870.0957 Q1561.1563,869.5957 1560.4688,868.5332 Q1559.7813,867.4551 1559.7813,866.1738 L1559.7813,865.0176 Q1559.7813,863.6895 1560.3906,862.5488 Q1561.0156,861.3926 1562.1094,860.7832 Q1563.2031,860.1582 1564.4375,860.1582 Q1565.1719,860.1582 1565.8125,860.3301 Q1566.4688,860.4863 1567.0156,860.8457 Z " fill="#000000"/><text fill="#000000" font-family="sans-serif" font-size="18" lengthAdjust="spacing" textLength="37" x="1586.75" y="872.4238">Role</text><line style="stroke:#181818;stroke-width:0.5;" x1="1479.5" x2="1698.5" y1="883.9414" y2="883.9414"/><line style="stroke:#181818;stroke-width:0.5;" x1="1479.5" x2="1698.5" y1="891.9414" y2="891.9414"/><text fill="#000000" font-family="sans-serif" font-size="18" lengthAdjust="spacing" textLength="205" x="1486.5" y="917.3652">+valueOf(final String role)</text></g><!--class CSVHeader--><g id="elem_CSVHeader"><rect codeLine="41" fill="#F1F1F1" height="137.7656" id="CSVHeader" rx="2.5" ry="2.5" style="stroke:#181818;stroke-width:0.5;" width="197" x="1438.5" y="468.5"/><ellipse cx="1483.25" cy="487.4707" fill="#ADD1B2" rx="11" ry="11" style="stroke:#181818;stroke-width:1.0;"/><path d="M1486.0156,483.3457 Q1486.1719,483.127 1486.3594,483.0176 Q1486.5469,482.9082 1486.7656,482.9082 Q1487.1406,482.9082 1487.375,483.1738 Q1487.6094,483.4238 1487.6094,484.0332 L1487.6094,485.4863 Q1487.6094,486.0957 1487.375,486.3613 Q1487.1406,486.627 1486.7656,486.627 Q1486.4219,486.627 1486.2188,486.4238 Q1486.0156,486.2363 1485.9063,485.7207 Q1485.8594,485.3613 1485.6719,485.1738 Q1485.3438,484.7988 1484.7344,484.5801 Q1484.125,484.3613 1483.5,484.3613 Q1482.7344,484.3613 1482.0938,484.6895 Q1481.4688,485.0176 1480.9688,485.7676 Q1480.4844,486.5176 1480.4844,487.5488 L1480.4844,488.6426 Q1480.4844,489.877 1481.375,490.7051 Q1482.2656,491.5176 1483.8594,491.5176 Q1484.7969,491.5176 1485.4531,491.2676 Q1485.8438,491.1113 1486.2656,490.6738 Q1486.5313,490.4082 1486.6719,490.3301 Q1486.8281,490.252 1487.0313,490.252 Q1487.3594,490.252 1487.6094,490.5176 Q1487.875,490.7676 1487.875,491.1113 Q1487.875,491.4551 1487.5313,491.8613 Q1487.0313,492.4395 1486.2344,492.7676 Q1485.1563,493.2207 1483.8594,493.2207 Q1482.3438,493.2207 1481.1406,492.5957 Q1480.1563,492.0957 1479.4688,491.0332 Q1478.7813,489.9551 1478.7813,488.6738 L1478.7813,487.5176 Q1478.7813,486.1895 1479.3906,485.0488 Q1480.0156,483.8926 1481.1094,483.2832 Q1482.2031,482.6582 1483.4375,482.6582 Q1484.1719,482.6582 1484.8125,482.8301 Q1485.4688,482.9863 1486.0156,483.3457 Z " fill="#000000"/><text fill="#000000" font-family="sans-serif" font-size="18" lengthAdjust="spacing" textLength="95" x="1505.75" y="494.9238">CSVHeader</text><line style="stroke:#181818;stroke-width:0.5;" x1="1439.5" x2="1634.5" y1="506.4414" y2="506.4414"/><text fill="#000000" font-family="sans-serif" font-size="18" lengthAdjust="spacing" textLength="155" x="1446.5" y="531.8652">+enum CSVHeader</text><line style="stroke:#181818;stroke-width:0.5;" x1="1439.5" x2="1634.5" y1="542.3828" y2="542.3828"/><text fill="#000000" font-family="sans-serif" font-size="18" lengthAdjust="spacing" textLength="181" x="1446.5" y="567.8066">+int getColumnCount()</text><text fill="#000000" font-family="sans-serif" font-size="18" lengthAdjust="spacing" textLength="170" x="1446.5" y="595.748">+String getDelimiter()</text></g><!--class CSVParser--><g id="elem_CSVParser"><rect codeLine="50" fill="#F1F1F1" height="81.8828" id="CSVParser" rx="2.5" ry="2.5" style="stroke:#181818;stroke-width:0.5;" width="231" x="1670.5" y="496.5"/><ellipse cx="1734.75" cy="515.4707" fill="#B4A7E5" rx="11" ry="11" style="stroke:#181818;stroke-width:1.0;"/><path d="M1735.7031,512.1113 L1735.7031,518.7676 L1737.4219,518.7676 Q1738.0313,518.7676 1738.2969,519.002 Q1738.5625,519.2363 1738.5625,519.627 Q1738.5625,520.002 1738.2969,520.2363 Q1738.0313,520.4707 1737.4219,520.4707 L1732.2813,520.4707 Q1731.6719,520.4707 1731.4063,520.2363 Q1731.1406,520.002 1731.1406,519.6113 Q1731.1406,519.2363 1731.4063,519.002 Q1731.6719,518.7676 1732.2813,518.7676 L1734,518.7676 L1734,512.1113 L1732.2813,512.1113 Q1731.6719,512.1113 1731.4063,511.877 Q1731.1406,511.6426 1731.1406,511.252 Q1731.1406,510.877 1731.4063,510.6426 Q1731.6719,510.4082 1732.2813,510.4082 L1737.4219,510.4082 Q1738.0313,510.4082 1738.2969,510.6426 Q1738.5625,510.877 1738.5625,511.252 Q1738.5625,511.6426 1738.2969,511.877 Q1738.0313,512.1113 1737.4219,512.1113 L1735.7031,512.1113 Z " fill="#000000"/><text fill="#000000" font-family="sans-serif" font-size="18" font-style="italic" lengthAdjust="spacing" textLength="90" x="1757.25" y="522.9238">CSVParser</text><line style="stroke:#181818;stroke-width:0.5;" x1="1671.5" x2="1900.5" y1="534.4414" y2="534.4414"/><line style="stroke:#181818;stroke-width:0.5;" x1="1671.5" x2="1900.5" y1="542.4414" y2="542.4414"/><text fill="#000000" font-family="sans-serif" font-size="18" lengthAdjust="spacing" textLength="215" x="1678.5" y="567.8652">+parse(List&lt;String[]&gt; data)</text></g><!--class CSVReader--><g id="elem_CSVReader"><rect codeLine="55" fill="#F1F1F1" height="277.4727" id="CSVReader" rx="2.5" ry="2.5" style="stroke:#181818;stroke-width:0.5;" width="586" x="1937" y="399"/><ellipse cx="2176.25" cy="417.9707" fill="#ADD1B2" rx="11" ry="11" style="stroke:#181818;stroke-width:1.0;"/><path d="M2179.0156,413.8457 Q2179.1719,413.627 2179.3594,413.5176 Q2179.5469,413.4082 2179.7656,413.4082 Q2180.1406,413.4082 2180.375,413.6738 Q2180.6094,413.9238 2180.6094,414.5332 L2180.6094,415.9863 Q2180.6094,416.5957 2180.375,416.8613 Q2180.1406,417.127 2179.7656,417.127 Q2179.4219,417.127 2179.2188,416.9238 Q2179.0156,416.7363 2178.9063,416.2207 Q2178.8594,415.8613 2178.6719,415.6738 Q2178.3438,415.2988 2177.7344,415.0801 Q2177.125,414.8613 2176.5,414.8613 Q2175.7344,414.8613 2175.0938,415.1895 Q2174.4688,415.5176 2173.9688,416.2676 Q2173.4844,417.0176 2173.4844,418.0488 L2173.4844,419.1426 Q2173.4844,420.377 2174.375,421.2051 Q2175.2656,422.0176 2176.8594,422.0176 Q2177.7969,422.0176 2178.4531,421.7676 Q2178.8438,421.6113 2179.2656,421.1738 Q2179.5313,420.9082 2179.6719,420.8301 Q2179.8281,420.752 2180.0313,420.752 Q2180.3594,420.752 2180.6094,421.0176 Q2180.875,421.2676 2180.875,421.6113 Q2180.875,421.9551 2180.5313,422.3613 Q2180.0313,422.9395 2179.2344,423.2676 Q2178.1563,423.7207 2176.8594,423.7207 Q2175.3438,423.7207 2174.1406,423.0957 Q2173.1563,422.5957 2172.4688,421.5332 Q2171.7813,420.4551 2171.7813,419.1738 L2171.7813,418.0176 Q2171.7813,416.6895 2172.3906,415.5488 Q2173.0156,414.3926 2174.1094,413.7832 Q2175.2031,413.1582 2176.4375,413.1582 Q2177.1719,413.1582 2177.8125,413.3301 Q2178.4688,413.4863 2179.0156,413.8457 Z " fill="#000000"/><text fill="#000000" font-family="sans-serif" font-size="18" lengthAdjust="spacing" textLength="95" x="2198.75" y="425.4238">CSVReader</text><line style="stroke:#181818;stroke-width:0.5;" x1="1938" x2="2522" y1="436.9414" y2="436.9414"/><text fill="#000000" font-family="sans-serif" font-size="18" lengthAdjust="spacing" textLength="227" x="1945" y="462.3652">-static CSVHeader HEADER</text><text fill="#000000" font-family="sans-serif" font-size="18" lengthAdjust="spacing" textLength="274" x="1945" y="490.3066">-static int EXPECTED_COLUMNS</text><text fill="#000000" font-family="sans-serif" font-size="18" lengthAdjust="spacing" textLength="292" x="1945" y="518.248">-static String DEFAULT_DELIMITER</text><text fill="#000000" font-family="sans-serif" font-size="18" lengthAdjust="spacing" textLength="239" x="1945" y="546.1895">-static final char BOM = '\ufeff'</text><line style="stroke:#181818;stroke-width:0.5;" x1="1938" x2="2522" y1="556.707" y2="556.707"/><text fill="#000000" font-family="sans-serif" font-size="18" lengthAdjust="spacing" textLength="570" x="1945" y="582.1309">+List&lt;String[]&gt; readFromResources(String bundle, CSVHeader header)</text><text fill="#000000" font-family="sans-serif" font-size="18" lengthAdjust="spacing" textLength="570" x="1945" y="610.0723">-static List&lt;String[]&gt; readCSV(InputStream stream, CSVHeader header)</text><text fill="#000000" font-family="sans-serif" font-size="18" lengthAdjust="spacing" textLength="286" x="1945" y="638.0137">-static boolean isHeader(String line)</text><text fill="#000000" font-family="sans-serif" font-size="18" lengthAdjust="spacing" textLength="348" x="1945" y="665.9551">-static void maybeSkipBOM(Reader reader)</text></g><!--class InvalidCSVHeaderException--><g id="elem_InvalidCSVHeaderException"><rect codeLine="68" fill="#F1F1F1" height="81.8828" id="InvalidCSVHeaderException" rx="2.5" ry="2.5" style="stroke:#181818;stroke-width:0.5;" width="263" x="2098.5" y="846"/><ellipse cx="2114.85" cy="864.9707" fill="#ADD1B2" rx="11" ry="11" style="stroke:#181818;stroke-width:1.0;"/><path d="M2117.6156,860.8457 Q2117.7719,860.627 2117.9594,860.5176 Q2118.1469,860.4082 2118.3656,860.4082 Q2118.7406,860.4082 2118.975,860.6738 Q2119.2094,860.9238 2119.2094,861.5332 L2119.2094,862.9863 Q2119.2094,863.5957 2118.975,863.8613 Q2118.7406,864.127 2118.3656,864.127 Q2118.0219,864.127 2117.8188,863.9238 Q2117.6156,863.7363 2117.5063,863.2207 Q2117.4594,862.8613 2117.2719,862.6738 Q2116.9438,862.2988 2116.3344,862.0801 Q2115.725,861.8613 2115.1,861.8613 Q2114.3344,861.8613 2113.6938,862.1895 Q2113.0688,862.5176 2112.5688,863.2676 Q2112.0844,864.0176 2112.0844,865.0488 L2112.0844,866.1426 Q2112.0844,867.377 2112.975,868.2051 Q2113.8656,869.0176 2115.4594,869.0176 Q2116.3969,869.0176 2117.0531,868.7676 Q2117.4438,868.6113 2117.8656,868.1738 Q2118.1313,867.9082 2118.2719,867.8301 Q2118.4281,867.752 2118.6313,867.752 Q2118.9594,867.752 2119.2094,868.0176 Q2119.475,868.2676 2119.475,868.6113 Q2119.475,868.9551 2119.1313,869.3613 Q2118.6313,869.9395 2117.8344,870.2676 Q2116.7563,870.7207 2115.4594,870.7207 Q2113.9438,870.7207 2112.7406,870.0957 Q2111.7563,869.5957 2111.0688,868.5332 Q2110.3813,867.4551 2110.3813,866.1738 L2110.3813,865.0176 Q2110.3813,863.6895 2110.9906,862.5488 Q2111.6156,861.3926 2112.7094,860.7832 Q2113.8031,860.1582 2115.0375,860.1582 Q2115.7719,860.1582 2116.4125,860.3301 Q2117.0688,860.4863 2117.6156,860.8457 Z " fill="#000000"/><text fill="#000000" font-family="sans-serif" font-size="18" lengthAdjust="spacing" textLength="224" x="2131.15" y="872.4238">InvalidCSVHeaderException</text><line style="stroke:#181818;stroke-width:0.5;" x1="2099.5" x2="2360.5" y1="883.9414" y2="883.9414"/><line style="stroke:#181818;stroke-width:0.5;" x1="2099.5" x2="2360.5" y1="891.9414" y2="891.9414"/><text fill="#000000" font-family="sans-serif" font-size="18" lengthAdjust="spacing" textLength="247" x="2106.5" y="917.3652">+InvalidCSVHeaderException()</text></g><!--link CSVLoaderStudentsUI to CSVLoaderStudentsController--><g id="link_CSVLoaderStudentsUI_CSVLoaderStudentsController"><path codeLine="76" d="M1661,61.16 C1661,85.31 1661,122.35 1661,155.49 " fill="none" id="CSVLoaderStudentsUI-to-CSVLoaderStudentsController" style="stroke:#181818;stroke-width:1.0;stroke-dasharray:7.0,7.0;"/><polygon fill="#181818" points="1661,160.77,1665,151.77,1661,155.77,1657,151.77,1661,160.77" style="stroke:#181818;stroke-width:1.0;"/></g><!--link CSVLoaderStudentsController to StudentParser--><g id="link_CSVLoaderStudentsController_StudentParser"><path codeLine="77" d="M1563.47,299.18 C1492.81,348.58 1397.5,415.21 1325.86,465.29 " fill="none" id="CSVLoaderStudentsController-to-StudentParser" style="stroke:#181818;stroke-width:1.0;"/><polygon fill="#181818" points="1321.61,468.26,1331.2734,466.3576,1325.7008,465.385,1326.6734,459.8124,1321.61,468.26" style="stroke:#181818;stroke-width:1.0;"/></g><!--link StudentParser to AddUserController--><g id="link_StudentParser_AddUserController"><path codeLine="78" d="M1126.31,606.53 C1058.43,653.8 966.38,717.91 887.56,772.8 " fill="none" id="StudentParser-to-AddUserController" style="stroke:#181818;stroke-width:1.0;"/><polygon fill="#181818" points="883.34,775.73,893.0109,773.8661,887.4422,772.8713,888.437,767.3026,883.34,775.73" style="stroke:#181818;stroke-width:1.0;"/></g><!--link StudentParser to Role--><g id="link_StudentParser_Role"><path codeLine="79" d="M1295.68,606.74 C1369.06,676.6 1480.92,783.1 1543.15,842.35 " fill="none" id="StudentParser-to-Role" style="stroke:#181818;stroke-width:1.0;"/><polygon fill="#181818" points="1546.81,845.83,1543.0711,836.7184,1543.1968,842.3739,1537.5413,842.4996,1546.81,845.83" style="stroke:#181818;stroke-width:1.0;"/></g><!--link CSVLoaderStudentsController to CSVHeader--><g id="link_CSVLoaderStudentsController_CSVHeader"><path codeLine="80" d="M1633.33,299.18 C1613.52,347.99 1586.88,413.62 1566.63,463.49 " fill="none" id="CSVLoaderStudentsController-to-CSVHeader" style="stroke:#181818;stroke-width:1.0;stroke-dasharray:7.0,7.0;"/><polygon fill="#181818" points="1564.7,468.26,1571.8,461.4344,1566.5865,463.6295,1564.3913,458.416,1564.7,468.26" style="stroke:#181818;stroke-width:1.0;"/></g><!--link CSVLoaderStudentsController to CSVParser--><g id="link_CSVLoaderStudentsController_CSVParser"><path codeLine="81" d="M1688.9,299.18 C1712.88,357.78 1746.78,440.64 1767.53,491.35 " fill="none" id="CSVLoaderStudentsController-to-CSVParser" style="stroke:#181818;stroke-width:1.0;stroke-dasharray:7.0,7.0;"/><polygon fill="#181818" points="1769.49,496.15,1769.7727,486.3052,1767.5913,491.5245,1762.3719,489.3432,1769.49,496.15" style="stroke:#181818;stroke-width:1.0;"/></g><!--link CSVLoaderStudentsController to CSVReader--><g id="link_CSVLoaderStudentsController_CSVReader"><path codeLine="82" d="M1787.99,299.18 C1841.64,327.99 1906.21,362.66 1969.22,396.49 " fill="none" id="CSVLoaderStudentsController-to-CSVReader" style="stroke:#181818;stroke-width:1.0;stroke-dasharray:7.0,7.0;"/><polygon fill="#181818" points="1973.76,398.92,1967.7246,391.137,1969.3554,396.5538,1963.9386,398.1845,1973.76,398.92" style="stroke:#181818;stroke-width:1.0;"/></g><!--link CSVReader to InvalidCSVHeaderException--><g id="link_CSVReader_InvalidCSVHeaderException"><path codeLine="83" d="M2230,676.34 C2230,734.67 2230,798.65 2230,840.4 " fill="none" id="CSVReader-to-InvalidCSVHeaderException" style="stroke:#181818;stroke-width:1.0;"/><polygon fill="#181818" points="2230,845.63,2234,836.63,2230,840.63,2226,836.63,2230,845.63" style="stroke:#181818;stroke-width:1.0;"/></g><!--SRC=[pLLTRzem57tFh_1RGItzsDCqTKWKWee4fI9bchHDbOalODLn8d-mjTF- -wuT1qYWNH-Nby2vvzvpRD_hdAoDAVIdYuj2K6bi9ixJFBj81TMwmpXTAPf5aNxYig3ua_X0pnZ55zR0ACrbmb-0NEvH2ieOboloOGzJL3vfACZLvMMps32NnjUu-XX5aOT8F_aopYa3bHZBG1ez7xqMwMEwoeK05VsE224Ta3Ppj24Ne3sov98ACg75DSAtuBBF7EEUAWsgYuRTstDF1HQVWSwjIa6tskZeJsKgA9PPfLXLkyVO7C6T5qARI4dtvaAXVYvi9hqiEIrDjCPSc-i4TrUkllte4aODRUyS7CWqN5YppXL_eORZiO3Qy1G8HV2bPBdS2PLq1HdALmIBQB99Iqhoh0raZkZnqjiU69RLAWLBevufQGPdf0ONQFbdhbW3NdAbpTqX7LTu38QCSh75m5pFSW5TWki7NS5zAa0ogaYgW1fWKzd-pvrN_ifESER2pxg_358gSvp1OitJEvijNEVMFLaXZcXhR8HZdh2XOBgyuSgi6n53VztJPr2bobxJETUXpqutL5ZChvjq2zhZRsUiIge6Cg0UuxZe5OGHwESM5xxT4byKWmCGFEC6pooC8IQ1MbBisUtmLXhlcHvCckqRwsY3avBkh97Rk3U8PxMWCnf_lO_x3_7WiJyTpoTtIOqG_0xYOMy-VdWSnEFHPFJGg5BkLxh65hsPJiXdSlBTBc6vF2dTDtnZ4xEXohFTFHH45bOo0MTxZjV-rQw97Qc62QsHBAn16F3YrVxrhqAB74-MIi9rIQfi22wXpjpad96CFYyWUU85Bh5LxhGNTsLtfp2Is4ISRPNZNoaKxi8A9_bgF3G85dBFaIy4EJ_lllbzU2D6EfrkuuAl_VFnm-ltaEEdvIsXO38CmpkOmSuxcBDjpR3xpj2h-nc5voy0]--></g></svg>