<?xml version="1.0" encoding="us-ascii" standalone="no"?><svg xmlns="http://www.w3.org/2000/svg" xmlns:xlink="http://www.w3.org/1999/xlink" contentStyleType="text/css" height="1346.4px" preserveAspectRatio="none" style="width:1958px;height:1346px;background:#FFFFFF;" version="1.1" viewBox="0 0 1958 1346" width="1958.4px" zoomAndPan="magnify"><defs/><g><rect fill="#FFFFFF" height="1155.7125" style="stroke:#181818;stroke-width:0.8000000000000002;" width="8" x="24.8" y="97.2266"/><rect fill="#FFFFFF" height="324.3938" style="stroke:#181818;stroke-width:0.8000000000000002;" width="8" x="196.8" y="97.2266"/><rect fill="#FFFFFF" height="806.2859" style="stroke:#181818;stroke-width:0.8000000000000002;" width="8" x="196.8" y="446.6531"/><rect fill="#FFFFFF" height="274.3281" style="stroke:#181818;stroke-width:0.8000000000000002;" width="8" x="365.6" y="122.2594"/><rect fill="#FFFFFF" height="580.9906" style="stroke:#181818;stroke-width:0.8000000000000002;" width="8" x="365.6" y="471.6859"/><rect fill="#FFFFFF" height="125.1641" style="stroke:#181818;stroke-width:0.8000000000000002;" width="8" x="365.6" y="1077.7094"/><rect fill="#FFFFFF" height="74.0656" style="stroke:#181818;stroke-width:0.8000000000000002;" width="8" x="510" y="147.2922"/><rect fill="#FFFFFF" height="24" style="stroke:#181818;stroke-width:0.8000000000000002;" width="8" x="622.4" y="172.325"/><rect fill="#FFFFFF" height="150.1969" style="stroke:#181818;stroke-width:0.8000000000000002;" width="8" x="752.4" y="246.3906"/><rect fill="#FFFFFF" height="198.1969" style="stroke:#181818;stroke-width:0.8000000000000002;" width="8" x="752.4" y="854.4797"/><rect fill="#FFFFFF" height="75.0984" style="stroke:#181818;stroke-width:0.8000000000000002;" width="8" x="752.4" y="1102.7422"/><rect fill="#FFFFFF" height="25.0328" style="stroke:#181818;stroke-width:0.8000000000000002;" width="8" x="928.4" y="271.4234"/><rect fill="#FFFFFF" height="25.0328" style="stroke:#181818;stroke-width:0.8000000000000002;" width="8" x="928.4" y="879.5125"/><rect fill="#FFFFFF" height="25.0328" style="stroke:#181818;stroke-width:0.8000000000000002;" width="8" x="1033.6" y="321.4891"/><rect fill="#FFFFFF" height="25.0328" style="stroke:#181818;stroke-width:0.8000000000000002;" width="8" x="1033.6" y="929.5781"/><rect fill="#FFFFFF" height="25.0328" style="stroke:#181818;stroke-width:0.8000000000000002;" width="8" x="1146" y="371.5547"/><rect fill="#FFFFFF" height="24" style="stroke:#181818;stroke-width:0.8000000000000002;" width="8" x="1146" y="1028.6766"/><rect fill="#FFFFFF" height="25.0328" style="stroke:#181818;stroke-width:0.8000000000000002;" width="8" x="1146" y="1127.775"/><rect fill="#FFFFFF" height="24" style="stroke:#181818;stroke-width:0.8000000000000002;" width="8" x="1248" y="496.7188"/><rect fill="#FFFFFF" height="109.4984" style="stroke:#181818;stroke-width:0.8000000000000002;" width="8" x="1329.2" y="545.7516"/><rect fill="#FFFFFF" height="24" style="stroke:#181818;stroke-width:0.8000000000000002;" width="8" x="1462.8" y="570.7844"/><rect fill="#FFFFFF" height="149.1641" style="stroke:#181818;stroke-width:0.8000000000000002;" width="8" x="1565.2" y="680.2828"/><rect fill="#FFFFFF" height="24" style="stroke:#181818;stroke-width:0.8000000000000002;" width="8" x="1728.4" y="730.3484"/><rect fill="#FFFFFF" height="25.0328" style="stroke:#181818;stroke-width:0.8000000000000002;" width="8" x="1838.8" y="779.3813"/><rect fill="#FFFFFF" height="24" style="stroke:#181818;stroke-width:0.8000000000000002;" width="8" x="1917.6" y="979.6438"/><line style="stroke:#181818;stroke-width:0.4000000000000001;stroke-dasharray:5.0,5.0;" x1="28.8" x2="28.8" y1="70.5938" y2="1267.3391"/><line style="stroke:#181818;stroke-width:0.4000000000000001;stroke-dasharray:5.0,5.0;" x1="200.4" x2="200.4" y1="70.5938" y2="1267.3391"/><line style="stroke:#181818;stroke-width:0.4000000000000001;stroke-dasharray:5.0,5.0;" x1="369.2" x2="369.2" y1="70.5938" y2="1267.3391"/><line style="stroke:#181818;stroke-width:0.4000000000000001;stroke-dasharray:5.0,5.0;" x1="514" x2="514" y1="70.5938" y2="1267.3391"/><line style="stroke:#181818;stroke-width:0.4000000000000001;stroke-dasharray:5.0,5.0;" x1="626" x2="626" y1="70.5938" y2="1267.3391"/><line style="stroke:#181818;stroke-width:0.4000000000000001;stroke-dasharray:5.0,5.0;" x1="756.4" x2="756.4" y1="70.5938" y2="1267.3391"/><line style="stroke:#181818;stroke-width:0.4000000000000001;stroke-dasharray:5.0,5.0;" x1="932" x2="932" y1="70.5938" y2="1267.3391"/><line style="stroke:#181818;stroke-width:0.4000000000000001;stroke-dasharray:5.0,5.0;" x1="1037.6" x2="1037.6" y1="70.5938" y2="1267.3391"/><line style="stroke:#181818;stroke-width:0.4000000000000001;stroke-dasharray:5.0,5.0;" x1="1149.6" x2="1149.6" y1="70.5938" y2="1267.3391"/><line style="stroke:#181818;stroke-width:0.4000000000000001;stroke-dasharray:5.0,5.0;" x1="1252" x2="1252" y1="70.5938" y2="1267.3391"/><line style="stroke:#181818;stroke-width:0.4000000000000001;stroke-dasharray:5.0,5.0;" x1="1332.8" x2="1332.8" y1="70.5938" y2="1267.3391"/><line style="stroke:#181818;stroke-width:0.4000000000000001;stroke-dasharray:5.0,5.0;" x1="1466.4" x2="1466.4" y1="70.5938" y2="1267.3391"/><line style="stroke:#181818;stroke-width:0.4000000000000001;stroke-dasharray:5.0,5.0;" x1="1568.8" x2="1568.8" y1="70.5938" y2="1267.3391"/><line style="stroke:#181818;stroke-width:0.4000000000000001;stroke-dasharray:5.0,5.0;" x1="1732.4" x2="1732.4" y1="70.5938" y2="1267.3391"/><line style="stroke:#181818;stroke-width:0.4000000000000001;stroke-dasharray:5.0,5.0;" x1="1842.8" x2="1842.8" y1="70.5938" y2="1267.3391"/><line style="stroke:#181818;stroke-width:0.4000000000000001;stroke-dasharray:5.0,5.0;" x1="1921.2" x2="1921.2" y1="70.5938" y2="1267.3391"/><text fill="#000000" font-family="sans-serif" font-size="11.2" lengthAdjust="spacing" textLength="44.8" x="4" y="67.7828">Manager</text><ellipse cx="28.8" cy="14.4969" fill="#E2E2F0" rx="6.4" ry="6.4" style="stroke:#181818;stroke-width:0.4000000000000001;"/><path d="M28.8,20.8969 L28.8,42.4969 M18.4,27.2969 L39.2,27.2969 M28.8,42.4969 L18.4,54.4969 M28.8,42.4969 L39.2,54.4969 " fill="none" style="stroke:#181818;stroke-width:0.4000000000000001;"/><text fill="#000000" font-family="sans-serif" font-size="11.2" lengthAdjust="spacing" textLength="44.8" x="4" y="1278.625">Manager</text><ellipse cx="28.8" cy="1288.2359" fill="#E2E2F0" rx="6.4" ry="6.4" style="stroke:#181818;stroke-width:0.4000000000000001;"/><path d="M28.8,1294.6359 L28.8,1316.2359 M18.4,1301.0359 L39.2,1301.0359 M28.8,1316.2359 L18.4,1328.2359 M28.8,1316.2359 L39.2,1328.2359 " fill="none" style="stroke:#181818;stroke-width:0.4000000000000001;"/><rect fill="#E2E2F0" height="40.9938" rx="2" ry="2" style="stroke:#181818;stroke-width:0.4000000000000001;" width="124" x="138.8" y="28.8"/><text fill="#000000" font-family="sans-serif" font-size="11.2" font-style="italic" lengthAdjust="spacing" textLength="76" x="162.8" y="46.4859">&#171;presentation&#187;</text><text fill="#000000" font-family="sans-serif" font-size="11.2" lengthAdjust="spacing" textLength="112.8" x="144.4" y="61.3828">CSVLoaderStudentsUI</text><rect fill="#E2E2F0" height="40.9938" rx="2" ry="2" style="stroke:#181818;stroke-width:0.4000000000000001;" width="124" x="138.8" y="1266.5391"/><text fill="#000000" font-family="sans-serif" font-size="11.2" font-style="italic" lengthAdjust="spacing" textLength="76" x="162.8" y="1284.225">&#171;presentation&#187;</text><text fill="#000000" font-family="sans-serif" font-size="11.2" lengthAdjust="spacing" textLength="112.8" x="144.4" y="1299.1219">CSVLoaderStudentsUI</text><rect fill="#E2E2F0" height="40.9938" rx="2" ry="2" style="stroke:#181818;stroke-width:0.4000000000000001;" width="164" x="287.6" y="28.8"/><text fill="#000000" font-family="sans-serif" font-size="11.2" font-style="italic" lengthAdjust="spacing" textLength="67.2" x="336" y="46.4859">&#171;application&#187;</text><text fill="#000000" font-family="sans-serif" font-size="11.2" lengthAdjust="spacing" textLength="152.8" x="293.2" y="61.3828">CSVLoaderStudentsController</text><rect fill="#E2E2F0" height="40.9938" rx="2" ry="2" style="stroke:#181818;stroke-width:0.4000000000000001;" width="164" x="287.6" y="1266.5391"/><text fill="#000000" font-family="sans-serif" font-size="11.2" font-style="italic" lengthAdjust="spacing" textLength="67.2" x="336" y="1284.225">&#171;application&#187;</text><text fill="#000000" font-family="sans-serif" font-size="11.2" lengthAdjust="spacing" textLength="152.8" x="293.2" y="1299.1219">CSVLoaderStudentsController</text><rect fill="#E2E2F0" height="40.9938" rx="2" ry="2" style="stroke:#181818;stroke-width:0.4000000000000001;" width="108.8" x="459.6" y="28.8"/><text fill="#000000" font-family="sans-serif" font-size="11.2" font-style="italic" lengthAdjust="spacing" textLength="71.2" x="478.4" y="46.4859">&#171;persistence&#187;</text><text fill="#000000" font-family="sans-serif" font-size="11.2" lengthAdjust="spacing" textLength="97.6" x="465.2" y="61.3828">PersistenceContext</text><rect fill="#E2E2F0" height="40.9938" rx="2" ry="2" style="stroke:#181818;stroke-width:0.4000000000000001;" width="108.8" x="459.6" y="1266.5391"/><text fill="#000000" font-family="sans-serif" font-size="11.2" font-style="italic" lengthAdjust="spacing" textLength="71.2" x="478.4" y="1284.225">&#171;persistence&#187;</text><text fill="#000000" font-family="sans-serif" font-size="11.2" lengthAdjust="spacing" textLength="97.6" x="465.2" y="1299.1219">PersistenceContext</text><rect fill="#E2E2F0" height="40.9938" rx="2" ry="2" style="stroke:#181818;stroke-width:0.4000000000000001;" width="100" x="576.4" y="28.8"/><text fill="#000000" font-family="sans-serif" font-size="11.2" font-style="italic" lengthAdjust="spacing" textLength="47.2" x="602.8" y="46.4859">&#171;factory&#187;</text><text fill="#000000" font-family="sans-serif" font-size="11.2" lengthAdjust="spacing" textLength="88.8" x="582" y="61.3828">Repositoryfactory</text><rect fill="#E2E2F0" height="40.9938" rx="2" ry="2" style="stroke:#181818;stroke-width:0.4000000000000001;" width="100" x="576.4" y="1266.5391"/><text fill="#000000" font-family="sans-serif" font-size="11.2" font-style="italic" lengthAdjust="spacing" textLength="47.2" x="602.8" y="1284.225">&#171;factory&#187;</text><text fill="#000000" font-family="sans-serif" font-size="11.2" lengthAdjust="spacing" textLength="88.8" x="582" y="1299.1219">Repositoryfactory</text><rect fill="#E2E2F0" height="40.9938" rx="2" ry="2" style="stroke:#181818;stroke-width:0.4000000000000001;" width="144" x="684.4" y="28.8"/><text fill="#000000" font-family="sans-serif" font-size="11.2" font-style="italic" lengthAdjust="spacing" textLength="48" x="732.4" y="46.4859">&#171;service&#187;</text><text fill="#000000" font-family="sans-serif" font-size="11.2" lengthAdjust="spacing" textLength="132.8" x="690" y="61.3828">BulkEnrollStudentsService</text><rect fill="#E2E2F0" height="40.9938" rx="2" ry="2" style="stroke:#181818;stroke-width:0.4000000000000001;" width="144" x="684.4" y="1266.5391"/><text fill="#000000" font-family="sans-serif" font-size="11.2" font-style="italic" lengthAdjust="spacing" textLength="48" x="732.4" y="1284.225">&#171;service&#187;</text><text fill="#000000" font-family="sans-serif" font-size="11.2" lengthAdjust="spacing" textLength="132.8" x="690" y="1299.1219">BulkEnrollStudentsService</text><text fill="#000000" font-family="sans-serif" font-size="11.2" font-style="italic" lengthAdjust="spacing" textLength="63.2" x="898.4" y="52.8859">&#171;repository&#187;</text><text fill="#000000" font-family="sans-serif" font-size="11.2" lengthAdjust="spacing" textLength="93.6" x="883.2" y="67.7828">StudentRepository</text><path d="M918,12 C918,4 932.4,4 932.4,4 C932.4,4 946.8,4 946.8,12 L946.8,32.8 C946.8,40.8 932.4,40.8 932.4,40.8 C932.4,40.8 918,40.8 918,32.8 L918,12 " fill="#E2E2F0" style="stroke:#181818;stroke-width:1.2000000000000002;"/><path d="M918,12 C918,20 932.4,20 932.4,20 C932.4,20 946.8,20 946.8,12 " fill="none" style="stroke:#181818;stroke-width:1.2000000000000002;"/><text fill="#000000" font-family="sans-serif" font-size="11.2" font-style="italic" lengthAdjust="spacing" textLength="63.2" x="898.4" y="1278.625">&#171;repository&#187;</text><text fill="#000000" font-family="sans-serif" font-size="11.2" lengthAdjust="spacing" textLength="93.6" x="883.2" y="1293.5219">StudentRepository</text><path d="M918,1304.3328 C918,1296.3328 932.4,1296.3328 932.4,1296.3328 C932.4,1296.3328 946.8,1296.3328 946.8,1304.3328 L946.8,1325.1328 C946.8,1333.1328 932.4,1333.1328 932.4,1333.1328 C932.4,1333.1328 918,1333.1328 918,1325.1328 L918,1304.3328 " fill="#E2E2F0" style="stroke:#181818;stroke-width:1.2000000000000002;"/><path d="M918,1304.3328 C918,1312.3328 932.4,1312.3328 932.4,1312.3328 C932.4,1312.3328 946.8,1312.3328 946.8,1304.3328 " fill="none" style="stroke:#181818;stroke-width:1.2000000000000002;"/><text fill="#000000" font-family="sans-serif" font-size="11.2" font-style="italic" lengthAdjust="spacing" textLength="63.2" x="1003.6" y="52.8859">&#171;repository&#187;</text><text fill="#000000" font-family="sans-serif" font-size="11.2" lengthAdjust="spacing" textLength="91.2" x="989.6" y="67.7828">CourseRepository</text><path d="M1023.2,12 C1023.2,4 1037.6,4 1037.6,4 C1037.6,4 1052,4 1052,12 L1052,32.8 C1052,40.8 1037.6,40.8 1037.6,40.8 C1037.6,40.8 1023.2,40.8 1023.2,32.8 L1023.2,12 " fill="#E2E2F0" style="stroke:#181818;stroke-width:1.2000000000000002;"/><path d="M1023.2,12 C1023.2,20 1037.6,20 1037.6,20 C1037.6,20 1052,20 1052,12 " fill="none" style="stroke:#181818;stroke-width:1.2000000000000002;"/><text fill="#000000" font-family="sans-serif" font-size="11.2" font-style="italic" lengthAdjust="spacing" textLength="63.2" x="1003.6" y="1278.625">&#171;repository&#187;</text><text fill="#000000" font-family="sans-serif" font-size="11.2" lengthAdjust="spacing" textLength="91.2" x="989.6" y="1293.5219">CourseRepository</text><path d="M1023.2,1304.3328 C1023.2,1296.3328 1037.6,1296.3328 1037.6,1296.3328 C1037.6,1296.3328 1052,1296.3328 1052,1304.3328 L1052,1325.1328 C1052,1333.1328 1037.6,1333.1328 1037.6,1333.1328 C1037.6,1333.1328 1023.2,1333.1328 1023.2,1325.1328 L1023.2,1304.3328 " fill="#E2E2F0" style="stroke:#181818;stroke-width:1.2000000000000002;"/><path d="M1023.2,1304.3328 C1023.2,1312.3328 1037.6,1312.3328 1037.6,1312.3328 C1037.6,1312.3328 1052,1312.3328 1052,1304.3328 " fill="none" style="stroke:#181818;stroke-width:1.2000000000000002;"/><text fill="#000000" font-family="sans-serif" font-size="11.2" font-style="italic" lengthAdjust="spacing" textLength="63.2" x="1116" y="52.8859">&#171;repository&#187;</text><text fill="#000000" font-family="sans-serif" font-size="11.2" lengthAdjust="spacing" textLength="108" x="1093.6" y="67.7828">EnrollmentRepository</text><path d="M1135.6,12 C1135.6,4 1150,4 1150,4 C1150,4 1164.4,4 1164.4,12 L1164.4,32.8 C1164.4,40.8 1150,40.8 1150,40.8 C1150,40.8 1135.6,40.8 1135.6,32.8 L1135.6,12 " fill="#E2E2F0" style="stroke:#181818;stroke-width:1.2000000000000002;"/><path d="M1135.6,12 C1135.6,20 1150,20 1150,20 C1150,20 1164.4,20 1164.4,12 " fill="none" style="stroke:#181818;stroke-width:1.2000000000000002;"/><text fill="#000000" font-family="sans-serif" font-size="11.2" font-style="italic" lengthAdjust="spacing" textLength="63.2" x="1116" y="1278.625">&#171;repository&#187;</text><text fill="#000000" font-family="sans-serif" font-size="11.2" lengthAdjust="spacing" textLength="108" x="1093.6" y="1293.5219">EnrollmentRepository</text><path d="M1135.6,1304.3328 C1135.6,1296.3328 1150,1296.3328 1150,1296.3328 C1150,1296.3328 1164.4,1296.3328 1164.4,1304.3328 L1164.4,1325.1328 C1164.4,1333.1328 1150,1333.1328 1150,1333.1328 C1150,1333.1328 1135.6,1333.1328 1135.6,1325.1328 L1135.6,1304.3328 " fill="#E2E2F0" style="stroke:#181818;stroke-width:1.2000000000000002;"/><path d="M1135.6,1304.3328 C1135.6,1312.3328 1150,1312.3328 1150,1312.3328 C1150,1312.3328 1164.4,1312.3328 1164.4,1304.3328 " fill="none" style="stroke:#181818;stroke-width:1.2000000000000002;"/><rect fill="#E2E2F0" height="40.9938" rx="2" ry="2" style="stroke:#181818;stroke-width:0.4000000000000001;" width="75.2" x="1214.4" y="28.8"/><text fill="#000000" font-family="sans-serif" font-size="11.2" font-style="italic" lengthAdjust="spacing" textLength="64" x="1220" y="46.4859">&#171;enum,utils&#187;</text><text fill="#000000" font-family="sans-serif" font-size="11.2" lengthAdjust="spacing" textLength="59.2" x="1222.4" y="61.3828">CSVHeader</text><rect fill="#E2E2F0" height="40.9938" rx="2" ry="2" style="stroke:#181818;stroke-width:0.4000000000000001;" width="75.2" x="1214.4" y="1266.5391"/><text fill="#000000" font-family="sans-serif" font-size="11.2" font-style="italic" lengthAdjust="spacing" textLength="64" x="1220" y="1284.225">&#171;enum,utils&#187;</text><text fill="#000000" font-family="sans-serif" font-size="11.2" lengthAdjust="spacing" textLength="59.2" x="1222.4" y="1299.1219">CSVHeader</text><rect fill="#E2E2F0" height="40.9938" rx="2" ry="2" style="stroke:#181818;stroke-width:0.4000000000000001;" width="71.2" x="1297.6" y="28.8"/><text fill="#000000" font-family="sans-serif" font-size="11.2" font-style="italic" lengthAdjust="spacing" textLength="32.8" x="1316.8" y="46.4859">&#171;utils&#187;</text><text fill="#000000" font-family="sans-serif" font-size="11.2" lengthAdjust="spacing" textLength="60" x="1303.2" y="61.3828">CSVReader</text><rect fill="#E2E2F0" height="40.9938" rx="2" ry="2" style="stroke:#181818;stroke-width:0.4000000000000001;" width="71.2" x="1297.6" y="1266.5391"/><text fill="#000000" font-family="sans-serif" font-size="11.2" font-style="italic" lengthAdjust="spacing" textLength="32.8" x="1316.8" y="1284.225">&#171;utils&#187;</text><text fill="#000000" font-family="sans-serif" font-size="11.2" lengthAdjust="spacing" textLength="60" x="1303.2" y="1299.1219">CSVReader</text><rect fill="#E2E2F0" height="26.0969" rx="2" ry="2" style="stroke:#181818;stroke-width:0.4000000000000001;" width="90.4" x="1421.6" y="43.6969"/><text fill="#000000" font-family="sans-serif" font-size="11.2" lengthAdjust="spacing" textLength="79.2" x="1427.2" y="61.3828">FileInputStream</text><rect fill="#E2E2F0" height="26.0969" rx="2" ry="2" style="stroke:#181818;stroke-width:0.4000000000000001;" width="90.4" x="1421.6" y="1266.5391"/><text fill="#000000" font-family="sans-serif" font-size="11.2" lengthAdjust="spacing" textLength="79.2" x="1427.2" y="1284.225">FileInputStream</text><rect fill="#E2E2F0" height="40.9938" rx="2" ry="2" style="stroke:#181818;stroke-width:0.4000000000000001;" width="98.4" x="1520" y="28.8"/><text fill="#000000" font-family="sans-serif" font-size="11.2" font-style="italic" lengthAdjust="spacing" textLength="67.2" x="1535.6" y="46.4859">&#171;application&#187;</text><text fill="#000000" font-family="sans-serif" font-size="11.2" lengthAdjust="spacing" textLength="87.2" x="1525.6" y="61.3828">EnrollmentParser</text><rect fill="#E2E2F0" height="40.9938" rx="2" ry="2" style="stroke:#181818;stroke-width:0.4000000000000001;" width="98.4" x="1520" y="1266.5391"/><text fill="#000000" font-family="sans-serif" font-size="11.2" font-style="italic" lengthAdjust="spacing" textLength="67.2" x="1535.6" y="1284.225">&#171;application&#187;</text><text fill="#000000" font-family="sans-serif" font-size="11.2" lengthAdjust="spacing" textLength="87.2" x="1525.6" y="1299.1219">EnrollmentParser</text><rect fill="#E2E2F0" height="40.9938" rx="2" ry="2" style="stroke:#181818;stroke-width:0.4000000000000001;" width="128" x="1668.4" y="28.8"/><text fill="#000000" font-family="sans-serif" font-size="11.2" font-style="italic" lengthAdjust="spacing" textLength="49.6" x="1707.6" y="46.4859">&#171;domain&#187;</text><text fill="#000000" font-family="sans-serif" font-size="11.2" lengthAdjust="spacing" textLength="116.8" x="1674" y="61.3828">MecanographicNumber</text><rect fill="#E2E2F0" height="40.9938" rx="2" ry="2" style="stroke:#181818;stroke-width:0.4000000000000001;" width="128" x="1668.4" y="1266.5391"/><text fill="#000000" font-family="sans-serif" font-size="11.2" font-style="italic" lengthAdjust="spacing" textLength="49.6" x="1707.6" y="1284.225">&#171;domain&#187;</text><text fill="#000000" font-family="sans-serif" font-size="11.2" lengthAdjust="spacing" textLength="116.8" x="1674" y="1299.1219">MecanographicNumber</text><rect fill="#E2E2F0" height="40.9938" rx="2" ry="2" style="stroke:#181818;stroke-width:0.4000000000000001;" width="76.8" x="1804.4" y="28.8"/><text fill="#000000" font-family="sans-serif" font-size="11.2" font-style="italic" lengthAdjust="spacing" textLength="49.6" x="1818" y="46.4859">&#171;domain&#187;</text><text fill="#000000" font-family="sans-serif" font-size="11.2" lengthAdjust="spacing" textLength="65.6" x="1810" y="61.3828">CourseName</text><rect fill="#E2E2F0" height="40.9938" rx="2" ry="2" style="stroke:#181818;stroke-width:0.4000000000000001;" width="76.8" x="1804.4" y="1266.5391"/><text fill="#000000" font-family="sans-serif" font-size="11.2" font-style="italic" lengthAdjust="spacing" textLength="49.6" x="1818" y="1284.225">&#171;domain&#187;</text><text fill="#000000" font-family="sans-serif" font-size="11.2" lengthAdjust="spacing" textLength="65.6" x="1810" y="1299.1219">CourseName</text><rect fill="#E2E2F0" height="40.9938" rx="2" ry="2" style="stroke:#181818;stroke-width:0.4000000000000001;" width="64.8" x="1889.2" y="28.8"/><text fill="#000000" font-family="sans-serif" font-size="11.2" font-style="italic" lengthAdjust="spacing" textLength="49.6" x="1896.8" y="46.4859">&#171;domain&#187;</text><text fill="#000000" font-family="sans-serif" font-size="11.2" lengthAdjust="spacing" textLength="53.6" x="1894.8" y="61.3828">Enrollment</text><rect fill="#E2E2F0" height="40.9938" rx="2" ry="2" style="stroke:#181818;stroke-width:0.4000000000000001;" width="64.8" x="1889.2" y="1266.5391"/><text fill="#000000" font-family="sans-serif" font-size="11.2" font-style="italic" lengthAdjust="spacing" textLength="49.6" x="1896.8" y="1284.225">&#171;domain&#187;</text><text fill="#000000" font-family="sans-serif" font-size="11.2" lengthAdjust="spacing" textLength="53.6" x="1894.8" y="1299.1219">Enrollment</text><rect fill="#FFFFFF" height="1155.7125" style="stroke:#181818;stroke-width:0.8000000000000002;" width="8" x="24.8" y="97.2266"/><rect fill="#FFFFFF" height="324.3938" style="stroke:#181818;stroke-width:0.8000000000000002;" width="8" x="196.8" y="97.2266"/><rect fill="#FFFFFF" height="806.2859" style="stroke:#181818;stroke-width:0.8000000000000002;" width="8" x="196.8" y="446.6531"/><rect fill="#FFFFFF" height="274.3281" style="stroke:#181818;stroke-width:0.8000000000000002;" width="8" x="365.6" y="122.2594"/><rect fill="#FFFFFF" height="580.9906" style="stroke:#181818;stroke-width:0.8000000000000002;" width="8" x="365.6" y="471.6859"/><rect fill="#FFFFFF" height="125.1641" style="stroke:#181818;stroke-width:0.8000000000000002;" width="8" x="365.6" y="1077.7094"/><rect fill="#FFFFFF" height="74.0656" style="stroke:#181818;stroke-width:0.8000000000000002;" width="8" x="510" y="147.2922"/><rect fill="#FFFFFF" height="24" style="stroke:#181818;stroke-width:0.8000000000000002;" width="8" x="622.4" y="172.325"/><rect fill="#FFFFFF" height="150.1969" style="stroke:#181818;stroke-width:0.8000000000000002;" width="8" x="752.4" y="246.3906"/><rect fill="#FFFFFF" height="198.1969" style="stroke:#181818;stroke-width:0.8000000000000002;" width="8" x="752.4" y="854.4797"/><rect fill="#FFFFFF" height="75.0984" style="stroke:#181818;stroke-width:0.8000000000000002;" width="8" x="752.4" y="1102.7422"/><rect fill="#FFFFFF" height="25.0328" style="stroke:#181818;stroke-width:0.8000000000000002;" width="8" x="928.4" y="271.4234"/><rect fill="#FFFFFF" height="25.0328" style="stroke:#181818;stroke-width:0.8000000000000002;" width="8" x="928.4" y="879.5125"/><rect fill="#FFFFFF" height="25.0328" style="stroke:#181818;stroke-width:0.8000000000000002;" width="8" x="1033.6" y="321.4891"/><rect fill="#FFFFFF" height="25.0328" style="stroke:#181818;stroke-width:0.8000000000000002;" width="8" x="1033.6" y="929.5781"/><rect fill="#FFFFFF" height="25.0328" style="stroke:#181818;stroke-width:0.8000000000000002;" width="8" x="1146" y="371.5547"/><rect fill="#FFFFFF" height="24" style="stroke:#181818;stroke-width:0.8000000000000002;" width="8" x="1146" y="1028.6766"/><rect fill="#FFFFFF" height="25.0328" style="stroke:#181818;stroke-width:0.8000000000000002;" width="8" x="1146" y="1127.775"/><rect fill="#FFFFFF" height="24" style="stroke:#181818;stroke-width:0.8000000000000002;" width="8" x="1248" y="496.7188"/><rect fill="#FFFFFF" height="109.4984" style="stroke:#181818;stroke-width:0.8000000000000002;" width="8" x="1329.2" y="545.7516"/><rect fill="#FFFFFF" height="24" style="stroke:#181818;stroke-width:0.8000000000000002;" width="8" x="1462.8" y="570.7844"/><rect fill="#FFFFFF" height="149.1641" style="stroke:#181818;stroke-width:0.8000000000000002;" width="8" x="1565.2" y="680.2828"/><rect fill="#FFFFFF" height="24" style="stroke:#181818;stroke-width:0.8000000000000002;" width="8" x="1728.4" y="730.3484"/><rect fill="#FFFFFF" height="25.0328" style="stroke:#181818;stroke-width:0.8000000000000002;" width="8" x="1838.8" y="779.3813"/><rect fill="#FFFFFF" height="24" style="stroke:#181818;stroke-width:0.8000000000000002;" width="8" x="1917.6" y="979.6438"/><polygon fill="#181818" points="187.2,94.0266,195.2,97.2266,187.2,100.4266,190.4,97.2266" style="stroke:#181818;stroke-width:0.8000000000000002;"/><line style="stroke:#181818;stroke-width:0.8000000000000002;" x1="32.8" x2="192" y1="97.2266" y2="97.2266"/><text fill="#000000" font-family="sans-serif" font-size="10.4" lengthAdjust="spacing" textLength="100.8" x="38.4" y="93.0164">Import csv student file</text><polygon fill="#181818" points="356,119.0594,364,122.2594,356,125.4594,359.2,122.2594" style="stroke:#181818;stroke-width:0.8000000000000002;"/><line style="stroke:#181818;stroke-width:0.8000000000000002;" x1="204.8" x2="360.8" y1="122.2594" y2="122.2594"/><text fill="#000000" font-family="sans-serif" font-size="10.4" lengthAdjust="spacing" textLength="28.8" x="210.4" y="118.0492">create</text><polygon fill="#181818" points="500.4,144.0922,508.4,147.2922,500.4,150.4922,503.6,147.2922" style="stroke:#181818;stroke-width:0.8000000000000002;"/><line style="stroke:#181818;stroke-width:0.8000000000000002;" x1="373.6" x2="505.2" y1="147.2922" y2="147.2922"/><text fill="#000000" font-family="sans-serif" font-size="10.4" lengthAdjust="spacing" textLength="60" x="379.2" y="143.082">repositories()</text><polygon fill="#181818" points="612.8,169.125,620.8,172.325,612.8,175.525,616,172.325" style="stroke:#181818;stroke-width:0.8000000000000002;"/><line style="stroke:#181818;stroke-width:0.8000000000000002;" x1="518" x2="617.6" y1="172.325" y2="172.325"/><text fill="#000000" font-family="sans-serif" font-size="10.4" lengthAdjust="spacing" textLength="28.8" x="523.6" y="168.1148">create</text><polygon fill="#181818" points="382.4,218.1578,374.4,221.3578,382.4,224.5578,379.2,221.3578" style="stroke:#181818;stroke-width:0.8000000000000002;"/><line style="stroke:#181818;stroke-width:0.8000000000000002;" x1="377.6" x2="513.2" y1="221.3578" y2="221.3578"/><text fill="#000000" font-family="sans-serif" font-size="10.4" lengthAdjust="spacing" textLength="31.2" x="387.2" y="217.1477">factory</text><polygon fill="#181818" points="742.8,243.1906,750.8,246.3906,742.8,249.5906,746,246.3906" style="stroke:#181818;stroke-width:0.8000000000000002;"/><line style="stroke:#181818;stroke-width:0.8000000000000002;" x1="373.6" x2="747.6" y1="246.3906" y2="246.3906"/><text fill="#000000" font-family="sans-serif" font-size="10.4" lengthAdjust="spacing" textLength="66.4" x="379.2" y="242.1805">create(factory)</text><polygon fill="#181818" points="918.8,268.2234,926.8,271.4234,918.8,274.6234,922,271.4234" style="stroke:#181818;stroke-width:0.8000000000000002;"/><line style="stroke:#181818;stroke-width:0.8000000000000002;" x1="760.4" x2="923.6" y1="271.4234" y2="271.4234"/><text fill="#000000" font-family="sans-serif" font-size="10.4" lengthAdjust="spacing" textLength="28.8" x="766" y="267.2133">create</text><polygon fill="#181818" points="769.2,293.2563,761.2,296.4563,769.2,299.6563,766,296.4563" style="stroke:#181818;stroke-width:0.8000000000000002;"/><line style="stroke:#181818;stroke-width:0.8000000000000002;" x1="764.4" x2="931.6" y1="296.4563" y2="296.4563"/><text fill="#000000" font-family="sans-serif" font-size="10.4" lengthAdjust="spacing" textLength="84" x="774" y="292.2461">studentRepository</text><polygon fill="#181818" points="1024,318.2891,1032,321.4891,1024,324.6891,1027.2,321.4891" style="stroke:#181818;stroke-width:0.8000000000000002;"/><line style="stroke:#181818;stroke-width:0.8000000000000002;" x1="760.4" x2="1028.8" y1="321.4891" y2="321.4891"/><text fill="#000000" font-family="sans-serif" font-size="10.4" lengthAdjust="spacing" textLength="28.8" x="766" y="317.2789">create</text><polygon fill="#181818" points="769.2,343.3219,761.2,346.5219,769.2,349.7219,766,346.5219" style="stroke:#181818;stroke-width:0.8000000000000002;"/><line style="stroke:#181818;stroke-width:0.8000000000000002;" x1="764.4" x2="1036.8" y1="346.5219" y2="346.5219"/><text fill="#000000" font-family="sans-serif" font-size="10.4" lengthAdjust="spacing" textLength="80.8" x="774" y="342.3117">courseRepository</text><polygon fill="#181818" points="1136.4,368.3547,1144.4,371.5547,1136.4,374.7547,1139.6,371.5547" style="stroke:#181818;stroke-width:0.8000000000000002;"/><line style="stroke:#181818;stroke-width:0.8000000000000002;" x1="760.4" x2="1141.2" y1="371.5547" y2="371.5547"/><text fill="#000000" font-family="sans-serif" font-size="10.4" lengthAdjust="spacing" textLength="28.8" x="766" y="367.3445">create</text><polygon fill="#181818" points="765.2,393.3875,757.2,396.5875,765.2,399.7875,762,396.5875" style="stroke:#181818;stroke-width:0.8000000000000002;"/><line style="stroke:#181818;stroke-width:0.8000000000000002;" x1="760.4" x2="1149.2" y1="396.5875" y2="396.5875"/><text fill="#000000" font-family="sans-serif" font-size="10.4" lengthAdjust="spacing" textLength="97.6" x="770" y="392.3773">enrollmentRepository</text><polygon fill="#181818" points="41.6,418.4203,33.6,421.6203,41.6,424.8203,38.4,421.6203" style="stroke:#181818;stroke-width:0.8000000000000002;"/><line style="stroke:#181818;stroke-width:0.8000000000000002;stroke-dasharray:2.0,2.0;" x1="36.8" x2="200" y1="421.6203" y2="421.6203"/><text fill="#000000" font-family="sans-serif" font-size="10.4" lengthAdjust="spacing" textLength="140" x="46.4" y="417.4102">asks manager to type file path</text><polygon fill="#181818" points="187.2,443.4531,195.2,446.6531,187.2,449.8531,190.4,446.6531" style="stroke:#181818;stroke-width:0.8000000000000002;"/><line style="stroke:#181818;stroke-width:0.8000000000000002;" x1="32.8" x2="192" y1="446.6531" y2="446.6531"/><text fill="#000000" font-family="sans-serif" font-size="10.4" lengthAdjust="spacing" textLength="64.8" x="38.4" y="442.443">types file path</text><polygon fill="#181818" points="356,468.4859,364,471.6859,356,474.8859,359.2,471.6859" style="stroke:#181818;stroke-width:0.8000000000000002;"/><line style="stroke:#181818;stroke-width:0.8000000000000002;" x1="204.8" x2="360.8" y1="471.6859" y2="471.6859"/><text fill="#000000" font-family="sans-serif" font-size="10.4" lengthAdjust="spacing" textLength="32" x="210.4" y="467.4758">file(file)</text><polygon fill="#181818" points="1238.4,493.5188,1246.4,496.7188,1238.4,499.9188,1241.6,496.7188" style="stroke:#181818;stroke-width:0.8000000000000002;"/><line style="stroke:#181818;stroke-width:0.8000000000000002;" x1="373.6" x2="1243.2" y1="496.7188" y2="496.7188"/><text fill="#000000" font-family="sans-serif" font-size="10.4" lengthAdjust="spacing" textLength="134.4" x="379.2" y="492.5086">CSVHeader.ENROLLMENTS</text><polygon fill="#181818" points="1319.6,542.5516,1327.6,545.7516,1319.6,548.9516,1322.8,545.7516" style="stroke:#181818;stroke-width:0.8000000000000002;"/><line style="stroke:#181818;stroke-width:0.8000000000000002;" x1="373.6" x2="1324.4" y1="545.7516" y2="545.7516"/><text fill="#000000" font-family="sans-serif" font-size="10.4" lengthAdjust="spacing" textLength="198.4" x="379.2" y="541.5414">readCSV(file,CSVHeader.ENROLLMENTS)</text><polygon fill="#181818" points="1453.2,567.5844,1461.2,570.7844,1453.2,573.9844,1456.4,570.7844" style="stroke:#181818;stroke-width:0.8000000000000002;"/><line style="stroke:#181818;stroke-width:0.8000000000000002;" x1="1337.2" x2="1458" y1="570.7844" y2="570.7844"/><text fill="#000000" font-family="sans-serif" font-size="10.4" lengthAdjust="spacing" textLength="28.8" x="1342.8" y="566.5742">create</text><line style="stroke:#181818;stroke-width:0.8000000000000002;" x1="1337.2" x2="1370.8" y1="619.8172" y2="619.8172"/><line style="stroke:#181818;stroke-width:0.8000000000000002;" x1="1370.8" x2="1370.8" y1="619.8172" y2="630.2172"/><line style="stroke:#181818;stroke-width:0.8000000000000002;" x1="1338" x2="1370.8" y1="630.2172" y2="630.2172"/><polygon fill="#181818" points="1346,627.0172,1338,630.2172,1346,633.4172,1342.8,630.2172" style="stroke:#181818;stroke-width:0.8000000000000002;"/><text fill="#000000" font-family="sans-serif" font-size="10.4" lengthAdjust="spacing" textLength="114.4" x="1342.8" y="615.607">readCSV(stream,header)</text><polygon fill="#181818" points="382.4,652.05,374.4,655.25,382.4,658.45,379.2,655.25" style="stroke:#181818;stroke-width:0.8000000000000002;"/><line style="stroke:#181818;stroke-width:0.8000000000000002;" x1="377.6" x2="1332.4" y1="655.25" y2="655.25"/><text fill="#000000" font-family="sans-serif" font-size="10.4" lengthAdjust="spacing" textLength="95.2" x="387.2" y="651.0398">ListOfArrayOfStrings</text><polygon fill="#181818" points="1555.6,677.0828,1563.6,680.2828,1555.6,683.4828,1558.8,680.2828" style="stroke:#181818;stroke-width:0.8000000000000002;"/><line style="stroke:#181818;stroke-width:0.8000000000000002;" x1="373.6" x2="1560.4" y1="680.2828" y2="680.2828"/><text fill="#000000" font-family="sans-serif" font-size="10.4" lengthAdjust="spacing" textLength="28.8" x="379.2" y="676.0727">create</text><polygon fill="#181818" points="1555.6,702.1156,1563.6,705.3156,1555.6,708.5156,1558.8,705.3156" style="stroke:#181818;stroke-width:0.8000000000000002;"/><line style="stroke:#181818;stroke-width:0.8000000000000002;" x1="373.6" x2="1560.4" y1="705.3156" y2="705.3156"/><text fill="#000000" font-family="sans-serif" font-size="10.4" lengthAdjust="spacing" textLength="127.2" x="379.2" y="701.1055">parse(ListOfArrayOfStrings)</text><polygon fill="#181818" points="1718.8,727.1484,1726.8,730.3484,1718.8,733.5484,1722,730.3484" style="stroke:#181818;stroke-width:0.8000000000000002;"/><line style="stroke:#181818;stroke-width:0.8000000000000002;" x1="1573.2" x2="1723.6" y1="730.3484" y2="730.3484"/><text fill="#000000" font-family="sans-serif" font-size="10.4" lengthAdjust="spacing" textLength="140" x="1578.8" y="726.1383">create(mecanographicnumber)</text><polygon fill="#181818" points="1829.2,776.1813,1837.2,779.3813,1829.2,782.5813,1832.4,779.3813" style="stroke:#181818;stroke-width:0.8000000000000002;"/><line style="stroke:#181818;stroke-width:0.8000000000000002;" x1="1573.2" x2="1834" y1="779.3813" y2="779.3813"/><text fill="#000000" font-family="sans-serif" font-size="10.4" lengthAdjust="spacing" textLength="98.4" x="1578.8" y="775.1711">valueOf(courseName)</text><polygon fill="#181818" points="1582,801.2141,1574,804.4141,1582,807.6141,1578.8,804.4141" style="stroke:#181818;stroke-width:0.8000000000000002;"/><line style="stroke:#181818;stroke-width:0.8000000000000002;" x1="1577.2" x2="1842" y1="804.4141" y2="804.4141"/><text fill="#000000" font-family="sans-serif" font-size="10.4" lengthAdjust="spacing" textLength="58.4" x="1586.8" y="800.2039">courseName</text><polygon fill="#181818" points="382.4,826.2469,374.4,829.4469,382.4,832.6469,379.2,829.4469" style="stroke:#181818;stroke-width:0.8000000000000002;"/><line style="stroke:#181818;stroke-width:0.8000000000000002;" x1="377.6" x2="1568.4" y1="829.4469" y2="829.4469"/><text fill="#000000" font-family="sans-serif" font-size="10.4" lengthAdjust="spacing" textLength="48" x="387.2" y="825.2367">parsedList</text><polygon fill="#181818" points="742.8,851.2797,750.8,854.4797,742.8,857.6797,746,854.4797" style="stroke:#181818;stroke-width:0.8000000000000002;"/><line style="stroke:#181818;stroke-width:0.8000000000000002;" x1="373.6" x2="747.6" y1="854.4797" y2="854.4797"/><text fill="#000000" font-family="sans-serif" font-size="10.4" lengthAdjust="spacing" textLength="100" x="379.2" y="850.2695">bulkEnroll(parsedList)</text><polygon fill="#181818" points="918.8,876.3125,926.8,879.5125,918.8,882.7125,922,879.5125" style="stroke:#181818;stroke-width:0.8000000000000002;"/><line style="stroke:#181818;stroke-width:0.8000000000000002;" x1="760.4" x2="923.6" y1="879.5125" y2="879.5125"/><text fill="#000000" font-family="sans-serif" font-size="10.4" lengthAdjust="spacing" textLength="152.8" x="766" y="875.3023">ofIdentity(mecanographicnumber)</text><polygon fill="#181818" points="769.2,901.3453,761.2,904.5453,769.2,907.7453,766,904.5453" style="stroke:#181818;stroke-width:0.8000000000000002;"/><line style="stroke:#181818;stroke-width:0.8000000000000002;" x1="764.4" x2="931.6" y1="904.5453" y2="904.5453"/><text fill="#000000" font-family="sans-serif" font-size="10.4" lengthAdjust="spacing" textLength="34.4" x="774" y="900.3352">student</text><polygon fill="#181818" points="1024,926.3781,1032,929.5781,1024,932.7781,1027.2,929.5781" style="stroke:#181818;stroke-width:0.8000000000000002;"/><line style="stroke:#181818;stroke-width:0.8000000000000002;" x1="760.4" x2="1028.8" y1="929.5781" y2="929.5781"/><text fill="#000000" font-family="sans-serif" font-size="10.4" lengthAdjust="spacing" textLength="153.6" x="766" y="925.368">findCourseByName(courseName)</text><polygon fill="#181818" points="769.2,951.4109,761.2,954.6109,769.2,957.8109,766,954.6109" style="stroke:#181818;stroke-width:0.8000000000000002;"/><line style="stroke:#181818;stroke-width:0.8000000000000002;" x1="764.4" x2="1036.8" y1="954.6109" y2="954.6109"/><text fill="#000000" font-family="sans-serif" font-size="10.4" lengthAdjust="spacing" textLength="31.2" x="774" y="950.4008">course</text><polygon fill="#181818" points="1908,976.4438,1916,979.6438,1908,982.8438,1911.2,979.6438" style="stroke:#181818;stroke-width:0.8000000000000002;"/><line style="stroke:#181818;stroke-width:0.8000000000000002;" x1="760.4" x2="1912.8" y1="979.6438" y2="979.6438"/><text fill="#000000" font-family="sans-serif" font-size="10.4" lengthAdjust="spacing" textLength="104" x="766" y="975.4336">create(course,student)</text><polygon fill="#181818" points="1136.4,1025.4766,1144.4,1028.6766,1136.4,1031.8766,1139.6,1028.6766" style="stroke:#181818;stroke-width:0.8000000000000002;"/><line style="stroke:#181818;stroke-width:0.8000000000000002;" x1="760.4" x2="1141.2" y1="1028.6766" y2="1028.6766"/><text fill="#000000" font-family="sans-serif" font-size="10.4" lengthAdjust="spacing" textLength="75.2" x="766" y="1024.4664">save(enrollment)</text><polygon fill="#181818" points="356,1074.5094,364,1077.7094,356,1080.9094,359.2,1077.7094" style="stroke:#181818;stroke-width:0.8000000000000002;"/><line style="stroke:#181818;stroke-width:0.8000000000000002;" x1="204.8" x2="360.8" y1="1077.7094" y2="1077.7094"/><text fill="#000000" font-family="sans-serif" font-size="10.4" lengthAdjust="spacing" textLength="145.6" x="210.4" y="1073.4992">listAllEnrollmentsInAllCourses()</text><polygon fill="#181818" points="742.8,1099.5422,750.8,1102.7422,742.8,1105.9422,746,1102.7422" style="stroke:#181818;stroke-width:0.8000000000000002;"/><line style="stroke:#181818;stroke-width:0.8000000000000002;" x1="373.6" x2="747.6" y1="1102.7422" y2="1102.7422"/><text fill="#000000" font-family="sans-serif" font-size="10.4" lengthAdjust="spacing" textLength="145.6" x="379.2" y="1098.532">listAllEnrollmentsInAllCourses()</text><polygon fill="#181818" points="1136.4,1124.575,1144.4,1127.775,1136.4,1130.975,1139.6,1127.775" style="stroke:#181818;stroke-width:0.8000000000000002;"/><line style="stroke:#181818;stroke-width:0.8000000000000002;" x1="760.4" x2="1141.2" y1="1127.775" y2="1127.775"/><text fill="#000000" font-family="sans-serif" font-size="10.4" lengthAdjust="spacing" textLength="34.4" x="766" y="1123.5648">findAll()</text><polygon fill="#181818" points="769.2,1149.6078,761.2,1152.8078,769.2,1156.0078,766,1152.8078" style="stroke:#181818;stroke-width:0.8000000000000002;"/><line style="stroke:#181818;stroke-width:0.8000000000000002;" x1="764.4" x2="1149.2" y1="1152.8078" y2="1152.8078"/><text fill="#000000" font-family="sans-serif" font-size="10.4" lengthAdjust="spacing" textLength="53.6" x="774" y="1148.5977">enrollments</text><polygon fill="#181818" points="382.4,1174.6406,374.4,1177.8406,382.4,1181.0406,379.2,1177.8406" style="stroke:#181818;stroke-width:0.8000000000000002;"/><line style="stroke:#181818;stroke-width:0.8000000000000002;" x1="377.6" x2="755.6" y1="1177.8406" y2="1177.8406"/><text fill="#000000" font-family="sans-serif" font-size="10.4" lengthAdjust="spacing" textLength="53.6" x="387.2" y="1173.6305">enrollments</text><polygon fill="#181818" points="213.6,1199.6734,205.6,1202.8734,213.6,1206.0734,210.4,1202.8734" style="stroke:#181818;stroke-width:0.8000000000000002;"/><line style="stroke:#181818;stroke-width:0.8000000000000002;" x1="208.8" x2="368.8" y1="1202.8734" y2="1202.8734"/><text fill="#000000" font-family="sans-serif" font-size="10.4" lengthAdjust="spacing" textLength="53.6" x="218.4" y="1198.6633">enrollments</text><polygon fill="#181818" points="41.6,1224.7063,33.6,1227.9063,41.6,1231.1063,38.4,1227.9063" style="stroke:#181818;stroke-width:0.8000000000000002;"/><line style="stroke:#181818;stroke-width:0.8000000000000002;stroke-dasharray:2.0,2.0;" x1="36.8" x2="196" y1="1227.9063" y2="1227.9063"/><text fill="#000000" font-family="sans-serif" font-size="10.4" lengthAdjust="spacing" textLength="128" x="46.4" y="1223.6961">shows list of all enrollments</text><polygon fill="#181818" points="37.6,1249.7391,29.6,1252.9391,37.6,1256.1391,34.4,1252.9391" style="stroke:#181818;stroke-width:0.8000000000000002;"/><line style="stroke:#181818;stroke-width:0.8000000000000002;stroke-dasharray:2.0,2.0;" x1="32.8" x2="200" y1="1252.9391" y2="1252.9391"/><text fill="#000000" font-family="sans-serif" font-size="10.4" lengthAdjust="spacing" textLength="144.8" x="42.4" y="1248.7289">informs sucess of the operation</text><!--SRC=[bLTDR-CW4BtxLt3RH4hRksL5QgkkDbAQLCrsxzGX3QgDBS3PpR_V0Tk03JY93n4VyzuCCymC-N6KiauV7ke2CzcKnNrUbG_Ycx8QSrpU7sLP90dEPSNHAsRuYt241NfK2mc8I9hJ6f3eUVTdNU4zuJlPx0cJucEb1E4tosfE12nXIIksN4x3dYicULKKhPxSph8CrtL1yn3B6-622abOJXIU_9CANDjLPOITZT3lfAu4XGET3_gWPmNkXrdMZKQWfwRuVc7Ajjxo7U4d2ge0BBfXbdKZ0E-nn9zO4DJ9MwqQmM4Ayjoikf3dgk62317v9A8rhVJqa11g591VH0L4wn2dOpl9CiAQSj58MWWVyUuYU8y82V-a1Lcnkf4x2NAbzZGiKRKq4BG7UCDmTarUjwEfc_1ASiogBuxh8yqtJVdP8ajO1jo-AZ7rhg1sxWQNfBrnPXQHjvPfX-gPAmkVJWzqjuJhdw9LMLTSAiyWqOPU7rab5JrXIRfaCjEFLOBWWym10fi0gOeuxEjD8sptzRhwd9m10ZS9KcJ2JecOpGt4q3dIPbDzBWkGzianiCaZwwG6ctiokJtIunmbzUGTAjVi9EA8FYTxcsSTNy0BdUZ0iXwkc7GE1Sy-f55othOcqmntIskJ61S53-SSroTshCklj2wFMfTxrkMZ-ZDbN3vb7BdIE18rZdZ6aK2fcp9moEswrGcxUw1XYgcyX9EqAPv22VY6yj9rHbaXUQw9pc-eLlAOE3nTNZkr0U1AN3Zobwk0afsfd_cDbS0MyzHM-VkNpVjslNvzsVpU-ObW825t-PkUFjxhKmFGgUrU19NFWzhvK85MOcXL8UfxnwLIP7fCh1WPWRYoq864RcEBrX7p2QnRoTPGgxQ7HyxnUNk0HaZPbqWYBkuy4AlkRKVq3cyhenQ8m0rQ3sOXi-P3VtG8qAmxggcbfTjscMwxyt0ab6Gi2DwULUUqvHITSD6GxM5c5oFAhC0mCfPiuCEmzA0K12LSCvqmw-Mzycemk9EXSThLftbfpYpZHDUwrBQgmqgr6YhFDuGjtClwFeQyHfPCjgvBlUj0sRvzbZsTbRUlY7IuOUI-WIrLCjczekshVUoPQzzoBRepHqnhGJ65tUwbXYdmYSnifukfyhnmIz_hdaxXrXViHYWju2u-5eLz4uiLWtaRlFw9UNsFCc6wYlUMHnjnhXOGpQxseFleGA5NXxZEuUEhxZWnn1Lvb_Wkqy-8CSE563hl5t6i_Wgat0s50M6utMEk4O2oGyLB-CVQv4G81P97WYfuWkl_OwCNZpFJ1Fy1]--></g></svg>