<?xml version="1.0" encoding="us-ascii" standalone="no"?><svg xmlns="http://www.w3.org/2000/svg" xmlns:xlink="http://www.w3.org/1999/xlink" contentStyleType="text/css" height="1463px" preserveAspectRatio="none" style="width:2407px;height:1463px;background:#FFFFFF;" version="1.1" viewBox="0 0 2407 1463" width="2407px" zoomAndPan="magnify"><defs/><g><rect fill="#FFFFFF" height="1224.3125" style="stroke:#181818;stroke-width:1.0;" width="10" x="31" y="121.5332"/><rect fill="#FFFFFF" height="405.4922" style="stroke:#181818;stroke-width:1.0;" width="10" x="246" y="121.5332"/><rect fill="#FFFFFF" height="787.5293" style="stroke:#181818;stroke-width:1.0;" width="10" x="246" y="558.3164"/><rect fill="#FFFFFF" height="342.9102" style="stroke:#181818;stroke-width:1.0;" width="10" x="436" y="152.8242"/><rect fill="#FFFFFF" height="724.9473" style="stroke:#181818;stroke-width:1.0;" width="10" x="436" y="589.6074"/><rect fill="#FFFFFF" height="92.582" style="stroke:#181818;stroke-width:1.0;" width="10" x="616.5" y="184.1152"/><rect fill="#FFFFFF" height="30" style="stroke:#181818;stroke-width:1.0;" width="10" x="757" y="215.4063"/><rect fill="#FFFFFF" height="187.7461" style="stroke:#181818;stroke-width:1.0;" width="10" x="919.5" y="307.9883"/><rect fill="#FFFFFF" height="247.7461" style="stroke:#181818;stroke-width:1.0;" width="10" x="919.5" y="1066.8086"/><rect fill="#FFFFFF" height="31.291" style="stroke:#181818;stroke-width:1.0;" width="10" x="1139.5" y="339.2793"/><rect fill="#FFFFFF" height="31.291" style="stroke:#181818;stroke-width:1.0;" width="10" x="1139.5" y="1098.0996"/><rect fill="#FFFFFF" height="31.291" style="stroke:#181818;stroke-width:1.0;" width="10" x="1271" y="401.8613"/><rect fill="#FFFFFF" height="31.291" style="stroke:#181818;stroke-width:1.0;" width="10" x="1271" y="1160.6816"/><rect fill="#FFFFFF" height="31.291" style="stroke:#181818;stroke-width:1.0;" width="10" x="1411.5" y="464.4434"/><rect fill="#FFFFFF" height="30" style="stroke:#181818;stroke-width:1.0;" width="10" x="1411.5" y="1284.5547"/><rect fill="#FFFFFF" height="30" style="stroke:#181818;stroke-width:1.0;" width="10" x="1539" y="620.8984"/><rect fill="#FFFFFF" height="136.873" style="stroke:#181818;stroke-width:1.0;" width="10" x="1640.5" y="682.1895"/><rect fill="#FFFFFF" height="30" style="stroke:#181818;stroke-width:1.0;" width="10" x="1807.5" y="713.4805"/><rect fill="#FFFFFF" height="185.1641" style="stroke:#181818;stroke-width:1.0;" width="10" x="1935.5" y="850.3535"/><rect fill="#FFFFFF" height="30" style="stroke:#181818;stroke-width:1.0;" width="10" x="2139.5" y="912.9355"/><rect fill="#FFFFFF" height="30" style="stroke:#181818;stroke-width:1.0;" width="10" x="2267.5" y="974.2266"/><rect fill="#FFFFFF" height="30" style="stroke:#181818;stroke-width:1.0;" width="10" x="2356" y="1223.2637"/><line style="stroke:#181818;stroke-width:0.5;stroke-dasharray:5.0,5.0;" x1="36" x2="36" y1="88.2422" y2="1363.8457"/><line style="stroke:#181818;stroke-width:0.5;stroke-dasharray:5.0,5.0;" x1="250.5" x2="250.5" y1="88.2422" y2="1363.8457"/><line style="stroke:#181818;stroke-width:0.5;stroke-dasharray:5.0,5.0;" x1="440.5" x2="440.5" y1="88.2422" y2="1363.8457"/><line style="stroke:#181818;stroke-width:0.5;stroke-dasharray:5.0,5.0;" x1="621.5" x2="621.5" y1="88.2422" y2="1363.8457"/><line style="stroke:#181818;stroke-width:0.5;stroke-dasharray:5.0,5.0;" x1="761.5" x2="761.5" y1="88.2422" y2="1363.8457"/><line style="stroke:#181818;stroke-width:0.5;stroke-dasharray:5.0,5.0;" x1="924.5" x2="924.5" y1="88.2422" y2="1363.8457"/><line style="stroke:#181818;stroke-width:0.5;stroke-dasharray:5.0,5.0;" x1="1144" x2="1144" y1="88.2422" y2="1363.8457"/><line style="stroke:#181818;stroke-width:0.5;stroke-dasharray:5.0,5.0;" x1="1276" x2="1276" y1="88.2422" y2="1363.8457"/><line style="stroke:#181818;stroke-width:0.5;stroke-dasharray:5.0,5.0;" x1="1416" x2="1416" y1="88.2422" y2="1363.8457"/><line style="stroke:#181818;stroke-width:0.5;stroke-dasharray:5.0,5.0;" x1="1544" x2="1544" y1="88.2422" y2="1363.8457"/><line style="stroke:#181818;stroke-width:0.5;stroke-dasharray:5.0,5.0;" x1="1645" x2="1645" y1="88.2422" y2="1363.8457"/><line style="stroke:#181818;stroke-width:0.5;stroke-dasharray:5.0,5.0;" x1="1812" x2="1812" y1="88.2422" y2="1363.8457"/><line style="stroke:#181818;stroke-width:0.5;stroke-dasharray:5.0,5.0;" x1="1940" x2="1940" y1="88.2422" y2="1363.8457"/><line style="stroke:#181818;stroke-width:0.5;stroke-dasharray:5.0,5.0;" x1="2144.5" x2="2144.5" y1="88.2422" y2="1363.8457"/><line style="stroke:#181818;stroke-width:0.5;stroke-dasharray:5.0,5.0;" x1="2272.5" x2="2272.5" y1="88.2422" y2="1363.8457"/><line style="stroke:#181818;stroke-width:0.5;stroke-dasharray:5.0,5.0;" x1="2360.5" x2="2360.5" y1="88.2422" y2="1363.8457"/><text fill="#000000" font-family="sans-serif" font-size="14" lengthAdjust="spacing" textLength="56" x="5" y="84.7285">Manager</text><ellipse cx="36" cy="18.1211" fill="#E2E2F0" rx="8" ry="8" style="stroke:#181818;stroke-width:0.5;"/><path d="M36,26.1211 L36,53.1211 M23,34.1211 L49,34.1211 M36,53.1211 L23,68.1211 M36,53.1211 L49,68.1211 " fill="none" style="stroke:#181818;stroke-width:0.5;"/><text fill="#000000" font-family="sans-serif" font-size="14" lengthAdjust="spacing" textLength="56" x="5" y="1377.9531">Manager</text><ellipse cx="36" cy="1389.9668" fill="#E2E2F0" rx="8" ry="8" style="stroke:#181818;stroke-width:0.5;"/><path d="M36,1397.9668 L36,1424.9668 M23,1405.9668 L49,1405.9668 M36,1424.9668 L23,1439.9668 M36,1424.9668 L49,1439.9668 " fill="none" style="stroke:#181818;stroke-width:0.5;"/><rect fill="#E2E2F0" height="51.2422" rx="2.5" ry="2.5" style="stroke:#181818;stroke-width:0.5;" width="155" x="173.5" y="36"/><text fill="#000000" font-family="sans-serif" font-size="14" font-style="italic" lengthAdjust="spacing" textLength="95" x="203.5" y="58.1074">&#171;presentation&#187;</text><text fill="#000000" font-family="sans-serif" font-size="14" lengthAdjust="spacing" textLength="141" x="180.5" y="76.7285">CSVLoaderStudentsUI</text><rect fill="#E2E2F0" height="51.2422" rx="2.5" ry="2.5" style="stroke:#181818;stroke-width:0.5;" width="155" x="173.5" y="1362.8457"/><text fill="#000000" font-family="sans-serif" font-size="14" font-style="italic" lengthAdjust="spacing" textLength="95" x="203.5" y="1384.9531">&#171;presentation&#187;</text><text fill="#000000" font-family="sans-serif" font-size="14" lengthAdjust="spacing" textLength="141" x="180.5" y="1403.5742">CSVLoaderStudentsUI</text><rect fill="#E2E2F0" height="51.2422" rx="2.5" ry="2.5" style="stroke:#181818;stroke-width:0.5;" width="205" x="338.5" y="36"/><text fill="#000000" font-family="sans-serif" font-size="14" font-style="italic" lengthAdjust="spacing" textLength="84" x="399" y="58.1074">&#171;application&#187;</text><text fill="#000000" font-family="sans-serif" font-size="14" lengthAdjust="spacing" textLength="191" x="345.5" y="76.7285">CSVLoaderStudentsController</text><rect fill="#E2E2F0" height="51.2422" rx="2.5" ry="2.5" style="stroke:#181818;stroke-width:0.5;" width="205" x="338.5" y="1362.8457"/><text fill="#000000" font-family="sans-serif" font-size="14" font-style="italic" lengthAdjust="spacing" textLength="84" x="399" y="1384.9531">&#171;application&#187;</text><text fill="#000000" font-family="sans-serif" font-size="14" lengthAdjust="spacing" textLength="191" x="345.5" y="1403.5742">CSVLoaderStudentsController</text><rect fill="#E2E2F0" height="51.2422" rx="2.5" ry="2.5" style="stroke:#181818;stroke-width:0.5;" width="136" x="553.5" y="36"/><text fill="#000000" font-family="sans-serif" font-size="14" font-style="italic" lengthAdjust="spacing" textLength="89" x="577" y="58.1074">&#171;persistence&#187;</text><text fill="#000000" font-family="sans-serif" font-size="14" lengthAdjust="spacing" textLength="122" x="560.5" y="76.7285">PersistenceContext</text><rect fill="#E2E2F0" height="51.2422" rx="2.5" ry="2.5" style="stroke:#181818;stroke-width:0.5;" width="136" x="553.5" y="1362.8457"/><text fill="#000000" font-family="sans-serif" font-size="14" font-style="italic" lengthAdjust="spacing" textLength="89" x="577" y="1384.9531">&#171;persistence&#187;</text><text fill="#000000" font-family="sans-serif" font-size="14" lengthAdjust="spacing" textLength="122" x="560.5" y="1403.5742">PersistenceContext</text><rect fill="#E2E2F0" height="51.2422" rx="2.5" ry="2.5" style="stroke:#181818;stroke-width:0.5;" width="125" x="699.5" y="36"/><text fill="#000000" font-family="sans-serif" font-size="14" font-style="italic" lengthAdjust="spacing" textLength="59" x="732.5" y="58.1074">&#171;factory&#187;</text><text fill="#000000" font-family="sans-serif" font-size="14" lengthAdjust="spacing" textLength="111" x="706.5" y="76.7285">Repositoryfactory</text><rect fill="#E2E2F0" height="51.2422" rx="2.5" ry="2.5" style="stroke:#181818;stroke-width:0.5;" width="125" x="699.5" y="1362.8457"/><text fill="#000000" font-family="sans-serif" font-size="14" font-style="italic" lengthAdjust="spacing" textLength="59" x="732.5" y="1384.9531">&#171;factory&#187;</text><text fill="#000000" font-family="sans-serif" font-size="14" lengthAdjust="spacing" textLength="111" x="706.5" y="1403.5742">Repositoryfactory</text><rect fill="#E2E2F0" height="51.2422" rx="2.5" ry="2.5" style="stroke:#181818;stroke-width:0.5;" width="180" x="834.5" y="36"/><text fill="#000000" font-family="sans-serif" font-size="14" font-style="italic" lengthAdjust="spacing" textLength="60" x="894.5" y="58.1074">&#171;service&#187;</text><text fill="#000000" font-family="sans-serif" font-size="14" lengthAdjust="spacing" textLength="166" x="841.5" y="76.7285">BulkEnrollStudentsService</text><rect fill="#E2E2F0" height="51.2422" rx="2.5" ry="2.5" style="stroke:#181818;stroke-width:0.5;" width="180" x="834.5" y="1362.8457"/><text fill="#000000" font-family="sans-serif" font-size="14" font-style="italic" lengthAdjust="spacing" textLength="60" x="894.5" y="1384.9531">&#171;service&#187;</text><text fill="#000000" font-family="sans-serif" font-size="14" lengthAdjust="spacing" textLength="166" x="841.5" y="1403.5742">BulkEnrollStudentsService</text><text fill="#000000" font-family="sans-serif" font-size="14" font-style="italic" lengthAdjust="spacing" textLength="79" x="1102" y="66.1074">&#171;repository&#187;</text><text fill="#000000" font-family="sans-serif" font-size="14" lengthAdjust="spacing" textLength="117" x="1083" y="84.7285">StudentRepository</text><path d="M1126.5,15 C1126.5,5 1144.5,5 1144.5,5 C1144.5,5 1162.5,5 1162.5,15 L1162.5,41 C1162.5,51 1144.5,51 1144.5,51 C1144.5,51 1126.5,51 1126.5,41 L1126.5,15 " fill="#E2E2F0" style="stroke:#181818;stroke-width:1.5;"/><path d="M1126.5,15 C1126.5,25 1144.5,25 1144.5,25 C1144.5,25 1162.5,25 1162.5,15 " fill="none" style="stroke:#181818;stroke-width:1.5;"/><text fill="#000000" font-family="sans-serif" font-size="14" font-style="italic" lengthAdjust="spacing" textLength="79" x="1102" y="1377.9531">&#171;repository&#187;</text><text fill="#000000" font-family="sans-serif" font-size="14" lengthAdjust="spacing" textLength="117" x="1083" y="1396.5742">StudentRepository</text><path d="M1126.5,1410.0879 C1126.5,1400.0879 1144.5,1400.0879 1144.5,1400.0879 C1144.5,1400.0879 1162.5,1400.0879 1162.5,1410.0879 L1162.5,1436.0879 C1162.5,1446.0879 1144.5,1446.0879 1144.5,1446.0879 C1144.5,1446.0879 1126.5,1446.0879 1126.5,1436.0879 L1126.5,1410.0879 " fill="#E2E2F0" style="stroke:#181818;stroke-width:1.5;"/><path d="M1126.5,1410.0879 C1126.5,1420.0879 1144.5,1420.0879 1144.5,1420.0879 C1144.5,1420.0879 1162.5,1420.0879 1162.5,1410.0879 " fill="none" style="stroke:#181818;stroke-width:1.5;"/><text fill="#000000" font-family="sans-serif" font-size="14" font-style="italic" lengthAdjust="spacing" textLength="79" x="1233.5" y="66.1074">&#171;repository&#187;</text><text fill="#000000" font-family="sans-serif" font-size="14" lengthAdjust="spacing" textLength="114" x="1216" y="84.7285">CourseRepository</text><path d="M1258,15 C1258,5 1276,5 1276,5 C1276,5 1294,5 1294,15 L1294,41 C1294,51 1276,51 1276,51 C1276,51 1258,51 1258,41 L1258,15 " fill="#E2E2F0" style="stroke:#181818;stroke-width:1.5;"/><path d="M1258,15 C1258,25 1276,25 1276,25 C1276,25 1294,25 1294,15 " fill="none" style="stroke:#181818;stroke-width:1.5;"/><text fill="#000000" font-family="sans-serif" font-size="14" font-style="italic" lengthAdjust="spacing" textLength="79" x="1233.5" y="1377.9531">&#171;repository&#187;</text><text fill="#000000" font-family="sans-serif" font-size="14" lengthAdjust="spacing" textLength="114" x="1216" y="1396.5742">CourseRepository</text><path d="M1258,1410.0879 C1258,1400.0879 1276,1400.0879 1276,1400.0879 C1276,1400.0879 1294,1400.0879 1294,1410.0879 L1294,1436.0879 C1294,1446.0879 1276,1446.0879 1276,1446.0879 C1276,1446.0879 1258,1446.0879 1258,1436.0879 L1258,1410.0879 " fill="#E2E2F0" style="stroke:#181818;stroke-width:1.5;"/><path d="M1258,1410.0879 C1258,1420.0879 1276,1420.0879 1276,1420.0879 C1276,1420.0879 1294,1420.0879 1294,1410.0879 " fill="none" style="stroke:#181818;stroke-width:1.5;"/><text fill="#000000" font-family="sans-serif" font-size="14" font-style="italic" lengthAdjust="spacing" textLength="79" x="1374" y="66.1074">&#171;repository&#187;</text><text fill="#000000" font-family="sans-serif" font-size="14" lengthAdjust="spacing" textLength="135" x="1346" y="84.7285">EnrollmentRepository</text><path d="M1398.5,15 C1398.5,5 1416.5,5 1416.5,5 C1416.5,5 1434.5,5 1434.5,15 L1434.5,41 C1434.5,51 1416.5,51 1416.5,51 C1416.5,51 1398.5,51 1398.5,41 L1398.5,15 " fill="#E2E2F0" style="stroke:#181818;stroke-width:1.5;"/><path d="M1398.5,15 C1398.5,25 1416.5,25 1416.5,25 C1416.5,25 1434.5,25 1434.5,15 " fill="none" style="stroke:#181818;stroke-width:1.5;"/><text fill="#000000" font-family="sans-serif" font-size="14" font-style="italic" lengthAdjust="spacing" textLength="79" x="1374" y="1377.9531">&#171;repository&#187;</text><text fill="#000000" font-family="sans-serif" font-size="14" lengthAdjust="spacing" textLength="135" x="1346" y="1396.5742">EnrollmentRepository</text><path d="M1398.5,1410.0879 C1398.5,1400.0879 1416.5,1400.0879 1416.5,1400.0879 C1416.5,1400.0879 1434.5,1400.0879 1434.5,1410.0879 L1434.5,1436.0879 C1434.5,1446.0879 1416.5,1446.0879 1416.5,1446.0879 C1416.5,1446.0879 1398.5,1446.0879 1398.5,1436.0879 L1398.5,1410.0879 " fill="#E2E2F0" style="stroke:#181818;stroke-width:1.5;"/><path d="M1398.5,1410.0879 C1398.5,1420.0879 1416.5,1420.0879 1416.5,1420.0879 C1416.5,1420.0879 1434.5,1420.0879 1434.5,1410.0879 " fill="none" style="stroke:#181818;stroke-width:1.5;"/><rect fill="#E2E2F0" height="51.2422" rx="2.5" ry="2.5" style="stroke:#181818;stroke-width:0.5;" width="94" x="1497" y="36"/><text fill="#000000" font-family="sans-serif" font-size="14" font-style="italic" lengthAdjust="spacing" textLength="80" x="1504" y="58.1074">&#171;enum,utils&#187;</text><text fill="#000000" font-family="sans-serif" font-size="14" lengthAdjust="spacing" textLength="74" x="1507" y="76.7285">CSVHeader</text><rect fill="#E2E2F0" height="51.2422" rx="2.5" ry="2.5" style="stroke:#181818;stroke-width:0.5;" width="94" x="1497" y="1362.8457"/><text fill="#000000" font-family="sans-serif" font-size="14" font-style="italic" lengthAdjust="spacing" textLength="80" x="1504" y="1384.9531">&#171;enum,utils&#187;</text><text fill="#000000" font-family="sans-serif" font-size="14" lengthAdjust="spacing" textLength="74" x="1507" y="1403.5742">CSVHeader</text><rect fill="#E2E2F0" height="51.2422" rx="2.5" ry="2.5" style="stroke:#181818;stroke-width:0.5;" width="89" x="1601" y="36"/><text fill="#000000" font-family="sans-serif" font-size="14" font-style="italic" lengthAdjust="spacing" textLength="41" x="1625" y="58.1074">&#171;utils&#187;</text><text fill="#000000" font-family="sans-serif" font-size="14" lengthAdjust="spacing" textLength="75" x="1608" y="76.7285">CSVReader</text><rect fill="#E2E2F0" height="51.2422" rx="2.5" ry="2.5" style="stroke:#181818;stroke-width:0.5;" width="89" x="1601" y="1362.8457"/><text fill="#000000" font-family="sans-serif" font-size="14" font-style="italic" lengthAdjust="spacing" textLength="41" x="1625" y="1384.9531">&#171;utils&#187;</text><text fill="#000000" font-family="sans-serif" font-size="14" lengthAdjust="spacing" textLength="75" x="1608" y="1403.5742">CSVReader</text><rect fill="#E2E2F0" height="32.6211" rx="2.5" ry="2.5" style="stroke:#181818;stroke-width:0.5;" width="113" x="1756" y="54.6211"/><text fill="#000000" font-family="sans-serif" font-size="14" lengthAdjust="spacing" textLength="99" x="1763" y="76.7285">FileInputStream</text><rect fill="#E2E2F0" height="32.6211" rx="2.5" ry="2.5" style="stroke:#181818;stroke-width:0.5;" width="113" x="1756" y="1362.8457"/><text fill="#000000" font-family="sans-serif" font-size="14" lengthAdjust="spacing" textLength="99" x="1763" y="1384.9531">FileInputStream</text><rect fill="#E2E2F0" height="51.2422" rx="2.5" ry="2.5" style="stroke:#181818;stroke-width:0.5;" width="123" x="1879" y="36"/><text fill="#000000" font-family="sans-serif" font-size="14" font-style="italic" lengthAdjust="spacing" textLength="84" x="1898.5" y="58.1074">&#171;application&#187;</text><text fill="#000000" font-family="sans-serif" font-size="14" lengthAdjust="spacing" textLength="109" x="1886" y="76.7285">EnrollmentParser</text><rect fill="#E2E2F0" height="51.2422" rx="2.5" ry="2.5" style="stroke:#181818;stroke-width:0.5;" width="123" x="1879" y="1362.8457"/><text fill="#000000" font-family="sans-serif" font-size="14" font-style="italic" lengthAdjust="spacing" textLength="84" x="1898.5" y="1384.9531">&#171;application&#187;</text><text fill="#000000" font-family="sans-serif" font-size="14" lengthAdjust="spacing" textLength="109" x="1886" y="1403.5742">EnrollmentParser</text><rect fill="#E2E2F0" height="51.2422" rx="2.5" ry="2.5" style="stroke:#181818;stroke-width:0.5;" width="160" x="2064.5" y="36"/><text fill="#000000" font-family="sans-serif" font-size="14" font-style="italic" lengthAdjust="spacing" textLength="62" x="2113.5" y="58.1074">&#171;domain&#187;</text><text fill="#000000" font-family="sans-serif" font-size="14" lengthAdjust="spacing" textLength="146" x="2071.5" y="76.7285">MecanographicNumber</text><rect fill="#E2E2F0" height="51.2422" rx="2.5" ry="2.5" style="stroke:#181818;stroke-width:0.5;" width="160" x="2064.5" y="1362.8457"/><text fill="#000000" font-family="sans-serif" font-size="14" font-style="italic" lengthAdjust="spacing" textLength="62" x="2113.5" y="1384.9531">&#171;domain&#187;</text><text fill="#000000" font-family="sans-serif" font-size="14" lengthAdjust="spacing" textLength="146" x="2071.5" y="1403.5742">MecanographicNumber</text><rect fill="#E2E2F0" height="51.2422" rx="2.5" ry="2.5" style="stroke:#181818;stroke-width:0.5;" width="76" x="2234.5" y="36"/><text fill="#000000" font-family="sans-serif" font-size="14" font-style="italic" lengthAdjust="spacing" textLength="62" x="2241.5" y="58.1074">&#171;domain&#187;</text><text fill="#000000" font-family="sans-serif" font-size="14" lengthAdjust="spacing" textLength="59" x="2243" y="76.7285">CourseID</text><rect fill="#E2E2F0" height="51.2422" rx="2.5" ry="2.5" style="stroke:#181818;stroke-width:0.5;" width="76" x="2234.5" y="1362.8457"/><text fill="#000000" font-family="sans-serif" font-size="14" font-style="italic" lengthAdjust="spacing" textLength="62" x="2241.5" y="1384.9531">&#171;domain&#187;</text><text fill="#000000" font-family="sans-serif" font-size="14" lengthAdjust="spacing" textLength="59" x="2243" y="1403.5742">CourseID</text><rect fill="#E2E2F0" height="51.2422" rx="2.5" ry="2.5" style="stroke:#181818;stroke-width:0.5;" width="81" x="2320.5" y="36"/><text fill="#000000" font-family="sans-serif" font-size="14" font-style="italic" lengthAdjust="spacing" textLength="62" x="2330" y="58.1074">&#171;domain&#187;</text><text fill="#000000" font-family="sans-serif" font-size="14" lengthAdjust="spacing" textLength="67" x="2327.5" y="76.7285">Enrollment</text><rect fill="#E2E2F0" height="51.2422" rx="2.5" ry="2.5" style="stroke:#181818;stroke-width:0.5;" width="81" x="2320.5" y="1362.8457"/><text fill="#000000" font-family="sans-serif" font-size="14" font-style="italic" lengthAdjust="spacing" textLength="62" x="2330" y="1384.9531">&#171;domain&#187;</text><text fill="#000000" font-family="sans-serif" font-size="14" lengthAdjust="spacing" textLength="67" x="2327.5" y="1403.5742">Enrollment</text><rect fill="#FFFFFF" height="1224.3125" style="stroke:#181818;stroke-width:1.0;" width="10" x="31" y="121.5332"/><rect fill="#FFFFFF" height="405.4922" style="stroke:#181818;stroke-width:1.0;" width="10" x="246" y="121.5332"/><rect fill="#FFFFFF" height="787.5293" style="stroke:#181818;stroke-width:1.0;" width="10" x="246" y="558.3164"/><rect fill="#FFFFFF" height="342.9102" style="stroke:#181818;stroke-width:1.0;" width="10" x="436" y="152.8242"/><rect fill="#FFFFFF" height="724.9473" style="stroke:#181818;stroke-width:1.0;" width="10" x="436" y="589.6074"/><rect fill="#FFFFFF" height="92.582" style="stroke:#181818;stroke-width:1.0;" width="10" x="616.5" y="184.1152"/><rect fill="#FFFFFF" height="30" style="stroke:#181818;stroke-width:1.0;" width="10" x="757" y="215.4063"/><rect fill="#FFFFFF" height="187.7461" style="stroke:#181818;stroke-width:1.0;" width="10" x="919.5" y="307.9883"/><rect fill="#FFFFFF" height="247.7461" style="stroke:#181818;stroke-width:1.0;" width="10" x="919.5" y="1066.8086"/><rect fill="#FFFFFF" height="31.291" style="stroke:#181818;stroke-width:1.0;" width="10" x="1139.5" y="339.2793"/><rect fill="#FFFFFF" height="31.291" style="stroke:#181818;stroke-width:1.0;" width="10" x="1139.5" y="1098.0996"/><rect fill="#FFFFFF" height="31.291" style="stroke:#181818;stroke-width:1.0;" width="10" x="1271" y="401.8613"/><rect fill="#FFFFFF" height="31.291" style="stroke:#181818;stroke-width:1.0;" width="10" x="1271" y="1160.6816"/><rect fill="#FFFFFF" height="31.291" style="stroke:#181818;stroke-width:1.0;" width="10" x="1411.5" y="464.4434"/><rect fill="#FFFFFF" height="30" style="stroke:#181818;stroke-width:1.0;" width="10" x="1411.5" y="1284.5547"/><rect fill="#FFFFFF" height="30" style="stroke:#181818;stroke-width:1.0;" width="10" x="1539" y="620.8984"/><rect fill="#FFFFFF" height="136.873" style="stroke:#181818;stroke-width:1.0;" width="10" x="1640.5" y="682.1895"/><rect fill="#FFFFFF" height="30" style="stroke:#181818;stroke-width:1.0;" width="10" x="1807.5" y="713.4805"/><rect fill="#FFFFFF" height="185.1641" style="stroke:#181818;stroke-width:1.0;" width="10" x="1935.5" y="850.3535"/><rect fill="#FFFFFF" height="30" style="stroke:#181818;stroke-width:1.0;" width="10" x="2139.5" y="912.9355"/><rect fill="#FFFFFF" height="30" style="stroke:#181818;stroke-width:1.0;" width="10" x="2267.5" y="974.2266"/><rect fill="#FFFFFF" height="30" style="stroke:#181818;stroke-width:1.0;" width="10" x="2356" y="1223.2637"/><polygon fill="#181818" points="234,117.5332,244,121.5332,234,125.5332,238,121.5332" style="stroke:#181818;stroke-width:1.0;"/><line style="stroke:#181818;stroke-width:1.0;" x1="41" x2="240" y1="121.5332" y2="121.5332"/><text fill="#000000" font-family="sans-serif" font-size="13" lengthAdjust="spacing" textLength="126" x="48" y="116.2705">Import csv student file</text><polygon fill="#181818" points="424,148.8242,434,152.8242,424,156.8242,428,152.8242" style="stroke:#181818;stroke-width:1.0;"/><line style="stroke:#181818;stroke-width:1.0;" x1="256" x2="430" y1="152.8242" y2="152.8242"/><text fill="#000000" font-family="sans-serif" font-size="13" lengthAdjust="spacing" textLength="36" x="263" y="147.5615">create</text><polygon fill="#181818" points="604.5,180.1152,614.5,184.1152,604.5,188.1152,608.5,184.1152" style="stroke:#181818;stroke-width:1.0;"/><line style="stroke:#181818;stroke-width:1.0;" x1="446" x2="610.5" y1="184.1152" y2="184.1152"/><text fill="#000000" font-family="sans-serif" font-size="13" lengthAdjust="spacing" textLength="75" x="453" y="178.8525">repositories()</text><polygon fill="#181818" points="745,211.4063,755,215.4063,745,219.4063,749,215.4063" style="stroke:#181818;stroke-width:1.0;"/><line style="stroke:#181818;stroke-width:1.0;" x1="626.5" x2="751" y1="215.4063" y2="215.4063"/><text fill="#000000" font-family="sans-serif" font-size="13" lengthAdjust="spacing" textLength="36" x="633.5" y="210.1436">create</text><polygon fill="#181818" points="457,272.6973,447,276.6973,457,280.6973,453,276.6973" style="stroke:#181818;stroke-width:1.0;"/><line style="stroke:#181818;stroke-width:1.0;" x1="451" x2="620.5" y1="276.6973" y2="276.6973"/><text fill="#000000" font-family="sans-serif" font-size="13" lengthAdjust="spacing" textLength="39" x="463" y="271.4346">factory</text><polygon fill="#181818" points="907.5,303.9883,917.5,307.9883,907.5,311.9883,911.5,307.9883" style="stroke:#181818;stroke-width:1.0;"/><line style="stroke:#181818;stroke-width:1.0;" x1="446" x2="913.5" y1="307.9883" y2="307.9883"/><text fill="#000000" font-family="sans-serif" font-size="13" lengthAdjust="spacing" textLength="83" x="453" y="302.7256">create(factory)</text><polygon fill="#181818" points="1127.5,335.2793,1137.5,339.2793,1127.5,343.2793,1131.5,339.2793" style="stroke:#181818;stroke-width:1.0;"/><line style="stroke:#181818;stroke-width:1.0;" x1="929.5" x2="1133.5" y1="339.2793" y2="339.2793"/><text fill="#000000" font-family="sans-serif" font-size="13" lengthAdjust="spacing" textLength="36" x="936.5" y="334.0166">create</text><polygon fill="#181818" points="940.5,366.5703,930.5,370.5703,940.5,374.5703,936.5,370.5703" style="stroke:#181818;stroke-width:1.0;"/><line style="stroke:#181818;stroke-width:1.0;" x1="934.5" x2="1143.5" y1="370.5703" y2="370.5703"/><text fill="#000000" font-family="sans-serif" font-size="13" lengthAdjust="spacing" textLength="105" x="946.5" y="365.3076">studentRepository</text><polygon fill="#181818" points="1259,397.8613,1269,401.8613,1259,405.8613,1263,401.8613" style="stroke:#181818;stroke-width:1.0;"/><line style="stroke:#181818;stroke-width:1.0;" x1="929.5" x2="1265" y1="401.8613" y2="401.8613"/><text fill="#000000" font-family="sans-serif" font-size="13" lengthAdjust="spacing" textLength="36" x="936.5" y="396.5986">create</text><polygon fill="#181818" points="940.5,429.1523,930.5,433.1523,940.5,437.1523,936.5,433.1523" style="stroke:#181818;stroke-width:1.0;"/><line style="stroke:#181818;stroke-width:1.0;" x1="934.5" x2="1275" y1="433.1523" y2="433.1523"/><text fill="#000000" font-family="sans-serif" font-size="13" lengthAdjust="spacing" textLength="101" x="946.5" y="427.8896">courseRepository</text><polygon fill="#181818" points="1399.5,460.4434,1409.5,464.4434,1399.5,468.4434,1403.5,464.4434" style="stroke:#181818;stroke-width:1.0;"/><line style="stroke:#181818;stroke-width:1.0;" x1="929.5" x2="1405.5" y1="464.4434" y2="464.4434"/><text fill="#000000" font-family="sans-serif" font-size="13" lengthAdjust="spacing" textLength="36" x="936.5" y="459.1807">create</text><polygon fill="#181818" points="935.5,491.7344,925.5,495.7344,935.5,499.7344,931.5,495.7344" style="stroke:#181818;stroke-width:1.0;"/><line style="stroke:#181818;stroke-width:1.0;" x1="929.5" x2="1415.5" y1="495.7344" y2="495.7344"/><text fill="#000000" font-family="sans-serif" font-size="13" lengthAdjust="spacing" textLength="122" x="941.5" y="490.4717">enrollmentRepository</text><polygon fill="#181818" points="52,523.0254,42,527.0254,52,531.0254,48,527.0254" style="stroke:#181818;stroke-width:1.0;"/><line style="stroke:#181818;stroke-width:1.0;stroke-dasharray:2.0,2.0;" x1="46" x2="250" y1="527.0254" y2="527.0254"/><text fill="#000000" font-family="sans-serif" font-size="13" lengthAdjust="spacing" textLength="175" x="58" y="521.7627">asks manager to type file path</text><polygon fill="#181818" points="234,554.3164,244,558.3164,234,562.3164,238,558.3164" style="stroke:#181818;stroke-width:1.0;"/><line style="stroke:#181818;stroke-width:1.0;" x1="41" x2="240" y1="558.3164" y2="558.3164"/><text fill="#000000" font-family="sans-serif" font-size="13" lengthAdjust="spacing" textLength="81" x="48" y="553.0537">types file path</text><polygon fill="#181818" points="424,585.6074,434,589.6074,424,593.6074,428,589.6074" style="stroke:#181818;stroke-width:1.0;"/><line style="stroke:#181818;stroke-width:1.0;" x1="256" x2="430" y1="589.6074" y2="589.6074"/><text fill="#000000" font-family="sans-serif" font-size="13" lengthAdjust="spacing" textLength="40" x="263" y="584.3447">file(file)</text><polygon fill="#181818" points="1527,616.8984,1537,620.8984,1527,624.8984,1531,620.8984" style="stroke:#181818;stroke-width:1.0;"/><line style="stroke:#181818;stroke-width:1.0;" x1="446" x2="1533" y1="620.8984" y2="620.8984"/><text fill="#000000" font-family="sans-serif" font-size="13" lengthAdjust="spacing" textLength="168" x="453" y="615.6357">CSVHeader.ENROLLMENTS</text><polygon fill="#181818" points="1628.5,678.1895,1638.5,682.1895,1628.5,686.1895,1632.5,682.1895" style="stroke:#181818;stroke-width:1.0;"/><line style="stroke:#181818;stroke-width:1.0;" x1="446" x2="1634.5" y1="682.1895" y2="682.1895"/><text fill="#000000" font-family="sans-serif" font-size="13" lengthAdjust="spacing" textLength="248" x="453" y="676.9268">readCSV(file,CSVHeader.ENROLLMENTS)</text><polygon fill="#181818" points="1795.5,709.4805,1805.5,713.4805,1795.5,717.4805,1799.5,713.4805" style="stroke:#181818;stroke-width:1.0;"/><line style="stroke:#181818;stroke-width:1.0;" x1="1650.5" x2="1801.5" y1="713.4805" y2="713.4805"/><text fill="#000000" font-family="sans-serif" font-size="13" lengthAdjust="spacing" textLength="36" x="1657.5" y="708.2178">create</text><line style="stroke:#181818;stroke-width:1.0;" x1="1650.5" x2="1692.5" y1="774.7715" y2="774.7715"/><line style="stroke:#181818;stroke-width:1.0;" x1="1692.5" x2="1692.5" y1="774.7715" y2="787.7715"/><line style="stroke:#181818;stroke-width:1.0;" x1="1651.5" x2="1692.5" y1="787.7715" y2="787.7715"/><polygon fill="#181818" points="1661.5,783.7715,1651.5,787.7715,1661.5,791.7715,1657.5,787.7715" style="stroke:#181818;stroke-width:1.0;"/><text fill="#000000" font-family="sans-serif" font-size="13" lengthAdjust="spacing" textLength="143" x="1657.5" y="769.5088">readCSV(stream,header)</text><polygon fill="#181818" points="457,815.0625,447,819.0625,457,823.0625,453,819.0625" style="stroke:#181818;stroke-width:1.0;"/><line style="stroke:#181818;stroke-width:1.0;" x1="451" x2="1644.5" y1="819.0625" y2="819.0625"/><text fill="#000000" font-family="sans-serif" font-size="13" lengthAdjust="spacing" textLength="119" x="463" y="813.7998">ListOfArrayOfStrings</text><polygon fill="#181818" points="1923.5,846.3535,1933.5,850.3535,1923.5,854.3535,1927.5,850.3535" style="stroke:#181818;stroke-width:1.0;"/><line style="stroke:#181818;stroke-width:1.0;" x1="446" x2="1929.5" y1="850.3535" y2="850.3535"/><text fill="#000000" font-family="sans-serif" font-size="13" lengthAdjust="spacing" textLength="36" x="453" y="845.0908">create</text><polygon fill="#181818" points="1923.5,877.6445,1933.5,881.6445,1923.5,885.6445,1927.5,881.6445" style="stroke:#181818;stroke-width:1.0;"/><line style="stroke:#181818;stroke-width:1.0;" x1="446" x2="1929.5" y1="881.6445" y2="881.6445"/><text fill="#000000" font-family="sans-serif" font-size="13" lengthAdjust="spacing" textLength="159" x="453" y="876.3818">parse(ListOfArrayOfStrings)</text><polygon fill="#181818" points="2127.5,908.9355,2137.5,912.9355,2127.5,916.9355,2131.5,912.9355" style="stroke:#181818;stroke-width:1.0;"/><line style="stroke:#181818;stroke-width:1.0;" x1="1945.5" x2="2133.5" y1="912.9355" y2="912.9355"/><text fill="#000000" font-family="sans-serif" font-size="13" lengthAdjust="spacing" textLength="175" x="1952.5" y="907.6729">create(mecanographicnumber)</text><polygon fill="#181818" points="2255.5,970.2266,2265.5,974.2266,2255.5,978.2266,2259.5,974.2266" style="stroke:#181818;stroke-width:1.0;"/><line style="stroke:#181818;stroke-width:1.0;" x1="1945.5" x2="2261.5" y1="974.2266" y2="974.2266"/><text fill="#000000" font-family="sans-serif" font-size="13" lengthAdjust="spacing" textLength="93" x="1952.5" y="968.9639">create(courseid)</text><polygon fill="#181818" points="457,1031.5176,447,1035.5176,457,1039.5176,453,1035.5176" style="stroke:#181818;stroke-width:1.0;"/><line style="stroke:#181818;stroke-width:1.0;" x1="451" x2="1939.5" y1="1035.5176" y2="1035.5176"/><text fill="#000000" font-family="sans-serif" font-size="13" lengthAdjust="spacing" textLength="60" x="463" y="1030.2549">parsedList</text><polygon fill="#181818" points="907.5,1062.8086,917.5,1066.8086,907.5,1070.8086,911.5,1066.8086" style="stroke:#181818;stroke-width:1.0;"/><line style="stroke:#181818;stroke-width:1.0;" x1="446" x2="913.5" y1="1066.8086" y2="1066.8086"/><text fill="#000000" font-family="sans-serif" font-size="13" lengthAdjust="spacing" textLength="125" x="453" y="1061.5459">bulkEnroll(parsedList)</text><polygon fill="#181818" points="1127.5,1094.0996,1137.5,1098.0996,1127.5,1102.0996,1131.5,1098.0996" style="stroke:#181818;stroke-width:1.0;"/><line style="stroke:#181818;stroke-width:1.0;" x1="929.5" x2="1133.5" y1="1098.0996" y2="1098.0996"/><text fill="#000000" font-family="sans-serif" font-size="13" lengthAdjust="spacing" textLength="191" x="936.5" y="1092.8369">ofIdentity(mecanographicnumber)</text><polygon fill="#181818" points="940.5,1125.3906,930.5,1129.3906,940.5,1133.3906,936.5,1129.3906" style="stroke:#181818;stroke-width:1.0;"/><line style="stroke:#181818;stroke-width:1.0;" x1="934.5" x2="1143.5" y1="1129.3906" y2="1129.3906"/><text fill="#000000" font-family="sans-serif" font-size="13" lengthAdjust="spacing" textLength="43" x="946.5" y="1124.1279">student</text><polygon fill="#181818" points="1259,1156.6816,1269,1160.6816,1259,1164.6816,1263,1160.6816" style="stroke:#181818;stroke-width:1.0;"/><line style="stroke:#181818;stroke-width:1.0;" x1="929.5" x2="1265" y1="1160.6816" y2="1160.6816"/><text fill="#000000" font-family="sans-serif" font-size="13" lengthAdjust="spacing" textLength="111" x="936.5" y="1155.4189">ofIdentity(courseID)</text><polygon fill="#181818" points="940.5,1187.9727,930.5,1191.9727,940.5,1195.9727,936.5,1191.9727" style="stroke:#181818;stroke-width:1.0;"/><line style="stroke:#181818;stroke-width:1.0;" x1="934.5" x2="1275" y1="1191.9727" y2="1191.9727"/><text fill="#000000" font-family="sans-serif" font-size="13" lengthAdjust="spacing" textLength="39" x="946.5" y="1186.71">course</text><polygon fill="#181818" points="2344,1219.2637,2354,1223.2637,2344,1227.2637,2348,1223.2637" style="stroke:#181818;stroke-width:1.0;"/><line style="stroke:#181818;stroke-width:1.0;" x1="929.5" x2="2350" y1="1223.2637" y2="1223.2637"/><text fill="#000000" font-family="sans-serif" font-size="13" lengthAdjust="spacing" textLength="130" x="936.5" y="1218.001">create(course,student)</text><polygon fill="#181818" points="1399.5,1280.5547,1409.5,1284.5547,1399.5,1288.5547,1403.5,1284.5547" style="stroke:#181818;stroke-width:1.0;"/><line style="stroke:#181818;stroke-width:1.0;" x1="929.5" x2="1405.5" y1="1284.5547" y2="1284.5547"/><text fill="#000000" font-family="sans-serif" font-size="13" lengthAdjust="spacing" textLength="94" x="936.5" y="1279.292">save(enrollment)</text><polygon fill="#181818" points="47,1341.8457,37,1345.8457,47,1349.8457,43,1345.8457" style="stroke:#181818;stroke-width:1.0;"/><line style="stroke:#181818;stroke-width:1.0;stroke-dasharray:2.0,2.0;" x1="41" x2="250" y1="1345.8457" y2="1345.8457"/><text fill="#000000" font-family="sans-serif" font-size="13" lengthAdjust="spacing" textLength="181" x="53" y="1340.583">informs sucess of the operation</text><!--SRC=[bLTDR-CW4BtxL_YsYPIsTykAr6sxsaZfXvhjtYaX3QfjBC3Hvj_lW35W0qxhGyJ7l9d7u9dd_3XAsHOtDss56jdLrJLczOtuf4sBEAglZxAkiWnXoNZ-Y1hqGNYEH7wh5Z8maHJJ5f3vtUxlbg4zuJlPxKaZnTj66S9lMRQS25X2ah9clPw7tR56SbPLVHpiPcM9shQYEERbXN11XIGD9WfF_aa5Rjsg8k5c4_GhQPcWSA3pGH_qhC33i2pDQ0BwsLMV3utYDZ3V4NwY40h0mWpBqem0l4SIlID1ScFlece4XodOSxlgG-vOnmKP8_0iegTM1t5833MvaDz4NOYE8Kx7VbAMfEdgLITf9KB4gu_W0o9c_8jMPDEqdTn9iAjrfc69ggMHeJl02uApQ-TjFvfx4nu9HWtxuAWzKlpKrUyziePbmErPZMZm2khaRkxxzqsDwJvbwrZfPEgPRmkFBetyQWslVf5lwfPngRAIY_xQzN5LGT4JaiGKafs-RR8S7gWQSE1U_aBTDkphJMlizlMwUhnw0GT-0HIvlN9An69f8TQTPsqtrUDx0QT3OOmu1SwCrMXpJsQt9t6yenI1lUVAfvqb4Z7Kuy1vOVn5ic1CHym6kFAawoTwzh4RPHTiQsVQmzNQSHBJXX3WlEE6ZZrs-8liS98T3jZXIU-P8uVdo94laYD9SYGWHo9jRexWsBUVLk_Q_GEDIqpL9PoaB_42Mi0dj1QZYfBbyjmINT_GgUGny_oOklPw0y2LkV3iBtS1PRjGFyjlTWBNo0lNuQyVdbwVjzl7XwS_kx0GB2IMhd0pYCU7U6e0CJNlLJJuCXgTZmFe8DQjQaI3RbngHLPVKit86gI3nGuaj8Ij-aGiPx1-9zj2hte-t7AEpiy7447QV8WiaMAJWLHtxzKmEBphZDeW0RTeFLZ4Q2t7-J08YApLrFRIsfVSHalkCduJoZ9r2S6U2sT5sOOSLYOClNhezrF1elj-GE_2zF9UvITwJRD9zeJdtNulBfp76Vsv943ii56YGUNv6nSGLwL1aV90ah9P4RgaGXv5RBwn4hmIUeH3OhsZR5P_aWBKVwvDtgALEMk2MWzA1JIxboHFe1DPEArAXGgoy1tbCXy_SV6AgHTj3epNyDUZmqG8kArS7adEu7jAVrXFvCkRQGV_0G00]--></g></svg>