<?xml version="1.0" encoding="us-ascii" standalone="no"?><svg xmlns="http://www.w3.org/2000/svg" xmlns:xlink="http://www.w3.org/1999/xlink" contentStyleType="text/css" height="1702px" preserveAspectRatio="none" style="width:2531px;height:1702px;background:#FFFFFF;" version="1.1" viewBox="0 0 2531 1702" width="2531px" zoomAndPan="magnify"><defs/><g><rect fill="#FFFFFF" height="1461.2407" style="stroke:#181818;stroke-width:1.0;" width="10" x="33.5" y="122.8419"/><rect fill="#FFFFFF" height="410.4722" style="stroke:#181818;stroke-width:1.0;" width="10" x="255.5" y="122.8419"/><rect fill="#FFFFFF" height="1019.0624" style="stroke:#181818;stroke-width:1.0;" width="10" x="255.5" y="565.0201"/><rect fill="#FFFFFF" height="347.0602" style="stroke:#181818;stroke-width:1.0;" width="10" x="469.5" y="154.5479"/><rect fill="#FFFFFF" height="733.7083" style="stroke:#181818;stroke-width:1.0;" width="10" x="469.5" y="596.7261"/><rect fill="#FFFFFF" height="158.5301" style="stroke:#181818;stroke-width:1.0;" width="10" x="469.5" y="1362.1404"/><rect fill="#FFFFFF" height="93.412" style="stroke:#181818;stroke-width:1.0;" width="10" x="656.5" y="186.2539"/><rect fill="#FFFFFF" height="30" style="stroke:#181818;stroke-width:1.0;" width="10" x="803" y="217.9599"/><rect fill="#FFFFFF" height="190.2361" style="stroke:#181818;stroke-width:1.0;" width="10" x="973.5" y="311.3719"/><rect fill="#FFFFFF" height="250.2361" style="stroke:#181818;stroke-width:1.0;" width="10" x="973.5" y="1080.1983"/><rect fill="#FFFFFF" height="95.118" style="stroke:#181818;stroke-width:1.0;" width="10" x="973.5" y="1393.8464"/><rect fill="#FFFFFF" height="31.706" style="stroke:#181818;stroke-width:1.0;" width="10" x="1210.5" y="343.0779"/><rect fill="#FFFFFF" height="31.706" style="stroke:#181818;stroke-width:1.0;" width="10" x="1210.5" y="1111.9043"/><rect fill="#FFFFFF" height="31.706" style="stroke:#181818;stroke-width:1.0;" width="10" x="1347.5" y="406.49"/><rect fill="#FFFFFF" height="31.706" style="stroke:#181818;stroke-width:1.0;" width="10" x="1347.5" y="1175.3163"/><rect fill="#FFFFFF" height="31.706" style="stroke:#181818;stroke-width:1.0;" width="10" x="1495" y="469.902"/><rect fill="#FFFFFF" height="30" style="stroke:#181818;stroke-width:1.0;" width="10" x="1495" y="1300.4344"/><rect fill="#FFFFFF" height="31.706" style="stroke:#181818;stroke-width:1.0;" width="10" x="1495" y="1425.5524"/><rect fill="#FFFFFF" height="30" style="stroke:#181818;stroke-width:1.0;" width="10" x="1627.5" y="628.4321"/><rect fill="#FFFFFF" height="138.118" style="stroke:#181818;stroke-width:1.0;" width="10" x="1728" y="690.1381"/><rect fill="#FFFFFF" height="30" style="stroke:#181818;stroke-width:1.0;" width="10" x="1897" y="721.8441"/><rect fill="#FFFFFF" height="188.5301" style="stroke:#181818;stroke-width:1.0;" width="10" x="2033.5" y="859.9622"/><rect fill="#FFFFFF" height="30" style="stroke:#181818;stroke-width:1.0;" width="10" x="2248.5" y="923.3742"/><rect fill="#FFFFFF" height="31.706" style="stroke:#181818;stroke-width:1.0;" width="10" x="2384" y="985.0802"/><rect fill="#FFFFFF" height="30" style="stroke:#181818;stroke-width:1.0;" width="10" x="2476" y="1238.7284"/><line style="stroke:#181818;stroke-width:0.5;stroke-dasharray:5.0,5.0;" x1="38" x2="38" y1="89.1358" y2="1602.0825"/><line style="stroke:#181818;stroke-width:0.5;stroke-dasharray:5.0,5.0;" x1="260.5" x2="260.5" y1="89.1358" y2="1602.0825"/><line style="stroke:#181818;stroke-width:0.5;stroke-dasharray:5.0,5.0;" x1="474.5" x2="474.5" y1="89.1358" y2="1602.0825"/><line style="stroke:#181818;stroke-width:0.5;stroke-dasharray:5.0,5.0;" x1="661.5" x2="661.5" y1="89.1358" y2="1602.0825"/><line style="stroke:#181818;stroke-width:0.5;stroke-dasharray:5.0,5.0;" x1="807.5" x2="807.5" y1="89.1358" y2="1602.0825"/><line style="stroke:#181818;stroke-width:0.5;stroke-dasharray:5.0,5.0;" x1="978.5" x2="978.5" y1="89.1358" y2="1602.0825"/><line style="stroke:#181818;stroke-width:0.5;stroke-dasharray:5.0,5.0;" x1="1215.5" x2="1215.5" y1="89.1358" y2="1602.0825"/><line style="stroke:#181818;stroke-width:0.5;stroke-dasharray:5.0,5.0;" x1="1352.5" x2="1352.5" y1="89.1358" y2="1602.0825"/><line style="stroke:#181818;stroke-width:0.5;stroke-dasharray:5.0,5.0;" x1="1499.5" x2="1499.5" y1="89.1358" y2="1602.0825"/><line style="stroke:#181818;stroke-width:0.5;stroke-dasharray:5.0,5.0;" x1="1632.5" x2="1632.5" y1="89.1358" y2="1602.0825"/><line style="stroke:#181818;stroke-width:0.5;stroke-dasharray:5.0,5.0;" x1="1732.5" x2="1732.5" y1="89.1358" y2="1602.0825"/><line style="stroke:#181818;stroke-width:0.5;stroke-dasharray:5.0,5.0;" x1="1902" x2="1902" y1="89.1358" y2="1602.0825"/><line style="stroke:#181818;stroke-width:0.5;stroke-dasharray:5.0,5.0;" x1="2038" x2="2038" y1="89.1358" y2="1602.0825"/><line style="stroke:#181818;stroke-width:0.5;stroke-dasharray:5.0,5.0;" x1="2253" x2="2253" y1="89.1358" y2="1602.0825"/><line style="stroke:#181818;stroke-width:0.5;stroke-dasharray:5.0,5.0;" x1="2389" x2="2389" y1="89.1358" y2="1602.0825"/><line style="stroke:#181818;stroke-width:0.5;stroke-dasharray:5.0,5.0;" x1="2481" x2="2481" y1="89.1358" y2="1602.0825"/><text fill="#000000" font-family="sans-serif" font-size="14" lengthAdjust="spacing" textLength="61" x="5" y="85.0339">Manager</text><ellipse cx="38.5" cy="18.5679" fill="#E2E2F0" rx="8" ry="8" style="stroke:#181818;stroke-width:0.5;"/><path d="M38.5,26.5679 L38.5,53.5679 M25.5,34.5679 L51.5,34.5679 M38.5,53.5679 L25.5,68.5679 M38.5,53.5679 L51.5,68.5679 " fill="none" style="stroke:#181818;stroke-width:0.5;"/><text fill="#000000" font-family="sans-serif" font-size="14" lengthAdjust="spacing" textLength="61" x="5" y="1616.0484">Manager</text><ellipse cx="38.5" cy="1628.6504" fill="#E2E2F0" rx="8" ry="8" style="stroke:#181818;stroke-width:0.5;"/><path d="M38.5,1636.6504 L38.5,1663.6504 M25.5,1644.6504 L51.5,1644.6504 M38.5,1663.6504 L25.5,1678.6504 M38.5,1663.6504 L51.5,1678.6504 " fill="none" style="stroke:#181818;stroke-width:0.5;"/><rect fill="#E2E2F0" height="52.1358" rx="2.5" ry="2.5" style="stroke:#181818;stroke-width:0.5;" width="160" x="180.5" y="36"/><text fill="#000000" font-family="sans-serif" font-size="14" font-style="italic" lengthAdjust="spacing" textLength="94" x="213.5" y="57.9659">&#171;presentation&#187;</text><text fill="#000000" font-family="sans-serif" font-size="14" lengthAdjust="spacing" textLength="146" x="187.5" y="77.0339">CSVLoaderStudentsUI</text><rect fill="#E2E2F0" height="52.1358" rx="2.5" ry="2.5" style="stroke:#181818;stroke-width:0.5;" width="160" x="180.5" y="1601.0825"/><text fill="#000000" font-family="sans-serif" font-size="14" font-style="italic" lengthAdjust="spacing" textLength="94" x="213.5" y="1623.0484">&#171;presentation&#187;</text><text fill="#000000" font-family="sans-serif" font-size="14" lengthAdjust="spacing" textLength="146" x="187.5" y="1642.1164">CSVLoaderStudentsUI</text><rect fill="#E2E2F0" height="52.1358" rx="2.5" ry="2.5" style="stroke:#181818;stroke-width:0.5;" width="212" x="368.5" y="36"/><text fill="#000000" font-family="sans-serif" font-size="14" font-style="italic" lengthAdjust="spacing" textLength="85" x="432" y="57.9659">&#171;application&#187;</text><text fill="#000000" font-family="sans-serif" font-size="14" lengthAdjust="spacing" textLength="198" x="375.5" y="77.0339">CSVLoaderStudentsController</text><rect fill="#E2E2F0" height="52.1358" rx="2.5" ry="2.5" style="stroke:#181818;stroke-width:0.5;" width="212" x="368.5" y="1601.0825"/><text fill="#000000" font-family="sans-serif" font-size="14" font-style="italic" lengthAdjust="spacing" textLength="85" x="432" y="1623.0484">&#171;application&#187;</text><text fill="#000000" font-family="sans-serif" font-size="14" lengthAdjust="spacing" textLength="198" x="375.5" y="1642.1164">CSVLoaderStudentsController</text><rect fill="#E2E2F0" height="52.1358" rx="2.5" ry="2.5" style="stroke:#181818;stroke-width:0.5;" width="142" x="590.5" y="36"/><text fill="#000000" font-family="sans-serif" font-size="14" font-style="italic" lengthAdjust="spacing" textLength="84" x="619.5" y="57.9659">&#171;persistence&#187;</text><text fill="#000000" font-family="sans-serif" font-size="14" lengthAdjust="spacing" textLength="128" x="597.5" y="77.0339">PersistenceContext</text><rect fill="#E2E2F0" height="52.1358" rx="2.5" ry="2.5" style="stroke:#181818;stroke-width:0.5;" width="142" x="590.5" y="1601.0825"/><text fill="#000000" font-family="sans-serif" font-size="14" font-style="italic" lengthAdjust="spacing" textLength="84" x="619.5" y="1623.0484">&#171;persistence&#187;</text><text fill="#000000" font-family="sans-serif" font-size="14" lengthAdjust="spacing" textLength="128" x="597.5" y="1642.1164">PersistenceContext</text><rect fill="#E2E2F0" height="52.1358" rx="2.5" ry="2.5" style="stroke:#181818;stroke-width:0.5;" width="131" x="742.5" y="36"/><text fill="#000000" font-family="sans-serif" font-size="14" font-style="italic" lengthAdjust="spacing" textLength="58" x="779" y="57.9659">&#171;factory&#187;</text><text fill="#000000" font-family="sans-serif" font-size="14" lengthAdjust="spacing" textLength="117" x="749.5" y="77.0339">Repositoryfactory</text><rect fill="#E2E2F0" height="52.1358" rx="2.5" ry="2.5" style="stroke:#181818;stroke-width:0.5;" width="131" x="742.5" y="1601.0825"/><text fill="#000000" font-family="sans-serif" font-size="14" font-style="italic" lengthAdjust="spacing" textLength="58" x="779" y="1623.0484">&#171;factory&#187;</text><text fill="#000000" font-family="sans-serif" font-size="14" lengthAdjust="spacing" textLength="117" x="749.5" y="1642.1164">Repositoryfactory</text><rect fill="#E2E2F0" height="52.1358" rx="2.5" ry="2.5" style="stroke:#181818;stroke-width:0.5;" width="190" x="883.5" y="36"/><text fill="#000000" font-family="sans-serif" font-size="14" font-style="italic" lengthAdjust="spacing" textLength="57" x="950" y="57.9659">&#171;service&#187;</text><text fill="#000000" font-family="sans-serif" font-size="14" lengthAdjust="spacing" textLength="176" x="890.5" y="77.0339">BulkEnrollStudentsService</text><rect fill="#E2E2F0" height="52.1358" rx="2.5" ry="2.5" style="stroke:#181818;stroke-width:0.5;" width="190" x="883.5" y="1601.0825"/><text fill="#000000" font-family="sans-serif" font-size="14" font-style="italic" lengthAdjust="spacing" textLength="57" x="950" y="1623.0484">&#171;service&#187;</text><text fill="#000000" font-family="sans-serif" font-size="14" lengthAdjust="spacing" textLength="176" x="890.5" y="1642.1164">BulkEnrollStudentsService</text><text fill="#000000" font-family="sans-serif" font-size="14" font-style="italic" lengthAdjust="spacing" textLength="79" x="1173" y="65.9659">&#171;repository&#187;</text><text fill="#000000" font-family="sans-serif" font-size="14" lengthAdjust="spacing" textLength="124" x="1150.5" y="85.0339">StudentRepository</text><path d="M1197.5,15 C1197.5,5 1215.5,5 1215.5,5 C1215.5,5 1233.5,5 1233.5,15 L1233.5,41 C1233.5,51 1215.5,51 1215.5,51 C1215.5,51 1197.5,51 1197.5,41 L1197.5,15 " fill="#E2E2F0" style="stroke:#181818;stroke-width:1.5;"/><path d="M1197.5,15 C1197.5,25 1215.5,25 1215.5,25 C1215.5,25 1233.5,25 1233.5,15 " fill="none" style="stroke:#181818;stroke-width:1.5;"/><text fill="#000000" font-family="sans-serif" font-size="14" font-style="italic" lengthAdjust="spacing" textLength="79" x="1173" y="1616.0484">&#171;repository&#187;</text><text fill="#000000" font-family="sans-serif" font-size="14" lengthAdjust="spacing" textLength="124" x="1150.5" y="1635.1164">StudentRepository</text><path d="M1197.5,1649.2183 C1197.5,1639.2183 1215.5,1639.2183 1215.5,1639.2183 C1215.5,1639.2183 1233.5,1639.2183 1233.5,1649.2183 L1233.5,1675.2183 C1233.5,1685.2183 1215.5,1685.2183 1215.5,1685.2183 C1215.5,1685.2183 1197.5,1685.2183 1197.5,1675.2183 L1197.5,1649.2183 " fill="#E2E2F0" style="stroke:#181818;stroke-width:1.5;"/><path d="M1197.5,1649.2183 C1197.5,1659.2183 1215.5,1659.2183 1215.5,1659.2183 C1215.5,1659.2183 1233.5,1659.2183 1233.5,1649.2183 " fill="none" style="stroke:#181818;stroke-width:1.5;"/><text fill="#000000" font-family="sans-serif" font-size="14" font-style="italic" lengthAdjust="spacing" textLength="79" x="1310" y="65.9659">&#171;repository&#187;</text><text fill="#000000" font-family="sans-serif" font-size="14" lengthAdjust="spacing" textLength="118" x="1290.5" y="85.0339">CourseRepository</text><path d="M1334.5,15 C1334.5,5 1352.5,5 1352.5,5 C1352.5,5 1370.5,5 1370.5,15 L1370.5,41 C1370.5,51 1352.5,51 1352.5,51 C1352.5,51 1334.5,51 1334.5,41 L1334.5,15 " fill="#E2E2F0" style="stroke:#181818;stroke-width:1.5;"/><path d="M1334.5,15 C1334.5,25 1352.5,25 1352.5,25 C1352.5,25 1370.5,25 1370.5,15 " fill="none" style="stroke:#181818;stroke-width:1.5;"/><text fill="#000000" font-family="sans-serif" font-size="14" font-style="italic" lengthAdjust="spacing" textLength="79" x="1310" y="1616.0484">&#171;repository&#187;</text><text fill="#000000" font-family="sans-serif" font-size="14" lengthAdjust="spacing" textLength="118" x="1290.5" y="1635.1164">CourseRepository</text><path d="M1334.5,1649.2183 C1334.5,1639.2183 1352.5,1639.2183 1352.5,1639.2183 C1352.5,1639.2183 1370.5,1639.2183 1370.5,1649.2183 L1370.5,1675.2183 C1370.5,1685.2183 1352.5,1685.2183 1352.5,1685.2183 C1352.5,1685.2183 1334.5,1685.2183 1334.5,1675.2183 L1334.5,1649.2183 " fill="#E2E2F0" style="stroke:#181818;stroke-width:1.5;"/><path d="M1334.5,1649.2183 C1334.5,1659.2183 1352.5,1659.2183 1352.5,1659.2183 C1352.5,1659.2183 1370.5,1659.2183 1370.5,1649.2183 " fill="none" style="stroke:#181818;stroke-width:1.5;"/><text fill="#000000" font-family="sans-serif" font-size="14" font-style="italic" lengthAdjust="spacing" textLength="79" x="1457.5" y="65.9659">&#171;repository&#187;</text><text fill="#000000" font-family="sans-serif" font-size="14" lengthAdjust="spacing" textLength="145" x="1424.5" y="85.0339">EnrollmentRepository</text><path d="M1482,15 C1482,5 1500,5 1500,5 C1500,5 1518,5 1518,15 L1518,41 C1518,51 1500,51 1500,51 C1500,51 1482,51 1482,41 L1482,15 " fill="#E2E2F0" style="stroke:#181818;stroke-width:1.5;"/><path d="M1482,15 C1482,25 1500,25 1500,25 C1500,25 1518,25 1518,15 " fill="none" style="stroke:#181818;stroke-width:1.5;"/><text fill="#000000" font-family="sans-serif" font-size="14" font-style="italic" lengthAdjust="spacing" textLength="79" x="1457.5" y="1616.0484">&#171;repository&#187;</text><text fill="#000000" font-family="sans-serif" font-size="14" lengthAdjust="spacing" textLength="145" x="1424.5" y="1635.1164">EnrollmentRepository</text><path d="M1482,1649.2183 C1482,1639.2183 1500,1639.2183 1500,1639.2183 C1500,1639.2183 1518,1639.2183 1518,1649.2183 L1518,1675.2183 C1518,1685.2183 1500,1685.2183 1500,1685.2183 C1500,1685.2183 1482,1685.2183 1482,1675.2183 L1482,1649.2183 " fill="#E2E2F0" style="stroke:#181818;stroke-width:1.5;"/><path d="M1482,1649.2183 C1482,1659.2183 1500,1659.2183 1500,1659.2183 C1500,1659.2183 1518,1659.2183 1518,1649.2183 " fill="none" style="stroke:#181818;stroke-width:1.5;"/><rect fill="#E2E2F0" height="52.1358" rx="2.5" ry="2.5" style="stroke:#181818;stroke-width:0.5;" width="94" x="1585.5" y="36"/><text fill="#000000" font-family="sans-serif" font-size="14" font-style="italic" lengthAdjust="spacing" textLength="80" x="1592.5" y="57.9659">&#171;enum,utils&#187;</text><text fill="#000000" font-family="sans-serif" font-size="14" lengthAdjust="spacing" textLength="74" x="1595.5" y="77.0339">CSVHeader</text><rect fill="#E2E2F0" height="52.1358" rx="2.5" ry="2.5" style="stroke:#181818;stroke-width:0.5;" width="94" x="1585.5" y="1601.0825"/><text fill="#000000" font-family="sans-serif" font-size="14" font-style="italic" lengthAdjust="spacing" textLength="80" x="1592.5" y="1623.0484">&#171;enum,utils&#187;</text><text fill="#000000" font-family="sans-serif" font-size="14" lengthAdjust="spacing" textLength="74" x="1595.5" y="1642.1164">CSVHeader</text><rect fill="#E2E2F0" height="52.1358" rx="2.5" ry="2.5" style="stroke:#181818;stroke-width:0.5;" width="87" x="1689.5" y="36"/><text fill="#000000" font-family="sans-serif" font-size="14" font-style="italic" lengthAdjust="spacing" textLength="41" x="1712.5" y="57.9659">&#171;utils&#187;</text><text fill="#000000" font-family="sans-serif" font-size="14" lengthAdjust="spacing" textLength="73" x="1696.5" y="77.0339">CSVReader</text><rect fill="#E2E2F0" height="52.1358" rx="2.5" ry="2.5" style="stroke:#181818;stroke-width:0.5;" width="87" x="1689.5" y="1601.0825"/><text fill="#000000" font-family="sans-serif" font-size="14" font-style="italic" lengthAdjust="spacing" textLength="41" x="1712.5" y="1623.0484">&#171;utils&#187;</text><text fill="#000000" font-family="sans-serif" font-size="14" lengthAdjust="spacing" textLength="73" x="1696.5" y="1642.1164">CSVReader</text><rect fill="#E2E2F0" height="33.0679" rx="2.5" ry="2.5" style="stroke:#181818;stroke-width:0.5;" width="122" x="1841" y="55.0679"/><text fill="#000000" font-family="sans-serif" font-size="14" lengthAdjust="spacing" textLength="108" x="1848" y="77.0339">FileInputStream</text><rect fill="#E2E2F0" height="33.0679" rx="2.5" ry="2.5" style="stroke:#181818;stroke-width:0.5;" width="122" x="1841" y="1601.0825"/><text fill="#000000" font-family="sans-serif" font-size="14" lengthAdjust="spacing" textLength="108" x="1848" y="1623.0484">FileInputStream</text><rect fill="#E2E2F0" height="52.1358" rx="2.5" ry="2.5" style="stroke:#181818;stroke-width:0.5;" width="131" x="1973" y="36"/><text fill="#000000" font-family="sans-serif" font-size="14" font-style="italic" lengthAdjust="spacing" textLength="85" x="1996" y="57.9659">&#171;application&#187;</text><text fill="#000000" font-family="sans-serif" font-size="14" lengthAdjust="spacing" textLength="117" x="1980" y="77.0339">EnrollmentParser</text><rect fill="#E2E2F0" height="52.1358" rx="2.5" ry="2.5" style="stroke:#181818;stroke-width:0.5;" width="131" x="1973" y="1601.0825"/><text fill="#000000" font-family="sans-serif" font-size="14" font-style="italic" lengthAdjust="spacing" textLength="85" x="1996" y="1623.0484">&#171;application&#187;</text><text fill="#000000" font-family="sans-serif" font-size="14" lengthAdjust="spacing" textLength="117" x="1980" y="1642.1164">EnrollmentParser</text><rect fill="#E2E2F0" height="52.1358" rx="2.5" ry="2.5" style="stroke:#181818;stroke-width:0.5;" width="175" x="2166" y="36"/><text fill="#000000" font-family="sans-serif" font-size="14" font-style="italic" lengthAdjust="spacing" textLength="62" x="2222.5" y="57.9659">&#171;domain&#187;</text><text fill="#000000" font-family="sans-serif" font-size="14" lengthAdjust="spacing" textLength="161" x="2173" y="77.0339">MecanographicNumber</text><rect fill="#E2E2F0" height="52.1358" rx="2.5" ry="2.5" style="stroke:#181818;stroke-width:0.5;" width="175" x="2166" y="1601.0825"/><text fill="#000000" font-family="sans-serif" font-size="14" font-style="italic" lengthAdjust="spacing" textLength="62" x="2222.5" y="1623.0484">&#171;domain&#187;</text><text fill="#000000" font-family="sans-serif" font-size="14" lengthAdjust="spacing" textLength="161" x="2173" y="1642.1164">MecanographicNumber</text><rect fill="#E2E2F0" height="52.1358" rx="2.5" ry="2.5" style="stroke:#181818;stroke-width:0.5;" width="76" x="2351" y="36"/><text fill="#000000" font-family="sans-serif" font-size="14" font-style="italic" lengthAdjust="spacing" textLength="62" x="2358" y="57.9659">&#171;domain&#187;</text><text fill="#000000" font-family="sans-serif" font-size="14" lengthAdjust="spacing" textLength="62" x="2358" y="77.0339">CourseID</text><rect fill="#E2E2F0" height="52.1358" rx="2.5" ry="2.5" style="stroke:#181818;stroke-width:0.5;" width="76" x="2351" y="1601.0825"/><text fill="#000000" font-family="sans-serif" font-size="14" font-style="italic" lengthAdjust="spacing" textLength="62" x="2358" y="1623.0484">&#171;domain&#187;</text><text fill="#000000" font-family="sans-serif" font-size="14" lengthAdjust="spacing" textLength="62" x="2358" y="1642.1164">CourseID</text><rect fill="#E2E2F0" height="52.1358" rx="2.5" ry="2.5" style="stroke:#181818;stroke-width:0.5;" width="88" x="2437" y="36"/><text fill="#000000" font-family="sans-serif" font-size="14" font-style="italic" lengthAdjust="spacing" textLength="62" x="2450" y="57.9659">&#171;domain&#187;</text><text fill="#000000" font-family="sans-serif" font-size="14" lengthAdjust="spacing" textLength="74" x="2444" y="77.0339">Enrollment</text><rect fill="#E2E2F0" height="52.1358" rx="2.5" ry="2.5" style="stroke:#181818;stroke-width:0.5;" width="88" x="2437" y="1601.0825"/><text fill="#000000" font-family="sans-serif" font-size="14" font-style="italic" lengthAdjust="spacing" textLength="62" x="2450" y="1623.0484">&#171;domain&#187;</text><text fill="#000000" font-family="sans-serif" font-size="14" lengthAdjust="spacing" textLength="74" x="2444" y="1642.1164">Enrollment</text><rect fill="#FFFFFF" height="1461.2407" style="stroke:#181818;stroke-width:1.0;" width="10" x="33.5" y="122.8419"/><rect fill="#FFFFFF" height="410.4722" style="stroke:#181818;stroke-width:1.0;" width="10" x="255.5" y="122.8419"/><rect fill="#FFFFFF" height="1019.0624" style="stroke:#181818;stroke-width:1.0;" width="10" x="255.5" y="565.0201"/><rect fill="#FFFFFF" height="347.0602" style="stroke:#181818;stroke-width:1.0;" width="10" x="469.5" y="154.5479"/><rect fill="#FFFFFF" height="733.7083" style="stroke:#181818;stroke-width:1.0;" width="10" x="469.5" y="596.7261"/><rect fill="#FFFFFF" height="158.5301" style="stroke:#181818;stroke-width:1.0;" width="10" x="469.5" y="1362.1404"/><rect fill="#FFFFFF" height="93.412" style="stroke:#181818;stroke-width:1.0;" width="10" x="656.5" y="186.2539"/><rect fill="#FFFFFF" height="30" style="stroke:#181818;stroke-width:1.0;" width="10" x="803" y="217.9599"/><rect fill="#FFFFFF" height="190.2361" style="stroke:#181818;stroke-width:1.0;" width="10" x="973.5" y="311.3719"/><rect fill="#FFFFFF" height="250.2361" style="stroke:#181818;stroke-width:1.0;" width="10" x="973.5" y="1080.1983"/><rect fill="#FFFFFF" height="95.118" style="stroke:#181818;stroke-width:1.0;" width="10" x="973.5" y="1393.8464"/><rect fill="#FFFFFF" height="31.706" style="stroke:#181818;stroke-width:1.0;" width="10" x="1210.5" y="343.0779"/><rect fill="#FFFFFF" height="31.706" style="stroke:#181818;stroke-width:1.0;" width="10" x="1210.5" y="1111.9043"/><rect fill="#FFFFFF" height="31.706" style="stroke:#181818;stroke-width:1.0;" width="10" x="1347.5" y="406.49"/><rect fill="#FFFFFF" height="31.706" style="stroke:#181818;stroke-width:1.0;" width="10" x="1347.5" y="1175.3163"/><rect fill="#FFFFFF" height="31.706" style="stroke:#181818;stroke-width:1.0;" width="10" x="1495" y="469.902"/><rect fill="#FFFFFF" height="30" style="stroke:#181818;stroke-width:1.0;" width="10" x="1495" y="1300.4344"/><rect fill="#FFFFFF" height="31.706" style="stroke:#181818;stroke-width:1.0;" width="10" x="1495" y="1425.5524"/><rect fill="#FFFFFF" height="30" style="stroke:#181818;stroke-width:1.0;" width="10" x="1627.5" y="628.4321"/><rect fill="#FFFFFF" height="138.118" style="stroke:#181818;stroke-width:1.0;" width="10" x="1728" y="690.1381"/><rect fill="#FFFFFF" height="30" style="stroke:#181818;stroke-width:1.0;" width="10" x="1897" y="721.8441"/><rect fill="#FFFFFF" height="188.5301" style="stroke:#181818;stroke-width:1.0;" width="10" x="2033.5" y="859.9622"/><rect fill="#FFFFFF" height="30" style="stroke:#181818;stroke-width:1.0;" width="10" x="2248.5" y="923.3742"/><rect fill="#FFFFFF" height="31.706" style="stroke:#181818;stroke-width:1.0;" width="10" x="2384" y="985.0802"/><rect fill="#FFFFFF" height="30" style="stroke:#181818;stroke-width:1.0;" width="10" x="2476" y="1238.7284"/><polygon fill="#181818" points="243.5,118.8419,253.5,122.8419,243.5,126.8419,247.5,122.8419" style="stroke:#181818;stroke-width:1.0;"/><line style="stroke:#181818;stroke-width:1.0;" x1="43.5" x2="249.5" y1="122.8419" y2="122.8419"/><text fill="#000000" font-family="sans-serif" font-size="13" lengthAdjust="spacing" textLength="134" x="50.5" y="117.0328">Import csv student file</text><polygon fill="#181818" points="457.5,150.5479,467.5,154.5479,457.5,158.5479,461.5,154.5479" style="stroke:#181818;stroke-width:1.0;"/><line style="stroke:#181818;stroke-width:1.0;" x1="265.5" x2="463.5" y1="154.5479" y2="154.5479"/><text fill="#000000" font-family="sans-serif" font-size="13" lengthAdjust="spacing" textLength="37" x="272.5" y="148.7389">create</text><polygon fill="#181818" points="644.5,182.2539,654.5,186.2539,644.5,190.2539,648.5,186.2539" style="stroke:#181818;stroke-width:1.0;"/><line style="stroke:#181818;stroke-width:1.0;" x1="479.5" x2="650.5" y1="186.2539" y2="186.2539"/><text fill="#000000" font-family="sans-serif" font-size="13" lengthAdjust="spacing" textLength="79" x="486.5" y="180.4449">repositories()</text><polygon fill="#181818" points="791,213.9599,801,217.9599,791,221.9599,795,217.9599" style="stroke:#181818;stroke-width:1.0;"/><line style="stroke:#181818;stroke-width:1.0;" x1="666.5" x2="797" y1="217.9599" y2="217.9599"/><text fill="#000000" font-family="sans-serif" font-size="13" lengthAdjust="spacing" textLength="37" x="673.5" y="212.1509">create</text><polygon fill="#181818" points="490.5,275.6659,480.5,279.6659,490.5,283.6659,486.5,279.6659" style="stroke:#181818;stroke-width:1.0;"/><line style="stroke:#181818;stroke-width:1.0;" x1="484.5" x2="660.5" y1="279.6659" y2="279.6659"/><text fill="#000000" font-family="sans-serif" font-size="13" lengthAdjust="spacing" textLength="42" x="496.5" y="273.8569">factory</text><polygon fill="#181818" points="961.5,307.3719,971.5,311.3719,961.5,315.3719,965.5,311.3719" style="stroke:#181818;stroke-width:1.0;"/><line style="stroke:#181818;stroke-width:1.0;" x1="479.5" x2="967.5" y1="311.3719" y2="311.3719"/><text fill="#000000" font-family="sans-serif" font-size="13" lengthAdjust="spacing" textLength="87" x="486.5" y="305.5629">create(factory)</text><polygon fill="#181818" points="1198.5,339.0779,1208.5,343.0779,1198.5,347.0779,1202.5,343.0779" style="stroke:#181818;stroke-width:1.0;"/><line style="stroke:#181818;stroke-width:1.0;" x1="983.5" x2="1204.5" y1="343.0779" y2="343.0779"/><text fill="#000000" font-family="sans-serif" font-size="13" lengthAdjust="spacing" textLength="37" x="990.5" y="337.2689">create</text><polygon fill="#181818" points="994.5,370.784,984.5,374.784,994.5,378.784,990.5,374.784" style="stroke:#181818;stroke-width:1.0;"/><line style="stroke:#181818;stroke-width:1.0;" x1="988.5" x2="1214.5" y1="374.784" y2="374.784"/><text fill="#000000" font-family="sans-serif" font-size="13" lengthAdjust="spacing" textLength="112" x="1000.5" y="368.975">studentRepository</text><polygon fill="#181818" points="1335.5,402.49,1345.5,406.49,1335.5,410.49,1339.5,406.49" style="stroke:#181818;stroke-width:1.0;"/><line style="stroke:#181818;stroke-width:1.0;" x1="983.5" x2="1341.5" y1="406.49" y2="406.49"/><text fill="#000000" font-family="sans-serif" font-size="13" lengthAdjust="spacing" textLength="37" x="990.5" y="400.681">create</text><polygon fill="#181818" points="994.5,434.196,984.5,438.196,994.5,442.196,990.5,438.196" style="stroke:#181818;stroke-width:1.0;"/><line style="stroke:#181818;stroke-width:1.0;" x1="988.5" x2="1351.5" y1="438.196" y2="438.196"/><text fill="#000000" font-family="sans-serif" font-size="13" lengthAdjust="spacing" textLength="105" x="1000.5" y="432.387">courseRepository</text><polygon fill="#181818" points="1483,465.902,1493,469.902,1483,473.902,1487,469.902" style="stroke:#181818;stroke-width:1.0;"/><line style="stroke:#181818;stroke-width:1.0;" x1="983.5" x2="1489" y1="469.902" y2="469.902"/><text fill="#000000" font-family="sans-serif" font-size="13" lengthAdjust="spacing" textLength="37" x="990.5" y="464.093">create</text><polygon fill="#181818" points="989.5,497.608,979.5,501.608,989.5,505.608,985.5,501.608" style="stroke:#181818;stroke-width:1.0;"/><line style="stroke:#181818;stroke-width:1.0;" x1="983.5" x2="1499" y1="501.608" y2="501.608"/><text fill="#000000" font-family="sans-serif" font-size="13" lengthAdjust="spacing" textLength="131" x="995.5" y="495.799">enrollmentRepository</text><polygon fill="#181818" points="54.5,529.314,44.5,533.314,54.5,537.314,50.5,533.314" style="stroke:#181818;stroke-width:1.0;"/><line style="stroke:#181818;stroke-width:1.0;stroke-dasharray:2.0,2.0;" x1="48.5" x2="259.5" y1="533.314" y2="533.314"/><text fill="#000000" font-family="sans-serif" font-size="13" lengthAdjust="spacing" textLength="180" x="60.5" y="527.505">asks manager to type file path</text><polygon fill="#181818" points="243.5,561.0201,253.5,565.0201,243.5,569.0201,247.5,565.0201" style="stroke:#181818;stroke-width:1.0;"/><line style="stroke:#181818;stroke-width:1.0;" x1="43.5" x2="249.5" y1="565.0201" y2="565.0201"/><text fill="#000000" font-family="sans-serif" font-size="13" lengthAdjust="spacing" textLength="84" x="50.5" y="559.2111">types file path</text><polygon fill="#181818" points="457.5,592.7261,467.5,596.7261,457.5,600.7261,461.5,596.7261" style="stroke:#181818;stroke-width:1.0;"/><line style="stroke:#181818;stroke-width:1.0;" x1="265.5" x2="463.5" y1="596.7261" y2="596.7261"/><text fill="#000000" font-family="sans-serif" font-size="13" lengthAdjust="spacing" textLength="42" x="272.5" y="590.9171">file(file)</text><polygon fill="#181818" points="1615.5,624.4321,1625.5,628.4321,1615.5,632.4321,1619.5,628.4321" style="stroke:#181818;stroke-width:1.0;"/><line style="stroke:#181818;stroke-width:1.0;" x1="479.5" x2="1621.5" y1="628.4321" y2="628.4321"/><text fill="#000000" font-family="sans-serif" font-size="13" lengthAdjust="spacing" textLength="162" x="486.5" y="622.6231">CSVHeader.ENROLLMENTS</text><polygon fill="#181818" points="1716,686.1381,1726,690.1381,1716,694.1381,1720,690.1381" style="stroke:#181818;stroke-width:1.0;"/><line style="stroke:#181818;stroke-width:1.0;" x1="479.5" x2="1722" y1="690.1381" y2="690.1381"/><text fill="#000000" font-family="sans-serif" font-size="13" lengthAdjust="spacing" textLength="240" x="486.5" y="684.3291">readCSV(file,CSVHeader.ENROLLMENTS)</text><polygon fill="#181818" points="1885,717.8441,1895,721.8441,1885,725.8441,1889,721.8441" style="stroke:#181818;stroke-width:1.0;"/><line style="stroke:#181818;stroke-width:1.0;" x1="1738" x2="1891" y1="721.8441" y2="721.8441"/><text fill="#000000" font-family="sans-serif" font-size="13" lengthAdjust="spacing" textLength="37" x="1745" y="716.0351">create</text><line style="stroke:#181818;stroke-width:1.0;" x1="1738" x2="1780" y1="783.5501" y2="783.5501"/><line style="stroke:#181818;stroke-width:1.0;" x1="1780" x2="1780" y1="783.5501" y2="796.5501"/><line style="stroke:#181818;stroke-width:1.0;" x1="1739" x2="1780" y1="796.5501" y2="796.5501"/><polygon fill="#181818" points="1749,792.5501,1739,796.5501,1749,800.5501,1745,796.5501" style="stroke:#181818;stroke-width:1.0;"/><text fill="#000000" font-family="sans-serif" font-size="13" lengthAdjust="spacing" textLength="145" x="1745" y="777.7411">readCSV(stream,header)</text><polygon fill="#181818" points="490.5,824.2562,480.5,828.2562,490.5,832.2562,486.5,828.2562" style="stroke:#181818;stroke-width:1.0;"/><line style="stroke:#181818;stroke-width:1.0;" x1="484.5" x2="1732" y1="828.2562" y2="828.2562"/><text fill="#000000" font-family="sans-serif" font-size="13" lengthAdjust="spacing" textLength="123" x="496.5" y="822.4472">ListOfArrayOfStrings</text><polygon fill="#181818" points="2021.5,855.9622,2031.5,859.9622,2021.5,863.9622,2025.5,859.9622" style="stroke:#181818;stroke-width:1.0;"/><line style="stroke:#181818;stroke-width:1.0;" x1="479.5" x2="2027.5" y1="859.9622" y2="859.9622"/><text fill="#000000" font-family="sans-serif" font-size="13" lengthAdjust="spacing" textLength="37" x="486.5" y="854.1532">create</text><polygon fill="#181818" points="2021.5,887.6682,2031.5,891.6682,2021.5,895.6682,2025.5,891.6682" style="stroke:#181818;stroke-width:1.0;"/><line style="stroke:#181818;stroke-width:1.0;" x1="479.5" x2="2027.5" y1="891.6682" y2="891.6682"/><text fill="#000000" font-family="sans-serif" font-size="13" lengthAdjust="spacing" textLength="164" x="486.5" y="885.8592">parse(ListOfArrayOfStrings)</text><polygon fill="#181818" points="2236.5,919.3742,2246.5,923.3742,2236.5,927.3742,2240.5,923.3742" style="stroke:#181818;stroke-width:1.0;"/><line style="stroke:#181818;stroke-width:1.0;" x1="2043.5" x2="2242.5" y1="923.3742" y2="923.3742"/><text fill="#000000" font-family="sans-serif" font-size="13" lengthAdjust="spacing" textLength="186" x="2050.5" y="917.5652">create(mecanographicnumber)</text><polygon fill="#181818" points="2372,981.0802,2382,985.0802,2372,989.0802,2376,985.0802" style="stroke:#181818;stroke-width:1.0;"/><line style="stroke:#181818;stroke-width:1.0;" x1="2043.5" x2="2378" y1="985.0802" y2="985.0802"/><text fill="#000000" font-family="sans-serif" font-size="13" lengthAdjust="spacing" textLength="107" x="2050.5" y="979.2712">valueOf(courseID)</text><polygon fill="#181818" points="2054.5,1012.7862,2044.5,1016.7862,2054.5,1020.7862,2050.5,1016.7862" style="stroke:#181818;stroke-width:1.0;"/><line style="stroke:#181818;stroke-width:1.0;" x1="2048.5" x2="2388" y1="1016.7862" y2="1016.7862"/><text fill="#000000" font-family="sans-serif" font-size="13" lengthAdjust="spacing" textLength="53" x="2060.5" y="1010.9772">courseID</text><polygon fill="#181818" points="490.5,1044.4923,480.5,1048.4923,490.5,1052.4923,486.5,1048.4923" style="stroke:#181818;stroke-width:1.0;"/><line style="stroke:#181818;stroke-width:1.0;" x1="484.5" x2="2037.5" y1="1048.4923" y2="1048.4923"/><text fill="#000000" font-family="sans-serif" font-size="13" lengthAdjust="spacing" textLength="62" x="496.5" y="1042.6833">parsedList</text><polygon fill="#181818" points="961.5,1076.1983,971.5,1080.1983,961.5,1084.1983,965.5,1080.1983" style="stroke:#181818;stroke-width:1.0;"/><line style="stroke:#181818;stroke-width:1.0;" x1="479.5" x2="967.5" y1="1080.1983" y2="1080.1983"/><text fill="#000000" font-family="sans-serif" font-size="13" lengthAdjust="spacing" textLength="130" x="486.5" y="1074.3893">bulkEnroll(parsedList)</text><polygon fill="#181818" points="1198.5,1107.9043,1208.5,1111.9043,1198.5,1115.9043,1202.5,1111.9043" style="stroke:#181818;stroke-width:1.0;"/><line style="stroke:#181818;stroke-width:1.0;" x1="983.5" x2="1204.5" y1="1111.9043" y2="1111.9043"/><text fill="#000000" font-family="sans-serif" font-size="13" lengthAdjust="spacing" textLength="208" x="990.5" y="1106.0953">ofIdentity(mecanographicnumber)</text><polygon fill="#181818" points="994.5,1139.6103,984.5,1143.6103,994.5,1147.6103,990.5,1143.6103" style="stroke:#181818;stroke-width:1.0;"/><line style="stroke:#181818;stroke-width:1.0;" x1="988.5" x2="1214.5" y1="1143.6103" y2="1143.6103"/><text fill="#000000" font-family="sans-serif" font-size="13" lengthAdjust="spacing" textLength="47" x="1000.5" y="1137.8013">student</text><polygon fill="#181818" points="1335.5,1171.3163,1345.5,1175.3163,1335.5,1179.3163,1339.5,1175.3163" style="stroke:#181818;stroke-width:1.0;"/><line style="stroke:#181818;stroke-width:1.0;" x1="983.5" x2="1341.5" y1="1175.3163" y2="1175.3163"/><text fill="#000000" font-family="sans-serif" font-size="13" lengthAdjust="spacing" textLength="120" x="990.5" y="1169.5073">ofIdentity(courseID)</text><polygon fill="#181818" points="994.5,1203.0223,984.5,1207.0223,994.5,1211.0223,990.5,1207.0223" style="stroke:#181818;stroke-width:1.0;"/><line style="stroke:#181818;stroke-width:1.0;" x1="988.5" x2="1351.5" y1="1207.0223" y2="1207.0223"/><text fill="#000000" font-family="sans-serif" font-size="13" lengthAdjust="spacing" textLength="40" x="1000.5" y="1201.2133">course</text><polygon fill="#181818" points="2464,1234.7284,2474,1238.7284,2464,1242.7284,2468,1238.7284" style="stroke:#181818;stroke-width:1.0;"/><line style="stroke:#181818;stroke-width:1.0;" x1="983.5" x2="2470" y1="1238.7284" y2="1238.7284"/><text fill="#000000" font-family="sans-serif" font-size="13" lengthAdjust="spacing" textLength="135" x="990.5" y="1232.9194">create(course,student)</text><polygon fill="#181818" points="1483,1296.4344,1493,1300.4344,1483,1304.4344,1487,1300.4344" style="stroke:#181818;stroke-width:1.0;"/><line style="stroke:#181818;stroke-width:1.0;" x1="983.5" x2="1489" y1="1300.4344" y2="1300.4344"/><text fill="#000000" font-family="sans-serif" font-size="13" lengthAdjust="spacing" textLength="101" x="990.5" y="1294.6254">save(enrollment)</text><polygon fill="#181818" points="457.5,1358.1404,467.5,1362.1404,457.5,1366.1404,461.5,1362.1404" style="stroke:#181818;stroke-width:1.0;"/><line style="stroke:#181818;stroke-width:1.0;" x1="265.5" x2="463.5" y1="1362.1404" y2="1362.1404"/><text fill="#000000" font-family="sans-serif" font-size="13" lengthAdjust="spacing" textLength="185" x="272.5" y="1356.3314">listAllEnrollmentsInAllCourses()</text><polygon fill="#181818" points="961.5,1389.8464,971.5,1393.8464,961.5,1397.8464,965.5,1393.8464" style="stroke:#181818;stroke-width:1.0;"/><line style="stroke:#181818;stroke-width:1.0;" x1="479.5" x2="967.5" y1="1393.8464" y2="1393.8464"/><text fill="#000000" font-family="sans-serif" font-size="13" lengthAdjust="spacing" textLength="185" x="486.5" y="1388.0374">listAllEnrollmentsInAllCourses()</text><polygon fill="#181818" points="1483,1421.5524,1493,1425.5524,1483,1429.5524,1487,1425.5524" style="stroke:#181818;stroke-width:1.0;"/><line style="stroke:#181818;stroke-width:1.0;" x1="983.5" x2="1489" y1="1425.5524" y2="1425.5524"/><text fill="#000000" font-family="sans-serif" font-size="13" lengthAdjust="spacing" textLength="45" x="990.5" y="1419.7434">findAll()</text><polygon fill="#181818" points="994.5,1453.2584,984.5,1457.2584,994.5,1461.2584,990.5,1457.2584" style="stroke:#181818;stroke-width:1.0;"/><line style="stroke:#181818;stroke-width:1.0;" x1="988.5" x2="1499" y1="1457.2584" y2="1457.2584"/><text fill="#000000" font-family="sans-serif" font-size="13" lengthAdjust="spacing" textLength="72" x="1000.5" y="1451.4494">enrollments</text><polygon fill="#181818" points="490.5,1484.9645,480.5,1488.9645,490.5,1492.9645,486.5,1488.9645" style="stroke:#181818;stroke-width:1.0;"/><line style="stroke:#181818;stroke-width:1.0;" x1="484.5" x2="977.5" y1="1488.9645" y2="1488.9645"/><text fill="#000000" font-family="sans-serif" font-size="13" lengthAdjust="spacing" textLength="72" x="496.5" y="1483.1555">enrollments</text><polygon fill="#181818" points="276.5,1516.6705,266.5,1520.6705,276.5,1524.6705,272.5,1520.6705" style="stroke:#181818;stroke-width:1.0;"/><line style="stroke:#181818;stroke-width:1.0;" x1="270.5" x2="473.5" y1="1520.6705" y2="1520.6705"/><text fill="#000000" font-family="sans-serif" font-size="13" lengthAdjust="spacing" textLength="72" x="282.5" y="1514.8615">enrollments</text><polygon fill="#181818" points="54.5,1548.3765,44.5,1552.3765,54.5,1556.3765,50.5,1552.3765" style="stroke:#181818;stroke-width:1.0;"/><line style="stroke:#181818;stroke-width:1.0;stroke-dasharray:2.0,2.0;" x1="48.5" x2="254.5" y1="1552.3765" y2="1552.3765"/><text fill="#000000" font-family="sans-serif" font-size="13" lengthAdjust="spacing" textLength="164" x="60.5" y="1546.5675">shows list of all enrollments</text><polygon fill="#181818" points="49.5,1580.0825,39.5,1584.0825,49.5,1588.0825,45.5,1584.0825" style="stroke:#181818;stroke-width:1.0;"/><line style="stroke:#181818;stroke-width:1.0;stroke-dasharray:2.0,2.0;" x1="43.5" x2="259.5" y1="1584.0825" y2="1584.0825"/><text fill="#000000" font-family="sans-serif" font-size="13" lengthAdjust="spacing" textLength="188" x="55.5" y="1578.2735">informs sucess of the operation</text><!--SRC=[bLTBR-CW4BxxLt1RH-hZRbcHkjskDbBQLCrsxvIG1jK62t1sy-ztm3R61Zk93n6F-RuPPfWPyksWTPNTtrS5vhekYpiYodlrnNY59Ixl3heiaWGJBIHwnXn_KecmGWzc8G4HpGYh08aUjt_M0k-etEfwHxbMxoiZ2BzvNacgO0bh9lXoEGzx55nBKHID7jBFyXnNLS58ZEMLIiMKffnGWwV_j05N_Qenef-Dq6-q4eh1WKvxUz2J0NV3F6z78z3tklXwuiQspl8jbKS6gW2isc6UjoC0xx367rXHrChtMYr2mXJafLlr8O-YbeeE4MGMqPXM1dfe33KAo2zg0c9rgEEXcUGvvNLvKsjMg13nvYDaXuW9_sG5NV6grbiDSgNrD2mnipGGx0_mYk7ibhngHdCtuPaIpCMdnDM1aPUw_6YG9Im3RYTAp88hQ9sx-j7SjtOy8TjRPPrfPxuiV3OrqEqIhdw6LcKbf3PUGQe9kpskIIXsn9gsYUIcxwi4mGTP0mJzvSzCj67VRZhXVj-kcy_B5o3m4o13BkICgdJX88xEatQRvlDPWBHBZ85D0LahDTZSqTdjaHxlA5aWxr7vPYSJZkZoiRCvRVaYNcX51vPrSCDayoTwzY6DaGksBPbbk5tsDgbnGGXmtd53OiywSg5rPD8w4bX7HhLdpZWoPnozq3WwQHmDZAEHCZTdu93RTwiNTlz0mnGpUGadQL8yWnBm1QMbxOfQ87sggCrlg5Jwa7WyRLvxjG7WHbnvykUhW95DpS_YoahG5_Aih_1tJozlc_Nw-UdbzpPC10U9kIlS3FJ9JfyPW4vhzqrK-IAgNGuLM2MErXIYhc-SAqMklqmL8oSmhIns86LRs4tZYCKCrgzaQwXLc_s3bFYqsKCJPFnJ9HCkRZqmLTsRRXWSlg-CLc02xj1saCRCMWpzqI90i-schfQMVilbjkKkuf4mabD12FPwTQufP-Y8YvfkzcctDA6esnx6fACP-2ucEIW0aNtVD2-qTdbdF1aDw6mul1RruLwMQSyuqwdEjIgnNvdsmlJfYb35-rVNkr3Gl9BPTdMkNtacdejil3cGqB26A9djL9EjgddOkIlUSDsqPvqmhG5DAMntppL7XOyqxRlQbAh02zVqkFQP56zpqSw3iWBku4DHzEzVjU8mRzxEtNFoydxamdGHxpKFjCwHUyPtG9HUx47_WO5YBmnrcSF7LznpOenhuWqIkim-6SOCPsBelLNKGVnLoBWRiWrXkDrZhX60yRsG9VmphGbLoe3qWI81pstxlslqkl5cbk0_]--></g></svg>