<?xml version="1.0" encoding="us-ascii" standalone="no"?><svg xmlns="http://www.w3.org/2000/svg" xmlns:xlink="http://www.w3.org/1999/xlink" contentStyleType="text/css" height="1856px" preserveAspectRatio="none" style="width:2161px;height:1856px;background:#FFFFFF;" version="1.1" viewBox="0 0 2161 1856" width="2161px" zoomAndPan="magnify"><defs/><g><rect fill="#FFFFFF" height="1617.7148" style="stroke:#181818;stroke-width:1.0;" width="10" x="247" y="121.5332"/><rect fill="#FFFFFF" height="31.291" style="stroke:#181818;stroke-width:1.0;" width="10" x="437" y="152.8242"/><rect fill="#FFFFFF" height="61.291" style="stroke:#181818;stroke-width:1.0;" width="10" x="437" y="356.5703"/><rect fill="#FFFFFF" height="61.291" style="stroke:#181818;stroke-width:1.0;" width="10" x="745" y="184.1152"/><rect fill="#FFFFFF" height="683.6934" style="stroke:#181818;stroke-width:1.0;" width="10" x="745" y="387.8613"/><rect fill="#FFFFFF" height="570.5293" style="stroke:#181818;stroke-width:1.0;" width="10" x="745" y="1137.4277"/><rect fill="#FFFFFF" height="30" style="stroke:#181818;stroke-width:1.0;" width="10" x="976" y="215.4063"/><rect fill="#FFFFFF" height="570.5293" style="stroke:#181818;stroke-width:1.0;" width="10" x="976" y="501.0254"/><rect fill="#FFFFFF" height="570.5293" style="stroke:#181818;stroke-width:1.0;" width="10" x="976" y="1137.4277"/><rect fill="#FFFFFF" height="128.4551" style="stroke:#181818;stroke-width:1.0;" width="10" x="1147" y="686.7715"/><rect fill="#FFFFFF" height="99.873" style="stroke:#181818;stroke-width:1.0;" width="10" x="1422" y="846.5176"/><rect fill="#FFFFFF" height="99.873" style="stroke:#181818;stroke-width:1.0;" width="10" x="1422" y="1482.9199"/><rect fill="#FFFFFF" height="62.582" style="stroke:#181818;stroke-width:1.0;" width="10" x="1565" y="977.6816"/><rect fill="#FFFFFF" height="62.582" style="stroke:#181818;stroke-width:1.0;" width="10" x="1565" y="1614.084"/><rect fill="#FFFFFF" height="128.4551" style="stroke:#181818;stroke-width:1.0;" width="10" x="1806.5" y="1323.1738"/><line style="stroke:#181818;stroke-width:0.5;stroke-dasharray:5.0,5.0;" x1="36" x2="36" y1="88.2422" y2="1757.248"/><line style="stroke:#181818;stroke-width:0.5;stroke-dasharray:5.0,5.0;" x1="251.5" x2="251.5" y1="88.2422" y2="1757.248"/><line style="stroke:#181818;stroke-width:0.5;stroke-dasharray:5.0,5.0;" x1="441.5" x2="441.5" y1="88.2422" y2="1757.248"/><line style="stroke:#181818;stroke-width:0.5;stroke-dasharray:5.0,5.0;" x1="620.5" x2="620.5" y1="88.2422" y2="1757.248"/><line style="stroke:#181818;stroke-width:0.5;stroke-dasharray:5.0,5.0;" x1="749.5" x2="749.5" y1="88.2422" y2="1757.248"/><line style="stroke:#181818;stroke-width:0.5;stroke-dasharray:5.0,5.0;" x1="981" x2="981" y1="88.2422" y2="1757.248"/><line style="stroke:#181818;stroke-width:0.5;stroke-dasharray:5.0,5.0;" x1="1151.5" x2="1151.5" y1="88.2422" y2="1757.248"/><line style="stroke:#181818;stroke-width:0.5;stroke-dasharray:5.0,5.0;" x1="1311" x2="1311" y1="88.2422" y2="1757.248"/><line style="stroke:#181818;stroke-width:0.5;stroke-dasharray:5.0,5.0;" x1="1427" x2="1427" y1="88.2422" y2="1757.248"/><line style="stroke:#181818;stroke-width:0.5;stroke-dasharray:5.0,5.0;" x1="1570" x2="1570" y1="88.2422" y2="1757.248"/><line style="stroke:#181818;stroke-width:0.5;stroke-dasharray:5.0,5.0;" x1="1696" x2="1696" y1="88.2422" y2="1757.248"/><line style="stroke:#181818;stroke-width:0.5;stroke-dasharray:5.0,5.0;" x1="1811" x2="1811" y1="88.2422" y2="1757.248"/><line style="stroke:#181818;stroke-width:0.5;stroke-dasharray:5.0,5.0;" x1="1970.5" x2="1970.5" y1="88.2422" y2="1757.248"/><line style="stroke:#181818;stroke-width:0.5;stroke-dasharray:5.0,5.0;" x1="2098.5" x2="2098.5" y1="88.2422" y2="1757.248"/><text fill="#000000" font-family="sans-serif" font-size="14" lengthAdjust="spacing" textLength="56" x="5" y="84.7285">Manager</text><ellipse cx="36" cy="18.1211" fill="#E2E2F0" rx="8" ry="8" style="stroke:#181818;stroke-width:0.5;"/><path d="M36,26.1211 L36,53.1211 M23,34.1211 L49,34.1211 M36,53.1211 L23,68.1211 M36,53.1211 L49,68.1211 " fill="none" style="stroke:#181818;stroke-width:0.5;"/><text fill="#000000" font-family="sans-serif" font-size="14" lengthAdjust="spacing" textLength="56" x="5" y="1771.3555">Manager</text><ellipse cx="36" cy="1783.3691" fill="#E2E2F0" rx="8" ry="8" style="stroke:#181818;stroke-width:0.5;"/><path d="M36,1791.3691 L36,1818.3691 M23,1799.3691 L49,1799.3691 M36,1818.3691 L23,1833.3691 M36,1818.3691 L49,1833.3691 " fill="none" style="stroke:#181818;stroke-width:0.5;"/><rect fill="#E2E2F0" height="51.2422" rx="2.5" ry="2.5" style="stroke:#181818;stroke-width:0.5;" width="155" x="174.5" y="36"/><text fill="#000000" font-family="sans-serif" font-size="14" font-style="italic" lengthAdjust="spacing" textLength="95" x="204.5" y="58.1074">&#171;presentation&#187;</text><text fill="#000000" font-family="sans-serif" font-size="14" lengthAdjust="spacing" textLength="141" x="181.5" y="76.7285">CSVLoaderStudentsUI</text><rect fill="#E2E2F0" height="51.2422" rx="2.5" ry="2.5" style="stroke:#181818;stroke-width:0.5;" width="155" x="174.5" y="1756.248"/><text fill="#000000" font-family="sans-serif" font-size="14" font-style="italic" lengthAdjust="spacing" textLength="95" x="204.5" y="1778.3555">&#171;presentation&#187;</text><text fill="#000000" font-family="sans-serif" font-size="14" lengthAdjust="spacing" textLength="141" x="181.5" y="1796.9766">CSVLoaderStudentsUI</text><rect fill="#E2E2F0" height="51.2422" rx="2.5" ry="2.5" style="stroke:#181818;stroke-width:0.5;" width="205" x="339.5" y="36"/><text fill="#000000" font-family="sans-serif" font-size="14" font-style="italic" lengthAdjust="spacing" textLength="84" x="400" y="58.1074">&#171;application&#187;</text><text fill="#000000" font-family="sans-serif" font-size="14" lengthAdjust="spacing" textLength="191" x="346.5" y="76.7285">CSVLoaderStudentsController</text><rect fill="#E2E2F0" height="51.2422" rx="2.5" ry="2.5" style="stroke:#181818;stroke-width:0.5;" width="205" x="339.5" y="1756.248"/><text fill="#000000" font-family="sans-serif" font-size="14" font-style="italic" lengthAdjust="spacing" textLength="84" x="400" y="1778.3555">&#171;application&#187;</text><text fill="#000000" font-family="sans-serif" font-size="14" lengthAdjust="spacing" textLength="191" x="346.5" y="1796.9766">CSVLoaderStudentsController</text><rect fill="#E2E2F0" height="32.6211" rx="2.5" ry="2.5" style="stroke:#181818;stroke-width:0.5;" width="133" x="554.5" y="54.6211"/><text fill="#000000" font-family="sans-serif" font-size="14" lengthAdjust="spacing" textLength="119" x="561.5" y="76.7285">:List&lt;String[]&gt; data</text><rect fill="#E2E2F0" height="32.6211" rx="2.5" ry="2.5" style="stroke:#181818;stroke-width:0.5;" width="133" x="554.5" y="1756.248"/><text fill="#000000" font-family="sans-serif" font-size="14" lengthAdjust="spacing" textLength="119" x="561.5" y="1778.3555">:List&lt;String[]&gt; data</text><rect fill="#E2E2F0" height="51.2422" rx="2.5" ry="2.5" style="stroke:#181818;stroke-width:0.5;" width="105" x="697.5" y="36"/><text fill="#000000" font-family="sans-serif" font-size="14" font-style="italic" lengthAdjust="spacing" textLength="84" x="708" y="58.1074">&#171;application&#187;</text><text fill="#000000" font-family="sans-serif" font-size="14" lengthAdjust="spacing" textLength="91" x="704.5" y="76.7285">StudentParser</text><rect fill="#E2E2F0" height="51.2422" rx="2.5" ry="2.5" style="stroke:#181818;stroke-width:0.5;" width="105" x="697.5" y="1756.248"/><text fill="#000000" font-family="sans-serif" font-size="14" font-style="italic" lengthAdjust="spacing" textLength="84" x="708" y="1778.3555">&#171;application&#187;</text><text fill="#000000" font-family="sans-serif" font-size="14" lengthAdjust="spacing" textLength="91" x="704.5" y="1796.9766">StudentParser</text><rect fill="#E2E2F0" height="51.2422" rx="2.5" ry="2.5" style="stroke:#181818;stroke-width:0.5;" width="130" x="916" y="36"/><text fill="#000000" font-family="sans-serif" font-size="14" font-style="italic" lengthAdjust="spacing" textLength="84" x="939" y="58.1074">&#171;application&#187;</text><text fill="#000000" font-family="sans-serif" font-size="14" lengthAdjust="spacing" textLength="116" x="923" y="76.7285">AddUserController</text><rect fill="#E2E2F0" height="51.2422" rx="2.5" ry="2.5" style="stroke:#181818;stroke-width:0.5;" width="130" x="916" y="1756.248"/><text fill="#000000" font-family="sans-serif" font-size="14" font-style="italic" lengthAdjust="spacing" textLength="84" x="939" y="1778.3555">&#171;application&#187;</text><text fill="#000000" font-family="sans-serif" font-size="14" lengthAdjust="spacing" textLength="116" x="923" y="1796.9766">AddUserController</text><rect fill="#E2E2F0" height="51.2422" rx="2.5" ry="2.5" style="stroke:#181818;stroke-width:0.5;" width="87" x="1108.5" y="36"/><text fill="#000000" font-family="sans-serif" font-size="14" font-style="italic" lengthAdjust="spacing" textLength="59" x="1122.5" y="58.1074">&#171;builder&#187;</text><text fill="#000000" font-family="sans-serif" font-size="14" lengthAdjust="spacing" textLength="73" x="1115.5" y="76.7285">UserBuilder</text><rect fill="#E2E2F0" height="51.2422" rx="2.5" ry="2.5" style="stroke:#181818;stroke-width:0.5;" width="87" x="1108.5" y="1756.248"/><text fill="#000000" font-family="sans-serif" font-size="14" font-style="italic" lengthAdjust="spacing" textLength="59" x="1122.5" y="1778.3555">&#171;builder&#187;</text><text fill="#000000" font-family="sans-serif" font-size="14" lengthAdjust="spacing" textLength="73" x="1115.5" y="1796.9766">UserBuilder</text><rect fill="#E2E2F0" height="51.2422" rx="2.5" ry="2.5" style="stroke:#181818;stroke-width:0.5;" width="76" x="1273" y="36"/><text fill="#000000" font-family="sans-serif" font-size="14" font-style="italic" lengthAdjust="spacing" textLength="62" x="1280" y="58.1074">&#171;domain&#187;</text><text fill="#000000" font-family="sans-serif" font-size="14" lengthAdjust="spacing" textLength="61" x="1280.5" y="76.7285">user:User</text><rect fill="#E2E2F0" height="51.2422" rx="2.5" ry="2.5" style="stroke:#181818;stroke-width:0.5;" width="76" x="1273" y="1756.248"/><text fill="#000000" font-family="sans-serif" font-size="14" font-style="italic" lengthAdjust="spacing" textLength="62" x="1280" y="1778.3555">&#171;domain&#187;</text><text fill="#000000" font-family="sans-serif" font-size="14" lengthAdjust="spacing" textLength="61" x="1280.5" y="1796.9766">user:User</text><rect fill="#E2E2F0" height="51.2422" rx="2.5" ry="2.5" style="stroke:#181818;stroke-width:0.5;" width="136" x="1359" y="36"/><text fill="#000000" font-family="sans-serif" font-size="14" font-style="italic" lengthAdjust="spacing" textLength="89" x="1382.5" y="58.1074">&#171;persistence&#187;</text><text fill="#000000" font-family="sans-serif" font-size="14" lengthAdjust="spacing" textLength="122" x="1366" y="76.7285">PersistenceContext</text><rect fill="#E2E2F0" height="51.2422" rx="2.5" ry="2.5" style="stroke:#181818;stroke-width:0.5;" width="136" x="1359" y="1756.248"/><text fill="#000000" font-family="sans-serif" font-size="14" font-style="italic" lengthAdjust="spacing" textLength="89" x="1382.5" y="1778.3555">&#171;persistence&#187;</text><text fill="#000000" font-family="sans-serif" font-size="14" lengthAdjust="spacing" textLength="122" x="1366" y="1796.9766">PersistenceContext</text><rect fill="#E2E2F0" height="51.2422" rx="2.5" ry="2.5" style="stroke:#181818;stroke-width:0.5;" width="130" x="1505" y="36"/><text fill="#000000" font-family="sans-serif" font-size="14" font-style="italic" lengthAdjust="spacing" textLength="59" x="1540.5" y="58.1074">&#171;factory&#187;</text><text fill="#000000" font-family="sans-serif" font-size="14" lengthAdjust="spacing" textLength="116" x="1512" y="76.7285">RepositoryFactory</text><rect fill="#E2E2F0" height="51.2422" rx="2.5" ry="2.5" style="stroke:#181818;stroke-width:0.5;" width="130" x="1505" y="1756.248"/><text fill="#000000" font-family="sans-serif" font-size="14" font-style="italic" lengthAdjust="spacing" textLength="59" x="1540.5" y="1778.3555">&#171;factory&#187;</text><text fill="#000000" font-family="sans-serif" font-size="14" lengthAdjust="spacing" textLength="116" x="1512" y="1796.9766">RepositoryFactory</text><text fill="#000000" font-family="sans-serif" font-size="14" font-style="italic" lengthAdjust="spacing" textLength="79" x="1654" y="66.1074">&#171;repository&#187;</text><text fill="#000000" font-family="sans-serif" font-size="14" lengthAdjust="spacing" textLength="97" x="1645" y="84.7285">UserRepository</text><path d="M1678.5,15 C1678.5,5 1696.5,5 1696.5,5 C1696.5,5 1714.5,5 1714.5,15 L1714.5,41 C1714.5,51 1696.5,51 1696.5,51 C1696.5,51 1678.5,51 1678.5,41 L1678.5,15 " fill="#E2E2F0" style="stroke:#181818;stroke-width:1.5;"/><path d="M1678.5,15 C1678.5,25 1696.5,25 1696.5,25 C1696.5,25 1714.5,25 1714.5,15 " fill="none" style="stroke:#181818;stroke-width:1.5;"/><text fill="#000000" font-family="sans-serif" font-size="14" font-style="italic" lengthAdjust="spacing" textLength="79" x="1654" y="1771.3555">&#171;repository&#187;</text><text fill="#000000" font-family="sans-serif" font-size="14" lengthAdjust="spacing" textLength="97" x="1645" y="1789.9766">UserRepository</text><path d="M1678.5,1803.4902 C1678.5,1793.4902 1696.5,1793.4902 1696.5,1793.4902 C1696.5,1793.4902 1714.5,1793.4902 1714.5,1803.4902 L1714.5,1829.4902 C1714.5,1839.4902 1696.5,1839.4902 1696.5,1839.4902 C1696.5,1839.4902 1678.5,1839.4902 1678.5,1829.4902 L1678.5,1803.4902 " fill="#E2E2F0" style="stroke:#181818;stroke-width:1.5;"/><path d="M1678.5,1803.4902 C1678.5,1813.4902 1696.5,1813.4902 1696.5,1813.4902 C1696.5,1813.4902 1714.5,1813.4902 1714.5,1803.4902 " fill="none" style="stroke:#181818;stroke-width:1.5;"/><rect fill="#E2E2F0" height="51.2422" rx="2.5" ry="2.5" style="stroke:#181818;stroke-width:0.5;" width="107" x="1758" y="36"/><text fill="#000000" font-family="sans-serif" font-size="14" font-style="italic" lengthAdjust="spacing" textLength="59" x="1782" y="58.1074">&#171;builder&#187;</text><text fill="#000000" font-family="sans-serif" font-size="14" lengthAdjust="spacing" textLength="93" x="1765" y="76.7285">StudentBuilder</text><rect fill="#E2E2F0" height="51.2422" rx="2.5" ry="2.5" style="stroke:#181818;stroke-width:0.5;" width="107" x="1758" y="1756.248"/><text fill="#000000" font-family="sans-serif" font-size="14" font-style="italic" lengthAdjust="spacing" textLength="59" x="1782" y="1778.3555">&#171;builder&#187;</text><text fill="#000000" font-family="sans-serif" font-size="14" lengthAdjust="spacing" textLength="93" x="1765" y="1796.9766">StudentBuilder</text><rect fill="#E2E2F0" height="51.2422" rx="2.5" ry="2.5" style="stroke:#181818;stroke-width:0.5;" width="114" x="1913.5" y="36"/><text fill="#000000" font-family="sans-serif" font-size="14" font-style="italic" lengthAdjust="spacing" textLength="62" x="1939.5" y="58.1074">&#171;domain&#187;</text><text fill="#000000" font-family="sans-serif" font-size="14" lengthAdjust="spacing" textLength="100" x="1920.5" y="76.7285">student:Student</text><rect fill="#E2E2F0" height="51.2422" rx="2.5" ry="2.5" style="stroke:#181818;stroke-width:0.5;" width="114" x="1913.5" y="1756.248"/><text fill="#000000" font-family="sans-serif" font-size="14" font-style="italic" lengthAdjust="spacing" textLength="62" x="1939.5" y="1778.3555">&#171;domain&#187;</text><text fill="#000000" font-family="sans-serif" font-size="14" lengthAdjust="spacing" textLength="100" x="1920.5" y="1796.9766">student:Student</text><text fill="#000000" font-family="sans-serif" font-size="14" font-style="italic" lengthAdjust="spacing" textLength="79" x="2056.5" y="66.1074">&#171;repository&#187;</text><text fill="#000000" font-family="sans-serif" font-size="14" lengthAdjust="spacing" textLength="117" x="2037.5" y="84.7285">StudentRepository</text><path d="M2081,15 C2081,5 2099,5 2099,5 C2099,5 2117,5 2117,15 L2117,41 C2117,51 2099,51 2099,51 C2099,51 2081,51 2081,41 L2081,15 " fill="#E2E2F0" style="stroke:#181818;stroke-width:1.5;"/><path d="M2081,15 C2081,25 2099,25 2099,25 C2099,25 2117,25 2117,15 " fill="none" style="stroke:#181818;stroke-width:1.5;"/><text fill="#000000" font-family="sans-serif" font-size="14" font-style="italic" lengthAdjust="spacing" textLength="79" x="2056.5" y="1771.3555">&#171;repository&#187;</text><text fill="#000000" font-family="sans-serif" font-size="14" lengthAdjust="spacing" textLength="117" x="2037.5" y="1789.9766">StudentRepository</text><path d="M2081,1803.4902 C2081,1793.4902 2099,1793.4902 2099,1793.4902 C2099,1793.4902 2117,1793.4902 2117,1803.4902 L2117,1829.4902 C2117,1839.4902 2099,1839.4902 2099,1839.4902 C2099,1839.4902 2081,1839.4902 2081,1829.4902 L2081,1803.4902 " fill="#E2E2F0" style="stroke:#181818;stroke-width:1.5;"/><path d="M2081,1803.4902 C2081,1813.4902 2099,1813.4902 2099,1813.4902 C2099,1813.4902 2117,1813.4902 2117,1803.4902 " fill="none" style="stroke:#181818;stroke-width:1.5;"/><rect fill="#FFFFFF" height="1617.7148" style="stroke:#181818;stroke-width:1.0;" width="10" x="247" y="121.5332"/><rect fill="#FFFFFF" height="31.291" style="stroke:#181818;stroke-width:1.0;" width="10" x="437" y="152.8242"/><rect fill="#FFFFFF" height="61.291" style="stroke:#181818;stroke-width:1.0;" width="10" x="437" y="356.5703"/><rect fill="#FFFFFF" height="61.291" style="stroke:#181818;stroke-width:1.0;" width="10" x="745" y="184.1152"/><rect fill="#FFFFFF" height="683.6934" style="stroke:#181818;stroke-width:1.0;" width="10" x="745" y="387.8613"/><rect fill="#FFFFFF" height="570.5293" style="stroke:#181818;stroke-width:1.0;" width="10" x="745" y="1137.4277"/><rect fill="#FFFFFF" height="30" style="stroke:#181818;stroke-width:1.0;" width="10" x="976" y="215.4063"/><rect fill="#FFFFFF" height="570.5293" style="stroke:#181818;stroke-width:1.0;" width="10" x="976" y="501.0254"/><rect fill="#FFFFFF" height="570.5293" style="stroke:#181818;stroke-width:1.0;" width="10" x="976" y="1137.4277"/><rect fill="#FFFFFF" height="128.4551" style="stroke:#181818;stroke-width:1.0;" width="10" x="1147" y="686.7715"/><rect fill="#FFFFFF" height="99.873" style="stroke:#181818;stroke-width:1.0;" width="10" x="1422" y="846.5176"/><rect fill="#FFFFFF" height="99.873" style="stroke:#181818;stroke-width:1.0;" width="10" x="1422" y="1482.9199"/><rect fill="#FFFFFF" height="62.582" style="stroke:#181818;stroke-width:1.0;" width="10" x="1565" y="977.6816"/><rect fill="#FFFFFF" height="62.582" style="stroke:#181818;stroke-width:1.0;" width="10" x="1565" y="1614.084"/><rect fill="#FFFFFF" height="128.4551" style="stroke:#181818;stroke-width:1.0;" width="10" x="1806.5" y="1323.1738"/><polygon fill="#181818" points="235,117.5332,245,121.5332,235,125.5332,239,121.5332" style="stroke:#181818;stroke-width:1.0;"/><line style="stroke:#181818;stroke-width:1.0;stroke-dasharray:2.0,2.0;" x1="36" x2="241" y1="121.5332" y2="121.5332"/><text fill="#000000" font-family="sans-serif" font-size="13" lengthAdjust="spacing" textLength="126" x="43" y="116.2705">Import csv student file</text><polygon fill="#181818" points="425,148.8242,435,152.8242,425,156.8242,429,152.8242" style="stroke:#181818;stroke-width:1.0;"/><line style="stroke:#181818;stroke-width:1.0;" x1="257" x2="431" y1="152.8242" y2="152.8242"/><text fill="#000000" font-family="sans-serif" font-size="13" lengthAdjust="spacing" textLength="36" x="264" y="147.5615">create</text><polygon fill="#181818" points="733,180.1152,743,184.1152,733,188.1152,737,184.1152" style="stroke:#181818;stroke-width:1.0;"/><line style="stroke:#181818;stroke-width:1.0;" x1="442" x2="739" y1="184.1152" y2="184.1152"/><text fill="#000000" font-family="sans-serif" font-size="13" lengthAdjust="spacing" textLength="36" x="449" y="178.8525">create</text><polygon fill="#181818" points="964,211.4063,974,215.4063,964,219.4063,968,215.4063" style="stroke:#181818;stroke-width:1.0;"/><line style="stroke:#181818;stroke-width:1.0;" x1="755" x2="970" y1="215.4063" y2="215.4063"/><text fill="#000000" font-family="sans-serif" font-size="13" lengthAdjust="spacing" textLength="36" x="762" y="210.1436">create</text><polygon fill="#181818" points="47,289.9883,37,293.9883,47,297.9883,43,293.9883" style="stroke:#181818;stroke-width:1.0;"/><line style="stroke:#181818;stroke-width:1.0;stroke-dasharray:2.0,2.0;" x1="41" x2="246" y1="293.9883" y2="293.9883"/><text fill="#000000" font-family="sans-serif" font-size="13" lengthAdjust="spacing" textLength="156" x="53" y="271.4346">ask user if he/she wants to</text><text fill="#000000" font-family="sans-serif" font-size="13" lengthAdjust="spacing" textLength="165" x="57" y="288.7256">"Load default file?[YES/NO]"</text><polygon fill="#181818" points="235,321.2793,245,325.2793,235,329.2793,239,325.2793" style="stroke:#181818;stroke-width:1.0;"/><line style="stroke:#181818;stroke-width:1.0;stroke-dasharray:2.0,2.0;" x1="36" x2="241" y1="325.2793" y2="325.2793"/><text fill="#000000" font-family="sans-serif" font-size="13" lengthAdjust="spacing" textLength="123" x="43" y="320.0166">answers the question</text><polygon fill="#181818" points="425,352.5703,435,356.5703,425,360.5703,429,356.5703" style="stroke:#181818;stroke-width:1.0;"/><line style="stroke:#181818;stroke-width:1.0;" x1="257" x2="431" y1="356.5703" y2="356.5703"/><text fill="#000000" font-family="sans-serif" font-size="13" lengthAdjust="spacing" textLength="94" x="264" y="351.3076">loadResources()</text><polygon fill="#181818" points="733,383.8613,743,387.8613,733,391.8613,737,387.8613" style="stroke:#181818;stroke-width:1.0;"/><line style="stroke:#181818;stroke-width:1.0;" x1="447" x2="739" y1="387.8613" y2="387.8613"/><text fill="#000000" font-family="sans-serif" font-size="13" lengthAdjust="spacing" textLength="65" x="454" y="382.5986">parse(data)</text><polygon fill="#181818" points="964,497.0254,974,501.0254,964,505.0254,968,501.0254" style="stroke:#181818;stroke-width:1.0;"/><line style="stroke:#181818;stroke-width:1.0;" x1="755" x2="970" y1="501.0254" y2="501.0254"/><text fill="#000000" font-family="sans-serif" font-size="13" lengthAdjust="spacing" textLength="113" x="762" y="443.8896">addUser(username,</text><text fill="#000000" font-family="sans-serif" font-size="13" lengthAdjust="spacing" textLength="122" x="762" y="461.1807">password, firstName,</text><text fill="#000000" font-family="sans-serif" font-size="13" lengthAdjust="spacing" textLength="98" x="762" y="478.4717">lastName, email,</text><text fill="#000000" font-family="sans-serif" font-size="13" lengthAdjust="spacing" textLength="32" x="762" y="495.7627">roles)</text><path d="M1157,514.0254 L1157,558.0254 L1346,558.0254 L1346,524.0254 L1336,514.0254 L1157,514.0254 " fill="#FEFFDD" style="stroke:#181818;stroke-width:0.5;"/><path d="M1336,514.0254 L1336,524.0254 L1346,524.0254 L1336,514.0254 " fill="#FEFFDD" style="stroke:#181818;stroke-width:0.5;"/><text fill="#000000" font-family="sans-serif" font-size="13" lengthAdjust="spacing" textLength="168" x="1163" y="533.0537">UserBuilder is used to create</text><text fill="#000000" font-family="sans-serif" font-size="13" lengthAdjust="spacing" textLength="136" x="1167" y="550.3447">a user with a valid state</text><polygon fill="#181818" points="1140,582.8984,1150,586.8984,1140,590.8984,1144,586.8984" style="stroke:#181818;stroke-width:1.0;"/><line style="stroke:#181818;stroke-width:1.0;" x1="986" x2="1146" y1="586.8984" y2="586.8984"/><text fill="#000000" font-family="sans-serif" font-size="13" lengthAdjust="spacing" textLength="36" x="993" y="581.6357">create</text><polygon fill="#181818" points="1140,614.1895,1150,618.1895,1140,622.1895,1144,618.1895" style="stroke:#181818;stroke-width:1.0;"/><line style="stroke:#181818;stroke-width:1.0;" x1="986" x2="1146" y1="618.1895" y2="618.1895"/><text fill="#000000" font-family="sans-serif" font-size="13" lengthAdjust="spacing" textLength="142" x="993" y="612.9268">setUsername(username)</text><path d="M991,631.1895 L991,658.1895 L1183,658.1895 L1183,641.1895 L1173,631.1895 L991,631.1895 " fill="#FEFFDD" style="stroke:#181818;stroke-width:0.5;"/><path d="M1173,631.1895 L1173,641.1895 L1183,641.1895 L1173,631.1895 " fill="#FEFFDD" style="stroke:#181818;stroke-width:0.5;"/><text fill="#000000" font-family="sans-serif" font-size="13" lengthAdjust="spacing" textLength="171" x="997" y="650.2178">Set the rest of the information</text><polygon fill="#181818" points="1135,682.7715,1145,686.7715,1135,690.7715,1139,686.7715" style="stroke:#181818;stroke-width:1.0;"/><line style="stroke:#181818;stroke-width:1.0;" x1="986" x2="1141" y1="686.7715" y2="686.7715"/><text fill="#000000" font-family="sans-serif" font-size="13" lengthAdjust="spacing" textLength="71" x="993" y="681.5088">createUser()</text><polygon fill="#181818" points="1299,748.6445,1309,752.6445,1299,756.6445,1303,752.6445" style="stroke:#181818;stroke-width:1.0;"/><line style="stroke:#181818;stroke-width:1.0;" x1="1157" x2="1305" y1="752.6445" y2="752.6445"/><text fill="#000000" font-family="sans-serif" font-size="13" lengthAdjust="spacing" textLength="105" x="1164" y="712.7998">create (username,</text><text fill="#000000" font-family="sans-serif" font-size="13" lengthAdjust="spacing" textLength="122" x="1164" y="730.0908">password, firstName,</text><text fill="#000000" font-family="sans-serif" font-size="13" lengthAdjust="spacing" textLength="130" x="1164" y="747.3818">lastName,email, roles)</text><polygon fill="#181818" points="1168,779.9355,1158,783.9355,1168,787.9355,1164,783.9355" style="stroke:#181818;stroke-width:1.0;"/><line style="stroke:#181818;stroke-width:1.0;" x1="1162" x2="1310" y1="783.9355" y2="783.9355"/><text fill="#000000" font-family="sans-serif" font-size="13" lengthAdjust="spacing" textLength="25" x="1174" y="778.6729">user</text><polygon fill="#181818" points="997,811.2266,987,815.2266,997,819.2266,993,815.2266" style="stroke:#181818;stroke-width:1.0;"/><line style="stroke:#181818;stroke-width:1.0;" x1="991" x2="1151" y1="815.2266" y2="815.2266"/><text fill="#000000" font-family="sans-serif" font-size="13" lengthAdjust="spacing" textLength="25" x="1003" y="809.9639">user</text><polygon fill="#181818" points="1410,842.5176,1420,846.5176,1410,850.5176,1414,846.5176" style="stroke:#181818;stroke-width:1.0;"/><line style="stroke:#181818;stroke-width:1.0;" x1="986" x2="1416" y1="846.5176" y2="846.5176"/><text fill="#000000" font-family="sans-serif" font-size="13" lengthAdjust="spacing" textLength="75" x="993" y="841.2549">repositories()</text><path d="M1437,859.5176 L1437,886.5176 L1701,886.5176 L1701,869.5176 L1691,859.5176 L1437,859.5176 " fill="#FEFFDD" style="stroke:#181818;stroke-width:0.5;"/><path d="M1691,859.5176 L1691,869.5176 L1701,869.5176 L1691,859.5176 " fill="#FEFFDD" style="stroke:#181818;stroke-width:0.5;"/><text fill="#000000" font-family="sans-serif" font-size="13" lengthAdjust="spacing" textLength="243" x="1443" y="878.5459">pode criar reposit&#243;rio em mem&#243;ria ou JPA</text><polygon fill="#181818" points="1558,911.0996,1568,915.0996,1558,919.0996,1562,915.0996" style="stroke:#181818;stroke-width:1.0;"/><line style="stroke:#181818;stroke-width:1.0;" x1="1432" x2="1564" y1="915.0996" y2="915.0996"/><text fill="#000000" font-family="sans-serif" font-size="13" lengthAdjust="spacing" textLength="36" x="1439" y="909.8369">create</text><polygon fill="#181818" points="997,942.3906,987,946.3906,997,950.3906,993,946.3906" style="stroke:#181818;stroke-width:1.0;"/><line style="stroke:#181818;stroke-width:1.0;" x1="991" x2="1426" y1="946.3906" y2="946.3906"/><text fill="#000000" font-family="sans-serif" font-size="13" lengthAdjust="spacing" textLength="39" x="1003" y="941.1279">factory</text><polygon fill="#181818" points="1553,973.6816,1563,977.6816,1553,981.6816,1557,977.6816" style="stroke:#181818;stroke-width:1.0;"/><line style="stroke:#181818;stroke-width:1.0;" x1="986" x2="1559" y1="977.6816" y2="977.6816"/><text fill="#000000" font-family="sans-serif" font-size="13" lengthAdjust="spacing" textLength="40" x="993" y="972.4189">users()</text><polygon fill="#181818" points="1684.5,1004.9727,1694.5,1008.9727,1684.5,1012.9727,1688.5,1008.9727" style="stroke:#181818;stroke-width:1.0;"/><line style="stroke:#181818;stroke-width:1.0;" x1="1575" x2="1690.5" y1="1008.9727" y2="1008.9727"/><text fill="#000000" font-family="sans-serif" font-size="13" lengthAdjust="spacing" textLength="36" x="1582" y="1003.71">create</text><polygon fill="#181818" points="997,1036.2637,987,1040.2637,997,1044.2637,993,1040.2637" style="stroke:#181818;stroke-width:1.0;"/><line style="stroke:#181818;stroke-width:1.0;" x1="991" x2="1569" y1="1040.2637" y2="1040.2637"/><text fill="#000000" font-family="sans-serif" font-size="13" lengthAdjust="spacing" textLength="87" x="1003" y="1035.001">userRepository</text><polygon fill="#181818" points="1684.5,1067.5547,1694.5,1071.5547,1684.5,1075.5547,1688.5,1071.5547" style="stroke:#181818;stroke-width:1.0;"/><line style="stroke:#181818;stroke-width:1.0;" x1="981" x2="1690.5" y1="1071.5547" y2="1071.5547"/><text fill="#000000" font-family="sans-serif" font-size="13" lengthAdjust="spacing" textLength="59" x="988" y="1066.292">save(user)</text><polygon fill="#181818" points="964,1133.4277,974,1137.4277,964,1141.4277,968,1137.4277" style="stroke:#181818;stroke-width:1.0;"/><line style="stroke:#181818;stroke-width:1.0;" x1="755" x2="970" y1="1137.4277" y2="1137.4277"/><text fill="#000000" font-family="sans-serif" font-size="13" lengthAdjust="spacing" textLength="207" x="762" y="1097.583">addStudent(mecanographicNumber,</text><text fill="#000000" font-family="sans-serif" font-size="13" lengthAdjust="spacing" textLength="117" x="762" y="1114.874">fullName,shortName</text><text fill="#000000" font-family="sans-serif" font-size="13" lengthAdjust="spacing" textLength="174" x="762" y="1132.165">,dateOfBirth,taxPayerNumber)</text><path d="M1157,1150.4277 L1157,1194.4277 L1364,1194.4277 L1364,1160.4277 L1354,1150.4277 L1157,1150.4277 " fill="#FEFFDD" style="stroke:#181818;stroke-width:0.5;"/><path d="M1354,1150.4277 L1354,1160.4277 L1364,1160.4277 L1354,1150.4277 " fill="#FEFFDD" style="stroke:#181818;stroke-width:0.5;"/><text fill="#000000" font-family="sans-serif" font-size="13" lengthAdjust="spacing" textLength="186" x="1163" y="1169.4561">StudentBuilder is used to create</text><text fill="#000000" font-family="sans-serif" font-size="13" lengthAdjust="spacing" textLength="154" x="1167" y="1186.7471">a student with a valid state</text><polygon fill="#181818" points="1799.5,1219.3008,1809.5,1223.3008,1799.5,1227.3008,1803.5,1223.3008" style="stroke:#181818;stroke-width:1.0;"/><line style="stroke:#181818;stroke-width:1.0;" x1="986" x2="1805.5" y1="1223.3008" y2="1223.3008"/><text fill="#000000" font-family="sans-serif" font-size="13" lengthAdjust="spacing" textLength="36" x="993" y="1218.0381">create</text><polygon fill="#181818" points="1799.5,1250.5918,1809.5,1254.5918,1799.5,1258.5918,1803.5,1254.5918" style="stroke:#181818;stroke-width:1.0;"/><line style="stroke:#181818;stroke-width:1.0;" x1="986" x2="1805.5" y1="1254.5918" y2="1254.5918"/><text fill="#000000" font-family="sans-serif" font-size="13" lengthAdjust="spacing" textLength="292" x="993" y="1249.3291">setMecanographicNumber(mecanographicNumber)</text><path d="M991,1267.5918 L991,1294.5918 L1183,1294.5918 L1183,1277.5918 L1173,1267.5918 L991,1267.5918 " fill="#FEFFDD" style="stroke:#181818;stroke-width:0.5;"/><path d="M1173,1267.5918 L1173,1277.5918 L1183,1277.5918 L1173,1267.5918 " fill="#FEFFDD" style="stroke:#181818;stroke-width:0.5;"/><text fill="#000000" font-family="sans-serif" font-size="13" lengthAdjust="spacing" textLength="171" x="997" y="1286.6201">Set the rest of the information</text><polygon fill="#181818" points="1794.5,1319.1738,1804.5,1323.1738,1794.5,1327.1738,1798.5,1323.1738" style="stroke:#181818;stroke-width:1.0;"/><line style="stroke:#181818;stroke-width:1.0;" x1="986" x2="1800.5" y1="1323.1738" y2="1323.1738"/><text fill="#000000" font-family="sans-serif" font-size="13" lengthAdjust="spacing" textLength="89" x="993" y="1317.9111">createStudent()</text><polygon fill="#181818" points="1958.5,1385.0469,1968.5,1389.0469,1958.5,1393.0469,1962.5,1389.0469" style="stroke:#181818;stroke-width:1.0;"/><line style="stroke:#181818;stroke-width:1.0;" x1="1816.5" x2="1964.5" y1="1389.0469" y2="1389.0469"/><text fill="#000000" font-family="sans-serif" font-size="13" lengthAdjust="spacing" textLength="105" x="1823.5" y="1349.2021">create (username,</text><text fill="#000000" font-family="sans-serif" font-size="13" lengthAdjust="spacing" textLength="122" x="1823.5" y="1366.4932">password, firstName,</text><text fill="#000000" font-family="sans-serif" font-size="13" lengthAdjust="spacing" textLength="130" x="1823.5" y="1383.7842">lastName,email, roles)</text><polygon fill="#181818" points="1827.5,1416.3379,1817.5,1420.3379,1827.5,1424.3379,1823.5,1420.3379" style="stroke:#181818;stroke-width:1.0;"/><line style="stroke:#181818;stroke-width:1.0;" x1="1821.5" x2="1969.5" y1="1420.3379" y2="1420.3379"/><text fill="#000000" font-family="sans-serif" font-size="13" lengthAdjust="spacing" textLength="43" x="1833.5" y="1415.0752">student</text><polygon fill="#181818" points="997,1447.6289,987,1451.6289,997,1455.6289,993,1451.6289" style="stroke:#181818;stroke-width:1.0;"/><line style="stroke:#181818;stroke-width:1.0;" x1="991" x2="1810.5" y1="1451.6289" y2="1451.6289"/><text fill="#000000" font-family="sans-serif" font-size="13" lengthAdjust="spacing" textLength="43" x="1003" y="1446.3662">student</text><polygon fill="#181818" points="1410,1478.9199,1420,1482.9199,1410,1486.9199,1414,1482.9199" style="stroke:#181818;stroke-width:1.0;"/><line style="stroke:#181818;stroke-width:1.0;" x1="986" x2="1416" y1="1482.9199" y2="1482.9199"/><text fill="#000000" font-family="sans-serif" font-size="13" lengthAdjust="spacing" textLength="75" x="993" y="1477.6572">repositories()</text><path d="M1437,1495.9199 L1437,1522.9199 L1701,1522.9199 L1701,1505.9199 L1691,1495.9199 L1437,1495.9199 " fill="#FEFFDD" style="stroke:#181818;stroke-width:0.5;"/><path d="M1691,1495.9199 L1691,1505.9199 L1701,1505.9199 L1691,1495.9199 " fill="#FEFFDD" style="stroke:#181818;stroke-width:0.5;"/><text fill="#000000" font-family="sans-serif" font-size="13" lengthAdjust="spacing" textLength="243" x="1443" y="1514.9482">pode criar reposit&#243;rio em mem&#243;ria ou JPA</text><polygon fill="#181818" points="1558,1547.502,1568,1551.502,1558,1555.502,1562,1551.502" style="stroke:#181818;stroke-width:1.0;"/><line style="stroke:#181818;stroke-width:1.0;" x1="1432" x2="1564" y1="1551.502" y2="1551.502"/><text fill="#000000" font-family="sans-serif" font-size="13" lengthAdjust="spacing" textLength="36" x="1439" y="1546.2393">create</text><polygon fill="#181818" points="997,1578.793,987,1582.793,997,1586.793,993,1582.793" style="stroke:#181818;stroke-width:1.0;"/><line style="stroke:#181818;stroke-width:1.0;" x1="991" x2="1426" y1="1582.793" y2="1582.793"/><text fill="#000000" font-family="sans-serif" font-size="13" lengthAdjust="spacing" textLength="39" x="1003" y="1577.5303">factory</text><polygon fill="#181818" points="1553,1610.084,1563,1614.084,1553,1618.084,1557,1614.084" style="stroke:#181818;stroke-width:1.0;"/><line style="stroke:#181818;stroke-width:1.0;" x1="986" x2="1559" y1="1614.084" y2="1614.084"/><text fill="#000000" font-family="sans-serif" font-size="13" lengthAdjust="spacing" textLength="58" x="993" y="1608.8213">students()</text><polygon fill="#181818" points="1684.5,1641.375,1694.5,1645.375,1684.5,1649.375,1688.5,1645.375" style="stroke:#181818;stroke-width:1.0;"/><line style="stroke:#181818;stroke-width:1.0;" x1="1575" x2="1690.5" y1="1645.375" y2="1645.375"/><text fill="#000000" font-family="sans-serif" font-size="13" lengthAdjust="spacing" textLength="36" x="1582" y="1640.1123">create</text><polygon fill="#181818" points="997,1672.666,987,1676.666,997,1680.666,993,1676.666" style="stroke:#181818;stroke-width:1.0;"/><line style="stroke:#181818;stroke-width:1.0;" x1="991" x2="1569" y1="1676.666" y2="1676.666"/><text fill="#000000" font-family="sans-serif" font-size="13" lengthAdjust="spacing" textLength="107" x="1003" y="1671.4033">StudentRepository</text><polygon fill="#181818" points="2087,1703.957,2097,1707.957,2087,1711.957,2091,1707.957" style="stroke:#181818;stroke-width:1.0;"/><line style="stroke:#181818;stroke-width:1.0;" x1="981" x2="2093" y1="1707.957" y2="1707.957"/><text fill="#000000" font-family="sans-serif" font-size="13" lengthAdjust="spacing" textLength="77" x="988" y="1702.6943">save(student)</text><polygon fill="#181818" points="47,1735.248,37,1739.248,47,1743.248,43,1739.248" style="stroke:#181818;stroke-width:1.0;"/><line style="stroke:#181818;stroke-width:1.0;stroke-dasharray:2.0,2.0;" x1="41" x2="251" y1="1739.248" y2="1739.248"/><text fill="#000000" font-family="sans-serif" font-size="13" lengthAdjust="spacing" textLength="187" x="53" y="1733.9854">display success of the operation</text><!--SRC=[jLV1Rjiu4BthAuXSAWDnVHS4Bv9k0cIHfaQC52YQ7XY9ZeXAf9QaakQxzXFsnpeKAOcKHCNPTdKmA6fcEFFcyP5-LoXL9vjDNMAccgfyd_5g8xzJLcE1g_U5gieemfdY0dt433yIWR14PteY0XD5Crg39_gm_tpDSKx4NZKvOKhUNMb3-4tJMX09KrXHphRRPRSFd2d1ozAiCxmPAmY6wxgasLoia-IQIfNkbQ3iyUktBSgnmYSwZ1vufdQr7HRIB5IRqLBuipo_0vjGWek-sl6yeMLklBfXcZwOqRYI1kmJxTIc_oUlC6LWdRU3aV6E20br4vOHdGtveRIFCwixCBoDl6z9pIM5RhvSjbr-qSxTC4qFPWHE6iC7B4bRo-2bpPstD1Nz2pZDWUxWC9e9mY6DNMBj7L3iZ8jDdwZzvkSwdHod7BNaHklr5jYReAkgvaAXJ3uXcmOwq9BeFK6Vi08yhY843p0TFCQ4JL0c25Yr9htBsAhzEk4wXBEqzABaP3bE_zKujtCsZfVW43MKt7Wv9-1i4b4F12pKefW0vD-HPZEY1rIGZIm8UeQUIgJuFKCdEcy8Ti1DQN3zu-kNY_tcvjEt4nFDRmPcyXceZ1I4-RiXKc-rQ05-gB64mIsHl14PaV7gLnlH3cBDiLKGxQKEsIVK52ZHo4oiGMEu8gVe7hHOocSkybE0I4XrewVlMOdj416WVgaD8GYHg-M6weTnc1VqiL287pevIZoPebBtBOS-MPf0kx1fvJDL1OoVS4bps1GTCNtiT5rzO8U-OIj9r9qjkg_UrZBDsOLiJrJB23XcsczwJDc1YmeF1D7Fk-32Eujmt46zEiBficj6tBVb6BThsxUuQ-0nJXUwnN7Rw6FCRpKHOfSEOTnDSrhI3Q5xzbYh_eD-Eev042F3NOVHGDjNMMj9QtDqmvkOwsrFdqQ64t28u9avcx0h8O23SrGcg3yBQAyM7XoEiPUHpqulPCrp0lXGBBhe__uZA8TTYofIwJ56l45_xSwyYEu93bdQCtcobsPCtRrX3_0vMDnI0j3qYsfeP_6u7CNNJtTzW033EJkRk6Ff9jruLuovtBjbP_9URvr59NuoOc9tmSAvDJteegMp4tJQtYNYYcIOyKU1wu9cDqtrG0GG_T2KPKjqMS05Ge_ksIaS7EJJuPmALPmg_6E7NuWm7k7Z99XnICP7rwfv9UykCpDY7iqmmO_fDtFP4jJeunIWET1MisMzNUaNyp69TwtpXMU0sdVoZVGpWhWNGZl_U_NG4KKRVxsTe6pUZydK0NJMoza88nYY_wYUnqde_wIZRnNJjohgwx8Qq5GBVXYeEMrzey0kgUpahr2m95zjNQcTn32AQqjRHKkg6_vtOIxqSEctVo9oAkiIlo3PP729bztEv_2trknx9ypTrKy0]--></g></svg>