<?xml version="1.0" encoding="us-ascii" standalone="no"?><svg xmlns="http://www.w3.org/2000/svg" xmlns:xlink="http://www.w3.org/1999/xlink" contentStyleType="text/css" height="1173px" preserveAspectRatio="none" style="width:2083px;height:1173px;background:#FFFFFF;" version="1.1" viewBox="0 0 2083 1173" width="2083px" zoomAndPan="magnify"><defs/><g><!--class Mapper--><g id="elem_Mapper"><rect codeLine="9" fill="#F1F1F1" height="81.8828" id="Mapper" rx="2.5" ry="2.5" style="stroke:#181818;stroke-width:0.5;" width="465" x="1331.5" y="819"/><ellipse cx="1526.75" cy="837.9707" fill="#B4A7E5" rx="11" ry="11" style="stroke:#181818;stroke-width:1.0;"/><path d="M1527.7031,834.6113 L1527.7031,841.2676 L1529.4219,841.2676 Q1530.0313,841.2676 1530.2969,841.502 Q1530.5625,841.7363 1530.5625,842.127 Q1530.5625,842.502 1530.2969,842.7363 Q1530.0313,842.9707 1529.4219,842.9707 L1524.2813,842.9707 Q1523.6719,842.9707 1523.4063,842.7363 Q1523.1406,842.502 1523.1406,842.1113 Q1523.1406,841.7363 1523.4063,841.502 Q1523.6719,841.2676 1524.2813,841.2676 L1526,841.2676 L1526,834.6113 L1524.2813,834.6113 Q1523.6719,834.6113 1523.4063,834.377 Q1523.1406,834.1426 1523.1406,833.752 Q1523.1406,833.377 1523.4063,833.1426 Q1523.6719,832.9082 1524.2813,832.9082 L1529.4219,832.9082 Q1530.0313,832.9082 1530.2969,833.1426 Q1530.5625,833.377 1530.5625,833.752 Q1530.5625,834.1426 1530.2969,834.377 Q1530.0313,834.6113 1529.4219,834.6113 L1527.7031,834.6113 Z " fill="#000000"/><text fill="#000000" font-family="sans-serif" font-size="18" font-style="italic" lengthAdjust="spacing" textLength="62" x="1549.25" y="845.4238">Mapper</text><line style="stroke:#181818;stroke-width:0.5;" x1="1332.5" x2="1795.5" y1="856.9414" y2="856.9414"/><line style="stroke:#181818;stroke-width:0.5;" x1="1332.5" x2="1795.5" y1="864.9414" y2="864.9414"/><text fill="#000000" font-family="sans-serif" font-size="18" lengthAdjust="spacing" textLength="449" x="1339.5" y="890.3652">+toDTO(Iterable&lt;T&gt; objs, Comparator&lt;? super T&gt; cmp)</text></g><!--class CourseRepository--><g id="elem_CourseRepository"><rect codeLine="14" fill="#F1F1F1" height="81.8828" id="CourseRepository" rx="2.5" ry="2.5" style="stroke:#181818;stroke-width:0.5;" width="181" x="1179.5" y="203"/><ellipse cx="1194.5" cy="221.9707" fill="#B4A7E5" rx="11" ry="11" style="stroke:#181818;stroke-width:1.0;"/><path d="M1195.4531,218.6113 L1195.4531,225.2676 L1197.1719,225.2676 Q1197.7813,225.2676 1198.0469,225.502 Q1198.3125,225.7363 1198.3125,226.127 Q1198.3125,226.502 1198.0469,226.7363 Q1197.7813,226.9707 1197.1719,226.9707 L1192.0313,226.9707 Q1191.4219,226.9707 1191.1563,226.7363 Q1190.8906,226.502 1190.8906,226.1113 Q1190.8906,225.7363 1191.1563,225.502 Q1191.4219,225.2676 1192.0313,225.2676 L1193.75,225.2676 L1193.75,218.6113 L1192.0313,218.6113 Q1191.4219,218.6113 1191.1563,218.377 Q1190.8906,218.1426 1190.8906,217.752 Q1190.8906,217.377 1191.1563,217.1426 Q1191.4219,216.9082 1192.0313,216.9082 L1197.1719,216.9082 Q1197.7813,216.9082 1198.0469,217.1426 Q1198.3125,217.377 1198.3125,217.752 Q1198.3125,218.1426 1198.0469,218.377 Q1197.7813,218.6113 1197.1719,218.6113 L1195.4531,218.6113 Z " fill="#000000"/><text fill="#000000" font-family="sans-serif" font-size="18" font-style="italic" lengthAdjust="spacing" textLength="145" x="1210.5" y="229.4238">CourseRepository</text><line style="stroke:#181818;stroke-width:0.5;" x1="1180.5" x2="1359.5" y1="240.9414" y2="240.9414"/><line style="stroke:#181818;stroke-width:0.5;" x1="1180.5" x2="1359.5" y1="248.9414" y2="248.9414"/><text fill="#000000" font-family="sans-serif" font-size="18" lengthAdjust="spacing" textLength="156" x="1187.5" y="274.3652">+ofIdentity(final I id)</text></g><!--class StaffRepository--><g id="elem_StaffRepository"><rect codeLine="18" fill="#F1F1F1" height="81.8828" id="StaffRepository" rx="2.5" ry="2.5" style="stroke:#181818;stroke-width:0.5;" width="187" x="957.5" y="203"/><ellipse cx="984.65" cy="221.9707" fill="#B4A7E5" rx="11" ry="11" style="stroke:#181818;stroke-width:1.0;"/><path d="M985.6031,218.6113 L985.6031,225.2676 L987.3219,225.2676 Q987.9313,225.2676 988.1969,225.502 Q988.4625,225.7363 988.4625,226.127 Q988.4625,226.502 988.1969,226.7363 Q987.9313,226.9707 987.3219,226.9707 L982.1813,226.9707 Q981.5719,226.9707 981.3063,226.7363 Q981.0406,226.502 981.0406,226.1113 Q981.0406,225.7363 981.3063,225.502 Q981.5719,225.2676 982.1813,225.2676 L983.9,225.2676 L983.9,218.6113 L982.1813,218.6113 Q981.5719,218.6113 981.3063,218.377 Q981.0406,218.1426 981.0406,217.752 Q981.0406,217.377 981.3063,217.1426 Q981.5719,216.9082 982.1813,216.9082 L987.3219,216.9082 Q987.9313,216.9082 988.1969,217.1426 Q988.4625,217.377 988.4625,217.752 Q988.4625,218.1426 988.1969,218.377 Q987.9313,218.6113 987.3219,218.6113 L985.6031,218.6113 Z " fill="#000000"/><text fill="#000000" font-family="sans-serif" font-size="18" font-style="italic" lengthAdjust="spacing" textLength="124" x="1003.35" y="229.4238">StaffRepository</text><line style="stroke:#181818;stroke-width:0.5;" x1="958.5" x2="1143.5" y1="240.9414" y2="240.9414"/><line style="stroke:#181818;stroke-width:0.5;" x1="958.5" x2="1143.5" y1="248.9414" y2="248.9414"/><text fill="#000000" font-family="sans-serif" font-size="18" lengthAdjust="spacing" textLength="171" x="965.5" y="274.3652">+taughtBy(Teacher t)</text></g><!--class RegularExamResultRepository--><g id="elem_RegularExamResultRepository"><rect codeLine="23" fill="#F1F1F1" height="81.8828" id="RegularExamResultRepository" rx="2.5" ry="2.5" style="stroke:#181818;stroke-width:0.5;" width="350" x="250" y="413"/><ellipse cx="294.25" cy="431.9707" fill="#B4A7E5" rx="11" ry="11" style="stroke:#181818;stroke-width:1.0;"/><path d="M295.2031,428.6113 L295.2031,435.2676 L296.9219,435.2676 Q297.5313,435.2676 297.7969,435.502 Q298.0625,435.7363 298.0625,436.127 Q298.0625,436.502 297.7969,436.7363 Q297.5313,436.9707 296.9219,436.9707 L291.7813,436.9707 Q291.1719,436.9707 290.9063,436.7363 Q290.6406,436.502 290.6406,436.1113 Q290.6406,435.7363 290.9063,435.502 Q291.1719,435.2676 291.7813,435.2676 L293.5,435.2676 L293.5,428.6113 L291.7813,428.6113 Q291.1719,428.6113 290.9063,428.377 Q290.6406,428.1426 290.6406,427.752 Q290.6406,427.377 290.9063,427.1426 Q291.1719,426.9082 291.7813,426.9082 L296.9219,426.9082 Q297.5313,426.9082 297.7969,427.1426 Q298.0625,427.377 298.0625,427.752 Q298.0625,428.1426 297.7969,428.377 Q297.5313,428.6113 296.9219,428.6113 L295.2031,428.6113 Z " fill="#000000"/><text fill="#000000" font-family="sans-serif" font-size="18" font-style="italic" lengthAdjust="spacing" textLength="249" x="316.75" y="439.4238">RegularExamResultRepository</text><line style="stroke:#181818;stroke-width:0.5;" x1="251" x2="599" y1="450.9414" y2="450.9414"/><line style="stroke:#181818;stroke-width:0.5;" x1="251" x2="599" y1="458.9414" y2="458.9414"/><text fill="#000000" font-family="sans-serif" font-size="18" lengthAdjust="spacing" textLength="334" x="258" y="484.3652">+regularExamResultsByCourse(Course c)</text></g><!--class JpaRegularExamResultRepository--><g id="elem_JpaRegularExamResultRepository"><rect codeLine="28" fill="#F1F1F1" height="81.8828" id="JpaRegularExamResultRepository" rx="2.5" ry="2.5" style="stroke:#181818;stroke-width:0.5;" width="350" x="7" y="203"/><ellipse cx="40.45" cy="221.9707" fill="#ADD1B2" rx="11" ry="11" style="stroke:#181818;stroke-width:1.0;"/><path d="M43.2156,217.8457 Q43.3719,217.627 43.5594,217.5176 Q43.7469,217.4082 43.9656,217.4082 Q44.3406,217.4082 44.575,217.6738 Q44.8094,217.9238 44.8094,218.5332 L44.8094,219.9863 Q44.8094,220.5957 44.575,220.8613 Q44.3406,221.127 43.9656,221.127 Q43.6219,221.127 43.4188,220.9238 Q43.2156,220.7363 43.1063,220.2207 Q43.0594,219.8613 42.8719,219.6738 Q42.5438,219.2988 41.9344,219.0801 Q41.325,218.8613 40.7,218.8613 Q39.9344,218.8613 39.2938,219.1895 Q38.6688,219.5176 38.1688,220.2676 Q37.6844,221.0176 37.6844,222.0488 L37.6844,223.1426 Q37.6844,224.377 38.575,225.2051 Q39.4656,226.0176 41.0594,226.0176 Q41.9969,226.0176 42.6531,225.7676 Q43.0438,225.6113 43.4656,225.1738 Q43.7313,224.9082 43.8719,224.8301 Q44.0281,224.752 44.2313,224.752 Q44.5594,224.752 44.8094,225.0176 Q45.075,225.2676 45.075,225.6113 Q45.075,225.9551 44.7313,226.3613 Q44.2313,226.9395 43.4344,227.2676 Q42.3563,227.7207 41.0594,227.7207 Q39.5438,227.7207 38.3406,227.0957 Q37.3563,226.5957 36.6688,225.5332 Q35.9813,224.4551 35.9813,223.1738 L35.9813,222.0176 Q35.9813,220.6895 36.5906,219.5488 Q37.2156,218.3926 38.3094,217.7832 Q39.4031,217.1582 40.6375,217.1582 Q41.3719,217.1582 42.0125,217.3301 Q42.6688,217.4863 43.2156,217.8457 Z " fill="#000000"/><text fill="#000000" font-family="sans-serif" font-size="18" lengthAdjust="spacing" textLength="273" x="60.55" y="229.4238">JpaRegularExamResultRepository</text><line style="stroke:#181818;stroke-width:0.5;" x1="8" x2="356" y1="240.9414" y2="240.9414"/><line style="stroke:#181818;stroke-width:0.5;" x1="8" x2="356" y1="248.9414" y2="248.9414"/><text fill="#000000" font-family="sans-serif" font-size="18" lengthAdjust="spacing" textLength="334" x="15" y="274.3652">+regularExamResultsByCourse(Course c)</text></g><!--class AbstractUI--><g id="elem_AbstractUI"><rect codeLine="34" fill="#F1F1F1" height="53.9414" id="AbstractUI" rx="2.5" ry="2.5" style="stroke:#181818;stroke-width:0.5;" width="118" x="1469" y="427"/><ellipse cx="1484" cy="445.9707" fill="#ADD1B2" rx="11" ry="11" style="stroke:#181818;stroke-width:1.0;"/><path d="M1486.7656,441.8457 Q1486.9219,441.627 1487.1094,441.5176 Q1487.2969,441.4082 1487.5156,441.4082 Q1487.8906,441.4082 1488.125,441.6738 Q1488.3594,441.9238 1488.3594,442.5332 L1488.3594,443.9863 Q1488.3594,444.5957 1488.125,444.8613 Q1487.8906,445.127 1487.5156,445.127 Q1487.1719,445.127 1486.9688,444.9238 Q1486.7656,444.7363 1486.6563,444.2207 Q1486.6094,443.8613 1486.4219,443.6738 Q1486.0938,443.2988 1485.4844,443.0801 Q1484.875,442.8613 1484.25,442.8613 Q1483.4844,442.8613 1482.8438,443.1895 Q1482.2188,443.5176 1481.7188,444.2676 Q1481.2344,445.0176 1481.2344,446.0488 L1481.2344,447.1426 Q1481.2344,448.377 1482.125,449.2051 Q1483.0156,450.0176 1484.6094,450.0176 Q1485.5469,450.0176 1486.2031,449.7676 Q1486.5938,449.6113 1487.0156,449.1738 Q1487.2813,448.9082 1487.4219,448.8301 Q1487.5781,448.752 1487.7813,448.752 Q1488.1094,448.752 1488.3594,449.0176 Q1488.625,449.2676 1488.625,449.6113 Q1488.625,449.9551 1488.2813,450.3613 Q1487.7813,450.9395 1486.9844,451.2676 Q1485.9063,451.7207 1484.6094,451.7207 Q1483.0938,451.7207 1481.8906,451.0957 Q1480.9063,450.5957 1480.2188,449.5332 Q1479.5313,448.4551 1479.5313,447.1738 L1479.5313,446.0176 Q1479.5313,444.6895 1480.1406,443.5488 Q1480.7656,442.3926 1481.8594,441.7832 Q1482.9531,441.1582 1484.1875,441.1582 Q1484.9219,441.1582 1485.5625,441.3301 Q1486.2188,441.4863 1486.7656,441.8457 Z " fill="#000000"/><text fill="#000000" font-family="sans-serif" font-size="18" lengthAdjust="spacing" textLength="82" x="1500" y="453.4238">AbstractUI</text><line style="stroke:#181818;stroke-width:0.5;" x1="1470" x2="1586" y1="464.9414" y2="464.9414"/><line style="stroke:#181818;stroke-width:0.5;" x1="1470" x2="1586" y1="472.9414" y2="472.9414"/></g><!--class ListExamsGradesInCourseUI--><g id="elem_ListExamsGradesInCourseUI"><rect codeLine="38" fill="#F1F1F1" height="109.8242" id="ListExamsGradesInCourseUI" rx="2.5" ry="2.5" style="stroke:#181818;stroke-width:0.5;" width="265" x="1395.5" y="189"/><ellipse cx="1410.5" cy="207.9707" fill="#ADD1B2" rx="11" ry="11" style="stroke:#181818;stroke-width:1.0;"/><path d="M1413.2656,203.8457 Q1413.4219,203.627 1413.6094,203.5176 Q1413.7969,203.4082 1414.0156,203.4082 Q1414.3906,203.4082 1414.625,203.6738 Q1414.8594,203.9238 1414.8594,204.5332 L1414.8594,205.9863 Q1414.8594,206.5957 1414.625,206.8613 Q1414.3906,207.127 1414.0156,207.127 Q1413.6719,207.127 1413.4688,206.9238 Q1413.2656,206.7363 1413.1563,206.2207 Q1413.1094,205.8613 1412.9219,205.6738 Q1412.5938,205.2988 1411.9844,205.0801 Q1411.375,204.8613 1410.75,204.8613 Q1409.9844,204.8613 1409.3438,205.1895 Q1408.7188,205.5176 1408.2188,206.2676 Q1407.7344,207.0176 1407.7344,208.0488 L1407.7344,209.1426 Q1407.7344,210.377 1408.625,211.2051 Q1409.5156,212.0176 1411.1094,212.0176 Q1412.0469,212.0176 1412.7031,211.7676 Q1413.0938,211.6113 1413.5156,211.1738 Q1413.7813,210.9082 1413.9219,210.8301 Q1414.0781,210.752 1414.2813,210.752 Q1414.6094,210.752 1414.8594,211.0176 Q1415.125,211.2676 1415.125,211.6113 Q1415.125,211.9551 1414.7813,212.3613 Q1414.2813,212.9395 1413.4844,213.2676 Q1412.4063,213.7207 1411.1094,213.7207 Q1409.5938,213.7207 1408.3906,213.0957 Q1407.4063,212.5957 1406.7188,211.5332 Q1406.0313,210.4551 1406.0313,209.1738 L1406.0313,208.0176 Q1406.0313,206.6895 1406.6406,205.5488 Q1407.2656,204.3926 1408.3594,203.7832 Q1409.4531,203.1582 1410.6875,203.1582 Q1411.4219,203.1582 1412.0625,203.3301 Q1412.7188,203.4863 1413.2656,203.8457 Z " fill="#000000"/><text fill="#000000" font-family="sans-serif" font-size="18" lengthAdjust="spacing" textLength="229" x="1426.5" y="215.4238">ListExamsGradesInCourseUI</text><line style="stroke:#181818;stroke-width:0.5;" x1="1396.5" x2="1659.5" y1="226.9414" y2="226.9414"/><line style="stroke:#181818;stroke-width:0.5;" x1="1396.5" x2="1659.5" y1="234.9414" y2="234.9414"/><text fill="#000000" font-family="sans-serif" font-size="18" lengthAdjust="spacing" textLength="87" x="1403.5" y="260.3652">#doShow()</text><text fill="#000000" font-family="sans-serif" font-size="18" lengthAdjust="spacing" textLength="91" x="1403.5" y="288.3066">+headline()</text></g><!--class ListExamsGradesInCourseController--><g id="elem_ListExamsGradesInCourseController"><rect codeLine="44" fill="#F1F1F1" height="109.8242" id="ListExamsGradesInCourseController" rx="2.5" ry="2.5" style="stroke:#181818;stroke-width:0.5;" width="556" x="825" y="399"/><ellipse cx="951.75" cy="417.9707" fill="#ADD1B2" rx="11" ry="11" style="stroke:#181818;stroke-width:1.0;"/><path d="M954.5156,413.8457 Q954.6719,413.627 954.8594,413.5176 Q955.0469,413.4082 955.2656,413.4082 Q955.6406,413.4082 955.875,413.6738 Q956.1094,413.9238 956.1094,414.5332 L956.1094,415.9863 Q956.1094,416.5957 955.875,416.8613 Q955.6406,417.127 955.2656,417.127 Q954.9219,417.127 954.7188,416.9238 Q954.5156,416.7363 954.4063,416.2207 Q954.3594,415.8613 954.1719,415.6738 Q953.8438,415.2988 953.2344,415.0801 Q952.625,414.8613 952,414.8613 Q951.2344,414.8613 950.5938,415.1895 Q949.9688,415.5176 949.4688,416.2676 Q948.9844,417.0176 948.9844,418.0488 L948.9844,419.1426 Q948.9844,420.377 949.875,421.2051 Q950.7656,422.0176 952.3594,422.0176 Q953.2969,422.0176 953.9531,421.7676 Q954.3438,421.6113 954.7656,421.1738 Q955.0313,420.9082 955.1719,420.8301 Q955.3281,420.752 955.5313,420.752 Q955.8594,420.752 956.1094,421.0176 Q956.375,421.2676 956.375,421.6113 Q956.375,421.9551 956.0313,422.3613 Q955.5313,422.9395 954.7344,423.2676 Q953.6563,423.7207 952.3594,423.7207 Q950.8438,423.7207 949.6406,423.0957 Q948.6563,422.5957 947.9688,421.5332 Q947.2813,420.4551 947.2813,419.1738 L947.2813,418.0176 Q947.2813,416.6895 947.8906,415.5488 Q948.5156,414.3926 949.6094,413.7832 Q950.7031,413.1582 951.9375,413.1582 Q952.6719,413.1582 953.3125,413.3301 Q953.9688,413.4863 954.5156,413.8457 Z " fill="#000000"/><text fill="#000000" font-family="sans-serif" font-size="18" lengthAdjust="spacing" textLength="290" x="974.25" y="425.4238">ListExamsGradesInCourseController</text><line style="stroke:#181818;stroke-width:0.5;" x1="826" x2="1380" y1="436.9414" y2="436.9414"/><line style="stroke:#181818;stroke-width:0.5;" x1="826" x2="1380" y1="444.9414" y2="444.9414"/><text fill="#000000" font-family="sans-serif" font-size="18" lengthAdjust="spacing" textLength="112" x="833" y="470.3652">+listCourses()</text><text fill="#000000" font-family="sans-serif" font-size="18" lengthAdjust="spacing" textLength="540" x="833" y="498.3066">+listExamsGradesAndStudents(CourseAndDescriptionDTO chosen)</text></g><!--class ListExamResultsService--><g id="elem_ListExamResultsService"><rect codeLine="50" fill="#F1F1F1" height="81.8828" id="ListExamResultsService" rx="2.5" ry="2.5" style="stroke:#181818;stroke-width:0.5;" width="530" x="392" y="203"/><ellipse cx="554.75" cy="221.9707" fill="#ADD1B2" rx="11" ry="11" style="stroke:#181818;stroke-width:1.0;"/><path d="M557.5156,217.8457 Q557.6719,217.627 557.8594,217.5176 Q558.0469,217.4082 558.2656,217.4082 Q558.6406,217.4082 558.875,217.6738 Q559.1094,217.9238 559.1094,218.5332 L559.1094,219.9863 Q559.1094,220.5957 558.875,220.8613 Q558.6406,221.127 558.2656,221.127 Q557.9219,221.127 557.7188,220.9238 Q557.5156,220.7363 557.4063,220.2207 Q557.3594,219.8613 557.1719,219.6738 Q556.8438,219.2988 556.2344,219.0801 Q555.625,218.8613 555,218.8613 Q554.2344,218.8613 553.5938,219.1895 Q552.9688,219.5176 552.4688,220.2676 Q551.9844,221.0176 551.9844,222.0488 L551.9844,223.1426 Q551.9844,224.377 552.875,225.2051 Q553.7656,226.0176 555.3594,226.0176 Q556.2969,226.0176 556.9531,225.7676 Q557.3438,225.6113 557.7656,225.1738 Q558.0313,224.9082 558.1719,224.8301 Q558.3281,224.752 558.5313,224.752 Q558.8594,224.752 559.1094,225.0176 Q559.375,225.2676 559.375,225.6113 Q559.375,225.9551 559.0313,226.3613 Q558.5313,226.9395 557.7344,227.2676 Q556.6563,227.7207 555.3594,227.7207 Q553.8438,227.7207 552.6406,227.0957 Q551.6563,226.5957 550.9688,225.5332 Q550.2813,224.4551 550.2813,223.1738 L550.2813,222.0176 Q550.2813,220.6895 550.8906,219.5488 Q551.5156,218.3926 552.6094,217.7832 Q553.7031,217.1582 554.9375,217.1582 Q555.6719,217.1582 556.3125,217.3301 Q556.9688,217.4863 557.5156,217.8457 Z " fill="#000000"/><text fill="#000000" font-family="sans-serif" font-size="18" lengthAdjust="spacing" textLength="192" x="577.25" y="229.4238">ListExamResultsService</text><line style="stroke:#181818;stroke-width:0.5;" x1="393" x2="921" y1="240.9414" y2="240.9414"/><line style="stroke:#181818;stroke-width:0.5;" x1="393" x2="921" y1="248.9414" y2="248.9414"/><text fill="#000000" font-family="sans-serif" font-size="18" lengthAdjust="spacing" textLength="514" x="400" y="274.3652">+regularExamResultsBasedOnGradingProperties(final Course c)</text></g><!--class MyUserService--><g id="elem_MyUserService"><rect codeLine="55" fill="#F1F1F1" height="81.8828" id="MyUserService" rx="2.5" ry="2.5" style="stroke:#181818;stroke-width:0.5;" width="162" x="460" y="609"/><ellipse cx="476.8" cy="627.9707" fill="#ADD1B2" rx="11" ry="11" style="stroke:#181818;stroke-width:1.0;"/><path d="M479.5656,623.8457 Q479.7219,623.627 479.9094,623.5176 Q480.0969,623.4082 480.3156,623.4082 Q480.6906,623.4082 480.925,623.6738 Q481.1594,623.9238 481.1594,624.5332 L481.1594,625.9863 Q481.1594,626.5957 480.925,626.8613 Q480.6906,627.127 480.3156,627.127 Q479.9719,627.127 479.7688,626.9238 Q479.5656,626.7363 479.4563,626.2207 Q479.4094,625.8613 479.2219,625.6738 Q478.8938,625.2988 478.2844,625.0801 Q477.675,624.8613 477.05,624.8613 Q476.2844,624.8613 475.6438,625.1895 Q475.0188,625.5176 474.5188,626.2676 Q474.0344,627.0176 474.0344,628.0488 L474.0344,629.1426 Q474.0344,630.377 474.925,631.2051 Q475.8156,632.0176 477.4094,632.0176 Q478.3469,632.0176 479.0031,631.7676 Q479.3938,631.6113 479.8156,631.1738 Q480.0813,630.9082 480.2219,630.8301 Q480.3781,630.752 480.5813,630.752 Q480.9094,630.752 481.1594,631.0176 Q481.425,631.2676 481.425,631.6113 Q481.425,631.9551 481.0813,632.3613 Q480.5813,632.9395 479.7844,633.2676 Q478.7063,633.7207 477.4094,633.7207 Q475.8938,633.7207 474.6906,633.0957 Q473.7063,632.5957 473.0188,631.5332 Q472.3313,630.4551 472.3313,629.1738 L472.3313,628.0176 Q472.3313,626.6895 472.9406,625.5488 Q473.5656,624.3926 474.6594,623.7832 Q475.7531,623.1582 476.9875,623.1582 Q477.7219,623.1582 478.3625,623.3301 Q479.0188,623.4863 479.5656,623.8457 Z " fill="#000000"/><text fill="#000000" font-family="sans-serif" font-size="18" lengthAdjust="spacing" textLength="122" x="493.2" y="635.4238">MyUserService</text><line style="stroke:#181818;stroke-width:0.5;" x1="461" x2="621" y1="646.9414" y2="646.9414"/><line style="stroke:#181818;stroke-width:0.5;" x1="461" x2="621" y1="654.9414" y2="654.9414"/><text fill="#000000" font-family="sans-serif" font-size="18" lengthAdjust="spacing" textLength="146" x="468" y="680.3652">+currentTeacher()</text></g><!--class BaseRoles--><g id="elem_BaseRoles"><rect codeLine="60" fill="#F1F1F1" height="81.8828" id="BaseRoles" rx="2.5" ry="2.5" style="stroke:#181818;stroke-width:0.5;" width="123" x="657.5" y="609"/><ellipse cx="672.5" cy="627.9707" fill="#ADD1B2" rx="11" ry="11" style="stroke:#181818;stroke-width:1.0;"/><path d="M675.2656,623.8457 Q675.4219,623.627 675.6094,623.5176 Q675.7969,623.4082 676.0156,623.4082 Q676.3906,623.4082 676.625,623.6738 Q676.8594,623.9238 676.8594,624.5332 L676.8594,625.9863 Q676.8594,626.5957 676.625,626.8613 Q676.3906,627.127 676.0156,627.127 Q675.6719,627.127 675.4688,626.9238 Q675.2656,626.7363 675.1563,626.2207 Q675.1094,625.8613 674.9219,625.6738 Q674.5938,625.2988 673.9844,625.0801 Q673.375,624.8613 672.75,624.8613 Q671.9844,624.8613 671.3438,625.1895 Q670.7188,625.5176 670.2188,626.2676 Q669.7344,627.0176 669.7344,628.0488 L669.7344,629.1426 Q669.7344,630.377 670.625,631.2051 Q671.5156,632.0176 673.1094,632.0176 Q674.0469,632.0176 674.7031,631.7676 Q675.0938,631.6113 675.5156,631.1738 Q675.7813,630.9082 675.9219,630.8301 Q676.0781,630.752 676.2813,630.752 Q676.6094,630.752 676.8594,631.0176 Q677.125,631.2676 677.125,631.6113 Q677.125,631.9551 676.7813,632.3613 Q676.2813,632.9395 675.4844,633.2676 Q674.4063,633.7207 673.1094,633.7207 Q671.5938,633.7207 670.3906,633.0957 Q669.4063,632.5957 668.7188,631.5332 Q668.0313,630.4551 668.0313,629.1738 L668.0313,628.0176 Q668.0313,626.6895 668.6406,625.5488 Q669.2656,624.3926 670.3594,623.7832 Q671.4531,623.1582 672.6875,623.1582 Q673.4219,623.1582 674.0625,623.3301 Q674.7188,623.4863 675.2656,623.8457 Z " fill="#000000"/><text fill="#000000" font-family="sans-serif" font-size="18" lengthAdjust="spacing" textLength="87" x="688.5" y="635.4238">BaseRoles</text><line style="stroke:#181818;stroke-width:0.5;" x1="658.5" x2="779.5" y1="646.9414" y2="646.9414"/><text fill="#000000" font-family="sans-serif" font-size="18" lengthAdjust="spacing" text-decoration="underline" textLength="97" x="665.5" y="672.3652">+TEACHER</text><line style="stroke:#181818;stroke-width:0.5;" x1="658.5" x2="779.5" y1="682.8828" y2="682.8828"/></g><!--class Course--><g id="elem_Course"><rect codeLine="65" fill="#F1F1F1" height="81.8828" id="Course" rx="2.5" ry="2.5" style="stroke:#181818;stroke-width:0.5;" width="96" x="1200" y="819"/><ellipse cx="1215.9" cy="837.9707" fill="#ADD1B2" rx="11" ry="11" style="stroke:#181818;stroke-width:1.0;"/><path d="M1218.6656,833.8457 Q1218.8219,833.627 1219.0094,833.5176 Q1219.1969,833.4082 1219.4156,833.4082 Q1219.7906,833.4082 1220.025,833.6738 Q1220.2594,833.9238 1220.2594,834.5332 L1220.2594,835.9863 Q1220.2594,836.5957 1220.025,836.8613 Q1219.7906,837.127 1219.4156,837.127 Q1219.0719,837.127 1218.8688,836.9238 Q1218.6656,836.7363 1218.5563,836.2207 Q1218.5094,835.8613 1218.3219,835.6738 Q1217.9938,835.2988 1217.3844,835.0801 Q1216.775,834.8613 1216.15,834.8613 Q1215.3844,834.8613 1214.7438,835.1895 Q1214.1188,835.5176 1213.6188,836.2676 Q1213.1344,837.0176 1213.1344,838.0488 L1213.1344,839.1426 Q1213.1344,840.377 1214.025,841.2051 Q1214.9156,842.0176 1216.5094,842.0176 Q1217.4469,842.0176 1218.1031,841.7676 Q1218.4938,841.6113 1218.9156,841.1738 Q1219.1813,840.9082 1219.3219,840.8301 Q1219.4781,840.752 1219.6813,840.752 Q1220.0094,840.752 1220.2594,841.0176 Q1220.525,841.2676 1220.525,841.6113 Q1220.525,841.9551 1220.1813,842.3613 Q1219.6813,842.9395 1218.8844,843.2676 Q1217.8063,843.7207 1216.5094,843.7207 Q1214.9938,843.7207 1213.7906,843.0957 Q1212.8063,842.5957 1212.1188,841.5332 Q1211.4313,840.4551 1211.4313,839.1738 L1211.4313,838.0176 Q1211.4313,836.6895 1212.0406,835.5488 Q1212.6656,834.3926 1213.7594,833.7832 Q1214.8531,833.1582 1216.0875,833.1582 Q1216.8219,833.1582 1217.4625,833.3301 Q1218.1188,833.4863 1218.6656,833.8457 Z " fill="#000000"/><text fill="#000000" font-family="sans-serif" font-size="18" lengthAdjust="spacing" textLength="58" x="1232.1" y="845.4238">Course</text><line style="stroke:#181818;stroke-width:0.5;" x1="1201" x2="1295" y1="856.9414" y2="856.9414"/><line style="stroke:#181818;stroke-width:0.5;" x1="1201" x2="1295" y1="864.9414" y2="864.9414"/><text fill="#000000" font-family="sans-serif" font-size="18" lengthAdjust="spacing" textLength="80" x="1208" y="890.3652">+identity()</text></g><!--class CourseAndDescriptionDTO--><g id="elem_CourseAndDescriptionDTO"><rect codeLine="70" fill="#F1F1F1" height="53.9414" id="CourseAndDescriptionDTO" rx="2.5" ry="2.5" style="stroke:#181818;stroke-width:0.5;" width="254" x="816" y="623"/><ellipse cx="831" cy="641.9707" fill="#ADD1B2" rx="11" ry="11" style="stroke:#181818;stroke-width:1.0;"/><path d="M833.7656,637.8457 Q833.9219,637.627 834.1094,637.5176 Q834.2969,637.4082 834.5156,637.4082 Q834.8906,637.4082 835.125,637.6738 Q835.3594,637.9238 835.3594,638.5332 L835.3594,639.9863 Q835.3594,640.5957 835.125,640.8613 Q834.8906,641.127 834.5156,641.127 Q834.1719,641.127 833.9688,640.9238 Q833.7656,640.7363 833.6563,640.2207 Q833.6094,639.8613 833.4219,639.6738 Q833.0938,639.2988 832.4844,639.0801 Q831.875,638.8613 831.25,638.8613 Q830.4844,638.8613 829.8438,639.1895 Q829.2188,639.5176 828.7188,640.2676 Q828.2344,641.0176 828.2344,642.0488 L828.2344,643.1426 Q828.2344,644.377 829.125,645.2051 Q830.0156,646.0176 831.6094,646.0176 Q832.5469,646.0176 833.2031,645.7676 Q833.5938,645.6113 834.0156,645.1738 Q834.2813,644.9082 834.4219,644.8301 Q834.5781,644.752 834.7813,644.752 Q835.1094,644.752 835.3594,645.0176 Q835.625,645.2676 835.625,645.6113 Q835.625,645.9551 835.2813,646.3613 Q834.7813,646.9395 833.9844,647.2676 Q832.9063,647.7207 831.6094,647.7207 Q830.0938,647.7207 828.8906,647.0957 Q827.9063,646.5957 827.2188,645.5332 Q826.5313,644.4551 826.5313,643.1738 L826.5313,642.0176 Q826.5313,640.6895 827.1406,639.5488 Q827.7656,638.3926 828.8594,637.7832 Q829.9531,637.1582 831.1875,637.1582 Q831.9219,637.1582 832.5625,637.3301 Q833.2188,637.4863 833.7656,637.8457 Z " fill="#000000"/><text fill="#000000" font-family="sans-serif" font-size="18" lengthAdjust="spacing" textLength="218" x="847" y="649.4238">CourseAndDescriptionDTO</text><line style="stroke:#181818;stroke-width:0.5;" x1="817" x2="1069" y1="660.9414" y2="660.9414"/><line style="stroke:#181818;stroke-width:0.5;" x1="817" x2="1069" y1="668.9414" y2="668.9414"/></g><!--class CourseAndDescriptionDTOMapper--><g id="elem_CourseAndDescriptionDTOMapper"><rect codeLine="75" fill="#F1F1F1" height="81.8828" id="CourseAndDescriptionDTOMapper" rx="2.5" ry="2.5" style="stroke:#181818;stroke-width:0.5;" width="315" x="1105.5" y="609"/><ellipse cx="1120.5" cy="627.9707" fill="#ADD1B2" rx="11" ry="11" style="stroke:#181818;stroke-width:1.0;"/><path d="M1123.2656,623.8457 Q1123.4219,623.627 1123.6094,623.5176 Q1123.7969,623.4082 1124.0156,623.4082 Q1124.3906,623.4082 1124.625,623.6738 Q1124.8594,623.9238 1124.8594,624.5332 L1124.8594,625.9863 Q1124.8594,626.5957 1124.625,626.8613 Q1124.3906,627.127 1124.0156,627.127 Q1123.6719,627.127 1123.4688,626.9238 Q1123.2656,626.7363 1123.1563,626.2207 Q1123.1094,625.8613 1122.9219,625.6738 Q1122.5938,625.2988 1121.9844,625.0801 Q1121.375,624.8613 1120.75,624.8613 Q1119.9844,624.8613 1119.3438,625.1895 Q1118.7188,625.5176 1118.2188,626.2676 Q1117.7344,627.0176 1117.7344,628.0488 L1117.7344,629.1426 Q1117.7344,630.377 1118.625,631.2051 Q1119.5156,632.0176 1121.1094,632.0176 Q1122.0469,632.0176 1122.7031,631.7676 Q1123.0938,631.6113 1123.5156,631.1738 Q1123.7813,630.9082 1123.9219,630.8301 Q1124.0781,630.752 1124.2813,630.752 Q1124.6094,630.752 1124.8594,631.0176 Q1125.125,631.2676 1125.125,631.6113 Q1125.125,631.9551 1124.7813,632.3613 Q1124.2813,632.9395 1123.4844,633.2676 Q1122.4063,633.7207 1121.1094,633.7207 Q1119.5938,633.7207 1118.3906,633.0957 Q1117.4063,632.5957 1116.7188,631.5332 Q1116.0313,630.4551 1116.0313,629.1738 L1116.0313,628.0176 Q1116.0313,626.6895 1116.6406,625.5488 Q1117.2656,624.3926 1118.3594,623.7832 Q1119.4531,623.1582 1120.6875,623.1582 Q1121.4219,623.1582 1122.0625,623.3301 Q1122.7188,623.4863 1123.2656,623.8457 Z " fill="#000000"/><text fill="#000000" font-family="sans-serif" font-size="18" lengthAdjust="spacing" textLength="279" x="1136.5" y="635.4238">CourseAndDescriptionDTOMapper</text><line style="stroke:#181818;stroke-width:0.5;" x1="1106.5" x2="1419.5" y1="646.9414" y2="646.9414"/><line style="stroke:#181818;stroke-width:0.5;" x1="1106.5" x2="1419.5" y1="654.9414" y2="654.9414"/><text fill="#000000" font-family="sans-serif" font-size="18" lengthAdjust="spacing" textLength="194" x="1113.5" y="680.3652">+toDTO(Course course)</text></g><!--class ExamGradeAndStudentDTO--><g id="elem_ExamGradeAndStudentDTO"><rect codeLine="80" fill="#F1F1F1" height="53.9414" id="ExamGradeAndStudentDTO" rx="2.5" ry="2.5" style="stroke:#181818;stroke-width:0.5;" width="262" x="1456" y="623"/><ellipse cx="1471" cy="641.9707" fill="#ADD1B2" rx="11" ry="11" style="stroke:#181818;stroke-width:1.0;"/><path d="M1473.7656,637.8457 Q1473.9219,637.627 1474.1094,637.5176 Q1474.2969,637.4082 1474.5156,637.4082 Q1474.8906,637.4082 1475.125,637.6738 Q1475.3594,637.9238 1475.3594,638.5332 L1475.3594,639.9863 Q1475.3594,640.5957 1475.125,640.8613 Q1474.8906,641.127 1474.5156,641.127 Q1474.1719,641.127 1473.9688,640.9238 Q1473.7656,640.7363 1473.6563,640.2207 Q1473.6094,639.8613 1473.4219,639.6738 Q1473.0938,639.2988 1472.4844,639.0801 Q1471.875,638.8613 1471.25,638.8613 Q1470.4844,638.8613 1469.8438,639.1895 Q1469.2188,639.5176 1468.7188,640.2676 Q1468.2344,641.0176 1468.2344,642.0488 L1468.2344,643.1426 Q1468.2344,644.377 1469.125,645.2051 Q1470.0156,646.0176 1471.6094,646.0176 Q1472.5469,646.0176 1473.2031,645.7676 Q1473.5938,645.6113 1474.0156,645.1738 Q1474.2813,644.9082 1474.4219,644.8301 Q1474.5781,644.752 1474.7813,644.752 Q1475.1094,644.752 1475.3594,645.0176 Q1475.625,645.2676 1475.625,645.6113 Q1475.625,645.9551 1475.2813,646.3613 Q1474.7813,646.9395 1473.9844,647.2676 Q1472.9063,647.7207 1471.6094,647.7207 Q1470.0938,647.7207 1468.8906,647.0957 Q1467.9063,646.5957 1467.2188,645.5332 Q1466.5313,644.4551 1466.5313,643.1738 L1466.5313,642.0176 Q1466.5313,640.6895 1467.1406,639.5488 Q1467.7656,638.3926 1468.8594,637.7832 Q1469.9531,637.1582 1471.1875,637.1582 Q1471.9219,637.1582 1472.5625,637.3301 Q1473.2188,637.4863 1473.7656,637.8457 Z " fill="#000000"/><text fill="#000000" font-family="sans-serif" font-size="18" lengthAdjust="spacing" textLength="226" x="1487" y="649.4238">ExamGradeAndStudentDTO</text><line style="stroke:#181818;stroke-width:0.5;" x1="1457" x2="1717" y1="660.9414" y2="660.9414"/><line style="stroke:#181818;stroke-width:0.5;" x1="1457" x2="1717" y1="668.9414" y2="668.9414"/></g><!--class ExamGradeAndStudentDTOMapper--><g id="elem_ExamGradeAndStudentDTOMapper"><rect codeLine="84" fill="#F1F1F1" height="81.8828" id="ExamGradeAndStudentDTOMapper" rx="2.5" ry="2.5" style="stroke:#181818;stroke-width:0.5;" width="323" x="1753.5" y="609"/><ellipse cx="1768.5" cy="627.9707" fill="#ADD1B2" rx="11" ry="11" style="stroke:#181818;stroke-width:1.0;"/><path d="M1771.2656,623.8457 Q1771.4219,623.627 1771.6094,623.5176 Q1771.7969,623.4082 1772.0156,623.4082 Q1772.3906,623.4082 1772.625,623.6738 Q1772.8594,623.9238 1772.8594,624.5332 L1772.8594,625.9863 Q1772.8594,626.5957 1772.625,626.8613 Q1772.3906,627.127 1772.0156,627.127 Q1771.6719,627.127 1771.4688,626.9238 Q1771.2656,626.7363 1771.1563,626.2207 Q1771.1094,625.8613 1770.9219,625.6738 Q1770.5938,625.2988 1769.9844,625.0801 Q1769.375,624.8613 1768.75,624.8613 Q1767.9844,624.8613 1767.3438,625.1895 Q1766.7188,625.5176 1766.2188,626.2676 Q1765.7344,627.0176 1765.7344,628.0488 L1765.7344,629.1426 Q1765.7344,630.377 1766.625,631.2051 Q1767.5156,632.0176 1769.1094,632.0176 Q1770.0469,632.0176 1770.7031,631.7676 Q1771.0938,631.6113 1771.5156,631.1738 Q1771.7813,630.9082 1771.9219,630.8301 Q1772.0781,630.752 1772.2813,630.752 Q1772.6094,630.752 1772.8594,631.0176 Q1773.125,631.2676 1773.125,631.6113 Q1773.125,631.9551 1772.7813,632.3613 Q1772.2813,632.9395 1771.4844,633.2676 Q1770.4063,633.7207 1769.1094,633.7207 Q1767.5938,633.7207 1766.3906,633.0957 Q1765.4063,632.5957 1764.7188,631.5332 Q1764.0313,630.4551 1764.0313,629.1738 L1764.0313,628.0176 Q1764.0313,626.6895 1764.6406,625.5488 Q1765.2656,624.3926 1766.3594,623.7832 Q1767.4531,623.1582 1768.6875,623.1582 Q1769.4219,623.1582 1770.0625,623.3301 Q1770.7188,623.4863 1771.2656,623.8457 Z " fill="#000000"/><text fill="#000000" font-family="sans-serif" font-size="18" lengthAdjust="spacing" textLength="287" x="1784.5" y="635.4238">ExamGradeAndStudentDTOMapper</text><line style="stroke:#181818;stroke-width:0.5;" x1="1754.5" x2="2075.5" y1="646.9414" y2="646.9414"/><line style="stroke:#181818;stroke-width:0.5;" x1="1754.5" x2="2075.5" y1="654.9414" y2="654.9414"/><text fill="#000000" font-family="sans-serif" font-size="18" lengthAdjust="spacing" textLength="284" x="1761.5" y="680.3652">+toDTO(RegularExamResult result)</text></g><!--class RegularExamResult--><g id="elem_RegularExamResult"><rect codeLine="89" fill="#F1F1F1" height="137.7656" id="RegularExamResult" rx="2.5" ry="2.5" style="stroke:#181818;stroke-width:0.5;" width="194" x="1832" y="791"/><ellipse cx="1847" cy="809.9707" fill="#ADD1B2" rx="11" ry="11" style="stroke:#181818;stroke-width:1.0;"/><path d="M1849.7656,805.8457 Q1849.9219,805.627 1850.1094,805.5176 Q1850.2969,805.4082 1850.5156,805.4082 Q1850.8906,805.4082 1851.125,805.6738 Q1851.3594,805.9238 1851.3594,806.5332 L1851.3594,807.9863 Q1851.3594,808.5957 1851.125,808.8613 Q1850.8906,809.127 1850.5156,809.127 Q1850.1719,809.127 1849.9688,808.9238 Q1849.7656,808.7363 1849.6563,808.2207 Q1849.6094,807.8613 1849.4219,807.6738 Q1849.0938,807.2988 1848.4844,807.0801 Q1847.875,806.8613 1847.25,806.8613 Q1846.4844,806.8613 1845.8438,807.1895 Q1845.2188,807.5176 1844.7188,808.2676 Q1844.2344,809.0176 1844.2344,810.0488 L1844.2344,811.1426 Q1844.2344,812.377 1845.125,813.2051 Q1846.0156,814.0176 1847.6094,814.0176 Q1848.5469,814.0176 1849.2031,813.7676 Q1849.5938,813.6113 1850.0156,813.1738 Q1850.2813,812.9082 1850.4219,812.8301 Q1850.5781,812.752 1850.7813,812.752 Q1851.1094,812.752 1851.3594,813.0176 Q1851.625,813.2676 1851.625,813.6113 Q1851.625,813.9551 1851.2813,814.3613 Q1850.7813,814.9395 1849.9844,815.2676 Q1848.9063,815.7207 1847.6094,815.7207 Q1846.0938,815.7207 1844.8906,815.0957 Q1843.9063,814.5957 1843.2188,813.5332 Q1842.5313,812.4551 1842.5313,811.1738 L1842.5313,810.0176 Q1842.5313,808.6895 1843.1406,807.5488 Q1843.7656,806.3926 1844.8594,805.7832 Q1845.9531,805.1582 1847.1875,805.1582 Q1847.9219,805.1582 1848.5625,805.3301 Q1849.2188,805.4863 1849.7656,805.8457 Z " fill="#000000"/><text fill="#000000" font-family="sans-serif" font-size="18" lengthAdjust="spacing" textLength="158" x="1863" y="817.4238">RegularExamResult</text><line style="stroke:#181818;stroke-width:0.5;" x1="1833" x2="2025" y1="828.9414" y2="828.9414"/><line style="stroke:#181818;stroke-width:0.5;" x1="1833" x2="2025" y1="836.9414" y2="836.9414"/><text fill="#000000" font-family="sans-serif" font-size="18" lengthAdjust="spacing" textLength="69" x="1840" y="862.3652">+grade()</text><text fill="#000000" font-family="sans-serif" font-size="18" lengthAdjust="spacing" textLength="58" x="1840" y="890.3066">+date()</text><text fill="#000000" font-family="sans-serif" font-size="18" lengthAdjust="spacing" textLength="82" x="1840" y="918.248">+student()</text></g><!--class JpaStaffRepository--><g id="elem_JpaStaffRepository"><rect codeLine="96" fill="#F1F1F1" height="81.8828" id="JpaStaffRepository" rx="2.5" ry="2.5" style="stroke:#181818;stroke-width:0.5;" width="188" x="949" y="7"/><ellipse cx="964" cy="25.9707" fill="#ADD1B2" rx="11" ry="11" style="stroke:#181818;stroke-width:1.0;"/><path d="M966.7656,21.8457 Q966.9219,21.627 967.1094,21.5176 Q967.2969,21.4082 967.5156,21.4082 Q967.8906,21.4082 968.125,21.6738 Q968.3594,21.9238 968.3594,22.5332 L968.3594,23.9863 Q968.3594,24.5957 968.125,24.8613 Q967.8906,25.127 967.5156,25.127 Q967.1719,25.127 966.9688,24.9238 Q966.7656,24.7363 966.6563,24.2207 Q966.6094,23.8613 966.4219,23.6738 Q966.0938,23.2988 965.4844,23.0801 Q964.875,22.8613 964.25,22.8613 Q963.4844,22.8613 962.8438,23.1895 Q962.2188,23.5176 961.7188,24.2676 Q961.2344,25.0176 961.2344,26.0488 L961.2344,27.1426 Q961.2344,28.377 962.125,29.2051 Q963.0156,30.0176 964.6094,30.0176 Q965.5469,30.0176 966.2031,29.7676 Q966.5938,29.6113 967.0156,29.1738 Q967.2813,28.9082 967.4219,28.8301 Q967.5781,28.752 967.7813,28.752 Q968.1094,28.752 968.3594,29.0176 Q968.625,29.2676 968.625,29.6113 Q968.625,29.9551 968.2813,30.3613 Q967.7813,30.9395 966.9844,31.2676 Q965.9063,31.7207 964.6094,31.7207 Q963.0938,31.7207 961.8906,31.0957 Q960.9063,30.5957 960.2188,29.5332 Q959.5313,28.4551 959.5313,27.1738 L959.5313,26.0176 Q959.5313,24.6895 960.1406,23.5488 Q960.7656,22.3926 961.8594,21.7832 Q962.9531,21.1582 964.1875,21.1582 Q964.9219,21.1582 965.5625,21.3301 Q966.2188,21.4863 966.7656,21.8457 Z " fill="#000000"/><text fill="#000000" font-family="sans-serif" font-size="18" lengthAdjust="spacing" textLength="152" x="980" y="33.4238">JpaStaffRepository</text><line style="stroke:#181818;stroke-width:0.5;" x1="950" x2="1136" y1="44.9414" y2="44.9414"/><line style="stroke:#181818;stroke-width:0.5;" x1="950" x2="1136" y1="52.9414" y2="52.9414"/><text fill="#000000" font-family="sans-serif" font-size="18" lengthAdjust="spacing" textLength="171" x="957" y="78.3652">+taughtBy(Teacher t)</text></g><!--class JpaCourseRepository--><g id="elem_JpaCourseRepository"><rect codeLine="101" fill="#F1F1F1" height="53.9414" id="JpaCourseRepository" rx="2.5" ry="2.5" style="stroke:#181818;stroke-width:0.5;" width="209" x="1172.5" y="21"/><ellipse cx="1187.5" cy="39.9707" fill="#ADD1B2" rx="11" ry="11" style="stroke:#181818;stroke-width:1.0;"/><path d="M1190.2656,35.8457 Q1190.4219,35.627 1190.6094,35.5176 Q1190.7969,35.4082 1191.0156,35.4082 Q1191.3906,35.4082 1191.625,35.6738 Q1191.8594,35.9238 1191.8594,36.5332 L1191.8594,37.9863 Q1191.8594,38.5957 1191.625,38.8613 Q1191.3906,39.127 1191.0156,39.127 Q1190.6719,39.127 1190.4688,38.9238 Q1190.2656,38.7363 1190.1563,38.2207 Q1190.1094,37.8613 1189.9219,37.6738 Q1189.5938,37.2988 1188.9844,37.0801 Q1188.375,36.8613 1187.75,36.8613 Q1186.9844,36.8613 1186.3438,37.1895 Q1185.7188,37.5176 1185.2188,38.2676 Q1184.7344,39.0176 1184.7344,40.0488 L1184.7344,41.1426 Q1184.7344,42.377 1185.625,43.2051 Q1186.5156,44.0176 1188.1094,44.0176 Q1189.0469,44.0176 1189.7031,43.7676 Q1190.0938,43.6113 1190.5156,43.1738 Q1190.7813,42.9082 1190.9219,42.8301 Q1191.0781,42.752 1191.2813,42.752 Q1191.6094,42.752 1191.8594,43.0176 Q1192.125,43.2676 1192.125,43.6113 Q1192.125,43.9551 1191.7813,44.3613 Q1191.2813,44.9395 1190.4844,45.2676 Q1189.4063,45.7207 1188.1094,45.7207 Q1186.5938,45.7207 1185.3906,45.0957 Q1184.4063,44.5957 1183.7188,43.5332 Q1183.0313,42.4551 1183.0313,41.1738 L1183.0313,40.0176 Q1183.0313,38.6895 1183.6406,37.5488 Q1184.2656,36.3926 1185.3594,35.7832 Q1186.4531,35.1582 1187.6875,35.1582 Q1188.4219,35.1582 1189.0625,35.3301 Q1189.7188,35.4863 1190.2656,35.8457 Z " fill="#000000"/><text fill="#000000" font-family="sans-serif" font-size="18" lengthAdjust="spacing" textLength="173" x="1203.5" y="47.4238">JpaCourseRepository</text><line style="stroke:#181818;stroke-width:0.5;" x1="1173.5" x2="1380.5" y1="58.9414" y2="58.9414"/><line style="stroke:#181818;stroke-width:0.5;" x1="1173.5" x2="1380.5" y1="66.9414" y2="66.9414"/></g><!--class ExamGradeProperties--><g id="elem_ExamGradeProperties"><rect codeLine="105" fill="#F1F1F1" height="137.7656" id="ExamGradeProperties" rx="2.5" ry="2.5" style="stroke:#181818;stroke-width:0.5;" width="212" x="1823" y="1029"/><ellipse cx="1838" cy="1047.9707" fill="#EB937F" rx="11" ry="11" style="stroke:#181818;stroke-width:1.0;"/><path d="M1836.8594,1048.7676 L1836.8594,1051.2676 L1841.1875,1051.2676 L1841.1875,1050.3457 Q1841.1875,1049.7363 1841.4219,1049.4707 Q1841.6719,1049.2051 1842.0469,1049.2051 Q1842.4219,1049.2051 1842.6563,1049.4707 Q1842.8906,1049.7363 1842.8906,1050.3457 L1842.8906,1052.9707 L1834.8906,1052.9707 Q1834.2656,1052.9707 1834,1052.7363 Q1833.75,1052.502 1833.75,1052.1113 Q1833.75,1051.7363 1834.0156,1051.502 Q1834.2813,1051.2676 1834.8906,1051.2676 L1835.1563,1051.2676 L1835.1563,1044.6113 L1834.8906,1044.6113 Q1834.2656,1044.6113 1834,1044.377 Q1833.75,1044.1426 1833.75,1043.752 Q1833.75,1043.377 1834,1043.1426 Q1834.2656,1042.9082 1834.8906,1042.9082 L1842.5156,1042.9082 L1842.5156,1045.502 Q1842.5156,1046.1113 1842.2813,1046.377 Q1842.0625,1046.627 1841.6719,1046.627 Q1841.2969,1046.627 1841.0625,1046.377 Q1840.8281,1046.1113 1840.8281,1045.502 L1840.8281,1044.6113 L1836.8594,1044.6113 L1836.8594,1047.0645 L1838.3438,1047.0645 Q1838.3438,1046.4082 1838.4688,1046.2207 Q1838.7344,1045.8145 1839.2031,1045.8145 Q1839.5781,1045.8145 1839.8125,1046.0801 Q1840.0469,1046.3301 1840.0469,1046.9395 L1840.0469,1048.9082 Q1840.0469,1049.4551 1839.9219,1049.6426 Q1839.6563,1050.0332 1839.2031,1050.0332 Q1838.7344,1050.0332 1838.4688,1049.627 Q1838.3438,1049.4395 1838.3438,1048.7676 L1836.8594,1048.7676 Z " fill="#000000"/><text fill="#000000" font-family="sans-serif" font-size="18" lengthAdjust="spacing" textLength="176" x="1854" y="1055.4238">ExamGradeProperties</text><line style="stroke:#181818;stroke-width:0.5;" x1="1824" x2="2034" y1="1066.9414" y2="1066.9414"/><text fill="#000000" font-family="sans-serif" font-size="18" lengthAdjust="spacing" textLength="63" x="1831" y="1092.3652">+NONE</text><text fill="#000000" font-family="sans-serif" font-size="18" lengthAdjust="spacing" textLength="159" x="1831" y="1120.3066">+ON_SUBMISSION</text><text fill="#000000" font-family="sans-serif" font-size="18" lengthAdjust="spacing" textLength="160" x="1831" y="1148.248">+AFTER_CLOSING</text><line style="stroke:#181818;stroke-width:0.5;" x1="1824" x2="2034" y1="1158.7656" y2="1158.7656"/></g><!--link ListExamsGradesInCourseUI to AbstractUI--><g id="link_ListExamsGradesInCourseUI_AbstractUI"><path codeLine="123" d="M1528,299.11 C1528,332.55 1528,375.03 1528,406.87 " fill="none" id="ListExamsGradesInCourseUI-to-AbstractUI" style="stroke:#181818;stroke-width:1.0;"/><polygon fill="none" points="1535,406.98,1528,426.98,1521,406.98,1535,406.98" style="stroke:#181818;stroke-width:1.0;"/></g><!--link ListExamsGradesInCourseUI to ListExamsGradesInCourseController--><g id="link_ListExamsGradesInCourseUI_ListExamsGradesInCourseController"><path codeLine="128" d="M1417.45,299.11 C1356.2,329.08 1280.15,366.3 1218.18,396.63 " fill="none" id="ListExamsGradesInCourseUI-to-ListExamsGradesInCourseController" style="stroke:#181818;stroke-width:1.0;"/><polygon fill="#181818" points="1213.37,398.98,1223.2123,398.6206,1217.8619,396.7839,1219.6986,391.4336,1213.37,398.98" style="stroke:#181818;stroke-width:1.0;"/><text fill="#000000" font-family="sans-serif" font-size="13" lengthAdjust="spacing" textLength="7" x="1217.8065" y="385.6435">1</text></g><!--link ListExamsGradesInCourseController to MyUserService--><g id="link_ListExamsGradesInCourseController_MyUserService"><path codeLine="131" d="M931.97,509.05 C844.22,537.49 735.9,573.72 640,609 C635.72,610.57 631.35,612.22 626.94,613.9 " fill="none" id="ListExamsGradesInCourseController-to-MyUserService" style="stroke:#181818;stroke-width:1.0;"/><polygon fill="#181818" points="622.15,615.73,631.9863,616.2265,626.8156,613.9322,629.1099,608.7615,622.15,615.73" style="stroke:#181818;stroke-width:1.0;"/><text fill="#000000" font-family="sans-serif" font-size="13" lengthAdjust="spacing" textLength="7" x="631.8673" y="606.7892">1</text></g><!--link ListExamsGradesInCourseController to BaseRoles--><g id="link_ListExamsGradesInCourseController_BaseRoles"><path codeLine="132" d="M995.71,509.14 C937.25,538.64 863.64,575.81 798,609 C793.87,611.09 789.62,613.24 785.33,615.41 " fill="none" id="ListExamsGradesInCourseController-to-BaseRoles" style="stroke:#181818;stroke-width:1.0;"/><polygon fill="#181818" points="780.67,617.77,790.5063,617.2725,785.1306,615.5111,786.892,610.1354,780.67,617.77" style="stroke:#181818;stroke-width:1.0;"/><text fill="#000000" font-family="sans-serif" font-size="13" lengthAdjust="spacing" textLength="7" x="790.4365" y="607.8813">1</text></g><!--link ListExamsGradesInCourseController to CourseAndDescriptionDTO--><g id="link_ListExamsGradesInCourseController_CourseAndDescriptionDTO"><path codeLine="133" d="M1058.43,509.04 C1029.26,544.41 992.21,589.33 968.07,618.6 " fill="none" id="ListExamsGradesInCourseController-to-CourseAndDescriptionDTO" style="stroke:#181818;stroke-width:1.0;"/><polygon fill="#181818" points="964.6,622.81,973.4057,618.3986,967.7755,618.9479,967.2262,613.3177,964.6,622.81" style="stroke:#181818;stroke-width:1.0;"/><text fill="#000000" font-family="sans-serif" font-size="13" lengthAdjust="spacing" textLength="5" x="961.3406" y="609.6319">*</text></g><!--link ListExamsGradesInCourseController to CourseAndDescriptionDTOMapper--><g id="link_ListExamsGradesInCourseController_CourseAndDescriptionDTOMapper"><path codeLine="134" d="M1147.57,509.04 C1172.42,539.17 1202.99,576.24 1226.43,604.66 " fill="none" id="ListExamsGradesInCourseController-to-CourseAndDescriptionDTOMapper" style="stroke:#181818;stroke-width:1.0;"/><polygon fill="#181818" points="1229.83,608.78,1227.1828,599.2936,1226.646,604.9249,1221.0146,604.388,1229.83,608.78" style="stroke:#181818;stroke-width:1.0;"/><text fill="#000000" font-family="sans-serif" font-size="13" lengthAdjust="spacing" textLength="7" x="1214.667" y="595.598">1</text></g><!--reverse link CourseRepository to ListExamsGradesInCourseController--><g id="link_CourseRepository_ListExamsGradesInCourseController"><path codeLine="135" d="M1234.39,289.35 C1208.68,321.37 1173.82,364.79 1146.47,398.86 " fill="none" id="CourseRepository-backto-ListExamsGradesInCourseController" style="stroke:#181818;stroke-width:1.0;"/><polygon fill="#181818" points="1237.8,285.1,1229.0401,289.6016,1234.6643,288.9945,1235.2714,294.6187,1237.8,285.1" style="stroke:#181818;stroke-width:1.0;"/><text fill="#000000" font-family="sans-serif" font-size="13" lengthAdjust="spacing" textLength="7" x="1223.0272" y="309.0608">1</text></g><!--reverse link StaffRepository to ListExamsGradesInCourseController--><g id="link_StaffRepository_ListExamsGradesInCourseController"><path codeLine="136" d="M1062.28,290.13 C1070.27,322.08 1081.02,365.07 1089.46,398.86 " fill="none" id="StaffRepository-backto-ListExamsGradesInCourseController" style="stroke:#181818;stroke-width:1.0;"/><polygon fill="#181818" points="1061.03,285.1,1059.3323,294.8014,1062.2427,289.9507,1067.0934,292.8611,1061.03,285.1" style="stroke:#181818;stroke-width:1.0;"/><text fill="#000000" font-family="sans-serif" font-size="13" lengthAdjust="spacing" textLength="7" x="1052.7237" y="309.0608">1</text></g><!--link ListExamsGradesInCourseController to ExamGradeAndStudentDTO--><g id="link_ListExamsGradesInCourseController_ExamGradeAndStudentDTO"><path codeLine="137" d="M1237.82,509.04 C1328.55,545.41 1444.47,591.87 1517.25,621.04 " fill="none" id="ListExamsGradesInCourseController-to-ExamGradeAndStudentDTO" style="stroke:#181818;stroke-width:1.0;"/><polygon fill="#181818" points="1521.98,622.94,1515.1093,615.8836,1517.3376,621.083,1512.1381,623.3114,1521.98,622.94" style="stroke:#181818;stroke-width:1.0;"/><text fill="#000000" font-family="sans-serif" font-size="13" lengthAdjust="spacing" textLength="5" x="1499.7725" y="609.7903">*</text></g><!--link ListExamsGradesInCourseController to ExamGradeAndStudentDTOMapper--><g id="link_ListExamsGradesInCourseController_ExamGradeAndStudentDTOMapper"><path codeLine="138" d="M1329.19,509.04 C1462.14,540.8 1627.33,580.27 1748.37,609.19 " fill="none" id="ListExamsGradesInCourseController-to-ExamGradeAndStudentDTOMapper" style="stroke:#181818;stroke-width:1.0;"/><polygon fill="#181818" points="1753.38,610.39,1745.5647,604.3966,1748.5186,609.221,1743.6942,612.1749,1753.38,610.39" style="stroke:#181818;stroke-width:1.0;"/><text fill="#000000" font-family="sans-serif" font-size="13" lengthAdjust="spacing" textLength="7" x="1736.2851" y="603.001">1</text></g><!--reverse link ListExamResultsService to ListExamsGradesInCourseController--><g id="link_ListExamResultsService_ListExamsGradesInCourseController"><path codeLine="139" d="M747.92,287.4 C816.94,319.59 912.37,364.09 986.91,398.86 " fill="none" id="ListExamResultsService-backto-ListExamsGradesInCourseController" style="stroke:#181818;stroke-width:1.0;"/><polygon fill="#181818" points="742.99,285.1,749.4721,292.515,747.526,287.2035,752.8376,285.2574,742.99,285.1" style="stroke:#181818;stroke-width:1.0;"/><text fill="#000000" font-family="sans-serif" font-size="13" lengthAdjust="spacing" textLength="7" x="746.315" y="309.0608">1</text></g><!--link CourseAndDescriptionDTOMapper to Course--><g id="link_CourseAndDescriptionDTOMapper_Course"><path codeLine="141" d="M1260.11,691.1 C1257.58,726.1 1253.92,776.85 1251.29,813.38 " fill="none" id="CourseAndDescriptionDTOMapper-to-Course" style="stroke:#181818;stroke-width:1.0;"/><polygon fill="#181818" points="1250.91,818.66,1255.5428,809.9688,1251.2673,813.6728,1247.5633,809.3972,1250.91,818.66" style="stroke:#181818;stroke-width:1.0;"/><text fill="#000000" font-family="sans-serif" font-size="13" lengthAdjust="spacing" textLength="5" x="1243.6665" y="805.7816">*</text></g><!--link ExamGradeAndStudentDTOMapper to RegularExamResult--><g id="link_ExamGradeAndStudentDTOMapper_RegularExamResult"><path codeLine="142" d="M1917.7,691.1 C1919.5,717.89 1921.93,753.9 1924.07,785.7 " fill="none" id="ExamGradeAndStudentDTOMapper-to-RegularExamResult" style="stroke:#181818;stroke-width:1.0;"/><polygon fill="#181818" points="1924.41,790.77,1927.7831,781.5168,1924.067,785.7818,1919.802,782.0656,1924.41,790.77" style="stroke:#181818;stroke-width:1.0;"/><text fill="#000000" font-family="sans-serif" font-size="13" lengthAdjust="spacing" textLength="5" x="1916.4726" y="777.6033">*</text></g><!--link ListExamResultsService to RegularExamResultRepository--><g id="link_ListExamResultsService_RegularExamResultRepository"><path codeLine="144" d="M612.27,285.1 C572.6,320.67 514.77,372.52 473.89,409.17 " fill="none" id="ListExamResultsService-to-RegularExamResultRepository" style="stroke:#181818;stroke-width:1.0;"/><polygon fill="#181818" points="469.99,412.66,479.3613,409.6304,473.7128,409.3223,474.0209,403.6738,469.99,412.66" style="stroke:#181818;stroke-width:1.0;"/><text fill="#000000" font-family="sans-serif" font-size="13" lengthAdjust="spacing" textLength="7" x="467.0369" y="399.7816">1</text></g><!--link RegularExamResult to ExamGradeProperties--><g id="link_RegularExamResult_ExamGradeProperties"><path codeLine="146" d="M1929,929.26 C1929,958.86 1929,993.57 1929,1023.71 " fill="none" id="RegularExamResult-to-ExamGradeProperties" style="stroke:#181818;stroke-width:1.0;"/><polygon fill="#181818" points="1929,1028.89,1933,1019.89,1929,1023.89,1925,1019.89,1929,1028.89" style="stroke:#181818;stroke-width:1.0;"/></g><!--link JpaRegularExamResultRepository to RegularExamResultRepository--><g id="link_JpaRegularExamResultRepository_RegularExamResultRepository"><path codeLine="149" d="M228.85,285.1 C266.89,317.66 320.85,363.85 362.55,399.55 " fill="none" id="JpaRegularExamResultRepository-to-RegularExamResultRepository" style="stroke:#181818;stroke-width:1.0;stroke-dasharray:7.0,7.0;"/><polygon fill="none" points="367.24,394.34,377.88,412.66,358.13,404.98,367.24,394.34" style="stroke:#181818;stroke-width:1.0;"/></g><!--link JpaStaffRepository to StaffRepository--><g id="link_JpaStaffRepository_StaffRepository"><path codeLine="150" d="M1044.66,89.2 C1045.77,116.25 1047.26,152.4 1048.52,182.86 " fill="none" id="JpaStaffRepository-to-StaffRepository" style="stroke:#181818;stroke-width:1.0;stroke-dasharray:7.0,7.0;"/><polygon fill="none" points="1055.51,182.58,1049.34,202.85,1041.53,183.16,1055.51,182.58" style="stroke:#181818;stroke-width:1.0;"/></g><!--link JpaCourseRepository to CourseRepository--><g id="link_JpaCourseRepository_CourseRepository"><path codeLine="151" d="M1276.06,75.16 C1275.07,102.57 1273.48,146.57 1272.18,182.64 " fill="none" id="JpaCourseRepository-to-CourseRepository" style="stroke:#181818;stroke-width:1.0;stroke-dasharray:7.0,7.0;"/><polygon fill="none" points="1279.17,183.04,1271.45,202.78,1265.18,182.54,1279.17,183.04" style="stroke:#181818;stroke-width:1.0;"/></g><!--link CourseAndDescriptionDTOMapper to Mapper--><g id="link_CourseAndDescriptionDTOMapper_Mapper"><path codeLine="153" d="M1321.04,691.1 C1368.95,724.21 1437.28,771.43 1489.28,807.36 " fill="none" id="CourseAndDescriptionDTOMapper-to-Mapper" style="stroke:#181818;stroke-width:1.0;stroke-dasharray:7.0,7.0;"/><polygon fill="none" points="1493.41,801.71,1505.89,818.84,1485.45,813.23,1493.41,801.71" style="stroke:#181818;stroke-width:1.0;"/></g><!--link ExamGradeAndStudentDTOMapper to Mapper--><g id="link_ExamGradeAndStudentDTOMapper_Mapper"><path codeLine="154" d="M1847.32,691.1 C1790.84,724.57 1710.04,772.46 1649.17,808.53 " fill="none" id="ExamGradeAndStudentDTOMapper-to-Mapper" style="stroke:#181818;stroke-width:1.0;stroke-dasharray:7.0,7.0;"/><polygon fill="none" points="1652.54,814.67,1631.77,818.84,1645.4,802.62,1652.54,814.67" style="stroke:#181818;stroke-width:1.0;"/></g><!--SRC=[bLNBSjem5DthApJf8gPfNbrrEfbq226fEm4wcAmpmhw06bdII78RckRVAybWZ0t6OMD0vo7TUwvyl316wg_dvv8HRhAKdSKYFOyPqVeqeMIkI8gGVgPS4liL-uMkCOfECmDXB7X4_mA-A44aIHBAv_XpwJz5-BC6YIylBgfYTu8Rht7v1I54kG4r8p7W0P4I57f5-CI8syae2EqAcJAucbnZCVsbF-6UI9sG4Uhg6zQPXMEx5gUoWzxAKZsHAGrZa49J2ruwKViv4RCm0MweMGOpoWd38QQ9usweaI6psJRpn91ilZ0tos0295vOKrFn6yCyOqJrNqWw1fqnKxTMLOY-MURR3F87ZhseBn7-8KaBJTnMTANQdMgZI6mUGwjGU3rGRPo2lbSa0HtodEf1pkO3JaIq47-2pifr0IHXb4FGEIZIixrMWh6yhvxDB39Vr8KYssPtUHAPp7LAhyvX_xa57Iig3HNSXWF72w61xzZ1gX0HgDyqXgPI4Gt9Y3jBczwVIjWu6MftbKTZHrS6oqSDgg8SPqhPdQwYKQw9CnWB1hhOnAisnD3uRTBlzhxtnnjeRbRWw3gbdIgaLWZBEOWfJHREHsjzEFyecRZo-1viMf1x743KPhUMNji0zoXvrI3huy-T_3eR2J75Tvtx1Tk3yew9BJWxBWYx33nBDmVS9C9B3aV3ldsCXa_HuyqWZA9mDBI_ktUJ_lYfzp2Amk6zRqNnEOON0ppH-FJqtpNQEsP-kJoRZfg0z5J10vfAeOpkM5opoZK-kZngCOa87SGKQjkHRy_RPBybv-FHteItTstEVmkTJ6ufbGBo7d8raUrBi6V-sbUWSJpVSuOzrobgB76bbQXfDmMsVW-WtUR58PjUZQX-ypZQhgb6ntQq6AJkFOFFpkoCDhzsFQRHl7uRvPng87RSG3cm5hi3zVQaLNSRYrq68lGV]--></g></svg>