<?xml version="1.0" encoding="us-ascii" standalone="no"?><svg xmlns="http://www.w3.org/2000/svg" xmlns:xlink="http://www.w3.org/1999/xlink" contentStyleType="text/css" height="703.8px" preserveAspectRatio="none" style="width:1249px;height:703px;background:#FFFFFF;" version="1.1" viewBox="0 0 1249 703" width="1249.8px" zoomAndPan="magnify"><defs/><g><!--class Mapper--><g id="elem_Mapper"><rect codeLine="9" fill="#F1F1F1" height="49.1297" id="Mapper" rx="1.5" ry="1.5" style="stroke:#181818;stroke-width:0.3;" width="279" x="798.9" y="491.4"/><ellipse cx="916.05" cy="502.7824" fill="#B4A7E5" rx="6.6" ry="6.6" style="stroke:#181818;stroke-width:0.6;"/><path d="M916.6219,500.7668 L916.6219,504.7605 L917.6531,504.7605 Q918.0188,504.7605 918.1781,504.9012 Q918.3375,505.0418 918.3375,505.2762 Q918.3375,505.5012 918.1781,505.6418 Q918.0188,505.7824 917.6531,505.7824 L914.5688,505.7824 Q914.2031,505.7824 914.0437,505.6418 Q913.8844,505.5012 913.8844,505.2668 Q913.8844,505.0418 914.0437,504.9012 Q914.2031,504.7605 914.5688,504.7605 L915.6,504.7605 L915.6,500.7668 L914.5688,500.7668 Q914.2031,500.7668 914.0437,500.6262 Q913.8844,500.4855 913.8844,500.2512 Q913.8844,500.0262 914.0437,499.8855 Q914.2031,499.7449 914.5688,499.7449 L917.6531,499.7449 Q918.0188,499.7449 918.1781,499.8855 Q918.3375,500.0262 918.3375,500.2512 Q918.3375,500.4855 918.1781,500.6262 Q918.0188,500.7668 917.6531,500.7668 L916.6219,500.7668 Z " fill="#000000"/><text fill="#000000" font-family="sans-serif" font-size="10.8" font-style="italic" lengthAdjust="spacing" textLength="37.2" x="929.55" y="507.2543">Mapper</text><line style="stroke:#181818;stroke-width:0.3;" x1="799.5" x2="1077.3" y1="514.1648" y2="514.1648"/><line style="stroke:#181818;stroke-width:0.3;" x1="799.5" x2="1077.3" y1="518.9648" y2="518.9648"/><text fill="#000000" font-family="sans-serif" font-size="10.8" lengthAdjust="spacing" textLength="269.4" x="803.7" y="534.2191">+toDTO(Iterable&lt;T&gt; objs, Comparator&lt;? super T&gt; cmp)</text></g><!--class CourseRepository--><g id="elem_CourseRepository"><rect codeLine="14" fill="#F1F1F1" height="49.1297" id="CourseRepository" rx="1.5" ry="1.5" style="stroke:#181818;stroke-width:0.3;" width="108.6" x="707.7" y="121.8"/><ellipse cx="716.7" cy="133.1824" fill="#B4A7E5" rx="6.6" ry="6.6" style="stroke:#181818;stroke-width:0.6;"/><path d="M717.2719,131.1668 L717.2719,135.1605 L718.3031,135.1605 Q718.6687,135.1605 718.8281,135.3012 Q718.9875,135.4418 718.9875,135.6762 Q718.9875,135.9012 718.8281,136.0418 Q718.6687,136.1824 718.3031,136.1824 L715.2188,136.1824 Q714.8531,136.1824 714.6938,136.0418 Q714.5344,135.9012 714.5344,135.6668 Q714.5344,135.4418 714.6938,135.3012 Q714.8531,135.1605 715.2188,135.1605 L716.25,135.1605 L716.25,131.1668 L715.2188,131.1668 Q714.8531,131.1668 714.6938,131.0262 Q714.5344,130.8855 714.5344,130.6512 Q714.5344,130.4262 714.6938,130.2855 Q714.8531,130.1449 715.2188,130.1449 L718.3031,130.1449 Q718.6687,130.1449 718.8281,130.2855 Q718.9875,130.4262 718.9875,130.6512 Q718.9875,130.8855 718.8281,131.0262 Q718.6687,131.1668 718.3031,131.1668 L717.2719,131.1668 Z " fill="#000000"/><text fill="#000000" font-family="sans-serif" font-size="10.8" font-style="italic" lengthAdjust="spacing" textLength="87" x="726.3" y="137.6543">CourseRepository</text><line style="stroke:#181818;stroke-width:0.3;" x1="708.3" x2="815.7" y1="144.5648" y2="144.5648"/><line style="stroke:#181818;stroke-width:0.3;" x1="708.3" x2="815.7" y1="149.3648" y2="149.3648"/><text fill="#000000" font-family="sans-serif" font-size="10.8" lengthAdjust="spacing" textLength="93.6" x="712.5" y="164.6191">+ofIdentity(final I id)</text></g><!--class StaffRepository--><g id="elem_StaffRepository"><rect codeLine="18" fill="#F1F1F1" height="49.1297" id="StaffRepository" rx="1.5" ry="1.5" style="stroke:#181818;stroke-width:0.3;" width="112.2" x="574.5" y="121.8"/><ellipse cx="590.79" cy="133.1824" fill="#B4A7E5" rx="6.6" ry="6.6" style="stroke:#181818;stroke-width:0.6;"/><path d="M591.3619,131.1668 L591.3619,135.1605 L592.3931,135.1605 Q592.7588,135.1605 592.9181,135.3012 Q593.0775,135.4418 593.0775,135.6762 Q593.0775,135.9012 592.9181,136.0418 Q592.7588,136.1824 592.3931,136.1824 L589.3087,136.1824 Q588.9431,136.1824 588.7837,136.0418 Q588.6244,135.9012 588.6244,135.6668 Q588.6244,135.4418 588.7837,135.3012 Q588.9431,135.1605 589.3087,135.1605 L590.34,135.1605 L590.34,131.1668 L589.3087,131.1668 Q588.9431,131.1668 588.7837,131.0262 Q588.6244,130.8855 588.6244,130.6512 Q588.6244,130.4262 588.7837,130.2855 Q588.9431,130.1449 589.3087,130.1449 L592.3931,130.1449 Q592.7588,130.1449 592.9181,130.2855 Q593.0775,130.4262 593.0775,130.6512 Q593.0775,130.8855 592.9181,131.0262 Q592.7588,131.1668 592.3931,131.1668 L591.3619,131.1668 Z " fill="#000000"/><text fill="#000000" font-family="sans-serif" font-size="10.8" font-style="italic" lengthAdjust="spacing" textLength="74.4" x="602.01" y="137.6543">StaffRepository</text><line style="stroke:#181818;stroke-width:0.3;" x1="575.1" x2="686.1" y1="144.5648" y2="144.5648"/><line style="stroke:#181818;stroke-width:0.3;" x1="575.1" x2="686.1" y1="149.3648" y2="149.3648"/><text fill="#000000" font-family="sans-serif" font-size="10.8" lengthAdjust="spacing" textLength="102.6" x="579.3" y="164.6191">+taughtBy(Teacher t)</text></g><!--class RegularExamResultRepository--><g id="elem_RegularExamResultRepository"><rect codeLine="23" fill="#F1F1F1" height="49.1297" id="RegularExamResultRepository" rx="1.5" ry="1.5" style="stroke:#181818;stroke-width:0.3;" width="210" x="150" y="247.8"/><ellipse cx="176.55" cy="259.1824" fill="#B4A7E5" rx="6.6" ry="6.6" style="stroke:#181818;stroke-width:0.6;"/><path d="M177.1219,257.1668 L177.1219,261.1605 L178.1531,261.1605 Q178.5187,261.1605 178.6781,261.3012 Q178.8375,261.4418 178.8375,261.6762 Q178.8375,261.9012 178.6781,262.0418 Q178.5187,262.1824 178.1531,262.1824 L175.0688,262.1824 Q174.7031,262.1824 174.5438,262.0418 Q174.3844,261.9012 174.3844,261.6668 Q174.3844,261.4418 174.5438,261.3012 Q174.7031,261.1605 175.0688,261.1605 L176.1,261.1605 L176.1,257.1668 L175.0688,257.1668 Q174.7031,257.1668 174.5438,257.0262 Q174.3844,256.8855 174.3844,256.6512 Q174.3844,256.4262 174.5438,256.2855 Q174.7031,256.1449 175.0688,256.1449 L178.1531,256.1449 Q178.5187,256.1449 178.6781,256.2855 Q178.8375,256.4262 178.8375,256.6512 Q178.8375,256.8855 178.6781,257.0262 Q178.5187,257.1668 178.1531,257.1668 L177.1219,257.1668 Z " fill="#000000"/><text fill="#000000" font-family="sans-serif" font-size="10.8" font-style="italic" lengthAdjust="spacing" textLength="149.4" x="190.05" y="263.6543">RegularExamResultRepository</text><line style="stroke:#181818;stroke-width:0.3;" x1="150.6" x2="359.4" y1="270.5648" y2="270.5648"/><line style="stroke:#181818;stroke-width:0.3;" x1="150.6" x2="359.4" y1="275.3648" y2="275.3648"/><text fill="#000000" font-family="sans-serif" font-size="10.8" lengthAdjust="spacing" textLength="200.4" x="154.8" y="290.6191">+regularExamResultsByCourse(Course c)</text></g><!--class JpaRegularExamResultRepository--><g id="elem_JpaRegularExamResultRepository"><rect codeLine="28" fill="#F1F1F1" height="49.1297" id="JpaRegularExamResultRepository" rx="1.5" ry="1.5" style="stroke:#181818;stroke-width:0.3;" width="210" x="4.2" y="121.8"/><ellipse cx="24.27" cy="133.1824" fill="#ADD1B2" rx="6.6" ry="6.6" style="stroke:#181818;stroke-width:0.6;"/><path d="M25.9294,130.7074 Q26.0231,130.5762 26.1356,130.5105 Q26.2481,130.4449 26.3794,130.4449 Q26.6044,130.4449 26.745,130.6043 Q26.8856,130.7543 26.8856,131.1199 L26.8856,131.9918 Q26.8856,132.3574 26.745,132.5168 Q26.6044,132.6762 26.3794,132.6762 Q26.1731,132.6762 26.0513,132.5543 Q25.9294,132.4418 25.8638,132.1324 Q25.8356,131.9168 25.7231,131.8043 Q25.5263,131.5793 25.1606,131.448 Q24.795,131.3168 24.42,131.3168 Q23.9606,131.3168 23.5763,131.5137 Q23.2013,131.7105 22.9013,132.1605 Q22.6106,132.6105 22.6106,133.2293 L22.6106,133.8855 Q22.6106,134.6262 23.145,135.123 Q23.6794,135.6105 24.6356,135.6105 Q25.1981,135.6105 25.5919,135.4605 Q25.8263,135.3668 26.0794,135.1043 Q26.2388,134.9449 26.3231,134.898 Q26.4169,134.8512 26.5388,134.8512 Q26.7356,134.8512 26.8856,135.0105 Q27.045,135.1605 27.045,135.3668 Q27.045,135.573 26.8388,135.8168 Q26.5388,136.1637 26.0606,136.3605 Q25.4138,136.6324 24.6356,136.6324 Q23.7263,136.6324 23.0044,136.2574 Q22.4138,135.9574 22.0013,135.3199 Q21.5888,134.673 21.5888,133.9043 L21.5888,133.2105 Q21.5888,132.4137 21.9544,131.7293 Q22.3294,131.0355 22.9856,130.6699 Q23.6419,130.2949 24.3825,130.2949 Q24.8231,130.2949 25.2075,130.398 Q25.6013,130.4918 25.9294,130.7074 Z " fill="#000000"/><text fill="#000000" font-family="sans-serif" font-size="10.8" lengthAdjust="spacing" textLength="163.8" x="36.33" y="137.6543">JpaRegularExamResultRepository</text><line style="stroke:#181818;stroke-width:0.3;" x1="4.8" x2="213.6" y1="144.5648" y2="144.5648"/><line style="stroke:#181818;stroke-width:0.3;" x1="4.8" x2="213.6" y1="149.3648" y2="149.3648"/><text fill="#000000" font-family="sans-serif" font-size="10.8" lengthAdjust="spacing" textLength="200.4" x="9" y="164.6191">+regularExamResultsByCourse(Course c)</text></g><!--class AbstractUI--><g id="elem_AbstractUI"><rect codeLine="34" fill="#F1F1F1" height="32.3648" id="AbstractUI" rx="1.5" ry="1.5" style="stroke:#181818;stroke-width:0.3;" width="70.8" x="881.4" y="256.2"/><ellipse cx="890.4" cy="267.5824" fill="#ADD1B2" rx="6.6" ry="6.6" style="stroke:#181818;stroke-width:0.6;"/><path d="M892.0594,265.1074 Q892.1531,264.9762 892.2656,264.9105 Q892.3781,264.8449 892.5094,264.8449 Q892.7344,264.8449 892.875,265.0043 Q893.0156,265.1543 893.0156,265.5199 L893.0156,266.3918 Q893.0156,266.7574 892.875,266.9168 Q892.7344,267.0762 892.5094,267.0762 Q892.3031,267.0762 892.1813,266.9543 Q892.0594,266.8418 891.9938,266.5324 Q891.9656,266.3168 891.8531,266.2043 Q891.6563,265.9793 891.2906,265.848 Q890.925,265.7168 890.55,265.7168 Q890.0906,265.7168 889.7063,265.9137 Q889.3313,266.1105 889.0313,266.5605 Q888.7406,267.0105 888.7406,267.6293 L888.7406,268.2855 Q888.7406,269.0262 889.275,269.523 Q889.8094,270.0105 890.7656,270.0105 Q891.3281,270.0105 891.7219,269.8605 Q891.9563,269.7668 892.2094,269.5043 Q892.3688,269.3449 892.4531,269.298 Q892.5469,269.2512 892.6687,269.2512 Q892.8656,269.2512 893.0156,269.4105 Q893.175,269.5605 893.175,269.7668 Q893.175,269.973 892.9688,270.2168 Q892.6687,270.5637 892.1906,270.7605 Q891.5437,271.0324 890.7656,271.0324 Q889.8562,271.0324 889.1344,270.6574 Q888.5437,270.3574 888.1313,269.7199 Q887.7188,269.073 887.7188,268.3043 L887.7188,267.6105 Q887.7188,266.8137 888.0844,266.1293 Q888.4594,265.4355 889.1156,265.0699 Q889.7719,264.6949 890.5125,264.6949 Q890.9531,264.6949 891.3375,264.798 Q891.7312,264.8918 892.0594,265.1074 Z " fill="#000000"/><text fill="#000000" font-family="sans-serif" font-size="10.8" lengthAdjust="spacing" textLength="49.2" x="900" y="272.0543">AbstractUI</text><line style="stroke:#181818;stroke-width:0.3;" x1="882" x2="951.6" y1="278.9648" y2="278.9648"/><line style="stroke:#181818;stroke-width:0.3;" x1="882" x2="951.6" y1="283.7648" y2="283.7648"/></g><!--class ListExamsGradesInCourseUI--><g id="elem_ListExamsGradesInCourseUI"><rect codeLine="38" fill="#F1F1F1" height="65.8945" id="ListExamsGradesInCourseUI" rx="1.5" ry="1.5" style="stroke:#181818;stroke-width:0.3;" width="159" x="837.3" y="113.4"/><ellipse cx="846.3" cy="124.7824" fill="#ADD1B2" rx="6.6" ry="6.6" style="stroke:#181818;stroke-width:0.6;"/><path d="M847.9594,122.3074 Q848.0531,122.1762 848.1656,122.1105 Q848.2781,122.0449 848.4094,122.0449 Q848.6344,122.0449 848.775,122.2043 Q848.9156,122.3543 848.9156,122.7199 L848.9156,123.5918 Q848.9156,123.9574 848.775,124.1168 Q848.6344,124.2762 848.4094,124.2762 Q848.2031,124.2762 848.0813,124.1543 Q847.9594,124.0418 847.8938,123.7324 Q847.8656,123.5168 847.7531,123.4043 Q847.5563,123.1793 847.1906,123.048 Q846.825,122.9168 846.45,122.9168 Q845.9906,122.9168 845.6062,123.1137 Q845.2312,123.3105 844.9313,123.7605 Q844.6406,124.2105 844.6406,124.8293 L844.6406,125.4855 Q844.6406,126.2262 845.175,126.723 Q845.7094,127.2105 846.6656,127.2105 Q847.2281,127.2105 847.6219,127.0605 Q847.8562,126.9668 848.1094,126.7043 Q848.2688,126.5449 848.3531,126.498 Q848.4469,126.4512 848.5688,126.4512 Q848.7656,126.4512 848.9156,126.6105 Q849.075,126.7605 849.075,126.9668 Q849.075,127.173 848.8688,127.4168 Q848.5688,127.7637 848.0906,127.9605 Q847.4438,128.2324 846.6656,128.2324 Q845.7563,128.2324 845.0344,127.8574 Q844.4438,127.5574 844.0313,126.9199 Q843.6188,126.273 843.6188,125.5043 L843.6188,124.8105 Q843.6188,124.0137 843.9844,123.3293 Q844.3594,122.6355 845.0156,122.2699 Q845.6719,121.8949 846.4125,121.8949 Q846.8531,121.8949 847.2375,121.998 Q847.6313,122.0918 847.9594,122.3074 Z " fill="#000000"/><text fill="#000000" font-family="sans-serif" font-size="10.8" lengthAdjust="spacing" textLength="137.4" x="855.9" y="129.2543">ListExamsGradesInCourseUI</text><line style="stroke:#181818;stroke-width:0.3;" x1="837.9" x2="995.7" y1="136.1648" y2="136.1648"/><line style="stroke:#181818;stroke-width:0.3;" x1="837.9" x2="995.7" y1="140.9648" y2="140.9648"/><text fill="#000000" font-family="sans-serif" font-size="10.8" lengthAdjust="spacing" textLength="52.2" x="842.1" y="156.2191">#doShow()</text><text fill="#000000" font-family="sans-serif" font-size="10.8" lengthAdjust="spacing" textLength="54.6" x="842.1" y="172.984">+headline()</text></g><!--class ListExamsGradesInCourseController--><g id="elem_ListExamsGradesInCourseController"><rect codeLine="44" fill="#F1F1F1" height="65.8945" id="ListExamsGradesInCourseController" rx="1.5" ry="1.5" style="stroke:#181818;stroke-width:0.3;" width="333.6" x="495" y="239.4"/><ellipse cx="571.05" cy="250.7824" fill="#ADD1B2" rx="6.6" ry="6.6" style="stroke:#181818;stroke-width:0.6;"/><path d="M572.7094,248.3074 Q572.8031,248.1762 572.9156,248.1105 Q573.0281,248.0449 573.1594,248.0449 Q573.3844,248.0449 573.525,248.2043 Q573.6656,248.3543 573.6656,248.7199 L573.6656,249.5918 Q573.6656,249.9574 573.525,250.1168 Q573.3844,250.2762 573.1594,250.2762 Q572.9531,250.2762 572.8313,250.1543 Q572.7094,250.0418 572.6438,249.7324 Q572.6156,249.5168 572.5031,249.4043 Q572.3063,249.1793 571.9406,249.048 Q571.575,248.9168 571.2,248.9168 Q570.7406,248.9168 570.3562,249.1137 Q569.9812,249.3105 569.6813,249.7605 Q569.3906,250.2105 569.3906,250.8293 L569.3906,251.4855 Q569.3906,252.2262 569.925,252.723 Q570.4594,253.2105 571.4156,253.2105 Q571.9781,253.2105 572.3719,253.0605 Q572.6062,252.9668 572.8594,252.7043 Q573.0188,252.5449 573.1031,252.498 Q573.1969,252.4512 573.3188,252.4512 Q573.5156,252.4512 573.6656,252.6105 Q573.825,252.7605 573.825,252.9668 Q573.825,253.173 573.6188,253.4168 Q573.3188,253.7637 572.8406,253.9605 Q572.1938,254.2324 571.4156,254.2324 Q570.5063,254.2324 569.7844,253.8574 Q569.1938,253.5574 568.7813,252.9199 Q568.3688,252.273 568.3688,251.5043 L568.3688,250.8105 Q568.3688,250.0137 568.7344,249.3293 Q569.1094,248.6355 569.7656,248.2699 Q570.4219,247.8949 571.1625,247.8949 Q571.6031,247.8949 571.9875,247.998 Q572.3813,248.0918 572.7094,248.3074 Z " fill="#000000"/><text fill="#000000" font-family="sans-serif" font-size="10.8" lengthAdjust="spacing" textLength="174" x="584.55" y="255.2543">ListExamsGradesInCourseController</text><line style="stroke:#181818;stroke-width:0.3;" x1="495.6" x2="828" y1="262.1648" y2="262.1648"/><line style="stroke:#181818;stroke-width:0.3;" x1="495.6" x2="828" y1="266.9648" y2="266.9648"/><text fill="#000000" font-family="sans-serif" font-size="10.8" lengthAdjust="spacing" textLength="67.2" x="499.8" y="282.2191">+listCourses()</text><text fill="#000000" font-family="sans-serif" font-size="10.8" lengthAdjust="spacing" textLength="324" x="499.8" y="298.984">+listExamsGradesAndStudents(CourseAndDescriptionDTO chosen)</text></g><!--class ListExamResultsService--><g id="elem_ListExamResultsService"><rect codeLine="50" fill="#F1F1F1" height="49.1297" id="ListExamResultsService" rx="1.5" ry="1.5" style="stroke:#181818;stroke-width:0.3;" width="318" x="235.2" y="121.8"/><ellipse cx="332.85" cy="133.1824" fill="#ADD1B2" rx="6.6" ry="6.6" style="stroke:#181818;stroke-width:0.6;"/><path d="M334.5094,130.7074 Q334.6031,130.5762 334.7156,130.5105 Q334.8281,130.4449 334.9594,130.4449 Q335.1844,130.4449 335.325,130.6043 Q335.4656,130.7543 335.4656,131.1199 L335.4656,131.9918 Q335.4656,132.3574 335.325,132.5168 Q335.1844,132.6762 334.9594,132.6762 Q334.7531,132.6762 334.6312,132.5543 Q334.5094,132.4418 334.4437,132.1324 Q334.4156,131.9168 334.3031,131.8043 Q334.1063,131.5793 333.7406,131.448 Q333.375,131.3168 333,131.3168 Q332.5406,131.3168 332.1563,131.5137 Q331.7813,131.7105 331.4813,132.1605 Q331.1906,132.6105 331.1906,133.2293 L331.1906,133.8855 Q331.1906,134.6262 331.725,135.123 Q332.2594,135.6105 333.2156,135.6105 Q333.7781,135.6105 334.1719,135.4605 Q334.4063,135.3668 334.6594,135.1043 Q334.8187,134.9449 334.9031,134.898 Q334.9969,134.8512 335.1188,134.8512 Q335.3156,134.8512 335.4656,135.0105 Q335.625,135.1605 335.625,135.3668 Q335.625,135.573 335.4188,135.8168 Q335.1188,136.1637 334.6406,136.3605 Q333.9938,136.6324 333.2156,136.6324 Q332.3063,136.6324 331.5844,136.2574 Q330.9938,135.9574 330.5813,135.3199 Q330.1688,134.673 330.1688,133.9043 L330.1688,133.2105 Q330.1688,132.4137 330.5344,131.7293 Q330.9094,131.0355 331.5656,130.6699 Q332.2219,130.2949 332.9625,130.2949 Q333.4031,130.2949 333.7875,130.398 Q334.1813,130.4918 334.5094,130.7074 Z " fill="#000000"/><text fill="#000000" font-family="sans-serif" font-size="10.8" lengthAdjust="spacing" textLength="115.2" x="346.35" y="137.6543">ListExamResultsService</text><line style="stroke:#181818;stroke-width:0.3;" x1="235.8" x2="552.6" y1="144.5648" y2="144.5648"/><line style="stroke:#181818;stroke-width:0.3;" x1="235.8" x2="552.6" y1="149.3648" y2="149.3648"/><text fill="#000000" font-family="sans-serif" font-size="10.8" lengthAdjust="spacing" textLength="308.4" x="240" y="164.6191">+regularExamResultsBasedOnGradingProperties(final Course c)</text></g><!--class MyUserService--><g id="elem_MyUserService"><rect codeLine="55" fill="#F1F1F1" height="49.1297" id="MyUserService" rx="1.5" ry="1.5" style="stroke:#181818;stroke-width:0.3;" width="97.2" x="276" y="365.4"/><ellipse cx="286.08" cy="376.7824" fill="#ADD1B2" rx="6.6" ry="6.6" style="stroke:#181818;stroke-width:0.6;"/><path d="M287.7394,374.3074 Q287.8331,374.1762 287.9456,374.1105 Q288.0581,374.0449 288.1894,374.0449 Q288.4144,374.0449 288.555,374.2043 Q288.6956,374.3543 288.6956,374.7199 L288.6956,375.5918 Q288.6956,375.9574 288.555,376.1168 Q288.4144,376.2762 288.1894,376.2762 Q287.9831,376.2762 287.8613,376.1543 Q287.7394,376.0418 287.6738,375.7324 Q287.6456,375.5168 287.5331,375.4043 Q287.3363,375.1793 286.9706,375.048 Q286.605,374.9168 286.23,374.9168 Q285.7706,374.9168 285.3863,375.1137 Q285.0113,375.3105 284.7113,375.7605 Q284.4206,376.2105 284.4206,376.8293 L284.4206,377.4855 Q284.4206,378.2262 284.955,378.723 Q285.4894,379.2105 286.4456,379.2105 Q287.0081,379.2105 287.4019,379.0605 Q287.6363,378.9668 287.8894,378.7043 Q288.0488,378.5449 288.1331,378.498 Q288.2269,378.4512 288.3488,378.4512 Q288.5456,378.4512 288.6956,378.6105 Q288.855,378.7605 288.855,378.9668 Q288.855,379.173 288.6488,379.4168 Q288.3488,379.7637 287.8706,379.9605 Q287.2238,380.2324 286.4456,380.2324 Q285.5363,380.2324 284.8144,379.8574 Q284.2238,379.5574 283.8113,378.9199 Q283.3988,378.273 283.3988,377.5043 L283.3988,376.8105 Q283.3988,376.0137 283.7644,375.3293 Q284.1394,374.6355 284.7956,374.2699 Q285.4519,373.8949 286.1925,373.8949 Q286.6331,373.8949 287.0175,373.998 Q287.4113,374.0918 287.7394,374.3074 Z " fill="#000000"/><text fill="#000000" font-family="sans-serif" font-size="10.8" lengthAdjust="spacing" textLength="73.2" x="295.92" y="381.2543">MyUserService</text><line style="stroke:#181818;stroke-width:0.3;" x1="276.6" x2="372.6" y1="388.1648" y2="388.1648"/><line style="stroke:#181818;stroke-width:0.3;" x1="276.6" x2="372.6" y1="392.9648" y2="392.9648"/><text fill="#000000" font-family="sans-serif" font-size="10.8" lengthAdjust="spacing" textLength="87.6" x="280.8" y="408.2191">+currentTeacher()</text></g><!--class BaseRoles--><g id="elem_BaseRoles"><rect codeLine="60" fill="#F1F1F1" height="49.1297" id="BaseRoles" rx="1.5" ry="1.5" style="stroke:#181818;stroke-width:0.3;" width="73.8" x="394.5" y="365.4"/><ellipse cx="403.5" cy="376.7824" fill="#ADD1B2" rx="6.6" ry="6.6" style="stroke:#181818;stroke-width:0.6;"/><path d="M405.1594,374.3074 Q405.2531,374.1762 405.3656,374.1105 Q405.4781,374.0449 405.6094,374.0449 Q405.8344,374.0449 405.975,374.2043 Q406.1156,374.3543 406.1156,374.7199 L406.1156,375.5918 Q406.1156,375.9574 405.975,376.1168 Q405.8344,376.2762 405.6094,376.2762 Q405.4031,376.2762 405.2813,376.1543 Q405.1594,376.0418 405.0938,375.7324 Q405.0656,375.5168 404.9531,375.4043 Q404.7562,375.1793 404.3906,375.048 Q404.025,374.9168 403.65,374.9168 Q403.1906,374.9168 402.8063,375.1137 Q402.4313,375.3105 402.1312,375.7605 Q401.8406,376.2105 401.8406,376.8293 L401.8406,377.4855 Q401.8406,378.2262 402.375,378.723 Q402.9094,379.2105 403.8656,379.2105 Q404.4281,379.2105 404.8219,379.0605 Q405.0563,378.9668 405.3094,378.7043 Q405.4688,378.5449 405.5531,378.498 Q405.6469,378.4512 405.7688,378.4512 Q405.9656,378.4512 406.1156,378.6105 Q406.275,378.7605 406.275,378.9668 Q406.275,379.173 406.0687,379.4168 Q405.7688,379.7637 405.2906,379.9605 Q404.6438,380.2324 403.8656,380.2324 Q402.9563,380.2324 402.2344,379.8574 Q401.6438,379.5574 401.2313,378.9199 Q400.8187,378.273 400.8187,377.5043 L400.8187,376.8105 Q400.8187,376.0137 401.1844,375.3293 Q401.5594,374.6355 402.2156,374.2699 Q402.8719,373.8949 403.6125,373.8949 Q404.0531,373.8949 404.4375,373.998 Q404.8313,374.0918 405.1594,374.3074 Z " fill="#000000"/><text fill="#000000" font-family="sans-serif" font-size="10.8" lengthAdjust="spacing" textLength="52.2" x="413.1" y="381.2543">BaseRoles</text><line style="stroke:#181818;stroke-width:0.3;" x1="395.1" x2="467.7" y1="388.1648" y2="388.1648"/><text fill="#000000" font-family="sans-serif" font-size="10.8" lengthAdjust="spacing" text-decoration="underline" textLength="58.2" x="399.3" y="403.4191">+TEACHER</text><line style="stroke:#181818;stroke-width:0.3;" x1="395.1" x2="467.7" y1="409.7297" y2="409.7297"/></g><!--class Course--><g id="elem_Course"><rect codeLine="65" fill="#F1F1F1" height="49.1297" id="Course" rx="1.5" ry="1.5" style="stroke:#181818;stroke-width:0.3;" width="57.6" x="720" y="491.4"/><ellipse cx="729.54" cy="502.7824" fill="#ADD1B2" rx="6.6" ry="6.6" style="stroke:#181818;stroke-width:0.6;"/><path d="M731.1994,500.3074 Q731.2931,500.1762 731.4056,500.1105 Q731.5181,500.0449 731.6494,500.0449 Q731.8744,500.0449 732.015,500.2043 Q732.1556,500.3543 732.1556,500.7199 L732.1556,501.5918 Q732.1556,501.9574 732.015,502.1168 Q731.8744,502.2762 731.6494,502.2762 Q731.4431,502.2762 731.3213,502.1543 Q731.1994,502.0418 731.1338,501.7324 Q731.1056,501.5168 730.9931,501.4043 Q730.7963,501.1793 730.4306,501.048 Q730.065,500.9168 729.69,500.9168 Q729.2306,500.9168 728.8463,501.1137 Q728.4713,501.3105 728.1713,501.7605 Q727.8806,502.2105 727.8806,502.8293 L727.8806,503.4855 Q727.8806,504.2262 728.415,504.723 Q728.9494,505.2105 729.9056,505.2105 Q730.4681,505.2105 730.8619,505.0605 Q731.0963,504.9668 731.3494,504.7043 Q731.5088,504.5449 731.5931,504.498 Q731.6869,504.4512 731.8088,504.4512 Q732.0056,504.4512 732.1556,504.6105 Q732.315,504.7605 732.315,504.9668 Q732.315,505.173 732.1088,505.4168 Q731.8088,505.7637 731.3306,505.9605 Q730.6838,506.2324 729.9056,506.2324 Q728.9963,506.2324 728.2744,505.8574 Q727.6838,505.5574 727.2713,504.9199 Q726.8588,504.273 726.8588,503.5043 L726.8588,502.8105 Q726.8588,502.0137 727.2244,501.3293 Q727.5994,500.6355 728.2556,500.2699 Q728.9119,499.8949 729.6525,499.8949 Q730.0931,499.8949 730.4775,499.998 Q730.8713,500.0918 731.1994,500.3074 Z " fill="#000000"/><text fill="#000000" font-family="sans-serif" font-size="10.8" lengthAdjust="spacing" textLength="34.8" x="739.26" y="507.2543">Course</text><line style="stroke:#181818;stroke-width:0.3;" x1="720.6" x2="777" y1="514.1648" y2="514.1648"/><line style="stroke:#181818;stroke-width:0.3;" x1="720.6" x2="777" y1="518.9648" y2="518.9648"/><text fill="#000000" font-family="sans-serif" font-size="10.8" lengthAdjust="spacing" textLength="48" x="724.8" y="534.2191">+identity()</text></g><!--class CourseAndDescriptionDTO--><g id="elem_CourseAndDescriptionDTO"><rect codeLine="70" fill="#F1F1F1" height="32.3648" id="CourseAndDescriptionDTO" rx="1.5" ry="1.5" style="stroke:#181818;stroke-width:0.3;" width="152.4" x="489.6" y="373.8"/><ellipse cx="498.6" cy="385.1824" fill="#ADD1B2" rx="6.6" ry="6.6" style="stroke:#181818;stroke-width:0.6;"/><path d="M500.2594,382.7074 Q500.3531,382.5762 500.4656,382.5105 Q500.5781,382.4449 500.7094,382.4449 Q500.9344,382.4449 501.075,382.6043 Q501.2156,382.7543 501.2156,383.1199 L501.2156,383.9918 Q501.2156,384.3574 501.075,384.5168 Q500.9344,384.6762 500.7094,384.6762 Q500.5031,384.6762 500.3812,384.5543 Q500.2594,384.4418 500.1937,384.1324 Q500.1656,383.9168 500.0531,383.8043 Q499.8563,383.5793 499.4906,383.448 Q499.125,383.3168 498.75,383.3168 Q498.2906,383.3168 497.9063,383.5137 Q497.5313,383.7105 497.2313,384.1605 Q496.9406,384.6105 496.9406,385.2293 L496.9406,385.8855 Q496.9406,386.6262 497.475,387.123 Q498.0094,387.6105 498.9656,387.6105 Q499.5281,387.6105 499.9219,387.4605 Q500.1563,387.3668 500.4094,387.1043 Q500.5687,386.9449 500.6531,386.898 Q500.7469,386.8512 500.8688,386.8512 Q501.0656,386.8512 501.2156,387.0105 Q501.375,387.1605 501.375,387.3668 Q501.375,387.573 501.1688,387.8168 Q500.8688,388.1637 500.3906,388.3605 Q499.7438,388.6324 498.9656,388.6324 Q498.0563,388.6324 497.3344,388.2574 Q496.7438,387.9574 496.3312,387.3199 Q495.9188,386.673 495.9188,385.9043 L495.9188,385.2105 Q495.9188,384.4137 496.2844,383.7293 Q496.6594,383.0355 497.3156,382.6699 Q497.9719,382.2949 498.7125,382.2949 Q499.1531,382.2949 499.5375,382.398 Q499.9313,382.4918 500.2594,382.7074 Z " fill="#000000"/><text fill="#000000" font-family="sans-serif" font-size="10.8" lengthAdjust="spacing" textLength="130.8" x="508.2" y="389.6543">CourseAndDescriptionDTO</text><line style="stroke:#181818;stroke-width:0.3;" x1="490.2" x2="641.4" y1="396.5648" y2="396.5648"/><line style="stroke:#181818;stroke-width:0.3;" x1="490.2" x2="641.4" y1="401.3648" y2="401.3648"/></g><!--class CourseAndDescriptionDTOMapper--><g id="elem_CourseAndDescriptionDTOMapper"><rect codeLine="75" fill="#F1F1F1" height="49.1297" id="CourseAndDescriptionDTOMapper" rx="1.5" ry="1.5" style="stroke:#181818;stroke-width:0.3;" width="189" x="663.3" y="365.4"/><ellipse cx="672.3" cy="376.7824" fill="#ADD1B2" rx="6.6" ry="6.6" style="stroke:#181818;stroke-width:0.6;"/><path d="M673.9594,374.3074 Q674.0531,374.1762 674.1656,374.1105 Q674.2781,374.0449 674.4094,374.0449 Q674.6344,374.0449 674.775,374.2043 Q674.9156,374.3543 674.9156,374.7199 L674.9156,375.5918 Q674.9156,375.9574 674.775,376.1168 Q674.6344,376.2762 674.4094,376.2762 Q674.2031,376.2762 674.0813,376.1543 Q673.9594,376.0418 673.8938,375.7324 Q673.8656,375.5168 673.7531,375.4043 Q673.5563,375.1793 673.1906,375.048 Q672.825,374.9168 672.45,374.9168 Q671.9906,374.9168 671.6062,375.1137 Q671.2312,375.3105 670.9313,375.7605 Q670.6406,376.2105 670.6406,376.8293 L670.6406,377.4855 Q670.6406,378.2262 671.175,378.723 Q671.7094,379.2105 672.6656,379.2105 Q673.2281,379.2105 673.6219,379.0605 Q673.8562,378.9668 674.1094,378.7043 Q674.2688,378.5449 674.3531,378.498 Q674.4469,378.4512 674.5688,378.4512 Q674.7656,378.4512 674.9156,378.6105 Q675.075,378.7605 675.075,378.9668 Q675.075,379.173 674.8688,379.4168 Q674.5688,379.7637 674.0906,379.9605 Q673.4438,380.2324 672.6656,380.2324 Q671.7563,380.2324 671.0344,379.8574 Q670.4438,379.5574 670.0313,378.9199 Q669.6188,378.273 669.6188,377.5043 L669.6188,376.8105 Q669.6188,376.0137 669.9844,375.3293 Q670.3594,374.6355 671.0156,374.2699 Q671.6719,373.8949 672.4125,373.8949 Q672.8531,373.8949 673.2375,373.998 Q673.6313,374.0918 673.9594,374.3074 Z " fill="#000000"/><text fill="#000000" font-family="sans-serif" font-size="10.8" lengthAdjust="spacing" textLength="167.4" x="681.9" y="381.2543">CourseAndDescriptionDTOMapper</text><line style="stroke:#181818;stroke-width:0.3;" x1="663.9" x2="851.7" y1="388.1648" y2="388.1648"/><line style="stroke:#181818;stroke-width:0.3;" x1="663.9" x2="851.7" y1="392.9648" y2="392.9648"/><text fill="#000000" font-family="sans-serif" font-size="10.8" lengthAdjust="spacing" textLength="116.4" x="668.1" y="408.2191">+toDTO(Course course)</text></g><!--class ExamGradeAndStudentDTO--><g id="elem_ExamGradeAndStudentDTO"><rect codeLine="80" fill="#F1F1F1" height="32.3648" id="ExamGradeAndStudentDTO" rx="1.5" ry="1.5" style="stroke:#181818;stroke-width:0.3;" width="157.2" x="873.6" y="373.8"/><ellipse cx="882.6" cy="385.1824" fill="#ADD1B2" rx="6.6" ry="6.6" style="stroke:#181818;stroke-width:0.6;"/><path d="M884.2594,382.7074 Q884.3531,382.5762 884.4656,382.5105 Q884.5781,382.4449 884.7094,382.4449 Q884.9344,382.4449 885.075,382.6043 Q885.2156,382.7543 885.2156,383.1199 L885.2156,383.9918 Q885.2156,384.3574 885.075,384.5168 Q884.9344,384.6762 884.7094,384.6762 Q884.5031,384.6762 884.3813,384.5543 Q884.2594,384.4418 884.1938,384.1324 Q884.1656,383.9168 884.0531,383.8043 Q883.8562,383.5793 883.4906,383.448 Q883.125,383.3168 882.75,383.3168 Q882.2906,383.3168 881.9063,383.5137 Q881.5313,383.7105 881.2312,384.1605 Q880.9406,384.6105 880.9406,385.2293 L880.9406,385.8855 Q880.9406,386.6262 881.475,387.123 Q882.0094,387.6105 882.9656,387.6105 Q883.5281,387.6105 883.9219,387.4605 Q884.1563,387.3668 884.4094,387.1043 Q884.5688,386.9449 884.6531,386.898 Q884.7469,386.8512 884.8688,386.8512 Q885.0656,386.8512 885.2156,387.0105 Q885.375,387.1605 885.375,387.3668 Q885.375,387.573 885.1687,387.8168 Q884.8688,388.1637 884.3906,388.3605 Q883.7438,388.6324 882.9656,388.6324 Q882.0563,388.6324 881.3344,388.2574 Q880.7438,387.9574 880.3313,387.3199 Q879.9187,386.673 879.9187,385.9043 L879.9187,385.2105 Q879.9187,384.4137 880.2844,383.7293 Q880.6594,383.0355 881.3156,382.6699 Q881.9719,382.2949 882.7125,382.2949 Q883.1531,382.2949 883.5375,382.398 Q883.9313,382.4918 884.2594,382.7074 Z " fill="#000000"/><text fill="#000000" font-family="sans-serif" font-size="10.8" lengthAdjust="spacing" textLength="135.6" x="892.2" y="389.6543">ExamGradeAndStudentDTO</text><line style="stroke:#181818;stroke-width:0.3;" x1="874.2" x2="1030.2" y1="396.5648" y2="396.5648"/><line style="stroke:#181818;stroke-width:0.3;" x1="874.2" x2="1030.2" y1="401.3648" y2="401.3648"/></g><!--class ExamGradeAndStudentDTOMapper--><g id="elem_ExamGradeAndStudentDTOMapper"><rect codeLine="84" fill="#F1F1F1" height="49.1297" id="ExamGradeAndStudentDTOMapper" rx="1.5" ry="1.5" style="stroke:#181818;stroke-width:0.3;" width="193.8" x="1052.1" y="365.4"/><ellipse cx="1061.1" cy="376.7824" fill="#ADD1B2" rx="6.6" ry="6.6" style="stroke:#181818;stroke-width:0.6;"/><path d="M1062.7594,374.3074 Q1062.8531,374.1762 1062.9656,374.1105 Q1063.0781,374.0449 1063.2094,374.0449 Q1063.4344,374.0449 1063.575,374.2043 Q1063.7156,374.3543 1063.7156,374.7199 L1063.7156,375.5918 Q1063.7156,375.9574 1063.575,376.1168 Q1063.4344,376.2762 1063.2094,376.2762 Q1063.0031,376.2762 1062.8813,376.1543 Q1062.7594,376.0418 1062.6938,375.7324 Q1062.6656,375.5168 1062.5531,375.4043 Q1062.3563,375.1793 1061.9906,375.048 Q1061.625,374.9168 1061.25,374.9168 Q1060.7906,374.9168 1060.4063,375.1137 Q1060.0313,375.3105 1059.7313,375.7605 Q1059.4406,376.2105 1059.4406,376.8293 L1059.4406,377.4855 Q1059.4406,378.2262 1059.975,378.723 Q1060.5094,379.2105 1061.4656,379.2105 Q1062.0281,379.2105 1062.4219,379.0605 Q1062.6563,378.9668 1062.9094,378.7043 Q1063.0688,378.5449 1063.1531,378.498 Q1063.2469,378.4512 1063.3687,378.4512 Q1063.5656,378.4512 1063.7156,378.6105 Q1063.875,378.7605 1063.875,378.9668 Q1063.875,379.173 1063.6688,379.4168 Q1063.3687,379.7637 1062.8906,379.9605 Q1062.2437,380.2324 1061.4656,380.2324 Q1060.5562,380.2324 1059.8344,379.8574 Q1059.2437,379.5574 1058.8313,378.9199 Q1058.4188,378.273 1058.4188,377.5043 L1058.4188,376.8105 Q1058.4188,376.0137 1058.7844,375.3293 Q1059.1594,374.6355 1059.8156,374.2699 Q1060.4719,373.8949 1061.2125,373.8949 Q1061.6531,373.8949 1062.0375,373.998 Q1062.4312,374.0918 1062.7594,374.3074 Z " fill="#000000"/><text fill="#000000" font-family="sans-serif" font-size="10.8" lengthAdjust="spacing" textLength="172.2" x="1070.7" y="381.2543">ExamGradeAndStudentDTOMapper</text><line style="stroke:#181818;stroke-width:0.3;" x1="1052.7" x2="1245.3" y1="388.1648" y2="388.1648"/><line style="stroke:#181818;stroke-width:0.3;" x1="1052.7" x2="1245.3" y1="392.9648" y2="392.9648"/><text fill="#000000" font-family="sans-serif" font-size="10.8" lengthAdjust="spacing" textLength="170.4" x="1056.9" y="408.2191">+toDTO(RegularExamResult result)</text></g><!--class RegularExamResult--><g id="elem_RegularExamResult"><rect codeLine="89" fill="#F1F1F1" height="82.6594" id="RegularExamResult" rx="1.5" ry="1.5" style="stroke:#181818;stroke-width:0.3;" width="116.4" x="1099.2" y="474.6"/><ellipse cx="1108.2" cy="485.9824" fill="#ADD1B2" rx="6.6" ry="6.6" style="stroke:#181818;stroke-width:0.6;"/><path d="M1109.8594,483.5074 Q1109.9531,483.3762 1110.0656,483.3105 Q1110.1781,483.2449 1110.3094,483.2449 Q1110.5344,483.2449 1110.675,483.4043 Q1110.8156,483.5543 1110.8156,483.9199 L1110.8156,484.7918 Q1110.8156,485.1574 1110.675,485.3168 Q1110.5344,485.4762 1110.3094,485.4762 Q1110.1031,485.4762 1109.9813,485.3543 Q1109.8594,485.2418 1109.7938,484.9324 Q1109.7656,484.7168 1109.6531,484.6043 Q1109.4563,484.3793 1109.0906,484.248 Q1108.725,484.1168 1108.35,484.1168 Q1107.8906,484.1168 1107.5063,484.3137 Q1107.1313,484.5105 1106.8313,484.9605 Q1106.5406,485.4105 1106.5406,486.0293 L1106.5406,486.6855 Q1106.5406,487.4262 1107.075,487.923 Q1107.6094,488.4105 1108.5656,488.4105 Q1109.1281,488.4105 1109.5219,488.2605 Q1109.7563,488.1668 1110.0094,487.9043 Q1110.1688,487.7449 1110.2531,487.698 Q1110.3469,487.6512 1110.4688,487.6512 Q1110.6656,487.6512 1110.8156,487.8105 Q1110.975,487.9605 1110.975,488.1668 Q1110.975,488.373 1110.7688,488.6168 Q1110.4688,488.9637 1109.9906,489.1605 Q1109.3438,489.4324 1108.5656,489.4324 Q1107.6563,489.4324 1106.9344,489.0574 Q1106.3438,488.7574 1105.9312,488.1199 Q1105.5188,487.473 1105.5188,486.7043 L1105.5188,486.0105 Q1105.5188,485.2137 1105.8844,484.5293 Q1106.2594,483.8355 1106.9156,483.4699 Q1107.5719,483.0949 1108.3125,483.0949 Q1108.7531,483.0949 1109.1375,483.198 Q1109.5313,483.2918 1109.8594,483.5074 Z " fill="#000000"/><text fill="#000000" font-family="sans-serif" font-size="10.8" lengthAdjust="spacing" textLength="94.8" x="1117.8" y="490.4543">RegularExamResult</text><line style="stroke:#181818;stroke-width:0.3;" x1="1099.8" x2="1215" y1="497.3648" y2="497.3648"/><line style="stroke:#181818;stroke-width:0.3;" x1="1099.8" x2="1215" y1="502.1648" y2="502.1648"/><text fill="#000000" font-family="sans-serif" font-size="10.8" lengthAdjust="spacing" textLength="41.4" x="1104" y="517.4191">+grade()</text><text fill="#000000" font-family="sans-serif" font-size="10.8" lengthAdjust="spacing" textLength="34.8" x="1104" y="534.184">+date()</text><text fill="#000000" font-family="sans-serif" font-size="10.8" lengthAdjust="spacing" textLength="49.2" x="1104" y="550.9488">+student()</text></g><!--class JpaStaffRepository--><g id="elem_JpaStaffRepository"><rect codeLine="96" fill="#F1F1F1" height="49.1297" id="JpaStaffRepository" rx="1.5" ry="1.5" style="stroke:#181818;stroke-width:0.3;" width="112.8" x="569.4" y="4.2"/><ellipse cx="578.4" cy="15.5824" fill="#ADD1B2" rx="6.6" ry="6.6" style="stroke:#181818;stroke-width:0.6;"/><path d="M580.0594,13.1074 Q580.1531,12.9762 580.2656,12.9105 Q580.3781,12.8449 580.5094,12.8449 Q580.7344,12.8449 580.875,13.0043 Q581.0156,13.1543 581.0156,13.5199 L581.0156,14.3918 Q581.0156,14.7574 580.875,14.9168 Q580.7344,15.0762 580.5094,15.0762 Q580.3031,15.0762 580.1813,14.9543 Q580.0594,14.8418 579.9938,14.5324 Q579.9656,14.3168 579.8531,14.2043 Q579.6563,13.9793 579.2906,13.848 Q578.925,13.7168 578.55,13.7168 Q578.0906,13.7168 577.7063,13.9137 Q577.3313,14.1105 577.0313,14.5605 Q576.7406,15.0105 576.7406,15.6293 L576.7406,16.2855 Q576.7406,17.0262 577.275,17.523 Q577.8094,18.0105 578.7656,18.0105 Q579.3281,18.0105 579.7219,17.8605 Q579.9563,17.7668 580.2094,17.5043 Q580.3688,17.3449 580.4531,17.298 Q580.5469,17.2512 580.6687,17.2512 Q580.8656,17.2512 581.0156,17.4105 Q581.175,17.5605 581.175,17.7668 Q581.175,17.973 580.9688,18.2168 Q580.6687,18.5637 580.1906,18.7605 Q579.5437,19.0324 578.7656,19.0324 Q577.8562,19.0324 577.1344,18.6574 Q576.5437,18.3574 576.1313,17.7199 Q575.7188,17.073 575.7188,16.3043 L575.7188,15.6105 Q575.7188,14.8137 576.0844,14.1293 Q576.4594,13.4355 577.1156,13.0699 Q577.7719,12.6949 578.5125,12.6949 Q578.9531,12.6949 579.3375,12.798 Q579.7312,12.8918 580.0594,13.1074 Z " fill="#000000"/><text fill="#000000" font-family="sans-serif" font-size="10.8" lengthAdjust="spacing" textLength="91.2" x="588" y="20.0543">JpaStaffRepository</text><line style="stroke:#181818;stroke-width:0.3;" x1="570" x2="681.6" y1="26.9648" y2="26.9648"/><line style="stroke:#181818;stroke-width:0.3;" x1="570" x2="681.6" y1="31.7648" y2="31.7648"/><text fill="#000000" font-family="sans-serif" font-size="10.8" lengthAdjust="spacing" textLength="102.6" x="574.2" y="47.0191">+taughtBy(Teacher t)</text></g><!--class JpaCourseRepository--><g id="elem_JpaCourseRepository"><rect codeLine="101" fill="#F1F1F1" height="32.3648" id="JpaCourseRepository" rx="1.5" ry="1.5" style="stroke:#181818;stroke-width:0.3;" width="125.4" x="703.5" y="12.6"/><ellipse cx="712.5" cy="23.9824" fill="#ADD1B2" rx="6.6" ry="6.6" style="stroke:#181818;stroke-width:0.6;"/><path d="M714.1594,21.5074 Q714.2531,21.3762 714.3656,21.3105 Q714.4781,21.2449 714.6094,21.2449 Q714.8344,21.2449 714.975,21.4043 Q715.1156,21.5543 715.1156,21.9199 L715.1156,22.7918 Q715.1156,23.1574 714.975,23.3168 Q714.8344,23.4762 714.6094,23.4762 Q714.4031,23.4762 714.2813,23.3543 Q714.1594,23.2418 714.0938,22.9324 Q714.0656,22.7168 713.9531,22.6043 Q713.7563,22.3793 713.3906,22.248 Q713.025,22.1168 712.65,22.1168 Q712.1906,22.1168 711.8063,22.3137 Q711.4313,22.5105 711.1313,22.9605 Q710.8406,23.4105 710.8406,24.0293 L710.8406,24.6855 Q710.8406,25.4262 711.375,25.923 Q711.9094,26.4105 712.8656,26.4105 Q713.4281,26.4105 713.8219,26.2605 Q714.0563,26.1668 714.3094,25.9043 Q714.4688,25.7449 714.5531,25.698 Q714.6469,25.6512 714.7688,25.6512 Q714.9656,25.6512 715.1156,25.8105 Q715.275,25.9605 715.275,26.1668 Q715.275,26.373 715.0688,26.6168 Q714.7688,26.9637 714.2906,27.1605 Q713.6438,27.4324 712.8656,27.4324 Q711.9563,27.4324 711.2344,27.0574 Q710.6438,26.7574 710.2312,26.1199 Q709.8188,25.473 709.8188,24.7043 L709.8188,24.0105 Q709.8188,23.2137 710.1844,22.5293 Q710.5594,21.8355 711.2156,21.4699 Q711.8719,21.0949 712.6125,21.0949 Q713.0531,21.0949 713.4375,21.198 Q713.8313,21.2918 714.1594,21.5074 Z " fill="#000000"/><text fill="#000000" font-family="sans-serif" font-size="10.8" lengthAdjust="spacing" textLength="103.8" x="722.1" y="28.4543">JpaCourseRepository</text><line style="stroke:#181818;stroke-width:0.3;" x1="704.1" x2="828.3" y1="35.3648" y2="35.3648"/><line style="stroke:#181818;stroke-width:0.3;" x1="704.1" x2="828.3" y1="40.1648" y2="40.1648"/></g><!--class ExamGradeProperties--><g id="elem_ExamGradeProperties"><rect codeLine="105" fill="#F1F1F1" height="82.6594" id="ExamGradeProperties" rx="1.5" ry="1.5" style="stroke:#181818;stroke-width:0.3;" width="127.2" x="1093.8" y="617.4"/><ellipse cx="1102.8" cy="628.7824" fill="#EB937F" rx="6.6" ry="6.6" style="stroke:#181818;stroke-width:0.6;"/><path d="M1102.1156,629.2605 L1102.1156,630.7605 L1104.7125,630.7605 L1104.7125,630.2074 Q1104.7125,629.8418 1104.8531,629.6824 Q1105.0031,629.523 1105.2281,629.523 Q1105.4531,629.523 1105.5938,629.6824 Q1105.7344,629.8418 1105.7344,630.2074 L1105.7344,631.7824 L1100.9344,631.7824 Q1100.5594,631.7824 1100.4,631.6418 Q1100.25,631.5012 1100.25,631.2668 Q1100.25,631.0418 1100.4094,630.9012 Q1100.5688,630.7605 1100.9344,630.7605 L1101.0938,630.7605 L1101.0938,626.7668 L1100.9344,626.7668 Q1100.5594,626.7668 1100.4,626.6262 Q1100.25,626.4855 1100.25,626.2512 Q1100.25,626.0262 1100.4,625.8855 Q1100.5594,625.7449 1100.9344,625.7449 L1105.5094,625.7449 L1105.5094,627.3012 Q1105.5094,627.6668 1105.3687,627.8262 Q1105.2375,627.9762 1105.0031,627.9762 Q1104.7781,627.9762 1104.6375,627.8262 Q1104.4969,627.6668 1104.4969,627.3012 L1104.4969,626.7668 L1102.1156,626.7668 L1102.1156,628.2387 L1103.0063,628.2387 Q1103.0063,627.8449 1103.0813,627.7324 Q1103.2406,627.4887 1103.5219,627.4887 Q1103.7469,627.4887 1103.8875,627.648 Q1104.0281,627.798 1104.0281,628.1637 L1104.0281,629.3449 Q1104.0281,629.673 1103.9531,629.7855 Q1103.7938,630.0199 1103.5219,630.0199 Q1103.2406,630.0199 1103.0813,629.7762 Q1103.0063,629.6637 1103.0063,629.2605 L1102.1156,629.2605 Z " fill="#000000"/><text fill="#000000" font-family="sans-serif" font-size="10.8" lengthAdjust="spacing" textLength="105.6" x="1112.4" y="633.2543">ExamGradeProperties</text><line style="stroke:#181818;stroke-width:0.3;" x1="1094.4" x2="1220.4" y1="640.1648" y2="640.1648"/><text fill="#000000" font-family="sans-serif" font-size="10.8" lengthAdjust="spacing" textLength="37.8" x="1098.6" y="655.4191">+NONE</text><text fill="#000000" font-family="sans-serif" font-size="10.8" lengthAdjust="spacing" textLength="95.4" x="1098.6" y="672.184">+ON_SUBMISSION</text><text fill="#000000" font-family="sans-serif" font-size="10.8" lengthAdjust="spacing" textLength="96" x="1098.6" y="688.9488">+AFTER_CLOSING</text><line style="stroke:#181818;stroke-width:0.3;" x1="1094.4" x2="1220.4" y1="695.2594" y2="695.2594"/></g><!--link ListExamsGradesInCourseUI to AbstractUI--><g id="link_ListExamsGradesInCourseUI_AbstractUI"><path codeLine="123" d="M916.8,179.466 C916.8,199.53 916.8,225.018 916.8,244.122 " fill="none" id="ListExamsGradesInCourseUI-to-AbstractUI" style="stroke:#181818;stroke-width:0.6;"/><polygon fill="none" points="921,244.188,916.8,256.188,912.6,244.188,921,244.188" style="stroke:#181818;stroke-width:0.6;"/></g><!--link ListExamsGradesInCourseUI to ListExamsGradesInCourseController--><g id="link_ListExamsGradesInCourseUI_ListExamsGradesInCourseController"><path codeLine="128" d="M850.47,179.466 C813.72,197.448 768.09,219.78 730.908,237.978 " fill="none" id="ListExamsGradesInCourseUI-to-ListExamsGradesInCourseController" style="stroke:#181818;stroke-width:0.6;"/><polygon fill="#181818" points="728.022,239.388,733.9274,239.1724,730.7172,238.0704,731.8192,234.8601,728.022,239.388" style="stroke:#181818;stroke-width:0.6;"/><text fill="#000000" font-family="sans-serif" font-size="7.8" lengthAdjust="spacing" textLength="4.2" x="730.6839" y="231.3861">1</text></g><!--link ListExamsGradesInCourseController to MyUserService--><g id="link_ListExamsGradesInCourseController_MyUserService"><path codeLine="131" d="M559.182,305.43 C506.532,322.494 441.54,344.232 384,365.4 C381.432,366.342 378.81,367.332 376.164,368.34 " fill="none" id="ListExamsGradesInCourseController-to-MyUserService" style="stroke:#181818;stroke-width:0.6;"/><polygon fill="#181818" points="373.29,369.438,379.1918,369.7359,376.0894,368.3593,377.4659,365.2569,373.29,369.438" style="stroke:#181818;stroke-width:0.6;"/><text fill="#000000" font-family="sans-serif" font-size="7.8" lengthAdjust="spacing" textLength="4.2" x="379.1204" y="364.0735">1</text></g><!--link ListExamsGradesInCourseController to BaseRoles--><g id="link_ListExamsGradesInCourseController_BaseRoles"><path codeLine="132" d="M597.426,305.484 C562.35,323.184 518.184,345.486 478.8,365.4 C476.322,366.654 473.772,367.944 471.198,369.246 " fill="none" id="ListExamsGradesInCourseController-to-BaseRoles" style="stroke:#181818;stroke-width:0.6;"/><polygon fill="#181818" points="468.402,370.662,474.3038,370.3635,471.0784,369.3067,472.1352,366.0813,468.402,370.662" style="stroke:#181818;stroke-width:0.6;"/><text fill="#000000" font-family="sans-serif" font-size="7.8" lengthAdjust="spacing" textLength="4.2" x="474.2619" y="364.7288">1</text></g><!--link ListExamsGradesInCourseController to CourseAndDescriptionDTO--><g id="link_ListExamsGradesInCourseController_CourseAndDescriptionDTO"><path codeLine="133" d="M635.058,305.424 C617.556,326.646 595.326,353.598 580.842,371.16 " fill="none" id="ListExamsGradesInCourseController-to-CourseAndDescriptionDTO" style="stroke:#181818;stroke-width:0.6;"/><polygon fill="#181818" points="578.76,373.686,584.0434,371.0392,580.6653,371.3687,580.3357,367.9906,578.76,373.686" style="stroke:#181818;stroke-width:0.6;"/><text fill="#000000" font-family="sans-serif" font-size="7.8" lengthAdjust="spacing" textLength="3" x="576.8044" y="365.7791">*</text></g><!--link ListExamsGradesInCourseController to CourseAndDescriptionDTOMapper--><g id="link_ListExamsGradesInCourseController_CourseAndDescriptionDTOMapper"><path codeLine="134" d="M688.542,305.424 C703.452,323.502 721.794,345.744 735.858,362.796 " fill="none" id="ListExamsGradesInCourseController-to-CourseAndDescriptionDTOMapper" style="stroke:#181818;stroke-width:0.6;"/><polygon fill="#181818" points="737.898,365.268,736.3097,359.5761,735.9876,362.9549,732.6088,362.6328,737.898,365.268" style="stroke:#181818;stroke-width:0.6;"/><text fill="#000000" font-family="sans-serif" font-size="7.8" lengthAdjust="spacing" textLength="4.2" x="728.8002" y="357.3588">1</text></g><!--reverse link CourseRepository to ListExamsGradesInCourseController--><g id="link_CourseRepository_ListExamsGradesInCourseController"><path codeLine="135" d="M740.634,173.61 C725.208,192.822 704.292,218.874 687.882,239.316 " fill="none" id="CourseRepository-backto-ListExamsGradesInCourseController" style="stroke:#181818;stroke-width:0.6;"/><polygon fill="#181818" points="742.68,171.06,737.4241,173.761,740.7986,173.3967,741.1628,176.7712,742.68,171.06" style="stroke:#181818;stroke-width:0.6;"/><text fill="#000000" font-family="sans-serif" font-size="7.8" lengthAdjust="spacing" textLength="4.2" x="733.8163" y="185.4365">1</text></g><!--reverse link StaffRepository to ListExamsGradesInCourseController--><g id="link_StaffRepository_ListExamsGradesInCourseController"><path codeLine="136" d="M637.368,174.078 C642.162,193.248 648.612,219.042 653.676,239.316 " fill="none" id="StaffRepository-backto-ListExamsGradesInCourseController" style="stroke:#181818;stroke-width:0.6;"/><polygon fill="#181818" points="636.618,171.06,635.5994,176.8809,637.3456,173.9704,640.256,175.7167,636.618,171.06" style="stroke:#181818;stroke-width:0.6;"/><text fill="#000000" font-family="sans-serif" font-size="7.8" lengthAdjust="spacing" textLength="4.2" x="631.6342" y="185.4365">1</text></g><!--link ListExamsGradesInCourseController to ExamGradeAndStudentDTO--><g id="link_ListExamsGradesInCourseController_ExamGradeAndStudentDTO"><path codeLine="137" d="M742.692,305.424 C797.13,327.246 866.682,355.122 910.35,372.624 " fill="none" id="ListExamsGradesInCourseController-to-ExamGradeAndStudentDTO" style="stroke:#181818;stroke-width:0.6;"/><polygon fill="#181818" points="913.188,373.764,909.0656,369.5301,910.4026,372.6498,907.2829,373.9868,913.188,373.764" style="stroke:#181818;stroke-width:0.6;"/><text fill="#000000" font-family="sans-serif" font-size="7.8" lengthAdjust="spacing" textLength="3" x="899.8635" y="365.8742">*</text></g><!--link ListExamsGradesInCourseController to ExamGradeAndStudentDTOMapper--><g id="link_ListExamsGradesInCourseController_ExamGradeAndStudentDTOMapper"><path codeLine="138" d="M797.514,305.424 C877.284,324.48 976.398,348.162 1049.022,365.514 " fill="none" id="ListExamsGradesInCourseController-to-ExamGradeAndStudentDTOMapper" style="stroke:#181818;stroke-width:0.6;"/><polygon fill="#181818" points="1052.028,366.234,1047.3388,362.638,1049.1111,365.5326,1046.2165,367.3049,1052.028,366.234" style="stroke:#181818;stroke-width:0.6;"/><text fill="#000000" font-family="sans-serif" font-size="7.8" lengthAdjust="spacing" textLength="4.2" x="1041.7711" y="361.8006">1</text></g><!--reverse link ListExamResultsService to ListExamsGradesInCourseController--><g id="link_ListExamResultsService_ListExamsGradesInCourseController"><path codeLine="139" d="M448.752,172.44 C490.164,191.754 547.422,218.454 592.146,239.316 " fill="none" id="ListExamResultsService-backto-ListExamsGradesInCourseController" style="stroke:#181818;stroke-width:0.6;"/><polygon fill="#181818" points="445.794,171.06,449.6832,175.509,448.5156,172.3221,451.7026,171.1544,445.794,171.06" style="stroke:#181818;stroke-width:0.6;"/><text fill="#000000" font-family="sans-serif" font-size="7.8" lengthAdjust="spacing" textLength="4.2" x="447.789" y="185.4365">1</text></g><!--link CourseAndDescriptionDTOMapper to Course--><g id="link_CourseAndDescriptionDTOMapper_Course"><path codeLine="141" d="M756.066,414.66 C754.548,435.66 752.352,466.11 750.774,488.028 " fill="none" id="CourseAndDescriptionDTOMapper-to-Course" style="stroke:#181818;stroke-width:0.6;"/><polygon fill="#181818" points="750.546,491.196,753.3257,485.9813,750.7604,488.2037,748.538,485.6383,750.546,491.196" style="stroke:#181818;stroke-width:0.6;"/><text fill="#000000" font-family="sans-serif" font-size="7.8" lengthAdjust="spacing" textLength="3" x="746.1999" y="483.4689">*</text></g><!--link ExamGradeAndStudentDTOMapper to RegularExamResult--><g id="link_ExamGradeAndStudentDTOMapper_RegularExamResult"><path codeLine="142" d="M1150.62,414.66 C1151.7,430.734 1153.158,452.34 1154.442,471.42 " fill="none" id="ExamGradeAndStudentDTOMapper-to-RegularExamResult" style="stroke:#181818;stroke-width:0.6;"/><polygon fill="#181818" points="1154.646,474.462,1156.6699,468.9101,1154.4402,471.4691,1151.8812,469.2394,1154.646,474.462" style="stroke:#181818;stroke-width:0.6;"/><text fill="#000000" font-family="sans-serif" font-size="7.8" lengthAdjust="spacing" textLength="3" x="1149.8836" y="466.562">*</text></g><!--link ListExamResultsService to RegularExamResultRepository--><g id="link_ListExamResultsService_RegularExamResultRepository"><path codeLine="144" d="M367.362,171.06 C343.56,192.402 308.862,223.512 284.334,245.502 " fill="none" id="ListExamResultsService-to-RegularExamResultRepository" style="stroke:#181818;stroke-width:0.6;"/><polygon fill="#181818" points="281.994,247.596,287.6168,245.7782,284.2277,245.5934,284.4126,242.2043,281.994,247.596" style="stroke:#181818;stroke-width:0.6;"/><text fill="#000000" font-family="sans-serif" font-size="7.8" lengthAdjust="spacing" textLength="4.2" x="280.2221" y="239.8689">1</text></g><!--link RegularExamResult to ExamGradeProperties--><g id="link_RegularExamResult_ExamGradeProperties"><path codeLine="146" d="M1157.4,557.556 C1157.4,575.316 1157.4,596.142 1157.4,614.226 " fill="none" id="RegularExamResult-to-ExamGradeProperties" style="stroke:#181818;stroke-width:0.6;"/><polygon fill="#181818" points="1157.4,617.334,1159.8,611.934,1157.4,614.334,1155,611.934,1157.4,617.334" style="stroke:#181818;stroke-width:0.6;"/></g><!--link JpaRegularExamResultRepository to RegularExamResultRepository--><g id="link_JpaRegularExamResultRepository_RegularExamResultRepository"><path codeLine="149" d="M137.31,171.06 C160.134,190.596 192.51,218.31 217.53,239.73 " fill="none" id="JpaRegularExamResultRepository-to-RegularExamResultRepository" style="stroke:#181818;stroke-width:0.6;stroke-dasharray:7.0,7.0;"/><polygon fill="none" points="220.344,236.604,226.728,247.596,214.878,242.988,220.344,236.604" style="stroke:#181818;stroke-width:0.6;"/></g><!--link JpaStaffRepository to StaffRepository--><g id="link_JpaStaffRepository_StaffRepository"><path codeLine="150" d="M626.796,53.52 C627.462,69.75 628.356,91.44 629.112,109.716 " fill="none" id="JpaStaffRepository-to-StaffRepository" style="stroke:#181818;stroke-width:0.6;stroke-dasharray:7.0,7.0;"/><polygon fill="none" points="633.306,109.548,629.604,121.71,624.918,109.896,633.306,109.548" style="stroke:#181818;stroke-width:0.6;"/></g><!--link JpaCourseRepository to CourseRepository--><g id="link_JpaCourseRepository_CourseRepository"><path codeLine="151" d="M765.636,45.096 C765.042,61.542 764.088,87.942 763.308,109.584 " fill="none" id="JpaCourseRepository-to-CourseRepository" style="stroke:#181818;stroke-width:0.6;stroke-dasharray:7.0,7.0;"/><polygon fill="none" points="767.502,109.824,762.87,121.668,759.108,109.524,767.502,109.824" style="stroke:#181818;stroke-width:0.6;"/></g><!--link CourseAndDescriptionDTOMapper to Mapper--><g id="link_CourseAndDescriptionDTOMapper_Mapper"><path codeLine="153" d="M792.624,414.66 C821.37,434.526 862.368,462.858 893.568,484.416 " fill="none" id="CourseAndDescriptionDTOMapper-to-Mapper" style="stroke:#181818;stroke-width:0.6;stroke-dasharray:7.0,7.0;"/><polygon fill="none" points="896.046,481.026,903.534,491.304,891.27,487.938,896.046,481.026" style="stroke:#181818;stroke-width:0.6;"/></g><!--link ExamGradeAndStudentDTOMapper to Mapper--><g id="link_ExamGradeAndStudentDTOMapper_Mapper"><path codeLine="154" d="M1108.392,414.66 C1074.504,434.742 1026.024,463.476 989.502,485.118 " fill="none" id="ExamGradeAndStudentDTOMapper-to-Mapper" style="stroke:#181818;stroke-width:0.6;stroke-dasharray:7.0,7.0;"/><polygon fill="none" points="991.524,488.802,979.062,491.304,987.24,481.572,991.524,488.802" style="stroke:#181818;stroke-width:0.6;"/></g><!--SRC=[bLNBSjem5DthApJf8gPfNbrrEfbq226fEm4wcAmpmhw06bdII78RckRVAybWZ0t6OMD0vo7TUwvyl316wg_dvv8HRhAKdSKYFOyPqVeqeMIkI8gGVgPS4liL-uMkCOfECmDXB7X4_mA-A44aIHBAv_XpwJz5-BC6YIylBgfYTu8Rht7v1I54kG4r8p7W0P4I57f5-CI8syae2EqAcJAucbnZCVsbF-6UI9sG4Uhg6zQPXMEx5gUoWzxAKZsHAGrZa49J2ruwKViv4RCm0MweMGOpoWd38QQ9usweaI6psJRpn91ilZ0tos0295vOKrFn6yCyOqJrNqWw1fqnKxTMLOY-MURR3F87ZhseBn7-8KaBJTnMTANQdMgZI6mUGwjGU3rGRPo2lbSa0HtodEf1pkO3JaIq47-2pifr0IHXb4FGEIZIixrMWh6yhvxDB39Vr8KYssPtUHAPp7LAhyvX_xa57Iig3HNSXWF72w61xzZ1gX0HgDyqXgPI4Gt9Y3jBczwVIjWu6MftbKTZHrS6oqSDgg8SPqhPdQwYKQw9CnWB1hhOnAisnD3uRTBlzhxtnnjeRbRWw3gbdIgaLWZBEOWfJHREHsjzEFyecRZo-1viMf1x743KPhUMNji0zoXvrI3huy-T_3eR2J75Tvtx1Tk3yew9BJWxBWYx33nBDmVS9C9B3aV3ldsCXa_HuyqWZA9mDBI_ktUJ_lYfzp2Amk6zRqNnEOON0ppH-FJqtpNQEsP-kJoRZfg0z5J10vfAeOpkM5opoZK-kZngCOa87SGKQjkHRy_RPBybv-FHteItTstEVmkTJ6ufbGBo7d8raUrBi6V-sbUWSJpVSuOzrobgB76bbQXfDmMsVW-WtUR58PjUZQX-ypZQhgb6ntQq6AJkFOFFpkoCDhzsFQRHl7uRvPng87RSG3cm5hi3zVQaLNSRYrq68lGV]--></g></svg>