<?xml version="1.0" encoding="us-ascii" standalone="no"?><svg xmlns="http://www.w3.org/2000/svg" xmlns:xlink="http://www.w3.org/1999/xlink" contentStyleType="text/css" height="1457px" preserveAspectRatio="none" style="width:2555px;height:1457px;background:#FFFFFF;" version="1.1" viewBox="0 0 2555 1457" width="2555px" zoomAndPan="magnify"><defs/><g><rect fill="#FFFFFF" height="1271.9316" style="stroke:#181818;stroke-width:1.0;" width="10" x="29.5" y="93.6211"/><rect fill="#FFFFFF" height="562.6563" style="stroke:#181818;stroke-width:1.0;" width="10" x="203.5" y="116.9121"/><rect fill="#FFFFFF" height="628.4023" style="stroke:#181818;stroke-width:1.0;" width="10" x="203.5" y="728.1504"/><rect fill="#FFFFFF" height="30" style="stroke:#181818;stroke-width:1.0;" width="10" x="480.5" y="159.8486"/><rect fill="#FFFFFF" height="446.7832" style="stroke:#181818;stroke-width:1.0;" width="10" x="480.5" y="232.7852"/><rect fill="#FFFFFF" height="531.2383" style="stroke:#181818;stroke-width:1.0;" width="10" x="480.5" y="759.4414"/><rect fill="#FFFFFF" height="115.873" style="stroke:#181818;stroke-width:1.0;" width="10" x="666" y="264.0762"/><rect fill="#FFFFFF" height="30" style="stroke:#181818;stroke-width:1.0;" width="10" x="763.5" y="307.0127"/><rect fill="#FFFFFF" height="31.291" style="stroke:#181818;stroke-width:1.0;" width="10" x="862.5" y="411.2402"/><rect fill="#FFFFFF" height="125.873" style="stroke:#181818;stroke-width:1.0;" width="10" x="1045" y="473.8223"/><rect fill="#FFFFFF" height="30" style="stroke:#181818;stroke-width:1.0;" width="10" x="1265" y="531.4043"/><rect fill="#FFFFFF" height="31.291" style="stroke:#181818;stroke-width:1.0;" width="10" x="1265" y="790.7324"/><rect fill="#FFFFFF" height="31.291" style="stroke:#181818;stroke-width:1.0;" width="10" x="1432" y="853.3145"/><rect fill="#FFFFFF" height="186.3281" style="stroke:#181818;stroke-width:1.0;" width="10" x="1729" y="915.8965"/><rect fill="#FFFFFF" height="77.5186" style="stroke:#181818;stroke-width:1.0;" width="10" x="1979" y="947.1875"/><rect fill="#FFFFFF" height="125.873" style="stroke:#181818;stroke-width:1.0;" width="10" x="2212" y="1133.5156"/><rect fill="#FFFFFF" height="30" style="stroke:#181818;stroke-width:1.0;" width="10" x="2438" y="1191.0977"/><rect fill="none" height="80.582" style="stroke:#000000;stroke-width:1.5;" width="450" x="923" y="488.8223"/><rect fill="none" height="80.582" style="stroke:#000000;stroke-width:1.5;" width="462" x="2087" y="1148.5156"/><line style="stroke:#181818;stroke-width:0.5;stroke-dasharray:5.0,5.0;" x1="34" x2="34" y1="83.6211" y2="1374.5527"/><line style="stroke:#181818;stroke-width:0.5;stroke-dasharray:5.0,5.0;" x1="208" x2="208" y1="83.6211" y2="1374.5527"/><line style="stroke:#181818;stroke-width:0.5;stroke-dasharray:5.0,5.0;" x1="485" x2="485" y1="83.6211" y2="1374.5527"/><line style="stroke:#181818;stroke-width:0.5;stroke-dasharray:5.0,5.0;" x1="671" x2="671" y1="83.6211" y2="1374.5527"/><line style="stroke:#181818;stroke-width:0.5;stroke-dasharray:5.0,5.0;" x1="768" x2="768" y1="83.6211" y2="1374.5527"/><line style="stroke:#181818;stroke-width:0.5;stroke-dasharray:5.0,5.0;" x1="867" x2="867" y1="83.6211" y2="1374.5527"/><line style="stroke:#181818;stroke-width:0.5;stroke-dasharray:5.0,5.0;" x1="1050" x2="1050" y1="83.6211" y2="1374.5527"/><line style="stroke:#181818;stroke-width:0.5;stroke-dasharray:5.0,5.0;" x1="1270" x2="1270" y1="83.6211" y2="1374.5527"/><line style="stroke:#181818;stroke-width:0.5;stroke-dasharray:5.0,5.0;" x1="1437" x2="1437" y1="83.6211" y2="1374.5527"/><line style="stroke:#181818;stroke-width:0.5;stroke-dasharray:5.0,5.0;" x1="1576" x2="1576" y1="83.6211" y2="1374.5527"/><line style="stroke:#181818;stroke-width:0.5;stroke-dasharray:5.0,5.0;" x1="1734" x2="1734" y1="83.6211" y2="1374.5527"/><line style="stroke:#181818;stroke-width:0.5;stroke-dasharray:5.0,5.0;" x1="1984" x2="1984" y1="83.6211" y2="1374.5527"/><line style="stroke:#181818;stroke-width:0.5;stroke-dasharray:5.0,5.0;" x1="2217" x2="2217" y1="83.6211" y2="1374.5527"/><line style="stroke:#181818;stroke-width:0.5;stroke-dasharray:5.0,5.0;" x1="2443" x2="2443" y1="83.6211" y2="1374.5527"/><text fill="#000000" font-family="sans-serif" font-size="14" lengthAdjust="spacing" textLength="53" x="5" y="80.1074">Teacher</text><ellipse cx="34.5" cy="13.5" fill="#E2E2F0" rx="8" ry="8" style="stroke:#181818;stroke-width:0.5;"/><path d="M34.5,21.5 L34.5,48.5 M21.5,29.5 L47.5,29.5 M34.5,48.5 L21.5,63.5 M34.5,48.5 L47.5,63.5 " fill="none" style="stroke:#181818;stroke-width:0.5;"/><text fill="#000000" font-family="sans-serif" font-size="14" lengthAdjust="spacing" textLength="53" x="5" y="1388.6602">Teacher</text><ellipse cx="34.5" cy="1400.6738" fill="#E2E2F0" rx="8" ry="8" style="stroke:#181818;stroke-width:0.5;"/><path d="M34.5,1408.6738 L34.5,1435.6738 M21.5,1416.6738 L47.5,1416.6738 M34.5,1435.6738 L21.5,1450.6738 M34.5,1435.6738 L47.5,1450.6738 " fill="none" style="stroke:#181818;stroke-width:0.5;"/><rect fill="#E2E2F0" height="32.6211" rx="2.5" ry="2.5" style="stroke:#181818;stroke-width:0.5;" width="193" x="112" y="50"/><text fill="#000000" font-family="sans-serif" font-size="14" lengthAdjust="spacing" textLength="179" x="119" y="72.1074">ListExamsGradesInCourseUI</text><rect fill="#E2E2F0" height="32.6211" rx="2.5" ry="2.5" style="stroke:#181818;stroke-width:0.5;" width="193" x="112" y="1373.5527"/><text fill="#000000" font-family="sans-serif" font-size="14" lengthAdjust="spacing" textLength="179" x="119" y="1395.6602">ListExamsGradesInCourseUI</text><rect fill="#E2E2F0" height="32.6211" rx="2.5" ry="2.5" style="stroke:#181818;stroke-width:0.5;" width="243" x="364" y="50"/><text fill="#000000" font-family="sans-serif" font-size="14" lengthAdjust="spacing" textLength="229" x="371" y="72.1074">ListExamsGradesInCourseController</text><rect fill="#E2E2F0" height="32.6211" rx="2.5" ry="2.5" style="stroke:#181818;stroke-width:0.5;" width="243" x="364" y="1373.5527"/><text fill="#000000" font-family="sans-serif" font-size="14" lengthAdjust="spacing" textLength="229" x="371" y="1395.6602">ListExamsGradesInCourseController</text><rect fill="#E2E2F0" height="32.6211" rx="2.5" ry="2.5" style="stroke:#181818;stroke-width:0.5;" width="108" x="617" y="50"/><text fill="#000000" font-family="sans-serif" font-size="14" lengthAdjust="spacing" textLength="94" x="624" y="72.1074">MyUserService</text><rect fill="#E2E2F0" height="32.6211" rx="2.5" ry="2.5" style="stroke:#181818;stroke-width:0.5;" width="108" x="617" y="1373.5527"/><text fill="#000000" font-family="sans-serif" font-size="14" lengthAdjust="spacing" textLength="94" x="624" y="1395.6602">MyUserService</text><rect fill="#E2E2F0" height="32.6211" rx="2.5" ry="2.5" style="stroke:#181818;stroke-width:0.5;" width="67" x="735" y="50"/><text fill="#000000" font-family="sans-serif" font-size="14" lengthAdjust="spacing" textLength="53" x="742" y="72.1074">Teacher</text><rect fill="#E2E2F0" height="32.6211" rx="2.5" ry="2.5" style="stroke:#181818;stroke-width:0.5;" width="67" x="735" y="1373.5527"/><text fill="#000000" font-family="sans-serif" font-size="14" lengthAdjust="spacing" textLength="53" x="742" y="1395.6602">Teacher</text><rect fill="#E2E2F0" height="32.6211" rx="2.5" ry="2.5" style="stroke:#181818;stroke-width:0.5;" width="111" x="812" y="50"/><text fill="#000000" font-family="sans-serif" font-size="14" lengthAdjust="spacing" textLength="97" x="819" y="72.1074">StaffRepository</text><rect fill="#E2E2F0" height="32.6211" rx="2.5" ry="2.5" style="stroke:#181818;stroke-width:0.5;" width="111" x="812" y="1373.5527"/><text fill="#000000" font-family="sans-serif" font-size="14" lengthAdjust="spacing" textLength="97" x="819" y="1395.6602">StaffRepository</text><rect fill="#E2E2F0" height="32.6211" rx="2.5" ry="2.5" style="stroke:#181818;stroke-width:0.5;" width="234" x="933" y="50"/><text fill="#000000" font-family="sans-serif" font-size="14" lengthAdjust="spacing" textLength="220" x="940" y="72.1074">CourseAndDescriptionDTOMapper</text><rect fill="#E2E2F0" height="32.6211" rx="2.5" ry="2.5" style="stroke:#181818;stroke-width:0.5;" width="234" x="933" y="1373.5527"/><text fill="#000000" font-family="sans-serif" font-size="14" lengthAdjust="spacing" textLength="220" x="940" y="1395.6602">CourseAndDescriptionDTOMapper</text><rect fill="#E2E2F0" height="32.6211" rx="2.5" ry="2.5" style="stroke:#181818;stroke-width:0.5;" width="186" x="1177" y="50"/><text fill="#000000" font-family="sans-serif" font-size="14" lengthAdjust="spacing" textLength="172" x="1184" y="72.1074">CourseAndDescriptionDTO</text><rect fill="#E2E2F0" height="32.6211" rx="2.5" ry="2.5" style="stroke:#181818;stroke-width:0.5;" width="186" x="1177" y="1373.5527"/><text fill="#000000" font-family="sans-serif" font-size="14" lengthAdjust="spacing" textLength="172" x="1184" y="1395.6602">CourseAndDescriptionDTO</text><rect fill="#E2E2F0" height="32.6211" rx="2.5" ry="2.5" style="stroke:#181818;stroke-width:0.5;" width="128" x="1373" y="50"/><text fill="#000000" font-family="sans-serif" font-size="14" lengthAdjust="spacing" textLength="114" x="1380" y="72.1074">CourseRepository</text><rect fill="#E2E2F0" height="32.6211" rx="2.5" ry="2.5" style="stroke:#181818;stroke-width:0.5;" width="128" x="1373" y="1373.5527"/><text fill="#000000" font-family="sans-serif" font-size="14" lengthAdjust="spacing" textLength="114" x="1380" y="1395.6602">CourseRepository</text><rect fill="#E2E2F0" height="32.6211" rx="2.5" ry="2.5" style="stroke:#181818;stroke-width:0.5;" width="131" x="1511" y="50"/><text fill="#000000" font-family="sans-serif" font-size="14" lengthAdjust="spacing" textLength="117" x="1518" y="72.1074">StudentRepository</text><rect fill="#E2E2F0" height="32.6211" rx="2.5" ry="2.5" style="stroke:#181818;stroke-width:0.5;" width="131" x="1511" y="1373.5527"/><text fill="#000000" font-family="sans-serif" font-size="14" lengthAdjust="spacing" textLength="117" x="1518" y="1395.6602">StudentRepository</text><rect fill="#E2E2F0" height="32.6211" rx="2.5" ry="2.5" style="stroke:#181818;stroke-width:0.5;" width="164" x="1652" y="50"/><text fill="#000000" font-family="sans-serif" font-size="14" lengthAdjust="spacing" textLength="150" x="1659" y="72.1074">ListExamResultsService</text><rect fill="#E2E2F0" height="32.6211" rx="2.5" ry="2.5" style="stroke:#181818;stroke-width:0.5;" width="164" x="1652" y="1373.5527"/><text fill="#000000" font-family="sans-serif" font-size="14" lengthAdjust="spacing" textLength="150" x="1659" y="1395.6602">ListExamResultsService</text><rect fill="#E2E2F0" height="32.6211" rx="2.5" ry="2.5" style="stroke:#181818;stroke-width:0.5;" width="206" x="1881" y="50"/><text fill="#000000" font-family="sans-serif" font-size="14" lengthAdjust="spacing" textLength="192" x="1888" y="72.1074">RegularExamResultRepository</text><rect fill="#E2E2F0" height="32.6211" rx="2.5" ry="2.5" style="stroke:#181818;stroke-width:0.5;" width="206" x="1881" y="1373.5527"/><text fill="#000000" font-family="sans-serif" font-size="14" lengthAdjust="spacing" textLength="192" x="1888" y="1395.6602">RegularExamResultRepository</text><rect fill="#E2E2F0" height="32.6211" rx="2.5" ry="2.5" style="stroke:#181818;stroke-width:0.5;" width="240" x="2097" y="50"/><text fill="#000000" font-family="sans-serif" font-size="14" lengthAdjust="spacing" textLength="226" x="2104" y="72.1074">ExamGradeAndStudentDTOMapper</text><rect fill="#E2E2F0" height="32.6211" rx="2.5" ry="2.5" style="stroke:#181818;stroke-width:0.5;" width="240" x="2097" y="1373.5527"/><text fill="#000000" font-family="sans-serif" font-size="14" lengthAdjust="spacing" textLength="226" x="2104" y="1395.6602">ExamGradeAndStudentDTOMapper</text><rect fill="#E2E2F0" height="32.6211" rx="2.5" ry="2.5" style="stroke:#181818;stroke-width:0.5;" width="192" x="2347" y="50"/><text fill="#000000" font-family="sans-serif" font-size="14" lengthAdjust="spacing" textLength="178" x="2354" y="72.1074">ExamGradeAndStudentDTO</text><rect fill="#E2E2F0" height="32.6211" rx="2.5" ry="2.5" style="stroke:#181818;stroke-width:0.5;" width="192" x="2347" y="1373.5527"/><text fill="#000000" font-family="sans-serif" font-size="14" lengthAdjust="spacing" textLength="178" x="2354" y="1395.6602">ExamGradeAndStudentDTO</text><rect fill="#FFFFFF" height="1271.9316" style="stroke:#181818;stroke-width:1.0;" width="10" x="29.5" y="93.6211"/><rect fill="#FFFFFF" height="562.6563" style="stroke:#181818;stroke-width:1.0;" width="10" x="203.5" y="116.9121"/><rect fill="#FFFFFF" height="628.4023" style="stroke:#181818;stroke-width:1.0;" width="10" x="203.5" y="728.1504"/><rect fill="#FFFFFF" height="30" style="stroke:#181818;stroke-width:1.0;" width="10" x="480.5" y="159.8486"/><rect fill="#FFFFFF" height="446.7832" style="stroke:#181818;stroke-width:1.0;" width="10" x="480.5" y="232.7852"/><rect fill="#FFFFFF" height="531.2383" style="stroke:#181818;stroke-width:1.0;" width="10" x="480.5" y="759.4414"/><rect fill="#FFFFFF" height="115.873" style="stroke:#181818;stroke-width:1.0;" width="10" x="666" y="264.0762"/><rect fill="#FFFFFF" height="30" style="stroke:#181818;stroke-width:1.0;" width="10" x="763.5" y="307.0127"/><rect fill="#FFFFFF" height="31.291" style="stroke:#181818;stroke-width:1.0;" width="10" x="862.5" y="411.2402"/><rect fill="#FFFFFF" height="125.873" style="stroke:#181818;stroke-width:1.0;" width="10" x="1045" y="473.8223"/><rect fill="#FFFFFF" height="30" style="stroke:#181818;stroke-width:1.0;" width="10" x="1265" y="531.4043"/><rect fill="#FFFFFF" height="31.291" style="stroke:#181818;stroke-width:1.0;" width="10" x="1265" y="790.7324"/><rect fill="#FFFFFF" height="31.291" style="stroke:#181818;stroke-width:1.0;" width="10" x="1432" y="853.3145"/><rect fill="#FFFFFF" height="186.3281" style="stroke:#181818;stroke-width:1.0;" width="10" x="1729" y="915.8965"/><rect fill="#FFFFFF" height="77.5186" style="stroke:#181818;stroke-width:1.0;" width="10" x="1979" y="947.1875"/><rect fill="#FFFFFF" height="125.873" style="stroke:#181818;stroke-width:1.0;" width="10" x="2212" y="1133.5156"/><rect fill="#FFFFFF" height="30" style="stroke:#181818;stroke-width:1.0;" width="10" x="2438" y="1191.0977"/><polygon fill="#181818" points="191.5,112.9121,201.5,116.9121,191.5,120.9121,195.5,116.9121" style="stroke:#181818;stroke-width:1.0;"/><line style="stroke:#181818;stroke-width:1.0;" x1="39.5" x2="197.5" y1="116.9121" y2="116.9121"/><text fill="#000000" font-family="sans-serif" font-size="13" lengthAdjust="spacing" textLength="29" x="46.5" y="111.6494">enter</text><polygon fill="#181818" points="468.5,155.8486,478.5,159.8486,468.5,163.8486,472.5,159.8486" style="stroke:#181818;stroke-width:1.0;"/><line style="stroke:#181818;stroke-width:1.0;stroke-dasharray:2.0,2.0;" x1="213.5" x2="474.5" y1="159.8486" y2="159.8486"/><text fill="#000000" font-family="sans-serif" font-size="13" lengthAdjust="spacing" textLength="44" x="220.5" y="154.5859">create()</text><path d="M495,129.9121 L495,173.9121 L709,173.9121 L709,139.9121 L699,129.9121 L495,129.9121 " fill="#FEFFDD" style="stroke:#181818;stroke-width:0.5;"/><path d="M699,129.9121 L699,139.9121 L709,139.9121 L699,129.9121 " fill="#FEFFDD" style="stroke:#181818;stroke-width:0.5;"/><text fill="#000000" font-family="sans-serif" font-size="13" lengthAdjust="spacing" textLength="160" x="501" y="148.9404">repositories are retrieved via</text><text fill="#000000" font-family="sans-serif" font-size="13" lengthAdjust="spacing" textLength="193" x="501" y="166.2314">PersistenceContext.repositories()</text><polygon fill="#181818" points="468.5,228.7852,478.5,232.7852,468.5,236.7852,472.5,232.7852" style="stroke:#181818;stroke-width:1.0;"/><line style="stroke:#181818;stroke-width:1.0;" x1="213.5" x2="474.5" y1="232.7852" y2="232.7852"/><text fill="#000000" font-family="sans-serif" font-size="13" lengthAdjust="spacing" textLength="73" x="220.5" y="227.5225">listCourses()</text><polygon fill="#181818" points="654,260.0762,664,264.0762,654,268.0762,658,264.0762" style="stroke:#181818;stroke-width:1.0;"/><line style="stroke:#181818;stroke-width:1.0;stroke-dasharray:2.0,2.0;" x1="490.5" x2="660" y1="264.0762" y2="264.0762"/><text fill="#000000" font-family="sans-serif" font-size="13" lengthAdjust="spacing" textLength="94" x="497.5" y="258.8135">currentTeacher()</text><polygon fill="#181818" points="751.5,303.0127,761.5,307.0127,751.5,311.0127,755.5,307.0127" style="stroke:#181818;stroke-width:1.0;"/><line style="stroke:#181818;stroke-width:1.0;stroke-dasharray:2.0,2.0;" x1="676" x2="757.5" y1="307.0127" y2="307.0127"/><text fill="#000000" font-family="sans-serif" font-size="13" lengthAdjust="spacing" textLength="26" x="683" y="301.75">get()</text><path d="M778,277.0762 L778,321.0762 L1010,321.0762 L1010,287.0762 L1000,277.0762 L778,277.0762 " fill="#FEFFDD" style="stroke:#181818;stroke-width:0.5;"/><path d="M1000,277.0762 L1000,287.0762 L1010,287.0762 L1000,277.0762 " fill="#FEFFDD" style="stroke:#181818;stroke-width:0.5;"/><text fill="#000000" font-family="sans-serif" font-size="13" lengthAdjust="spacing" textLength="209" x="784" y="296.1045">teacher obtained via the framework's</text><text fill="#000000" font-family="sans-serif" font-size="13" lengthAdjust="spacing" textLength="211" x="784" y="313.3955">Authz package + TeacherRepository</text><polygon fill="#181818" points="501.5,375.9492,491.5,379.9492,501.5,383.9492,497.5,379.9492" style="stroke:#181818;stroke-width:1.0;"/><line style="stroke:#181818;stroke-width:1.0;stroke-dasharray:2.0,2.0;" x1="495.5" x2="670" y1="379.9492" y2="379.9492"/><text fill="#000000" font-family="sans-serif" font-size="13" lengthAdjust="spacing" textLength="43" x="507.5" y="374.6865">teacher</text><polygon fill="#181818" points="850.5,407.2402,860.5,411.2402,850.5,415.2402,854.5,411.2402" style="stroke:#181818;stroke-width:1.0;"/><line style="stroke:#181818;stroke-width:1.0;" x1="490.5" x2="856.5" y1="411.2402" y2="411.2402"/><text fill="#000000" font-family="sans-serif" font-size="13" lengthAdjust="spacing" textLength="103" x="497.5" y="405.9775">taughtBy(teacher)</text><polygon fill="#181818" points="501.5,438.5313,491.5,442.5313,501.5,446.5313,497.5,442.5313" style="stroke:#181818;stroke-width:1.0;"/><line style="stroke:#181818;stroke-width:1.0;" x1="495.5" x2="866.5" y1="442.5313" y2="442.5313"/><text fill="#000000" font-family="sans-serif" font-size="13" lengthAdjust="spacing" textLength="65" x="507.5" y="437.2686">listCourses</text><polygon fill="#181818" points="1033,469.8223,1043,473.8223,1033,477.8223,1037,473.8223" style="stroke:#181818;stroke-width:1.0;"/><line style="stroke:#181818;stroke-width:1.0;" x1="490.5" x2="1039" y1="473.8223" y2="473.8223"/><text fill="#000000" font-family="sans-serif" font-size="13" lengthAdjust="spacing" textLength="110" x="497.5" y="468.5596">toDTO(listCourses)</text><path d="M923,488.8223 L996,488.8223 L996,498.1133 L986,508.1133 L923,508.1133 L923,488.8223 " fill="#EEEEEE" style="stroke:#000000;stroke-width:1.5;"/><rect fill="none" height="80.582" style="stroke:#000000;stroke-width:1.5;" width="450" x="923" y="488.8223"/><text fill="#000000" font-family="sans-serif" font-size="13" font-weight="bold" lengthAdjust="spacing" textLength="28" x="938" y="503.8506">loop</text><text fill="#000000" font-family="sans-serif" font-size="11" font-weight="bold" lengthAdjust="spacing" textLength="157" x="1011" y="502.6924">[for each course in courses]</text><polygon fill="#181818" points="1253,527.4043,1263,531.4043,1253,535.4043,1257,531.4043" style="stroke:#181818;stroke-width:1.0;"/><line style="stroke:#181818;stroke-width:1.0;stroke-dasharray:2.0,2.0;" x1="1055" x2="1259" y1="531.4043" y2="531.4043"/><text fill="#000000" font-family="sans-serif" font-size="13" lengthAdjust="spacing" textLength="44" x="1062" y="526.1416">create()</text><polygon fill="#181818" points="501.5,595.6953,491.5,599.6953,501.5,603.6953,497.5,599.6953" style="stroke:#181818;stroke-width:1.0;"/><line style="stroke:#181818;stroke-width:1.0;" x1="495.5" x2="1049" y1="599.6953" y2="599.6953"/><text fill="#000000" font-family="sans-serif" font-size="13" lengthAdjust="spacing" textLength="93" x="507.5" y="594.4326">coursesDTOList</text><polygon fill="#181818" points="224.5,626.9863,214.5,630.9863,224.5,634.9863,220.5,630.9863" style="stroke:#181818;stroke-width:1.0;"/><line style="stroke:#181818;stroke-width:1.0;" x1="218.5" x2="479.5" y1="630.9863" y2="630.9863"/><text fill="#000000" font-family="sans-serif" font-size="13" lengthAdjust="spacing" textLength="93" x="230.5" y="625.7236">coursesDTOList</text><polygon fill="#181818" points="50.5,675.5684,40.5,679.5684,50.5,683.5684,46.5,679.5684" style="stroke:#181818;stroke-width:1.0;"/><line style="stroke:#181818;stroke-width:1.0;stroke-dasharray:2.0,2.0;" x1="44.5" x2="207.5" y1="679.5684" y2="679.5684"/><text fill="#000000" font-family="sans-serif" font-size="13" lengthAdjust="spacing" textLength="120" x="56.5" y="657.0146">show courses taught</text><text fill="#000000" font-family="sans-serif" font-size="13" lengthAdjust="spacing" textLength="61" x="56.5" y="674.3057">by teacher</text><polygon fill="#181818" points="191.5,724.1504,201.5,728.1504,191.5,732.1504,195.5,728.1504" style="stroke:#181818;stroke-width:1.0;"/><line style="stroke:#181818;stroke-width:1.0;" x1="39.5" x2="197.5" y1="728.1504" y2="728.1504"/><text fill="#000000" font-family="sans-serif" font-size="13" lengthAdjust="spacing" textLength="141" x="46.5" y="705.5967">Chooses a course to list</text><text fill="#000000" font-family="sans-serif" font-size="13" lengthAdjust="spacing" textLength="111" x="46.5" y="722.8877">exams grades from</text><polygon fill="#181818" points="468.5,755.4414,478.5,759.4414,468.5,763.4414,472.5,759.4414" style="stroke:#181818;stroke-width:1.0;"/><line style="stroke:#181818;stroke-width:1.0;stroke-dasharray:2.0,2.0;" x1="213.5" x2="474.5" y1="759.4414" y2="759.4414"/><text fill="#000000" font-family="sans-serif" font-size="13" lengthAdjust="spacing" textLength="248" x="220.5" y="754.1787">listExamsGradesAndStudents(courseDTO)</text><polygon fill="#181818" points="1253,786.7324,1263,790.7324,1253,794.7324,1257,790.7324" style="stroke:#181818;stroke-width:1.0;"/><line style="stroke:#181818;stroke-width:1.0;" x1="490.5" x2="1259" y1="790.7324" y2="790.7324"/><text fill="#000000" font-family="sans-serif" font-size="13" lengthAdjust="spacing" textLength="57" x="497.5" y="785.4697">courseId()</text><polygon fill="#181818" points="501.5,818.0234,491.5,822.0234,501.5,826.0234,497.5,822.0234" style="stroke:#181818;stroke-width:1.0;"/><line style="stroke:#181818;stroke-width:1.0;" x1="495.5" x2="1269" y1="822.0234" y2="822.0234"/><text fill="#000000" font-family="sans-serif" font-size="13" lengthAdjust="spacing" textLength="53" x="507.5" y="816.7607">CourseID</text><polygon fill="#181818" points="1420,849.3145,1430,853.3145,1420,857.3145,1424,853.3145" style="stroke:#181818;stroke-width:1.0;"/><line style="stroke:#181818;stroke-width:1.0;" x1="490.5" x2="1426" y1="853.3145" y2="853.3145"/><text fill="#000000" font-family="sans-serif" font-size="13" lengthAdjust="spacing" textLength="113" x="497.5" y="848.0518">ofIdentity(CourseID)</text><polygon fill="#181818" points="501.5,880.6055,491.5,884.6055,501.5,888.6055,497.5,884.6055" style="stroke:#181818;stroke-width:1.0;"/><line style="stroke:#181818;stroke-width:1.0;" x1="495.5" x2="1436" y1="884.6055" y2="884.6055"/><text fill="#000000" font-family="sans-serif" font-size="13" lengthAdjust="spacing" textLength="39" x="507.5" y="879.3428">course</text><polygon fill="#181818" points="1717,911.8965,1727,915.8965,1717,919.8965,1721,915.8965" style="stroke:#181818;stroke-width:1.0;"/><line style="stroke:#181818;stroke-width:1.0;stroke-dasharray:2.0,2.0;" x1="490.5" x2="1723" y1="915.8965" y2="915.8965"/><text fill="#000000" font-family="sans-serif" font-size="13" lengthAdjust="spacing" textLength="322" x="497.5" y="910.6338">regularExamResultsBasedOnGradingProperties(course)</text><polygon fill="#181818" points="1967,943.1875,1977,947.1875,1967,951.1875,1971,947.1875" style="stroke:#181818;stroke-width:1.0;"/><line style="stroke:#181818;stroke-width:1.0;stroke-dasharray:2.0,2.0;" x1="1739" x2="1973" y1="947.1875" y2="947.1875"/><text fill="#000000" font-family="sans-serif" font-size="13" lengthAdjust="spacing" textLength="221" x="1746" y="941.9248">regularExamResultsByCourse(course)</text><polygon fill="#181818" points="1750,1020.7061,1740,1024.7061,1750,1028.7061,1746,1024.7061" style="stroke:#181818;stroke-width:1.0;"/><line style="stroke:#181818;stroke-width:1.0;stroke-dasharray:2.0,2.0;" x1="1744" x2="1983" y1="1024.7061" y2="1024.7061"/><text fill="#000000" font-family="sans-serif" font-size="13" lengthAdjust="spacing" textLength="76" x="1756" y="1019.4434">examResults</text><path d="M1402,960.1875 L1402,1073.1875 L1724,1073.1875 L1724,970.1875 L1714,960.1875 L1402,960.1875 " fill="#FEFFDD" style="stroke:#181818;stroke-width:0.5;"/><path d="M1714,960.1875 L1714,970.1875 L1724,970.1875 L1714,960.1875 " fill="#FEFFDD" style="stroke:#181818;stroke-width:0.5;"/><text fill="#000000" font-family="sans-serif" font-size="13" lengthAdjust="spacing" textLength="232" x="1408" y="979.2158">The service will apply the following filters</text><text fill="#000000" font-family="sans-serif" font-size="13" lengthAdjust="spacing" textLength="116" x="1408" y="996.5068">to the exam results:</text><text fill="#000000" font-family="sans-serif" font-size="13" lengthAdjust="spacing" textLength="4" x="1408" y="1013.7979">&#160;</text><text fill="#000000" font-family="sans-serif" font-size="13" lengthAdjust="spacing" textLength="301" x="1408" y="1031.0889">1. Include results with the "on-submission" property.</text><text fill="#000000" font-family="sans-serif" font-size="13" lengthAdjust="spacing" textLength="283" x="1408" y="1048.3799">2. Include results with the "after-closing" property</text><text fill="#000000" font-family="sans-serif" font-size="13" lengthAdjust="spacing" textLength="223" x="1408" y="1065.6709">if the closing date has already passed.</text><polygon fill="#181818" points="501.5,1098.2246,491.5,1102.2246,501.5,1106.2246,497.5,1102.2246" style="stroke:#181818;stroke-width:1.0;"/><line style="stroke:#181818;stroke-width:1.0;stroke-dasharray:2.0,2.0;" x1="495.5" x2="1733" y1="1102.2246" y2="1102.2246"/><text fill="#000000" font-family="sans-serif" font-size="13" lengthAdjust="spacing" textLength="76" x="507.5" y="1096.9619">examResults</text><polygon fill="#181818" points="2200,1129.5156,2210,1133.5156,2200,1137.5156,2204,1133.5156" style="stroke:#181818;stroke-width:1.0;"/><line style="stroke:#181818;stroke-width:1.0;stroke-dasharray:2.0,2.0;" x1="490.5" x2="2206" y1="1133.5156" y2="1133.5156"/><text fill="#000000" font-family="sans-serif" font-size="13" lengthAdjust="spacing" textLength="121" x="497.5" y="1128.2529">toDTO(examResults)</text><path d="M2087,1148.5156 L2160,1148.5156 L2160,1157.8066 L2150,1167.8066 L2087,1167.8066 L2087,1148.5156 " fill="#EEEEEE" style="stroke:#000000;stroke-width:1.5;"/><rect fill="none" height="80.582" style="stroke:#000000;stroke-width:1.5;" width="462" x="2087" y="1148.5156"/><text fill="#000000" font-family="sans-serif" font-size="13" font-weight="bold" lengthAdjust="spacing" textLength="28" x="2102" y="1163.5439">loop</text><text fill="#000000" font-family="sans-serif" font-size="11" font-weight="bold" lengthAdjust="spacing" textLength="201" x="2175" y="1162.3857">[for each ExamResult in examResult]</text><polygon fill="#181818" points="2426,1187.0977,2436,1191.0977,2426,1195.0977,2430,1191.0977" style="stroke:#181818;stroke-width:1.0;"/><line style="stroke:#181818;stroke-width:1.0;stroke-dasharray:2.0,2.0;" x1="2222" x2="2432" y1="1191.0977" y2="1191.0977"/><text fill="#000000" font-family="sans-serif" font-size="13" lengthAdjust="spacing" textLength="44" x="2229" y="1185.835">create()</text><polygon fill="#181818" points="501.5,1255.3887,491.5,1259.3887,501.5,1263.3887,497.5,1259.3887" style="stroke:#181818;stroke-width:1.0;"/><line style="stroke:#181818;stroke-width:1.0;stroke-dasharray:2.0,2.0;" x1="495.5" x2="2216" y1="1259.3887" y2="1259.3887"/><text fill="#000000" font-family="sans-serif" font-size="13" lengthAdjust="spacing" textLength="179" x="507.5" y="1254.126">examsGradesInCourseDTOList</text><polygon fill="#181818" points="224.5,1286.6797,214.5,1290.6797,224.5,1294.6797,220.5,1290.6797" style="stroke:#181818;stroke-width:1.0;"/><line style="stroke:#181818;stroke-width:1.0;stroke-dasharray:2.0,2.0;" x1="218.5" x2="484.5" y1="1290.6797" y2="1290.6797"/><text fill="#000000" font-family="sans-serif" font-size="13" lengthAdjust="spacing" textLength="179" x="230.5" y="1285.417">examsGradesInCourseDTOList</text><polygon fill="#181818" points="50.5,1352.5527,40.5,1356.5527,50.5,1360.5527,46.5,1356.5527" style="stroke:#181818;stroke-width:1.0;"/><line style="stroke:#181818;stroke-width:1.0;stroke-dasharray:2.0,2.0;" x1="44.5" x2="207.5" y1="1356.5527" y2="1356.5527"/><text fill="#000000" font-family="sans-serif" font-size="13" lengthAdjust="spacing" textLength="83" x="56.5" y="1316.708">show available</text><text fill="#000000" font-family="sans-serif" font-size="13" lengthAdjust="spacing" textLength="96" x="56.5" y="1333.999">grades in exams</text><text fill="#000000" font-family="sans-serif" font-size="13" lengthAdjust="spacing" textLength="53" x="56.5" y="1351.29">in course</text><!--SRC=[ZLRBRjim4BphAuXUwg9mWFQOGu0yYi90WmHvt0m4jBIsYT2aG59ErA_lyYMH4fr61yCGbxEpozcXQ6sa8az0wpqeGZNfDAYgfSgmchLK6FA7QVFhdHxqRqKRq2jnBJkbuNdbejbdOg-bC4foxZFKHl4gstRRFsFMHr17LaCayQAFTHQLa3J-RuxoQEXs-m2jr0nhwcsSDYyAN-HndjEbQ6v0rugrXabnytHtIzis47G1BmVtuZDRaqsDAMRBQTK5Le-cQq2O2NyVM6hn0-YE6vqqRTgl1zXrdAenECU60WaRwuuEImo4iiuKMbBUOeDTAsXjs94QyBgoFsHvWR8XvmGZyTKOm2g23oujCSAA16Dg1RYs-EQMXb2d818U8V6DOhkzmNWLIsIW2LMu00R_7w4XHqRNuXwKnWQ2g9qeuTsSfLj2eWRoL0EnWHT747-o-aDoBjpM4nLjQ-gKmjg3dCFs36AGFqcU0S72XG50j1sO12A3YLEIBYQbbPQpPiOaScCe4xw5nEo1R1Kzm9jKhr_rMbnsPl-NjBH-fJiWt-EOZc8xNKLevfH8md7enAIZ5t6qxNRQ8T-hVX5m2WsDFf0oYG21HtQc9Ig3bwGiCgkmN2IAVv4WJSMHMKlCmgLioHPzs1OGOWWJuP_EQATFddqvyi7HcynEwPcoiWDxAZOTYNaqYCOLKPrW5biS2i8UMHkhoi2XELcVdM4KTWUti38v9telts9GK0LPYqq_NXV5uKxbnghCewxtKbem6W_5I2SJX0LxpP6Tk-Tm8EGXSxAgu6Kylnn7lzGBZuw5bRna9ltn08Qch9gIZvmursJ_S39UhgkRwkC3dtE9KoYtAriBC_qYOfKOpUVGeKr6qMSiSWb3M5LpZ_NsggRNdhwY6fexOTlEnEvUIPINiMxlqvJyOkAzqR0WLbj8qlkoPw0PC9Jh3xXZ4J02dx9lIEmei- -DD4OUpiaJEhKEdmTlZ7E2SyLxR-3uCIRVi1baopZUmXe5ZMgmIpOpbkTIdw_5Mlmu8ojHSrHgV8rePk-2lqYnrDtcmBJ6Bw4lfFMzxS_MukT7s-WMaovhZZU4s8tRa0NRkeYmH1fRwHu_9YX7Dsjwl6Sq7kPPyNJ2d9Lwb_hu_3R1lTvqee4d40LrJDnxxk2ZBAoBZs2pSq-S-sFB7dANF3efRheyC-P9LZzkCFzaJqrsaYFrv_mRXv7_Oftyj0ekJeADqoDbd6uue2Q2oOPMMgqET-F4lFy1]--></g></svg>