<?xml version="1.0" encoding="us-ascii" standalone="no"?><svg xmlns="http://www.w3.org/2000/svg" xmlns:xlink="http://www.w3.org/1999/xlink" contentStyleType="text/css" height="1457px" preserveAspectRatio="none" style="width:2604px;height:1457px;background:#FFFFFF;" version="1.1" viewBox="0 0 2604 1457" width="2604px" zoomAndPan="magnify"><defs/><g><rect fill="#FFFFFF" height="1271.9316" style="stroke:#181818;stroke-width:1.0;" width="10" x="29.5" y="93.6211"/><rect fill="#FFFFFF" height="562.6563" style="stroke:#181818;stroke-width:1.0;" width="10" x="203.5" y="116.9121"/><rect fill="#FFFFFF" height="628.4023" style="stroke:#181818;stroke-width:1.0;" width="10" x="203.5" y="728.1504"/><rect fill="#FFFFFF" height="30" style="stroke:#181818;stroke-width:1.0;" width="10" x="480.5" y="159.8486"/><rect fill="#FFFFFF" height="446.7832" style="stroke:#181818;stroke-width:1.0;" width="10" x="480.5" y="232.7852"/><rect fill="#FFFFFF" height="531.2383" style="stroke:#181818;stroke-width:1.0;" width="10" x="480.5" y="759.4414"/><rect fill="#FFFFFF" height="30" style="stroke:#181818;stroke-width:1.0;" width="10" x="656.5" y="275.7217"/><rect fill="#FFFFFF" height="31.291" style="stroke:#181818;stroke-width:1.0;" width="10" x="778.5" y="348.6582"/><rect fill="#FFFFFF" height="31.291" style="stroke:#181818;stroke-width:1.0;" width="10" x="911.5" y="411.2402"/><rect fill="#FFFFFF" height="125.873" style="stroke:#181818;stroke-width:1.0;" width="10" x="1094" y="473.8223"/><rect fill="#FFFFFF" height="30" style="stroke:#181818;stroke-width:1.0;" width="10" x="1314" y="531.4043"/><rect fill="#FFFFFF" height="31.291" style="stroke:#181818;stroke-width:1.0;" width="10" x="1314" y="790.7324"/><rect fill="#FFFFFF" height="31.291" style="stroke:#181818;stroke-width:1.0;" width="10" x="1481" y="853.3145"/><rect fill="#FFFFFF" height="186.3281" style="stroke:#181818;stroke-width:1.0;" width="10" x="1778" y="915.8965"/><rect fill="#FFFFFF" height="77.5186" style="stroke:#181818;stroke-width:1.0;" width="10" x="2028" y="947.1875"/><rect fill="#FFFFFF" height="125.873" style="stroke:#181818;stroke-width:1.0;" width="10" x="2261" y="1133.5156"/><rect fill="#FFFFFF" height="30" style="stroke:#181818;stroke-width:1.0;" width="10" x="2487" y="1191.0977"/><rect fill="none" height="80.582" style="stroke:#000000;stroke-width:1.5;" width="450" x="972" y="488.8223"/><rect fill="none" height="80.582" style="stroke:#000000;stroke-width:1.5;" width="462" x="2136" y="1148.5156"/><line style="stroke:#181818;stroke-width:0.5;stroke-dasharray:5.0,5.0;" x1="34" x2="34" y1="83.6211" y2="1374.5527"/><line style="stroke:#181818;stroke-width:0.5;stroke-dasharray:5.0,5.0;" x1="208" x2="208" y1="83.6211" y2="1374.5527"/><line style="stroke:#181818;stroke-width:0.5;stroke-dasharray:5.0,5.0;" x1="485" x2="485" y1="83.6211" y2="1374.5527"/><line style="stroke:#181818;stroke-width:0.5;stroke-dasharray:5.0,5.0;" x1="661" x2="661" y1="83.6211" y2="1374.5527"/><line style="stroke:#181818;stroke-width:0.5;stroke-dasharray:5.0,5.0;" x1="783" x2="783" y1="83.6211" y2="1374.5527"/><line style="stroke:#181818;stroke-width:0.5;stroke-dasharray:5.0,5.0;" x1="916" x2="916" y1="83.6211" y2="1374.5527"/><line style="stroke:#181818;stroke-width:0.5;stroke-dasharray:5.0,5.0;" x1="1099" x2="1099" y1="83.6211" y2="1374.5527"/><line style="stroke:#181818;stroke-width:0.5;stroke-dasharray:5.0,5.0;" x1="1319" x2="1319" y1="83.6211" y2="1374.5527"/><line style="stroke:#181818;stroke-width:0.5;stroke-dasharray:5.0,5.0;" x1="1486" x2="1486" y1="83.6211" y2="1374.5527"/><line style="stroke:#181818;stroke-width:0.5;stroke-dasharray:5.0,5.0;" x1="1625" x2="1625" y1="83.6211" y2="1374.5527"/><line style="stroke:#181818;stroke-width:0.5;stroke-dasharray:5.0,5.0;" x1="1783" x2="1783" y1="83.6211" y2="1374.5527"/><line style="stroke:#181818;stroke-width:0.5;stroke-dasharray:5.0,5.0;" x1="2033" x2="2033" y1="83.6211" y2="1374.5527"/><line style="stroke:#181818;stroke-width:0.5;stroke-dasharray:5.0,5.0;" x1="2266" x2="2266" y1="83.6211" y2="1374.5527"/><line style="stroke:#181818;stroke-width:0.5;stroke-dasharray:5.0,5.0;" x1="2492" x2="2492" y1="83.6211" y2="1374.5527"/><text fill="#000000" font-family="sans-serif" font-size="14" lengthAdjust="spacing" textLength="53" x="5" y="80.1074">Teacher</text><ellipse cx="34.5" cy="13.5" fill="#E2E2F0" rx="8" ry="8" style="stroke:#181818;stroke-width:0.5;"/><path d="M34.5,21.5 L34.5,48.5 M21.5,29.5 L47.5,29.5 M34.5,48.5 L21.5,63.5 M34.5,48.5 L47.5,63.5 " fill="none" style="stroke:#181818;stroke-width:0.5;"/><text fill="#000000" font-family="sans-serif" font-size="14" lengthAdjust="spacing" textLength="53" x="5" y="1388.6602">Teacher</text><ellipse cx="34.5" cy="1400.6738" fill="#E2E2F0" rx="8" ry="8" style="stroke:#181818;stroke-width:0.5;"/><path d="M34.5,1408.6738 L34.5,1435.6738 M21.5,1416.6738 L47.5,1416.6738 M34.5,1435.6738 L21.5,1450.6738 M34.5,1435.6738 L47.5,1450.6738 " fill="none" style="stroke:#181818;stroke-width:0.5;"/><rect fill="#E2E2F0" height="32.6211" rx="2.5" ry="2.5" style="stroke:#181818;stroke-width:0.5;" width="193" x="112" y="50"/><text fill="#000000" font-family="sans-serif" font-size="14" lengthAdjust="spacing" textLength="179" x="119" y="72.1074">ListExamsGradesInCourseUI</text><rect fill="#E2E2F0" height="32.6211" rx="2.5" ry="2.5" style="stroke:#181818;stroke-width:0.5;" width="193" x="112" y="1373.5527"/><text fill="#000000" font-family="sans-serif" font-size="14" lengthAdjust="spacing" textLength="179" x="119" y="1395.6602">ListExamsGradesInCourseUI</text><rect fill="#E2E2F0" height="32.6211" rx="2.5" ry="2.5" style="stroke:#181818;stroke-width:0.5;" width="243" x="364" y="50"/><text fill="#000000" font-family="sans-serif" font-size="14" lengthAdjust="spacing" textLength="229" x="371" y="72.1074">ListExamsGradesInCourseController</text><rect fill="#E2E2F0" height="32.6211" rx="2.5" ry="2.5" style="stroke:#181818;stroke-width:0.5;" width="243" x="364" y="1373.5527"/><text fill="#000000" font-family="sans-serif" font-size="14" lengthAdjust="spacing" textLength="229" x="371" y="1395.6602">ListExamsGradesInCourseController</text><rect fill="#E2E2F0" height="32.6211" rx="2.5" ry="2.5" style="stroke:#181818;stroke-width:0.5;" width="89" x="617" y="50"/><text fill="#000000" font-family="sans-serif" font-size="14" lengthAdjust="spacing" textLength="75" x="624" y="72.1074">SystemUser</text><rect fill="#E2E2F0" height="32.6211" rx="2.5" ry="2.5" style="stroke:#181818;stroke-width:0.5;" width="89" x="617" y="1373.5527"/><text fill="#000000" font-family="sans-serif" font-size="14" lengthAdjust="spacing" textLength="75" x="624" y="1395.6602">SystemUser</text><rect fill="#E2E2F0" height="32.6211" rx="2.5" ry="2.5" style="stroke:#181818;stroke-width:0.5;" width="135" x="716" y="50"/><text fill="#000000" font-family="sans-serif" font-size="14" lengthAdjust="spacing" textLength="121" x="723" y="72.1074">TeacherRepository</text><rect fill="#E2E2F0" height="32.6211" rx="2.5" ry="2.5" style="stroke:#181818;stroke-width:0.5;" width="135" x="716" y="1373.5527"/><text fill="#000000" font-family="sans-serif" font-size="14" lengthAdjust="spacing" textLength="121" x="723" y="1395.6602">TeacherRepository</text><rect fill="#E2E2F0" height="32.6211" rx="2.5" ry="2.5" style="stroke:#181818;stroke-width:0.5;" width="111" x="861" y="50"/><text fill="#000000" font-family="sans-serif" font-size="14" lengthAdjust="spacing" textLength="97" x="868" y="72.1074">StaffRepository</text><rect fill="#E2E2F0" height="32.6211" rx="2.5" ry="2.5" style="stroke:#181818;stroke-width:0.5;" width="111" x="861" y="1373.5527"/><text fill="#000000" font-family="sans-serif" font-size="14" lengthAdjust="spacing" textLength="97" x="868" y="1395.6602">StaffRepository</text><rect fill="#E2E2F0" height="32.6211" rx="2.5" ry="2.5" style="stroke:#181818;stroke-width:0.5;" width="234" x="982" y="50"/><text fill="#000000" font-family="sans-serif" font-size="14" lengthAdjust="spacing" textLength="220" x="989" y="72.1074">CourseAndDescriptionDTOMapper</text><rect fill="#E2E2F0" height="32.6211" rx="2.5" ry="2.5" style="stroke:#181818;stroke-width:0.5;" width="234" x="982" y="1373.5527"/><text fill="#000000" font-family="sans-serif" font-size="14" lengthAdjust="spacing" textLength="220" x="989" y="1395.6602">CourseAndDescriptionDTOMapper</text><rect fill="#E2E2F0" height="32.6211" rx="2.5" ry="2.5" style="stroke:#181818;stroke-width:0.5;" width="186" x="1226" y="50"/><text fill="#000000" font-family="sans-serif" font-size="14" lengthAdjust="spacing" textLength="172" x="1233" y="72.1074">CourseAndDescriptionDTO</text><rect fill="#E2E2F0" height="32.6211" rx="2.5" ry="2.5" style="stroke:#181818;stroke-width:0.5;" width="186" x="1226" y="1373.5527"/><text fill="#000000" font-family="sans-serif" font-size="14" lengthAdjust="spacing" textLength="172" x="1233" y="1395.6602">CourseAndDescriptionDTO</text><rect fill="#E2E2F0" height="32.6211" rx="2.5" ry="2.5" style="stroke:#181818;stroke-width:0.5;" width="128" x="1422" y="50"/><text fill="#000000" font-family="sans-serif" font-size="14" lengthAdjust="spacing" textLength="114" x="1429" y="72.1074">CourseRepository</text><rect fill="#E2E2F0" height="32.6211" rx="2.5" ry="2.5" style="stroke:#181818;stroke-width:0.5;" width="128" x="1422" y="1373.5527"/><text fill="#000000" font-family="sans-serif" font-size="14" lengthAdjust="spacing" textLength="114" x="1429" y="1395.6602">CourseRepository</text><rect fill="#E2E2F0" height="32.6211" rx="2.5" ry="2.5" style="stroke:#181818;stroke-width:0.5;" width="131" x="1560" y="50"/><text fill="#000000" font-family="sans-serif" font-size="14" lengthAdjust="spacing" textLength="117" x="1567" y="72.1074">StudentRepository</text><rect fill="#E2E2F0" height="32.6211" rx="2.5" ry="2.5" style="stroke:#181818;stroke-width:0.5;" width="131" x="1560" y="1373.5527"/><text fill="#000000" font-family="sans-serif" font-size="14" lengthAdjust="spacing" textLength="117" x="1567" y="1395.6602">StudentRepository</text><rect fill="#E2E2F0" height="32.6211" rx="2.5" ry="2.5" style="stroke:#181818;stroke-width:0.5;" width="164" x="1701" y="50"/><text fill="#000000" font-family="sans-serif" font-size="14" lengthAdjust="spacing" textLength="150" x="1708" y="72.1074">ListExamResultsService</text><rect fill="#E2E2F0" height="32.6211" rx="2.5" ry="2.5" style="stroke:#181818;stroke-width:0.5;" width="164" x="1701" y="1373.5527"/><text fill="#000000" font-family="sans-serif" font-size="14" lengthAdjust="spacing" textLength="150" x="1708" y="1395.6602">ListExamResultsService</text><rect fill="#E2E2F0" height="32.6211" rx="2.5" ry="2.5" style="stroke:#181818;stroke-width:0.5;" width="206" x="1930" y="50"/><text fill="#000000" font-family="sans-serif" font-size="14" lengthAdjust="spacing" textLength="192" x="1937" y="72.1074">RegularExamResultRepository</text><rect fill="#E2E2F0" height="32.6211" rx="2.5" ry="2.5" style="stroke:#181818;stroke-width:0.5;" width="206" x="1930" y="1373.5527"/><text fill="#000000" font-family="sans-serif" font-size="14" lengthAdjust="spacing" textLength="192" x="1937" y="1395.6602">RegularExamResultRepository</text><rect fill="#E2E2F0" height="32.6211" rx="2.5" ry="2.5" style="stroke:#181818;stroke-width:0.5;" width="240" x="2146" y="50"/><text fill="#000000" font-family="sans-serif" font-size="14" lengthAdjust="spacing" textLength="226" x="2153" y="72.1074">ExamGradeAndStudentDTOMapper</text><rect fill="#E2E2F0" height="32.6211" rx="2.5" ry="2.5" style="stroke:#181818;stroke-width:0.5;" width="240" x="2146" y="1373.5527"/><text fill="#000000" font-family="sans-serif" font-size="14" lengthAdjust="spacing" textLength="226" x="2153" y="1395.6602">ExamGradeAndStudentDTOMapper</text><rect fill="#E2E2F0" height="32.6211" rx="2.5" ry="2.5" style="stroke:#181818;stroke-width:0.5;" width="192" x="2396" y="50"/><text fill="#000000" font-family="sans-serif" font-size="14" lengthAdjust="spacing" textLength="178" x="2403" y="72.1074">ExamGradeAndStudentDTO</text><rect fill="#E2E2F0" height="32.6211" rx="2.5" ry="2.5" style="stroke:#181818;stroke-width:0.5;" width="192" x="2396" y="1373.5527"/><text fill="#000000" font-family="sans-serif" font-size="14" lengthAdjust="spacing" textLength="178" x="2403" y="1395.6602">ExamGradeAndStudentDTO</text><rect fill="#FFFFFF" height="1271.9316" style="stroke:#181818;stroke-width:1.0;" width="10" x="29.5" y="93.6211"/><rect fill="#FFFFFF" height="562.6563" style="stroke:#181818;stroke-width:1.0;" width="10" x="203.5" y="116.9121"/><rect fill="#FFFFFF" height="628.4023" style="stroke:#181818;stroke-width:1.0;" width="10" x="203.5" y="728.1504"/><rect fill="#FFFFFF" height="30" style="stroke:#181818;stroke-width:1.0;" width="10" x="480.5" y="159.8486"/><rect fill="#FFFFFF" height="446.7832" style="stroke:#181818;stroke-width:1.0;" width="10" x="480.5" y="232.7852"/><rect fill="#FFFFFF" height="531.2383" style="stroke:#181818;stroke-width:1.0;" width="10" x="480.5" y="759.4414"/><rect fill="#FFFFFF" height="30" style="stroke:#181818;stroke-width:1.0;" width="10" x="656.5" y="275.7217"/><rect fill="#FFFFFF" height="31.291" style="stroke:#181818;stroke-width:1.0;" width="10" x="778.5" y="348.6582"/><rect fill="#FFFFFF" height="31.291" style="stroke:#181818;stroke-width:1.0;" width="10" x="911.5" y="411.2402"/><rect fill="#FFFFFF" height="125.873" style="stroke:#181818;stroke-width:1.0;" width="10" x="1094" y="473.8223"/><rect fill="#FFFFFF" height="30" style="stroke:#181818;stroke-width:1.0;" width="10" x="1314" y="531.4043"/><rect fill="#FFFFFF" height="31.291" style="stroke:#181818;stroke-width:1.0;" width="10" x="1314" y="790.7324"/><rect fill="#FFFFFF" height="31.291" style="stroke:#181818;stroke-width:1.0;" width="10" x="1481" y="853.3145"/><rect fill="#FFFFFF" height="186.3281" style="stroke:#181818;stroke-width:1.0;" width="10" x="1778" y="915.8965"/><rect fill="#FFFFFF" height="77.5186" style="stroke:#181818;stroke-width:1.0;" width="10" x="2028" y="947.1875"/><rect fill="#FFFFFF" height="125.873" style="stroke:#181818;stroke-width:1.0;" width="10" x="2261" y="1133.5156"/><rect fill="#FFFFFF" height="30" style="stroke:#181818;stroke-width:1.0;" width="10" x="2487" y="1191.0977"/><polygon fill="#181818" points="191.5,112.9121,201.5,116.9121,191.5,120.9121,195.5,116.9121" style="stroke:#181818;stroke-width:1.0;"/><line style="stroke:#181818;stroke-width:1.0;" x1="39.5" x2="197.5" y1="116.9121" y2="116.9121"/><text fill="#000000" font-family="sans-serif" font-size="13" lengthAdjust="spacing" textLength="29" x="46.5" y="111.6494">enter</text><polygon fill="#181818" points="468.5,155.8486,478.5,159.8486,468.5,163.8486,472.5,159.8486" style="stroke:#181818;stroke-width:1.0;"/><line style="stroke:#181818;stroke-width:1.0;stroke-dasharray:2.0,2.0;" x1="213.5" x2="474.5" y1="159.8486" y2="159.8486"/><text fill="#000000" font-family="sans-serif" font-size="13" lengthAdjust="spacing" textLength="44" x="220.5" y="154.5859">create()</text><path d="M495,129.9121 L495,173.9121 L709,173.9121 L709,139.9121 L699,129.9121 L495,129.9121 " fill="#FEFFDD" style="stroke:#181818;stroke-width:0.5;"/><path d="M699,129.9121 L699,139.9121 L709,139.9121 L699,129.9121 " fill="#FEFFDD" style="stroke:#181818;stroke-width:0.5;"/><text fill="#000000" font-family="sans-serif" font-size="13" lengthAdjust="spacing" textLength="160" x="501" y="148.9404">repositories are retrieved via</text><text fill="#000000" font-family="sans-serif" font-size="13" lengthAdjust="spacing" textLength="193" x="501" y="166.2314">PersistenceContext.repositories()</text><polygon fill="#181818" points="468.5,228.7852,478.5,232.7852,468.5,236.7852,472.5,232.7852" style="stroke:#181818;stroke-width:1.0;"/><line style="stroke:#181818;stroke-width:1.0;" x1="213.5" x2="474.5" y1="232.7852" y2="232.7852"/><text fill="#000000" font-family="sans-serif" font-size="13" lengthAdjust="spacing" textLength="73" x="220.5" y="227.5225">listCourses()</text><polygon fill="#181818" points="644.5,271.7217,654.5,275.7217,644.5,279.7217,648.5,275.7217" style="stroke:#181818;stroke-width:1.0;"/><line style="stroke:#181818;stroke-width:1.0;" x1="490.5" x2="650.5" y1="275.7217" y2="275.7217"/><text fill="#000000" font-family="sans-serif" font-size="13" lengthAdjust="spacing" textLength="53" x="497.5" y="270.459">getUser()</text><path d="M671,245.7852 L671,289.7852 L873,289.7852 L873,255.7852 L863,245.7852 L671,245.7852 " fill="#FEFFDD" style="stroke:#181818;stroke-width:0.5;"/><path d="M863,245.7852 L863,255.7852 L873,255.7852 L863,245.7852 " fill="#FEFFDD" style="stroke:#181818;stroke-width:0.5;"/><text fill="#000000" font-family="sans-serif" font-size="13" lengthAdjust="spacing" textLength="134" x="677" y="264.8135">sysUser is obtained via</text><text fill="#000000" font-family="sans-serif" font-size="13" lengthAdjust="spacing" textLength="181" x="677" y="282.1045">the framework's Authz package</text><polygon fill="#181818" points="766.5,344.6582,776.5,348.6582,766.5,352.6582,770.5,348.6582" style="stroke:#181818;stroke-width:1.0;"/><line style="stroke:#181818;stroke-width:1.0;" x1="490.5" x2="772.5" y1="348.6582" y2="348.6582"/><text fill="#000000" font-family="sans-serif" font-size="13" lengthAdjust="spacing" textLength="159" x="497.5" y="343.3955">findBySystemUser(teacher)</text><polygon fill="#181818" points="501.5,375.9492,491.5,379.9492,501.5,383.9492,497.5,379.9492" style="stroke:#181818;stroke-width:1.0;"/><line style="stroke:#181818;stroke-width:1.0;" x1="495.5" x2="782.5" y1="379.9492" y2="379.9492"/><text fill="#000000" font-family="sans-serif" font-size="13" lengthAdjust="spacing" textLength="43" x="507.5" y="374.6865">teacher</text><polygon fill="#181818" points="899.5,407.2402,909.5,411.2402,899.5,415.2402,903.5,411.2402" style="stroke:#181818;stroke-width:1.0;"/><line style="stroke:#181818;stroke-width:1.0;" x1="490.5" x2="905.5" y1="411.2402" y2="411.2402"/><text fill="#000000" font-family="sans-serif" font-size="13" lengthAdjust="spacing" textLength="103" x="497.5" y="405.9775">taughtBy(teacher)</text><polygon fill="#181818" points="501.5,438.5313,491.5,442.5313,501.5,446.5313,497.5,442.5313" style="stroke:#181818;stroke-width:1.0;"/><line style="stroke:#181818;stroke-width:1.0;" x1="495.5" x2="915.5" y1="442.5313" y2="442.5313"/><text fill="#000000" font-family="sans-serif" font-size="13" lengthAdjust="spacing" textLength="65" x="507.5" y="437.2686">listCourses</text><polygon fill="#181818" points="1082,469.8223,1092,473.8223,1082,477.8223,1086,473.8223" style="stroke:#181818;stroke-width:1.0;"/><line style="stroke:#181818;stroke-width:1.0;" x1="490.5" x2="1088" y1="473.8223" y2="473.8223"/><text fill="#000000" font-family="sans-serif" font-size="13" lengthAdjust="spacing" textLength="110" x="497.5" y="468.5596">toDTO(listCourses)</text><path d="M972,488.8223 L1045,488.8223 L1045,498.1133 L1035,508.1133 L972,508.1133 L972,488.8223 " fill="#EEEEEE" style="stroke:#000000;stroke-width:1.5;"/><rect fill="none" height="80.582" style="stroke:#000000;stroke-width:1.5;" width="450" x="972" y="488.8223"/><text fill="#000000" font-family="sans-serif" font-size="13" font-weight="bold" lengthAdjust="spacing" textLength="28" x="987" y="503.8506">loop</text><text fill="#000000" font-family="sans-serif" font-size="11" font-weight="bold" lengthAdjust="spacing" textLength="157" x="1060" y="502.6924">[for each course in courses]</text><polygon fill="#181818" points="1302,527.4043,1312,531.4043,1302,535.4043,1306,531.4043" style="stroke:#181818;stroke-width:1.0;"/><line style="stroke:#181818;stroke-width:1.0;stroke-dasharray:2.0,2.0;" x1="1104" x2="1308" y1="531.4043" y2="531.4043"/><text fill="#000000" font-family="sans-serif" font-size="13" lengthAdjust="spacing" textLength="44" x="1111" y="526.1416">create()</text><polygon fill="#181818" points="501.5,595.6953,491.5,599.6953,501.5,603.6953,497.5,599.6953" style="stroke:#181818;stroke-width:1.0;"/><line style="stroke:#181818;stroke-width:1.0;" x1="495.5" x2="1098" y1="599.6953" y2="599.6953"/><text fill="#000000" font-family="sans-serif" font-size="13" lengthAdjust="spacing" textLength="93" x="507.5" y="594.4326">coursesDTOList</text><polygon fill="#181818" points="224.5,626.9863,214.5,630.9863,224.5,634.9863,220.5,630.9863" style="stroke:#181818;stroke-width:1.0;"/><line style="stroke:#181818;stroke-width:1.0;" x1="218.5" x2="479.5" y1="630.9863" y2="630.9863"/><text fill="#000000" font-family="sans-serif" font-size="13" lengthAdjust="spacing" textLength="93" x="230.5" y="625.7236">coursesDTOList</text><polygon fill="#181818" points="50.5,675.5684,40.5,679.5684,50.5,683.5684,46.5,679.5684" style="stroke:#181818;stroke-width:1.0;"/><line style="stroke:#181818;stroke-width:1.0;stroke-dasharray:2.0,2.0;" x1="44.5" x2="207.5" y1="679.5684" y2="679.5684"/><text fill="#000000" font-family="sans-serif" font-size="13" lengthAdjust="spacing" textLength="120" x="56.5" y="657.0146">show courses taught</text><text fill="#000000" font-family="sans-serif" font-size="13" lengthAdjust="spacing" textLength="61" x="56.5" y="674.3057">by teacher</text><polygon fill="#181818" points="191.5,724.1504,201.5,728.1504,191.5,732.1504,195.5,728.1504" style="stroke:#181818;stroke-width:1.0;"/><line style="stroke:#181818;stroke-width:1.0;" x1="39.5" x2="197.5" y1="728.1504" y2="728.1504"/><text fill="#000000" font-family="sans-serif" font-size="13" lengthAdjust="spacing" textLength="141" x="46.5" y="705.5967">Chooses a course to list</text><text fill="#000000" font-family="sans-serif" font-size="13" lengthAdjust="spacing" textLength="111" x="46.5" y="722.8877">exams grades from</text><polygon fill="#181818" points="468.5,755.4414,478.5,759.4414,468.5,763.4414,472.5,759.4414" style="stroke:#181818;stroke-width:1.0;"/><line style="stroke:#181818;stroke-width:1.0;stroke-dasharray:2.0,2.0;" x1="213.5" x2="474.5" y1="759.4414" y2="759.4414"/><text fill="#000000" font-family="sans-serif" font-size="13" lengthAdjust="spacing" textLength="248" x="220.5" y="754.1787">listExamsGradesAndStudents(courseDTO)</text><polygon fill="#181818" points="1302,786.7324,1312,790.7324,1302,794.7324,1306,790.7324" style="stroke:#181818;stroke-width:1.0;"/><line style="stroke:#181818;stroke-width:1.0;" x1="490.5" x2="1308" y1="790.7324" y2="790.7324"/><text fill="#000000" font-family="sans-serif" font-size="13" lengthAdjust="spacing" textLength="57" x="497.5" y="785.4697">courseId()</text><polygon fill="#181818" points="501.5,818.0234,491.5,822.0234,501.5,826.0234,497.5,822.0234" style="stroke:#181818;stroke-width:1.0;"/><line style="stroke:#181818;stroke-width:1.0;" x1="495.5" x2="1318" y1="822.0234" y2="822.0234"/><text fill="#000000" font-family="sans-serif" font-size="13" lengthAdjust="spacing" textLength="53" x="507.5" y="816.7607">CourseID</text><polygon fill="#181818" points="1469,849.3145,1479,853.3145,1469,857.3145,1473,853.3145" style="stroke:#181818;stroke-width:1.0;"/><line style="stroke:#181818;stroke-width:1.0;" x1="490.5" x2="1475" y1="853.3145" y2="853.3145"/><text fill="#000000" font-family="sans-serif" font-size="13" lengthAdjust="spacing" textLength="113" x="497.5" y="848.0518">ofIdentity(CourseID)</text><polygon fill="#181818" points="501.5,880.6055,491.5,884.6055,501.5,888.6055,497.5,884.6055" style="stroke:#181818;stroke-width:1.0;"/><line style="stroke:#181818;stroke-width:1.0;" x1="495.5" x2="1485" y1="884.6055" y2="884.6055"/><text fill="#000000" font-family="sans-serif" font-size="13" lengthAdjust="spacing" textLength="39" x="507.5" y="879.3428">course</text><polygon fill="#181818" points="1766,911.8965,1776,915.8965,1766,919.8965,1770,915.8965" style="stroke:#181818;stroke-width:1.0;"/><line style="stroke:#181818;stroke-width:1.0;stroke-dasharray:2.0,2.0;" x1="490.5" x2="1772" y1="915.8965" y2="915.8965"/><text fill="#000000" font-family="sans-serif" font-size="13" lengthAdjust="spacing" textLength="322" x="497.5" y="910.6338">regularExamResultsBasedOnGradingProperties(course)</text><polygon fill="#181818" points="2016,943.1875,2026,947.1875,2016,951.1875,2020,947.1875" style="stroke:#181818;stroke-width:1.0;"/><line style="stroke:#181818;stroke-width:1.0;stroke-dasharray:2.0,2.0;" x1="1788" x2="2022" y1="947.1875" y2="947.1875"/><text fill="#000000" font-family="sans-serif" font-size="13" lengthAdjust="spacing" textLength="221" x="1795" y="941.9248">regularExamResultsByCourse(course)</text><polygon fill="#181818" points="1799,1020.7061,1789,1024.7061,1799,1028.7061,1795,1024.7061" style="stroke:#181818;stroke-width:1.0;"/><line style="stroke:#181818;stroke-width:1.0;stroke-dasharray:2.0,2.0;" x1="1793" x2="2032" y1="1024.7061" y2="1024.7061"/><text fill="#000000" font-family="sans-serif" font-size="13" lengthAdjust="spacing" textLength="76" x="1805" y="1019.4434">examResults</text><path d="M1451,960.1875 L1451,1073.1875 L1773,1073.1875 L1773,970.1875 L1763,960.1875 L1451,960.1875 " fill="#FEFFDD" style="stroke:#181818;stroke-width:0.5;"/><path d="M1763,960.1875 L1763,970.1875 L1773,970.1875 L1763,960.1875 " fill="#FEFFDD" style="stroke:#181818;stroke-width:0.5;"/><text fill="#000000" font-family="sans-serif" font-size="13" lengthAdjust="spacing" textLength="232" x="1457" y="979.2158">The service will apply the following filters</text><text fill="#000000" font-family="sans-serif" font-size="13" lengthAdjust="spacing" textLength="116" x="1457" y="996.5068">to the exam results:</text><text fill="#000000" font-family="sans-serif" font-size="13" lengthAdjust="spacing" textLength="4" x="1457" y="1013.7979">&#160;</text><text fill="#000000" font-family="sans-serif" font-size="13" lengthAdjust="spacing" textLength="301" x="1457" y="1031.0889">1. Include results with the "on-submission" property.</text><text fill="#000000" font-family="sans-serif" font-size="13" lengthAdjust="spacing" textLength="283" x="1457" y="1048.3799">2. Include results with the "after-closing" property</text><text fill="#000000" font-family="sans-serif" font-size="13" lengthAdjust="spacing" textLength="223" x="1457" y="1065.6709">if the closing date has already passed.</text><polygon fill="#181818" points="501.5,1098.2246,491.5,1102.2246,501.5,1106.2246,497.5,1102.2246" style="stroke:#181818;stroke-width:1.0;"/><line style="stroke:#181818;stroke-width:1.0;stroke-dasharray:2.0,2.0;" x1="495.5" x2="1782" y1="1102.2246" y2="1102.2246"/><text fill="#000000" font-family="sans-serif" font-size="13" lengthAdjust="spacing" textLength="76" x="507.5" y="1096.9619">examResults</text><polygon fill="#181818" points="2249,1129.5156,2259,1133.5156,2249,1137.5156,2253,1133.5156" style="stroke:#181818;stroke-width:1.0;"/><line style="stroke:#181818;stroke-width:1.0;stroke-dasharray:2.0,2.0;" x1="490.5" x2="2255" y1="1133.5156" y2="1133.5156"/><text fill="#000000" font-family="sans-serif" font-size="13" lengthAdjust="spacing" textLength="121" x="497.5" y="1128.2529">toDTO(examResults)</text><path d="M2136,1148.5156 L2209,1148.5156 L2209,1157.8066 L2199,1167.8066 L2136,1167.8066 L2136,1148.5156 " fill="#EEEEEE" style="stroke:#000000;stroke-width:1.5;"/><rect fill="none" height="80.582" style="stroke:#000000;stroke-width:1.5;" width="462" x="2136" y="1148.5156"/><text fill="#000000" font-family="sans-serif" font-size="13" font-weight="bold" lengthAdjust="spacing" textLength="28" x="2151" y="1163.5439">loop</text><text fill="#000000" font-family="sans-serif" font-size="11" font-weight="bold" lengthAdjust="spacing" textLength="201" x="2224" y="1162.3857">[for each ExamResult in examResult]</text><polygon fill="#181818" points="2475,1187.0977,2485,1191.0977,2475,1195.0977,2479,1191.0977" style="stroke:#181818;stroke-width:1.0;"/><line style="stroke:#181818;stroke-width:1.0;stroke-dasharray:2.0,2.0;" x1="2271" x2="2481" y1="1191.0977" y2="1191.0977"/><text fill="#000000" font-family="sans-serif" font-size="13" lengthAdjust="spacing" textLength="44" x="2278" y="1185.835">create()</text><polygon fill="#181818" points="501.5,1255.3887,491.5,1259.3887,501.5,1263.3887,497.5,1259.3887" style="stroke:#181818;stroke-width:1.0;"/><line style="stroke:#181818;stroke-width:1.0;stroke-dasharray:2.0,2.0;" x1="495.5" x2="2265" y1="1259.3887" y2="1259.3887"/><text fill="#000000" font-family="sans-serif" font-size="13" lengthAdjust="spacing" textLength="179" x="507.5" y="1254.126">examsGradesInCourseDTOList</text><polygon fill="#181818" points="224.5,1286.6797,214.5,1290.6797,224.5,1294.6797,220.5,1290.6797" style="stroke:#181818;stroke-width:1.0;"/><line style="stroke:#181818;stroke-width:1.0;stroke-dasharray:2.0,2.0;" x1="218.5" x2="484.5" y1="1290.6797" y2="1290.6797"/><text fill="#000000" font-family="sans-serif" font-size="13" lengthAdjust="spacing" textLength="179" x="230.5" y="1285.417">examsGradesInCourseDTOList</text><polygon fill="#181818" points="50.5,1352.5527,40.5,1356.5527,50.5,1360.5527,46.5,1356.5527" style="stroke:#181818;stroke-width:1.0;"/><line style="stroke:#181818;stroke-width:1.0;stroke-dasharray:2.0,2.0;" x1="44.5" x2="207.5" y1="1356.5527" y2="1356.5527"/><text fill="#000000" font-family="sans-serif" font-size="13" lengthAdjust="spacing" textLength="83" x="56.5" y="1316.708">show available</text><text fill="#000000" font-family="sans-serif" font-size="13" lengthAdjust="spacing" textLength="96" x="56.5" y="1333.999">grades in exams</text><text fill="#000000" font-family="sans-serif" font-size="13" lengthAdjust="spacing" textLength="53" x="56.5" y="1351.29">in course</text><!--SRC=[ZLRBRjim4BphAuXSwXvie3tcKA19Yi90YmHvt0m4jBIsYT2amAMSg5_V9KL9f4GRqI5mfDdTsTUGlBJQi6VWvG4CuyWQ15FKt5XHYfeho_u8jBy- -15_6ru1hjMjRWp2ozgZnMUmjrfPewNi8fJMoA98x9vQj71ymGw0BRusQ598eFW8jKP1d5k7jA-6_azTMRxRfIWCi0JNCVkfgZl0qeZQ2gtkdk__yheED3tWzUXVVCOqCgfiDbfAgyomUh9D1SfE-C-px0lz2DX8YqzWJg843pwL2V8HzetaPWIdlY53mc5z0od5G2YfJAOaUHC7zgNWfHKdRg6RBlU7BN_GyB1hHaXwDG94mUYXJqj2k54XJ6c0lYs- -ay3rCyH2u_IzCQ8_S4ItlGf2a363Nq0IxzFKB6Ju1lr00QfWA1AFvhmOLUnIGXKGHfg83RmakIawonU9EVXP1O6coptODsq1wl4ifz-5Zr9TWJmcoAGwQtbGlLfsGEmdU57UDVcxGkoduqz_6CrBz_u7WP_KLh3eas9TWj3iNP2LJVjk9uBswrXXdTOifXsS3CMB5ZdkFGxEglPmCNoXWfmqrxWW1aIcB98kfOjIioaPv68WUEYQRmNaQTf-nFnwAD8hMks8xrr2GGC4ohymeHs_AJHboCVMgx9TkIUAIktakUmyT3FqQ0gdqHnXbbVuf0GrSW9LP5t78gJrDbBGiOww85J3bg0WtxlGM4gs4Pjss6yykiRlI2LILJezg2rSyRxfbZjnuJSWZlEsDwVPxHT-fXeLP5HAvaUWgCYugBpJedbr68s-cC3XgAigvnadEbhP3zqfXlNzLrnkU5pBlqMwjtQvI9ik-XzvHZDzz1xcwnY5p7B9InXCQNY9E5KUf6V76numn6gU-NABjJ-mMWQB-lql0kJqmiwB1Ej8Cyk0lJPPeAqNTepfubZoESV_8v9mEYuEBE6C176uJpOQclryPeza-nZk02y2oaPxPMaPN2d0Lswz3iLWuHSqZcBDD0q3UwJYqpf-T3N6xLHtrPihKf9azg_9c_suC5NMYsnsHu58jrrhbZTrRPTRTJtIsPyHq6NfQIZLUr7Cs8XTXuHFh7APNgWwmANf6PLIwSMKZDNsUw4FSlLBjPnwkryTZhHwGKySf6PZebwpnLy70kdugEpMTyZvRuisKFid4P7oKq_puHv4hLRDvXVpMEHdSI8zJcfONTlk-phxEKfg3WBCivFN4Y-bK0p4KGsbDBDwd0sJiJxFm00]--></g></svg>