<?xml version="1.0" encoding="us-ascii" standalone="no"?><svg xmlns="http://www.w3.org/2000/svg" xmlns:xlink="http://www.w3.org/1999/xlink" contentStyleType="text/css" height="1475px" preserveAspectRatio="none" style="width:2637px;height:1475px;background:#1B1B1B;" version="1.1" viewBox="0 0 2637 1475" width="2637px" zoomAndPan="magnify"><defs/><g><rect fill="#1B1B1B" height="1475" style="stroke:none;stroke-width:1.0;" width="2637" x="0" y="0"/><rect fill="#000000" height="1288.9467" style="stroke:#E7E7E7;stroke-width:1.0;" width="10" x="30" y="94.0679"/><rect fill="#000000" height="569.2963" style="stroke:#E7E7E7;stroke-width:1.0;" width="10" x="202" y="117.7739"/><rect fill="#000000" height="637.5324" style="stroke:#E7E7E7;stroke-width:1.0;" width="10" x="202" y="736.4822"/><rect fill="#000000" height="30" style="stroke:#E7E7E7;stroke-width:1.0;" width="10" x="481" y="161.333"/><rect fill="#000000" height="452.1782" style="stroke:#E7E7E7;stroke-width:1.0;" width="10" x="481" y="234.892"/><rect fill="#000000" height="538.7083" style="stroke:#E7E7E7;stroke-width:1.0;" width="10" x="481" y="768.1882"/><rect fill="#000000" height="117.118" style="stroke:#E7E7E7;stroke-width:1.0;" width="10" x="675.5" y="266.598"/><rect fill="#000000" height="30" style="stroke:#E7E7E7;stroke-width:1.0;" width="10" x="776" y="310.157"/><rect fill="#000000" height="31.706" style="stroke:#E7E7E7;stroke-width:1.0;" width="10" x="878" y="415.4221"/><rect fill="#000000" height="127.118" style="stroke:#E7E7E7;stroke-width:1.0;" width="10" x="1069.5" y="478.8341"/><rect fill="#000000" height="30" style="stroke:#E7E7E7;stroke-width:1.0;" width="10" x="1300" y="537.2461"/><rect fill="#000000" height="31.706" style="stroke:#E7E7E7;stroke-width:1.0;" width="10" x="1300" y="799.8943"/><rect fill="#000000" height="31.706" style="stroke:#E7E7E7;stroke-width:1.0;" width="10" x="1473" y="863.3063"/><rect fill="#000000" height="189.6481" style="stroke:#E7E7E7;stroke-width:1.0;" width="10" x="1782" y="926.7183"/><rect fill="#000000" height="78.9711" style="stroke:#E7E7E7;stroke-width:1.0;" width="10" x="2035" y="958.4243"/><rect fill="#000000" height="127.118" style="stroke:#E7E7E7;stroke-width:1.0;" width="10" x="2279.5" y="1148.0725"/><rect fill="#000000" height="30" style="stroke:#E7E7E7;stroke-width:1.0;" width="10" x="2516" y="1206.4845"/><rect fill="none" height="81.412" style="stroke:#FFFFFF;stroke-width:1.5;" width="471" x="941" y="493.8341"/><rect fill="none" height="81.412" style="stroke:#FFFFFF;stroke-width:1.5;" width="483" x="2148" y="1163.0725"/><line style="stroke:#E7E7E7;stroke-width:0.5;stroke-dasharray:5.0,5.0;" x1="35" x2="35" y1="84.0679" y2="1392.0146"/><line style="stroke:#E7E7E7;stroke-width:0.5;stroke-dasharray:5.0,5.0;" x1="207" x2="207" y1="84.0679" y2="1392.0146"/><line style="stroke:#E7E7E7;stroke-width:0.5;stroke-dasharray:5.0,5.0;" x1="486" x2="486" y1="84.0679" y2="1392.0146"/><line style="stroke:#E7E7E7;stroke-width:0.5;stroke-dasharray:5.0,5.0;" x1="680" x2="680" y1="84.0679" y2="1392.0146"/><line style="stroke:#E7E7E7;stroke-width:0.5;stroke-dasharray:5.0,5.0;" x1="781" x2="781" y1="84.0679" y2="1392.0146"/><line style="stroke:#E7E7E7;stroke-width:0.5;stroke-dasharray:5.0,5.0;" x1="883" x2="883" y1="84.0679" y2="1392.0146"/><line style="stroke:#E7E7E7;stroke-width:0.5;stroke-dasharray:5.0,5.0;" x1="1074" x2="1074" y1="84.0679" y2="1392.0146"/><line style="stroke:#E7E7E7;stroke-width:0.5;stroke-dasharray:5.0,5.0;" x1="1305" x2="1305" y1="84.0679" y2="1392.0146"/><line style="stroke:#E7E7E7;stroke-width:0.5;stroke-dasharray:5.0,5.0;" x1="1478" x2="1478" y1="84.0679" y2="1392.0146"/><line style="stroke:#E7E7E7;stroke-width:0.5;stroke-dasharray:5.0,5.0;" x1="1623" x2="1623" y1="84.0679" y2="1392.0146"/><line style="stroke:#E7E7E7;stroke-width:0.5;stroke-dasharray:5.0,5.0;" x1="1787" x2="1787" y1="84.0679" y2="1392.0146"/><line style="stroke:#E7E7E7;stroke-width:0.5;stroke-dasharray:5.0,5.0;" x1="2040" x2="2040" y1="84.0679" y2="1392.0146"/><line style="stroke:#E7E7E7;stroke-width:0.5;stroke-dasharray:5.0,5.0;" x1="2284" x2="2284" y1="84.0679" y2="1392.0146"/><line style="stroke:#E7E7E7;stroke-width:0.5;stroke-dasharray:5.0,5.0;" x1="2521" x2="2521" y1="84.0679" y2="1392.0146"/><text fill="#FFFFFF" font-family="sans-serif" font-size="14" lengthAdjust="spacing" textLength="54" x="5" y="79.9659">Teacher</text><ellipse cx="35" cy="13.5" fill="#222222" rx="8" ry="8" style="stroke:#E7E7E7;stroke-width:0.5;"/><path d="M35,21.5 L35,48.5 M22,29.5 L48,29.5 M35,48.5 L22,63.5 M35,48.5 L48,63.5 " fill="none" style="stroke:#E7E7E7;stroke-width:0.5;"/><text fill="#FFFFFF" font-family="sans-serif" font-size="14" lengthAdjust="spacing" textLength="54" x="5" y="1405.9805">Teacher</text><ellipse cx="35" cy="1418.5825" fill="#222222" rx="8" ry="8" style="stroke:#E7E7E7;stroke-width:0.5;"/><path d="M35,1426.5825 L35,1453.5825 M22,1434.5825 L48,1434.5825 M35,1453.5825 L22,1468.5825 M35,1453.5825 L48,1468.5825 " fill="none" style="stroke:#E7E7E7;stroke-width:0.5;"/><rect fill="#222222" height="33.0679" rx="2.5" ry="2.5" style="stroke:#E7E7E7;stroke-width:0.5;" width="204" x="105" y="50"/><text fill="#FFFFFF" font-family="sans-serif" font-size="14" lengthAdjust="spacing" textLength="190" x="112" y="71.9659">ListExamsGradesInCourseUI</text><rect fill="#222222" height="33.0679" rx="2.5" ry="2.5" style="stroke:#E7E7E7;stroke-width:0.5;" width="204" x="105" y="1391.0146"/><text fill="#FFFFFF" font-family="sans-serif" font-size="14" lengthAdjust="spacing" textLength="190" x="112" y="1412.9805">ListExamsGradesInCourseUI</text><rect fill="#222222" height="33.0679" rx="2.5" ry="2.5" style="stroke:#E7E7E7;stroke-width:0.5;" width="256" x="358" y="50"/><text fill="#FFFFFF" font-family="sans-serif" font-size="14" lengthAdjust="spacing" textLength="242" x="365" y="71.9659">ListExamsGradesInCourseController</text><rect fill="#222222" height="33.0679" rx="2.5" ry="2.5" style="stroke:#E7E7E7;stroke-width:0.5;" width="256" x="358" y="1391.0146"/><text fill="#FFFFFF" font-family="sans-serif" font-size="14" lengthAdjust="spacing" textLength="242" x="365" y="1412.9805">ListExamsGradesInCourseController</text><rect fill="#222222" height="33.0679" rx="2.5" ry="2.5" style="stroke:#E7E7E7;stroke-width:0.5;" width="113" x="624" y="50"/><text fill="#FFFFFF" font-family="sans-serif" font-size="14" lengthAdjust="spacing" textLength="99" x="631" y="71.9659">MyUserService</text><rect fill="#222222" height="33.0679" rx="2.5" ry="2.5" style="stroke:#E7E7E7;stroke-width:0.5;" width="113" x="624" y="1391.0146"/><text fill="#FFFFFF" font-family="sans-serif" font-size="14" lengthAdjust="spacing" textLength="99" x="631" y="1412.9805">MyUserService</text><rect fill="#222222" height="33.0679" rx="2.5" ry="2.5" style="stroke:#E7E7E7;stroke-width:0.5;" width="68" x="747" y="50"/><text fill="#FFFFFF" font-family="sans-serif" font-size="14" lengthAdjust="spacing" textLength="54" x="754" y="71.9659">Teacher</text><rect fill="#222222" height="33.0679" rx="2.5" ry="2.5" style="stroke:#E7E7E7;stroke-width:0.5;" width="68" x="747" y="1391.0146"/><text fill="#FFFFFF" font-family="sans-serif" font-size="14" lengthAdjust="spacing" textLength="54" x="754" y="1412.9805">Teacher</text><rect fill="#222222" height="33.0679" rx="2.5" ry="2.5" style="stroke:#E7E7E7;stroke-width:0.5;" width="116" x="825" y="50"/><text fill="#FFFFFF" font-family="sans-serif" font-size="14" lengthAdjust="spacing" textLength="102" x="832" y="71.9659">StaffRepository</text><rect fill="#222222" height="33.0679" rx="2.5" ry="2.5" style="stroke:#E7E7E7;stroke-width:0.5;" width="116" x="825" y="1391.0146"/><text fill="#FFFFFF" font-family="sans-serif" font-size="14" lengthAdjust="spacing" textLength="102" x="832" y="1412.9805">StaffRepository</text><rect fill="#222222" height="33.0679" rx="2.5" ry="2.5" style="stroke:#E7E7E7;stroke-width:0.5;" width="247" x="951" y="50"/><text fill="#FFFFFF" font-family="sans-serif" font-size="14" lengthAdjust="spacing" textLength="233" x="958" y="71.9659">CourseAndDescriptionDTOMapper</text><rect fill="#222222" height="33.0679" rx="2.5" ry="2.5" style="stroke:#E7E7E7;stroke-width:0.5;" width="247" x="951" y="1391.0146"/><text fill="#FFFFFF" font-family="sans-serif" font-size="14" lengthAdjust="spacing" textLength="233" x="958" y="1412.9805">CourseAndDescriptionDTOMapper</text><rect fill="#222222" height="33.0679" rx="2.5" ry="2.5" style="stroke:#E7E7E7;stroke-width:0.5;" width="194" x="1208" y="50"/><text fill="#FFFFFF" font-family="sans-serif" font-size="14" lengthAdjust="spacing" textLength="180" x="1215" y="71.9659">CourseAndDescriptionDTO</text><rect fill="#222222" height="33.0679" rx="2.5" ry="2.5" style="stroke:#E7E7E7;stroke-width:0.5;" width="194" x="1208" y="1391.0146"/><text fill="#FFFFFF" font-family="sans-serif" font-size="14" lengthAdjust="spacing" textLength="180" x="1215" y="1412.9805">CourseAndDescriptionDTO</text><rect fill="#222222" height="33.0679" rx="2.5" ry="2.5" style="stroke:#E7E7E7;stroke-width:0.5;" width="132" x="1412" y="50"/><text fill="#FFFFFF" font-family="sans-serif" font-size="14" lengthAdjust="spacing" textLength="118" x="1419" y="71.9659">CourseRepository</text><rect fill="#222222" height="33.0679" rx="2.5" ry="2.5" style="stroke:#E7E7E7;stroke-width:0.5;" width="132" x="1412" y="1391.0146"/><text fill="#FFFFFF" font-family="sans-serif" font-size="14" lengthAdjust="spacing" textLength="118" x="1419" y="1412.9805">CourseRepository</text><rect fill="#222222" height="33.0679" rx="2.5" ry="2.5" style="stroke:#E7E7E7;stroke-width:0.5;" width="138" x="1554" y="50"/><text fill="#FFFFFF" font-family="sans-serif" font-size="14" lengthAdjust="spacing" textLength="124" x="1561" y="71.9659">StudentRepository</text><rect fill="#222222" height="33.0679" rx="2.5" ry="2.5" style="stroke:#E7E7E7;stroke-width:0.5;" width="138" x="1554" y="1391.0146"/><text fill="#FFFFFF" font-family="sans-serif" font-size="14" lengthAdjust="spacing" textLength="124" x="1561" y="1412.9805">StudentRepository</text><rect fill="#222222" height="33.0679" rx="2.5" ry="2.5" style="stroke:#E7E7E7;stroke-width:0.5;" width="170" x="1702" y="50"/><text fill="#FFFFFF" font-family="sans-serif" font-size="14" lengthAdjust="spacing" textLength="156" x="1709" y="71.9659">ListExamResultsService</text><rect fill="#222222" height="33.0679" rx="2.5" ry="2.5" style="stroke:#E7E7E7;stroke-width:0.5;" width="170" x="1702" y="1391.0146"/><text fill="#FFFFFF" font-family="sans-serif" font-size="14" lengthAdjust="spacing" textLength="156" x="1709" y="1412.9805">ListExamResultsService</text><rect fill="#222222" height="33.0679" rx="2.5" ry="2.5" style="stroke:#E7E7E7;stroke-width:0.5;" width="216" x="1932" y="50"/><text fill="#FFFFFF" font-family="sans-serif" font-size="14" lengthAdjust="spacing" textLength="202" x="1939" y="71.9659">RegularExamResultRepository</text><rect fill="#222222" height="33.0679" rx="2.5" ry="2.5" style="stroke:#E7E7E7;stroke-width:0.5;" width="216" x="1932" y="1391.0146"/><text fill="#FFFFFF" font-family="sans-serif" font-size="14" lengthAdjust="spacing" textLength="202" x="1939" y="1412.9805">RegularExamResultRepository</text><rect fill="#222222" height="33.0679" rx="2.5" ry="2.5" style="stroke:#E7E7E7;stroke-width:0.5;" width="253" x="2158" y="50"/><text fill="#FFFFFF" font-family="sans-serif" font-size="14" lengthAdjust="spacing" textLength="239" x="2165" y="71.9659">ExamGradeAndStudentDTOMapper</text><rect fill="#222222" height="33.0679" rx="2.5" ry="2.5" style="stroke:#E7E7E7;stroke-width:0.5;" width="253" x="2158" y="1391.0146"/><text fill="#FFFFFF" font-family="sans-serif" font-size="14" lengthAdjust="spacing" textLength="239" x="2165" y="1412.9805">ExamGradeAndStudentDTOMapper</text><rect fill="#222222" height="33.0679" rx="2.5" ry="2.5" style="stroke:#E7E7E7;stroke-width:0.5;" width="200" x="2421" y="50"/><text fill="#FFFFFF" font-family="sans-serif" font-size="14" lengthAdjust="spacing" textLength="186" x="2428" y="71.9659">ExamGradeAndStudentDTO</text><rect fill="#222222" height="33.0679" rx="2.5" ry="2.5" style="stroke:#E7E7E7;stroke-width:0.5;" width="200" x="2421" y="1391.0146"/><text fill="#FFFFFF" font-family="sans-serif" font-size="14" lengthAdjust="spacing" textLength="186" x="2428" y="1412.9805">ExamGradeAndStudentDTO</text><rect fill="#000000" height="1288.9467" style="stroke:#E7E7E7;stroke-width:1.0;" width="10" x="30" y="94.0679"/><rect fill="#000000" height="569.2963" style="stroke:#E7E7E7;stroke-width:1.0;" width="10" x="202" y="117.7739"/><rect fill="#000000" height="637.5324" style="stroke:#E7E7E7;stroke-width:1.0;" width="10" x="202" y="736.4822"/><rect fill="#000000" height="30" style="stroke:#E7E7E7;stroke-width:1.0;" width="10" x="481" y="161.333"/><rect fill="#000000" height="452.1782" style="stroke:#E7E7E7;stroke-width:1.0;" width="10" x="481" y="234.892"/><rect fill="#000000" height="538.7083" style="stroke:#E7E7E7;stroke-width:1.0;" width="10" x="481" y="768.1882"/><rect fill="#000000" height="117.118" style="stroke:#E7E7E7;stroke-width:1.0;" width="10" x="675.5" y="266.598"/><rect fill="#000000" height="30" style="stroke:#E7E7E7;stroke-width:1.0;" width="10" x="776" y="310.157"/><rect fill="#000000" height="31.706" style="stroke:#E7E7E7;stroke-width:1.0;" width="10" x="878" y="415.4221"/><rect fill="#000000" height="127.118" style="stroke:#E7E7E7;stroke-width:1.0;" width="10" x="1069.5" y="478.8341"/><rect fill="#000000" height="30" style="stroke:#E7E7E7;stroke-width:1.0;" width="10" x="1300" y="537.2461"/><rect fill="#000000" height="31.706" style="stroke:#E7E7E7;stroke-width:1.0;" width="10" x="1300" y="799.8943"/><rect fill="#000000" height="31.706" style="stroke:#E7E7E7;stroke-width:1.0;" width="10" x="1473" y="863.3063"/><rect fill="#000000" height="189.6481" style="stroke:#E7E7E7;stroke-width:1.0;" width="10" x="1782" y="926.7183"/><rect fill="#000000" height="78.9711" style="stroke:#E7E7E7;stroke-width:1.0;" width="10" x="2035" y="958.4243"/><rect fill="#000000" height="127.118" style="stroke:#E7E7E7;stroke-width:1.0;" width="10" x="2279.5" y="1148.0725"/><rect fill="#000000" height="30" style="stroke:#E7E7E7;stroke-width:1.0;" width="10" x="2516" y="1206.4845"/><polygon fill="#E7E7E7" points="190,113.7739,200,117.7739,190,121.7739,194,117.7739" style="stroke:#E7E7E7;stroke-width:1.0;"/><line style="stroke:#E7E7E7;stroke-width:1.0;" x1="40" x2="196" y1="117.7739" y2="117.7739"/><text fill="#FFFFFF" font-family="sans-serif" font-size="13" lengthAdjust="spacing" textLength="32" x="47" y="111.9649">enter</text><polygon fill="#E7E7E7" points="469,157.333,479,161.333,469,165.333,473,161.333" style="stroke:#E7E7E7;stroke-width:1.0;"/><line style="stroke:#E7E7E7;stroke-width:1.0;stroke-dasharray:2.0,2.0;" x1="212" x2="475" y1="161.333" y2="161.333"/><text fill="#FFFFFF" font-family="sans-serif" font-size="13" lengthAdjust="spacing" textLength="45" x="219" y="155.524">create()</text><path d="M496,130.7739 L496,175.7739 L715,175.7739 L715,140.7739 L705,130.7739 L496,130.7739 " fill="#714137" style="stroke:#E7E7E7;stroke-width:0.5;"/><path d="M705,130.7739 L705,140.7739 L715,140.7739 L705,130.7739 " fill="#714137" style="stroke:#E7E7E7;stroke-width:0.5;"/><text fill="#FFFFFF" font-family="sans-serif" font-size="13" lengthAdjust="spacing" textLength="170" x="502" y="149.6709">repositories are retrieved via</text><text fill="#FFFFFF" font-family="sans-serif" font-size="13" lengthAdjust="spacing" textLength="198" x="502" y="167.377">PersistenceContext.repositories()</text><polygon fill="#E7E7E7" points="469,230.892,479,234.892,469,238.892,473,234.892" style="stroke:#E7E7E7;stroke-width:1.0;"/><line style="stroke:#E7E7E7;stroke-width:1.0;" x1="212" x2="475" y1="234.892" y2="234.892"/><text fill="#FFFFFF" font-family="sans-serif" font-size="13" lengthAdjust="spacing" textLength="73" x="219" y="229.083">listCourses()</text><polygon fill="#E7E7E7" points="663.5,262.598,673.5,266.598,663.5,270.598,667.5,266.598" style="stroke:#E7E7E7;stroke-width:1.0;"/><line style="stroke:#E7E7E7;stroke-width:1.0;stroke-dasharray:2.0,2.0;" x1="491" x2="669.5" y1="266.598" y2="266.598"/><text fill="#FFFFFF" font-family="sans-serif" font-size="13" lengthAdjust="spacing" textLength="99" x="498" y="260.789">currentTeacher()</text><polygon fill="#E7E7E7" points="764,306.157,774,310.157,764,314.157,768,310.157" style="stroke:#E7E7E7;stroke-width:1.0;"/><line style="stroke:#E7E7E7;stroke-width:1.0;stroke-dasharray:2.0,2.0;" x1="685.5" x2="770" y1="310.157" y2="310.157"/><text fill="#FFFFFF" font-family="sans-serif" font-size="13" lengthAdjust="spacing" textLength="28" x="692.5" y="304.348">get()</text><path d="M791,279.598 L791,324.598 L1034,324.598 L1034,289.598 L1024,279.598 L791,279.598 " fill="#714137" style="stroke:#E7E7E7;stroke-width:0.5;"/><path d="M1024,279.598 L1024,289.598 L1034,289.598 L1024,279.598 " fill="#714137" style="stroke:#E7E7E7;stroke-width:0.5;"/><text fill="#FFFFFF" font-family="sans-serif" font-size="13" lengthAdjust="spacing" textLength="222" x="797" y="298.495">teacher obtained via the framework's</text><text fill="#FFFFFF" font-family="sans-serif" font-size="13" lengthAdjust="spacing" textLength="213" x="797" y="316.201">Authz package + TeacherRepository</text><polygon fill="#E7E7E7" points="502,379.716,492,383.716,502,387.716,498,383.716" style="stroke:#E7E7E7;stroke-width:1.0;"/><line style="stroke:#E7E7E7;stroke-width:1.0;stroke-dasharray:2.0,2.0;" x1="496" x2="679.5" y1="383.716" y2="383.716"/><text fill="#FFFFFF" font-family="sans-serif" font-size="13" lengthAdjust="spacing" textLength="45" x="508" y="377.907">teacher</text><polygon fill="#E7E7E7" points="866,411.4221,876,415.4221,866,419.4221,870,415.4221" style="stroke:#E7E7E7;stroke-width:1.0;"/><line style="stroke:#E7E7E7;stroke-width:1.0;" x1="491" x2="872" y1="415.4221" y2="415.4221"/><text fill="#FFFFFF" font-family="sans-serif" font-size="13" lengthAdjust="spacing" textLength="109" x="498" y="409.6131">taughtBy(teacher)</text><polygon fill="#E7E7E7" points="502,443.1281,492,447.1281,502,451.1281,498,447.1281" style="stroke:#E7E7E7;stroke-width:1.0;"/><line style="stroke:#E7E7E7;stroke-width:1.0;" x1="496" x2="882" y1="447.1281" y2="447.1281"/><text fill="#FFFFFF" font-family="sans-serif" font-size="13" lengthAdjust="spacing" textLength="65" x="508" y="441.3191">listCourses</text><polygon fill="#E7E7E7" points="1057.5,474.8341,1067.5,478.8341,1057.5,482.8341,1061.5,478.8341" style="stroke:#E7E7E7;stroke-width:1.0;"/><line style="stroke:#E7E7E7;stroke-width:1.0;" x1="491" x2="1063.5" y1="478.8341" y2="478.8341"/><text fill="#FFFFFF" font-family="sans-serif" font-size="13" lengthAdjust="spacing" textLength="112" x="498" y="473.0251">toDTO(listCourses)</text><path d="M941,493.8341 L1014,493.8341 L1014,503.5401 L1004,513.5401 L941,513.5401 L941,493.8341 " fill="#555555" style="stroke:#FFFFFF;stroke-width:1.5;"/><rect fill="none" height="81.412" style="stroke:#FFFFFF;stroke-width:1.5;" width="471" x="941" y="493.8341"/><text fill="#FFFFFF" font-family="sans-serif" font-size="13" font-weight="bold" lengthAdjust="spacing" textLength="28" x="956" y="508.7311">loop</text><text fill="#FFFFFF" font-family="sans-serif" font-size="11" font-weight="bold" lengthAdjust="spacing" textLength="152" x="1029" y="507.593">[for each course in courses]</text><polygon fill="#E7E7E7" points="1288,533.2461,1298,537.2461,1288,541.2461,1292,537.2461" style="stroke:#E7E7E7;stroke-width:1.0;"/><line style="stroke:#E7E7E7;stroke-width:1.0;stroke-dasharray:2.0,2.0;" x1="1079.5" x2="1294" y1="537.2461" y2="537.2461"/><text fill="#FFFFFF" font-family="sans-serif" font-size="13" lengthAdjust="spacing" textLength="45" x="1086.5" y="531.4371">create()</text><polygon fill="#E7E7E7" points="502,601.9521,492,605.9521,502,609.9521,498,605.9521" style="stroke:#E7E7E7;stroke-width:1.0;"/><line style="stroke:#E7E7E7;stroke-width:1.0;" x1="496" x2="1073.5" y1="605.9521" y2="605.9521"/><text fill="#FFFFFF" font-family="sans-serif" font-size="13" lengthAdjust="spacing" textLength="93" x="508" y="600.1431">coursesDTOList</text><polygon fill="#E7E7E7" points="223,633.6582,213,637.6582,223,641.6582,219,637.6582" style="stroke:#E7E7E7;stroke-width:1.0;"/><line style="stroke:#E7E7E7;stroke-width:1.0;" x1="217" x2="480" y1="637.6582" y2="637.6582"/><text fill="#FFFFFF" font-family="sans-serif" font-size="13" lengthAdjust="spacing" textLength="93" x="229" y="631.8492">coursesDTOList</text><polygon fill="#E7E7E7" points="51,683.0702,41,687.0702,51,691.0702,47,687.0702" style="stroke:#E7E7E7;stroke-width:1.0;"/><line style="stroke:#E7E7E7;stroke-width:1.0;stroke-dasharray:2.0,2.0;" x1="45" x2="206" y1="687.0702" y2="687.0702"/><text fill="#FFFFFF" font-family="sans-serif" font-size="13" lengthAdjust="spacing" textLength="125" x="57" y="663.5552">show courses taught</text><text fill="#FFFFFF" font-family="sans-serif" font-size="13" lengthAdjust="spacing" textLength="63" x="57" y="681.2612">by teacher</text><polygon fill="#E7E7E7" points="190,732.4822,200,736.4822,190,740.4822,194,736.4822" style="stroke:#E7E7E7;stroke-width:1.0;"/><line style="stroke:#E7E7E7;stroke-width:1.0;" x1="40" x2="196" y1="736.4822" y2="736.4822"/><text fill="#FFFFFF" font-family="sans-serif" font-size="13" lengthAdjust="spacing" textLength="140" x="47" y="712.9672">Chooses a course to list</text><text fill="#FFFFFF" font-family="sans-serif" font-size="13" lengthAdjust="spacing" textLength="115" x="47" y="730.6732">exams grades from</text><polygon fill="#E7E7E7" points="469,764.1882,479,768.1882,469,772.1882,473,768.1882" style="stroke:#E7E7E7;stroke-width:1.0;"/><line style="stroke:#E7E7E7;stroke-width:1.0;stroke-dasharray:2.0,2.0;" x1="212" x2="475" y1="768.1882" y2="768.1882"/><text fill="#FFFFFF" font-family="sans-serif" font-size="13" lengthAdjust="spacing" textLength="250" x="219" y="762.3792">listExamsGradesAndStudents(courseDTO)</text><polygon fill="#E7E7E7" points="1288,795.8943,1298,799.8943,1288,803.8943,1292,799.8943" style="stroke:#E7E7E7;stroke-width:1.0;"/><line style="stroke:#E7E7E7;stroke-width:1.0;" x1="491" x2="1294" y1="799.8943" y2="799.8943"/><text fill="#FFFFFF" font-family="sans-serif" font-size="13" lengthAdjust="spacing" textLength="60" x="498" y="794.0853">courseId()</text><polygon fill="#E7E7E7" points="502,827.6003,492,831.6003,502,835.6003,498,831.6003" style="stroke:#E7E7E7;stroke-width:1.0;"/><line style="stroke:#E7E7E7;stroke-width:1.0;" x1="496" x2="1304" y1="831.6003" y2="831.6003"/><text fill="#FFFFFF" font-family="sans-serif" font-size="13" lengthAdjust="spacing" textLength="55" x="508" y="825.7913">CourseID</text><polygon fill="#E7E7E7" points="1461,859.3063,1471,863.3063,1461,867.3063,1465,863.3063" style="stroke:#E7E7E7;stroke-width:1.0;"/><line style="stroke:#E7E7E7;stroke-width:1.0;" x1="491" x2="1467" y1="863.3063" y2="863.3063"/><text fill="#FFFFFF" font-family="sans-serif" font-size="13" lengthAdjust="spacing" textLength="122" x="498" y="857.4973">ofIdentity(CourseID)</text><polygon fill="#E7E7E7" points="502,891.0123,492,895.0123,502,899.0123,498,895.0123" style="stroke:#E7E7E7;stroke-width:1.0;"/><line style="stroke:#E7E7E7;stroke-width:1.0;" x1="496" x2="1477" y1="895.0123" y2="895.0123"/><text fill="#FFFFFF" font-family="sans-serif" font-size="13" lengthAdjust="spacing" textLength="40" x="508" y="889.2033">course</text><polygon fill="#E7E7E7" points="1770,922.7183,1780,926.7183,1770,930.7183,1774,926.7183" style="stroke:#E7E7E7;stroke-width:1.0;"/><line style="stroke:#E7E7E7;stroke-width:1.0;stroke-dasharray:2.0,2.0;" x1="491" x2="1776" y1="926.7183" y2="926.7183"/><text fill="#FFFFFF" font-family="sans-serif" font-size="13" lengthAdjust="spacing" textLength="331" x="498" y="920.9093">regularExamResultsBasedOnGradingProperties(course)</text><polygon fill="#E7E7E7" points="2023,954.4243,2033,958.4243,2023,962.4243,2027,958.4243" style="stroke:#E7E7E7;stroke-width:1.0;"/><line style="stroke:#E7E7E7;stroke-width:1.0;stroke-dasharray:2.0,2.0;" x1="1792" x2="2029" y1="958.4243" y2="958.4243"/><text fill="#FFFFFF" font-family="sans-serif" font-size="13" lengthAdjust="spacing" textLength="224" x="1799" y="952.6153">regularExamResultsByCourse(course)</text><polygon fill="#E7E7E7" points="1803,1033.3954,1793,1037.3954,1803,1041.3954,1799,1037.3954" style="stroke:#E7E7E7;stroke-width:1.0;"/><line style="stroke:#E7E7E7;stroke-width:1.0;stroke-dasharray:2.0,2.0;" x1="1797" x2="2039" y1="1037.3954" y2="1037.3954"/><text fill="#FFFFFF" font-family="sans-serif" font-size="13" lengthAdjust="spacing" textLength="76" x="1809" y="1031.5864">examResults</text><path d="M1444,971.4243 L1444,1087.4243 L1777,1087.4243 L1777,981.4243 L1767,971.4243 L1444,971.4243 " fill="#714137" style="stroke:#E7E7E7;stroke-width:0.5;"/><path d="M1767,971.4243 L1767,981.4243 L1777,981.4243 L1767,971.4243 " fill="#714137" style="stroke:#E7E7E7;stroke-width:0.5;"/><text fill="#FFFFFF" font-family="sans-serif" font-size="13" lengthAdjust="spacing" textLength="241" x="1450" y="990.3214">The service will apply the following filters</text><text fill="#FFFFFF" font-family="sans-serif" font-size="13" lengthAdjust="spacing" textLength="118" x="1450" y="1008.0274">to the exam results:</text><text fill="#FFFFFF" font-family="sans-serif" font-size="13" lengthAdjust="spacing" textLength="3" x="1450" y="1025.7334">&#160;</text><text fill="#FFFFFF" font-family="sans-serif" font-size="13" lengthAdjust="spacing" textLength="312" x="1450" y="1043.4394">1. Include results with the "on-submission" property.</text><text fill="#FFFFFF" font-family="sans-serif" font-size="13" lengthAdjust="spacing" textLength="295" x="1450" y="1061.1454">2. Include results with the "after-closing" property</text><text fill="#FFFFFF" font-family="sans-serif" font-size="13" lengthAdjust="spacing" textLength="224" x="1450" y="1078.8514">if the closing date has already passed.</text><polygon fill="#E7E7E7" points="502,1112.3665,492,1116.3665,502,1120.3665,498,1116.3665" style="stroke:#E7E7E7;stroke-width:1.0;"/><line style="stroke:#E7E7E7;stroke-width:1.0;stroke-dasharray:2.0,2.0;" x1="496" x2="1786" y1="1116.3665" y2="1116.3665"/><text fill="#FFFFFF" font-family="sans-serif" font-size="13" lengthAdjust="spacing" textLength="76" x="508" y="1110.5575">examResults</text><polygon fill="#E7E7E7" points="2267.5,1144.0725,2277.5,1148.0725,2267.5,1152.0725,2271.5,1148.0725" style="stroke:#E7E7E7;stroke-width:1.0;"/><line style="stroke:#E7E7E7;stroke-width:1.0;stroke-dasharray:2.0,2.0;" x1="491" x2="2273.5" y1="1148.0725" y2="1148.0725"/><text fill="#FFFFFF" font-family="sans-serif" font-size="13" lengthAdjust="spacing" textLength="123" x="498" y="1142.2635">toDTO(examResults)</text><path d="M2148,1163.0725 L2221,1163.0725 L2221,1172.7785 L2211,1182.7785 L2148,1182.7785 L2148,1163.0725 " fill="#555555" style="stroke:#FFFFFF;stroke-width:1.5;"/><rect fill="none" height="81.412" style="stroke:#FFFFFF;stroke-width:1.5;" width="483" x="2148" y="1163.0725"/><text fill="#FFFFFF" font-family="sans-serif" font-size="13" font-weight="bold" lengthAdjust="spacing" textLength="28" x="2163" y="1177.9695">loop</text><text fill="#FFFFFF" font-family="sans-serif" font-size="11" font-weight="bold" lengthAdjust="spacing" textLength="202" x="2236" y="1176.8314">[for each ExamResult in examResult]</text><polygon fill="#E7E7E7" points="2504,1202.4845,2514,1206.4845,2504,1210.4845,2508,1206.4845" style="stroke:#E7E7E7;stroke-width:1.0;"/><line style="stroke:#E7E7E7;stroke-width:1.0;stroke-dasharray:2.0,2.0;" x1="2289.5" x2="2510" y1="1206.4845" y2="1206.4845"/><text fill="#FFFFFF" font-family="sans-serif" font-size="13" lengthAdjust="spacing" textLength="45" x="2296.5" y="1200.6755">create()</text><polygon fill="#E7E7E7" points="502,1271.1905,492,1275.1905,502,1279.1905,498,1275.1905" style="stroke:#E7E7E7;stroke-width:1.0;"/><line style="stroke:#E7E7E7;stroke-width:1.0;stroke-dasharray:2.0,2.0;" x1="496" x2="2283.5" y1="1275.1905" y2="1275.1905"/><text fill="#FFFFFF" font-family="sans-serif" font-size="13" lengthAdjust="spacing" textLength="182" x="508" y="1269.3815">examsGradesInCourseDTOList</text><polygon fill="#E7E7E7" points="223,1302.8965,213,1306.8965,223,1310.8965,219,1306.8965" style="stroke:#E7E7E7;stroke-width:1.0;"/><line style="stroke:#E7E7E7;stroke-width:1.0;stroke-dasharray:2.0,2.0;" x1="217" x2="485" y1="1306.8965" y2="1306.8965"/><text fill="#FFFFFF" font-family="sans-serif" font-size="13" lengthAdjust="spacing" textLength="182" x="229" y="1301.0875">examsGradesInCourseDTOList</text><polygon fill="#E7E7E7" points="51,1370.0146,41,1374.0146,51,1378.0146,47,1374.0146" style="stroke:#E7E7E7;stroke-width:1.0;"/><line style="stroke:#E7E7E7;stroke-width:1.0;stroke-dasharray:2.0,2.0;" x1="45" x2="206" y1="1374.0146" y2="1374.0146"/><text fill="#FFFFFF" font-family="sans-serif" font-size="13" lengthAdjust="spacing" textLength="87" x="57" y="1332.7936">show available</text><text fill="#FFFFFF" font-family="sans-serif" font-size="13" lengthAdjust="spacing" textLength="97" x="57" y="1350.4996">grades in exams</text><text fill="#FFFFFF" font-family="sans-serif" font-size="13" lengthAdjust="spacing" textLength="54" x="57" y="1368.2056">in course</text><!--SRC=[ZLRBRjim4BphAuXUwg9mWFQOGu0yYi90WmHvt0m4jBIsYT2aG59ErA_lyYMH4fr61yCGbxEpozcXQ6sa8az0wpqeGZNfDAYgfSgmchLK6FA7QVFhdHxqRqKRq2jnBJkbuNdbejbdOg-bC4foxZFKHl4gstRRFsFMHr17LaCayQAFTHQLa3J-RuxoQEXs-m2jr0nhwcsSDYyAN-HndjEbQ6v0rugrXabnytHtIzis47G1BmVtuZDRaqsDAMRBQTK5Le-cQq2O2NyVM6hn0-YE6vqqRTgl1zXrdAenECU60WaRwuuEImo4iiuKMbBUOeDTAsXjs94QyBgoFsHvWR8XvmGZyTKOm2g23oujCSAA16Dg1RYs-EQMXb2d818U8V6DOhkzmNWLIsIW2LMu00R_7w4XHqRNuXwKnWQ2g9qeuTsSfLj2eWRoL0EnWHT747-o-aDoBjpM4nLjQ-gKmjg3dCFs36AGFqcU0S72XG50j1sO12A3YLEIBYQbbPQpPiOaScCe4xw5nEo1R1Kzm9jKhr_rMbnsPl-NjBH-fJiWt-EOZc8xNKLevfH8md7enAIZ5t6qxNRQ8T-hVX5m2WsDFf0oYG21HtQc9Ig3bwGiCgkmN2IAVv4WJSMHMKlCmgLioHPzs1OGOWWJuP_EQATFddqvyi7HcynEwPcoiWDxAZOTYNaqYCOLKPrW5biS2i8UMHkhoi2XELcVdM4KTWUti38v9telts9GK0LPYqq_NXV5uKxbnghCewxtKbem6W_5I2SJX0LxpP6Tk-Tm8EGXSxAgu6Kylnn7lzGBZuw5bRna9ltn08Qch9gIZvmursJ_S39UhgkRwkC3dtE9KoYtAriBC_qYOfKOpUVGeKr6qMSiSWb3M5LpZ_NsggRNdhwY6fexOTlEnEvUIPINiMxlqvJyOkAzqR0WLbj8qlkoPw0PC9Jh3xXZ4J02dx9lIEmei- -DD4OUpiaJEhKEdmTlZ7E2SyLxR-3uCIRVi1baopZUmXe5ZMgmIpOpbkTIdw_5Mlmu8ojHSrHgV8rePk-2lqYnrDtcmBJ6Bw4lfFMzxS_MukT7s-WMaovhZZU4s8tRa0NRkeYmH1fRwHu_9YX7Dsjwl6Sq7kPPyNJ2d9Lwb_hu_3R1lTvqee4d40LrJDnxxk2ZBAoBZs2pSq-S-sFB7dANF3efRheyC-P9LZzkCFzaJqrsaYFrv_mRXv7_Oftyj0ekJeADqoDbd6uue2Q2oOPMMgqET-F4lFy1]--></g></svg>