<?xml version="1.0" encoding="us-ascii" standalone="no"?><svg xmlns="http://www.w3.org/2000/svg" xmlns:xlink="http://www.w3.org/1999/xlink" contentStyleType="text/css" height="241px" preserveAspectRatio="none" style="width:405px;height:241px;background:#FFFFFF;" version="1.1" viewBox="0 0 405 241" width="405px" zoomAndPan="magnify"><defs/><g><line style="stroke:#181818;stroke-width:0.5;stroke-dasharray:5.0,5.0;" x1="30" x2="30" y1="38.6211" y2="203.7852"/><line style="stroke:#181818;stroke-width:0.5;stroke-dasharray:5.0,5.0;" x1="261" x2="261" y1="38.6211" y2="203.7852"/><line style="stroke:#181818;stroke-width:0.5;stroke-dasharray:5.0,5.0;" x1="331" x2="331" y1="38.6211" y2="203.7852"/><rect fill="#E2E2F0" height="32.6211" rx="2.5" ry="2.5" style="stroke:#181818;stroke-width:0.5;" width="50" x="5" y="5"/><text fill="#000000" font-family="sans-serif" font-size="14" lengthAdjust="spacing" textLength="36" x="12" y="27.1074">Client</text><rect fill="#E2E2F0" height="32.6211" rx="2.5" ry="2.5" style="stroke:#181818;stroke-width:0.5;" width="50" x="5" y="202.7852"/><text fill="#000000" font-family="sans-serif" font-size="14" lengthAdjust="spacing" textLength="36" x="12" y="224.8926">Client</text><rect fill="#E2E2F0" height="32.6211" rx="2.5" ry="2.5" style="stroke:#181818;stroke-width:0.5;" width="56" x="233" y="5"/><text fill="#000000" font-family="sans-serif" font-size="14" lengthAdjust="spacing" textLength="42" x="240" y="27.1074">Server</text><rect fill="#E2E2F0" height="32.6211" rx="2.5" ry="2.5" style="stroke:#181818;stroke-width:0.5;" width="56" x="233" y="202.7852"/><text fill="#000000" font-family="sans-serif" font-size="14" lengthAdjust="spacing" textLength="42" x="240" y="224.8926">Server</text><rect fill="#E2E2F0" height="32.6211" rx="2.5" ry="2.5" style="stroke:#181818;stroke-width:0.5;" width="65" x="299" y="5"/><text fill="#000000" font-family="sans-serif" font-size="14" lengthAdjust="spacing" textLength="51" x="306" y="27.1074">Browser</text><rect fill="#E2E2F0" height="32.6211" rx="2.5" ry="2.5" style="stroke:#181818;stroke-width:0.5;" width="65" x="299" y="202.7852"/><text fill="#000000" font-family="sans-serif" font-size="14" lengthAdjust="spacing" textLength="51" x="306" y="224.8926">Browser</text><polygon fill="#181818" points="249,79.5576,259,83.5576,249,87.5576,253,83.5576" style="stroke:#181818;stroke-width:1.0;"/><line style="stroke:#181818;stroke-width:1.0;" x1="30" x2="255" y1="83.5576" y2="83.5576"/><text fill="#000000" font-family="sans-serif" font-size="13" lengthAdjust="spacing" textLength="147" x="37" y="78.2949">do a change onto a board</text><path d="M266,53.6211 L266,97.6211 L398,97.6211 L398,63.6211 L388,53.6211 L266,53.6211 " fill="#FEFFDD" style="stroke:#181818;stroke-width:0.5;"/><path d="M388,53.6211 L388,63.6211 L398,63.6211 L388,53.6211 " fill="#FEFFDD" style="stroke:#181818;stroke-width:0.5;"/><text fill="#000000" font-family="sans-serif" font-size="13" lengthAdjust="spacing" textLength="107" x="272" y="72.6494">start a new Thread</text><text fill="#000000" font-family="sans-serif" font-size="13" lengthAdjust="spacing" textLength="81" x="272" y="89.9404">for each client</text><polygon fill="#181818" points="41,122.4941,31,126.4941,41,130.4941,37,126.4941" style="stroke:#181818;stroke-width:1.0;"/><line style="stroke:#181818;stroke-width:1.0;stroke-dasharray:2.0,2.0;" x1="35" x2="260" y1="126.4941" y2="126.4941"/><text fill="#000000" font-family="sans-serif" font-size="13" lengthAdjust="spacing" textLength="207" x="47" y="121.2314">send the change to all active clients</text><polygon fill="#181818" points="41,136.4941,31,140.4941,41,144.4941,37,140.4941" style="stroke:#181818;stroke-width:1.0;"/><line style="stroke:#181818;stroke-width:1.0;stroke-dasharray:2.0,2.0;" x1="35" x2="260" y1="140.4941" y2="140.4941"/><polygon fill="#181818" points="41,150.4941,31,154.4941,41,158.4941,37,154.4941" style="stroke:#181818;stroke-width:1.0;"/><line style="stroke:#181818;stroke-width:1.0;stroke-dasharray:2.0,2.0;" x1="35" x2="260" y1="154.4941" y2="154.4941"/><polygon fill="#181818" points="319.5,181.7852,329.5,185.7852,319.5,189.7852,323.5,185.7852" style="stroke:#181818;stroke-width:1.0;"/><line style="stroke:#181818;stroke-width:1.0;" x1="30" x2="325.5" y1="185.7852" y2="185.7852"/><text fill="#000000" font-family="sans-serif" font-size="13" lengthAdjust="spacing" textLength="166" x="37" y="180.5225">each client Updates Browser</text><!--SRC=[ROun3i8m54FtdC8Nw0KwC90Z01lB9_aqaQ8VzFFLNf-cKCJGqRRyR5yoYs4uuS8wiuw85OIGI2P65UlgKKcZSrADeNbADg8PgQsHy89hKgQ8kpohWYaaX8tgFaWCAzrlpjfZYR34-qBdbm8AbcV-zjf1ySXo_dV-h7Lf_VtVF6wlICPj3zqR]--></g></svg>