<?xml version="1.0" encoding="us-ascii" standalone="no"?><svg xmlns="http://www.w3.org/2000/svg" xmlns:xlink="http://www.w3.org/1999/xlink" contentStyleType="text/css" height="818px" preserveAspectRatio="none" style="width:1487px;height:818px;background:#1B1B1B;" version="1.1" viewBox="0 0 1487 818" width="1487px" zoomAndPan="magnify"><defs/><g><rect fill="#1B1B1B" height="818" style="stroke:none;stroke-width:1.0;" width="1487" x="0" y="0"/><rect fill="#000000" height="599.2963" style="stroke:#E7E7E7;stroke-width:1.0;" width="10" x="198.5" y="117.7739"/><rect fill="#000000" height="186.8241" style="stroke:#E7E7E7;stroke-width:1.0;" width="10" x="401.5" y="149.4799"/><rect fill="#000000" height="317.3541" style="stroke:#E7E7E7;stroke-width:1.0;" width="10" x="401.5" y="368.01"/><rect fill="#000000" height="61.706" style="stroke:#E7E7E7;stroke-width:1.0;" width="10" x="592" y="181.186"/><rect fill="#000000" height="30" style="stroke:#E7E7E7;stroke-width:1.0;" width="10" x="739.5" y="212.892"/><rect fill="#000000" height="61.706" style="stroke:#E7E7E7;stroke-width:1.0;" width="10" x="739.5" y="274.598"/><rect fill="#000000" height="95.118" style="stroke:#E7E7E7;stroke-width:1.0;" width="10" x="885.5" y="399.716"/><rect fill="#000000" height="30" style="stroke:#E7E7E7;stroke-width:1.0;" width="10" x="1028" y="306.304"/><rect fill="#000000" height="31.706" style="stroke:#E7E7E7;stroke-width:1.0;" width="10" x="1028" y="431.4221"/><rect fill="#000000" height="127.118" style="stroke:#E7E7E7;stroke-width:1.0;" width="10" x="1203" y="526.5401"/><rect fill="#000000" height="30" style="stroke:#E7E7E7;stroke-width:1.0;" width="10" x="1390.5" y="584.9521"/><rect fill="none" height="81.412" style="stroke:#FFFFFF;stroke-width:1.5;" width="385" x="1096" y="541.5401"/><line style="stroke:#E7E7E7;stroke-width:0.5;stroke-dasharray:5.0,5.0;" x1="38" x2="38" y1="84.0679" y2="735.0702"/><line style="stroke:#E7E7E7;stroke-width:0.5;stroke-dasharray:5.0,5.0;" x1="203" x2="203" y1="84.0679" y2="735.0702"/><line style="stroke:#E7E7E7;stroke-width:0.5;stroke-dasharray:5.0,5.0;" x1="406" x2="406" y1="84.0679" y2="735.0702"/><line style="stroke:#E7E7E7;stroke-width:0.5;stroke-dasharray:5.0,5.0;" x1="597" x2="597" y1="84.0679" y2="735.0702"/><line style="stroke:#E7E7E7;stroke-width:0.5;stroke-dasharray:5.0,5.0;" x1="744" x2="744" y1="84.0679" y2="735.0702"/><line style="stroke:#E7E7E7;stroke-width:0.5;stroke-dasharray:5.0,5.0;" x1="890" x2="890" y1="84.0679" y2="735.0702"/><line style="stroke:#E7E7E7;stroke-width:0.5;stroke-dasharray:5.0,5.0;" x1="1033" x2="1033" y1="84.0679" y2="735.0702"/><line style="stroke:#E7E7E7;stroke-width:0.5;stroke-dasharray:5.0,5.0;" x1="1208" x2="1208" y1="84.0679" y2="735.0702"/><line style="stroke:#E7E7E7;stroke-width:0.5;stroke-dasharray:5.0,5.0;" x1="1395" x2="1395" y1="84.0679" y2="735.0702"/><text fill="#FFFFFF" font-family="sans-serif" font-size="14" lengthAdjust="spacing" textLength="61" x="5" y="79.9659">Manager</text><ellipse cx="38.5" cy="13.5" fill="#222222" rx="8" ry="8" style="stroke:#E7E7E7;stroke-width:0.5;"/><path d="M38.5,21.5 L38.5,48.5 M25.5,29.5 L51.5,29.5 M38.5,48.5 L25.5,63.5 M38.5,48.5 L51.5,63.5 " fill="none" style="stroke:#E7E7E7;stroke-width:0.5;"/><text fill="#FFFFFF" font-family="sans-serif" font-size="14" lengthAdjust="spacing" textLength="61" x="5" y="749.0361">Manager</text><ellipse cx="38.5" cy="761.6381" fill="#222222" rx="8" ry="8" style="stroke:#E7E7E7;stroke-width:0.5;"/><path d="M38.5,769.6381 L38.5,796.6381 M25.5,777.6381 L51.5,777.6381 M38.5,796.6381 L25.5,811.6381 M38.5,796.6381 L51.5,811.6381 " fill="none" style="stroke:#E7E7E7;stroke-width:0.5;"/><rect fill="#222222" height="33.0679" rx="2.5" ry="2.5" style="stroke:#E7E7E7;stroke-width:0.5;" width="167" x="120" y="50"/><text fill="#FFFFFF" font-family="sans-serif" font-size="14" lengthAdjust="spacing" textLength="153" x="127" y="71.9659">ListAvailableCoursesUI</text><rect fill="#222222" height="33.0679" rx="2.5" ry="2.5" style="stroke:#E7E7E7;stroke-width:0.5;" width="167" x="120" y="734.0702"/><text fill="#FFFFFF" font-family="sans-serif" font-size="14" lengthAdjust="spacing" textLength="153" x="127" y="756.0361">ListAvailableCoursesUI</text><rect fill="#222222" height="33.0679" rx="2.5" ry="2.5" style="stroke:#E7E7E7;stroke-width:0.5;" width="219" x="297" y="50"/><text fill="#FFFFFF" font-family="sans-serif" font-size="14" lengthAdjust="spacing" textLength="205" x="304" y="71.9659">ListAvailableCoursesController</text><rect fill="#222222" height="33.0679" rx="2.5" ry="2.5" style="stroke:#E7E7E7;stroke-width:0.5;" width="219" x="297" y="734.0702"/><text fill="#FFFFFF" font-family="sans-serif" font-size="14" lengthAdjust="spacing" textLength="205" x="304" y="756.0361">ListAvailableCoursesController</text><rect fill="#222222" height="33.0679" rx="2.5" ry="2.5" style="stroke:#E7E7E7;stroke-width:0.5;" width="142" x="526" y="50"/><text fill="#FFFFFF" font-family="sans-serif" font-size="14" lengthAdjust="spacing" textLength="128" x="533" y="71.9659">PersistenceContext</text><rect fill="#222222" height="33.0679" rx="2.5" ry="2.5" style="stroke:#E7E7E7;stroke-width:0.5;" width="142" x="526" y="734.0702"/><text fill="#FFFFFF" font-family="sans-serif" font-size="14" lengthAdjust="spacing" textLength="128" x="533" y="756.0361">PersistenceContext</text><rect fill="#222222" height="33.0679" rx="2.5" ry="2.5" style="stroke:#E7E7E7;stroke-width:0.5;" width="133" x="678" y="50"/><text fill="#FFFFFF" font-family="sans-serif" font-size="14" lengthAdjust="spacing" textLength="119" x="685" y="71.9659">RepositoryFactory</text><rect fill="#222222" height="33.0679" rx="2.5" ry="2.5" style="stroke:#E7E7E7;stroke-width:0.5;" width="133" x="678" y="734.0702"/><text fill="#FFFFFF" font-family="sans-serif" font-size="14" lengthAdjust="spacing" textLength="119" x="685" y="756.0361">RepositoryFactory</text><rect fill="#222222" height="33.0679" rx="2.5" ry="2.5" style="stroke:#E7E7E7;stroke-width:0.5;" width="139" x="821" y="50"/><text fill="#FFFFFF" font-family="sans-serif" font-size="14" lengthAdjust="spacing" textLength="125" x="828" y="71.9659">ListCoursesService</text><rect fill="#222222" height="33.0679" rx="2.5" ry="2.5" style="stroke:#E7E7E7;stroke-width:0.5;" width="139" x="821" y="734.0702"/><text fill="#FFFFFF" font-family="sans-serif" font-size="14" lengthAdjust="spacing" textLength="125" x="828" y="756.0361">ListCoursesService</text><rect fill="#222222" height="33.0679" rx="2.5" ry="2.5" style="stroke:#E7E7E7;stroke-width:0.5;" width="126" x="970" y="50"/><text fill="#FFFFFF" font-family="sans-serif" font-size="14" lengthAdjust="spacing" textLength="112" x="977" y="71.9659">CouseRepository</text><rect fill="#222222" height="33.0679" rx="2.5" ry="2.5" style="stroke:#E7E7E7;stroke-width:0.5;" width="126" x="970" y="734.0702"/><text fill="#FFFFFF" font-family="sans-serif" font-size="14" lengthAdjust="spacing" textLength="112" x="977" y="756.0361">CouseRepository</text><rect fill="#222222" height="33.0679" rx="2.5" ry="2.5" style="stroke:#E7E7E7;stroke-width:0.5;" width="204" x="1106" y="50"/><text fill="#FFFFFF" font-family="sans-serif" font-size="14" lengthAdjust="spacing" textLength="190" x="1113" y="71.9659">AvailableCourseDTOMapper</text><rect fill="#222222" height="33.0679" rx="2.5" ry="2.5" style="stroke:#E7E7E7;stroke-width:0.5;" width="204" x="1106" y="734.0702"/><text fill="#FFFFFF" font-family="sans-serif" font-size="14" lengthAdjust="spacing" textLength="190" x="1113" y="756.0361">AvailableCourseDTOMapper</text><rect fill="#222222" height="33.0679" rx="2.5" ry="2.5" style="stroke:#E7E7E7;stroke-width:0.5;" width="151" x="1320" y="50"/><text fill="#FFFFFF" font-family="sans-serif" font-size="14" lengthAdjust="spacing" textLength="137" x="1327" y="71.9659">AvailableCourseDTO</text><rect fill="#222222" height="33.0679" rx="2.5" ry="2.5" style="stroke:#E7E7E7;stroke-width:0.5;" width="151" x="1320" y="734.0702"/><text fill="#FFFFFF" font-family="sans-serif" font-size="14" lengthAdjust="spacing" textLength="137" x="1327" y="756.0361">AvailableCourseDTO</text><rect fill="#000000" height="599.2963" style="stroke:#E7E7E7;stroke-width:1.0;" width="10" x="198.5" y="117.7739"/><rect fill="#000000" height="186.8241" style="stroke:#E7E7E7;stroke-width:1.0;" width="10" x="401.5" y="149.4799"/><rect fill="#000000" height="317.3541" style="stroke:#E7E7E7;stroke-width:1.0;" width="10" x="401.5" y="368.01"/><rect fill="#000000" height="61.706" style="stroke:#E7E7E7;stroke-width:1.0;" width="10" x="592" y="181.186"/><rect fill="#000000" height="30" style="stroke:#E7E7E7;stroke-width:1.0;" width="10" x="739.5" y="212.892"/><rect fill="#000000" height="61.706" style="stroke:#E7E7E7;stroke-width:1.0;" width="10" x="739.5" y="274.598"/><rect fill="#000000" height="95.118" style="stroke:#E7E7E7;stroke-width:1.0;" width="10" x="885.5" y="399.716"/><rect fill="#000000" height="30" style="stroke:#E7E7E7;stroke-width:1.0;" width="10" x="1028" y="306.304"/><rect fill="#000000" height="31.706" style="stroke:#E7E7E7;stroke-width:1.0;" width="10" x="1028" y="431.4221"/><rect fill="#000000" height="127.118" style="stroke:#E7E7E7;stroke-width:1.0;" width="10" x="1203" y="526.5401"/><rect fill="#000000" height="30" style="stroke:#E7E7E7;stroke-width:1.0;" width="10" x="1390.5" y="584.9521"/><polygon fill="#E7E7E7" points="186.5,113.7739,196.5,117.7739,186.5,121.7739,190.5,117.7739" style="stroke:#E7E7E7;stroke-width:1.0;"/><line style="stroke:#E7E7E7;stroke-width:1.0;stroke-dasharray:2.0,2.0;" x1="38.5" x2="192.5" y1="117.7739" y2="117.7739"/><text fill="#FFFFFF" font-family="sans-serif" font-size="13" lengthAdjust="spacing" textLength="32" x="45.5" y="111.9649">enter</text><polygon fill="#E7E7E7" points="389.5,145.4799,399.5,149.4799,389.5,153.4799,393.5,149.4799" style="stroke:#E7E7E7;stroke-width:1.0;"/><line style="stroke:#E7E7E7;stroke-width:1.0;stroke-dasharray:2.0,2.0;" x1="208.5" x2="395.5" y1="149.4799" y2="149.4799"/><text fill="#FFFFFF" font-family="sans-serif" font-size="13" lengthAdjust="spacing" textLength="45" x="215.5" y="143.6709">create()</text><polygon fill="#E7E7E7" points="580,177.186,590,181.186,580,185.186,584,181.186" style="stroke:#E7E7E7;stroke-width:1.0;"/><line style="stroke:#E7E7E7;stroke-width:1.0;stroke-dasharray:2.0,2.0;" x1="411.5" x2="586" y1="181.186" y2="181.186"/><text fill="#FFFFFF" font-family="sans-serif" font-size="13" lengthAdjust="spacing" textLength="79" x="418.5" y="175.377">repositories()</text><polygon fill="#E7E7E7" points="727.5,208.892,737.5,212.892,727.5,216.892,731.5,212.892" style="stroke:#E7E7E7;stroke-width:1.0;"/><line style="stroke:#E7E7E7;stroke-width:1.0;stroke-dasharray:2.0,2.0;" x1="602" x2="733.5" y1="212.892" y2="212.892"/><text fill="#FFFFFF" font-family="sans-serif" font-size="13" lengthAdjust="spacing" textLength="45" x="609" y="207.083">create()</text><polygon fill="#E7E7E7" points="727.5,270.598,737.5,274.598,727.5,278.598,731.5,274.598" style="stroke:#E7E7E7;stroke-width:1.0;"/><line style="stroke:#E7E7E7;stroke-width:1.0;stroke-dasharray:2.0,2.0;" x1="411.5" x2="733.5" y1="274.598" y2="274.598"/><text fill="#FFFFFF" font-family="sans-serif" font-size="13" lengthAdjust="spacing" textLength="54" x="418.5" y="268.789">courses()</text><polygon fill="#E7E7E7" points="1016,302.304,1026,306.304,1016,310.304,1020,306.304" style="stroke:#E7E7E7;stroke-width:1.0;"/><line style="stroke:#E7E7E7;stroke-width:1.0;stroke-dasharray:2.0,2.0;" x1="749.5" x2="1022" y1="306.304" y2="306.304"/><text fill="#FFFFFF" font-family="sans-serif" font-size="13" lengthAdjust="spacing" textLength="45" x="756.5" y="300.495">create()</text><polygon fill="#E7E7E7" points="389.5,364.01,399.5,368.01,389.5,372.01,393.5,368.01" style="stroke:#E7E7E7;stroke-width:1.0;"/><line style="stroke:#E7E7E7;stroke-width:1.0;stroke-dasharray:2.0,2.0;" x1="208.5" x2="395.5" y1="368.01" y2="368.01"/><text fill="#FFFFFF" font-family="sans-serif" font-size="13" lengthAdjust="spacing" textLength="108" x="215.5" y="362.201">availableCourses()</text><polygon fill="#E7E7E7" points="873.5,395.716,883.5,399.716,873.5,403.716,877.5,399.716" style="stroke:#E7E7E7;stroke-width:1.0;"/><line style="stroke:#E7E7E7;stroke-width:1.0;stroke-dasharray:2.0,2.0;" x1="411.5" x2="879.5" y1="399.716" y2="399.716"/><text fill="#FFFFFF" font-family="sans-serif" font-size="13" lengthAdjust="spacing" textLength="69" x="418.5" y="393.907">allCourses()</text><polygon fill="#E7E7E7" points="1016,427.4221,1026,431.4221,1016,435.4221,1020,431.4221" style="stroke:#E7E7E7;stroke-width:1.0;"/><line style="stroke:#E7E7E7;stroke-width:1.0;stroke-dasharray:2.0,2.0;" x1="895.5" x2="1022" y1="431.4221" y2="431.4221"/><text fill="#FFFFFF" font-family="sans-serif" font-size="13" lengthAdjust="spacing" textLength="45" x="902.5" y="425.6131">findAll()</text><polygon fill="#E7E7E7" points="906.5,459.1281,896.5,463.1281,906.5,467.1281,902.5,463.1281" style="stroke:#E7E7E7;stroke-width:1.0;"/><line style="stroke:#E7E7E7;stroke-width:1.0;stroke-dasharray:2.0,2.0;" x1="900.5" x2="1032" y1="463.1281" y2="463.1281"/><text fill="#FFFFFF" font-family="sans-serif" font-size="13" lengthAdjust="spacing" textLength="46" x="912.5" y="457.3191">courses</text><polygon fill="#E7E7E7" points="422.5,490.8341,412.5,494.8341,422.5,498.8341,418.5,494.8341" style="stroke:#E7E7E7;stroke-width:1.0;"/><line style="stroke:#E7E7E7;stroke-width:1.0;stroke-dasharray:2.0,2.0;" x1="416.5" x2="889.5" y1="494.8341" y2="494.8341"/><text fill="#FFFFFF" font-family="sans-serif" font-size="13" lengthAdjust="spacing" textLength="46" x="428.5" y="489.0251">courses</text><polygon fill="#E7E7E7" points="1191,522.5401,1201,526.5401,1191,530.5401,1195,526.5401" style="stroke:#E7E7E7;stroke-width:1.0;"/><line style="stroke:#E7E7E7;stroke-width:1.0;stroke-dasharray:2.0,2.0;" x1="411.5" x2="1197" y1="526.5401" y2="526.5401"/><text fill="#FFFFFF" font-family="sans-serif" font-size="13" lengthAdjust="spacing" textLength="93" x="418.5" y="520.7311">toDTO(courses)</text><path d="M1096,541.5401 L1169,541.5401 L1169,551.2461 L1159,561.2461 L1096,561.2461 L1096,541.5401 " fill="#555555" style="stroke:#FFFFFF;stroke-width:1.5;"/><rect fill="none" height="81.412" style="stroke:#FFFFFF;stroke-width:1.5;" width="385" x="1096" y="541.5401"/><text fill="#FFFFFF" font-family="sans-serif" font-size="13" font-weight="bold" lengthAdjust="spacing" textLength="28" x="1111" y="556.4371">loop</text><text fill="#FFFFFF" font-family="sans-serif" font-size="11" font-weight="bold" lengthAdjust="spacing" textLength="152" x="1184" y="555.299">[for each course in courses]</text><polygon fill="#E7E7E7" points="1378.5,580.9521,1388.5,584.9521,1378.5,588.9521,1382.5,584.9521" style="stroke:#E7E7E7;stroke-width:1.0;"/><line style="stroke:#E7E7E7;stroke-width:1.0;stroke-dasharray:2.0,2.0;" x1="1213" x2="1384.5" y1="584.9521" y2="584.9521"/><text fill="#FFFFFF" font-family="sans-serif" font-size="13" lengthAdjust="spacing" textLength="45" x="1220" y="579.1431">create()</text><polygon fill="#E7E7E7" points="422.5,649.6582,412.5,653.6582,422.5,657.6582,418.5,653.6582" style="stroke:#E7E7E7;stroke-width:1.0;"/><line style="stroke:#E7E7E7;stroke-width:1.0;stroke-dasharray:2.0,2.0;" x1="416.5" x2="1207" y1="653.6582" y2="653.6582"/><text fill="#FFFFFF" font-family="sans-serif" font-size="13" lengthAdjust="spacing" textLength="87" x="428.5" y="647.8492">courseDTOList</text><polygon fill="#E7E7E7" points="219.5,681.3642,209.5,685.3642,219.5,689.3642,215.5,685.3642" style="stroke:#E7E7E7;stroke-width:1.0;"/><line style="stroke:#E7E7E7;stroke-width:1.0;stroke-dasharray:2.0,2.0;" x1="213.5" x2="405.5" y1="685.3642" y2="685.3642"/><text fill="#FFFFFF" font-family="sans-serif" font-size="13" lengthAdjust="spacing" textLength="87" x="225.5" y="679.5552">courseDTOList</text><polygon fill="#E7E7E7" points="49.5,713.0702,39.5,717.0702,49.5,721.0702,45.5,717.0702" style="stroke:#E7E7E7;stroke-width:1.0;"/><line style="stroke:#E7E7E7;stroke-width:1.0;stroke-dasharray:2.0,2.0;" x1="43.5" x2="202.5" y1="717.0702" y2="717.0702"/><text fill="#FFFFFF" font-family="sans-serif" font-size="13" lengthAdjust="spacing" textLength="136" x="55.5" y="711.2612">show available courses</text><!--SRC=[ZLJBRiCW4Bpp5ToQ7l83ELIAKbMgrAfL7-UAuas3H8q5n7N-lhk04upj93v5sPcTdM51I6yiVnQr-07BXUDx1vOrmdebLIDgpv-Ky-jMA2s-DMpCtZfmduy1gYu2DwRsrcWTUqjlDHjmNi4wf44jWQ3G-OZh1gWtQ8nJEEZXGT2y1m9PQBwsGhBH34dw7Moh913KjNA0GeI3KzFKpGnR5LRkFrwUHTD48x_XrmKu0IkFNMzu8OxrO3FyOemYvylb7GRALnmm1iiO6bMjy40fS_omHX2A447I0jOMjw5qX8PyUVe2Cb8wPDZUhWANU0MtE_uPwLrWfvXBpH6_FuwyMC5iEIkHydZgJ3UUvzJGKw8zCJKnrqnkpenjs0Kx0okquEFZ4iMrkExWS6s9g_LcFW5QxNnsucJEjwgkrbfVRJq5Q3Bz5F_PX2P7w5Uru6TS6dviErwk5VS6Bz4YqIUifqkOIsjZ6hx51mqrTacPgthI0tsnHL35cpgpA0DHkj1bCNDKbg6kmb1iHfLCzn6XMtg-fe9ALiTPXHTZJ3-tak6rMN6tCt-dlJmcb37nuVa7]--></g></svg>