<?xml version="1.0" encoding="us-ascii" standalone="no"?><svg xmlns="http://www.w3.org/2000/svg" xmlns:xlink="http://www.w3.org/1999/xlink" contentStyleType="text/css" height="755px" preserveAspectRatio="none" style="width:1338px;height:755px;background:#1B1B1B;" version="1.1" viewBox="0 0 1338 755" width="1338px" zoomAndPan="magnify"><defs/><g><rect fill="#1B1B1B" height="755" style="stroke:none;stroke-width:1.0;" width="1338" x="0" y="0"/><rect fill="#000000" height="535.8842" style="stroke:#E7E7E7;stroke-width:1.0;" width="10" x="198.5" y="117.7739"/><rect fill="#000000" height="186.8241" style="stroke:#E7E7E7;stroke-width:1.0;" width="10" x="401.5" y="149.4799"/><rect fill="#000000" height="253.9421" style="stroke:#E7E7E7;stroke-width:1.0;" width="10" x="401.5" y="368.01"/><rect fill="#000000" height="61.706" style="stroke:#E7E7E7;stroke-width:1.0;" width="10" x="592" y="181.186"/><rect fill="#000000" height="30" style="stroke:#E7E7E7;stroke-width:1.0;" width="10" x="739.5" y="212.892"/><rect fill="#000000" height="61.706" style="stroke:#E7E7E7;stroke-width:1.0;" width="10" x="739.5" y="274.598"/><rect fill="#000000" height="30" style="stroke:#E7E7E7;stroke-width:1.0;" width="10" x="879" y="306.304"/><rect fill="#000000" height="31.706" style="stroke:#E7E7E7;stroke-width:1.0;" width="10" x="879" y="399.716"/><rect fill="#000000" height="127.118" style="stroke:#E7E7E7;stroke-width:1.0;" width="10" x="1054" y="463.1281"/><rect fill="#000000" height="30" style="stroke:#E7E7E7;stroke-width:1.0;" width="10" x="1241.5" y="521.5401"/><rect fill="none" height="81.412" style="stroke:#FFFFFF;stroke-width:1.5;" width="385" x="947" y="478.1281"/><line style="stroke:#E7E7E7;stroke-width:0.5;stroke-dasharray:5.0,5.0;" x1="38" x2="38" y1="84.0679" y2="671.6582"/><line style="stroke:#E7E7E7;stroke-width:0.5;stroke-dasharray:5.0,5.0;" x1="203" x2="203" y1="84.0679" y2="671.6582"/><line style="stroke:#E7E7E7;stroke-width:0.5;stroke-dasharray:5.0,5.0;" x1="406" x2="406" y1="84.0679" y2="671.6582"/><line style="stroke:#E7E7E7;stroke-width:0.5;stroke-dasharray:5.0,5.0;" x1="597" x2="597" y1="84.0679" y2="671.6582"/><line style="stroke:#E7E7E7;stroke-width:0.5;stroke-dasharray:5.0,5.0;" x1="744" x2="744" y1="84.0679" y2="671.6582"/><line style="stroke:#E7E7E7;stroke-width:0.5;stroke-dasharray:5.0,5.0;" x1="884" x2="884" y1="84.0679" y2="671.6582"/><line style="stroke:#E7E7E7;stroke-width:0.5;stroke-dasharray:5.0,5.0;" x1="1059" x2="1059" y1="84.0679" y2="671.6582"/><line style="stroke:#E7E7E7;stroke-width:0.5;stroke-dasharray:5.0,5.0;" x1="1246" x2="1246" y1="84.0679" y2="671.6582"/><text fill="#FFFFFF" font-family="sans-serif" font-size="14" lengthAdjust="spacing" textLength="61" x="5" y="79.9659">Manager</text><ellipse cx="38.5" cy="13.5" fill="#222222" rx="8" ry="8" style="stroke:#E7E7E7;stroke-width:0.5;"/><path d="M38.5,21.5 L38.5,48.5 M25.5,29.5 L51.5,29.5 M38.5,48.5 L25.5,63.5 M38.5,48.5 L51.5,63.5 " fill="none" style="stroke:#E7E7E7;stroke-width:0.5;"/><text fill="#FFFFFF" font-family="sans-serif" font-size="14" lengthAdjust="spacing" textLength="61" x="5" y="685.6241">Manager</text><ellipse cx="38.5" cy="698.2261" fill="#222222" rx="8" ry="8" style="stroke:#E7E7E7;stroke-width:0.5;"/><path d="M38.5,706.2261 L38.5,733.2261 M25.5,714.2261 L51.5,714.2261 M38.5,733.2261 L25.5,748.2261 M38.5,733.2261 L51.5,748.2261 " fill="none" style="stroke:#E7E7E7;stroke-width:0.5;"/><rect fill="#222222" height="33.0679" rx="2.5" ry="2.5" style="stroke:#E7E7E7;stroke-width:0.5;" width="167" x="120" y="50"/><text fill="#FFFFFF" font-family="sans-serif" font-size="14" lengthAdjust="spacing" textLength="153" x="127" y="71.9659">ListAvailableCoursesUI</text><rect fill="#222222" height="33.0679" rx="2.5" ry="2.5" style="stroke:#E7E7E7;stroke-width:0.5;" width="167" x="120" y="670.6582"/><text fill="#FFFFFF" font-family="sans-serif" font-size="14" lengthAdjust="spacing" textLength="153" x="127" y="692.6241">ListAvailableCoursesUI</text><rect fill="#222222" height="33.0679" rx="2.5" ry="2.5" style="stroke:#E7E7E7;stroke-width:0.5;" width="219" x="297" y="50"/><text fill="#FFFFFF" font-family="sans-serif" font-size="14" lengthAdjust="spacing" textLength="205" x="304" y="71.9659">ListAvailableCoursesController</text><rect fill="#222222" height="33.0679" rx="2.5" ry="2.5" style="stroke:#E7E7E7;stroke-width:0.5;" width="219" x="297" y="670.6582"/><text fill="#FFFFFF" font-family="sans-serif" font-size="14" lengthAdjust="spacing" textLength="205" x="304" y="692.6241">ListAvailableCoursesController</text><rect fill="#222222" height="33.0679" rx="2.5" ry="2.5" style="stroke:#E7E7E7;stroke-width:0.5;" width="142" x="526" y="50"/><text fill="#FFFFFF" font-family="sans-serif" font-size="14" lengthAdjust="spacing" textLength="128" x="533" y="71.9659">PersistenceContext</text><rect fill="#222222" height="33.0679" rx="2.5" ry="2.5" style="stroke:#E7E7E7;stroke-width:0.5;" width="142" x="526" y="670.6582"/><text fill="#FFFFFF" font-family="sans-serif" font-size="14" lengthAdjust="spacing" textLength="128" x="533" y="692.6241">PersistenceContext</text><rect fill="#222222" height="33.0679" rx="2.5" ry="2.5" style="stroke:#E7E7E7;stroke-width:0.5;" width="133" x="678" y="50"/><text fill="#FFFFFF" font-family="sans-serif" font-size="14" lengthAdjust="spacing" textLength="119" x="685" y="71.9659">RepositoryFactory</text><rect fill="#222222" height="33.0679" rx="2.5" ry="2.5" style="stroke:#E7E7E7;stroke-width:0.5;" width="133" x="678" y="670.6582"/><text fill="#FFFFFF" font-family="sans-serif" font-size="14" lengthAdjust="spacing" textLength="119" x="685" y="692.6241">RepositoryFactory</text><rect fill="#222222" height="33.0679" rx="2.5" ry="2.5" style="stroke:#E7E7E7;stroke-width:0.5;" width="126" x="821" y="50"/><text fill="#FFFFFF" font-family="sans-serif" font-size="14" lengthAdjust="spacing" textLength="112" x="828" y="71.9659">CouseRepository</text><rect fill="#222222" height="33.0679" rx="2.5" ry="2.5" style="stroke:#E7E7E7;stroke-width:0.5;" width="126" x="821" y="670.6582"/><text fill="#FFFFFF" font-family="sans-serif" font-size="14" lengthAdjust="spacing" textLength="112" x="828" y="692.6241">CouseRepository</text><rect fill="#222222" height="33.0679" rx="2.5" ry="2.5" style="stroke:#E7E7E7;stroke-width:0.5;" width="204" x="957" y="50"/><text fill="#FFFFFF" font-family="sans-serif" font-size="14" lengthAdjust="spacing" textLength="190" x="964" y="71.9659">AvailableCourseDTOMapper</text><rect fill="#222222" height="33.0679" rx="2.5" ry="2.5" style="stroke:#E7E7E7;stroke-width:0.5;" width="204" x="957" y="670.6582"/><text fill="#FFFFFF" font-family="sans-serif" font-size="14" lengthAdjust="spacing" textLength="190" x="964" y="692.6241">AvailableCourseDTOMapper</text><rect fill="#222222" height="33.0679" rx="2.5" ry="2.5" style="stroke:#E7E7E7;stroke-width:0.5;" width="151" x="1171" y="50"/><text fill="#FFFFFF" font-family="sans-serif" font-size="14" lengthAdjust="spacing" textLength="137" x="1178" y="71.9659">AvailableCourseDTO</text><rect fill="#222222" height="33.0679" rx="2.5" ry="2.5" style="stroke:#E7E7E7;stroke-width:0.5;" width="151" x="1171" y="670.6582"/><text fill="#FFFFFF" font-family="sans-serif" font-size="14" lengthAdjust="spacing" textLength="137" x="1178" y="692.6241">AvailableCourseDTO</text><rect fill="#000000" height="535.8842" style="stroke:#E7E7E7;stroke-width:1.0;" width="10" x="198.5" y="117.7739"/><rect fill="#000000" height="186.8241" style="stroke:#E7E7E7;stroke-width:1.0;" width="10" x="401.5" y="149.4799"/><rect fill="#000000" height="253.9421" style="stroke:#E7E7E7;stroke-width:1.0;" width="10" x="401.5" y="368.01"/><rect fill="#000000" height="61.706" style="stroke:#E7E7E7;stroke-width:1.0;" width="10" x="592" y="181.186"/><rect fill="#000000" height="30" style="stroke:#E7E7E7;stroke-width:1.0;" width="10" x="739.5" y="212.892"/><rect fill="#000000" height="61.706" style="stroke:#E7E7E7;stroke-width:1.0;" width="10" x="739.5" y="274.598"/><rect fill="#000000" height="30" style="stroke:#E7E7E7;stroke-width:1.0;" width="10" x="879" y="306.304"/><rect fill="#000000" height="31.706" style="stroke:#E7E7E7;stroke-width:1.0;" width="10" x="879" y="399.716"/><rect fill="#000000" height="127.118" style="stroke:#E7E7E7;stroke-width:1.0;" width="10" x="1054" y="463.1281"/><rect fill="#000000" height="30" style="stroke:#E7E7E7;stroke-width:1.0;" width="10" x="1241.5" y="521.5401"/><polygon fill="#E7E7E7" points="186.5,113.7739,196.5,117.7739,186.5,121.7739,190.5,117.7739" style="stroke:#E7E7E7;stroke-width:1.0;"/><line style="stroke:#E7E7E7;stroke-width:1.0;stroke-dasharray:2.0,2.0;" x1="38.5" x2="192.5" y1="117.7739" y2="117.7739"/><text fill="#FFFFFF" font-family="sans-serif" font-size="13" lengthAdjust="spacing" textLength="32" x="45.5" y="111.9649">enter</text><polygon fill="#E7E7E7" points="389.5,145.4799,399.5,149.4799,389.5,153.4799,393.5,149.4799" style="stroke:#E7E7E7;stroke-width:1.0;"/><line style="stroke:#E7E7E7;stroke-width:1.0;stroke-dasharray:2.0,2.0;" x1="208.5" x2="395.5" y1="149.4799" y2="149.4799"/><text fill="#FFFFFF" font-family="sans-serif" font-size="13" lengthAdjust="spacing" textLength="45" x="215.5" y="143.6709">create()</text><polygon fill="#E7E7E7" points="580,177.186,590,181.186,580,185.186,584,181.186" style="stroke:#E7E7E7;stroke-width:1.0;"/><line style="stroke:#E7E7E7;stroke-width:1.0;stroke-dasharray:2.0,2.0;" x1="411.5" x2="586" y1="181.186" y2="181.186"/><text fill="#FFFFFF" font-family="sans-serif" font-size="13" lengthAdjust="spacing" textLength="79" x="418.5" y="175.377">repositories()</text><polygon fill="#E7E7E7" points="727.5,208.892,737.5,212.892,727.5,216.892,731.5,212.892" style="stroke:#E7E7E7;stroke-width:1.0;"/><line style="stroke:#E7E7E7;stroke-width:1.0;stroke-dasharray:2.0,2.0;" x1="602" x2="733.5" y1="212.892" y2="212.892"/><text fill="#FFFFFF" font-family="sans-serif" font-size="13" lengthAdjust="spacing" textLength="45" x="609" y="207.083">create()</text><polygon fill="#E7E7E7" points="727.5,270.598,737.5,274.598,727.5,278.598,731.5,274.598" style="stroke:#E7E7E7;stroke-width:1.0;"/><line style="stroke:#E7E7E7;stroke-width:1.0;stroke-dasharray:2.0,2.0;" x1="411.5" x2="733.5" y1="274.598" y2="274.598"/><text fill="#FFFFFF" font-family="sans-serif" font-size="13" lengthAdjust="spacing" textLength="54" x="418.5" y="268.789">courses()</text><polygon fill="#E7E7E7" points="867,302.304,877,306.304,867,310.304,871,306.304" style="stroke:#E7E7E7;stroke-width:1.0;"/><line style="stroke:#E7E7E7;stroke-width:1.0;stroke-dasharray:2.0,2.0;" x1="749.5" x2="873" y1="306.304" y2="306.304"/><text fill="#FFFFFF" font-family="sans-serif" font-size="13" lengthAdjust="spacing" textLength="45" x="756.5" y="300.495">create()</text><polygon fill="#E7E7E7" points="389.5,364.01,399.5,368.01,389.5,372.01,393.5,368.01" style="stroke:#E7E7E7;stroke-width:1.0;"/><line style="stroke:#E7E7E7;stroke-width:1.0;stroke-dasharray:2.0,2.0;" x1="208.5" x2="395.5" y1="368.01" y2="368.01"/><text fill="#FFFFFF" font-family="sans-serif" font-size="13" lengthAdjust="spacing" textLength="108" x="215.5" y="362.201">availableCourses()</text><polygon fill="#E7E7E7" points="867,395.716,877,399.716,867,403.716,871,399.716" style="stroke:#E7E7E7;stroke-width:1.0;"/><line style="stroke:#E7E7E7;stroke-width:1.0;stroke-dasharray:2.0,2.0;" x1="411.5" x2="873" y1="399.716" y2="399.716"/><text fill="#FFFFFF" font-family="sans-serif" font-size="13" lengthAdjust="spacing" textLength="69" x="418.5" y="393.907">allCourses()</text><polygon fill="#E7E7E7" points="422.5,427.4221,412.5,431.4221,422.5,435.4221,418.5,431.4221" style="stroke:#E7E7E7;stroke-width:1.0;"/><line style="stroke:#E7E7E7;stroke-width:1.0;stroke-dasharray:2.0,2.0;" x1="416.5" x2="883" y1="431.4221" y2="431.4221"/><text fill="#FFFFFF" font-family="sans-serif" font-size="13" lengthAdjust="spacing" textLength="46" x="428.5" y="425.6131">courses</text><polygon fill="#E7E7E7" points="1042,459.1281,1052,463.1281,1042,467.1281,1046,463.1281" style="stroke:#E7E7E7;stroke-width:1.0;"/><line style="stroke:#E7E7E7;stroke-width:1.0;stroke-dasharray:2.0,2.0;" x1="411.5" x2="1048" y1="463.1281" y2="463.1281"/><text fill="#FFFFFF" font-family="sans-serif" font-size="13" lengthAdjust="spacing" textLength="93" x="418.5" y="457.3191">toDTO(courses)</text><path d="M947,478.1281 L1020,478.1281 L1020,487.8341 L1010,497.8341 L947,497.8341 L947,478.1281 " fill="#555555" style="stroke:#FFFFFF;stroke-width:1.5;"/><rect fill="none" height="81.412" style="stroke:#FFFFFF;stroke-width:1.5;" width="385" x="947" y="478.1281"/><text fill="#FFFFFF" font-family="sans-serif" font-size="13" font-weight="bold" lengthAdjust="spacing" textLength="28" x="962" y="493.0251">loop</text><text fill="#FFFFFF" font-family="sans-serif" font-size="11" font-weight="bold" lengthAdjust="spacing" textLength="152" x="1035" y="491.887">[for each course in courses]</text><polygon fill="#E7E7E7" points="1229.5,517.5401,1239.5,521.5401,1229.5,525.5401,1233.5,521.5401" style="stroke:#E7E7E7;stroke-width:1.0;"/><line style="stroke:#E7E7E7;stroke-width:1.0;stroke-dasharray:2.0,2.0;" x1="1064" x2="1235.5" y1="521.5401" y2="521.5401"/><text fill="#FFFFFF" font-family="sans-serif" font-size="13" lengthAdjust="spacing" textLength="45" x="1071" y="515.7311">create()</text><polygon fill="#E7E7E7" points="422.5,586.2461,412.5,590.2461,422.5,594.2461,418.5,590.2461" style="stroke:#E7E7E7;stroke-width:1.0;"/><line style="stroke:#E7E7E7;stroke-width:1.0;stroke-dasharray:2.0,2.0;" x1="416.5" x2="1058" y1="590.2461" y2="590.2461"/><text fill="#FFFFFF" font-family="sans-serif" font-size="13" lengthAdjust="spacing" textLength="87" x="428.5" y="584.4371">courseDTOList</text><polygon fill="#E7E7E7" points="219.5,617.9521,209.5,621.9521,219.5,625.9521,215.5,621.9521" style="stroke:#E7E7E7;stroke-width:1.0;"/><line style="stroke:#E7E7E7;stroke-width:1.0;stroke-dasharray:2.0,2.0;" x1="213.5" x2="405.5" y1="621.9521" y2="621.9521"/><text fill="#FFFFFF" font-family="sans-serif" font-size="13" lengthAdjust="spacing" textLength="87" x="225.5" y="616.1431">courseDTOList</text><polygon fill="#E7E7E7" points="49.5,649.6582,39.5,653.6582,49.5,657.6582,45.5,653.6582" style="stroke:#E7E7E7;stroke-width:1.0;"/><line style="stroke:#E7E7E7;stroke-width:1.0;stroke-dasharray:2.0,2.0;" x1="43.5" x2="202.5" y1="653.6582" y2="653.6582"/><text fill="#FFFFFF" font-family="sans-serif" font-size="13" lengthAdjust="spacing" textLength="136" x="55.5" y="647.8492">show available courses</text><!--SRC=[ZLJBJiCm4BpxAtmiX_v03qWe20c92eJWZ4owfPPCrhBTaluzwqVQs4xQ-bHrPtPcn-k8rg7XQz697p1SMBwtO9WMnibMQj4v_YAjUpW8gSItWWRtneBzV0vGUHNOOESCAXLxjyuebd7Um5YYGTU2XqBl8gxFKE-WqKeoUdmItk_HWmpehwreytuaQ-4CJpZCGON9nu_NjT0wMlmDlwx0FN3ZgAiFYo-NznG5Nt6W0GnZP54UX0EV3wT3DG_nmnEeDK2rnLqedQ0X6PvEG4PAJmmpZ2F19bx1xKz_HdeVs2cWKhFY3q6EYnkOBOzANhbsFTADIp1bUafq8AOcU8jpl60RsPLnib7yQjRN9Og5lktYadkXL7Cn0YpdnsnL8fVDJLVhnkrTSOUqfOl4dv1EMpuMLuYQR-bRG2Ax9CrbLvaOJcmHLEafpDnK9kfVJ5aSZLIMeTi4Ksn6rGyzP4JJ-g_FL59fr3ghy6Hh-gMT2CzznUqE_ywBSKfenAIN_my0]--></g></svg>