<?xml version="1.0" encoding="us-ascii" standalone="no"?><svg xmlns="http://www.w3.org/2000/svg" xmlns:xlink="http://www.w3.org/1999/xlink" contentStyleType="text/css" height="1227px" preserveAspectRatio="none" style="width:2238px;height:1227px;background:#1B1B1B;" version="1.1" viewBox="0 0 2238 1227" width="2238px" zoomAndPan="magnify"><defs/><g><rect fill="#1B1B1B" height="1227" style="stroke:none;stroke-width:1.0;" width="2238" x="0" y="0"/><rect fill="#000000" height="1008.0624" style="stroke:#E7E7E7;stroke-width:1.0;" width="10" x="194.5" y="117.7739"/><rect fill="#000000" height="532.1782" style="stroke:#E7E7E7;stroke-width:1.0;" width="10" x="397.5" y="149.4799"/><rect fill="#000000" height="380.7662" style="stroke:#E7E7E7;stroke-width:1.0;" width="10" x="397.5" y="713.3642"/><rect fill="#000000" height="61.706" style="stroke:#E7E7E7;stroke-width:1.0;" width="10" x="588" y="181.186"/><rect fill="#000000" height="30" style="stroke:#E7E7E7;stroke-width:1.0;" width="10" x="735.5" y="212.892"/><rect fill="#000000" height="61.706" style="stroke:#E7E7E7;stroke-width:1.0;" width="10" x="735.5" y="274.598"/><rect fill="#000000" height="61.706" style="stroke:#E7E7E7;stroke-width:1.0;" width="10" x="735.5" y="368.01"/><rect fill="#000000" height="95.118" style="stroke:#E7E7E7;stroke-width:1.0;" width="10" x="881.5" y="808.4822"/><rect fill="#000000" height="30" style="stroke:#E7E7E7;stroke-width:1.0;" width="10" x="1172.5" y="306.304"/><rect fill="#000000" height="31.706" style="stroke:#E7E7E7;stroke-width:1.0;" width="10" x="1172.5" y="840.1882"/><rect fill="#000000" height="30" style="stroke:#E7E7E7;stroke-width:1.0;" width="10" x="1314.5" y="399.716"/><rect fill="#000000" height="31.706" style="stroke:#E7E7E7;stroke-width:1.0;" width="10" x="1314.5" y="745.0702"/><rect fill="#000000" height="93.412" style="stroke:#E7E7E7;stroke-width:1.0;" width="10" x="1447.5" y="461.4221"/><rect fill="#000000" height="61.706" style="stroke:#E7E7E7;stroke-width:1.0;" width="10" x="1588" y="493.1281"/><rect fill="#000000" height="30" style="stroke:#E7E7E7;stroke-width:1.0;" width="10" x="1707" y="524.8341"/><rect fill="#000000" height="95.118" style="stroke:#E7E7E7;stroke-width:1.0;" width="10" x="1707" y="586.5401"/><rect fill="#000000" height="31.706" style="stroke:#E7E7E7;stroke-width:1.0;" width="10" x="1796" y="618.2461"/><rect fill="#000000" height="127.118" style="stroke:#E7E7E7;stroke-width:1.0;" width="10" x="1954.5" y="935.3063"/><rect fill="#000000" height="30" style="stroke:#E7E7E7;stroke-width:1.0;" width="10" x="2142" y="993.7183"/><rect fill="none" height="81.412" style="stroke:#FFFFFF;stroke-width:1.5;" width="385" x="1847.5" y="950.3063"/><line style="stroke:#E7E7E7;stroke-width:0.5;stroke-dasharray:5.0,5.0;" x1="34" x2="34" y1="84.0679" y2="1143.8364"/><line style="stroke:#E7E7E7;stroke-width:0.5;stroke-dasharray:5.0,5.0;" x1="199" x2="199" y1="84.0679" y2="1143.8364"/><line style="stroke:#E7E7E7;stroke-width:0.5;stroke-dasharray:5.0,5.0;" x1="402" x2="402" y1="84.0679" y2="1143.8364"/><line style="stroke:#E7E7E7;stroke-width:0.5;stroke-dasharray:5.0,5.0;" x1="593" x2="593" y1="84.0679" y2="1143.8364"/><line style="stroke:#E7E7E7;stroke-width:0.5;stroke-dasharray:5.0,5.0;" x1="740" x2="740" y1="84.0679" y2="1143.8364"/><line style="stroke:#E7E7E7;stroke-width:0.5;stroke-dasharray:5.0,5.0;" x1="886" x2="886" y1="84.0679" y2="1143.8364"/><line style="stroke:#E7E7E7;stroke-width:0.5;stroke-dasharray:5.0,5.0;" x1="1177.5" x2="1177.5" y1="84.0679" y2="1143.8364"/><line style="stroke:#E7E7E7;stroke-width:0.5;stroke-dasharray:5.0,5.0;" x1="1319.5" x2="1319.5" y1="84.0679" y2="1143.8364"/><line style="stroke:#E7E7E7;stroke-width:0.5;stroke-dasharray:5.0,5.0;" x1="1452.5" x2="1452.5" y1="84.0679" y2="1143.8364"/><line style="stroke:#E7E7E7;stroke-width:0.5;stroke-dasharray:5.0,5.0;" x1="1592.5" x2="1592.5" y1="84.0679" y2="1143.8364"/><line style="stroke:#E7E7E7;stroke-width:0.5;stroke-dasharray:5.0,5.0;" x1="1711.5" x2="1711.5" y1="84.0679" y2="1143.8364"/><line style="stroke:#E7E7E7;stroke-width:0.5;stroke-dasharray:5.0,5.0;" x1="1800.5" x2="1800.5" y1="84.0679" y2="1143.8364"/><line style="stroke:#E7E7E7;stroke-width:0.5;stroke-dasharray:5.0,5.0;" x1="1959.5" x2="1959.5" y1="84.0679" y2="1143.8364"/><line style="stroke:#E7E7E7;stroke-width:0.5;stroke-dasharray:5.0,5.0;" x1="2146.5" x2="2146.5" y1="84.0679" y2="1143.8364"/><text fill="#FFFFFF" font-family="sans-serif" font-size="14" lengthAdjust="spacing" textLength="53" x="5" y="79.9659">Student</text><ellipse cx="34.5" cy="13.5" fill="#222222" rx="8" ry="8" style="stroke:#E7E7E7;stroke-width:0.5;"/><path d="M34.5,21.5 L34.5,48.5 M21.5,29.5 L47.5,29.5 M34.5,48.5 L21.5,63.5 M34.5,48.5 L47.5,63.5 " fill="none" style="stroke:#E7E7E7;stroke-width:0.5;"/><text fill="#FFFFFF" font-family="sans-serif" font-size="14" lengthAdjust="spacing" textLength="53" x="5" y="1157.8023">Student</text><ellipse cx="34.5" cy="1170.4043" fill="#222222" rx="8" ry="8" style="stroke:#E7E7E7;stroke-width:0.5;"/><path d="M34.5,1178.4043 L34.5,1205.4043 M21.5,1186.4043 L47.5,1186.4043 M34.5,1205.4043 L21.5,1220.4043 M34.5,1205.4043 L47.5,1220.4043 " fill="none" style="stroke:#E7E7E7;stroke-width:0.5;"/><rect fill="#222222" height="33.0679" rx="2.5" ry="2.5" style="stroke:#E7E7E7;stroke-width:0.5;" width="167" x="116" y="50"/><text fill="#FFFFFF" font-family="sans-serif" font-size="14" lengthAdjust="spacing" textLength="153" x="123" y="71.9659">ListAvailableCoursesUI</text><rect fill="#222222" height="33.0679" rx="2.5" ry="2.5" style="stroke:#E7E7E7;stroke-width:0.5;" width="167" x="116" y="1142.8364"/><text fill="#FFFFFF" font-family="sans-serif" font-size="14" lengthAdjust="spacing" textLength="153" x="123" y="1164.8023">ListAvailableCoursesUI</text><rect fill="#222222" height="33.0679" rx="2.5" ry="2.5" style="stroke:#E7E7E7;stroke-width:0.5;" width="219" x="293" y="50"/><text fill="#FFFFFF" font-family="sans-serif" font-size="14" lengthAdjust="spacing" textLength="205" x="300" y="71.9659">ListAvailableCoursesController</text><rect fill="#222222" height="33.0679" rx="2.5" ry="2.5" style="stroke:#E7E7E7;stroke-width:0.5;" width="219" x="293" y="1142.8364"/><text fill="#FFFFFF" font-family="sans-serif" font-size="14" lengthAdjust="spacing" textLength="205" x="300" y="1164.8023">ListAvailableCoursesController</text><rect fill="#222222" height="33.0679" rx="2.5" ry="2.5" style="stroke:#E7E7E7;stroke-width:0.5;" width="142" x="522" y="50"/><text fill="#FFFFFF" font-family="sans-serif" font-size="14" lengthAdjust="spacing" textLength="128" x="529" y="71.9659">PersistenceContext</text><rect fill="#222222" height="33.0679" rx="2.5" ry="2.5" style="stroke:#E7E7E7;stroke-width:0.5;" width="142" x="522" y="1142.8364"/><text fill="#FFFFFF" font-family="sans-serif" font-size="14" lengthAdjust="spacing" textLength="128" x="529" y="1164.8023">PersistenceContext</text><rect fill="#222222" height="33.0679" rx="2.5" ry="2.5" style="stroke:#E7E7E7;stroke-width:0.5;" width="133" x="674" y="50"/><text fill="#FFFFFF" font-family="sans-serif" font-size="14" lengthAdjust="spacing" textLength="119" x="681" y="71.9659">RepositoryFactory</text><rect fill="#222222" height="33.0679" rx="2.5" ry="2.5" style="stroke:#E7E7E7;stroke-width:0.5;" width="133" x="674" y="1142.8364"/><text fill="#FFFFFF" font-family="sans-serif" font-size="14" lengthAdjust="spacing" textLength="119" x="681" y="1164.8023">RepositoryFactory</text><rect fill="#222222" height="33.0679" rx="2.5" ry="2.5" style="stroke:#E7E7E7;stroke-width:0.5;" width="139" x="817" y="50"/><text fill="#FFFFFF" font-family="sans-serif" font-size="14" lengthAdjust="spacing" textLength="125" x="824" y="71.9659">ListCoursesService</text><rect fill="#222222" height="33.0679" rx="2.5" ry="2.5" style="stroke:#E7E7E7;stroke-width:0.5;" width="139" x="817" y="1142.8364"/><text fill="#FFFFFF" font-family="sans-serif" font-size="14" lengthAdjust="spacing" textLength="125" x="824" y="1164.8023">ListCoursesService</text><rect fill="#222222" height="33.0679" rx="2.5" ry="2.5" style="stroke:#E7E7E7;stroke-width:0.5;" width="126" x="1114.5" y="50"/><text fill="#FFFFFF" font-family="sans-serif" font-size="14" lengthAdjust="spacing" textLength="112" x="1121.5" y="71.9659">CouseRepository</text><rect fill="#222222" height="33.0679" rx="2.5" ry="2.5" style="stroke:#E7E7E7;stroke-width:0.5;" width="126" x="1114.5" y="1142.8364"/><text fill="#FFFFFF" font-family="sans-serif" font-size="14" lengthAdjust="spacing" textLength="112" x="1121.5" y="1164.8023">CouseRepository</text><rect fill="#222222" height="33.0679" rx="2.5" ry="2.5" style="stroke:#E7E7E7;stroke-width:0.5;" width="138" x="1250.5" y="50"/><text fill="#FFFFFF" font-family="sans-serif" font-size="14" lengthAdjust="spacing" textLength="124" x="1257.5" y="71.9659">StudentRepository</text><rect fill="#222222" height="33.0679" rx="2.5" ry="2.5" style="stroke:#E7E7E7;stroke-width:0.5;" width="138" x="1250.5" y="1142.8364"/><text fill="#FFFFFF" font-family="sans-serif" font-size="14" lengthAdjust="spacing" textLength="124" x="1257.5" y="1164.8023">StudentRepository</text><rect fill="#222222" height="33.0679" rx="2.5" ry="2.5" style="stroke:#E7E7E7;stroke-width:0.5;" width="108" x="1398.5" y="50"/><text fill="#FFFFFF" font-family="sans-serif" font-size="14" lengthAdjust="spacing" textLength="94" x="1405.5" y="71.9659">AuthzRegistry</text><rect fill="#222222" height="33.0679" rx="2.5" ry="2.5" style="stroke:#E7E7E7;stroke-width:0.5;" width="108" x="1398.5" y="1142.8364"/><text fill="#FFFFFF" font-family="sans-serif" font-size="14" lengthAdjust="spacing" textLength="94" x="1405.5" y="1164.8023">AuthzRegistry</text><rect fill="#222222" height="33.0679" rx="2.5" ry="2.5" style="stroke:#E7E7E7;stroke-width:0.5;" width="153" x="1516.5" y="50"/><text fill="#FFFFFF" font-family="sans-serif" font-size="14" lengthAdjust="spacing" textLength="139" x="1523.5" y="71.9659">AuthorizationService</text><rect fill="#222222" height="33.0679" rx="2.5" ry="2.5" style="stroke:#E7E7E7;stroke-width:0.5;" width="153" x="1516.5" y="1142.8364"/><text fill="#FFFFFF" font-family="sans-serif" font-size="14" lengthAdjust="spacing" textLength="139" x="1523.5" y="1164.8023">AuthorizationService</text><rect fill="#222222" height="33.0679" rx="2.5" ry="2.5" style="stroke:#E7E7E7;stroke-width:0.5;" width="65" x="1679.5" y="50"/><text fill="#FFFFFF" font-family="sans-serif" font-size="14" lengthAdjust="spacing" textLength="51" x="1686.5" y="71.9659">Session</text><rect fill="#222222" height="33.0679" rx="2.5" ry="2.5" style="stroke:#E7E7E7;stroke-width:0.5;" width="65" x="1679.5" y="1142.8364"/><text fill="#FFFFFF" font-family="sans-serif" font-size="14" lengthAdjust="spacing" textLength="51" x="1686.5" y="1164.8023">Session</text><rect fill="#222222" height="33.0679" rx="2.5" ry="2.5" style="stroke:#E7E7E7;stroke-width:0.5;" width="93" x="1754.5" y="50"/><text fill="#FFFFFF" font-family="sans-serif" font-size="14" lengthAdjust="spacing" textLength="79" x="1761.5" y="71.9659">SystemUser</text><rect fill="#222222" height="33.0679" rx="2.5" ry="2.5" style="stroke:#E7E7E7;stroke-width:0.5;" width="93" x="1754.5" y="1142.8364"/><text fill="#FFFFFF" font-family="sans-serif" font-size="14" lengthAdjust="spacing" textLength="79" x="1761.5" y="1164.8023">SystemUser</text><rect fill="#222222" height="33.0679" rx="2.5" ry="2.5" style="stroke:#E7E7E7;stroke-width:0.5;" width="204" x="1857.5" y="50"/><text fill="#FFFFFF" font-family="sans-serif" font-size="14" lengthAdjust="spacing" textLength="190" x="1864.5" y="71.9659">AvailableCourseDTOMapper</text><rect fill="#222222" height="33.0679" rx="2.5" ry="2.5" style="stroke:#E7E7E7;stroke-width:0.5;" width="204" x="1857.5" y="1142.8364"/><text fill="#FFFFFF" font-family="sans-serif" font-size="14" lengthAdjust="spacing" textLength="190" x="1864.5" y="1164.8023">AvailableCourseDTOMapper</text><rect fill="#222222" height="33.0679" rx="2.5" ry="2.5" style="stroke:#E7E7E7;stroke-width:0.5;" width="151" x="2071.5" y="50"/><text fill="#FFFFFF" font-family="sans-serif" font-size="14" lengthAdjust="spacing" textLength="137" x="2078.5" y="71.9659">AvailableCourseDTO</text><rect fill="#222222" height="33.0679" rx="2.5" ry="2.5" style="stroke:#E7E7E7;stroke-width:0.5;" width="151" x="2071.5" y="1142.8364"/><text fill="#FFFFFF" font-family="sans-serif" font-size="14" lengthAdjust="spacing" textLength="137" x="2078.5" y="1164.8023">AvailableCourseDTO</text><rect fill="#000000" height="1008.0624" style="stroke:#E7E7E7;stroke-width:1.0;" width="10" x="194.5" y="117.7739"/><rect fill="#000000" height="532.1782" style="stroke:#E7E7E7;stroke-width:1.0;" width="10" x="397.5" y="149.4799"/><rect fill="#000000" height="380.7662" style="stroke:#E7E7E7;stroke-width:1.0;" width="10" x="397.5" y="713.3642"/><rect fill="#000000" height="61.706" style="stroke:#E7E7E7;stroke-width:1.0;" width="10" x="588" y="181.186"/><rect fill="#000000" height="30" style="stroke:#E7E7E7;stroke-width:1.0;" width="10" x="735.5" y="212.892"/><rect fill="#000000" height="61.706" style="stroke:#E7E7E7;stroke-width:1.0;" width="10" x="735.5" y="274.598"/><rect fill="#000000" height="61.706" style="stroke:#E7E7E7;stroke-width:1.0;" width="10" x="735.5" y="368.01"/><rect fill="#000000" height="95.118" style="stroke:#E7E7E7;stroke-width:1.0;" width="10" x="881.5" y="808.4822"/><rect fill="#000000" height="30" style="stroke:#E7E7E7;stroke-width:1.0;" width="10" x="1172.5" y="306.304"/><rect fill="#000000" height="31.706" style="stroke:#E7E7E7;stroke-width:1.0;" width="10" x="1172.5" y="840.1882"/><rect fill="#000000" height="30" style="stroke:#E7E7E7;stroke-width:1.0;" width="10" x="1314.5" y="399.716"/><rect fill="#000000" height="31.706" style="stroke:#E7E7E7;stroke-width:1.0;" width="10" x="1314.5" y="745.0702"/><rect fill="#000000" height="93.412" style="stroke:#E7E7E7;stroke-width:1.0;" width="10" x="1447.5" y="461.4221"/><rect fill="#000000" height="61.706" style="stroke:#E7E7E7;stroke-width:1.0;" width="10" x="1588" y="493.1281"/><rect fill="#000000" height="30" style="stroke:#E7E7E7;stroke-width:1.0;" width="10" x="1707" y="524.8341"/><rect fill="#000000" height="95.118" style="stroke:#E7E7E7;stroke-width:1.0;" width="10" x="1707" y="586.5401"/><rect fill="#000000" height="31.706" style="stroke:#E7E7E7;stroke-width:1.0;" width="10" x="1796" y="618.2461"/><rect fill="#000000" height="127.118" style="stroke:#E7E7E7;stroke-width:1.0;" width="10" x="1954.5" y="935.3063"/><rect fill="#000000" height="30" style="stroke:#E7E7E7;stroke-width:1.0;" width="10" x="2142" y="993.7183"/><polygon fill="#E7E7E7" points="182.5,113.7739,192.5,117.7739,182.5,121.7739,186.5,117.7739" style="stroke:#E7E7E7;stroke-width:1.0;"/><line style="stroke:#E7E7E7;stroke-width:1.0;stroke-dasharray:2.0,2.0;" x1="34.5" x2="188.5" y1="117.7739" y2="117.7739"/><text fill="#FFFFFF" font-family="sans-serif" font-size="13" lengthAdjust="spacing" textLength="32" x="41.5" y="111.9649">enter</text><polygon fill="#E7E7E7" points="385.5,145.4799,395.5,149.4799,385.5,153.4799,389.5,149.4799" style="stroke:#E7E7E7;stroke-width:1.0;"/><line style="stroke:#E7E7E7;stroke-width:1.0;stroke-dasharray:2.0,2.0;" x1="204.5" x2="391.5" y1="149.4799" y2="149.4799"/><text fill="#FFFFFF" font-family="sans-serif" font-size="13" lengthAdjust="spacing" textLength="45" x="211.5" y="143.6709">create()</text><polygon fill="#E7E7E7" points="576,177.186,586,181.186,576,185.186,580,181.186" style="stroke:#E7E7E7;stroke-width:1.0;"/><line style="stroke:#E7E7E7;stroke-width:1.0;stroke-dasharray:2.0,2.0;" x1="407.5" x2="582" y1="181.186" y2="181.186"/><text fill="#FFFFFF" font-family="sans-serif" font-size="13" lengthAdjust="spacing" textLength="79" x="414.5" y="175.377">repositories()</text><polygon fill="#E7E7E7" points="723.5,208.892,733.5,212.892,723.5,216.892,727.5,212.892" style="stroke:#E7E7E7;stroke-width:1.0;"/><line style="stroke:#E7E7E7;stroke-width:1.0;stroke-dasharray:2.0,2.0;" x1="598" x2="729.5" y1="212.892" y2="212.892"/><text fill="#FFFFFF" font-family="sans-serif" font-size="13" lengthAdjust="spacing" textLength="45" x="605" y="207.083">create()</text><polygon fill="#E7E7E7" points="723.5,270.598,733.5,274.598,723.5,278.598,727.5,274.598" style="stroke:#E7E7E7;stroke-width:1.0;"/><line style="stroke:#E7E7E7;stroke-width:1.0;stroke-dasharray:2.0,2.0;" x1="407.5" x2="729.5" y1="274.598" y2="274.598"/><text fill="#FFFFFF" font-family="sans-serif" font-size="13" lengthAdjust="spacing" textLength="54" x="414.5" y="268.789">courses()</text><polygon fill="#E7E7E7" points="1160.5,302.304,1170.5,306.304,1160.5,310.304,1164.5,306.304" style="stroke:#E7E7E7;stroke-width:1.0;"/><line style="stroke:#E7E7E7;stroke-width:1.0;stroke-dasharray:2.0,2.0;" x1="745.5" x2="1166.5" y1="306.304" y2="306.304"/><text fill="#FFFFFF" font-family="sans-serif" font-size="13" lengthAdjust="spacing" textLength="45" x="752.5" y="300.495">create()</text><polygon fill="#E7E7E7" points="723.5,364.01,733.5,368.01,723.5,372.01,727.5,368.01" style="stroke:#E7E7E7;stroke-width:1.0;"/><line style="stroke:#E7E7E7;stroke-width:1.0;stroke-dasharray:2.0,2.0;" x1="407.5" x2="729.5" y1="368.01" y2="368.01"/><text fill="#FFFFFF" font-family="sans-serif" font-size="13" lengthAdjust="spacing" textLength="61" x="414.5" y="362.201">students()</text><polygon fill="#E7E7E7" points="1302.5,395.716,1312.5,399.716,1302.5,403.716,1306.5,399.716" style="stroke:#E7E7E7;stroke-width:1.0;"/><line style="stroke:#E7E7E7;stroke-width:1.0;stroke-dasharray:2.0,2.0;" x1="745.5" x2="1308.5" y1="399.716" y2="399.716"/><text fill="#FFFFFF" font-family="sans-serif" font-size="13" lengthAdjust="spacing" textLength="45" x="752.5" y="393.907">create()</text><polygon fill="#E7E7E7" points="1435.5,457.4221,1445.5,461.4221,1435.5,465.4221,1439.5,461.4221" style="stroke:#E7E7E7;stroke-width:1.0;"/><line style="stroke:#E7E7E7;stroke-width:1.0;stroke-dasharray:2.0,2.0;" x1="407.5" x2="1441.5" y1="461.4221" y2="461.4221"/><text fill="#FFFFFF" font-family="sans-serif" font-size="13" lengthAdjust="spacing" textLength="131" x="414.5" y="455.6131">authorizationService()</text><polygon fill="#E7E7E7" points="1576,489.1281,1586,493.1281,1576,497.1281,1580,493.1281" style="stroke:#E7E7E7;stroke-width:1.0;"/><line style="stroke:#E7E7E7;stroke-width:1.0;stroke-dasharray:2.0,2.0;" x1="1457.5" x2="1582" y1="493.1281" y2="493.1281"/><text fill="#FFFFFF" font-family="sans-serif" font-size="13" lengthAdjust="spacing" textLength="52" x="1464.5" y="487.3191">session()</text><polygon fill="#E7E7E7" points="1695,520.8341,1705,524.8341,1695,528.8341,1699,524.8341" style="stroke:#E7E7E7;stroke-width:1.0;"/><line style="stroke:#E7E7E7;stroke-width:1.0;stroke-dasharray:2.0,2.0;" x1="1598" x2="1701" y1="524.8341" y2="524.8341"/><text fill="#FFFFFF" font-family="sans-serif" font-size="13" lengthAdjust="spacing" textLength="28" x="1605" y="519.0251">get()</text><polygon fill="#E7E7E7" points="1695,582.5401,1705,586.5401,1695,590.5401,1699,586.5401" style="stroke:#E7E7E7;stroke-width:1.0;"/><line style="stroke:#E7E7E7;stroke-width:1.0;stroke-dasharray:2.0,2.0;" x1="407.5" x2="1701" y1="586.5401" y2="586.5401"/><text fill="#FFFFFF" font-family="sans-serif" font-size="13" lengthAdjust="spacing" textLength="120" x="414.5" y="580.7311">authenticatedUser()</text><polygon fill="#E7E7E7" points="1784,614.2461,1794,618.2461,1784,622.2461,1788,618.2461" style="stroke:#E7E7E7;stroke-width:1.0;"/><line style="stroke:#E7E7E7;stroke-width:1.0;stroke-dasharray:2.0,2.0;" x1="1717" x2="1790" y1="618.2461" y2="618.2461"/><text fill="#FFFFFF" font-family="sans-serif" font-size="13" lengthAdjust="spacing" textLength="28" x="1724" y="612.4371">get()</text><polygon fill="#E7E7E7" points="1728,645.9521,1718,649.9521,1728,653.9521,1724,649.9521" style="stroke:#E7E7E7;stroke-width:1.0;"/><line style="stroke:#E7E7E7;stroke-width:1.0;stroke-dasharray:2.0,2.0;" x1="1722" x2="1800" y1="649.9521" y2="649.9521"/><text fill="#FFFFFF" font-family="sans-serif" font-size="13" lengthAdjust="spacing" textLength="47" x="1734" y="644.1431">sysUser</text><polygon fill="#E7E7E7" points="413.5,677.6582,403.5,681.6582,413.5,685.6582,409.5,681.6582" style="stroke:#E7E7E7;stroke-width:1.0;"/><line style="stroke:#E7E7E7;stroke-width:1.0;stroke-dasharray:2.0,2.0;" x1="407.5" x2="1711" y1="681.6582" y2="681.6582"/><text fill="#FFFFFF" font-family="sans-serif" font-size="13" lengthAdjust="spacing" textLength="47" x="419.5" y="675.8492">sysUser</text><polygon fill="#E7E7E7" points="385.5,709.3642,395.5,713.3642,385.5,717.3642,389.5,713.3642" style="stroke:#E7E7E7;stroke-width:1.0;"/><line style="stroke:#E7E7E7;stroke-width:1.0;stroke-dasharray:2.0,2.0;" x1="204.5" x2="391.5" y1="713.3642" y2="713.3642"/><text fill="#FFFFFF" font-family="sans-serif" font-size="13" lengthAdjust="spacing" textLength="108" x="211.5" y="707.5552">availableCourses()</text><polygon fill="#E7E7E7" points="1302.5,741.0702,1312.5,745.0702,1302.5,749.0702,1306.5,745.0702" style="stroke:#E7E7E7;stroke-width:1.0;"/><line style="stroke:#E7E7E7;stroke-width:1.0;stroke-dasharray:2.0,2.0;" x1="407.5" x2="1308.5" y1="745.0702" y2="745.0702"/><text fill="#FFFFFF" font-family="sans-serif" font-size="13" lengthAdjust="spacing" textLength="165" x="414.5" y="739.2612">findBySystemUser(sysUser)</text><polygon fill="#E7E7E7" points="418.5,772.7762,408.5,776.7762,418.5,780.7762,414.5,776.7762" style="stroke:#E7E7E7;stroke-width:1.0;"/><line style="stroke:#E7E7E7;stroke-width:1.0;stroke-dasharray:2.0,2.0;" x1="412.5" x2="1318.5" y1="776.7762" y2="776.7762"/><text fill="#FFFFFF" font-family="sans-serif" font-size="13" lengthAdjust="spacing" textLength="47" x="424.5" y="770.9672">student</text><polygon fill="#E7E7E7" points="869.5,804.4822,879.5,808.4822,869.5,812.4822,873.5,808.4822" style="stroke:#E7E7E7;stroke-width:1.0;"/><line style="stroke:#E7E7E7;stroke-width:1.0;stroke-dasharray:2.0,2.0;" x1="407.5" x2="875.5" y1="808.4822" y2="808.4822"/><text fill="#FFFFFF" font-family="sans-serif" font-size="13" lengthAdjust="spacing" textLength="233" x="414.5" y="802.6732">studentIsEnrolledOrCanEnroll(student)</text><polygon fill="#E7E7E7" points="1160.5,836.1882,1170.5,840.1882,1160.5,844.1882,1164.5,840.1882" style="stroke:#E7E7E7;stroke-width:1.0;"/><line style="stroke:#E7E7E7;stroke-width:1.0;stroke-dasharray:2.0,2.0;" x1="891.5" x2="1166.5" y1="840.1882" y2="840.1882"/><text fill="#FFFFFF" font-family="sans-serif" font-size="13" lengthAdjust="spacing" textLength="262" x="898.5" y="834.3792">findByEnrolledStudentOrCanEnroll(student)</text><polygon fill="#E7E7E7" points="902.5,867.8943,892.5,871.8943,902.5,875.8943,898.5,871.8943" style="stroke:#E7E7E7;stroke-width:1.0;"/><line style="stroke:#E7E7E7;stroke-width:1.0;stroke-dasharray:2.0,2.0;" x1="896.5" x2="1176.5" y1="871.8943" y2="871.8943"/><text fill="#FFFFFF" font-family="sans-serif" font-size="13" lengthAdjust="spacing" textLength="46" x="908.5" y="866.0853">courses</text><polygon fill="#E7E7E7" points="418.5,899.6003,408.5,903.6003,418.5,907.6003,414.5,903.6003" style="stroke:#E7E7E7;stroke-width:1.0;"/><line style="stroke:#E7E7E7;stroke-width:1.0;stroke-dasharray:2.0,2.0;" x1="412.5" x2="885.5" y1="903.6003" y2="903.6003"/><text fill="#FFFFFF" font-family="sans-serif" font-size="13" lengthAdjust="spacing" textLength="46" x="424.5" y="897.7913">courses</text><polygon fill="#E7E7E7" points="1942.5,931.3063,1952.5,935.3063,1942.5,939.3063,1946.5,935.3063" style="stroke:#E7E7E7;stroke-width:1.0;"/><line style="stroke:#E7E7E7;stroke-width:1.0;stroke-dasharray:2.0,2.0;" x1="407.5" x2="1948.5" y1="935.3063" y2="935.3063"/><text fill="#FFFFFF" font-family="sans-serif" font-size="13" lengthAdjust="spacing" textLength="93" x="414.5" y="929.4973">toDTO(courses)</text><path d="M1847.5,950.3063 L1920.5,950.3063 L1920.5,960.0123 L1910.5,970.0123 L1847.5,970.0123 L1847.5,950.3063 " fill="#555555" style="stroke:#FFFFFF;stroke-width:1.5;"/><rect fill="none" height="81.412" style="stroke:#FFFFFF;stroke-width:1.5;" width="385" x="1847.5" y="950.3063"/><text fill="#FFFFFF" font-family="sans-serif" font-size="13" font-weight="bold" lengthAdjust="spacing" textLength="28" x="1862.5" y="965.2033">loop</text><text fill="#FFFFFF" font-family="sans-serif" font-size="11" font-weight="bold" lengthAdjust="spacing" textLength="152" x="1935.5" y="964.0652">[for each course in courses]</text><polygon fill="#E7E7E7" points="2130,989.7183,2140,993.7183,2130,997.7183,2134,993.7183" style="stroke:#E7E7E7;stroke-width:1.0;"/><line style="stroke:#E7E7E7;stroke-width:1.0;stroke-dasharray:2.0,2.0;" x1="1964.5" x2="2136" y1="993.7183" y2="993.7183"/><text fill="#FFFFFF" font-family="sans-serif" font-size="13" lengthAdjust="spacing" textLength="45" x="1971.5" y="987.9093">create()</text><polygon fill="#E7E7E7" points="418.5,1058.4243,408.5,1062.4243,418.5,1066.4243,414.5,1062.4243" style="stroke:#E7E7E7;stroke-width:1.0;"/><line style="stroke:#E7E7E7;stroke-width:1.0;stroke-dasharray:2.0,2.0;" x1="412.5" x2="1958.5" y1="1062.4243" y2="1062.4243"/><text fill="#FFFFFF" font-family="sans-serif" font-size="13" lengthAdjust="spacing" textLength="87" x="424.5" y="1056.6153">courseDTOList</text><polygon fill="#E7E7E7" points="215.5,1090.1304,205.5,1094.1304,215.5,1098.1304,211.5,1094.1304" style="stroke:#E7E7E7;stroke-width:1.0;"/><line style="stroke:#E7E7E7;stroke-width:1.0;stroke-dasharray:2.0,2.0;" x1="209.5" x2="401.5" y1="1094.1304" y2="1094.1304"/><text fill="#FFFFFF" font-family="sans-serif" font-size="13" lengthAdjust="spacing" textLength="87" x="221.5" y="1088.3214">courseDTOList</text><polygon fill="#E7E7E7" points="45.5,1121.8364,35.5,1125.8364,45.5,1129.8364,41.5,1125.8364" style="stroke:#E7E7E7;stroke-width:1.0;"/><line style="stroke:#E7E7E7;stroke-width:1.0;stroke-dasharray:2.0,2.0;" x1="39.5" x2="198.5" y1="1125.8364" y2="1125.8364"/><text fill="#FFFFFF" font-family="sans-serif" font-size="13" lengthAdjust="spacing" textLength="136" x="51.5" y="1120.0274">show available courses</text><!--SRC=[dLPDRzim3BtxL-YsxD0_qCE0Bjk00XiwjEivq6mc4U1QXgXaIN_zI7qaaYmdGNrAp4VoyOcaB5khZNYnkmu6AoIA7O9fHcciQjKewTrFXVPXBrKl__Qmr3k3WA-F3ggk0fTwi4RtFHXsQAtfcypdDnWaDnXQO2WShCSTCjGpZ1eL4Jt-aCpto203usejssR28QH-0RDNBJ0KzmMC80Zdg2xdYWBg31LKoN7eSHdmOMUtxy-meUGU9Ec5WSq4f8rwbrRf8I77M2QOPGP4Ghbyz3Et7KcljrVqak8HLpiqJK4eFuPlVvv-oN7q7c_krnKu0pjBPNuIXMvaTtAvNqt3xIBkxhvGCuXxGMfHw8OEIUsb1UuGGG_P6CB7Jw3M0DaMdvtf17Mz8SBZaDxbG1ucde0237w5x-7qqhiVd7TeaJBdn3-sKchiODQSc3Zpb7MIr_TYZNGjQNHqfRj6kyezzEqCzS9QAUeIU_G3y27wU1jzl4WVFq0_p1vbbfM9gvKIfpKZ6AB4Y3IXB8YVoxbYuYYBuea1d2uKWY9jm1PHSbbuwajhAanfJsmbYyB4bKvL2xGOG2UkMa9tl6DgUasIEsSNnM-ZQdrdzx2oolAYSqA7NZ69sVQ8owzA9goRCaPDnMoY-OwQRYrPt6otxQ_J5ApLq7qzddVt8j2goJiTYH0chSgFPZC_DBL3tYTJ_OZV1tSrTqzcAGV_Pn6CDLf5OyU6RlCIOz1mULPZtxp97FjpxPv_sAbNLbwTQxY1YWYfUFlQJl5tvhsmckx6HN2lQ1JkrZHrh_KerlIDHJcs8RDGGxKAVdm8bvKku9drcINbU_h2gYZDC7IEL3EJbOkE4b6r_4LL4ogKEjNAVGXCtI-DcFk8eCRSwd_dEJifb7ZIzyH_]--></g></svg>