<?xml version="1.0" encoding="us-ascii" standalone="no"?><svg xmlns="http://www.w3.org/2000/svg" xmlns:xlink="http://www.w3.org/1999/xlink" contentStyleType="text/css" height="997px" preserveAspectRatio="none" style="width:1549px;height:997px;background:#1B1B1B;" version="1.1" viewBox="0 0 1549 997" width="1549px" zoomAndPan="magnify"><defs/><g><rect fill="#1B1B1B" height="997" style="stroke:none;stroke-width:1.0;" width="1549" x="0" y="0"/><rect fill="#000000" height="778.5324" style="stroke:#E7E7E7;stroke-width:1.0;" width="10" x="194.5" y="117.7739"/><rect fill="#000000" height="30" style="stroke:#E7E7E7;stroke-width:1.0;" width="10" x="397.5" y="161.333"/><rect fill="#000000" height="629.7083" style="stroke:#E7E7E7;stroke-width:1.0;" width="10" x="397.5" y="234.892"/><rect fill="#000000" height="117.118" style="stroke:#E7E7E7;stroke-width:1.0;" width="10" x="573.5" y="266.598"/><rect fill="#000000" height="30" style="stroke:#E7E7E7;stroke-width:1.0;" width="10" x="673.5" y="310.157"/><rect fill="#000000" height="258.6481" style="stroke:#E7E7E7;stroke-width:1.0;" width="10" x="786.5" y="415.4221"/><rect fill="#000000" height="31.706" style="stroke:#E7E7E7;stroke-width:1.0;" width="10" x="929" y="447.1281"/><rect fill="#000000" height="31.706" style="stroke:#E7E7E7;stroke-width:1.0;" width="10" x="1077.5" y="555.2461"/><rect fill="#000000" height="127.118" style="stroke:#E7E7E7;stroke-width:1.0;" width="10" x="1265" y="705.7762"/><rect fill="#000000" height="30" style="stroke:#E7E7E7;stroke-width:1.0;" width="10" x="1452.5" y="764.1882"/><rect fill="none" height="81.412" style="stroke:#FFFFFF;stroke-width:1.5;" width="385" x="1158" y="720.7762"/><line style="stroke:#E7E7E7;stroke-width:0.5;stroke-dasharray:5.0,5.0;" x1="34" x2="34" y1="84.0679" y2="914.3063"/><line style="stroke:#E7E7E7;stroke-width:0.5;stroke-dasharray:5.0,5.0;" x1="199" x2="199" y1="84.0679" y2="914.3063"/><line style="stroke:#E7E7E7;stroke-width:0.5;stroke-dasharray:5.0,5.0;" x1="402" x2="402" y1="84.0679" y2="914.3063"/><line style="stroke:#E7E7E7;stroke-width:0.5;stroke-dasharray:5.0,5.0;" x1="578" x2="578" y1="84.0679" y2="914.3063"/><line style="stroke:#E7E7E7;stroke-width:0.5;stroke-dasharray:5.0,5.0;" x1="678" x2="678" y1="84.0679" y2="914.3063"/><line style="stroke:#E7E7E7;stroke-width:0.5;stroke-dasharray:5.0,5.0;" x1="791" x2="791" y1="84.0679" y2="914.3063"/><line style="stroke:#E7E7E7;stroke-width:0.5;stroke-dasharray:5.0,5.0;" x1="934" x2="934" y1="84.0679" y2="914.3063"/><line style="stroke:#E7E7E7;stroke-width:0.5;stroke-dasharray:5.0,5.0;" x1="1082" x2="1082" y1="84.0679" y2="914.3063"/><line style="stroke:#E7E7E7;stroke-width:0.5;stroke-dasharray:5.0,5.0;" x1="1270" x2="1270" y1="84.0679" y2="914.3063"/><line style="stroke:#E7E7E7;stroke-width:0.5;stroke-dasharray:5.0,5.0;" x1="1457" x2="1457" y1="84.0679" y2="914.3063"/><text fill="#FFFFFF" font-family="sans-serif" font-size="14" lengthAdjust="spacing" textLength="53" x="5" y="79.9659">Student</text><ellipse cx="34.5" cy="13.5" fill="#222222" rx="8" ry="8" style="stroke:#E7E7E7;stroke-width:0.5;"/><path d="M34.5,21.5 L34.5,48.5 M21.5,29.5 L47.5,29.5 M34.5,48.5 L21.5,63.5 M34.5,48.5 L47.5,63.5 " fill="none" style="stroke:#E7E7E7;stroke-width:0.5;"/><text fill="#FFFFFF" font-family="sans-serif" font-size="14" lengthAdjust="spacing" textLength="53" x="5" y="928.2722">Student</text><ellipse cx="34.5" cy="940.8742" fill="#222222" rx="8" ry="8" style="stroke:#E7E7E7;stroke-width:0.5;"/><path d="M34.5,948.8742 L34.5,975.8742 M21.5,956.8742 L47.5,956.8742 M34.5,975.8742 L21.5,990.8742 M34.5,975.8742 L47.5,990.8742 " fill="none" style="stroke:#E7E7E7;stroke-width:0.5;"/><rect fill="#222222" height="33.0679" rx="2.5" ry="2.5" style="stroke:#E7E7E7;stroke-width:0.5;" width="167" x="116" y="50"/><text fill="#FFFFFF" font-family="sans-serif" font-size="14" lengthAdjust="spacing" textLength="153" x="123" y="71.9659">ListAvailableCoursesUI</text><rect fill="#222222" height="33.0679" rx="2.5" ry="2.5" style="stroke:#E7E7E7;stroke-width:0.5;" width="167" x="116" y="913.3063"/><text fill="#FFFFFF" font-family="sans-serif" font-size="14" lengthAdjust="spacing" textLength="153" x="123" y="935.2722">ListAvailableCoursesUI</text><rect fill="#222222" height="33.0679" rx="2.5" ry="2.5" style="stroke:#E7E7E7;stroke-width:0.5;" width="219" x="293" y="50"/><text fill="#FFFFFF" font-family="sans-serif" font-size="14" lengthAdjust="spacing" textLength="205" x="300" y="71.9659">ListAvailableCoursesController</text><rect fill="#222222" height="33.0679" rx="2.5" ry="2.5" style="stroke:#E7E7E7;stroke-width:0.5;" width="219" x="293" y="913.3063"/><text fill="#FFFFFF" font-family="sans-serif" font-size="14" lengthAdjust="spacing" textLength="205" x="300" y="935.2722">ListAvailableCoursesController</text><rect fill="#222222" height="33.0679" rx="2.5" ry="2.5" style="stroke:#E7E7E7;stroke-width:0.5;" width="113" x="522" y="50"/><text fill="#FFFFFF" font-family="sans-serif" font-size="14" lengthAdjust="spacing" textLength="99" x="529" y="71.9659">MyUserService</text><rect fill="#222222" height="33.0679" rx="2.5" ry="2.5" style="stroke:#E7E7E7;stroke-width:0.5;" width="113" x="522" y="913.3063"/><text fill="#FFFFFF" font-family="sans-serif" font-size="14" lengthAdjust="spacing" textLength="99" x="529" y="935.2722">MyUserService</text><rect fill="#222222" height="33.0679" rx="2.5" ry="2.5" style="stroke:#E7E7E7;stroke-width:0.5;" width="67" x="645" y="50"/><text fill="#FFFFFF" font-family="sans-serif" font-size="14" lengthAdjust="spacing" textLength="53" x="652" y="71.9659">Student</text><rect fill="#222222" height="33.0679" rx="2.5" ry="2.5" style="stroke:#E7E7E7;stroke-width:0.5;" width="67" x="645" y="913.3063"/><text fill="#FFFFFF" font-family="sans-serif" font-size="14" lengthAdjust="spacing" textLength="53" x="652" y="935.2722">Student</text><rect fill="#222222" height="33.0679" rx="2.5" ry="2.5" style="stroke:#E7E7E7;stroke-width:0.5;" width="139" x="722" y="50"/><text fill="#FFFFFF" font-family="sans-serif" font-size="14" lengthAdjust="spacing" textLength="125" x="729" y="71.9659">ListCoursesService</text><rect fill="#222222" height="33.0679" rx="2.5" ry="2.5" style="stroke:#E7E7E7;stroke-width:0.5;" width="139" x="722" y="913.3063"/><text fill="#FFFFFF" font-family="sans-serif" font-size="14" lengthAdjust="spacing" textLength="125" x="729" y="935.2722">ListCoursesService</text><rect fill="#222222" height="33.0679" rx="2.5" ry="2.5" style="stroke:#E7E7E7;stroke-width:0.5;" width="126" x="871" y="50"/><text fill="#FFFFFF" font-family="sans-serif" font-size="14" lengthAdjust="spacing" textLength="112" x="878" y="71.9659">CouseRepository</text><rect fill="#222222" height="33.0679" rx="2.5" ry="2.5" style="stroke:#E7E7E7;stroke-width:0.5;" width="126" x="871" y="913.3063"/><text fill="#FFFFFF" font-family="sans-serif" font-size="14" lengthAdjust="spacing" textLength="112" x="878" y="935.2722">CouseRepository</text><rect fill="#222222" height="33.0679" rx="2.5" ry="2.5" style="stroke:#E7E7E7;stroke-width:0.5;" width="151" x="1007" y="50"/><text fill="#FFFFFF" font-family="sans-serif" font-size="14" lengthAdjust="spacing" textLength="137" x="1014" y="71.9659">EnrollmentRepositry</text><rect fill="#222222" height="33.0679" rx="2.5" ry="2.5" style="stroke:#E7E7E7;stroke-width:0.5;" width="151" x="1007" y="913.3063"/><text fill="#FFFFFF" font-family="sans-serif" font-size="14" lengthAdjust="spacing" textLength="137" x="1014" y="935.2722">EnrollmentRepositry</text><rect fill="#222222" height="33.0679" rx="2.5" ry="2.5" style="stroke:#E7E7E7;stroke-width:0.5;" width="204" x="1168" y="50"/><text fill="#FFFFFF" font-family="sans-serif" font-size="14" lengthAdjust="spacing" textLength="190" x="1175" y="71.9659">AvailableCourseDTOMapper</text><rect fill="#222222" height="33.0679" rx="2.5" ry="2.5" style="stroke:#E7E7E7;stroke-width:0.5;" width="204" x="1168" y="913.3063"/><text fill="#FFFFFF" font-family="sans-serif" font-size="14" lengthAdjust="spacing" textLength="190" x="1175" y="935.2722">AvailableCourseDTOMapper</text><rect fill="#222222" height="33.0679" rx="2.5" ry="2.5" style="stroke:#E7E7E7;stroke-width:0.5;" width="151" x="1382" y="50"/><text fill="#FFFFFF" font-family="sans-serif" font-size="14" lengthAdjust="spacing" textLength="137" x="1389" y="71.9659">AvailableCourseDTO</text><rect fill="#222222" height="33.0679" rx="2.5" ry="2.5" style="stroke:#E7E7E7;stroke-width:0.5;" width="151" x="1382" y="913.3063"/><text fill="#FFFFFF" font-family="sans-serif" font-size="14" lengthAdjust="spacing" textLength="137" x="1389" y="935.2722">AvailableCourseDTO</text><rect fill="#000000" height="778.5324" style="stroke:#E7E7E7;stroke-width:1.0;" width="10" x="194.5" y="117.7739"/><rect fill="#000000" height="30" style="stroke:#E7E7E7;stroke-width:1.0;" width="10" x="397.5" y="161.333"/><rect fill="#000000" height="629.7083" style="stroke:#E7E7E7;stroke-width:1.0;" width="10" x="397.5" y="234.892"/><rect fill="#000000" height="117.118" style="stroke:#E7E7E7;stroke-width:1.0;" width="10" x="573.5" y="266.598"/><rect fill="#000000" height="30" style="stroke:#E7E7E7;stroke-width:1.0;" width="10" x="673.5" y="310.157"/><rect fill="#000000" height="258.6481" style="stroke:#E7E7E7;stroke-width:1.0;" width="10" x="786.5" y="415.4221"/><rect fill="#000000" height="31.706" style="stroke:#E7E7E7;stroke-width:1.0;" width="10" x="929" y="447.1281"/><rect fill="#000000" height="31.706" style="stroke:#E7E7E7;stroke-width:1.0;" width="10" x="1077.5" y="555.2461"/><rect fill="#000000" height="127.118" style="stroke:#E7E7E7;stroke-width:1.0;" width="10" x="1265" y="705.7762"/><rect fill="#000000" height="30" style="stroke:#E7E7E7;stroke-width:1.0;" width="10" x="1452.5" y="764.1882"/><polygon fill="#E7E7E7" points="182.5,113.7739,192.5,117.7739,182.5,121.7739,186.5,117.7739" style="stroke:#E7E7E7;stroke-width:1.0;"/><line style="stroke:#E7E7E7;stroke-width:1.0;stroke-dasharray:2.0,2.0;" x1="34.5" x2="188.5" y1="117.7739" y2="117.7739"/><text fill="#FFFFFF" font-family="sans-serif" font-size="13" lengthAdjust="spacing" textLength="32" x="41.5" y="111.9649">enter</text><polygon fill="#E7E7E7" points="385.5,157.333,395.5,161.333,385.5,165.333,389.5,161.333" style="stroke:#E7E7E7;stroke-width:1.0;"/><line style="stroke:#E7E7E7;stroke-width:1.0;stroke-dasharray:2.0,2.0;" x1="204.5" x2="391.5" y1="161.333" y2="161.333"/><text fill="#FFFFFF" font-family="sans-serif" font-size="13" lengthAdjust="spacing" textLength="45" x="211.5" y="155.524">create()</text><path d="M412,130.7739 L412,175.7739 L631,175.7739 L631,140.7739 L621,130.7739 L412,130.7739 " fill="#714137" style="stroke:#E7E7E7;stroke-width:0.5;"/><path d="M621,130.7739 L621,140.7739 L631,140.7739 L621,130.7739 " fill="#714137" style="stroke:#E7E7E7;stroke-width:0.5;"/><text fill="#FFFFFF" font-family="sans-serif" font-size="13" lengthAdjust="spacing" textLength="170" x="418" y="149.6709">repositories are retrieved via</text><text fill="#FFFFFF" font-family="sans-serif" font-size="13" lengthAdjust="spacing" textLength="198" x="418" y="167.377">PersistenceContext.repositories()</text><polygon fill="#E7E7E7" points="385.5,230.892,395.5,234.892,385.5,238.892,389.5,234.892" style="stroke:#E7E7E7;stroke-width:1.0;"/><line style="stroke:#E7E7E7;stroke-width:1.0;stroke-dasharray:2.0,2.0;" x1="204.5" x2="391.5" y1="234.892" y2="234.892"/><text fill="#FFFFFF" font-family="sans-serif" font-size="13" lengthAdjust="spacing" textLength="108" x="211.5" y="229.083">availableCourses()</text><polygon fill="#E7E7E7" points="561.5,262.598,571.5,266.598,561.5,270.598,565.5,266.598" style="stroke:#E7E7E7;stroke-width:1.0;"/><line style="stroke:#E7E7E7;stroke-width:1.0;stroke-dasharray:2.0,2.0;" x1="407.5" x2="567.5" y1="266.598" y2="266.598"/><text fill="#FFFFFF" font-family="sans-serif" font-size="13" lengthAdjust="spacing" textLength="100" x="414.5" y="260.789">currentStudent()</text><polygon fill="#E7E7E7" points="661.5,306.157,671.5,310.157,661.5,314.157,665.5,310.157" style="stroke:#E7E7E7;stroke-width:1.0;"/><line style="stroke:#E7E7E7;stroke-width:1.0;stroke-dasharray:2.0,2.0;" x1="583.5" x2="667.5" y1="310.157" y2="310.157"/><text fill="#FFFFFF" font-family="sans-serif" font-size="13" lengthAdjust="spacing" textLength="28" x="590.5" y="304.348">get()</text><path d="M688,279.598 L688,324.598 L933,324.598 L933,289.598 L923,279.598 L688,279.598 " fill="#714137" style="stroke:#E7E7E7;stroke-width:0.5;"/><path d="M923,279.598 L923,289.598 L933,289.598 L923,279.598 " fill="#714137" style="stroke:#E7E7E7;stroke-width:0.5;"/><text fill="#FFFFFF" font-family="sans-serif" font-size="13" lengthAdjust="spacing" textLength="224" x="694" y="298.495">student obtained via the framework's</text><text fill="#FFFFFF" font-family="sans-serif" font-size="13" lengthAdjust="spacing" textLength="214" x="694" y="316.201">Authz package + StudentRepository</text><polygon fill="#E7E7E7" points="418.5,379.716,408.5,383.716,418.5,387.716,414.5,383.716" style="stroke:#E7E7E7;stroke-width:1.0;"/><line style="stroke:#E7E7E7;stroke-width:1.0;stroke-dasharray:2.0,2.0;" x1="412.5" x2="577.5" y1="383.716" y2="383.716"/><text fill="#FFFFFF" font-family="sans-serif" font-size="13" lengthAdjust="spacing" textLength="47" x="424.5" y="377.907">student</text><polygon fill="#E7E7E7" points="774.5,411.4221,784.5,415.4221,774.5,419.4221,778.5,415.4221" style="stroke:#E7E7E7;stroke-width:1.0;"/><line style="stroke:#E7E7E7;stroke-width:1.0;stroke-dasharray:2.0,2.0;" x1="407.5" x2="780.5" y1="415.4221" y2="415.4221"/><text fill="#FFFFFF" font-family="sans-serif" font-size="13" lengthAdjust="spacing" textLength="233" x="414.5" y="409.6131">studentIsEnrolledOrCanEnroll(student)</text><polygon fill="#E7E7E7" points="917,443.1281,927,447.1281,917,451.1281,921,447.1281" style="stroke:#E7E7E7;stroke-width:1.0;"/><line style="stroke:#E7E7E7;stroke-width:1.0;stroke-dasharray:2.0,2.0;" x1="796.5" x2="923" y1="447.1281" y2="447.1281"/><text fill="#FFFFFF" font-family="sans-serif" font-size="13" lengthAdjust="spacing" textLength="67" x="803.5" y="441.3191">enrollable()</text><polygon fill="#E7E7E7" points="807.5,474.8341,797.5,478.8341,807.5,482.8341,803.5,478.8341" style="stroke:#E7E7E7;stroke-width:1.0;"/><line style="stroke:#E7E7E7;stroke-width:1.0;stroke-dasharray:2.0,2.0;" x1="801.5" x2="933" y1="478.8341" y2="478.8341"/><text fill="#FFFFFF" font-family="sans-serif" font-size="13" lengthAdjust="spacing" textLength="46" x="813.5" y="473.0251">courses</text><line style="stroke:#E7E7E7;stroke-width:1.0;stroke-dasharray:2.0,2.0;" x1="796.5" x2="838.5" y1="510.5401" y2="510.5401"/><line style="stroke:#E7E7E7;stroke-width:1.0;stroke-dasharray:2.0,2.0;" x1="838.5" x2="838.5" y1="510.5401" y2="523.5401"/><line style="stroke:#E7E7E7;stroke-width:1.0;stroke-dasharray:2.0,2.0;" x1="797.5" x2="838.5" y1="523.5401" y2="523.5401"/><polygon fill="#E7E7E7" points="807.5,519.5401,797.5,523.5401,807.5,527.5401,803.5,523.5401" style="stroke:#E7E7E7;stroke-width:1.0;"/><text fill="#FFFFFF" font-family="sans-serif" font-size="13" lengthAdjust="spacing" textLength="77" x="803.5" y="504.7311">add(courses)</text><polygon fill="#E7E7E7" points="1065.5,551.2461,1075.5,555.2461,1065.5,559.2461,1069.5,555.2461" style="stroke:#E7E7E7;stroke-width:1.0;"/><line style="stroke:#E7E7E7;stroke-width:1.0;stroke-dasharray:2.0,2.0;" x1="796.5" x2="1071.5" y1="555.2461" y2="555.2461"/><text fill="#FFFFFF" font-family="sans-serif" font-size="13" lengthAdjust="spacing" textLength="212" x="803.5" y="549.4371">coursesOfEnrolledStudent(student)</text><polygon fill="#E7E7E7" points="807.5,582.9521,797.5,586.9521,807.5,590.9521,803.5,586.9521" style="stroke:#E7E7E7;stroke-width:1.0;"/><line style="stroke:#E7E7E7;stroke-width:1.0;stroke-dasharray:2.0,2.0;" x1="801.5" x2="1081.5" y1="586.9521" y2="586.9521"/><text fill="#FFFFFF" font-family="sans-serif" font-size="13" lengthAdjust="spacing" textLength="46" x="813.5" y="581.1431">courses</text><line style="stroke:#E7E7E7;stroke-width:1.0;stroke-dasharray:2.0,2.0;" x1="796.5" x2="838.5" y1="624.0112" y2="624.0112"/><line style="stroke:#E7E7E7;stroke-width:1.0;stroke-dasharray:2.0,2.0;" x1="838.5" x2="838.5" y1="624.0112" y2="637.0112"/><line style="stroke:#E7E7E7;stroke-width:1.0;stroke-dasharray:2.0,2.0;" x1="797.5" x2="838.5" y1="637.0112" y2="637.0112"/><polygon fill="#E7E7E7" points="807.5,633.0112,797.5,637.0112,807.5,641.0112,803.5,637.0112" style="stroke:#E7E7E7;stroke-width:1.0;"/><text fill="#FFFFFF" font-family="sans-serif" font-size="13" lengthAdjust="spacing" textLength="77" x="803.5" y="618.2022">add(courses)</text><path d="M892,599.9521 L892,644.9521 L1031,644.9521 L1031,609.9521 L1021,599.9521 L892,599.9521 " fill="#714137" style="stroke:#E7E7E7;stroke-width:0.5;"/><path d="M1021,599.9521 L1021,609.9521 L1031,609.9521 L1021,599.9521 " fill="#714137" style="stroke:#E7E7E7;stroke-width:0.5;"/><text fill="#FFFFFF" font-family="sans-serif" font-size="13" lengthAdjust="spacing" textLength="118" x="898" y="618.8492">ensure no duplicate</text><text fill="#FFFFFF" font-family="sans-serif" font-size="13" lengthAdjust="spacing" textLength="109" x="898" y="636.5552">courses are added</text><polygon fill="#E7E7E7" points="418.5,670.0702,408.5,674.0702,418.5,678.0702,414.5,674.0702" style="stroke:#E7E7E7;stroke-width:1.0;"/><line style="stroke:#E7E7E7;stroke-width:1.0;stroke-dasharray:2.0,2.0;" x1="412.5" x2="790.5" y1="674.0702" y2="674.0702"/><text fill="#FFFFFF" font-family="sans-serif" font-size="13" lengthAdjust="spacing" textLength="46" x="424.5" y="668.2612">courses</text><polygon fill="#E7E7E7" points="1253,701.7762,1263,705.7762,1253,709.7762,1257,705.7762" style="stroke:#E7E7E7;stroke-width:1.0;"/><line style="stroke:#E7E7E7;stroke-width:1.0;stroke-dasharray:2.0,2.0;" x1="407.5" x2="1259" y1="705.7762" y2="705.7762"/><text fill="#FFFFFF" font-family="sans-serif" font-size="13" lengthAdjust="spacing" textLength="93" x="414.5" y="699.9672">toDTO(courses)</text><path d="M1158,720.7762 L1231,720.7762 L1231,730.4822 L1221,740.4822 L1158,740.4822 L1158,720.7762 " fill="#555555" style="stroke:#FFFFFF;stroke-width:1.5;"/><rect fill="none" height="81.412" style="stroke:#FFFFFF;stroke-width:1.5;" width="385" x="1158" y="720.7762"/><text fill="#FFFFFF" font-family="sans-serif" font-size="13" font-weight="bold" lengthAdjust="spacing" textLength="28" x="1173" y="735.6732">loop</text><text fill="#FFFFFF" font-family="sans-serif" font-size="11" font-weight="bold" lengthAdjust="spacing" textLength="152" x="1246" y="734.5351">[for each course in courses]</text><polygon fill="#E7E7E7" points="1440.5,760.1882,1450.5,764.1882,1440.5,768.1882,1444.5,764.1882" style="stroke:#E7E7E7;stroke-width:1.0;"/><line style="stroke:#E7E7E7;stroke-width:1.0;stroke-dasharray:2.0,2.0;" x1="1275" x2="1446.5" y1="764.1882" y2="764.1882"/><text fill="#FFFFFF" font-family="sans-serif" font-size="13" lengthAdjust="spacing" textLength="45" x="1282" y="758.3792">create()</text><polygon fill="#E7E7E7" points="418.5,828.8943,408.5,832.8943,418.5,836.8943,414.5,832.8943" style="stroke:#E7E7E7;stroke-width:1.0;"/><line style="stroke:#E7E7E7;stroke-width:1.0;stroke-dasharray:2.0,2.0;" x1="412.5" x2="1269" y1="832.8943" y2="832.8943"/><text fill="#FFFFFF" font-family="sans-serif" font-size="13" lengthAdjust="spacing" textLength="87" x="424.5" y="827.0853">courseDTOList</text><polygon fill="#E7E7E7" points="215.5,860.6003,205.5,864.6003,215.5,868.6003,211.5,864.6003" style="stroke:#E7E7E7;stroke-width:1.0;"/><line style="stroke:#E7E7E7;stroke-width:1.0;stroke-dasharray:2.0,2.0;" x1="209.5" x2="401.5" y1="864.6003" y2="864.6003"/><text fill="#FFFFFF" font-family="sans-serif" font-size="13" lengthAdjust="spacing" textLength="87" x="221.5" y="858.7913">courseDTOList</text><polygon fill="#E7E7E7" points="45.5,892.3063,35.5,896.3063,45.5,900.3063,41.5,896.3063" style="stroke:#E7E7E7;stroke-width:1.0;"/><line style="stroke:#E7E7E7;stroke-width:1.0;stroke-dasharray:2.0,2.0;" x1="39.5" x2="198.5" y1="896.3063" y2="896.3063"/><text fill="#FFFFFF" font-family="sans-serif" font-size="13" lengthAdjust="spacing" textLength="136" x="51.5" y="890.4973">show available courses</text><!--SRC=[bLPDRzim3BtxL-YM54Ft0teOq7KhK615XcQz1GXKcKc4Ef8XoMxJNp_gmxOaAocgIrtpaNoF9gbGPgGYQzFL80oXcdGQLDLIPJZZBSLtVxWsjptb3Nrfu4vsIeD-Vd1G_YdmJWgZPDE0iWxCgAQg5YJs-WjAeoC81XOCxyOZtpFS4xHISoHxkgUMyyd25BJR7MLLmkFnz8mQrg1wpc2GjDKzIr2HPEqVSsRh4z8wsbWETDBRJgiSurqdSWwwHLwocXKdr2HYPaabC8HeIACn7or6_HQsfiSfiKT2o9jnlEtCuUC9ziZ0uoY-KB0lmAJY7zHmAIAE5crvPi91QyGv4VXOfJAoDlZrR_L8szONykYUFe5RO6raBiNRNLNSKrNPRqkkhtzWCv8RWXN1q1Ks2E-f0TkX10_QBCIs7uAO0hGjhvnfXBhU9E48YMyKtnyCujNmEJXWDHGQmE1p3pNfETs8UGT_Zrr2eXhIL0LYD1kUYnITZnCUkjigwvJ24eIc3Ev9Y74KI7J623PS60QCjeSuH19cc9ZO60aicPEI3adaYw5S-48ISm2oK_G8RrAzBlH6kCR5xyzUwHx8j_cmdLSHAfeJYJYEbQX6ws8gQfZsMHKMKGt2GfXCSGM2iHZRZIc6td5H_pnDQsQ9NlPlEPqVxibYJmXrGN7AAYo8MG_vzWc-3zhl5wXNweuA_yyo60izbRVJ-0q6dU0YsCR6IfORYgNgHeAJlj3XVZBEDHxB1CPqV01QryiGvAgCWu5sWArsGpc6kPgL8f42PIdmHIdmDIbdHms4xd1d2KdghcqumzWR4TpSDiCmK9Vp30ipOnftb1sWMJlv5Nz3ZCHLFkSuUeUh84xTIDcI7VuamHo7a9bmKQoMFJw4ouhtHRRSYz_7NYkvCLAKcq7KZbHr9giLFPG8rTfxlbIe8BMmlZafkL-wBjoTX-Dwa6_JdJ5MADvnlFeF]--></g></svg>