<?xml version="1.0" encoding="us-ascii" standalone="no"?><svg xmlns="http://www.w3.org/2000/svg" xmlns:xlink="http://www.w3.org/1999/xlink" contentStyleType="text/css" height="997px" preserveAspectRatio="none" style="width:1600px;height:997px;background:#1B1B1B;" version="1.1" viewBox="0 0 1600 997" width="1600px" zoomAndPan="magnify"><defs/><g><rect fill="#1B1B1B" height="997" style="stroke:none;stroke-width:1.0;" width="1600" x="0" y="0"/><rect fill="#000000" height="778.5324" style="stroke:#E7E7E7;stroke-width:1.0;" width="10" x="194.5" y="117.7739"/><rect fill="#000000" height="30" style="stroke:#E7E7E7;stroke-width:1.0;" width="10" x="397.5" y="161.333"/><rect fill="#000000" height="629.7083" style="stroke:#E7E7E7;stroke-width:1.0;" width="10" x="397.5" y="234.892"/><rect fill="#000000" height="30" style="stroke:#E7E7E7;stroke-width:1.0;" width="10" x="563.5" y="278.451"/><rect fill="#000000" height="31.706" style="stroke:#E7E7E7;stroke-width:1.0;" width="10" x="689" y="352.01"/><rect fill="#000000" height="258.6481" style="stroke:#E7E7E7;stroke-width:1.0;" width="10" x="837.5" y="415.4221"/><rect fill="#000000" height="31.706" style="stroke:#E7E7E7;stroke-width:1.0;" width="10" x="980" y="447.1281"/><rect fill="#000000" height="31.706" style="stroke:#E7E7E7;stroke-width:1.0;" width="10" x="1128.5" y="555.2461"/><rect fill="#000000" height="127.118" style="stroke:#E7E7E7;stroke-width:1.0;" width="10" x="1316" y="705.7762"/><rect fill="#000000" height="30" style="stroke:#E7E7E7;stroke-width:1.0;" width="10" x="1503.5" y="764.1882"/><rect fill="none" height="81.412" style="stroke:#FFFFFF;stroke-width:1.5;" width="385" x="1209" y="720.7762"/><line style="stroke:#E7E7E7;stroke-width:0.5;stroke-dasharray:5.0,5.0;" x1="34" x2="34" y1="84.0679" y2="914.3063"/><line style="stroke:#E7E7E7;stroke-width:0.5;stroke-dasharray:5.0,5.0;" x1="199" x2="199" y1="84.0679" y2="914.3063"/><line style="stroke:#E7E7E7;stroke-width:0.5;stroke-dasharray:5.0,5.0;" x1="402" x2="402" y1="84.0679" y2="914.3063"/><line style="stroke:#E7E7E7;stroke-width:0.5;stroke-dasharray:5.0,5.0;" x1="568" x2="568" y1="84.0679" y2="914.3063"/><line style="stroke:#E7E7E7;stroke-width:0.5;stroke-dasharray:5.0,5.0;" x1="694" x2="694" y1="84.0679" y2="914.3063"/><line style="stroke:#E7E7E7;stroke-width:0.5;stroke-dasharray:5.0,5.0;" x1="842" x2="842" y1="84.0679" y2="914.3063"/><line style="stroke:#E7E7E7;stroke-width:0.5;stroke-dasharray:5.0,5.0;" x1="985" x2="985" y1="84.0679" y2="914.3063"/><line style="stroke:#E7E7E7;stroke-width:0.5;stroke-dasharray:5.0,5.0;" x1="1133" x2="1133" y1="84.0679" y2="914.3063"/><line style="stroke:#E7E7E7;stroke-width:0.5;stroke-dasharray:5.0,5.0;" x1="1321" x2="1321" y1="84.0679" y2="914.3063"/><line style="stroke:#E7E7E7;stroke-width:0.5;stroke-dasharray:5.0,5.0;" x1="1508" x2="1508" y1="84.0679" y2="914.3063"/><text fill="#FFFFFF" font-family="sans-serif" font-size="14" lengthAdjust="spacing" textLength="53" x="5" y="79.9659">Student</text><ellipse cx="34.5" cy="13.5" fill="#222222" rx="8" ry="8" style="stroke:#E7E7E7;stroke-width:0.5;"/><path d="M34.5,21.5 L34.5,48.5 M21.5,29.5 L47.5,29.5 M34.5,48.5 L21.5,63.5 M34.5,48.5 L47.5,63.5 " fill="none" style="stroke:#E7E7E7;stroke-width:0.5;"/><text fill="#FFFFFF" font-family="sans-serif" font-size="14" lengthAdjust="spacing" textLength="53" x="5" y="928.2722">Student</text><ellipse cx="34.5" cy="940.8742" fill="#222222" rx="8" ry="8" style="stroke:#E7E7E7;stroke-width:0.5;"/><path d="M34.5,948.8742 L34.5,975.8742 M21.5,956.8742 L47.5,956.8742 M34.5,975.8742 L21.5,990.8742 M34.5,975.8742 L47.5,990.8742 " fill="none" style="stroke:#E7E7E7;stroke-width:0.5;"/><rect fill="#222222" height="33.0679" rx="2.5" ry="2.5" style="stroke:#E7E7E7;stroke-width:0.5;" width="167" x="116" y="50"/><text fill="#FFFFFF" font-family="sans-serif" font-size="14" lengthAdjust="spacing" textLength="153" x="123" y="71.9659">ListAvailableCoursesUI</text><rect fill="#222222" height="33.0679" rx="2.5" ry="2.5" style="stroke:#E7E7E7;stroke-width:0.5;" width="167" x="116" y="913.3063"/><text fill="#FFFFFF" font-family="sans-serif" font-size="14" lengthAdjust="spacing" textLength="153" x="123" y="935.2722">ListAvailableCoursesUI</text><rect fill="#222222" height="33.0679" rx="2.5" ry="2.5" style="stroke:#E7E7E7;stroke-width:0.5;" width="219" x="293" y="50"/><text fill="#FFFFFF" font-family="sans-serif" font-size="14" lengthAdjust="spacing" textLength="205" x="300" y="71.9659">ListAvailableCoursesController</text><rect fill="#222222" height="33.0679" rx="2.5" ry="2.5" style="stroke:#E7E7E7;stroke-width:0.5;" width="219" x="293" y="913.3063"/><text fill="#FFFFFF" font-family="sans-serif" font-size="14" lengthAdjust="spacing" textLength="205" x="300" y="935.2722">ListAvailableCoursesController</text><rect fill="#222222" height="33.0679" rx="2.5" ry="2.5" style="stroke:#E7E7E7;stroke-width:0.5;" width="93" x="522" y="50"/><text fill="#FFFFFF" font-family="sans-serif" font-size="14" lengthAdjust="spacing" textLength="79" x="529" y="71.9659">SystemUser</text><rect fill="#222222" height="33.0679" rx="2.5" ry="2.5" style="stroke:#E7E7E7;stroke-width:0.5;" width="93" x="522" y="913.3063"/><text fill="#FFFFFF" font-family="sans-serif" font-size="14" lengthAdjust="spacing" textLength="79" x="529" y="935.2722">SystemUser</text><rect fill="#222222" height="33.0679" rx="2.5" ry="2.5" style="stroke:#E7E7E7;stroke-width:0.5;" width="138" x="625" y="50"/><text fill="#FFFFFF" font-family="sans-serif" font-size="14" lengthAdjust="spacing" textLength="124" x="632" y="71.9659">StudentRepository</text><rect fill="#222222" height="33.0679" rx="2.5" ry="2.5" style="stroke:#E7E7E7;stroke-width:0.5;" width="138" x="625" y="913.3063"/><text fill="#FFFFFF" font-family="sans-serif" font-size="14" lengthAdjust="spacing" textLength="124" x="632" y="935.2722">StudentRepository</text><rect fill="#222222" height="33.0679" rx="2.5" ry="2.5" style="stroke:#E7E7E7;stroke-width:0.5;" width="139" x="773" y="50"/><text fill="#FFFFFF" font-family="sans-serif" font-size="14" lengthAdjust="spacing" textLength="125" x="780" y="71.9659">ListCoursesService</text><rect fill="#222222" height="33.0679" rx="2.5" ry="2.5" style="stroke:#E7E7E7;stroke-width:0.5;" width="139" x="773" y="913.3063"/><text fill="#FFFFFF" font-family="sans-serif" font-size="14" lengthAdjust="spacing" textLength="125" x="780" y="935.2722">ListCoursesService</text><rect fill="#222222" height="33.0679" rx="2.5" ry="2.5" style="stroke:#E7E7E7;stroke-width:0.5;" width="126" x="922" y="50"/><text fill="#FFFFFF" font-family="sans-serif" font-size="14" lengthAdjust="spacing" textLength="112" x="929" y="71.9659">CouseRepository</text><rect fill="#222222" height="33.0679" rx="2.5" ry="2.5" style="stroke:#E7E7E7;stroke-width:0.5;" width="126" x="922" y="913.3063"/><text fill="#FFFFFF" font-family="sans-serif" font-size="14" lengthAdjust="spacing" textLength="112" x="929" y="935.2722">CouseRepository</text><rect fill="#222222" height="33.0679" rx="2.5" ry="2.5" style="stroke:#E7E7E7;stroke-width:0.5;" width="151" x="1058" y="50"/><text fill="#FFFFFF" font-family="sans-serif" font-size="14" lengthAdjust="spacing" textLength="137" x="1065" y="71.9659">EnrollmentRepositry</text><rect fill="#222222" height="33.0679" rx="2.5" ry="2.5" style="stroke:#E7E7E7;stroke-width:0.5;" width="151" x="1058" y="913.3063"/><text fill="#FFFFFF" font-family="sans-serif" font-size="14" lengthAdjust="spacing" textLength="137" x="1065" y="935.2722">EnrollmentRepositry</text><rect fill="#222222" height="33.0679" rx="2.5" ry="2.5" style="stroke:#E7E7E7;stroke-width:0.5;" width="204" x="1219" y="50"/><text fill="#FFFFFF" font-family="sans-serif" font-size="14" lengthAdjust="spacing" textLength="190" x="1226" y="71.9659">AvailableCourseDTOMapper</text><rect fill="#222222" height="33.0679" rx="2.5" ry="2.5" style="stroke:#E7E7E7;stroke-width:0.5;" width="204" x="1219" y="913.3063"/><text fill="#FFFFFF" font-family="sans-serif" font-size="14" lengthAdjust="spacing" textLength="190" x="1226" y="935.2722">AvailableCourseDTOMapper</text><rect fill="#222222" height="33.0679" rx="2.5" ry="2.5" style="stroke:#E7E7E7;stroke-width:0.5;" width="151" x="1433" y="50"/><text fill="#FFFFFF" font-family="sans-serif" font-size="14" lengthAdjust="spacing" textLength="137" x="1440" y="71.9659">AvailableCourseDTO</text><rect fill="#222222" height="33.0679" rx="2.5" ry="2.5" style="stroke:#E7E7E7;stroke-width:0.5;" width="151" x="1433" y="913.3063"/><text fill="#FFFFFF" font-family="sans-serif" font-size="14" lengthAdjust="spacing" textLength="137" x="1440" y="935.2722">AvailableCourseDTO</text><rect fill="#000000" height="778.5324" style="stroke:#E7E7E7;stroke-width:1.0;" width="10" x="194.5" y="117.7739"/><rect fill="#000000" height="30" style="stroke:#E7E7E7;stroke-width:1.0;" width="10" x="397.5" y="161.333"/><rect fill="#000000" height="629.7083" style="stroke:#E7E7E7;stroke-width:1.0;" width="10" x="397.5" y="234.892"/><rect fill="#000000" height="30" style="stroke:#E7E7E7;stroke-width:1.0;" width="10" x="563.5" y="278.451"/><rect fill="#000000" height="31.706" style="stroke:#E7E7E7;stroke-width:1.0;" width="10" x="689" y="352.01"/><rect fill="#000000" height="258.6481" style="stroke:#E7E7E7;stroke-width:1.0;" width="10" x="837.5" y="415.4221"/><rect fill="#000000" height="31.706" style="stroke:#E7E7E7;stroke-width:1.0;" width="10" x="980" y="447.1281"/><rect fill="#000000" height="31.706" style="stroke:#E7E7E7;stroke-width:1.0;" width="10" x="1128.5" y="555.2461"/><rect fill="#000000" height="127.118" style="stroke:#E7E7E7;stroke-width:1.0;" width="10" x="1316" y="705.7762"/><rect fill="#000000" height="30" style="stroke:#E7E7E7;stroke-width:1.0;" width="10" x="1503.5" y="764.1882"/><polygon fill="#E7E7E7" points="182.5,113.7739,192.5,117.7739,182.5,121.7739,186.5,117.7739" style="stroke:#E7E7E7;stroke-width:1.0;"/><line style="stroke:#E7E7E7;stroke-width:1.0;stroke-dasharray:2.0,2.0;" x1="34.5" x2="188.5" y1="117.7739" y2="117.7739"/><text fill="#FFFFFF" font-family="sans-serif" font-size="13" lengthAdjust="spacing" textLength="32" x="41.5" y="111.9649">enter</text><polygon fill="#E7E7E7" points="385.5,157.333,395.5,161.333,385.5,165.333,389.5,161.333" style="stroke:#E7E7E7;stroke-width:1.0;"/><line style="stroke:#E7E7E7;stroke-width:1.0;stroke-dasharray:2.0,2.0;" x1="204.5" x2="391.5" y1="161.333" y2="161.333"/><text fill="#FFFFFF" font-family="sans-serif" font-size="13" lengthAdjust="spacing" textLength="45" x="211.5" y="155.524">create()</text><path d="M412,130.7739 L412,175.7739 L631,175.7739 L631,140.7739 L621,130.7739 L412,130.7739 " fill="#714137" style="stroke:#E7E7E7;stroke-width:0.5;"/><path d="M621,130.7739 L621,140.7739 L631,140.7739 L621,130.7739 " fill="#714137" style="stroke:#E7E7E7;stroke-width:0.5;"/><text fill="#FFFFFF" font-family="sans-serif" font-size="13" lengthAdjust="spacing" textLength="170" x="418" y="149.6709">repositories are retrieved via</text><text fill="#FFFFFF" font-family="sans-serif" font-size="13" lengthAdjust="spacing" textLength="198" x="418" y="167.377">PersistenceContext.repositories()</text><polygon fill="#E7E7E7" points="385.5,230.892,395.5,234.892,385.5,238.892,389.5,234.892" style="stroke:#E7E7E7;stroke-width:1.0;"/><line style="stroke:#E7E7E7;stroke-width:1.0;stroke-dasharray:2.0,2.0;" x1="204.5" x2="391.5" y1="234.892" y2="234.892"/><text fill="#FFFFFF" font-family="sans-serif" font-size="13" lengthAdjust="spacing" textLength="108" x="211.5" y="229.083">availableCourses()</text><polygon fill="#E7E7E7" points="551.5,274.451,561.5,278.451,551.5,282.451,555.5,278.451" style="stroke:#E7E7E7;stroke-width:1.0;"/><line style="stroke:#E7E7E7;stroke-width:1.0;stroke-dasharray:2.0,2.0;" x1="407.5" x2="557.5" y1="278.451" y2="278.451"/><text fill="#FFFFFF" font-family="sans-serif" font-size="13" lengthAdjust="spacing" textLength="28" x="414.5" y="272.642">get()</text><path d="M578,247.892 L578,292.892 L787,292.892 L787,257.892 L777,247.892 L578,247.892 " fill="#714137" style="stroke:#E7E7E7;stroke-width:0.5;"/><path d="M777,247.892 L777,257.892 L787,257.892 L777,247.892 " fill="#714137" style="stroke:#E7E7E7;stroke-width:0.5;"/><text fill="#FFFFFF" font-family="sans-serif" font-size="13" lengthAdjust="spacing" textLength="136" x="584" y="266.789">sysUser is obtained via</text><text fill="#FFFFFF" font-family="sans-serif" font-size="13" lengthAdjust="spacing" textLength="188" x="584" y="284.495">the framework's Authz package</text><polygon fill="#E7E7E7" points="677,348.01,687,352.01,677,356.01,681,352.01" style="stroke:#E7E7E7;stroke-width:1.0;"/><line style="stroke:#E7E7E7;stroke-width:1.0;stroke-dasharray:2.0,2.0;" x1="407.5" x2="683" y1="352.01" y2="352.01"/><text fill="#FFFFFF" font-family="sans-serif" font-size="13" lengthAdjust="spacing" textLength="165" x="414.5" y="346.201">findBySystemUser(sysUser)</text><polygon fill="#E7E7E7" points="418.5,379.716,408.5,383.716,418.5,387.716,414.5,383.716" style="stroke:#E7E7E7;stroke-width:1.0;"/><line style="stroke:#E7E7E7;stroke-width:1.0;stroke-dasharray:2.0,2.0;" x1="412.5" x2="693" y1="383.716" y2="383.716"/><text fill="#FFFFFF" font-family="sans-serif" font-size="13" lengthAdjust="spacing" textLength="47" x="424.5" y="377.907">student</text><polygon fill="#E7E7E7" points="825.5,411.4221,835.5,415.4221,825.5,419.4221,829.5,415.4221" style="stroke:#E7E7E7;stroke-width:1.0;"/><line style="stroke:#E7E7E7;stroke-width:1.0;stroke-dasharray:2.0,2.0;" x1="407.5" x2="831.5" y1="415.4221" y2="415.4221"/><text fill="#FFFFFF" font-family="sans-serif" font-size="13" lengthAdjust="spacing" textLength="233" x="414.5" y="409.6131">studentIsEnrolledOrCanEnroll(student)</text><polygon fill="#E7E7E7" points="968,443.1281,978,447.1281,968,451.1281,972,447.1281" style="stroke:#E7E7E7;stroke-width:1.0;"/><line style="stroke:#E7E7E7;stroke-width:1.0;stroke-dasharray:2.0,2.0;" x1="847.5" x2="974" y1="447.1281" y2="447.1281"/><text fill="#FFFFFF" font-family="sans-serif" font-size="13" lengthAdjust="spacing" textLength="67" x="854.5" y="441.3191">enrollable()</text><polygon fill="#E7E7E7" points="858.5,474.8341,848.5,478.8341,858.5,482.8341,854.5,478.8341" style="stroke:#E7E7E7;stroke-width:1.0;"/><line style="stroke:#E7E7E7;stroke-width:1.0;stroke-dasharray:2.0,2.0;" x1="852.5" x2="984" y1="478.8341" y2="478.8341"/><text fill="#FFFFFF" font-family="sans-serif" font-size="13" lengthAdjust="spacing" textLength="46" x="864.5" y="473.0251">courses</text><line style="stroke:#E7E7E7;stroke-width:1.0;stroke-dasharray:2.0,2.0;" x1="847.5" x2="889.5" y1="510.5401" y2="510.5401"/><line style="stroke:#E7E7E7;stroke-width:1.0;stroke-dasharray:2.0,2.0;" x1="889.5" x2="889.5" y1="510.5401" y2="523.5401"/><line style="stroke:#E7E7E7;stroke-width:1.0;stroke-dasharray:2.0,2.0;" x1="848.5" x2="889.5" y1="523.5401" y2="523.5401"/><polygon fill="#E7E7E7" points="858.5,519.5401,848.5,523.5401,858.5,527.5401,854.5,523.5401" style="stroke:#E7E7E7;stroke-width:1.0;"/><text fill="#FFFFFF" font-family="sans-serif" font-size="13" lengthAdjust="spacing" textLength="77" x="854.5" y="504.7311">add(courses)</text><polygon fill="#E7E7E7" points="1116.5,551.2461,1126.5,555.2461,1116.5,559.2461,1120.5,555.2461" style="stroke:#E7E7E7;stroke-width:1.0;"/><line style="stroke:#E7E7E7;stroke-width:1.0;stroke-dasharray:2.0,2.0;" x1="847.5" x2="1122.5" y1="555.2461" y2="555.2461"/><text fill="#FFFFFF" font-family="sans-serif" font-size="13" lengthAdjust="spacing" textLength="212" x="854.5" y="549.4371">coursesOfEnrolledStudent(student)</text><polygon fill="#E7E7E7" points="858.5,582.9521,848.5,586.9521,858.5,590.9521,854.5,586.9521" style="stroke:#E7E7E7;stroke-width:1.0;"/><line style="stroke:#E7E7E7;stroke-width:1.0;stroke-dasharray:2.0,2.0;" x1="852.5" x2="1132.5" y1="586.9521" y2="586.9521"/><text fill="#FFFFFF" font-family="sans-serif" font-size="13" lengthAdjust="spacing" textLength="46" x="864.5" y="581.1431">courses</text><line style="stroke:#E7E7E7;stroke-width:1.0;stroke-dasharray:2.0,2.0;" x1="847.5" x2="889.5" y1="624.0112" y2="624.0112"/><line style="stroke:#E7E7E7;stroke-width:1.0;stroke-dasharray:2.0,2.0;" x1="889.5" x2="889.5" y1="624.0112" y2="637.0112"/><line style="stroke:#E7E7E7;stroke-width:1.0;stroke-dasharray:2.0,2.0;" x1="848.5" x2="889.5" y1="637.0112" y2="637.0112"/><polygon fill="#E7E7E7" points="858.5,633.0112,848.5,637.0112,858.5,641.0112,854.5,637.0112" style="stroke:#E7E7E7;stroke-width:1.0;"/><text fill="#FFFFFF" font-family="sans-serif" font-size="13" lengthAdjust="spacing" textLength="77" x="854.5" y="618.2022">add(courses)</text><path d="M943,599.9521 L943,644.9521 L1082,644.9521 L1082,609.9521 L1072,599.9521 L943,599.9521 " fill="#714137" style="stroke:#E7E7E7;stroke-width:0.5;"/><path d="M1072,599.9521 L1072,609.9521 L1082,609.9521 L1072,599.9521 " fill="#714137" style="stroke:#E7E7E7;stroke-width:0.5;"/><text fill="#FFFFFF" font-family="sans-serif" font-size="13" lengthAdjust="spacing" textLength="118" x="949" y="618.8492">ensure no duplicate</text><text fill="#FFFFFF" font-family="sans-serif" font-size="13" lengthAdjust="spacing" textLength="109" x="949" y="636.5552">courses are added</text><polygon fill="#E7E7E7" points="418.5,670.0702,408.5,674.0702,418.5,678.0702,414.5,674.0702" style="stroke:#E7E7E7;stroke-width:1.0;"/><line style="stroke:#E7E7E7;stroke-width:1.0;stroke-dasharray:2.0,2.0;" x1="412.5" x2="841.5" y1="674.0702" y2="674.0702"/><text fill="#FFFFFF" font-family="sans-serif" font-size="13" lengthAdjust="spacing" textLength="46" x="424.5" y="668.2612">courses</text><polygon fill="#E7E7E7" points="1304,701.7762,1314,705.7762,1304,709.7762,1308,705.7762" style="stroke:#E7E7E7;stroke-width:1.0;"/><line style="stroke:#E7E7E7;stroke-width:1.0;stroke-dasharray:2.0,2.0;" x1="407.5" x2="1310" y1="705.7762" y2="705.7762"/><text fill="#FFFFFF" font-family="sans-serif" font-size="13" lengthAdjust="spacing" textLength="93" x="414.5" y="699.9672">toDTO(courses)</text><path d="M1209,720.7762 L1282,720.7762 L1282,730.4822 L1272,740.4822 L1209,740.4822 L1209,720.7762 " fill="#555555" style="stroke:#FFFFFF;stroke-width:1.5;"/><rect fill="none" height="81.412" style="stroke:#FFFFFF;stroke-width:1.5;" width="385" x="1209" y="720.7762"/><text fill="#FFFFFF" font-family="sans-serif" font-size="13" font-weight="bold" lengthAdjust="spacing" textLength="28" x="1224" y="735.6732">loop</text><text fill="#FFFFFF" font-family="sans-serif" font-size="11" font-weight="bold" lengthAdjust="spacing" textLength="152" x="1297" y="734.5351">[for each course in courses]</text><polygon fill="#E7E7E7" points="1491.5,760.1882,1501.5,764.1882,1491.5,768.1882,1495.5,764.1882" style="stroke:#E7E7E7;stroke-width:1.0;"/><line style="stroke:#E7E7E7;stroke-width:1.0;stroke-dasharray:2.0,2.0;" x1="1326" x2="1497.5" y1="764.1882" y2="764.1882"/><text fill="#FFFFFF" font-family="sans-serif" font-size="13" lengthAdjust="spacing" textLength="45" x="1333" y="758.3792">create()</text><polygon fill="#E7E7E7" points="418.5,828.8943,408.5,832.8943,418.5,836.8943,414.5,832.8943" style="stroke:#E7E7E7;stroke-width:1.0;"/><line style="stroke:#E7E7E7;stroke-width:1.0;stroke-dasharray:2.0,2.0;" x1="412.5" x2="1320" y1="832.8943" y2="832.8943"/><text fill="#FFFFFF" font-family="sans-serif" font-size="13" lengthAdjust="spacing" textLength="87" x="424.5" y="827.0853">courseDTOList</text><polygon fill="#E7E7E7" points="215.5,860.6003,205.5,864.6003,215.5,868.6003,211.5,864.6003" style="stroke:#E7E7E7;stroke-width:1.0;"/><line style="stroke:#E7E7E7;stroke-width:1.0;stroke-dasharray:2.0,2.0;" x1="209.5" x2="401.5" y1="864.6003" y2="864.6003"/><text fill="#FFFFFF" font-family="sans-serif" font-size="13" lengthAdjust="spacing" textLength="87" x="221.5" y="858.7913">courseDTOList</text><polygon fill="#E7E7E7" points="45.5,892.3063,35.5,896.3063,45.5,900.3063,41.5,896.3063" style="stroke:#E7E7E7;stroke-width:1.0;"/><line style="stroke:#E7E7E7;stroke-width:1.0;stroke-dasharray:2.0,2.0;" x1="39.5" x2="198.5" y1="896.3063" y2="896.3063"/><text fill="#FFFFFF" font-family="sans-serif" font-size="13" lengthAdjust="spacing" textLength="136" x="51.5" y="890.4973">show available courses</text><!--SRC=[bLLDJ-Cm4BtdL_X6ER0_WCDAR7TNGjfL4OKRKcNiIMkHsf7j1Cglt_576jlnWiWfpRoPUM_yFANCAassTk0WBQ6630PqqrDj1HCznMz_XB4t8nKTVUvWhGPjm3pUUgZu5BXMqchLTQ1T0hEwQveBacRTWJQO29A10yER3SYt0dSFlJ82oPv-KyVvv60Q-brBMPFns9wmtF7HX9xcP7Q3qGKaw9rhUkGEowbceIbAsO8U1GEF78kM236GLsEXMehw9TqeZdFZW8JOjn1yCzZ3-ptiaK70KVoWOL-1AItUgHLA9XmTsl7CqLim1d5U1BuskOpYz7u-RFxIlWzpFFgtJ-0EoAqgfOIuduf_QnhdCd9rzHqzHAu9JWHBDtYkOgGMdB48FXXp4ESQ134D65jT-j0PwYr5uYCLVj5YVx28rzDn2C1fQ0o0nVSHE1a5VP9ButrBKs8Z3dch2Z5QUFv3YZx79KTVOluUR4p9qYRZLiLXq1jS6AAUBHLoKcKFG5fDZ_2gzCk52Ix2ms0lT0_dMecgy_rOClI-n6QjaFp7QRvMgzYzHZfucIHFB9CCp8JRLsKJxyAIpCZcp5iJhXBmZLvJ6NwiOh362kz1HWcBUJwJGl0Lt1dYIMJG-HINoZp1MLsW61nkCc1gea9WIYSKe9olOf7BEWucsX6sQQTnnBss74Kc1UfIu8jIu6jIKbZcPP1cmEif5U53tmc6jPzaJFCN5yi0h_UPTaF1D7MKszKBEuLjTasimgsrv7ZEZbilRTqfrPCM_pInno5s9a9Mf-MUKC9tnTLOxB7g-RWDMWOJHMKO9FUaclzqTQAd4Q5QzvTM6rIKkfoLNz7Bz8yser_lU5qFwdLUZ-S99PcuwVy1]--></g></svg>