<?xml version="1.0" encoding="us-ascii" standalone="no"?><svg xmlns="http://www.w3.org/2000/svg" xmlns:xlink="http://www.w3.org/1999/xlink" contentStyleType="text/css" height="1227px" preserveAspectRatio="none" style="width:2116px;height:1227px;background:#1B1B1B;" version="1.1" viewBox="0 0 2116 1227" width="2116px" zoomAndPan="magnify"><defs/><g><rect fill="#1B1B1B" height="1227" style="stroke:none;stroke-width:1.0;" width="2116" x="0" y="0"/><rect fill="#000000" height="1008.0624" style="stroke:#E7E7E7;stroke-width:1.0;" width="10" x="195" y="117.7739"/><rect fill="#000000" height="280.2361" style="stroke:#E7E7E7;stroke-width:1.0;" width="10" x="398" y="149.4799"/><rect fill="#000000" height="632.7083" style="stroke:#E7E7E7;stroke-width:1.0;" width="10" x="398" y="461.4221"/><rect fill="#000000" height="61.706" style="stroke:#E7E7E7;stroke-width:1.0;" width="10" x="588.5" y="181.186"/><rect fill="#000000" height="30" style="stroke:#E7E7E7;stroke-width:1.0;" width="10" x="736" y="212.892"/><rect fill="#000000" height="61.706" style="stroke:#E7E7E7;stroke-width:1.0;" width="10" x="736" y="274.598"/><rect fill="#000000" height="61.706" style="stroke:#E7E7E7;stroke-width:1.0;" width="10" x="736" y="368.01"/><rect fill="#000000" height="95.118" style="stroke:#E7E7E7;stroke-width:1.0;" width="10" x="882" y="808.4822"/><rect fill="#000000" height="30" style="stroke:#E7E7E7;stroke-width:1.0;" width="10" x="1049" y="306.304"/><rect fill="#000000" height="31.706" style="stroke:#E7E7E7;stroke-width:1.0;" width="10" x="1049" y="840.1882"/><rect fill="#000000" height="30" style="stroke:#E7E7E7;stroke-width:1.0;" width="10" x="1191.5" y="399.716"/><rect fill="#000000" height="31.706" style="stroke:#E7E7E7;stroke-width:1.0;" width="10" x="1191.5" y="745.0702"/><rect fill="#000000" height="93.412" style="stroke:#E7E7E7;stroke-width:1.0;" width="10" x="1325" y="493.1281"/><rect fill="#000000" height="61.706" style="stroke:#E7E7E7;stroke-width:1.0;" width="10" x="1465.5" y="524.8341"/><rect fill="#000000" height="30" style="stroke:#E7E7E7;stroke-width:1.0;" width="10" x="1584.5" y="556.5401"/><rect fill="#000000" height="95.118" style="stroke:#E7E7E7;stroke-width:1.0;" width="10" x="1584.5" y="618.2461"/><rect fill="#000000" height="31.706" style="stroke:#E7E7E7;stroke-width:1.0;" width="10" x="1673.5" y="649.9521"/><rect fill="#000000" height="127.118" style="stroke:#E7E7E7;stroke-width:1.0;" width="10" x="1832" y="935.3063"/><rect fill="#000000" height="30" style="stroke:#E7E7E7;stroke-width:1.0;" width="10" x="2019.5" y="993.7183"/><rect fill="none" height="81.412" style="stroke:#FFFFFF;stroke-width:1.5;" width="385" x="1725" y="950.3063"/><line style="stroke:#E7E7E7;stroke-width:0.5;stroke-dasharray:5.0,5.0;" x1="35" x2="35" y1="84.0679" y2="1143.8364"/><line style="stroke:#E7E7E7;stroke-width:0.5;stroke-dasharray:5.0,5.0;" x1="199.5" x2="199.5" y1="84.0679" y2="1143.8364"/><line style="stroke:#E7E7E7;stroke-width:0.5;stroke-dasharray:5.0,5.0;" x1="402.5" x2="402.5" y1="84.0679" y2="1143.8364"/><line style="stroke:#E7E7E7;stroke-width:0.5;stroke-dasharray:5.0,5.0;" x1="593.5" x2="593.5" y1="84.0679" y2="1143.8364"/><line style="stroke:#E7E7E7;stroke-width:0.5;stroke-dasharray:5.0,5.0;" x1="740.5" x2="740.5" y1="84.0679" y2="1143.8364"/><line style="stroke:#E7E7E7;stroke-width:0.5;stroke-dasharray:5.0,5.0;" x1="886.5" x2="886.5" y1="84.0679" y2="1143.8364"/><line style="stroke:#E7E7E7;stroke-width:0.5;stroke-dasharray:5.0,5.0;" x1="1054" x2="1054" y1="84.0679" y2="1143.8364"/><line style="stroke:#E7E7E7;stroke-width:0.5;stroke-dasharray:5.0,5.0;" x1="1196" x2="1196" y1="84.0679" y2="1143.8364"/><line style="stroke:#E7E7E7;stroke-width:0.5;stroke-dasharray:5.0,5.0;" x1="1330" x2="1330" y1="84.0679" y2="1143.8364"/><line style="stroke:#E7E7E7;stroke-width:0.5;stroke-dasharray:5.0,5.0;" x1="1470" x2="1470" y1="84.0679" y2="1143.8364"/><line style="stroke:#E7E7E7;stroke-width:0.5;stroke-dasharray:5.0,5.0;" x1="1589" x2="1589" y1="84.0679" y2="1143.8364"/><line style="stroke:#E7E7E7;stroke-width:0.5;stroke-dasharray:5.0,5.0;" x1="1678" x2="1678" y1="84.0679" y2="1143.8364"/><line style="stroke:#E7E7E7;stroke-width:0.5;stroke-dasharray:5.0,5.0;" x1="1837" x2="1837" y1="84.0679" y2="1143.8364"/><line style="stroke:#E7E7E7;stroke-width:0.5;stroke-dasharray:5.0,5.0;" x1="2024" x2="2024" y1="84.0679" y2="1143.8364"/><text fill="#FFFFFF" font-family="sans-serif" font-size="14" lengthAdjust="spacing" textLength="54" x="5" y="79.9659">Teacher</text><ellipse cx="35" cy="13.5" fill="#222222" rx="8" ry="8" style="stroke:#E7E7E7;stroke-width:0.5;"/><path d="M35,21.5 L35,48.5 M22,29.5 L48,29.5 M35,48.5 L22,63.5 M35,48.5 L48,63.5 " fill="none" style="stroke:#E7E7E7;stroke-width:0.5;"/><text fill="#FFFFFF" font-family="sans-serif" font-size="14" lengthAdjust="spacing" textLength="54" x="5" y="1157.8023">Teacher</text><ellipse cx="35" cy="1170.4043" fill="#222222" rx="8" ry="8" style="stroke:#E7E7E7;stroke-width:0.5;"/><path d="M35,1178.4043 L35,1205.4043 M22,1186.4043 L48,1186.4043 M35,1205.4043 L22,1220.4043 M35,1205.4043 L48,1220.4043 " fill="none" style="stroke:#E7E7E7;stroke-width:0.5;"/><rect fill="#222222" height="33.0679" rx="2.5" ry="2.5" style="stroke:#E7E7E7;stroke-width:0.5;" width="167" x="116.5" y="50"/><text fill="#FFFFFF" font-family="sans-serif" font-size="14" lengthAdjust="spacing" textLength="153" x="123.5" y="71.9659">ListAvailableCoursesUI</text><rect fill="#222222" height="33.0679" rx="2.5" ry="2.5" style="stroke:#E7E7E7;stroke-width:0.5;" width="167" x="116.5" y="1142.8364"/><text fill="#FFFFFF" font-family="sans-serif" font-size="14" lengthAdjust="spacing" textLength="153" x="123.5" y="1164.8023">ListAvailableCoursesUI</text><rect fill="#222222" height="33.0679" rx="2.5" ry="2.5" style="stroke:#E7E7E7;stroke-width:0.5;" width="219" x="293.5" y="50"/><text fill="#FFFFFF" font-family="sans-serif" font-size="14" lengthAdjust="spacing" textLength="205" x="300.5" y="71.9659">ListAvailableCoursesController</text><rect fill="#222222" height="33.0679" rx="2.5" ry="2.5" style="stroke:#E7E7E7;stroke-width:0.5;" width="219" x="293.5" y="1142.8364"/><text fill="#FFFFFF" font-family="sans-serif" font-size="14" lengthAdjust="spacing" textLength="205" x="300.5" y="1164.8023">ListAvailableCoursesController</text><rect fill="#222222" height="33.0679" rx="2.5" ry="2.5" style="stroke:#E7E7E7;stroke-width:0.5;" width="142" x="522.5" y="50"/><text fill="#FFFFFF" font-family="sans-serif" font-size="14" lengthAdjust="spacing" textLength="128" x="529.5" y="71.9659">PersistenceContext</text><rect fill="#222222" height="33.0679" rx="2.5" ry="2.5" style="stroke:#E7E7E7;stroke-width:0.5;" width="142" x="522.5" y="1142.8364"/><text fill="#FFFFFF" font-family="sans-serif" font-size="14" lengthAdjust="spacing" textLength="128" x="529.5" y="1164.8023">PersistenceContext</text><rect fill="#222222" height="33.0679" rx="2.5" ry="2.5" style="stroke:#E7E7E7;stroke-width:0.5;" width="133" x="674.5" y="50"/><text fill="#FFFFFF" font-family="sans-serif" font-size="14" lengthAdjust="spacing" textLength="119" x="681.5" y="71.9659">RepositoryFactory</text><rect fill="#222222" height="33.0679" rx="2.5" ry="2.5" style="stroke:#E7E7E7;stroke-width:0.5;" width="133" x="674.5" y="1142.8364"/><text fill="#FFFFFF" font-family="sans-serif" font-size="14" lengthAdjust="spacing" textLength="119" x="681.5" y="1164.8023">RepositoryFactory</text><rect fill="#222222" height="33.0679" rx="2.5" ry="2.5" style="stroke:#E7E7E7;stroke-width:0.5;" width="139" x="817.5" y="50"/><text fill="#FFFFFF" font-family="sans-serif" font-size="14" lengthAdjust="spacing" textLength="125" x="824.5" y="71.9659">ListCoursesService</text><rect fill="#222222" height="33.0679" rx="2.5" ry="2.5" style="stroke:#E7E7E7;stroke-width:0.5;" width="139" x="817.5" y="1142.8364"/><text fill="#FFFFFF" font-family="sans-serif" font-size="14" lengthAdjust="spacing" textLength="125" x="824.5" y="1164.8023">ListCoursesService</text><rect fill="#222222" height="33.0679" rx="2.5" ry="2.5" style="stroke:#E7E7E7;stroke-width:0.5;" width="126" x="991" y="50"/><text fill="#FFFFFF" font-family="sans-serif" font-size="14" lengthAdjust="spacing" textLength="112" x="998" y="71.9659">CouseRepository</text><rect fill="#222222" height="33.0679" rx="2.5" ry="2.5" style="stroke:#E7E7E7;stroke-width:0.5;" width="126" x="991" y="1142.8364"/><text fill="#FFFFFF" font-family="sans-serif" font-size="14" lengthAdjust="spacing" textLength="112" x="998" y="1164.8023">CouseRepository</text><rect fill="#222222" height="33.0679" rx="2.5" ry="2.5" style="stroke:#E7E7E7;stroke-width:0.5;" width="139" x="1127" y="50"/><text fill="#FFFFFF" font-family="sans-serif" font-size="14" lengthAdjust="spacing" textLength="125" x="1134" y="71.9659">TeacherRepository</text><rect fill="#222222" height="33.0679" rx="2.5" ry="2.5" style="stroke:#E7E7E7;stroke-width:0.5;" width="139" x="1127" y="1142.8364"/><text fill="#FFFFFF" font-family="sans-serif" font-size="14" lengthAdjust="spacing" textLength="125" x="1134" y="1164.8023">TeacherRepository</text><rect fill="#222222" height="33.0679" rx="2.5" ry="2.5" style="stroke:#E7E7E7;stroke-width:0.5;" width="108" x="1276" y="50"/><text fill="#FFFFFF" font-family="sans-serif" font-size="14" lengthAdjust="spacing" textLength="94" x="1283" y="71.9659">AuthzRegistry</text><rect fill="#222222" height="33.0679" rx="2.5" ry="2.5" style="stroke:#E7E7E7;stroke-width:0.5;" width="108" x="1276" y="1142.8364"/><text fill="#FFFFFF" font-family="sans-serif" font-size="14" lengthAdjust="spacing" textLength="94" x="1283" y="1164.8023">AuthzRegistry</text><rect fill="#222222" height="33.0679" rx="2.5" ry="2.5" style="stroke:#E7E7E7;stroke-width:0.5;" width="153" x="1394" y="50"/><text fill="#FFFFFF" font-family="sans-serif" font-size="14" lengthAdjust="spacing" textLength="139" x="1401" y="71.9659">AuthorizationService</text><rect fill="#222222" height="33.0679" rx="2.5" ry="2.5" style="stroke:#E7E7E7;stroke-width:0.5;" width="153" x="1394" y="1142.8364"/><text fill="#FFFFFF" font-family="sans-serif" font-size="14" lengthAdjust="spacing" textLength="139" x="1401" y="1164.8023">AuthorizationService</text><rect fill="#222222" height="33.0679" rx="2.5" ry="2.5" style="stroke:#E7E7E7;stroke-width:0.5;" width="65" x="1557" y="50"/><text fill="#FFFFFF" font-family="sans-serif" font-size="14" lengthAdjust="spacing" textLength="51" x="1564" y="71.9659">Session</text><rect fill="#222222" height="33.0679" rx="2.5" ry="2.5" style="stroke:#E7E7E7;stroke-width:0.5;" width="65" x="1557" y="1142.8364"/><text fill="#FFFFFF" font-family="sans-serif" font-size="14" lengthAdjust="spacing" textLength="51" x="1564" y="1164.8023">Session</text><rect fill="#222222" height="33.0679" rx="2.5" ry="2.5" style="stroke:#E7E7E7;stroke-width:0.5;" width="93" x="1632" y="50"/><text fill="#FFFFFF" font-family="sans-serif" font-size="14" lengthAdjust="spacing" textLength="79" x="1639" y="71.9659">SystemUser</text><rect fill="#222222" height="33.0679" rx="2.5" ry="2.5" style="stroke:#E7E7E7;stroke-width:0.5;" width="93" x="1632" y="1142.8364"/><text fill="#FFFFFF" font-family="sans-serif" font-size="14" lengthAdjust="spacing" textLength="79" x="1639" y="1164.8023">SystemUser</text><rect fill="#222222" height="33.0679" rx="2.5" ry="2.5" style="stroke:#E7E7E7;stroke-width:0.5;" width="204" x="1735" y="50"/><text fill="#FFFFFF" font-family="sans-serif" font-size="14" lengthAdjust="spacing" textLength="190" x="1742" y="71.9659">AvailableCourseDTOMapper</text><rect fill="#222222" height="33.0679" rx="2.5" ry="2.5" style="stroke:#E7E7E7;stroke-width:0.5;" width="204" x="1735" y="1142.8364"/><text fill="#FFFFFF" font-family="sans-serif" font-size="14" lengthAdjust="spacing" textLength="190" x="1742" y="1164.8023">AvailableCourseDTOMapper</text><rect fill="#222222" height="33.0679" rx="2.5" ry="2.5" style="stroke:#E7E7E7;stroke-width:0.5;" width="151" x="1949" y="50"/><text fill="#FFFFFF" font-family="sans-serif" font-size="14" lengthAdjust="spacing" textLength="137" x="1956" y="71.9659">AvailableCourseDTO</text><rect fill="#222222" height="33.0679" rx="2.5" ry="2.5" style="stroke:#E7E7E7;stroke-width:0.5;" width="151" x="1949" y="1142.8364"/><text fill="#FFFFFF" font-family="sans-serif" font-size="14" lengthAdjust="spacing" textLength="137" x="1956" y="1164.8023">AvailableCourseDTO</text><rect fill="#000000" height="1008.0624" style="stroke:#E7E7E7;stroke-width:1.0;" width="10" x="195" y="117.7739"/><rect fill="#000000" height="280.2361" style="stroke:#E7E7E7;stroke-width:1.0;" width="10" x="398" y="149.4799"/><rect fill="#000000" height="632.7083" style="stroke:#E7E7E7;stroke-width:1.0;" width="10" x="398" y="461.4221"/><rect fill="#000000" height="61.706" style="stroke:#E7E7E7;stroke-width:1.0;" width="10" x="588.5" y="181.186"/><rect fill="#000000" height="30" style="stroke:#E7E7E7;stroke-width:1.0;" width="10" x="736" y="212.892"/><rect fill="#000000" height="61.706" style="stroke:#E7E7E7;stroke-width:1.0;" width="10" x="736" y="274.598"/><rect fill="#000000" height="61.706" style="stroke:#E7E7E7;stroke-width:1.0;" width="10" x="736" y="368.01"/><rect fill="#000000" height="95.118" style="stroke:#E7E7E7;stroke-width:1.0;" width="10" x="882" y="808.4822"/><rect fill="#000000" height="30" style="stroke:#E7E7E7;stroke-width:1.0;" width="10" x="1049" y="306.304"/><rect fill="#000000" height="31.706" style="stroke:#E7E7E7;stroke-width:1.0;" width="10" x="1049" y="840.1882"/><rect fill="#000000" height="30" style="stroke:#E7E7E7;stroke-width:1.0;" width="10" x="1191.5" y="399.716"/><rect fill="#000000" height="31.706" style="stroke:#E7E7E7;stroke-width:1.0;" width="10" x="1191.5" y="745.0702"/><rect fill="#000000" height="93.412" style="stroke:#E7E7E7;stroke-width:1.0;" width="10" x="1325" y="493.1281"/><rect fill="#000000" height="61.706" style="stroke:#E7E7E7;stroke-width:1.0;" width="10" x="1465.5" y="524.8341"/><rect fill="#000000" height="30" style="stroke:#E7E7E7;stroke-width:1.0;" width="10" x="1584.5" y="556.5401"/><rect fill="#000000" height="95.118" style="stroke:#E7E7E7;stroke-width:1.0;" width="10" x="1584.5" y="618.2461"/><rect fill="#000000" height="31.706" style="stroke:#E7E7E7;stroke-width:1.0;" width="10" x="1673.5" y="649.9521"/><rect fill="#000000" height="127.118" style="stroke:#E7E7E7;stroke-width:1.0;" width="10" x="1832" y="935.3063"/><rect fill="#000000" height="30" style="stroke:#E7E7E7;stroke-width:1.0;" width="10" x="2019.5" y="993.7183"/><polygon fill="#E7E7E7" points="183,113.7739,193,117.7739,183,121.7739,187,117.7739" style="stroke:#E7E7E7;stroke-width:1.0;"/><line style="stroke:#E7E7E7;stroke-width:1.0;stroke-dasharray:2.0,2.0;" x1="35" x2="189" y1="117.7739" y2="117.7739"/><text fill="#FFFFFF" font-family="sans-serif" font-size="13" lengthAdjust="spacing" textLength="32" x="42" y="111.9649">enter</text><polygon fill="#E7E7E7" points="386,145.4799,396,149.4799,386,153.4799,390,149.4799" style="stroke:#E7E7E7;stroke-width:1.0;"/><line style="stroke:#E7E7E7;stroke-width:1.0;stroke-dasharray:2.0,2.0;" x1="205" x2="392" y1="149.4799" y2="149.4799"/><text fill="#FFFFFF" font-family="sans-serif" font-size="13" lengthAdjust="spacing" textLength="45" x="212" y="143.6709">create()</text><polygon fill="#E7E7E7" points="576.5,177.186,586.5,181.186,576.5,185.186,580.5,181.186" style="stroke:#E7E7E7;stroke-width:1.0;"/><line style="stroke:#E7E7E7;stroke-width:1.0;stroke-dasharray:2.0,2.0;" x1="408" x2="582.5" y1="181.186" y2="181.186"/><text fill="#FFFFFF" font-family="sans-serif" font-size="13" lengthAdjust="spacing" textLength="79" x="415" y="175.377">repositories()</text><polygon fill="#E7E7E7" points="724,208.892,734,212.892,724,216.892,728,212.892" style="stroke:#E7E7E7;stroke-width:1.0;"/><line style="stroke:#E7E7E7;stroke-width:1.0;stroke-dasharray:2.0,2.0;" x1="598.5" x2="730" y1="212.892" y2="212.892"/><text fill="#FFFFFF" font-family="sans-serif" font-size="13" lengthAdjust="spacing" textLength="45" x="605.5" y="207.083">create()</text><polygon fill="#E7E7E7" points="724,270.598,734,274.598,724,278.598,728,274.598" style="stroke:#E7E7E7;stroke-width:1.0;"/><line style="stroke:#E7E7E7;stroke-width:1.0;stroke-dasharray:2.0,2.0;" x1="408" x2="730" y1="274.598" y2="274.598"/><text fill="#FFFFFF" font-family="sans-serif" font-size="13" lengthAdjust="spacing" textLength="54" x="415" y="268.789">courses()</text><polygon fill="#E7E7E7" points="1037,302.304,1047,306.304,1037,310.304,1041,306.304" style="stroke:#E7E7E7;stroke-width:1.0;"/><line style="stroke:#E7E7E7;stroke-width:1.0;stroke-dasharray:2.0,2.0;" x1="746" x2="1043" y1="306.304" y2="306.304"/><text fill="#FFFFFF" font-family="sans-serif" font-size="13" lengthAdjust="spacing" textLength="45" x="753" y="300.495">create()</text><polygon fill="#E7E7E7" points="724,364.01,734,368.01,724,372.01,728,368.01" style="stroke:#E7E7E7;stroke-width:1.0;"/><line style="stroke:#E7E7E7;stroke-width:1.0;stroke-dasharray:2.0,2.0;" x1="408" x2="730" y1="368.01" y2="368.01"/><text fill="#FFFFFF" font-family="sans-serif" font-size="13" lengthAdjust="spacing" textLength="59" x="415" y="362.201">teachers()</text><polygon fill="#E7E7E7" points="1179.5,395.716,1189.5,399.716,1179.5,403.716,1183.5,399.716" style="stroke:#E7E7E7;stroke-width:1.0;"/><line style="stroke:#E7E7E7;stroke-width:1.0;stroke-dasharray:2.0,2.0;" x1="746" x2="1185.5" y1="399.716" y2="399.716"/><text fill="#FFFFFF" font-family="sans-serif" font-size="13" lengthAdjust="spacing" textLength="45" x="753" y="393.907">create()</text><polygon fill="#E7E7E7" points="386,457.4221,396,461.4221,386,465.4221,390,461.4221" style="stroke:#E7E7E7;stroke-width:1.0;"/><line style="stroke:#E7E7E7;stroke-width:1.0;stroke-dasharray:2.0,2.0;" x1="205" x2="392" y1="461.4221" y2="461.4221"/><text fill="#FFFFFF" font-family="sans-serif" font-size="13" lengthAdjust="spacing" textLength="108" x="212" y="455.6131">availableCourses()</text><polygon fill="#E7E7E7" points="1313,489.1281,1323,493.1281,1313,497.1281,1317,493.1281" style="stroke:#E7E7E7;stroke-width:1.0;"/><line style="stroke:#E7E7E7;stroke-width:1.0;stroke-dasharray:2.0,2.0;" x1="408" x2="1319" y1="493.1281" y2="493.1281"/><text fill="#FFFFFF" font-family="sans-serif" font-size="13" lengthAdjust="spacing" textLength="131" x="415" y="487.3191">authorizationService()</text><polygon fill="#E7E7E7" points="1453.5,520.8341,1463.5,524.8341,1453.5,528.8341,1457.5,524.8341" style="stroke:#E7E7E7;stroke-width:1.0;"/><line style="stroke:#E7E7E7;stroke-width:1.0;stroke-dasharray:2.0,2.0;" x1="1335" x2="1459.5" y1="524.8341" y2="524.8341"/><text fill="#FFFFFF" font-family="sans-serif" font-size="13" lengthAdjust="spacing" textLength="52" x="1342" y="519.0251">session()</text><polygon fill="#E7E7E7" points="1572.5,552.5401,1582.5,556.5401,1572.5,560.5401,1576.5,556.5401" style="stroke:#E7E7E7;stroke-width:1.0;"/><line style="stroke:#E7E7E7;stroke-width:1.0;stroke-dasharray:2.0,2.0;" x1="1475.5" x2="1578.5" y1="556.5401" y2="556.5401"/><text fill="#FFFFFF" font-family="sans-serif" font-size="13" lengthAdjust="spacing" textLength="28" x="1482.5" y="550.7311">get()</text><polygon fill="#E7E7E7" points="1572.5,614.2461,1582.5,618.2461,1572.5,622.2461,1576.5,618.2461" style="stroke:#E7E7E7;stroke-width:1.0;"/><line style="stroke:#E7E7E7;stroke-width:1.0;stroke-dasharray:2.0,2.0;" x1="408" x2="1578.5" y1="618.2461" y2="618.2461"/><text fill="#FFFFFF" font-family="sans-serif" font-size="13" lengthAdjust="spacing" textLength="120" x="415" y="612.4371">authenticatedUser()</text><polygon fill="#E7E7E7" points="1661.5,645.9521,1671.5,649.9521,1661.5,653.9521,1665.5,649.9521" style="stroke:#E7E7E7;stroke-width:1.0;"/><line style="stroke:#E7E7E7;stroke-width:1.0;stroke-dasharray:2.0,2.0;" x1="1594.5" x2="1667.5" y1="649.9521" y2="649.9521"/><text fill="#FFFFFF" font-family="sans-serif" font-size="13" lengthAdjust="spacing" textLength="28" x="1601.5" y="644.1431">get()</text><polygon fill="#E7E7E7" points="1605.5,677.6582,1595.5,681.6582,1605.5,685.6582,1601.5,681.6582" style="stroke:#E7E7E7;stroke-width:1.0;"/><line style="stroke:#E7E7E7;stroke-width:1.0;stroke-dasharray:2.0,2.0;" x1="1599.5" x2="1677.5" y1="681.6582" y2="681.6582"/><text fill="#FFFFFF" font-family="sans-serif" font-size="13" lengthAdjust="spacing" textLength="47" x="1611.5" y="675.8492">sysUser</text><polygon fill="#E7E7E7" points="419,709.3642,409,713.3642,419,717.3642,415,713.3642" style="stroke:#E7E7E7;stroke-width:1.0;"/><line style="stroke:#E7E7E7;stroke-width:1.0;stroke-dasharray:2.0,2.0;" x1="413" x2="1588.5" y1="713.3642" y2="713.3642"/><text fill="#FFFFFF" font-family="sans-serif" font-size="13" lengthAdjust="spacing" textLength="47" x="425" y="707.5552">sysUser</text><polygon fill="#E7E7E7" points="1179.5,741.0702,1189.5,745.0702,1179.5,749.0702,1183.5,745.0702" style="stroke:#E7E7E7;stroke-width:1.0;"/><line style="stroke:#E7E7E7;stroke-width:1.0;stroke-dasharray:2.0,2.0;" x1="408" x2="1185.5" y1="745.0702" y2="745.0702"/><text fill="#FFFFFF" font-family="sans-serif" font-size="13" lengthAdjust="spacing" textLength="165" x="415" y="739.2612">findBySystemUser(sysUser)</text><polygon fill="#E7E7E7" points="419,772.7762,409,776.7762,419,780.7762,415,776.7762" style="stroke:#E7E7E7;stroke-width:1.0;"/><line style="stroke:#E7E7E7;stroke-width:1.0;stroke-dasharray:2.0,2.0;" x1="413" x2="1195.5" y1="776.7762" y2="776.7762"/><text fill="#FFFFFF" font-family="sans-serif" font-size="13" lengthAdjust="spacing" textLength="45" x="425" y="770.9672">teacher</text><polygon fill="#E7E7E7" points="870,804.4822,880,808.4822,870,812.4822,874,808.4822" style="stroke:#E7E7E7;stroke-width:1.0;"/><line style="stroke:#E7E7E7;stroke-width:1.0;stroke-dasharray:2.0,2.0;" x1="408" x2="876" y1="808.4822" y2="808.4822"/><text fill="#FFFFFF" font-family="sans-serif" font-size="13" lengthAdjust="spacing" textLength="109" x="415" y="802.6732">taughtBy(teacher)</text><polygon fill="#E7E7E7" points="1037,836.1882,1047,840.1882,1037,844.1882,1041,840.1882" style="stroke:#E7E7E7;stroke-width:1.0;"/><line style="stroke:#E7E7E7;stroke-width:1.0;stroke-dasharray:2.0,2.0;" x1="892" x2="1043" y1="840.1882" y2="840.1882"/><text fill="#FFFFFF" font-family="sans-serif" font-size="13" lengthAdjust="spacing" textLength="138" x="899" y="834.3792">findByTeacher(teacher)</text><polygon fill="#E7E7E7" points="903,867.8943,893,871.8943,903,875.8943,899,871.8943" style="stroke:#E7E7E7;stroke-width:1.0;"/><line style="stroke:#E7E7E7;stroke-width:1.0;stroke-dasharray:2.0,2.0;" x1="897" x2="1053" y1="871.8943" y2="871.8943"/><text fill="#FFFFFF" font-family="sans-serif" font-size="13" lengthAdjust="spacing" textLength="46" x="909" y="866.0853">courses</text><polygon fill="#E7E7E7" points="419,899.6003,409,903.6003,419,907.6003,415,903.6003" style="stroke:#E7E7E7;stroke-width:1.0;"/><line style="stroke:#E7E7E7;stroke-width:1.0;stroke-dasharray:2.0,2.0;" x1="413" x2="886" y1="903.6003" y2="903.6003"/><text fill="#FFFFFF" font-family="sans-serif" font-size="13" lengthAdjust="spacing" textLength="46" x="425" y="897.7913">courses</text><polygon fill="#E7E7E7" points="1820,931.3063,1830,935.3063,1820,939.3063,1824,935.3063" style="stroke:#E7E7E7;stroke-width:1.0;"/><line style="stroke:#E7E7E7;stroke-width:1.0;stroke-dasharray:2.0,2.0;" x1="408" x2="1826" y1="935.3063" y2="935.3063"/><text fill="#FFFFFF" font-family="sans-serif" font-size="13" lengthAdjust="spacing" textLength="93" x="415" y="929.4973">toDTO(courses)</text><path d="M1725,950.3063 L1798,950.3063 L1798,960.0123 L1788,970.0123 L1725,970.0123 L1725,950.3063 " fill="#555555" style="stroke:#FFFFFF;stroke-width:1.5;"/><rect fill="none" height="81.412" style="stroke:#FFFFFF;stroke-width:1.5;" width="385" x="1725" y="950.3063"/><text fill="#FFFFFF" font-family="sans-serif" font-size="13" font-weight="bold" lengthAdjust="spacing" textLength="28" x="1740" y="965.2033">loop</text><text fill="#FFFFFF" font-family="sans-serif" font-size="11" font-weight="bold" lengthAdjust="spacing" textLength="152" x="1813" y="964.0652">[for each course in courses]</text><polygon fill="#E7E7E7" points="2007.5,989.7183,2017.5,993.7183,2007.5,997.7183,2011.5,993.7183" style="stroke:#E7E7E7;stroke-width:1.0;"/><line style="stroke:#E7E7E7;stroke-width:1.0;stroke-dasharray:2.0,2.0;" x1="1842" x2="2013.5" y1="993.7183" y2="993.7183"/><text fill="#FFFFFF" font-family="sans-serif" font-size="13" lengthAdjust="spacing" textLength="45" x="1849" y="987.9093">create()</text><polygon fill="#E7E7E7" points="419,1058.4243,409,1062.4243,419,1066.4243,415,1062.4243" style="stroke:#E7E7E7;stroke-width:1.0;"/><line style="stroke:#E7E7E7;stroke-width:1.0;stroke-dasharray:2.0,2.0;" x1="413" x2="1836" y1="1062.4243" y2="1062.4243"/><text fill="#FFFFFF" font-family="sans-serif" font-size="13" lengthAdjust="spacing" textLength="87" x="425" y="1056.6153">courseDTOList</text><polygon fill="#E7E7E7" points="216,1090.1304,206,1094.1304,216,1098.1304,212,1094.1304" style="stroke:#E7E7E7;stroke-width:1.0;"/><line style="stroke:#E7E7E7;stroke-width:1.0;stroke-dasharray:2.0,2.0;" x1="210" x2="402" y1="1094.1304" y2="1094.1304"/><text fill="#FFFFFF" font-family="sans-serif" font-size="13" lengthAdjust="spacing" textLength="87" x="222" y="1088.3214">courseDTOList</text><polygon fill="#E7E7E7" points="46,1121.8364,36,1125.8364,46,1129.8364,42,1125.8364" style="stroke:#E7E7E7;stroke-width:1.0;"/><line style="stroke:#E7E7E7;stroke-width:1.0;stroke-dasharray:2.0,2.0;" x1="40" x2="199" y1="1125.8364" y2="1125.8364"/><text fill="#FFFFFF" font-family="sans-serif" font-size="13" lengthAdjust="spacing" textLength="136" x="52" y="1120.0274">show available courses</text><!--SRC=[dLRBZjim3BpxAtHhUjWVwA70xXO52hHeiOzpe3fC8i1h6PAInllr9IKwrij9i3uPvd0uf4ZAidNQY1UGxHwCa5OSB9XcaCQfLWsoT-Adikx-A5Kd_tRmg0_6WdtzuQ7gAl1HzyxehWlShJDTa_Zy0MFH3VeM20ed5t2d1FK4WxOAXOxV9UaT2MHWM6zbsnGQEFGpcADgWQ3scC4GOc5czJ7NIAWJ55SbnRc0Iu3t1xT_Vu8T1WyWYHyCx0gGDkfTEgNxI1nXIM2CVGPh4UMrusjg6x5URwysbDIETdsmfia4fSVmxUNtBpaCmUFDlrs14t3ZCCrF8giRsdsv_5lJKBk8kxkls0pYYm0yGjI2XwIEqW5rYC07RGIXuqTGQm1jgy_UT8RwtX3yU6HmEQ67cKv0WMM_pFTq_XZSJzwRMoIFMVXFhHGRDx1eZamKkLGTnGszM1DT2pev-jHzertLpdsx83spLfAwfDw50VYGV7URV7THlhiglpWFsZ1bpybiBztMVJp6v5yPtbfLfi5FScMMYH677Hbj6F6bkanRGMJFH41aH85CEt0PIyBa5qXkZKfMs2DRhY8pKQPbrLWM0N0Vg1RH6rfNjNeLmRspPmcBhPhVxCxRBqzlSexau2SIiPJfUOzMnN0NvHnv5SjQdATWg_hDmpZlxXLpLMfI6GccYQJmQ3RBGrCv6DzuJXvsU_SmhfYYTYfPuqqDrwRPyFqu4zsyeRoiEQSWZ7VbbLLM5yOtIyOGdy-njkh2NOWrqNZdhTYzKX2-C-FGdTQ3sEA_4oNFaONggrdG4oXyLBnO5zPY4fJktmjpcvkXttXHpK9KIdeg4MPBVqgrGd6gPQty1L-wNrg-_kS0nsQl_yqR-5oXo1F_4_u3]--></g></svg>