<?xml version="1.0" encoding="us-ascii" standalone="no"?><svg xmlns="http://www.w3.org/2000/svg" xmlns:xlink="http://www.w3.org/1999/xlink" contentStyleType="text/css" height="727px" preserveAspectRatio="none" style="width:1310px;height:727px;background:#FFFFFF;" version="1.1" viewBox="0 0 1310 727" width="1310px" zoomAndPan="magnify"><defs/><g><rect fill="#FFFFFF" height="515.6582" style="stroke:#181818;stroke-width:1.0;" width="10" x="204.5" y="112.7988"/><rect fill="#FFFFFF" height="30" style="stroke:#181818;stroke-width:1.0;" width="10" x="411.5" y="152.7646"/><rect fill="#FFFFFF" height="376.416" style="stroke:#181818;stroke-width:1.0;" width="10" x="411.5" y="222.7305"/><rect fill="#FFFFFF" height="30" style="stroke:#181818;stroke-width:1.0;" width="10" x="580.5" y="262.6963"/><rect fill="#FFFFFF" height="29.3105" style="stroke:#181818;stroke-width:1.0;" width="10" x="708" y="332.6621"/><rect fill="#FFFFFF" height="29.3105" style="stroke:#181818;stroke-width:1.0;" width="10" x="848" y="391.2832"/><rect fill="#FFFFFF" height="119.9316" style="stroke:#181818;stroke-width:1.0;" width="10" x="1020.5" y="449.9043"/><rect fill="#FFFFFF" height="30" style="stroke:#181818;stroke-width:1.0;" width="10" x="1211.5" y="503.5254"/><rect fill="none" height="76.6211" style="stroke:#000000;stroke-width:1.5;" width="392" x="912" y="464.9043"/><line style="stroke:#181818;stroke-width:0.5;stroke-dasharray:5.0,5.0;" x1="35" x2="35" y1="81.4883" y2="646.457"/><line style="stroke:#181818;stroke-width:0.5;stroke-dasharray:5.0,5.0;" x1="209" x2="209" y1="81.4883" y2="646.457"/><line style="stroke:#181818;stroke-width:0.5;stroke-dasharray:5.0,5.0;" x1="416" x2="416" y1="81.4883" y2="646.457"/><line style="stroke:#181818;stroke-width:0.5;stroke-dasharray:5.0,5.0;" x1="585" x2="585" y1="81.4883" y2="646.457"/><line style="stroke:#181818;stroke-width:0.5;stroke-dasharray:5.0,5.0;" x1="713" x2="713" y1="81.4883" y2="646.457"/><line style="stroke:#181818;stroke-width:0.5;stroke-dasharray:5.0,5.0;" x1="853" x2="853" y1="81.4883" y2="646.457"/><line style="stroke:#181818;stroke-width:0.5;stroke-dasharray:5.0,5.0;" x1="1025" x2="1025" y1="81.4883" y2="646.457"/><line style="stroke:#181818;stroke-width:0.5;stroke-dasharray:5.0,5.0;" x1="1216" x2="1216" y1="81.4883" y2="646.457"/><text fill="#000000" font-family="sans-serif" font-size="14" lengthAdjust="spacing" textLength="55" x="5" y="78.5352">Teacher</text><ellipse cx="35.5" cy="13.5" fill="#E2E2F0" rx="8" ry="8" style="stroke:#181818;stroke-width:0.5;"/><path d="M35.5,21.5 L35.5,48.5 M22.5,29.5 L48.5,29.5 M35.5,48.5 L22.5,63.5 M35.5,48.5 L48.5,63.5 " fill="none" style="stroke:#181818;stroke-width:0.5;"/><text fill="#000000" font-family="sans-serif" font-size="14" lengthAdjust="spacing" textLength="55" x="5" y="658.9922">Teacher</text><ellipse cx="35.5" cy="670.4453" fill="#E2E2F0" rx="8" ry="8" style="stroke:#181818;stroke-width:0.5;"/><path d="M35.5,678.4453 L35.5,705.4453 M22.5,686.4453 L48.5,686.4453 M35.5,705.4453 L22.5,720.4453 M35.5,705.4453 L48.5,720.4453 " fill="none" style="stroke:#181818;stroke-width:0.5;"/><rect fill="#E2E2F0" height="30.4883" rx="2.5" ry="2.5" style="stroke:#181818;stroke-width:0.5;" width="169" x="125" y="50"/><text fill="#000000" font-family="sans-serif" font-size="14" lengthAdjust="spacing" textLength="155" x="132" y="70.5352">ListAvailableCoursesUI</text><rect fill="#E2E2F0" height="30.4883" rx="2.5" ry="2.5" style="stroke:#181818;stroke-width:0.5;" width="169" x="125" y="645.457"/><text fill="#000000" font-family="sans-serif" font-size="14" lengthAdjust="spacing" textLength="155" x="132" y="665.9922">ListAvailableCoursesUI</text><rect fill="#E2E2F0" height="30.4883" rx="2.5" ry="2.5" style="stroke:#181818;stroke-width:0.5;" width="225" x="304" y="50"/><text fill="#000000" font-family="sans-serif" font-size="14" lengthAdjust="spacing" textLength="211" x="311" y="70.5352">ListAvailableCoursesController</text><rect fill="#E2E2F0" height="30.4883" rx="2.5" ry="2.5" style="stroke:#181818;stroke-width:0.5;" width="225" x="304" y="645.457"/><text fill="#000000" font-family="sans-serif" font-size="14" lengthAdjust="spacing" textLength="211" x="311" y="665.9922">ListAvailableCoursesController</text><rect fill="#E2E2F0" height="30.4883" rx="2.5" ry="2.5" style="stroke:#181818;stroke-width:0.5;" width="93" x="539" y="50"/><text fill="#000000" font-family="sans-serif" font-size="14" lengthAdjust="spacing" textLength="79" x="546" y="70.5352">SystemUser</text><rect fill="#E2E2F0" height="30.4883" rx="2.5" ry="2.5" style="stroke:#181818;stroke-width:0.5;" width="93" x="539" y="645.457"/><text fill="#000000" font-family="sans-serif" font-size="14" lengthAdjust="spacing" textLength="79" x="546" y="665.9922">SystemUser</text><rect fill="#E2E2F0" height="30.4883" rx="2.5" ry="2.5" style="stroke:#181818;stroke-width:0.5;" width="142" x="642" y="50"/><text fill="#000000" font-family="sans-serif" font-size="14" lengthAdjust="spacing" textLength="128" x="649" y="70.5352">TeacherRepository</text><rect fill="#E2E2F0" height="30.4883" rx="2.5" ry="2.5" style="stroke:#181818;stroke-width:0.5;" width="142" x="642" y="645.457"/><text fill="#000000" font-family="sans-serif" font-size="14" lengthAdjust="spacing" textLength="128" x="649" y="665.9922">TeacherRepository</text><rect fill="#E2E2F0" height="30.4883" rx="2.5" ry="2.5" style="stroke:#181818;stroke-width:0.5;" width="118" x="794" y="50"/><text fill="#000000" font-family="sans-serif" font-size="14" lengthAdjust="spacing" textLength="104" x="801" y="70.5352">StaffRepository</text><rect fill="#E2E2F0" height="30.4883" rx="2.5" ry="2.5" style="stroke:#181818;stroke-width:0.5;" width="118" x="794" y="645.457"/><text fill="#000000" font-family="sans-serif" font-size="14" lengthAdjust="spacing" textLength="104" x="801" y="665.9922">StaffRepository</text><rect fill="#E2E2F0" height="30.4883" rx="2.5" ry="2.5" style="stroke:#181818;stroke-width:0.5;" width="207" x="922" y="50"/><text fill="#000000" font-family="sans-serif" font-size="14" lengthAdjust="spacing" textLength="193" x="929" y="70.5352">AvailableCourseDTOMapper</text><rect fill="#E2E2F0" height="30.4883" rx="2.5" ry="2.5" style="stroke:#181818;stroke-width:0.5;" width="207" x="922" y="645.457"/><text fill="#000000" font-family="sans-serif" font-size="14" lengthAdjust="spacing" textLength="193" x="929" y="665.9922">AvailableCourseDTOMapper</text><rect fill="#E2E2F0" height="30.4883" rx="2.5" ry="2.5" style="stroke:#181818;stroke-width:0.5;" width="155" x="1139" y="50"/><text fill="#000000" font-family="sans-serif" font-size="14" lengthAdjust="spacing" textLength="141" x="1146" y="70.5352">AvailableCourseDTO</text><rect fill="#E2E2F0" height="30.4883" rx="2.5" ry="2.5" style="stroke:#181818;stroke-width:0.5;" width="155" x="1139" y="645.457"/><text fill="#000000" font-family="sans-serif" font-size="14" lengthAdjust="spacing" textLength="141" x="1146" y="665.9922">AvailableCourseDTO</text><rect fill="#FFFFFF" height="515.6582" style="stroke:#181818;stroke-width:1.0;" width="10" x="204.5" y="112.7988"/><rect fill="#FFFFFF" height="30" style="stroke:#181818;stroke-width:1.0;" width="10" x="411.5" y="152.7646"/><rect fill="#FFFFFF" height="376.416" style="stroke:#181818;stroke-width:1.0;" width="10" x="411.5" y="222.7305"/><rect fill="#FFFFFF" height="30" style="stroke:#181818;stroke-width:1.0;" width="10" x="580.5" y="262.6963"/><rect fill="#FFFFFF" height="29.3105" style="stroke:#181818;stroke-width:1.0;" width="10" x="708" y="332.6621"/><rect fill="#FFFFFF" height="29.3105" style="stroke:#181818;stroke-width:1.0;" width="10" x="848" y="391.2832"/><rect fill="#FFFFFF" height="119.9316" style="stroke:#181818;stroke-width:1.0;" width="10" x="1020.5" y="449.9043"/><rect fill="#FFFFFF" height="30" style="stroke:#181818;stroke-width:1.0;" width="10" x="1211.5" y="503.5254"/><polygon fill="#181818" points="192.5,108.7988,202.5,112.7988,192.5,116.7988,196.5,112.7988" style="stroke:#181818;stroke-width:1.0;"/><line style="stroke:#181818;stroke-width:1.0;stroke-dasharray:2.0,2.0;" x1="35.5" x2="198.5" y1="112.7988" y2="112.7988"/><text fill="#000000" font-family="sans-serif" font-size="13" lengthAdjust="spacing" textLength="32" x="42.5" y="108.0566">enter</text><polygon fill="#181818" points="399.5,148.7646,409.5,152.7646,399.5,156.7646,403.5,152.7646" style="stroke:#181818;stroke-width:1.0;"/><line style="stroke:#181818;stroke-width:1.0;stroke-dasharray:2.0,2.0;" x1="214.5" x2="405.5" y1="152.7646" y2="152.7646"/><text fill="#000000" font-family="sans-serif" font-size="13" lengthAdjust="spacing" textLength="46" x="221.5" y="148.0225">create()</text><path d="M426,125.7988 L426,165.7988 L655,165.7988 L655,135.7988 L645,125.7988 L426,125.7988 " fill="#FEFFDD" style="stroke:#181818;stroke-width:0.5;"/><path d="M645,125.7988 L645,135.7988 L655,135.7988 L645,125.7988 " fill="#FEFFDD" style="stroke:#181818;stroke-width:0.5;"/><text fill="#000000" font-family="sans-serif" font-size="13" lengthAdjust="spacing" textLength="179" x="432" y="143.3672">repositories are retrieved via</text><text fill="#000000" font-family="sans-serif" font-size="13" lengthAdjust="spacing" textLength="208" x="432" y="158.6777">PersistenceContext.repositories()</text><polygon fill="#181818" points="399.5,218.7305,409.5,222.7305,399.5,226.7305,403.5,222.7305" style="stroke:#181818;stroke-width:1.0;"/><line style="stroke:#181818;stroke-width:1.0;stroke-dasharray:2.0,2.0;" x1="214.5" x2="405.5" y1="222.7305" y2="222.7305"/><text fill="#000000" font-family="sans-serif" font-size="13" lengthAdjust="spacing" textLength="114" x="221.5" y="217.9883">availableCourses()</text><polygon fill="#181818" points="568.5,258.6963,578.5,262.6963,568.5,266.6963,572.5,262.6963" style="stroke:#181818;stroke-width:1.0;"/><line style="stroke:#181818;stroke-width:1.0;stroke-dasharray:2.0,2.0;" x1="421.5" x2="574.5" y1="262.6963" y2="262.6963"/><text fill="#000000" font-family="sans-serif" font-size="13" lengthAdjust="spacing" textLength="28" x="428.5" y="257.9541">get()</text><path d="M595,235.7305 L595,275.7305 L814,275.7305 L814,245.7305 L804,235.7305 L595,235.7305 " fill="#FEFFDD" style="stroke:#181818;stroke-width:0.5;"/><path d="M804,235.7305 L804,245.7305 L814,245.7305 L804,235.7305 " fill="#FEFFDD" style="stroke:#181818;stroke-width:0.5;"/><text fill="#000000" font-family="sans-serif" font-size="13" lengthAdjust="spacing" textLength="145" x="601" y="253.2988">sysUser is obtained via</text><text fill="#000000" font-family="sans-serif" font-size="13" lengthAdjust="spacing" textLength="198" x="601" y="268.6094">the framework's Authz package</text><polygon fill="#181818" points="696,328.6621,706,332.6621,696,336.6621,700,332.6621" style="stroke:#181818;stroke-width:1.0;"/><line style="stroke:#181818;stroke-width:1.0;stroke-dasharray:2.0,2.0;" x1="421.5" x2="702" y1="332.6621" y2="332.6621"/><text fill="#000000" font-family="sans-serif" font-size="13" lengthAdjust="spacing" textLength="169" x="428.5" y="327.9199">findBySystemUser(sysUser)</text><polygon fill="#181818" points="432.5,357.9727,422.5,361.9727,432.5,365.9727,428.5,361.9727" style="stroke:#181818;stroke-width:1.0;"/><line style="stroke:#181818;stroke-width:1.0;stroke-dasharray:2.0,2.0;" x1="426.5" x2="712" y1="361.9727" y2="361.9727"/><text fill="#000000" font-family="sans-serif" font-size="13" lengthAdjust="spacing" textLength="46" x="438.5" y="357.2305">teacher</text><polygon fill="#181818" points="836,387.2832,846,391.2832,836,395.2832,840,391.2832" style="stroke:#181818;stroke-width:1.0;"/><line style="stroke:#181818;stroke-width:1.0;stroke-dasharray:2.0,2.0;" x1="421.5" x2="842" y1="391.2832" y2="391.2832"/><text fill="#000000" font-family="sans-serif" font-size="13" lengthAdjust="spacing" textLength="109" x="428.5" y="386.541">taughtBy(teacher)</text><polygon fill="#181818" points="432.5,416.5938,422.5,420.5938,432.5,424.5938,428.5,420.5938" style="stroke:#181818;stroke-width:1.0;"/><line style="stroke:#181818;stroke-width:1.0;stroke-dasharray:2.0,2.0;" x1="426.5" x2="852" y1="420.5938" y2="420.5938"/><text fill="#000000" font-family="sans-serif" font-size="13" lengthAdjust="spacing" textLength="49" x="438.5" y="415.8516">courses</text><polygon fill="#181818" points="1008.5,445.9043,1018.5,449.9043,1008.5,453.9043,1012.5,449.9043" style="stroke:#181818;stroke-width:1.0;"/><line style="stroke:#181818;stroke-width:1.0;stroke-dasharray:2.0,2.0;" x1="421.5" x2="1014.5" y1="449.9043" y2="449.9043"/><text fill="#000000" font-family="sans-serif" font-size="13" lengthAdjust="spacing" textLength="98" x="428.5" y="445.1621">toDTO(courses)</text><path d="M912,464.9043 L986,464.9043 L986,472.2148 L976,482.2148 L912,482.2148 L912,464.9043 " fill="#EEEEEE" style="stroke:#000000;stroke-width:1.5;"/><rect fill="none" height="76.6211" style="stroke:#000000;stroke-width:1.5;" width="392" x="912" y="464.9043"/><text fill="#000000" font-family="sans-serif" font-size="13" font-weight="bold" lengthAdjust="spacing" textLength="29" x="927" y="478.4727">loop</text><text fill="#000000" font-family="sans-serif" font-size="11" font-weight="bold" lengthAdjust="spacing" textLength="157" x="1001" y="477.5391">[for each course in courses]</text><polygon fill="#181818" points="1199.5,499.5254,1209.5,503.5254,1199.5,507.5254,1203.5,503.5254" style="stroke:#181818;stroke-width:1.0;"/><line style="stroke:#181818;stroke-width:1.0;stroke-dasharray:2.0,2.0;" x1="1030.5" x2="1205.5" y1="503.5254" y2="503.5254"/><text fill="#000000" font-family="sans-serif" font-size="13" lengthAdjust="spacing" textLength="46" x="1037.5" y="498.7832">create()</text><polygon fill="#181818" points="432.5,565.8359,422.5,569.8359,432.5,573.8359,428.5,569.8359" style="stroke:#181818;stroke-width:1.0;"/><line style="stroke:#181818;stroke-width:1.0;stroke-dasharray:2.0,2.0;" x1="426.5" x2="1024.5" y1="569.8359" y2="569.8359"/><text fill="#000000" font-family="sans-serif" font-size="13" lengthAdjust="spacing" textLength="93" x="438.5" y="565.0938">courseDTOList</text><polygon fill="#181818" points="225.5,595.1465,215.5,599.1465,225.5,603.1465,221.5,599.1465" style="stroke:#181818;stroke-width:1.0;"/><line style="stroke:#181818;stroke-width:1.0;stroke-dasharray:2.0,2.0;" x1="219.5" x2="415.5" y1="599.1465" y2="599.1465"/><text fill="#000000" font-family="sans-serif" font-size="13" lengthAdjust="spacing" textLength="93" x="231.5" y="594.4043">courseDTOList</text><polygon fill="#181818" points="46.5,624.457,36.5,628.457,46.5,632.457,42.5,628.457" style="stroke:#181818;stroke-width:1.0;"/><line style="stroke:#181818;stroke-width:1.0;stroke-dasharray:2.0,2.0;" x1="40.5" x2="208.5" y1="628.457" y2="628.457"/><text fill="#000000" font-family="sans-serif" font-size="13" lengthAdjust="spacing" textLength="145" x="52.5" y="623.7148">show available courses</text><!--SRC=[XLJBRjmm3BpxAtJBvf1-G0y1aXG52gHeaKrk1HQCJ7k5U2L3efquNr_gOQ_yIAAJO0x9uMXea6IiU4IGHxG2dEWSsg85Iqgg5ZI9U-NefWVLm7E3TwQp3jtJhm1LNmBlZ2PhcYRMbcIRehWGUTPVj8uJKKlqO7oZY7nRu1wmDKunsU4dUCw3Xrbi3nN8OiPZFt2vqvEBFTtW3fspSqYQzrpJ8-d0vSoY5a5LpM5knCtvtNHqV7_0ccU9EE0F5kiDcB7g7KWPlKVRAuaZslLoWTwZSumBRVawvxRG-iVZdz_Gjd7gKxXz0VV0abQJn7XuXN0h2ky9SNLrpIyklWlaLs8z-HLK3uJU1e8Fnpp4lp63f4MExIv3Q8860uXqjE4lLjL7OhmTDLR8ObWE8F6znrBq2lxfjKs-vIcfKOdpLXl4OE7GJoc679-SNCJvDL9AcQMDDXFPcGt8W619vOHv9b1wd8oEA2eB9tmrzkN2HIFnWyWNg76gbqqsENh5CZgJcrLAbxV3UH5sgVi6yUJcd7Sgaub6SL-ss8pRi9PiOaFGiGQtmowLsP9lWuPRyuY6T9kgV4WaxWBJCEpvNIgnmI7jJ4wXCQOL5VyWFV7KNIYzuZ6UM29qvSLQR45-fgP-_vR1RAfb67KPI1KVTFL3ZpBnjFwNl2LM6dMjLLZmTVfdUnL-3kpletazBzUaK9R9_ud_]--></g></svg>