<?xml version="1.0" encoding="us-ascii" standalone="no"?><svg xmlns="http://www.w3.org/2000/svg" xmlns:xlink="http://www.w3.org/1999/xlink" contentStyleType="text/css" height="834px" preserveAspectRatio="none" style="width:1339px;height:834px;background:#1B1B1B;" version="1.1" viewBox="0 0 1339 834" width="1339px" zoomAndPan="magnify"><defs/><g><rect fill="#1B1B1B" height="834" style="stroke:none;stroke-width:1.0;" width="1339" x="0" y="0"/><rect fill="#000000" height="615.0023" style="stroke:#E7E7E7;stroke-width:1.0;" width="10" x="172.5" y="117.7739"/><rect fill="#000000" height="30" style="stroke:#E7E7E7;stroke-width:1.0;" width="10" x="358.5" y="161.333"/><rect fill="#000000" height="466.1782" style="stroke:#E7E7E7;stroke-width:1.0;" width="10" x="358.5" y="234.892"/><rect fill="#000000" height="117.118" style="stroke:#E7E7E7;stroke-width:1.0;" width="10" x="520.5" y="266.598"/><rect fill="#000000" height="30" style="stroke:#E7E7E7;stroke-width:1.0;" width="10" x="620.5" y="310.157"/><rect fill="#000000" height="31.706" style="stroke:#E7E7E7;stroke-width:1.0;" width="10" x="739.5" y="415.4221"/><rect fill="#000000" height="31.706" style="stroke:#E7E7E7;stroke-width:1.0;" width="10" x="912" y="478.8341"/><rect fill="#000000" height="127.118" style="stroke:#E7E7E7;stroke-width:1.0;" width="10" x="1097" y="542.2461"/><rect fill="#000000" height="30" style="stroke:#E7E7E7;stroke-width:1.0;" width="10" x="1256.5" y="600.6582"/><rect fill="none" height="81.412" style="stroke:#FFFFFF;stroke-width:1.5;" width="329" x="1004" y="557.2461"/><line style="stroke:#E7E7E7;stroke-width:0.5;stroke-dasharray:5.0,5.0;" x1="34" x2="34" y1="84.0679" y2="750.7762"/><line style="stroke:#E7E7E7;stroke-width:0.5;stroke-dasharray:5.0,5.0;" x1="177" x2="177" y1="84.0679" y2="750.7762"/><line style="stroke:#E7E7E7;stroke-width:0.5;stroke-dasharray:5.0,5.0;" x1="363" x2="363" y1="84.0679" y2="750.7762"/><line style="stroke:#E7E7E7;stroke-width:0.5;stroke-dasharray:5.0,5.0;" x1="525" x2="525" y1="84.0679" y2="750.7762"/><line style="stroke:#E7E7E7;stroke-width:0.5;stroke-dasharray:5.0,5.0;" x1="625" x2="625" y1="84.0679" y2="750.7762"/><line style="stroke:#E7E7E7;stroke-width:0.5;stroke-dasharray:5.0,5.0;" x1="744" x2="744" y1="84.0679" y2="750.7762"/><line style="stroke:#E7E7E7;stroke-width:0.5;stroke-dasharray:5.0,5.0;" x1="917" x2="917" y1="84.0679" y2="750.7762"/><line style="stroke:#E7E7E7;stroke-width:0.5;stroke-dasharray:5.0,5.0;" x1="1102" x2="1102" y1="84.0679" y2="750.7762"/><line style="stroke:#E7E7E7;stroke-width:0.5;stroke-dasharray:5.0,5.0;" x1="1261" x2="1261" y1="84.0679" y2="750.7762"/><text fill="#FFFFFF" font-family="sans-serif" font-size="14" lengthAdjust="spacing" textLength="53" x="5" y="79.9659">Student</text><ellipse cx="34.5" cy="13.5" fill="#222222" rx="8" ry="8" style="stroke:#E7E7E7;stroke-width:0.5;"/><path d="M34.5,21.5 L34.5,48.5 M21.5,29.5 L47.5,29.5 M34.5,48.5 L21.5,63.5 M34.5,48.5 L47.5,63.5 " fill="none" style="stroke:#E7E7E7;stroke-width:0.5;"/><text fill="#FFFFFF" font-family="sans-serif" font-size="14" lengthAdjust="spacing" textLength="53" x="5" y="764.7421">Student</text><ellipse cx="34.5" cy="777.3441" fill="#222222" rx="8" ry="8" style="stroke:#E7E7E7;stroke-width:0.5;"/><path d="M34.5,785.3441 L34.5,812.3441 M21.5,793.3441 L47.5,793.3441 M34.5,812.3441 L21.5,827.3441 M34.5,812.3441 L47.5,827.3441 " fill="none" style="stroke:#E7E7E7;stroke-width:0.5;"/><rect fill="#222222" height="33.0679" rx="2.5" ry="2.5" style="stroke:#E7E7E7;stroke-width:0.5;" width="139" x="108" y="50"/><text fill="#FFFFFF" font-family="sans-serif" font-size="14" lengthAdjust="spacing" textLength="125" x="115" y="71.9659">ListFutureExamsUI</text><rect fill="#222222" height="33.0679" rx="2.5" ry="2.5" style="stroke:#E7E7E7;stroke-width:0.5;" width="139" x="108" y="749.7762"/><text fill="#FFFFFF" font-family="sans-serif" font-size="14" lengthAdjust="spacing" textLength="125" x="115" y="771.7421">ListFutureExamsUI</text><rect fill="#222222" height="33.0679" rx="2.5" ry="2.5" style="stroke:#E7E7E7;stroke-width:0.5;" width="191" x="268" y="50"/><text fill="#FFFFFF" font-family="sans-serif" font-size="14" lengthAdjust="spacing" textLength="177" x="275" y="71.9659">ListFutureExamsController</text><rect fill="#222222" height="33.0679" rx="2.5" ry="2.5" style="stroke:#E7E7E7;stroke-width:0.5;" width="191" x="268" y="749.7762"/><text fill="#FFFFFF" font-family="sans-serif" font-size="14" lengthAdjust="spacing" textLength="177" x="275" y="771.7421">ListFutureExamsController</text><rect fill="#222222" height="33.0679" rx="2.5" ry="2.5" style="stroke:#E7E7E7;stroke-width:0.5;" width="113" x="469" y="50"/><text fill="#FFFFFF" font-family="sans-serif" font-size="14" lengthAdjust="spacing" textLength="99" x="476" y="71.9659">MyUserService</text><rect fill="#222222" height="33.0679" rx="2.5" ry="2.5" style="stroke:#E7E7E7;stroke-width:0.5;" width="113" x="469" y="749.7762"/><text fill="#FFFFFF" font-family="sans-serif" font-size="14" lengthAdjust="spacing" textLength="99" x="476" y="771.7421">MyUserService</text><rect fill="#222222" height="33.0679" rx="2.5" ry="2.5" style="stroke:#E7E7E7;stroke-width:0.5;" width="67" x="592" y="50"/><text fill="#FFFFFF" font-family="sans-serif" font-size="14" lengthAdjust="spacing" textLength="53" x="599" y="71.9659">Student</text><rect fill="#222222" height="33.0679" rx="2.5" ry="2.5" style="stroke:#E7E7E7;stroke-width:0.5;" width="67" x="592" y="749.7762"/><text fill="#FFFFFF" font-family="sans-serif" font-size="14" lengthAdjust="spacing" textLength="53" x="599" y="771.7421">Student</text><rect fill="#222222" height="33.0679" rx="2.5" ry="2.5" style="stroke:#E7E7E7;stroke-width:0.5;" width="151" x="669" y="50"/><text fill="#FFFFFF" font-family="sans-serif" font-size="14" lengthAdjust="spacing" textLength="137" x="676" y="71.9659">EnrollmentRepositry</text><rect fill="#222222" height="33.0679" rx="2.5" ry="2.5" style="stroke:#E7E7E7;stroke-width:0.5;" width="151" x="669" y="749.7762"/><text fill="#FFFFFF" font-family="sans-serif" font-size="14" lengthAdjust="spacing" textLength="137" x="676" y="771.7421">EnrollmentRepositry</text><rect fill="#222222" height="33.0679" rx="2.5" ry="2.5" style="stroke:#E7E7E7;stroke-width:0.5;" width="174" x="830" y="50"/><text fill="#FFFFFF" font-family="sans-serif" font-size="14" lengthAdjust="spacing" textLength="160" x="837" y="71.9659">RegularExamRepository</text><rect fill="#222222" height="33.0679" rx="2.5" ry="2.5" style="stroke:#E7E7E7;stroke-width:0.5;" width="174" x="830" y="749.7762"/><text fill="#FFFFFF" font-family="sans-serif" font-size="14" lengthAdjust="spacing" textLength="160" x="837" y="771.7421">RegularExamRepository</text><rect fill="#222222" height="33.0679" rx="2.5" ry="2.5" style="stroke:#E7E7E7;stroke-width:0.5;" width="176" x="1014" y="50"/><text fill="#FFFFFF" font-family="sans-serif" font-size="14" lengthAdjust="spacing" textLength="162" x="1021" y="71.9659">FutureExamDTOMapper</text><rect fill="#222222" height="33.0679" rx="2.5" ry="2.5" style="stroke:#E7E7E7;stroke-width:0.5;" width="176" x="1014" y="749.7762"/><text fill="#FFFFFF" font-family="sans-serif" font-size="14" lengthAdjust="spacing" textLength="162" x="1021" y="771.7421">FutureExamDTOMapper</text><rect fill="#222222" height="33.0679" rx="2.5" ry="2.5" style="stroke:#E7E7E7;stroke-width:0.5;" width="123" x="1200" y="50"/><text fill="#FFFFFF" font-family="sans-serif" font-size="14" lengthAdjust="spacing" textLength="109" x="1207" y="71.9659">FutureExamDTO</text><rect fill="#222222" height="33.0679" rx="2.5" ry="2.5" style="stroke:#E7E7E7;stroke-width:0.5;" width="123" x="1200" y="749.7762"/><text fill="#FFFFFF" font-family="sans-serif" font-size="14" lengthAdjust="spacing" textLength="109" x="1207" y="771.7421">FutureExamDTO</text><rect fill="#000000" height="615.0023" style="stroke:#E7E7E7;stroke-width:1.0;" width="10" x="172.5" y="117.7739"/><rect fill="#000000" height="30" style="stroke:#E7E7E7;stroke-width:1.0;" width="10" x="358.5" y="161.333"/><rect fill="#000000" height="466.1782" style="stroke:#E7E7E7;stroke-width:1.0;" width="10" x="358.5" y="234.892"/><rect fill="#000000" height="117.118" style="stroke:#E7E7E7;stroke-width:1.0;" width="10" x="520.5" y="266.598"/><rect fill="#000000" height="30" style="stroke:#E7E7E7;stroke-width:1.0;" width="10" x="620.5" y="310.157"/><rect fill="#000000" height="31.706" style="stroke:#E7E7E7;stroke-width:1.0;" width="10" x="739.5" y="415.4221"/><rect fill="#000000" height="31.706" style="stroke:#E7E7E7;stroke-width:1.0;" width="10" x="912" y="478.8341"/><rect fill="#000000" height="127.118" style="stroke:#E7E7E7;stroke-width:1.0;" width="10" x="1097" y="542.2461"/><rect fill="#000000" height="30" style="stroke:#E7E7E7;stroke-width:1.0;" width="10" x="1256.5" y="600.6582"/><polygon fill="#E7E7E7" points="160.5,113.7739,170.5,117.7739,160.5,121.7739,164.5,117.7739" style="stroke:#E7E7E7;stroke-width:1.0;"/><line style="stroke:#E7E7E7;stroke-width:1.0;stroke-dasharray:2.0,2.0;" x1="34.5" x2="166.5" y1="117.7739" y2="117.7739"/><text fill="#FFFFFF" font-family="sans-serif" font-size="13" lengthAdjust="spacing" textLength="32" x="41.5" y="111.9649">enter</text><polygon fill="#E7E7E7" points="346.5,157.333,356.5,161.333,346.5,165.333,350.5,161.333" style="stroke:#E7E7E7;stroke-width:1.0;"/><line style="stroke:#E7E7E7;stroke-width:1.0;stroke-dasharray:2.0,2.0;" x1="182.5" x2="352.5" y1="161.333" y2="161.333"/><text fill="#FFFFFF" font-family="sans-serif" font-size="13" lengthAdjust="spacing" textLength="45" x="189.5" y="155.524">create()</text><path d="M373,130.7739 L373,175.7739 L592,175.7739 L592,140.7739 L582,130.7739 L373,130.7739 " fill="#714137" style="stroke:#E7E7E7;stroke-width:0.5;"/><path d="M582,130.7739 L582,140.7739 L592,140.7739 L582,130.7739 " fill="#714137" style="stroke:#E7E7E7;stroke-width:0.5;"/><text fill="#FFFFFF" font-family="sans-serif" font-size="13" lengthAdjust="spacing" textLength="170" x="379" y="149.6709">repositories are retrieved via</text><text fill="#FFFFFF" font-family="sans-serif" font-size="13" lengthAdjust="spacing" textLength="198" x="379" y="167.377">PersistenceContext.repositories()</text><polygon fill="#E7E7E7" points="346.5,230.892,356.5,234.892,346.5,238.892,350.5,234.892" style="stroke:#E7E7E7;stroke-width:1.0;"/><line style="stroke:#E7E7E7;stroke-width:1.0;stroke-dasharray:2.0,2.0;" x1="182.5" x2="352.5" y1="234.892" y2="234.892"/><text fill="#FFFFFF" font-family="sans-serif" font-size="13" lengthAdjust="spacing" textLength="157" x="189.5" y="229.083">futureExams(currentTime)</text><polygon fill="#E7E7E7" points="508.5,262.598,518.5,266.598,508.5,270.598,512.5,266.598" style="stroke:#E7E7E7;stroke-width:1.0;"/><line style="stroke:#E7E7E7;stroke-width:1.0;stroke-dasharray:2.0,2.0;" x1="368.5" x2="514.5" y1="266.598" y2="266.598"/><text fill="#FFFFFF" font-family="sans-serif" font-size="13" lengthAdjust="spacing" textLength="100" x="375.5" y="260.789">currentStudent()</text><polygon fill="#E7E7E7" points="608.5,306.157,618.5,310.157,608.5,314.157,612.5,310.157" style="stroke:#E7E7E7;stroke-width:1.0;"/><line style="stroke:#E7E7E7;stroke-width:1.0;stroke-dasharray:2.0,2.0;" x1="530.5" x2="614.5" y1="310.157" y2="310.157"/><text fill="#FFFFFF" font-family="sans-serif" font-size="13" lengthAdjust="spacing" textLength="28" x="537.5" y="304.348">get()</text><path d="M635,279.598 L635,324.598 L880,324.598 L880,289.598 L870,279.598 L635,279.598 " fill="#714137" style="stroke:#E7E7E7;stroke-width:0.5;"/><path d="M870,279.598 L870,289.598 L880,289.598 L870,279.598 " fill="#714137" style="stroke:#E7E7E7;stroke-width:0.5;"/><text fill="#FFFFFF" font-family="sans-serif" font-size="13" lengthAdjust="spacing" textLength="224" x="641" y="298.495">student obtained via the framework's</text><text fill="#FFFFFF" font-family="sans-serif" font-size="13" lengthAdjust="spacing" textLength="214" x="641" y="316.201">Authz package + StudentRepository</text><polygon fill="#E7E7E7" points="379.5,379.716,369.5,383.716,379.5,387.716,375.5,383.716" style="stroke:#E7E7E7;stroke-width:1.0;"/><line style="stroke:#E7E7E7;stroke-width:1.0;stroke-dasharray:2.0,2.0;" x1="373.5" x2="524.5" y1="383.716" y2="383.716"/><text fill="#FFFFFF" font-family="sans-serif" font-size="13" lengthAdjust="spacing" textLength="47" x="385.5" y="377.907">student</text><polygon fill="#E7E7E7" points="727.5,411.4221,737.5,415.4221,727.5,419.4221,731.5,415.4221" style="stroke:#E7E7E7;stroke-width:1.0;"/><line style="stroke:#E7E7E7;stroke-width:1.0;stroke-dasharray:2.0,2.0;" x1="368.5" x2="733.5" y1="415.4221" y2="415.4221"/><text fill="#FFFFFF" font-family="sans-serif" font-size="13" lengthAdjust="spacing" textLength="212" x="375.5" y="409.6131">coursesOfEnrolledStudent(student)</text><polygon fill="#E7E7E7" points="379.5,443.1281,369.5,447.1281,379.5,451.1281,375.5,447.1281" style="stroke:#E7E7E7;stroke-width:1.0;"/><line style="stroke:#E7E7E7;stroke-width:1.0;stroke-dasharray:2.0,2.0;" x1="373.5" x2="743.5" y1="447.1281" y2="447.1281"/><text fill="#FFFFFF" font-family="sans-serif" font-size="13" lengthAdjust="spacing" textLength="46" x="385.5" y="441.3191">courses</text><polygon fill="#E7E7E7" points="900,474.8341,910,478.8341,900,482.8341,904,478.8341" style="stroke:#E7E7E7;stroke-width:1.0;"/><line style="stroke:#E7E7E7;stroke-width:1.0;stroke-dasharray:2.0,2.0;" x1="368.5" x2="906" y1="478.8341" y2="478.8341"/><text fill="#FFFFFF" font-family="sans-serif" font-size="13" lengthAdjust="spacing" textLength="292" x="375.5" y="473.0251">examsOfCoursesAfterTime(currentTime, courses)</text><polygon fill="#E7E7E7" points="379.5,506.5401,369.5,510.5401,379.5,514.5401,375.5,510.5401" style="stroke:#E7E7E7;stroke-width:1.0;"/><line style="stroke:#E7E7E7;stroke-width:1.0;stroke-dasharray:2.0,2.0;" x1="373.5" x2="916" y1="510.5401" y2="510.5401"/><text fill="#FFFFFF" font-family="sans-serif" font-size="13" lengthAdjust="spacing" textLength="39" x="385.5" y="504.7311">exams</text><polygon fill="#E7E7E7" points="1085,538.2461,1095,542.2461,1085,546.2461,1089,542.2461" style="stroke:#E7E7E7;stroke-width:1.0;"/><line style="stroke:#E7E7E7;stroke-width:1.0;stroke-dasharray:2.0,2.0;" x1="368.5" x2="1091" y1="542.2461" y2="542.2461"/><text fill="#FFFFFF" font-family="sans-serif" font-size="13" lengthAdjust="spacing" textLength="86" x="375.5" y="536.4371">toDTO(exams)</text><path d="M1004,557.2461 L1077,557.2461 L1077,566.9521 L1067,576.9521 L1004,576.9521 L1004,557.2461 " fill="#555555" style="stroke:#FFFFFF;stroke-width:1.5;"/><rect fill="none" height="81.412" style="stroke:#FFFFFF;stroke-width:1.5;" width="329" x="1004" y="557.2461"/><text fill="#FFFFFF" font-family="sans-serif" font-size="13" font-weight="bold" lengthAdjust="spacing" textLength="28" x="1019" y="572.1431">loop</text><text fill="#FFFFFF" font-family="sans-serif" font-size="11" font-weight="bold" lengthAdjust="spacing" textLength="140" x="1092" y="571.005">[for each exam in exams]</text><polygon fill="#E7E7E7" points="1244.5,596.6582,1254.5,600.6582,1244.5,604.6582,1248.5,600.6582" style="stroke:#E7E7E7;stroke-width:1.0;"/><line style="stroke:#E7E7E7;stroke-width:1.0;stroke-dasharray:2.0,2.0;" x1="1107" x2="1250.5" y1="600.6582" y2="600.6582"/><text fill="#FFFFFF" font-family="sans-serif" font-size="13" lengthAdjust="spacing" textLength="45" x="1114" y="594.8492">create()</text><polygon fill="#E7E7E7" points="379.5,665.3642,369.5,669.3642,379.5,673.3642,375.5,669.3642" style="stroke:#E7E7E7;stroke-width:1.0;"/><line style="stroke:#E7E7E7;stroke-width:1.0;stroke-dasharray:2.0,2.0;" x1="373.5" x2="1101" y1="669.3642" y2="669.3642"/><text fill="#FFFFFF" font-family="sans-serif" font-size="13" lengthAdjust="spacing" textLength="80" x="385.5" y="663.5552">examDTOList</text><polygon fill="#E7E7E7" points="193.5,697.0702,183.5,701.0702,193.5,705.0702,189.5,701.0702" style="stroke:#E7E7E7;stroke-width:1.0;"/><line style="stroke:#E7E7E7;stroke-width:1.0;stroke-dasharray:2.0,2.0;" x1="187.5" x2="362.5" y1="701.0702" y2="701.0702"/><text fill="#FFFFFF" font-family="sans-serif" font-size="13" lengthAdjust="spacing" textLength="80" x="199.5" y="695.2612">examDTOList</text><polygon fill="#E7E7E7" points="45.5,728.7762,35.5,732.7762,45.5,736.7762,41.5,732.7762" style="stroke:#E7E7E7;stroke-width:1.0;"/><line style="stroke:#E7E7E7;stroke-width:1.0;stroke-dasharray:2.0,2.0;" x1="39.5" x2="176.5" y1="732.7762" y2="732.7762"/><text fill="#FFFFFF" font-family="sans-serif" font-size="13" lengthAdjust="spacing" textLength="114" x="51.5" y="726.9672">show future exams</text><!--SRC=[VLN1Rjim3BtxAtHhXgtxW1u655qB55YHOcrl1G9DfXEXYMHGSkhqwqTASYBRIdGIh4VoFUfHbifR52- -gy5u8Pte763LIlHQwLRIjp_Q-OVETmZtlTovjyU0qfSmTzPujDij86ELnsrLNOayu1dGKGmO1Go6taTaFy7zXTOwJHGF3vAP7XY6qAuQgQeHXQV36p5_0Tnh1OEGbTkh4IeJwk9soYmXJeK3TaKrxRZWlM69knCsGY52noBMtLOYjsQS5lgKTyBXjlERBugY3aMWf0y8wmBCelwINbkJAMSq2vy80-S85-JGjXghETtUxzVbaspRU7Uxi3kFP4pjxLJ0dUtG1IugxAgARqDSN_yYvuWRGKsZh1LTgTvB3smdGOlE6CA68P12eBF5jt1qX0OtYRICfI-ernjFU1nwgu5wW7G0dlPxgCLUotSpzzpFF2GLgc5Sga2iEJbzeJf4KlEgTt29Q8WCyfChMLyCJOPBvKSfZXOMsJfcu7J9n9Hj3NcAKPh1wVbX9hDqF6hiKCJ-yrARs4xXDo0Qb3lujFXnvTvDC2svG7t8DOZlyq4whoBrTKeautZinBoZSU2udy5gRjd4oOHww6pAMsXm6jQSM4gN-p3cBT5AyGLI_S0As2RB9aw4kst8-6oMt3W_XX8bXds1OZ_Z6AeK6VRdACRHfbXlQP0N8KE1G7e1ylfRQrlHq6-3ocn2QQ7DXCAmKXKkIE_4PAYBRkNdP7gO2PeUWwa3eUfCLTOR-qCg-JzLwb8IMHXNBUR1bvw8yCwHbJVsCxqJgJ6vcNNr7m00]--></g></svg>