<?xml version="1.0" encoding="us-ascii" standalone="no"?><svg xmlns="http://www.w3.org/2000/svg" xmlns:xlink="http://www.w3.org/1999/xlink" contentStyleType="text/css" height="834px" preserveAspectRatio="none" style="width:1390px;height:834px;background:#1B1B1B;" version="1.1" viewBox="0 0 1390 834" width="1390px" zoomAndPan="magnify"><defs/><g><rect fill="#1B1B1B" height="834" style="stroke:none;stroke-width:1.0;" width="1390" x="0" y="0"/><rect fill="#000000" height="615.0023" style="stroke:#E7E7E7;stroke-width:1.0;" width="10" x="172.5" y="117.7739"/><rect fill="#000000" height="30" style="stroke:#E7E7E7;stroke-width:1.0;" width="10" x="358.5" y="161.333"/><rect fill="#000000" height="466.1782" style="stroke:#E7E7E7;stroke-width:1.0;" width="10" x="358.5" y="234.892"/><rect fill="#000000" height="30" style="stroke:#E7E7E7;stroke-width:1.0;" width="10" x="510.5" y="278.451"/><rect fill="#000000" height="31.706" style="stroke:#E7E7E7;stroke-width:1.0;" width="10" x="636" y="352.01"/><rect fill="#000000" height="31.706" style="stroke:#E7E7E7;stroke-width:1.0;" width="10" x="790.5" y="415.4221"/><rect fill="#000000" height="31.706" style="stroke:#E7E7E7;stroke-width:1.0;" width="10" x="963" y="478.8341"/><rect fill="#000000" height="127.118" style="stroke:#E7E7E7;stroke-width:1.0;" width="10" x="1148" y="542.2461"/><rect fill="#000000" height="30" style="stroke:#E7E7E7;stroke-width:1.0;" width="10" x="1307.5" y="600.6582"/><rect fill="none" height="81.412" style="stroke:#FFFFFF;stroke-width:1.5;" width="329" x="1055" y="557.2461"/><line style="stroke:#E7E7E7;stroke-width:0.5;stroke-dasharray:5.0,5.0;" x1="34" x2="34" y1="84.0679" y2="750.7762"/><line style="stroke:#E7E7E7;stroke-width:0.5;stroke-dasharray:5.0,5.0;" x1="177" x2="177" y1="84.0679" y2="750.7762"/><line style="stroke:#E7E7E7;stroke-width:0.5;stroke-dasharray:5.0,5.0;" x1="363" x2="363" y1="84.0679" y2="750.7762"/><line style="stroke:#E7E7E7;stroke-width:0.5;stroke-dasharray:5.0,5.0;" x1="515" x2="515" y1="84.0679" y2="750.7762"/><line style="stroke:#E7E7E7;stroke-width:0.5;stroke-dasharray:5.0,5.0;" x1="641" x2="641" y1="84.0679" y2="750.7762"/><line style="stroke:#E7E7E7;stroke-width:0.5;stroke-dasharray:5.0,5.0;" x1="795" x2="795" y1="84.0679" y2="750.7762"/><line style="stroke:#E7E7E7;stroke-width:0.5;stroke-dasharray:5.0,5.0;" x1="968" x2="968" y1="84.0679" y2="750.7762"/><line style="stroke:#E7E7E7;stroke-width:0.5;stroke-dasharray:5.0,5.0;" x1="1153" x2="1153" y1="84.0679" y2="750.7762"/><line style="stroke:#E7E7E7;stroke-width:0.5;stroke-dasharray:5.0,5.0;" x1="1312" x2="1312" y1="84.0679" y2="750.7762"/><text fill="#FFFFFF" font-family="sans-serif" font-size="14" lengthAdjust="spacing" textLength="53" x="5" y="79.9659">Student</text><ellipse cx="34.5" cy="13.5" fill="#222222" rx="8" ry="8" style="stroke:#E7E7E7;stroke-width:0.5;"/><path d="M34.5,21.5 L34.5,48.5 M21.5,29.5 L47.5,29.5 M34.5,48.5 L21.5,63.5 M34.5,48.5 L47.5,63.5 " fill="none" style="stroke:#E7E7E7;stroke-width:0.5;"/><text fill="#FFFFFF" font-family="sans-serif" font-size="14" lengthAdjust="spacing" textLength="53" x="5" y="764.7421">Student</text><ellipse cx="34.5" cy="777.3441" fill="#222222" rx="8" ry="8" style="stroke:#E7E7E7;stroke-width:0.5;"/><path d="M34.5,785.3441 L34.5,812.3441 M21.5,793.3441 L47.5,793.3441 M34.5,812.3441 L21.5,827.3441 M34.5,812.3441 L47.5,827.3441 " fill="none" style="stroke:#E7E7E7;stroke-width:0.5;"/><rect fill="#222222" height="33.0679" rx="2.5" ry="2.5" style="stroke:#E7E7E7;stroke-width:0.5;" width="139" x="108" y="50"/><text fill="#FFFFFF" font-family="sans-serif" font-size="14" lengthAdjust="spacing" textLength="125" x="115" y="71.9659">ListFutureExamsUI</text><rect fill="#222222" height="33.0679" rx="2.5" ry="2.5" style="stroke:#E7E7E7;stroke-width:0.5;" width="139" x="108" y="749.7762"/><text fill="#FFFFFF" font-family="sans-serif" font-size="14" lengthAdjust="spacing" textLength="125" x="115" y="771.7421">ListFutureExamsUI</text><rect fill="#222222" height="33.0679" rx="2.5" ry="2.5" style="stroke:#E7E7E7;stroke-width:0.5;" width="191" x="268" y="50"/><text fill="#FFFFFF" font-family="sans-serif" font-size="14" lengthAdjust="spacing" textLength="177" x="275" y="71.9659">ListFutureExamsController</text><rect fill="#222222" height="33.0679" rx="2.5" ry="2.5" style="stroke:#E7E7E7;stroke-width:0.5;" width="191" x="268" y="749.7762"/><text fill="#FFFFFF" font-family="sans-serif" font-size="14" lengthAdjust="spacing" textLength="177" x="275" y="771.7421">ListFutureExamsController</text><rect fill="#222222" height="33.0679" rx="2.5" ry="2.5" style="stroke:#E7E7E7;stroke-width:0.5;" width="93" x="469" y="50"/><text fill="#FFFFFF" font-family="sans-serif" font-size="14" lengthAdjust="spacing" textLength="79" x="476" y="71.9659">SystemUser</text><rect fill="#222222" height="33.0679" rx="2.5" ry="2.5" style="stroke:#E7E7E7;stroke-width:0.5;" width="93" x="469" y="749.7762"/><text fill="#FFFFFF" font-family="sans-serif" font-size="14" lengthAdjust="spacing" textLength="79" x="476" y="771.7421">SystemUser</text><rect fill="#222222" height="33.0679" rx="2.5" ry="2.5" style="stroke:#E7E7E7;stroke-width:0.5;" width="138" x="572" y="50"/><text fill="#FFFFFF" font-family="sans-serif" font-size="14" lengthAdjust="spacing" textLength="124" x="579" y="71.9659">StudentRepository</text><rect fill="#222222" height="33.0679" rx="2.5" ry="2.5" style="stroke:#E7E7E7;stroke-width:0.5;" width="138" x="572" y="749.7762"/><text fill="#FFFFFF" font-family="sans-serif" font-size="14" lengthAdjust="spacing" textLength="124" x="579" y="771.7421">StudentRepository</text><rect fill="#222222" height="33.0679" rx="2.5" ry="2.5" style="stroke:#E7E7E7;stroke-width:0.5;" width="151" x="720" y="50"/><text fill="#FFFFFF" font-family="sans-serif" font-size="14" lengthAdjust="spacing" textLength="137" x="727" y="71.9659">EnrollmentRepositry</text><rect fill="#222222" height="33.0679" rx="2.5" ry="2.5" style="stroke:#E7E7E7;stroke-width:0.5;" width="151" x="720" y="749.7762"/><text fill="#FFFFFF" font-family="sans-serif" font-size="14" lengthAdjust="spacing" textLength="137" x="727" y="771.7421">EnrollmentRepositry</text><rect fill="#222222" height="33.0679" rx="2.5" ry="2.5" style="stroke:#E7E7E7;stroke-width:0.5;" width="174" x="881" y="50"/><text fill="#FFFFFF" font-family="sans-serif" font-size="14" lengthAdjust="spacing" textLength="160" x="888" y="71.9659">RegularExamRepository</text><rect fill="#222222" height="33.0679" rx="2.5" ry="2.5" style="stroke:#E7E7E7;stroke-width:0.5;" width="174" x="881" y="749.7762"/><text fill="#FFFFFF" font-family="sans-serif" font-size="14" lengthAdjust="spacing" textLength="160" x="888" y="771.7421">RegularExamRepository</text><rect fill="#222222" height="33.0679" rx="2.5" ry="2.5" style="stroke:#E7E7E7;stroke-width:0.5;" width="176" x="1065" y="50"/><text fill="#FFFFFF" font-family="sans-serif" font-size="14" lengthAdjust="spacing" textLength="162" x="1072" y="71.9659">FutureExamDTOMapper</text><rect fill="#222222" height="33.0679" rx="2.5" ry="2.5" style="stroke:#E7E7E7;stroke-width:0.5;" width="176" x="1065" y="749.7762"/><text fill="#FFFFFF" font-family="sans-serif" font-size="14" lengthAdjust="spacing" textLength="162" x="1072" y="771.7421">FutureExamDTOMapper</text><rect fill="#222222" height="33.0679" rx="2.5" ry="2.5" style="stroke:#E7E7E7;stroke-width:0.5;" width="123" x="1251" y="50"/><text fill="#FFFFFF" font-family="sans-serif" font-size="14" lengthAdjust="spacing" textLength="109" x="1258" y="71.9659">FutureExamDTO</text><rect fill="#222222" height="33.0679" rx="2.5" ry="2.5" style="stroke:#E7E7E7;stroke-width:0.5;" width="123" x="1251" y="749.7762"/><text fill="#FFFFFF" font-family="sans-serif" font-size="14" lengthAdjust="spacing" textLength="109" x="1258" y="771.7421">FutureExamDTO</text><rect fill="#000000" height="615.0023" style="stroke:#E7E7E7;stroke-width:1.0;" width="10" x="172.5" y="117.7739"/><rect fill="#000000" height="30" style="stroke:#E7E7E7;stroke-width:1.0;" width="10" x="358.5" y="161.333"/><rect fill="#000000" height="466.1782" style="stroke:#E7E7E7;stroke-width:1.0;" width="10" x="358.5" y="234.892"/><rect fill="#000000" height="30" style="stroke:#E7E7E7;stroke-width:1.0;" width="10" x="510.5" y="278.451"/><rect fill="#000000" height="31.706" style="stroke:#E7E7E7;stroke-width:1.0;" width="10" x="636" y="352.01"/><rect fill="#000000" height="31.706" style="stroke:#E7E7E7;stroke-width:1.0;" width="10" x="790.5" y="415.4221"/><rect fill="#000000" height="31.706" style="stroke:#E7E7E7;stroke-width:1.0;" width="10" x="963" y="478.8341"/><rect fill="#000000" height="127.118" style="stroke:#E7E7E7;stroke-width:1.0;" width="10" x="1148" y="542.2461"/><rect fill="#000000" height="30" style="stroke:#E7E7E7;stroke-width:1.0;" width="10" x="1307.5" y="600.6582"/><polygon fill="#E7E7E7" points="160.5,113.7739,170.5,117.7739,160.5,121.7739,164.5,117.7739" style="stroke:#E7E7E7;stroke-width:1.0;"/><line style="stroke:#E7E7E7;stroke-width:1.0;stroke-dasharray:2.0,2.0;" x1="34.5" x2="166.5" y1="117.7739" y2="117.7739"/><text fill="#FFFFFF" font-family="sans-serif" font-size="13" lengthAdjust="spacing" textLength="32" x="41.5" y="111.9649">enter</text><polygon fill="#E7E7E7" points="346.5,157.333,356.5,161.333,346.5,165.333,350.5,161.333" style="stroke:#E7E7E7;stroke-width:1.0;"/><line style="stroke:#E7E7E7;stroke-width:1.0;stroke-dasharray:2.0,2.0;" x1="182.5" x2="352.5" y1="161.333" y2="161.333"/><text fill="#FFFFFF" font-family="sans-serif" font-size="13" lengthAdjust="spacing" textLength="45" x="189.5" y="155.524">create()</text><path d="M373,130.7739 L373,175.7739 L592,175.7739 L592,140.7739 L582,130.7739 L373,130.7739 " fill="#714137" style="stroke:#E7E7E7;stroke-width:0.5;"/><path d="M582,130.7739 L582,140.7739 L592,140.7739 L582,130.7739 " fill="#714137" style="stroke:#E7E7E7;stroke-width:0.5;"/><text fill="#FFFFFF" font-family="sans-serif" font-size="13" lengthAdjust="spacing" textLength="170" x="379" y="149.6709">repositories are retrieved via</text><text fill="#FFFFFF" font-family="sans-serif" font-size="13" lengthAdjust="spacing" textLength="198" x="379" y="167.377">PersistenceContext.repositories()</text><polygon fill="#E7E7E7" points="346.5,230.892,356.5,234.892,346.5,238.892,350.5,234.892" style="stroke:#E7E7E7;stroke-width:1.0;"/><line style="stroke:#E7E7E7;stroke-width:1.0;stroke-dasharray:2.0,2.0;" x1="182.5" x2="352.5" y1="234.892" y2="234.892"/><text fill="#FFFFFF" font-family="sans-serif" font-size="13" lengthAdjust="spacing" textLength="157" x="189.5" y="229.083">futureExams(currentTime)</text><polygon fill="#E7E7E7" points="498.5,274.451,508.5,278.451,498.5,282.451,502.5,278.451" style="stroke:#E7E7E7;stroke-width:1.0;"/><line style="stroke:#E7E7E7;stroke-width:1.0;stroke-dasharray:2.0,2.0;" x1="368.5" x2="504.5" y1="278.451" y2="278.451"/><text fill="#FFFFFF" font-family="sans-serif" font-size="13" lengthAdjust="spacing" textLength="28" x="375.5" y="272.642">get()</text><path d="M525,247.892 L525,292.892 L734,292.892 L734,257.892 L724,247.892 L525,247.892 " fill="#714137" style="stroke:#E7E7E7;stroke-width:0.5;"/><path d="M724,247.892 L724,257.892 L734,257.892 L724,247.892 " fill="#714137" style="stroke:#E7E7E7;stroke-width:0.5;"/><text fill="#FFFFFF" font-family="sans-serif" font-size="13" lengthAdjust="spacing" textLength="136" x="531" y="266.789">sysUser is obtained via</text><text fill="#FFFFFF" font-family="sans-serif" font-size="13" lengthAdjust="spacing" textLength="188" x="531" y="284.495">the framework's Authz package</text><polygon fill="#E7E7E7" points="624,348.01,634,352.01,624,356.01,628,352.01" style="stroke:#E7E7E7;stroke-width:1.0;"/><line style="stroke:#E7E7E7;stroke-width:1.0;stroke-dasharray:2.0,2.0;" x1="368.5" x2="630" y1="352.01" y2="352.01"/><text fill="#FFFFFF" font-family="sans-serif" font-size="13" lengthAdjust="spacing" textLength="165" x="375.5" y="346.201">findBySystemUser(sysUser)</text><polygon fill="#E7E7E7" points="379.5,379.716,369.5,383.716,379.5,387.716,375.5,383.716" style="stroke:#E7E7E7;stroke-width:1.0;"/><line style="stroke:#E7E7E7;stroke-width:1.0;stroke-dasharray:2.0,2.0;" x1="373.5" x2="640" y1="383.716" y2="383.716"/><text fill="#FFFFFF" font-family="sans-serif" font-size="13" lengthAdjust="spacing" textLength="47" x="385.5" y="377.907">student</text><polygon fill="#E7E7E7" points="778.5,411.4221,788.5,415.4221,778.5,419.4221,782.5,415.4221" style="stroke:#E7E7E7;stroke-width:1.0;"/><line style="stroke:#E7E7E7;stroke-width:1.0;stroke-dasharray:2.0,2.0;" x1="368.5" x2="784.5" y1="415.4221" y2="415.4221"/><text fill="#FFFFFF" font-family="sans-serif" font-size="13" lengthAdjust="spacing" textLength="212" x="375.5" y="409.6131">coursesOfEnrolledStudent(student)</text><polygon fill="#E7E7E7" points="379.5,443.1281,369.5,447.1281,379.5,451.1281,375.5,447.1281" style="stroke:#E7E7E7;stroke-width:1.0;"/><line style="stroke:#E7E7E7;stroke-width:1.0;stroke-dasharray:2.0,2.0;" x1="373.5" x2="794.5" y1="447.1281" y2="447.1281"/><text fill="#FFFFFF" font-family="sans-serif" font-size="13" lengthAdjust="spacing" textLength="46" x="385.5" y="441.3191">courses</text><polygon fill="#E7E7E7" points="951,474.8341,961,478.8341,951,482.8341,955,478.8341" style="stroke:#E7E7E7;stroke-width:1.0;"/><line style="stroke:#E7E7E7;stroke-width:1.0;stroke-dasharray:2.0,2.0;" x1="368.5" x2="957" y1="478.8341" y2="478.8341"/><text fill="#FFFFFF" font-family="sans-serif" font-size="13" lengthAdjust="spacing" textLength="292" x="375.5" y="473.0251">examsOfCoursesAfterTime(currentTime, courses)</text><polygon fill="#E7E7E7" points="379.5,506.5401,369.5,510.5401,379.5,514.5401,375.5,510.5401" style="stroke:#E7E7E7;stroke-width:1.0;"/><line style="stroke:#E7E7E7;stroke-width:1.0;stroke-dasharray:2.0,2.0;" x1="373.5" x2="967" y1="510.5401" y2="510.5401"/><text fill="#FFFFFF" font-family="sans-serif" font-size="13" lengthAdjust="spacing" textLength="39" x="385.5" y="504.7311">exams</text><polygon fill="#E7E7E7" points="1136,538.2461,1146,542.2461,1136,546.2461,1140,542.2461" style="stroke:#E7E7E7;stroke-width:1.0;"/><line style="stroke:#E7E7E7;stroke-width:1.0;stroke-dasharray:2.0,2.0;" x1="368.5" x2="1142" y1="542.2461" y2="542.2461"/><text fill="#FFFFFF" font-family="sans-serif" font-size="13" lengthAdjust="spacing" textLength="86" x="375.5" y="536.4371">toDTO(exams)</text><path d="M1055,557.2461 L1128,557.2461 L1128,566.9521 L1118,576.9521 L1055,576.9521 L1055,557.2461 " fill="#555555" style="stroke:#FFFFFF;stroke-width:1.5;"/><rect fill="none" height="81.412" style="stroke:#FFFFFF;stroke-width:1.5;" width="329" x="1055" y="557.2461"/><text fill="#FFFFFF" font-family="sans-serif" font-size="13" font-weight="bold" lengthAdjust="spacing" textLength="28" x="1070" y="572.1431">loop</text><text fill="#FFFFFF" font-family="sans-serif" font-size="11" font-weight="bold" lengthAdjust="spacing" textLength="140" x="1143" y="571.005">[for each exam in exams]</text><polygon fill="#E7E7E7" points="1295.5,596.6582,1305.5,600.6582,1295.5,604.6582,1299.5,600.6582" style="stroke:#E7E7E7;stroke-width:1.0;"/><line style="stroke:#E7E7E7;stroke-width:1.0;stroke-dasharray:2.0,2.0;" x1="1158" x2="1301.5" y1="600.6582" y2="600.6582"/><text fill="#FFFFFF" font-family="sans-serif" font-size="13" lengthAdjust="spacing" textLength="45" x="1165" y="594.8492">create()</text><polygon fill="#E7E7E7" points="379.5,665.3642,369.5,669.3642,379.5,673.3642,375.5,669.3642" style="stroke:#E7E7E7;stroke-width:1.0;"/><line style="stroke:#E7E7E7;stroke-width:1.0;stroke-dasharray:2.0,2.0;" x1="373.5" x2="1152" y1="669.3642" y2="669.3642"/><text fill="#FFFFFF" font-family="sans-serif" font-size="13" lengthAdjust="spacing" textLength="80" x="385.5" y="663.5552">examDTOList</text><polygon fill="#E7E7E7" points="193.5,697.0702,183.5,701.0702,193.5,705.0702,189.5,701.0702" style="stroke:#E7E7E7;stroke-width:1.0;"/><line style="stroke:#E7E7E7;stroke-width:1.0;stroke-dasharray:2.0,2.0;" x1="187.5" x2="362.5" y1="701.0702" y2="701.0702"/><text fill="#FFFFFF" font-family="sans-serif" font-size="13" lengthAdjust="spacing" textLength="80" x="199.5" y="695.2612">examDTOList</text><polygon fill="#E7E7E7" points="45.5,728.7762,35.5,732.7762,45.5,736.7762,41.5,732.7762" style="stroke:#E7E7E7;stroke-width:1.0;"/><line style="stroke:#E7E7E7;stroke-width:1.0;stroke-dasharray:2.0,2.0;" x1="39.5" x2="176.5" y1="732.7762" y2="732.7762"/><text fill="#FFFFFF" font-family="sans-serif" font-size="13" lengthAdjust="spacing" textLength="114" x="51.5" y="726.9672">show future exams</text><!--SRC=[VLLDRzim3BtxL-XM3rZt0teOq7KjK615XgMz3GWqcNQ4nf91oQxJNp_gmubiAz79i1x9z-X7cWkhaMrjNu6oZ1lM6y2YusYba1sdTx-aiK-zxH4UHzwQjsUFajSm3rfPr8S3eCCAYuUYk65fm6z0Gp6W13WmZ3OWnmNk3tJQIA9uVEAEwT714BfTpKKnex0zKhhspOIQvcXslS459AWyv_J87QNJS-2ZSkpRCpP08K3d_9h-mD6fdgU5CUPT2BhlxVwJeaXy079wWT1aO1hb9xTIgotW80LCQ3E81NeBnX3Eow77Ogxc_65-lcvUUDU55hN-wJBIOIghbm8UT8_6Sn7-gIYSOzZjxNSo1RjZr3JAMj3NaWEtu9p2wD2TWpWl44WWq5tvnL-TeDueB1wbwGtAPcy9ZrDl9L0Fa2x0qlC05Hia_wlMTlgMXiH25SnBPOZLPnENeaSaDQ-oXMj4VQHB4Jr7MHgmiUGiR38bIyvC9W6yWQLX-f_bKatwx1vOZRo53utlDoQuY3wBUESDdF8b-ax-NxFqldHIfQf-7CzZKyRgEUB1oodlc2PfdGdJbMKJPs551YOomKjcKuVHWohEQXcpPaZ1cXIiICMyEL9maTGuiGBdWqqTB6_kQtAsSqFgZAzJYHp3CKDnN77qLR8CnqiKm-nIhDKqgQNFa24GHpojVz2wOpMjV2gpzwMPL0iAqubLN45Q18kfJS-feDiNoyj4qF8QLEK95HUgEhsXFwJI_MDoNOeYrqqAwsWHV6q7-4L6HjxhZxW8OcEI85fd_m40]--></g></svg>