<?xml version="1.0" encoding="us-ascii" standalone="no"?><svg xmlns="http://www.w3.org/2000/svg" xmlns:xlink="http://www.w3.org/1999/xlink" contentStyleType="text/css" height="651px" preserveAspectRatio="none" style="width:1214px;height:651px;background:#1B1B1B;" version="1.1" viewBox="0 0 1214 651" width="1214px" zoomAndPan="magnify"><defs/><g><rect fill="#1B1B1B" height="651" style="stroke:none;stroke-width:1.0;" width="1214" x="0" y="0"/><rect fill="#000000" height="432.4722" style="stroke:#E7E7E7;stroke-width:1.0;" width="10" x="140.5" y="117.7739"/><rect fill="#000000" height="369.0602" style="stroke:#E7E7E7;stroke-width:1.0;" width="10" x="335.5" y="149.4799"/><rect fill="#000000" height="31.706" style="stroke:#E7E7E7;stroke-width:1.0;" width="10" x="506.5" y="181.186"/><rect fill="#000000" height="93.412" style="stroke:#E7E7E7;stroke-width:1.0;" width="10" x="668" y="244.598"/><rect fill="#000000" height="61.706" style="stroke:#E7E7E7;stroke-width:1.0;" width="10" x="819.5" y="276.304"/><rect fill="#000000" height="30" style="stroke:#E7E7E7;stroke-width:1.0;" width="10" x="974" y="308.01"/><rect fill="#000000" height="105.265" style="stroke:#E7E7E7;stroke-width:1.0;" width="10" x="974" y="381.5691"/><rect fill="#000000" height="30" style="stroke:#E7E7E7;stroke-width:1.0;" width="10" x="1127.5" y="425.1281"/><line style="stroke:#E7E7E7;stroke-width:0.5;stroke-dasharray:5.0,5.0;" x1="34" x2="34" y1="84.0679" y2="568.2461"/><line style="stroke:#E7E7E7;stroke-width:0.5;stroke-dasharray:5.0,5.0;" x1="145.5" x2="145.5" y1="84.0679" y2="568.2461"/><line style="stroke:#E7E7E7;stroke-width:0.5;stroke-dasharray:5.0,5.0;" x1="340.5" x2="340.5" y1="84.0679" y2="568.2461"/><line style="stroke:#E7E7E7;stroke-width:0.5;stroke-dasharray:5.0,5.0;" x1="511.5" x2="511.5" y1="84.0679" y2="568.2461"/><line style="stroke:#E7E7E7;stroke-width:0.5;stroke-dasharray:5.0,5.0;" x1="672.5" x2="672.5" y1="84.0679" y2="568.2461"/><line style="stroke:#E7E7E7;stroke-width:0.5;stroke-dasharray:5.0,5.0;" x1="824.5" x2="824.5" y1="84.0679" y2="568.2461"/><line style="stroke:#E7E7E7;stroke-width:0.5;stroke-dasharray:5.0,5.0;" x1="978.5" x2="978.5" y1="84.0679" y2="568.2461"/><line style="stroke:#E7E7E7;stroke-width:0.5;stroke-dasharray:5.0,5.0;" x1="1132.5" x2="1132.5" y1="84.0679" y2="568.2461"/><text fill="#FFFFFF" font-family="sans-serif" font-size="14" lengthAdjust="spacing" textLength="53" x="5" y="79.9659">Student</text><ellipse cx="34.5" cy="13.5" fill="#222222" rx="8" ry="8" style="stroke:#E7E7E7;stroke-width:0.5;"/><path d="M34.5,21.5 L34.5,48.5 M21.5,29.5 L47.5,29.5 M34.5,48.5 L21.5,63.5 M34.5,48.5 L47.5,63.5 " fill="none" style="stroke:#E7E7E7;stroke-width:0.5;"/><text fill="#FFFFFF" font-family="sans-serif" font-size="14" lengthAdjust="spacing" textLength="53" x="5" y="582.2121">Student</text><ellipse cx="34.5" cy="594.814" fill="#222222" rx="8" ry="8" style="stroke:#E7E7E7;stroke-width:0.5;"/><path d="M34.5,602.814 L34.5,629.814 M21.5,610.814 L47.5,610.814 M34.5,629.814 L21.5,644.814 M34.5,629.814 L47.5,644.814 " fill="none" style="stroke:#E7E7E7;stroke-width:0.5;"/><rect fill="#222222" height="33.0679" rx="2.5" ry="2.5" style="stroke:#E7E7E7;stroke-width:0.5;" width="96" x="97.5" y="50"/><text fill="#FFFFFF" font-family="sans-serif" font-size="14" lengthAdjust="spacing" textLength="82" x="104.5" y="71.9659">TakeExamUI</text><rect fill="#222222" height="33.0679" rx="2.5" ry="2.5" style="stroke:#E7E7E7;stroke-width:0.5;" width="96" x="97.5" y="567.2461"/><text fill="#FFFFFF" font-family="sans-serif" font-size="14" lengthAdjust="spacing" textLength="82" x="104.5" y="589.2121">TakeExamUI</text><rect fill="#222222" height="33.0679" rx="2.5" ry="2.5" style="stroke:#E7E7E7;stroke-width:0.5;" width="148" x="266.5" y="50"/><text fill="#FFFFFF" font-family="sans-serif" font-size="14" lengthAdjust="spacing" textLength="134" x="273.5" y="71.9659">TakeExamController</text><rect fill="#222222" height="33.0679" rx="2.5" ry="2.5" style="stroke:#E7E7E7;stroke-width:0.5;" width="148" x="266.5" y="567.2461"/><text fill="#FFFFFF" font-family="sans-serif" font-size="14" lengthAdjust="spacing" textLength="134" x="273.5" y="589.2121">TakeExamController</text><rect fill="#222222" height="33.0679" rx="2.5" ry="2.5" style="stroke:#E7E7E7;stroke-width:0.5;" width="174" x="424.5" y="50"/><text fill="#FFFFFF" font-family="sans-serif" font-size="14" lengthAdjust="spacing" textLength="160" x="431.5" y="71.9659">RegularExamRepository</text><rect fill="#222222" height="33.0679" rx="2.5" ry="2.5" style="stroke:#E7E7E7;stroke-width:0.5;" width="174" x="424.5" y="567.2461"/><text fill="#FFFFFF" font-family="sans-serif" font-size="14" lengthAdjust="spacing" textLength="160" x="431.5" y="589.2121">RegularExamRepository</text><rect fill="#222222" height="33.0679" rx="2.5" ry="2.5" style="stroke:#E7E7E7;stroke-width:0.5;" width="129" x="608.5" y="50"/><text fill="#FFFFFF" font-family="sans-serif" font-size="14" lengthAdjust="spacing" textLength="115" x="615.5" y="71.9659">GrammarContext</text><rect fill="#222222" height="33.0679" rx="2.5" ry="2.5" style="stroke:#E7E7E7;stroke-width:0.5;" width="129" x="608.5" y="567.2461"/><text fill="#FFFFFF" font-family="sans-serif" font-size="14" lengthAdjust="spacing" textLength="115" x="615.5" y="589.2121">GrammarContext</text><rect fill="#222222" height="33.0679" rx="2.5" ry="2.5" style="stroke:#E7E7E7;stroke-width:0.5;" width="154" x="747.5" y="50"/><text fill="#FFFFFF" font-family="sans-serif" font-size="14" lengthAdjust="spacing" textLength="140" x="754.5" y="71.9659">GrammarToolFactory</text><rect fill="#222222" height="33.0679" rx="2.5" ry="2.5" style="stroke:#E7E7E7;stroke-width:0.5;" width="154" x="747.5" y="567.2461"/><text fill="#FFFFFF" font-family="sans-serif" font-size="14" lengthAdjust="spacing" textLength="140" x="754.5" y="589.2121">GrammarToolFactory</text><rect fill="#222222" height="33.0679" rx="2.5" ry="2.5" style="stroke:#E7E7E7;stroke-width:0.5;" width="135" x="911.5" y="50"/><text fill="#FFFFFF" font-family="sans-serif" font-size="14" lengthAdjust="spacing" textLength="121" x="918.5" y="71.9659">ParseExamService</text><rect fill="#222222" height="33.0679" rx="2.5" ry="2.5" style="stroke:#E7E7E7;stroke-width:0.5;" width="135" x="911.5" y="567.2461"/><text fill="#FFFFFF" font-family="sans-serif" font-size="14" lengthAdjust="spacing" textLength="121" x="918.5" y="589.2121">ParseExamService</text><rect fill="#222222" height="33.0679" rx="2.5" ry="2.5" style="stroke:#E7E7E7;stroke-width:0.5;" width="152" x="1056.5" y="50"/><text fill="#FFFFFF" font-family="sans-serif" font-size="14" lengthAdjust="spacing" textLength="138" x="1063.5" y="71.9659">ExamToBeTakenDTO</text><rect fill="#222222" height="33.0679" rx="2.5" ry="2.5" style="stroke:#E7E7E7;stroke-width:0.5;" width="152" x="1056.5" y="567.2461"/><text fill="#FFFFFF" font-family="sans-serif" font-size="14" lengthAdjust="spacing" textLength="138" x="1063.5" y="589.2121">ExamToBeTakenDTO</text><rect fill="#000000" height="432.4722" style="stroke:#E7E7E7;stroke-width:1.0;" width="10" x="140.5" y="117.7739"/><rect fill="#000000" height="369.0602" style="stroke:#E7E7E7;stroke-width:1.0;" width="10" x="335.5" y="149.4799"/><rect fill="#000000" height="31.706" style="stroke:#E7E7E7;stroke-width:1.0;" width="10" x="506.5" y="181.186"/><rect fill="#000000" height="93.412" style="stroke:#E7E7E7;stroke-width:1.0;" width="10" x="668" y="244.598"/><rect fill="#000000" height="61.706" style="stroke:#E7E7E7;stroke-width:1.0;" width="10" x="819.5" y="276.304"/><rect fill="#000000" height="30" style="stroke:#E7E7E7;stroke-width:1.0;" width="10" x="974" y="308.01"/><rect fill="#000000" height="105.265" style="stroke:#E7E7E7;stroke-width:1.0;" width="10" x="974" y="381.5691"/><rect fill="#000000" height="30" style="stroke:#E7E7E7;stroke-width:1.0;" width="10" x="1127.5" y="425.1281"/><polygon fill="#E7E7E7" points="128.5,113.7739,138.5,117.7739,128.5,121.7739,132.5,117.7739" style="stroke:#E7E7E7;stroke-width:1.0;"/><line style="stroke:#E7E7E7;stroke-width:1.0;stroke-dasharray:2.0,2.0;" x1="34.5" x2="134.5" y1="117.7739" y2="117.7739"/><text fill="#FFFFFF" font-family="sans-serif" font-size="13" lengthAdjust="spacing" textLength="85" x="41.5" y="111.9649">chooses exam</text><polygon fill="#E7E7E7" points="323.5,145.4799,333.5,149.4799,323.5,153.4799,327.5,149.4799" style="stroke:#E7E7E7;stroke-width:1.0;"/><line style="stroke:#E7E7E7;stroke-width:1.0;stroke-dasharray:2.0,2.0;" x1="150.5" x2="329.5" y1="149.4799" y2="149.4799"/><text fill="#FFFFFF" font-family="sans-serif" font-size="13" lengthAdjust="spacing" textLength="166" x="157.5" y="143.6709">examToBeTaken(examDTO)</text><polygon fill="#E7E7E7" points="494.5,177.186,504.5,181.186,494.5,185.186,498.5,181.186" style="stroke:#E7E7E7;stroke-width:1.0;"/><line style="stroke:#E7E7E7;stroke-width:1.0;stroke-dasharray:2.0,2.0;" x1="345.5" x2="500.5" y1="181.186" y2="181.186"/><text fill="#FFFFFF" font-family="sans-serif" font-size="13" lengthAdjust="spacing" textLength="67" x="352.5" y="175.377">ofIdentity()</text><polygon fill="#E7E7E7" points="356.5,208.892,346.5,212.892,356.5,216.892,352.5,212.892" style="stroke:#E7E7E7;stroke-width:1.0;"/><line style="stroke:#E7E7E7;stroke-width:1.0;stroke-dasharray:2.0,2.0;" x1="350.5" x2="510.5" y1="212.892" y2="212.892"/><text fill="#FFFFFF" font-family="sans-serif" font-size="13" lengthAdjust="spacing" textLength="33" x="362.5" y="207.083">exam</text><polygon fill="#E7E7E7" points="656,240.598,666,244.598,656,248.598,660,244.598" style="stroke:#E7E7E7;stroke-width:1.0;"/><line style="stroke:#E7E7E7;stroke-width:1.0;stroke-dasharray:2.0,2.0;" x1="345.5" x2="662" y1="244.598" y2="244.598"/><text fill="#FFFFFF" font-family="sans-serif" font-size="13" lengthAdjust="spacing" textLength="96" x="352.5" y="238.789">grammarTools()</text><polygon fill="#E7E7E7" points="807.5,272.304,817.5,276.304,807.5,280.304,811.5,276.304" style="stroke:#E7E7E7;stroke-width:1.0;"/><line style="stroke:#E7E7E7;stroke-width:1.0;stroke-dasharray:2.0,2.0;" x1="678" x2="813.5" y1="276.304" y2="276.304"/><text fill="#FFFFFF" font-family="sans-serif" font-size="13" lengthAdjust="spacing" textLength="121" x="685" y="270.495">examParserService()</text><polygon fill="#E7E7E7" points="962,304.01,972,308.01,962,312.01,966,308.01" style="stroke:#E7E7E7;stroke-width:1.0;"/><line style="stroke:#E7E7E7;stroke-width:1.0;stroke-dasharray:2.0,2.0;" x1="829.5" x2="968" y1="308.01" y2="308.01"/><text fill="#FFFFFF" font-family="sans-serif" font-size="13" lengthAdjust="spacing" textLength="45" x="836.5" y="302.201">create()</text><polygon fill="#E7E7E7" points="962,377.5691,972,381.5691,962,385.5691,966,381.5691" style="stroke:#E7E7E7;stroke-width:1.0;"/><line style="stroke:#E7E7E7;stroke-width:1.0;stroke-dasharray:2.0,2.0;" x1="345.5" x2="968" y1="381.5691" y2="381.5691"/><text fill="#FFFFFF" font-family="sans-serif" font-size="13" lengthAdjust="spacing" textLength="128" x="352.5" y="375.7601">generateExam(exam)</text><path d="M989,351.01 L989,396.01 L1149,396.01 L1149,361.01 L1139,351.01 L989,351.01 " fill="#714137" style="stroke:#E7E7E7;stroke-width:0.5;"/><path d="M1139,351.01 L1139,361.01 L1149,361.01 L1139,351.01 " fill="#714137" style="stroke:#E7E7E7;stroke-width:0.5;"/><text fill="#FFFFFF" font-family="sans-serif" font-size="13" lengthAdjust="spacing" textLength="136" x="995" y="369.907">exam generation done</text><text fill="#FFFFFF" font-family="sans-serif" font-size="13" lengthAdjust="spacing" textLength="129" x="995" y="387.6131">by an external service</text><polygon fill="#E7E7E7" points="1115.5,421.1281,1125.5,425.1281,1115.5,429.1281,1119.5,425.1281" style="stroke:#E7E7E7;stroke-width:1.0;"/><line style="stroke:#E7E7E7;stroke-width:1.0;stroke-dasharray:2.0,2.0;" x1="984" x2="1121.5" y1="425.1281" y2="425.1281"/><text fill="#FFFFFF" font-family="sans-serif" font-size="13" lengthAdjust="spacing" textLength="45" x="991" y="419.3191">create()</text><polygon fill="#E7E7E7" points="356.5,482.8341,346.5,486.8341,356.5,490.8341,352.5,486.8341" style="stroke:#E7E7E7;stroke-width:1.0;"/><line style="stroke:#E7E7E7;stroke-width:1.0;stroke-dasharray:2.0,2.0;" x1="350.5" x2="978" y1="486.8341" y2="486.8341"/><text fill="#FFFFFF" font-family="sans-serif" font-size="13" lengthAdjust="spacing" textLength="125" x="362.5" y="481.0251">examToBeTakenDTO</text><polygon fill="#E7E7E7" points="161.5,514.5401,151.5,518.5401,161.5,522.5401,157.5,518.5401" style="stroke:#E7E7E7;stroke-width:1.0;"/><line style="stroke:#E7E7E7;stroke-width:1.0;stroke-dasharray:2.0,2.0;" x1="155.5" x2="339.5" y1="518.5401" y2="518.5401"/><text fill="#FFFFFF" font-family="sans-serif" font-size="13" lengthAdjust="spacing" textLength="125" x="167.5" y="512.7311">examToBeTakenDTO</text><polygon fill="#E7E7E7" points="45.5,546.2461,35.5,550.2461,45.5,554.2461,41.5,550.2461" style="stroke:#E7E7E7;stroke-width:1.0;"/><line style="stroke:#E7E7E7;stroke-width:1.0;stroke-dasharray:2.0,2.0;" x1="39.5" x2="144.5" y1="550.2461" y2="550.2461"/><text fill="#FFFFFF" font-family="sans-serif" font-size="13" lengthAdjust="spacing" textLength="82" x="51.5" y="544.4371">present exam</text><!--SRC=[XLExRiCm3Dpz5HgJ8J-GeKEVoDGYSRS2XMgpYX17CYWbIFw-f6mhaksWccJpU4UUI5bvYsBdJpKOBwGJhhiMHIlHwqgtalwNyW0l5tdyt33af6U3JzPuj4q3oA3AOvEJR46T6eaCtK9hdIRbAqEHldBe6yhZKI8pmiLtT9SvH6bjyoghWKbDgJuakb3U3l2iAmWzdgiSnF7IFWAtOfxBTmPvld_NdlXwJyHgzK3DYxMezjOwS08eho1vVPOUs1T1Xn0CP0C82YdrWh-8Vnc0CJ5u9VeJyfY0Uo42-xjXSUslYsK4nTJGi4XEo1hfHq0DUU9Kb7oc97Lprysfyckaefp5sQglcKM3yTYxdf1aH6fIFnyLcw2NOhiH23pYo7ZuHSV1fDbnE0db5IG1xd7gJrUG0WD889wRyAOp7eqrZMNNjThxpf-1H5iZQcj0V9aV6c93GGzeP2DSvrt6mlfSHvpEU_R4EcvpVCU1US0WD3V6DC75Fov7myA-p6PdNlSBqE_Ei71hqI8uleKnJZ9er_u0]--></g></svg>