<?xml version="1.0" encoding="us-ascii" standalone="no"?><svg xmlns="http://www.w3.org/2000/svg" xmlns:xlink="http://www.w3.org/1999/xlink" contentStyleType="text/css" height="578px" preserveAspectRatio="none" style="width:1133px;height:578px;background:#FFFFFF;" version="1.1" viewBox="0 0 1133 578" width="1133px" zoomAndPan="magnify"><defs/><g><rect fill="#FFFFFF" height="366.416" style="stroke:#181818;stroke-width:1.0;" width="10" x="143.5" y="112.7988"/><rect fill="#FFFFFF" height="307.7949" style="stroke:#181818;stroke-width:1.0;" width="10" x="344.5" y="142.1094"/><rect fill="#FFFFFF" height="29.3105" style="stroke:#181818;stroke-width:1.0;" width="10" x="521" y="171.4199"/><rect fill="#FFFFFF" height="30" style="stroke:#181818;stroke-width:1.0;" width="10" x="713.5" y="240.6963"/><rect fill="#FFFFFF" height="99.2764" style="stroke:#181818;stroke-width:1.0;" width="10" x="885.5" y="321.3174"/><rect fill="#FFFFFF" height="30" style="stroke:#181818;stroke-width:1.0;" width="10" x="1043" y="361.2832"/><line style="stroke:#181818;stroke-width:0.5;stroke-dasharray:5.0,5.0;" x1="34" x2="34" y1="81.4883" y2="497.2148"/><line style="stroke:#181818;stroke-width:0.5;stroke-dasharray:5.0,5.0;" x1="148" x2="148" y1="81.4883" y2="497.2148"/><line style="stroke:#181818;stroke-width:0.5;stroke-dasharray:5.0,5.0;" x1="349" x2="349" y1="81.4883" y2="497.2148"/><line style="stroke:#181818;stroke-width:0.5;stroke-dasharray:5.0,5.0;" x1="526" x2="526" y1="81.4883" y2="497.2148"/><line style="stroke:#181818;stroke-width:0.5;stroke-dasharray:5.0,5.0;" x1="718" x2="718" y1="81.4883" y2="497.2148"/><line style="stroke:#181818;stroke-width:0.5;stroke-dasharray:5.0,5.0;" x1="890" x2="890" y1="81.4883" y2="497.2148"/><line style="stroke:#181818;stroke-width:0.5;stroke-dasharray:5.0,5.0;" x1="1048" x2="1048" y1="81.4883" y2="497.2148"/><text fill="#000000" font-family="sans-serif" font-size="14" lengthAdjust="spacing" textLength="53" x="5" y="78.5352">Student</text><ellipse cx="34.5" cy="13.5" fill="#E2E2F0" rx="8" ry="8" style="stroke:#181818;stroke-width:0.5;"/><path d="M34.5,21.5 L34.5,48.5 M21.5,29.5 L47.5,29.5 M34.5,48.5 L21.5,63.5 M34.5,48.5 L47.5,63.5 " fill="none" style="stroke:#181818;stroke-width:0.5;"/><text fill="#000000" font-family="sans-serif" font-size="14" lengthAdjust="spacing" textLength="53" x="5" y="509.75">Student</text><ellipse cx="34.5" cy="521.2031" fill="#E2E2F0" rx="8" ry="8" style="stroke:#181818;stroke-width:0.5;"/><path d="M34.5,529.2031 L34.5,556.2031 M21.5,537.2031 L47.5,537.2031 M34.5,556.2031 L21.5,571.2031 M34.5,556.2031 L47.5,571.2031 " fill="none" style="stroke:#181818;stroke-width:0.5;"/><rect fill="#E2E2F0" height="30.4883" rx="2.5" ry="2.5" style="stroke:#181818;stroke-width:0.5;" width="99" x="99" y="50"/><text fill="#000000" font-family="sans-serif" font-size="14" lengthAdjust="spacing" textLength="85" x="106" y="70.5352">TakeExamUI</text><rect fill="#E2E2F0" height="30.4883" rx="2.5" ry="2.5" style="stroke:#181818;stroke-width:0.5;" width="99" x="99" y="496.2148"/><text fill="#000000" font-family="sans-serif" font-size="14" lengthAdjust="spacing" textLength="85" x="106" y="516.75">TakeExamUI</text><rect fill="#E2E2F0" height="30.4883" rx="2.5" ry="2.5" style="stroke:#181818;stroke-width:0.5;" width="155" x="272" y="50"/><text fill="#000000" font-family="sans-serif" font-size="14" lengthAdjust="spacing" textLength="141" x="279" y="70.5352">TakeExamController</text><rect fill="#E2E2F0" height="30.4883" rx="2.5" ry="2.5" style="stroke:#181818;stroke-width:0.5;" width="155" x="272" y="496.2148"/><text fill="#000000" font-family="sans-serif" font-size="14" lengthAdjust="spacing" textLength="141" x="279" y="516.75">TakeExamController</text><rect fill="#E2E2F0" height="30.4883" rx="2.5" ry="2.5" style="stroke:#181818;stroke-width:0.5;" width="178" x="437" y="50"/><text fill="#000000" font-family="sans-serif" font-size="14" lengthAdjust="spacing" textLength="164" x="444" y="70.5352">RegularExamRepository</text><rect fill="#E2E2F0" height="30.4883" rx="2.5" ry="2.5" style="stroke:#181818;stroke-width:0.5;" width="178" x="437" y="496.2148"/><text fill="#000000" font-family="sans-serif" font-size="14" lengthAdjust="spacing" textLength="164" x="444" y="516.75">RegularExamRepository</text><rect fill="#E2E2F0" height="30.4883" rx="2.5" ry="2.5" style="stroke:#181818;stroke-width:0.5;" width="187" x="625" y="50"/><text fill="#000000" font-family="sans-serif" font-size="14" lengthAdjust="spacing" textLength="173" x="632" y="70.5352">ParseExamServiceFactory</text><rect fill="#E2E2F0" height="30.4883" rx="2.5" ry="2.5" style="stroke:#181818;stroke-width:0.5;" width="187" x="625" y="496.2148"/><text fill="#000000" font-family="sans-serif" font-size="14" lengthAdjust="spacing" textLength="173" x="632" y="516.75">ParseExamServiceFactory</text><rect fill="#E2E2F0" height="30.4883" rx="2.5" ry="2.5" style="stroke:#181818;stroke-width:0.5;" width="137" x="822" y="50"/><text fill="#000000" font-family="sans-serif" font-size="14" lengthAdjust="spacing" textLength="123" x="829" y="70.5352">ParseExamService</text><rect fill="#E2E2F0" height="30.4883" rx="2.5" ry="2.5" style="stroke:#181818;stroke-width:0.5;" width="137" x="822" y="496.2148"/><text fill="#000000" font-family="sans-serif" font-size="14" lengthAdjust="spacing" textLength="123" x="829" y="516.75">ParseExamService</text><rect fill="#E2E2F0" height="30.4883" rx="2.5" ry="2.5" style="stroke:#181818;stroke-width:0.5;" width="158" x="969" y="50"/><text fill="#000000" font-family="sans-serif" font-size="14" lengthAdjust="spacing" textLength="144" x="976" y="70.5352">ExamToBeTakenDTO</text><rect fill="#E2E2F0" height="30.4883" rx="2.5" ry="2.5" style="stroke:#181818;stroke-width:0.5;" width="158" x="969" y="496.2148"/><text fill="#000000" font-family="sans-serif" font-size="14" lengthAdjust="spacing" textLength="144" x="976" y="516.75">ExamToBeTakenDTO</text><rect fill="#FFFFFF" height="366.416" style="stroke:#181818;stroke-width:1.0;" width="10" x="143.5" y="112.7988"/><rect fill="#FFFFFF" height="307.7949" style="stroke:#181818;stroke-width:1.0;" width="10" x="344.5" y="142.1094"/><rect fill="#FFFFFF" height="29.3105" style="stroke:#181818;stroke-width:1.0;" width="10" x="521" y="171.4199"/><rect fill="#FFFFFF" height="30" style="stroke:#181818;stroke-width:1.0;" width="10" x="713.5" y="240.6963"/><rect fill="#FFFFFF" height="99.2764" style="stroke:#181818;stroke-width:1.0;" width="10" x="885.5" y="321.3174"/><rect fill="#FFFFFF" height="30" style="stroke:#181818;stroke-width:1.0;" width="10" x="1043" y="361.2832"/><polygon fill="#181818" points="131.5,108.7988,141.5,112.7988,131.5,116.7988,135.5,112.7988" style="stroke:#181818;stroke-width:1.0;"/><line style="stroke:#181818;stroke-width:1.0;stroke-dasharray:2.0,2.0;" x1="34.5" x2="137.5" y1="112.7988" y2="112.7988"/><text fill="#000000" font-family="sans-serif" font-size="13" lengthAdjust="spacing" textLength="90" x="41.5" y="108.0566">chooses exam</text><polygon fill="#181818" points="332.5,138.1094,342.5,142.1094,332.5,146.1094,336.5,142.1094" style="stroke:#181818;stroke-width:1.0;"/><line style="stroke:#181818;stroke-width:1.0;stroke-dasharray:2.0,2.0;" x1="153.5" x2="338.5" y1="142.1094" y2="142.1094"/><text fill="#000000" font-family="sans-serif" font-size="13" lengthAdjust="spacing" textLength="172" x="160.5" y="137.3672">examToBeTaken(examDTO)</text><polygon fill="#181818" points="509,167.4199,519,171.4199,509,175.4199,513,171.4199" style="stroke:#181818;stroke-width:1.0;"/><line style="stroke:#181818;stroke-width:1.0;stroke-dasharray:2.0,2.0;" x1="354.5" x2="515" y1="171.4199" y2="171.4199"/><text fill="#000000" font-family="sans-serif" font-size="13" lengthAdjust="spacing" textLength="69" x="361.5" y="166.6777">ofIdentity()</text><polygon fill="#181818" points="365.5,196.7305,355.5,200.7305,365.5,204.7305,361.5,200.7305" style="stroke:#181818;stroke-width:1.0;"/><line style="stroke:#181818;stroke-width:1.0;stroke-dasharray:2.0,2.0;" x1="359.5" x2="525" y1="200.7305" y2="200.7305"/><text fill="#000000" font-family="sans-serif" font-size="13" lengthAdjust="spacing" textLength="34" x="371.5" y="195.9883">exam</text><polygon fill="#181818" points="701.5,236.6963,711.5,240.6963,701.5,244.6963,705.5,240.6963" style="stroke:#181818;stroke-width:1.0;"/><line style="stroke:#181818;stroke-width:1.0;stroke-dasharray:2.0,2.0;" x1="354.5" x2="707.5" y1="240.6963" y2="240.6963"/><text fill="#000000" font-family="sans-serif" font-size="13" lengthAdjust="spacing" textLength="124" x="361.5" y="235.9541">examParserService()</text><path d="M728,213.7305 L728,253.7305 L921,253.7305 L921,223.7305 L911,213.7305 L728,213.7305 " fill="#FEFFDD" style="stroke:#181818;stroke-width:0.5;"/><path d="M911,213.7305 L911,223.7305 L921,223.7305 L911,213.7305 " fill="#FEFFDD" style="stroke:#181818;stroke-width:0.5;"/><text fill="#000000" font-family="sans-serif" font-size="13" lengthAdjust="spacing" textLength="168" x="734" y="231.2988">parser service obtained via</text><text fill="#000000" font-family="sans-serif" font-size="13" lengthAdjust="spacing" textLength="88" x="734" y="246.6094">properties file</text><polygon fill="#181818" points="873.5,317.3174,883.5,321.3174,873.5,325.3174,877.5,321.3174" style="stroke:#181818;stroke-width:1.0;"/><line style="stroke:#181818;stroke-width:1.0;stroke-dasharray:2.0,2.0;" x1="354.5" x2="879.5" y1="321.3174" y2="321.3174"/><text fill="#000000" font-family="sans-serif" font-size="13" lengthAdjust="spacing" textLength="130" x="361.5" y="316.5752">generateExam(exam)</text><path d="M900,294.3516 L900,334.3516 L1065,334.3516 L1065,304.3516 L1055,294.3516 L900,294.3516 " fill="#FEFFDD" style="stroke:#181818;stroke-width:0.5;"/><path d="M1055,294.3516 L1055,304.3516 L1065,304.3516 L1055,294.3516 " fill="#FEFFDD" style="stroke:#181818;stroke-width:0.5;"/><text fill="#000000" font-family="sans-serif" font-size="13" lengthAdjust="spacing" textLength="140" x="906" y="311.9199">exam generation done</text><text fill="#000000" font-family="sans-serif" font-size="13" lengthAdjust="spacing" textLength="137" x="906" y="327.2305">by an external service</text><polygon fill="#181818" points="1031,357.2832,1041,361.2832,1031,365.2832,1035,361.2832" style="stroke:#181818;stroke-width:1.0;"/><line style="stroke:#181818;stroke-width:1.0;stroke-dasharray:2.0,2.0;" x1="895.5" x2="1037" y1="361.2832" y2="361.2832"/><text fill="#000000" font-family="sans-serif" font-size="13" lengthAdjust="spacing" textLength="46" x="902.5" y="356.541">create()</text><polygon fill="#181818" points="365.5,416.5938,355.5,420.5938,365.5,424.5938,361.5,420.5938" style="stroke:#181818;stroke-width:1.0;"/><line style="stroke:#181818;stroke-width:1.0;stroke-dasharray:2.0,2.0;" x1="359.5" x2="889.5" y1="420.5938" y2="420.5938"/><text fill="#000000" font-family="sans-serif" font-size="13" lengthAdjust="spacing" textLength="63" x="371.5" y="415.8516">takenDTO</text><polygon fill="#181818" points="164.5,445.9043,154.5,449.9043,164.5,453.9043,160.5,449.9043" style="stroke:#181818;stroke-width:1.0;"/><line style="stroke:#181818;stroke-width:1.0;stroke-dasharray:2.0,2.0;" x1="158.5" x2="348.5" y1="449.9043" y2="449.9043"/><text fill="#000000" font-family="sans-serif" font-size="13" lengthAdjust="spacing" textLength="63" x="170.5" y="445.1621">takenDTO</text><polygon fill="#181818" points="45.5,475.2148,35.5,479.2148,45.5,483.2148,41.5,479.2148" style="stroke:#181818;stroke-width:1.0;"/><line style="stroke:#181818;stroke-width:1.0;stroke-dasharray:2.0,2.0;" x1="39.5" x2="147.5" y1="479.2148" y2="479.2148"/><text fill="#000000" font-family="sans-serif" font-size="13" lengthAdjust="spacing" textLength="85" x="51.5" y="474.4727">present exam</text><!--SRC=[VLDDRy8m3BtpAt8S1_u0Xnts9N7Q1Ems2ONMGBGkgHot6lz-TaX3qXLoIkFtxETdLrVaK6segy6IqbxvotNMQYHJcLRpyrP_m-kl_lbS2Q8pay5dPmbTqm0Ag29iPWLk3SUkqIZGDRJE6ovy5YZmomxvgSH_QFGXyGQmDnMywMfWj1B2tU7oSfULmNrVbHK4jdLF81tOb-sxO4dkkvfOJ7H2BHQFtBDQgkhad8UBu1dNDhqc43iK7qO8KFfcAEIf7-IByyy3C163HIgUm9C4oGtEuWuhKM3e_31FoCI_-gQoS-MFv2HK3HCf_WifJOv9WhqOlPqIDHfDhimwZgCvdcWPOSh78RazQMEXLhtHwiksw5hWER7N1zF0bF9HdPloUUWi_GWMa6aoyJ2DsyfbIswf5kQGopYhQcU1vUvvAIq72T3gPcYgo9Af4N5fosIh4BXyvcMXwhgFUJWpOXemgXVNWEAYtp4qRpzv6RQ_86V4jCRn3nX-6nuoWfTRsBwCqPa_]--></g></svg>