<?xml version="1.0" encoding="us-ascii" standalone="no"?><svg xmlns="http://www.w3.org/2000/svg" xmlns:xlink="http://www.w3.org/1999/xlink" contentStyleType="text/css" height="615px" preserveAspectRatio="none" style="width:1248px;height:615px;background:#FFFFFF;" version="1.1" viewBox="0 0 1248 615" width="1248px" zoomAndPan="magnify"><defs/><g><rect fill="#FFFFFF" height="403.7266" style="stroke:#181818;stroke-width:1.0;" width="10" x="143.5" y="112.7988"/><rect fill="#FFFFFF" height="345.1055" style="stroke:#181818;stroke-width:1.0;" width="10" x="344.5" y="142.1094"/><rect fill="#FFFFFF" height="29.3105" style="stroke:#181818;stroke-width:1.0;" width="10" x="521" y="171.4199"/><rect fill="#FFFFFF" height="88.6211" style="stroke:#181818;stroke-width:1.0;" width="10" x="686.5" y="230.041"/><rect fill="#FFFFFF" height="59.3105" style="stroke:#181818;stroke-width:1.0;" width="10" x="842.5" y="259.3516"/><rect fill="#FFFFFF" height="30" style="stroke:#181818;stroke-width:1.0;" width="10" x="1000.5" y="288.6621"/><rect fill="#FFFFFF" height="99.2764" style="stroke:#181818;stroke-width:1.0;" width="10" x="1000.5" y="358.6279"/><rect fill="#FFFFFF" height="30" style="stroke:#181818;stroke-width:1.0;" width="10" x="1158" y="398.5938"/><line style="stroke:#181818;stroke-width:0.5;stroke-dasharray:5.0,5.0;" x1="34" x2="34" y1="81.4883" y2="534.5254"/><line style="stroke:#181818;stroke-width:0.5;stroke-dasharray:5.0,5.0;" x1="148" x2="148" y1="81.4883" y2="534.5254"/><line style="stroke:#181818;stroke-width:0.5;stroke-dasharray:5.0,5.0;" x1="349" x2="349" y1="81.4883" y2="534.5254"/><line style="stroke:#181818;stroke-width:0.5;stroke-dasharray:5.0,5.0;" x1="526" x2="526" y1="81.4883" y2="534.5254"/><line style="stroke:#181818;stroke-width:0.5;stroke-dasharray:5.0,5.0;" x1="691" x2="691" y1="81.4883" y2="534.5254"/><line style="stroke:#181818;stroke-width:0.5;stroke-dasharray:5.0,5.0;" x1="847" x2="847" y1="81.4883" y2="534.5254"/><line style="stroke:#181818;stroke-width:0.5;stroke-dasharray:5.0,5.0;" x1="1005" x2="1005" y1="81.4883" y2="534.5254"/><line style="stroke:#181818;stroke-width:0.5;stroke-dasharray:5.0,5.0;" x1="1163" x2="1163" y1="81.4883" y2="534.5254"/><text fill="#000000" font-family="sans-serif" font-size="14" lengthAdjust="spacing" textLength="53" x="5" y="78.5352">Student</text><ellipse cx="34.5" cy="13.5" fill="#E2E2F0" rx="8" ry="8" style="stroke:#181818;stroke-width:0.5;"/><path d="M34.5,21.5 L34.5,48.5 M21.5,29.5 L47.5,29.5 M34.5,48.5 L21.5,63.5 M34.5,48.5 L47.5,63.5 " fill="none" style="stroke:#181818;stroke-width:0.5;"/><text fill="#000000" font-family="sans-serif" font-size="14" lengthAdjust="spacing" textLength="53" x="5" y="547.0605">Student</text><ellipse cx="34.5" cy="558.5137" fill="#E2E2F0" rx="8" ry="8" style="stroke:#181818;stroke-width:0.5;"/><path d="M34.5,566.5137 L34.5,593.5137 M21.5,574.5137 L47.5,574.5137 M34.5,593.5137 L21.5,608.5137 M34.5,593.5137 L47.5,608.5137 " fill="none" style="stroke:#181818;stroke-width:0.5;"/><rect fill="#E2E2F0" height="30.4883" rx="2.5" ry="2.5" style="stroke:#181818;stroke-width:0.5;" width="99" x="99" y="50"/><text fill="#000000" font-family="sans-serif" font-size="14" lengthAdjust="spacing" textLength="85" x="106" y="70.5352">TakeExamUI</text><rect fill="#E2E2F0" height="30.4883" rx="2.5" ry="2.5" style="stroke:#181818;stroke-width:0.5;" width="99" x="99" y="533.5254"/><text fill="#000000" font-family="sans-serif" font-size="14" lengthAdjust="spacing" textLength="85" x="106" y="554.0605">TakeExamUI</text><rect fill="#E2E2F0" height="30.4883" rx="2.5" ry="2.5" style="stroke:#181818;stroke-width:0.5;" width="155" x="272" y="50"/><text fill="#000000" font-family="sans-serif" font-size="14" lengthAdjust="spacing" textLength="141" x="279" y="70.5352">TakeExamController</text><rect fill="#E2E2F0" height="30.4883" rx="2.5" ry="2.5" style="stroke:#181818;stroke-width:0.5;" width="155" x="272" y="533.5254"/><text fill="#000000" font-family="sans-serif" font-size="14" lengthAdjust="spacing" textLength="141" x="279" y="554.0605">TakeExamController</text><rect fill="#E2E2F0" height="30.4883" rx="2.5" ry="2.5" style="stroke:#181818;stroke-width:0.5;" width="178" x="437" y="50"/><text fill="#000000" font-family="sans-serif" font-size="14" lengthAdjust="spacing" textLength="164" x="444" y="70.5352">RegularExamRepository</text><rect fill="#E2E2F0" height="30.4883" rx="2.5" ry="2.5" style="stroke:#181818;stroke-width:0.5;" width="178" x="437" y="533.5254"/><text fill="#000000" font-family="sans-serif" font-size="14" lengthAdjust="spacing" textLength="164" x="444" y="554.0605">RegularExamRepository</text><rect fill="#E2E2F0" height="30.4883" rx="2.5" ry="2.5" style="stroke:#181818;stroke-width:0.5;" width="133" x="625" y="50"/><text fill="#000000" font-family="sans-serif" font-size="14" lengthAdjust="spacing" textLength="119" x="632" y="70.5352">GrammarContext</text><rect fill="#E2E2F0" height="30.4883" rx="2.5" ry="2.5" style="stroke:#181818;stroke-width:0.5;" width="133" x="625" y="533.5254"/><text fill="#000000" font-family="sans-serif" font-size="14" lengthAdjust="spacing" textLength="119" x="632" y="554.0605">GrammarContext</text><rect fill="#E2E2F0" height="30.4883" rx="2.5" ry="2.5" style="stroke:#181818;stroke-width:0.5;" width="159" x="768" y="50"/><text fill="#000000" font-family="sans-serif" font-size="14" lengthAdjust="spacing" textLength="145" x="775" y="70.5352">GrammarToolFactory</text><rect fill="#E2E2F0" height="30.4883" rx="2.5" ry="2.5" style="stroke:#181818;stroke-width:0.5;" width="159" x="768" y="533.5254"/><text fill="#000000" font-family="sans-serif" font-size="14" lengthAdjust="spacing" textLength="145" x="775" y="554.0605">GrammarToolFactory</text><rect fill="#E2E2F0" height="30.4883" rx="2.5" ry="2.5" style="stroke:#181818;stroke-width:0.5;" width="137" x="937" y="50"/><text fill="#000000" font-family="sans-serif" font-size="14" lengthAdjust="spacing" textLength="123" x="944" y="70.5352">ParseExamService</text><rect fill="#E2E2F0" height="30.4883" rx="2.5" ry="2.5" style="stroke:#181818;stroke-width:0.5;" width="137" x="937" y="533.5254"/><text fill="#000000" font-family="sans-serif" font-size="14" lengthAdjust="spacing" textLength="123" x="944" y="554.0605">ParseExamService</text><rect fill="#E2E2F0" height="30.4883" rx="2.5" ry="2.5" style="stroke:#181818;stroke-width:0.5;" width="158" x="1084" y="50"/><text fill="#000000" font-family="sans-serif" font-size="14" lengthAdjust="spacing" textLength="144" x="1091" y="70.5352">ExamToBeTakenDTO</text><rect fill="#E2E2F0" height="30.4883" rx="2.5" ry="2.5" style="stroke:#181818;stroke-width:0.5;" width="158" x="1084" y="533.5254"/><text fill="#000000" font-family="sans-serif" font-size="14" lengthAdjust="spacing" textLength="144" x="1091" y="554.0605">ExamToBeTakenDTO</text><rect fill="#FFFFFF" height="403.7266" style="stroke:#181818;stroke-width:1.0;" width="10" x="143.5" y="112.7988"/><rect fill="#FFFFFF" height="345.1055" style="stroke:#181818;stroke-width:1.0;" width="10" x="344.5" y="142.1094"/><rect fill="#FFFFFF" height="29.3105" style="stroke:#181818;stroke-width:1.0;" width="10" x="521" y="171.4199"/><rect fill="#FFFFFF" height="88.6211" style="stroke:#181818;stroke-width:1.0;" width="10" x="686.5" y="230.041"/><rect fill="#FFFFFF" height="59.3105" style="stroke:#181818;stroke-width:1.0;" width="10" x="842.5" y="259.3516"/><rect fill="#FFFFFF" height="30" style="stroke:#181818;stroke-width:1.0;" width="10" x="1000.5" y="288.6621"/><rect fill="#FFFFFF" height="99.2764" style="stroke:#181818;stroke-width:1.0;" width="10" x="1000.5" y="358.6279"/><rect fill="#FFFFFF" height="30" style="stroke:#181818;stroke-width:1.0;" width="10" x="1158" y="398.5938"/><polygon fill="#181818" points="131.5,108.7988,141.5,112.7988,131.5,116.7988,135.5,112.7988" style="stroke:#181818;stroke-width:1.0;"/><line style="stroke:#181818;stroke-width:1.0;stroke-dasharray:2.0,2.0;" x1="34.5" x2="137.5" y1="112.7988" y2="112.7988"/><text fill="#000000" font-family="sans-serif" font-size="13" lengthAdjust="spacing" textLength="90" x="41.5" y="108.0566">chooses exam</text><polygon fill="#181818" points="332.5,138.1094,342.5,142.1094,332.5,146.1094,336.5,142.1094" style="stroke:#181818;stroke-width:1.0;"/><line style="stroke:#181818;stroke-width:1.0;stroke-dasharray:2.0,2.0;" x1="153.5" x2="338.5" y1="142.1094" y2="142.1094"/><text fill="#000000" font-family="sans-serif" font-size="13" lengthAdjust="spacing" textLength="172" x="160.5" y="137.3672">examToBeTaken(examDTO)</text><polygon fill="#181818" points="509,167.4199,519,171.4199,509,175.4199,513,171.4199" style="stroke:#181818;stroke-width:1.0;"/><line style="stroke:#181818;stroke-width:1.0;stroke-dasharray:2.0,2.0;" x1="354.5" x2="515" y1="171.4199" y2="171.4199"/><text fill="#000000" font-family="sans-serif" font-size="13" lengthAdjust="spacing" textLength="69" x="361.5" y="166.6777">ofIdentity()</text><polygon fill="#181818" points="365.5,196.7305,355.5,200.7305,365.5,204.7305,361.5,200.7305" style="stroke:#181818;stroke-width:1.0;"/><line style="stroke:#181818;stroke-width:1.0;stroke-dasharray:2.0,2.0;" x1="359.5" x2="525" y1="200.7305" y2="200.7305"/><text fill="#000000" font-family="sans-serif" font-size="13" lengthAdjust="spacing" textLength="34" x="371.5" y="195.9883">exam</text><polygon fill="#181818" points="674.5,226.041,684.5,230.041,674.5,234.041,678.5,230.041" style="stroke:#181818;stroke-width:1.0;"/><line style="stroke:#181818;stroke-width:1.0;stroke-dasharray:2.0,2.0;" x1="354.5" x2="680.5" y1="230.041" y2="230.041"/><text fill="#000000" font-family="sans-serif" font-size="13" lengthAdjust="spacing" textLength="99" x="361.5" y="225.2988">grammarTools()</text><polygon fill="#181818" points="830.5,255.3516,840.5,259.3516,830.5,263.3516,834.5,259.3516" style="stroke:#181818;stroke-width:1.0;"/><line style="stroke:#181818;stroke-width:1.0;stroke-dasharray:2.0,2.0;" x1="696.5" x2="836.5" y1="259.3516" y2="259.3516"/><text fill="#000000" font-family="sans-serif" font-size="13" lengthAdjust="spacing" textLength="124" x="703.5" y="254.6094">examParserService()</text><polygon fill="#181818" points="988.5,284.6621,998.5,288.6621,988.5,292.6621,992.5,288.6621" style="stroke:#181818;stroke-width:1.0;"/><line style="stroke:#181818;stroke-width:1.0;stroke-dasharray:2.0,2.0;" x1="852.5" x2="994.5" y1="288.6621" y2="288.6621"/><text fill="#000000" font-family="sans-serif" font-size="13" lengthAdjust="spacing" textLength="46" x="859.5" y="283.9199">create()</text><polygon fill="#181818" points="988.5,354.6279,998.5,358.6279,988.5,362.6279,992.5,358.6279" style="stroke:#181818;stroke-width:1.0;"/><line style="stroke:#181818;stroke-width:1.0;stroke-dasharray:2.0,2.0;" x1="354.5" x2="994.5" y1="358.6279" y2="358.6279"/><text fill="#000000" font-family="sans-serif" font-size="13" lengthAdjust="spacing" textLength="130" x="361.5" y="353.8857">generateExam(exam)</text><path d="M1015,331.6621 L1015,371.6621 L1180,371.6621 L1180,341.6621 L1170,331.6621 L1015,331.6621 " fill="#FEFFDD" style="stroke:#181818;stroke-width:0.5;"/><path d="M1170,331.6621 L1170,341.6621 L1180,341.6621 L1170,331.6621 " fill="#FEFFDD" style="stroke:#181818;stroke-width:0.5;"/><text fill="#000000" font-family="sans-serif" font-size="13" lengthAdjust="spacing" textLength="140" x="1021" y="349.2305">exam generation done</text><text fill="#000000" font-family="sans-serif" font-size="13" lengthAdjust="spacing" textLength="137" x="1021" y="364.541">by an external service</text><polygon fill="#181818" points="1146,394.5938,1156,398.5938,1146,402.5938,1150,398.5938" style="stroke:#181818;stroke-width:1.0;"/><line style="stroke:#181818;stroke-width:1.0;stroke-dasharray:2.0,2.0;" x1="1010.5" x2="1152" y1="398.5938" y2="398.5938"/><text fill="#000000" font-family="sans-serif" font-size="13" lengthAdjust="spacing" textLength="46" x="1017.5" y="393.8516">create()</text><polygon fill="#181818" points="365.5,453.9043,355.5,457.9043,365.5,461.9043,361.5,457.9043" style="stroke:#181818;stroke-width:1.0;"/><line style="stroke:#181818;stroke-width:1.0;stroke-dasharray:2.0,2.0;" x1="359.5" x2="1004.5" y1="457.9043" y2="457.9043"/><text fill="#000000" font-family="sans-serif" font-size="13" lengthAdjust="spacing" textLength="130" x="371.5" y="453.1621">examToBeTakenDTO</text><polygon fill="#181818" points="164.5,483.2148,154.5,487.2148,164.5,491.2148,160.5,487.2148" style="stroke:#181818;stroke-width:1.0;"/><line style="stroke:#181818;stroke-width:1.0;stroke-dasharray:2.0,2.0;" x1="158.5" x2="348.5" y1="487.2148" y2="487.2148"/><text fill="#000000" font-family="sans-serif" font-size="13" lengthAdjust="spacing" textLength="130" x="170.5" y="482.4727">examToBeTakenDTO</text><polygon fill="#181818" points="45.5,512.5254,35.5,516.5254,45.5,520.5254,41.5,516.5254" style="stroke:#181818;stroke-width:1.0;"/><line style="stroke:#181818;stroke-width:1.0;stroke-dasharray:2.0,2.0;" x1="39.5" x2="147.5" y1="516.5254" y2="516.5254"/><text fill="#000000" font-family="sans-serif" font-size="13" lengthAdjust="spacing" textLength="85" x="51.5" y="511.7832">present exam</text><!--SRC=[XLExRiCm3Dpz5HgJ8J-GeKEVoDGYSRS2XMgpYX17CYWbIFw-f6mhaksWccJpU4UUI5bvYsBdJpKOBwGJhhiMHIlHwqgtalwNyW0l5tdyt33af6U3JzPuj4q3oA3AOvEJR46T6eaCtK9hdIRbAqEHldBe6yhZKI8pmiLtT9SvH6bjyoghWKbDgJuakb3U3l2iAmWzdgiSnF7IFWAtOfxBTmPvld_NdlXwJyHgzK3DYxMezjOwS08eho1vVPOUs1T1Xn0CP0C82YdrWh-8Vnc0CJ5u9VeJyfY0Uo42-xjXSUslYsK4nTJGi4XEo1hfHq0DUU9Kb7oc97Lprysfyckaefp5sQglcKM3yTYxdf1aH6fIFnyLcw2NOhiH23pYo7ZuHSV1fDbnE0db5IG1xd7gJrUG0WD889wRyAOp7eqrZMNNjThxpf-1H5iZQcj0V9aV6c93GGzeP2DSvrt6mlfSHvpEU_R4EcvpVCU1US0WD3V6DC75Fov7myA-p6PdNlSBqE_Ei71hqI8uleKnJZ9er_u0]--></g></svg>