<?xml version="1.0" encoding="us-ascii" standalone="no"?><svg xmlns="http://www.w3.org/2000/svg" xmlns:xlink="http://www.w3.org/1999/xlink" contentStyleType="text/css" height="814px" preserveAspectRatio="none" style="width:1827px;height:814px;background:#FFFFFF;" version="1.1" viewBox="0 0 1827 814" width="1827px" zoomAndPan="magnify"><defs/><g><rect fill="#FFFFFF" height="602.9688" style="stroke:#181818;stroke-width:1.0;" width="10" x="172.5" y="112.7988"/><rect fill="#FFFFFF" height="544.3477" style="stroke:#181818;stroke-width:1.0;" width="10" x="384.5" y="142.1094"/><rect fill="#FFFFFF" height="29.3105" style="stroke:#181818;stroke-width:1.0;" width="10" x="561" y="171.4199"/><rect fill="#FFFFFF" height="30" style="stroke:#181818;stroke-width:1.0;" width="10" x="755.5" y="240.6963"/><rect fill="#FFFFFF" height="99.2764" style="stroke:#181818;stroke-width:1.0;" width="10" x="931.5" y="321.3174"/><rect fill="#FFFFFF" height="30" style="stroke:#181818;stroke-width:1.0;" width="10" x="1087" y="361.2832"/><rect fill="#FFFFFF" height="30" style="stroke:#181818;stroke-width:1.0;" width="10" x="1219" y="449.9043"/><rect fill="#FFFFFF" height="30" style="stroke:#181818;stroke-width:1.0;" width="10" x="1386" y="509.2148"/><rect fill="#FFFFFF" height="88.6211" style="stroke:#181818;stroke-width:1.0;" width="10" x="1594" y="568.5254"/><rect fill="#FFFFFF" height="30" style="stroke:#181818;stroke-width:1.0;" width="10" x="1754" y="597.8359"/><line style="stroke:#181818;stroke-width:0.5;stroke-dasharray:5.0,5.0;" x1="34" x2="34" y1="81.4883" y2="733.7676"/><line style="stroke:#181818;stroke-width:0.5;stroke-dasharray:5.0,5.0;" x1="177" x2="177" y1="81.4883" y2="733.7676"/><line style="stroke:#181818;stroke-width:0.5;stroke-dasharray:5.0,5.0;" x1="389" x2="389" y1="81.4883" y2="733.7676"/><line style="stroke:#181818;stroke-width:0.5;stroke-dasharray:5.0,5.0;" x1="566" x2="566" y1="81.4883" y2="733.7676"/><line style="stroke:#181818;stroke-width:0.5;stroke-dasharray:5.0,5.0;" x1="760" x2="760" y1="81.4883" y2="733.7676"/><line style="stroke:#181818;stroke-width:0.5;stroke-dasharray:5.0,5.0;" x1="936" x2="936" y1="81.4883" y2="733.7676"/><line style="stroke:#181818;stroke-width:0.5;stroke-dasharray:5.0,5.0;" x1="1092" x2="1092" y1="81.4883" y2="733.7676"/><line style="stroke:#181818;stroke-width:0.5;stroke-dasharray:5.0,5.0;" x1="1224" x2="1224" y1="81.4883" y2="733.7676"/><line style="stroke:#181818;stroke-width:0.5;stroke-dasharray:5.0,5.0;" x1="1391" x2="1391" y1="81.4883" y2="733.7676"/><line style="stroke:#181818;stroke-width:0.5;stroke-dasharray:5.0,5.0;" x1="1599" x2="1599" y1="81.4883" y2="733.7676"/><line style="stroke:#181818;stroke-width:0.5;stroke-dasharray:5.0,5.0;" x1="1759" x2="1759" y1="81.4883" y2="733.7676"/><text fill="#000000" font-family="sans-serif" font-size="14" lengthAdjust="spacing" textLength="53" x="5" y="78.5352">Student</text><ellipse cx="34.5" cy="13.5" fill="#E2E2F0" rx="8" ry="8" style="stroke:#181818;stroke-width:0.5;"/><path d="M34.5,21.5 L34.5,48.5 M21.5,29.5 L47.5,29.5 M34.5,48.5 L21.5,63.5 M34.5,48.5 L47.5,63.5 " fill="none" style="stroke:#181818;stroke-width:0.5;"/><text fill="#000000" font-family="sans-serif" font-size="14" lengthAdjust="spacing" textLength="53" x="5" y="746.3027">Student</text><ellipse cx="34.5" cy="757.7559" fill="#E2E2F0" rx="8" ry="8" style="stroke:#181818;stroke-width:0.5;"/><path d="M34.5,765.7559 L34.5,792.7559 M21.5,773.7559 L47.5,773.7559 M34.5,792.7559 L21.5,807.7559 M34.5,792.7559 L47.5,807.7559 " fill="none" style="stroke:#181818;stroke-width:0.5;"/><rect fill="#E2E2F0" height="30.4883" rx="2.5" ry="2.5" style="stroke:#181818;stroke-width:0.5;" width="99" x="128" y="50"/><text fill="#000000" font-family="sans-serif" font-size="14" lengthAdjust="spacing" textLength="85" x="135" y="70.5352">TakeExamUI</text><rect fill="#E2E2F0" height="30.4883" rx="2.5" ry="2.5" style="stroke:#181818;stroke-width:0.5;" width="99" x="128" y="732.7676"/><text fill="#000000" font-family="sans-serif" font-size="14" lengthAdjust="spacing" textLength="85" x="135" y="753.3027">TakeExamUI</text><rect fill="#E2E2F0" height="30.4883" rx="2.5" ry="2.5" style="stroke:#181818;stroke-width:0.5;" width="155" x="312" y="50"/><text fill="#000000" font-family="sans-serif" font-size="14" lengthAdjust="spacing" textLength="141" x="319" y="70.5352">TakeExamController</text><rect fill="#E2E2F0" height="30.4883" rx="2.5" ry="2.5" style="stroke:#181818;stroke-width:0.5;" width="155" x="312" y="732.7676"/><text fill="#000000" font-family="sans-serif" font-size="14" lengthAdjust="spacing" textLength="141" x="319" y="753.3027">TakeExamController</text><rect fill="#E2E2F0" height="30.4883" rx="2.5" ry="2.5" style="stroke:#181818;stroke-width:0.5;" width="178" x="477" y="50"/><text fill="#000000" font-family="sans-serif" font-size="14" lengthAdjust="spacing" textLength="164" x="484" y="70.5352">RegularExamRepository</text><rect fill="#E2E2F0" height="30.4883" rx="2.5" ry="2.5" style="stroke:#181818;stroke-width:0.5;" width="178" x="477" y="732.7676"/><text fill="#000000" font-family="sans-serif" font-size="14" lengthAdjust="spacing" textLength="164" x="484" y="753.3027">RegularExamRepository</text><rect fill="#E2E2F0" height="30.4883" rx="2.5" ry="2.5" style="stroke:#181818;stroke-width:0.5;" width="191" x="665" y="50"/><text fill="#000000" font-family="sans-serif" font-size="14" lengthAdjust="spacing" textLength="177" x="672" y="70.5352">GradeExamServiceFactory</text><rect fill="#E2E2F0" height="30.4883" rx="2.5" ry="2.5" style="stroke:#181818;stroke-width:0.5;" width="191" x="665" y="732.7676"/><text fill="#000000" font-family="sans-serif" font-size="14" lengthAdjust="spacing" textLength="177" x="672" y="753.3027">GradeExamServiceFactory</text><rect fill="#E2E2F0" height="30.4883" rx="2.5" ry="2.5" style="stroke:#181818;stroke-width:0.5;" width="141" x="866" y="50"/><text fill="#000000" font-family="sans-serif" font-size="14" lengthAdjust="spacing" textLength="127" x="873" y="70.5352">GradeExamService</text><rect fill="#E2E2F0" height="30.4883" rx="2.5" ry="2.5" style="stroke:#181818;stroke-width:0.5;" width="141" x="866" y="732.7676"/><text fill="#000000" font-family="sans-serif" font-size="14" lengthAdjust="spacing" textLength="127" x="873" y="753.3027">GradeExamService</text><rect fill="#E2E2F0" height="30.4883" rx="2.5" ry="2.5" style="stroke:#181818;stroke-width:0.5;" width="150" x="1017" y="50"/><text fill="#000000" font-family="sans-serif" font-size="14" lengthAdjust="spacing" textLength="136" x="1024" y="70.5352">CorrectedExamDTO</text><rect fill="#E2E2F0" height="30.4883" rx="2.5" ry="2.5" style="stroke:#181818;stroke-width:0.5;" width="150" x="1017" y="732.7676"/><text fill="#000000" font-family="sans-serif" font-size="14" lengthAdjust="spacing" textLength="136" x="1024" y="753.3027">CorrectedExamDTO</text><rect fill="#E2E2F0" height="30.4883" rx="2.5" ry="2.5" style="stroke:#181818;stroke-width:0.5;" width="94" x="1177" y="50"/><text fill="#000000" font-family="sans-serif" font-size="14" lengthAdjust="spacing" textLength="80" x="1184" y="70.5352">ExamResult</text><rect fill="#E2E2F0" height="30.4883" rx="2.5" ry="2.5" style="stroke:#181818;stroke-width:0.5;" width="94" x="1177" y="732.7676"/><text fill="#000000" font-family="sans-serif" font-size="14" lengthAdjust="spacing" textLength="80" x="1184" y="753.3027">ExamResult</text><rect fill="#E2E2F0" height="30.4883" rx="2.5" ry="2.5" style="stroke:#181818;stroke-width:0.5;" width="220" x="1281" y="50"/><text fill="#000000" font-family="sans-serif" font-size="14" lengthAdjust="spacing" textLength="206" x="1288" y="70.5352">RegularExamResultRepository</text><rect fill="#E2E2F0" height="30.4883" rx="2.5" ry="2.5" style="stroke:#181818;stroke-width:0.5;" width="220" x="1281" y="732.7676"/><text fill="#000000" font-family="sans-serif" font-size="14" lengthAdjust="spacing" textLength="206" x="1288" y="753.3027">RegularExamResultRepository</text><rect fill="#E2E2F0" height="30.4883" rx="2.5" ry="2.5" style="stroke:#181818;stroke-width:0.5;" width="176" x="1511" y="50"/><text fill="#000000" font-family="sans-serif" font-size="14" lengthAdjust="spacing" textLength="162" x="1518" y="70.5352">ExamResultDTOMapper</text><rect fill="#E2E2F0" height="30.4883" rx="2.5" ry="2.5" style="stroke:#181818;stroke-width:0.5;" width="176" x="1511" y="732.7676"/><text fill="#000000" font-family="sans-serif" font-size="14" lengthAdjust="spacing" textLength="162" x="1518" y="753.3027">ExamResultDTOMapper</text><rect fill="#E2E2F0" height="30.4883" rx="2.5" ry="2.5" style="stroke:#181818;stroke-width:0.5;" width="124" x="1697" y="50"/><text fill="#000000" font-family="sans-serif" font-size="14" lengthAdjust="spacing" textLength="110" x="1704" y="70.5352">ExamResultDTO</text><rect fill="#E2E2F0" height="30.4883" rx="2.5" ry="2.5" style="stroke:#181818;stroke-width:0.5;" width="124" x="1697" y="732.7676"/><text fill="#000000" font-family="sans-serif" font-size="14" lengthAdjust="spacing" textLength="110" x="1704" y="753.3027">ExamResultDTO</text><rect fill="#FFFFFF" height="602.9688" style="stroke:#181818;stroke-width:1.0;" width="10" x="172.5" y="112.7988"/><rect fill="#FFFFFF" height="544.3477" style="stroke:#181818;stroke-width:1.0;" width="10" x="384.5" y="142.1094"/><rect fill="#FFFFFF" height="29.3105" style="stroke:#181818;stroke-width:1.0;" width="10" x="561" y="171.4199"/><rect fill="#FFFFFF" height="30" style="stroke:#181818;stroke-width:1.0;" width="10" x="755.5" y="240.6963"/><rect fill="#FFFFFF" height="99.2764" style="stroke:#181818;stroke-width:1.0;" width="10" x="931.5" y="321.3174"/><rect fill="#FFFFFF" height="30" style="stroke:#181818;stroke-width:1.0;" width="10" x="1087" y="361.2832"/><rect fill="#FFFFFF" height="30" style="stroke:#181818;stroke-width:1.0;" width="10" x="1219" y="449.9043"/><rect fill="#FFFFFF" height="30" style="stroke:#181818;stroke-width:1.0;" width="10" x="1386" y="509.2148"/><rect fill="#FFFFFF" height="88.6211" style="stroke:#181818;stroke-width:1.0;" width="10" x="1594" y="568.5254"/><rect fill="#FFFFFF" height="30" style="stroke:#181818;stroke-width:1.0;" width="10" x="1754" y="597.8359"/><polygon fill="#181818" points="160.5,108.7988,170.5,112.7988,160.5,116.7988,164.5,112.7988" style="stroke:#181818;stroke-width:1.0;"/><line style="stroke:#181818;stroke-width:1.0;stroke-dasharray:2.0,2.0;" x1="34.5" x2="166.5" y1="112.7988" y2="112.7988"/><text fill="#000000" font-family="sans-serif" font-size="13" lengthAdjust="spacing" textLength="119" x="41.5" y="108.0566">submits resolution</text><polygon fill="#181818" points="372.5,138.1094,382.5,142.1094,372.5,146.1094,376.5,142.1094" style="stroke:#181818;stroke-width:1.0;"/><line style="stroke:#181818;stroke-width:1.0;stroke-dasharray:2.0,2.0;" x1="182.5" x2="378.5" y1="142.1094" y2="142.1094"/><text fill="#000000" font-family="sans-serif" font-size="13" lengthAdjust="spacing" textLength="183" x="189.5" y="137.3672">examGrading(resolutionDTO)</text><polygon fill="#181818" points="549,167.4199,559,171.4199,549,175.4199,553,171.4199" style="stroke:#181818;stroke-width:1.0;"/><line style="stroke:#181818;stroke-width:1.0;stroke-dasharray:2.0,2.0;" x1="394.5" x2="555" y1="171.4199" y2="171.4199"/><text fill="#000000" font-family="sans-serif" font-size="13" lengthAdjust="spacing" textLength="69" x="401.5" y="166.6777">ofIdentity()</text><polygon fill="#181818" points="405.5,196.7305,395.5,200.7305,405.5,204.7305,401.5,200.7305" style="stroke:#181818;stroke-width:1.0;"/><line style="stroke:#181818;stroke-width:1.0;stroke-dasharray:2.0,2.0;" x1="399.5" x2="565" y1="200.7305" y2="200.7305"/><text fill="#000000" font-family="sans-serif" font-size="13" lengthAdjust="spacing" textLength="34" x="411.5" y="195.9883">exam</text><polygon fill="#181818" points="743.5,236.6963,753.5,240.6963,743.5,244.6963,747.5,240.6963" style="stroke:#181818;stroke-width:1.0;"/><line style="stroke:#181818;stroke-width:1.0;stroke-dasharray:2.0,2.0;" x1="394.5" x2="749.5" y1="240.6963" y2="240.6963"/><text fill="#000000" font-family="sans-serif" font-size="13" lengthAdjust="spacing" textLength="127" x="401.5" y="235.9541">examGraderService()</text><path d="M770,213.7305 L770,253.7305 L964,253.7305 L964,223.7305 L954,213.7305 L770,213.7305 " fill="#FEFFDD" style="stroke:#181818;stroke-width:0.5;"/><path d="M954,213.7305 L954,223.7305 L964,223.7305 L954,213.7305 " fill="#FEFFDD" style="stroke:#181818;stroke-width:0.5;"/><text fill="#000000" font-family="sans-serif" font-size="13" lengthAdjust="spacing" textLength="169" x="776" y="231.2988">grader service obtained via</text><text fill="#000000" font-family="sans-serif" font-size="13" lengthAdjust="spacing" textLength="88" x="776" y="246.6094">properties file</text><polygon fill="#181818" points="919.5,317.3174,929.5,321.3174,919.5,325.3174,923.5,321.3174" style="stroke:#181818;stroke-width:1.0;"/><line style="stroke:#181818;stroke-width:1.0;stroke-dasharray:2.0,2.0;" x1="394.5" x2="925.5" y1="321.3174" y2="321.3174"/><text fill="#000000" font-family="sans-serif" font-size="13" lengthAdjust="spacing" textLength="120" x="401.5" y="316.5752">correctExam(exam)</text><path d="M946,294.3516 L946,334.3516 L1108,334.3516 L1108,304.3516 L1098,294.3516 L946,294.3516 " fill="#FEFFDD" style="stroke:#181818;stroke-width:0.5;"/><path d="M1098,294.3516 L1098,304.3516 L1108,304.3516 L1098,294.3516 " fill="#FEFFDD" style="stroke:#181818;stroke-width:0.5;"/><text fill="#000000" font-family="sans-serif" font-size="13" lengthAdjust="spacing" textLength="137" x="952" y="311.9199">exam correction done</text><text fill="#000000" font-family="sans-serif" font-size="13" lengthAdjust="spacing" textLength="137" x="952" y="327.2305">by an external service</text><polygon fill="#181818" points="1075,357.2832,1085,361.2832,1075,365.2832,1079,361.2832" style="stroke:#181818;stroke-width:1.0;"/><line style="stroke:#181818;stroke-width:1.0;stroke-dasharray:2.0,2.0;" x1="941.5" x2="1081" y1="361.2832" y2="361.2832"/><text fill="#000000" font-family="sans-serif" font-size="13" lengthAdjust="spacing" textLength="46" x="948.5" y="356.541">create()</text><polygon fill="#181818" points="405.5,416.5938,395.5,420.5938,405.5,424.5938,401.5,420.5938" style="stroke:#181818;stroke-width:1.0;"/><line style="stroke:#181818;stroke-width:1.0;stroke-dasharray:2.0,2.0;" x1="399.5" x2="935.5" y1="420.5938" y2="420.5938"/><text fill="#000000" font-family="sans-serif" font-size="13" lengthAdjust="spacing" textLength="64" x="411.5" y="415.8516">resultDTO</text><polygon fill="#181818" points="1207,445.9043,1217,449.9043,1207,453.9043,1211,449.9043" style="stroke:#181818;stroke-width:1.0;"/><line style="stroke:#181818;stroke-width:1.0;stroke-dasharray:2.0,2.0;" x1="394.5" x2="1213" y1="449.9043" y2="449.9043"/><text fill="#000000" font-family="sans-serif" font-size="13" lengthAdjust="spacing" textLength="46" x="401.5" y="445.1621">create()</text><polygon fill="#181818" points="1374,505.2148,1384,509.2148,1374,513.2148,1378,509.2148" style="stroke:#181818;stroke-width:1.0;"/><line style="stroke:#181818;stroke-width:1.0;stroke-dasharray:2.0,2.0;" x1="394.5" x2="1380" y1="509.2148" y2="509.2148"/><text fill="#000000" font-family="sans-serif" font-size="13" lengthAdjust="spacing" textLength="36" x="401.5" y="504.4727">save()</text><polygon fill="#181818" points="1582,564.5254,1592,568.5254,1582,572.5254,1586,568.5254" style="stroke:#181818;stroke-width:1.0;"/><line style="stroke:#181818;stroke-width:1.0;stroke-dasharray:2.0,2.0;" x1="394.5" x2="1588" y1="568.5254" y2="568.5254"/><text fill="#000000" font-family="sans-serif" font-size="13" lengthAdjust="spacing" textLength="49" x="401.5" y="563.7832">toDTO()</text><polygon fill="#181818" points="1742,593.8359,1752,597.8359,1742,601.8359,1746,597.8359" style="stroke:#181818;stroke-width:1.0;"/><line style="stroke:#181818;stroke-width:1.0;stroke-dasharray:2.0,2.0;" x1="1604" x2="1748" y1="597.8359" y2="597.8359"/><text fill="#000000" font-family="sans-serif" font-size="13" lengthAdjust="spacing" textLength="46" x="1611" y="593.0938">create()</text><polygon fill="#181818" points="405.5,653.1465,395.5,657.1465,405.5,661.1465,401.5,657.1465" style="stroke:#181818;stroke-width:1.0;"/><line style="stroke:#181818;stroke-width:1.0;stroke-dasharray:2.0,2.0;" x1="399.5" x2="1598" y1="657.1465" y2="657.1465"/><text fill="#000000" font-family="sans-serif" font-size="13" lengthAdjust="spacing" textLength="64" x="411.5" y="652.4043">resultDTO</text><polygon fill="#181818" points="193.5,682.457,183.5,686.457,193.5,690.457,189.5,686.457" style="stroke:#181818;stroke-width:1.0;"/><line style="stroke:#181818;stroke-width:1.0;stroke-dasharray:2.0,2.0;" x1="187.5" x2="388.5" y1="686.457" y2="686.457"/><text fill="#000000" font-family="sans-serif" font-size="13" lengthAdjust="spacing" textLength="64" x="199.5" y="681.7148">resultDTO</text><polygon fill="#181818" points="45.5,711.7676,35.5,715.7676,45.5,719.7676,41.5,715.7676" style="stroke:#181818;stroke-width:1.0;"/><line style="stroke:#181818;stroke-width:1.0;stroke-dasharray:2.0,2.0;" x1="39.5" x2="176.5" y1="715.7676" y2="715.7676"/><text fill="#000000" font-family="sans-serif" font-size="13" lengthAdjust="spacing" textLength="87" x="51.5" y="711.0254">present result</text><!--SRC=[ZLIxRiCm3Dpp5HhJeJ-GeKjVw50Kw6Ch42Wsamfr98EIZVRlIygI8zcMKK-6T4SUUHHbvGoADzVLe9sGLjZXTzDATAfIhQJZT_aDzp_o_F74Y4ujNjuQxT0q3I23AeVD9iEzmgbh93Bq5LfZ5IN-PIZGoHxfACS_egnzu3V0NbNm8Al8EF4Lxe_3oIehWTk-oZFS6aIe7DICltj_yRhZsRvs4q63Sjirla_e_rPAvEkyq86oKEg5G2gUPTiEFGpuipye4nAernmS5DVND-ILs0dR7SxAUP1fEgUCtb3dL2yTi9c2Fi8nd5qZ0Zl2ZLJwjBsGADML1uzaRx88d-ToaD5FYcIEJwn5kT_jrOWS-HVdHV9T-1D98wg6XH1p8VcO97K1XkbO4ZKPhbIPDdIFwlJbTW4cR1WpSt1IQQX5hwJur2qQyimfiEAe6bXIFibJb4zZIzB3NBBnMowZB9p7l2IQcJ4KEIfgeu7K7cWyDLqwG2sRM5CM9H7ZNKcV2Sj380b9E_CvoHvL2adwKGPDSmyJWN7-Lvhhd_oiiGDpIVN83wzx8N9yzuMeSV2jx5S2vqC_YruQw6mXK19dgFoLB65pfBtCGoH1_-DZicKA9XOGywp_CJ6lOjuElzpo2EaynUKKTbjSYplH4eV_WfK9frD_]--></g></svg>