<?xml version="1.0" encoding="us-ascii" standalone="no"?><svg xmlns="http://www.w3.org/2000/svg" xmlns:xlink="http://www.w3.org/1999/xlink" contentStyleType="text/css" height="900px" preserveAspectRatio="none" style="width:1944px;height:900px;background:#1B1B1B;" version="1.1" viewBox="0 0 1944 900" width="1944px" zoomAndPan="magnify"><defs/><g><rect fill="#1B1B1B" height="900" style="stroke:none;stroke-width:1.0;" width="1944" x="0" y="0"/><rect fill="#000000" height="681.0023" style="stroke:#E7E7E7;stroke-width:1.0;" width="10" x="165.5" y="117.7739"/><rect fill="#000000" height="617.5902" style="stroke:#E7E7E7;stroke-width:1.0;" width="10" x="370.5" y="149.4799"/><rect fill="#000000" height="31.706" style="stroke:#E7E7E7;stroke-width:1.0;" width="10" x="541.5" y="181.186"/><rect fill="#000000" height="93.412" style="stroke:#E7E7E7;stroke-width:1.0;" width="10" x="703" y="244.598"/><rect fill="#000000" height="61.706" style="stroke:#E7E7E7;stroke-width:1.0;" width="10" x="856" y="276.304"/><rect fill="#000000" height="30" style="stroke:#E7E7E7;stroke-width:1.0;" width="10" x="1012.5" y="308.01"/><rect fill="#000000" height="105.265" style="stroke:#E7E7E7;stroke-width:1.0;" width="10" x="1012.5" y="381.5691"/><rect fill="#000000" height="30" style="stroke:#E7E7E7;stroke-width:1.0;" width="10" x="1164.5" y="425.1281"/><rect fill="#000000" height="30" style="stroke:#E7E7E7;stroke-width:1.0;" width="10" x="1319.5" y="518.5401"/><rect fill="#000000" height="30" style="stroke:#E7E7E7;stroke-width:1.0;" width="10" x="1510" y="580.2461"/><rect fill="#000000" height="93.412" style="stroke:#E7E7E7;stroke-width:1.0;" width="10" x="1715" y="641.9521"/><rect fill="#000000" height="30" style="stroke:#E7E7E7;stroke-width:1.0;" width="10" x="1872.5" y="673.6582"/><line style="stroke:#E7E7E7;stroke-width:0.5;stroke-dasharray:5.0,5.0;" x1="34" x2="34" y1="84.0679" y2="816.7762"/><line style="stroke:#E7E7E7;stroke-width:0.5;stroke-dasharray:5.0,5.0;" x1="170.5" x2="170.5" y1="84.0679" y2="816.7762"/><line style="stroke:#E7E7E7;stroke-width:0.5;stroke-dasharray:5.0,5.0;" x1="375.5" x2="375.5" y1="84.0679" y2="816.7762"/><line style="stroke:#E7E7E7;stroke-width:0.5;stroke-dasharray:5.0,5.0;" x1="546.5" x2="546.5" y1="84.0679" y2="816.7762"/><line style="stroke:#E7E7E7;stroke-width:0.5;stroke-dasharray:5.0,5.0;" x1="707.5" x2="707.5" y1="84.0679" y2="816.7762"/><line style="stroke:#E7E7E7;stroke-width:0.5;stroke-dasharray:5.0,5.0;" x1="861" x2="861" y1="84.0679" y2="816.7762"/><line style="stroke:#E7E7E7;stroke-width:0.5;stroke-dasharray:5.0,5.0;" x1="1017" x2="1017" y1="84.0679" y2="816.7762"/><line style="stroke:#E7E7E7;stroke-width:0.5;stroke-dasharray:5.0,5.0;" x1="1169" x2="1169" y1="84.0679" y2="816.7762"/><line style="stroke:#E7E7E7;stroke-width:0.5;stroke-dasharray:5.0,5.0;" x1="1324" x2="1324" y1="84.0679" y2="816.7762"/><line style="stroke:#E7E7E7;stroke-width:0.5;stroke-dasharray:5.0,5.0;" x1="1515" x2="1515" y1="84.0679" y2="816.7762"/><line style="stroke:#E7E7E7;stroke-width:0.5;stroke-dasharray:5.0,5.0;" x1="1720" x2="1720" y1="84.0679" y2="816.7762"/><line style="stroke:#E7E7E7;stroke-width:0.5;stroke-dasharray:5.0,5.0;" x1="1877" x2="1877" y1="84.0679" y2="816.7762"/><text fill="#FFFFFF" font-family="sans-serif" font-size="14" lengthAdjust="spacing" textLength="53" x="5" y="79.9659">Student</text><ellipse cx="34.5" cy="13.5" fill="#222222" rx="8" ry="8" style="stroke:#E7E7E7;stroke-width:0.5;"/><path d="M34.5,21.5 L34.5,48.5 M21.5,29.5 L47.5,29.5 M34.5,48.5 L21.5,63.5 M34.5,48.5 L47.5,63.5 " fill="none" style="stroke:#E7E7E7;stroke-width:0.5;"/><text fill="#FFFFFF" font-family="sans-serif" font-size="14" lengthAdjust="spacing" textLength="53" x="5" y="830.7421">Student</text><ellipse cx="34.5" cy="843.3441" fill="#222222" rx="8" ry="8" style="stroke:#E7E7E7;stroke-width:0.5;"/><path d="M34.5,851.3441 L34.5,878.3441 M21.5,859.3441 L47.5,859.3441 M34.5,878.3441 L21.5,893.3441 M34.5,878.3441 L47.5,893.3441 " fill="none" style="stroke:#E7E7E7;stroke-width:0.5;"/><rect fill="#222222" height="33.0679" rx="2.5" ry="2.5" style="stroke:#E7E7E7;stroke-width:0.5;" width="96" x="122.5" y="50"/><text fill="#FFFFFF" font-family="sans-serif" font-size="14" lengthAdjust="spacing" textLength="82" x="129.5" y="71.9659">TakeExamUI</text><rect fill="#222222" height="33.0679" rx="2.5" ry="2.5" style="stroke:#E7E7E7;stroke-width:0.5;" width="96" x="122.5" y="815.7762"/><text fill="#FFFFFF" font-family="sans-serif" font-size="14" lengthAdjust="spacing" textLength="82" x="129.5" y="837.7421">TakeExamUI</text><rect fill="#222222" height="33.0679" rx="2.5" ry="2.5" style="stroke:#E7E7E7;stroke-width:0.5;" width="148" x="301.5" y="50"/><text fill="#FFFFFF" font-family="sans-serif" font-size="14" lengthAdjust="spacing" textLength="134" x="308.5" y="71.9659">TakeExamController</text><rect fill="#222222" height="33.0679" rx="2.5" ry="2.5" style="stroke:#E7E7E7;stroke-width:0.5;" width="148" x="301.5" y="815.7762"/><text fill="#FFFFFF" font-family="sans-serif" font-size="14" lengthAdjust="spacing" textLength="134" x="308.5" y="837.7421">TakeExamController</text><rect fill="#222222" height="33.0679" rx="2.5" ry="2.5" style="stroke:#E7E7E7;stroke-width:0.5;" width="174" x="459.5" y="50"/><text fill="#FFFFFF" font-family="sans-serif" font-size="14" lengthAdjust="spacing" textLength="160" x="466.5" y="71.9659">RegularExamRepository</text><rect fill="#222222" height="33.0679" rx="2.5" ry="2.5" style="stroke:#E7E7E7;stroke-width:0.5;" width="174" x="459.5" y="815.7762"/><text fill="#FFFFFF" font-family="sans-serif" font-size="14" lengthAdjust="spacing" textLength="160" x="466.5" y="837.7421">RegularExamRepository</text><rect fill="#222222" height="33.0679" rx="2.5" ry="2.5" style="stroke:#E7E7E7;stroke-width:0.5;" width="129" x="643.5" y="50"/><text fill="#FFFFFF" font-family="sans-serif" font-size="14" lengthAdjust="spacing" textLength="115" x="650.5" y="71.9659">GrammarContext</text><rect fill="#222222" height="33.0679" rx="2.5" ry="2.5" style="stroke:#E7E7E7;stroke-width:0.5;" width="129" x="643.5" y="815.7762"/><text fill="#FFFFFF" font-family="sans-serif" font-size="14" lengthAdjust="spacing" textLength="115" x="650.5" y="837.7421">GrammarContext</text><rect fill="#222222" height="33.0679" rx="2.5" ry="2.5" style="stroke:#E7E7E7;stroke-width:0.5;" width="154" x="784" y="50"/><text fill="#FFFFFF" font-family="sans-serif" font-size="14" lengthAdjust="spacing" textLength="140" x="791" y="71.9659">GrammarToolFactory</text><rect fill="#222222" height="33.0679" rx="2.5" ry="2.5" style="stroke:#E7E7E7;stroke-width:0.5;" width="154" x="784" y="815.7762"/><text fill="#FFFFFF" font-family="sans-serif" font-size="14" lengthAdjust="spacing" textLength="140" x="791" y="837.7421">GrammarToolFactory</text><rect fill="#222222" height="33.0679" rx="2.5" ry="2.5" style="stroke:#E7E7E7;stroke-width:0.5;" width="139" x="948" y="50"/><text fill="#FFFFFF" font-family="sans-serif" font-size="14" lengthAdjust="spacing" textLength="125" x="955" y="71.9659">GradeExamService</text><rect fill="#222222" height="33.0679" rx="2.5" ry="2.5" style="stroke:#E7E7E7;stroke-width:0.5;" width="139" x="948" y="815.7762"/><text fill="#FFFFFF" font-family="sans-serif" font-size="14" lengthAdjust="spacing" textLength="125" x="955" y="837.7421">GradeExamService</text><rect fill="#222222" height="33.0679" rx="2.5" ry="2.5" style="stroke:#E7E7E7;stroke-width:0.5;" width="145" x="1097" y="50"/><text fill="#FFFFFF" font-family="sans-serif" font-size="14" lengthAdjust="spacing" textLength="131" x="1104" y="71.9659">CorrectedExamDTO</text><rect fill="#222222" height="33.0679" rx="2.5" ry="2.5" style="stroke:#E7E7E7;stroke-width:0.5;" width="145" x="1097" y="815.7762"/><text fill="#FFFFFF" font-family="sans-serif" font-size="14" lengthAdjust="spacing" textLength="131" x="1104" y="837.7421">CorrectedExamDTO</text><rect fill="#222222" height="33.0679" rx="2.5" ry="2.5" style="stroke:#E7E7E7;stroke-width:0.5;" width="145" x="1252" y="50"/><text fill="#FFFFFF" font-family="sans-serif" font-size="14" lengthAdjust="spacing" textLength="131" x="1259" y="71.9659">RegularExamResult</text><rect fill="#222222" height="33.0679" rx="2.5" ry="2.5" style="stroke:#E7E7E7;stroke-width:0.5;" width="145" x="1252" y="815.7762"/><text fill="#FFFFFF" font-family="sans-serif" font-size="14" lengthAdjust="spacing" textLength="131" x="1259" y="837.7421">RegularExamResult</text><rect fill="#222222" height="33.0679" rx="2.5" ry="2.5" style="stroke:#E7E7E7;stroke-width:0.5;" width="216" x="1407" y="50"/><text fill="#FFFFFF" font-family="sans-serif" font-size="14" lengthAdjust="spacing" textLength="202" x="1414" y="71.9659">RegularExamResultRepository</text><rect fill="#222222" height="33.0679" rx="2.5" ry="2.5" style="stroke:#E7E7E7;stroke-width:0.5;" width="216" x="1407" y="815.7762"/><text fill="#FFFFFF" font-family="sans-serif" font-size="14" lengthAdjust="spacing" textLength="202" x="1414" y="837.7421">RegularExamResultRepository</text><rect fill="#222222" height="33.0679" rx="2.5" ry="2.5" style="stroke:#E7E7E7;stroke-width:0.5;" width="174" x="1633" y="50"/><text fill="#FFFFFF" font-family="sans-serif" font-size="14" lengthAdjust="spacing" textLength="160" x="1640" y="71.9659">ExamResultDTOMapper</text><rect fill="#222222" height="33.0679" rx="2.5" ry="2.5" style="stroke:#E7E7E7;stroke-width:0.5;" width="174" x="1633" y="815.7762"/><text fill="#FFFFFF" font-family="sans-serif" font-size="14" lengthAdjust="spacing" textLength="160" x="1640" y="837.7421">ExamResultDTOMapper</text><rect fill="#222222" height="33.0679" rx="2.5" ry="2.5" style="stroke:#E7E7E7;stroke-width:0.5;" width="121" x="1817" y="50"/><text fill="#FFFFFF" font-family="sans-serif" font-size="14" lengthAdjust="spacing" textLength="107" x="1824" y="71.9659">ExamResultDTO</text><rect fill="#222222" height="33.0679" rx="2.5" ry="2.5" style="stroke:#E7E7E7;stroke-width:0.5;" width="121" x="1817" y="815.7762"/><text fill="#FFFFFF" font-family="sans-serif" font-size="14" lengthAdjust="spacing" textLength="107" x="1824" y="837.7421">ExamResultDTO</text><rect fill="#000000" height="681.0023" style="stroke:#E7E7E7;stroke-width:1.0;" width="10" x="165.5" y="117.7739"/><rect fill="#000000" height="617.5902" style="stroke:#E7E7E7;stroke-width:1.0;" width="10" x="370.5" y="149.4799"/><rect fill="#000000" height="31.706" style="stroke:#E7E7E7;stroke-width:1.0;" width="10" x="541.5" y="181.186"/><rect fill="#000000" height="93.412" style="stroke:#E7E7E7;stroke-width:1.0;" width="10" x="703" y="244.598"/><rect fill="#000000" height="61.706" style="stroke:#E7E7E7;stroke-width:1.0;" width="10" x="856" y="276.304"/><rect fill="#000000" height="30" style="stroke:#E7E7E7;stroke-width:1.0;" width="10" x="1012.5" y="308.01"/><rect fill="#000000" height="105.265" style="stroke:#E7E7E7;stroke-width:1.0;" width="10" x="1012.5" y="381.5691"/><rect fill="#000000" height="30" style="stroke:#E7E7E7;stroke-width:1.0;" width="10" x="1164.5" y="425.1281"/><rect fill="#000000" height="30" style="stroke:#E7E7E7;stroke-width:1.0;" width="10" x="1319.5" y="518.5401"/><rect fill="#000000" height="30" style="stroke:#E7E7E7;stroke-width:1.0;" width="10" x="1510" y="580.2461"/><rect fill="#000000" height="93.412" style="stroke:#E7E7E7;stroke-width:1.0;" width="10" x="1715" y="641.9521"/><rect fill="#000000" height="30" style="stroke:#E7E7E7;stroke-width:1.0;" width="10" x="1872.5" y="673.6582"/><polygon fill="#E7E7E7" points="153.5,113.7739,163.5,117.7739,153.5,121.7739,157.5,117.7739" style="stroke:#E7E7E7;stroke-width:1.0;"/><line style="stroke:#E7E7E7;stroke-width:1.0;stroke-dasharray:2.0,2.0;" x1="34.5" x2="159.5" y1="117.7739" y2="117.7739"/><text fill="#FFFFFF" font-family="sans-serif" font-size="13" lengthAdjust="spacing" textLength="112" x="41.5" y="111.9649">submits resolution</text><polygon fill="#E7E7E7" points="358.5,145.4799,368.5,149.4799,358.5,153.4799,362.5,149.4799" style="stroke:#E7E7E7;stroke-width:1.0;"/><line style="stroke:#E7E7E7;stroke-width:1.0;stroke-dasharray:2.0,2.0;" x1="175.5" x2="364.5" y1="149.4799" y2="149.4799"/><text fill="#FFFFFF" font-family="sans-serif" font-size="13" lengthAdjust="spacing" textLength="176" x="182.5" y="143.6709">examGrading(resolutionDTO)</text><polygon fill="#E7E7E7" points="529.5,177.186,539.5,181.186,529.5,185.186,533.5,181.186" style="stroke:#E7E7E7;stroke-width:1.0;"/><line style="stroke:#E7E7E7;stroke-width:1.0;stroke-dasharray:2.0,2.0;" x1="380.5" x2="535.5" y1="181.186" y2="181.186"/><text fill="#FFFFFF" font-family="sans-serif" font-size="13" lengthAdjust="spacing" textLength="67" x="387.5" y="175.377">ofIdentity()</text><polygon fill="#E7E7E7" points="391.5,208.892,381.5,212.892,391.5,216.892,387.5,212.892" style="stroke:#E7E7E7;stroke-width:1.0;"/><line style="stroke:#E7E7E7;stroke-width:1.0;stroke-dasharray:2.0,2.0;" x1="385.5" x2="545.5" y1="212.892" y2="212.892"/><text fill="#FFFFFF" font-family="sans-serif" font-size="13" lengthAdjust="spacing" textLength="33" x="397.5" y="207.083">exam</text><polygon fill="#E7E7E7" points="691,240.598,701,244.598,691,248.598,695,244.598" style="stroke:#E7E7E7;stroke-width:1.0;"/><line style="stroke:#E7E7E7;stroke-width:1.0;stroke-dasharray:2.0,2.0;" x1="380.5" x2="697" y1="244.598" y2="244.598"/><text fill="#FFFFFF" font-family="sans-serif" font-size="13" lengthAdjust="spacing" textLength="96" x="387.5" y="238.789">grammarTools()</text><polygon fill="#E7E7E7" points="844,272.304,854,276.304,844,280.304,848,276.304" style="stroke:#E7E7E7;stroke-width:1.0;"/><line style="stroke:#E7E7E7;stroke-width:1.0;stroke-dasharray:2.0,2.0;" x1="713" x2="850" y1="276.304" y2="276.304"/><text fill="#FFFFFF" font-family="sans-serif" font-size="13" lengthAdjust="spacing" textLength="124" x="720" y="270.495">examGraderService()</text><polygon fill="#E7E7E7" points="1000.5,304.01,1010.5,308.01,1000.5,312.01,1004.5,308.01" style="stroke:#E7E7E7;stroke-width:1.0;"/><line style="stroke:#E7E7E7;stroke-width:1.0;stroke-dasharray:2.0,2.0;" x1="866" x2="1006.5" y1="308.01" y2="308.01"/><text fill="#FFFFFF" font-family="sans-serif" font-size="13" lengthAdjust="spacing" textLength="45" x="873" y="302.201">create()</text><polygon fill="#E7E7E7" points="1000.5,377.5691,1010.5,381.5691,1000.5,385.5691,1004.5,381.5691" style="stroke:#E7E7E7;stroke-width:1.0;"/><line style="stroke:#E7E7E7;stroke-width:1.0;stroke-dasharray:2.0,2.0;" x1="380.5" x2="1006.5" y1="381.5691" y2="381.5691"/><text fill="#FFFFFF" font-family="sans-serif" font-size="13" lengthAdjust="spacing" textLength="116" x="387.5" y="375.7601">correctExam(exam)</text><path d="M1027,351.01 L1027,396.01 L1182,396.01 L1182,361.01 L1172,351.01 L1027,351.01 " fill="#714137" style="stroke:#E7E7E7;stroke-width:0.5;"/><path d="M1172,351.01 L1172,361.01 L1182,361.01 L1172,351.01 " fill="#714137" style="stroke:#E7E7E7;stroke-width:0.5;"/><text fill="#FFFFFF" font-family="sans-serif" font-size="13" lengthAdjust="spacing" textLength="131" x="1033" y="369.907">exam correction done</text><text fill="#FFFFFF" font-family="sans-serif" font-size="13" lengthAdjust="spacing" textLength="129" x="1033" y="387.6131">by an external service</text><polygon fill="#E7E7E7" points="1152.5,421.1281,1162.5,425.1281,1152.5,429.1281,1156.5,425.1281" style="stroke:#E7E7E7;stroke-width:1.0;"/><line style="stroke:#E7E7E7;stroke-width:1.0;stroke-dasharray:2.0,2.0;" x1="1022.5" x2="1158.5" y1="425.1281" y2="425.1281"/><text fill="#FFFFFF" font-family="sans-serif" font-size="13" lengthAdjust="spacing" textLength="45" x="1029.5" y="419.3191">create()</text><polygon fill="#E7E7E7" points="391.5,482.8341,381.5,486.8341,391.5,490.8341,387.5,486.8341" style="stroke:#E7E7E7;stroke-width:1.0;"/><line style="stroke:#E7E7E7;stroke-width:1.0;stroke-dasharray:2.0,2.0;" x1="385.5" x2="1016.5" y1="486.8341" y2="486.8341"/><text fill="#FFFFFF" font-family="sans-serif" font-size="13" lengthAdjust="spacing" textLength="60" x="397.5" y="481.0251">resultDTO</text><polygon fill="#E7E7E7" points="1307.5,514.5401,1317.5,518.5401,1307.5,522.5401,1311.5,518.5401" style="stroke:#E7E7E7;stroke-width:1.0;"/><line style="stroke:#E7E7E7;stroke-width:1.0;stroke-dasharray:2.0,2.0;" x1="380.5" x2="1313.5" y1="518.5401" y2="518.5401"/><text fill="#FFFFFF" font-family="sans-serif" font-size="13" lengthAdjust="spacing" textLength="45" x="387.5" y="512.7311">create()</text><polygon fill="#E7E7E7" points="1498,576.2461,1508,580.2461,1498,584.2461,1502,580.2461" style="stroke:#E7E7E7;stroke-width:1.0;"/><line style="stroke:#E7E7E7;stroke-width:1.0;stroke-dasharray:2.0,2.0;" x1="380.5" x2="1504" y1="580.2461" y2="580.2461"/><text fill="#FFFFFF" font-family="sans-serif" font-size="13" lengthAdjust="spacing" textLength="69" x="387.5" y="574.4371">save(result)</text><polygon fill="#E7E7E7" points="1703,637.9521,1713,641.9521,1703,645.9521,1707,641.9521" style="stroke:#E7E7E7;stroke-width:1.0;"/><line style="stroke:#E7E7E7;stroke-width:1.0;stroke-dasharray:2.0,2.0;" x1="380.5" x2="1709" y1="641.9521" y2="641.9521"/><text fill="#FFFFFF" font-family="sans-serif" font-size="13" lengthAdjust="spacing" textLength="81" x="387.5" y="636.1431">toDTO(result)</text><polygon fill="#E7E7E7" points="1860.5,669.6582,1870.5,673.6582,1860.5,677.6582,1864.5,673.6582" style="stroke:#E7E7E7;stroke-width:1.0;"/><line style="stroke:#E7E7E7;stroke-width:1.0;stroke-dasharray:2.0,2.0;" x1="1725" x2="1866.5" y1="673.6582" y2="673.6582"/><text fill="#FFFFFF" font-family="sans-serif" font-size="13" lengthAdjust="spacing" textLength="45" x="1732" y="667.8492">create()</text><polygon fill="#E7E7E7" points="391.5,731.3642,381.5,735.3642,391.5,739.3642,387.5,735.3642" style="stroke:#E7E7E7;stroke-width:1.0;"/><line style="stroke:#E7E7E7;stroke-width:1.0;stroke-dasharray:2.0,2.0;" x1="385.5" x2="1719" y1="735.3642" y2="735.3642"/><text fill="#FFFFFF" font-family="sans-serif" font-size="13" lengthAdjust="spacing" textLength="60" x="397.5" y="729.5552">resultDTO</text><polygon fill="#E7E7E7" points="186.5,763.0702,176.5,767.0702,186.5,771.0702,182.5,767.0702" style="stroke:#E7E7E7;stroke-width:1.0;"/><line style="stroke:#E7E7E7;stroke-width:1.0;stroke-dasharray:2.0,2.0;" x1="180.5" x2="374.5" y1="767.0702" y2="767.0702"/><text fill="#FFFFFF" font-family="sans-serif" font-size="13" lengthAdjust="spacing" textLength="60" x="192.5" y="761.2612">resultDTO</text><polygon fill="#E7E7E7" points="45.5,794.7762,35.5,798.7762,45.5,802.7762,41.5,798.7762" style="stroke:#E7E7E7;stroke-width:1.0;"/><line style="stroke:#E7E7E7;stroke-width:1.0;stroke-dasharray:2.0,2.0;" x1="39.5" x2="169.5" y1="798.7762" y2="798.7762"/><text fill="#FFFFFF" font-family="sans-serif" font-size="13" lengthAdjust="spacing" textLength="83" x="51.5" y="792.9672">present result</text><!--SRC=[ZLInRjim4Dtr5Tpg34Pt3rtIjCZG1aYSBO11KnUPi2GA5EKuVzyxaf98YNIZII3VUtnyTpmkZDBinGmbj8RndlNkjoWwheqKikEulkTdUBZovlMH88DCRjwhrcXLrw0998okOv5dg8QQQu8-GwTwYIT_4XHmvQ1nASR_rhnfk2PPk1gdUKqXzahLlxWOvQgaL6azle2-I04EXclwq5z41BrNMeCmK1Byv_x9dZkk7KgZRbog7shhKzk_sxWu0iT8X30JqCiVtdKkNOzlx4AU442jSrzSjjt-m2go7Uk7OoED1QbwC5Ar1GOfBzm0bPdXXpY2KpsHGBMYD6LRRMOI7dLdmHFPbf_vpt99PAeqAgdtH_8YpUVcRa9E_BadMF3D_8Mb2LL2Gc9j13i9cTNSFttA1FLRU3onY5tvAunXWFPz5OX4GjNg9lHLqqtcNaHLeG4v2wc5tDIwIqnm_mmgGeIsWWsw-3gqsALx4zHk6yeX4L_6GAjmJylgP5o2enJs4IjL2-ojFUAZQ77JW6vvpNgNRX67Dvcn1GsVQ2x4-NxHWywaamSjptPzgCTNLzmknZfOnqovdlX-f2IK_KvETNnkFR_0nYrbvG-vVeZ6qxZ_ZVrzsZ_ii6R3iOQjE84uiuyJDmmhK2hsyPsz0vH7BivvTsw2eJ-ZCBd_6lG3Bon6B1H8VwKHWk6OwO8COdtgLxeWliKw53kJOuNeLVgPwaVoECrth4CE_VbU23WunFy1]--></g></svg>