<?xml version="1.0" encoding="us-ascii" standalone="no"?><svg xmlns="http://www.w3.org/2000/svg" xmlns:xlink="http://www.w3.org/1999/xlink" contentStyleType="text/css" height="852px" preserveAspectRatio="none" style="width:1991px;height:852px;background:#FFFFFF;" version="1.1" viewBox="0 0 1991 852" width="1991px" zoomAndPan="magnify"><defs/><g><rect fill="#FFFFFF" height="640.2793" style="stroke:#181818;stroke-width:1.0;" width="10" x="172.5" y="112.7988"/><rect fill="#FFFFFF" height="581.6582" style="stroke:#181818;stroke-width:1.0;" width="10" x="384.5" y="142.1094"/><rect fill="#FFFFFF" height="29.3105" style="stroke:#181818;stroke-width:1.0;" width="10" x="561" y="171.4199"/><rect fill="#FFFFFF" height="88.6211" style="stroke:#181818;stroke-width:1.0;" width="10" x="726.5" y="230.041"/><rect fill="#FFFFFF" height="59.3105" style="stroke:#181818;stroke-width:1.0;" width="10" x="882.5" y="259.3516"/><rect fill="#FFFFFF" height="30" style="stroke:#181818;stroke-width:1.0;" width="10" x="1042.5" y="288.6621"/><rect fill="#FFFFFF" height="99.2764" style="stroke:#181818;stroke-width:1.0;" width="10" x="1042.5" y="358.6279"/><rect fill="#FFFFFF" height="30" style="stroke:#181818;stroke-width:1.0;" width="10" x="1198" y="398.5938"/><rect fill="#FFFFFF" height="30" style="stroke:#181818;stroke-width:1.0;" width="10" x="1356.5" y="487.2148"/><rect fill="#FFFFFF" height="30" style="stroke:#181818;stroke-width:1.0;" width="10" x="1550" y="546.5254"/><rect fill="#FFFFFF" height="88.6211" style="stroke:#181818;stroke-width:1.0;" width="10" x="1758" y="605.8359"/><rect fill="#FFFFFF" height="30" style="stroke:#181818;stroke-width:1.0;" width="10" x="1918" y="635.1465"/><line style="stroke:#181818;stroke-width:0.5;stroke-dasharray:5.0,5.0;" x1="34" x2="34" y1="81.4883" y2="771.0781"/><line style="stroke:#181818;stroke-width:0.5;stroke-dasharray:5.0,5.0;" x1="177" x2="177" y1="81.4883" y2="771.0781"/><line style="stroke:#181818;stroke-width:0.5;stroke-dasharray:5.0,5.0;" x1="389" x2="389" y1="81.4883" y2="771.0781"/><line style="stroke:#181818;stroke-width:0.5;stroke-dasharray:5.0,5.0;" x1="566" x2="566" y1="81.4883" y2="771.0781"/><line style="stroke:#181818;stroke-width:0.5;stroke-dasharray:5.0,5.0;" x1="731" x2="731" y1="81.4883" y2="771.0781"/><line style="stroke:#181818;stroke-width:0.5;stroke-dasharray:5.0,5.0;" x1="887" x2="887" y1="81.4883" y2="771.0781"/><line style="stroke:#181818;stroke-width:0.5;stroke-dasharray:5.0,5.0;" x1="1047" x2="1047" y1="81.4883" y2="771.0781"/><line style="stroke:#181818;stroke-width:0.5;stroke-dasharray:5.0,5.0;" x1="1203" x2="1203" y1="81.4883" y2="771.0781"/><line style="stroke:#181818;stroke-width:0.5;stroke-dasharray:5.0,5.0;" x1="1361" x2="1361" y1="81.4883" y2="771.0781"/><line style="stroke:#181818;stroke-width:0.5;stroke-dasharray:5.0,5.0;" x1="1555" x2="1555" y1="81.4883" y2="771.0781"/><line style="stroke:#181818;stroke-width:0.5;stroke-dasharray:5.0,5.0;" x1="1763" x2="1763" y1="81.4883" y2="771.0781"/><line style="stroke:#181818;stroke-width:0.5;stroke-dasharray:5.0,5.0;" x1="1923" x2="1923" y1="81.4883" y2="771.0781"/><text fill="#000000" font-family="sans-serif" font-size="14" lengthAdjust="spacing" textLength="53" x="5" y="78.5352">Student</text><ellipse cx="34.5" cy="13.5" fill="#E2E2F0" rx="8" ry="8" style="stroke:#181818;stroke-width:0.5;"/><path d="M34.5,21.5 L34.5,48.5 M21.5,29.5 L47.5,29.5 M34.5,48.5 L21.5,63.5 M34.5,48.5 L47.5,63.5 " fill="none" style="stroke:#181818;stroke-width:0.5;"/><text fill="#000000" font-family="sans-serif" font-size="14" lengthAdjust="spacing" textLength="53" x="5" y="783.6133">Student</text><ellipse cx="34.5" cy="795.0664" fill="#E2E2F0" rx="8" ry="8" style="stroke:#181818;stroke-width:0.5;"/><path d="M34.5,803.0664 L34.5,830.0664 M21.5,811.0664 L47.5,811.0664 M34.5,830.0664 L21.5,845.0664 M34.5,830.0664 L47.5,845.0664 " fill="none" style="stroke:#181818;stroke-width:0.5;"/><rect fill="#E2E2F0" height="30.4883" rx="2.5" ry="2.5" style="stroke:#181818;stroke-width:0.5;" width="99" x="128" y="50"/><text fill="#000000" font-family="sans-serif" font-size="14" lengthAdjust="spacing" textLength="85" x="135" y="70.5352">TakeExamUI</text><rect fill="#E2E2F0" height="30.4883" rx="2.5" ry="2.5" style="stroke:#181818;stroke-width:0.5;" width="99" x="128" y="770.0781"/><text fill="#000000" font-family="sans-serif" font-size="14" lengthAdjust="spacing" textLength="85" x="135" y="790.6133">TakeExamUI</text><rect fill="#E2E2F0" height="30.4883" rx="2.5" ry="2.5" style="stroke:#181818;stroke-width:0.5;" width="155" x="312" y="50"/><text fill="#000000" font-family="sans-serif" font-size="14" lengthAdjust="spacing" textLength="141" x="319" y="70.5352">TakeExamController</text><rect fill="#E2E2F0" height="30.4883" rx="2.5" ry="2.5" style="stroke:#181818;stroke-width:0.5;" width="155" x="312" y="770.0781"/><text fill="#000000" font-family="sans-serif" font-size="14" lengthAdjust="spacing" textLength="141" x="319" y="790.6133">TakeExamController</text><rect fill="#E2E2F0" height="30.4883" rx="2.5" ry="2.5" style="stroke:#181818;stroke-width:0.5;" width="178" x="477" y="50"/><text fill="#000000" font-family="sans-serif" font-size="14" lengthAdjust="spacing" textLength="164" x="484" y="70.5352">RegularExamRepository</text><rect fill="#E2E2F0" height="30.4883" rx="2.5" ry="2.5" style="stroke:#181818;stroke-width:0.5;" width="178" x="477" y="770.0781"/><text fill="#000000" font-family="sans-serif" font-size="14" lengthAdjust="spacing" textLength="164" x="484" y="790.6133">RegularExamRepository</text><rect fill="#E2E2F0" height="30.4883" rx="2.5" ry="2.5" style="stroke:#181818;stroke-width:0.5;" width="133" x="665" y="50"/><text fill="#000000" font-family="sans-serif" font-size="14" lengthAdjust="spacing" textLength="119" x="672" y="70.5352">GrammarContext</text><rect fill="#E2E2F0" height="30.4883" rx="2.5" ry="2.5" style="stroke:#181818;stroke-width:0.5;" width="133" x="665" y="770.0781"/><text fill="#000000" font-family="sans-serif" font-size="14" lengthAdjust="spacing" textLength="119" x="672" y="790.6133">GrammarContext</text><rect fill="#E2E2F0" height="30.4883" rx="2.5" ry="2.5" style="stroke:#181818;stroke-width:0.5;" width="159" x="808" y="50"/><text fill="#000000" font-family="sans-serif" font-size="14" lengthAdjust="spacing" textLength="145" x="815" y="70.5352">GrammarToolFactory</text><rect fill="#E2E2F0" height="30.4883" rx="2.5" ry="2.5" style="stroke:#181818;stroke-width:0.5;" width="159" x="808" y="770.0781"/><text fill="#000000" font-family="sans-serif" font-size="14" lengthAdjust="spacing" textLength="145" x="815" y="790.6133">GrammarToolFactory</text><rect fill="#E2E2F0" height="30.4883" rx="2.5" ry="2.5" style="stroke:#181818;stroke-width:0.5;" width="141" x="977" y="50"/><text fill="#000000" font-family="sans-serif" font-size="14" lengthAdjust="spacing" textLength="127" x="984" y="70.5352">GradeExamService</text><rect fill="#E2E2F0" height="30.4883" rx="2.5" ry="2.5" style="stroke:#181818;stroke-width:0.5;" width="141" x="977" y="770.0781"/><text fill="#000000" font-family="sans-serif" font-size="14" lengthAdjust="spacing" textLength="127" x="984" y="790.6133">GradeExamService</text><rect fill="#E2E2F0" height="30.4883" rx="2.5" ry="2.5" style="stroke:#181818;stroke-width:0.5;" width="150" x="1128" y="50"/><text fill="#000000" font-family="sans-serif" font-size="14" lengthAdjust="spacing" textLength="136" x="1135" y="70.5352">CorrectedExamDTO</text><rect fill="#E2E2F0" height="30.4883" rx="2.5" ry="2.5" style="stroke:#181818;stroke-width:0.5;" width="150" x="1128" y="770.0781"/><text fill="#000000" font-family="sans-serif" font-size="14" lengthAdjust="spacing" textLength="136" x="1135" y="790.6133">CorrectedExamDTO</text><rect fill="#E2E2F0" height="30.4883" rx="2.5" ry="2.5" style="stroke:#181818;stroke-width:0.5;" width="147" x="1288" y="50"/><text fill="#000000" font-family="sans-serif" font-size="14" lengthAdjust="spacing" textLength="133" x="1295" y="70.5352">RegularExamResult</text><rect fill="#E2E2F0" height="30.4883" rx="2.5" ry="2.5" style="stroke:#181818;stroke-width:0.5;" width="147" x="1288" y="770.0781"/><text fill="#000000" font-family="sans-serif" font-size="14" lengthAdjust="spacing" textLength="133" x="1295" y="790.6133">RegularExamResult</text><rect fill="#E2E2F0" height="30.4883" rx="2.5" ry="2.5" style="stroke:#181818;stroke-width:0.5;" width="220" x="1445" y="50"/><text fill="#000000" font-family="sans-serif" font-size="14" lengthAdjust="spacing" textLength="206" x="1452" y="70.5352">RegularExamResultRepository</text><rect fill="#E2E2F0" height="30.4883" rx="2.5" ry="2.5" style="stroke:#181818;stroke-width:0.5;" width="220" x="1445" y="770.0781"/><text fill="#000000" font-family="sans-serif" font-size="14" lengthAdjust="spacing" textLength="206" x="1452" y="790.6133">RegularExamResultRepository</text><rect fill="#E2E2F0" height="30.4883" rx="2.5" ry="2.5" style="stroke:#181818;stroke-width:0.5;" width="176" x="1675" y="50"/><text fill="#000000" font-family="sans-serif" font-size="14" lengthAdjust="spacing" textLength="162" x="1682" y="70.5352">ExamResultDTOMapper</text><rect fill="#E2E2F0" height="30.4883" rx="2.5" ry="2.5" style="stroke:#181818;stroke-width:0.5;" width="176" x="1675" y="770.0781"/><text fill="#000000" font-family="sans-serif" font-size="14" lengthAdjust="spacing" textLength="162" x="1682" y="790.6133">ExamResultDTOMapper</text><rect fill="#E2E2F0" height="30.4883" rx="2.5" ry="2.5" style="stroke:#181818;stroke-width:0.5;" width="124" x="1861" y="50"/><text fill="#000000" font-family="sans-serif" font-size="14" lengthAdjust="spacing" textLength="110" x="1868" y="70.5352">ExamResultDTO</text><rect fill="#E2E2F0" height="30.4883" rx="2.5" ry="2.5" style="stroke:#181818;stroke-width:0.5;" width="124" x="1861" y="770.0781"/><text fill="#000000" font-family="sans-serif" font-size="14" lengthAdjust="spacing" textLength="110" x="1868" y="790.6133">ExamResultDTO</text><rect fill="#FFFFFF" height="640.2793" style="stroke:#181818;stroke-width:1.0;" width="10" x="172.5" y="112.7988"/><rect fill="#FFFFFF" height="581.6582" style="stroke:#181818;stroke-width:1.0;" width="10" x="384.5" y="142.1094"/><rect fill="#FFFFFF" height="29.3105" style="stroke:#181818;stroke-width:1.0;" width="10" x="561" y="171.4199"/><rect fill="#FFFFFF" height="88.6211" style="stroke:#181818;stroke-width:1.0;" width="10" x="726.5" y="230.041"/><rect fill="#FFFFFF" height="59.3105" style="stroke:#181818;stroke-width:1.0;" width="10" x="882.5" y="259.3516"/><rect fill="#FFFFFF" height="30" style="stroke:#181818;stroke-width:1.0;" width="10" x="1042.5" y="288.6621"/><rect fill="#FFFFFF" height="99.2764" style="stroke:#181818;stroke-width:1.0;" width="10" x="1042.5" y="358.6279"/><rect fill="#FFFFFF" height="30" style="stroke:#181818;stroke-width:1.0;" width="10" x="1198" y="398.5938"/><rect fill="#FFFFFF" height="30" style="stroke:#181818;stroke-width:1.0;" width="10" x="1356.5" y="487.2148"/><rect fill="#FFFFFF" height="30" style="stroke:#181818;stroke-width:1.0;" width="10" x="1550" y="546.5254"/><rect fill="#FFFFFF" height="88.6211" style="stroke:#181818;stroke-width:1.0;" width="10" x="1758" y="605.8359"/><rect fill="#FFFFFF" height="30" style="stroke:#181818;stroke-width:1.0;" width="10" x="1918" y="635.1465"/><polygon fill="#181818" points="160.5,108.7988,170.5,112.7988,160.5,116.7988,164.5,112.7988" style="stroke:#181818;stroke-width:1.0;"/><line style="stroke:#181818;stroke-width:1.0;stroke-dasharray:2.0,2.0;" x1="34.5" x2="166.5" y1="112.7988" y2="112.7988"/><text fill="#000000" font-family="sans-serif" font-size="13" lengthAdjust="spacing" textLength="119" x="41.5" y="108.0566">submits resolution</text><polygon fill="#181818" points="372.5,138.1094,382.5,142.1094,372.5,146.1094,376.5,142.1094" style="stroke:#181818;stroke-width:1.0;"/><line style="stroke:#181818;stroke-width:1.0;stroke-dasharray:2.0,2.0;" x1="182.5" x2="378.5" y1="142.1094" y2="142.1094"/><text fill="#000000" font-family="sans-serif" font-size="13" lengthAdjust="spacing" textLength="183" x="189.5" y="137.3672">examGrading(resolutionDTO)</text><polygon fill="#181818" points="549,167.4199,559,171.4199,549,175.4199,553,171.4199" style="stroke:#181818;stroke-width:1.0;"/><line style="stroke:#181818;stroke-width:1.0;stroke-dasharray:2.0,2.0;" x1="394.5" x2="555" y1="171.4199" y2="171.4199"/><text fill="#000000" font-family="sans-serif" font-size="13" lengthAdjust="spacing" textLength="69" x="401.5" y="166.6777">ofIdentity()</text><polygon fill="#181818" points="405.5,196.7305,395.5,200.7305,405.5,204.7305,401.5,200.7305" style="stroke:#181818;stroke-width:1.0;"/><line style="stroke:#181818;stroke-width:1.0;stroke-dasharray:2.0,2.0;" x1="399.5" x2="565" y1="200.7305" y2="200.7305"/><text fill="#000000" font-family="sans-serif" font-size="13" lengthAdjust="spacing" textLength="34" x="411.5" y="195.9883">exam</text><polygon fill="#181818" points="714.5,226.041,724.5,230.041,714.5,234.041,718.5,230.041" style="stroke:#181818;stroke-width:1.0;"/><line style="stroke:#181818;stroke-width:1.0;stroke-dasharray:2.0,2.0;" x1="394.5" x2="720.5" y1="230.041" y2="230.041"/><text fill="#000000" font-family="sans-serif" font-size="13" lengthAdjust="spacing" textLength="99" x="401.5" y="225.2988">grammarTools()</text><polygon fill="#181818" points="870.5,255.3516,880.5,259.3516,870.5,263.3516,874.5,259.3516" style="stroke:#181818;stroke-width:1.0;"/><line style="stroke:#181818;stroke-width:1.0;stroke-dasharray:2.0,2.0;" x1="736.5" x2="876.5" y1="259.3516" y2="259.3516"/><text fill="#000000" font-family="sans-serif" font-size="13" lengthAdjust="spacing" textLength="127" x="743.5" y="254.6094">examGraderService()</text><polygon fill="#181818" points="1030.5,284.6621,1040.5,288.6621,1030.5,292.6621,1034.5,288.6621" style="stroke:#181818;stroke-width:1.0;"/><line style="stroke:#181818;stroke-width:1.0;stroke-dasharray:2.0,2.0;" x1="892.5" x2="1036.5" y1="288.6621" y2="288.6621"/><text fill="#000000" font-family="sans-serif" font-size="13" lengthAdjust="spacing" textLength="46" x="899.5" y="283.9199">create()</text><polygon fill="#181818" points="1030.5,354.6279,1040.5,358.6279,1030.5,362.6279,1034.5,358.6279" style="stroke:#181818;stroke-width:1.0;"/><line style="stroke:#181818;stroke-width:1.0;stroke-dasharray:2.0,2.0;" x1="394.5" x2="1036.5" y1="358.6279" y2="358.6279"/><text fill="#000000" font-family="sans-serif" font-size="13" lengthAdjust="spacing" textLength="120" x="401.5" y="353.8857">correctExam(exam)</text><path d="M1057,331.6621 L1057,371.6621 L1219,371.6621 L1219,341.6621 L1209,331.6621 L1057,331.6621 " fill="#FEFFDD" style="stroke:#181818;stroke-width:0.5;"/><path d="M1209,331.6621 L1209,341.6621 L1219,341.6621 L1209,331.6621 " fill="#FEFFDD" style="stroke:#181818;stroke-width:0.5;"/><text fill="#000000" font-family="sans-serif" font-size="13" lengthAdjust="spacing" textLength="137" x="1063" y="349.2305">exam correction done</text><text fill="#000000" font-family="sans-serif" font-size="13" lengthAdjust="spacing" textLength="137" x="1063" y="364.541">by an external service</text><polygon fill="#181818" points="1186,394.5938,1196,398.5938,1186,402.5938,1190,398.5938" style="stroke:#181818;stroke-width:1.0;"/><line style="stroke:#181818;stroke-width:1.0;stroke-dasharray:2.0,2.0;" x1="1052.5" x2="1192" y1="398.5938" y2="398.5938"/><text fill="#000000" font-family="sans-serif" font-size="13" lengthAdjust="spacing" textLength="46" x="1059.5" y="393.8516">create()</text><polygon fill="#181818" points="405.5,453.9043,395.5,457.9043,405.5,461.9043,401.5,457.9043" style="stroke:#181818;stroke-width:1.0;"/><line style="stroke:#181818;stroke-width:1.0;stroke-dasharray:2.0,2.0;" x1="399.5" x2="1046.5" y1="457.9043" y2="457.9043"/><text fill="#000000" font-family="sans-serif" font-size="13" lengthAdjust="spacing" textLength="64" x="411.5" y="453.1621">resultDTO</text><polygon fill="#181818" points="1344.5,483.2148,1354.5,487.2148,1344.5,491.2148,1348.5,487.2148" style="stroke:#181818;stroke-width:1.0;"/><line style="stroke:#181818;stroke-width:1.0;stroke-dasharray:2.0,2.0;" x1="394.5" x2="1350.5" y1="487.2148" y2="487.2148"/><text fill="#000000" font-family="sans-serif" font-size="13" lengthAdjust="spacing" textLength="46" x="401.5" y="482.4727">create()</text><polygon fill="#181818" points="1538,542.5254,1548,546.5254,1538,550.5254,1542,546.5254" style="stroke:#181818;stroke-width:1.0;"/><line style="stroke:#181818;stroke-width:1.0;stroke-dasharray:2.0,2.0;" x1="394.5" x2="1544" y1="546.5254" y2="546.5254"/><text fill="#000000" font-family="sans-serif" font-size="13" lengthAdjust="spacing" textLength="72" x="401.5" y="541.7832">save(result)</text><polygon fill="#181818" points="1746,601.8359,1756,605.8359,1746,609.8359,1750,605.8359" style="stroke:#181818;stroke-width:1.0;"/><line style="stroke:#181818;stroke-width:1.0;stroke-dasharray:2.0,2.0;" x1="394.5" x2="1752" y1="605.8359" y2="605.8359"/><text fill="#000000" font-family="sans-serif" font-size="13" lengthAdjust="spacing" textLength="85" x="401.5" y="601.0938">toDTO(result)</text><polygon fill="#181818" points="1906,631.1465,1916,635.1465,1906,639.1465,1910,635.1465" style="stroke:#181818;stroke-width:1.0;"/><line style="stroke:#181818;stroke-width:1.0;stroke-dasharray:2.0,2.0;" x1="1768" x2="1912" y1="635.1465" y2="635.1465"/><text fill="#000000" font-family="sans-serif" font-size="13" lengthAdjust="spacing" textLength="46" x="1775" y="630.4043">create()</text><polygon fill="#181818" points="405.5,690.457,395.5,694.457,405.5,698.457,401.5,694.457" style="stroke:#181818;stroke-width:1.0;"/><line style="stroke:#181818;stroke-width:1.0;stroke-dasharray:2.0,2.0;" x1="399.5" x2="1762" y1="694.457" y2="694.457"/><text fill="#000000" font-family="sans-serif" font-size="13" lengthAdjust="spacing" textLength="64" x="411.5" y="689.7148">resultDTO</text><polygon fill="#181818" points="193.5,719.7676,183.5,723.7676,193.5,727.7676,189.5,723.7676" style="stroke:#181818;stroke-width:1.0;"/><line style="stroke:#181818;stroke-width:1.0;stroke-dasharray:2.0,2.0;" x1="187.5" x2="388.5" y1="723.7676" y2="723.7676"/><text fill="#000000" font-family="sans-serif" font-size="13" lengthAdjust="spacing" textLength="64" x="199.5" y="719.0254">resultDTO</text><polygon fill="#181818" points="45.5,749.0781,35.5,753.0781,45.5,757.0781,41.5,753.0781" style="stroke:#181818;stroke-width:1.0;"/><line style="stroke:#181818;stroke-width:1.0;stroke-dasharray:2.0,2.0;" x1="39.5" x2="176.5" y1="753.0781" y2="753.0781"/><text fill="#000000" font-family="sans-serif" font-size="13" lengthAdjust="spacing" textLength="87" x="51.5" y="748.3359">present result</text><!--SRC=[ZLInRjim4Dtr5Tpg34Pt3rtIjCZG1aYSBO11KnUPi2GA5EKuVzyxaf98YNIZII3VUtnyTpmkZDBinGmbj8RndlNkjoWwheqKikEulkTdUBZovlMH88DCRjwhrcXLrw0998okOv5dg8QQQu8-GwTwYIT_4XHmvQ1nASR_rhnfk2PPk1gdUKqXzahLlxWOvQgaL6azle2-I04EXclwq5z41BrNMeCmK1Byv_x9dZkk7KgZRbog7shhKzk_sxWu0iT8X30JqCiVtdKkNOzlx4AU442jSrzSjjt-m2go7Uk7OoED1QbwC5Ar1GOfBzm0bPdXXpY2KpsHGBMYD6LRRMOI7dLdmHFPbf_vpt99PAeqAgdtH_8YpUVcRa9E_BadMF3D_8Mb2LL2Gc9j13i9cTNSFttA1FLRU3onY5tvAunXWFPz5OX4GjNg9lHLqqtcNaHLeG4v2wc5tDIwIqnm_mmgGeIsWWsw-3gqsALx4zHk6yeX4L_6GAjmJylgP5o2enJs4IjL2-ojFUAZQ77JW6vvpNgNRX67Dvcn1GsVQ2x4-NxHWywaamSjptPzgCTNLzmknZfOnqovdlX-f2IK_KvETNnkFR_0nYrbvG-vVeZ6qxZ_ZVrzsZ_ii6R3iOQjE84uiuyJDmmhK2hsyPsz0vH7BivvTsw2eJ-ZCBd_6lG3Bon6B1H8VwKHWk6OwO8COdtgLxeWliKw53kJOuNeLVgPwaVoECrth4CE_VbU23WunFy1]--></g></svg>