<?xml version="1.0" encoding="us-ascii" standalone="no"?><svg xmlns="http://www.w3.org/2000/svg" xmlns:xlink="http://www.w3.org/1999/xlink" contentStyleType="text/css" height="900px" preserveAspectRatio="none" style="width:1891px;height:900px;background:#1B1B1B;" version="1.1" viewBox="0 0 1891 900" width="1891px" zoomAndPan="magnify"><defs/><g><rect fill="#1B1B1B" height="900" style="stroke:none;stroke-width:1.0;" width="1891" x="0" y="0"/><rect fill="#000000" height="681.0023" style="stroke:#E7E7E7;stroke-width:1.0;" width="10" x="165.5" y="117.7739"/><rect fill="#000000" height="617.5902" style="stroke:#E7E7E7;stroke-width:1.0;" width="10" x="370.5" y="149.4799"/><rect fill="#000000" height="31.706" style="stroke:#E7E7E7;stroke-width:1.0;" width="10" x="541.5" y="181.186"/><rect fill="#000000" height="93.412" style="stroke:#E7E7E7;stroke-width:1.0;" width="10" x="703" y="244.598"/><rect fill="#000000" height="61.706" style="stroke:#E7E7E7;stroke-width:1.0;" width="10" x="856" y="276.304"/><rect fill="#000000" height="30" style="stroke:#E7E7E7;stroke-width:1.0;" width="10" x="1012.5" y="308.01"/><rect fill="#000000" height="105.265" style="stroke:#E7E7E7;stroke-width:1.0;" width="10" x="1012.5" y="381.5691"/><rect fill="#000000" height="30" style="stroke:#E7E7E7;stroke-width:1.0;" width="10" x="1164.5" y="425.1281"/><rect fill="#000000" height="30" style="stroke:#E7E7E7;stroke-width:1.0;" width="10" x="1293" y="518.5401"/><rect fill="#000000" height="30" style="stroke:#E7E7E7;stroke-width:1.0;" width="10" x="1457" y="580.2461"/><rect fill="#000000" height="93.412" style="stroke:#E7E7E7;stroke-width:1.0;" width="10" x="1662" y="641.9521"/><rect fill="#000000" height="30" style="stroke:#E7E7E7;stroke-width:1.0;" width="10" x="1819.5" y="673.6582"/><line style="stroke:#E7E7E7;stroke-width:0.5;stroke-dasharray:5.0,5.0;" x1="34" x2="34" y1="84.0679" y2="816.7762"/><line style="stroke:#E7E7E7;stroke-width:0.5;stroke-dasharray:5.0,5.0;" x1="170.5" x2="170.5" y1="84.0679" y2="816.7762"/><line style="stroke:#E7E7E7;stroke-width:0.5;stroke-dasharray:5.0,5.0;" x1="375.5" x2="375.5" y1="84.0679" y2="816.7762"/><line style="stroke:#E7E7E7;stroke-width:0.5;stroke-dasharray:5.0,5.0;" x1="546.5" x2="546.5" y1="84.0679" y2="816.7762"/><line style="stroke:#E7E7E7;stroke-width:0.5;stroke-dasharray:5.0,5.0;" x1="707.5" x2="707.5" y1="84.0679" y2="816.7762"/><line style="stroke:#E7E7E7;stroke-width:0.5;stroke-dasharray:5.0,5.0;" x1="861" x2="861" y1="84.0679" y2="816.7762"/><line style="stroke:#E7E7E7;stroke-width:0.5;stroke-dasharray:5.0,5.0;" x1="1017" x2="1017" y1="84.0679" y2="816.7762"/><line style="stroke:#E7E7E7;stroke-width:0.5;stroke-dasharray:5.0,5.0;" x1="1169" x2="1169" y1="84.0679" y2="816.7762"/><line style="stroke:#E7E7E7;stroke-width:0.5;stroke-dasharray:5.0,5.0;" x1="1298" x2="1298" y1="84.0679" y2="816.7762"/><line style="stroke:#E7E7E7;stroke-width:0.5;stroke-dasharray:5.0,5.0;" x1="1462" x2="1462" y1="84.0679" y2="816.7762"/><line style="stroke:#E7E7E7;stroke-width:0.5;stroke-dasharray:5.0,5.0;" x1="1667" x2="1667" y1="84.0679" y2="816.7762"/><line style="stroke:#E7E7E7;stroke-width:0.5;stroke-dasharray:5.0,5.0;" x1="1824" x2="1824" y1="84.0679" y2="816.7762"/><text fill="#FFFFFF" font-family="sans-serif" font-size="14" lengthAdjust="spacing" textLength="53" x="5" y="79.9659">Student</text><ellipse cx="34.5" cy="13.5" fill="#222222" rx="8" ry="8" style="stroke:#E7E7E7;stroke-width:0.5;"/><path d="M34.5,21.5 L34.5,48.5 M21.5,29.5 L47.5,29.5 M34.5,48.5 L21.5,63.5 M34.5,48.5 L47.5,63.5 " fill="none" style="stroke:#E7E7E7;stroke-width:0.5;"/><text fill="#FFFFFF" font-family="sans-serif" font-size="14" lengthAdjust="spacing" textLength="53" x="5" y="830.7421">Student</text><ellipse cx="34.5" cy="843.3441" fill="#222222" rx="8" ry="8" style="stroke:#E7E7E7;stroke-width:0.5;"/><path d="M34.5,851.3441 L34.5,878.3441 M21.5,859.3441 L47.5,859.3441 M34.5,878.3441 L21.5,893.3441 M34.5,878.3441 L47.5,893.3441 " fill="none" style="stroke:#E7E7E7;stroke-width:0.5;"/><rect fill="#222222" height="33.0679" rx="2.5" ry="2.5" style="stroke:#E7E7E7;stroke-width:0.5;" width="96" x="122.5" y="50"/><text fill="#FFFFFF" font-family="sans-serif" font-size="14" lengthAdjust="spacing" textLength="82" x="129.5" y="71.9659">TakeExamUI</text><rect fill="#222222" height="33.0679" rx="2.5" ry="2.5" style="stroke:#E7E7E7;stroke-width:0.5;" width="96" x="122.5" y="815.7762"/><text fill="#FFFFFF" font-family="sans-serif" font-size="14" lengthAdjust="spacing" textLength="82" x="129.5" y="837.7421">TakeExamUI</text><rect fill="#222222" height="33.0679" rx="2.5" ry="2.5" style="stroke:#E7E7E7;stroke-width:0.5;" width="148" x="301.5" y="50"/><text fill="#FFFFFF" font-family="sans-serif" font-size="14" lengthAdjust="spacing" textLength="134" x="308.5" y="71.9659">TakeExamController</text><rect fill="#222222" height="33.0679" rx="2.5" ry="2.5" style="stroke:#E7E7E7;stroke-width:0.5;" width="148" x="301.5" y="815.7762"/><text fill="#FFFFFF" font-family="sans-serif" font-size="14" lengthAdjust="spacing" textLength="134" x="308.5" y="837.7421">TakeExamController</text><rect fill="#222222" height="33.0679" rx="2.5" ry="2.5" style="stroke:#E7E7E7;stroke-width:0.5;" width="174" x="459.5" y="50"/><text fill="#FFFFFF" font-family="sans-serif" font-size="14" lengthAdjust="spacing" textLength="160" x="466.5" y="71.9659">RegularExamRepository</text><rect fill="#222222" height="33.0679" rx="2.5" ry="2.5" style="stroke:#E7E7E7;stroke-width:0.5;" width="174" x="459.5" y="815.7762"/><text fill="#FFFFFF" font-family="sans-serif" font-size="14" lengthAdjust="spacing" textLength="160" x="466.5" y="837.7421">RegularExamRepository</text><rect fill="#222222" height="33.0679" rx="2.5" ry="2.5" style="stroke:#E7E7E7;stroke-width:0.5;" width="129" x="643.5" y="50"/><text fill="#FFFFFF" font-family="sans-serif" font-size="14" lengthAdjust="spacing" textLength="115" x="650.5" y="71.9659">GrammarContext</text><rect fill="#222222" height="33.0679" rx="2.5" ry="2.5" style="stroke:#E7E7E7;stroke-width:0.5;" width="129" x="643.5" y="815.7762"/><text fill="#FFFFFF" font-family="sans-serif" font-size="14" lengthAdjust="spacing" textLength="115" x="650.5" y="837.7421">GrammarContext</text><rect fill="#222222" height="33.0679" rx="2.5" ry="2.5" style="stroke:#E7E7E7;stroke-width:0.5;" width="154" x="784" y="50"/><text fill="#FFFFFF" font-family="sans-serif" font-size="14" lengthAdjust="spacing" textLength="140" x="791" y="71.9659">GrammarToolFactory</text><rect fill="#222222" height="33.0679" rx="2.5" ry="2.5" style="stroke:#E7E7E7;stroke-width:0.5;" width="154" x="784" y="815.7762"/><text fill="#FFFFFF" font-family="sans-serif" font-size="14" lengthAdjust="spacing" textLength="140" x="791" y="837.7421">GrammarToolFactory</text><rect fill="#222222" height="33.0679" rx="2.5" ry="2.5" style="stroke:#E7E7E7;stroke-width:0.5;" width="139" x="948" y="50"/><text fill="#FFFFFF" font-family="sans-serif" font-size="14" lengthAdjust="spacing" textLength="125" x="955" y="71.9659">GradeExamService</text><rect fill="#222222" height="33.0679" rx="2.5" ry="2.5" style="stroke:#E7E7E7;stroke-width:0.5;" width="139" x="948" y="815.7762"/><text fill="#FFFFFF" font-family="sans-serif" font-size="14" lengthAdjust="spacing" textLength="125" x="955" y="837.7421">GradeExamService</text><rect fill="#222222" height="33.0679" rx="2.5" ry="2.5" style="stroke:#E7E7E7;stroke-width:0.5;" width="145" x="1097" y="50"/><text fill="#FFFFFF" font-family="sans-serif" font-size="14" lengthAdjust="spacing" textLength="131" x="1104" y="71.9659">CorrectedExamDTO</text><rect fill="#222222" height="33.0679" rx="2.5" ry="2.5" style="stroke:#E7E7E7;stroke-width:0.5;" width="145" x="1097" y="815.7762"/><text fill="#FFFFFF" font-family="sans-serif" font-size="14" lengthAdjust="spacing" textLength="131" x="1104" y="837.7421">CorrectedExamDTO</text><rect fill="#222222" height="33.0679" rx="2.5" ry="2.5" style="stroke:#E7E7E7;stroke-width:0.5;" width="92" x="1252" y="50"/><text fill="#FFFFFF" font-family="sans-serif" font-size="14" lengthAdjust="spacing" textLength="78" x="1259" y="71.9659">ExamResult</text><rect fill="#222222" height="33.0679" rx="2.5" ry="2.5" style="stroke:#E7E7E7;stroke-width:0.5;" width="92" x="1252" y="815.7762"/><text fill="#FFFFFF" font-family="sans-serif" font-size="14" lengthAdjust="spacing" textLength="78" x="1259" y="837.7421">ExamResult</text><rect fill="#222222" height="33.0679" rx="2.5" ry="2.5" style="stroke:#E7E7E7;stroke-width:0.5;" width="216" x="1354" y="50"/><text fill="#FFFFFF" font-family="sans-serif" font-size="14" lengthAdjust="spacing" textLength="202" x="1361" y="71.9659">RegularExamResultRepository</text><rect fill="#222222" height="33.0679" rx="2.5" ry="2.5" style="stroke:#E7E7E7;stroke-width:0.5;" width="216" x="1354" y="815.7762"/><text fill="#FFFFFF" font-family="sans-serif" font-size="14" lengthAdjust="spacing" textLength="202" x="1361" y="837.7421">RegularExamResultRepository</text><rect fill="#222222" height="33.0679" rx="2.5" ry="2.5" style="stroke:#E7E7E7;stroke-width:0.5;" width="174" x="1580" y="50"/><text fill="#FFFFFF" font-family="sans-serif" font-size="14" lengthAdjust="spacing" textLength="160" x="1587" y="71.9659">ExamResultDTOMapper</text><rect fill="#222222" height="33.0679" rx="2.5" ry="2.5" style="stroke:#E7E7E7;stroke-width:0.5;" width="174" x="1580" y="815.7762"/><text fill="#FFFFFF" font-family="sans-serif" font-size="14" lengthAdjust="spacing" textLength="160" x="1587" y="837.7421">ExamResultDTOMapper</text><rect fill="#222222" height="33.0679" rx="2.5" ry="2.5" style="stroke:#E7E7E7;stroke-width:0.5;" width="121" x="1764" y="50"/><text fill="#FFFFFF" font-family="sans-serif" font-size="14" lengthAdjust="spacing" textLength="107" x="1771" y="71.9659">ExamResultDTO</text><rect fill="#222222" height="33.0679" rx="2.5" ry="2.5" style="stroke:#E7E7E7;stroke-width:0.5;" width="121" x="1764" y="815.7762"/><text fill="#FFFFFF" font-family="sans-serif" font-size="14" lengthAdjust="spacing" textLength="107" x="1771" y="837.7421">ExamResultDTO</text><rect fill="#000000" height="681.0023" style="stroke:#E7E7E7;stroke-width:1.0;" width="10" x="165.5" y="117.7739"/><rect fill="#000000" height="617.5902" style="stroke:#E7E7E7;stroke-width:1.0;" width="10" x="370.5" y="149.4799"/><rect fill="#000000" height="31.706" style="stroke:#E7E7E7;stroke-width:1.0;" width="10" x="541.5" y="181.186"/><rect fill="#000000" height="93.412" style="stroke:#E7E7E7;stroke-width:1.0;" width="10" x="703" y="244.598"/><rect fill="#000000" height="61.706" style="stroke:#E7E7E7;stroke-width:1.0;" width="10" x="856" y="276.304"/><rect fill="#000000" height="30" style="stroke:#E7E7E7;stroke-width:1.0;" width="10" x="1012.5" y="308.01"/><rect fill="#000000" height="105.265" style="stroke:#E7E7E7;stroke-width:1.0;" width="10" x="1012.5" y="381.5691"/><rect fill="#000000" height="30" style="stroke:#E7E7E7;stroke-width:1.0;" width="10" x="1164.5" y="425.1281"/><rect fill="#000000" height="30" style="stroke:#E7E7E7;stroke-width:1.0;" width="10" x="1293" y="518.5401"/><rect fill="#000000" height="30" style="stroke:#E7E7E7;stroke-width:1.0;" width="10" x="1457" y="580.2461"/><rect fill="#000000" height="93.412" style="stroke:#E7E7E7;stroke-width:1.0;" width="10" x="1662" y="641.9521"/><rect fill="#000000" height="30" style="stroke:#E7E7E7;stroke-width:1.0;" width="10" x="1819.5" y="673.6582"/><polygon fill="#E7E7E7" points="153.5,113.7739,163.5,117.7739,153.5,121.7739,157.5,117.7739" style="stroke:#E7E7E7;stroke-width:1.0;"/><line style="stroke:#E7E7E7;stroke-width:1.0;stroke-dasharray:2.0,2.0;" x1="34.5" x2="159.5" y1="117.7739" y2="117.7739"/><text fill="#FFFFFF" font-family="sans-serif" font-size="13" lengthAdjust="spacing" textLength="112" x="41.5" y="111.9649">submits resolution</text><polygon fill="#E7E7E7" points="358.5,145.4799,368.5,149.4799,358.5,153.4799,362.5,149.4799" style="stroke:#E7E7E7;stroke-width:1.0;"/><line style="stroke:#E7E7E7;stroke-width:1.0;stroke-dasharray:2.0,2.0;" x1="175.5" x2="364.5" y1="149.4799" y2="149.4799"/><text fill="#FFFFFF" font-family="sans-serif" font-size="13" lengthAdjust="spacing" textLength="176" x="182.5" y="143.6709">examGrading(resolutionDTO)</text><polygon fill="#E7E7E7" points="529.5,177.186,539.5,181.186,529.5,185.186,533.5,181.186" style="stroke:#E7E7E7;stroke-width:1.0;"/><line style="stroke:#E7E7E7;stroke-width:1.0;stroke-dasharray:2.0,2.0;" x1="380.5" x2="535.5" y1="181.186" y2="181.186"/><text fill="#FFFFFF" font-family="sans-serif" font-size="13" lengthAdjust="spacing" textLength="67" x="387.5" y="175.377">ofIdentity()</text><polygon fill="#E7E7E7" points="391.5,208.892,381.5,212.892,391.5,216.892,387.5,212.892" style="stroke:#E7E7E7;stroke-width:1.0;"/><line style="stroke:#E7E7E7;stroke-width:1.0;stroke-dasharray:2.0,2.0;" x1="385.5" x2="545.5" y1="212.892" y2="212.892"/><text fill="#FFFFFF" font-family="sans-serif" font-size="13" lengthAdjust="spacing" textLength="33" x="397.5" y="207.083">exam</text><polygon fill="#E7E7E7" points="691,240.598,701,244.598,691,248.598,695,244.598" style="stroke:#E7E7E7;stroke-width:1.0;"/><line style="stroke:#E7E7E7;stroke-width:1.0;stroke-dasharray:2.0,2.0;" x1="380.5" x2="697" y1="244.598" y2="244.598"/><text fill="#FFFFFF" font-family="sans-serif" font-size="13" lengthAdjust="spacing" textLength="96" x="387.5" y="238.789">grammarTools()</text><polygon fill="#E7E7E7" points="844,272.304,854,276.304,844,280.304,848,276.304" style="stroke:#E7E7E7;stroke-width:1.0;"/><line style="stroke:#E7E7E7;stroke-width:1.0;stroke-dasharray:2.0,2.0;" x1="713" x2="850" y1="276.304" y2="276.304"/><text fill="#FFFFFF" font-family="sans-serif" font-size="13" lengthAdjust="spacing" textLength="124" x="720" y="270.495">examGraderService()</text><polygon fill="#E7E7E7" points="1000.5,304.01,1010.5,308.01,1000.5,312.01,1004.5,308.01" style="stroke:#E7E7E7;stroke-width:1.0;"/><line style="stroke:#E7E7E7;stroke-width:1.0;stroke-dasharray:2.0,2.0;" x1="866" x2="1006.5" y1="308.01" y2="308.01"/><text fill="#FFFFFF" font-family="sans-serif" font-size="13" lengthAdjust="spacing" textLength="45" x="873" y="302.201">create()</text><polygon fill="#E7E7E7" points="1000.5,377.5691,1010.5,381.5691,1000.5,385.5691,1004.5,381.5691" style="stroke:#E7E7E7;stroke-width:1.0;"/><line style="stroke:#E7E7E7;stroke-width:1.0;stroke-dasharray:2.0,2.0;" x1="380.5" x2="1006.5" y1="381.5691" y2="381.5691"/><text fill="#FFFFFF" font-family="sans-serif" font-size="13" lengthAdjust="spacing" textLength="116" x="387.5" y="375.7601">correctExam(exam)</text><path d="M1027,351.01 L1027,396.01 L1182,396.01 L1182,361.01 L1172,351.01 L1027,351.01 " fill="#714137" style="stroke:#E7E7E7;stroke-width:0.5;"/><path d="M1172,351.01 L1172,361.01 L1182,361.01 L1172,351.01 " fill="#714137" style="stroke:#E7E7E7;stroke-width:0.5;"/><text fill="#FFFFFF" font-family="sans-serif" font-size="13" lengthAdjust="spacing" textLength="131" x="1033" y="369.907">exam correction done</text><text fill="#FFFFFF" font-family="sans-serif" font-size="13" lengthAdjust="spacing" textLength="129" x="1033" y="387.6131">by an external service</text><polygon fill="#E7E7E7" points="1152.5,421.1281,1162.5,425.1281,1152.5,429.1281,1156.5,425.1281" style="stroke:#E7E7E7;stroke-width:1.0;"/><line style="stroke:#E7E7E7;stroke-width:1.0;stroke-dasharray:2.0,2.0;" x1="1022.5" x2="1158.5" y1="425.1281" y2="425.1281"/><text fill="#FFFFFF" font-family="sans-serif" font-size="13" lengthAdjust="spacing" textLength="45" x="1029.5" y="419.3191">create()</text><polygon fill="#E7E7E7" points="391.5,482.8341,381.5,486.8341,391.5,490.8341,387.5,486.8341" style="stroke:#E7E7E7;stroke-width:1.0;"/><line style="stroke:#E7E7E7;stroke-width:1.0;stroke-dasharray:2.0,2.0;" x1="385.5" x2="1016.5" y1="486.8341" y2="486.8341"/><text fill="#FFFFFF" font-family="sans-serif" font-size="13" lengthAdjust="spacing" textLength="60" x="397.5" y="481.0251">resultDTO</text><polygon fill="#E7E7E7" points="1281,514.5401,1291,518.5401,1281,522.5401,1285,518.5401" style="stroke:#E7E7E7;stroke-width:1.0;"/><line style="stroke:#E7E7E7;stroke-width:1.0;stroke-dasharray:2.0,2.0;" x1="380.5" x2="1287" y1="518.5401" y2="518.5401"/><text fill="#FFFFFF" font-family="sans-serif" font-size="13" lengthAdjust="spacing" textLength="45" x="387.5" y="512.7311">create()</text><polygon fill="#E7E7E7" points="1445,576.2461,1455,580.2461,1445,584.2461,1449,580.2461" style="stroke:#E7E7E7;stroke-width:1.0;"/><line style="stroke:#E7E7E7;stroke-width:1.0;stroke-dasharray:2.0,2.0;" x1="380.5" x2="1451" y1="580.2461" y2="580.2461"/><text fill="#FFFFFF" font-family="sans-serif" font-size="13" lengthAdjust="spacing" textLength="69" x="387.5" y="574.4371">save(result)</text><polygon fill="#E7E7E7" points="1650,637.9521,1660,641.9521,1650,645.9521,1654,641.9521" style="stroke:#E7E7E7;stroke-width:1.0;"/><line style="stroke:#E7E7E7;stroke-width:1.0;stroke-dasharray:2.0,2.0;" x1="380.5" x2="1656" y1="641.9521" y2="641.9521"/><text fill="#FFFFFF" font-family="sans-serif" font-size="13" lengthAdjust="spacing" textLength="81" x="387.5" y="636.1431">toDTO(result)</text><polygon fill="#E7E7E7" points="1807.5,669.6582,1817.5,673.6582,1807.5,677.6582,1811.5,673.6582" style="stroke:#E7E7E7;stroke-width:1.0;"/><line style="stroke:#E7E7E7;stroke-width:1.0;stroke-dasharray:2.0,2.0;" x1="1672" x2="1813.5" y1="673.6582" y2="673.6582"/><text fill="#FFFFFF" font-family="sans-serif" font-size="13" lengthAdjust="spacing" textLength="45" x="1679" y="667.8492">create()</text><polygon fill="#E7E7E7" points="391.5,731.3642,381.5,735.3642,391.5,739.3642,387.5,735.3642" style="stroke:#E7E7E7;stroke-width:1.0;"/><line style="stroke:#E7E7E7;stroke-width:1.0;stroke-dasharray:2.0,2.0;" x1="385.5" x2="1666" y1="735.3642" y2="735.3642"/><text fill="#FFFFFF" font-family="sans-serif" font-size="13" lengthAdjust="spacing" textLength="60" x="397.5" y="729.5552">resultDTO</text><polygon fill="#E7E7E7" points="186.5,763.0702,176.5,767.0702,186.5,771.0702,182.5,767.0702" style="stroke:#E7E7E7;stroke-width:1.0;"/><line style="stroke:#E7E7E7;stroke-width:1.0;stroke-dasharray:2.0,2.0;" x1="180.5" x2="374.5" y1="767.0702" y2="767.0702"/><text fill="#FFFFFF" font-family="sans-serif" font-size="13" lengthAdjust="spacing" textLength="60" x="192.5" y="761.2612">resultDTO</text><polygon fill="#E7E7E7" points="45.5,794.7762,35.5,798.7762,45.5,802.7762,41.5,798.7762" style="stroke:#E7E7E7;stroke-width:1.0;"/><line style="stroke:#E7E7E7;stroke-width:1.0;stroke-dasharray:2.0,2.0;" x1="39.5" x2="169.5" y1="798.7762" y2="798.7762"/><text fill="#FFFFFF" font-family="sans-serif" font-size="13" lengthAdjust="spacing" textLength="83" x="51.5" y="792.9672">present result</text><!--SRC=[ZLGzRzim4DtzAxZL6Opk7hgaQP6X3P2uMm63fYuoOKaKJfJZ_FlUaPH4Ic8JJWJvtkEx3vvKrg1uiNq1ZHMo4vtVRZQjHAkLRYMT7-G57cwo_lF8a5wlNjwRngAfAa06AOjLAl8CPLz9PEWpjARJzF8xGu5EZaX7AVudohgMoB9mirxpjeOu65Fza6gGArUb2kVn1V2g5NWOdU6nkwe4UcyGGLae6FxzyEJU7SwEXPqf-sYwld86qUtoKVDj6hjdh4G_4SZ4BzcsFgq1Nxk3F262EikXgcAt-qRb4tlHzQTQMmSoLM-rQJQKGNsL5hY-WXRX6Cw5908NYTEect8xaUYfEmSUoQxk8Yp7PP6nnAHaNX_PYxRlsxiHEVAdPX3HclWpIoEgW1M9fH5g8MAMK-DqQoQuqUBdcSNiCeGm90CmD5GaaWYLYqXubMCaKnEIga8Wpang9ZVsx1mJnPz19OZOLdJ1WI-Jbhhqdu7RRSjvM4bVna1Zw0vrURO-WuCKzP4eJ0FYRtEYJz7GfGLiP2KwdzrDchpHZ2je_3TpIPpYItvo9ZjvqFnjtuSu_BhD_uknJAndhhaU-M6ah2Y7cvpgyDqwUOMjFyhA7tFza8oduVwB-FrqUDXJpVfJ1Jjr1dKHRsTf1LMWCEBjgtW5A4vINVBk_0GZVzPGvZuq60PUN8nKA9B-J2D4mp7J1Hd4yjNFT44QnJ8fRYQd2icl33CrZEHXckz5InpUXLw8E3J4_m40]--></g></svg>