<?xml version="1.0" encoding="us-ascii" standalone="no"?><svg xmlns="http://www.w3.org/2000/svg" xmlns:xlink="http://www.w3.org/1999/xlink" contentStyleType="text/css" height="879px" preserveAspectRatio="none" style="width:1531px;height:879px;background:#1B1B1B;" version="1.1" viewBox="0 0 1531 879" width="1531px" zoomAndPan="magnify"><defs/><g><rect fill="#1B1B1B" height="879" style="stroke:none;stroke-width:1.0;" width="1531" x="0" y="0"/><rect fill="#000000" height="659.7083" style="stroke:#E7E7E7;stroke-width:1.0;" width="10" x="117" y="117.7739"/><rect fill="#000000" height="30" style="stroke:#E7E7E7;stroke-width:1.0;" width="10" x="249" y="161.333"/><rect fill="#000000" height="510.8842" style="stroke:#E7E7E7;stroke-width:1.0;" width="10" x="249" y="234.892"/><rect fill="#000000" height="276.7951" style="stroke:#E7E7E7;stroke-width:1.0;" width="10" x="426.5" y="278.451"/><rect fill="#000000" height="31.706" style="stroke:#E7E7E7;stroke-width:1.0;" width="10" x="671.5" y="322.01"/><rect fill="#000000" height="31.706" style="stroke:#E7E7E7;stroke-width:1.0;" width="10" x="848" y="385.4221"/><rect fill="#000000" height="30" style="stroke:#E7E7E7;stroke-width:1.0;" width="10" x="1053" y="448.8341"/><rect fill="#000000" height="127.118" style="stroke:#E7E7E7;stroke-width:1.0;" width="10" x="1266.5" y="586.9521"/><rect fill="#000000" height="30" style="stroke:#E7E7E7;stroke-width:1.0;" width="10" x="1441" y="645.3642"/><rect fill="none" height="81.412" style="stroke:#FFFFFF;stroke-width:1.5;" width="359" x="1166" y="601.9521"/><line style="stroke:#E7E7E7;stroke-width:0.5;stroke-dasharray:5.0,5.0;" x1="34" x2="34" y1="84.0679" y2="795.4822"/><line style="stroke:#E7E7E7;stroke-width:0.5;stroke-dasharray:5.0,5.0;" x1="122" x2="122" y1="84.0679" y2="795.4822"/><line style="stroke:#E7E7E7;stroke-width:0.5;stroke-dasharray:5.0,5.0;" x1="254" x2="254" y1="84.0679" y2="795.4822"/><line style="stroke:#E7E7E7;stroke-width:0.5;stroke-dasharray:5.0,5.0;" x1="431" x2="431" y1="84.0679" y2="795.4822"/><line style="stroke:#E7E7E7;stroke-width:0.5;stroke-dasharray:5.0,5.0;" x1="676" x2="676" y1="84.0679" y2="795.4822"/><line style="stroke:#E7E7E7;stroke-width:0.5;stroke-dasharray:5.0,5.0;" x1="853" x2="853" y1="84.0679" y2="795.4822"/><line style="stroke:#E7E7E7;stroke-width:0.5;stroke-dasharray:5.0,5.0;" x1="1058" x2="1058" y1="84.0679" y2="795.4822"/><line style="stroke:#E7E7E7;stroke-width:0.5;stroke-dasharray:5.0,5.0;" x1="1271" x2="1271" y1="84.0679" y2="795.4822"/><line style="stroke:#E7E7E7;stroke-width:0.5;stroke-dasharray:5.0,5.0;" x1="1446" x2="1446" y1="84.0679" y2="795.4822"/><text fill="#FFFFFF" font-family="sans-serif" font-size="14" lengthAdjust="spacing" textLength="53" x="5" y="79.9659">Student</text><ellipse cx="34.5" cy="13.5" fill="#222222" rx="8" ry="8" style="stroke:#E7E7E7;stroke-width:0.5;"/><path d="M34.5,21.5 L34.5,48.5 M21.5,29.5 L47.5,29.5 M34.5,48.5 L21.5,63.5 M34.5,48.5 L47.5,63.5 " fill="none" style="stroke:#E7E7E7;stroke-width:0.5;"/><text fill="#FFFFFF" font-family="sans-serif" font-size="14" lengthAdjust="spacing" textLength="53" x="5" y="809.4482">Student</text><ellipse cx="34.5" cy="822.0501" fill="#222222" rx="8" ry="8" style="stroke:#E7E7E7;stroke-width:0.5;"/><path d="M34.5,830.0501 L34.5,857.0501 M21.5,838.0501 L47.5,838.0501 M34.5,857.0501 L21.5,872.0501 M34.5,857.0501 L47.5,872.0501 " fill="none" style="stroke:#E7E7E7;stroke-width:0.5;"/><rect fill="#222222" height="33.0679" rx="2.5" ry="2.5" style="stroke:#E7E7E7;stroke-width:0.5;" width="96" x="74" y="50"/><text fill="#FFFFFF" font-family="sans-serif" font-size="14" lengthAdjust="spacing" textLength="82" x="81" y="71.9659">TakeExamUI</text><rect fill="#222222" height="33.0679" rx="2.5" ry="2.5" style="stroke:#E7E7E7;stroke-width:0.5;" width="96" x="74" y="794.4822"/><text fill="#FFFFFF" font-family="sans-serif" font-size="14" lengthAdjust="spacing" textLength="82" x="81" y="816.4482">TakeExamUI</text><rect fill="#222222" height="33.0679" rx="2.5" ry="2.5" style="stroke:#E7E7E7;stroke-width:0.5;" width="148" x="180" y="50"/><text fill="#FFFFFF" font-family="sans-serif" font-size="14" lengthAdjust="spacing" textLength="134" x="187" y="71.9659">TakeExamController</text><rect fill="#222222" height="33.0679" rx="2.5" ry="2.5" style="stroke:#E7E7E7;stroke-width:0.5;" width="148" x="180" y="794.4822"/><text fill="#FFFFFF" font-family="sans-serif" font-size="14" lengthAdjust="spacing" textLength="134" x="187" y="816.4482">TakeExamController</text><rect fill="#222222" height="33.0679" rx="2.5" ry="2.5" style="stroke:#E7E7E7;stroke-width:0.5;" width="187" x="338" y="50"/><text fill="#FFFFFF" font-family="sans-serif" font-size="14" lengthAdjust="spacing" textLength="173" x="345" y="71.9659">ListOngoingExamsService</text><rect fill="#222222" height="33.0679" rx="2.5" ry="2.5" style="stroke:#E7E7E7;stroke-width:0.5;" width="187" x="338" y="794.4822"/><text fill="#FFFFFF" font-family="sans-serif" font-size="14" lengthAdjust="spacing" textLength="173" x="345" y="816.4482">ListOngoingExamsService</text><rect fill="#222222" height="33.0679" rx="2.5" ry="2.5" style="stroke:#E7E7E7;stroke-width:0.5;" width="159" x="597" y="50"/><text fill="#FFFFFF" font-family="sans-serif" font-size="14" lengthAdjust="spacing" textLength="145" x="604" y="71.9659">EnrollmentRepository</text><rect fill="#222222" height="33.0679" rx="2.5" ry="2.5" style="stroke:#E7E7E7;stroke-width:0.5;" width="159" x="597" y="794.4822"/><text fill="#FFFFFF" font-family="sans-serif" font-size="14" lengthAdjust="spacing" textLength="145" x="604" y="816.4482">EnrollmentRepository</text><rect fill="#222222" height="33.0679" rx="2.5" ry="2.5" style="stroke:#E7E7E7;stroke-width:0.5;" width="174" x="766" y="50"/><text fill="#FFFFFF" font-family="sans-serif" font-size="14" lengthAdjust="spacing" textLength="160" x="773" y="71.9659">RegularExamRepository</text><rect fill="#222222" height="33.0679" rx="2.5" ry="2.5" style="stroke:#E7E7E7;stroke-width:0.5;" width="174" x="766" y="794.4822"/><text fill="#FFFFFF" font-family="sans-serif" font-size="14" lengthAdjust="spacing" textLength="160" x="773" y="816.4482">RegularExamRepository</text><rect fill="#222222" height="33.0679" rx="2.5" ry="2.5" style="stroke:#E7E7E7;stroke-width:0.5;" width="216" x="950" y="50"/><text fill="#FFFFFF" font-family="sans-serif" font-size="14" lengthAdjust="spacing" textLength="202" x="957" y="71.9659">RegularExamResultRepository</text><rect fill="#222222" height="33.0679" rx="2.5" ry="2.5" style="stroke:#E7E7E7;stroke-width:0.5;" width="216" x="950" y="794.4822"/><text fill="#FFFFFF" font-family="sans-serif" font-size="14" lengthAdjust="spacing" textLength="202" x="957" y="816.4482">RegularExamResultRepository</text><rect fill="#222222" height="33.0679" rx="2.5" ry="2.5" style="stroke:#E7E7E7;stroke-width:0.5;" width="191" x="1176" y="50"/><text fill="#FFFFFF" font-family="sans-serif" font-size="14" lengthAdjust="spacing" textLength="177" x="1183" y="71.9659">OngoingExamDTOMapper</text><rect fill="#222222" height="33.0679" rx="2.5" ry="2.5" style="stroke:#E7E7E7;stroke-width:0.5;" width="191" x="1176" y="794.4822"/><text fill="#FFFFFF" font-family="sans-serif" font-size="14" lengthAdjust="spacing" textLength="177" x="1183" y="816.4482">OngoingExamDTOMapper</text><rect fill="#222222" height="33.0679" rx="2.5" ry="2.5" style="stroke:#E7E7E7;stroke-width:0.5;" width="138" x="1377" y="50"/><text fill="#FFFFFF" font-family="sans-serif" font-size="14" lengthAdjust="spacing" textLength="124" x="1384" y="71.9659">OngoingExamDTO</text><rect fill="#222222" height="33.0679" rx="2.5" ry="2.5" style="stroke:#E7E7E7;stroke-width:0.5;" width="138" x="1377" y="794.4822"/><text fill="#FFFFFF" font-family="sans-serif" font-size="14" lengthAdjust="spacing" textLength="124" x="1384" y="816.4482">OngoingExamDTO</text><rect fill="#000000" height="659.7083" style="stroke:#E7E7E7;stroke-width:1.0;" width="10" x="117" y="117.7739"/><rect fill="#000000" height="30" style="stroke:#E7E7E7;stroke-width:1.0;" width="10" x="249" y="161.333"/><rect fill="#000000" height="510.8842" style="stroke:#E7E7E7;stroke-width:1.0;" width="10" x="249" y="234.892"/><rect fill="#000000" height="276.7951" style="stroke:#E7E7E7;stroke-width:1.0;" width="10" x="426.5" y="278.451"/><rect fill="#000000" height="31.706" style="stroke:#E7E7E7;stroke-width:1.0;" width="10" x="671.5" y="322.01"/><rect fill="#000000" height="31.706" style="stroke:#E7E7E7;stroke-width:1.0;" width="10" x="848" y="385.4221"/><rect fill="#000000" height="30" style="stroke:#E7E7E7;stroke-width:1.0;" width="10" x="1053" y="448.8341"/><rect fill="#000000" height="127.118" style="stroke:#E7E7E7;stroke-width:1.0;" width="10" x="1266.5" y="586.9521"/><rect fill="#000000" height="30" style="stroke:#E7E7E7;stroke-width:1.0;" width="10" x="1441" y="645.3642"/><polygon fill="#E7E7E7" points="105,113.7739,115,117.7739,105,121.7739,109,117.7739" style="stroke:#E7E7E7;stroke-width:1.0;"/><line style="stroke:#E7E7E7;stroke-width:1.0;stroke-dasharray:2.0,2.0;" x1="34.5" x2="111" y1="117.7739" y2="117.7739"/><text fill="#FFFFFF" font-family="sans-serif" font-size="13" lengthAdjust="spacing" textLength="32" x="41.5" y="111.9649">enter</text><polygon fill="#E7E7E7" points="237,157.333,247,161.333,237,165.333,241,161.333" style="stroke:#E7E7E7;stroke-width:1.0;"/><line style="stroke:#E7E7E7;stroke-width:1.0;stroke-dasharray:2.0,2.0;" x1="127" x2="243" y1="161.333" y2="161.333"/><text fill="#FFFFFF" font-family="sans-serif" font-size="13" lengthAdjust="spacing" textLength="45" x="134" y="155.524">create()</text><path d="M264,130.7739 L264,175.7739 L483,175.7739 L483,140.7739 L473,130.7739 L264,130.7739 " fill="#714137" style="stroke:#E7E7E7;stroke-width:0.5;"/><path d="M473,130.7739 L473,140.7739 L483,140.7739 L473,130.7739 " fill="#714137" style="stroke:#E7E7E7;stroke-width:0.5;"/><text fill="#FFFFFF" font-family="sans-serif" font-size="13" lengthAdjust="spacing" textLength="170" x="270" y="149.6709">repositories are retrieved via</text><text fill="#FFFFFF" font-family="sans-serif" font-size="13" lengthAdjust="spacing" textLength="198" x="270" y="167.377">PersistenceContext.repositories()</text><polygon fill="#E7E7E7" points="237,230.892,247,234.892,237,238.892,241,234.892" style="stroke:#E7E7E7;stroke-width:1.0;"/><line style="stroke:#E7E7E7;stroke-width:1.0;stroke-dasharray:2.0,2.0;" x1="127" x2="243" y1="234.892" y2="234.892"/><text fill="#FFFFFF" font-family="sans-serif" font-size="13" lengthAdjust="spacing" textLength="98" x="134" y="229.083">ongoingExams()</text><polygon fill="#E7E7E7" points="414.5,274.451,424.5,278.451,414.5,282.451,418.5,278.451" style="stroke:#E7E7E7;stroke-width:1.0;"/><line style="stroke:#E7E7E7;stroke-width:1.0;stroke-dasharray:2.0,2.0;" x1="259" x2="420.5" y1="278.451" y2="278.451"/><text fill="#FFFFFF" font-family="sans-serif" font-size="13" lengthAdjust="spacing" textLength="120" x="266" y="272.642">forStudent(student)</text><path d="M441,247.892 L441,292.892 L654,292.892 L654,257.892 L644,247.892 L441,247.892 " fill="#714137" style="stroke:#E7E7E7;stroke-width:0.5;"/><path d="M644,247.892 L644,257.892 L654,257.892 L644,247.892 " fill="#714137" style="stroke:#E7E7E7;stroke-width:0.5;"/><text fill="#FFFFFF" font-family="sans-serif" font-size="13" lengthAdjust="spacing" textLength="136" x="447" y="266.789">student is retrieved via</text><text fill="#FFFFFF" font-family="sans-serif" font-size="13" lengthAdjust="spacing" textLength="192" x="447" y="284.495">MyUserService.currentStudent()</text><polygon fill="#E7E7E7" points="659.5,318.01,669.5,322.01,659.5,326.01,663.5,322.01" style="stroke:#E7E7E7;stroke-width:1.0;"/><line style="stroke:#E7E7E7;stroke-width:1.0;stroke-dasharray:2.0,2.0;" x1="436.5" x2="665.5" y1="322.01" y2="322.01"/><text fill="#FFFFFF" font-family="sans-serif" font-size="13" lengthAdjust="spacing" textLength="216" x="443.5" y="316.201">ongoingCoursesOfStudent(student)</text><polygon fill="#E7E7E7" points="447.5,349.716,437.5,353.716,447.5,357.716,443.5,353.716" style="stroke:#E7E7E7;stroke-width:1.0;"/><line style="stroke:#E7E7E7;stroke-width:1.0;stroke-dasharray:2.0,2.0;" x1="441.5" x2="675.5" y1="353.716" y2="353.716"/><text fill="#FFFFFF" font-family="sans-serif" font-size="13" lengthAdjust="spacing" textLength="46" x="453.5" y="347.907">courses</text><polygon fill="#E7E7E7" points="836,381.4221,846,385.4221,836,389.4221,840,385.4221" style="stroke:#E7E7E7;stroke-width:1.0;"/><line style="stroke:#E7E7E7;stroke-width:1.0;stroke-dasharray:2.0,2.0;" x1="436.5" x2="842" y1="385.4221" y2="385.4221"/><text fill="#FFFFFF" font-family="sans-serif" font-size="13" lengthAdjust="spacing" textLength="144" x="443.5" y="379.6131">ongoingExams(courses)</text><polygon fill="#E7E7E7" points="447.5,413.1281,437.5,417.1281,447.5,421.1281,443.5,417.1281" style="stroke:#E7E7E7;stroke-width:1.0;"/><line style="stroke:#E7E7E7;stroke-width:1.0;stroke-dasharray:2.0,2.0;" x1="441.5" x2="852" y1="417.1281" y2="417.1281"/><text fill="#FFFFFF" font-family="sans-serif" font-size="13" lengthAdjust="spacing" textLength="39" x="453.5" y="411.3191">exams</text><polygon fill="#E7E7E7" points="1041,444.8341,1051,448.8341,1041,452.8341,1045,448.8341" style="stroke:#E7E7E7;stroke-width:1.0;"/><line style="stroke:#E7E7E7;stroke-width:1.0;stroke-dasharray:2.0,2.0;" x1="436.5" x2="1047" y1="448.8341" y2="448.8341"/><text fill="#FFFFFF" font-family="sans-serif" font-size="13" lengthAdjust="spacing" textLength="158" x="443.5" y="443.0251">completedExams(student)</text><line style="stroke:#E7E7E7;stroke-width:1.0;stroke-dasharray:2.0,2.0;" x1="436.5" x2="478.5" y1="510.5401" y2="510.5401"/><line style="stroke:#E7E7E7;stroke-width:1.0;stroke-dasharray:2.0,2.0;" x1="478.5" x2="478.5" y1="510.5401" y2="523.5401"/><line style="stroke:#E7E7E7;stroke-width:1.0;stroke-dasharray:2.0,2.0;" x1="437.5" x2="478.5" y1="523.5401" y2="523.5401"/><polygon fill="#E7E7E7" points="447.5,519.5401,437.5,523.5401,447.5,527.5401,443.5,523.5401" style="stroke:#E7E7E7;stroke-width:1.0;"/><text fill="#FFFFFF" font-family="sans-serif" font-size="13" lengthAdjust="spacing" textLength="160" x="443.5" y="504.7311">filter out completed exams</text><polygon fill="#E7E7E7" points="270,551.2461,260,555.2461,270,559.2461,266,555.2461" style="stroke:#E7E7E7;stroke-width:1.0;"/><line style="stroke:#E7E7E7;stroke-width:1.0;stroke-dasharray:2.0,2.0;" x1="264" x2="430.5" y1="555.2461" y2="555.2461"/><text fill="#FFFFFF" font-family="sans-serif" font-size="13" lengthAdjust="spacing" textLength="39" x="276" y="549.4371">exams</text><polygon fill="#E7E7E7" points="1254.5,582.9521,1264.5,586.9521,1254.5,590.9521,1258.5,586.9521" style="stroke:#E7E7E7;stroke-width:1.0;"/><line style="stroke:#E7E7E7;stroke-width:1.0;stroke-dasharray:2.0,2.0;" x1="259" x2="1260.5" y1="586.9521" y2="586.9521"/><text fill="#FFFFFF" font-family="sans-serif" font-size="13" lengthAdjust="spacing" textLength="45" x="266" y="581.1431">create()</text><path d="M1166,601.9521 L1239,601.9521 L1239,611.6582 L1229,621.6582 L1166,621.6582 L1166,601.9521 " fill="#555555" style="stroke:#FFFFFF;stroke-width:1.5;"/><rect fill="none" height="81.412" style="stroke:#FFFFFF;stroke-width:1.5;" width="359" x="1166" y="601.9521"/><text fill="#FFFFFF" font-family="sans-serif" font-size="13" font-weight="bold" lengthAdjust="spacing" textLength="28" x="1181" y="616.8492">loop</text><text fill="#FFFFFF" font-family="sans-serif" font-size="11" font-weight="bold" lengthAdjust="spacing" textLength="140" x="1254" y="615.7111">[for each exam in exams]</text><polygon fill="#E7E7E7" points="1429,641.3642,1439,645.3642,1429,649.3642,1433,645.3642" style="stroke:#E7E7E7;stroke-width:1.0;"/><line style="stroke:#E7E7E7;stroke-width:1.0;stroke-dasharray:2.0,2.0;" x1="1276.5" x2="1435" y1="645.3642" y2="645.3642"/><text fill="#FFFFFF" font-family="sans-serif" font-size="13" lengthAdjust="spacing" textLength="45" x="1283.5" y="639.5552">create()</text><polygon fill="#E7E7E7" points="270,710.0702,260,714.0702,270,718.0702,266,714.0702" style="stroke:#E7E7E7;stroke-width:1.0;"/><line style="stroke:#E7E7E7;stroke-width:1.0;stroke-dasharray:2.0,2.0;" x1="264" x2="1270.5" y1="714.0702" y2="714.0702"/><text fill="#FFFFFF" font-family="sans-serif" font-size="13" lengthAdjust="spacing" textLength="80" x="276" y="708.2612">examDTOList</text><polygon fill="#E7E7E7" points="138,741.7762,128,745.7762,138,749.7762,134,745.7762" style="stroke:#E7E7E7;stroke-width:1.0;"/><line style="stroke:#E7E7E7;stroke-width:1.0;stroke-dasharray:2.0,2.0;" x1="132" x2="253" y1="745.7762" y2="745.7762"/><text fill="#FFFFFF" font-family="sans-serif" font-size="13" lengthAdjust="spacing" textLength="80" x="144" y="739.9672">examDTOList</text><polygon fill="#E7E7E7" points="45.5,773.4822,35.5,777.4822,45.5,781.4822,41.5,777.4822" style="stroke:#E7E7E7;stroke-width:1.0;"/><line style="stroke:#E7E7E7;stroke-width:1.0;stroke-dasharray:2.0,2.0;" x1="39.5" x2="121" y1="777.4822" y2="777.4822"/><text fill="#FFFFFF" font-family="sans-serif" font-size="13" lengthAdjust="spacing" textLength="32" x="51.5" y="771.6732">show</text><!--SRC=[XLJBJkmm3DttAxA41Nm0Yxi15aWNpHMF7HAAKZCJqKag9otmzzXfsYQPT6vMaNtiS-mubifR5Cz-QC5u8PrmqxNf9NgjT2_9_28_uVvR7byV637eglFM6e-swm0Pf3nsJORxgvtVcRtLPizmzmmuQWM1SrGPzDvmeYF9U8BUEaqIVnW7Y_qToP75FC5-w2HowYA8BF-1kw4hc33Ofh0iBgdWxcNtAFj-glSORcUW36ezPMjYXyNLrH_gfRYXiZo5IkNrA3rmVmKTSZ626qaOXK2-YylWMg2Xoo8UOyc2Ud_mXCUv70rEI2G7UBgFq8fHopVp3z3HWu1Hm0y7t_uw3Ob4BUHK5M4sUTApyWAU0-crAUx3OfowYzYGotebSxkqAsju_7brW76EhjM0IBWvwPfjaSDZ9fB3GbXGCLPhKRTsG0Tkzx6fDCjVZgSeJicpDaDDH5b4qlioSRsAUSxBHud9jqGlt-D4xf9m5SgsRPbBggh0v4-5aezz1nxQIUJvpgRVSODy2pApnwdJ7VqrOGU_2eX5LQFYaETb9wmyKgSJFYs3yjTc5SLzaN9srlRyBGIbFmHAeKsbutmY0vFHKgandJ3oyYcTIIMb6qmR53KRj4bdQBlnSg_r9vPvsg9fyHN1vRf9jisy1MWV7EnNao07_Gi0]--></g></svg>