<?xml version="1.0" encoding="us-ascii" standalone="no"?><svg xmlns="http://www.w3.org/2000/svg" xmlns:xlink="http://www.w3.org/1999/xlink" contentStyleType="text/css" height="726px" preserveAspectRatio="none" style="width:1335px;height:726px;background:#FFFFFF;" version="1.1" viewBox="0 0 1335 726" width="1335px" zoomAndPan="magnify"><defs/><g><rect fill="#FFFFFF" height="514.9688" style="stroke:#181818;stroke-width:1.0;" width="10" x="118.5" y="112.7988"/><rect fill="#FFFFFF" height="30" style="stroke:#181818;stroke-width:1.0;" width="10" x="255.5" y="152.7646"/><rect fill="#FFFFFF" height="375.7266" style="stroke:#181818;stroke-width:1.0;" width="10" x="255.5" y="222.7305"/><rect fill="#FFFFFF" height="157.208" style="stroke:#181818;stroke-width:1.0;" width="10" x="438" y="262.6963"/><rect fill="#FFFFFF" height="29.3105" style="stroke:#181818;stroke-width:1.0;" width="10" x="689" y="302.6621"/><rect fill="#FFFFFF" height="29.3105" style="stroke:#181818;stroke-width:1.0;" width="10" x="869" y="361.2832"/><rect fill="#FFFFFF" height="119.9316" style="stroke:#181818;stroke-width:1.0;" width="10" x="1065" y="449.2148"/><rect fill="#FFFFFF" height="30" style="stroke:#181818;stroke-width:1.0;" width="10" x="1243" y="502.8359"/><rect fill="none" height="76.6211" style="stroke:#000000;stroke-width:1.5;" width="366" x="963" y="464.2148"/><line style="stroke:#181818;stroke-width:0.5;stroke-dasharray:5.0,5.0;" x1="34" x2="34" y1="81.4883" y2="645.7676"/><line style="stroke:#181818;stroke-width:0.5;stroke-dasharray:5.0,5.0;" x1="123" x2="123" y1="81.4883" y2="645.7676"/><line style="stroke:#181818;stroke-width:0.5;stroke-dasharray:5.0,5.0;" x1="260" x2="260" y1="81.4883" y2="645.7676"/><line style="stroke:#181818;stroke-width:0.5;stroke-dasharray:5.0,5.0;" x1="443" x2="443" y1="81.4883" y2="645.7676"/><line style="stroke:#181818;stroke-width:0.5;stroke-dasharray:5.0,5.0;" x1="694" x2="694" y1="81.4883" y2="645.7676"/><line style="stroke:#181818;stroke-width:0.5;stroke-dasharray:5.0,5.0;" x1="874" x2="874" y1="81.4883" y2="645.7676"/><line style="stroke:#181818;stroke-width:0.5;stroke-dasharray:5.0,5.0;" x1="1070" x2="1070" y1="81.4883" y2="645.7676"/><line style="stroke:#181818;stroke-width:0.5;stroke-dasharray:5.0,5.0;" x1="1248" x2="1248" y1="81.4883" y2="645.7676"/><text fill="#000000" font-family="sans-serif" font-size="14" lengthAdjust="spacing" textLength="53" x="5" y="78.5352">Student</text><ellipse cx="34.5" cy="13.5" fill="#E2E2F0" rx="8" ry="8" style="stroke:#181818;stroke-width:0.5;"/><path d="M34.5,21.5 L34.5,48.5 M21.5,29.5 L47.5,29.5 M34.5,48.5 L21.5,63.5 M34.5,48.5 L47.5,63.5 " fill="none" style="stroke:#181818;stroke-width:0.5;"/><text fill="#000000" font-family="sans-serif" font-size="14" lengthAdjust="spacing" textLength="53" x="5" y="658.3027">Student</text><ellipse cx="34.5" cy="669.7559" fill="#E2E2F0" rx="8" ry="8" style="stroke:#181818;stroke-width:0.5;"/><path d="M34.5,677.7559 L34.5,704.7559 M21.5,685.7559 L47.5,685.7559 M34.5,704.7559 L21.5,719.7559 M34.5,704.7559 L47.5,719.7559 " fill="none" style="stroke:#181818;stroke-width:0.5;"/><rect fill="#E2E2F0" height="30.4883" rx="2.5" ry="2.5" style="stroke:#181818;stroke-width:0.5;" width="99" x="74" y="50"/><text fill="#000000" font-family="sans-serif" font-size="14" lengthAdjust="spacing" textLength="85" x="81" y="70.5352">TakeExamUI</text><rect fill="#E2E2F0" height="30.4883" rx="2.5" ry="2.5" style="stroke:#181818;stroke-width:0.5;" width="99" x="74" y="644.7676"/><text fill="#000000" font-family="sans-serif" font-size="14" lengthAdjust="spacing" textLength="85" x="81" y="665.3027">TakeExamUI</text><rect fill="#E2E2F0" height="30.4883" rx="2.5" ry="2.5" style="stroke:#181818;stroke-width:0.5;" width="155" x="183" y="50"/><text fill="#000000" font-family="sans-serif" font-size="14" lengthAdjust="spacing" textLength="141" x="190" y="70.5352">TakeExamController</text><rect fill="#E2E2F0" height="30.4883" rx="2.5" ry="2.5" style="stroke:#181818;stroke-width:0.5;" width="155" x="183" y="644.7676"/><text fill="#000000" font-family="sans-serif" font-size="14" lengthAdjust="spacing" textLength="141" x="190" y="665.3027">TakeExamController</text><rect fill="#E2E2F0" height="30.4883" rx="2.5" ry="2.5" style="stroke:#181818;stroke-width:0.5;" width="190" x="348" y="50"/><text fill="#000000" font-family="sans-serif" font-size="14" lengthAdjust="spacing" textLength="176" x="355" y="70.5352">ListOngoingExamsService</text><rect fill="#E2E2F0" height="30.4883" rx="2.5" ry="2.5" style="stroke:#181818;stroke-width:0.5;" width="190" x="348" y="644.7676"/><text fill="#000000" font-family="sans-serif" font-size="14" lengthAdjust="spacing" textLength="176" x="355" y="665.3027">ListOngoingExamsService</text><rect fill="#E2E2F0" height="30.4883" rx="2.5" ry="2.5" style="stroke:#181818;stroke-width:0.5;" width="162" x="613" y="50"/><text fill="#000000" font-family="sans-serif" font-size="14" lengthAdjust="spacing" textLength="148" x="620" y="70.5352">EnrollmentRepository</text><rect fill="#E2E2F0" height="30.4883" rx="2.5" ry="2.5" style="stroke:#181818;stroke-width:0.5;" width="162" x="613" y="644.7676"/><text fill="#000000" font-family="sans-serif" font-size="14" lengthAdjust="spacing" textLength="148" x="620" y="665.3027">EnrollmentRepository</text><rect fill="#E2E2F0" height="30.4883" rx="2.5" ry="2.5" style="stroke:#181818;stroke-width:0.5;" width="178" x="785" y="50"/><text fill="#000000" font-family="sans-serif" font-size="14" lengthAdjust="spacing" textLength="164" x="792" y="70.5352">RegularExamRepository</text><rect fill="#E2E2F0" height="30.4883" rx="2.5" ry="2.5" style="stroke:#181818;stroke-width:0.5;" width="178" x="785" y="644.7676"/><text fill="#000000" font-family="sans-serif" font-size="14" lengthAdjust="spacing" textLength="164" x="792" y="665.3027">RegularExamRepository</text><rect fill="#E2E2F0" height="30.4883" rx="2.5" ry="2.5" style="stroke:#181818;stroke-width:0.5;" width="194" x="973" y="50"/><text fill="#000000" font-family="sans-serif" font-size="14" lengthAdjust="spacing" textLength="180" x="980" y="70.5352">OngoingExamDTOMapper</text><rect fill="#E2E2F0" height="30.4883" rx="2.5" ry="2.5" style="stroke:#181818;stroke-width:0.5;" width="194" x="973" y="644.7676"/><text fill="#000000" font-family="sans-serif" font-size="14" lengthAdjust="spacing" textLength="180" x="980" y="665.3027">OngoingExamDTOMapper</text><rect fill="#E2E2F0" height="30.4883" rx="2.5" ry="2.5" style="stroke:#181818;stroke-width:0.5;" width="142" x="1177" y="50"/><text fill="#000000" font-family="sans-serif" font-size="14" lengthAdjust="spacing" textLength="128" x="1184" y="70.5352">OngoingExamDTO</text><rect fill="#E2E2F0" height="30.4883" rx="2.5" ry="2.5" style="stroke:#181818;stroke-width:0.5;" width="142" x="1177" y="644.7676"/><text fill="#000000" font-family="sans-serif" font-size="14" lengthAdjust="spacing" textLength="128" x="1184" y="665.3027">OngoingExamDTO</text><rect fill="#FFFFFF" height="514.9688" style="stroke:#181818;stroke-width:1.0;" width="10" x="118.5" y="112.7988"/><rect fill="#FFFFFF" height="30" style="stroke:#181818;stroke-width:1.0;" width="10" x="255.5" y="152.7646"/><rect fill="#FFFFFF" height="375.7266" style="stroke:#181818;stroke-width:1.0;" width="10" x="255.5" y="222.7305"/><rect fill="#FFFFFF" height="157.208" style="stroke:#181818;stroke-width:1.0;" width="10" x="438" y="262.6963"/><rect fill="#FFFFFF" height="29.3105" style="stroke:#181818;stroke-width:1.0;" width="10" x="689" y="302.6621"/><rect fill="#FFFFFF" height="29.3105" style="stroke:#181818;stroke-width:1.0;" width="10" x="869" y="361.2832"/><rect fill="#FFFFFF" height="119.9316" style="stroke:#181818;stroke-width:1.0;" width="10" x="1065" y="449.2148"/><rect fill="#FFFFFF" height="30" style="stroke:#181818;stroke-width:1.0;" width="10" x="1243" y="502.8359"/><polygon fill="#181818" points="106.5,108.7988,116.5,112.7988,106.5,116.7988,110.5,112.7988" style="stroke:#181818;stroke-width:1.0;"/><line style="stroke:#181818;stroke-width:1.0;stroke-dasharray:2.0,2.0;" x1="34.5" x2="112.5" y1="112.7988" y2="112.7988"/><text fill="#000000" font-family="sans-serif" font-size="13" lengthAdjust="spacing" textLength="32" x="41.5" y="108.0566">enter</text><polygon fill="#181818" points="243.5,148.7646,253.5,152.7646,243.5,156.7646,247.5,152.7646" style="stroke:#181818;stroke-width:1.0;"/><line style="stroke:#181818;stroke-width:1.0;stroke-dasharray:2.0,2.0;" x1="128.5" x2="249.5" y1="152.7646" y2="152.7646"/><text fill="#000000" font-family="sans-serif" font-size="13" lengthAdjust="spacing" textLength="46" x="135.5" y="148.0225">create()</text><path d="M270,125.7988 L270,165.7988 L499,165.7988 L499,135.7988 L489,125.7988 L270,125.7988 " fill="#FEFFDD" style="stroke:#181818;stroke-width:0.5;"/><path d="M489,125.7988 L489,135.7988 L499,135.7988 L489,125.7988 " fill="#FEFFDD" style="stroke:#181818;stroke-width:0.5;"/><text fill="#000000" font-family="sans-serif" font-size="13" lengthAdjust="spacing" textLength="179" x="276" y="143.3672">repositories are retrieved via</text><text fill="#000000" font-family="sans-serif" font-size="13" lengthAdjust="spacing" textLength="208" x="276" y="158.6777">PersistenceContext.repositories()</text><polygon fill="#181818" points="243.5,218.7305,253.5,222.7305,243.5,226.7305,247.5,222.7305" style="stroke:#181818;stroke-width:1.0;"/><line style="stroke:#181818;stroke-width:1.0;stroke-dasharray:2.0,2.0;" x1="128.5" x2="249.5" y1="222.7305" y2="222.7305"/><text fill="#000000" font-family="sans-serif" font-size="13" lengthAdjust="spacing" textLength="101" x="135.5" y="217.9883">ongoingExams()</text><polygon fill="#181818" points="426,258.6963,436,262.6963,426,266.6963,430,262.6963" style="stroke:#181818;stroke-width:1.0;"/><line style="stroke:#181818;stroke-width:1.0;stroke-dasharray:2.0,2.0;" x1="265.5" x2="432" y1="262.6963" y2="262.6963"/><text fill="#000000" font-family="sans-serif" font-size="13" lengthAdjust="spacing" textLength="122" x="272.5" y="257.9541">forStudent(student)</text><path d="M453,235.7305 L453,275.7305 L669,275.7305 L669,245.7305 L659,235.7305 L453,235.7305 " fill="#FEFFDD" style="stroke:#181818;stroke-width:0.5;"/><path d="M659,235.7305 L659,245.7305 L669,245.7305 L659,235.7305 " fill="#FEFFDD" style="stroke:#181818;stroke-width:0.5;"/><text fill="#000000" font-family="sans-serif" font-size="13" lengthAdjust="spacing" textLength="144" x="459" y="253.2988">student is retrieved via</text><text fill="#000000" font-family="sans-serif" font-size="13" lengthAdjust="spacing" textLength="195" x="459" y="268.6094">MyUserService.currentStudent()</text><polygon fill="#181818" points="677,298.6621,687,302.6621,677,306.6621,681,302.6621" style="stroke:#181818;stroke-width:1.0;"/><line style="stroke:#181818;stroke-width:1.0;stroke-dasharray:2.0,2.0;" x1="448" x2="683" y1="302.6621" y2="302.6621"/><text fill="#000000" font-family="sans-serif" font-size="13" lengthAdjust="spacing" textLength="222" x="455" y="297.9199">ongoingCoursesOfStudent(student)</text><polygon fill="#181818" points="459,327.9727,449,331.9727,459,335.9727,455,331.9727" style="stroke:#181818;stroke-width:1.0;"/><line style="stroke:#181818;stroke-width:1.0;stroke-dasharray:2.0,2.0;" x1="453" x2="693" y1="331.9727" y2="331.9727"/><text fill="#000000" font-family="sans-serif" font-size="13" lengthAdjust="spacing" textLength="49" x="465" y="327.2305">courses</text><polygon fill="#181818" points="857,357.2832,867,361.2832,857,365.2832,861,361.2832" style="stroke:#181818;stroke-width:1.0;"/><line style="stroke:#181818;stroke-width:1.0;stroke-dasharray:2.0,2.0;" x1="448" x2="863" y1="361.2832" y2="361.2832"/><text fill="#000000" font-family="sans-serif" font-size="13" lengthAdjust="spacing" textLength="150" x="455" y="356.541">ongoingExams(courses)</text><polygon fill="#181818" points="459,386.5938,449,390.5938,459,394.5938,455,390.5938" style="stroke:#181818;stroke-width:1.0;"/><line style="stroke:#181818;stroke-width:1.0;stroke-dasharray:2.0,2.0;" x1="453" x2="873" y1="390.5938" y2="390.5938"/><text fill="#000000" font-family="sans-serif" font-size="13" lengthAdjust="spacing" textLength="41" x="465" y="385.8516">exams</text><polygon fill="#181818" points="276.5,415.9043,266.5,419.9043,276.5,423.9043,272.5,419.9043" style="stroke:#181818;stroke-width:1.0;"/><line style="stroke:#181818;stroke-width:1.0;stroke-dasharray:2.0,2.0;" x1="270.5" x2="442" y1="419.9043" y2="419.9043"/><text fill="#000000" font-family="sans-serif" font-size="13" lengthAdjust="spacing" textLength="41" x="282.5" y="415.1621">exams</text><polygon fill="#181818" points="1053,445.2148,1063,449.2148,1053,453.2148,1057,449.2148" style="stroke:#181818;stroke-width:1.0;"/><line style="stroke:#181818;stroke-width:1.0;stroke-dasharray:2.0,2.0;" x1="265.5" x2="1059" y1="449.2148" y2="449.2148"/><text fill="#000000" font-family="sans-serif" font-size="13" lengthAdjust="spacing" textLength="46" x="272.5" y="444.4727">create()</text><path d="M963,464.2148 L1037,464.2148 L1037,471.5254 L1027,481.5254 L963,481.5254 L963,464.2148 " fill="#EEEEEE" style="stroke:#000000;stroke-width:1.5;"/><rect fill="none" height="76.6211" style="stroke:#000000;stroke-width:1.5;" width="366" x="963" y="464.2148"/><text fill="#000000" font-family="sans-serif" font-size="13" font-weight="bold" lengthAdjust="spacing" textLength="29" x="978" y="477.7832">loop</text><text fill="#000000" font-family="sans-serif" font-size="11" font-weight="bold" lengthAdjust="spacing" textLength="141" x="1052" y="476.8496">[for each exam in exams]</text><polygon fill="#181818" points="1231,498.8359,1241,502.8359,1231,506.8359,1235,502.8359" style="stroke:#181818;stroke-width:1.0;"/><line style="stroke:#181818;stroke-width:1.0;stroke-dasharray:2.0,2.0;" x1="1075" x2="1237" y1="502.8359" y2="502.8359"/><text fill="#000000" font-family="sans-serif" font-size="13" lengthAdjust="spacing" textLength="46" x="1082" y="498.0938">create()</text><polygon fill="#181818" points="276.5,565.1465,266.5,569.1465,276.5,573.1465,272.5,569.1465" style="stroke:#181818;stroke-width:1.0;"/><line style="stroke:#181818;stroke-width:1.0;stroke-dasharray:2.0,2.0;" x1="270.5" x2="1069" y1="569.1465" y2="569.1465"/><text fill="#000000" font-family="sans-serif" font-size="13" lengthAdjust="spacing" textLength="85" x="282.5" y="564.4043">examDTOList</text><polygon fill="#181818" points="139.5,594.457,129.5,598.457,139.5,602.457,135.5,598.457" style="stroke:#181818;stroke-width:1.0;"/><line style="stroke:#181818;stroke-width:1.0;stroke-dasharray:2.0,2.0;" x1="133.5" x2="259.5" y1="598.457" y2="598.457"/><text fill="#000000" font-family="sans-serif" font-size="13" lengthAdjust="spacing" textLength="85" x="145.5" y="593.7148">examDTOList</text><polygon fill="#181818" points="45.5,623.7676,35.5,627.7676,45.5,631.7676,41.5,627.7676" style="stroke:#181818;stroke-width:1.0;"/><line style="stroke:#181818;stroke-width:1.0;stroke-dasharray:2.0,2.0;" x1="39.5" x2="122.5" y1="627.7676" y2="627.7676"/><text fill="#000000" font-family="sans-serif" font-size="13" lengthAdjust="spacing" textLength="33" x="51.5" y="623.0254">show</text><!--SRC=[VLJ1JiCm3BttAt9a1_W03bm61oIceS5kI2XAJHVH9PMJ5lXxx3PjaxHRJbNyxFVyObSgRr6y-RO4uuLqmWsVHIFHQwKRITVlyXkUVkNv-Co8Lgy6jzPuj7KDo23biIuIt8jsVcyggqt5SFS6s6a5FMUd4kYJuK9dad60nZfD4lyO1zFz9r8WoJb0rTOIkNIMH3S3FC57KXxVzplPD8FmS_zr1SgWqbEr8bWbRcyVo1HnJ_eyfKhbTISzi5623eKOmOuGHY5Gx6RJXoPeRvS8nrYwGLsTFE5nR4Q34n8f09w-EoX5f-M7UGLqv2mO1Vm2yEllufH0L49AjIBCHczpLLwFvqHwDihxiXZ6voOOibdlPBHBkxo7tT_H0OQ1k5Cj8k76edErIGxFYuWE2s51sNpCJMrjYmxS_kkYqgH-FcSYEpdFR8OQY9ACoFkyy7eNuy3cZnAANn8zpVb2xbHm5iftbsNEAxCcC0nCMY9Av-TPJikmMFa692s4tOivQsiR7Z51vKyzfT1cHJsVmC1ajA1hJ0j6NkGy67MIXy6KlQBY0cta3Fqf-8-tvazeSsdHy1F9alFLZJPtt2ZQhPFzAI9ag_y1]--></g></svg>