<?xml version="1.0" encoding="us-ascii" standalone="no"?><svg xmlns="http://www.w3.org/2000/svg" xmlns:xlink="http://www.w3.org/1999/xlink" contentStyleType="text/css" height="828px" preserveAspectRatio="none" style="width:1565px;height:828px;background:#FFFFFF;" version="1.1" viewBox="0 0 1565 828" width="1565px" zoomAndPan="magnify"><defs/><g><rect fill="#FFFFFF" height="616.5898" style="stroke:#181818;stroke-width:1.0;" width="10" x="118.5" y="112.7988"/><rect fill="#FFFFFF" height="30" style="stroke:#181818;stroke-width:1.0;" width="10" x="255.5" y="152.7646"/><rect fill="#FFFFFF" height="477.3477" style="stroke:#181818;stroke-width:1.0;" width="10" x="255.5" y="222.7305"/><rect fill="#FFFFFF" height="258.8291" style="stroke:#181818;stroke-width:1.0;" width="10" x="438" y="262.6963"/><rect fill="#FFFFFF" height="29.3105" style="stroke:#181818;stroke-width:1.0;" width="10" x="689" y="302.6621"/><rect fill="#FFFFFF" height="29.3105" style="stroke:#181818;stroke-width:1.0;" width="10" x="869" y="361.2832"/><rect fill="#FFFFFF" height="30" style="stroke:#181818;stroke-width:1.0;" width="10" x="1078" y="419.9043"/><rect fill="#FFFFFF" height="119.9316" style="stroke:#181818;stroke-width:1.0;" width="10" x="1295" y="550.8359"/><rect fill="#FFFFFF" height="30" style="stroke:#181818;stroke-width:1.0;" width="10" x="1473" y="604.457"/><rect fill="none" height="76.6211" style="stroke:#000000;stroke-width:1.5;" width="366" x="1193" y="565.8359"/><line style="stroke:#181818;stroke-width:0.5;stroke-dasharray:5.0,5.0;" x1="34" x2="34" y1="81.4883" y2="747.3887"/><line style="stroke:#181818;stroke-width:0.5;stroke-dasharray:5.0,5.0;" x1="123" x2="123" y1="81.4883" y2="747.3887"/><line style="stroke:#181818;stroke-width:0.5;stroke-dasharray:5.0,5.0;" x1="260" x2="260" y1="81.4883" y2="747.3887"/><line style="stroke:#181818;stroke-width:0.5;stroke-dasharray:5.0,5.0;" x1="443" x2="443" y1="81.4883" y2="747.3887"/><line style="stroke:#181818;stroke-width:0.5;stroke-dasharray:5.0,5.0;" x1="694" x2="694" y1="81.4883" y2="747.3887"/><line style="stroke:#181818;stroke-width:0.5;stroke-dasharray:5.0,5.0;" x1="874" x2="874" y1="81.4883" y2="747.3887"/><line style="stroke:#181818;stroke-width:0.5;stroke-dasharray:5.0,5.0;" x1="1083" x2="1083" y1="81.4883" y2="747.3887"/><line style="stroke:#181818;stroke-width:0.5;stroke-dasharray:5.0,5.0;" x1="1300" x2="1300" y1="81.4883" y2="747.3887"/><line style="stroke:#181818;stroke-width:0.5;stroke-dasharray:5.0,5.0;" x1="1478" x2="1478" y1="81.4883" y2="747.3887"/><text fill="#000000" font-family="sans-serif" font-size="14" lengthAdjust="spacing" textLength="53" x="5" y="78.5352">Student</text><ellipse cx="34.5" cy="13.5" fill="#E2E2F0" rx="8" ry="8" style="stroke:#181818;stroke-width:0.5;"/><path d="M34.5,21.5 L34.5,48.5 M21.5,29.5 L47.5,29.5 M34.5,48.5 L21.5,63.5 M34.5,48.5 L47.5,63.5 " fill="none" style="stroke:#181818;stroke-width:0.5;"/><text fill="#000000" font-family="sans-serif" font-size="14" lengthAdjust="spacing" textLength="53" x="5" y="759.9238">Student</text><ellipse cx="34.5" cy="771.377" fill="#E2E2F0" rx="8" ry="8" style="stroke:#181818;stroke-width:0.5;"/><path d="M34.5,779.377 L34.5,806.377 M21.5,787.377 L47.5,787.377 M34.5,806.377 L21.5,821.377 M34.5,806.377 L47.5,821.377 " fill="none" style="stroke:#181818;stroke-width:0.5;"/><rect fill="#E2E2F0" height="30.4883" rx="2.5" ry="2.5" style="stroke:#181818;stroke-width:0.5;" width="99" x="74" y="50"/><text fill="#000000" font-family="sans-serif" font-size="14" lengthAdjust="spacing" textLength="85" x="81" y="70.5352">TakeExamUI</text><rect fill="#E2E2F0" height="30.4883" rx="2.5" ry="2.5" style="stroke:#181818;stroke-width:0.5;" width="99" x="74" y="746.3887"/><text fill="#000000" font-family="sans-serif" font-size="14" lengthAdjust="spacing" textLength="85" x="81" y="766.9238">TakeExamUI</text><rect fill="#E2E2F0" height="30.4883" rx="2.5" ry="2.5" style="stroke:#181818;stroke-width:0.5;" width="155" x="183" y="50"/><text fill="#000000" font-family="sans-serif" font-size="14" lengthAdjust="spacing" textLength="141" x="190" y="70.5352">TakeExamController</text><rect fill="#E2E2F0" height="30.4883" rx="2.5" ry="2.5" style="stroke:#181818;stroke-width:0.5;" width="155" x="183" y="746.3887"/><text fill="#000000" font-family="sans-serif" font-size="14" lengthAdjust="spacing" textLength="141" x="190" y="766.9238">TakeExamController</text><rect fill="#E2E2F0" height="30.4883" rx="2.5" ry="2.5" style="stroke:#181818;stroke-width:0.5;" width="190" x="348" y="50"/><text fill="#000000" font-family="sans-serif" font-size="14" lengthAdjust="spacing" textLength="176" x="355" y="70.5352">ListOngoingExamsService</text><rect fill="#E2E2F0" height="30.4883" rx="2.5" ry="2.5" style="stroke:#181818;stroke-width:0.5;" width="190" x="348" y="746.3887"/><text fill="#000000" font-family="sans-serif" font-size="14" lengthAdjust="spacing" textLength="176" x="355" y="766.9238">ListOngoingExamsService</text><rect fill="#E2E2F0" height="30.4883" rx="2.5" ry="2.5" style="stroke:#181818;stroke-width:0.5;" width="162" x="613" y="50"/><text fill="#000000" font-family="sans-serif" font-size="14" lengthAdjust="spacing" textLength="148" x="620" y="70.5352">EnrollmentRepository</text><rect fill="#E2E2F0" height="30.4883" rx="2.5" ry="2.5" style="stroke:#181818;stroke-width:0.5;" width="162" x="613" y="746.3887"/><text fill="#000000" font-family="sans-serif" font-size="14" lengthAdjust="spacing" textLength="148" x="620" y="766.9238">EnrollmentRepository</text><rect fill="#E2E2F0" height="30.4883" rx="2.5" ry="2.5" style="stroke:#181818;stroke-width:0.5;" width="178" x="785" y="50"/><text fill="#000000" font-family="sans-serif" font-size="14" lengthAdjust="spacing" textLength="164" x="792" y="70.5352">RegularExamRepository</text><rect fill="#E2E2F0" height="30.4883" rx="2.5" ry="2.5" style="stroke:#181818;stroke-width:0.5;" width="178" x="785" y="746.3887"/><text fill="#000000" font-family="sans-serif" font-size="14" lengthAdjust="spacing" textLength="164" x="792" y="766.9238">RegularExamRepository</text><rect fill="#E2E2F0" height="30.4883" rx="2.5" ry="2.5" style="stroke:#181818;stroke-width:0.5;" width="220" x="973" y="50"/><text fill="#000000" font-family="sans-serif" font-size="14" lengthAdjust="spacing" textLength="206" x="980" y="70.5352">RegularExamResultRepository</text><rect fill="#E2E2F0" height="30.4883" rx="2.5" ry="2.5" style="stroke:#181818;stroke-width:0.5;" width="220" x="973" y="746.3887"/><text fill="#000000" font-family="sans-serif" font-size="14" lengthAdjust="spacing" textLength="206" x="980" y="766.9238">RegularExamResultRepository</text><rect fill="#E2E2F0" height="30.4883" rx="2.5" ry="2.5" style="stroke:#181818;stroke-width:0.5;" width="194" x="1203" y="50"/><text fill="#000000" font-family="sans-serif" font-size="14" lengthAdjust="spacing" textLength="180" x="1210" y="70.5352">OngoingExamDTOMapper</text><rect fill="#E2E2F0" height="30.4883" rx="2.5" ry="2.5" style="stroke:#181818;stroke-width:0.5;" width="194" x="1203" y="746.3887"/><text fill="#000000" font-family="sans-serif" font-size="14" lengthAdjust="spacing" textLength="180" x="1210" y="766.9238">OngoingExamDTOMapper</text><rect fill="#E2E2F0" height="30.4883" rx="2.5" ry="2.5" style="stroke:#181818;stroke-width:0.5;" width="142" x="1407" y="50"/><text fill="#000000" font-family="sans-serif" font-size="14" lengthAdjust="spacing" textLength="128" x="1414" y="70.5352">OngoingExamDTO</text><rect fill="#E2E2F0" height="30.4883" rx="2.5" ry="2.5" style="stroke:#181818;stroke-width:0.5;" width="142" x="1407" y="746.3887"/><text fill="#000000" font-family="sans-serif" font-size="14" lengthAdjust="spacing" textLength="128" x="1414" y="766.9238">OngoingExamDTO</text><rect fill="#FFFFFF" height="616.5898" style="stroke:#181818;stroke-width:1.0;" width="10" x="118.5" y="112.7988"/><rect fill="#FFFFFF" height="30" style="stroke:#181818;stroke-width:1.0;" width="10" x="255.5" y="152.7646"/><rect fill="#FFFFFF" height="477.3477" style="stroke:#181818;stroke-width:1.0;" width="10" x="255.5" y="222.7305"/><rect fill="#FFFFFF" height="258.8291" style="stroke:#181818;stroke-width:1.0;" width="10" x="438" y="262.6963"/><rect fill="#FFFFFF" height="29.3105" style="stroke:#181818;stroke-width:1.0;" width="10" x="689" y="302.6621"/><rect fill="#FFFFFF" height="29.3105" style="stroke:#181818;stroke-width:1.0;" width="10" x="869" y="361.2832"/><rect fill="#FFFFFF" height="30" style="stroke:#181818;stroke-width:1.0;" width="10" x="1078" y="419.9043"/><rect fill="#FFFFFF" height="119.9316" style="stroke:#181818;stroke-width:1.0;" width="10" x="1295" y="550.8359"/><rect fill="#FFFFFF" height="30" style="stroke:#181818;stroke-width:1.0;" width="10" x="1473" y="604.457"/><polygon fill="#181818" points="106.5,108.7988,116.5,112.7988,106.5,116.7988,110.5,112.7988" style="stroke:#181818;stroke-width:1.0;"/><line style="stroke:#181818;stroke-width:1.0;stroke-dasharray:2.0,2.0;" x1="34.5" x2="112.5" y1="112.7988" y2="112.7988"/><text fill="#000000" font-family="sans-serif" font-size="13" lengthAdjust="spacing" textLength="32" x="41.5" y="108.0566">enter</text><polygon fill="#181818" points="243.5,148.7646,253.5,152.7646,243.5,156.7646,247.5,152.7646" style="stroke:#181818;stroke-width:1.0;"/><line style="stroke:#181818;stroke-width:1.0;stroke-dasharray:2.0,2.0;" x1="128.5" x2="249.5" y1="152.7646" y2="152.7646"/><text fill="#000000" font-family="sans-serif" font-size="13" lengthAdjust="spacing" textLength="46" x="135.5" y="148.0225">create()</text><path d="M270,125.7988 L270,165.7988 L499,165.7988 L499,135.7988 L489,125.7988 L270,125.7988 " fill="#FEFFDD" style="stroke:#181818;stroke-width:0.5;"/><path d="M489,125.7988 L489,135.7988 L499,135.7988 L489,125.7988 " fill="#FEFFDD" style="stroke:#181818;stroke-width:0.5;"/><text fill="#000000" font-family="sans-serif" font-size="13" lengthAdjust="spacing" textLength="179" x="276" y="143.3672">repositories are retrieved via</text><text fill="#000000" font-family="sans-serif" font-size="13" lengthAdjust="spacing" textLength="208" x="276" y="158.6777">PersistenceContext.repositories()</text><polygon fill="#181818" points="243.5,218.7305,253.5,222.7305,243.5,226.7305,247.5,222.7305" style="stroke:#181818;stroke-width:1.0;"/><line style="stroke:#181818;stroke-width:1.0;stroke-dasharray:2.0,2.0;" x1="128.5" x2="249.5" y1="222.7305" y2="222.7305"/><text fill="#000000" font-family="sans-serif" font-size="13" lengthAdjust="spacing" textLength="101" x="135.5" y="217.9883">ongoingExams()</text><polygon fill="#181818" points="426,258.6963,436,262.6963,426,266.6963,430,262.6963" style="stroke:#181818;stroke-width:1.0;"/><line style="stroke:#181818;stroke-width:1.0;stroke-dasharray:2.0,2.0;" x1="265.5" x2="432" y1="262.6963" y2="262.6963"/><text fill="#000000" font-family="sans-serif" font-size="13" lengthAdjust="spacing" textLength="122" x="272.5" y="257.9541">forStudent(student)</text><path d="M453,235.7305 L453,275.7305 L669,275.7305 L669,245.7305 L659,235.7305 L453,235.7305 " fill="#FEFFDD" style="stroke:#181818;stroke-width:0.5;"/><path d="M659,235.7305 L659,245.7305 L669,245.7305 L659,235.7305 " fill="#FEFFDD" style="stroke:#181818;stroke-width:0.5;"/><text fill="#000000" font-family="sans-serif" font-size="13" lengthAdjust="spacing" textLength="144" x="459" y="253.2988">student is retrieved via</text><text fill="#000000" font-family="sans-serif" font-size="13" lengthAdjust="spacing" textLength="195" x="459" y="268.6094">MyUserService.currentStudent()</text><polygon fill="#181818" points="677,298.6621,687,302.6621,677,306.6621,681,302.6621" style="stroke:#181818;stroke-width:1.0;"/><line style="stroke:#181818;stroke-width:1.0;stroke-dasharray:2.0,2.0;" x1="448" x2="683" y1="302.6621" y2="302.6621"/><text fill="#000000" font-family="sans-serif" font-size="13" lengthAdjust="spacing" textLength="222" x="455" y="297.9199">ongoingCoursesOfStudent(student)</text><polygon fill="#181818" points="459,327.9727,449,331.9727,459,335.9727,455,331.9727" style="stroke:#181818;stroke-width:1.0;"/><line style="stroke:#181818;stroke-width:1.0;stroke-dasharray:2.0,2.0;" x1="453" x2="693" y1="331.9727" y2="331.9727"/><text fill="#000000" font-family="sans-serif" font-size="13" lengthAdjust="spacing" textLength="49" x="465" y="327.2305">courses</text><polygon fill="#181818" points="857,357.2832,867,361.2832,857,365.2832,861,361.2832" style="stroke:#181818;stroke-width:1.0;"/><line style="stroke:#181818;stroke-width:1.0;stroke-dasharray:2.0,2.0;" x1="448" x2="863" y1="361.2832" y2="361.2832"/><text fill="#000000" font-family="sans-serif" font-size="13" lengthAdjust="spacing" textLength="150" x="455" y="356.541">ongoingExams(courses)</text><polygon fill="#181818" points="459,386.5938,449,390.5938,459,394.5938,455,390.5938" style="stroke:#181818;stroke-width:1.0;"/><line style="stroke:#181818;stroke-width:1.0;stroke-dasharray:2.0,2.0;" x1="453" x2="873" y1="390.5938" y2="390.5938"/><text fill="#000000" font-family="sans-serif" font-size="13" lengthAdjust="spacing" textLength="41" x="465" y="385.8516">exams</text><polygon fill="#181818" points="1066,415.9043,1076,419.9043,1066,423.9043,1070,419.9043" style="stroke:#181818;stroke-width:1.0;"/><line style="stroke:#181818;stroke-width:1.0;stroke-dasharray:2.0,2.0;" x1="448" x2="1072" y1="419.9043" y2="419.9043"/><text fill="#000000" font-family="sans-serif" font-size="13" lengthAdjust="spacing" textLength="163" x="455" y="415.1621">completedExams(student)</text><line style="stroke:#181818;stroke-width:1.0;stroke-dasharray:2.0,2.0;" x1="448" x2="490" y1="479.2148" y2="479.2148"/><line style="stroke:#181818;stroke-width:1.0;stroke-dasharray:2.0,2.0;" x1="490" x2="490" y1="479.2148" y2="492.2148"/><line style="stroke:#181818;stroke-width:1.0;stroke-dasharray:2.0,2.0;" x1="449" x2="490" y1="492.2148" y2="492.2148"/><polygon fill="#181818" points="459,488.2148,449,492.2148,459,496.2148,455,492.2148" style="stroke:#181818;stroke-width:1.0;"/><text fill="#000000" font-family="sans-serif" font-size="13" lengthAdjust="spacing" textLength="170" x="455" y="474.4727">filter out completed exams</text><polygon fill="#181818" points="276.5,517.5254,266.5,521.5254,276.5,525.5254,272.5,521.5254" style="stroke:#181818;stroke-width:1.0;"/><line style="stroke:#181818;stroke-width:1.0;stroke-dasharray:2.0,2.0;" x1="270.5" x2="442" y1="521.5254" y2="521.5254"/><text fill="#000000" font-family="sans-serif" font-size="13" lengthAdjust="spacing" textLength="41" x="282.5" y="516.7832">exams</text><polygon fill="#181818" points="1283,546.8359,1293,550.8359,1283,554.8359,1287,550.8359" style="stroke:#181818;stroke-width:1.0;"/><line style="stroke:#181818;stroke-width:1.0;stroke-dasharray:2.0,2.0;" x1="265.5" x2="1289" y1="550.8359" y2="550.8359"/><text fill="#000000" font-family="sans-serif" font-size="13" lengthAdjust="spacing" textLength="46" x="272.5" y="546.0938">create()</text><path d="M1193,565.8359 L1267,565.8359 L1267,573.1465 L1257,583.1465 L1193,583.1465 L1193,565.8359 " fill="#EEEEEE" style="stroke:#000000;stroke-width:1.5;"/><rect fill="none" height="76.6211" style="stroke:#000000;stroke-width:1.5;" width="366" x="1193" y="565.8359"/><text fill="#000000" font-family="sans-serif" font-size="13" font-weight="bold" lengthAdjust="spacing" textLength="29" x="1208" y="579.4043">loop</text><text fill="#000000" font-family="sans-serif" font-size="11" font-weight="bold" lengthAdjust="spacing" textLength="141" x="1282" y="578.4707">[for each exam in exams]</text><polygon fill="#181818" points="1461,600.457,1471,604.457,1461,608.457,1465,604.457" style="stroke:#181818;stroke-width:1.0;"/><line style="stroke:#181818;stroke-width:1.0;stroke-dasharray:2.0,2.0;" x1="1305" x2="1467" y1="604.457" y2="604.457"/><text fill="#000000" font-family="sans-serif" font-size="13" lengthAdjust="spacing" textLength="46" x="1312" y="599.7148">create()</text><polygon fill="#181818" points="276.5,666.7676,266.5,670.7676,276.5,674.7676,272.5,670.7676" style="stroke:#181818;stroke-width:1.0;"/><line style="stroke:#181818;stroke-width:1.0;stroke-dasharray:2.0,2.0;" x1="270.5" x2="1299" y1="670.7676" y2="670.7676"/><text fill="#000000" font-family="sans-serif" font-size="13" lengthAdjust="spacing" textLength="85" x="282.5" y="666.0254">examDTOList</text><polygon fill="#181818" points="139.5,696.0781,129.5,700.0781,139.5,704.0781,135.5,700.0781" style="stroke:#181818;stroke-width:1.0;"/><line style="stroke:#181818;stroke-width:1.0;stroke-dasharray:2.0,2.0;" x1="133.5" x2="259.5" y1="700.0781" y2="700.0781"/><text fill="#000000" font-family="sans-serif" font-size="13" lengthAdjust="spacing" textLength="85" x="145.5" y="695.3359">examDTOList</text><polygon fill="#181818" points="45.5,725.3887,35.5,729.3887,45.5,733.3887,41.5,729.3887" style="stroke:#181818;stroke-width:1.0;"/><line style="stroke:#181818;stroke-width:1.0;stroke-dasharray:2.0,2.0;" x1="39.5" x2="122.5" y1="729.3887" y2="729.3887"/><text fill="#000000" font-family="sans-serif" font-size="13" lengthAdjust="spacing" textLength="33" x="51.5" y="724.6465">show</text><!--SRC=[XLJBJkmm3DttAxA41Nm0Yxi15aWNpHMF7HAAKZCJqKag9otmzzXfsYQPT6vMaNtiS-mubifR5Cz-QC5u8PrmqxNf9NgjT2_9_28_uVvR7byV637eglFM6e-swm0Pf3nsJORxgvtVcRtLPizmzmmuQWM1SrGPzDvmeYF9U8BUEaqIVnW7Y_qToP75FC5-w2HowYA8BF-1kw4hc33Ofh0iBgdWxcNtAFj-glSORcUW36ezPMjYXyNLrH_gfRYXiZo5IkNrA3rmVmKTSZ626qaOXK2-YylWMg2Xoo8UOyc2Ud_mXCUv70rEI2G7UBgFq8fHopVp3z3HWu1Hm0y7t_uw3Ob4BUHK5M4sUTApyWAU0-crAUx3OfowYzYGotebSxkqAsju_7brW76EhjM0IBWvwPfjaSDZ9fB3GbXGCLPhKRTsG0Tkzx6fDCjVZgSeJicpDaDDH5b4qlioSRsAUSxBHud9jqGlt-D4xf9m5SgsRPbBggh0v4-5aezz1nxQIUJvpgRVSODy2pApnwdJ7VqrOGU_2eX5LQFYaETb9wmyKgSJFYs3yjTc5SLzaN9srlRyBGIbFmHAeKsbutmY0vFHKgandJ3oyYcTIIMb6qmR53KRj4bdQBlnSg_r9vPvsg9fyHN1vRf9jisy1MWV7EnNao07_Gi0]--></g></svg>