<?xml version="1.0" encoding="UTF-8" standalone="no"?><svg xmlns="http://www.w3.org/2000/svg" xmlns:xlink="http://www.w3.org/1999/xlink" contentStyleType="text/css" height="524px" preserveAspectRatio="none" style="width:568px;height:524px;background:#FFFFFF;" version="1.1" viewBox="0 0 568 524" width="568px" zoomAndPan="magnify"><defs/><g><rect fill="#FFFFFF" height="312.3262" style="stroke:#181818;stroke-width:1.0;" width="10" x="195.5" y="112.7988"/><rect fill="#FFFFFF" height="39.9658" style="stroke:#181818;stroke-width:1.0;" width="10" x="377.5" y="338.1934"/><rect fill="none" height="182.084" style="stroke:#000000;stroke-width:1.5;" width="552.5" x="10" y="214.7305"/><line style="stroke:#181818;stroke-width:0.5;stroke-dasharray:5.0,5.0;" x1="38" x2="38" y1="81.4883" y2="443.125"/><line style="stroke:#181818;stroke-width:0.5;stroke-dasharray:5.0,5.0;" x1="200" x2="200" y1="81.4883" y2="443.125"/><line style="stroke:#181818;stroke-width:0.5;stroke-dasharray:5.0,5.0;" x1="382" x2="382" y1="81.4883" y2="443.125"/><text fill="#000000" font-family="sans-serif" font-size="14" lengthAdjust="spacing" textLength="31" x="20" y="78.5352">User</text><ellipse cx="38.5" cy="13.5" fill="#E2E2F0" rx="8" ry="8" style="stroke:#181818;stroke-width:0.5;"/><path d="M38.5,21.5 L38.5,48.5 M25.5,29.5 L51.5,29.5 M38.5,48.5 L25.5,63.5 M38.5,48.5 L51.5,63.5 " fill="none" style="stroke:#181818;stroke-width:0.5;"/><text fill="#000000" font-family="sans-serif" font-size="14" lengthAdjust="spacing" textLength="31" x="20" y="455.6602">User</text><ellipse cx="38.5" cy="467.1133" fill="#E2E2F0" rx="8" ry="8" style="stroke:#181818;stroke-width:0.5;"/><path d="M38.5,475.1133 L38.5,502.1133 M25.5,483.1133 L51.5,483.1133 M38.5,502.1133 L25.5,517.1133 M38.5,502.1133 L51.5,517.1133 " fill="none" style="stroke:#181818;stroke-width:0.5;"/><rect fill="#E2E2F0" height="46.9766" rx="2.5" ry="2.5" style="stroke:#181818;stroke-width:0.5;" width="115" x="143" y="33.5117"/><text fill="#000000" font-family="sans-serif" font-size="14" font-style="italic" lengthAdjust="spacing" textLength="101" x="150" y="54.0469">«presentation»</text><text fill="#000000" font-family="sans-serif" font-size="14" lengthAdjust="spacing" textLength="52" x="174.5" y="70.5352">LoginUI</text><rect fill="#E2E2F0" height="46.9766" rx="2.5" ry="2.5" style="stroke:#181818;stroke-width:0.5;" width="115" x="143" y="442.125"/><text fill="#000000" font-family="sans-serif" font-size="14" font-style="italic" lengthAdjust="spacing" textLength="101" x="150" y="462.6602">«presentation»</text><text fill="#000000" font-family="sans-serif" font-size="14" lengthAdjust="spacing" textLength="52" x="174.5" y="479.1484">LoginUI</text><rect fill="#E2E2F0" height="46.9766" rx="2.5" ry="2.5" style="stroke:#181818;stroke-width:0.5;" width="163" x="301" y="33.5117"/><text fill="#000000" font-family="sans-serif" font-size="14" font-style="italic" lengthAdjust="spacing" textLength="90" x="337.5" y="54.0469">«application»</text><text fill="#000000" font-family="sans-serif" font-size="14" lengthAdjust="spacing" textLength="149" x="308" y="70.5352">AuthenticationService</text><rect fill="#E2E2F0" height="46.9766" rx="2.5" ry="2.5" style="stroke:#181818;stroke-width:0.5;" width="163" x="301" y="442.125"/><text fill="#000000" font-family="sans-serif" font-size="14" font-style="italic" lengthAdjust="spacing" textLength="90" x="337.5" y="462.6602">«application»</text><text fill="#000000" font-family="sans-serif" font-size="14" lengthAdjust="spacing" textLength="149" x="308" y="479.1484">AuthenticationService</text><rect fill="#FFFFFF" height="312.3262" style="stroke:#181818;stroke-width:1.0;" width="10" x="195.5" y="112.7988"/><rect fill="#FFFFFF" height="39.9658" style="stroke:#181818;stroke-width:1.0;" width="10" x="377.5" y="338.1934"/><polygon fill="#181818" points="183.5,108.7988,193.5,112.7988,183.5,116.7988,187.5,112.7988" style="stroke:#181818;stroke-width:1.0;"/><line style="stroke:#181818;stroke-width:1.0;stroke-dasharray:2.0,2.0;" x1="38.5" x2="189.5" y1="112.7988" y2="112.7988"/><text fill="#000000" font-family="sans-serif" font-size="13" lengthAdjust="spacing" textLength="32" x="45.5" y="108.0566">login</text><polygon fill="#181818" points="370.5,153.4199,380.5,157.4199,370.5,161.4199,374.5,157.4199" style="stroke:#181818;stroke-width:1.0;"/><line style="stroke:#181818;stroke-width:1.0;" x1="205.5" x2="376.5" y1="157.4199" y2="157.4199"/><text fill="#000000" font-family="sans-serif" font-size="13" lengthAdjust="spacing" textLength="70" x="212.5" y="137.3672">create(role,</text><text fill="#000000" font-family="sans-serif" font-size="13" lengthAdjust="spacing" textLength="89" x="212.5" y="152.6777">maxAttempts)</text><line style="stroke:#181818;stroke-width:1.0;" x1="205.5" x2="247.5" y1="186.7305" y2="186.7305"/><line style="stroke:#181818;stroke-width:1.0;" x1="247.5" x2="247.5" y1="186.7305" y2="199.7305"/><line style="stroke:#181818;stroke-width:1.0;" x1="206.5" x2="247.5" y1="199.7305" y2="199.7305"/><polygon fill="#181818" points="216.5,195.7305,206.5,199.7305,216.5,203.7305,212.5,199.7305" style="stroke:#181818;stroke-width:1.0;"/><text fill="#000000" font-family="sans-serif" font-size="13" lengthAdjust="spacing" textLength="41" x="212.5" y="181.9883">show()</text><path d="M10,214.7305 L84,214.7305 L84,222.041 L74,232.041 L10,232.041 L10,214.7305 " fill="#EEEEEE" style="stroke:#000000;stroke-width:1.5;"/><rect fill="none" height="182.084" style="stroke:#000000;stroke-width:1.5;" width="552.5" x="10" y="214.7305"/><text fill="#000000" font-family="sans-serif" font-size="13" font-weight="bold" lengthAdjust="spacing" textLength="29" x="25" y="228.2988">loop</text><text fill="#000000" font-family="sans-serif" font-size="11" font-weight="bold" lengthAdjust="spacing" textLength="151" x="99" y="227.3652">[attempts &lt;= maxAttempts</text><text fill="#000000" font-family="sans-serif" font-size="11" font-weight="bold" lengthAdjust="spacing" textLength="158" x="99" y="240.3203">|| Authentication Succeeded]</text><polygon fill="#181818" points="49.5,260.2617,39.5,264.2617,49.5,268.2617,45.5,264.2617" style="stroke:#181818;stroke-width:1.0;"/><line style="stroke:#181818;stroke-width:1.0;stroke-dasharray:2.0,2.0;" x1="43.5" x2="194.5" y1="264.2617" y2="264.2617"/><text fill="#000000" font-family="sans-serif" font-size="13" lengthAdjust="spacing" textLength="133" x="55.5" y="259.5195">Ask user information</text><polygon fill="#181818" points="183.5,289.5723,193.5,293.5723,183.5,297.5723,187.5,293.5723" style="stroke:#181818;stroke-width:1.0;"/><line style="stroke:#181818;stroke-width:1.0;stroke-dasharray:2.0,2.0;" x1="38.5" x2="189.5" y1="293.5723" y2="293.5723"/><text fill="#000000" font-family="sans-serif" font-size="13" lengthAdjust="spacing" textLength="108" x="45.5" y="288.8301">E-Mail, Password</text><polygon fill="#181818" points="365.5,334.1934,375.5,338.1934,365.5,342.1934,369.5,338.1934" style="stroke:#181818;stroke-width:1.0;"/><line style="stroke:#181818;stroke-width:1.0;" x1="205.5" x2="371.5" y1="338.1934" y2="338.1934"/><text fill="#000000" font-family="sans-serif" font-size="13" lengthAdjust="spacing" textLength="119" x="212.5" y="318.1406">autenticate(E-Mail,</text><text fill="#000000" font-family="sans-serif" font-size="13" lengthAdjust="spacing" textLength="153" x="212.5" y="333.4512">Password, onlyWithThis)</text><polygon fill="#181818" points="216.5,374.1592,206.5,378.1592,216.5,382.1592,212.5,378.1592" style="stroke:#181818;stroke-width:1.0;"/><line style="stroke:#181818;stroke-width:1.0;" x1="210.5" x2="381.5" y1="378.1592" y2="378.1592"/><text fill="#000000" font-family="sans-serif" font-size="13" lengthAdjust="spacing" textLength="76" x="222.5" y="373.417">UserSession</text><path d="M392,351.1934 L392,391.1934 L547,391.1934 L547,361.1934 L537,351.1934 L392,351.1934 " fill="#FEFFDD" style="stroke:#181818;stroke-width:0.5;"/><path d="M537,351.1934 L537,361.1934 L547,361.1934 L537,351.1934 " fill="#FEFFDD" style="stroke:#181818;stroke-width:0.5;"/><text fill="#000000" font-family="sans-serif" font-size="13" lengthAdjust="spacing" textLength="102" x="398" y="368.7617">implemented in:</text><text fill="#000000" font-family="sans-serif" font-size="13" lengthAdjust="spacing" textLength="134" x="398" y="384.0723">eapli.base.framework</text><polygon fill="#181818" points="49.5,421.125,39.5,425.125,49.5,429.125,45.5,425.125" style="stroke:#181818;stroke-width:1.0;"/><line style="stroke:#181818;stroke-width:1.0;" x1="43.5" x2="199.5" y1="425.125" y2="425.125"/><text fill="#000000" font-family="sans-serif" font-size="13" lengthAdjust="spacing" textLength="116" x="55.5" y="420.3828">Operation Success</text><!--SRC=[xLJDRXen4BxxAUPMa62145NfYgBIXbQbh8e291Skpkx0MdXjopyaaVBm7IziIj87w2K-hEIP-NvcFDeFfVScxVMCvCg7IYQvhdfkBvJXbbT9wIl9wF3SQmjhXnQuWqcyCQhm8XU6W33NEw7MFsEIlgEHiUXGUUw5LkFngz99y2MbH5udbsWF8iUQbHBnId1kZ3mL49fEhGZTxfZeKv1HBNeI1-wHGeoHAYKRYXHoYvHgMIsnir4LVvnuZvNnhjtKHY9NweSMHQJM1lYf0aQVuGm06_Ny_COrB4EU8nPOC0Pq8cEKZovJcBWzX3WgeRRQLZMYBdlTnRIRSI4xiE3EFMXRn3uRilDMUF0dPMmrc8rgK1tGIZxT2L-kIa7THOQNoJGaTVHeeHdooKHyqYKwrrXKcc1Mx4gVWgYCn8gqiQ1MKX95Jk-It7E7oPRM0yd0leOL-AzcdK1Ld3Tr7D1lW_PiZiwnjoJqf37oXU3Xk87lA_Y-Wlzr1HVn3xdEvd106xt28BdeNmoJVYkZoumhw7-2mLKw7AJ3IxYRhY2cswprOp47fuEb5Ik4yrRSXoZSPZD-u70JQB0LrexKxFfN4u2fEWYhLMoUpMwplmKVBxjVXOVO83tmRSQkSSk3z8J8TI7KZaQw-jwzOdEkTe7lY1iL-wQ9rpwbi5Zz0G00]--></g></svg>