<?xml version="1.0" encoding="UTF-8" standalone="no"?><svg xmlns="http://www.w3.org/2000/svg" xmlns:xlink="http://www.w3.org/1999/xlink" contentStyleType="text/css" height="387px" preserveAspectRatio="none" style="width:665px;height:387px;background:#FFFFFF;" version="1.1" viewBox="0 0 665 387" width="665px" zoomAndPan="magnify"><defs/><g><!--class LoginUI--><g id="elem_LoginUI"><rect codeLine="1" fill="#F1F1F1" height="73.1094" id="LoginUI" rx="2.5" ry="2.5" style="stroke:#181818;stroke-width:0.5;" width="112" x="326.5" y="7"/><ellipse cx="341.5" cy="27.3105" fill="#ADD1B2" rx="11" ry="11" style="stroke:#181818;stroke-width:1.0;"/><path d="M344.4731,32.9536 Q343.8921,33.2524 343.2529,33.4019 Q342.6138,33.5513 341.9082,33.5513 Q339.4014,33.5513 338.0815,31.8994 Q336.7617,30.2476 336.7617,27.1265 Q336.7617,23.9971 338.0815,22.3452 Q339.4014,20.6934 341.9082,20.6934 Q342.6138,20.6934 343.2612,20.8428 Q343.9087,20.9922 344.4731,21.291 L344.4731,24.0137 Q343.8423,23.4326 343.2488,23.1628 Q342.6553,22.8931 342.0244,22.8931 Q340.6797,22.8931 339.9949,23.9597 Q339.3101,25.0264 339.3101,27.1265 Q339.3101,29.2183 339.9949,30.2849 Q340.6797,31.3516 342.0244,31.3516 Q342.6553,31.3516 343.2488,31.0818 Q343.8423,30.812 344.4731,30.231 Z " fill="#000000"/><text fill="#000000" font-family="sans-serif" font-size="12" font-style="italic" lengthAdjust="spacing" textLength="84" x="353.5" y="23.6016">«presentation»</text><text fill="#000000" font-family="sans-serif" font-size="14" lengthAdjust="spacing" textLength="52" x="369.5" y="39.668">LoginUI</text><line style="stroke:#181818;stroke-width:0.5;" x1="327.5" x2="437.5" y1="47.6211" y2="47.6211"/><line style="stroke:#181818;stroke-width:0.5;" x1="327.5" x2="437.5" y1="55.6211" y2="55.6211"/><text fill="#000000" font-family="sans-serif" font-size="14" lengthAdjust="spacing" textLength="46" x="332.5" y="73.1563">show()</text></g><!--class AuthenticationService--><g id="elem_AuthenticationService"><rect codeLine="2" fill="#F1F1F1" height="89.5977" id="AuthenticationService" rx="2.5" ry="2.5" style="stroke:#181818;stroke-width:0.5;" width="311" x="7" y="157"/><ellipse cx="83.75" cy="177.3105" fill="#ADD1B2" rx="11" ry="11" style="stroke:#181818;stroke-width:1.0;"/><path d="M86.7231,182.9536 Q86.1421,183.2524 85.5029,183.4019 Q84.8638,183.5513 84.1582,183.5513 Q81.6514,183.5513 80.3315,181.8994 Q79.0117,180.2476 79.0117,177.1265 Q79.0117,173.9971 80.3315,172.3452 Q81.6514,170.6934 84.1582,170.6934 Q84.8638,170.6934 85.5112,170.8428 Q86.1587,170.9922 86.7231,171.291 L86.7231,174.0137 Q86.0923,173.4326 85.4988,173.1628 Q84.9053,172.8931 84.2744,172.8931 Q82.9297,172.8931 82.2449,173.9597 Q81.5601,175.0264 81.5601,177.1265 Q81.5601,179.2183 82.2449,180.2849 Q82.9297,181.3516 84.2744,181.3516 Q84.9053,181.3516 85.4988,181.0818 Q86.0923,180.812 86.7231,180.231 Z " fill="#000000"/><text fill="#000000" font-family="sans-serif" font-size="12" font-style="italic" lengthAdjust="spacing" textLength="75" x="141.25" y="173.6016">«application»</text><text fill="#000000" font-family="sans-serif" font-size="14" lengthAdjust="spacing" textLength="149" x="104.25" y="189.668">AuthenticationService</text><line style="stroke:#181818;stroke-width:0.5;" x1="8" x2="317" y1="197.6211" y2="197.6211"/><line style="stroke:#181818;stroke-width:0.5;" x1="8" x2="317" y1="205.6211" y2="205.6211"/><text fill="#000000" font-family="sans-serif" font-size="14" lengthAdjust="spacing" textLength="175" x="13" y="223.1563">create(role,maxAttempts)</text><text fill="#000000" font-family="sans-serif" font-size="14" lengthAdjust="spacing" textLength="299" x="13" y="239.6445">autenticate(E-Mail, Password, onlyWithThis)</text></g><!--class UserSession--><g id="elem_UserSession"><rect codeLine="3" fill="#F1F1F1" height="56.6211" id="UserSession" rx="2.5" ry="2.5" style="stroke:#181818;stroke-width:0.5;" width="115" x="105" y="324"/><ellipse cx="120" cy="344.3105" fill="#ADD1B2" rx="11" ry="11" style="stroke:#181818;stroke-width:1.0;"/><path d="M122.9731,349.9536 Q122.3921,350.2524 121.7529,350.4019 Q121.1138,350.5513 120.4082,350.5513 Q117.9014,350.5513 116.5815,348.8994 Q115.2617,347.2476 115.2617,344.1265 Q115.2617,340.9971 116.5815,339.3452 Q117.9014,337.6934 120.4082,337.6934 Q121.1138,337.6934 121.7612,337.8428 Q122.4087,337.9922 122.9731,338.291 L122.9731,341.0137 Q122.3423,340.4326 121.7488,340.1628 Q121.1553,339.8931 120.5244,339.8931 Q119.1797,339.8931 118.4949,340.9597 Q117.8101,342.0264 117.8101,344.1265 Q117.8101,346.2183 118.4949,347.2849 Q119.1797,348.3516 120.5244,348.3516 Q121.1553,348.3516 121.7488,348.0818 Q122.3423,347.812 122.9731,347.231 Z " fill="#000000"/><text fill="#000000" font-family="sans-serif" font-size="12" font-style="italic" lengthAdjust="spacing" textLength="55" x="148" y="340.6016">«domain»</text><text fill="#000000" font-family="sans-serif" font-size="14" lengthAdjust="spacing" textLength="83" x="134" y="356.668">UserSession</text><line style="stroke:#181818;stroke-width:0.5;" x1="106" x2="219" y1="364.6211" y2="364.6211"/><line style="stroke:#181818;stroke-width:0.5;" x1="106" x2="219" y1="372.6211" y2="372.6211"/></g><!--class Role--><g id="elem_Role"><rect codeLine="4" fill="#F1F1F1" height="56.6211" id="Role" rx="2.5" ry="2.5" style="stroke:#181818;stroke-width:0.5;" width="110" x="548.5" y="173.5"/><ellipse cx="563.5" cy="193.8105" fill="#ADD1B2" rx="11" ry="11" style="stroke:#181818;stroke-width:1.0;"/><path d="M566.4731,199.4536 Q565.8921,199.7524 565.2529,199.9019 Q564.6138,200.0513 563.9082,200.0513 Q561.4014,200.0513 560.0815,198.3994 Q558.7617,196.7476 558.7617,193.6265 Q558.7617,190.4971 560.0815,188.8452 Q561.4014,187.1934 563.9082,187.1934 Q564.6138,187.1934 565.2612,187.3428 Q565.9087,187.4922 566.4731,187.791 L566.4731,190.5137 Q565.8423,189.9326 565.2488,189.6628 Q564.6553,189.3931 564.0244,189.3931 Q562.6797,189.3931 561.9949,190.4597 Q561.3101,191.5264 561.3101,193.6265 Q561.3101,195.7183 561.9949,196.7849 Q562.6797,197.8516 564.0244,197.8516 Q564.6553,197.8516 565.2488,197.5818 Q565.8423,197.312 566.4731,196.731 Z " fill="#000000"/><text fill="#000000" font-family="sans-serif" font-size="12" font-style="italic" lengthAdjust="spacing" textLength="82" x="575.5" y="190.1016">«value object»</text><text fill="#000000" font-family="sans-serif" font-size="14" lengthAdjust="spacing" textLength="30" x="601.5" y="206.168">Role</text><line style="stroke:#181818;stroke-width:0.5;" x1="549.5" x2="657.5" y1="214.1211" y2="214.1211"/><line style="stroke:#181818;stroke-width:0.5;" x1="549.5" x2="657.5" y1="222.1211" y2="222.1211"/></g><g id="elem_GMN7"><path d="M353.5,181.5 L353.5,198 L318.38,202 L353.5,206 L353.5,222.1211 A0,0 0 0 0 353.5,222.1211 L513.5,222.1211 A0,0 0 0 0 513.5,222.1211 L513.5,191.5 L503.5,181.5 L353.5,181.5 A0,0 0 0 0 353.5,181.5 " fill="#FEFFDD" style="stroke:#181818;stroke-width:0.5;"/><path d="M503.5,181.5 L503.5,191.5 L513.5,191.5 L503.5,181.5 " fill="#FEFFDD" style="stroke:#181818;stroke-width:0.5;"/><text fill="#000000" font-family="sans-serif" font-size="13" lengthAdjust="spacing" textLength="135" x="359.5" y="199.0684">Service developed by:</text><text fill="#000000" font-family="sans-serif" font-size="13" lengthAdjust="spacing" textLength="134" x="359.5" y="214.3789">eapli.base.framework</text></g><!--link LoginUI to AuthenticationService--><g id="link_LoginUI_AuthenticationService"><path codeLine="7" d="M332.03,80.4 C301.8,101.9 263,129.51 230.14,152.88 " fill="none" id="LoginUI-to-AuthenticationService" style="stroke:#181818;stroke-width:1.0;"/><polygon fill="#181818" points="226.16,155.72,235.8112,153.7566,230.2325,152.8192,231.1699,147.2406,226.16,155.72" style="stroke:#181818;stroke-width:1.0;"/><text fill="#000000" font-family="sans-serif" font-size="13" lengthAdjust="spacing" textLength="91" x="287.5" y="123.5684">authentication</text></g><!--link LoginUI to Role--><g id="link_LoginUI_Role"><path codeLine="10" d="M433.2,80.4 C471.1,107.24 522.42,143.58 558.79,169.34 " fill="none" id="LoginUI-to-Role" style="stroke:#181818;stroke-width:1.0;stroke-dasharray:7.0,7.0;"/><polygon fill="#181818" points="562.81,172.19,557.7803,163.7223,558.7307,169.2987,553.1543,170.2491,562.81,172.19" style="stroke:#181818;stroke-width:1.0;"/><text fill="#000000" font-family="sans-serif" font-size="13" lengthAdjust="spacing" textLength="24" x="493.5" y="123.5684">role</text></g><!--link AuthenticationService to UserSession--><g id="link_AuthenticationService_UserSession"><path codeLine="11" d="M162.5,247.15 C162.5,269.62 162.5,296.52 162.5,317.38 " fill="none" id="AuthenticationService-to-UserSession" style="stroke:#181818;stroke-width:1.0;"/><polygon fill="#181818" points="162.5,322.13,166.5,313.13,162.5,317.13,158.5,313.13,162.5,322.13" style="stroke:#181818;stroke-width:1.0;"/><text fill="#000000" font-family="sans-serif" font-size="13" lengthAdjust="spacing" textLength="68" x="163.5" y="290.5684">theSession</text></g><!--SRC=[VP11JyCm38Nl-HK-TbBR7n1DbNRWW0GIOanSkBYfMJBIk4gyZlrxqj6D8J6E_lpUav-DnvJWWRSkREvXkHmY9Gg2uZWqZJAdzMelDaDdJdXDSNI6iXY7mS_mejqaYcjAAREiwBX7zxDyPZ_vHlHx0cvtP2JlrD_v6ama52fYTfKzVgv4g1yaBTJvtgfgu9OPVt4LM0YYsrhHS1PrD9BdWJfeZnhU0c7kKxUOg7wFsDE1uuVw9t_6LDnLZ-Xy2K-vP3Pr9N3mnrSdziMwgtlhkld-WOQfr8tigTNr6pLarJoeIvQ6PFbGBBu0]--></g></svg>