<?xml version="1.0" encoding="us-ascii" standalone="no"?><svg xmlns="http://www.w3.org/2000/svg" xmlns:xlink="http://www.w3.org/1999/xlink" contentStyleType="text/css" height="1020px" preserveAspectRatio="none" style="width:1580px;height:1020px;background:#1B1B1B;" version="1.1" viewBox="0 0 1580 1020" width="1580px" zoomAndPan="magnify"><defs/><g><rect fill="#1B1B1B" height="1020" style="stroke:none;stroke-width:1.0;" width="1580" x="0" y="0"/><rect fill="#000000" height="565.8842" style="stroke:#E7E7E7;stroke-width:1.0;" width="10" x="192.5" y="117.7739"/><rect fill="#000000" height="203.2361" style="stroke:#E7E7E7;stroke-width:1.0;" width="10" x="192.5" y="715.3642"/><rect fill="#000000" height="186.8241" style="stroke:#E7E7E7;stroke-width:1.0;" width="10" x="386.5" y="149.4799"/><rect fill="#000000" height="283.9421" style="stroke:#E7E7E7;stroke-width:1.0;" width="10" x="386.5" y="368.01"/><rect fill="#000000" height="139.8241" style="stroke:#E7E7E7;stroke-width:1.0;" width="10" x="386.5" y="747.0702"/><rect fill="#000000" height="61.706" style="stroke:#E7E7E7;stroke-width:1.0;" width="10" x="568" y="181.186"/><rect fill="#000000" height="30" style="stroke:#E7E7E7;stroke-width:1.0;" width="10" x="715.5" y="212.892"/><rect fill="#000000" height="61.706" style="stroke:#E7E7E7;stroke-width:1.0;" width="10" x="715.5" y="274.598"/><rect fill="#000000" height="30" style="stroke:#E7E7E7;stroke-width:1.0;" width="10" x="855" y="306.304"/><rect fill="#000000" height="30" style="stroke:#E7E7E7;stroke-width:1.0;" width="10" x="855" y="431.4221"/><rect fill="#000000" height="61.706" style="stroke:#E7E7E7;stroke-width:1.0;" width="10" x="997.5" y="399.716"/><rect fill="#000000" height="127.118" style="stroke:#E7E7E7;stroke-width:1.0;" width="10" x="1179" y="493.1281"/><rect fill="#000000" height="30" style="stroke:#E7E7E7;stroke-width:1.0;" width="10" x="1366.5" y="551.5401"/><rect fill="#000000" height="76.412" style="stroke:#E7E7E7;stroke-width:1.0;" width="10" x="1482.5" y="778.7762"/><rect fill="none" height="81.412" style="stroke:#FFFFFF;stroke-width:1.5;" width="385" x="1072" y="508.1281"/><line style="stroke:#E7E7E7;stroke-width:0.5;stroke-dasharray:5.0,5.0;" x1="38" x2="38" y1="84.0679" y2="936.6003"/><line style="stroke:#E7E7E7;stroke-width:0.5;stroke-dasharray:5.0,5.0;" x1="197" x2="197" y1="84.0679" y2="936.6003"/><line style="stroke:#E7E7E7;stroke-width:0.5;stroke-dasharray:5.0,5.0;" x1="391" x2="391" y1="84.0679" y2="936.6003"/><line style="stroke:#E7E7E7;stroke-width:0.5;stroke-dasharray:5.0,5.0;" x1="573" x2="573" y1="84.0679" y2="936.6003"/><line style="stroke:#E7E7E7;stroke-width:0.5;stroke-dasharray:5.0,5.0;" x1="720" x2="720" y1="84.0679" y2="936.6003"/><line style="stroke:#E7E7E7;stroke-width:0.5;stroke-dasharray:5.0,5.0;" x1="860" x2="860" y1="84.0679" y2="936.6003"/><line style="stroke:#E7E7E7;stroke-width:0.5;stroke-dasharray:5.0,5.0;" x1="1002" x2="1002" y1="84.0679" y2="936.6003"/><line style="stroke:#E7E7E7;stroke-width:0.5;stroke-dasharray:5.0,5.0;" x1="1184" x2="1184" y1="84.0679" y2="936.6003"/><line style="stroke:#E7E7E7;stroke-width:0.5;stroke-dasharray:5.0,5.0;" x1="1371" x2="1371" y1="84.0679" y2="936.6003"/><line style="stroke:#E7E7E7;stroke-width:0.5;stroke-dasharray:5.0,5.0;" x1="1487" x2="1487" y1="84.0679" y2="936.6003"/><text fill="#FFFFFF" font-family="sans-serif" font-size="14" lengthAdjust="spacing" textLength="61" x="5" y="79.9659">Manager</text><ellipse cx="38.5" cy="13.5" fill="#222222" rx="8" ry="8" style="stroke:#E7E7E7;stroke-width:0.5;"/><path d="M38.5,21.5 L38.5,48.5 M25.5,29.5 L51.5,29.5 M38.5,48.5 L25.5,63.5 M38.5,48.5 L51.5,63.5 " fill="none" style="stroke:#E7E7E7;stroke-width:0.5;"/><text fill="#FFFFFF" font-family="sans-serif" font-size="14" lengthAdjust="spacing" textLength="61" x="5" y="950.5662">Manager</text><ellipse cx="38.5" cy="963.1682" fill="#222222" rx="8" ry="8" style="stroke:#E7E7E7;stroke-width:0.5;"/><path d="M38.5,971.1682 L38.5,998.1682 M25.5,979.1682 L51.5,979.1682 M38.5,998.1682 L25.5,1013.1682 M38.5,998.1682 L51.5,1013.1682 " fill="none" style="stroke:#E7E7E7;stroke-width:0.5;"/><rect fill="#222222" height="33.0679" rx="2.5" ry="2.5" style="stroke:#E7E7E7;stroke-width:0.5;" width="155" x="120" y="50"/><text fill="#FFFFFF" font-family="sans-serif" font-size="14" lengthAdjust="spacing" textLength="141" x="127" y="71.9659">Open_CloseCourseUI</text><rect fill="#222222" height="33.0679" rx="2.5" ry="2.5" style="stroke:#E7E7E7;stroke-width:0.5;" width="155" x="120" y="935.6003"/><text fill="#FFFFFF" font-family="sans-serif" font-size="14" lengthAdjust="spacing" textLength="141" x="127" y="957.5662">Open_CloseCourseUI</text><rect fill="#222222" height="33.0679" rx="2.5" ry="2.5" style="stroke:#E7E7E7;stroke-width:0.5;" width="201" x="291" y="50"/><text fill="#FFFFFF" font-family="sans-serif" font-size="14" lengthAdjust="spacing" textLength="187" x="298" y="71.9659">OpenCloseCourseController</text><rect fill="#222222" height="33.0679" rx="2.5" ry="2.5" style="stroke:#E7E7E7;stroke-width:0.5;" width="201" x="291" y="935.6003"/><text fill="#FFFFFF" font-family="sans-serif" font-size="14" lengthAdjust="spacing" textLength="187" x="298" y="957.5662">OpenCloseCourseController</text><rect fill="#222222" height="33.0679" rx="2.5" ry="2.5" style="stroke:#E7E7E7;stroke-width:0.5;" width="142" x="502" y="50"/><text fill="#FFFFFF" font-family="sans-serif" font-size="14" lengthAdjust="spacing" textLength="128" x="509" y="71.9659">PersistenceContext</text><rect fill="#222222" height="33.0679" rx="2.5" ry="2.5" style="stroke:#E7E7E7;stroke-width:0.5;" width="142" x="502" y="935.6003"/><text fill="#FFFFFF" font-family="sans-serif" font-size="14" lengthAdjust="spacing" textLength="128" x="509" y="957.5662">PersistenceContext</text><rect fill="#222222" height="33.0679" rx="2.5" ry="2.5" style="stroke:#E7E7E7;stroke-width:0.5;" width="133" x="654" y="50"/><text fill="#FFFFFF" font-family="sans-serif" font-size="14" lengthAdjust="spacing" textLength="119" x="661" y="71.9659">RepositoryFactory</text><rect fill="#222222" height="33.0679" rx="2.5" ry="2.5" style="stroke:#E7E7E7;stroke-width:0.5;" width="133" x="654" y="935.6003"/><text fill="#FFFFFF" font-family="sans-serif" font-size="14" lengthAdjust="spacing" textLength="119" x="661" y="957.5662">RepositoryFactory</text><rect fill="#222222" height="33.0679" rx="2.5" ry="2.5" style="stroke:#E7E7E7;stroke-width:0.5;" width="126" x="797" y="50"/><text fill="#FFFFFF" font-family="sans-serif" font-size="14" lengthAdjust="spacing" textLength="112" x="804" y="71.9659">CouseRepository</text><rect fill="#222222" height="33.0679" rx="2.5" ry="2.5" style="stroke:#E7E7E7;stroke-width:0.5;" width="126" x="797" y="935.6003"/><text fill="#FFFFFF" font-family="sans-serif" font-size="14" lengthAdjust="spacing" textLength="112" x="804" y="957.5662">CouseRepository</text><rect fill="#222222" height="33.0679" rx="2.5" ry="2.5" style="stroke:#E7E7E7;stroke-width:0.5;" width="139" x="933" y="50"/><text fill="#FFFFFF" font-family="sans-serif" font-size="14" lengthAdjust="spacing" textLength="125" x="940" y="71.9659">ListCoursesService</text><rect fill="#222222" height="33.0679" rx="2.5" ry="2.5" style="stroke:#E7E7E7;stroke-width:0.5;" width="139" x="933" y="935.6003"/><text fill="#FFFFFF" font-family="sans-serif" font-size="14" lengthAdjust="spacing" textLength="125" x="940" y="957.5662">ListCoursesService</text><rect fill="#222222" height="33.0679" rx="2.5" ry="2.5" style="stroke:#E7E7E7;stroke-width:0.5;" width="204" x="1082" y="50"/><text fill="#FFFFFF" font-family="sans-serif" font-size="14" lengthAdjust="spacing" textLength="190" x="1089" y="71.9659">CourseAndStateDTOMapper</text><rect fill="#222222" height="33.0679" rx="2.5" ry="2.5" style="stroke:#E7E7E7;stroke-width:0.5;" width="204" x="1082" y="935.6003"/><text fill="#FFFFFF" font-family="sans-serif" font-size="14" lengthAdjust="spacing" textLength="190" x="1089" y="957.5662">CourseAndStateDTOMapper</text><rect fill="#222222" height="33.0679" rx="2.5" ry="2.5" style="stroke:#E7E7E7;stroke-width:0.5;" width="151" x="1296" y="50"/><text fill="#FFFFFF" font-family="sans-serif" font-size="14" lengthAdjust="spacing" textLength="137" x="1303" y="71.9659">CourseAndStateDTO</text><rect fill="#222222" height="33.0679" rx="2.5" ry="2.5" style="stroke:#E7E7E7;stroke-width:0.5;" width="151" x="1296" y="935.6003"/><text fill="#FFFFFF" font-family="sans-serif" font-size="14" lengthAdjust="spacing" textLength="137" x="1303" y="957.5662">CourseAndStateDTO</text><rect fill="#222222" height="33.0679" rx="2.5" ry="2.5" style="stroke:#E7E7E7;stroke-width:0.5;" width="61" x="1457" y="50"/><text fill="#FFFFFF" font-family="sans-serif" font-size="14" lengthAdjust="spacing" textLength="47" x="1464" y="71.9659">Course</text><rect fill="#222222" height="33.0679" rx="2.5" ry="2.5" style="stroke:#E7E7E7;stroke-width:0.5;" width="61" x="1457" y="935.6003"/><text fill="#FFFFFF" font-family="sans-serif" font-size="14" lengthAdjust="spacing" textLength="47" x="1464" y="957.5662">Course</text><rect fill="#000000" height="565.8842" style="stroke:#E7E7E7;stroke-width:1.0;" width="10" x="192.5" y="117.7739"/><rect fill="#000000" height="203.2361" style="stroke:#E7E7E7;stroke-width:1.0;" width="10" x="192.5" y="715.3642"/><rect fill="#000000" height="186.8241" style="stroke:#E7E7E7;stroke-width:1.0;" width="10" x="386.5" y="149.4799"/><rect fill="#000000" height="283.9421" style="stroke:#E7E7E7;stroke-width:1.0;" width="10" x="386.5" y="368.01"/><rect fill="#000000" height="139.8241" style="stroke:#E7E7E7;stroke-width:1.0;" width="10" x="386.5" y="747.0702"/><rect fill="#000000" height="61.706" style="stroke:#E7E7E7;stroke-width:1.0;" width="10" x="568" y="181.186"/><rect fill="#000000" height="30" style="stroke:#E7E7E7;stroke-width:1.0;" width="10" x="715.5" y="212.892"/><rect fill="#000000" height="61.706" style="stroke:#E7E7E7;stroke-width:1.0;" width="10" x="715.5" y="274.598"/><rect fill="#000000" height="30" style="stroke:#E7E7E7;stroke-width:1.0;" width="10" x="855" y="306.304"/><rect fill="#000000" height="30" style="stroke:#E7E7E7;stroke-width:1.0;" width="10" x="855" y="431.4221"/><rect fill="#000000" height="61.706" style="stroke:#E7E7E7;stroke-width:1.0;" width="10" x="997.5" y="399.716"/><rect fill="#000000" height="127.118" style="stroke:#E7E7E7;stroke-width:1.0;" width="10" x="1179" y="493.1281"/><rect fill="#000000" height="30" style="stroke:#E7E7E7;stroke-width:1.0;" width="10" x="1366.5" y="551.5401"/><rect fill="#000000" height="76.412" style="stroke:#E7E7E7;stroke-width:1.0;" width="10" x="1482.5" y="778.7762"/><polygon fill="#E7E7E7" points="180.5,113.7739,190.5,117.7739,180.5,121.7739,184.5,117.7739" style="stroke:#E7E7E7;stroke-width:1.0;"/><line style="stroke:#E7E7E7;stroke-width:1.0;stroke-dasharray:2.0,2.0;" x1="38.5" x2="186.5" y1="117.7739" y2="117.7739"/><text fill="#FFFFFF" font-family="sans-serif" font-size="13" lengthAdjust="spacing" textLength="32" x="45.5" y="111.9649">enter</text><polygon fill="#E7E7E7" points="374.5,145.4799,384.5,149.4799,374.5,153.4799,378.5,149.4799" style="stroke:#E7E7E7;stroke-width:1.0;"/><line style="stroke:#E7E7E7;stroke-width:1.0;stroke-dasharray:2.0,2.0;" x1="202.5" x2="380.5" y1="149.4799" y2="149.4799"/><text fill="#FFFFFF" font-family="sans-serif" font-size="13" lengthAdjust="spacing" textLength="45" x="209.5" y="143.6709">create()</text><polygon fill="#E7E7E7" points="556,177.186,566,181.186,556,185.186,560,181.186" style="stroke:#E7E7E7;stroke-width:1.0;"/><line style="stroke:#E7E7E7;stroke-width:1.0;stroke-dasharray:2.0,2.0;" x1="396.5" x2="562" y1="181.186" y2="181.186"/><text fill="#FFFFFF" font-family="sans-serif" font-size="13" lengthAdjust="spacing" textLength="79" x="403.5" y="175.377">repositories()</text><polygon fill="#E7E7E7" points="703.5,208.892,713.5,212.892,703.5,216.892,707.5,212.892" style="stroke:#E7E7E7;stroke-width:1.0;"/><line style="stroke:#E7E7E7;stroke-width:1.0;stroke-dasharray:2.0,2.0;" x1="578" x2="709.5" y1="212.892" y2="212.892"/><text fill="#FFFFFF" font-family="sans-serif" font-size="13" lengthAdjust="spacing" textLength="45" x="585" y="207.083">create()</text><polygon fill="#E7E7E7" points="703.5,270.598,713.5,274.598,703.5,278.598,707.5,274.598" style="stroke:#E7E7E7;stroke-width:1.0;"/><line style="stroke:#E7E7E7;stroke-width:1.0;stroke-dasharray:2.0,2.0;" x1="396.5" x2="709.5" y1="274.598" y2="274.598"/><text fill="#FFFFFF" font-family="sans-serif" font-size="13" lengthAdjust="spacing" textLength="54" x="403.5" y="268.789">courses()</text><polygon fill="#E7E7E7" points="843,302.304,853,306.304,843,310.304,847,306.304" style="stroke:#E7E7E7;stroke-width:1.0;"/><line style="stroke:#E7E7E7;stroke-width:1.0;stroke-dasharray:2.0,2.0;" x1="725.5" x2="849" y1="306.304" y2="306.304"/><text fill="#FFFFFF" font-family="sans-serif" font-size="13" lengthAdjust="spacing" textLength="45" x="732.5" y="300.495">create()</text><polygon fill="#E7E7E7" points="374.5,364.01,384.5,368.01,374.5,372.01,378.5,368.01" style="stroke:#E7E7E7;stroke-width:1.0;"/><line style="stroke:#E7E7E7;stroke-width:1.0;stroke-dasharray:2.0,2.0;" x1="202.5" x2="380.5" y1="368.01" y2="368.01"/><text fill="#FFFFFF" font-family="sans-serif" font-size="13" lengthAdjust="spacing" textLength="165" x="209.5" y="362.201">openable/closableCourses()</text><polygon fill="#E7E7E7" points="985.5,395.716,995.5,399.716,985.5,403.716,989.5,399.716" style="stroke:#E7E7E7;stroke-width:1.0;"/><line style="stroke:#E7E7E7;stroke-width:1.0;stroke-dasharray:2.0,2.0;" x1="396.5" x2="991.5" y1="399.716" y2="399.716"/><text fill="#FFFFFF" font-family="sans-serif" font-size="13" lengthAdjust="spacing" textLength="179" x="403.5" y="393.907">openable/closable(repository)</text><polygon fill="#E7E7E7" points="876,427.4221,866,431.4221,876,435.4221,872,431.4221" style="stroke:#E7E7E7;stroke-width:1.0;"/><line style="stroke:#E7E7E7;stroke-width:1.0;stroke-dasharray:2.0,2.0;" x1="870" x2="996.5" y1="431.4221" y2="431.4221"/><text fill="#FFFFFF" font-family="sans-serif" font-size="13" lengthAdjust="spacing" textLength="77" x="882" y="425.6131">findByState()</text><polygon fill="#E7E7E7" points="1167,489.1281,1177,493.1281,1167,497.1281,1171,493.1281" style="stroke:#E7E7E7;stroke-width:1.0;"/><line style="stroke:#E7E7E7;stroke-width:1.0;stroke-dasharray:2.0,2.0;" x1="396.5" x2="1173" y1="493.1281" y2="493.1281"/><text fill="#FFFFFF" font-family="sans-serif" font-size="13" lengthAdjust="spacing" textLength="89" x="403.5" y="487.3191">toDto(courses)</text><path d="M1072,508.1281 L1145,508.1281 L1145,517.8341 L1135,527.8341 L1072,527.8341 L1072,508.1281 " fill="#555555" style="stroke:#FFFFFF;stroke-width:1.5;"/><rect fill="none" height="81.412" style="stroke:#FFFFFF;stroke-width:1.5;" width="385" x="1072" y="508.1281"/><text fill="#FFFFFF" font-family="sans-serif" font-size="13" font-weight="bold" lengthAdjust="spacing" textLength="28" x="1087" y="523.0251">loop</text><text fill="#FFFFFF" font-family="sans-serif" font-size="11" font-weight="bold" lengthAdjust="spacing" textLength="152" x="1160" y="521.887">[for each course in courses]</text><polygon fill="#E7E7E7" points="1354.5,547.5401,1364.5,551.5401,1354.5,555.5401,1358.5,551.5401" style="stroke:#E7E7E7;stroke-width:1.0;"/><line style="stroke:#E7E7E7;stroke-width:1.0;stroke-dasharray:2.0,2.0;" x1="1189" x2="1360.5" y1="551.5401" y2="551.5401"/><text fill="#FFFFFF" font-family="sans-serif" font-size="13" lengthAdjust="spacing" textLength="45" x="1196" y="545.7311">create()</text><polygon fill="#E7E7E7" points="407.5,616.2461,397.5,620.2461,407.5,624.2461,403.5,620.2461" style="stroke:#E7E7E7;stroke-width:1.0;"/><line style="stroke:#E7E7E7;stroke-width:1.0;stroke-dasharray:2.0,2.0;" x1="401.5" x2="1183" y1="620.2461" y2="620.2461"/><text fill="#FFFFFF" font-family="sans-serif" font-size="13" lengthAdjust="spacing" textLength="87" x="413.5" y="614.4371">courseDTOList</text><polygon fill="#E7E7E7" points="213.5,647.9521,203.5,651.9521,213.5,655.9521,209.5,651.9521" style="stroke:#E7E7E7;stroke-width:1.0;"/><line style="stroke:#E7E7E7;stroke-width:1.0;stroke-dasharray:2.0,2.0;" x1="207.5" x2="390.5" y1="651.9521" y2="651.9521"/><text fill="#FFFFFF" font-family="sans-serif" font-size="13" lengthAdjust="spacing" textLength="87" x="219.5" y="646.1431">courseDTOList</text><polygon fill="#E7E7E7" points="49.5,679.6582,39.5,683.6582,49.5,687.6582,45.5,683.6582" style="stroke:#E7E7E7;stroke-width:1.0;"/><line style="stroke:#E7E7E7;stroke-width:1.0;stroke-dasharray:2.0,2.0;" x1="43.5" x2="196.5" y1="683.6582" y2="683.6582"/><text fill="#FFFFFF" font-family="sans-serif" font-size="13" lengthAdjust="spacing" textLength="81" x="55.5" y="677.8492">show courses</text><polygon fill="#E7E7E7" points="180.5,711.3642,190.5,715.3642,180.5,719.3642,184.5,715.3642" style="stroke:#E7E7E7;stroke-width:1.0;"/><line style="stroke:#E7E7E7;stroke-width:1.0;stroke-dasharray:2.0,2.0;" x1="38.5" x2="186.5" y1="715.3642" y2="715.3642"/><text fill="#FFFFFF" font-family="sans-serif" font-size="13" lengthAdjust="spacing" textLength="135" x="45.5" y="709.5552">selects course from list</text><polygon fill="#E7E7E7" points="374.5,743.0702,384.5,747.0702,374.5,751.0702,378.5,747.0702" style="stroke:#E7E7E7;stroke-width:1.0;"/><line style="stroke:#E7E7E7;stroke-width:1.0;stroke-dasharray:2.0,2.0;" x1="202.5" x2="380.5" y1="747.0702" y2="747.0702"/><text fill="#FFFFFF" font-family="sans-serif" font-size="13" lengthAdjust="spacing" textLength="118" x="209.5" y="741.2612">chosen course (dto)</text><polygon fill="#E7E7E7" points="1470.5,774.7762,1480.5,778.7762,1470.5,782.7762,1474.5,778.7762" style="stroke:#E7E7E7;stroke-width:1.0;"/><line style="stroke:#E7E7E7;stroke-width:1.0;stroke-dasharray:2.0,2.0;" x1="396.5" x2="1476.5" y1="778.7762" y2="778.7762"/><text fill="#FFFFFF" font-family="sans-serif" font-size="13" lengthAdjust="spacing" textLength="74" x="403.5" y="772.9672">open/close()</text><line style="stroke:#E7E7E7;stroke-width:1.0;stroke-dasharray:2.0,2.0;" x1="1492.5" x2="1534.5" y1="810.4822" y2="810.4822"/><line style="stroke:#E7E7E7;stroke-width:1.0;stroke-dasharray:2.0,2.0;" x1="1534.5" x2="1534.5" y1="810.4822" y2="823.4822"/><line style="stroke:#E7E7E7;stroke-width:1.0;stroke-dasharray:2.0,2.0;" x1="1493.5" x2="1534.5" y1="823.4822" y2="823.4822"/><polygon fill="#E7E7E7" points="1503.5,819.4822,1493.5,823.4822,1503.5,827.4822,1499.5,823.4822" style="stroke:#E7E7E7;stroke-width:1.0;"/><text fill="#FFFFFF" font-family="sans-serif" font-size="13" lengthAdjust="spacing" textLength="74" x="1499.5" y="804.6732">open/close()</text><polygon fill="#E7E7E7" points="407.5,851.1882,397.5,855.1882,407.5,859.1882,403.5,855.1882" style="stroke:#E7E7E7;stroke-width:1.0;"/><line style="stroke:#E7E7E7;stroke-width:1.0;stroke-dasharray:2.0,2.0;" x1="401.5" x2="1486.5" y1="855.1882" y2="855.1882"/><text fill="#FFFFFF" font-family="sans-serif" font-size="13" lengthAdjust="spacing" textLength="34" x="413.5" y="849.3792">result</text><polygon fill="#E7E7E7" points="213.5,882.8943,203.5,886.8943,213.5,890.8943,209.5,886.8943" style="stroke:#E7E7E7;stroke-width:1.0;"/><line style="stroke:#E7E7E7;stroke-width:1.0;stroke-dasharray:2.0,2.0;" x1="207.5" x2="390.5" y1="886.8943" y2="886.8943"/><text fill="#FFFFFF" font-family="sans-serif" font-size="13" lengthAdjust="spacing" textLength="34" x="219.5" y="881.0853">result</text><polygon fill="#E7E7E7" points="49.5,914.6003,39.5,918.6003,49.5,922.6003,45.5,918.6003" style="stroke:#E7E7E7;stroke-width:1.0;"/><line style="stroke:#E7E7E7;stroke-width:1.0;stroke-dasharray:2.0,2.0;" x1="43.5" x2="196.5" y1="918.6003" y2="918.6003"/><text fill="#FFFFFF" font-family="sans-serif" font-size="13" lengthAdjust="spacing" textLength="69" x="55.5" y="912.7913">show result</text><!--SRC=[hLHDRzim3BthL-YO7OhTVHZGfIWmO4M7TZqNgimi0bJ9a9JC-VUbA3cLRENZK9ziyv6FVFmGCbZ77uGH_y1nuVdEWsE3S459DGWJ-EC0vdMjhOUrtJaFBxy8fXQW0hEs9ZYhTGefWzEiWly1vvKFO2H1OGm9DrQe9nYiLvZVuLx4D0yHv61utGXP0P7KmoSwmspD-Hi9KtR-6TnUIOWulvTi7WiXjwP_3YB0tT_71p4CgOvtUZkFZhW-s5PCAf7U68igyvkR7wXZnm4LS8nXZMgFKQAs79-T8aHKh-FI0PfMtyXoH9AoF3_n8tkC7Gb0SYZmsMtcEXv_9k-HdBE-CyQ5-zI6qjZ3INDXYiJBd3zfKujQARSuyxyfXhqYRticQSik55CL4iTwsIgBko3UD7oNk13nPLsLTA5vE92D4AjZEmyDOU8GbpNXTo78Hfd-vu46z2jLeSrPf9zsfEF1tWMxoirif9ntgUJKrWvyWzS8ERPv3hWoqqHKsFYa4CIA6tUYyHLfNCoviQXeRWRJKrBi16lUJ4eFLpyUc9PGkTIbLd7tbzwB2Ii6B9wDZlkj_NzKfO3ZtQWFYmSDCanNXs-SVUSwyfm_DLkyuvFiV8MgN7Tr29zcb-OMccSd7S3gyYIYYp7cM4hMWT_ffkpJgMtANhXTgNVsgEN-0000]--></g></svg>