<?xml version="1.0" encoding="us-ascii" standalone="no"?><svg xmlns="http://www.w3.org/2000/svg" xmlns:xlink="http://www.w3.org/1999/xlink" contentStyleType="text/css" height="943px" preserveAspectRatio="none" style="width:1524px;height:943px;background:#FFFFFF;" version="1.1" viewBox="0 0 1524 943" width="1524px" zoomAndPan="magnify"><defs/><g><rect fill="#FFFFFF" height="534.1782" style="stroke:#181818;stroke-width:1.0;" width="10" x="192.5" y="117.7739"/><rect fill="#FFFFFF" height="158.5301" style="stroke:#181818;stroke-width:1.0;" width="10" x="192.5" y="683.6582"/><rect fill="#FFFFFF" height="186.8241" style="stroke:#181818;stroke-width:1.0;" width="10" x="383.5" y="149.4799"/><rect fill="#FFFFFF" height="252.2361" style="stroke:#181818;stroke-width:1.0;" width="10" x="383.5" y="368.01"/><rect fill="#FFFFFF" height="95.118" style="stroke:#181818;stroke-width:1.0;" width="10" x="383.5" y="715.3642"/><rect fill="#FFFFFF" height="61.706" style="stroke:#181818;stroke-width:1.0;" width="10" x="568" y="181.186"/><rect fill="#FFFFFF" height="30" style="stroke:#181818;stroke-width:1.0;" width="10" x="715.5" y="212.892"/><rect fill="#FFFFFF" height="61.706" style="stroke:#181818;stroke-width:1.0;" width="10" x="715.5" y="274.598"/><rect fill="#FFFFFF" height="30" style="stroke:#181818;stroke-width:1.0;" width="10" x="855" y="306.304"/><rect fill="#FFFFFF" height="30" style="stroke:#181818;stroke-width:1.0;" width="10" x="855" y="431.4221"/><rect fill="#FFFFFF" height="61.706" style="stroke:#181818;stroke-width:1.0;" width="10" x="997.5" y="399.716"/><rect fill="#FFFFFF" height="103.412" style="stroke:#181818;stroke-width:1.0;" width="10" x="1179" y="493.1281"/><rect fill="#FFFFFF" height="30" style="stroke:#181818;stroke-width:1.0;" width="10" x="1366.5" y="551.5401"/><rect fill="#FFFFFF" height="31.706" style="stroke:#181818;stroke-width:1.0;" width="10" x="1482.5" y="747.0702"/><rect fill="none" height="81.412" style="stroke:#000000;stroke-width:1.5;" width="385" x="1072" y="508.1281"/><line style="stroke:#181818;stroke-width:0.5;stroke-dasharray:5.0,5.0;" x1="38" x2="38" y1="84.0679" y2="860.1882"/><line style="stroke:#181818;stroke-width:0.5;stroke-dasharray:5.0,5.0;" x1="197" x2="197" y1="84.0679" y2="860.1882"/><line style="stroke:#181818;stroke-width:0.5;stroke-dasharray:5.0,5.0;" x1="388" x2="388" y1="84.0679" y2="860.1882"/><line style="stroke:#181818;stroke-width:0.5;stroke-dasharray:5.0,5.0;" x1="573" x2="573" y1="84.0679" y2="860.1882"/><line style="stroke:#181818;stroke-width:0.5;stroke-dasharray:5.0,5.0;" x1="720" x2="720" y1="84.0679" y2="860.1882"/><line style="stroke:#181818;stroke-width:0.5;stroke-dasharray:5.0,5.0;" x1="860" x2="860" y1="84.0679" y2="860.1882"/><line style="stroke:#181818;stroke-width:0.5;stroke-dasharray:5.0,5.0;" x1="1002" x2="1002" y1="84.0679" y2="860.1882"/><line style="stroke:#181818;stroke-width:0.5;stroke-dasharray:5.0,5.0;" x1="1184" x2="1184" y1="84.0679" y2="860.1882"/><line style="stroke:#181818;stroke-width:0.5;stroke-dasharray:5.0,5.0;" x1="1371" x2="1371" y1="84.0679" y2="860.1882"/><line style="stroke:#181818;stroke-width:0.5;stroke-dasharray:5.0,5.0;" x1="1487" x2="1487" y1="84.0679" y2="860.1882"/><text fill="#000000" font-family="sans-serif" font-size="14" lengthAdjust="spacing" textLength="61" x="5" y="79.9659">Manager</text><ellipse cx="38.5" cy="13.5" fill="#E2E2F0" rx="8" ry="8" style="stroke:#181818;stroke-width:0.5;"/><path d="M38.5,21.5 L38.5,48.5 M25.5,29.5 L51.5,29.5 M38.5,48.5 L25.5,63.5 M38.5,48.5 L51.5,63.5 " fill="none" style="stroke:#181818;stroke-width:0.5;"/><text fill="#000000" font-family="sans-serif" font-size="14" lengthAdjust="spacing" textLength="61" x="5" y="874.1542">Manager</text><ellipse cx="38.5" cy="886.7562" fill="#E2E2F0" rx="8" ry="8" style="stroke:#181818;stroke-width:0.5;"/><path d="M38.5,894.7562 L38.5,921.7562 M25.5,902.7562 L51.5,902.7562 M38.5,921.7562 L25.5,936.7562 M38.5,921.7562 L51.5,936.7562 " fill="none" style="stroke:#181818;stroke-width:0.5;"/><rect fill="#E2E2F0" height="33.0679" rx="2.5" ry="2.5" style="stroke:#181818;stroke-width:0.5;" width="155" x="120" y="50"/><text fill="#000000" font-family="sans-serif" font-size="14" lengthAdjust="spacing" textLength="141" x="127" y="71.9659">Open_CloseCourseUI</text><rect fill="#E2E2F0" height="33.0679" rx="2.5" ry="2.5" style="stroke:#181818;stroke-width:0.5;" width="155" x="120" y="859.1882"/><text fill="#000000" font-family="sans-serif" font-size="14" lengthAdjust="spacing" textLength="141" x="127" y="881.1542">Open_CloseCourseUI</text><rect fill="#E2E2F0" height="33.0679" rx="2.5" ry="2.5" style="stroke:#181818;stroke-width:0.5;" width="207" x="285" y="50"/><text fill="#000000" font-family="sans-serif" font-size="14" lengthAdjust="spacing" textLength="193" x="292" y="71.9659">Open_CloseCourseController</text><rect fill="#E2E2F0" height="33.0679" rx="2.5" ry="2.5" style="stroke:#181818;stroke-width:0.5;" width="207" x="285" y="859.1882"/><text fill="#000000" font-family="sans-serif" font-size="14" lengthAdjust="spacing" textLength="193" x="292" y="881.1542">Open_CloseCourseController</text><rect fill="#E2E2F0" height="33.0679" rx="2.5" ry="2.5" style="stroke:#181818;stroke-width:0.5;" width="142" x="502" y="50"/><text fill="#000000" font-family="sans-serif" font-size="14" lengthAdjust="spacing" textLength="128" x="509" y="71.9659">PersistenceContext</text><rect fill="#E2E2F0" height="33.0679" rx="2.5" ry="2.5" style="stroke:#181818;stroke-width:0.5;" width="142" x="502" y="859.1882"/><text fill="#000000" font-family="sans-serif" font-size="14" lengthAdjust="spacing" textLength="128" x="509" y="881.1542">PersistenceContext</text><rect fill="#E2E2F0" height="33.0679" rx="2.5" ry="2.5" style="stroke:#181818;stroke-width:0.5;" width="133" x="654" y="50"/><text fill="#000000" font-family="sans-serif" font-size="14" lengthAdjust="spacing" textLength="119" x="661" y="71.9659">RepositoryFactory</text><rect fill="#E2E2F0" height="33.0679" rx="2.5" ry="2.5" style="stroke:#181818;stroke-width:0.5;" width="133" x="654" y="859.1882"/><text fill="#000000" font-family="sans-serif" font-size="14" lengthAdjust="spacing" textLength="119" x="661" y="881.1542">RepositoryFactory</text><rect fill="#E2E2F0" height="33.0679" rx="2.5" ry="2.5" style="stroke:#181818;stroke-width:0.5;" width="126" x="797" y="50"/><text fill="#000000" font-family="sans-serif" font-size="14" lengthAdjust="spacing" textLength="112" x="804" y="71.9659">CouseRepository</text><rect fill="#E2E2F0" height="33.0679" rx="2.5" ry="2.5" style="stroke:#181818;stroke-width:0.5;" width="126" x="797" y="859.1882"/><text fill="#000000" font-family="sans-serif" font-size="14" lengthAdjust="spacing" textLength="112" x="804" y="881.1542">CouseRepository</text><rect fill="#E2E2F0" height="33.0679" rx="2.5" ry="2.5" style="stroke:#181818;stroke-width:0.5;" width="139" x="933" y="50"/><text fill="#000000" font-family="sans-serif" font-size="14" lengthAdjust="spacing" textLength="125" x="940" y="71.9659">ListCoursesService</text><rect fill="#E2E2F0" height="33.0679" rx="2.5" ry="2.5" style="stroke:#181818;stroke-width:0.5;" width="139" x="933" y="859.1882"/><text fill="#000000" font-family="sans-serif" font-size="14" lengthAdjust="spacing" textLength="125" x="940" y="881.1542">ListCoursesService</text><rect fill="#E2E2F0" height="33.0679" rx="2.5" ry="2.5" style="stroke:#181818;stroke-width:0.5;" width="204" x="1082" y="50"/><text fill="#000000" font-family="sans-serif" font-size="14" lengthAdjust="spacing" textLength="190" x="1089" y="71.9659">CourseAndStateDTOMapper</text><rect fill="#E2E2F0" height="33.0679" rx="2.5" ry="2.5" style="stroke:#181818;stroke-width:0.5;" width="204" x="1082" y="859.1882"/><text fill="#000000" font-family="sans-serif" font-size="14" lengthAdjust="spacing" textLength="190" x="1089" y="881.1542">CourseAndStateDTOMapper</text><rect fill="#E2E2F0" height="33.0679" rx="2.5" ry="2.5" style="stroke:#181818;stroke-width:0.5;" width="151" x="1296" y="50"/><text fill="#000000" font-family="sans-serif" font-size="14" lengthAdjust="spacing" textLength="137" x="1303" y="71.9659">CourseAndStateDTO</text><rect fill="#E2E2F0" height="33.0679" rx="2.5" ry="2.5" style="stroke:#181818;stroke-width:0.5;" width="151" x="1296" y="859.1882"/><text fill="#000000" font-family="sans-serif" font-size="14" lengthAdjust="spacing" textLength="137" x="1303" y="881.1542">CourseAndStateDTO</text><rect fill="#E2E2F0" height="33.0679" rx="2.5" ry="2.5" style="stroke:#181818;stroke-width:0.5;" width="61" x="1457" y="50"/><text fill="#000000" font-family="sans-serif" font-size="14" lengthAdjust="spacing" textLength="47" x="1464" y="71.9659">Course</text><rect fill="#E2E2F0" height="33.0679" rx="2.5" ry="2.5" style="stroke:#181818;stroke-width:0.5;" width="61" x="1457" y="859.1882"/><text fill="#000000" font-family="sans-serif" font-size="14" lengthAdjust="spacing" textLength="47" x="1464" y="881.1542">Course</text><rect fill="#FFFFFF" height="534.1782" style="stroke:#181818;stroke-width:1.0;" width="10" x="192.5" y="117.7739"/><rect fill="#FFFFFF" height="158.5301" style="stroke:#181818;stroke-width:1.0;" width="10" x="192.5" y="683.6582"/><rect fill="#FFFFFF" height="186.8241" style="stroke:#181818;stroke-width:1.0;" width="10" x="383.5" y="149.4799"/><rect fill="#FFFFFF" height="252.2361" style="stroke:#181818;stroke-width:1.0;" width="10" x="383.5" y="368.01"/><rect fill="#FFFFFF" height="95.118" style="stroke:#181818;stroke-width:1.0;" width="10" x="383.5" y="715.3642"/><rect fill="#FFFFFF" height="61.706" style="stroke:#181818;stroke-width:1.0;" width="10" x="568" y="181.186"/><rect fill="#FFFFFF" height="30" style="stroke:#181818;stroke-width:1.0;" width="10" x="715.5" y="212.892"/><rect fill="#FFFFFF" height="61.706" style="stroke:#181818;stroke-width:1.0;" width="10" x="715.5" y="274.598"/><rect fill="#FFFFFF" height="30" style="stroke:#181818;stroke-width:1.0;" width="10" x="855" y="306.304"/><rect fill="#FFFFFF" height="30" style="stroke:#181818;stroke-width:1.0;" width="10" x="855" y="431.4221"/><rect fill="#FFFFFF" height="61.706" style="stroke:#181818;stroke-width:1.0;" width="10" x="997.5" y="399.716"/><rect fill="#FFFFFF" height="103.412" style="stroke:#181818;stroke-width:1.0;" width="10" x="1179" y="493.1281"/><rect fill="#FFFFFF" height="30" style="stroke:#181818;stroke-width:1.0;" width="10" x="1366.5" y="551.5401"/><rect fill="#FFFFFF" height="31.706" style="stroke:#181818;stroke-width:1.0;" width="10" x="1482.5" y="747.0702"/><polygon fill="#181818" points="180.5,113.7739,190.5,117.7739,180.5,121.7739,184.5,117.7739" style="stroke:#181818;stroke-width:1.0;"/><line style="stroke:#181818;stroke-width:1.0;stroke-dasharray:2.0,2.0;" x1="38.5" x2="186.5" y1="117.7739" y2="117.7739"/><text fill="#000000" font-family="sans-serif" font-size="13" lengthAdjust="spacing" textLength="32" x="45.5" y="111.9649">enter</text><polygon fill="#181818" points="371.5,145.4799,381.5,149.4799,371.5,153.4799,375.5,149.4799" style="stroke:#181818;stroke-width:1.0;"/><line style="stroke:#181818;stroke-width:1.0;stroke-dasharray:2.0,2.0;" x1="202.5" x2="377.5" y1="149.4799" y2="149.4799"/><text fill="#000000" font-family="sans-serif" font-size="13" lengthAdjust="spacing" textLength="45" x="209.5" y="143.6709">create()</text><polygon fill="#181818" points="556,177.186,566,181.186,556,185.186,560,181.186" style="stroke:#181818;stroke-width:1.0;"/><line style="stroke:#181818;stroke-width:1.0;stroke-dasharray:2.0,2.0;" x1="393.5" x2="562" y1="181.186" y2="181.186"/><text fill="#000000" font-family="sans-serif" font-size="13" lengthAdjust="spacing" textLength="79" x="400.5" y="175.377">repositories()</text><polygon fill="#181818" points="703.5,208.892,713.5,212.892,703.5,216.892,707.5,212.892" style="stroke:#181818;stroke-width:1.0;"/><line style="stroke:#181818;stroke-width:1.0;stroke-dasharray:2.0,2.0;" x1="578" x2="709.5" y1="212.892" y2="212.892"/><text fill="#000000" font-family="sans-serif" font-size="13" lengthAdjust="spacing" textLength="45" x="585" y="207.083">create()</text><polygon fill="#181818" points="703.5,270.598,713.5,274.598,703.5,278.598,707.5,274.598" style="stroke:#181818;stroke-width:1.0;"/><line style="stroke:#181818;stroke-width:1.0;stroke-dasharray:2.0,2.0;" x1="393.5" x2="709.5" y1="274.598" y2="274.598"/><text fill="#000000" font-family="sans-serif" font-size="13" lengthAdjust="spacing" textLength="54" x="400.5" y="268.789">courses()</text><polygon fill="#181818" points="843,302.304,853,306.304,843,310.304,847,306.304" style="stroke:#181818;stroke-width:1.0;"/><line style="stroke:#181818;stroke-width:1.0;stroke-dasharray:2.0,2.0;" x1="725.5" x2="849" y1="306.304" y2="306.304"/><text fill="#000000" font-family="sans-serif" font-size="13" lengthAdjust="spacing" textLength="45" x="732.5" y="300.495">create()</text><polygon fill="#181818" points="371.5,364.01,381.5,368.01,371.5,372.01,375.5,368.01" style="stroke:#181818;stroke-width:1.0;"/><line style="stroke:#181818;stroke-width:1.0;stroke-dasharray:2.0,2.0;" x1="202.5" x2="377.5" y1="368.01" y2="368.01"/><text fill="#000000" font-family="sans-serif" font-size="13" lengthAdjust="spacing" textLength="76" x="209.5" y="362.201">getCourses()</text><polygon fill="#181818" points="985.5,395.716,995.5,399.716,985.5,403.716,989.5,399.716" style="stroke:#181818;stroke-width:1.0;"/><line style="stroke:#181818;stroke-width:1.0;stroke-dasharray:2.0,2.0;" x1="393.5" x2="991.5" y1="399.716" y2="399.716"/><text fill="#000000" font-family="sans-serif" font-size="13" lengthAdjust="spacing" textLength="179" x="400.5" y="393.907">openable/closable(repository)</text><polygon fill="#181818" points="876,427.4221,866,431.4221,876,435.4221,872,431.4221" style="stroke:#181818;stroke-width:1.0;"/><line style="stroke:#181818;stroke-width:1.0;stroke-dasharray:2.0,2.0;" x1="870" x2="996.5" y1="431.4221" y2="431.4221"/><text fill="#000000" font-family="sans-serif" font-size="13" lengthAdjust="spacing" textLength="77" x="882" y="425.6131">findByState()</text><polygon fill="#181818" points="1167,489.1281,1177,493.1281,1167,497.1281,1171,493.1281" style="stroke:#181818;stroke-width:1.0;"/><line style="stroke:#181818;stroke-width:1.0;stroke-dasharray:2.0,2.0;" x1="393.5" x2="1173" y1="493.1281" y2="493.1281"/><text fill="#000000" font-family="sans-serif" font-size="13" lengthAdjust="spacing" textLength="89" x="400.5" y="487.3191">toDto(courses)</text><path d="M1072,508.1281 L1145,508.1281 L1145,517.8341 L1135,527.8341 L1072,527.8341 L1072,508.1281 " fill="#EEEEEE" style="stroke:#000000;stroke-width:1.5;"/><rect fill="none" height="81.412" style="stroke:#000000;stroke-width:1.5;" width="385" x="1072" y="508.1281"/><text fill="#000000" font-family="sans-serif" font-size="13" font-weight="bold" lengthAdjust="spacing" textLength="28" x="1087" y="523.0251">loop</text><text fill="#000000" font-family="sans-serif" font-size="11" font-weight="bold" lengthAdjust="spacing" textLength="152" x="1160" y="521.887">[for each course in courses]</text><polygon fill="#181818" points="1354.5,547.5401,1364.5,551.5401,1354.5,555.5401,1358.5,551.5401" style="stroke:#181818;stroke-width:1.0;"/><line style="stroke:#181818;stroke-width:1.0;stroke-dasharray:2.0,2.0;" x1="1189" x2="1360.5" y1="551.5401" y2="551.5401"/><text fill="#000000" font-family="sans-serif" font-size="13" lengthAdjust="spacing" textLength="45" x="1196" y="545.7311">create()</text><polygon fill="#181818" points="213.5,616.2461,203.5,620.2461,213.5,624.2461,209.5,620.2461" style="stroke:#181818;stroke-width:1.0;"/><line style="stroke:#181818;stroke-width:1.0;stroke-dasharray:2.0,2.0;" x1="207.5" x2="387.5" y1="620.2461" y2="620.2461"/><text fill="#000000" font-family="sans-serif" font-size="13" lengthAdjust="spacing" textLength="46" x="219.5" y="614.4371">courses</text><polygon fill="#181818" points="49.5,647.9521,39.5,651.9521,49.5,655.9521,45.5,651.9521" style="stroke:#181818;stroke-width:1.0;"/><line style="stroke:#181818;stroke-width:1.0;stroke-dasharray:2.0,2.0;" x1="43.5" x2="196.5" y1="651.9521" y2="651.9521"/><text fill="#000000" font-family="sans-serif" font-size="13" lengthAdjust="spacing" textLength="81" x="55.5" y="646.1431">show courses</text><polygon fill="#181818" points="180.5,679.6582,190.5,683.6582,180.5,687.6582,184.5,683.6582" style="stroke:#181818;stroke-width:1.0;"/><line style="stroke:#181818;stroke-width:1.0;stroke-dasharray:2.0,2.0;" x1="38.5" x2="186.5" y1="683.6582" y2="683.6582"/><text fill="#000000" font-family="sans-serif" font-size="13" lengthAdjust="spacing" textLength="135" x="45.5" y="677.8492">selects course from list</text><polygon fill="#181818" points="371.5,711.3642,381.5,715.3642,371.5,719.3642,375.5,715.3642" style="stroke:#181818;stroke-width:1.0;"/><line style="stroke:#181818;stroke-width:1.0;stroke-dasharray:2.0,2.0;" x1="202.5" x2="377.5" y1="715.3642" y2="715.3642"/><text fill="#000000" font-family="sans-serif" font-size="13" lengthAdjust="spacing" textLength="118" x="209.5" y="709.5552">chosen course (dto)</text><polygon fill="#181818" points="1470.5,743.0702,1480.5,747.0702,1470.5,751.0702,1474.5,747.0702" style="stroke:#181818;stroke-width:1.0;"/><line style="stroke:#181818;stroke-width:1.0;stroke-dasharray:2.0,2.0;" x1="393.5" x2="1476.5" y1="747.0702" y2="747.0702"/><text fill="#000000" font-family="sans-serif" font-size="13" lengthAdjust="spacing" textLength="74" x="400.5" y="741.2612">open/close()</text><polygon fill="#181818" points="404.5,774.7762,394.5,778.7762,404.5,782.7762,400.5,778.7762" style="stroke:#181818;stroke-width:1.0;"/><line style="stroke:#181818;stroke-width:1.0;stroke-dasharray:2.0,2.0;" x1="398.5" x2="1486.5" y1="778.7762" y2="778.7762"/><text fill="#000000" font-family="sans-serif" font-size="13" lengthAdjust="spacing" textLength="34" x="410.5" y="772.9672">result</text><polygon fill="#181818" points="213.5,806.4822,203.5,810.4822,213.5,814.4822,209.5,810.4822" style="stroke:#181818;stroke-width:1.0;"/><line style="stroke:#181818;stroke-width:1.0;stroke-dasharray:2.0,2.0;" x1="207.5" x2="387.5" y1="810.4822" y2="810.4822"/><text fill="#000000" font-family="sans-serif" font-size="13" lengthAdjust="spacing" textLength="34" x="219.5" y="804.6732">result</text><polygon fill="#181818" points="49.5,838.1882,39.5,842.1882,49.5,846.1882,45.5,842.1882" style="stroke:#181818;stroke-width:1.0;"/><line style="stroke:#181818;stroke-width:1.0;stroke-dasharray:2.0,2.0;" x1="43.5" x2="196.5" y1="842.1882" y2="842.1882"/><text fill="#000000" font-family="sans-serif" font-size="13" lengthAdjust="spacing" textLength="69" x="55.5" y="836.3792">show result</text><!--SRC=[hLHDRzim3BtxL-YO7OhTVHYmfHWmO4M7TJiNcimq0bJHa9JC-VUZA3cHR3NDOJh9vgFu-FWXLK0d7gILB-24zEBWmNMZT44hFKeRnEC8zdbhqCCM3yx3xsyCqrT1MxJ1eJ7fJHMSwIhy3t1U-m1MCHIca71JXVe98tfD14zVPUHvYY07u_DEgWf8GJrSq1c6TSpl532nyq_WZbf1nFcZwfPl4UIp7Pw2373_w_51ZcFAuvLlrz4HDmHilSafygtheipYxkuJ2TaB80LSrr6E-aYlH745dODcH5Il5ye1cJOVs796ih8Yd_YHFQQU1M0vDFZijd2TpZ-JzyJEMTz5n9NxN8RIEC2Rvi8K0wyvNyAc4hKejsBcV_CRU0Dll48QktUIgHA9RRqkrGlCVNPRkQW5Uu4qGVAFWO-AfYXUDkS2dXfInBOjiw3lGeATjiEN4xVa_zI1PsL5Fqr5BmBU1zpayZKev-afOnh4KUne0L6CVQwyq7RkWGeRJtg2ezAClL7gAcWSnQMno6Xf1ZimgLRscVzQW3Z29UDLYnGT4kU-5twFVyyk1Pm6lzuC7WoeCAyDiNFuAWpjiNTsnPuMyQoYs52ID_HXz6Q7r8lSXz1S76c5LRiZHRemSE0F9ZIdFo_0feg5suqYPezQmty0]--></g></svg>