<?xml version="1.0" encoding="us-ascii" standalone="no"?><svg xmlns="http://www.w3.org/2000/svg" xmlns:xlink="http://www.w3.org/1999/xlink" contentStyleType="text/css" height="1209px" preserveAspectRatio="none" style="width:2305px;height:1209px;background:#1B1B1B;" version="1.1" viewBox="0 0 2305 1209" width="2305px" zoomAndPan="magnify"><defs/><g><rect fill="#1B1B1B" height="1209" style="stroke:none;stroke-width:1.0;" width="2305" x="0" y="0"/><rect fill="#000000" height="509.8842" style="stroke:#E7E7E7;stroke-width:1.0;" width="10" x="195" y="117.7739"/><rect fill="#000000" height="413.0602" style="stroke:#E7E7E7;stroke-width:1.0;" width="10" x="195" y="694.7762"/><rect fill="#000000" height="64.706" style="stroke:#E7E7E7;stroke-width:1.0;" width="10" x="452" y="149.4799"/><rect fill="#000000" height="329.3541" style="stroke:#E7E7E7;stroke-width:1.0;" width="10" x="452" y="266.598"/><rect fill="#000000" height="349.6481" style="stroke:#E7E7E7;stroke-width:1.0;" width="10" x="452" y="726.4822"/><rect fill="#000000" height="30" style="stroke:#E7E7E7;stroke-width:1.0;" width="10" x="669" y="184.186"/><rect fill="#000000" height="30" style="stroke:#E7E7E7;stroke-width:1.0;" width="10" x="669" y="1014.4243"/><rect fill="#000000" height="31.706" style="stroke:#E7E7E7;stroke-width:1.0;" width="10" x="838.5" y="758.1882"/><rect fill="#000000" height="161.118" style="stroke:#E7E7E7;stroke-width:1.0;" width="10" x="996.5" y="821.6003"/><rect fill="#000000" height="30" style="stroke:#E7E7E7;stroke-width:1.0;" width="10" x="1240.5" y="853.3063"/><rect fill="#000000" height="30" style="stroke:#E7E7E7;stroke-width:1.0;" width="10" x="1460.5" y="918.0123"/><rect fill="#000000" height="30" style="stroke:#E7E7E7;stroke-width:1.0;" width="10" x="1575" y="310.157"/><rect fill="#000000" height="30" style="stroke:#E7E7E7;stroke-width:1.0;" width="10" x="1701" y="383.716"/><rect fill="#000000" height="31.706" style="stroke:#E7E7E7;stroke-width:1.0;" width="10" x="1885" y="445.4221"/><rect fill="#000000" height="43.559" style="stroke:#E7E7E7;stroke-width:1.0;" width="10" x="2101.5" y="520.6871"/><line style="stroke:#E7E7E7;stroke-width:0.5;stroke-dasharray:5.0,5.0;" x1="35" x2="35" y1="84.0679" y2="1125.8364"/><line style="stroke:#E7E7E7;stroke-width:0.5;stroke-dasharray:5.0,5.0;" x1="199.5" x2="199.5" y1="84.0679" y2="1125.8364"/><line style="stroke:#E7E7E7;stroke-width:0.5;stroke-dasharray:5.0,5.0;" x1="456.5" x2="456.5" y1="84.0679" y2="1125.8364"/><line style="stroke:#E7E7E7;stroke-width:0.5;stroke-dasharray:5.0,5.0;" x1="673.5" x2="673.5" y1="84.0679" y2="1125.8364"/><line style="stroke:#E7E7E7;stroke-width:0.5;stroke-dasharray:5.0,5.0;" x1="843.5" x2="843.5" y1="84.0679" y2="1125.8364"/><line style="stroke:#E7E7E7;stroke-width:0.5;stroke-dasharray:5.0,5.0;" x1="1001.5" x2="1001.5" y1="84.0679" y2="1125.8364"/><line style="stroke:#E7E7E7;stroke-width:0.5;stroke-dasharray:5.0,5.0;" x1="1245.5" x2="1245.5" y1="84.0679" y2="1125.8364"/><line style="stroke:#E7E7E7;stroke-width:0.5;stroke-dasharray:5.0,5.0;" x1="1465.5" x2="1465.5" y1="84.0679" y2="1125.8364"/><line style="stroke:#E7E7E7;stroke-width:0.5;stroke-dasharray:5.0,5.0;" x1="1579.5" x2="1579.5" y1="84.0679" y2="1125.8364"/><line style="stroke:#E7E7E7;stroke-width:0.5;stroke-dasharray:5.0,5.0;" x1="1705.5" x2="1705.5" y1="84.0679" y2="1125.8364"/><line style="stroke:#E7E7E7;stroke-width:0.5;stroke-dasharray:5.0,5.0;" x1="1889.5" x2="1889.5" y1="84.0679" y2="1125.8364"/><line style="stroke:#E7E7E7;stroke-width:0.5;stroke-dasharray:5.0,5.0;" x1="2106.5" x2="2106.5" y1="84.0679" y2="1125.8364"/><text fill="#FFFFFF" font-family="sans-serif" font-size="14" lengthAdjust="spacing" textLength="54" x="5" y="79.9659">Teacher</text><ellipse cx="35" cy="13.5" fill="#222222" rx="8" ry="8" style="stroke:#E7E7E7;stroke-width:0.5;"/><path d="M35,21.5 L35,48.5 M22,29.5 L48,29.5 M35,48.5 L22,63.5 M35,48.5 L48,63.5 " fill="none" style="stroke:#E7E7E7;stroke-width:0.5;"/><text fill="#FFFFFF" font-family="sans-serif" font-size="14" lengthAdjust="spacing" textLength="54" x="5" y="1139.8023">Teacher</text><ellipse cx="35" cy="1152.4043" fill="#222222" rx="8" ry="8" style="stroke:#E7E7E7;stroke-width:0.5;"/><path d="M35,1160.4043 L35,1187.4043 M22,1168.4043 L48,1168.4043 M35,1187.4043 L22,1202.4043 M35,1187.4043 L48,1202.4043 " fill="none" style="stroke:#E7E7E7;stroke-width:0.5;"/><rect fill="#222222" height="33.0679" rx="2.5" ry="2.5" style="stroke:#E7E7E7;stroke-width:0.5;" width="175" x="112.5" y="50"/><text fill="#FFFFFF" font-family="sans-serif" font-size="14" lengthAdjust="spacing" textLength="161" x="119.5" y="71.9659">CreateFormativeExamUI</text><rect fill="#222222" height="33.0679" rx="2.5" ry="2.5" style="stroke:#E7E7E7;stroke-width:0.5;" width="175" x="112.5" y="1124.8364"/><text fill="#FFFFFF" font-family="sans-serif" font-size="14" lengthAdjust="spacing" textLength="161" x="119.5" y="1146.8023">CreateFormativeExamUI</text><rect fill="#222222" height="33.0679" rx="2.5" ry="2.5" style="stroke:#E7E7E7;stroke-width:0.5;" width="227" x="343.5" y="50"/><text fill="#FFFFFF" font-family="sans-serif" font-size="14" lengthAdjust="spacing" textLength="213" x="350.5" y="71.9659">CreateFormativeExamController</text><rect fill="#222222" height="33.0679" rx="2.5" ry="2.5" style="stroke:#E7E7E7;stroke-width:0.5;" width="227" x="343.5" y="1124.8364"/><text fill="#FFFFFF" font-family="sans-serif" font-size="14" lengthAdjust="spacing" textLength="213" x="350.5" y="1146.8023">CreateFormativeExamController</text><rect fill="#222222" height="33.0679" rx="2.5" ry="2.5" style="stroke:#E7E7E7;stroke-width:0.5;" width="187" x="580.5" y="50"/><text fill="#FFFFFF" font-family="sans-serif" font-size="14" lengthAdjust="spacing" textLength="173" x="587.5" y="71.9659">FormativeExamRepository</text><rect fill="#222222" height="33.0679" rx="2.5" ry="2.5" style="stroke:#E7E7E7;stroke-width:0.5;" width="187" x="580.5" y="1124.8364"/><text fill="#FFFFFF" font-family="sans-serif" font-size="14" lengthAdjust="spacing" textLength="173" x="587.5" y="1146.8023">FormativeExamRepository</text><rect fill="#222222" height="33.0679" rx="2.5" ry="2.5" style="stroke:#E7E7E7;stroke-width:0.5;" width="132" x="777.5" y="50"/><text fill="#FFFFFF" font-family="sans-serif" font-size="14" lengthAdjust="spacing" textLength="118" x="784.5" y="71.9659">CourseRepository</text><rect fill="#222222" height="33.0679" rx="2.5" ry="2.5" style="stroke:#E7E7E7;stroke-width:0.5;" width="132" x="777.5" y="1124.8364"/><text fill="#FFFFFF" font-family="sans-serif" font-size="14" lengthAdjust="spacing" textLength="118" x="784.5" y="1146.8023">CourseRepository</text><rect fill="#222222" height="33.0679" rx="2.5" ry="2.5" style="stroke:#E7E7E7;stroke-width:0.5;" width="164" x="919.5" y="50"/><text fill="#FFFFFF" font-family="sans-serif" font-size="14" lengthAdjust="spacing" textLength="150" x="926.5" y="71.9659">FormativeExamFactory</text><rect fill="#222222" height="33.0679" rx="2.5" ry="2.5" style="stroke:#E7E7E7;stroke-width:0.5;" width="164" x="919.5" y="1124.8364"/><text fill="#FFFFFF" font-family="sans-serif" font-size="14" lengthAdjust="spacing" textLength="150" x="926.5" y="1146.8023">FormativeExamFactory</text><rect fill="#222222" height="33.0679" rx="2.5" ry="2.5" style="stroke:#E7E7E7;stroke-width:0.5;" width="304" x="1093.5" y="50"/><text fill="#FFFFFF" font-family="sans-serif" font-size="14" lengthAdjust="spacing" textLength="290" x="1100.5" y="71.9659">ValidateFormativeExamSpecificationService</text><rect fill="#222222" height="33.0679" rx="2.5" ry="2.5" style="stroke:#E7E7E7;stroke-width:0.5;" width="304" x="1093.5" y="1124.8364"/><text fill="#FFFFFF" font-family="sans-serif" font-size="14" lengthAdjust="spacing" textLength="290" x="1100.5" y="1146.8023">ValidateFormativeExamSpecificationService</text><rect fill="#222222" height="33.0679" rx="2.5" ry="2.5" style="stroke:#E7E7E7;stroke-width:0.5;" width="116" x="1407.5" y="50"/><text fill="#FFFFFF" font-family="sans-serif" font-size="14" lengthAdjust="spacing" textLength="102" x="1414.5" y="71.9659">FormativeExam</text><rect fill="#222222" height="33.0679" rx="2.5" ry="2.5" style="stroke:#E7E7E7;stroke-width:0.5;" width="116" x="1407.5" y="1124.8364"/><text fill="#FFFFFF" font-family="sans-serif" font-size="14" lengthAdjust="spacing" textLength="102" x="1414.5" y="1146.8023">FormativeExam</text><rect fill="#222222" height="33.0679" rx="2.5" ry="2.5" style="stroke:#E7E7E7;stroke-width:0.5;" width="93" x="1533.5" y="50"/><text fill="#FFFFFF" font-family="sans-serif" font-size="14" lengthAdjust="spacing" textLength="79" x="1540.5" y="71.9659">SystemUser</text><rect fill="#222222" height="33.0679" rx="2.5" ry="2.5" style="stroke:#E7E7E7;stroke-width:0.5;" width="93" x="1533.5" y="1124.8364"/><text fill="#FFFFFF" font-family="sans-serif" font-size="14" lengthAdjust="spacing" textLength="79" x="1540.5" y="1146.8023">SystemUser</text><rect fill="#222222" height="33.0679" rx="2.5" ry="2.5" style="stroke:#E7E7E7;stroke-width:0.5;" width="139" x="1636.5" y="50"/><text fill="#FFFFFF" font-family="sans-serif" font-size="14" lengthAdjust="spacing" textLength="125" x="1643.5" y="71.9659">TeacherRepository</text><rect fill="#222222" height="33.0679" rx="2.5" ry="2.5" style="stroke:#E7E7E7;stroke-width:0.5;" width="139" x="1636.5" y="1124.8364"/><text fill="#FFFFFF" font-family="sans-serif" font-size="14" lengthAdjust="spacing" textLength="125" x="1643.5" y="1146.8023">TeacherRepository</text><rect fill="#222222" height="33.0679" rx="2.5" ry="2.5" style="stroke:#E7E7E7;stroke-width:0.5;" width="209" x="1785.5" y="50"/><text fill="#FFFFFF" font-family="sans-serif" font-size="14" lengthAdjust="spacing" textLength="195" x="1792.5" y="71.9659">StaffMemberExamRepository</text><rect fill="#222222" height="33.0679" rx="2.5" ry="2.5" style="stroke:#E7E7E7;stroke-width:0.5;" width="209" x="1785.5" y="1124.8364"/><text fill="#FFFFFF" font-family="sans-serif" font-size="14" lengthAdjust="spacing" textLength="195" x="1792.5" y="1146.8023">StaffMemberExamRepository</text><rect fill="#222222" height="33.0679" rx="2.5" ry="2.5" style="stroke:#E7E7E7;stroke-width:0.5;" width="204" x="2004.5" y="50"/><text fill="#FFFFFF" font-family="sans-serif" font-size="14" lengthAdjust="spacing" textLength="190" x="2011.5" y="71.9659">AvailableCourseDTOMapper</text><rect fill="#222222" height="33.0679" rx="2.5" ry="2.5" style="stroke:#E7E7E7;stroke-width:0.5;" width="204" x="2004.5" y="1124.8364"/><text fill="#FFFFFF" font-family="sans-serif" font-size="14" lengthAdjust="spacing" textLength="190" x="2011.5" y="1146.8023">AvailableCourseDTOMapper</text><rect fill="#000000" height="509.8842" style="stroke:#E7E7E7;stroke-width:1.0;" width="10" x="195" y="117.7739"/><rect fill="#000000" height="413.0602" style="stroke:#E7E7E7;stroke-width:1.0;" width="10" x="195" y="694.7762"/><rect fill="#000000" height="64.706" style="stroke:#E7E7E7;stroke-width:1.0;" width="10" x="452" y="149.4799"/><rect fill="#000000" height="329.3541" style="stroke:#E7E7E7;stroke-width:1.0;" width="10" x="452" y="266.598"/><rect fill="#000000" height="349.6481" style="stroke:#E7E7E7;stroke-width:1.0;" width="10" x="452" y="726.4822"/><rect fill="#000000" height="30" style="stroke:#E7E7E7;stroke-width:1.0;" width="10" x="669" y="184.186"/><rect fill="#000000" height="30" style="stroke:#E7E7E7;stroke-width:1.0;" width="10" x="669" y="1014.4243"/><rect fill="#000000" height="31.706" style="stroke:#E7E7E7;stroke-width:1.0;" width="10" x="838.5" y="758.1882"/><rect fill="#000000" height="161.118" style="stroke:#E7E7E7;stroke-width:1.0;" width="10" x="996.5" y="821.6003"/><rect fill="#000000" height="30" style="stroke:#E7E7E7;stroke-width:1.0;" width="10" x="1240.5" y="853.3063"/><rect fill="#000000" height="30" style="stroke:#E7E7E7;stroke-width:1.0;" width="10" x="1460.5" y="918.0123"/><rect fill="#000000" height="30" style="stroke:#E7E7E7;stroke-width:1.0;" width="10" x="1575" y="310.157"/><rect fill="#000000" height="30" style="stroke:#E7E7E7;stroke-width:1.0;" width="10" x="1701" y="383.716"/><rect fill="#000000" height="31.706" style="stroke:#E7E7E7;stroke-width:1.0;" width="10" x="1885" y="445.4221"/><rect fill="#000000" height="43.559" style="stroke:#E7E7E7;stroke-width:1.0;" width="10" x="2101.5" y="520.6871"/><polygon fill="#E7E7E7" points="183,113.7739,193,117.7739,183,121.7739,187,117.7739" style="stroke:#E7E7E7;stroke-width:1.0;"/><line style="stroke:#E7E7E7;stroke-width:1.0;stroke-dasharray:2.0,2.0;" x1="35" x2="189" y1="117.7739" y2="117.7739"/><text fill="#FFFFFF" font-family="sans-serif" font-size="13" lengthAdjust="spacing" textLength="32" x="42" y="111.9649">enter</text><polygon fill="#E7E7E7" points="440,145.4799,450,149.4799,440,153.4799,444,149.4799" style="stroke:#E7E7E7;stroke-width:1.0;"/><line style="stroke:#E7E7E7;stroke-width:1.0;stroke-dasharray:2.0,2.0;" x1="205" x2="446" y1="149.4799" y2="149.4799"/><text fill="#FFFFFF" font-family="sans-serif" font-size="13" lengthAdjust="spacing" textLength="45" x="212" y="143.6709">create()</text><polygon fill="#E7E7E7" points="657,180.186,667,184.186,657,188.186,661,184.186" style="stroke:#E7E7E7;stroke-width:1.0;"/><line style="stroke:#E7E7E7;stroke-width:1.0;stroke-dasharray:2.0,2.0;" x1="462" x2="663" y1="184.186" y2="184.186"/><path d="M684,162.4799 L684,207.4799 L903,207.4799 L903,172.4799 L893,162.4799 L684,162.4799 " fill="#714137" style="stroke:#E7E7E7;stroke-width:0.5;"/><path d="M893,162.4799 L893,172.4799 L903,172.4799 L893,162.4799 " fill="#714137" style="stroke:#E7E7E7;stroke-width:0.5;"/><text fill="#FFFFFF" font-family="sans-serif" font-size="13" lengthAdjust="spacing" textLength="151" x="690" y="181.377">repository is retrieved via</text><text fill="#FFFFFF" font-family="sans-serif" font-size="13" lengthAdjust="spacing" textLength="198" x="690" y="199.083">PersistenceContext.repositories()</text><polygon fill="#E7E7E7" points="440,262.598,450,266.598,440,270.598,444,266.598" style="stroke:#E7E7E7;stroke-width:1.0;"/><line style="stroke:#E7E7E7;stroke-width:1.0;stroke-dasharray:2.0,2.0;" x1="205" x2="446" y1="266.598" y2="266.598"/><text fill="#FFFFFF" font-family="sans-serif" font-size="13" lengthAdjust="spacing" textLength="54" x="212" y="260.789">courses()</text><polygon fill="#E7E7E7" points="1563,306.157,1573,310.157,1563,314.157,1567,310.157" style="stroke:#E7E7E7;stroke-width:1.0;"/><line style="stroke:#E7E7E7;stroke-width:1.0;stroke-dasharray:2.0,2.0;" x1="462" x2="1569" y1="310.157" y2="310.157"/><text fill="#FFFFFF" font-family="sans-serif" font-size="13" lengthAdjust="spacing" textLength="28" x="469" y="304.348">get()</text><path d="M1590,279.598 L1590,324.598 L1799,324.598 L1799,289.598 L1789,279.598 L1590,279.598 " fill="#714137" style="stroke:#E7E7E7;stroke-width:0.5;"/><path d="M1789,279.598 L1789,289.598 L1799,289.598 L1789,279.598 " fill="#714137" style="stroke:#E7E7E7;stroke-width:0.5;"/><text fill="#FFFFFF" font-family="sans-serif" font-size="13" lengthAdjust="spacing" textLength="136" x="1596" y="298.495">sysUser is obtained via</text><text fill="#FFFFFF" font-family="sans-serif" font-size="13" lengthAdjust="spacing" textLength="188" x="1596" y="316.201">the framework's Authz package</text><polygon fill="#E7E7E7" points="1689,379.716,1699,383.716,1689,387.716,1693,383.716" style="stroke:#E7E7E7;stroke-width:1.0;"/><line style="stroke:#E7E7E7;stroke-width:1.0;stroke-dasharray:2.0,2.0;" x1="462" x2="1695" y1="383.716" y2="383.716"/><text fill="#FFFFFF" font-family="sans-serif" font-size="13" lengthAdjust="spacing" textLength="165" x="469" y="377.907">findBySystemUser(sysUser)</text><polygon fill="#E7E7E7" points="1873,441.4221,1883,445.4221,1873,449.4221,1877,445.4221" style="stroke:#E7E7E7;stroke-width:1.0;"/><line style="stroke:#E7E7E7;stroke-width:1.0;stroke-dasharray:2.0,2.0;" x1="462" x2="1879" y1="445.4221" y2="445.4221"/><text fill="#FFFFFF" font-family="sans-serif" font-size="13" lengthAdjust="spacing" textLength="199" x="469" y="439.6131">nonClosedAndTaughtBy(teacher)</text><polygon fill="#E7E7E7" points="473,473.1281,463,477.1281,473,481.1281,469,477.1281" style="stroke:#E7E7E7;stroke-width:1.0;"/><line style="stroke:#E7E7E7;stroke-width:1.0;stroke-dasharray:2.0,2.0;" x1="467" x2="1889" y1="477.1281" y2="477.1281"/><text fill="#FFFFFF" font-family="sans-serif" font-size="13" lengthAdjust="spacing" textLength="46" x="479" y="471.3191">courses</text><polygon fill="#E7E7E7" points="2089.5,516.6871,2099.5,520.6871,2089.5,524.6871,2093.5,520.6871" style="stroke:#E7E7E7;stroke-width:1.0;"/><line style="stroke:#E7E7E7;stroke-width:1.0;stroke-dasharray:2.0,2.0;" x1="462" x2="2095.5" y1="520.6871" y2="520.6871"/><text fill="#FFFFFF" font-family="sans-serif" font-size="13" lengthAdjust="spacing" textLength="93" x="469" y="514.8781">toDTO(courses)</text><path d="M2116,490.1281 L2116,535.1281 L2298,535.1281 L2298,500.1281 L2288,490.1281 L2116,490.1281 " fill="#714137" style="stroke:#E7E7E7;stroke-width:0.5;"/><path d="M2288,490.1281 L2288,500.1281 L2298,500.1281 L2288,490.1281 " fill="#714137" style="stroke:#E7E7E7;stroke-width:0.5;"/><text fill="#FFFFFF" font-family="sans-serif" font-size="13" lengthAdjust="spacing" textLength="161" x="2122" y="509.0251">create AvailableCourseDTO</text><text fill="#FFFFFF" font-family="sans-serif" font-size="13" lengthAdjust="spacing" textLength="49" x="2122" y="526.7311">from list</text><polygon fill="#E7E7E7" points="473,560.2461,463,564.2461,473,568.2461,469,564.2461" style="stroke:#E7E7E7;stroke-width:1.0;"/><line style="stroke:#E7E7E7;stroke-width:1.0;stroke-dasharray:2.0,2.0;" x1="467" x2="2105.5" y1="564.2461" y2="564.2461"/><text fill="#FFFFFF" font-family="sans-serif" font-size="13" lengthAdjust="spacing" textLength="87" x="479" y="558.4371">courseDTOList</text><polygon fill="#E7E7E7" points="216,591.9521,206,595.9521,216,599.9521,212,595.9521" style="stroke:#E7E7E7;stroke-width:1.0;"/><line style="stroke:#E7E7E7;stroke-width:1.0;stroke-dasharray:2.0,2.0;" x1="210" x2="456" y1="595.9521" y2="595.9521"/><text fill="#FFFFFF" font-family="sans-serif" font-size="13" lengthAdjust="spacing" textLength="87" x="222" y="590.1431">courseDTOList</text><polygon fill="#E7E7E7" points="46,623.6582,36,627.6582,46,631.6582,42,627.6582" style="stroke:#E7E7E7;stroke-width:1.0;"/><line style="stroke:#E7E7E7;stroke-width:1.0;stroke-dasharray:2.0,2.0;" x1="40" x2="199" y1="627.6582" y2="627.6582"/><text fill="#FFFFFF" font-family="sans-serif" font-size="13" lengthAdjust="spacing" textLength="136" x="52" y="621.8492">show available courses</text><polygon fill="#E7E7E7" points="183,690.7762,193,694.7762,183,698.7762,187,694.7762" style="stroke:#E7E7E7;stroke-width:1.0;"/><line style="stroke:#E7E7E7;stroke-width:1.0;stroke-dasharray:2.0,2.0;" x1="35" x2="189" y1="694.7762" y2="694.7762"/><text fill="#FFFFFF" font-family="sans-serif" font-size="13" lengthAdjust="spacing" textLength="103" x="42" y="653.5552">select course and</text><text fill="#FFFFFF" font-family="sans-serif" font-size="13" lengthAdjust="spacing" textLength="104" x="42" y="671.2612">type specification</text><text fill="#FFFFFF" font-family="sans-serif" font-size="13" lengthAdjust="spacing" textLength="48" x="42" y="688.9672">file path</text><polygon fill="#E7E7E7" points="440,722.4822,450,726.4822,440,730.4822,444,726.4822" style="stroke:#E7E7E7;stroke-width:1.0;"/><line style="stroke:#E7E7E7;stroke-width:1.0;stroke-dasharray:2.0,2.0;" x1="205" x2="446" y1="726.4822" y2="726.4822"/><text fill="#FFFFFF" font-family="sans-serif" font-size="13" lengthAdjust="spacing" textLength="228" x="212" y="720.6732">createFormativeExam(courseDTO, file)</text><polygon fill="#E7E7E7" points="826.5,754.1882,836.5,758.1882,826.5,762.1882,830.5,758.1882" style="stroke:#E7E7E7;stroke-width:1.0;"/><line style="stroke:#E7E7E7;stroke-width:1.0;stroke-dasharray:2.0,2.0;" x1="462" x2="832.5" y1="758.1882" y2="758.1882"/><text fill="#FFFFFF" font-family="sans-serif" font-size="13" lengthAdjust="spacing" textLength="188" x="469" y="752.3792">ofIdentity(courseDTO.courseId)</text><polygon fill="#E7E7E7" points="473,785.8943,463,789.8943,473,793.8943,469,789.8943" style="stroke:#E7E7E7;stroke-width:1.0;"/><line style="stroke:#E7E7E7;stroke-width:1.0;stroke-dasharray:2.0,2.0;" x1="467" x2="842.5" y1="789.8943" y2="789.8943"/><text fill="#FFFFFF" font-family="sans-serif" font-size="13" lengthAdjust="spacing" textLength="40" x="479" y="784.0853">course</text><polygon fill="#E7E7E7" points="984.5,817.6003,994.5,821.6003,984.5,825.6003,988.5,821.6003" style="stroke:#E7E7E7;stroke-width:1.0;"/><line style="stroke:#E7E7E7;stroke-width:1.0;stroke-dasharray:2.0,2.0;" x1="462" x2="990.5" y1="821.6003" y2="821.6003"/><text fill="#FFFFFF" font-family="sans-serif" font-size="13" lengthAdjust="spacing" textLength="101" x="469" y="815.7913">build(course, file)</text><polygon fill="#E7E7E7" points="1228.5,849.3063,1238.5,853.3063,1228.5,857.3063,1232.5,853.3063" style="stroke:#E7E7E7;stroke-width:1.0;"/><line style="stroke:#E7E7E7;stroke-width:1.0;stroke-dasharray:2.0,2.0;" x1="1006.5" x2="1234.5" y1="853.3063" y2="853.3063"/><text fill="#FFFFFF" font-family="sans-serif" font-size="13" lengthAdjust="spacing" textLength="72" x="1013.5" y="847.4973">validate(file)</text><polygon fill="#E7E7E7" points="1448.5,914.0123,1458.5,918.0123,1448.5,922.0123,1452.5,918.0123" style="stroke:#E7E7E7;stroke-width:1.0;"/><line style="stroke:#E7E7E7;stroke-width:1.0;stroke-dasharray:2.0,2.0;" x1="1006.5" x2="1454.5" y1="918.0123" y2="918.0123"/><text fill="#FFFFFF" font-family="sans-serif" font-size="13" lengthAdjust="spacing" textLength="165" x="1013.5" y="912.2033">create(course, specification)</text><path d="M814,896.3063 L814,923.3063 L991,923.3063 L991,906.3063 L981,896.3063 L814,896.3063 " fill="#714137" style="stroke:#E7E7E7;stroke-width:0.5;"/><path d="M981,896.3063 L981,906.3063 L991,906.3063 L981,896.3063 " fill="#714137" style="stroke:#E7E7E7;stroke-width:0.5;"/><text fill="#FFFFFF" font-family="sans-serif" font-size="13" lengthAdjust="spacing" textLength="156" x="820" y="915.2033">specification read from file</text><polygon fill="#E7E7E7" points="473,978.7183,463,982.7183,473,986.7183,469,982.7183" style="stroke:#E7E7E7;stroke-width:1.0;"/><line style="stroke:#E7E7E7;stroke-width:1.0;stroke-dasharray:2.0,2.0;" x1="467" x2="1000.5" y1="982.7183" y2="982.7183"/><text fill="#FFFFFF" font-family="sans-serif" font-size="13" lengthAdjust="spacing" textLength="33" x="479" y="976.9093">exam</text><polygon fill="#E7E7E7" points="657,1010.4243,667,1014.4243,657,1018.4243,661,1014.4243" style="stroke:#E7E7E7;stroke-width:1.0;"/><line style="stroke:#E7E7E7;stroke-width:1.0;stroke-dasharray:2.0,2.0;" x1="462" x2="663" y1="1014.4243" y2="1014.4243"/><text fill="#FFFFFF" font-family="sans-serif" font-size="13" lengthAdjust="spacing" textLength="68" x="469" y="1008.6153">save(exam)</text><polygon fill="#E7E7E7" points="216,1072.1304,206,1076.1304,216,1080.1304,212,1076.1304" style="stroke:#E7E7E7;stroke-width:1.0;"/><line style="stroke:#E7E7E7;stroke-width:1.0;stroke-dasharray:2.0,2.0;" x1="210" x2="456" y1="1076.1304" y2="1076.1304"/><text fill="#FFFFFF" font-family="sans-serif" font-size="13" lengthAdjust="spacing" textLength="45" x="222" y="1070.3214">success</text><polygon fill="#E7E7E7" points="46,1103.8364,36,1107.8364,46,1111.8364,42,1107.8364" style="stroke:#E7E7E7;stroke-width:1.0;"/><line style="stroke:#E7E7E7;stroke-width:1.0;stroke-dasharray:2.0,2.0;" x1="40" x2="199" y1="1107.8364" y2="1107.8364"/><text fill="#FFFFFF" font-family="sans-serif" font-size="13" lengthAdjust="spacing" textLength="86" x="52" y="1102.0274">report success</text><!--SRC=[bLPDRzim3BtdL-WM5rZx0teOq7Oh4635FjBkL21G9BeHQakU9BlrVlqeMNQaM6ux7nB7VYGVAJuob5cboJrGTW1Dg26j0RrggBQ2YOPAIsuqK0ktIjVKYWw-ljBwOUEHuZtSZP9MgweQF3EhgrLYae1_GQECG3Qz0slybRfNhJQGWjZEmvPztb8sOakyJO2_QINuAUDj0qoKWk439RUWEy70MPkElH768G2_LobcsniBzOCPqZUzsRL6fv1G-3GjkvjblxMqBE-WteEUryhKcJfSTLHKT5_1KBWlzz_lQDCCL6f_jrgJjmqSb5lqUuBy0Te8J4qoS2SChtOutjSJt95bT0x8T8TdSUhpPml6rJpDx4z8REMwafoVVyQckoI0CR6Ew5DqU82k4LS4hrPuYEipSacOxyVYpB-QiBu9IRWyqfduAEDJgH2dnTF1eXTzv2CSUQi5TC199-YZd1VYOi8BC25s4Z-9n67-F7es22QJcJyWyx7KGjkXsHFO7AEnBqbq9IL0WEzXp5_jBHLoJDyUW9IQrl2YzFFQaAlM7lxYgR9d-WIv92S9p5WEBO_1IY7vTNzKJX6YPuW7cMJYX3UPOjHZ7AdaJQKCy2l9xscBcLxtXHtKc2jIdGPpr-XiVZBPtEibKeCQqTeg55qHV9pb-t7ewenO7sMfLKqgxCSv_I3uc7s8EYEFhhx5Fg8KJhoi_MUbL4DAt26kTi474N9MYdKkCawNKwMcs2cscqFprn6vEG0az-mo9KSzvV9zItj-0g4O3kg5qB7wKvQHfPj6qRXoDb01isDjgEGedRx1beYN3PwVG8SDjOTqj2rDjcG35LCoduZpyw7Hm4Ong7B3SQWAsn_zN0nt6vvH0vkBWIre8TT7R4a9RaUZvRuL5GzCudGI3dwVnmoyiHTvnz195zPxaTgdgiQj7h-8vUeMVjQzM_J7fXrP9cTvDX-c5PH-biOm7FgK4ozRHpBFqV-lM20v_EV8iWo7a5X7bhvw-JteMD8E2cVwlmjiGMccPGoC-QZ6d2jj9wjKM_y0]--></g></svg>