<?xml version="1.0" encoding="us-ascii" standalone="no"?><svg xmlns="http://www.w3.org/2000/svg" xmlns:xlink="http://www.w3.org/1999/xlink" contentStyleType="text/css" height="1211px" preserveAspectRatio="none" style="width:2254px;height:1211px;background:#1B1B1B;" version="1.1" viewBox="0 0 2254 1211" width="2254px" zoomAndPan="magnify"><defs/><g><rect fill="#1B1B1B" height="1211" style="stroke:none;stroke-width:1.0;" width="2254" x="0" y="0"/><rect fill="#000000" height="511.5902" style="stroke:#E7E7E7;stroke-width:1.0;" width="10" x="195" y="117.7739"/><rect fill="#000000" height="413.0602" style="stroke:#E7E7E7;stroke-width:1.0;" width="10" x="195" y="696.4822"/><rect fill="#000000" height="64.706" style="stroke:#E7E7E7;stroke-width:1.0;" width="10" x="452" y="149.4799"/><rect fill="#000000" height="331.0602" style="stroke:#E7E7E7;stroke-width:1.0;" width="10" x="452" y="266.598"/><rect fill="#000000" height="349.6481" style="stroke:#E7E7E7;stroke-width:1.0;" width="10" x="452" y="728.1882"/><rect fill="#000000" height="30" style="stroke:#E7E7E7;stroke-width:1.0;" width="10" x="669" y="184.186"/><rect fill="#000000" height="30" style="stroke:#E7E7E7;stroke-width:1.0;" width="10" x="669" y="1016.1304"/><rect fill="#000000" height="117.118" style="stroke:#E7E7E7;stroke-width:1.0;" width="10" x="829" y="298.304"/><rect fill="#000000" height="30" style="stroke:#E7E7E7;stroke-width:1.0;" width="10" x="929.5" y="341.863"/><rect fill="#000000" height="31.706" style="stroke:#E7E7E7;stroke-width:1.0;" width="10" x="1039.5" y="759.8943"/><rect fill="#000000" height="161.118" style="stroke:#E7E7E7;stroke-width:1.0;" width="10" x="1197.5" y="823.3063"/><rect fill="#000000" height="30" style="stroke:#E7E7E7;stroke-width:1.0;" width="10" x="1441.5" y="855.0123"/><rect fill="#000000" height="30" style="stroke:#E7E7E7;stroke-width:1.0;" width="10" x="1661.5" y="919.7183"/><rect fill="#000000" height="31.706" style="stroke:#E7E7E7;stroke-width:1.0;" width="10" x="1834" y="447.1281"/><rect fill="#000000" height="43.559" style="stroke:#E7E7E7;stroke-width:1.0;" width="10" x="2050.5" y="522.3931"/><line style="stroke:#E7E7E7;stroke-width:0.5;stroke-dasharray:5.0,5.0;" x1="35" x2="35" y1="84.0679" y2="1127.5424"/><line style="stroke:#E7E7E7;stroke-width:0.5;stroke-dasharray:5.0,5.0;" x1="199.5" x2="199.5" y1="84.0679" y2="1127.5424"/><line style="stroke:#E7E7E7;stroke-width:0.5;stroke-dasharray:5.0,5.0;" x1="456.5" x2="456.5" y1="84.0679" y2="1127.5424"/><line style="stroke:#E7E7E7;stroke-width:0.5;stroke-dasharray:5.0,5.0;" x1="673.5" x2="673.5" y1="84.0679" y2="1127.5424"/><line style="stroke:#E7E7E7;stroke-width:0.5;stroke-dasharray:5.0,5.0;" x1="833.5" x2="833.5" y1="84.0679" y2="1127.5424"/><line style="stroke:#E7E7E7;stroke-width:0.5;stroke-dasharray:5.0,5.0;" x1="934.5" x2="934.5" y1="84.0679" y2="1127.5424"/><line style="stroke:#E7E7E7;stroke-width:0.5;stroke-dasharray:5.0,5.0;" x1="1044.5" x2="1044.5" y1="84.0679" y2="1127.5424"/><line style="stroke:#E7E7E7;stroke-width:0.5;stroke-dasharray:5.0,5.0;" x1="1202.5" x2="1202.5" y1="84.0679" y2="1127.5424"/><line style="stroke:#E7E7E7;stroke-width:0.5;stroke-dasharray:5.0,5.0;" x1="1446.5" x2="1446.5" y1="84.0679" y2="1127.5424"/><line style="stroke:#E7E7E7;stroke-width:0.5;stroke-dasharray:5.0,5.0;" x1="1666.5" x2="1666.5" y1="84.0679" y2="1127.5424"/><line style="stroke:#E7E7E7;stroke-width:0.5;stroke-dasharray:5.0,5.0;" x1="1838.5" x2="1838.5" y1="84.0679" y2="1127.5424"/><line style="stroke:#E7E7E7;stroke-width:0.5;stroke-dasharray:5.0,5.0;" x1="2055.5" x2="2055.5" y1="84.0679" y2="1127.5424"/><text fill="#FFFFFF" font-family="sans-serif" font-size="14" lengthAdjust="spacing" textLength="54" x="5" y="79.9659">Teacher</text><ellipse cx="35" cy="13.5" fill="#222222" rx="8" ry="8" style="stroke:#E7E7E7;stroke-width:0.5;"/><path d="M35,21.5 L35,48.5 M22,29.5 L48,29.5 M35,48.5 L22,63.5 M35,48.5 L48,63.5 " fill="none" style="stroke:#E7E7E7;stroke-width:0.5;"/><text fill="#FFFFFF" font-family="sans-serif" font-size="14" lengthAdjust="spacing" textLength="54" x="5" y="1141.5083">Teacher</text><ellipse cx="35" cy="1154.1103" fill="#222222" rx="8" ry="8" style="stroke:#E7E7E7;stroke-width:0.5;"/><path d="M35,1162.1103 L35,1189.1103 M22,1170.1103 L48,1170.1103 M35,1189.1103 L22,1204.1103 M35,1189.1103 L48,1204.1103 " fill="none" style="stroke:#E7E7E7;stroke-width:0.5;"/><rect fill="#222222" height="33.0679" rx="2.5" ry="2.5" style="stroke:#E7E7E7;stroke-width:0.5;" width="175" x="112.5" y="50"/><text fill="#FFFFFF" font-family="sans-serif" font-size="14" lengthAdjust="spacing" textLength="161" x="119.5" y="71.9659">CreateFormativeExamUI</text><rect fill="#222222" height="33.0679" rx="2.5" ry="2.5" style="stroke:#E7E7E7;stroke-width:0.5;" width="175" x="112.5" y="1126.5424"/><text fill="#FFFFFF" font-family="sans-serif" font-size="14" lengthAdjust="spacing" textLength="161" x="119.5" y="1148.5083">CreateFormativeExamUI</text><rect fill="#222222" height="33.0679" rx="2.5" ry="2.5" style="stroke:#E7E7E7;stroke-width:0.5;" width="227" x="343.5" y="50"/><text fill="#FFFFFF" font-family="sans-serif" font-size="14" lengthAdjust="spacing" textLength="213" x="350.5" y="71.9659">CreateFormativeExamController</text><rect fill="#222222" height="33.0679" rx="2.5" ry="2.5" style="stroke:#E7E7E7;stroke-width:0.5;" width="227" x="343.5" y="1126.5424"/><text fill="#FFFFFF" font-family="sans-serif" font-size="14" lengthAdjust="spacing" textLength="213" x="350.5" y="1148.5083">CreateFormativeExamController</text><rect fill="#222222" height="33.0679" rx="2.5" ry="2.5" style="stroke:#E7E7E7;stroke-width:0.5;" width="187" x="580.5" y="50"/><text fill="#FFFFFF" font-family="sans-serif" font-size="14" lengthAdjust="spacing" textLength="173" x="587.5" y="71.9659">FormativeExamRepository</text><rect fill="#222222" height="33.0679" rx="2.5" ry="2.5" style="stroke:#E7E7E7;stroke-width:0.5;" width="187" x="580.5" y="1126.5424"/><text fill="#FFFFFF" font-family="sans-serif" font-size="14" lengthAdjust="spacing" textLength="173" x="587.5" y="1148.5083">FormativeExamRepository</text><rect fill="#222222" height="33.0679" rx="2.5" ry="2.5" style="stroke:#E7E7E7;stroke-width:0.5;" width="113" x="777.5" y="50"/><text fill="#FFFFFF" font-family="sans-serif" font-size="14" lengthAdjust="spacing" textLength="99" x="784.5" y="71.9659">MyUserService</text><rect fill="#222222" height="33.0679" rx="2.5" ry="2.5" style="stroke:#E7E7E7;stroke-width:0.5;" width="113" x="777.5" y="1126.5424"/><text fill="#FFFFFF" font-family="sans-serif" font-size="14" lengthAdjust="spacing" textLength="99" x="784.5" y="1148.5083">MyUserService</text><rect fill="#222222" height="33.0679" rx="2.5" ry="2.5" style="stroke:#E7E7E7;stroke-width:0.5;" width="68" x="900.5" y="50"/><text fill="#FFFFFF" font-family="sans-serif" font-size="14" lengthAdjust="spacing" textLength="54" x="907.5" y="71.9659">Teacher</text><rect fill="#222222" height="33.0679" rx="2.5" ry="2.5" style="stroke:#E7E7E7;stroke-width:0.5;" width="68" x="900.5" y="1126.5424"/><text fill="#FFFFFF" font-family="sans-serif" font-size="14" lengthAdjust="spacing" textLength="54" x="907.5" y="1148.5083">Teacher</text><rect fill="#222222" height="33.0679" rx="2.5" ry="2.5" style="stroke:#E7E7E7;stroke-width:0.5;" width="132" x="978.5" y="50"/><text fill="#FFFFFF" font-family="sans-serif" font-size="14" lengthAdjust="spacing" textLength="118" x="985.5" y="71.9659">CourseRepository</text><rect fill="#222222" height="33.0679" rx="2.5" ry="2.5" style="stroke:#E7E7E7;stroke-width:0.5;" width="132" x="978.5" y="1126.5424"/><text fill="#FFFFFF" font-family="sans-serif" font-size="14" lengthAdjust="spacing" textLength="118" x="985.5" y="1148.5083">CourseRepository</text><rect fill="#222222" height="33.0679" rx="2.5" ry="2.5" style="stroke:#E7E7E7;stroke-width:0.5;" width="164" x="1120.5" y="50"/><text fill="#FFFFFF" font-family="sans-serif" font-size="14" lengthAdjust="spacing" textLength="150" x="1127.5" y="71.9659">FormativeExamFactory</text><rect fill="#222222" height="33.0679" rx="2.5" ry="2.5" style="stroke:#E7E7E7;stroke-width:0.5;" width="164" x="1120.5" y="1126.5424"/><text fill="#FFFFFF" font-family="sans-serif" font-size="14" lengthAdjust="spacing" textLength="150" x="1127.5" y="1148.5083">FormativeExamFactory</text><rect fill="#222222" height="33.0679" rx="2.5" ry="2.5" style="stroke:#E7E7E7;stroke-width:0.5;" width="304" x="1294.5" y="50"/><text fill="#FFFFFF" font-family="sans-serif" font-size="14" lengthAdjust="spacing" textLength="290" x="1301.5" y="71.9659">ValidateFormativeExamSpecificationService</text><rect fill="#222222" height="33.0679" rx="2.5" ry="2.5" style="stroke:#E7E7E7;stroke-width:0.5;" width="304" x="1294.5" y="1126.5424"/><text fill="#FFFFFF" font-family="sans-serif" font-size="14" lengthAdjust="spacing" textLength="290" x="1301.5" y="1148.5083">ValidateFormativeExamSpecificationService</text><rect fill="#222222" height="33.0679" rx="2.5" ry="2.5" style="stroke:#E7E7E7;stroke-width:0.5;" width="116" x="1608.5" y="50"/><text fill="#FFFFFF" font-family="sans-serif" font-size="14" lengthAdjust="spacing" textLength="102" x="1615.5" y="71.9659">FormativeExam</text><rect fill="#222222" height="33.0679" rx="2.5" ry="2.5" style="stroke:#E7E7E7;stroke-width:0.5;" width="116" x="1608.5" y="1126.5424"/><text fill="#FFFFFF" font-family="sans-serif" font-size="14" lengthAdjust="spacing" textLength="102" x="1615.5" y="1148.5083">FormativeExam</text><rect fill="#222222" height="33.0679" rx="2.5" ry="2.5" style="stroke:#E7E7E7;stroke-width:0.5;" width="209" x="1734.5" y="50"/><text fill="#FFFFFF" font-family="sans-serif" font-size="14" lengthAdjust="spacing" textLength="195" x="1741.5" y="71.9659">StaffMemberExamRepository</text><rect fill="#222222" height="33.0679" rx="2.5" ry="2.5" style="stroke:#E7E7E7;stroke-width:0.5;" width="209" x="1734.5" y="1126.5424"/><text fill="#FFFFFF" font-family="sans-serif" font-size="14" lengthAdjust="spacing" textLength="195" x="1741.5" y="1148.5083">StaffMemberExamRepository</text><rect fill="#222222" height="33.0679" rx="2.5" ry="2.5" style="stroke:#E7E7E7;stroke-width:0.5;" width="204" x="1953.5" y="50"/><text fill="#FFFFFF" font-family="sans-serif" font-size="14" lengthAdjust="spacing" textLength="190" x="1960.5" y="71.9659">AvailableCourseDTOMapper</text><rect fill="#222222" height="33.0679" rx="2.5" ry="2.5" style="stroke:#E7E7E7;stroke-width:0.5;" width="204" x="1953.5" y="1126.5424"/><text fill="#FFFFFF" font-family="sans-serif" font-size="14" lengthAdjust="spacing" textLength="190" x="1960.5" y="1148.5083">AvailableCourseDTOMapper</text><rect fill="#000000" height="511.5902" style="stroke:#E7E7E7;stroke-width:1.0;" width="10" x="195" y="117.7739"/><rect fill="#000000" height="413.0602" style="stroke:#E7E7E7;stroke-width:1.0;" width="10" x="195" y="696.4822"/><rect fill="#000000" height="64.706" style="stroke:#E7E7E7;stroke-width:1.0;" width="10" x="452" y="149.4799"/><rect fill="#000000" height="331.0602" style="stroke:#E7E7E7;stroke-width:1.0;" width="10" x="452" y="266.598"/><rect fill="#000000" height="349.6481" style="stroke:#E7E7E7;stroke-width:1.0;" width="10" x="452" y="728.1882"/><rect fill="#000000" height="30" style="stroke:#E7E7E7;stroke-width:1.0;" width="10" x="669" y="184.186"/><rect fill="#000000" height="30" style="stroke:#E7E7E7;stroke-width:1.0;" width="10" x="669" y="1016.1304"/><rect fill="#000000" height="117.118" style="stroke:#E7E7E7;stroke-width:1.0;" width="10" x="829" y="298.304"/><rect fill="#000000" height="30" style="stroke:#E7E7E7;stroke-width:1.0;" width="10" x="929.5" y="341.863"/><rect fill="#000000" height="31.706" style="stroke:#E7E7E7;stroke-width:1.0;" width="10" x="1039.5" y="759.8943"/><rect fill="#000000" height="161.118" style="stroke:#E7E7E7;stroke-width:1.0;" width="10" x="1197.5" y="823.3063"/><rect fill="#000000" height="30" style="stroke:#E7E7E7;stroke-width:1.0;" width="10" x="1441.5" y="855.0123"/><rect fill="#000000" height="30" style="stroke:#E7E7E7;stroke-width:1.0;" width="10" x="1661.5" y="919.7183"/><rect fill="#000000" height="31.706" style="stroke:#E7E7E7;stroke-width:1.0;" width="10" x="1834" y="447.1281"/><rect fill="#000000" height="43.559" style="stroke:#E7E7E7;stroke-width:1.0;" width="10" x="2050.5" y="522.3931"/><polygon fill="#E7E7E7" points="183,113.7739,193,117.7739,183,121.7739,187,117.7739" style="stroke:#E7E7E7;stroke-width:1.0;"/><line style="stroke:#E7E7E7;stroke-width:1.0;stroke-dasharray:2.0,2.0;" x1="35" x2="189" y1="117.7739" y2="117.7739"/><text fill="#FFFFFF" font-family="sans-serif" font-size="13" lengthAdjust="spacing" textLength="32" x="42" y="111.9649">enter</text><polygon fill="#E7E7E7" points="440,145.4799,450,149.4799,440,153.4799,444,149.4799" style="stroke:#E7E7E7;stroke-width:1.0;"/><line style="stroke:#E7E7E7;stroke-width:1.0;stroke-dasharray:2.0,2.0;" x1="205" x2="446" y1="149.4799" y2="149.4799"/><text fill="#FFFFFF" font-family="sans-serif" font-size="13" lengthAdjust="spacing" textLength="45" x="212" y="143.6709">create()</text><polygon fill="#E7E7E7" points="657,180.186,667,184.186,657,188.186,661,184.186" style="stroke:#E7E7E7;stroke-width:1.0;"/><line style="stroke:#E7E7E7;stroke-width:1.0;stroke-dasharray:2.0,2.0;" x1="462" x2="663" y1="184.186" y2="184.186"/><path d="M684,162.4799 L684,207.4799 L903,207.4799 L903,172.4799 L893,162.4799 L684,162.4799 " fill="#714137" style="stroke:#E7E7E7;stroke-width:0.5;"/><path d="M893,162.4799 L893,172.4799 L903,172.4799 L893,162.4799 " fill="#714137" style="stroke:#E7E7E7;stroke-width:0.5;"/><text fill="#FFFFFF" font-family="sans-serif" font-size="13" lengthAdjust="spacing" textLength="151" x="690" y="181.377">repository is retrieved via</text><text fill="#FFFFFF" font-family="sans-serif" font-size="13" lengthAdjust="spacing" textLength="198" x="690" y="199.083">PersistenceContext.repositories()</text><polygon fill="#E7E7E7" points="440,262.598,450,266.598,440,270.598,444,266.598" style="stroke:#E7E7E7;stroke-width:1.0;"/><line style="stroke:#E7E7E7;stroke-width:1.0;stroke-dasharray:2.0,2.0;" x1="205" x2="446" y1="266.598" y2="266.598"/><text fill="#FFFFFF" font-family="sans-serif" font-size="13" lengthAdjust="spacing" textLength="54" x="212" y="260.789">courses()</text><polygon fill="#E7E7E7" points="817,294.304,827,298.304,817,302.304,821,298.304" style="stroke:#E7E7E7;stroke-width:1.0;"/><line style="stroke:#E7E7E7;stroke-width:1.0;stroke-dasharray:2.0,2.0;" x1="462" x2="823" y1="298.304" y2="298.304"/><text fill="#FFFFFF" font-family="sans-serif" font-size="13" lengthAdjust="spacing" textLength="99" x="469" y="292.495">currentTeacher()</text><polygon fill="#E7E7E7" points="917.5,337.863,927.5,341.863,917.5,345.863,921.5,341.863" style="stroke:#E7E7E7;stroke-width:1.0;"/><line style="stroke:#E7E7E7;stroke-width:1.0;stroke-dasharray:2.0,2.0;" x1="839" x2="923.5" y1="341.863" y2="341.863"/><text fill="#FFFFFF" font-family="sans-serif" font-size="13" lengthAdjust="spacing" textLength="28" x="846" y="336.054">get()</text><path d="M944,311.304 L944,356.304 L1187,356.304 L1187,321.304 L1177,311.304 L944,311.304 " fill="#714137" style="stroke:#E7E7E7;stroke-width:0.5;"/><path d="M1177,311.304 L1177,321.304 L1187,321.304 L1177,311.304 " fill="#714137" style="stroke:#E7E7E7;stroke-width:0.5;"/><text fill="#FFFFFF" font-family="sans-serif" font-size="13" lengthAdjust="spacing" textLength="222" x="950" y="330.201">teacher obtained via the framework's</text><text fill="#FFFFFF" font-family="sans-serif" font-size="13" lengthAdjust="spacing" textLength="213" x="950" y="347.907">Authz package + TeacherRepository</text><polygon fill="#E7E7E7" points="473,411.4221,463,415.4221,473,419.4221,469,415.4221" style="stroke:#E7E7E7;stroke-width:1.0;"/><line style="stroke:#E7E7E7;stroke-width:1.0;stroke-dasharray:2.0,2.0;" x1="467" x2="833" y1="415.4221" y2="415.4221"/><text fill="#FFFFFF" font-family="sans-serif" font-size="13" lengthAdjust="spacing" textLength="45" x="479" y="409.6131">teacher</text><polygon fill="#E7E7E7" points="1822,443.1281,1832,447.1281,1822,451.1281,1826,447.1281" style="stroke:#E7E7E7;stroke-width:1.0;"/><line style="stroke:#E7E7E7;stroke-width:1.0;stroke-dasharray:2.0,2.0;" x1="462" x2="1828" y1="447.1281" y2="447.1281"/><text fill="#FFFFFF" font-family="sans-serif" font-size="13" lengthAdjust="spacing" textLength="199" x="469" y="441.3191">nonClosedAndTaughtBy(teacher)</text><polygon fill="#E7E7E7" points="473,474.8341,463,478.8341,473,482.8341,469,478.8341" style="stroke:#E7E7E7;stroke-width:1.0;"/><line style="stroke:#E7E7E7;stroke-width:1.0;stroke-dasharray:2.0,2.0;" x1="467" x2="1838" y1="478.8341" y2="478.8341"/><text fill="#FFFFFF" font-family="sans-serif" font-size="13" lengthAdjust="spacing" textLength="46" x="479" y="473.0251">courses</text><polygon fill="#E7E7E7" points="2038.5,518.3931,2048.5,522.3931,2038.5,526.3931,2042.5,522.3931" style="stroke:#E7E7E7;stroke-width:1.0;"/><line style="stroke:#E7E7E7;stroke-width:1.0;stroke-dasharray:2.0,2.0;" x1="462" x2="2044.5" y1="522.3931" y2="522.3931"/><text fill="#FFFFFF" font-family="sans-serif" font-size="13" lengthAdjust="spacing" textLength="93" x="469" y="516.5841">toDTO(courses)</text><path d="M2065,491.8341 L2065,536.8341 L2247,536.8341 L2247,501.8341 L2237,491.8341 L2065,491.8341 " fill="#714137" style="stroke:#E7E7E7;stroke-width:0.5;"/><path d="M2237,491.8341 L2237,501.8341 L2247,501.8341 L2237,491.8341 " fill="#714137" style="stroke:#E7E7E7;stroke-width:0.5;"/><text fill="#FFFFFF" font-family="sans-serif" font-size="13" lengthAdjust="spacing" textLength="161" x="2071" y="510.7311">create AvailableCourseDTO</text><text fill="#FFFFFF" font-family="sans-serif" font-size="13" lengthAdjust="spacing" textLength="49" x="2071" y="528.4371">from list</text><polygon fill="#E7E7E7" points="473,561.9521,463,565.9521,473,569.9521,469,565.9521" style="stroke:#E7E7E7;stroke-width:1.0;"/><line style="stroke:#E7E7E7;stroke-width:1.0;stroke-dasharray:2.0,2.0;" x1="467" x2="2054.5" y1="565.9521" y2="565.9521"/><text fill="#FFFFFF" font-family="sans-serif" font-size="13" lengthAdjust="spacing" textLength="87" x="479" y="560.1431">courseDTOList</text><polygon fill="#E7E7E7" points="216,593.6582,206,597.6582,216,601.6582,212,597.6582" style="stroke:#E7E7E7;stroke-width:1.0;"/><line style="stroke:#E7E7E7;stroke-width:1.0;stroke-dasharray:2.0,2.0;" x1="210" x2="456" y1="597.6582" y2="597.6582"/><text fill="#FFFFFF" font-family="sans-serif" font-size="13" lengthAdjust="spacing" textLength="87" x="222" y="591.8492">courseDTOList</text><polygon fill="#E7E7E7" points="46,625.3642,36,629.3642,46,633.3642,42,629.3642" style="stroke:#E7E7E7;stroke-width:1.0;"/><line style="stroke:#E7E7E7;stroke-width:1.0;stroke-dasharray:2.0,2.0;" x1="40" x2="199" y1="629.3642" y2="629.3642"/><text fill="#FFFFFF" font-family="sans-serif" font-size="13" lengthAdjust="spacing" textLength="136" x="52" y="623.5552">show available courses</text><polygon fill="#E7E7E7" points="183,692.4822,193,696.4822,183,700.4822,187,696.4822" style="stroke:#E7E7E7;stroke-width:1.0;"/><line style="stroke:#E7E7E7;stroke-width:1.0;stroke-dasharray:2.0,2.0;" x1="35" x2="189" y1="696.4822" y2="696.4822"/><text fill="#FFFFFF" font-family="sans-serif" font-size="13" lengthAdjust="spacing" textLength="103" x="42" y="655.2612">select course and</text><text fill="#FFFFFF" font-family="sans-serif" font-size="13" lengthAdjust="spacing" textLength="104" x="42" y="672.9672">type specification</text><text fill="#FFFFFF" font-family="sans-serif" font-size="13" lengthAdjust="spacing" textLength="48" x="42" y="690.6732">file path</text><polygon fill="#E7E7E7" points="440,724.1882,450,728.1882,440,732.1882,444,728.1882" style="stroke:#E7E7E7;stroke-width:1.0;"/><line style="stroke:#E7E7E7;stroke-width:1.0;stroke-dasharray:2.0,2.0;" x1="205" x2="446" y1="728.1882" y2="728.1882"/><text fill="#FFFFFF" font-family="sans-serif" font-size="13" lengthAdjust="spacing" textLength="228" x="212" y="722.3792">createFormativeExam(courseDTO, file)</text><polygon fill="#E7E7E7" points="1027.5,755.8943,1037.5,759.8943,1027.5,763.8943,1031.5,759.8943" style="stroke:#E7E7E7;stroke-width:1.0;"/><line style="stroke:#E7E7E7;stroke-width:1.0;stroke-dasharray:2.0,2.0;" x1="462" x2="1033.5" y1="759.8943" y2="759.8943"/><text fill="#FFFFFF" font-family="sans-serif" font-size="13" lengthAdjust="spacing" textLength="188" x="469" y="754.0853">ofIdentity(courseDTO.courseId)</text><polygon fill="#E7E7E7" points="473,787.6003,463,791.6003,473,795.6003,469,791.6003" style="stroke:#E7E7E7;stroke-width:1.0;"/><line style="stroke:#E7E7E7;stroke-width:1.0;stroke-dasharray:2.0,2.0;" x1="467" x2="1043.5" y1="791.6003" y2="791.6003"/><text fill="#FFFFFF" font-family="sans-serif" font-size="13" lengthAdjust="spacing" textLength="40" x="479" y="785.7913">course</text><polygon fill="#E7E7E7" points="1185.5,819.3063,1195.5,823.3063,1185.5,827.3063,1189.5,823.3063" style="stroke:#E7E7E7;stroke-width:1.0;"/><line style="stroke:#E7E7E7;stroke-width:1.0;stroke-dasharray:2.0,2.0;" x1="462" x2="1191.5" y1="823.3063" y2="823.3063"/><text fill="#FFFFFF" font-family="sans-serif" font-size="13" lengthAdjust="spacing" textLength="101" x="469" y="817.4973">build(course, file)</text><polygon fill="#E7E7E7" points="1429.5,851.0123,1439.5,855.0123,1429.5,859.0123,1433.5,855.0123" style="stroke:#E7E7E7;stroke-width:1.0;"/><line style="stroke:#E7E7E7;stroke-width:1.0;stroke-dasharray:2.0,2.0;" x1="1207.5" x2="1435.5" y1="855.0123" y2="855.0123"/><text fill="#FFFFFF" font-family="sans-serif" font-size="13" lengthAdjust="spacing" textLength="72" x="1214.5" y="849.2033">validate(file)</text><polygon fill="#E7E7E7" points="1649.5,915.7183,1659.5,919.7183,1649.5,923.7183,1653.5,919.7183" style="stroke:#E7E7E7;stroke-width:1.0;"/><line style="stroke:#E7E7E7;stroke-width:1.0;stroke-dasharray:2.0,2.0;" x1="1207.5" x2="1655.5" y1="919.7183" y2="919.7183"/><text fill="#FFFFFF" font-family="sans-serif" font-size="13" lengthAdjust="spacing" textLength="165" x="1214.5" y="913.9093">create(course, specification)</text><path d="M1015,898.0123 L1015,925.0123 L1192,925.0123 L1192,908.0123 L1182,898.0123 L1015,898.0123 " fill="#714137" style="stroke:#E7E7E7;stroke-width:0.5;"/><path d="M1182,898.0123 L1182,908.0123 L1192,908.0123 L1182,898.0123 " fill="#714137" style="stroke:#E7E7E7;stroke-width:0.5;"/><text fill="#FFFFFF" font-family="sans-serif" font-size="13" lengthAdjust="spacing" textLength="156" x="1021" y="916.9093">specification read from file</text><polygon fill="#E7E7E7" points="473,980.4243,463,984.4243,473,988.4243,469,984.4243" style="stroke:#E7E7E7;stroke-width:1.0;"/><line style="stroke:#E7E7E7;stroke-width:1.0;stroke-dasharray:2.0,2.0;" x1="467" x2="1201.5" y1="984.4243" y2="984.4243"/><text fill="#FFFFFF" font-family="sans-serif" font-size="13" lengthAdjust="spacing" textLength="33" x="479" y="978.6153">exam</text><polygon fill="#E7E7E7" points="657,1012.1304,667,1016.1304,657,1020.1304,661,1016.1304" style="stroke:#E7E7E7;stroke-width:1.0;"/><line style="stroke:#E7E7E7;stroke-width:1.0;stroke-dasharray:2.0,2.0;" x1="462" x2="663" y1="1016.1304" y2="1016.1304"/><text fill="#FFFFFF" font-family="sans-serif" font-size="13" lengthAdjust="spacing" textLength="68" x="469" y="1010.3214">save(exam)</text><polygon fill="#E7E7E7" points="216,1073.8364,206,1077.8364,216,1081.8364,212,1077.8364" style="stroke:#E7E7E7;stroke-width:1.0;"/><line style="stroke:#E7E7E7;stroke-width:1.0;stroke-dasharray:2.0,2.0;" x1="210" x2="456" y1="1077.8364" y2="1077.8364"/><text fill="#FFFFFF" font-family="sans-serif" font-size="13" lengthAdjust="spacing" textLength="45" x="222" y="1072.0274">success</text><polygon fill="#E7E7E7" points="46,1105.5424,36,1109.5424,46,1113.5424,42,1109.5424" style="stroke:#E7E7E7;stroke-width:1.0;"/><line style="stroke:#E7E7E7;stroke-width:1.0;stroke-dasharray:2.0,2.0;" x1="40" x2="199" y1="1109.5424" y2="1109.5424"/><text fill="#FFFFFF" font-family="sans-serif" font-size="13" lengthAdjust="spacing" textLength="86" x="52" y="1103.7334">report success</text><!--SRC=[bLPDRzim3BtdL-YM55lx0teOq6KhK635Fjhj5A1GPBeHQakU9BlDVlqeMN8aI-uw7nB79XyVAJuob1cfo3rGTW15g2Qz1hNgg3ASyOuAGxOAg85hgLfg-02VNsZxyyPPyd_PRQKmIZRDYCoCQbQ9IsBy0pgfER8vMcE5lrBZs-DFf7O7Qk0C0jC7FR34Aih4ZBSfobRsIaCQYptaqH9grvG5snfl4yDVjE7LFF6x3XYlESC7KaIKBTlbCDO2y7kLsjmPMjUtqEv1vNNIRO7yrK1vG_SDZDb-klzwIxjkh4hhxbPhyhg3DQqCuiuilu7IN1iG3EpfmeiPZ_PbPdTY6HKFcJvW0UUOttlGjb1fPhzzOYjxpkJy_0Cst2K1Z8b7YfXymAhR9bmHl7hkJ6oFaKl2N2zkpjohoTOr8F6NixGkBafuAYJQAVvuC8YYJdou9MyKXm4gCd2w4taXBYPx3jh7Jk8daIh8dqVFHh4KCdC7fD-MMb28zUkLmjfvUPJOJN8YqJKXM3WlA4Hx11D19311TV7BAA_IwwJe8OZS6yh5M6rY3a1gHLjubkffhNVYgZU7FzX4x8a-0daNP7_geEKiV27dH2AEKoNoYdgveR-GOjj83TMLgEvfZ-G_7ZSUj53TeDEOLW3BZxV4Qb9wHcgKjCr9ed8t7kEitDIZD0gAtubQoPOqsDGvVJyrOlO-QaOUeRx4654ACvIr-soax4YDIyZMpcCGBh9Ih4kHSKJDvPxQJh7jCCjVH-Ho0n2LOrSeEOgobEzh0dPZx9BeWtmcD5H_oZ9kFvxCFEi33J0JQaD5jHFcs65Bn6i6puyZO4VD8PsFI-CnsJsRAPdtnEAyQRwm80PPtrGuNRWvdd0knhkRgg06bek1BMYXr4TiIGbsEwFdlkTDvPd4wIGSt2QF6JXd9t8tCGU_s3UfVwhgsRYCvHhFZmJUhlXJqmQMoLcUvVEnWTgcbfZXvg0LSRAr9CiStJ-A1PBZluqYIty8YNVawQfNNgQM9HrWOrt_TmikA4ttZ87MRzMOXL9cyagrzHS0]--></g></svg>