<?xml version="1.0" encoding="us-ascii" standalone="no"?><svg xmlns="http://www.w3.org/2000/svg" xmlns:xlink="http://www.w3.org/1999/xlink" contentStyleType="text/css" height="1397px" preserveAspectRatio="none" style="width:2508px;height:1397px;background:#1B1B1B;" version="1.1" viewBox="0 0 2508 1397" width="2508px" zoomAndPan="magnify"><defs/><g><rect fill="#1B1B1B" height="1397" style="stroke:none;stroke-width:1.0;" width="2508" x="0" y="0"/><rect fill="#000000" height="511.5902" style="stroke:#E7E7E7;stroke-width:1.0;" width="10" x="195" y="117.7739"/><rect fill="#000000" height="599.8842" style="stroke:#E7E7E7;stroke-width:1.0;" width="10" x="195" y="696.4822"/><rect fill="#000000" height="64.706" style="stroke:#E7E7E7;stroke-width:1.0;" width="10" x="452" y="149.4799"/><rect fill="#000000" height="331.0602" style="stroke:#E7E7E7;stroke-width:1.0;" width="10" x="452" y="266.598"/><rect fill="#000000" height="536.4722" style="stroke:#E7E7E7;stroke-width:1.0;" width="10" x="452" y="728.1882"/><rect fill="#000000" height="30" style="stroke:#E7E7E7;stroke-width:1.0;" width="10" x="669" y="184.186"/><rect fill="#000000" height="30" style="stroke:#E7E7E7;stroke-width:1.0;" width="10" x="669" y="1202.9544"/><rect fill="#000000" height="117.118" style="stroke:#E7E7E7;stroke-width:1.0;" width="10" x="829" y="298.304"/><rect fill="#000000" height="30" style="stroke:#E7E7E7;stroke-width:1.0;" width="10" x="929.5" y="341.863"/><rect fill="#000000" height="31.706" style="stroke:#E7E7E7;stroke-width:1.0;" width="10" x="1039.5" y="759.8943"/><rect fill="#000000" height="93.412" style="stroke:#E7E7E7;stroke-width:1.0;" width="10" x="1180" y="823.3063"/><rect fill="#000000" height="61.706" style="stroke:#E7E7E7;stroke-width:1.0;" width="10" x="1362" y="855.0123"/><rect fill="#000000" height="30" style="stroke:#E7E7E7;stroke-width:1.0;" width="10" x="1531" y="948.4243"/><rect fill="#000000" height="161.118" style="stroke:#E7E7E7;stroke-width:1.0;" width="10" x="1531" y="1010.1304"/><rect fill="#000000" height="30" style="stroke:#E7E7E7;stroke-width:1.0;" width="10" x="1735" y="886.7183"/><rect fill="#000000" height="30" style="stroke:#E7E7E7;stroke-width:1.0;" width="10" x="1735" y="1041.8364"/><rect fill="#000000" height="30" style="stroke:#E7E7E7;stroke-width:1.0;" width="10" x="1915" y="1106.5424"/><rect fill="#000000" height="31.706" style="stroke:#E7E7E7;stroke-width:1.0;" width="10" x="2087.5" y="447.1281"/><rect fill="#000000" height="43.559" style="stroke:#E7E7E7;stroke-width:1.0;" width="10" x="2304" y="522.3931"/><line style="stroke:#E7E7E7;stroke-width:0.5;stroke-dasharray:5.0,5.0;" x1="35" x2="35" y1="84.0679" y2="1314.3665"/><line style="stroke:#E7E7E7;stroke-width:0.5;stroke-dasharray:5.0,5.0;" x1="199.5" x2="199.5" y1="84.0679" y2="1314.3665"/><line style="stroke:#E7E7E7;stroke-width:0.5;stroke-dasharray:5.0,5.0;" x1="456.5" x2="456.5" y1="84.0679" y2="1314.3665"/><line style="stroke:#E7E7E7;stroke-width:0.5;stroke-dasharray:5.0,5.0;" x1="673.5" x2="673.5" y1="84.0679" y2="1314.3665"/><line style="stroke:#E7E7E7;stroke-width:0.5;stroke-dasharray:5.0,5.0;" x1="833.5" x2="833.5" y1="84.0679" y2="1314.3665"/><line style="stroke:#E7E7E7;stroke-width:0.5;stroke-dasharray:5.0,5.0;" x1="934.5" x2="934.5" y1="84.0679" y2="1314.3665"/><line style="stroke:#E7E7E7;stroke-width:0.5;stroke-dasharray:5.0,5.0;" x1="1044.5" x2="1044.5" y1="84.0679" y2="1314.3665"/><line style="stroke:#E7E7E7;stroke-width:0.5;stroke-dasharray:5.0,5.0;" x1="1184.5" x2="1184.5" y1="84.0679" y2="1314.3665"/><line style="stroke:#E7E7E7;stroke-width:0.5;stroke-dasharray:5.0,5.0;" x1="1367" x2="1367" y1="84.0679" y2="1314.3665"/><line style="stroke:#E7E7E7;stroke-width:0.5;stroke-dasharray:5.0,5.0;" x1="1536" x2="1536" y1="84.0679" y2="1314.3665"/><line style="stroke:#E7E7E7;stroke-width:0.5;stroke-dasharray:5.0,5.0;" x1="1740" x2="1740" y1="84.0679" y2="1314.3665"/><line style="stroke:#E7E7E7;stroke-width:0.5;stroke-dasharray:5.0,5.0;" x1="1920" x2="1920" y1="84.0679" y2="1314.3665"/><line style="stroke:#E7E7E7;stroke-width:0.5;stroke-dasharray:5.0,5.0;" x1="2092" x2="2092" y1="84.0679" y2="1314.3665"/><line style="stroke:#E7E7E7;stroke-width:0.5;stroke-dasharray:5.0,5.0;" x1="2309" x2="2309" y1="84.0679" y2="1314.3665"/><text fill="#FFFFFF" font-family="sans-serif" font-size="14" lengthAdjust="spacing" textLength="54" x="5" y="79.9659">Teacher</text><ellipse cx="35" cy="13.5" fill="#222222" rx="8" ry="8" style="stroke:#E7E7E7;stroke-width:0.5;"/><path d="M35,21.5 L35,48.5 M22,29.5 L48,29.5 M35,48.5 L22,63.5 M35,48.5 L48,63.5 " fill="none" style="stroke:#E7E7E7;stroke-width:0.5;"/><text fill="#FFFFFF" font-family="sans-serif" font-size="14" lengthAdjust="spacing" textLength="54" x="5" y="1328.3324">Teacher</text><ellipse cx="35" cy="1340.9344" fill="#222222" rx="8" ry="8" style="stroke:#E7E7E7;stroke-width:0.5;"/><path d="M35,1348.9344 L35,1375.9344 M22,1356.9344 L48,1356.9344 M35,1375.9344 L22,1390.9344 M35,1375.9344 L48,1390.9344 " fill="none" style="stroke:#E7E7E7;stroke-width:0.5;"/><rect fill="#222222" height="33.0679" rx="2.5" ry="2.5" style="stroke:#E7E7E7;stroke-width:0.5;" width="175" x="112.5" y="50"/><text fill="#FFFFFF" font-family="sans-serif" font-size="14" lengthAdjust="spacing" textLength="161" x="119.5" y="71.9659">CreateFormativeExamUI</text><rect fill="#222222" height="33.0679" rx="2.5" ry="2.5" style="stroke:#E7E7E7;stroke-width:0.5;" width="175" x="112.5" y="1313.3665"/><text fill="#FFFFFF" font-family="sans-serif" font-size="14" lengthAdjust="spacing" textLength="161" x="119.5" y="1335.3324">CreateFormativeExamUI</text><rect fill="#222222" height="33.0679" rx="2.5" ry="2.5" style="stroke:#E7E7E7;stroke-width:0.5;" width="227" x="343.5" y="50"/><text fill="#FFFFFF" font-family="sans-serif" font-size="14" lengthAdjust="spacing" textLength="213" x="350.5" y="71.9659">CreateFormativeExamController</text><rect fill="#222222" height="33.0679" rx="2.5" ry="2.5" style="stroke:#E7E7E7;stroke-width:0.5;" width="227" x="343.5" y="1313.3665"/><text fill="#FFFFFF" font-family="sans-serif" font-size="14" lengthAdjust="spacing" textLength="213" x="350.5" y="1335.3324">CreateFormativeExamController</text><rect fill="#222222" height="33.0679" rx="2.5" ry="2.5" style="stroke:#E7E7E7;stroke-width:0.5;" width="187" x="580.5" y="50"/><text fill="#FFFFFF" font-family="sans-serif" font-size="14" lengthAdjust="spacing" textLength="173" x="587.5" y="71.9659">FormativeExamRepository</text><rect fill="#222222" height="33.0679" rx="2.5" ry="2.5" style="stroke:#E7E7E7;stroke-width:0.5;" width="187" x="580.5" y="1313.3665"/><text fill="#FFFFFF" font-family="sans-serif" font-size="14" lengthAdjust="spacing" textLength="173" x="587.5" y="1335.3324">FormativeExamRepository</text><rect fill="#222222" height="33.0679" rx="2.5" ry="2.5" style="stroke:#E7E7E7;stroke-width:0.5;" width="113" x="777.5" y="50"/><text fill="#FFFFFF" font-family="sans-serif" font-size="14" lengthAdjust="spacing" textLength="99" x="784.5" y="71.9659">MyUserService</text><rect fill="#222222" height="33.0679" rx="2.5" ry="2.5" style="stroke:#E7E7E7;stroke-width:0.5;" width="113" x="777.5" y="1313.3665"/><text fill="#FFFFFF" font-family="sans-serif" font-size="14" lengthAdjust="spacing" textLength="99" x="784.5" y="1335.3324">MyUserService</text><rect fill="#222222" height="33.0679" rx="2.5" ry="2.5" style="stroke:#E7E7E7;stroke-width:0.5;" width="68" x="900.5" y="50"/><text fill="#FFFFFF" font-family="sans-serif" font-size="14" lengthAdjust="spacing" textLength="54" x="907.5" y="71.9659">Teacher</text><rect fill="#222222" height="33.0679" rx="2.5" ry="2.5" style="stroke:#E7E7E7;stroke-width:0.5;" width="68" x="900.5" y="1313.3665"/><text fill="#FFFFFF" font-family="sans-serif" font-size="14" lengthAdjust="spacing" textLength="54" x="907.5" y="1335.3324">Teacher</text><rect fill="#222222" height="33.0679" rx="2.5" ry="2.5" style="stroke:#E7E7E7;stroke-width:0.5;" width="132" x="978.5" y="50"/><text fill="#FFFFFF" font-family="sans-serif" font-size="14" lengthAdjust="spacing" textLength="118" x="985.5" y="71.9659">CourseRepository</text><rect fill="#222222" height="33.0679" rx="2.5" ry="2.5" style="stroke:#E7E7E7;stroke-width:0.5;" width="132" x="978.5" y="1313.3665"/><text fill="#FFFFFF" font-family="sans-serif" font-size="14" lengthAdjust="spacing" textLength="118" x="985.5" y="1335.3324">CourseRepository</text><rect fill="#222222" height="33.0679" rx="2.5" ry="2.5" style="stroke:#E7E7E7;stroke-width:0.5;" width="129" x="1120.5" y="50"/><text fill="#FFFFFF" font-family="sans-serif" font-size="14" lengthAdjust="spacing" textLength="115" x="1127.5" y="71.9659">GrammarContext</text><rect fill="#222222" height="33.0679" rx="2.5" ry="2.5" style="stroke:#E7E7E7;stroke-width:0.5;" width="129" x="1120.5" y="1313.3665"/><text fill="#FFFFFF" font-family="sans-serif" font-size="14" lengthAdjust="spacing" textLength="115" x="1127.5" y="1335.3324">GrammarContext</text><rect fill="#222222" height="33.0679" rx="2.5" ry="2.5" style="stroke:#E7E7E7;stroke-width:0.5;" width="154" x="1290" y="50"/><text fill="#FFFFFF" font-family="sans-serif" font-size="14" lengthAdjust="spacing" textLength="140" x="1297" y="71.9659">GrammarToolFactory</text><rect fill="#222222" height="33.0679" rx="2.5" ry="2.5" style="stroke:#E7E7E7;stroke-width:0.5;" width="154" x="1290" y="1313.3665"/><text fill="#FFFFFF" font-family="sans-serif" font-size="14" lengthAdjust="spacing" textLength="140" x="1297" y="1335.3324">GrammarToolFactory</text><rect fill="#222222" height="33.0679" rx="2.5" ry="2.5" style="stroke:#E7E7E7;stroke-width:0.5;" width="164" x="1454" y="50"/><text fill="#FFFFFF" font-family="sans-serif" font-size="14" lengthAdjust="spacing" textLength="150" x="1461" y="71.9659">FormativeExamFactory</text><rect fill="#222222" height="33.0679" rx="2.5" ry="2.5" style="stroke:#E7E7E7;stroke-width:0.5;" width="164" x="1454" y="1313.3665"/><text fill="#FFFFFF" font-family="sans-serif" font-size="14" lengthAdjust="spacing" textLength="150" x="1461" y="1335.3324">FormativeExamFactory</text><rect fill="#222222" height="33.0679" rx="2.5" ry="2.5" style="stroke:#E7E7E7;stroke-width:0.5;" width="224" x="1628" y="50"/><text fill="#FFFFFF" font-family="sans-serif" font-size="14" lengthAdjust="spacing" textLength="210" x="1635" y="71.9659">FormativeExamValidatorService</text><rect fill="#222222" height="33.0679" rx="2.5" ry="2.5" style="stroke:#E7E7E7;stroke-width:0.5;" width="224" x="1628" y="1313.3665"/><text fill="#FFFFFF" font-family="sans-serif" font-size="14" lengthAdjust="spacing" textLength="210" x="1635" y="1335.3324">FormativeExamValidatorService</text><rect fill="#222222" height="33.0679" rx="2.5" ry="2.5" style="stroke:#E7E7E7;stroke-width:0.5;" width="116" x="1862" y="50"/><text fill="#FFFFFF" font-family="sans-serif" font-size="14" lengthAdjust="spacing" textLength="102" x="1869" y="71.9659">FormativeExam</text><rect fill="#222222" height="33.0679" rx="2.5" ry="2.5" style="stroke:#E7E7E7;stroke-width:0.5;" width="116" x="1862" y="1313.3665"/><text fill="#FFFFFF" font-family="sans-serif" font-size="14" lengthAdjust="spacing" textLength="102" x="1869" y="1335.3324">FormativeExam</text><rect fill="#222222" height="33.0679" rx="2.5" ry="2.5" style="stroke:#E7E7E7;stroke-width:0.5;" width="209" x="1988" y="50"/><text fill="#FFFFFF" font-family="sans-serif" font-size="14" lengthAdjust="spacing" textLength="195" x="1995" y="71.9659">StaffMemberExamRepository</text><rect fill="#222222" height="33.0679" rx="2.5" ry="2.5" style="stroke:#E7E7E7;stroke-width:0.5;" width="209" x="1988" y="1313.3665"/><text fill="#FFFFFF" font-family="sans-serif" font-size="14" lengthAdjust="spacing" textLength="195" x="1995" y="1335.3324">StaffMemberExamRepository</text><rect fill="#222222" height="33.0679" rx="2.5" ry="2.5" style="stroke:#E7E7E7;stroke-width:0.5;" width="204" x="2207" y="50"/><text fill="#FFFFFF" font-family="sans-serif" font-size="14" lengthAdjust="spacing" textLength="190" x="2214" y="71.9659">AvailableCourseDTOMapper</text><rect fill="#222222" height="33.0679" rx="2.5" ry="2.5" style="stroke:#E7E7E7;stroke-width:0.5;" width="204" x="2207" y="1313.3665"/><text fill="#FFFFFF" font-family="sans-serif" font-size="14" lengthAdjust="spacing" textLength="190" x="2214" y="1335.3324">AvailableCourseDTOMapper</text><rect fill="#000000" height="511.5902" style="stroke:#E7E7E7;stroke-width:1.0;" width="10" x="195" y="117.7739"/><rect fill="#000000" height="599.8842" style="stroke:#E7E7E7;stroke-width:1.0;" width="10" x="195" y="696.4822"/><rect fill="#000000" height="64.706" style="stroke:#E7E7E7;stroke-width:1.0;" width="10" x="452" y="149.4799"/><rect fill="#000000" height="331.0602" style="stroke:#E7E7E7;stroke-width:1.0;" width="10" x="452" y="266.598"/><rect fill="#000000" height="536.4722" style="stroke:#E7E7E7;stroke-width:1.0;" width="10" x="452" y="728.1882"/><rect fill="#000000" height="30" style="stroke:#E7E7E7;stroke-width:1.0;" width="10" x="669" y="184.186"/><rect fill="#000000" height="30" style="stroke:#E7E7E7;stroke-width:1.0;" width="10" x="669" y="1202.9544"/><rect fill="#000000" height="117.118" style="stroke:#E7E7E7;stroke-width:1.0;" width="10" x="829" y="298.304"/><rect fill="#000000" height="30" style="stroke:#E7E7E7;stroke-width:1.0;" width="10" x="929.5" y="341.863"/><rect fill="#000000" height="31.706" style="stroke:#E7E7E7;stroke-width:1.0;" width="10" x="1039.5" y="759.8943"/><rect fill="#000000" height="93.412" style="stroke:#E7E7E7;stroke-width:1.0;" width="10" x="1180" y="823.3063"/><rect fill="#000000" height="61.706" style="stroke:#E7E7E7;stroke-width:1.0;" width="10" x="1362" y="855.0123"/><rect fill="#000000" height="30" style="stroke:#E7E7E7;stroke-width:1.0;" width="10" x="1531" y="948.4243"/><rect fill="#000000" height="161.118" style="stroke:#E7E7E7;stroke-width:1.0;" width="10" x="1531" y="1010.1304"/><rect fill="#000000" height="30" style="stroke:#E7E7E7;stroke-width:1.0;" width="10" x="1735" y="886.7183"/><rect fill="#000000" height="30" style="stroke:#E7E7E7;stroke-width:1.0;" width="10" x="1735" y="1041.8364"/><rect fill="#000000" height="30" style="stroke:#E7E7E7;stroke-width:1.0;" width="10" x="1915" y="1106.5424"/><rect fill="#000000" height="31.706" style="stroke:#E7E7E7;stroke-width:1.0;" width="10" x="2087.5" y="447.1281"/><rect fill="#000000" height="43.559" style="stroke:#E7E7E7;stroke-width:1.0;" width="10" x="2304" y="522.3931"/><polygon fill="#E7E7E7" points="183,113.7739,193,117.7739,183,121.7739,187,117.7739" style="stroke:#E7E7E7;stroke-width:1.0;"/><line style="stroke:#E7E7E7;stroke-width:1.0;stroke-dasharray:2.0,2.0;" x1="35" x2="189" y1="117.7739" y2="117.7739"/><text fill="#FFFFFF" font-family="sans-serif" font-size="13" lengthAdjust="spacing" textLength="32" x="42" y="111.9649">enter</text><polygon fill="#E7E7E7" points="440,145.4799,450,149.4799,440,153.4799,444,149.4799" style="stroke:#E7E7E7;stroke-width:1.0;"/><line style="stroke:#E7E7E7;stroke-width:1.0;stroke-dasharray:2.0,2.0;" x1="205" x2="446" y1="149.4799" y2="149.4799"/><text fill="#FFFFFF" font-family="sans-serif" font-size="13" lengthAdjust="spacing" textLength="45" x="212" y="143.6709">create()</text><polygon fill="#E7E7E7" points="657,180.186,667,184.186,657,188.186,661,184.186" style="stroke:#E7E7E7;stroke-width:1.0;"/><line style="stroke:#E7E7E7;stroke-width:1.0;stroke-dasharray:2.0,2.0;" x1="462" x2="663" y1="184.186" y2="184.186"/><path d="M684,162.4799 L684,207.4799 L903,207.4799 L903,172.4799 L893,162.4799 L684,162.4799 " fill="#714137" style="stroke:#E7E7E7;stroke-width:0.5;"/><path d="M893,162.4799 L893,172.4799 L903,172.4799 L893,162.4799 " fill="#714137" style="stroke:#E7E7E7;stroke-width:0.5;"/><text fill="#FFFFFF" font-family="sans-serif" font-size="13" lengthAdjust="spacing" textLength="151" x="690" y="181.377">repository is retrieved via</text><text fill="#FFFFFF" font-family="sans-serif" font-size="13" lengthAdjust="spacing" textLength="198" x="690" y="199.083">PersistenceContext.repositories()</text><polygon fill="#E7E7E7" points="440,262.598,450,266.598,440,270.598,444,266.598" style="stroke:#E7E7E7;stroke-width:1.0;"/><line style="stroke:#E7E7E7;stroke-width:1.0;stroke-dasharray:2.0,2.0;" x1="205" x2="446" y1="266.598" y2="266.598"/><text fill="#FFFFFF" font-family="sans-serif" font-size="13" lengthAdjust="spacing" textLength="54" x="212" y="260.789">courses()</text><polygon fill="#E7E7E7" points="817,294.304,827,298.304,817,302.304,821,298.304" style="stroke:#E7E7E7;stroke-width:1.0;"/><line style="stroke:#E7E7E7;stroke-width:1.0;stroke-dasharray:2.0,2.0;" x1="462" x2="823" y1="298.304" y2="298.304"/><text fill="#FFFFFF" font-family="sans-serif" font-size="13" lengthAdjust="spacing" textLength="99" x="469" y="292.495">currentTeacher()</text><polygon fill="#E7E7E7" points="917.5,337.863,927.5,341.863,917.5,345.863,921.5,341.863" style="stroke:#E7E7E7;stroke-width:1.0;"/><line style="stroke:#E7E7E7;stroke-width:1.0;stroke-dasharray:2.0,2.0;" x1="839" x2="923.5" y1="341.863" y2="341.863"/><text fill="#FFFFFF" font-family="sans-serif" font-size="13" lengthAdjust="spacing" textLength="28" x="846" y="336.054">get()</text><path d="M944,311.304 L944,356.304 L1187,356.304 L1187,321.304 L1177,311.304 L944,311.304 " fill="#714137" style="stroke:#E7E7E7;stroke-width:0.5;"/><path d="M1177,311.304 L1177,321.304 L1187,321.304 L1177,311.304 " fill="#714137" style="stroke:#E7E7E7;stroke-width:0.5;"/><text fill="#FFFFFF" font-family="sans-serif" font-size="13" lengthAdjust="spacing" textLength="222" x="950" y="330.201">teacher obtained via the framework's</text><text fill="#FFFFFF" font-family="sans-serif" font-size="13" lengthAdjust="spacing" textLength="213" x="950" y="347.907">Authz package + TeacherRepository</text><polygon fill="#E7E7E7" points="473,411.4221,463,415.4221,473,419.4221,469,415.4221" style="stroke:#E7E7E7;stroke-width:1.0;"/><line style="stroke:#E7E7E7;stroke-width:1.0;stroke-dasharray:2.0,2.0;" x1="467" x2="833" y1="415.4221" y2="415.4221"/><text fill="#FFFFFF" font-family="sans-serif" font-size="13" lengthAdjust="spacing" textLength="45" x="479" y="409.6131">teacher</text><polygon fill="#E7E7E7" points="2075.5,443.1281,2085.5,447.1281,2075.5,451.1281,2079.5,447.1281" style="stroke:#E7E7E7;stroke-width:1.0;"/><line style="stroke:#E7E7E7;stroke-width:1.0;stroke-dasharray:2.0,2.0;" x1="462" x2="2081.5" y1="447.1281" y2="447.1281"/><text fill="#FFFFFF" font-family="sans-serif" font-size="13" lengthAdjust="spacing" textLength="199" x="469" y="441.3191">nonClosedAndTaughtBy(teacher)</text><polygon fill="#E7E7E7" points="473,474.8341,463,478.8341,473,482.8341,469,478.8341" style="stroke:#E7E7E7;stroke-width:1.0;"/><line style="stroke:#E7E7E7;stroke-width:1.0;stroke-dasharray:2.0,2.0;" x1="467" x2="2091.5" y1="478.8341" y2="478.8341"/><text fill="#FFFFFF" font-family="sans-serif" font-size="13" lengthAdjust="spacing" textLength="46" x="479" y="473.0251">courses</text><polygon fill="#E7E7E7" points="2292,518.3931,2302,522.3931,2292,526.3931,2296,522.3931" style="stroke:#E7E7E7;stroke-width:1.0;"/><line style="stroke:#E7E7E7;stroke-width:1.0;stroke-dasharray:2.0,2.0;" x1="462" x2="2298" y1="522.3931" y2="522.3931"/><text fill="#FFFFFF" font-family="sans-serif" font-size="13" lengthAdjust="spacing" textLength="93" x="469" y="516.5841">toDTO(courses)</text><path d="M2319,491.8341 L2319,536.8341 L2501,536.8341 L2501,501.8341 L2491,491.8341 L2319,491.8341 " fill="#714137" style="stroke:#E7E7E7;stroke-width:0.5;"/><path d="M2491,491.8341 L2491,501.8341 L2501,501.8341 L2491,491.8341 " fill="#714137" style="stroke:#E7E7E7;stroke-width:0.5;"/><text fill="#FFFFFF" font-family="sans-serif" font-size="13" lengthAdjust="spacing" textLength="161" x="2325" y="510.7311">create AvailableCourseDTO</text><text fill="#FFFFFF" font-family="sans-serif" font-size="13" lengthAdjust="spacing" textLength="49" x="2325" y="528.4371">from list</text><polygon fill="#E7E7E7" points="473,561.9521,463,565.9521,473,569.9521,469,565.9521" style="stroke:#E7E7E7;stroke-width:1.0;"/><line style="stroke:#E7E7E7;stroke-width:1.0;stroke-dasharray:2.0,2.0;" x1="467" x2="2308" y1="565.9521" y2="565.9521"/><text fill="#FFFFFF" font-family="sans-serif" font-size="13" lengthAdjust="spacing" textLength="87" x="479" y="560.1431">courseDTOList</text><polygon fill="#E7E7E7" points="216,593.6582,206,597.6582,216,601.6582,212,597.6582" style="stroke:#E7E7E7;stroke-width:1.0;"/><line style="stroke:#E7E7E7;stroke-width:1.0;stroke-dasharray:2.0,2.0;" x1="210" x2="456" y1="597.6582" y2="597.6582"/><text fill="#FFFFFF" font-family="sans-serif" font-size="13" lengthAdjust="spacing" textLength="87" x="222" y="591.8492">courseDTOList</text><polygon fill="#E7E7E7" points="46,625.3642,36,629.3642,46,633.3642,42,629.3642" style="stroke:#E7E7E7;stroke-width:1.0;"/><line style="stroke:#E7E7E7;stroke-width:1.0;stroke-dasharray:2.0,2.0;" x1="40" x2="199" y1="629.3642" y2="629.3642"/><text fill="#FFFFFF" font-family="sans-serif" font-size="13" lengthAdjust="spacing" textLength="136" x="52" y="623.5552">show available courses</text><polygon fill="#E7E7E7" points="183,692.4822,193,696.4822,183,700.4822,187,696.4822" style="stroke:#E7E7E7;stroke-width:1.0;"/><line style="stroke:#E7E7E7;stroke-width:1.0;stroke-dasharray:2.0,2.0;" x1="35" x2="189" y1="696.4822" y2="696.4822"/><text fill="#FFFFFF" font-family="sans-serif" font-size="13" lengthAdjust="spacing" textLength="103" x="42" y="655.2612">select course and</text><text fill="#FFFFFF" font-family="sans-serif" font-size="13" lengthAdjust="spacing" textLength="104" x="42" y="672.9672">type specification</text><text fill="#FFFFFF" font-family="sans-serif" font-size="13" lengthAdjust="spacing" textLength="48" x="42" y="690.6732">file path</text><polygon fill="#E7E7E7" points="440,724.1882,450,728.1882,440,732.1882,444,728.1882" style="stroke:#E7E7E7;stroke-width:1.0;"/><line style="stroke:#E7E7E7;stroke-width:1.0;stroke-dasharray:2.0,2.0;" x1="205" x2="446" y1="728.1882" y2="728.1882"/><text fill="#FFFFFF" font-family="sans-serif" font-size="13" lengthAdjust="spacing" textLength="228" x="212" y="722.3792">createFormativeExam(courseDTO, file)</text><polygon fill="#E7E7E7" points="1027.5,755.8943,1037.5,759.8943,1027.5,763.8943,1031.5,759.8943" style="stroke:#E7E7E7;stroke-width:1.0;"/><line style="stroke:#E7E7E7;stroke-width:1.0;stroke-dasharray:2.0,2.0;" x1="462" x2="1033.5" y1="759.8943" y2="759.8943"/><text fill="#FFFFFF" font-family="sans-serif" font-size="13" lengthAdjust="spacing" textLength="188" x="469" y="754.0853">ofIdentity(courseDTO.courseId)</text><polygon fill="#E7E7E7" points="473,787.6003,463,791.6003,473,795.6003,469,791.6003" style="stroke:#E7E7E7;stroke-width:1.0;"/><line style="stroke:#E7E7E7;stroke-width:1.0;stroke-dasharray:2.0,2.0;" x1="467" x2="1043.5" y1="791.6003" y2="791.6003"/><text fill="#FFFFFF" font-family="sans-serif" font-size="13" lengthAdjust="spacing" textLength="40" x="479" y="785.7913">course</text><polygon fill="#E7E7E7" points="1168,819.3063,1178,823.3063,1168,827.3063,1172,823.3063" style="stroke:#E7E7E7;stroke-width:1.0;"/><line style="stroke:#E7E7E7;stroke-width:1.0;stroke-dasharray:2.0,2.0;" x1="462" x2="1174" y1="823.3063" y2="823.3063"/><text fill="#FFFFFF" font-family="sans-serif" font-size="13" lengthAdjust="spacing" textLength="96" x="469" y="817.4973">grammarTools()</text><polygon fill="#E7E7E7" points="1350,851.0123,1360,855.0123,1350,859.0123,1354,855.0123" style="stroke:#E7E7E7;stroke-width:1.0;"/><line style="stroke:#E7E7E7;stroke-width:1.0;stroke-dasharray:2.0,2.0;" x1="1190" x2="1356" y1="855.0123" y2="855.0123"/><text fill="#FFFFFF" font-family="sans-serif" font-size="13" lengthAdjust="spacing" textLength="153" x="1197" y="849.2033">formativeExamValidator()</text><polygon fill="#E7E7E7" points="1723,882.7183,1733,886.7183,1723,890.7183,1727,886.7183" style="stroke:#E7E7E7;stroke-width:1.0;"/><line style="stroke:#E7E7E7;stroke-width:1.0;stroke-dasharray:2.0,2.0;" x1="1372" x2="1729" y1="886.7183" y2="886.7183"/><text fill="#FFFFFF" font-family="sans-serif" font-size="13" lengthAdjust="spacing" textLength="45" x="1379" y="880.9093">create()</text><polygon fill="#E7E7E7" points="1519,944.4243,1529,948.4243,1519,952.4243,1523,948.4243" style="stroke:#E7E7E7;stroke-width:1.0;"/><line style="stroke:#E7E7E7;stroke-width:1.0;stroke-dasharray:2.0,2.0;" x1="462" x2="1525" y1="948.4243" y2="948.4243"/><text fill="#FFFFFF" font-family="sans-serif" font-size="13" lengthAdjust="spacing" textLength="190" x="469" y="942.6153">create(formativeExamValidator)</text><polygon fill="#E7E7E7" points="1519,1006.1304,1529,1010.1304,1519,1014.1304,1523,1010.1304" style="stroke:#E7E7E7;stroke-width:1.0;"/><line style="stroke:#E7E7E7;stroke-width:1.0;stroke-dasharray:2.0,2.0;" x1="462" x2="1525" y1="1010.1304" y2="1010.1304"/><text fill="#FFFFFF" font-family="sans-serif" font-size="13" lengthAdjust="spacing" textLength="101" x="469" y="1004.3214">build(course, file)</text><polygon fill="#E7E7E7" points="1723,1037.8364,1733,1041.8364,1723,1045.8364,1727,1041.8364" style="stroke:#E7E7E7;stroke-width:1.0;"/><line style="stroke:#E7E7E7;stroke-width:1.0;stroke-dasharray:2.0,2.0;" x1="1541" x2="1729" y1="1041.8364" y2="1041.8364"/><text fill="#FFFFFF" font-family="sans-serif" font-size="13" lengthAdjust="spacing" textLength="72" x="1548" y="1036.0274">validate(file)</text><polygon fill="#E7E7E7" points="1903,1102.5424,1913,1106.5424,1903,1110.5424,1907,1106.5424" style="stroke:#E7E7E7;stroke-width:1.0;"/><line style="stroke:#E7E7E7;stroke-width:1.0;stroke-dasharray:2.0,2.0;" x1="1541" x2="1909" y1="1106.5424" y2="1106.5424"/><text fill="#FFFFFF" font-family="sans-serif" font-size="13" lengthAdjust="spacing" textLength="165" x="1548" y="1100.7334">create(course, specification)</text><path d="M1349,1084.8364 L1349,1111.8364 L1526,1111.8364 L1526,1094.8364 L1516,1084.8364 L1349,1084.8364 " fill="#714137" style="stroke:#E7E7E7;stroke-width:0.5;"/><path d="M1516,1084.8364 L1516,1094.8364 L1526,1094.8364 L1516,1084.8364 " fill="#714137" style="stroke:#E7E7E7;stroke-width:0.5;"/><text fill="#FFFFFF" font-family="sans-serif" font-size="13" lengthAdjust="spacing" textLength="156" x="1355" y="1103.7334">specification read from file</text><polygon fill="#E7E7E7" points="473,1167.2484,463,1171.2484,473,1175.2484,469,1171.2484" style="stroke:#E7E7E7;stroke-width:1.0;"/><line style="stroke:#E7E7E7;stroke-width:1.0;stroke-dasharray:2.0,2.0;" x1="467" x2="1535" y1="1171.2484" y2="1171.2484"/><text fill="#FFFFFF" font-family="sans-serif" font-size="13" lengthAdjust="spacing" textLength="33" x="479" y="1165.4394">exam</text><polygon fill="#E7E7E7" points="657,1198.9544,667,1202.9544,657,1206.9544,661,1202.9544" style="stroke:#E7E7E7;stroke-width:1.0;"/><line style="stroke:#E7E7E7;stroke-width:1.0;stroke-dasharray:2.0,2.0;" x1="462" x2="663" y1="1202.9544" y2="1202.9544"/><text fill="#FFFFFF" font-family="sans-serif" font-size="13" lengthAdjust="spacing" textLength="68" x="469" y="1197.1454">save(exam)</text><polygon fill="#E7E7E7" points="216,1260.6604,206,1264.6604,216,1268.6604,212,1264.6604" style="stroke:#E7E7E7;stroke-width:1.0;"/><line style="stroke:#E7E7E7;stroke-width:1.0;stroke-dasharray:2.0,2.0;" x1="210" x2="456" y1="1264.6604" y2="1264.6604"/><text fill="#FFFFFF" font-family="sans-serif" font-size="13" lengthAdjust="spacing" textLength="45" x="222" y="1258.8514">success</text><polygon fill="#E7E7E7" points="46,1292.3665,36,1296.3665,46,1300.3665,42,1296.3665" style="stroke:#E7E7E7;stroke-width:1.0;"/><line style="stroke:#E7E7E7;stroke-width:1.0;stroke-dasharray:2.0,2.0;" x1="40" x2="199" y1="1296.3665" y2="1296.3665"/><text fill="#FFFFFF" font-family="sans-serif" font-size="13" lengthAdjust="spacing" textLength="86" x="52" y="1290.5575">report success</text><!--SRC=[bLRBRjim4BpxAtYBWpRvW1mAf6vJ16ZGHzoU30GqjPA9oAHAKahSh- -IeYHIf99KXrQHTcTdnpjBKMQa8bkWx02AK4rQ3MhLK6KuumqLXcmKK0CtKXsfuHryVgR7NxSkahyMjv72A5dNFJ8pgbv5AL7mJsYaviZcP8CL_XK7tvr-8RLxK1rdC31zq1sBee9EJ7yResnagpJ4jTX3MksBeiSZLRO3U3Oz_UTSn5RA-eQo0QjAeQ8kWz0IRvS3VzEQ5nHZWuvjiyiPDWBm_rKSSszeMTx1SGygbLaVCxrVTvJNT5z3BzQdxRSxsZIzg4TtjpeZBoVOqC8WxYpoEoZDjG71O2Pj73Un30H3fWyesXppHmlQS2dYplxunbPsJCZ5nGUSroi2M1Cd0Z5vXzDgPtX5y6gv2x4ZIgu8SwEyFdUlnbWtlyHVBjAck2h3Ko4nJl7gO115JNou9MyKXmuAqd6w4waGbsCy1-rhH_MZIWMapuDdlTSodRaVIB-jjS5WDgzL2hNpxign6zr8Wcj4i73UZuXMWGaW8fZ1jE7BeA_SwqZqeOZS6yf5hpOn1o0bsXMUf7eyqpjntPh3NnmYzaWh8E-6hJ5Dq78NNiWvaO3Zg4IggBSRvWifDhNKK5oBOajR9F_njFQW6NK7duQq1h3qvysn6fsUaEejRNkIwDornpZF3tLlZOpZTw9KyaXg7EgKljyQ8NjVDI6FK5z3ZA256SgP-xUMiY4bdc5MEuz1k4YaECjLnXKrjtiSEzQsoonz7P1B0q0KZbr6SZHbhj-N3EpMs1NH1_b4wA3-s6KuVZpQUJO7Qc1cq8QAOYVCgS6HQ83naZDgjoV-VXm16seEyNvSMe_HsRCUctbFBCwRzWiRp23BsmAt2pUd2UUolxijCcvWgHdOWXToSyIMd83daDrEqy6UtSFsj8fAOvRDhdmtPVOONrfuLTAAlQgn6xz_voEQReZPwftRV_OwU5Kj7IosqLGa-zaoCSetcr7DVUraYhZdYrNsBQyBFnJXP2r3syibJ-9rFIqa6-M_ADzCkZoy_TgQf1XOHhOwJu-g6ahRMXI6XpWjYDkWbcIUe_kuMo3PV_XbMNe_HDcl_m1-c3NjO6rJ__U3P67fwPOnqFgjwyv2AJDcnMlk7m00]--></g></svg>