<?xml version="1.0" encoding="us-ascii" standalone="no"?><svg xmlns="http://www.w3.org/2000/svg" xmlns:xlink="http://www.w3.org/1999/xlink" contentStyleType="text/css" height="1176.3px" preserveAspectRatio="none" style="width:1638px;height:1176px;background:#FFFFFF;" version="1.1" viewBox="0 0 1638 1176" width="1638px" zoomAndPan="magnify"><defs/><g><!--class Runnable--><g id="elem_Runnable"><rect codeLine="59" fill="#F1F1F1" height="48.5473" id="Runnable" rx="2.25" ry="2.25" style="stroke:#181818;stroke-width:0.45;" width="102.6" x="787.05" y="1111.95"/><ellipse cx="800.55" cy="1129.0236" fill="#B4A7E5" rx="9.9" ry="9.9" style="stroke:#181818;stroke-width:0.9;"/><path d="M801.4078,1126.0002 L801.4078,1131.9908 L802.9547,1131.9908 Q803.5031,1131.9908 803.7422,1132.2018 Q803.9813,1132.4127 803.9813,1132.7643 Q803.9813,1133.1018 803.7422,1133.3127 Q803.5031,1133.5236 802.9547,1133.5236 L798.3281,1133.5236 Q797.7797,1133.5236 797.5406,1133.3127 Q797.3016,1133.1018 797.3016,1132.7502 Q797.3016,1132.4127 797.5406,1132.2018 Q797.7797,1131.9908 798.3281,1131.9908 L799.875,1131.9908 L799.875,1126.0002 L798.3281,1126.0002 Q797.7797,1126.0002 797.5406,1125.7893 Q797.3016,1125.5783 797.3016,1125.2268 Q797.3016,1124.8893 797.5406,1124.6783 Q797.7797,1124.4674 798.3281,1124.4674 L802.9547,1124.4674 Q803.5031,1124.4674 803.7422,1124.6783 Q803.9813,1124.8893 803.9813,1125.2268 Q803.9813,1125.5783 803.7422,1125.7893 Q803.5031,1126.0002 802.9547,1126.0002 L801.4078,1126.0002 Z " fill="#000000"/><text fill="#000000" font-family="sans-serif" font-size="16.2" font-style="italic" lengthAdjust="spacing" textLength="70.2" x="814.95" y="1135.7314">Runnable</text><line style="stroke:#181818;stroke-width:0.45;" x1="787.95" x2="888.75" y1="1146.0973" y2="1146.0973"/><line style="stroke:#181818;stroke-width:0.45;" x1="787.95" x2="888.75" y1="1153.2973" y2="1153.2973"/></g><!--class MessageProtocol--><g id="elem_MessageProtocol"><rect codeLine="60" fill="#F1F1F1" height="48.5473" id="MessageProtocol" rx="2.25" ry="2.25" style="stroke:#181818;stroke-width:0.45;" width="159.3" x="997.2" y="1111.95"/><ellipse cx="1010.7" cy="1129.0236" fill="#B4A7E5" rx="9.9" ry="9.9" style="stroke:#181818;stroke-width:0.9;"/><path d="M1011.5578,1126.0002 L1011.5578,1131.9908 L1013.1047,1131.9908 Q1013.6531,1131.9908 1013.8922,1132.2018 Q1014.1313,1132.4127 1014.1313,1132.7643 Q1014.1313,1133.1018 1013.8922,1133.3127 Q1013.6531,1133.5236 1013.1047,1133.5236 L1008.4781,1133.5236 Q1007.9297,1133.5236 1007.6906,1133.3127 Q1007.4516,1133.1018 1007.4516,1132.7502 Q1007.4516,1132.4127 1007.6906,1132.2018 Q1007.9297,1131.9908 1008.4781,1131.9908 L1010.025,1131.9908 L1010.025,1126.0002 L1008.4781,1126.0002 Q1007.9297,1126.0002 1007.6906,1125.7893 Q1007.4516,1125.5783 1007.4516,1125.2268 Q1007.4516,1124.8893 1007.6906,1124.6783 Q1007.9297,1124.4674 1008.4781,1124.4674 L1013.1047,1124.4674 Q1013.6531,1124.4674 1013.8922,1124.6783 Q1014.1313,1124.8893 1014.1313,1125.2268 Q1014.1313,1125.5783 1013.8922,1125.7893 Q1013.6531,1126.0002 1013.1047,1126.0002 L1011.5578,1126.0002 Z " fill="#000000"/><text fill="#000000" font-family="sans-serif" font-size="16.2" font-style="italic" lengthAdjust="spacing" textLength="126.9" x="1025.1" y="1135.7314">MessageProtocol</text><line style="stroke:#181818;stroke-width:0.45;" x1="998.1" x2="1155.6" y1="1146.0973" y2="1146.0973"/><line style="stroke:#181818;stroke-width:0.45;" x1="998.1" x2="1155.6" y1="1153.2973" y2="1153.2973"/></g><!--class BoardRepository--><g id="elem_BoardRepository"><rect codeLine="12" fill="#F1F1F1" height="68.9063" id="BoardRepository" rx="2.25" ry="2.25" style="stroke:#181818;stroke-width:0.45;" width="267.3" x="193.5" y="1101.6"/><ellipse cx="260.775" cy="1118.6736" fill="#B4A7E5" rx="9.9" ry="9.9" style="stroke:#181818;stroke-width:0.9;"/><path d="M261.6328,1115.6502 L261.6328,1121.6408 L263.1797,1121.6408 Q263.7281,1121.6408 263.9672,1121.8518 Q264.2063,1122.0627 264.2063,1122.4143 Q264.2063,1122.7518 263.9672,1122.9627 Q263.7281,1123.1736 263.1797,1123.1736 L258.5531,1123.1736 Q258.0047,1123.1736 257.7656,1122.9627 Q257.5266,1122.7518 257.5266,1122.4002 Q257.5266,1122.0627 257.7656,1121.8518 Q258.0047,1121.6408 258.5531,1121.6408 L260.1,1121.6408 L260.1,1115.6502 L258.5531,1115.6502 Q258.0047,1115.6502 257.7656,1115.4393 Q257.5266,1115.2283 257.5266,1114.8768 Q257.5266,1114.5393 257.7656,1114.3283 Q258.0047,1114.1174 258.5531,1114.1174 L263.1797,1114.1174 Q263.7281,1114.1174 263.9672,1114.3283 Q264.2063,1114.5393 264.2063,1114.8768 Q264.2063,1115.2283 263.9672,1115.4393 Q263.7281,1115.6502 263.1797,1115.6502 L261.6328,1115.6502 Z " fill="#000000"/><text fill="#000000" font-family="sans-serif" font-size="16.2" font-style="italic" lengthAdjust="spacing" textLength="121.5" x="281.025" y="1125.3814">BoardRepository</text><line style="stroke:#181818;stroke-width:0.45;" x1="194.4" x2="459.9" y1="1135.7473" y2="1135.7473"/><line style="stroke:#181818;stroke-width:0.45;" x1="194.4" x2="459.9" y1="1142.9473" y2="1142.9473"/><text fill="#000000" font-family="sans-serif" font-size="12.6" lengthAdjust="spacing" textLength="252.9" x="200.7" y="1161.9439">+listBoardsUserCanView(SystemUser owner)</text></g><!--class AbstractUI--><g id="elem_AbstractUI"><rect codeLine="17" fill="#F1F1F1" height="48.5473" id="AbstractUI" rx="2.25" ry="2.25" style="stroke:#181818;stroke-width:0.45;" width="108" x="1524.15" y="692.55"/><ellipse cx="1537.65" cy="709.6236" fill="#A9DCDF" rx="9.9" ry="9.9" style="stroke:#181818;stroke-width:0.9;"/><path d="M1539.6188,711.2127 L1535.8922,711.2127 L1535.5125,712.1408 L1535.8922,712.1408 Q1536.4406,712.1408 1536.6797,712.3518 Q1536.9188,712.5627 1536.9188,712.9143 Q1536.9188,713.2518 1536.6797,713.4627 Q1536.4406,713.6736 1535.8922,713.6736 L1533.825,713.6736 Q1533.2766,713.6736 1533.0516,713.4627 Q1532.8125,713.2518 1532.8125,712.9002 Q1532.8125,712.5627 1533.0656,712.3518 Q1533.3047,712.1268 1533.8672,712.1408 L1536.2719,706.1502 L1535.2734,706.1502 Q1534.725,706.1502 1534.4859,705.9393 Q1534.2469,705.7283 1534.2469,705.3768 Q1534.2469,705.0393 1534.4859,704.8283 Q1534.725,704.6174 1535.2734,704.6174 L1538.5781,704.6174 L1541.6297,712.1408 Q1542.1641,712.1408 1542.3328,712.2674 Q1542.6844,712.5064 1542.6844,712.9143 Q1542.6844,713.2518 1542.4453,713.4627 Q1542.2203,713.6736 1541.6719,713.6736 L1539.6047,713.6736 Q1539.0563,713.6736 1538.8172,713.4627 Q1538.5781,713.2518 1538.5781,712.9002 Q1538.5781,712.5627 1538.8172,712.3518 Q1539.0563,712.1408 1539.6047,712.1408 L1539.9844,712.1408 L1539.6188,711.2127 Z M1538.9719,709.6799 L1537.7484,706.6424 L1536.5109,709.6799 L1538.9719,709.6799 Z " fill="#000000"/><text fill="#000000" font-family="sans-serif" font-size="16.2" font-style="italic" lengthAdjust="spacing" textLength="75.6" x="1552.05" y="716.3314">AbstractUI</text><line style="stroke:#181818;stroke-width:0.45;" x1="1525.05" x2="1631.25" y1="726.6973" y2="726.6973"/><line style="stroke:#181818;stroke-width:0.45;" x1="1525.05" x2="1631.25" y1="733.8973" y2="733.8973"/></g><!--class ShareBoardUI--><g id="elem_ShareBoardUI"><rect codeLine="21" fill="#F1F1F1" height="89.2652" id="ShareBoardUI" rx="2.25" ry="2.25" style="stroke:#181818;stroke-width:0.45;" width="134.1" x="1267.2" y="462.6"/><ellipse cx="1280.7" cy="479.6736" fill="#ADD1B2" rx="9.9" ry="9.9" style="stroke:#181818;stroke-width:0.9;"/><path d="M1283.1891,475.9611 Q1283.3297,475.7643 1283.4984,475.6658 Q1283.6672,475.5674 1283.8641,475.5674 Q1284.2016,475.5674 1284.4125,475.8064 Q1284.6234,476.0314 1284.6234,476.5799 L1284.6234,477.8877 Q1284.6234,478.4361 1284.4125,478.6752 Q1284.2016,478.9143 1283.8641,478.9143 Q1283.5547,478.9143 1283.3719,478.7314 Q1283.1891,478.5627 1283.0906,478.0986 Q1283.0484,477.7752 1282.8797,477.6064 Q1282.5844,477.2689 1282.0359,477.0721 Q1281.4875,476.8752 1280.925,476.8752 Q1280.2359,476.8752 1279.6594,477.1705 Q1279.0969,477.4658 1278.6469,478.1408 Q1278.2109,478.8158 1278.2109,479.7439 L1278.2109,480.7283 Q1278.2109,481.8393 1279.0125,482.5846 Q1279.8141,483.3158 1281.2484,483.3158 Q1282.0922,483.3158 1282.6828,483.0908 Q1283.0344,482.9502 1283.4141,482.5564 Q1283.6531,482.3174 1283.7797,482.2471 Q1283.9203,482.1768 1284.1031,482.1768 Q1284.3984,482.1768 1284.6234,482.4158 Q1284.8625,482.6408 1284.8625,482.9502 Q1284.8625,483.2596 1284.5531,483.6252 Q1284.1031,484.1455 1283.3859,484.4408 Q1282.4156,484.8486 1281.2484,484.8486 Q1279.8844,484.8486 1278.8016,484.2861 Q1277.9156,483.8361 1277.2969,482.8799 Q1276.6781,481.9096 1276.6781,480.7564 L1276.6781,479.7158 Q1276.6781,478.5205 1277.2266,477.4939 Q1277.7891,476.4533 1278.7734,475.9049 Q1279.7578,475.3424 1280.8688,475.3424 Q1281.5297,475.3424 1282.1063,475.4971 Q1282.6969,475.6377 1283.1891,475.9611 Z " fill="#000000"/><text fill="#000000" font-family="sans-serif" font-size="16.2" lengthAdjust="spacing" textLength="101.7" x="1295.1" y="486.3814">ShareBoardUI</text><line style="stroke:#181818;stroke-width:0.45;" x1="1268.1" x2="1400.4" y1="496.7473" y2="496.7473"/><line style="stroke:#181818;stroke-width:0.45;" x1="1268.1" x2="1400.4" y1="503.9473" y2="503.9473"/><text fill="#000000" font-family="sans-serif" font-size="12.6" lengthAdjust="spacing" textLength="61.2" x="1274.4" y="522.9439">#doShow()</text><text fill="#000000" font-family="sans-serif" font-size="12.6" lengthAdjust="spacing" textLength="64.8" x="1274.4" y="543.3029">+headline()</text></g><!--class ShareBoardController--><g id="elem_ShareBoardController"><rect codeLine="27" fill="#F1F1F1" height="150.3422" id="ShareBoardController" rx="2.25" ry="2.25" style="stroke:#181818;stroke-width:0.45;" width="401.4" x="1091.25" y="641.7"/><ellipse cx="1208.025" cy="658.7736" fill="#ADD1B2" rx="9.9" ry="9.9" style="stroke:#181818;stroke-width:0.9;"/><path d="M1210.5141,655.0611 Q1210.6547,654.8643 1210.8234,654.7658 Q1210.9922,654.6674 1211.1891,654.6674 Q1211.5266,654.6674 1211.7375,654.9064 Q1211.9484,655.1314 1211.9484,655.6799 L1211.9484,656.9877 Q1211.9484,657.5361 1211.7375,657.7752 Q1211.5266,658.0143 1211.1891,658.0143 Q1210.8797,658.0143 1210.6969,657.8314 Q1210.5141,657.6627 1210.4156,657.1986 Q1210.3734,656.8752 1210.2047,656.7064 Q1209.9094,656.3689 1209.3609,656.1721 Q1208.8125,655.9752 1208.25,655.9752 Q1207.5609,655.9752 1206.9844,656.2705 Q1206.4219,656.5658 1205.9719,657.2408 Q1205.5359,657.9158 1205.5359,658.8439 L1205.5359,659.8283 Q1205.5359,660.9393 1206.3375,661.6846 Q1207.1391,662.4158 1208.5734,662.4158 Q1209.4172,662.4158 1210.0078,662.1908 Q1210.3594,662.0502 1210.7391,661.6564 Q1210.9781,661.4174 1211.1047,661.3471 Q1211.2453,661.2768 1211.4281,661.2768 Q1211.7234,661.2768 1211.9484,661.5158 Q1212.1875,661.7408 1212.1875,662.0502 Q1212.1875,662.3596 1211.8781,662.7252 Q1211.4281,663.2455 1210.7109,663.5408 Q1209.7406,663.9486 1208.5734,663.9486 Q1207.2094,663.9486 1206.1266,663.3861 Q1205.2406,662.9361 1204.6219,661.9799 Q1204.0031,661.0096 1204.0031,659.8564 L1204.0031,658.8158 Q1204.0031,657.6205 1204.5516,656.5939 Q1205.1141,655.5533 1206.0984,655.0049 Q1207.0828,654.4424 1208.1938,654.4424 Q1208.8547,654.4424 1209.4313,654.5971 Q1210.0219,654.7377 1210.5141,655.0611 Z " fill="#000000"/><text fill="#000000" font-family="sans-serif" font-size="16.2" lengthAdjust="spacing" textLength="156.6" x="1228.275" y="665.4814">ShareBoardController</text><line style="stroke:#181818;stroke-width:0.45;" x1="1092.15" x2="1491.75" y1="675.8473" y2="675.8473"/><line style="stroke:#181818;stroke-width:0.45;" x1="1092.15" x2="1491.75" y1="683.0473" y2="683.0473"/><text fill="#000000" font-family="sans-serif" font-size="12.6" lengthAdjust="spacing" textLength="129.6" x="1098.45" y="702.0439">+listBoardsUserOwns()</text><text fill="#000000" font-family="sans-serif" font-size="12.6" lengthAdjust="spacing" textLength="186.3" x="1098.45" y="722.4029">+chooseBoard(String boardTitle)</text><text fill="#000000" font-family="sans-serif" font-size="12.6" lengthAdjust="spacing" textLength="82.8" x="1098.45" y="742.7619">+shareBoard()</text><text fill="#000000" font-family="sans-serif" font-size="12.6" lengthAdjust="spacing" textLength="63.9" x="1098.45" y="763.1209">+listUsers()</text><text fill="#000000" font-family="sans-serif" font-size="12.6" lengthAdjust="spacing" textLength="387" x="1098.45" y="783.4799">+prepareInvite(String username, BoardParticipantPermissions perm)</text></g><!--class AbstractSBServerHandler--><g id="elem_AbstractSBServerHandler"><rect codeLine="36" fill="#F1F1F1" height="48.5473" id="AbstractSBServerHandler" rx="2.25" ry="2.25" style="stroke:#181818;stroke-width:0.45;" width="218.7" x="654.3" y="922.5"/><ellipse cx="667.8" cy="939.5736" fill="#A9DCDF" rx="9.9" ry="9.9" style="stroke:#181818;stroke-width:0.9;"/><path d="M669.7688,941.1627 L666.0422,941.1627 L665.6625,942.0908 L666.0422,942.0908 Q666.5906,942.0908 666.8297,942.3018 Q667.0688,942.5127 667.0688,942.8643 Q667.0688,943.2018 666.8297,943.4127 Q666.5906,943.6236 666.0422,943.6236 L663.975,943.6236 Q663.4266,943.6236 663.2016,943.4127 Q662.9625,943.2018 662.9625,942.8502 Q662.9625,942.5127 663.2156,942.3018 Q663.4547,942.0768 664.0172,942.0908 L666.4219,936.1002 L665.4234,936.1002 Q664.875,936.1002 664.6359,935.8893 Q664.3969,935.6783 664.3969,935.3268 Q664.3969,934.9893 664.6359,934.7783 Q664.875,934.5674 665.4234,934.5674 L668.7281,934.5674 L671.7797,942.0908 Q672.3141,942.0908 672.4828,942.2174 Q672.8344,942.4564 672.8344,942.8643 Q672.8344,943.2018 672.5953,943.4127 Q672.3703,943.6236 671.8219,943.6236 L669.7547,943.6236 Q669.2063,943.6236 668.9672,943.4127 Q668.7281,943.2018 668.7281,942.8502 Q668.7281,942.5127 668.9672,942.3018 Q669.2063,942.0908 669.7547,942.0908 L670.1344,942.0908 L669.7688,941.1627 Z M669.1219,939.6299 L667.8984,936.5924 L666.6609,939.6299 L669.1219,939.6299 Z " fill="#000000"/><text fill="#000000" font-family="sans-serif" font-size="16.2" font-style="italic" lengthAdjust="spacing" textLength="186.3" x="682.2" y="946.2814">AbstractSBServerHandler</text><line style="stroke:#181818;stroke-width:0.45;" x1="655.2" x2="872.1" y1="956.6473" y2="956.6473"/><line style="stroke:#181818;stroke-width:0.45;" x1="655.2" x2="872.1" y1="963.8473" y2="963.8473"/></g><!--class ShareBoardHandler--><g id="elem_ShareBoardHandler"><rect codeLine="39" fill="#F1F1F1" height="150.3422" id="ShareBoardHandler" rx="2.25" ry="2.25" style="stroke:#181818;stroke-width:0.45;" width="363.6" x="516.15" y="641.7"/><ellipse cx="620.775" cy="658.7736" fill="#ADD1B2" rx="9.9" ry="9.9" style="stroke:#181818;stroke-width:0.9;"/><path d="M623.2641,655.0611 Q623.4047,654.8643 623.5734,654.7658 Q623.7422,654.6674 623.9391,654.6674 Q624.2766,654.6674 624.4875,654.9064 Q624.6984,655.1314 624.6984,655.6799 L624.6984,656.9877 Q624.6984,657.5361 624.4875,657.7752 Q624.2766,658.0143 623.9391,658.0143 Q623.6297,658.0143 623.4469,657.8314 Q623.2641,657.6627 623.1656,657.1986 Q623.1234,656.8752 622.9547,656.7064 Q622.6594,656.3689 622.1109,656.1721 Q621.5625,655.9752 621,655.9752 Q620.3109,655.9752 619.7344,656.2705 Q619.1719,656.5658 618.7219,657.2408 Q618.2859,657.9158 618.2859,658.8439 L618.2859,659.8283 Q618.2859,660.9393 619.0875,661.6846 Q619.8891,662.4158 621.3234,662.4158 Q622.1672,662.4158 622.7578,662.1908 Q623.1094,662.0502 623.4891,661.6564 Q623.7281,661.4174 623.8547,661.3471 Q623.9953,661.2768 624.1781,661.2768 Q624.4734,661.2768 624.6984,661.5158 Q624.9375,661.7408 624.9375,662.0502 Q624.9375,662.3596 624.6281,662.7252 Q624.1781,663.2455 623.4609,663.5408 Q622.4906,663.9486 621.3234,663.9486 Q619.9594,663.9486 618.8766,663.3861 Q617.9906,662.9361 617.3719,661.9799 Q616.7531,661.0096 616.7531,659.8564 L616.7531,658.8158 Q616.7531,657.6205 617.3016,656.5939 Q617.8641,655.5533 618.8484,655.0049 Q619.8328,654.4424 620.9438,654.4424 Q621.6047,654.4424 622.1813,654.5971 Q622.7719,654.7377 623.2641,655.0611 Z " fill="#000000"/><text fill="#000000" font-family="sans-serif" font-size="16.2" lengthAdjust="spacing" textLength="143.1" x="641.025" y="665.4814">ShareBoardHandler</text><line style="stroke:#181818;stroke-width:0.45;" x1="517.05" x2="878.85" y1="675.8473" y2="675.8473"/><line style="stroke:#181818;stroke-width:0.45;" x1="517.05" x2="878.85" y1="683.0473" y2="683.0473"/><text fill="#000000" font-family="sans-serif" font-size="12.6" lengthAdjust="spacing" textLength="35.1" x="523.35" y="702.0439">+run()</text><text fill="#000000" font-family="sans-serif" font-size="12.6" lengthAdjust="spacing" textLength="155.7" x="523.35" y="722.4029">-inviteUsers(String[] invites)</text><text fill="#000000" font-family="sans-serif" font-size="12.6" lengthAdjust="spacing" textLength="200.7" x="523.35" y="742.7619">-sendUsersNotInvited(Board board)</text><text fill="#000000" font-family="sans-serif" font-size="12.6" lengthAdjust="spacing" textLength="349.2" x="523.35" y="763.1209">-sendBoardOwned(StringBuilder builder, List&lt;Board&gt; boards)</text><text fill="#000000" font-family="sans-serif" font-size="12.6" lengthAdjust="spacing" textLength="171.9" x="523.35" y="783.4799">-usersNotInvited(Board board)</text></g><!--class SBPServerApp--><g id="elem_SBPServerApp"><rect codeLine="48" fill="#F1F1F1" height="89.2652" id="SBPServerApp" rx="2.25" ry="2.25" style="stroke:#181818;stroke-width:0.45;" width="228.6" x="949.95" y="283.5"/><ellipse cx="1004.625" cy="300.5736" fill="#ADD1B2" rx="9.9" ry="9.9" style="stroke:#181818;stroke-width:0.9;"/><path d="M1007.1141,296.8611 Q1007.2547,296.6643 1007.4234,296.5658 Q1007.5922,296.4674 1007.7891,296.4674 Q1008.1266,296.4674 1008.3375,296.7064 Q1008.5484,296.9314 1008.5484,297.4799 L1008.5484,298.7877 Q1008.5484,299.3361 1008.3375,299.5752 Q1008.1266,299.8143 1007.7891,299.8143 Q1007.4797,299.8143 1007.2969,299.6314 Q1007.1141,299.4627 1007.0156,298.9986 Q1006.9734,298.6752 1006.8047,298.5064 Q1006.5094,298.1689 1005.9609,297.9721 Q1005.4125,297.7752 1004.85,297.7752 Q1004.1609,297.7752 1003.5844,298.0705 Q1003.0219,298.3658 1002.5719,299.0408 Q1002.1359,299.7158 1002.1359,300.6439 L1002.1359,301.6283 Q1002.1359,302.7393 1002.9375,303.4846 Q1003.7391,304.2158 1005.1734,304.2158 Q1006.0172,304.2158 1006.6078,303.9908 Q1006.9594,303.8502 1007.3391,303.4564 Q1007.5781,303.2174 1007.7047,303.1471 Q1007.8453,303.0768 1008.0281,303.0768 Q1008.3234,303.0768 1008.5484,303.3158 Q1008.7875,303.5408 1008.7875,303.8502 Q1008.7875,304.1596 1008.4781,304.5252 Q1008.0281,305.0455 1007.3109,305.3408 Q1006.3406,305.7486 1005.1734,305.7486 Q1003.8094,305.7486 1002.7266,305.1861 Q1001.8406,304.7361 1001.2219,303.7799 Q1000.6031,302.8096 1000.6031,301.6564 L1000.6031,300.6158 Q1000.6031,299.4205 1001.1516,298.3939 Q1001.7141,297.3533 1002.6984,296.8049 Q1003.6828,296.2424 1004.7938,296.2424 Q1005.4547,296.2424 1006.0313,296.3971 Q1006.6219,296.5377 1007.1141,296.8611 Z " fill="#000000"/><text fill="#000000" font-family="sans-serif" font-size="16.2" lengthAdjust="spacing" textLength="108" x="1024.875" y="307.2814">SBPServerApp</text><line style="stroke:#181818;stroke-width:0.45;" x1="950.85" x2="1177.65" y1="317.6473" y2="317.6473"/><text fill="#000000" font-family="sans-serif" font-size="12.6" lengthAdjust="spacing" textLength="214.2" x="957.15" y="336.6439">+HashMap&lt;BoardTitle,Board&gt; boards</text><text fill="#000000" font-family="sans-serif" font-size="12.6" lengthAdjust="spacing" textLength="213.3" x="957.15" y="357.0029">+HashMap&lt;String,Client&gt; activeAuths</text><line style="stroke:#181818;stroke-width:0.45;" x1="950.85" x2="1177.65" y1="365.5652" y2="365.5652"/></g><!--class MenuRequest--><g id="elem_MenuRequest"><rect codeLine="54" fill="#F1F1F1" height="68.9063" id="MenuRequest" rx="2.25" ry="2.25" style="stroke:#181818;stroke-width:0.45;" width="133.2" x="886.95" y="472.5"/><ellipse cx="900.45" cy="489.5736" fill="#ADD1B2" rx="9.9" ry="9.9" style="stroke:#181818;stroke-width:0.9;"/><path d="M902.9391,485.8611 Q903.0797,485.6643 903.2484,485.5658 Q903.4172,485.4674 903.6141,485.4674 Q903.9516,485.4674 904.1625,485.7064 Q904.3734,485.9314 904.3734,486.4799 L904.3734,487.7877 Q904.3734,488.3361 904.1625,488.5752 Q903.9516,488.8143 903.6141,488.8143 Q903.3047,488.8143 903.1219,488.6314 Q902.9391,488.4627 902.8406,487.9986 Q902.7984,487.6752 902.6297,487.5064 Q902.3344,487.1689 901.7859,486.9721 Q901.2375,486.7752 900.675,486.7752 Q899.9859,486.7752 899.4094,487.0705 Q898.8469,487.3658 898.3969,488.0408 Q897.9609,488.7158 897.9609,489.6439 L897.9609,490.6283 Q897.9609,491.7393 898.7625,492.4846 Q899.5641,493.2158 900.9984,493.2158 Q901.8422,493.2158 902.4328,492.9908 Q902.7844,492.8502 903.1641,492.4564 Q903.4031,492.2174 903.5297,492.1471 Q903.6703,492.0768 903.8531,492.0768 Q904.1484,492.0768 904.3734,492.3158 Q904.6125,492.5408 904.6125,492.8502 Q904.6125,493.1596 904.3031,493.5252 Q903.8531,494.0455 903.1359,494.3408 Q902.1656,494.7486 900.9984,494.7486 Q899.6344,494.7486 898.5516,494.1861 Q897.6656,493.7361 897.0469,492.7799 Q896.4281,491.8096 896.4281,490.6564 L896.4281,489.6158 Q896.4281,488.4205 896.9766,487.3939 Q897.5391,486.3533 898.5234,485.8049 Q899.5078,485.2424 900.6188,485.2424 Q901.2797,485.2424 901.8563,485.3971 Q902.4469,485.5377 902.9391,485.8611 Z " fill="#000000"/><text fill="#000000" font-family="sans-serif" font-size="16.2" lengthAdjust="spacing" textLength="100.8" x="914.85" y="496.2814">MenuRequest</text><line style="stroke:#181818;stroke-width:0.45;" x1="887.85" x2="1019.25" y1="506.6473" y2="506.6473"/><line style="stroke:#181818;stroke-width:0.45;" x1="887.85" x2="1019.25" y1="513.8473" y2="513.8473"/><text fill="#000000" font-family="sans-serif" font-size="12.6" lengthAdjust="spacing" textLength="35.1" x="894.15" y="532.8439">+run()</text></g><!--class SBProtocol--><g id="elem_SBProtocol"><rect codeLine="62" fill="#F1F1F1" height="129.9832" id="SBProtocol" rx="2.25" ry="2.25" style="stroke:#181818;stroke-width:0.45;" width="215.1" x="969.3" y="882"/><ellipse cx="1030.725" cy="899.0736" fill="#ADD1B2" rx="9.9" ry="9.9" style="stroke:#181818;stroke-width:0.9;"/><path d="M1033.2141,895.3611 Q1033.3547,895.1643 1033.5234,895.0658 Q1033.6922,894.9674 1033.8891,894.9674 Q1034.2266,894.9674 1034.4375,895.2064 Q1034.6484,895.4314 1034.6484,895.9799 L1034.6484,897.2877 Q1034.6484,897.8361 1034.4375,898.0752 Q1034.2266,898.3143 1033.8891,898.3143 Q1033.5797,898.3143 1033.3969,898.1314 Q1033.2141,897.9627 1033.1156,897.4986 Q1033.0734,897.1752 1032.9047,897.0064 Q1032.6094,896.6689 1032.0609,896.4721 Q1031.5125,896.2752 1030.95,896.2752 Q1030.2609,896.2752 1029.6844,896.5705 Q1029.1219,896.8658 1028.6719,897.5408 Q1028.2359,898.2158 1028.2359,899.1439 L1028.2359,900.1283 Q1028.2359,901.2393 1029.0375,901.9846 Q1029.8391,902.7158 1031.2734,902.7158 Q1032.1172,902.7158 1032.7078,902.4908 Q1033.0594,902.3502 1033.4391,901.9564 Q1033.6781,901.7174 1033.8047,901.6471 Q1033.9453,901.5768 1034.1281,901.5768 Q1034.4234,901.5768 1034.6484,901.8158 Q1034.8875,902.0408 1034.8875,902.3502 Q1034.8875,902.6596 1034.5781,903.0252 Q1034.1281,903.5455 1033.4109,903.8408 Q1032.4406,904.2486 1031.2734,904.2486 Q1029.9094,904.2486 1028.8266,903.6861 Q1027.9406,903.2361 1027.3219,902.2799 Q1026.7031,901.3096 1026.7031,900.1564 L1026.7031,899.1158 Q1026.7031,897.9205 1027.2516,896.8939 Q1027.8141,895.8533 1028.7984,895.3049 Q1029.7828,894.7424 1030.8938,894.7424 Q1031.5547,894.7424 1032.1313,894.8971 Q1032.7219,895.0377 1033.2141,895.3611 Z " fill="#000000"/><text fill="#000000" font-family="sans-serif" font-size="16.2" lengthAdjust="spacing" textLength="81" x="1050.975" y="905.7814">SBProtocol</text><line style="stroke:#181818;stroke-width:0.45;" x1="970.2" x2="1183.5" y1="916.1473" y2="916.1473"/><line style="stroke:#181818;stroke-width:0.45;" x1="970.2" x2="1183.5" y1="923.3473" y2="923.3473"/><text fill="#000000" font-family="sans-serif" font-size="12.6" lengthAdjust="spacing" textLength="108.9" x="976.5" y="942.3439">+setCode(int code)</text><text fill="#000000" font-family="sans-serif" font-size="12.6" lengthAdjust="spacing" textLength="200.7" x="976.5" y="962.7029">+setContentFromString(String cStr)</text><text fill="#000000" font-family="sans-serif" font-size="12.6" lengthAdjust="spacing" textLength="171.9" x="976.5" y="983.0619">+send(DataOutputStream out)</text><text fill="#000000" font-family="sans-serif" font-size="12.6" lengthAdjust="spacing" textLength="126.9" x="976.5" y="1003.4209">+getContentAsString()</text></g><!--class JpaBoardRepository--><g id="elem_JpaBoardRepository"><rect codeLine="71" fill="#F1F1F1" height="109.6242" id="JpaBoardRepository" rx="2.25" ry="2.25" style="stroke:#181818;stroke-width:0.45;" width="317.7" x="6.3" y="891.9"/><ellipse cx="86.175" cy="908.9736" fill="#ADD1B2" rx="9.9" ry="9.9" style="stroke:#181818;stroke-width:0.9;"/><path d="M88.6641,905.2611 Q88.8047,905.0643 88.9734,904.9658 Q89.1422,904.8674 89.3391,904.8674 Q89.6766,904.8674 89.8875,905.1064 Q90.0984,905.3314 90.0984,905.8799 L90.0984,907.1877 Q90.0984,907.7361 89.8875,907.9752 Q89.6766,908.2143 89.3391,908.2143 Q89.0297,908.2143 88.8469,908.0314 Q88.6641,907.8627 88.5656,907.3986 Q88.5234,907.0752 88.3547,906.9064 Q88.0594,906.5689 87.5109,906.3721 Q86.9625,906.1752 86.4,906.1752 Q85.7109,906.1752 85.1344,906.4705 Q84.5719,906.7658 84.1219,907.4408 Q83.6859,908.1158 83.6859,909.0439 L83.6859,910.0283 Q83.6859,911.1393 84.4875,911.8846 Q85.2891,912.6158 86.7234,912.6158 Q87.5672,912.6158 88.1578,912.3908 Q88.5094,912.2502 88.8891,911.8564 Q89.1281,911.6174 89.2547,911.5471 Q89.3953,911.4768 89.5781,911.4768 Q89.8734,911.4768 90.0984,911.7158 Q90.3375,911.9408 90.3375,912.2502 Q90.3375,912.5596 90.0281,912.9252 Q89.5781,913.4455 88.8609,913.7408 Q87.8906,914.1486 86.7234,914.1486 Q85.3594,914.1486 84.2766,913.5861 Q83.3906,913.1361 82.7719,912.1799 Q82.1531,911.2096 82.1531,910.0564 L82.1531,909.0158 Q82.1531,907.8205 82.7016,906.7939 Q83.2641,905.7533 84.2484,905.2049 Q85.2328,904.6424 86.3438,904.6424 Q87.0047,904.6424 87.5813,904.7971 Q88.1719,904.9377 88.6641,905.2611 Z " fill="#000000"/><text fill="#000000" font-family="sans-serif" font-size="16.2" lengthAdjust="spacing" textLength="146.7" x="106.425" y="915.6814">JpaBoardRepository</text><line style="stroke:#181818;stroke-width:0.45;" x1="7.2" x2="323.1" y1="926.0473" y2="926.0473"/><line style="stroke:#181818;stroke-width:0.45;" x1="7.2" x2="323.1" y1="933.2473" y2="933.2473"/><text fill="#000000" font-family="sans-serif" font-size="12.6" lengthAdjust="spacing" textLength="303.3" x="13.5" y="952.2439">+listBoardsUserOwnsNotArchived(SystemUser owner)</text><text fill="#000000" font-family="sans-serif" font-size="12.6" lengthAdjust="spacing" textLength="284.4" x="13.5" y="972.6029">+listBoardsUserOwnsArchived(SystemUser owner)</text><text fill="#000000" font-family="sans-serif" font-size="12.6" lengthAdjust="spacing" textLength="238.5" x="13.5" y="992.9619">+listBoardsUserOwns(SystemUser owner);</text></g><!--class Client--><g id="elem_Client"><rect codeLine="79" fill="#F1F1F1" height="68.9063" id="Client" rx="2.25" ry="2.25" style="stroke:#181818;stroke-width:0.45;" width="127.8" x="1051.65" y="472.5"/><ellipse cx="1089.45" cy="489.5736" fill="#ADD1B2" rx="9.9" ry="9.9" style="stroke:#181818;stroke-width:0.9;"/><path d="M1091.9391,485.8611 Q1092.0797,485.6643 1092.2484,485.5658 Q1092.4172,485.4674 1092.6141,485.4674 Q1092.9516,485.4674 1093.1625,485.7064 Q1093.3734,485.9314 1093.3734,486.4799 L1093.3734,487.7877 Q1093.3734,488.3361 1093.1625,488.5752 Q1092.9516,488.8143 1092.6141,488.8143 Q1092.3047,488.8143 1092.1219,488.6314 Q1091.9391,488.4627 1091.8406,487.9986 Q1091.7984,487.6752 1091.6297,487.5064 Q1091.3344,487.1689 1090.7859,486.9721 Q1090.2375,486.7752 1089.675,486.7752 Q1088.9859,486.7752 1088.4094,487.0705 Q1087.8469,487.3658 1087.3969,488.0408 Q1086.9609,488.7158 1086.9609,489.6439 L1086.9609,490.6283 Q1086.9609,491.7393 1087.7625,492.4846 Q1088.5641,493.2158 1089.9984,493.2158 Q1090.8422,493.2158 1091.4328,492.9908 Q1091.7844,492.8502 1092.1641,492.4564 Q1092.4031,492.2174 1092.5297,492.1471 Q1092.6703,492.0768 1092.8531,492.0768 Q1093.1484,492.0768 1093.3734,492.3158 Q1093.6125,492.5408 1093.6125,492.8502 Q1093.6125,493.1596 1093.3031,493.5252 Q1092.8531,494.0455 1092.1359,494.3408 Q1091.1656,494.7486 1089.9984,494.7486 Q1088.6344,494.7486 1087.5516,494.1861 Q1086.6656,493.7361 1086.0469,492.7799 Q1085.4281,491.8096 1085.4281,490.6564 L1085.4281,489.6158 Q1085.4281,488.4205 1085.9766,487.3939 Q1086.5391,486.3533 1087.5234,485.8049 Q1088.5078,485.2424 1089.6188,485.2424 Q1090.2797,485.2424 1090.8563,485.3971 Q1091.4469,485.5377 1091.9391,485.8611 Z " fill="#000000"/><text fill="#000000" font-family="sans-serif" font-size="16.2" lengthAdjust="spacing" textLength="41.4" x="1109.25" y="496.2814">Client</text><line style="stroke:#181818;stroke-width:0.45;" x1="1052.55" x2="1178.55" y1="506.6473" y2="506.6473"/><line style="stroke:#181818;stroke-width:0.45;" x1="1052.55" x2="1178.55" y1="513.8473" y2="513.8473"/><text fill="#000000" font-family="sans-serif" font-size="12.6" lengthAdjust="spacing" textLength="113.4" x="1058.85" y="532.8439">+getUserLoggedIn()</text></g><!--class BoardService--><g id="elem_BoardService"><rect codeLine="84" fill="#F1F1F1" height="68.9063" id="BoardService" rx="2.25" ry="2.25" style="stroke:#181818;stroke-width:0.45;" width="267.3" x="355.5" y="912.15"/><ellipse cx="434.925" cy="929.2236" fill="#ADD1B2" rx="9.9" ry="9.9" style="stroke:#181818;stroke-width:0.9;"/><path d="M437.4141,925.5111 Q437.5547,925.3143 437.7234,925.2158 Q437.8922,925.1174 438.0891,925.1174 Q438.4266,925.1174 438.6375,925.3564 Q438.8484,925.5814 438.8484,926.1299 L438.8484,927.4377 Q438.8484,927.9861 438.6375,928.2252 Q438.4266,928.4643 438.0891,928.4643 Q437.7797,928.4643 437.5969,928.2814 Q437.4141,928.1127 437.3156,927.6486 Q437.2734,927.3252 437.1047,927.1564 Q436.8094,926.8189 436.2609,926.6221 Q435.7125,926.4252 435.15,926.4252 Q434.4609,926.4252 433.8844,926.7205 Q433.3219,927.0158 432.8719,927.6908 Q432.4359,928.3658 432.4359,929.2939 L432.4359,930.2783 Q432.4359,931.3893 433.2375,932.1346 Q434.0391,932.8658 435.4734,932.8658 Q436.3172,932.8658 436.9078,932.6408 Q437.2594,932.5002 437.6391,932.1064 Q437.8781,931.8674 438.0047,931.7971 Q438.1453,931.7268 438.3281,931.7268 Q438.6234,931.7268 438.8484,931.9658 Q439.0875,932.1908 439.0875,932.5002 Q439.0875,932.8096 438.7781,933.1752 Q438.3281,933.6955 437.6109,933.9908 Q436.6406,934.3986 435.4734,934.3986 Q434.1094,934.3986 433.0266,933.8361 Q432.1406,933.3861 431.5219,932.4299 Q430.9031,931.4596 430.9031,930.3064 L430.9031,929.2658 Q430.9031,928.0705 431.4516,927.0439 Q432.0141,926.0033 432.9984,925.4549 Q433.9828,924.8924 435.0938,924.8924 Q435.7547,924.8924 436.3313,925.0471 Q436.9219,925.1877 437.4141,925.5111 Z " fill="#000000"/><text fill="#000000" font-family="sans-serif" font-size="16.2" lengthAdjust="spacing" textLength="97.2" x="455.175" y="935.9314">BoardService</text><line style="stroke:#181818;stroke-width:0.45;" x1="356.4" x2="621.9" y1="946.2973" y2="946.2973"/><line style="stroke:#181818;stroke-width:0.45;" x1="356.4" x2="621.9" y1="953.4973" y2="953.4973"/><text fill="#000000" font-family="sans-serif" font-size="12.6" lengthAdjust="spacing" textLength="252.9" x="362.7" y="972.4939">+listBoardsUserCanView(SystemUser owner)</text></g><!--class SBPClientApp--><g id="elem_SBPClientApp"><rect codeLine="89" fill="#F1F1F1" height="48.5473" id="SBPClientApp" rx="2.25" ry="2.25" style="stroke:#181818;stroke-width:0.45;" width="134.1" x="1177.2" y="144.9"/><ellipse cx="1190.7" cy="161.9736" fill="#ADD1B2" rx="9.9" ry="9.9" style="stroke:#181818;stroke-width:0.9;"/><path d="M1193.1891,158.2611 Q1193.3297,158.0643 1193.4984,157.9658 Q1193.6672,157.8674 1193.8641,157.8674 Q1194.2016,157.8674 1194.4125,158.1064 Q1194.6234,158.3314 1194.6234,158.8799 L1194.6234,160.1877 Q1194.6234,160.7361 1194.4125,160.9752 Q1194.2016,161.2143 1193.8641,161.2143 Q1193.5547,161.2143 1193.3719,161.0314 Q1193.1891,160.8627 1193.0906,160.3986 Q1193.0484,160.0752 1192.8797,159.9064 Q1192.5844,159.5689 1192.0359,159.3721 Q1191.4875,159.1752 1190.925,159.1752 Q1190.2359,159.1752 1189.6594,159.4705 Q1189.0969,159.7658 1188.6469,160.4408 Q1188.2109,161.1158 1188.2109,162.0439 L1188.2109,163.0283 Q1188.2109,164.1393 1189.0125,164.8846 Q1189.8141,165.6158 1191.2484,165.6158 Q1192.0922,165.6158 1192.6828,165.3908 Q1193.0344,165.2502 1193.4141,164.8564 Q1193.6531,164.6174 1193.7797,164.5471 Q1193.9203,164.4768 1194.1031,164.4768 Q1194.3984,164.4768 1194.6234,164.7158 Q1194.8625,164.9408 1194.8625,165.2502 Q1194.8625,165.5596 1194.5531,165.9252 Q1194.1031,166.4455 1193.3859,166.7408 Q1192.4156,167.1486 1191.2484,167.1486 Q1189.8844,167.1486 1188.8016,166.5861 Q1187.9156,166.1361 1187.2969,165.1799 Q1186.6781,164.2096 1186.6781,163.0564 L1186.6781,162.0158 Q1186.6781,160.8205 1187.2266,159.7939 Q1187.7891,158.7533 1188.7734,158.2049 Q1189.7578,157.6424 1190.8688,157.6424 Q1191.5297,157.6424 1192.1063,157.7971 Q1192.6969,157.9377 1193.1891,158.2611 Z " fill="#000000"/><text fill="#000000" font-family="sans-serif" font-size="16.2" lengthAdjust="spacing" textLength="101.7" x="1205.1" y="168.6814">SBPClientApp</text><line style="stroke:#181818;stroke-width:0.45;" x1="1178.1" x2="1310.4" y1="179.0473" y2="179.0473"/><line style="stroke:#181818;stroke-width:0.45;" x1="1178.1" x2="1310.4" y1="186.2473" y2="186.2473"/></g><!--class BaseApplication--><g id="elem_BaseApplication"><rect codeLine="92" fill="#F1F1F1" height="48.5473" id="BaseApplication" rx="2.25" ry="2.25" style="stroke:#181818;stroke-width:0.45;" width="151.2" x="1089.45" y="6.3"/><ellipse cx="1102.95" cy="23.3736" fill="#A9DCDF" rx="9.9" ry="9.9" style="stroke:#181818;stroke-width:0.9;"/><path d="M1104.9188,24.9627 L1101.1922,24.9627 L1100.8125,25.8908 L1101.1922,25.8908 Q1101.7406,25.8908 1101.9797,26.1018 Q1102.2188,26.3127 1102.2188,26.6643 Q1102.2188,27.0018 1101.9797,27.2127 Q1101.7406,27.4236 1101.1922,27.4236 L1099.125,27.4236 Q1098.5766,27.4236 1098.3516,27.2127 Q1098.1125,27.0018 1098.1125,26.6502 Q1098.1125,26.3127 1098.3656,26.1018 Q1098.6047,25.8768 1099.1672,25.8908 L1101.5719,19.9002 L1100.5734,19.9002 Q1100.025,19.9002 1099.7859,19.6893 Q1099.5469,19.4783 1099.5469,19.1268 Q1099.5469,18.7893 1099.7859,18.5783 Q1100.025,18.3674 1100.5734,18.3674 L1103.8781,18.3674 L1106.9297,25.8908 Q1107.4641,25.8908 1107.6328,26.0174 Q1107.9844,26.2564 1107.9844,26.6643 Q1107.9844,27.0018 1107.7453,27.2127 Q1107.5203,27.4236 1106.9719,27.4236 L1104.9047,27.4236 Q1104.3563,27.4236 1104.1172,27.2127 Q1103.8781,27.0018 1103.8781,26.6502 Q1103.8781,26.3127 1104.1172,26.1018 Q1104.3563,25.8908 1104.9047,25.8908 L1105.2844,25.8908 L1104.9188,24.9627 Z M1104.2719,23.4299 L1103.0484,20.3924 L1101.8109,23.4299 L1104.2719,23.4299 Z " fill="#000000"/><text fill="#000000" font-family="sans-serif" font-size="16.2" font-style="italic" lengthAdjust="spacing" textLength="118.8" x="1117.35" y="30.0814">BaseApplication</text><line style="stroke:#181818;stroke-width:0.45;" x1="1090.35" x2="1239.75" y1="40.4473" y2="40.4473"/><line style="stroke:#181818;stroke-width:0.45;" x1="1090.35" x2="1239.75" y1="47.6473" y2="47.6473"/></g><!--class MainMenu--><g id="elem_MainMenu"><rect codeLine="94" fill="#F1F1F1" height="68.9063" id="MainMenu" rx="2.25" ry="2.25" style="stroke:#181818;stroke-width:0.45;" width="113.4" x="1277.55" y="293.4"/><ellipse cx="1293.48" cy="310.4736" fill="#ADD1B2" rx="9.9" ry="9.9" style="stroke:#181818;stroke-width:0.9;"/><path d="M1295.9691,306.7611 Q1296.1097,306.5643 1296.2784,306.4658 Q1296.4472,306.3674 1296.6441,306.3674 Q1296.9816,306.3674 1297.1925,306.6064 Q1297.4034,306.8314 1297.4034,307.3799 L1297.4034,308.6877 Q1297.4034,309.2361 1297.1925,309.4752 Q1296.9816,309.7143 1296.6441,309.7143 Q1296.3347,309.7143 1296.1519,309.5314 Q1295.9691,309.3627 1295.8706,308.8986 Q1295.8284,308.5752 1295.6597,308.4064 Q1295.3644,308.0689 1294.8159,307.8721 Q1294.2675,307.6752 1293.705,307.6752 Q1293.0159,307.6752 1292.4394,307.9705 Q1291.8769,308.2658 1291.4269,308.9408 Q1290.9909,309.6158 1290.9909,310.5439 L1290.9909,311.5283 Q1290.9909,312.6393 1291.7925,313.3846 Q1292.5941,314.1158 1294.0284,314.1158 Q1294.8722,314.1158 1295.4628,313.8908 Q1295.8144,313.7502 1296.1941,313.3564 Q1296.4331,313.1174 1296.5597,313.0471 Q1296.7003,312.9768 1296.8831,312.9768 Q1297.1784,312.9768 1297.4034,313.2158 Q1297.6425,313.4408 1297.6425,313.7502 Q1297.6425,314.0596 1297.3331,314.4252 Q1296.8831,314.9455 1296.1659,315.2408 Q1295.1956,315.6486 1294.0284,315.6486 Q1292.6644,315.6486 1291.5816,315.0861 Q1290.6956,314.6361 1290.0769,313.6799 Q1289.4581,312.7096 1289.4581,311.5564 L1289.4581,310.5158 Q1289.4581,309.3205 1290.0066,308.2939 Q1290.5691,307.2533 1291.5534,306.7049 Q1292.5378,306.1424 1293.6488,306.1424 Q1294.3097,306.1424 1294.8863,306.2971 Q1295.4769,306.4377 1295.9691,306.7611 Z " fill="#000000"/><text fill="#000000" font-family="sans-serif" font-size="16.2" lengthAdjust="spacing" textLength="75.6" x="1308.42" y="317.1814">MainMenu</text><line style="stroke:#181818;stroke-width:0.45;" x1="1278.45" x2="1390.05" y1="327.5473" y2="327.5473"/><line style="stroke:#181818;stroke-width:0.45;" x1="1278.45" x2="1390.05" y1="334.7473" y2="334.7473"/><text fill="#000000" font-family="sans-serif" font-size="12.6" lengthAdjust="spacing" textLength="99" x="1284.75" y="353.7439">-buildMainMenu()</text></g><!--class Thread--><g id="elem_Thread"><rect fill="#F1F1F1" height="48.5473" id="Thread" rx="2.25" ry="2.25" style="stroke:#181818;stroke-width:0.45;" width="84.6" x="911.25" y="692.55"/><ellipse cx="924.75" cy="709.6236" fill="#ADD1B2" rx="9.9" ry="9.9" style="stroke:#181818;stroke-width:0.9;"/><path d="M927.2391,705.9111 Q927.3797,705.7143 927.5484,705.6158 Q927.7172,705.5174 927.9141,705.5174 Q928.2516,705.5174 928.4625,705.7564 Q928.6734,705.9814 928.6734,706.5299 L928.6734,707.8377 Q928.6734,708.3861 928.4625,708.6252 Q928.2516,708.8643 927.9141,708.8643 Q927.6047,708.8643 927.4219,708.6814 Q927.2391,708.5127 927.1406,708.0486 Q927.0984,707.7252 926.9297,707.5564 Q926.6344,707.2189 926.0859,707.0221 Q925.5375,706.8252 924.975,706.8252 Q924.2859,706.8252 923.7094,707.1205 Q923.1469,707.4158 922.6969,708.0908 Q922.2609,708.7658 922.2609,709.6939 L922.2609,710.6783 Q922.2609,711.7893 923.0625,712.5346 Q923.8641,713.2658 925.2984,713.2658 Q926.1422,713.2658 926.7328,713.0408 Q927.0844,712.9002 927.4641,712.5064 Q927.7031,712.2674 927.8297,712.1971 Q927.9703,712.1268 928.1531,712.1268 Q928.4484,712.1268 928.6734,712.3658 Q928.9125,712.5908 928.9125,712.9002 Q928.9125,713.2096 928.6031,713.5752 Q928.1531,714.0955 927.4359,714.3908 Q926.4656,714.7986 925.2984,714.7986 Q923.9344,714.7986 922.8516,714.2361 Q921.9656,713.7861 921.3469,712.8299 Q920.7281,711.8596 920.7281,710.7064 L920.7281,709.6658 Q920.7281,708.4705 921.2766,707.4439 Q921.8391,706.4033 922.8234,705.8549 Q923.8078,705.2924 924.9188,705.2924 Q925.5797,705.2924 926.1563,705.4471 Q926.7469,705.5877 927.2391,705.9111 Z " fill="#000000"/><text fill="#000000" font-family="sans-serif" font-size="16.2" lengthAdjust="spacing" textLength="52.2" x="939.15" y="716.3314">Thread</text><line style="stroke:#181818;stroke-width:0.45;" x1="912.15" x2="994.95" y1="726.6973" y2="726.6973"/><line style="stroke:#181818;stroke-width:0.45;" x1="912.15" x2="994.95" y1="733.8973" y2="733.8973"/></g><!--link ShareBoardUI to AbstractUI--><g id="link_ShareBoardUI_AbstractUI"><path codeLine="101" d="M1396.44,551.745 C1430.703,576.765 1473.363,609.516 1508.85,641.7 C1521.432,653.112 1534.356,666.441 1545.579,678.636 " fill="none" id="ShareBoardUI-to-AbstractUI" style="stroke:#181818;stroke-width:0.9;"/><polygon fill="none" points="1550.484,674.667,1557.864,692.244,1541.124,683.1,1550.484,674.667" style="stroke:#181818;stroke-width:0.9;"/></g><!--link MenuRequest to Thread--><g id="link_MenuRequest_Thread"><path codeLine="102" d="M953.55,541.917 C953.55,578.052 953.55,635.346 953.55,674.244 " fill="none" id="MenuRequest-to-Thread" style="stroke:#181818;stroke-width:0.9;"/><polygon fill="none" points="959.85,674.442,953.55,692.442,947.25,674.442,959.85,674.442" style="stroke:#181818;stroke-width:0.9;"/></g><!--reverse link BaseApplication to SBPClientApp--><g id="link_BaseApplication_SBPClientApp"><path codeLine="103" d="M1187.82,70.839 C1201.689,94.779 1218.933,124.56 1230.678,144.864 " fill="none" id="BaseApplication-backto-SBPClientApp" style="stroke:#181818;stroke-width:0.9;"/><polygon fill="none" points="1182.231,73.755,1178.667,55.017,1193.139,67.437,1182.231,73.755" style="stroke:#181818;stroke-width:0.9;"/></g><!--reverse link BaseApplication to SBPServerApp--><g id="link_BaseApplication_SBPServerApp"><path codeLine="104" d="M1151.145,72.297 C1132.227,127.764 1098.549,226.557 1079.136,283.482 " fill="none" id="BaseApplication-backto-SBPServerApp" style="stroke:#181818;stroke-width:0.9;"/><polygon fill="none" points="1145.286,69.948,1157.058,54.945,1157.211,74.016,1145.286,69.948" style="stroke:#181818;stroke-width:0.9;"/></g><!--reverse link SBPServerApp to Client--><g id="link_SBPServerApp_Client"><path codeLine="105" d="M1080.279,384.345 C1088.622,413.181 1098.549,447.507 1105.749,472.374 " fill="none" id="SBPServerApp-backto-Client" style="stroke:#181818;stroke-width:0.9;"/><polygon fill="none" points="1076.931,372.78,1074.9745,378.9681,1079.934,383.1541,1081.8905,376.966,1076.931,372.78" style="stroke:#181818;stroke-width:0.9;"/></g><!--link MainMenu to AbstractUI--><g id="link_MainMenu_AbstractUI"><path codeLine="106" d="M1355.679,362.952 C1400.904,434.709 1505.835,601.209 1553.634,677.052 " fill="none" id="MainMenu-to-AbstractUI" style="stroke:#181818;stroke-width:0.9;"/><polygon fill="none" points="1559.052,673.83,1563.318,692.424,1548.396,680.553,1559.052,673.83" style="stroke:#181818;stroke-width:0.9;"/></g><!--link ShareBoardUI to ShareBoardController--><g id="link_ShareBoardUI_ShareBoardController"><path codeLine="109" d="M1325.331,551.889 C1320.318,576.54 1313.901,608.058 1308.042,636.876 " fill="none" id="ShareBoardUI-to-ShareBoardController" style="stroke:#181818;stroke-width:0.9;"/><polygon fill="#181818" points="1307.106,641.475,1312.253,634.2584,1308.0058,637.0659,1305.1984,632.8187,1307.106,641.475" style="stroke:#181818;stroke-width:0.9;"/><text fill="#000000" font-family="sans-serif" font-size="11.7" lengthAdjust="spacing" textLength="6.3" x="1299.8831" y="629.7203">1</text></g><!--link ShareBoardController to SBProtocol--><g id="link_ShareBoardController_SBProtocol"><path codeLine="110" d="M1221.813,792.135 C1195.542,820.008 1165.869,851.481 1140.246,878.661 " fill="none" id="ShareBoardController-to-SBProtocol" style="stroke:#181818;stroke-width:0.9;"/><polygon fill="#181818" points="1137.141,881.955,1145.314,878.5239,1140.2251,878.6781,1140.0709,873.5893,1137.141,881.955" style="stroke:#181818;stroke-width:0.9;"/><text fill="#000000" font-family="sans-serif" font-size="11.7" lengthAdjust="spacing" textLength="4.5" x="1136.3772" y="870.1611">*</text></g><!--link ShareBoardHandler to AbstractSBServerHandler--><g id="link_ShareBoardHandler_AbstractSBServerHandler"><path codeLine="112" d="M719.37,792.135 C730.134,829.503 742.761,873.36 751.77,904.653 " fill="none" id="ShareBoardHandler-to-AbstractSBServerHandler" style="stroke:#181818;stroke-width:0.9;"/><polygon fill="none" points="757.944,903.303,756.864,922.347,745.83,906.795,757.944,903.303" style="stroke:#181818;stroke-width:0.9;"/></g><!--link AbstractSBServerHandler to Runnable--><g id="link_AbstractSBServerHandler_Runnable"><path codeLine="113" d="M773.109,971.469 C785.457,1002.483 807.255,1057.239 822.231,1094.859 " fill="none" id="AbstractSBServerHandler-to-Runnable" style="stroke:#181818;stroke-width:0.9;stroke-dasharray:7.0,7.0;"/><polygon fill="none" points="828.162,1092.726,828.963,1111.779,816.453,1097.379,828.162,1092.726" style="stroke:#181818;stroke-width:0.9;"/></g><!--link ShareBoardHandler to SBProtocol--><g id="link_ShareBoardHandler_SBProtocol"><path codeLine="114" d="M821.493,792.135 C868.239,820.287 921.105,852.12 966.555,879.489 " fill="none" id="ShareBoardHandler-to-SBProtocol" style="stroke:#181818;stroke-width:0.9;"/><polygon fill="#181818" points="970.65,881.955,965.5743,874.6882,966.797,879.6303,961.8548,880.853,970.65,881.955" style="stroke:#181818;stroke-width:0.9;"/><text fill="#000000" font-family="sans-serif" font-size="11.7" lengthAdjust="spacing" textLength="4.5" x="955.909" y="871.7876">*</text></g><!--link ShareBoardHandler to BoardService--><g id="link_ShareBoardHandler_BoardService"><path codeLine="116" d="M629.874,792.135 C594.162,831.159 551.97,877.257 523.17,908.73 " fill="none" id="ShareBoardHandler-to-BoardService" style="stroke:#181818;stroke-width:0.9;"/><polygon fill="#181818" points="520.074,912.114,528.1974,908.5671,523.1113,908.7936,522.8848,903.7075,520.074,912.114" style="stroke:#181818;stroke-width:0.9;"/><text fill="#000000" font-family="sans-serif" font-size="11.7" lengthAdjust="spacing" textLength="6.3" x="516.4383" y="900.11">1</text></g><!--link BoardService to BoardRepository--><g id="link_BoardService_BoardRepository"><path codeLine="118" d="M459.81,981.684 C431.577,1014.39 388.953,1063.755 359.685,1097.658 " fill="none" id="BoardService-to-BoardRepository" style="stroke:#181818;stroke-width:0.9;"/><polygon fill="#181818" points="356.544,1101.303,364.564,1097.5281,359.4863,1097.8982,359.1163,1092.8205,356.544,1101.303" style="stroke:#181818;stroke-width:0.9;"/><text fill="#000000" font-family="sans-serif" font-size="11.7" lengthAdjust="spacing" textLength="6.3" x="352.4925" y="1089.5295">1</text></g><!--link MenuRequest to SBProtocol--><g id="link_MenuRequest_SBProtocol"><path codeLine="120" d="M970.668,541.926 C983.529,568.503 1000.8,606.735 1012.05,641.7 C1037.511,720.855 1055.79,814.851 1066.311,877.194 " fill="none" id="MenuRequest-to-SBProtocol" style="stroke:#181818;stroke-width:0.9;"/><polygon fill="#181818" points="1067.121,882,1069.3323,873.4163,1066.377,877.5619,1062.2314,874.6066,1067.121,882" style="stroke:#181818;stroke-width:0.9;"/><text fill="#000000" font-family="sans-serif" font-size="11.7" lengthAdjust="spacing" textLength="6.3" x="1057.5072" y="869.8622">1</text></g><!--link MainMenu to ShareBoardUI--><g id="link_MainMenu_ShareBoardUI"><path codeLine="121" d="M1334.25,362.718 C1334.25,389.61 1334.25,427.617 1334.25,457.767 " fill="none" id="MainMenu-to-ShareBoardUI" style="stroke:#181818;stroke-width:0.9;"/><polygon fill="#181818" points="1334.25,462.528,1337.85,454.428,1334.25,458.028,1330.65,454.428,1334.25,462.528" style="stroke:#181818;stroke-width:0.9;"/><text fill="#000000" font-family="sans-serif" font-size="11.7" lengthAdjust="spacing" textLength="6.3" x="1325.4848" y="450.7941">1</text></g><!--link SBPClientApp to MainMenu--><g id="link_SBPClientApp_MainMenu"><path codeLine="122" d="M1257.723,193.608 C1272.222,218.916 1295.505,259.542 1312.587,289.341 " fill="none" id="SBPClientApp-to-MainMenu" style="stroke:#181818;stroke-width:0.9;"/><polygon fill="#181818" points="1314.846,293.292,1313.9342,284.4751,1312.6051,289.3897,1307.6904,288.0606,1314.846,293.292" style="stroke:#181818;stroke-width:0.9;"/><text fill="#000000" font-family="sans-serif" font-size="11.7" lengthAdjust="spacing" textLength="6.3" x="1302.7124" y="281.5498">1</text></g><!--link SBPServerApp to MenuRequest--><g id="link_SBPServerApp_MenuRequest"><path codeLine="123" d="M1036.89,372.78 C1018.575,402.102 994.725,440.298 977.238,468.315 " fill="none" id="SBPServerApp-to-MenuRequest" style="stroke:#181818;stroke-width:0.9;"/><polygon fill="#181818" points="974.7,472.374,982.0458,467.4132,977.085,468.558,975.9402,463.5972,974.7,472.374" style="stroke:#181818;stroke-width:0.9;"/><text fill="#000000" font-family="sans-serif" font-size="11.7" lengthAdjust="spacing" textLength="6.3" x="969.2831" y="460.6289">1</text></g><!--link MenuRequest to ShareBoardHandler--><g id="link_MenuRequest_ShareBoardHandler"><path codeLine="124" d="M911.916,541.917 C878.814,568.836 831.276,607.509 789.417,641.556 " fill="none" id="MenuRequest-ShareBoardHandler" style="stroke:#181818;stroke-width:0.9;"/></g><!--link ShareBoardHandler to SBPServerApp--><g id="link_ShareBoardHandler_SBPServerApp"><path codeLine="125" d="M739.008,641.637 C770.814,588.123 818.343,516.204 871.65,462.6 C906.084,427.968 950.562,396.441 988.092,372.708 " fill="none" id="ShareBoardHandler-SBPServerApp" style="stroke:#181818;stroke-width:0.9;"/></g><!--link Thread to Runnable--><g id="link_Thread_Runnable"><path codeLine="130" d="M949.752,741.339 C941.337,791.685 919.431,913.086 888.75,1011.6 C879.876,1040.103 867.186,1071.225 856.755,1095.129 " fill="none" id="Thread-to-Runnable" style="stroke:#181818;stroke-width:0.9;stroke-dasharray:7.0,7.0;"/><polygon fill="none" points="862.398,1097.946,849.33,1111.833,850.887,1092.825,862.398,1097.946" style="stroke:#181818;stroke-width:0.9;"/></g><!--link SBProtocol to MessageProtocol--><g id="link_SBProtocol_MessageProtocol"><path codeLine="131" d="M1076.85,1011.753 C1076.85,1038.843 1076.85,1069.632 1076.85,1093.707 " fill="none" id="SBProtocol-to-MessageProtocol" style="stroke:#181818;stroke-width:0.9;stroke-dasharray:7.0,7.0;"/><polygon fill="none" points="1083.15,1093.743,1076.85,1111.743,1070.55,1093.743,1083.15,1093.743" style="stroke:#181818;stroke-width:0.9;"/></g><!--link JpaBoardRepository to BoardRepository--><g id="link_JpaBoardRepository_BoardRepository"><path codeLine="132" d="M211.788,1001.727 C235.215,1028.853 263.34,1061.442 285.957,1087.641 " fill="none" id="JpaBoardRepository-to-BoardRepository" style="stroke:#181818;stroke-width:0.9;stroke-dasharray:7.0,7.0;"/><polygon fill="none" points="290.898,1083.717,297.891,1101.465,281.367,1091.952,290.898,1083.717" style="stroke:#181818;stroke-width:0.9;"/></g><!--SRC=[bLHBSzCm4BxhLsZAeGc9- -3409EP94odOLgQQLek30V5Nc9DRKb8Sak1_dVMakt83vWsbyZx-FJjfzqzJArLvjtniSgOi4MU7SKoFuupPaoKSBRJB2V4t76X61wfSyojrNnRM5Z5KcpuBw0dGOXYISB5Zhu9R9g9EmEAdfwSTC7EfB0Eu_Gj8OGB2_exYu5U5qAmRGQ1wHACOJjOQsbbBBCmUY6PJgv1ISEjr8_aDw5qad5ZdSFS6j1B9hvmU1Xj7es5lBHG-I10Zmbz8eHjZTKijdHU7MvN288EHv9kKgR1OJaxnTyhciXDAXz6O_SveIcm9EC2q32GjyGwjSmoq6N-XBR9NJq8Km9DQ9nAQNpAQ8CwevBRykE6smnSX6amVKQ9L69K04e3oWihSSyjr105-WNBOUgLMZDjUSmLFlaQTCwDuL8Ogl3ioFVKs2mseEz1dpEHO0c3obG-B6z2TI6GJKIvO-7PUIfVlrL6K_eDYCHvFqlh6ISZ1-QBhaES2JM2MfD5mRC4Nt3h_wVq0aNuuC9cFjN15_-3tfUmMFlgvaevzkVCf9TCUJmd_BG57OHuEjDbna7O6KMf-3tC2vkQFVubYE8QVXHWR0dljNbwQRCtN6kBQoC3TYaJ664YZV4mReo89EoPbhcdM7T2ZFzLa4X67vbbLuLLXKKpu4pAmZhlhe6OcmfWJFObVLAiFtAJVa-ZzdCTfwX9CZ1u0malY-v7lGz8-aUfndM25PLn5tAtWsGbmYbre6KBy1YShC_T764B-TlA5Whcfy9d1j2HyPXP7BIcBnWNPM_WbP5hvDhWkP53-8aFWEqMRXyQHNzcuPOAkilxRb9yoOI4b6XKgDBL9H9s_hDYP1JLijPaUuJ8OGAgv4sb6F5SIMrn63irpEZ1wS7mUXmo-epN1s7_azxgQLFfx2po3pizEiAaPWA7G9ztjI-frKia_ABjc61qEczOQRE_Bf2wgnlgtNxeAgBfhVOJrzvW8xNl7jZdGxMsTsRPg_ZG6UJ8mX3VW5rTctAyexlV-Xl5n_Mq8dy1]--></g></svg>