<?xml version="1.0" encoding="us-ascii" standalone="no"?><svg xmlns="http://www.w3.org/2000/svg" xmlns:xlink="http://www.w3.org/1999/xlink" contentStyleType="text/css" height="919.8px" preserveAspectRatio="none" style="width:624px;height:919px;background:#FFFFFF;" version="1.1" viewBox="0 0 624 919" width="624.4px" zoomAndPan="magnify"><defs/><g><rect fill="#FFFFFF" height="767.5336" style="stroke:#181818;stroke-width:0.6999999999999998;" width="7" x="163.8" y="81.8385"/><rect fill="#FFFFFF" height="21" style="stroke:#181818;stroke-width:0.6999999999999998;" width="7" x="289.1" y="111.894"/><rect fill="#FFFFFF" height="176.1334" style="stroke:#181818;stroke-width:0.6999999999999998;" width="7" x="289.1" y="162.9496"/><rect fill="#FFFFFF" height="207.8371" style="stroke:#181818;stroke-width:0.6999999999999998;" width="7" x="289.1" y="404.7941"/><rect fill="#FFFFFF" height="60.1111" style="stroke:#181818;stroke-width:0.6999999999999998;" width="7" x="289.1" y="767.3572"/><rect fill="none" height="123.0223" style="stroke:#000000;stroke-width:1.0499999999999998;" width="345.8" x="7" y="623.1312"/><line style="stroke:#181818;stroke-width:0.3499999999999999;stroke-dasharray:5.0,5.0;" x1="44.1" x2="44.1" y1="58.5348" y2="861.9721"/><line style="stroke:#181818;stroke-width:0.3499999999999999;stroke-dasharray:5.0,5.0;" x1="167.3" x2="167.3" y1="58.5348" y2="861.9721"/><line style="stroke:#181818;stroke-width:0.3499999999999999;stroke-dasharray:5.0,5.0;" x1="292.6" x2="292.6" y1="58.5348" y2="861.9721"/><line style="stroke:#181818;stroke-width:0.3499999999999999;stroke-dasharray:5.0,5.0;" x1="429.8" x2="429.8" y1="58.5348" y2="861.9721"/><line style="stroke:#181818;stroke-width:0.3499999999999999;stroke-dasharray:5.0,5.0;" x1="497" x2="497" y1="58.5348" y2="861.9721"/><text fill="#000000" font-family="sans-serif" font-size="9.8" lengthAdjust="spacing" textLength="56" x="14" y="56.0752">SBAappUser</text><ellipse cx="44.1" cy="9.45" fill="#E2E2F0" rx="5.6" ry="5.6" style="stroke:#181818;stroke-width:0.3499999999999999;"/><path d="M44.1,15.05 L44.1,33.95 M35,20.65 L53.2,20.65 M44.1,33.95 L35,44.45 M44.1,33.95 L53.2,44.45 " fill="none" style="stroke:#181818;stroke-width:0.3499999999999999;"/><text fill="#000000" font-family="sans-serif" font-size="9.8" lengthAdjust="spacing" textLength="56" x="14" y="871.8473">SBAappUser</text><ellipse cx="44.1" cy="880.2568" fill="#E2E2F0" rx="5.6" ry="5.6" style="stroke:#181818;stroke-width:0.3499999999999999;"/><path d="M44.1,885.8568 L44.1,904.7568 M35,891.4568 L53.2,891.4568 M44.1,904.7568 L35,915.2568 M44.1,904.7568 L53.2,915.2568 " fill="none" style="stroke:#181818;stroke-width:0.3499999999999999;"/><rect fill="#E2E2F0" height="22.8348" rx="1.75" ry="1.75" style="stroke:#181818;stroke-width:0.3499999999999999;" width="71.4" x="131.6" y="35"/><text fill="#000000" font-family="sans-serif" font-size="9.8" lengthAdjust="spacing" textLength="61.6" x="136.5" y="50.4752">ShareBoardUI</text><rect fill="#E2E2F0" height="22.8348" rx="1.75" ry="1.75" style="stroke:#181818;stroke-width:0.3499999999999999;" width="71.4" x="131.6" y="861.2721"/><text fill="#000000" font-family="sans-serif" font-size="9.8" lengthAdjust="spacing" textLength="61.6" x="136.5" y="876.7473">ShareBoardUI</text><rect fill="#E2E2F0" height="22.8348" rx="1.75" ry="1.75" style="stroke:#181818;stroke-width:0.3499999999999999;" width="106.4" x="239.4" y="35"/><text fill="#000000" font-family="sans-serif" font-size="9.8" lengthAdjust="spacing" textLength="96.6" x="244.3" y="50.4752">ShareBoardController</text><rect fill="#E2E2F0" height="22.8348" rx="1.75" ry="1.75" style="stroke:#181818;stroke-width:0.3499999999999999;" width="106.4" x="239.4" y="861.2721"/><text fill="#000000" font-family="sans-serif" font-size="9.8" lengthAdjust="spacing" textLength="96.6" x="244.3" y="876.7473">ShareBoardController</text><rect fill="#E2E2F0" height="22.8348" rx="1.75" ry="1.75" style="stroke:#181818;stroke-width:0.3499999999999999;" width="58.8" x="400.4" y="35"/><text fill="#000000" font-family="sans-serif" font-size="9.8" lengthAdjust="spacing" textLength="49" x="405.3" y="50.4752">SBProtocol</text><rect fill="#E2E2F0" height="22.8348" rx="1.75" ry="1.75" style="stroke:#181818;stroke-width:0.3499999999999999;" width="58.8" x="400.4" y="861.2721"/><text fill="#000000" font-family="sans-serif" font-size="9.8" lengthAdjust="spacing" textLength="49" x="405.3" y="876.7473">SBProtocol</text><rect fill="#E2E2F0" height="22.8348" rx="1.75" ry="1.75" style="stroke:#181818;stroke-width:0.3499999999999999;" width="61.6" x="466.2" y="35"/><text fill="#000000" font-family="sans-serif" font-size="9.8" lengthAdjust="spacing" textLength="51.8" x="471.1" y="50.4752">ServerAJAX</text><rect fill="#E2E2F0" height="22.8348" rx="1.75" ry="1.75" style="stroke:#181818;stroke-width:0.3499999999999999;" width="61.6" x="466.2" y="861.2721"/><text fill="#000000" font-family="sans-serif" font-size="9.8" lengthAdjust="spacing" textLength="51.8" x="471.1" y="876.7473">ServerAJAX</text><rect fill="#FFFFFF" height="767.5336" style="stroke:#181818;stroke-width:0.6999999999999998;" width="7" x="163.8" y="81.8385"/><rect fill="#FFFFFF" height="21" style="stroke:#181818;stroke-width:0.6999999999999998;" width="7" x="289.1" y="111.894"/><rect fill="#FFFFFF" height="176.1334" style="stroke:#181818;stroke-width:0.6999999999999998;" width="7" x="289.1" y="162.9496"/><rect fill="#FFFFFF" height="207.8371" style="stroke:#181818;stroke-width:0.6999999999999998;" width="7" x="289.1" y="404.7941"/><rect fill="#FFFFFF" height="60.1111" style="stroke:#181818;stroke-width:0.6999999999999998;" width="7" x="289.1" y="767.3572"/><polygon fill="#181818" points="155.4,79.0385,162.4,81.8385,155.4,84.6385,158.2,81.8385" style="stroke:#181818;stroke-width:0.6999999999999998;"/><line style="stroke:#181818;stroke-width:0.6999999999999998;" x1="44.1" x2="159.6" y1="81.8385" y2="81.8385"/><text fill="#000000" font-family="sans-serif" font-size="9.1" lengthAdjust="spacing" textLength="48.3" x="49" y="78.1546">view Boards</text><polygon fill="#181818" points="280.7,109.094,287.7,111.894,280.7,114.694,283.5,111.894" style="stroke:#181818;stroke-width:0.6999999999999998;"/><line style="stroke:#181818;stroke-width:0.6999999999999998;stroke-dasharray:2.0,2.0;" x1="170.8" x2="284.9" y1="111.894" y2="111.894"/><text fill="#000000" font-family="sans-serif" font-size="9.1" lengthAdjust="spacing" textLength="105" x="175.7" y="108.2102">create(serverIp,serverPort)</text><path d="M299.6,90.9385 L299.6,121.7385 L532.7,121.7385 L532.7,97.9385 L525.7,90.9385 L299.6,90.9385 " fill="#FEFFDD" style="stroke:#181818;stroke-width:0.3499999999999999;"/><path d="M525.7,90.9385 L525.7,97.9385 L532.7,97.9385 L525.7,90.9385 " fill="#FEFFDD" style="stroke:#181818;stroke-width:0.3499999999999999;"/><text fill="#000000" font-family="sans-serif" font-size="9.1" lengthAdjust="spacing" textLength="218.4" x="303.8" y="104.2583">create instance of socket with serverIp and serverPort,</text><text fill="#000000" font-family="sans-serif" font-size="9.1" lengthAdjust="spacing" textLength="179.2" x="303.8" y="116.362">a input stream(inS) and output Stream(outS)</text><polygon fill="#181818" points="280.7,160.1496,287.7,162.9496,280.7,165.7496,283.5,162.9496" style="stroke:#181818;stroke-width:0.6999999999999998;"/><line style="stroke:#181818;stroke-width:0.6999999999999998;stroke-dasharray:2.0,2.0;" x1="170.8" x2="284.9" y1="162.9496" y2="162.9496"/><text fill="#000000" font-family="sans-serif" font-size="9.1" lengthAdjust="spacing" textLength="62.3" x="175.7" y="159.2657">boardsToView()</text><polygon fill="#181818" points="421.4,196.257,428.4,199.057,421.4,201.857,424.2,199.057" style="stroke:#181818;stroke-width:0.6999999999999998;"/><line style="stroke:#181818;stroke-width:0.6999999999999998;" x1="296.1" x2="425.6" y1="199.057" y2="199.057"/><text fill="#000000" font-family="sans-serif" font-size="9.1" lengthAdjust="spacing" textLength="30.8" x="301" y="195.3731">create()</text><path d="M433.3,172.0496 L433.3,214.7496 L549.5,214.7496 L549.5,179.0496 L542.5,172.0496 L433.3,172.0496 " fill="#FEFFDD" style="stroke:#181818;stroke-width:0.3499999999999999;"/><path d="M542.5,172.0496 L542.5,179.0496 L549.5,179.0496 L542.5,172.0496 " fill="#FEFFDD" style="stroke:#181818;stroke-width:0.3499999999999999;"/><text fill="#000000" font-family="sans-serif" font-size="9.1" lengthAdjust="spacing" textLength="93.1" x="437.5" y="185.3694">setup SBProtocol with:</text><text fill="#000000" font-family="sans-serif" font-size="9.1" lengthAdjust="spacing" textLength="98.7" x="440.3" y="197.4731">token = (AUTH_TOKEN)</text><text fill="#000000" font-family="sans-serif" font-size="9.1" lengthAdjust="spacing" textLength="94.5" x="440.3" y="209.5769">code = SHAREBOARD</text><polygon fill="#181818" points="421.4,232.3645,428.4,235.1645,421.4,237.9645,424.2,235.1645" style="stroke:#181818;stroke-width:0.6999999999999998;"/><line style="stroke:#181818;stroke-width:0.6999999999999998;" x1="296.1" x2="425.6" y1="235.1645" y2="235.1645"/><text fill="#000000" font-family="sans-serif" font-size="9.1" lengthAdjust="spacing" textLength="44.1" x="301" y="231.4806">send(outS)</text><polygon fill="#181818" points="421.4,262.42,428.4,265.22,421.4,268.02,424.2,265.22" style="stroke:#181818;stroke-width:0.6999999999999998;"/><line style="stroke:#181818;stroke-width:0.6999999999999998;" x1="296.1" x2="425.6" y1="265.22" y2="265.22"/><text fill="#000000" font-family="sans-serif" font-size="9.1" lengthAdjust="spacing" textLength="44.1" x="301" y="261.5361">create(inS)</text><path d="M433.3,244.2645 L433.3,275.0645 L563.5,275.0645 L563.5,251.2645 L556.5,244.2645 L433.3,244.2645 " fill="#FEFFDD" style="stroke:#181818;stroke-width:0.3499999999999999;"/><path d="M556.5,244.2645 L556.5,251.2645 L563.5,251.2645 L556.5,244.2645 " fill="#FEFFDD" style="stroke:#181818;stroke-width:0.3499999999999999;"/><text fill="#000000" font-family="sans-serif" font-size="9.1" lengthAdjust="spacing" textLength="115.5" x="437.5" y="257.5843">read SBProtocol with boards</text><text fill="#000000" font-family="sans-serif" font-size="9.1" lengthAdjust="spacing" textLength="98.7" x="440.3" y="269.688">owned separated by "\0"</text><polygon fill="#181818" points="421.4,292.4756,428.4,295.2756,421.4,298.0756,424.2,295.2756" style="stroke:#181818;stroke-width:0.6999999999999998;"/><line style="stroke:#181818;stroke-width:0.6999999999999998;" x1="296.1" x2="425.6" y1="295.2756" y2="295.2756"/><text fill="#000000" font-family="sans-serif" font-size="9.1" lengthAdjust="spacing" textLength="98" x="301" y="291.5917">getContentAsString(inS)</text><polygon fill="#181818" points="303.8,314.3793,296.8,317.1793,303.8,319.9793,301,317.1793" style="stroke:#181818;stroke-width:0.6999999999999998;"/><line style="stroke:#181818;stroke-width:0.6999999999999998;stroke-dasharray:2.0,2.0;" x1="299.6" x2="429.1" y1="317.1793" y2="317.1793"/><text fill="#000000" font-family="sans-serif" font-size="9.1" lengthAdjust="spacing" textLength="30.1" x="308" y="313.4954">content</text><polygon fill="#181818" points="178.5,336.283,171.5,339.083,178.5,341.883,175.7,339.083" style="stroke:#181818;stroke-width:0.6999999999999998;"/><line style="stroke:#181818;stroke-width:0.6999999999999998;stroke-dasharray:2.0,2.0;" x1="174.3" x2="291.9" y1="339.083" y2="339.083"/><text fill="#000000" font-family="sans-serif" font-size="9.1" lengthAdjust="spacing" textLength="70" x="182.7" y="335.3991">content.split("\0")</text><polygon fill="#181818" points="51.8,358.1867,44.8,360.9867,51.8,363.7867,49,360.9867" style="stroke:#181818;stroke-width:0.6999999999999998;"/><line style="stroke:#181818;stroke-width:0.6999999999999998;stroke-dasharray:2.0,2.0;" x1="47.6" x2="163.1" y1="360.9867" y2="360.9867"/><text fill="#000000" font-family="sans-serif" font-size="9.1" lengthAdjust="spacing" textLength="51.1" x="56" y="357.3028">show boards</text><polygon fill="#181818" points="155.4,380.0904,162.4,382.8904,155.4,385.6904,158.2,382.8904" style="stroke:#181818;stroke-width:0.6999999999999998;"/><line style="stroke:#181818;stroke-width:0.6999999999999998;" x1="44.1" x2="159.6" y1="382.8904" y2="382.8904"/><text fill="#000000" font-family="sans-serif" font-size="9.1" lengthAdjust="spacing" textLength="22.4" x="49" y="379.2065">board</text><polygon fill="#181818" points="280.7,401.9941,287.7,404.7941,280.7,407.5941,283.5,404.7941" style="stroke:#181818;stroke-width:0.6999999999999998;"/><line style="stroke:#181818;stroke-width:0.6999999999999998;" x1="170.8" x2="284.9" y1="404.7941" y2="404.7941"/><text fill="#000000" font-family="sans-serif" font-size="9.1" lengthAdjust="spacing" textLength="81.2" x="175.7" y="401.1103">chooseBoard(board)</text><polygon fill="#181818" points="421.4,423.8979,428.4,426.6979,421.4,429.4979,424.2,426.6979" style="stroke:#181818;stroke-width:0.6999999999999998;"/><line style="stroke:#181818;stroke-width:0.6999999999999998;" x1="296.1" x2="425.6" y1="426.6979" y2="426.6979"/><text fill="#000000" font-family="sans-serif" font-size="9.1" lengthAdjust="spacing" textLength="30.8" x="301" y="423.014">create()</text><polygon fill="#181818" points="421.4,447.9016,428.4,450.7016,421.4,453.5016,424.2,450.7016" style="stroke:#181818;stroke-width:0.6999999999999998;"/><line style="stroke:#181818;stroke-width:0.6999999999999998;" x1="296.1" x2="425.6" y1="450.7016" y2="450.7016"/><text fill="#000000" font-family="sans-serif" font-size="9.1" lengthAdjust="spacing" textLength="116.9" x="301" y="447.0177">setContentFromString(board)</text><path d="M433.3,435.7979 L433.3,454.6979 L619.5,454.6979 L619.5,442.7979 L612.5,435.7979 L433.3,435.7979 " fill="#FEFFDD" style="stroke:#181818;stroke-width:0.3499999999999999;"/><path d="M612.5,435.7979 L612.5,442.7979 L619.5,442.7979 L612.5,435.7979 " fill="#FEFFDD" style="stroke:#181818;stroke-width:0.3499999999999999;"/><text fill="#000000" font-family="sans-serif" font-size="9.1" lengthAdjust="spacing" textLength="171.5" x="437.5" y="449.1177">send board chosen on SBProtocol content</text><polygon fill="#181818" points="421.4,471.9053,428.4,474.7053,421.4,477.5053,424.2,474.7053" style="stroke:#181818;stroke-width:0.6999999999999998;"/><line style="stroke:#181818;stroke-width:0.6999999999999998;" x1="296.1" x2="425.6" y1="474.7053" y2="474.7053"/><text fill="#000000" font-family="sans-serif" font-size="9.1" lengthAdjust="spacing" textLength="44.1" x="301" y="471.0214">send(outS)</text><polygon fill="#181818" points="421.4,493.809,428.4,496.609,421.4,499.409,424.2,496.609" style="stroke:#181818;stroke-width:0.6999999999999998;"/><line style="stroke:#181818;stroke-width:0.6999999999999998;" x1="296.1" x2="425.6" y1="496.609" y2="496.609"/><text fill="#000000" font-family="sans-serif" font-size="9.1" lengthAdjust="spacing" textLength="44.1" x="301" y="492.9251">create(inS)</text><path d="M433.3,505.709 L433.3,548.409 L546.7,548.409 L546.7,512.709 L539.7,505.709 L433.3,505.709 " fill="#FEFFDD" style="stroke:#181818;stroke-width:0.3499999999999999;"/><path d="M539.7,505.709 L539.7,512.709 L546.7,512.709 L539.7,505.709 " fill="#FEFFDD" style="stroke:#181818;stroke-width:0.3499999999999999;"/><text fill="#000000" font-family="sans-serif" font-size="9.1" lengthAdjust="spacing" textLength="84.7" x="437.5" y="519.0288">received content with</text><text fill="#000000" font-family="sans-serif" font-size="9.1" lengthAdjust="spacing" textLength="98.7" x="437.5" y="531.1325">users that can be invited</text><text fill="#000000" font-family="sans-serif" font-size="9.1" lengthAdjust="spacing" textLength="70" x="440.3" y="543.2362">separated by "\0"</text><polygon fill="#181818" points="421.4,566.0238,428.4,568.8238,421.4,571.6238,424.2,568.8238" style="stroke:#181818;stroke-width:0.6999999999999998;"/><line style="stroke:#181818;stroke-width:0.6999999999999998;" x1="296.1" x2="425.6" y1="568.8238" y2="568.8238"/><text fill="#000000" font-family="sans-serif" font-size="9.1" lengthAdjust="spacing" textLength="98" x="301" y="565.1399">getContentAsString(inS)</text><polygon fill="#181818" points="303.8,587.9275,296.8,590.7275,303.8,593.5275,301,590.7275" style="stroke:#181818;stroke-width:0.6999999999999998;"/><line style="stroke:#181818;stroke-width:0.6999999999999998;stroke-dasharray:2.0,2.0;" x1="299.6" x2="429.1" y1="590.7275" y2="590.7275"/><text fill="#000000" font-family="sans-serif" font-size="9.1" lengthAdjust="spacing" textLength="30.1" x="308" y="587.0437">content</text><polygon fill="#181818" points="178.5,609.8312,171.5,612.6312,178.5,615.4312,175.7,612.6312" style="stroke:#181818;stroke-width:0.6999999999999998;"/><line style="stroke:#181818;stroke-width:0.6999999999999998;stroke-dasharray:2.0,2.0;" x1="174.3" x2="291.9" y1="612.6312" y2="612.6312"/><text fill="#000000" font-family="sans-serif" font-size="9.1" lengthAdjust="spacing" textLength="70" x="182.7" y="608.9474">content.split("\0")</text><path d="M7,623.1312 L58.1,623.1312 L58.1,629.635 L51.1,636.635 L7,636.635 L7,623.1312 " fill="#EEEEEE" style="stroke:#000000;stroke-width:1.0499999999999998;"/><rect fill="none" height="123.0223" style="stroke:#000000;stroke-width:1.0499999999999998;" width="345.8" x="7" y="623.1312"/><text fill="#000000" font-family="sans-serif" font-size="9.1" font-weight="bold" lengthAdjust="spacing" textLength="19.6" x="17.5" y="633.6511">loop</text><text fill="#000000" font-family="sans-serif" font-size="7.7" font-weight="bold" lengthAdjust="spacing" textLength="85.4" x="68.6" y="632.8403">[while wants to invite]</text><polygon fill="#181818" points="51.8,650.1387,44.8,652.9387,51.8,655.7387,49,652.9387" style="stroke:#181818;stroke-width:0.6999999999999998;"/><line style="stroke:#181818;stroke-width:0.6999999999999998;stroke-dasharray:2.0,2.0;" x1="47.6" x2="163.1" y1="652.9387" y2="652.9387"/><text fill="#000000" font-family="sans-serif" font-size="9.1" lengthAdjust="spacing" textLength="46.2" x="56" y="649.2548">show users</text><polygon fill="#181818" points="155.4,672.0424,162.4,674.8424,155.4,677.6424,158.2,674.8424" style="stroke:#181818;stroke-width:0.6999999999999998;"/><line style="stroke:#181818;stroke-width:0.6999999999999998;" x1="44.1" x2="159.6" y1="674.8424" y2="674.8424"/><text fill="#000000" font-family="sans-serif" font-size="9.1" lengthAdjust="spacing" textLength="17.5" x="49" y="671.1585">user</text><polygon fill="#181818" points="155.4,693.9461,162.4,696.7461,155.4,699.5461,158.2,696.7461" style="stroke:#181818;stroke-width:0.6999999999999998;"/><line style="stroke:#181818;stroke-width:0.6999999999999998;" x1="44.1" x2="159.6" y1="696.7461" y2="696.7461"/><text fill="#000000" font-family="sans-serif" font-size="9.1" lengthAdjust="spacing" textLength="77.7" x="49" y="693.0622">shows permissions</text><polygon fill="#181818" points="155.4,715.8498,162.4,718.6498,155.4,721.4498,158.2,718.6498" style="stroke:#181818;stroke-width:0.6999999999999998;"/><line style="stroke:#181818;stroke-width:0.6999999999999998;" x1="44.1" x2="159.6" y1="718.6498" y2="718.6498"/><text fill="#000000" font-family="sans-serif" font-size="9.1" lengthAdjust="spacing" textLength="25.2" x="49" y="714.9659">perms</text><polygon fill="#181818" points="284.2,737.7535,291.2,740.5535,284.2,743.3535,287,740.5535" style="stroke:#181818;stroke-width:0.6999999999999998;"/><line style="stroke:#181818;stroke-width:0.6999999999999998;" x1="170.8" x2="288.4" y1="740.5535" y2="740.5535"/><text fill="#000000" font-family="sans-serif" font-size="9.1" lengthAdjust="spacing" textLength="84.7" x="175.7" y="736.8696">addUser(user,perms)</text><polygon fill="#181818" points="280.7,764.5572,287.7,767.3572,280.7,770.1572,283.5,767.3572" style="stroke:#181818;stroke-width:0.6999999999999998;"/><line style="stroke:#181818;stroke-width:0.6999999999999998;" x1="170.8" x2="284.9" y1="767.3572" y2="767.3572"/><text fill="#000000" font-family="sans-serif" font-size="9.1" lengthAdjust="spacing" textLength="51.8" x="175.7" y="763.6733">shareBoard()</text><path d="M299.6,776.4572 L299.6,807.2572 L444.5,807.2572 L444.5,783.4572 L437.5,776.4572 L299.6,776.4572 " fill="#FEFFDD" style="stroke:#181818;stroke-width:0.3499999999999999;"/><path d="M437.5,776.4572 L437.5,783.4572 L444.5,783.4572 L437.5,776.4572 " fill="#FEFFDD" style="stroke:#181818;stroke-width:0.3499999999999999;"/><text fill="#000000" font-family="sans-serif" font-size="9.1" lengthAdjust="spacing" textLength="90.3" x="303.8" y="789.7771">setup SBProtocol with</text><text fill="#000000" font-family="sans-serif" font-size="9.1" lengthAdjust="spacing" textLength="127.4" x="306.6" y="801.8808">regex "username#&amp;&amp;#perms\0"</text><polygon fill="#181818" points="178.5,824.6684,171.5,827.4684,178.5,830.2684,175.7,827.4684" style="stroke:#181818;stroke-width:0.6999999999999998;"/><line style="stroke:#181818;stroke-width:0.6999999999999998;stroke-dasharray:2.0,2.0;" x1="174.3" x2="291.9" y1="827.4684" y2="827.4684"/><text fill="#000000" font-family="sans-serif" font-size="9.1" lengthAdjust="spacing" textLength="100.1" x="182.7" y="823.7845">return operation success</text><polygon fill="#181818" points="51.8,846.5721,44.8,849.3721,51.8,852.1721,49,849.3721" style="stroke:#181818;stroke-width:0.6999999999999998;"/><line style="stroke:#181818;stroke-width:0.6999999999999998;stroke-dasharray:2.0,2.0;" x1="47.6" x2="166.6" y1="849.3721" y2="849.3721"/><text fill="#000000" font-family="sans-serif" font-size="9.1" lengthAdjust="spacing" textLength="102.9" x="56" y="845.6882">shows operation success</text><!--SRC=[dLLTQzim57tthxYaK1o8nvv3Dt2sZdQ3jJHDsKDWAB8MYpgwHhfnjd-_Azb9xDJvsFHYIphtwzmZIKX22zD9AifovfG5uM3DtwWKbhJKfJ04qrnODK5Xizbz0EWZsv_GaCMYgFr8iaKNE7cqI2YnyDjbyz-5A5ifctvDVtY8g_nV54K-9KW-ScGOGwNL1a8y5mb9kXAaV4x0Wm49utneHaghU2zsmUbzEQf_7j7ICA3zCCZMLYzpsXc0Dew4aGhm5pYKhufWeoc7hICG9eEziz7S2BOfrmIEsCCgrcOw321Sar-UriiycmwZ47gNU639hsIgkzPJpo8K_Omlp40yFEB7Zu1dkot7Uoxw2XzpBRGks_tnvOxd1WXVbO4F4AUpvxkVpm_VRhyFULbYfdXrUfS-tKuUqgVFfo8xPRAczFFvUUPwK-Jjx333XX1E23T6-PQmbjXB1ei_C9ZFtmzEHLmgye9LXbB73T9csOqUJ6wIf9DbRN3WTglCPlUTAmjDyO3ZDzq-x6shjK7QJ5AEcwQSUhUj-B2-CzhBEqTqzScB0-IK92wLnT4cRidwOd7LqDKAsgygFW41urFb6Q1fj_2GpFFwkR2QJXiF3ZaVwPQ1LLBfYWNJv5BBQcuy_Gue5mHI65ZuEw7Ih2pMsWcL_QVIBbNRFoZkcEhyA11BW4sk2mKRldMvK6pgwuJgKMZWfGjg2pKy7GSkRfAs1xxtbLrfvpIQ4uuyoBr9PgTyaMN-jOgzpIXWzsIoMg9U8xTxfrfoxsUegnU_TUIEPAcmXfRgDmnyBaQirDNrzLL8gQECG4IoJSMoByl7WN62c0bmQocLSsTRzxObhiTB_wNJclDh-HS0]--></g></svg>