<?xml version="1.0" encoding="us-ascii" standalone="no"?><svg xmlns="http://www.w3.org/2000/svg" xmlns:xlink="http://www.w3.org/1999/xlink" contentStyleType="text/css" height="1460px" preserveAspectRatio="none" style="width:1160px;height:1460px;background:#FFFFFF;" version="1.1" viewBox="0 0 1160 1460" width="1160px" zoomAndPan="magnify"><defs/><g><rect fill="#FFFFFF" height="1275.0586" style="stroke:#181818;stroke-width:1.0;" width="10" x="50" y="93.6211"/><rect fill="#FFFFFF" height="30" style="stroke:#181818;stroke-width:1.0;" width="10" x="231" y="119.9121"/><rect fill="#FFFFFF" height="1172.4766" style="stroke:#181818;stroke-width:1.0;" width="10" x="231" y="187.2031"/><rect fill="#FFFFFF" height="85.873" style="stroke:#181818;stroke-width:1.0;" width="10" x="457" y="515.1133"/><rect fill="#FFFFFF" height="85.873" style="stroke:#181818;stroke-width:1.0;" width="10" x="457" y="832.0234"/><rect fill="#FFFFFF" height="31.291" style="stroke:#181818;stroke-width:1.0;" width="10" x="558.5" y="383.9492"/><rect fill="#FFFFFF" height="209.7461" style="stroke:#181818;stroke-width:1.0;" width="10" x="558.5" y="1089.3516"/><rect fill="#FFFFFF" height="31.291" style="stroke:#181818;stroke-width:1.0;" width="10" x="673.5" y="975.4785"/><rect fill="none" height="126.1641" style="stroke:#000000;stroke-width:1.5;" width="587.5" x="156.5" y="932.8965"/><rect fill="none" height="113.1641" style="stroke:#000000;stroke-width:1.5;" width="566" x="504" y="1141.6426"/><line style="stroke:#181818;stroke-width:0.5;stroke-dasharray:5.0,5.0;" x1="55" x2="55" y1="83.6211" y2="1377.6797"/><line style="stroke:#181818;stroke-width:0.5;stroke-dasharray:5.0,5.0;" x1="235.5" x2="235.5" y1="83.6211" y2="1377.6797"/><line style="stroke:#181818;stroke-width:0.5;stroke-dasharray:5.0,5.0;" x1="462" x2="462" y1="83.6211" y2="1377.6797"/><line style="stroke:#181818;stroke-width:0.5;stroke-dasharray:5.0,5.0;" x1="563" x2="563" y1="83.6211" y2="1377.6797"/><line style="stroke:#181818;stroke-width:0.5;stroke-dasharray:5.0,5.0;" x1="678" x2="678" y1="83.6211" y2="1377.6797"/><line style="stroke:#181818;stroke-width:0.5;stroke-dasharray:5.0,5.0;" x1="803" x2="803" y1="83.6211" y2="1377.6797"/><line style="stroke:#181818;stroke-width:0.5;stroke-dasharray:5.0,5.0;" x1="966" x2="966" y1="83.6211" y2="1377.6797"/><line style="stroke:#181818;stroke-width:0.5;stroke-dasharray:5.0,5.0;" x1="1112" x2="1112" y1="83.6211" y2="1377.6797"/><text fill="#000000" font-family="sans-serif" font-size="14" lengthAdjust="spacing" textLength="94" x="5" y="80.1074">SBPServerApp</text><ellipse cx="55" cy="13.5" fill="#E2E2F0" rx="8" ry="8" style="stroke:#181818;stroke-width:0.5;"/><path d="M55,21.5 L55,48.5 M42,29.5 L68,29.5 M55,48.5 L42,63.5 M55,48.5 L68,63.5 " fill="none" style="stroke:#181818;stroke-width:0.5;"/><text fill="#000000" font-family="sans-serif" font-size="14" lengthAdjust="spacing" textLength="94" x="5" y="1391.7871">SBPServerApp</text><ellipse cx="55" cy="1403.8008" fill="#E2E2F0" rx="8" ry="8" style="stroke:#181818;stroke-width:0.5;"/><path d="M55,1411.8008 L55,1438.8008 M42,1419.8008 L68,1419.8008 M55,1438.8008 L42,1453.8008 M55,1438.8008 L68,1453.8008 " fill="none" style="stroke:#181818;stroke-width:0.5;"/><rect fill="#E2E2F0" height="32.6211" rx="2.5" ry="2.5" style="stroke:#181818;stroke-width:0.5;" width="139" x="166.5" y="50"/><text fill="#000000" font-family="sans-serif" font-size="14" lengthAdjust="spacing" textLength="125" x="173.5" y="72.1074">ShareBoardHandler</text><rect fill="#E2E2F0" height="32.6211" rx="2.5" ry="2.5" style="stroke:#181818;stroke-width:0.5;" width="139" x="166.5" y="1376.6797"/><text fill="#000000" font-family="sans-serif" font-size="14" lengthAdjust="spacing" textLength="125" x="173.5" y="1398.7871">ShareBoardHandler</text><rect fill="#E2E2F0" height="32.6211" rx="2.5" ry="2.5" style="stroke:#181818;stroke-width:0.5;" width="84" x="420" y="50"/><text fill="#000000" font-family="sans-serif" font-size="14" lengthAdjust="spacing" textLength="70" x="427" y="72.1074">SBProtocol</text><rect fill="#E2E2F0" height="32.6211" rx="2.5" ry="2.5" style="stroke:#181818;stroke-width:0.5;" width="84" x="420" y="1376.6797"/><text fill="#000000" font-family="sans-serif" font-size="14" lengthAdjust="spacing" textLength="70" x="427" y="1398.7871">SBProtocol</text><rect fill="#E2E2F0" height="32.6211" rx="2.5" ry="2.5" style="stroke:#181818;stroke-width:0.5;" width="99" x="514" y="50"/><text fill="#000000" font-family="sans-serif" font-size="14" lengthAdjust="spacing" textLength="85" x="521" y="72.1074">BoardService</text><rect fill="#E2E2F0" height="32.6211" rx="2.5" ry="2.5" style="stroke:#181818;stroke-width:0.5;" width="99" x="514" y="1376.6797"/><text fill="#000000" font-family="sans-serif" font-size="14" lengthAdjust="spacing" textLength="85" x="521" y="1398.7871">BoardService</text><rect fill="#E2E2F0" height="32.6211" rx="2.5" ry="2.5" style="stroke:#181818;stroke-width:0.5;" width="111" x="623" y="50"/><text fill="#000000" font-family="sans-serif" font-size="14" lengthAdjust="spacing" textLength="97" x="630" y="72.1074">UserRepository</text><rect fill="#E2E2F0" height="32.6211" rx="2.5" ry="2.5" style="stroke:#181818;stroke-width:0.5;" width="111" x="623" y="1376.6797"/><text fill="#000000" font-family="sans-serif" font-size="14" lengthAdjust="spacing" textLength="97" x="630" y="1398.7871">UserRepository</text><rect fill="#E2E2F0" height="32.6211" rx="2.5" ry="2.5" style="stroke:#181818;stroke-width:0.5;" width="119" x="744" y="50"/><text fill="#000000" font-family="sans-serif" font-size="14" lengthAdjust="spacing" textLength="105" x="751" y="72.1074">BoardParticipant</text><rect fill="#E2E2F0" height="32.6211" rx="2.5" ry="2.5" style="stroke:#181818;stroke-width:0.5;" width="119" x="744" y="1376.6797"/><text fill="#000000" font-family="sans-serif" font-size="14" lengthAdjust="spacing" textLength="105" x="751" y="1398.7871">BoardParticipant</text><rect fill="#E2E2F0" height="32.6211" rx="2.5" ry="2.5" style="stroke:#181818;stroke-width:0.5;" width="187" x="873" y="50"/><text fill="#000000" font-family="sans-serif" font-size="14" lengthAdjust="spacing" textLength="173" x="880" y="72.1074">BoardParticipantRepository</text><rect fill="#E2E2F0" height="32.6211" rx="2.5" ry="2.5" style="stroke:#181818;stroke-width:0.5;" width="187" x="873" y="1376.6797"/><text fill="#000000" font-family="sans-serif" font-size="14" lengthAdjust="spacing" textLength="173" x="880" y="1398.7871">BoardParticipantRepository</text><rect fill="#E2E2F0" height="32.6211" rx="2.5" ry="2.5" style="stroke:#181818;stroke-width:0.5;" width="84" x="1070" y="50"/><text fill="#000000" font-family="sans-serif" font-size="14" lengthAdjust="spacing" textLength="70" x="1077" y="72.1074">SBProtocol</text><rect fill="#E2E2F0" height="32.6211" rx="2.5" ry="2.5" style="stroke:#181818;stroke-width:0.5;" width="84" x="1070" y="1376.6797"/><text fill="#000000" font-family="sans-serif" font-size="14" lengthAdjust="spacing" textLength="70" x="1077" y="1398.7871">SBProtocol</text><rect fill="#FFFFFF" height="1275.0586" style="stroke:#181818;stroke-width:1.0;" width="10" x="50" y="93.6211"/><rect fill="#FFFFFF" height="30" style="stroke:#181818;stroke-width:1.0;" width="10" x="231" y="119.9121"/><rect fill="#FFFFFF" height="1172.4766" style="stroke:#181818;stroke-width:1.0;" width="10" x="231" y="187.2031"/><rect fill="#FFFFFF" height="85.873" style="stroke:#181818;stroke-width:1.0;" width="10" x="457" y="515.1133"/><rect fill="#FFFFFF" height="85.873" style="stroke:#181818;stroke-width:1.0;" width="10" x="457" y="832.0234"/><rect fill="#FFFFFF" height="31.291" style="stroke:#181818;stroke-width:1.0;" width="10" x="558.5" y="383.9492"/><rect fill="#FFFFFF" height="209.7461" style="stroke:#181818;stroke-width:1.0;" width="10" x="558.5" y="1089.3516"/><rect fill="#FFFFFF" height="31.291" style="stroke:#181818;stroke-width:1.0;" width="10" x="673.5" y="975.4785"/><polygon fill="#181818" points="219,115.9121,229,119.9121,219,123.9121,223,119.9121" style="stroke:#181818;stroke-width:1.0;"/><line style="stroke:#181818;stroke-width:1.0;" x1="60" x2="225" y1="119.9121" y2="119.9121"/><text fill="#000000" font-family="sans-serif" font-size="13" lengthAdjust="spacing" textLength="152" x="67" y="114.6494">create(sock,codeRequest)</text><path d="M246,98.6211 L246,125.6211 L554,125.6211 L554,108.6211 L544,98.6211 L246,98.6211 " fill="#FEFFDD" style="stroke:#181818;stroke-width:0.5;"/><path d="M544,98.6211 L544,108.6211 L554,108.6211 L544,98.6211 " fill="#FEFFDD" style="stroke:#181818;stroke-width:0.5;"/><text fill="#000000" font-family="sans-serif" font-size="13" lengthAdjust="spacing" textLength="287" x="252" y="117.6494">-receives a socket and SBProtocol codeRequests</text><polygon fill="#181818" points="219,183.2031,229,187.2031,219,191.2031,223,187.2031" style="stroke:#181818;stroke-width:1.0;"/><line style="stroke:#181818;stroke-width:1.0;" x1="60" x2="225" y1="187.2031" y2="187.2031"/><text fill="#000000" font-family="sans-serif" font-size="13" lengthAdjust="spacing" textLength="26" x="67" y="181.9404">run()</text><path d="M246,165.9121 L246,192.9121 L404,192.9121 L404,175.9121 L394,165.9121 L246,165.9121 " fill="#FEFFDD" style="stroke:#181818;stroke-width:0.5;"/><path d="M394,165.9121 L394,175.9121 L404,175.9121 L394,165.9121 " fill="#FEFFDD" style="stroke:#181818;stroke-width:0.5;"/><text fill="#000000" font-family="sans-serif" font-size="13" lengthAdjust="spacing" textLength="137" x="252" y="184.9404">setup in/output streams</text><polygon fill="#181818" points="450,217.4941,460,221.4941,450,225.4941,454,221.4941" style="stroke:#181818;stroke-width:1.0;"/><line style="stroke:#181818;stroke-width:1.0;" x1="241" x2="456" y1="221.4941" y2="221.4941"/><text fill="#000000" font-family="sans-serif" font-size="13" lengthAdjust="spacing" textLength="61" x="248" y="216.2314">getToken()</text><polygon fill="#181818" points="252,248.7852,242,252.7852,252,256.7852,248,252.7852" style="stroke:#181818;stroke-width:1.0;"/><line style="stroke:#181818;stroke-width:1.0;stroke-dasharray:2.0,2.0;" x1="246" x2="461" y1="252.7852" y2="252.7852"/><text fill="#000000" font-family="sans-serif" font-size="13" lengthAdjust="spacing" textLength="32" x="258" y="247.5225">token</text><polygon fill="#181818" points="71,280.0762,61,284.0762,71,288.0762,67,284.0762" style="stroke:#181818;stroke-width:1.0;"/><line style="stroke:#181818;stroke-width:1.0;" x1="65" x2="230" y1="284.0762" y2="284.0762"/><text fill="#000000" font-family="sans-serif" font-size="13" lengthAdjust="spacing" textLength="91" x="77" y="278.8135">getClient(token)</text><path d="M65,297.0762 L65,324.0762 L409,324.0762 L409,307.0762 L399,297.0762 L65,297.0762 " fill="#FEFFDD" style="stroke:#181818;stroke-width:0.5;"/><path d="M399,297.0762 L399,307.0762 L409,307.0762 L399,297.0762 " fill="#FEFFDD" style="stroke:#181818;stroke-width:0.5;"/><text fill="#000000" font-family="sans-serif" font-size="13" lengthAdjust="spacing" textLength="323" x="71" y="316.1045">clients associated to token are stored at SBPServerApp</text><polygon fill="#181818" points="219,348.6582,229,352.6582,219,356.6582,223,352.6582" style="stroke:#181818;stroke-width:1.0;"/><line style="stroke:#181818;stroke-width:1.0;stroke-dasharray:2.0,2.0;" x1="60" x2="225" y1="352.6582" y2="352.6582"/><text fill="#000000" font-family="sans-serif" font-size="13" lengthAdjust="spacing" textLength="31" x="67" y="347.3955">client</text><polygon fill="#181818" points="546.5,379.9492,556.5,383.9492,546.5,387.9492,550.5,383.9492" style="stroke:#181818;stroke-width:1.0;"/><line style="stroke:#181818;stroke-width:1.0;" x1="241" x2="552.5" y1="383.9492" y2="383.9492"/><text fill="#000000" font-family="sans-serif" font-size="13" lengthAdjust="spacing" textLength="220" x="248" y="378.6865">listBoardsUserOwnsNotArchived(user)</text><polygon fill="#181818" points="252,411.2402,242,415.2402,252,419.2402,248,415.2402" style="stroke:#181818;stroke-width:1.0;"/><line style="stroke:#181818;stroke-width:1.0;" x1="246" x2="562.5" y1="415.2402" y2="415.2402"/><text fill="#000000" font-family="sans-serif" font-size="13" lengthAdjust="spacing" textLength="39" x="258" y="409.9775">boards</text><path d="M246,428.2402 L246,455.2402 L524,455.2402 L524,438.2402 L514,428.2402 L246,428.2402 " fill="#FEFFDD" style="stroke:#181818;stroke-width:0.5;"/><path d="M514,428.2402 L514,438.2402 L524,438.2402 L514,428.2402 " fill="#FEFFDD" style="stroke:#181818;stroke-width:0.5;"/><text fill="#000000" font-family="sans-serif" font-size="13" lengthAdjust="spacing" textLength="257" x="252" y="447.2686">setup SBProtocol to send boards as content</text><polygon fill="#181818" points="450,479.8223,460,483.8223,450,487.8223,454,483.8223" style="stroke:#181818;stroke-width:1.0;"/><line style="stroke:#181818;stroke-width:1.0;" x1="241" x2="456" y1="483.8223" y2="483.8223"/><text fill="#000000" font-family="sans-serif" font-size="13" lengthAdjust="spacing" textLength="63" x="248" y="478.5596">send(outS)</text><polygon fill="#181818" points="445,511.1133,455,515.1133,445,519.1133,449,515.1133" style="stroke:#181818;stroke-width:1.0;"/><line style="stroke:#181818;stroke-width:1.0;" x1="241" x2="451" y1="515.1133" y2="515.1133"/><text fill="#000000" font-family="sans-serif" font-size="13" lengthAdjust="spacing" textLength="197" x="248" y="509.8506">receiveBoardChosen = create(inS)</text><path d="M472,528.1133 L472,572.1133 L672,572.1133 L672,538.1133 L662,528.1133 L472,528.1133 " fill="#FEFFDD" style="stroke:#181818;stroke-width:0.5;"/><path d="M662,528.1133 L662,538.1133 L672,538.1133 L662,528.1133 " fill="#FEFFDD" style="stroke:#181818;stroke-width:0.5;"/><text fill="#000000" font-family="sans-serif" font-size="13" lengthAdjust="spacing" textLength="47" x="478" y="547.1416">content:</text><text fill="#000000" font-family="sans-serif" font-size="13" lengthAdjust="spacing" textLength="179" x="478" y="564.4326">-board title of the board chosen</text><polygon fill="#181818" points="252,596.9863,242,600.9863,252,604.9863,248,600.9863" style="stroke:#181818;stroke-width:1.0;"/><line style="stroke:#181818;stroke-width:1.0;stroke-dasharray:2.0,2.0;" x1="246" x2="461" y1="600.9863" y2="600.9863"/><text fill="#000000" font-family="sans-serif" font-size="13" lengthAdjust="spacing" textLength="76" x="258" y="595.7236">boardChosen</text><polygon fill="#181818" points="71,628.2773,61,632.2773,71,636.2773,67,632.2773" style="stroke:#181818;stroke-width:1.0;"/><line style="stroke:#181818;stroke-width:1.0;" x1="65" x2="230" y1="632.2773" y2="632.2773"/><text fill="#000000" font-family="sans-serif" font-size="13" lengthAdjust="spacing" textLength="92" x="77" y="627.0146">getBoard(board)</text><path d="M65,645.2773 L65,672.2773 L270,672.2773 L270,655.2773 L260,645.2773 L65,645.2773 " fill="#FEFFDD" style="stroke:#181818;stroke-width:0.5;"/><path d="M260,645.2773 L260,655.2773 L270,655.2773 L260,645.2773 " fill="#FEFFDD" style="stroke:#181818;stroke-width:0.5;"/><text fill="#000000" font-family="sans-serif" font-size="13" lengthAdjust="spacing" textLength="184" x="71" y="664.3057">boards stored at SBPServerApp</text><polygon fill="#181818" points="219,696.8594,229,700.8594,219,704.8594,223,700.8594" style="stroke:#181818;stroke-width:1.0;"/><line style="stroke:#181818;stroke-width:1.0;stroke-dasharray:2.0,2.0;" x1="60" x2="225" y1="700.8594" y2="700.8594"/><text fill="#000000" font-family="sans-serif" font-size="13" lengthAdjust="spacing" textLength="32" x="67" y="695.5967">board</text><polygon fill="#181818" points="551.5,728.1504,561.5,732.1504,551.5,736.1504,555.5,732.1504" style="stroke:#181818;stroke-width:1.0;"/><line style="stroke:#181818;stroke-width:1.0;" x1="241" x2="557.5" y1="732.1504" y2="732.1504"/><text fill="#000000" font-family="sans-serif" font-size="13" lengthAdjust="spacing" textLength="128" x="248" y="726.8877">usersNotInvited(board)</text><path d="M246,745.1504 L246,772.1504 L579,772.1504 L579,755.1504 L569,745.1504 L246,745.1504 " fill="#FEFFDD" style="stroke:#181818;stroke-width:0.5;"/><path d="M569,745.1504 L569,755.1504 L579,755.1504 L569,745.1504 " fill="#FEFFDD" style="stroke:#181818;stroke-width:0.5;"/><text fill="#000000" font-family="sans-serif" font-size="13" lengthAdjust="spacing" textLength="312" x="252" y="764.1787">setup SBProtocol to send users not invited as content</text><polygon fill="#181818" points="450,796.7324,460,800.7324,450,804.7324,454,800.7324" style="stroke:#181818;stroke-width:1.0;"/><line style="stroke:#181818;stroke-width:1.0;" x1="241" x2="456" y1="800.7324" y2="800.7324"/><text fill="#000000" font-family="sans-serif" font-size="13" lengthAdjust="spacing" textLength="63" x="248" y="795.4697">send(outS)</text><polygon fill="#181818" points="445,828.0234,455,832.0234,445,836.0234,449,832.0234" style="stroke:#181818;stroke-width:1.0;"/><line style="stroke:#181818;stroke-width:1.0;" x1="241" x2="451" y1="832.0234" y2="832.0234"/><text fill="#000000" font-family="sans-serif" font-size="13" lengthAdjust="spacing" textLength="189" x="248" y="826.7607">receiveInvitedUsers = create(inS)</text><path d="M472,845.0234 L472,889.0234 L776,889.0234 L776,855.0234 L766,845.0234 L472,845.0234 " fill="#FEFFDD" style="stroke:#181818;stroke-width:0.5;"/><path d="M766,845.0234 L766,855.0234 L776,855.0234 L766,845.0234 " fill="#FEFFDD" style="stroke:#181818;stroke-width:0.5;"/><text fill="#000000" font-family="sans-serif" font-size="13" lengthAdjust="spacing" textLength="47" x="478" y="864.0518">content:</text><text fill="#000000" font-family="sans-serif" font-size="13" lengthAdjust="spacing" textLength="283" x="478" y="881.3428">-username of users invited and perms associated</text><polygon fill="#181818" points="252,913.8965,242,917.8965,252,921.8965,248,917.8965" style="stroke:#181818;stroke-width:1.0;"/><line style="stroke:#181818;stroke-width:1.0;stroke-dasharray:2.0,2.0;" x1="246" x2="461" y1="917.8965" y2="917.8965"/><text fill="#000000" font-family="sans-serif" font-size="13" lengthAdjust="spacing" textLength="68" x="258" y="912.6338">usersInvited</text><path d="M156.5,932.8965 L229.5,932.8965 L229.5,942.1875 L219.5,952.1875 L156.5,952.1875 L156.5,932.8965 " fill="#EEEEEE" style="stroke:#000000;stroke-width:1.5;"/><rect fill="none" height="126.1641" style="stroke:#000000;stroke-width:1.5;" width="587.5" x="156.5" y="932.8965"/><text fill="#000000" font-family="sans-serif" font-size="13" font-weight="bold" lengthAdjust="spacing" textLength="28" x="171.5" y="947.9248">loop</text><text fill="#000000" font-family="sans-serif" font-size="11" font-weight="bold" lengthAdjust="spacing" textLength="113" x="244.5" y="946.7666">[for each username]</text><polygon fill="#181818" points="661.5,971.4785,671.5,975.4785,661.5,979.4785,665.5,975.4785" style="stroke:#181818;stroke-width:1.0;"/><line style="stroke:#181818;stroke-width:1.0;" x1="241" x2="667.5" y1="975.4785" y2="975.4785"/><text fill="#000000" font-family="sans-serif" font-size="13" lengthAdjust="spacing" textLength="117" x="248" y="970.2158">ofIdentity(username)</text><polygon fill="#181818" points="252,1002.7695,242,1006.7695,252,1010.7695,248,1006.7695" style="stroke:#181818;stroke-width:1.0;"/><line style="stroke:#181818;stroke-width:1.0;stroke-dasharray:2.0,2.0;" x1="246" x2="677.5" y1="1006.7695" y2="1006.7695"/><text fill="#000000" font-family="sans-serif" font-size="13" lengthAdjust="spacing" textLength="25" x="258" y="1001.5068">user</text><line style="stroke:#181818;stroke-width:1.0;" x1="241" x2="283" y1="1038.0605" y2="1038.0605"/><line style="stroke:#181818;stroke-width:1.0;" x1="283" x2="283" y1="1038.0605" y2="1051.0605"/><line style="stroke:#181818;stroke-width:1.0;" x1="242" x2="283" y1="1051.0605" y2="1051.0605"/><polygon fill="#181818" points="252,1047.0605,242,1051.0605,252,1055.0605,248,1051.0605" style="stroke:#181818;stroke-width:1.0;"/><text fill="#000000" font-family="sans-serif" font-size="13" lengthAdjust="spacing" textLength="124" x="248" y="1032.7979">addUserToInvite(user)</text><polygon fill="#181818" points="546.5,1085.3516,556.5,1089.3516,546.5,1093.3516,550.5,1089.3516" style="stroke:#181818;stroke-width:1.0;"/><line style="stroke:#181818;stroke-width:1.0;" x1="241" x2="552.5" y1="1089.3516" y2="1089.3516"/><text fill="#000000" font-family="sans-serif" font-size="13" lengthAdjust="spacing" textLength="229" x="248" y="1084.0889">srv.shareBoard(optBoard, usersToInvite)</text><path d="M573,1102.3516 L573,1129.3516 L693,1129.3516 L693,1112.3516 L683,1102.3516 L573,1102.3516 " fill="#FEFFDD" style="stroke:#181818;stroke-width:0.5;"/><path d="M683,1102.3516 L683,1112.3516 L693,1112.3516 L683,1102.3516 " fill="#FEFFDD" style="stroke:#181818;stroke-width:0.5;"/><text fill="#000000" font-family="sans-serif" font-size="13" lengthAdjust="spacing" textLength="99" x="579" y="1121.3799">begin transaction</text><path d="M504,1141.6426 L577,1141.6426 L577,1150.9336 L567,1160.9336 L504,1160.9336 L504,1141.6426 " fill="#EEEEEE" style="stroke:#000000;stroke-width:1.5;"/><rect fill="none" height="113.1641" style="stroke:#000000;stroke-width:1.5;" width="566" x="504" y="1141.6426"/><text fill="#000000" font-family="sans-serif" font-size="13" font-weight="bold" lengthAdjust="spacing" textLength="28" x="519" y="1156.6709">loop</text><text fill="#000000" font-family="sans-serif" font-size="11" font-weight="bold" lengthAdjust="spacing" textLength="82" x="592" y="1155.5127">[for each user]</text><polygon fill="#181818" points="791.5,1180.2246,801.5,1184.2246,791.5,1188.2246,795.5,1184.2246" style="stroke:#181818;stroke-width:1.0;"/><line style="stroke:#181818;stroke-width:1.0;" x1="568.5" x2="797.5" y1="1184.2246" y2="1184.2246"/><text fill="#000000" font-family="sans-serif" font-size="13" lengthAdjust="spacing" textLength="145" x="575.5" y="1178.9619">create(username, perms)</text><polygon fill="#181818" points="579.5,1211.5156,569.5,1215.5156,579.5,1219.5156,575.5,1215.5156" style="stroke:#181818;stroke-width:1.0;"/><line style="stroke:#181818;stroke-width:1.0;stroke-dasharray:2.0,2.0;" x1="573.5" x2="802.5" y1="1215.5156" y2="1215.5156"/><text fill="#000000" font-family="sans-serif" font-size="13" lengthAdjust="spacing" textLength="60" x="585.5" y="1210.2529">participant</text><polygon fill="#181818" points="954.5,1242.8066,964.5,1246.8066,954.5,1250.8066,958.5,1246.8066" style="stroke:#181818;stroke-width:1.0;"/><line style="stroke:#181818;stroke-width:1.0;" x1="568.5" x2="960.5" y1="1246.8066" y2="1246.8066"/><text fill="#000000" font-family="sans-serif" font-size="13" lengthAdjust="spacing" textLength="94" x="575.5" y="1241.5439">save(participant)</text><path d="M573,1266.8066 L573,1293.8066 L705,1293.8066 L705,1276.8066 L695,1266.8066 L573,1266.8066 " fill="#FEFFDD" style="stroke:#181818;stroke-width:0.5;"/><path d="M695,1266.8066 L695,1276.8066 L705,1276.8066 L695,1266.8066 " fill="#FEFFDD" style="stroke:#181818;stroke-width:0.5;"/><text fill="#000000" font-family="sans-serif" font-size="13" lengthAdjust="spacing" textLength="111" x="579" y="1285.835">commit transaction</text><path d="M246,1304.0977 L246,1331.0977 L506,1331.0977 L506,1314.0977 L496,1304.0977 L246,1304.0977 " fill="#FEFFDD" style="stroke:#181818;stroke-width:0.5;"/><path d="M496,1304.0977 L496,1314.0977 L506,1314.0977 L496,1304.0977 " fill="#FEFFDD" style="stroke:#181818;stroke-width:0.5;"/><text fill="#000000" font-family="sans-serif" font-size="13" lengthAdjust="spacing" textLength="239" x="252" y="1323.126">setup SBProtocol with success message</text><polygon fill="#181818" points="1100,1355.6797,1110,1359.6797,1100,1363.6797,1104,1359.6797" style="stroke:#181818;stroke-width:1.0;"/><line style="stroke:#181818;stroke-width:1.0;" x1="236" x2="1106" y1="1359.6797" y2="1359.6797"/><text fill="#000000" font-family="sans-serif" font-size="13" lengthAdjust="spacing" textLength="67" x="243" y="1354.417">send(outS))</text><!--SRC=[hLPDRzim3BtxL-Ze0CrsBxO1JIxhPIkQzZPWK6Kc5ff8daIxwByVHTcErDXfiDM7VaZaU-JZasofq3gnMTrjm7NWRff6I2yy_rCKZNIebMwaGR6ffOELbQxwBasr1nS2w_Xd7hYwSnQjidk6UcgoNKO8P5f1s7_wxJjL55AXxYJ2G1r_YUKtCN1S2-M08aflrVELiXNSmvyMF2uAGO-nbEpqhaPnBPOE5EWEl90YX0CA0aahI_8zvuy532tnQWMdwt7dM62_GRIkDUL4DHwmROGsdssBJOl28pLoyCKqh-YV0POOI4E2sG4-s6SOADAOByjb7uGXOX8Zriimwxq6WoN77i6Ickts6Ayuc9JqfAIcIYiYYJo2747TM4Th4ZCNZQY3JfbG4NEgJBO3HUorHxQAVoI4do_6_x1uurHDKwtAbjQEXOyIHY-9v8bm6VSJeuvHoOJpz5oEOtwSPc8bKiC3kIi21qyhQt2clpYb45-I6pQBOZwezp2hiAujvOYlmndGPZFHVpXhQVTl9igeVMtNlyoI2nQeSGzX7sk8FGZ5R1bKI5wUwhZE8nCnqrfcRCYTbOpphWjxSV_5R9nQd3DRi5FmrwtfDFdxV4aNE87nGXeTUaRyS5FqbJuoqSUw8XHlv84j4HiPcw3M6d27z2x8aCyRXi7wmkSSCwxlhMt4bbvDj5-BeQQCBT4cw70FZVMQ_F5AN7PxMr4_6b_B8NUH9O-iUUeaGRXTJnW2R1QTT781PgQCh7YI3pQgy-Pw8rkSTQzttIS_lfnBsyI3THK57q1dhyiPc_Cc7HxOQIFGIUD3dZLd9dJYXV7svOBkag-0yMK-JESgEcinWn56C06IV5XSJfwDqSiEoWGcb_siDCeU3XedjVd_bygBnbhuLYdmNXpeXzp1b0cIbFG6eIjaujFbBm00]--></g></svg>