<?xml version="1.0" encoding="us-ascii" standalone="no"?><svg xmlns="http://www.w3.org/2000/svg" xmlns:xlink="http://www.w3.org/1999/xlink" contentStyleType="text/css" height="374px" preserveAspectRatio="none" style="width:206px;height:374px;background:#FFFFFF;" version="1.1" viewBox="0 0 206 374" width="206px" zoomAndPan="magnify"><defs/><g><line style="stroke:#181818;stroke-width:0.5;stroke-dasharray:5.0,5.0;" x1="26" x2="26" y1="83.6211" y2="291.3672"/><line style="stroke:#181818;stroke-width:0.5;stroke-dasharray:5.0,5.0;" x1="181" x2="181" y1="83.6211" y2="291.3672"/><text fill="#000000" font-family="sans-serif" font-size="14" lengthAdjust="spacing" textLength="36" x="5" y="80.1074">Client</text><ellipse cx="26" cy="13.5" fill="#E2E2F0" rx="8" ry="8" style="stroke:#181818;stroke-width:0.5;"/><path d="M26,21.5 L26,48.5 M13,29.5 L39,29.5 M26,48.5 L13,63.5 M26,48.5 L39,63.5 " fill="none" style="stroke:#181818;stroke-width:0.5;"/><text fill="#000000" font-family="sans-serif" font-size="14" lengthAdjust="spacing" textLength="36" x="5" y="305.4746">Client</text><ellipse cx="26" cy="317.4883" fill="#E2E2F0" rx="8" ry="8" style="stroke:#181818;stroke-width:0.5;"/><path d="M26,325.4883 L26,352.4883 M13,333.4883 L39,333.4883 M26,352.4883 L13,367.4883 M26,352.4883 L39,367.4883 " fill="none" style="stroke:#181818;stroke-width:0.5;"/><text fill="#000000" font-family="sans-serif" font-size="14" lengthAdjust="spacing" textLength="42" x="157" y="80.1074">Server</text><ellipse cx="181" cy="13.5" fill="#E2E2F0" rx="8" ry="8" style="stroke:#181818;stroke-width:0.5;"/><path d="M181,21.5 L181,48.5 M168,29.5 L194,29.5 M181,48.5 L168,63.5 M181,48.5 L194,63.5 " fill="none" style="stroke:#181818;stroke-width:0.5;"/><text fill="#000000" font-family="sans-serif" font-size="14" lengthAdjust="spacing" textLength="42" x="157" y="305.4746">Server</text><ellipse cx="181" cy="317.4883" fill="#E2E2F0" rx="8" ry="8" style="stroke:#181818;stroke-width:0.5;"/><path d="M181,325.4883 L181,352.4883 M168,333.4883 L194,333.4883 M181,352.4883 L168,367.4883 M181,352.4883 L194,367.4883 " fill="none" style="stroke:#181818;stroke-width:0.5;"/><polygon fill="#181818" points="169,112.9121,179,116.9121,169,120.9121,173,116.9121" style="stroke:#181818;stroke-width:1.0;"/><line style="stroke:#181818;stroke-width:1.0;" x1="26" x2="175" y1="116.9121" y2="116.9121"/><text fill="#000000" font-family="sans-serif" font-size="13" lengthAdjust="spacing" textLength="131" x="33" y="111.6494">listBoardsOwned(user)</text><polygon fill="#181818" points="37,144.2031,27,148.2031,37,152.2031,33,148.2031" style="stroke:#181818;stroke-width:1.0;"/><line style="stroke:#181818;stroke-width:1.0;stroke-dasharray:2.0,2.0;" x1="31" x2="180" y1="148.2031" y2="148.2031"/><text fill="#000000" font-family="sans-serif" font-size="13" lengthAdjust="spacing" textLength="79" x="43" y="142.9404">boardsOwned</text><polygon fill="#181818" points="169,175.4941,179,179.4941,169,183.4941,173,179.4941" style="stroke:#181818;stroke-width:1.0;"/><line style="stroke:#181818;stroke-width:1.0;" x1="26" x2="175" y1="179.4941" y2="179.4941"/><text fill="#000000" font-family="sans-serif" font-size="13" lengthAdjust="spacing" textLength="116" x="33" y="174.2314">chooseBoard(board)</text><polygon fill="#181818" points="37,206.7852,27,210.7852,37,214.7852,33,210.7852" style="stroke:#181818;stroke-width:1.0;"/><line style="stroke:#181818;stroke-width:1.0;stroke-dasharray:2.0,2.0;" x1="31" x2="180" y1="210.7852" y2="210.7852"/><text fill="#000000" font-family="sans-serif" font-size="13" lengthAdjust="spacing" textLength="88" x="43" y="205.5225">usersNotInvited</text><polygon fill="#181818" points="169,238.0762,179,242.0762,169,246.0762,173,242.0762" style="stroke:#181818;stroke-width:1.0;"/><line style="stroke:#181818;stroke-width:1.0;" x1="26" x2="175" y1="242.0762" y2="242.0762"/><text fill="#000000" font-family="sans-serif" font-size="13" lengthAdjust="spacing" textLength="103" x="33" y="236.8135">inviteUsers(users)</text><polygon fill="#181818" points="37,269.3672,27,273.3672,37,277.3672,33,273.3672" style="stroke:#181818;stroke-width:1.0;"/><line style="stroke:#181818;stroke-width:1.0;stroke-dasharray:2.0,2.0;" x1="31" x2="180" y1="273.3672" y2="273.3672"/><text fill="#000000" font-family="sans-serif" font-size="13" lengthAdjust="spacing" textLength="98" x="43" y="268.1045">sends ACK code</text><!--SRC=[ROv12i8m44NtSufPraKk829eLqNGXNY0c0mqK3AG6TlhQyPMDzbz_dyylW_A1VifKLRqWi4IUAllL6OgjHPB0F3TqHtNQezJ4ZspBr5kIwROlJx3RkCEplt0vnzgQCB8B6IYpiYceyhboZhaEMdJasnvLCwkIDCZbAFWgRzWu4Zm1W00]--></g></svg>